<svg xmlns="http://www.w3.org/2000/svg" xmlns:xlink="http://www.w3.org/1999/xlink" xmlns:lucid="lucid" width="1283" height="384"><g transform="translate(-158.5 -418.5)" lucid:page-tab-id="0_0"><path d="M600 666a6 6 0 0 1 6-6h42a6 6 0 0 0 6-6v-8a2.3 2.3 0 0 1 4-1.54l28 31.08a6.67 6.67 0 0 1 0 8.92l-28 31.08a2.3 2.3 0 0 1-4-1.54v-8a6 6 0 0 0-6-6h-42a6 6 0 0 1-6-6z" fill="#fc9432"/><path d="M1200 426a6 6 0 0 1 6-6h228a6 6 0 0 1 6 6v148a6 6 0 0 1-6 6h-228a6 6 0 0 1-6-6z" stroke="#000" stroke-opacity="0" stroke-width="3" fill="#fff" fill-opacity="0"/><use xlink:href="#a" transform="matrix(1,0,0,1,1205,425) translate(16.524691358024683 29.576388888888893)"/><use xlink:href="#b" transform="matrix(1,0,0,1,1205,425) translate(96.03086419753086 29.576388888888893)"/><use xlink:href="#c" transform="matrix(1,0,0,1,1205,425) translate(161.62345679012347 29.576388888888893)"/><use xlink:href="#d" transform="matrix(1,0,0,1,1205,425) translate(196.19135802469137 29.576388888888893)"/><use xlink:href="#e" transform="matrix(1,0,0,1,1205,425) translate(7.104938271604922 66.90972222222223)"/><use xlink:href="#f" transform="matrix(1,0,0,1,1205,425) translate(88.16666666666666 66.90972222222223)"/><use xlink:href="#g" transform="matrix(1,0,0,1,1205,425) translate(155.48765432098764 66.90972222222223)"/><use xlink:href="#h" transform="matrix(1,0,0,1,1205,425) translate(66.69135802469135 104.24305555555557)"/><use xlink:href="#i" transform="matrix(1,0,0,1,1205,425) translate(106.35802469135803 104.24305555555557)"/><use xlink:href="#j" transform="matrix(1,0,0,1,1205,425) translate(28.709876543209873 141.5763888888889)"/><path d="M760 621a20 20 0 0 1 20-20h40a20 20 0 0 1 20 20v160a20 20 0 0 1-20 20h-40a20 20 0 0 1-20-20z" stroke="#000" stroke-width="3" fill="url(#k)"/><path d="M900 620a20 20 0 0 1 20-20h40a20 20 0 0 1 20 20v160a20 20 0 0 1-20 20h-40a20 20 0 0 1-20-20z" stroke="#000" stroke-width="3" fill="url(#l)"/><path d="M1040 620a20 20 0 0 1 20-20h40a20 20 0 0 1 20 20v161a20 20 0 0 1-20 20h-40a20 20 0 0 1-20-20z" stroke="#000" stroke-width="3" fill="url(#m)"/><path d="M160 621a20 20 0 0 1 20-20h40a20 20 0 0 1 20 20v160a20 20 0 0 1-20 20h-40a20 20 0 0 1-20-20z" stroke="#000" stroke-width="3" fill="url(#n)"/><path d="M300 620a20 20 0 0 1 20-20h40a20 20 0 0 1 20 20v160a20 20 0 0 1-20 20h-40a20 20 0 0 1-20-20z" stroke="#000" stroke-width="3" fill="url(#o)"/><path d="M440 620a20 20 0 0 1 20-20h40a20 20 0 0 1 20 20v161a20 20 0 0 1-20 20h-40a20 20 0 0 1-20-20z" stroke="#000" stroke-width="3" fill="url(#p)"/><path d="M160 540a20 20 0 0 1 20-20h320a20 20 0 0 1 20 20 20 20 0 0 1-20 20H180a20 20 0 0 1-20-20z" stroke="#000" stroke-width="3" fill="#c3f7c8"/><use xlink:href="#q" transform="matrix(1,0,0,1,165,525) translate(101.04203703703706 23.208333333333332)"/><path d="M160 440a20 20 0 0 1 20-20h80a20 20 0 0 1 20 20 20 20 0 0 1-20 20h-80a20 20 0 0 1-20-20z" stroke="#008a0e" stroke-width="3" fill="#e8e2c8"/><use xlink:href="#r" transform="matrix(1,0,0,1,165,425) translate(8.449444444444447 23.208333333333332)"/><use xlink:href="#s" transform="matrix(1,0,0,1,165,425) translate(83.78277777777777 23.208333333333332)"/><path d="M220 500v-37.5" stroke="#008a0e" stroke-width="2" fill="none"/><path d="M220 515.26L215.36 501h9.27z" stroke="#008a0e" stroke-width="2" fill="#008a0e"/><path d="M220.97 462.53h-1.94v-1.03h1.94z" stroke="#008a0e" stroke-width=".05" fill="#008a0e"/><path d="M340 580v-17.5" stroke="#000" stroke-width="2" fill="none"/><path d="M340 595.26L335.37 581h9.26z" stroke="#000" stroke-width="2"/><path d="M340.98 562.53h-1.96v-1.03h1.96z" stroke="#000" stroke-width=".05"/><path d="M1122.3 440.6l2.3 1.77m3.08 2.35l4.62 3.53m3.07 2.35l4.62 3.53m3.06 2.35l4.62 3.53m3.08 2.36l4.6 3.52m3.1 2.36l4.6 3.52m3.08 2.36l4.6 3.52m3.1 2.35l4.6 3.52m3.08 2.35l4.6 3.53m3.1 2.35l4.6 3.53m3.08 2.35l2.3 1.76" stroke="#3a414a" stroke-width="2" fill="none"/><path d="M1122.9 439.85l-1.17 1.55-.32-.24.1-1.16-.1-1.3zM1200 498.77v2.46l-1.4-1.08 1.18-1.55z" stroke="#3a414a" stroke-width=".05" fill="#3a414a"/><path d="M400 440a20 20 0 0 1 20-20h80a20 20 0 0 1 20 20 20 20 0 0 1-20 20h-80a20 20 0 0 1-20-20z" stroke="#1071e5" stroke-width="3" fill="#e8e2c8"/><use xlink:href="#r" transform="matrix(1,0,0,1,405,425) translate(8.449444444444447 23.208333333333332)"/><use xlink:href="#t" transform="matrix(1,0,0,1,405,425) translate(83.78277777777777 23.208333333333332)"/><path d="M460 500v-37.5" stroke="#1071e5" stroke-width="2" fill="none"/><path d="M460 515.26L455.37 501h9.26z" stroke="#1071e5" stroke-width="2" fill="#1071e5"/><path d="M460.98 462.53h-1.96v-1.03h1.96z" stroke="#1071e5" stroke-width=".05" fill="#1071e5"/><path d="M200 581v-18.5" stroke="#000" stroke-width="2" fill="none"/><path d="M200 596.26L195.37 582h9.26z" stroke="#000" stroke-width="2"/><path d="M200.97 562.53h-1.94v-1.03h1.94z" stroke="#000" stroke-width=".05"/><path d="M480 580v-17.5" stroke="#000" stroke-width="2" fill="none"/><path d="M480 595.26L475.37 581h9.27z" stroke="#000" stroke-width="2"/><path d="M480.98 562.53h-1.95v-1.03h1.95z" stroke="#000" stroke-width=".05"/><path d="M760 540a20 20 0 0 1 20-20h80a20 20 0 0 1 20 20 20 20 0 0 1-20 20h-80a20 20 0 0 1-20-20z" stroke="#008a0e" stroke-width="3" fill="#c3f7c8"/><use xlink:href="#u" transform="matrix(1,0,0,1,765,525) translate(17.301296296296293 23.208333333333332)"/><use xlink:href="#s" transform="matrix(1,0,0,1,765,525) translate(74.93092592592592 23.208333333333332)"/><path d="M1000 540a20 20 0 0 1 20-20h80a20 20 0 0 1 20 20 20 20 0 0 1-20 20h-80a20 20 0 0 1-20-20z" stroke="#1071e5" stroke-width="3" fill="#c3f7c8"/><use xlink:href="#u" transform="matrix(1,0,0,1,1005,525) translate(17.301296296296293 23.208333333333332)"/><use xlink:href="#t" transform="matrix(1,0,0,1,1005,525) translate(74.93092592592592 23.208333333333332)"/><path d="M760 440a20 20 0 0 1 20-20h80a20 20 0 0 1 20 20 20 20 0 0 1-20 20h-80a20 20 0 0 1-20-20z" stroke="#008a0e" stroke-width="3" fill="#e8e2c8"/><use xlink:href="#r" transform="matrix(1,0,0,1,765,425) translate(8.449444444444447 23.208333333333332)"/><use xlink:href="#s" transform="matrix(1,0,0,1,765,425) translate(83.78277777777777 23.208333333333332)"/><path d="M820 500v-37.5" stroke="#008a0e" stroke-width="2" fill="none"/><path d="M820 515.26L815.37 501h9.26z" stroke="#008a0e" stroke-width="2" fill="#008a0e"/><path d="M820.98 462.53H819v-1.03H821z" stroke="#008a0e" stroke-width=".05" fill="#008a0e"/><path d="M1000 440a20 20 0 0 1 20-20h80a20 20 0 0 1 20 20 20 20 0 0 1-20 20h-80a20 20 0 0 1-20-20z" stroke="#1071e5" stroke-width="3" fill="#e8e2c8"/><use xlink:href="#r" transform="matrix(1,0,0,1,1005,425) translate(8.449444444444447 23.208333333333332)"/><use xlink:href="#t" transform="matrix(1,0,0,1,1005,425) translate(83.78277777777777 23.208333333333332)"/><path d="M1060 500v-37.5" stroke="#1071e5" stroke-width="2" fill="none"/><path d="M1060 515.26l-4.63-14.26h9.27z" stroke="#1071e5" stroke-width="2" fill="#1071e5"/><path d="M1060.97 462.53h-1.94v-1.03h1.94z" stroke="#1071e5" stroke-width=".05" fill="#1071e5"/><path d="M777.06 581.23v-18.96" stroke="#008a0e" stroke-width="2" fill="none"/><path d="M777.06 596.5l-4.64-14.27h9.27z" stroke="#008a0e" stroke-width="2" fill="#008a0e"/><path d="M776.64 561.24l1.4.1v.96h-1.96v-1.2z" stroke="#008a0e" stroke-width=".05" fill="#008a0e"/><path d="M1101.56 580.12v-17.74" stroke="#1071e5" stroke-width="2" fill="none"/><path d="M1101.56 595.38l-4.64-14.26h9.27z" stroke="#1071e5" stroke-width="2" fill="#1071e5"/><path d="M1102.53 562.4h-1.95v-.94l1.95-.16z" stroke="#1071e5" stroke-width=".05" fill="#1071e5"/><path d="M900.67 592.1l-79.74-30.25" stroke="#008a0e" stroke-width="2" fill="none"/><path d="M914.95 597.5l-15-.72 3.3-8.66z" stroke="#008a0e" stroke-width="2" fill="#008a0e"/><path d="M820.6 562.77l-3.35-1.27h3.85z" stroke="#008a0e" stroke-width=".05" fill="#008a0e"/><path d="M1037.16 595.44l-171.2-34.4" stroke="#008a0e" stroke-width="2" fill="none"/><path d="M1052.13 598.44l-14.9 1.74 1.82-9.1z" stroke="#008a0e" stroke-width="2" fill="#008a0e"/><path d="M865.78 562l-3.45-.68 1.03-.08 2.7-.65z" stroke="#008a0e" stroke-width=".05" fill="#008a0e"/><path d="M979.33 592.1l79.74-30.25" stroke="#1071e5" stroke-width="2" fill="none"/><path d="M965.05 597.5l11.7-9.38 3.28 8.66z" stroke="#1071e5" stroke-width="2" fill="#1071e5"/><path d="M1059.4 562.77l-.5-1.27h3.85z" stroke="#1071e5" stroke-width=".05" fill="#1071e5"/><path d="M842.17 596.34l175.9-34.72" stroke="#1071e5" stroke-width="2" fill="none"/><path d="M827.2 599.3l13.1-7.32 1.8 9.1z" stroke="#1071e5" stroke-width="2" fill="#1071e5"/><path d="M1019.94 561.5h2.18l.06.3-3.95.8-.25-1.25z" stroke="#1071e5" stroke-width=".05" fill="#1071e5"/><path d="M161 500h4.07m8.14 0h8.14m8.14 0h8.13m8.15 0h8.14m8.12 0h8.14m8.13 0h8.13m8.14 0h8.13m8.14 0h8.14m8.13 0h8.15m8.14 0h8.12m8.14 0h8.13m8.13 0h8.14m8.13 0h8.14m8.14 0h8.13m8.15 0h8.14m8.12 0h8.14m8.13 0h8.13m8.14 0h8.13m8.14 0h8.14m8.13 0h8.15m8.14 0h8.12m8.14 0h8.13m8.13 0H519M161.03 500H160M518.97 500H520M761 580h4.07m8.13 0h8.14m8.14 0h8.13m8.15 0h8.14m8.12 0h8.14m8.13 0h8.13m8.14 0h8.13m8.14 0h8.14m8.13 0h8.15m8.14 0h8.12m8.14 0h8.13m8.13 0h8.14m8.13 0h8.14m8.14 0h8.13m8.15 0h8.14m8.12 0h8.14m8.13 0h8.13m8.14 0h8.13m8.14 0h8.14m8.13 0h8.15m8.14 0h8.12m8.14 0h8.13m8.13 0h4.07M761.03 580H760M1118.97 580h1.03" stroke="#ba23f6" stroke-width="2" fill="none"/><path d="M1122.4 539.55l2.55-1.3m3.4-1.75l5.13-2.6m3.4-1.74l5.12-2.6m3.4-1.74l5.12-2.6m3.4-1.75l5.13-2.6m3.4-1.74l5.12-2.6m3.4-1.74l5.13-2.62m3.4-1.74l5.12-2.6m3.4-1.74l5.12-2.6m3.4-1.74l2.57-1.3" stroke="#3a414a" stroke-width="2" fill="none"/><path d="M1122.86 540.4l-1.44.74.1-1.14-.1-1.05.56-.28zM1200 501.1l-.47.23-.9-1.73 1.37-.7z" stroke="#3a414a" stroke-width=".05" fill="#3a414a"/><path d="M340 519.5v13.67m0 13.66v13.67" stroke="#fc9432" stroke-width="2" fill="none"/><path d="M340.98 519.53h-1.96v-1.03h1.96z" stroke="#fc9432" stroke-width=".05" fill="#fc9432"/><path d="M340 560.47v1.03" stroke="#fc9432" stroke-width="2" fill="none"/><defs><path d="M30 0v-248h187v28H63v79h144v27H63v87h162V0H30" id="v"/><path d="M141-36C126-15 110 5 73 4 37 3 15-17 15-53c-1-64 63-63 125-63 3-35-9-54-41-54-24 1-41 7-42 31l-33-3c5-37 33-52 76-52 45 0 72 20 72 64v82c-1 20 7 32 28 27v20c-31 9-61-2-59-35zM48-53c0 20 12 33 32 33 41-3 63-29 60-74-43 2-92-5-92 41" id="w"/><path d="M96-169c-40 0-48 33-48 73s9 75 48 75c24 0 41-14 43-38l32 2c-6 37-31 61-74 61-59 0-76-41-82-99-10-93 101-131 147-64 4 7 5 14 7 22l-32 3c-4-21-16-35-41-35" id="x"/><path d="M106-169C34-169 62-67 57 0H25v-261h32l-1 103c12-21 28-36 61-36 89 0 53 116 60 194h-32v-121c2-32-8-49-39-48" id="y"/><g id="a"><use transform="matrix(0.08641975308641976,0,0,0.08641975308641976,0,0)" xlink:href="#v"/><use transform="matrix(0.08641975308641976,0,0,0.08641975308641976,20.740740740740744,0)" xlink:href="#w"/><use transform="matrix(0.08641975308641976,0,0,0.08641975308641976,38.0246913580247,0)" xlink:href="#x"/><use transform="matrix(0.08641975308641976,0,0,0.08641975308641976,53.580246913580254,0)" xlink:href="#y"/></g><path d="M143 0L79-87 56-68V0H24v-261h32v163l83-92h37l-77 82L181 0h-38" id="z"/><path d="M24-231v-30h32v30H24zM24 0v-190h32V0H24" id="A"/><path d="M117-194c89-4 53 116 60 194h-32v-121c0-31-8-49-39-48C34-167 62-67 57 0H25l-1-190h30c1 10-1 24 2 32 11-22 29-35 61-36" id="B"/><path d="M85-194c31 0 48 13 60 33l-1-100h32l1 261h-30c-2-10 0-23-3-31C134-8 116 4 85 4 32 4 16-35 15-94c0-66 23-100 70-100zm9 24c-40 0-46 34-46 75 0 40 6 74 45 74 42 0 51-32 51-76 0-42-9-74-50-73" id="C"/><g id="b"><use transform="matrix(0.08641975308641976,0,0,0.08641975308641976,0,0)" xlink:href="#z"/><use transform="matrix(0.08641975308641976,0,0,0.08641975308641976,15.555555555555557,0)" xlink:href="#A"/><use transform="matrix(0.08641975308641976,0,0,0.08641975308641976,22.38271604938272,0)" xlink:href="#B"/><use transform="matrix(0.08641975308641976,0,0,0.08641975308641976,39.66666666666667,0)" xlink:href="#C"/></g><path d="M100-194c62-1 85 37 85 99 1 63-27 99-86 99S16-35 15-95c0-66 28-99 85-99zM99-20c44 1 53-31 53-75 0-43-8-75-51-75s-53 32-53 75 10 74 51 75" id="D"/><path d="M101-234c-31-9-42 10-38 44h38v23H63V0H32v-167H5v-23h27c-7-52 17-82 69-68v24" id="E"/><g id="c"><use transform="matrix(0.08641975308641976,0,0,0.08641975308641976,0,0)" xlink:href="#D"/><use transform="matrix(0.08641975308641976,0,0,0.08641975308641976,17.283950617283953,0)" xlink:href="#E"/></g><use transform="matrix(0.08641975308641976,0,0,0.08641975308641976,0,0)" xlink:href="#w" id="d"/><path d="M24 0v-261h32V0H24" id="F"/><path d="M100-194c63 0 86 42 84 106H49c0 40 14 67 53 68 26 1 43-12 49-29l28 8c-11 28-37 45-77 45C44 4 14-33 15-96c1-61 26-98 85-98zm52 81c6-60-76-77-97-28-3 7-6 17-6 28h103" id="G"/><path d="M59-47c-2 24 18 29 38 22v24C64 9 27 4 27-40v-127H5v-23h24l9-43h21v43h35v23H59v120" id="H"/><g id="e"><use transform="matrix(0.08641975308641976,0,0,0.08641975308641976,0,0)" xlink:href="#x"/><use transform="matrix(0.08641975308641976,0,0,0.08641975308641976,15.555555555555557,0)" xlink:href="#F"/><use transform="matrix(0.08641975308641976,0,0,0.08641975308641976,22.38271604938272,0)" xlink:href="#A"/><use transform="matrix(0.08641975308641976,0,0,0.08641975308641976,29.20987654320988,0)" xlink:href="#G"/><use transform="matrix(0.08641975308641976,0,0,0.08641975308641976,46.49382716049383,0)" xlink:href="#B"/><use transform="matrix(0.08641975308641976,0,0,0.08641975308641976,63.777777777777786,0)" xlink:href="#H"/></g><path d="M210-169c-67 3-38 105-44 169h-31v-121c0-29-5-50-35-48C34-165 62-65 56 0H25l-1-190h30c1 10-1 24 2 32 10-44 99-50 107 0 11-21 27-35 58-36 85-2 47 119 55 194h-31v-121c0-29-5-49-35-48" id="I"/><path d="M179-190L93 31C79 59 56 82 12 73V49c39 6 53-20 64-50L1-190h34L92-34l54-156h33" id="J"/><g id="f"><use transform="matrix(0.08641975308641976,0,0,0.08641975308641976,0,0)" xlink:href="#I"/><use transform="matrix(0.08641975308641976,0,0,0.08641975308641976,25.83950617283951,0)" xlink:href="#w"/><use transform="matrix(0.08641975308641976,0,0,0.08641975308641976,43.12345679012346,0)" xlink:href="#J"/></g><path d="M108 0H70L1-190h34L89-25l56-165h34" id="K"/><g id="g"><use transform="matrix(0.08641975308641976,0,0,0.08641975308641976,0,0)" xlink:href="#y"/><use transform="matrix(0.08641975308641976,0,0,0.08641975308641976,17.283950617283953,0)" xlink:href="#w"/><use transform="matrix(0.08641975308641976,0,0,0.08641975308641976,34.567901234567906,0)" xlink:href="#K"/><use transform="matrix(0.08641975308641976,0,0,0.08641975308641976,50.12345679012346,0)" xlink:href="#G"/></g><path d="M135-143c-3-34-86-38-87 0 15 53 115 12 119 90S17 21 10-45l28-5c4 36 97 45 98 0-10-56-113-15-118-90-4-57 82-63 122-42 12 7 21 19 24 35" id="L"/><g id="h"><use transform="matrix(0.08641975308641976,0,0,0.08641975308641976,0,0)" xlink:href="#A"/><use transform="matrix(0.08641975308641976,0,0,0.08641975308641976,6.8271604938271615,0)" xlink:href="#H"/><use transform="matrix(0.08641975308641976,0,0,0.08641975308641976,15.469135802469138,0)" xlink:href="#L"/></g><path d="M206 0h-36l-40-164L89 0H53L-1-190h32L70-26l43-164h34l41 164 42-164h31" id="M"/><g id="i"><use transform="matrix(0.08641975308641976,0,0,0.08641975308641976,0,0)" xlink:href="#D"/><use transform="matrix(0.08641975308641976,0,0,0.08641975308641976,17.283950617283953,0)" xlink:href="#M"/><use transform="matrix(0.08641975308641976,0,0,0.08641975308641976,39.66666666666667,0)" xlink:href="#B"/></g><path d="M20-101c0-91 52-143 145-150 126-9 127 168 53 223-23 17-55 32-93 32C57 4 20-33 20-101zm216-33c5-57-18-91-73-90-77 1-110 51-110 125 0 49 23 75 73 75 72-1 104-45 110-110" id="N"/><path d="M66-151c12-25 30-51 66-40l-6 26C45-176 58-65 38 0H6l36-190h30" id="O"/><path d="M44-68c0 29 11 47 38 47 30 0 42-19 51-41l28 9C148-21 126 4 82 4 31 4 10-29 12-85c3-77 74-140 146-93 12 8 15 23 18 40l-31 5c-1-22-13-36-36-36-52 0-65 49-65 101" id="P"/><path d="M67-158c15-20 31-36 64-36 94 0 33 127 27 194h-32l25-140c3-38-53-32-70-12C52-117 51-51 37 0H6l51-261h31" id="Q"/><path d="M111-194c62-3 86 47 72 106H45c-7 38 6 69 45 68 27-1 43-14 53-32l24 11C152-15 129 4 87 4 38 3 12-23 12-71c0-70 32-119 99-123zm44 81c14-66-71-72-95-28-4 8-8 17-11 28h106" id="R"/><path d="M55-144c13 50 104 24 104 88C159 21 15 23 1-39l26-10c6 40 102 42 102-4-13-50-104-23-104-87 0-71 143-71 148-8l-29 4c-5-35-85-37-89 0" id="S"/><path d="M51-54c-9 22 5 41 31 30L79-1C43 14 10-4 19-52l22-115H19l5-23h22l19-43h21l-9 43h35l-4 23H73" id="T"/><path d="M165-48c-4 18 1 34 23 27l-3 20c-29 8-62 0-52-35h-2C116-14 99 4 63 4 30 4 8-16 8-49c0-68 71-67 138-67 10-26 0-56-31-54-26 1-42 9-47 31l-32-5c8-67 160-71 144 15-5 28-9 54-15 81zM42-50c3 52 80 24 89-6 7-12 7-24 11-38-47 1-103-4-100 44" id="U"/><path d="M30-147c31-64 166-65 159 27C183-49 158 1 86 4 9 8 1-88 30-147zM88-20c53 0 68-48 68-100 0-31-11-51-44-50-52 1-68 46-68 97 0 32 13 53 44 53" id="V"/><g id="j"><use transform="matrix(0.08641975308641976,0,0,0.08641975308641976,0,0)" xlink:href="#N"/><use transform="matrix(0.08641975308641976,0,0,0.08641975308641976,24.19753086419753,0)" xlink:href="#O"/><use transform="matrix(0.08641975308641976,0,0,0.08641975308641976,34.48148148148148,0)" xlink:href="#P"/><use transform="matrix(0.08641975308641976,0,0,0.08641975308641976,50.037037037037045,0)" xlink:href="#Q"/><use transform="matrix(0.08641975308641976,0,0,0.08641975308641976,67.32098765432099,0)" xlink:href="#R"/><use transform="matrix(0.08641975308641976,0,0,0.08641975308641976,84.60493827160494,0)" xlink:href="#S"/><use transform="matrix(0.08641975308641976,0,0,0.08641975308641976,100.16049382716048,0)" xlink:href="#T"/><use transform="matrix(0.08641975308641976,0,0,0.08641975308641976,108.80246913580245,0)" xlink:href="#O"/><use transform="matrix(0.08641975308641976,0,0,0.08641975308641976,119.08641975308642,0)" xlink:href="#U"/><use transform="matrix(0.08641975308641976,0,0,0.08641975308641976,136.37037037037038,0)" xlink:href="#T"/><use transform="matrix(0.08641975308641976,0,0,0.08641975308641976,145.01234567901236,0)" xlink:href="#V"/><use transform="matrix(0.08641975308641976,0,0,0.08641975308641976,162.2962962962963,0)" xlink:href="#O"/></g><linearGradient gradientUnits="userSpaceOnUse" id="k" x1="760" y1="801" x2="760" y2="601"><stop offset="19.2%" stop-color="#ced4db"/><stop offset="31.43%" stop-color="#fff"/><stop offset="54.64%" stop-color="#fff"/><stop offset="65.71%" stop-color="#cfe4ff"/></linearGradient><linearGradient gradientUnits="userSpaceOnUse" id="l" x1="900" y1="800" x2="900" y2="600"><stop offset="19.2%" stop-color="#ced4db"/><stop offset="31.43%" stop-color="#fff"/><stop offset="54.64%" stop-color="#fff"/><stop offset="65.71%" stop-color="#cfe4ff"/></linearGradient><linearGradient gradientUnits="userSpaceOnUse" id="m" x1="1040" y1="801" x2="1040" y2="600"><stop offset="19.2%" stop-color="#ced4db"/><stop offset="31.43%" stop-color="#fff"/><stop offset="54.64%" stop-color="#fff"/><stop offset="65.71%" stop-color="#cfe4ff"/></linearGradient><linearGradient gradientUnits="userSpaceOnUse" id="n" x1="160" y1="801" x2="160" y2="601"><stop offset="19.2%" stop-color="#ced4db"/><stop offset="31.43%" stop-color="#fff"/><stop offset="54.64%" stop-color="#fff"/><stop offset="65.71%" stop-color="#cfe4ff"/></linearGradient><linearGradient gradientUnits="userSpaceOnUse" id="o" x1="300" y1="800" x2="300" y2="600"><stop offset="19.2%" stop-color="#ced4db"/><stop offset="31.43%" stop-color="#fff"/><stop offset="54.64%" stop-color="#fff"/><stop offset="65.71%" stop-color="#cfe4ff"/></linearGradient><linearGradient gradientUnits="userSpaceOnUse" id="p" x1="440" y1="801" x2="440" y2="600"><stop offset="19.2%" stop-color="#ced4db"/><stop offset="31.43%" stop-color="#fff"/><stop offset="54.64%" stop-color="#fff"/><stop offset="65.71%" stop-color="#cfe4ff"/></linearGradient><path d="M140-251c81 0 123 46 123 126C263-46 219 4 140 4 59 4 17-45 17-125s42-126 123-126zm0 227c63 0 89-41 89-101s-29-99-89-99c-61 0-89 39-89 99S79-25 140-24" id="W"/><path d="M114-163C36-179 61-72 57 0H25l-1-190h30c1 12-1 29 2 39 6-27 23-49 58-41v29" id="X"/><g id="q"><use transform="matrix(0.07407407407407407,0,0,0.07407407407407407,0,0)" xlink:href="#W"/><use transform="matrix(0.07407407407407407,0,0,0.07407407407407407,20.74074074074074,0)" xlink:href="#X"/><use transform="matrix(0.07407407407407407,0,0,0.07407407407407407,29.555555555555557,0)" xlink:href="#x"/><use transform="matrix(0.07407407407407407,0,0,0.07407407407407407,42.888888888888886,0)" xlink:href="#y"/><use transform="matrix(0.07407407407407407,0,0,0.07407407407407407,57.703703703703695,0)" xlink:href="#G"/><use transform="matrix(0.07407407407407407,0,0,0.07407407407407407,72.5185185185185,0)" xlink:href="#L"/><use transform="matrix(0.07407407407407407,0,0,0.07407407407407407,85.85185185185183,0)" xlink:href="#H"/><use transform="matrix(0.07407407407407407,0,0,0.07407407407407407,93.25925925925924,0)" xlink:href="#X"/><use transform="matrix(0.07407407407407407,0,0,0.07407407407407407,102.07407407407405,0)" xlink:href="#w"/><use transform="matrix(0.07407407407407407,0,0,0.07407407407407407,116.88888888888887,0)" xlink:href="#H"/><use transform="matrix(0.07407407407407407,0,0,0.07407407407407407,124.29629629629626,0)" xlink:href="#D"/><use transform="matrix(0.07407407407407407,0,0,0.07407407407407407,139.1111111111111,0)" xlink:href="#X"/></g><path d="M212-179c-10-28-35-45-73-45-59 0-87 40-87 99 0 60 29 101 89 101 43 0 62-24 78-52l27 14C228-24 195 4 139 4 59 4 22-46 18-125c-6-104 99-153 187-111 19 9 31 26 39 46" id="Y"/><g id="r"><use transform="matrix(0.07407407407407407,0,0,0.07407407407407407,0,0)" xlink:href="#Y"/><use transform="matrix(0.07407407407407407,0,0,0.07407407407407407,19.185185185185183,0)" xlink:href="#F"/><use transform="matrix(0.07407407407407407,0,0,0.07407407407407407,25.037037037037035,0)" xlink:href="#A"/><use transform="matrix(0.07407407407407407,0,0,0.07407407407407407,30.888888888888886,0)" xlink:href="#G"/><use transform="matrix(0.07407407407407407,0,0,0.07407407407407407,45.703703703703695,0)" xlink:href="#B"/><use transform="matrix(0.07407407407407407,0,0,0.07407407407407407,60.518518518518505,0)" xlink:href="#H"/></g><path d="M195 0l-74-108L45 0H8l94-129-87-119h37l69 98 67-98h37l-84 118L233 0h-38" id="Z"/><use transform="matrix(0.07407407407407407,0,0,0.07407407407407407,0,0)" xlink:href="#Z" id="s"/><path d="M137-103V0h-34v-103L8-248h37l75 118 75-118h37" id="aa"/><use transform="matrix(0.07407407407407407,0,0,0.07407407407407407,0,0)" xlink:href="#aa" id="t"/><path d="M160-131c35 5 61 23 61 61C221 17 115-2 30 0v-248c76 3 177-17 177 60 0 33-19 50-47 57zm-97-11c50-1 110 9 110-42 0-47-63-36-110-37v79zm0 115c55-2 124 14 124-45 0-56-70-42-124-44v89" id="ab"/><path d="M63-220v92h138v28H63V0H30v-248h175v28H63" id="ac"/><g id="u"><use transform="matrix(0.07407407407407407,0,0,0.07407407407407407,0,0)" xlink:href="#ab"/><use transform="matrix(0.07407407407407407,0,0,0.07407407407407407,17.77777777777778,0)" xlink:href="#ac"/><use transform="matrix(0.07407407407407407,0,0,0.07407407407407407,34,0)" xlink:href="#ac"/></g></defs></g></svg>