<svg xmlns="http://www.w3.org/2000/svg" xmlns:xlink="http://www.w3.org/1999/xlink" xmlns:lucid="lucid" width="1326.77" height="305.83"><g transform="translate(-154.93688369729773 -497.5826771653544)" lucid:page-tab-id="0_0"><path d="M660 626a6 6 0 0 1 6-6h42a6 6 0 0 0 6-6v-8a2.3 2.3 0 0 1 4-1.54l28 31.08a6.67 6.67 0 0 1 0 8.92l-28 31.08a2.3 2.3 0 0 1-4-1.54v-8a6 6 0 0 0-6-6h-42a6 6 0 0 1-6-6z" fill="#fc9432"/><path d="M160 680a20 20 0 0 1 20-20h20a20 20 0 0 1 20 20v101a20 20 0 0 1-20 20h-20a20 20 0 0 1-20-20z" stroke="#000" stroke-width="3" fill="url(#a)"/><path d="M280 680a20 20 0 0 1 20-20h20a20 20 0 0 1 20 20v100a20 20 0 0 1-20 20h-20a20 20 0 0 1-20-20z" stroke="#000" stroke-width="3" fill="url(#b)"/><path d="M400 680a20 20 0 0 1 20-20h20a20 20 0 0 1 20 20v101a20 20 0 0 1-20 20h-20a20 20 0 0 1-20-20z" stroke="#000" stroke-width="3" fill="url(#c)"/><path d="M160.44 540.92a20 20 0 0 1 20-20h380a20 20 0 0 1 20 20v40a20 20 0 0 1-20 20h-380a20 20 0 0 1-20-20z" stroke="#000" stroke-width="3" fill="url(#d)"/><use xlink:href="#e" transform="matrix(1,0,0,1,165.43688369729773,525.9173228346456) translate(131.03703703703707 41.02083333333333)"/><path d="M310 640v-36.58" stroke="#000" stroke-width="2" fill="none"/><path d="M310 655.26L305.37 641h9.26z" stroke="#000" stroke-width="2"/><path d="M310.98 603.44h-1.96v-1.02h1.96z" stroke="#000" stroke-width=".05"/><path d="M190 640v-36.58" stroke="#000" stroke-width="2" fill="none"/><path d="M190 655.26L185.37 641h9.26z" stroke="#000" stroke-width="2"/><path d="M190.97 603.44h-1.94v-1.02h1.94z" stroke="#000" stroke-width=".05"/><path d="M430 640v-36.58" stroke="#000" stroke-width="2" fill="none"/><path d="M430 655.26L425.37 641h9.26z" stroke="#000" stroke-width="2"/><path d="M430.98 603.44h-1.96v-1.02h1.96z" stroke="#000" stroke-width=".05"/><path d="M1320 505.08a6 6 0 0 1 6-6h148a6 6 0 0 1 6 6v188a6 6 0 0 1-6 6h-148a6 6 0 0 1-6-6z" stroke="#000" stroke-opacity="0" stroke-width="3" fill="#fff" fill-opacity="0"/><use xlink:href="#f" transform="matrix(1,0,0,1,1325,504.0826771653544) translate(34.425925925925924 26.555555555555536)"/><use xlink:href="#g" transform="matrix(1,0,0,1,1325,504.0826771653544) translate(16.32098765432098 63.88888888888888)"/><use xlink:href="#h" transform="matrix(1,0,0,1,1325,504.0826771653544) translate(17.271604938271594 101.22222222222223)"/><use xlink:href="#i" transform="matrix(1,0,0,1,1325,504.0826771653544) translate(96.51851851851852 101.22222222222223)"/><use xlink:href="#j" transform="matrix(1,0,0,1,1325,504.0826771653544) translate(-4.290123456790127 138.55555555555557)"/><use xlink:href="#k" transform="matrix(1,0,0,1,1325,504.0826771653544) translate(13.728395061728392 175.88888888888889)"/><path d="M520 679a20 20 0 0 1 20-20h20a20 20 0 0 1 20 20v101a20 20 0 0 1-20 20h-20a20 20 0 0 1-20-20z" stroke="#000" stroke-width="3" fill="url(#l)"/><path d="M550 639v-35.58" stroke="#000" stroke-width="2" fill="none"/><path d="M550 654.26L545.37 640h9.26z" stroke="#000" stroke-width="2"/><path d="M550.98 603.44H549v-1.02H551z" stroke="#000" stroke-width=".05"/><path d="M820 680.92a20 20 0 0 1 20-20h20a20 20 0 0 1 20 20v101a20 20 0 0 1-20 20h-20a20 20 0 0 1-20-20z" stroke="#000" stroke-width="3" fill="url(#m)"/><path d="M940 680.92a20 20 0 0 1 20-20h20a20 20 0 0 1 20 20v100a20 20 0 0 1-20 20h-20a20 20 0 0 1-20-20z" stroke="#000" stroke-width="3" fill="url(#n)"/><path d="M1060 680.92a20 20 0 0 1 20-20h20a20 20 0 0 1 20 20v101a20 20 0 0 1-20 20h-20a20 20 0 0 1-20-20z" stroke="#000" stroke-width="3" fill="url(#o)"/><path d="M954.25 649.7l-43.4-26.76" stroke="#000" stroke-width="2" fill="none"/><path d="M967.25 657.72l-14.58-3.54 4.87-7.9z" stroke="#000" stroke-width="2"/><path d="M910.36 623.8l-2.22-1.38h3.07z" stroke="#000" stroke-width=".05"/><path d="M865.75 649.7l43.4-26.76" stroke="#000" stroke-width="2" fill="none"/><path d="M852.75 657.72l9.7-11.44 4.88 7.9z" stroke="#000" stroke-width="2"/><path d="M909.64 623.8l-.85-1.38h3.06z" stroke="#000" stroke-width=".05"/><path d="M1105.75 649.7l43.4-26.76" stroke="#000" stroke-width="2" fill="none"/><path d="M1092.75 657.72l9.7-11.44 4.88 7.9z" stroke="#000" stroke-width="2"/><path d="M1149.64 623.8l-.85-1.38h3.06z" stroke="#000" stroke-width=".05"/><path d="M1180 679.92a20 20 0 0 1 20-20h20a20 20 0 0 1 20 20v101a20 20 0 0 1-20 20h-20a20 20 0 0 1-20-20z" stroke="#000" stroke-width="3" fill="url(#p)"/><path d="M1194.13 648.9l-43.27-25.97" stroke="#000" stroke-width="2" fill="none"/><path d="M1207.22 656.75l-14.6-3.36 4.76-7.96z" stroke="#000" stroke-width="2"/><path d="M1150.38 623.78l-2.28-1.36h3.1z" stroke="#000" stroke-width=".05"/><path d="M900 519.08a20 20 0 0 1 20-20h220a20 20 0 0 1 20 20v.92a20 20 0 0 1-20 20H920a20 20 0 0 1-20-20z" stroke="#000" stroke-width="3" fill="#c3f7c8"/><path d="M840 600a20 20 0 0 1 20-20h100a20 20 0 0 1 20 20v.92a20 20 0 0 1-20 20H860a20 20 0 0 1-20-20z" stroke="#000" stroke-width="3" fill="url(#q)"/><path d="M1080 600a20 20 0 0 1 20-20h100a20 20 0 0 1 20 20v.92a20 20 0 0 1-20 20h-100a20 20 0 0 1-20-20z" stroke="#000" stroke-width="3" fill="url(#r)"/><path d="M927.68 573.05l101.36-31.25" stroke="#000" stroke-width="2" fill="none"/><path d="M913.1 577.55l12.26-8.64 2.73 8.87z" stroke="#000" stroke-width="2"/><path d="M1033.15 541.55l-3.84 1.18-.37-1.23h4.2z" stroke="#000" stroke-width=".05"/><path d="M1132.32 573.05l-101.36-31.25" stroke="#000" stroke-width="2" fill="none"/><path d="M1146.9 577.55l-15 .22 2.74-8.86z" stroke="#000" stroke-width="2"/><path d="M1030.7 542.73l-3.85-1.18v-.05h4.22z" stroke="#000" stroke-width=".05"/><path d="M159.94 560.92h10.02m10.03 0h20.03m10.03 0h20.04m10.03 0h20.05m10.02 0h20.05m10.02 0h20.05m10.02 0h20.05m10 0h20.06m10.03 0h20.03m10.03 0h20.04m10.03 0h20.05m10.02 0h20.05m10.02 0h20.05m10.02 0h20.05m10 0h10.04" stroke="#fc9432" stroke-width="2" fill="none"/><path d="M159.96 561.9h-1.02v-1.96h1.02zM581.94 561.9h-1.03v-1.96h1.04z" stroke="#fc9432" stroke-width=".05" fill="#fc9432"/><path d="M370.44 561.92v13.16m0 13.17v13.17M370.44 561.94v-1.02" stroke="#fc9432" stroke-width="2" fill="none"/><path d="M371.4 602.42h-1.94v-1.03h1.95z" stroke="#fc9432" stroke-width=".05" fill="#fc9432"/><defs><linearGradient gradientUnits="userSpaceOnUse" id="a" x1="160" y1="801" x2="160" y2="660"><stop offset="25.71%" stop-color="#ced4db"/><stop offset="33.21%" stop-color="#fff"/><stop offset="57.86%" stop-color="#fff"/><stop offset="71.43%" stop-color="#cfe4ff"/></linearGradient><linearGradient gradientUnits="userSpaceOnUse" id="b" x1="280" y1="800" x2="280" y2="660"><stop offset="25.71%" stop-color="#ced4db"/><stop offset="33.21%" stop-color="#fff"/><stop offset="57.86%" stop-color="#fff"/><stop offset="71.43%" stop-color="#cfe4ff"/></linearGradient><linearGradient gradientUnits="userSpaceOnUse" id="c" x1="400" y1="801" x2="400" y2="660"><stop offset="25.71%" stop-color="#ced4db"/><stop offset="33.21%" stop-color="#fff"/><stop offset="57.86%" stop-color="#fff"/><stop offset="71.43%" stop-color="#cfe4ff"/></linearGradient><linearGradient gradientUnits="userSpaceOnUse" id="d" x1="160.44" y1="520.92" x2="160.44" y2="600.92"><stop offset="72.83%" stop-color="#c3f7c8"/><stop offset="86.23%" stop-color="#cfe4ff"/></linearGradient><path d="M140-251c81 0 123 46 123 126C263-46 219 4 140 4 59 4 17-45 17-125s42-126 123-126zm0 227c63 0 89-41 89-101s-29-99-89-99c-61 0-89 39-89 99S79-25 140-24" id="s"/><path d="M114-163C36-179 61-72 57 0H25l-1-190h30c1 12-1 29 2 39 6-27 23-49 58-41v29" id="t"/><path d="M96-169c-40 0-48 33-48 73s9 75 48 75c24 0 41-14 43-38l32 2c-6 37-31 61-74 61-59 0-76-41-82-99-10-93 101-131 147-64 4 7 5 14 7 22l-32 3c-4-21-16-35-41-35" id="u"/><path d="M106-169C34-169 62-67 57 0H25v-261h32l-1 103c12-21 28-36 61-36 89 0 53 116 60 194h-32v-121c2-32-8-49-39-48" id="v"/><path d="M100-194c63 0 86 42 84 106H49c0 40 14 67 53 68 26 1 43-12 49-29l28 8c-11 28-37 45-77 45C44 4 14-33 15-96c1-61 26-98 85-98zm52 81c6-60-76-77-97-28-3 7-6 17-6 28h103" id="w"/><path d="M135-143c-3-34-86-38-87 0 15 53 115 12 119 90S17 21 10-45l28-5c4 36 97 45 98 0-10-56-113-15-118-90-4-57 82-63 122-42 12 7 21 19 24 35" id="x"/><path d="M59-47c-2 24 18 29 38 22v24C64 9 27 4 27-40v-127H5v-23h24l9-43h21v43h35v23H59v120" id="y"/><path d="M141-36C126-15 110 5 73 4 37 3 15-17 15-53c-1-64 63-63 125-63 3-35-9-54-41-54-24 1-41 7-42 31l-33-3c5-37 33-52 76-52 45 0 72 20 72 64v82c-1 20 7 32 28 27v20c-31 9-61-2-59-35zM48-53c0 20 12 33 32 33 41-3 63-29 60-74-43 2-92-5-92 41" id="z"/><path d="M100-194c62-1 85 37 85 99 1 63-27 99-86 99S16-35 15-95c0-66 28-99 85-99zM99-20c44 1 53-31 53-75 0-43-8-75-51-75s-53 32-53 75 10 74 51 75" id="A"/><g id="e"><use transform="matrix(0.07407407407407407,0,0,0.07407407407407407,0,0)" xlink:href="#s"/><use transform="matrix(0.07407407407407407,0,0,0.07407407407407407,20.74074074074074,0)" xlink:href="#t"/><use transform="matrix(0.07407407407407407,0,0,0.07407407407407407,29.555555555555557,0)" xlink:href="#u"/><use transform="matrix(0.07407407407407407,0,0,0.07407407407407407,42.888888888888886,0)" xlink:href="#v"/><use transform="matrix(0.07407407407407407,0,0,0.07407407407407407,57.703703703703695,0)" xlink:href="#w"/><use transform="matrix(0.07407407407407407,0,0,0.07407407407407407,72.5185185185185,0)" xlink:href="#x"/><use transform="matrix(0.07407407407407407,0,0,0.07407407407407407,85.85185185185183,0)" xlink:href="#y"/><use transform="matrix(0.07407407407407407,0,0,0.07407407407407407,93.25925925925924,0)" xlink:href="#t"/><use transform="matrix(0.07407407407407407,0,0,0.07407407407407407,102.07407407407405,0)" xlink:href="#z"/><use transform="matrix(0.07407407407407407,0,0,0.07407407407407407,116.88888888888887,0)" xlink:href="#y"/><use transform="matrix(0.07407407407407407,0,0,0.07407407407407407,124.29629629629626,0)" xlink:href="#A"/><use transform="matrix(0.07407407407407407,0,0,0.07407407407407407,139.1111111111111,0)" xlink:href="#t"/></g><path d="M185-189c-5-48-123-54-124 2 14 75 158 14 163 119 3 78-121 87-175 55-17-10-28-26-33-46l33-7c5 56 141 63 141-1 0-78-155-14-162-118-5-82 145-84 179-34 5 7 8 16 11 25" id="B"/><path d="M210-169c-67 3-38 105-44 169h-31v-121c0-29-5-50-35-48C34-165 62-65 56 0H25l-1-190h30c1 10-1 24 2 32 10-44 99-50 107 0 11-21 27-35 58-36 85-2 47 119 55 194h-31v-121c0-29-5-49-35-48" id="C"/><g id="f"><use transform="matrix(0.08641975308641976,0,0,0.08641975308641976,0,0)" xlink:href="#B"/><use transform="matrix(0.08641975308641976,0,0,0.08641975308641976,20.740740740740744,0)" xlink:href="#A"/><use transform="matrix(0.08641975308641976,0,0,0.08641975308641976,38.0246913580247,0)" xlink:href="#C"/><use transform="matrix(0.08641975308641976,0,0,0.08641975308641976,63.8641975308642,0)" xlink:href="#w"/></g><path d="M85-194c31 0 48 13 60 33l-1-100h32l1 261h-30c-2-10 0-23-3-31C134-8 116 4 85 4 32 4 16-35 15-94c0-66 23-100 70-100zm9 24c-40 0-46 34-46 75 0 40 6 74 45 74 42 0 51-32 51-76 0-42-9-74-50-73" id="D"/><path d="M24-231v-30h32v30H24zM24 0v-190h32V0H24" id="E"/><path d="M117-194c89-4 53 116 60 194h-32v-121c0-31-8-49-39-48C34-167 62-67 57 0H25l-1-190h30c1 10-1 24 2 32 11-22 29-35 61-36" id="F"/><g id="g"><use transform="matrix(0.08641975308641976,0,0,0.08641975308641976,0,0)" xlink:href="#D"/><use transform="matrix(0.08641975308641976,0,0,0.08641975308641976,17.283950617283953,0)" xlink:href="#A"/><use transform="matrix(0.08641975308641976,0,0,0.08641975308641976,34.567901234567906,0)" xlink:href="#C"/><use transform="matrix(0.08641975308641976,0,0,0.08641975308641976,60.407407407407426,0)" xlink:href="#z"/><use transform="matrix(0.08641975308641976,0,0,0.08641975308641976,77.69135802469137,0)" xlink:href="#E"/><use transform="matrix(0.08641975308641976,0,0,0.08641975308641976,84.51851851851853,0)" xlink:href="#F"/><use transform="matrix(0.08641975308641976,0,0,0.08641975308641976,101.80246913580248,0)" xlink:href="#x"/></g><path d="M24 0v-261h32V0H24" id="G"/><path d="M206 0h-36l-40-164L89 0H53L-1-190h32L70-26l43-164h34l41 164 42-164h31" id="H"/><g id="h"><use transform="matrix(0.08641975308641976,0,0,0.08641975308641976,0,0)" xlink:href="#z"/><use transform="matrix(0.08641975308641976,0,0,0.08641975308641976,17.283950617283953,0)" xlink:href="#G"/><use transform="matrix(0.08641975308641976,0,0,0.08641975308641976,24.111111111111114,0)" xlink:href="#G"/><use transform="matrix(0.08641975308641976,0,0,0.08641975308641976,30.938271604938276,0)" xlink:href="#A"/><use transform="matrix(0.08641975308641976,0,0,0.08641975308641976,48.22222222222223,0)" xlink:href="#H"/></g><path d="M101-234c-31-9-42 10-38 44h38v23H63V0H32v-167H5v-23h27c-7-52 17-82 69-68v24" id="I"/><g id="i"><use transform="matrix(0.08641975308641976,0,0,0.08641975308641976,0,0)" xlink:href="#I"/><use transform="matrix(0.08641975308641976,0,0,0.08641975308641976,8.641975308641976,0)" xlink:href="#A"/><use transform="matrix(0.08641975308641976,0,0,0.08641975308641976,25.925925925925927,0)" xlink:href="#t"/></g><g id="j"><use transform="matrix(0.08641975308641976,0,0,0.08641975308641976,0,0)" xlink:href="#v"/><use transform="matrix(0.08641975308641976,0,0,0.08641975308641976,17.283950617283953,0)" xlink:href="#E"/><use transform="matrix(0.08641975308641976,0,0,0.08641975308641976,24.111111111111114,0)" xlink:href="#w"/><use transform="matrix(0.08641975308641976,0,0,0.08641975308641976,41.39506172839506,0)" xlink:href="#t"/><use transform="matrix(0.08641975308641976,0,0,0.08641975308641976,51.679012345679006,0)" xlink:href="#z"/><use transform="matrix(0.08641975308641976,0,0,0.08641975308641976,68.96296296296296,0)" xlink:href="#t"/><use transform="matrix(0.08641975308641976,0,0,0.08641975308641976,79.24691358024691,0)" xlink:href="#u"/><use transform="matrix(0.08641975308641976,0,0,0.08641975308641976,94.80246913580245,0)" xlink:href="#v"/><use transform="matrix(0.08641975308641976,0,0,0.08641975308641976,112.08641975308642,0)" xlink:href="#E"/><use transform="matrix(0.08641975308641976,0,0,0.08641975308641976,118.91358024691357,0)" xlink:href="#u"/><use transform="matrix(0.08641975308641976,0,0,0.08641975308641976,134.46913580246914,0)" xlink:href="#z"/><use transform="matrix(0.08641975308641976,0,0,0.08641975308641976,151.7530864197531,0)" xlink:href="#G"/></g><path d="M84 4C-5 8 30-112 23-190h32v120c0 31 7 50 39 49 72-2 45-101 50-169h31l1 190h-30c-1-10 1-25-2-33-11 22-28 36-60 37" id="J"/><g id="k"><use transform="matrix(0.08641975308641976,0,0,0.08641975308641976,0,0)" xlink:href="#x"/><use transform="matrix(0.08641975308641976,0,0,0.08641975308641976,15.555555555555557,0)" xlink:href="#A"/><use transform="matrix(0.08641975308641976,0,0,0.08641975308641976,32.839506172839506,0)" xlink:href="#G"/><use transform="matrix(0.08641975308641976,0,0,0.08641975308641976,39.66666666666667,0)" xlink:href="#J"/><use transform="matrix(0.08641975308641976,0,0,0.08641975308641976,56.95061728395062,0)" xlink:href="#y"/><use transform="matrix(0.08641975308641976,0,0,0.08641975308641976,65.5925925925926,0)" xlink:href="#E"/><use transform="matrix(0.08641975308641976,0,0,0.08641975308641976,72.41975308641976,0)" xlink:href="#A"/><use transform="matrix(0.08641975308641976,0,0,0.08641975308641976,89.70370370370371,0)" xlink:href="#F"/><use transform="matrix(0.08641975308641976,0,0,0.08641975308641976,106.98765432098766,0)" xlink:href="#x"/></g><linearGradient gradientUnits="userSpaceOnUse" id="l" x1="520" y1="800" x2="520" y2="659"><stop offset="25.71%" stop-color="#ced4db"/><stop offset="33.21%" stop-color="#fff"/><stop offset="57.86%" stop-color="#fff"/><stop offset="71.43%" stop-color="#cfe4ff"/></linearGradient><linearGradient gradientUnits="userSpaceOnUse" id="m" x1="820" y1="801.92" x2="820" y2="660.92"><stop offset="25.71%" stop-color="#ced4db"/><stop offset="33.21%" stop-color="#fff"/><stop offset="57.86%" stop-color="#fff"/><stop offset="71.43%" stop-color="#cfe4ff"/></linearGradient><linearGradient gradientUnits="userSpaceOnUse" id="n" x1="940" y1="800.92" x2="940" y2="660.92"><stop offset="25.71%" stop-color="#ced4db"/><stop offset="33.21%" stop-color="#fff"/><stop offset="57.86%" stop-color="#fff"/><stop offset="71.43%" stop-color="#cfe4ff"/></linearGradient><linearGradient gradientUnits="userSpaceOnUse" id="o" x1="1060" y1="801.92" x2="1060" y2="660.92"><stop offset="25.71%" stop-color="#ced4db"/><stop offset="33.21%" stop-color="#fff"/><stop offset="57.86%" stop-color="#fff"/><stop offset="71.43%" stop-color="#cfe4ff"/></linearGradient><linearGradient gradientUnits="userSpaceOnUse" id="p" x1="1180" y1="800.92" x2="1180" y2="659.92"><stop offset="25.71%" stop-color="#ced4db"/><stop offset="33.21%" stop-color="#fff"/><stop offset="57.86%" stop-color="#fff"/><stop offset="71.43%" stop-color="#cfe4ff"/></linearGradient><linearGradient gradientUnits="userSpaceOnUse" id="q" x1="840" y1="580" x2="840" y2="620.92"><stop offset="45.65%" stop-color="#c3f7c8"/><stop offset="72.46%" stop-color="#cfe4ff"/></linearGradient><linearGradient gradientUnits="userSpaceOnUse" id="r" x1="1080" y1="580" x2="1080" y2="620.92"><stop offset="45.65%" stop-color="#c3f7c8"/><stop offset="72.46%" stop-color="#cfe4ff"/></linearGradient></defs></g></svg>