<svg xmlns="http://www.w3.org/2000/svg" xmlns:xlink="http://www.w3.org/1999/xlink" xmlns:lucid="lucid" width="1266.96" height="423"><g transform="translate(-154.54310073455872 -338.5)" lucid:page-tab-id="0_0"><path d="M600 647.42a6 6 0 0 1 6-6h42a6 6 0 0 0 6-6v-8a2.3 2.3 0 0 1 4-1.54l28 31.08a6.67 6.67 0 0 1 0 8.92l-28 31.08a2.3 2.3 0 0 1-4-1.54v-8a6 6 0 0 0-6-6h-42a6 6 0 0 1-6-6z" fill="#fc9432"/><path d="M1200 446a6 6 0 0 1 6-6h208a6 6 0 0 1 6 6v107a6 6 0 0 1-6 6h-208a6 6 0 0 1-6-6z" stroke="#000" stroke-opacity="0" stroke-width="3" fill="#fff" fill-opacity="0"/><use xlink:href="#a" transform="matrix(1,0,0,1,1205,445) translate(26.487654320987644 28.326388888888893)"/><use xlink:href="#b" transform="matrix(1,0,0,1,1205,445) translate(138.6604938271605 28.326388888888893)"/><use xlink:href="#c" transform="matrix(1,0,0,1,1205,445) translate(19.48765432098766 65.65972222222223)"/><use xlink:href="#d" transform="matrix(1,0,0,1,1205,445) translate(9.117283950617264 102.99305555555557)"/><use xlink:href="#e" transform="matrix(1,0,0,1,1205,445) translate(69.6111111111111 102.99305555555557)"/><path d="M760 621a20 20 0 0 1 20-20h40a20 20 0 0 1 20 20v119a20 20 0 0 1-20 20h-40a20 20 0 0 1-20-20z" stroke="#000" stroke-width="3" fill="url(#f)"/><path d="M900 620a20 20 0 0 1 20-20h40a20 20 0 0 1 20 20v120a20 20 0 0 1-20 20h-40a20 20 0 0 1-20-20z" stroke="#000" stroke-width="3" fill="url(#g)"/><path d="M1040 620a20 20 0 0 1 20-20h40a20 20 0 0 1 20 20v120a20 20 0 0 1-20 20h-40a20 20 0 0 1-20-20z" stroke="#000" stroke-width="3" fill="url(#h)"/><path d="M760 540a20 20 0 0 1 20-20h320a20 20 0 0 1 20 20 20 20 0 0 1-20 20H780a20 20 0 0 1-20-20z" stroke="#000" stroke-width="3" fill="#fff"/><use xlink:href="#i" transform="matrix(1,0,0,1,765,525) translate(128.37537037037038 23.208333333333332)"/><use xlink:href="#j" transform="matrix(1,0,0,1,765,525) translate(203.85685185185184 23.208333333333332)"/><path d="M1122.4 539.54l2.55-1.32m3.4-1.76l5.13-2.64m3.4-1.75l5.12-2.64m3.4-1.76l5.12-2.64m3.4-1.76l5.13-2.64m3.4-1.76l5.12-2.64m3.4-1.76l5.13-2.64m3.4-1.76l5.12-2.63m3.4-1.76l5.12-2.64m3.4-1.76l2.57-1.32" stroke="#3a414a" stroke-width="2" fill="none"/><path d="M1122.86 540.4l-1.44.74.1-1.14-.1-1.05.55-.3zM1200 500.6l-.46.24-.9-1.74 1.36-.7z" stroke="#3a414a" stroke-width=".05" fill="#3a414a"/><path d="M884.33 681.93l-28.68-.15M884.35 677.93l-28.68-.15M879.23 669.9L896.5 680l-17.37 9.9m17.37-9.9l-8.5-.05M860.77 689.8l-17.27-10.08 17.37-9.92m-17.37 9.92l8.5.04M1024.35 681.7l-28.68.2M1024.33 677.7l-28.68.2M1019.1 669.74l17.4 9.88-17.25 10.12m17.25-10.12l-8.5.05M1000.9 689.87L983.5 680l17.25-10.13M983.5 680l8.5-.07" stroke="#000" stroke-width="2" fill="none"/><path d="M760 360a20 20 0 0 1 20-20h320a20 20 0 0 1 20 20 20 20 0 0 1-20 20H780a20 20 0 0 1-20-20z" stroke="#000" stroke-width="3" fill="#e8e2c8"/><use xlink:href="#k" transform="matrix(1,0,0,1,765,345) translate(141.04203703703703 23.208333333333332)"/><path d="M940 421.5v-39" stroke="#000" stroke-width="2" fill="none"/><path d="M940 436.76l-4.63-14.26h9.26z" stroke="#000" stroke-width="2"/><path d="M940.98 382.53H939v-1.03H941z" stroke="#000" stroke-width=".05"/><path d="M940 580v-17.5" stroke="#000" stroke-width="2" fill="none"/><path d="M940 595.26L935.37 581h9.26z" stroke="#000" stroke-width="2"/><path d="M940.98 562.53H939v-1.03H941z" stroke="#000" stroke-width=".05"/><path d="M160.04 580a20 20 0 0 1 20-20h40a20 20 0 0 1 20 20v160a20 20 0 0 1-20 20h-40a20 20 0 0 1-20-20z" stroke="#000" stroke-width="3" fill="url(#l)"/><path d="M300.04 579a20 20 0 0 1 20-20h40a20 20 0 0 1 20 20v160a20 20 0 0 1-20 20h-40a20 20 0 0 1-20-20z" stroke="#000" stroke-width="3" fill="url(#m)"/><path d="M440.04 579a20 20 0 0 1 20-20h40a20 20 0 0 1 20 20v161a20 20 0 0 1-20 20h-40a20 20 0 0 1-20-20z" stroke="#000" stroke-width="3" fill="url(#n)"/><path d="M160.04 499a20 20 0 0 1 20-20h320a20 20 0 0 1 20 20 20 20 0 0 1-20 20h-320a20 20 0 0 1-20-20z" stroke="#000" stroke-width="3" fill="#fff"/><use xlink:href="#i" transform="matrix(1,0,0,1,165.04310073455872,484) translate(128.37537037037038 23.208333333333332)"/><use xlink:href="#j" transform="matrix(1,0,0,1,165.04310073455872,484) translate(203.85685185185184 23.208333333333332)"/><path d="M284.38 661H255.7M284.38 657H255.7M279.22 649l17.32 10-17.32 10m17.32-10h-8.5M260.86 669l-17.32-10 17.32-10m-17.32 10h8.5M424.38 661H395.7M424.38 657H395.7M419.22 649l17.32 10-17.32 10m17.32-10h-8.5M400.86 669l-17.32-10 17.32-10m-17.32 10h8.5" stroke="#000" stroke-width="2" fill="none"/><path d="M160.04 399a20 20 0 0 1 20-20h320a20 20 0 0 1 20 20 20 20 0 0 1-20 20h-320a20 20 0 0 1-20-20z" stroke="#000" stroke-width="3" fill="#e8e2c8"/><use xlink:href="#k" transform="matrix(1,0,0,1,165.04310073455872,384) translate(141.04203703703703 23.208333333333332)"/><path d="M340.04 460v-38.5" stroke="#000" stroke-width="2" fill="none"/><path d="M340.04 475.26L335.4 461h9.28z" stroke="#000" stroke-width="2"/><path d="M341.02 421.53h-1.95v-1.03h1.95z" stroke="#000" stroke-width=".05"/><path d="M340.04 539v-17.5" stroke="#000" stroke-width="2" fill="none"/><path d="M340.04 554.26L335.4 540h9.28z" stroke="#000" stroke-width="2"/><path d="M341.02 521.53h-1.95v-1.03h1.95z" stroke="#000" stroke-width=".05"/><path d="M760 461.5a20 20 0 0 1 20-20h320a20 20 0 0 1 20 20 20 20 0 0 1-20 20H780a20 20 0 0 1-20-20z" stroke="#54c45e" stroke-width="3" fill="#fff"/><use xlink:href="#i" transform="matrix(1,0,0,1,765,446.4999500000047) translate(128.37537037037038 23.208333333333332)"/><use xlink:href="#o" transform="matrix(1,0,0,1,765,446.4999500000047) translate(203.85685185185184 23.208333333333332)"/><path d="M940 501.5V484" stroke="#000" stroke-width="2" fill="none"/><path d="M940 516.76l-4.63-14.26h9.26z" stroke="#000" stroke-width="2"/><path d="M940.98 484.03H939V483H941z" stroke="#000" stroke-width=".05"/><path d="M1122.4 461.94l2.56 1.23m3.4 1.65l5.12 2.48m3.4 1.65l5.13 2.47m3.4 1.65l5.13 2.48m3.4 1.65l5.12 2.48m3.4 1.64l5.12 2.48m3.4 1.65l5.12 2.48m3.4 1.65l5.1 2.47m3.42 1.65l5.12 2.48m3.4 1.65l2.56 1.23" stroke="#3a414a" stroke-width="2" fill="none"/><path d="M1122.85 461.07l-.85 1.75-.58-.28.1-1.04-.1-1.13zM1200 498.42v2.16l-1.35-.65.85-1.75z" stroke="#3a414a" stroke-width=".05" fill="#3a414a"/><path d="M520.54 719h-10.02m-10.03 0h-20.07m-10.03 0h-20.05m-10.03 0h-20.06m-10.02 0h-20.06m-10.03 0H360.1m-10.03 0H330m-10 0h-20.07m-10.03 0h-20.05m-10.03 0h-20.06m-10.02 0h-20.06m-10.03 0H179.6m-10.03 0h-10.03" stroke="#fc9432" stroke-width="2" fill="none"/><path d="M521.54 719.98h-1.02V718h1.02zM159.57 719.98h-1.03V718h1.03z" stroke="#fc9432" stroke-width=".05" fill="#fc9432"/><path d="M520.54 679h-10.02m-10.03 0h-20.07m-10.03 0h-20.05m-10.03 0h-20.06m-10.02 0h-20.06m-10.03 0H360.1m-10.03 0H330m-10 0h-20.07m-10.03 0h-20.05m-10.03 0h-20.06m-10.02 0h-20.06m-10.03 0H179.6m-10.03 0h-10.03" stroke="#fc9432" stroke-width="2" fill="none"/><path d="M521.54 679.98h-1.02V678h1.02zM159.57 679.98h-1.03V678h1.03z" stroke="#fc9432" stroke-width=".05" fill="#fc9432"/><path d="M200 540v-18.5" stroke="#000" stroke-width="2" fill="none"/><path d="M200 555.26L195.37 541h9.26z" stroke="#000" stroke-width="2"/><path d="M200.97 521.53h-1.94v-1.03h1.94z" stroke="#000" stroke-width=".05"/><path d="M480 539v-17.5" stroke="#000" stroke-width="2" fill="none"/><path d="M480 554.26L475.37 540h9.27z" stroke="#000" stroke-width="2"/><path d="M480.98 521.53h-1.95v-1.03h1.95z" stroke="#000" stroke-width=".05"/><path d="M800 581v-18.5" stroke="#000" stroke-width="2" fill="none"/><path d="M800 596.26L795.37 582h9.26z" stroke="#000" stroke-width="2"/><path d="M800.98 562.53H799v-1.03H801z" stroke="#000" stroke-width=".05"/><path d="M1080 580v-17.5" stroke="#000" stroke-width="2" fill="none"/><path d="M1080 595.26l-4.63-14.26h9.27z" stroke="#000" stroke-width="2"/><path d="M1080.98 562.53h-1.95v-1.03h1.95z" stroke="#000" stroke-width=".05"/><defs><path d="M238-179c0 84-86 86-175 82L45 0H11l48-248c82 0 179-12 179 69zm-34 1c0-53-64-42-116-43l-19 98c63 0 135 9 135-55" id="p"/><path d="M66-151c12-25 30-51 66-40l-6 26C45-176 58-65 38 0H6l36-190h30" id="q"/><path d="M30-147c31-64 166-65 159 27C183-49 158 1 86 4 9 8 1-88 30-147zM88-20c53 0 68-48 68-100 0-31-11-51-44-50-52 1-68 46-68 97 0 32 13 53 44 53" id="r"/><path d="M124 0L87-78 21 0h-35l86-98-46-92h33l34 74 61-74h37l-83 92 50 98h-34" id="s"/><path d="M50-231l6-30h32l-6 30H50zM6 0l37-190h31L37 0H6" id="t"/><path d="M111-194c62-3 86 47 72 106H45c-7 38 6 69 45 68 27-1 43-14 53-32l24 11C152-15 129 4 87 4 38 3 12-23 12-71c0-70 32-119 99-123zm44 81c14-66-71-72-95-28-4 8-8 17-11 28h106" id="u"/><path d="M55-144c13 50 104 24 104 88C159 21 15 23 1-39l26-10c6 40 102 42 102-4-13-50-104-23-104-87 0-71 143-71 148-8l-29 4c-5-35-85-37-89 0" id="v"/><g id="a"><use transform="matrix(0.08641975308641976,0,0,0.08641975308641976,0,0)" xlink:href="#p"/><use transform="matrix(0.08641975308641976,0,0,0.08641975308641976,20.740740740740744,0)" xlink:href="#q"/><use transform="matrix(0.08641975308641976,0,0,0.08641975308641976,31.024691358024693,0)" xlink:href="#r"/><use transform="matrix(0.08641975308641976,0,0,0.08641975308641976,48.308641975308646,0)" xlink:href="#s"/><use transform="matrix(0.08641975308641976,0,0,0.08641975308641976,63.8641975308642,0)" xlink:href="#t"/><use transform="matrix(0.08641975308641976,0,0,0.08641975308641976,70.69135802469137,0)" xlink:href="#u"/><use transform="matrix(0.08641975308641976,0,0,0.08641975308641976,87.97530864197532,0)" xlink:href="#v"/></g><path d="M141-36C126-15 110 5 73 4 37 3 15-17 15-53c-1-64 63-63 125-63 3-35-9-54-41-54-24 1-41 7-42 31l-33-3c5-37 33-52 76-52 45 0 72 20 72 64v82c-1 20 7 32 28 27v20c-31 9-61-2-59-35zM48-53c0 20 12 33 32 33 41-3 63-29 60-74-43 2-92-5-92 41" id="w"/><path d="M114-163C36-179 61-72 57 0H25l-1-190h30c1 12-1 29 2 39 6-27 23-49 58-41v29" id="x"/><path d="M100-194c63 0 86 42 84 106H49c0 40 14 67 53 68 26 1 43-12 49-29l28 8c-11 28-37 45-77 45C44 4 14-33 15-96c1-61 26-98 85-98zm52 81c6-60-76-77-97-28-3 7-6 17-6 28h103" id="y"/><g id="b"><use transform="matrix(0.08641975308641976,0,0,0.08641975308641976,0,0)" xlink:href="#w"/><use transform="matrix(0.08641975308641976,0,0,0.08641975308641976,17.283950617283953,0)" xlink:href="#x"/><use transform="matrix(0.08641975308641976,0,0,0.08641975308641976,27.567901234567906,0)" xlink:href="#y"/></g><path d="M24-231v-30h32v30H24zM24 0v-190h32V0H24" id="z"/><path d="M117-194c89-4 53 116 60 194h-32v-121c0-31-8-49-39-48C34-167 62-67 57 0H25l-1-190h30c1 10-1 24 2 32 11-22 29-35 61-36" id="A"/><path d="M85-194c31 0 48 13 60 33l-1-100h32l1 261h-30c-2-10 0-23-3-31C134-8 116 4 85 4 32 4 16-35 15-94c0-66 23-100 70-100zm9 24c-40 0-46 34-46 75 0 40 6 74 45 74 42 0 51-32 51-76 0-42-9-74-50-73" id="B"/><path d="M115-194c55 1 70 41 70 98S169 2 115 4C84 4 66-9 55-30l1 105H24l-1-265h31l2 30c10-21 28-34 59-34zm-8 174c40 0 45-34 45-75s-6-73-45-74c-42 0-51 32-51 76 0 43 10 73 51 73" id="C"/><path d="M59-47c-2 24 18 29 38 22v24C64 9 27 4 27-40v-127H5v-23h24l9-43h21v43h35v23H59v120" id="D"/><g id="c"><use transform="matrix(0.08641975308641976,0,0,0.08641975308641976,0,0)" xlink:href="#z"/><use transform="matrix(0.08641975308641976,0,0,0.08641975308641976,6.8271604938271615,0)" xlink:href="#A"/><use transform="matrix(0.08641975308641976,0,0,0.08641975308641976,24.111111111111114,0)" xlink:href="#B"/><use transform="matrix(0.08641975308641976,0,0,0.08641975308641976,41.39506172839506,0)" xlink:href="#y"/><use transform="matrix(0.08641975308641976,0,0,0.08641975308641976,58.679012345679006,0)" xlink:href="#C"/><use transform="matrix(0.08641975308641976,0,0,0.08641975308641976,75.96296296296296,0)" xlink:href="#y"/><use transform="matrix(0.08641975308641976,0,0,0.08641975308641976,93.2469135802469,0)" xlink:href="#A"/><use transform="matrix(0.08641975308641976,0,0,0.08641975308641976,110.53086419753086,0)" xlink:href="#B"/><use transform="matrix(0.08641975308641976,0,0,0.08641975308641976,127.81481481481481,0)" xlink:href="#y"/><use transform="matrix(0.08641975308641976,0,0,0.08641975308641976,145.09876543209876,0)" xlink:href="#A"/><use transform="matrix(0.08641975308641976,0,0,0.08641975308641976,162.3827160493827,0)" xlink:href="#D"/></g><g id="d"><use transform="matrix(0.08641975308641976,0,0,0.08641975308641976,0,0)" xlink:href="#w"/><use transform="matrix(0.08641975308641976,0,0,0.08641975308641976,17.283950617283953,0)" xlink:href="#A"/><use transform="matrix(0.08641975308641976,0,0,0.08641975308641976,34.567901234567906,0)" xlink:href="#B"/></g><path d="M135-143c-3-34-86-38-87 0 15 53 115 12 119 90S17 21 10-45l28-5c4 36 97 45 98 0-10-56-113-15-118-90-4-57 82-63 122-42 12 7 21 19 24 35" id="E"/><path d="M96-169c-40 0-48 33-48 73s9 75 48 75c24 0 41-14 43-38l32 2c-6 37-31 61-74 61-59 0-76-41-82-99-10-93 101-131 147-64 4 7 5 14 7 22l-32 3c-4-21-16-35-41-35" id="F"/><path d="M143 0L79-87 56-68V0H24v-261h32v163l83-92h37l-77 82L181 0h-38" id="G"/><path d="M115-194c53 0 69 39 70 98 0 66-23 100-70 100C84 3 66-7 56-30L54 0H23l1-261h32v101c10-23 28-34 59-34zm-8 174c40 0 45-34 45-75 0-40-5-75-45-74-42 0-51 32-51 76 0 43 10 73 51 73" id="H"/><path d="M24 0v-261h32V0H24" id="I"/><g id="e"><use transform="matrix(0.08641975308641976,0,0,0.08641975308641976,0,0)" xlink:href="#E"/><use transform="matrix(0.08641975308641976,0,0,0.08641975308641976,15.555555555555557,0)" xlink:href="#D"/><use transform="matrix(0.08641975308641976,0,0,0.08641975308641976,24.19753086419753,0)" xlink:href="#w"/><use transform="matrix(0.08641975308641976,0,0,0.08641975308641976,41.48148148148148,0)" xlink:href="#F"/><use transform="matrix(0.08641975308641976,0,0,0.08641975308641976,57.03703703703703,0)" xlink:href="#G"/><use transform="matrix(0.08641975308641976,0,0,0.08641975308641976,72.5925925925926,0)" xlink:href="#w"/><use transform="matrix(0.08641975308641976,0,0,0.08641975308641976,89.87654320987656,0)" xlink:href="#H"/><use transform="matrix(0.08641975308641976,0,0,0.08641975308641976,107.16049382716048,0)" xlink:href="#I"/><use transform="matrix(0.08641975308641976,0,0,0.08641975308641976,113.98765432098767,0)" xlink:href="#y"/></g><linearGradient gradientUnits="userSpaceOnUse" id="f" x1="760" y1="760" x2="760" y2="601"><stop offset="17.39%" stop-color="#ced4db"/><stop offset="26.45%" stop-color="#fff"/><stop offset="36.96%" stop-color="#cfe4ff"/><stop offset="71.01%" stop-color="#cfe4ff"/><stop offset="78.26%" stop-color="#c3f7c8"/></linearGradient><linearGradient gradientUnits="userSpaceOnUse" id="g" x1="900" y1="760" x2="900" y2="600"><stop offset="17.39%" stop-color="#ced4db"/><stop offset="26.45%" stop-color="#fff"/><stop offset="36.96%" stop-color="#cfe4ff"/><stop offset="71.01%" stop-color="#cfe4ff"/><stop offset="78.26%" stop-color="#c3f7c8"/></linearGradient><linearGradient gradientUnits="userSpaceOnUse" id="h" x1="1040" y1="760" x2="1040" y2="600"><stop offset="17.39%" stop-color="#ced4db"/><stop offset="26.45%" stop-color="#fff"/><stop offset="36.96%" stop-color="#cfe4ff"/><stop offset="71.01%" stop-color="#cfe4ff"/><stop offset="78.26%" stop-color="#c3f7c8"/></linearGradient><path d="M30-248c87 1 191-15 191 75 0 78-77 80-158 76V0H30v-248zm33 125c57 0 124 11 124-50 0-59-68-47-124-48v98" id="J"/><path d="M100-194c62-1 85 37 85 99 1 63-27 99-86 99S16-35 15-95c0-66 28-99 85-99zM99-20c44 1 53-31 53-75 0-43-8-75-51-75s-53 32-53 75 10 74 51 75" id="K"/><path d="M141 0L90-78 38 0H4l68-98-65-92h35l48 74 47-74h35l-64 92 68 98h-35" id="L"/><path d="M179-190L93 31C79 59 56 82 12 73V49c39 6 53-20 64-50L1-190h34L92-34l54-156h33" id="M"/><g id="i"><use transform="matrix(0.07407407407407407,0,0,0.07407407407407407,0,0)" xlink:href="#J"/><use transform="matrix(0.07407407407407407,0,0,0.07407407407407407,17.77777777777778,0)" xlink:href="#x"/><use transform="matrix(0.07407407407407407,0,0,0.07407407407407407,26.592592592592595,0)" xlink:href="#K"/><use transform="matrix(0.07407407407407407,0,0,0.07407407407407407,41.407407407407405,0)" xlink:href="#L"/><use transform="matrix(0.07407407407407407,0,0,0.07407407407407407,54.740740740740726,0)" xlink:href="#M"/></g><path d="M195 0l-74-108L45 0H8l94-129-87-119h37l69 98 67-98h37l-84 118L233 0h-38" id="N"/><use transform="matrix(0.07407407407407407,0,0,0.07407407407407407,0,0)" xlink:href="#N" id="j"/><path d="M212-179c-10-28-35-45-73-45-59 0-87 40-87 99 0 60 29 101 89 101 43 0 62-24 78-52l27 14C228-24 195 4 139 4 59 4 22-46 18-125c-6-104 99-153 187-111 19 9 31 26 39 46" id="O"/><g id="k"><use transform="matrix(0.07407407407407407,0,0,0.07407407407407407,0,0)" xlink:href="#O"/><use transform="matrix(0.07407407407407407,0,0,0.07407407407407407,19.185185185185183,0)" xlink:href="#I"/><use transform="matrix(0.07407407407407407,0,0,0.07407407407407407,25.037037037037035,0)" xlink:href="#z"/><use transform="matrix(0.07407407407407407,0,0,0.07407407407407407,30.888888888888886,0)" xlink:href="#y"/><use transform="matrix(0.07407407407407407,0,0,0.07407407407407407,45.703703703703695,0)" xlink:href="#A"/><use transform="matrix(0.07407407407407407,0,0,0.07407407407407407,60.518518518518505,0)" xlink:href="#D"/></g><linearGradient gradientUnits="userSpaceOnUse" id="l" x1="160.04" y1="760" x2="160.04" y2="560"><stop offset="15.94%" stop-color="#ced4db"/><stop offset="23.91%" stop-color="#fff"/><stop offset="37.68%" stop-color="#fff"/><stop offset="47.83%" stop-color="#cfe4ff"/><stop offset="76.09%" stop-color="#cfe4ff"/><stop offset="81.16%" stop-color="#c3f7c8"/></linearGradient><linearGradient gradientUnits="userSpaceOnUse" id="m" x1="300.04" y1="759" x2="300.04" y2="559"><stop offset="15.94%" stop-color="#ced4db"/><stop offset="23.91%" stop-color="#fff"/><stop offset="37.68%" stop-color="#fff"/><stop offset="47.83%" stop-color="#cfe4ff"/><stop offset="76.09%" stop-color="#cfe4ff"/><stop offset="81.16%" stop-color="#c3f7c8"/></linearGradient><linearGradient gradientUnits="userSpaceOnUse" id="n" x1="440.04" y1="760" x2="440.04" y2="559"><stop offset="15.94%" stop-color="#ced4db"/><stop offset="23.91%" stop-color="#fff"/><stop offset="37.68%" stop-color="#fff"/><stop offset="47.83%" stop-color="#cfe4ff"/><stop offset="76.09%" stop-color="#cfe4ff"/><stop offset="81.16%" stop-color="#c3f7c8"/></linearGradient><path d="M137-103V0h-34v-103L8-248h37l75 118 75-118h37" id="P"/><use transform="matrix(0.07407407407407407,0,0,0.07407407407407407,0,0)" xlink:href="#P" id="o"/></defs></g></svg>