<svg xmlns="http://www.w3.org/2000/svg" xmlns:xlink="http://www.w3.org/1999/xlink" xmlns:lucid="lucid" width="1343" height="289"><g transform="translate(-158.5 -557.5)" lucid:page-tab-id="0_0"><path d="M600 666a6 6 0 0 1 6-6h42a6 6 0 0 0 6-6v-8a2.3 2.3 0 0 1 4-1.54l28 31.08a6.67 6.67 0 0 1 0 8.92l-28 31.08a2.3 2.3 0 0 1-4-1.54v-8a6 6 0 0 0-6-6h-42a6 6 0 0 1-6-6z" fill="#fc9432"/><path d="M1200 686a6 6 0 0 1 6-6h288a6 6 0 0 1 6 6v149a6 6 0 0 1-6 6h-288a6 6 0 0 1-6-6z" stroke="#000" stroke-opacity="0" stroke-width="3" fill="#fff" fill-opacity="0"/><use xlink:href="#a" transform="matrix(1,0,0,1,1205,685) translate(65.62345679012344 29.638888888888893)"/><use xlink:href="#b" transform="matrix(1,0,0,1,1205,685) translate(35.2469135802469 66.97222222222223)"/><use xlink:href="#c" transform="matrix(1,0,0,1,1205,685) translate(187.34567901234567 66.97222222222223)"/><use xlink:href="#d" transform="matrix(1,0,0,1,1205,685) translate(6.901234567901241 104.30555555555557)"/><use xlink:href="#e" transform="matrix(1,0,0,1,1205,685) translate(84.67901234567903 104.30555555555557)"/><use xlink:href="#f" transform="matrix(1,0,0,1,1205,685) translate(267.6296296296297 104.30555555555557)"/><use xlink:href="#g" transform="matrix(1,0,0,1,1205,685) translate(17.271604938271594 141.6388888888889)"/><use xlink:href="#h" transform="matrix(1,0,0,1,1205,685) translate(93.32098765432097 141.6388888888889)"/><path d="M760 580a20 20 0 0 1 20-20h40a20 20 0 0 1 20 20v160a20 20 0 0 1-20 20h-40a20 20 0 0 1-20-20z" stroke="#000" stroke-width="3" fill="url(#i)"/><use xlink:href="#j" transform="matrix(-1.8369701987210297e-16,-1,1,-1.8369701987210297e-16,765,755.0000000000001) translate(38.037037037037024 41.020833333333336)"/><use xlink:href="#k" transform="matrix(-1.8369701987210297e-16,-1,1,-1.8369701987210297e-16,765,755.0000000000001) translate(134.1851851851852 41.020833333333336)"/><path d="M900 579a20 20 0 0 1 20-20h40a20 20 0 0 1 20 20v160a20 20 0 0 1-20 20h-40a20 20 0 0 1-20-20z" stroke="#000" stroke-width="3" fill="url(#l)"/><use xlink:href="#j" transform="matrix(-1.8369701987210297e-16,-1,1,-1.8369701987210297e-16,905.0000000000001,754.0000000000001) translate(38.037037037037024 41.020833333333336)"/><use xlink:href="#m" transform="matrix(-1.8369701987210297e-16,-1,1,-1.8369701987210297e-16,905.0000000000001,754.0000000000001) translate(134.1851851851852 41.020833333333336)"/><path d="M1040 579a20 20 0 0 1 20-20h40a20 20 0 0 1 20 20v161a20 20 0 0 1-20 20h-40a20 20 0 0 1-20-20z" stroke="#000" stroke-width="3" fill="url(#n)"/><use xlink:href="#j" transform="matrix(-1.8369701987210297e-16,-1,1,-1.8369701987210297e-16,1045,755.0000000000001) translate(37.83333333333332 41.020833333333336)"/><use xlink:href="#o" transform="matrix(-1.8369701987210297e-16,-1,1,-1.8369701987210297e-16,1045,755.0000000000001) translate(133.9814814814815 41.020833333333336)"/><path d="M782 780v-17.5" stroke="#008a0e" stroke-width="2" fill="none"/><path d="M782 795.26L777.37 781h9.26z" stroke="#008a0e" stroke-width="2" fill="#008a0e"/><path d="M782.98 762.53H781v-1.03H783z" stroke="#008a0e" stroke-width=".05" fill="#008a0e"/><path d="M919.1 760.93l-62.4 29.63" stroke="#008a0e" stroke-width="2" fill="none"/><path d="M919.94 760.5h2.33l-2.78 1.32-.68-1.4z" stroke="#008a0e" stroke-width=".05" fill="#008a0e"/><path d="M842.92 797.1l10.9-10.3 3.98 8.38z" stroke="#008a0e" stroke-width="2" fill="#008a0e"/><path d="M1060.03 761.72l-141.8 32.64" stroke="#008a0e" stroke-width="2" fill="none"/><path d="M1064.14 761.78l-3.92.9-.27-1.18h4.13z" stroke="#008a0e" stroke-width=".05" fill="#008a0e"/><path d="M903.35 797.8l12.86-7.73 2.1 9.03z" stroke="#008a0e" stroke-width="2" fill="#008a0e"/><path d="M1122.43 820.63l2.88-1.14m3.84-1.54l5.75-2.28m3.82-1.53l5.75-2.28m3.83-1.53l5.75-2.3m3.83-1.5l5.75-2.3m3.83-1.52l5.75-2.3m3.84-1.5l5.75-2.3m3.82-1.52l5.75-2.3m3.83-1.5l2.87-1.16" stroke="#3a414a" stroke-width="2" fill="none"/><path d="M1122.82 821.53l-1.4.55.1-1.08-.1-1.02.68-.26zM1200 790.82l-.6.24-.7-1.8 1.3-.53z" stroke="#3a414a" stroke-width=".05" fill="#3a414a"/><path d="M884.34 662h-28.68M884.34 658h-28.68M879.18 650l17.32 10-17.32 10m17.32-10H888M860.82 670l-17.32-10 17.32-10m-17.32 10h8.5M1024.34 662h-28.68M1024.34 658h-28.68M1019.18 650l17.32 10-17.32 10m17.32-10h-8.5M1000.82 670l-17.32-10 17.32-10m-17.32 10h8.5" stroke="#000" stroke-width="2" fill="none"/><path d="M160 581a20 20 0 0 1 20-20h40a20 20 0 0 1 20 20v160a20 20 0 0 1-20 20h-40a20 20 0 0 1-20-20z" stroke="#000" stroke-width="3" fill="url(#p)"/><use xlink:href="#j" transform="matrix(-1.8369701987210297e-16,-1,1,-1.8369701987210297e-16,165,756) translate(38.037037037037024 41.020833333333336)"/><use xlink:href="#k" transform="matrix(-1.8369701987210297e-16,-1,1,-1.8369701987210297e-16,165,756) translate(134.1851851851852 41.020833333333336)"/><path d="M300 580a20 20 0 0 1 20-20h40a20 20 0 0 1 20 20v160a20 20 0 0 1-20 20h-40a20 20 0 0 1-20-20z" stroke="#000" stroke-width="3" fill="url(#q)"/><use xlink:href="#j" transform="matrix(-1.8369701987210297e-16,-1,1,-1.8369701987210297e-16,305.00000000000006,755) translate(38.037037037037024 41.020833333333336)"/><use xlink:href="#m" transform="matrix(-1.8369701987210297e-16,-1,1,-1.8369701987210297e-16,305.00000000000006,755) translate(134.1851851851852 41.020833333333336)"/><path d="M440 580a20 20 0 0 1 20-20h40a20 20 0 0 1 20 20v161a20 20 0 0 1-20 20h-40a20 20 0 0 1-20-20z" stroke="#000" stroke-width="3" fill="url(#r)"/><use xlink:href="#j" transform="matrix(-1.8369701987210297e-16,-1,1,-1.8369701987210297e-16,445,756.0000000000001) translate(37.83333333333332 41.020833333333336)"/><use xlink:href="#o" transform="matrix(-1.8369701987210297e-16,-1,1,-1.8369701987210297e-16,445,756.0000000000001) translate(133.9814814814815 41.020833333333336)"/><path d="M200 781v-17.5" stroke="#000" stroke-width="2" fill="none"/><path d="M200 796.26L195.36 782h9.27z" stroke="#000" stroke-width="2"/><path d="M200.97 763.53h-1.94v-1.03h1.94z" stroke="#000" stroke-width=".05"/><path d="M340 762.5V781" stroke="#000" stroke-width="2" fill="none"/><path d="M340.98 762.53h-1.96v-1.03h1.96z" stroke="#000" stroke-width=".05"/><path d="M340 796.26L335.37 782h9.26z" stroke="#000" stroke-width="2"/><path d="M160 821a20 20 0 0 1 20-20h320a20 20 0 0 1 20 20 20 20 0 0 1-20 20H180a20 20 0 0 1-20-20z" stroke="#000" stroke-width="3" fill="#ced4db"/><use xlink:href="#s" transform="matrix(1,0,0,1,165.00000000000023,806) translate(71.37537037037039 23.208333333333332)"/><use xlink:href="#t" transform="matrix(1,0,0,1,165.00000000000023,806) translate(164.63462962962964 23.208333333333332)"/><path d="M480 763.5V781" stroke="#000" stroke-width="2" fill="none"/><path d="M480.98 763.53h-1.96v-1.03h1.96z" stroke="#000" stroke-width=".05"/><path d="M480 796.26L475.37 782h9.26z" stroke="#000" stroke-width="2"/><path d="M284.34 663h-28.68M284.34 659h-28.68M279.18 651l17.32 10-17.32 10m17.32-10H288M260.82 671l-17.32-10 17.32-10m-17.32 10h8.5M424.34 663h-28.68M424.34 659h-28.68M419.18 651l17.32 10-17.32 10m17.32-10H428M400.82 671l-17.32-10 17.32-10m-17.32 10h8.5" stroke="#000" stroke-width="2" fill="none"/><path d="M340 800.5v13.67m0 13.66v13.67" stroke="#fc9432" stroke-width="2" fill="none"/><path d="M340.98 800.53h-1.96v-1.03h1.96zM340.98 842.5h-1.96v-1.03h1.96z" stroke="#fc9432" stroke-width=".05" fill="#fc9432"/><path d="M760 820a20 20 0 0 1 20-20h120a20 20 0 0 1 20 20 20 20 0 0 1-20 20H780a20 20 0 0 1-20-20z" stroke="#008a0e" stroke-width="3" fill="#ced4db"/><use xlink:href="#u" transform="matrix(1,0,0,1,765,805) translate(43.930925925925926 23.208333333333332)"/><use xlink:href="#v" transform="matrix(1,0,0,1,765,805) translate(88.3012962962963 23.208333333333332)"/><path d="M960 821a20 20 0 0 1 20-20h120a20 20 0 0 1 20 20 20 20 0 0 1-20 20H980a20 20 0 0 1-20-20z" stroke="#1071e5" stroke-width="3" fill="#ced4db"/><g><use xlink:href="#u" transform="matrix(1,0,0,1,965,806) translate(43.930925925925926 23.208333333333332)"/><use xlink:href="#w" transform="matrix(1,0,0,1,965,806) translate(88.3012962962963 23.208333333333332)"/></g><path d="M1100 781v-18.5" stroke="#1071e5" stroke-width="2" fill="none"/><path d="M1100 796.26l-4.63-14.26h9.27z" stroke="#1071e5" stroke-width="2" fill="#1071e5"/><path d="M1100.97 762.53h-1.94v-1.03h1.03l.9-.07z" stroke="#1071e5" stroke-width=".05" fill="#1071e5"/><path d="M1023.7 790.76l-57.13-30.6" stroke="#1071e5" stroke-width="2" fill="none"/><path d="M1037.15 797.97l-14.77-2.65 4.38-8.17z" stroke="#1071e5" stroke-width="2" fill="#1071e5"/><path d="M967.05 759.3l-.92 1.73-1.87-1 2.38-.58.38-.16z" stroke="#1071e5" stroke-width=".05" fill="#1071e5"/><path d="M961.88 794.94L827.6 760.7" stroke="#1071e5" stroke-width="2" fill="none"/><path d="M976.67 798.7l-14.97.98 2.3-9z" stroke="#1071e5" stroke-width="2" fill="#1071e5"/><path d="M827.4 761.65l-2.8-.7 2.04-.5 1.2-.5z" stroke="#1071e5" stroke-width=".05" fill="#1071e5"/><path d="M761 780h4.07m8.13 0h8.14m8.14 0h8.13m8.15 0h8.14m8.12 0h8.14m8.13 0h8.13m8.14 0h8.13m8.14 0h8.14m8.13 0h8.15m8.14 0h8.12m8.14 0h8.13m8.13 0h8.14m8.13 0h8.14m8.14 0h8.13m8.15 0h8.14m8.12 0h8.14m8.13 0h8.13m8.14 0h8.13m8.14 0h8.14m8.13 0h8.15m8.14 0h8.12m8.14 0h8.13m8.13 0h4.07M761.03 780H760M1118.97 780h1.03" stroke="#ba23f6" stroke-width="2" fill="none"/><defs><path d="M185-189c-5-48-123-54-124 2 14 75 158 14 163 119 3 78-121 87-175 55-17-10-28-26-33-46l33-7c5 56 141 63 141-1 0-78-155-14-162-118-5-82 145-84 179-34 5 7 8 16 11 25" id="x"/><path d="M115-194c55 1 70 41 70 98S169 2 115 4C84 4 66-9 55-30l1 105H24l-1-265h31l2 30c10-21 28-34 59-34zm-8 174c40 0 45-34 45-75s-6-73-45-74c-42 0-51 32-51 76 0 43 10 73 51 73" id="y"/><path d="M100-194c63 0 86 42 84 106H49c0 40 14 67 53 68 26 1 43-12 49-29l28 8c-11 28-37 45-77 45C44 4 14-33 15-96c1-61 26-98 85-98zm52 81c6-60-76-77-97-28-3 7-6 17-6 28h103" id="z"/><path d="M96-169c-40 0-48 33-48 73s9 75 48 75c24 0 41-14 43-38l32 2c-6 37-31 61-74 61-59 0-76-41-82-99-10-93 101-131 147-64 4 7 5 14 7 22l-32 3c-4-21-16-35-41-35" id="A"/><path d="M24-231v-30h32v30H24zM24 0v-190h32V0H24" id="B"/><path d="M141-36C126-15 110 5 73 4 37 3 15-17 15-53c-1-64 63-63 125-63 3-35-9-54-41-54-24 1-41 7-42 31l-33-3c5-37 33-52 76-52 45 0 72 20 72 64v82c-1 20 7 32 28 27v20c-31 9-61-2-59-35zM48-53c0 20 12 33 32 33 41-3 63-29 60-74-43 2-92-5-92 41" id="C"/><path d="M24 0v-261h32V0H24" id="D"/><path d="M9 0v-24l116-142H16v-24h144v24L44-24h123V0H9" id="E"/><path d="M85-194c31 0 48 13 60 33l-1-100h32l1 261h-30c-2-10 0-23-3-31C134-8 116 4 85 4 32 4 16-35 15-94c0-66 23-100 70-100zm9 24c-40 0-46 34-46 75 0 40 6 74 45 74 42 0 51-32 51-76 0-42-9-74-50-73" id="F"/><g id="a"><use transform="matrix(0.08641975308641976,0,0,0.08641975308641976,0,0)" xlink:href="#x"/><use transform="matrix(0.08641975308641976,0,0,0.08641975308641976,20.740740740740744,0)" xlink:href="#y"/><use transform="matrix(0.08641975308641976,0,0,0.08641975308641976,38.0246913580247,0)" xlink:href="#z"/><use transform="matrix(0.08641975308641976,0,0,0.08641975308641976,55.308641975308646,0)" xlink:href="#A"/><use transform="matrix(0.08641975308641976,0,0,0.08641975308641976,70.8641975308642,0)" xlink:href="#B"/><use transform="matrix(0.08641975308641976,0,0,0.08641975308641976,77.69135802469137,0)" xlink:href="#C"/><use transform="matrix(0.08641975308641976,0,0,0.08641975308641976,94.97530864197532,0)" xlink:href="#D"/><use transform="matrix(0.08641975308641976,0,0,0.08641975308641976,101.80246913580248,0)" xlink:href="#B"/><use transform="matrix(0.08641975308641976,0,0,0.08641975308641976,108.62962962962965,0)" xlink:href="#E"/><use transform="matrix(0.08641975308641976,0,0,0.08641975308641976,124.1851851851852,0)" xlink:href="#z"/><use transform="matrix(0.08641975308641976,0,0,0.08641975308641976,141.46913580246917,0)" xlink:href="#F"/></g><path d="M59-47c-2 24 18 29 38 22v24C64 9 27 4 27-40v-127H5v-23h24l9-43h21v43h35v23H59v120" id="G"/><path d="M115-194c53 0 69 39 70 98 0 66-23 100-70 100C84 3 66-7 56-30L54 0H23l1-261h32v101c10-23 28-34 59-34zm-8 174c40 0 45-34 45-75 0-40-5-75-45-74-42 0-51 32-51 76 0 43 10 73 51 73" id="H"/><path d="M135-143c-3-34-86-38-87 0 15 53 115 12 119 90S17 21 10-45l28-5c4 36 97 45 98 0-10-56-113-15-118-90-4-57 82-63 122-42 12 7 21 19 24 35" id="I"/><g id="b"><use transform="matrix(0.08641975308641976,0,0,0.08641975308641976,0,0)" xlink:href="#F"/><use transform="matrix(0.08641975308641976,0,0,0.08641975308641976,17.283950617283953,0)" xlink:href="#C"/><use transform="matrix(0.08641975308641976,0,0,0.08641975308641976,34.567901234567906,0)" xlink:href="#G"/><use transform="matrix(0.08641975308641976,0,0,0.08641975308641976,43.20987654320988,0)" xlink:href="#C"/><use transform="matrix(0.08641975308641976,0,0,0.08641975308641976,60.49382716049384,0)" xlink:href="#H"/><use transform="matrix(0.08641975308641976,0,0,0.08641975308641976,77.77777777777779,0)" xlink:href="#C"/><use transform="matrix(0.08641975308641976,0,0,0.08641975308641976,95.06172839506173,0)" xlink:href="#I"/><use transform="matrix(0.08641975308641976,0,0,0.08641975308641976,110.61728395061729,0)" xlink:href="#z"/><use transform="matrix(0.08641975308641976,0,0,0.08641975308641976,127.90123456790124,0)" xlink:href="#I"/></g><path d="M106-169C34-169 62-67 57 0H25v-261h32l-1 103c12-21 28-36 61-36 89 0 53 116 60 194h-32v-121c2-32-8-49-39-48" id="J"/><path d="M108 0H70L1-190h34L89-25l56-165h34" id="K"/><g id="c"><use transform="matrix(0.08641975308641976,0,0,0.08641975308641976,0,0)" xlink:href="#J"/><use transform="matrix(0.08641975308641976,0,0,0.08641975308641976,17.283950617283953,0)" xlink:href="#C"/><use transform="matrix(0.08641975308641976,0,0,0.08641975308641976,34.567901234567906,0)" xlink:href="#K"/><use transform="matrix(0.08641975308641976,0,0,0.08641975308641976,50.12345679012346,0)" xlink:href="#z"/></g><path d="M177-190C167-65 218 103 67 71c-23-6-38-20-44-43l32-5c15 47 100 32 89-28v-30C133-14 115 1 83 1 29 1 15-40 15-95c0-56 16-97 71-98 29-1 48 16 59 35 1-10 0-23 2-32h30zM94-22c36 0 50-32 50-73 0-42-14-75-50-75-39 0-46 34-46 75s6 73 46 73" id="L"/><path d="M100-194c62-1 85 37 85 99 1 63-27 99-86 99S16-35 15-95c0-66 28-99 85-99zM99-20c44 1 53-31 53-75 0-43-8-75-51-75s-53 32-53 75 10 74 51 75" id="M"/><g id="d"><use transform="matrix(0.08641975308641976,0,0,0.08641975308641976,0,0)" xlink:href="#L"/><use transform="matrix(0.08641975308641976,0,0,0.08641975308641976,17.283950617283953,0)" xlink:href="#M"/><use transform="matrix(0.08641975308641976,0,0,0.08641975308641976,34.567901234567906,0)" xlink:href="#M"/><use transform="matrix(0.08641975308641976,0,0,0.08641975308641976,51.851851851851855,0)" xlink:href="#F"/></g><path d="M114-163C36-179 61-72 57 0H25l-1-190h30c1 12-1 29 2 39 6-27 23-49 58-41v29" id="N"/><path d="M101-234c-31-9-42 10-38 44h38v23H63V0H32v-167H5v-23h27c-7-52 17-82 69-68v24" id="O"/><path d="M210-169c-67 3-38 105-44 169h-31v-121c0-29-5-50-35-48C34-165 62-65 56 0H25l-1-190h30c1 10-1 24 2 32 10-44 99-50 107 0 11-21 27-35 58-36 85-2 47 119 55 194h-31v-121c0-29-5-49-35-48" id="P"/><path d="M117-194c89-4 53 116 60 194h-32v-121c0-31-8-49-39-48C34-167 62-67 57 0H25l-1-190h30c1 10-1 24 2 32 11-22 29-35 61-36" id="Q"/><g id="e"><use transform="matrix(0.08641975308641976,0,0,0.08641975308641976,0,0)" xlink:href="#y"/><use transform="matrix(0.08641975308641976,0,0,0.08641975308641976,17.283950617283953,0)" xlink:href="#z"/><use transform="matrix(0.08641975308641976,0,0,0.08641975308641976,34.567901234567906,0)" xlink:href="#N"/><use transform="matrix(0.08641975308641976,0,0,0.08641975308641976,44.851851851851855,0)" xlink:href="#O"/><use transform="matrix(0.08641975308641976,0,0,0.08641975308641976,53.49382716049383,0)" xlink:href="#M"/><use transform="matrix(0.08641975308641976,0,0,0.08641975308641976,70.77777777777779,0)" xlink:href="#N"/><use transform="matrix(0.08641975308641976,0,0,0.08641975308641976,81.06172839506173,0)" xlink:href="#P"/><use transform="matrix(0.08641975308641976,0,0,0.08641975308641976,106.90123456790124,0)" xlink:href="#C"/><use transform="matrix(0.08641975308641976,0,0,0.08641975308641976,124.1851851851852,0)" xlink:href="#Q"/><use transform="matrix(0.08641975308641976,0,0,0.08641975308641976,141.46913580246914,0)" xlink:href="#A"/><use transform="matrix(0.08641975308641976,0,0,0.08641975308641976,157.0246913580247,0)" xlink:href="#z"/></g><g id="f"><use transform="matrix(0.08641975308641976,0,0,0.08641975308641976,0,0)" xlink:href="#B"/><use transform="matrix(0.08641975308641976,0,0,0.08641975308641976,6.8271604938271615,0)" xlink:href="#O"/></g><path d="M84 4C-5 8 30-112 23-190h32v120c0 31 7 50 39 49 72-2 45-101 50-169h31l1 190h-30c-1-10 1-25-2-33-11 22-28 36-60 37" id="R"/><g id="g"><use transform="matrix(0.08641975308641976,0,0,0.08641975308641976,0,0)" xlink:href="#R"/><use transform="matrix(0.08641975308641976,0,0,0.08641975308641976,17.283950617283953,0)" xlink:href="#I"/><use transform="matrix(0.08641975308641976,0,0,0.08641975308641976,32.839506172839506,0)" xlink:href="#z"/><use transform="matrix(0.08641975308641976,0,0,0.08641975308641976,50.123456790123456,0)" xlink:href="#F"/></g><path d="M179-190L93 31C79 59 56 82 12 73V49c39 6 53-20 64-50L1-190h34L92-34l54-156h33" id="S"/><g id="h"><use transform="matrix(0.08641975308641976,0,0,0.08641975308641976,0,0)" xlink:href="#C"/><use transform="matrix(0.08641975308641976,0,0,0.08641975308641976,17.283950617283953,0)" xlink:href="#y"/><use transform="matrix(0.08641975308641976,0,0,0.08641975308641976,34.567901234567906,0)" xlink:href="#y"/><use transform="matrix(0.08641975308641976,0,0,0.08641975308641976,51.851851851851855,0)" xlink:href="#N"/><use transform="matrix(0.08641975308641976,0,0,0.08641975308641976,62.13580246913581,0)" xlink:href="#M"/><use transform="matrix(0.08641975308641976,0,0,0.08641975308641976,79.41975308641976,0)" xlink:href="#y"/><use transform="matrix(0.08641975308641976,0,0,0.08641975308641976,96.70370370370371,0)" xlink:href="#N"/><use transform="matrix(0.08641975308641976,0,0,0.08641975308641976,106.98765432098766,0)" xlink:href="#B"/><use transform="matrix(0.08641975308641976,0,0,0.08641975308641976,113.81481481481482,0)" xlink:href="#C"/><use transform="matrix(0.08641975308641976,0,0,0.08641975308641976,131.0987654320988,0)" xlink:href="#G"/><use transform="matrix(0.08641975308641976,0,0,0.08641975308641976,139.74074074074076,0)" xlink:href="#z"/><use transform="matrix(0.08641975308641976,0,0,0.08641975308641976,157.0246913580247,0)" xlink:href="#D"/><use transform="matrix(0.08641975308641976,0,0,0.08641975308641976,163.85185185185188,0)" xlink:href="#S"/></g><linearGradient gradientUnits="userSpaceOnUse" id="i" x1="760" y1="760" x2="760" y2="560"><stop offset="19.93%" stop-color="#fff"/><stop offset="27.17%" stop-color="#cfe4ff"/><stop offset="63.41%" stop-color="#cfe4ff"/><stop offset="79.71%" stop-color="#c3f7c8"/></linearGradient><g id="j"><use transform="matrix(0.07407407407407408,0,0,0.07407407407407408,0,0)" xlink:href="#x"/><use transform="matrix(0.07407407407407408,0,0,0.07407407407407408,17.77777777777778,0)" xlink:href="#z"/><use transform="matrix(0.07407407407407408,0,0,0.07407407407407408,32.592592592592595,0)" xlink:href="#N"/><use transform="matrix(0.07407407407407408,0,0,0.07407407407407408,41.40740740740741,0)" xlink:href="#K"/><use transform="matrix(0.07407407407407408,0,0,0.07407407407407408,54.74074074074075,0)" xlink:href="#B"/><use transform="matrix(0.07407407407407408,0,0,0.07407407407407408,60.5925925925926,0)" xlink:href="#A"/><use transform="matrix(0.07407407407407408,0,0,0.07407407407407408,73.92592592592594,0)" xlink:href="#z"/></g><path d="M205 0l-28-72H64L36 0H1l101-248h38L239 0h-34zm-38-99l-47-123c-12 45-31 82-46 123h93" id="T"/><use transform="matrix(0.07407407407407408,0,0,0.07407407407407408,0,0)" xlink:href="#T" id="k"/><linearGradient gradientUnits="userSpaceOnUse" id="l" x1="900" y1="759" x2="900" y2="559"><stop offset="19.93%" stop-color="#fff"/><stop offset="27.17%" stop-color="#cfe4ff"/><stop offset="63.41%" stop-color="#cfe4ff"/><stop offset="79.71%" stop-color="#c3f7c8"/></linearGradient><path d="M160-131c35 5 61 23 61 61C221 17 115-2 30 0v-248c76 3 177-17 177 60 0 33-19 50-47 57zm-97-11c50-1 110 9 110-42 0-47-63-36-110-37v79zm0 115c55-2 124 14 124-45 0-56-70-42-124-44v89" id="U"/><use transform="matrix(0.07407407407407408,0,0,0.07407407407407408,0,0)" xlink:href="#U" id="m"/><linearGradient gradientUnits="userSpaceOnUse" id="n" x1="1040" y1="760" x2="1040" y2="559"><stop offset="19.93%" stop-color="#fff"/><stop offset="27.17%" stop-color="#cfe4ff"/><stop offset="63.41%" stop-color="#cfe4ff"/><stop offset="79.71%" stop-color="#c3f7c8"/></linearGradient><path d="M212-179c-10-28-35-45-73-45-59 0-87 40-87 99 0 60 29 101 89 101 43 0 62-24 78-52l27 14C228-24 195 4 139 4 59 4 22-46 18-125c-6-104 99-153 187-111 19 9 31 26 39 46" id="V"/><use transform="matrix(0.07407407407407408,0,0,0.07407407407407408,0,0)" xlink:href="#V" id="o"/><linearGradient gradientUnits="userSpaceOnUse" id="p" x1="160" y1="761" x2="160" y2="561"><stop offset="19.93%" stop-color="#fff"/><stop offset="27.17%" stop-color="#cfe4ff"/><stop offset="63.41%" stop-color="#cfe4ff"/><stop offset="79.71%" stop-color="#c3f7c8"/></linearGradient><linearGradient gradientUnits="userSpaceOnUse" id="q" x1="300" y1="760" x2="300" y2="560"><stop offset="19.93%" stop-color="#fff"/><stop offset="27.17%" stop-color="#cfe4ff"/><stop offset="63.41%" stop-color="#cfe4ff"/><stop offset="79.71%" stop-color="#c3f7c8"/></linearGradient><linearGradient gradientUnits="userSpaceOnUse" id="r" x1="440" y1="761" x2="440" y2="560"><stop offset="19.93%" stop-color="#fff"/><stop offset="27.17%" stop-color="#cfe4ff"/><stop offset="63.41%" stop-color="#cfe4ff"/><stop offset="79.71%" stop-color="#c3f7c8"/></linearGradient><g id="s"><use transform="matrix(0.07407407407407407,0,0,0.07407407407407407,0,0)" xlink:href="#x"/><use transform="matrix(0.07407407407407407,0,0,0.07407407407407407,17.77777777777778,0)" xlink:href="#J"/><use transform="matrix(0.07407407407407407,0,0,0.07407407407407407,32.592592592592595,0)" xlink:href="#C"/><use transform="matrix(0.07407407407407407,0,0,0.07407407407407407,47.407407407407405,0)" xlink:href="#N"/><use transform="matrix(0.07407407407407407,0,0,0.07407407407407407,56.22222222222222,0)" xlink:href="#z"/><use transform="matrix(0.07407407407407407,0,0,0.07407407407407407,71.03703703703704,0)" xlink:href="#F"/></g><path d="M30-248c118-7 216 8 213 122C240-48 200 0 122 0H30v-248zM63-27c89 8 146-16 146-99s-60-101-146-95v194" id="W"/><g id="t"><use transform="matrix(0.07407407407407407,0,0,0.07407407407407407,0,0)" xlink:href="#W"/><use transform="matrix(0.07407407407407407,0,0,0.07407407407407407,19.185185185185183,0)" xlink:href="#C"/><use transform="matrix(0.07407407407407407,0,0,0.07407407407407407,34,0)" xlink:href="#G"/><use transform="matrix(0.07407407407407407,0,0,0.07407407407407407,41.407407407407405,0)" xlink:href="#C"/><use transform="matrix(0.07407407407407407,0,0,0.07407407407407407,56.22222222222221,0)" xlink:href="#H"/><use transform="matrix(0.07407407407407407,0,0,0.07407407407407407,71.03703703703702,0)" xlink:href="#C"/><use transform="matrix(0.07407407407407407,0,0,0.07407407407407407,85.85185185185183,0)" xlink:href="#I"/><use transform="matrix(0.07407407407407407,0,0,0.07407407407407407,99.18518518518516,0)" xlink:href="#z"/></g><g id="u"><use transform="matrix(0.07407407407407407,0,0,0.07407407407407407,0,0)" xlink:href="#W"/><use transform="matrix(0.07407407407407407,0,0,0.07407407407407407,19.185185185185183,0)" xlink:href="#U"/></g><path d="M195 0l-74-108L45 0H8l94-129-87-119h37l69 98 67-98h37l-84 118L233 0h-38" id="X"/><use transform="matrix(0.07407407407407407,0,0,0.07407407407407407,0,0)" xlink:href="#X" id="v"/><path d="M137-103V0h-34v-103L8-248h37l75 118 75-118h37" id="Y"/><use transform="matrix(0.07407407407407407,0,0,0.07407407407407407,0,0)" xlink:href="#Y" id="w"/></defs></g></svg>