<svg xmlns="http://www.w3.org/2000/svg" xmlns:xlink="http://www.w3.org/1999/xlink" xmlns:lucid="lucid" width="1303" height="324"><g transform="translate(-158.5 -557.5)" lucid:page-tab-id="0_0"><path d="M800 820a20 20 0 0 1 20-20h280a20 20 0 0 1 20 20 20 20 0 0 1-20 20H820a20 20 0 0 1-20-20z" stroke="#1071e5" stroke-width="3" fill="#ced4db"/><use xlink:href="#a" transform="matrix(1,0,0,1,805.0000000000001,805) translate(21.85685185185188 23.208333333333332)"/><use xlink:href="#b" transform="matrix(1,0,0,1,805.0000000000001,805) translate(115.11611111111114 23.208333333333332)"/><use xlink:href="#c" transform="matrix(1,0,0,1,805.0000000000001,805) translate(243.93092592592592 23.208333333333332)"/><path d="M600 666a6 6 0 0 1 6-6h42a6 6 0 0 0 6-6v-8a2.3 2.3 0 0 1 4-1.54l28 31.08a6.67 6.67 0 0 1 0 8.92l-28 31.08a2.3 2.3 0 0 1-4-1.54v-8a6 6 0 0 0-6-6h-42a6 6 0 0 1-6-6z" fill="#fc9432"/><path d="M1200 726a6 6 0 0 1 6-6h248a6 6 0 0 1 6 6v148a6 6 0 0 1-6 6h-248a6 6 0 0 1-6-6z" stroke="#000" stroke-opacity="0" stroke-width="3" fill="#fff" fill-opacity="0"/><use xlink:href="#d" transform="matrix(1,0,0,1,1205,725) translate(12.78395061728395 29.576388888888893)"/><use xlink:href="#e" transform="matrix(1,0,0,1,1205,725) translate(176.72222222222223 29.576388888888893)"/><use xlink:href="#f" transform="matrix(1,0,0,1,1205,725) translate(0.5987654320987588 66.90972222222223)"/><use xlink:href="#g" transform="matrix(1,0,0,1,1205,725) translate(59.36419753086419 66.90972222222223)"/><use xlink:href="#h" transform="matrix(1,0,0,1,1205,725) translate(102.57407407407408 66.90972222222223)"/><use xlink:href="#i" transform="matrix(1,0,0,1,1205,725) translate(223.47530864197532 66.90972222222223)"/><use xlink:href="#j" transform="matrix(1,0,0,1,1205,725) translate(1.6358024691357969 104.24305555555557)"/><use xlink:href="#k" transform="matrix(1,0,0,1,1205,725) translate(117.0925925925926 104.24305555555557)"/><use xlink:href="#l" transform="matrix(1,0,0,1,1205,725) translate(17.839506172839492 141.5763888888889)"/><use xlink:href="#m" transform="matrix(1,0,0,1,1205,725) translate(52.4074074074074 141.5763888888889)"/><use xlink:href="#n" transform="matrix(1,0,0,1,1205,725) translate(104.25925925925927 141.5763888888889)"/><path d="M1122.48 819.77l2.87-.68m3.83-.9l5.74-1.36m3.82-.9l5.75-1.36m3.8-.9l5.75-1.35m3.83-.9l5.74-1.35m3.83-.9l5.74-1.36m3.82-.9l5.74-1.35m3.83-.9l5.73-1.36m3.83-.9l2.87-.67" stroke="#3a414a" stroke-width="2" fill="none"/><path d="M1122.73 820.7l-1.3.32.08-1.02-.07-.98.85-.2zM1200 802.5l-.78.2-.44-1.9 1.22-.3z" stroke="#3a414a" stroke-width=".05" fill="#3a414a"/><path d="M160 580a20 20 0 0 1 20-20h40a20 20 0 0 1 20 20v160a20 20 0 0 1-20 20h-40a20 20 0 0 1-20-20z" stroke="#000" stroke-width="3" fill="url(#o)"/><path d="M300 579a20 20 0 0 1 20-20h40a20 20 0 0 1 20 20v160a20 20 0 0 1-20 20h-40a20 20 0 0 1-20-20z" stroke="#000" stroke-width="3" fill="url(#p)"/><path d="M440 579a20 20 0 0 1 20-20h40a20 20 0 0 1 20 20v161a20 20 0 0 1-20 20h-40a20 20 0 0 1-20-20z" stroke="#000" stroke-width="3" fill="url(#q)"/><path d="M200 780v-17.5" stroke="#000" stroke-width="2" fill="none"/><path d="M200 795.26L195.37 781h9.26z" stroke="#000" stroke-width="2"/><path d="M200.97 762.53h-1.94v-1.03h1.94z" stroke="#000" stroke-width=".05"/><path d="M340 761.5V780" stroke="#000" stroke-width="2" fill="none"/><path d="M340.98 761.53h-1.96v-1.03h1.96z" stroke="#000" stroke-width=".05"/><path d="M340 795.26L335.37 781h9.26z" stroke="#000" stroke-width="2"/><path d="M160 820a20 20 0 0 1 20-20h320a20 20 0 0 1 20 20v40a20 20 0 0 1-20 20H180a20 20 0 0 1-20-20z" stroke="#000" stroke-width="3" fill="#ced4db"/><use xlink:href="#a" transform="matrix(1,0,0,1,165.00000000000023,805) translate(2.629629629629676 41.02083333333333)"/><use xlink:href="#b" transform="matrix(1,0,0,1,165.00000000000023,805) translate(95.88888888888893 41.02083333333333)"/><use xlink:href="#r" transform="matrix(1,0,0,1,165.00000000000023,805) translate(224.7037037037037 41.02083333333333)"/><use xlink:href="#s" transform="matrix(1,0,0,1,165.00000000000023,805) translate(258.6296296296296 41.02083333333333)"/><path d="M480 762.5V780" stroke="#000" stroke-width="2" fill="none"/><path d="M480.98 762.53h-1.96v-1.03h1.96z" stroke="#000" stroke-width=".05"/><path d="M480 795.26L475.37 781h9.26z" stroke="#000" stroke-width="2"/><path d="M284.34 662h-28.68M284.34 658h-28.68M279.18 650l17.32 10-17.32 10m17.32-10H288M260.82 670l-17.32-10 17.32-10m-17.32 10h8.5M424.34 662h-28.68M424.34 658h-28.68M419.18 650l17.32 10-17.32 10m17.32-10H428M400.82 670l-17.32-10 17.32-10m-17.32 10h8.5" stroke="#000" stroke-width="2" fill="none"/><path d="M760 580a20 20 0 0 1 20-20h40a20 20 0 0 1 20 20v160a20 20 0 0 1-20 20h-40a20 20 0 0 1-20-20z" stroke="#000" stroke-width="3" fill="url(#t)"/><path d="M900 579a20 20 0 0 1 20-20h40a20 20 0 0 1 20 20v160a20 20 0 0 1-20 20h-40a20 20 0 0 1-20-20z" stroke="#000" stroke-width="3" fill="url(#u)"/><path d="M1040 579a20 20 0 0 1 20-20h40a20 20 0 0 1 20 20v161a20 20 0 0 1-20 20h-40a20 20 0 0 1-20-20z" stroke="#000" stroke-width="3" fill="url(#v)"/><path d="M778.5 821.5v-59.1" stroke="#008a0e" stroke-width="2" fill="none"/><path d="M778.5 836.76l-4.64-14.26h9.27z" stroke="#008a0e" stroke-width="2" fill="#008a0e"/><path d="M779.47 761.46v.95h-1.95v-1.1z" stroke="#008a0e" stroke-width=".05" fill="#008a0e"/><path d="M940 761.5V800" stroke="#82755b" stroke-width="2" fill="none"/><path d="M940.98 761.53H939v-1.03H941z" stroke="#82755b" stroke-width=".05" fill="#82755b"/><path d="M940 815.26L935.37 801h9.26z" stroke="#82755b" stroke-width="2" fill="#82755b"/><path d="M780 840a20 20 0 0 1 20-20h280a20 20 0 0 1 20 20 20 20 0 0 1-20 20H800a20 20 0 0 1-20-20z" stroke="#82755b" stroke-width="3" fill="#ced4db"/><use xlink:href="#a" transform="matrix(1,0,0,1,785,825) translate(18.81981481481484 23.208333333333332)"/><use xlink:href="#b" transform="matrix(1,0,0,1,785,825) translate(112.0790740740741 23.208333333333332)"/><use xlink:href="#w" transform="matrix(1,0,0,1,785,825) translate(240.89388888888888 23.208333333333332)"/><path d="M1080 762.5V800" stroke="#82755b" stroke-width="2" fill="none"/><path d="M1080.97 762.53h-1.94v-1.03h1.94z" stroke="#82755b" stroke-width=".05" fill="#82755b"/><path d="M1080 815.26l-4.63-14.26h9.27z" stroke="#82755b" stroke-width="2" fill="#82755b"/><path d="M884.34 662h-28.68M884.34 658h-28.68M879.18 650l17.32 10-17.32 10m17.32-10H888M860.82 670l-17.32-10 17.32-10m-17.32 10h8.5M1024.34 662h-28.68M1024.34 658h-28.68M1019.18 650l17.32 10-17.32 10m17.32-10h-8.5M1000.82 670l-17.32-10 17.32-10m-17.32 10h8.5" stroke="#000" stroke-width="2" fill="none"/><path d="M760 860a20 20 0 0 1 20-20h280a20 20 0 0 1 20 20 20 20 0 0 1-20 20H780a20 20 0 0 1-20-20z" stroke="#008a0e" stroke-width="3" fill="#ced4db"/><use xlink:href="#a" transform="matrix(1,0,0,1,765.0000000000002,845) translate(22.560555555555574 23.208333333333332)"/><use xlink:href="#b" transform="matrix(1,0,0,1,765.0000000000002,845) translate(115.81981481481483 23.208333333333332)"/><use xlink:href="#x" transform="matrix(1,0,0,1,765.0000000000002,845) translate(244.63462962962961 23.208333333333332)"/><path d="M800 800v-39" stroke="#82755b" stroke-width="2" fill="none"/><path d="M800 815.26L795.36 801h9.27z" stroke="#82755b" stroke-width="2" fill="#82755b"/><path d="M800 761.03V760" stroke="#82755b" stroke-width="2" fill="none"/><path d="M820 780v-17.5" stroke="#1071e5" stroke-width="2" fill="none"/><path d="M820 795.26L815.36 781h9.27z" stroke="#1071e5" stroke-width="2" fill="#1071e5"/><path d="M820.98 762.53H819v-1.03h1.04l.92-.07z" stroke="#1071e5" stroke-width=".05" fill="#1071e5"/><path d="M963.53 780v-18.8" stroke="#1071e5" stroke-width="2" fill="none"/><path d="M963.53 795.26L958.9 781h9.27z" stroke="#1071e5" stroke-width="2" fill="#1071e5"/><path d="M964.5 761.23h-1.94v-.93l.8-.06 1.15-.27z" stroke="#1071e5" stroke-width=".05" fill="#1071e5"/><path d="M1099.33 780v-17.5" stroke="#1071e5" stroke-width="2" fill="none"/><path d="M1099.33 795.26L1094.7 781h9.27z" stroke="#1071e5" stroke-width="2" fill="#1071e5"/><path d="M1100.3 762.53h-1.94v-1.03h1.7l.25-.02z" stroke="#1071e5" stroke-width=".05" fill="#1071e5"/><path d="M918.4 820v-58.62" stroke="#008a0e" stroke-width="2" fill="none"/><path d="M918.4 835.26L913.75 821H923z" stroke="#008a0e" stroke-width="2" fill="#008a0e"/><path d="M919.37 760.46v.94h-1.96v-1.1z" stroke="#008a0e" stroke-width=".05" fill="#008a0e"/><path d="M1059.43 823v-60.54" stroke="#008a0e" stroke-width="2" fill="none"/><path d="M1059.43 838.26L1054.8 824h9.26z" stroke="#008a0e" stroke-width="2" fill="#008a0e"/><path d="M1059.94 761.5h.46v1h-1.95v-1.12z" stroke="#008a0e" stroke-width=".05" fill="#008a0e"/><path d="M1102.43 839.62l2.9-1.17m3.87-1.57l5.8-2.36m3.86-1.57l5.8-2.35m3.87-1.57l5.8-2.36m3.86-1.57l5.8-2.35m3.85-1.57l5.8-2.36m3.87-1.57l5.8-2.35m3.86-1.57l5.8-2.36m3.87-1.57l5.8-2.35m3.86-1.57l5.8-2.36m3.87-1.57l2.9-1.17" stroke="#3a414a" stroke-width="2" fill="none"/><path d="M1102.82 840.52l-1.4.57.1-1.1-.1-1.02.67-.27zM1200 801.05l-.58.24-.74-1.82 1.32-.53z" stroke="#3a414a" stroke-width=".05" fill="#3a414a"/><path d="M1082.4 859.55l2.7-1.37m3.58-1.8l5.4-2.74m3.58-1.82l5.4-2.73m3.58-1.83l5.38-2.72m3.6-1.82L1121 840m3.6-1.82l5.38-2.72m3.6-1.82l5.38-2.73m3.6-1.8l5.38-2.74m3.6-1.82l5.37-2.72m3.6-1.82l5.4-2.73m3.58-1.82l5.4-2.72m3.58-1.82l5.4-2.72m3.58-1.82l5.38-2.73m3.6-1.8l2.7-1.38" stroke="#3a414a" stroke-width="2" fill="none"/><path d="M1082.86 860.4l-1.44.74.1-1.14-.1-1.05.56-.28zM1200 801.1l-.47.23-.88-1.74 1.35-.7z" stroke="#3a414a" stroke-width=".05" fill="#3a414a"/><defs><path d="M185-189c-5-48-123-54-124 2 14 75 158 14 163 119 3 78-121 87-175 55-17-10-28-26-33-46l33-7c5 56 141 63 141-1 0-78-155-14-162-118-5-82 145-84 179-34 5 7 8 16 11 25" id="y"/><path d="M106-169C34-169 62-67 57 0H25v-261h32l-1 103c12-21 28-36 61-36 89 0 53 116 60 194h-32v-121c2-32-8-49-39-48" id="z"/><path d="M141-36C126-15 110 5 73 4 37 3 15-17 15-53c-1-64 63-63 125-63 3-35-9-54-41-54-24 1-41 7-42 31l-33-3c5-37 33-52 76-52 45 0 72 20 72 64v82c-1 20 7 32 28 27v20c-31 9-61-2-59-35zM48-53c0 20 12 33 32 33 41-3 63-29 60-74-43 2-92-5-92 41" id="A"/><path d="M114-163C36-179 61-72 57 0H25l-1-190h30c1 12-1 29 2 39 6-27 23-49 58-41v29" id="B"/><path d="M100-194c63 0 86 42 84 106H49c0 40 14 67 53 68 26 1 43-12 49-29l28 8c-11 28-37 45-77 45C44 4 14-33 15-96c1-61 26-98 85-98zm52 81c6-60-76-77-97-28-3 7-6 17-6 28h103" id="C"/><path d="M85-194c31 0 48 13 60 33l-1-100h32l1 261h-30c-2-10 0-23-3-31C134-8 116 4 85 4 32 4 16-35 15-94c0-66 23-100 70-100zm9 24c-40 0-46 34-46 75 0 40 6 74 45 74 42 0 51-32 51-76 0-42-9-74-50-73" id="D"/><g id="a"><use transform="matrix(0.07407407407407407,0,0,0.07407407407407407,0,0)" xlink:href="#y"/><use transform="matrix(0.07407407407407407,0,0,0.07407407407407407,17.77777777777778,0)" xlink:href="#z"/><use transform="matrix(0.07407407407407407,0,0,0.07407407407407407,32.592592592592595,0)" xlink:href="#A"/><use transform="matrix(0.07407407407407407,0,0,0.07407407407407407,47.407407407407405,0)" xlink:href="#B"/><use transform="matrix(0.07407407407407407,0,0,0.07407407407407407,56.22222222222222,0)" xlink:href="#C"/><use transform="matrix(0.07407407407407407,0,0,0.07407407407407407,71.03703703703704,0)" xlink:href="#D"/></g><path d="M30-248c118-7 216 8 213 122C240-48 200 0 122 0H30v-248zM63-27c89 8 146-16 146-99s-60-101-146-95v194" id="E"/><path d="M59-47c-2 24 18 29 38 22v24C64 9 27 4 27-40v-127H5v-23h24l9-43h21v43h35v23H59v120" id="F"/><path d="M115-194c53 0 69 39 70 98 0 66-23 100-70 100C84 3 66-7 56-30L54 0H23l1-261h32v101c10-23 28-34 59-34zm-8 174c40 0 45-34 45-75 0-40-5-75-45-74-42 0-51 32-51 76 0 43 10 73 51 73" id="G"/><path d="M135-143c-3-34-86-38-87 0 15 53 115 12 119 90S17 21 10-45l28-5c4 36 97 45 98 0-10-56-113-15-118-90-4-57 82-63 122-42 12 7 21 19 24 35" id="H"/><path d="M33-154v-36h34v36H33zM33 0v-36h34V0H33" id="I"/><g id="b"><use transform="matrix(0.07407407407407407,0,0,0.07407407407407407,0,0)" xlink:href="#E"/><use transform="matrix(0.07407407407407407,0,0,0.07407407407407407,19.185185185185183,0)" xlink:href="#A"/><use transform="matrix(0.07407407407407407,0,0,0.07407407407407407,34,0)" xlink:href="#F"/><use transform="matrix(0.07407407407407407,0,0,0.07407407407407407,41.407407407407405,0)" xlink:href="#A"/><use transform="matrix(0.07407407407407407,0,0,0.07407407407407407,56.22222222222221,0)" xlink:href="#G"/><use transform="matrix(0.07407407407407407,0,0,0.07407407407407407,71.03703703703702,0)" xlink:href="#A"/><use transform="matrix(0.07407407407407407,0,0,0.07407407407407407,85.85185185185183,0)" xlink:href="#H"/><use transform="matrix(0.07407407407407407,0,0,0.07407407407407407,99.18518518518516,0)" xlink:href="#C"/><use transform="matrix(0.07407407407407407,0,0,0.07407407407407407,113.99999999999997,0)" xlink:href="#I"/></g><path d="M233-177c-1 41-23 64-60 70L243 0h-38l-65-103H63V0H30v-248c88 3 205-21 203 71zM63-129c60-2 137 13 137-47 0-61-80-42-137-45v92" id="J"/><path d="M16-82v-28h88v28H16" id="K"/><path d="M209 0H11v-25l151-195H24v-28h176v25L50-27h159V0" id="L"/><g id="c"><use transform="matrix(0.07407407407407407,0,0,0.07407407407407407,0,0)" xlink:href="#J"/><use transform="matrix(0.07407407407407407,0,0,0.07407407407407407,19.185185185185183,0)" xlink:href="#K"/><use transform="matrix(0.07407407407407407,0,0,0.07407407407407407,28,0)" xlink:href="#L"/></g><path d="M100-194c62-1 85 37 85 99 1 63-27 99-86 99S16-35 15-95c0-66 28-99 85-99zM99-20c44 1 53-31 53-75 0-43-8-75-51-75s-53 32-53 75 10 74 51 75" id="M"/><path d="M210-169c-67 3-38 105-44 169h-31v-121c0-29-5-50-35-48C34-165 62-65 56 0H25l-1-190h30c1 10-1 24 2 32 10-44 99-50 107 0 11-21 27-35 58-36 85-2 47 119 55 194h-31v-121c0-29-5-49-35-48" id="N"/><path d="M24-231v-30h32v30H24zM24 0v-190h32V0H24" id="O"/><g id="d"><use transform="matrix(0.08641975308641976,0,0,0.08641975308641976,0,0)" xlink:href="#y"/><use transform="matrix(0.08641975308641976,0,0,0.08641975308641976,20.740740740740744,0)" xlink:href="#M"/><use transform="matrix(0.08641975308641976,0,0,0.08641975308641976,38.0246913580247,0)" xlink:href="#N"/><use transform="matrix(0.08641975308641976,0,0,0.08641975308641976,63.8641975308642,0)" xlink:href="#C"/><use transform="matrix(0.08641975308641976,0,0,0.08641975308641976,81.14814814814815,0)" xlink:href="#F"/><use transform="matrix(0.08641975308641976,0,0,0.08641975308641976,89.79012345679013,0)" xlink:href="#O"/><use transform="matrix(0.08641975308641976,0,0,0.08641975308641976,96.61728395061729,0)" xlink:href="#N"/><use transform="matrix(0.08641975308641976,0,0,0.08641975308641976,122.4567901234568,0)" xlink:href="#C"/><use transform="matrix(0.08641975308641976,0,0,0.08641975308641976,139.74074074074076,0)" xlink:href="#H"/></g><g id="e"><use transform="matrix(0.08641975308641976,0,0,0.08641975308641976,0,0)" xlink:href="#D"/><use transform="matrix(0.08641975308641976,0,0,0.08641975308641976,17.283950617283953,0)" xlink:href="#A"/><use transform="matrix(0.08641975308641976,0,0,0.08641975308641976,34.567901234567906,0)" xlink:href="#F"/><use transform="matrix(0.08641975308641976,0,0,0.08641975308641976,43.20987654320988,0)" xlink:href="#A"/></g><path d="M96-169c-40 0-48 33-48 73s9 75 48 75c24 0 41-14 43-38l32 2c-6 37-31 61-74 61-59 0-76-41-82-99-10-93 101-131 147-64 4 7 5 14 7 22l-32 3c-4-21-16-35-41-35" id="P"/><path d="M117-194c89-4 53 116 60 194h-32v-121c0-31-8-49-39-48C34-167 62-67 57 0H25l-1-190h30c1 10-1 24 2 32 11-22 29-35 61-36" id="Q"/><g id="f"><use transform="matrix(0.08641975308641976,0,0,0.08641975308641976,0,0)" xlink:href="#P"/><use transform="matrix(0.08641975308641976,0,0,0.08641975308641976,15.555555555555557,0)" xlink:href="#A"/><use transform="matrix(0.08641975308641976,0,0,0.08641975308641976,32.839506172839506,0)" xlink:href="#Q"/></g><g id="g"><use transform="matrix(0.08641975308641976,0,0,0.08641975308641976,0,0)" xlink:href="#G"/><use transform="matrix(0.08641975308641976,0,0,0.08641975308641976,17.283950617283953,0)" xlink:href="#C"/></g><g id="h"><use transform="matrix(0.08641975308641976,0,0,0.08641975308641976,0,0)" xlink:href="#H"/><use transform="matrix(0.08641975308641976,0,0,0.08641975308641976,15.555555555555557,0)" xlink:href="#z"/><use transform="matrix(0.08641975308641976,0,0,0.08641975308641976,32.839506172839506,0)" xlink:href="#A"/><use transform="matrix(0.08641975308641976,0,0,0.08641975308641976,50.123456790123456,0)" xlink:href="#B"/><use transform="matrix(0.08641975308641976,0,0,0.08641975308641976,60.407407407407405,0)" xlink:href="#D"/><use transform="matrix(0.08641975308641976,0,0,0.08641975308641976,77.69135802469135,0)" xlink:href="#C"/><use transform="matrix(0.08641975308641976,0,0,0.08641975308641976,94.9753086419753,0)" xlink:href="#D"/></g><g id="i"><use transform="matrix(0.08641975308641976,0,0,0.08641975308641976,0,0)" xlink:href="#F"/><use transform="matrix(0.08641975308641976,0,0,0.08641975308641976,8.641975308641976,0)" xlink:href="#M"/></g><path d="M84 4C-5 8 30-112 23-190h32v120c0 31 7 50 39 49 72-2 45-101 50-169h31l1 190h-30c-1-10 1-25-2-33-11 22-28 36-60 37" id="R"/><path d="M24 0v-261h32V0H24" id="S"/><path d="M115-194c55 1 70 41 70 98S169 2 115 4C84 4 66-9 55-30l1 105H24l-1-265h31l2 30c10-21 28-34 59-34zm-8 174c40 0 45-34 45-75s-6-73-45-74c-42 0-51 32-51 76 0 43 10 73 51 73" id="T"/><g id="j"><use transform="matrix(0.08641975308641976,0,0,0.08641975308641976,0,0)" xlink:href="#N"/><use transform="matrix(0.08641975308641976,0,0,0.08641975308641976,25.83950617283951,0)" xlink:href="#R"/><use transform="matrix(0.08641975308641976,0,0,0.08641975308641976,43.12345679012346,0)" xlink:href="#S"/><use transform="matrix(0.08641975308641976,0,0,0.08641975308641976,49.95061728395062,0)" xlink:href="#F"/><use transform="matrix(0.08641975308641976,0,0,0.08641975308641976,58.592592592592595,0)" xlink:href="#O"/><use transform="matrix(0.08641975308641976,0,0,0.08641975308641976,65.41975308641976,0)" xlink:href="#T"/><use transform="matrix(0.08641975308641976,0,0,0.08641975308641976,82.70370370370371,0)" xlink:href="#S"/><use transform="matrix(0.08641975308641976,0,0,0.08641975308641976,89.53086419753087,0)" xlink:href="#C"/></g><g id="k"><use transform="matrix(0.08641975308641976,0,0,0.08641975308641976,0,0)" xlink:href="#O"/><use transform="matrix(0.08641975308641976,0,0,0.08641975308641976,6.8271604938271615,0)" xlink:href="#Q"/><use transform="matrix(0.08641975308641976,0,0,0.08641975308641976,24.111111111111114,0)" xlink:href="#H"/><use transform="matrix(0.08641975308641976,0,0,0.08641975308641976,39.66666666666667,0)" xlink:href="#F"/><use transform="matrix(0.08641975308641976,0,0,0.08641975308641976,48.308641975308646,0)" xlink:href="#A"/><use transform="matrix(0.08641975308641976,0,0,0.08641975308641976,65.5925925925926,0)" xlink:href="#Q"/><use transform="matrix(0.08641975308641976,0,0,0.08641975308641976,82.87654320987654,0)" xlink:href="#P"/><use transform="matrix(0.08641975308641976,0,0,0.08641975308641976,98.43209876543212,0)" xlink:href="#C"/><use transform="matrix(0.08641975308641976,0,0,0.08641975308641976,115.71604938271604,0)" xlink:href="#H"/></g><path d="M101-234c-31-9-42 10-38 44h38v23H63V0H32v-167H5v-23h27c-7-52 17-82 69-68v24" id="U"/><g id="l"><use transform="matrix(0.08641975308641976,0,0,0.08641975308641976,0,0)" xlink:href="#M"/><use transform="matrix(0.08641975308641976,0,0,0.08641975308641976,17.283950617283953,0)" xlink:href="#U"/></g><g id="m"><use transform="matrix(0.08641975308641976,0,0,0.08641975308641976,0,0)" xlink:href="#F"/><use transform="matrix(0.08641975308641976,0,0,0.08641975308641976,8.641975308641976,0)" xlink:href="#z"/><use transform="matrix(0.08641975308641976,0,0,0.08641975308641976,25.925925925925927,0)" xlink:href="#C"/></g><g id="n"><use transform="matrix(0.08641975308641976,0,0,0.08641975308641976,0,0)" xlink:href="#D"/><use transform="matrix(0.08641975308641976,0,0,0.08641975308641976,17.283950617283953,0)" xlink:href="#A"/><use transform="matrix(0.08641975308641976,0,0,0.08641975308641976,34.567901234567906,0)" xlink:href="#F"/><use transform="matrix(0.08641975308641976,0,0,0.08641975308641976,43.20987654320988,0)" xlink:href="#A"/><use transform="matrix(0.08641975308641976,0,0,0.08641975308641976,60.49382716049384,0)" xlink:href="#G"/><use transform="matrix(0.08641975308641976,0,0,0.08641975308641976,77.77777777777779,0)" xlink:href="#A"/><use transform="matrix(0.08641975308641976,0,0,0.08641975308641976,95.06172839506173,0)" xlink:href="#H"/><use transform="matrix(0.08641975308641976,0,0,0.08641975308641976,110.61728395061729,0)" xlink:href="#C"/></g><linearGradient gradientUnits="userSpaceOnUse" id="o" x1="160" y1="760" x2="160" y2="560"><stop offset="19.93%" stop-color="#fff"/><stop offset="27.17%" stop-color="#cfe4ff"/><stop offset="63.41%" stop-color="#cfe4ff"/><stop offset="79.71%" stop-color="#c3f7c8"/></linearGradient><linearGradient gradientUnits="userSpaceOnUse" id="p" x1="300" y1="759" x2="300" y2="559"><stop offset="19.93%" stop-color="#fff"/><stop offset="27.17%" stop-color="#cfe4ff"/><stop offset="63.41%" stop-color="#cfe4ff"/><stop offset="79.71%" stop-color="#c3f7c8"/></linearGradient><linearGradient gradientUnits="userSpaceOnUse" id="q" x1="440" y1="760" x2="440" y2="559"><stop offset="19.93%" stop-color="#fff"/><stop offset="27.17%" stop-color="#cfe4ff"/><stop offset="63.41%" stop-color="#cfe4ff"/><stop offset="79.71%" stop-color="#c3f7c8"/></linearGradient><g id="r"><use transform="matrix(0.07407407407407407,0,0,0.07407407407407407,0,0)" xlink:href="#A"/><use transform="matrix(0.07407407407407407,0,0,0.07407407407407407,14.814814814814813,0)" xlink:href="#S"/><use transform="matrix(0.07407407407407407,0,0,0.07407407407407407,20.666666666666664,0)" xlink:href="#S"/></g><g id="s"><use transform="matrix(0.07407407407407407,0,0,0.07407407407407407,0,0)" xlink:href="#B"/><use transform="matrix(0.07407407407407407,0,0,0.07407407407407407,8.814814814814815,0)" xlink:href="#C"/><use transform="matrix(0.07407407407407407,0,0,0.07407407407407407,23.629629629629623,0)" xlink:href="#P"/><use transform="matrix(0.07407407407407407,0,0,0.07407407407407407,36.96296296296296,0)" xlink:href="#M"/><use transform="matrix(0.07407407407407407,0,0,0.07407407407407407,51.77777777777777,0)" xlink:href="#B"/><use transform="matrix(0.07407407407407407,0,0,0.07407407407407407,60.59259259259259,0)" xlink:href="#D"/><use transform="matrix(0.07407407407407407,0,0,0.07407407407407407,75.4074074074074,0)" xlink:href="#H"/></g><linearGradient gradientUnits="userSpaceOnUse" id="t" x1="760" y1="760" x2="760" y2="560"><stop offset="19.93%" stop-color="#fff"/><stop offset="27.17%" stop-color="#cfe4ff"/><stop offset="63.41%" stop-color="#cfe4ff"/><stop offset="79.71%" stop-color="#c3f7c8"/></linearGradient><linearGradient gradientUnits="userSpaceOnUse" id="u" x1="900" y1="759" x2="900" y2="559"><stop offset="19.93%" stop-color="#fff"/><stop offset="27.17%" stop-color="#cfe4ff"/><stop offset="63.41%" stop-color="#cfe4ff"/><stop offset="79.71%" stop-color="#c3f7c8"/></linearGradient><linearGradient gradientUnits="userSpaceOnUse" id="v" x1="1040" y1="760" x2="1040" y2="559"><stop offset="19.93%" stop-color="#fff"/><stop offset="27.17%" stop-color="#cfe4ff"/><stop offset="63.41%" stop-color="#cfe4ff"/><stop offset="79.71%" stop-color="#c3f7c8"/></linearGradient><path d="M143 4C61 4 22-44 18-125c-5-107 100-154 193-111 17 8 29 25 37 43l-32 9c-13-25-37-40-76-40-61 0-88 39-88 99 0 61 29 100 91 101 35 0 62-11 79-27v-45h-74v-28h105v86C228-13 192 4 143 4" id="V"/><path d="M140-251c81 0 123 46 123 126C263-53 228-8 163 1c7 30 30 48 69 40v23c-55 16-95-15-103-61C56-3 17-48 17-125c0-80 42-126 123-126zm0 227c63 0 89-41 89-101s-29-99-89-99c-61 0-89 39-89 99S79-25 140-24" id="W"/><g id="w"><use transform="matrix(0.07407407407407407,0,0,0.07407407407407407,0,0)" xlink:href="#V"/><use transform="matrix(0.07407407407407407,0,0,0.07407407407407407,20.74074074074074,0)" xlink:href="#K"/><use transform="matrix(0.07407407407407407,0,0,0.07407407407407407,29.555555555555557,0)" xlink:href="#W"/></g><path d="M205 0l-28-72H64L36 0H1l101-248h38L239 0h-34zm-38-99l-47-123c-12 45-31 82-46 123h93" id="X"/><path d="M63-220v92h138v28H63V0H30v-248h175v28H63" id="Y"/><g id="x"><use transform="matrix(0.07407407407407407,0,0,0.07407407407407407,0,0)" xlink:href="#X"/><use transform="matrix(0.07407407407407407,0,0,0.07407407407407407,17.77777777777778,0)" xlink:href="#K"/><use transform="matrix(0.07407407407407407,0,0,0.07407407407407407,26.592592592592595,0)" xlink:href="#Y"/></g></defs></g></svg>