<svg xmlns="http://www.w3.org/2000/svg" xmlns:xlink="http://www.w3.org/1999/xlink" xmlns:lucid="lucid" width="1045.5" height="244.5"><g transform="translate(-275.99992499999956 -557.0000249999997)" lucid:page-tab-id="0_0"><path d="M600 666a6 6 0 0 1 6-6h42a6 6 0 0 0 6-6v-8a2.3 2.3 0 0 1 4-1.54l28 31.08a6.67 6.67 0 0 1 0 8.92l-28 31.08a2.3 2.3 0 0 1-4-1.54v-8a6 6 0 0 0-6-6h-42a6 6 0 0 1-6-6z" fill="#fc9432"/><path d="M1080 564.5a6 6 0 0 1 6-6h228a6 6 0 0 1 6 6v126a6 6 0 0 1-6 6h-228a6 6 0 0 1-6-6z" stroke="#000" stroke-opacity="0" stroke-width="3" fill="#fff" fill-opacity="0"/><use xlink:href="#a" transform="matrix(1,0,0,1,1085,563.5000249999997) translate(14.407407407407419 25.333333333333332)"/><use xlink:href="#b" transform="matrix(1,0,0,1,1085,563.5000249999997) translate(67.66666666666667 25.333333333333332)"/><use xlink:href="#c" transform="matrix(1,0,0,1,1085,563.5000249999997) translate(56.55555555555557 57.33333333333333)"/><use xlink:href="#d" transform="matrix(1,0,0,1,1085,563.5000249999997) translate(6.296296296296305 89.33333333333333)"/><use xlink:href="#e" transform="matrix(1,0,0,1,1085,563.5000249999997) translate(145.25925925925927 89.33333333333333)"/><use xlink:href="#f" transform="matrix(1,0,0,1,1085,563.5000249999997) translate(7.7777777777778 121.33333333333333)"/><use xlink:href="#g" transform="matrix(1,0,0,1,1085,563.5000249999997) translate(43.33333333333335 121.33333333333333)"/><use xlink:href="#h" transform="matrix(1,0,0,1,1085,563.5000249999997) translate(142.29629629629628 121.33333333333333)"/><path d="M1002.35 580.02l2.56 1.57m3.43 2.07l5.12 3.13m3.4 2.1L1022 592m3.4 2.1l5.13 3.12m3.42 2.1l5.12 3.12m3.42 2.08l5.12 3.13m3.4 2.1l5.13 3.12m3.42 2.08l5.12 3.13m3.4 2.1l5.13 3.13m3.42 2.08l2.55 1.58" stroke="#3a414a" stroke-width="2" fill="none"/><path d="M1002.88 579.2l-1 1.67-.4-.23.02-.08v-2.22zM1080 626.36v2.28l-1.38-.84 1-1.67z" stroke="#3a414a" stroke-width=".05" fill="#3a414a"/><path d="M800 658.5a20 20 0 0 1 20-20h160a20 20 0 0 1 20 20v80a20 20 0 0 1-20 20H820a20 20 0 0 1-20-20z" stroke="#1071e5" stroke-width="3" fill="url(#i)"/><path d="M780 678.5a20 20 0 0 1 20-20h160a20 20 0 0 1 20 20v80a20 20 0 0 1-20 20H800a20 20 0 0 1-20-20z" stroke="#82755b" stroke-width="3" fill="url(#j)"/><path d="M760 698.5a20 20 0 0 1 20-20h160a20 20 0 0 1 20 20v80a20 20 0 0 1-20 20H780a20 20 0 0 1-20-20z" stroke="#008a0e" stroke-width="3" fill="url(#k)"/><use xlink:href="#l" transform="matrix(1,0,0,1,765,683.5000249999999) translate(35.14814814814816 59.14583333333333)"/><use xlink:href="#m" transform="matrix(1,0,0,1,765,683.5000249999999) translate(112.03703703703704 59.14583333333333)"/><path d="M879.74 602.97l-14.97 56.15" stroke="#008a0e" stroke-width="2" fill="none"/><path d="M880.68 603.24l-1.9-.5.2-.74h2.03z" stroke="#008a0e" stroke-width=".05" fill="#008a0e"/><path d="M860.83 673.87l-.8-14.98 8.96 2.38z" stroke="#008a0e" stroke-width="2" fill="#008a0e"/><path d="M880 603v35.5" stroke="#82755b" stroke-width="2" fill="none"/><path d="M880.98 603.03H879V602H881z" stroke="#82755b" stroke-width=".05" fill="#82755b"/><path d="M880 653.76l-4.63-14.26h9.26z" stroke="#82755b" stroke-width="2" fill="#82755b"/><path d="M880.5 602.87l10.32 18.07" stroke="#1071e5" stroke-width="2" fill="none"/><path d="M881.36 602.4l-1.7.97-.78-1.37h2.24z" stroke="#1071e5" stroke-width=".05" fill="#1071e5"/><path d="M898.4 634.2l-11.1-10.1 8.04-4.6z" stroke="#1071e5" stroke-width="2" fill="#1071e5"/><path d="M760 578.5a20 20 0 0 1 20-20h200a20 20 0 0 1 20 20v2a20 20 0 0 1-20 20H780a20 20 0 0 1-20-20z" stroke="#000" stroke-width="3" fill="#c3f7c8"/><use xlink:href="#n" transform="matrix(1,0,0,1,765,563.5000249999997) translate(41.042037037037055 23.33333333333333)"/><path d="M321.5 580a20 20 0 0 1 20-20h160a20 20 0 0 1 20 20v160a20 20 0 0 1-20 20h-160a20 20 0 0 1-20-20z" stroke="#1071e5" stroke-width="3" fill="url(#o)"/><path d="M522 598.5h-9.48m-9.47 0H484.1m-9.48 0h-18.95m-9.48 0h-18.96m-9.48 0H398.8m-9.47 0h-18.95m-9.48 0h-18.95m-9.47 0H323" stroke="#fc9432" stroke-width="2" fill="none"/><path d="M523 597.52v1.96h-1.03v-1.96zM323.03 597.52v.98H319v-.98z" stroke="#fc9432" stroke-width=".05" fill="#fc9432"/><path d="M301.5 600a20 20 0 0 1 20-20h160a20 20 0 0 1 20 20v160a20 20 0 0 1-20 20h-160a20 20 0 0 1-20-20z" stroke="#82755b" stroke-width="3" fill="url(#p)"/><path d="M502 620h-9.57m-9.57 0H463.7m-9.56 0H435m-9.57 0H406.3m-9.6 0h-19.13m-9.57 0h-19.14m-9.57 0h-19.16m-9.57 0H301" stroke="#fc9432" stroke-width="2" fill="none"/><path d="M503 620.98h-1.03V619H503zM301.03 620.98H300V619h1.03z" stroke="#fc9432" stroke-width=".05" fill="#fc9432"/><path d="M281.5 620a20 20 0 0 1 20-20h160a20 20 0 0 1 20 20v160a20 20 0 0 1-20 20h-160a20 20 0 0 1-20-20z" stroke="#008a0e" stroke-width="3" fill="url(#q)"/><use xlink:href="#r" transform="matrix(1,0,0,1,286.4999249999995,605) translate(35.14814814814815 98.52083333333333)"/><use xlink:href="#s" transform="matrix(1,0,0,1,286.4999249999995,605) translate(112.03703703703704 98.52083333333333)"/><path d="M537.16 721.75H557a8 8 0 0 1 8 8v8a8 8 0 0 1-8 8h-39.84" stroke="#000" stroke-width="2" fill="none"/><path d="M537.16 725.75H557a4 4 0 0 1 4 4v8a4 4 0 0 1-4 4h-39.84" stroke="#000" stroke-width="2" fill="none"/><path d="M542.32 733.75l-17.32-10 17.32-10m-17.32 10h8.5M522.32 753.75l-17.32-10 17.32-10m-17.32 10h8.5" stroke="#000" stroke-width="2" fill="none"/><path d="M497.16 761.75H557a4 4 0 0 0 4-4v-28a4 4 0 0 0-4-4h-19.84" stroke="#000" stroke-width="2" fill="none"/><path d="M497.16 765.75H557a8 8 0 0 0 8-8v-28a8 8 0 0 0-8-8h-19.84" stroke="#000" stroke-width="2" fill="none"/><path d="M502.32 773.75l-17.32-10 17.32-10m-17.32 10h8.5M542.32 733.75l-17.32-10 17.32-10m-17.32 10h8.5" stroke="#000" stroke-width="2" fill="none"/><path d="M517.16 741.75H537a8 8 0 0 1 8 8v8a8 8 0 0 1-8 8h-39.84" stroke="#000" stroke-width="2" fill="none"/><path d="M517.16 745.75H537a4 4 0 0 1 4 4v8a4 4 0 0 1-4 4h-39.84" stroke="#000" stroke-width="2" fill="none"/><path d="M522.32 753.75l-17.32-10 17.32-10m-17.32 10h8.5M502.32 773.75l-17.32-10 17.32-10m-17.32 10h8.5" stroke="#000" stroke-width="2" fill="none"/><path d="M482 640h-9.57m-9.57 0H443.7m-9.56 0H415m-9.57 0H386.3m-9.6 0h-19.13m-9.57 0h-19.14m-9.57 0h-19.16m-9.57 0H281" stroke="#fc9432" stroke-width="2" fill="none"/><path d="M483 640.98h-1.03V639H483zM281.03 640.98H280V639h1.03z" stroke="#fc9432" stroke-width=".05" fill="#fc9432"/><defs><path d="M127-220V0H93v-220H8v-28h204v28h-85" id="t"/><path d="M106-169C34-169 62-67 57 0H25v-261h32l-1 103c12-21 28-36 61-36 89 0 53 116 60 194h-32v-121c2-32-8-49-39-48" id="u"/><path d="M100-194c63 0 86 42 84 106H49c0 40 14 67 53 68 26 1 43-12 49-29l28 8c-11 28-37 45-77 45C44 4 14-33 15-96c1-61 26-98 85-98zm52 81c6-60-76-77-97-28-3 7-6 17-6 28h103" id="v"/><g id="a"><use transform="matrix(0.07407407407407407,0,0,0.07407407407407407,0,0)" xlink:href="#t"/><use transform="matrix(0.07407407407407407,0,0,0.07407407407407407,16.22222222222222,0)" xlink:href="#u"/><use transform="matrix(0.07407407407407407,0,0,0.07407407407407407,31.037037037037035,0)" xlink:href="#v"/></g><path d="M20-101c0-91 52-143 145-150 126-9 127 168 53 223-23 17-55 32-93 32C57 4 20-33 20-101zm216-33c5-57-18-91-73-90-77 1-110 51-110 125 0 49 23 75 73 75 72-1 104-45 110-110" id="w"/><path d="M66-151c12-25 30-51 66-40l-6 26C45-176 58-65 38 0H6l36-190h30" id="x"/><path d="M44-68c0 29 11 47 38 47 30 0 42-19 51-41l28 9C148-21 126 4 82 4 31 4 10-29 12-85c3-77 74-140 146-93 12 8 15 23 18 40l-31 5c-1-22-13-36-36-36-52 0-65 49-65 101" id="y"/><path d="M67-158c15-20 31-36 64-36 94 0 33 127 27 194h-32l25-140c3-38-53-32-70-12C52-117 51-51 37 0H6l51-261h31" id="z"/><path d="M111-194c62-3 86 47 72 106H45c-7 38 6 69 45 68 27-1 43-14 53-32l24 11C152-15 129 4 87 4 38 3 12-23 12-71c0-70 32-119 99-123zm44 81c14-66-71-72-95-28-4 8-8 17-11 28h106" id="A"/><path d="M55-144c13 50 104 24 104 88C159 21 15 23 1-39l26-10c6 40 102 42 102-4-13-50-104-23-104-87 0-71 143-71 148-8l-29 4c-5-35-85-37-89 0" id="B"/><path d="M51-54c-9 22 5 41 31 30L79-1C43 14 10-4 19-52l22-115H19l5-23h22l19-43h21l-9 43h35l-4 23H73" id="C"/><path d="M165-48c-4 18 1 34 23 27l-3 20c-29 8-62 0-52-35h-2C116-14 99 4 63 4 30 4 8-16 8-49c0-68 71-67 138-67 10-26 0-56-31-54-26 1-42 9-47 31l-32-5c8-67 160-71 144 15-5 28-9 54-15 81zM42-50c3 52 80 24 89-6 7-12 7-24 11-38-47 1-103-4-100 44" id="D"/><path d="M30-147c31-64 166-65 159 27C183-49 158 1 86 4 9 8 1-88 30-147zM88-20c53 0 68-48 68-100 0-31-11-51-44-50-52 1-68 46-68 97 0 32 13 53 44 53" id="E"/><g id="b"><use transform="matrix(0.07407407407407407,0,0,0.07407407407407407,0,0)" xlink:href="#w"/><use transform="matrix(0.07407407407407407,0,0,0.07407407407407407,20.74074074074074,0)" xlink:href="#x"/><use transform="matrix(0.07407407407407407,0,0,0.07407407407407407,29.555555555555557,0)" xlink:href="#y"/><use transform="matrix(0.07407407407407407,0,0,0.07407407407407407,42.888888888888886,0)" xlink:href="#z"/><use transform="matrix(0.07407407407407407,0,0,0.07407407407407407,57.703703703703695,0)" xlink:href="#A"/><use transform="matrix(0.07407407407407407,0,0,0.07407407407407407,72.5185185185185,0)" xlink:href="#B"/><use transform="matrix(0.07407407407407407,0,0,0.07407407407407407,85.85185185185183,0)" xlink:href="#C"/><use transform="matrix(0.07407407407407407,0,0,0.07407407407407407,93.25925925925924,0)" xlink:href="#x"/><use transform="matrix(0.07407407407407407,0,0,0.07407407407407407,102.07407407407405,0)" xlink:href="#D"/><use transform="matrix(0.07407407407407407,0,0,0.07407407407407407,116.88888888888887,0)" xlink:href="#C"/><use transform="matrix(0.07407407407407407,0,0,0.07407407407407407,124.29629629629626,0)" xlink:href="#E"/><use transform="matrix(0.07407407407407407,0,0,0.07407407407407407,139.1111111111111,0)" xlink:href="#x"/></g><path d="M24-231v-30h32v30H24zM24 0v-190h32V0H24" id="F"/><path d="M117-194c89-4 53 116 60 194h-32v-121c0-31-8-49-39-48C34-167 62-67 57 0H25l-1-190h30c1 10-1 24 2 32 11-22 29-35 61-36" id="G"/><path d="M59-47c-2 24 18 29 38 22v24C64 9 27 4 27-40v-127H5v-23h24l9-43h21v43h35v23H59v120" id="H"/><path d="M177-190C167-65 218 103 67 71c-23-6-38-20-44-43l32-5c15 47 100 32 89-28v-30C133-14 115 1 83 1 29 1 15-40 15-95c0-56 16-97 71-98 29-1 48 16 59 35 1-10 0-23 2-32h30zM94-22c36 0 50-32 50-73 0-42-14-75-50-75-39 0-46 34-46 75s6 73 46 73" id="I"/><path d="M114-163C36-179 61-72 57 0H25l-1-190h30c1 12-1 29 2 39 6-27 23-49 58-41v29" id="J"/><path d="M141-36C126-15 110 5 73 4 37 3 15-17 15-53c-1-64 63-63 125-63 3-35-9-54-41-54-24 1-41 7-42 31l-33-3c5-37 33-52 76-52 45 0 72 20 72 64v82c-1 20 7 32 28 27v20c-31 9-61-2-59-35zM48-53c0 20 12 33 32 33 41-3 63-29 60-74-43 2-92-5-92 41" id="K"/><path d="M135-143c-3-34-86-38-87 0 15 53 115 12 119 90S17 21 10-45l28-5c4 36 97 45 98 0-10-56-113-15-118-90-4-57 82-63 122-42 12 7 21 19 24 35" id="L"/><g id="c"><use transform="matrix(0.07407407407407407,0,0,0.07407407407407407,0,0)" xlink:href="#F"/><use transform="matrix(0.07407407407407407,0,0,0.07407407407407407,5.851851851851851,0)" xlink:href="#G"/><use transform="matrix(0.07407407407407407,0,0,0.07407407407407407,20.666666666666664,0)" xlink:href="#H"/><use transform="matrix(0.07407407407407407,0,0,0.07407407407407407,28.07407407407407,0)" xlink:href="#v"/><use transform="matrix(0.07407407407407407,0,0,0.07407407407407407,42.888888888888886,0)" xlink:href="#I"/><use transform="matrix(0.07407407407407407,0,0,0.07407407407407407,57.703703703703695,0)" xlink:href="#J"/><use transform="matrix(0.07407407407407407,0,0,0.07407407407407407,66.5185185185185,0)" xlink:href="#K"/><use transform="matrix(0.07407407407407407,0,0,0.07407407407407407,81.33333333333331,0)" xlink:href="#H"/><use transform="matrix(0.07407407407407407,0,0,0.07407407407407407,88.74074074074072,0)" xlink:href="#v"/><use transform="matrix(0.07407407407407407,0,0,0.07407407407407407,103.55555555555553,0)" xlink:href="#L"/></g><path d="M101-234c-31-9-42 10-38 44h38v23H63V0H32v-167H5v-23h27c-7-52 17-82 69-68v24" id="M"/><path d="M100-194c62-1 85 37 85 99 1 63-27 99-86 99S16-35 15-95c0-66 28-99 85-99zM99-20c44 1 53-31 53-75 0-43-8-75-51-75s-53 32-53 75 10 74 51 75" id="N"/><path d="M210-169c-67 3-38 105-44 169h-31v-121c0-29-5-50-35-48C34-165 62-65 56 0H25l-1-190h30c1 10-1 24 2 32 10-44 99-50 107 0 11-21 27-35 58-36 85-2 47 119 55 194h-31v-121c0-29-5-49-35-48" id="O"/><g id="d"><use transform="matrix(0.07407407407407407,0,0,0.07407407407407407,0,0)" xlink:href="#F"/><use transform="matrix(0.07407407407407407,0,0,0.07407407407407407,5.851851851851851,0)" xlink:href="#G"/><use transform="matrix(0.07407407407407407,0,0,0.07407407407407407,20.666666666666664,0)" xlink:href="#M"/><use transform="matrix(0.07407407407407407,0,0,0.07407407407407407,28.07407407407407,0)" xlink:href="#N"/><use transform="matrix(0.07407407407407407,0,0,0.07407407407407407,42.888888888888886,0)" xlink:href="#J"/><use transform="matrix(0.07407407407407407,0,0,0.07407407407407407,51.7037037037037,0)" xlink:href="#O"/><use transform="matrix(0.07407407407407407,0,0,0.07407407407407407,73.85185185185185,0)" xlink:href="#K"/><use transform="matrix(0.07407407407407407,0,0,0.07407407407407407,88.66666666666666,0)" xlink:href="#H"/><use transform="matrix(0.07407407407407407,0,0,0.07407407407407407,96.07407407407406,0)" xlink:href="#F"/><use transform="matrix(0.07407407407407407,0,0,0.07407407407407407,101.92592592592591,0)" xlink:href="#N"/><use transform="matrix(0.07407407407407407,0,0,0.07407407407407407,116.74074074074072,0)" xlink:href="#G"/></g><path d="M206 0h-36l-40-164L89 0H53L-1-190h32L70-26l43-164h34l41 164 42-164h31" id="P"/><path d="M85-194c31 0 48 13 60 33l-1-100h32l1 261h-30c-2-10 0-23-3-31C134-8 116 4 85 4 32 4 16-35 15-94c0-66 23-100 70-100zm9 24c-40 0-46 34-46 75 0 40 6 74 45 74 42 0 51-32 51-76 0-42-9-74-50-73" id="Q"/><g id="e"><use transform="matrix(0.07407407407407407,0,0,0.07407407407407407,0,0)" xlink:href="#N"/><use transform="matrix(0.07407407407407407,0,0,0.07407407407407407,14.814814814814813,0)" xlink:href="#P"/><use transform="matrix(0.07407407407407407,0,0,0.07407407407407407,34,0)" xlink:href="#G"/><use transform="matrix(0.07407407407407407,0,0,0.07407407407407407,48.81481481481481,0)" xlink:href="#v"/><use transform="matrix(0.07407407407407407,0,0,0.07407407407407407,63.62962962962962,0)" xlink:href="#Q"/></g><path d="M115-194c53 0 69 39 70 98 0 66-23 100-70 100C84 3 66-7 56-30L54 0H23l1-261h32v101c10-23 28-34 59-34zm-8 174c40 0 45-34 45-75 0-40-5-75-45-74-42 0-51 32-51 76 0 43 10 73 51 73" id="R"/><path d="M179-190L93 31C79 59 56 82 12 73V49c39 6 53-20 64-50L1-190h34L92-34l54-156h33" id="S"/><g id="f"><use transform="matrix(0.07407407407407407,0,0,0.07407407407407407,0,0)" xlink:href="#R"/><use transform="matrix(0.07407407407407407,0,0,0.07407407407407407,14.814814814814813,0)" xlink:href="#S"/></g><path d="M84 4C-5 8 30-112 23-190h32v120c0 31 7 50 39 49 72-2 45-101 50-169h31l1 190h-30c-1-10 1-25-2-33-11 22-28 36-60 37" id="T"/><path d="M24 0v-261h32V0H24" id="U"/><path d="M115-194c55 1 70 41 70 98S169 2 115 4C84 4 66-9 55-30l1 105H24l-1-265h31l2 30c10-21 28-34 59-34zm-8 174c40 0 45-34 45-75s-6-73-45-74c-42 0-51 32-51 76 0 43 10 73 51 73" id="V"/><g id="g"><use transform="matrix(0.07407407407407407,0,0,0.07407407407407407,0,0)" xlink:href="#O"/><use transform="matrix(0.07407407407407407,0,0,0.07407407407407407,22.148148148148145,0)" xlink:href="#T"/><use transform="matrix(0.07407407407407407,0,0,0.07407407407407407,36.96296296296296,0)" xlink:href="#U"/><use transform="matrix(0.07407407407407407,0,0,0.07407407407407407,42.81481481481481,0)" xlink:href="#H"/><use transform="matrix(0.07407407407407407,0,0,0.07407407407407407,50.222222222222214,0)" xlink:href="#F"/><use transform="matrix(0.07407407407407407,0,0,0.07407407407407407,56.07407407407406,0)" xlink:href="#V"/><use transform="matrix(0.07407407407407407,0,0,0.07407407407407407,70.88888888888887,0)" xlink:href="#U"/><use transform="matrix(0.07407407407407407,0,0,0.07407407407407407,76.74074074074072,0)" xlink:href="#v"/></g><g id="h"><use transform="matrix(0.07407407407407407,0,0,0.07407407407407407,0,0)" xlink:href="#L"/><use transform="matrix(0.07407407407407407,0,0,0.07407407407407407,13.333333333333332,0)" xlink:href="#u"/><use transform="matrix(0.07407407407407407,0,0,0.07407407407407407,28.148148148148145,0)" xlink:href="#K"/><use transform="matrix(0.07407407407407407,0,0,0.07407407407407407,42.96296296296296,0)" xlink:href="#J"/><use transform="matrix(0.07407407407407407,0,0,0.07407407407407407,51.77777777777777,0)" xlink:href="#Q"/><use transform="matrix(0.07407407407407407,0,0,0.07407407407407407,66.5925925925926,0)" xlink:href="#L"/></g><linearGradient gradientUnits="userSpaceOnUse" id="i" x1="800" y1="758.5" x2="800" y2="638.5"><stop offset="19.2%" stop-color="#ced4db"/><stop offset="26.45%" stop-color="#fff"/><stop offset="45.29%" stop-color="#fff"/><stop offset="52.54%" stop-color="#cfe4ff"/></linearGradient><linearGradient gradientUnits="userSpaceOnUse" id="j" x1="780" y1="778.5" x2="780" y2="658.5"><stop offset="19.2%" stop-color="#ced4db"/><stop offset="26.45%" stop-color="#fff"/><stop offset="45.29%" stop-color="#fff"/><stop offset="52.54%" stop-color="#cfe4ff"/></linearGradient><linearGradient gradientUnits="userSpaceOnUse" id="k" x1="760" y1="798.5" x2="760" y2="678.5"><stop offset="19.2%" stop-color="#ced4db"/><stop offset="26.45%" stop-color="#fff"/><stop offset="45.29%" stop-color="#fff"/><stop offset="52.54%" stop-color="#cfe4ff"/></linearGradient><path d="M232-93c-1 65-40 97-104 97C67 4 28-28 28-90v-158h33c8 89-33 224 67 224 102 0 64-133 71-224h33v155" id="W"/><g id="l"><use transform="matrix(0.07407407407407406,0,0,0.07407407407407406,0,0)" xlink:href="#W"/><use transform="matrix(0.07407407407407406,0,0,0.07407407407407406,19.18518518518518,0)" xlink:href="#L"/><use transform="matrix(0.07407407407407406,0,0,0.07407407407407406,32.51851851851851,0)" xlink:href="#v"/><use transform="matrix(0.07407407407407406,0,0,0.07407407407407406,47.33333333333332,0)" xlink:href="#J"/><use transform="matrix(0.07407407407407406,0,0,0.07407407407407406,56.14814814814813,0)" xlink:href="#L"/></g><path d="M205 0l-28-72H64L36 0H1l101-248h38L239 0h-34zm-38-99l-47-123c-12 45-31 82-46 123h93" id="X"/><path d="M16-82v-28h88v28H16" id="Y"/><path d="M63-220v92h138v28H63V0H30v-248h175v28H63" id="Z"/><g id="m"><use transform="matrix(0.07407407407407406,0,0,0.07407407407407406,0,0)" xlink:href="#X"/><use transform="matrix(0.07407407407407406,0,0,0.07407407407407406,17.777777777777775,0)" xlink:href="#Y"/><use transform="matrix(0.07407407407407406,0,0,0.07407407407407406,26.592592592592585,0)" xlink:href="#Z"/></g><path d="M140-251c81 0 123 46 123 126C263-46 219 4 140 4 59 4 17-45 17-125s42-126 123-126zm0 227c63 0 89-41 89-101s-29-99-89-99c-61 0-89 39-89 99S79-25 140-24" id="aa"/><path d="M96-169c-40 0-48 33-48 73s9 75 48 75c24 0 41-14 43-38l32 2c-6 37-31 61-74 61-59 0-76-41-82-99-10-93 101-131 147-64 4 7 5 14 7 22l-32 3c-4-21-16-35-41-35" id="ab"/><g id="n"><use transform="matrix(0.07407407407407406,0,0,0.07407407407407406,0,0)" xlink:href="#aa"/><use transform="matrix(0.07407407407407406,0,0,0.07407407407407406,20.740740740740737,0)" xlink:href="#J"/><use transform="matrix(0.07407407407407406,0,0,0.07407407407407406,29.55555555555555,0)" xlink:href="#ab"/><use transform="matrix(0.07407407407407406,0,0,0.07407407407407406,42.88888888888888,0)" xlink:href="#u"/><use transform="matrix(0.07407407407407406,0,0,0.07407407407407406,57.70370370370369,0)" xlink:href="#v"/><use transform="matrix(0.07407407407407406,0,0,0.07407407407407406,72.5185185185185,0)" xlink:href="#L"/><use transform="matrix(0.07407407407407406,0,0,0.07407407407407406,85.85185185185183,0)" xlink:href="#H"/><use transform="matrix(0.07407407407407406,0,0,0.07407407407407406,93.25925925925924,0)" xlink:href="#J"/><use transform="matrix(0.07407407407407406,0,0,0.07407407407407406,102.07407407407405,0)" xlink:href="#K"/><use transform="matrix(0.07407407407407406,0,0,0.07407407407407406,116.88888888888886,0)" xlink:href="#H"/><use transform="matrix(0.07407407407407406,0,0,0.07407407407407406,124.29629629629626,0)" xlink:href="#N"/><use transform="matrix(0.07407407407407406,0,0,0.07407407407407406,139.1111111111111,0)" xlink:href="#J"/></g><linearGradient gradientUnits="userSpaceOnUse" id="o" x1="321.5" y1="760" x2="321.5" y2="560"><stop offset="15.58%" stop-color="#ced4db"/><stop offset="22.46%" stop-color="#fff"/><stop offset="42.39%" stop-color="#fff"/><stop offset="46.38%" stop-color="#cfe4ff"/><stop offset="72.83%" stop-color="#cfe4ff"/><stop offset="83.33%" stop-color="#c3f7c8"/></linearGradient><linearGradient gradientUnits="userSpaceOnUse" id="p" x1="301.5" y1="780" x2="301.5" y2="580"><stop offset="15.58%" stop-color="#ced4db"/><stop offset="22.46%" stop-color="#fff"/><stop offset="42.39%" stop-color="#fff"/><stop offset="46.38%" stop-color="#cfe4ff"/><stop offset="72.83%" stop-color="#cfe4ff"/><stop offset="83.33%" stop-color="#c3f7c8"/></linearGradient><linearGradient gradientUnits="userSpaceOnUse" id="q" x1="281.5" y1="800" x2="281.5" y2="600"><stop offset="15.58%" stop-color="#ced4db"/><stop offset="22.46%" stop-color="#fff"/><stop offset="42.39%" stop-color="#fff"/><stop offset="46.38%" stop-color="#cfe4ff"/><stop offset="72.83%" stop-color="#cfe4ff"/><stop offset="83.33%" stop-color="#c3f7c8"/></linearGradient><g id="r"><use transform="matrix(0.07407407407407407,0,0,0.07407407407407407,0,0)" xlink:href="#W"/><use transform="matrix(0.07407407407407407,0,0,0.07407407407407407,19.185185185185183,0)" xlink:href="#L"/><use transform="matrix(0.07407407407407407,0,0,0.07407407407407407,32.51851851851852,0)" xlink:href="#v"/><use transform="matrix(0.07407407407407407,0,0,0.07407407407407407,47.33333333333333,0)" xlink:href="#J"/><use transform="matrix(0.07407407407407407,0,0,0.07407407407407407,56.148148148148145,0)" xlink:href="#L"/></g><g id="s"><use transform="matrix(0.07407407407407407,0,0,0.07407407407407407,0,0)" xlink:href="#X"/><use transform="matrix(0.07407407407407407,0,0,0.07407407407407407,17.77777777777778,0)" xlink:href="#Y"/><use transform="matrix(0.07407407407407407,0,0,0.07407407407407407,26.592592592592595,0)" xlink:href="#Z"/></g></defs></g></svg>