<svg xmlns="http://www.w3.org/2000/svg" xmlns:xlink="http://www.w3.org/1999/xlink" xmlns:lucid="lucid" width="1081.5" height="247"><g transform="translate(-279.9999115625159 -557.0000249999998)" lucid:page-tab-id="0_0"><path d="M800 578.5a20 20 0 0 1 20-20h100a20 20 0 0 1 20 20v160a20 20 0 0 1-20 20H820a20 20 0 0 1-20-20z" stroke="#1071e5" stroke-width="3" fill="url(#a)"/><path d="M780 600a20 20 0 0 1 20-20h100a20 20 0 0 1 20 20v160a20 20 0 0 1-20 20H800a20 20 0 0 1-20-20z" stroke="#82755b" stroke-width="3" fill="url(#b)"/><path d="M600 666a6 6 0 0 1 6-6h42a6 6 0 0 0 6-6v-8a2.3 2.3 0 0 1 4-1.54l28 31.08a6.67 6.67 0 0 1 0 8.92l-28 31.08a2.3 2.3 0 0 1-4-1.54v-8a6 6 0 0 0-6-6h-42a6 6 0 0 1-6-6z" fill="#fc9432"/><path d="M1120 686a6 6 0 0 1 6-6h228a6 6 0 0 1 6 6v106.5a6 6 0 0 1-6 6h-228a6 6 0 0 1-6-6z" stroke="#000" stroke-opacity="0" stroke-width="3" fill="#fff" fill-opacity="0"/><use xlink:href="#c" transform="matrix(1,0,0,1,1125,685) translate(12.111111111111128 28.145833333333332)"/><use xlink:href="#d" transform="matrix(1,0,0,1,1125,685) translate(65.37037037037038 28.145833333333332)"/><use xlink:href="#e" transform="matrix(1,0,0,1,1125,685) translate(166.037037037037 28.145833333333332)"/><use xlink:href="#f" transform="matrix(1,0,0,1,1125,685) translate(4.000000000000014 60.14583333333333)"/><use xlink:href="#g" transform="matrix(1,0,0,1,1125,685) translate(55.85185185185186 60.14583333333333)"/><use xlink:href="#h" transform="matrix(1,0,0,1,1125,685) translate(117.92592592592592 60.14583333333333)"/><use xlink:href="#i" transform="matrix(1,0,0,1,1125,685) translate(203.77777777777777 60.14583333333333)"/><use xlink:href="#j" transform="matrix(1,0,0,1,1125,685) translate(17.333333333333343 92.14583333333333)"/><use xlink:href="#k" transform="matrix(1,0,0,1,1125,685) translate(39.555555555555564 92.14583333333333)"/><use xlink:href="#l" transform="matrix(1,0,0,1,1125,685) translate(128.37037037037038 92.14583333333333)"/><path d="M942.5 589.25h2.94m3.92 0h5.9m3.9 0h5.9m3.92 0h5.88m3.92 0h5.88m3.93 0h5.87m3.92 0h5.88m3.92 0h5.88m3.92 0h5.9m3.9 0h5.9m3.9 0h5.9m3.92 0h5.88m3.92 0h5.9m3.9 0h5.9m3.92 0h5.88m3.92 0h5.88m3.93 0h5.88m3.92 0h5.9m3.9 0h2.95" stroke="#3a414a" stroke-width="2" fill="none"/><path d="M942.53 588.27v1.96h-1.03v-1.96zM1120 588.27v1.96h-1.03v-1.96z" stroke="#3a414a" stroke-width=".05" fill="#3a414a"/><path d="M1120 564.5a6 6 0 0 1 6-6h228a6 6 0 0 1 6 6V614a6 6 0 0 1-6 6h-228a6 6 0 0 1-6-6z" stroke="#000" stroke-opacity="0" stroke-width="3" fill="#fff" fill-opacity="0"/><use xlink:href="#m" transform="matrix(1,0,0,1,1125,563.5000249999998) translate(4 21.333333333333332)"/><use xlink:href="#n" transform="matrix(1,0,0,1,1125,563.5000249999998) translate(72.14814814814814 21.333333333333332)"/><use xlink:href="#o" transform="matrix(1,0,0,1,1125,563.5000249999998) translate(146.14814814814815 21.333333333333332)"/><use xlink:href="#p" transform="matrix(1,0,0,1,1125,563.5000249999998) translate(0.29629629629631893 53.33333333333333)"/><use xlink:href="#q" transform="matrix(1,0,0,1,1125,563.5000249999998) translate(34.29629629629631 53.33333333333333)"/><use xlink:href="#f" transform="matrix(1,0,0,1,1125,563.5000249999998) translate(125.99999999999999 53.33333333333333)"/><use xlink:href="#r" transform="matrix(1,0,0,1,1125,563.5000249999998) translate(177.85185185185185 53.33333333333333)"/><path d="M760 618.5a20 20 0 0 1 20-20h100a20 20 0 0 1 20 20v160a20 20 0 0 1-20 20H780a20 20 0 0 1-20-20z" stroke="#008a0e" stroke-width="3" fill="url(#s)"/><use xlink:href="#t" transform="matrix(1,0,0,1,765,603.5000249999999) translate(5.148148148148152 98.52083333333333)"/><use xlink:href="#u" transform="matrix(1,0,0,1,765,603.5000249999999) translate(82.03703703703704 98.52083333333333)"/><path d="M980 660a20 20 0 0 1 20-20h40a20 20 0 0 1 20 20v118.5a20 20 0 0 1-20 20h-40a20 20 0 0 1-20-20z" stroke="#000" stroke-width="3" fill="url(#v)"/><use xlink:href="#w" transform="matrix(1,0,0,1,985,644.9999999999999) translate(20.25925925925926 63.23958333333333)"/><use xlink:href="#x" transform="matrix(1,0,0,1,985,644.9999999999999) translate(0.2592592592592595 95.23958333333333)"/><path d="M902.5 698.5l57.5.07" stroke="#008a0e" stroke-width="2" fill="none"/><path d="M902.53 697.53v1.95h-1.03v-1.96z" stroke="#008a0e" stroke-width=".05" fill="#008a0e"/><path d="M975.26 698.6L961 703.2v-9.26z" stroke="#008a0e" stroke-width="2" fill="#008a0e"/><path d="M922.5 680l37.5.13" stroke="#82755b" stroke-width="2" fill="none"/><path d="M922.53 679.03v1.95h-1.03V679z" stroke="#82755b" stroke-width=".05" fill="#82755b"/><path d="M975.26 680.17l-14.28 4.6.03-9.28z" stroke="#82755b" stroke-width="2" fill="#82755b"/><path d="M942.5 658.5l17.6.12" stroke="#1071e5" stroke-width="2" fill="none"/><path d="M942.53 657.53v1.95h-1.03v-1.96z" stroke="#1071e5" stroke-width=".05" fill="#1071e5"/><path d="M975.36 658.72l-14.3 4.54.06-9.27z" stroke="#1071e5" stroke-width="2" fill="#1071e5"/><path d="M1062.5 739.16h2.83m3.76 0l5.64.02m3.77 0h5.66m3.76.02h5.65m3.77 0l5.65.02m3.76 0l5.65.02m3.77 0h2.83" stroke="#3a414a" stroke-width="2" fill="none"/><path d="M1062.53 738.18v1.95h-1.03v-1.95zM1120 738.27v1.96h-1.03v-1.96z" stroke="#3a414a" stroke-width=".05" fill="#3a414a"/><path d="M321.5 578.5a20 20 0 0 1 20-20h160a20 20 0 0 1 20 20v160a20 20 0 0 1-20 20h-160a20 20 0 0 1-20-20z" stroke="#1071e5" stroke-width="3" fill="url(#y)"/><path d="M481 600h12.67m12.66 0H519M481.03 600H480M518.97 600H520" stroke="#fc9432" stroke-width="2" fill="none"/><path d="M301.5 598.5a20 20 0 0 1 20-20h160a20 20 0 0 1 20 20v160a20 20 0 0 1-20 20h-160a20 20 0 0 1-20-20z" stroke="#82755b" stroke-width="3" fill="url(#z)"/><path d="M461 618.5h12.67m12.66 0H499M461.03 618.5H460M498.97 618.5H500" stroke="#fc9432" stroke-width="2" fill="none"/><path d="M281.5 618.5a20 20 0 0 1 20-20h160a20 20 0 0 1 20 20v160a20 20 0 0 1-20 20h-160a20 20 0 0 1-20-20z" stroke="#008a0e" stroke-width="3" fill="url(#A)"/><use xlink:href="#t" transform="matrix(1,0,0,1,286.4999115625159,603.5000249999998) translate(35.14814814814815 98.52083333333333)"/><use xlink:href="#u" transform="matrix(1,0,0,1,286.4999115625159,603.5000249999998) translate(112.03703703703704 98.52083333333333)"/><path d="M537.16 720.25H557a8 8 0 0 1 8 8v8a8 8 0 0 1-8 8h-39.84" stroke="#000" stroke-width="2" fill="none"/><path d="M537.16 724.25H557a4 4 0 0 1 4 4v8a4 4 0 0 1-4 4h-39.84" stroke="#000" stroke-width="2" fill="none"/><path d="M542.32 732.25l-17.32-10 17.32-10m-17.32 10h8.5M522.32 752.25l-17.32-10 17.32-10m-17.32 10h8.5" stroke="#000" stroke-width="2" fill="none"/><path d="M497.16 760.25H557a4 4 0 0 0 4-4v-28a4 4 0 0 0-4-4h-19.84" stroke="#000" stroke-width="2" fill="none"/><path d="M497.16 764.25H557a8 8 0 0 0 8-8v-28a8 8 0 0 0-8-8h-19.84" stroke="#000" stroke-width="2" fill="none"/><path d="M502.32 772.25l-17.32-10 17.32-10m-17.32 10h8.5M542.32 732.25l-17.32-10 17.32-10m-17.32 10h8.5" stroke="#000" stroke-width="2" fill="none"/><path d="M517.16 740.25H537a8 8 0 0 1 8 8v8a8 8 0 0 1-8 8h-39.84" stroke="#000" stroke-width="2" fill="none"/><path d="M517.16 744.25H537a4 4 0 0 1 4 4v8a4 4 0 0 1-4 4h-39.84" stroke="#000" stroke-width="2" fill="none"/><path d="M522.32 752.25l-17.32-10 17.32-10m-17.32 10h8.5M502.32 772.25l-17.32-10 17.32-10m-17.32 10h8.5" stroke="#000" stroke-width="2" fill="none"/><path d="M421 640h9.67m9.66 0h19.34m9.66 0H479M421.03 640H420M478.97 640H480M420 799v-10.53m0-10.54v-21.06m0-10.54v-21.06m0-10.54v-21.06m0-10.54v-21.06m0-10.54V641" stroke="#fc9432" stroke-width="2" fill="none"/><path d="M420.98 800h-1.96v-1.03h1.96z" stroke="#fc9432" stroke-width=".05" fill="#fc9432"/><path d="M420 641.03V640" stroke="#fc9432" stroke-width="2" fill="none"/><defs><linearGradient gradientUnits="userSpaceOnUse" id="a" x1="800" y1="758.5" x2="800" y2="558.5"><stop offset="17.39%" stop-color="#ced4db"/><stop offset="26.45%" stop-color="#fff"/><stop offset="37.68%" stop-color="#fff"/><stop offset="44.2%" stop-color="#cfe4ff"/><stop offset="72.83%" stop-color="#cfe4ff"/><stop offset="83.33%" stop-color="#c3f7c8"/></linearGradient><linearGradient gradientUnits="userSpaceOnUse" id="b" x1="780" y1="780" x2="780" y2="580"><stop offset="17.39%" stop-color="#ced4db"/><stop offset="26.45%" stop-color="#fff"/><stop offset="37.68%" stop-color="#fff"/><stop offset="44.2%" stop-color="#cfe4ff"/><stop offset="72.83%" stop-color="#cfe4ff"/><stop offset="83.33%" stop-color="#c3f7c8"/></linearGradient><path d="M127-220V0H93v-220H8v-28h204v28h-85" id="B"/><path d="M106-169C34-169 62-67 57 0H25v-261h32l-1 103c12-21 28-36 61-36 89 0 53 116 60 194h-32v-121c2-32-8-49-39-48" id="C"/><path d="M100-194c63 0 86 42 84 106H49c0 40 14 67 53 68 26 1 43-12 49-29l28 8c-11 28-37 45-77 45C44 4 14-33 15-96c1-61 26-98 85-98zm52 81c6-60-76-77-97-28-3 7-6 17-6 28h103" id="D"/><g id="c"><use transform="matrix(0.07407407407407407,0,0,0.07407407407407407,0,0)" xlink:href="#B"/><use transform="matrix(0.07407407407407407,0,0,0.07407407407407407,16.22222222222222,0)" xlink:href="#C"/><use transform="matrix(0.07407407407407407,0,0,0.07407407407407407,31.037037037037035,0)" xlink:href="#D"/></g><path d="M96-169c-40 0-48 33-48 73s9 75 48 75c24 0 41-14 43-38l32 2c-6 37-31 61-74 61-59 0-76-41-82-99-10-93 101-131 147-64 4 7 5 14 7 22l-32 3c-4-21-16-35-41-35" id="E"/><path d="M100-194c62-1 85 37 85 99 1 63-27 99-86 99S16-35 15-95c0-66 28-99 85-99zM99-20c44 1 53-31 53-75 0-43-8-75-51-75s-53 32-53 75 10 74 51 75" id="F"/><path d="M84 4C-5 8 30-112 23-190h32v120c0 31 7 50 39 49 72-2 45-101 50-169h31l1 190h-30c-1-10 1-25-2-33-11 22-28 36-60 37" id="G"/><path d="M115-194c55 1 70 41 70 98S169 2 115 4C84 4 66-9 55-30l1 105H24l-1-265h31l2 30c10-21 28-34 59-34zm-8 174c40 0 45-34 45-75s-6-73-45-74c-42 0-51 32-51 76 0 43 10 73 51 73" id="H"/><path d="M24 0v-261h32V0H24" id="I"/><path d="M85-194c31 0 48 13 60 33l-1-100h32l1 261h-30c-2-10 0-23-3-31C134-8 116 4 85 4 32 4 16-35 15-94c0-66 23-100 70-100zm9 24c-40 0-46 34-46 75 0 40 6 74 45 74 42 0 51-32 51-76 0-42-9-74-50-73" id="J"/><g id="d"><use transform="matrix(0.07407407407407407,0,0,0.07407407407407407,0,0)" xlink:href="#E"/><use transform="matrix(0.07407407407407407,0,0,0.07407407407407407,13.333333333333332,0)" xlink:href="#F"/><use transform="matrix(0.07407407407407407,0,0,0.07407407407407407,28.148148148148145,0)" xlink:href="#G"/><use transform="matrix(0.07407407407407407,0,0,0.07407407407407407,42.96296296296296,0)" xlink:href="#H"/><use transform="matrix(0.07407407407407407,0,0,0.07407407407407407,57.77777777777777,0)" xlink:href="#I"/><use transform="matrix(0.07407407407407407,0,0,0.07407407407407407,63.62962962962962,0)" xlink:href="#D"/><use transform="matrix(0.07407407407407407,0,0,0.07407407407407407,78.44444444444443,0)" xlink:href="#J"/></g><path d="M141-36C126-15 110 5 73 4 37 3 15-17 15-53c-1-64 63-63 125-63 3-35-9-54-41-54-24 1-41 7-42 31l-33-3c5-37 33-52 76-52 45 0 72 20 72 64v82c-1 20 7 32 28 27v20c-31 9-61-2-59-35zM48-53c0 20 12 33 32 33 41-3 63-29 60-74-43 2-92-5-92 41" id="K"/><path d="M59-47c-2 24 18 29 38 22v24C64 9 27 4 27-40v-127H5v-23h24l9-43h21v43h35v23H59v120" id="L"/><g id="e"><use transform="matrix(0.07407407407407407,0,0,0.07407407407407407,0,0)" xlink:href="#J"/><use transform="matrix(0.07407407407407407,0,0,0.07407407407407407,14.814814814814813,0)" xlink:href="#K"/><use transform="matrix(0.07407407407407407,0,0,0.07407407407407407,29.629629629629626,0)" xlink:href="#L"/><use transform="matrix(0.07407407407407407,0,0,0.07407407407407407,37.03703703703703,0)" xlink:href="#K"/></g><path d="M117-194c89-4 53 116 60 194h-32v-121c0-31-8-49-39-48C34-167 62-67 57 0H25l-1-190h30c1 10-1 24 2 32 11-22 29-35 61-36" id="M"/><g id="f"><use transform="matrix(0.07407407407407407,0,0,0.07407407407407407,0,0)" xlink:href="#K"/><use transform="matrix(0.07407407407407407,0,0,0.07407407407407407,14.814814814814813,0)" xlink:href="#M"/><use transform="matrix(0.07407407407407407,0,0,0.07407407407407407,29.629629629629626,0)" xlink:href="#J"/></g><path d="M177-190C167-65 218 103 67 71c-23-6-38-20-44-43l32-5c15 47 100 32 89-28v-30C133-14 115 1 83 1 29 1 15-40 15-95c0-56 16-97 71-98 29-1 48 16 59 35 1-10 0-23 2-32h30zM94-22c36 0 50-32 50-73 0-42-14-75-50-75-39 0-46 34-46 75s6 73 46 73" id="N"/><path d="M24-231v-30h32v30H24zM24 0v-190h32V0H24" id="O"/><g id="g"><use transform="matrix(0.07407407407407407,0,0,0.07407407407407407,0,0)" xlink:href="#I"/><use transform="matrix(0.07407407407407407,0,0,0.07407407407407407,5.851851851851851,0)" xlink:href="#F"/><use transform="matrix(0.07407407407407407,0,0,0.07407407407407407,20.666666666666664,0)" xlink:href="#N"/><use transform="matrix(0.07407407407407407,0,0,0.07407407407407407,35.48148148148148,0)" xlink:href="#O"/><use transform="matrix(0.07407407407407407,0,0,0.07407407407407407,41.33333333333333,0)" xlink:href="#E"/></g><path d="M210-169c-67 3-38 105-44 169h-31v-121c0-29-5-50-35-48C34-165 62-65 56 0H25l-1-190h30c1 10-1 24 2 32 10-44 99-50 107 0 11-21 27-35 58-36 85-2 47 119 55 194h-31v-121c0-29-5-49-35-48" id="P"/><path d="M108 0H70L1-190h34L89-25l56-165h34" id="Q"/><path d="M135-143c-3-34-86-38-87 0 15 53 115 12 119 90S17 21 10-45l28-5c4 36 97 45 98 0-10-56-113-15-118-90-4-57 82-63 122-42 12 7 21 19 24 35" id="R"/><g id="h"><use transform="matrix(0.07407407407407407,0,0,0.07407407407407407,0,0)" xlink:href="#P"/><use transform="matrix(0.07407407407407407,0,0,0.07407407407407407,22.148148148148145,0)" xlink:href="#F"/><use transform="matrix(0.07407407407407407,0,0,0.07407407407407407,36.96296296296296,0)" xlink:href="#Q"/><use transform="matrix(0.07407407407407407,0,0,0.07407407407407407,50.29629629629629,0)" xlink:href="#D"/><use transform="matrix(0.07407407407407407,0,0,0.07407407407407407,65.1111111111111,0)" xlink:href="#R"/></g><g id="i"><use transform="matrix(0.07407407407407407,0,0,0.07407407407407407,0,0)" xlink:href="#L"/><use transform="matrix(0.07407407407407407,0,0,0.07407407407407407,7.4074074074074066,0)" xlink:href="#F"/></g><use transform="matrix(0.07407407407407407,0,0,0.07407407407407407,0,0)" xlink:href="#K" id="j"/><path d="M114-163C36-179 61-72 57 0H25l-1-190h30c1 12-1 29 2 39 6-27 23-49 58-41v29" id="S"/><g id="k"><use transform="matrix(0.07407407407407407,0,0,0.07407407407407407,0,0)" xlink:href="#R"/><use transform="matrix(0.07407407407407407,0,0,0.07407407407407407,13.333333333333332,0)" xlink:href="#C"/><use transform="matrix(0.07407407407407407,0,0,0.07407407407407407,28.148148148148145,0)" xlink:href="#K"/><use transform="matrix(0.07407407407407407,0,0,0.07407407407407407,42.96296296296296,0)" xlink:href="#S"/><use transform="matrix(0.07407407407407407,0,0,0.07407407407407407,51.77777777777777,0)" xlink:href="#D"/><use transform="matrix(0.07407407407407407,0,0,0.07407407407407407,66.5925925925926,0)" xlink:href="#J"/></g><g id="l"><use transform="matrix(0.07407407407407407,0,0,0.07407407407407407,0,0)" xlink:href="#R"/><use transform="matrix(0.07407407407407407,0,0,0.07407407407407407,13.333333333333332,0)" xlink:href="#D"/><use transform="matrix(0.07407407407407407,0,0,0.07407407407407407,28.148148148148145,0)" xlink:href="#S"/><use transform="matrix(0.07407407407407407,0,0,0.07407407407407407,36.96296296296296,0)" xlink:href="#Q"/><use transform="matrix(0.07407407407407407,0,0,0.07407407407407407,50.29629629629629,0)" xlink:href="#O"/><use transform="matrix(0.07407407407407407,0,0,0.07407407407407407,56.14814814814814,0)" xlink:href="#E"/><use transform="matrix(0.07407407407407407,0,0,0.07407407407407407,69.48148148148147,0)" xlink:href="#D"/></g><path d="M30 0v-248h187v28H63v79h144v27H63v87h162V0H30" id="T"/><g id="m"><use transform="matrix(0.07407407407407407,0,0,0.07407407407407407,0,0)" xlink:href="#T"/><use transform="matrix(0.07407407407407407,0,0,0.07407407407407407,17.77777777777778,0)" xlink:href="#K"/><use transform="matrix(0.07407407407407407,0,0,0.07407407407407407,32.592592592592595,0)" xlink:href="#E"/><use transform="matrix(0.07407407407407407,0,0,0.07407407407407407,45.925925925925924,0)" xlink:href="#C"/></g><g id="n"><use transform="matrix(0.07407407407407407,0,0,0.07407407407407407,0,0)" xlink:href="#R"/><use transform="matrix(0.07407407407407407,0,0,0.07407407407407407,13.333333333333332,0)" xlink:href="#C"/><use transform="matrix(0.07407407407407407,0,0,0.07407407407407407,28.148148148148145,0)" xlink:href="#K"/><use transform="matrix(0.07407407407407407,0,0,0.07407407407407407,42.96296296296296,0)" xlink:href="#S"/><use transform="matrix(0.07407407407407407,0,0,0.07407407407407407,51.77777777777777,0)" xlink:href="#J"/></g><g id="o"><use transform="matrix(0.07407407407407407,0,0,0.07407407407407407,0,0)" xlink:href="#S"/><use transform="matrix(0.07407407407407407,0,0,0.07407407407407407,8.814814814814815,0)" xlink:href="#D"/><use transform="matrix(0.07407407407407407,0,0,0.07407407407407407,23.629629629629623,0)" xlink:href="#L"/><use transform="matrix(0.07407407407407407,0,0,0.07407407407407407,31.03703703703703,0)" xlink:href="#K"/><use transform="matrix(0.07407407407407407,0,0,0.07407407407407407,45.85185185185185,0)" xlink:href="#O"/><use transform="matrix(0.07407407407407407,0,0,0.07407407407407407,51.703703703703695,0)" xlink:href="#M"/><use transform="matrix(0.07407407407407407,0,0,0.07407407407407407,66.5185185185185,0)" xlink:href="#R"/></g><g id="p"><use transform="matrix(0.07407407407407407,0,0,0.07407407407407407,0,0)" xlink:href="#O"/><use transform="matrix(0.07407407407407407,0,0,0.07407407407407407,5.851851851851851,0)" xlink:href="#L"/><use transform="matrix(0.07407407407407407,0,0,0.07407407407407407,13.259259259259258,0)" xlink:href="#R"/></g><path d="M179-190L93 31C79 59 56 82 12 73V49c39 6 53-20 64-50L1-190h34L92-34l54-156h33" id="U"/><g id="q"><use transform="matrix(0.07407407407407407,0,0,0.07407407407407407,0,0)" xlink:href="#O"/><use transform="matrix(0.07407407407407407,0,0,0.07407407407407407,5.851851851851851,0)" xlink:href="#J"/><use transform="matrix(0.07407407407407407,0,0,0.07407407407407407,20.666666666666664,0)" xlink:href="#D"/><use transform="matrix(0.07407407407407407,0,0,0.07407407407407407,35.48148148148148,0)" xlink:href="#M"/><use transform="matrix(0.07407407407407407,0,0,0.07407407407407407,50.29629629629629,0)" xlink:href="#L"/><use transform="matrix(0.07407407407407407,0,0,0.07407407407407407,57.703703703703695,0)" xlink:href="#O"/><use transform="matrix(0.07407407407407407,0,0,0.07407407407407407,63.55555555555554,0)" xlink:href="#L"/><use transform="matrix(0.07407407407407407,0,0,0.07407407407407407,70.96296296296295,0)" xlink:href="#U"/></g><g id="r"><use transform="matrix(0.07407407407407407,0,0,0.07407407407407407,0,0)" xlink:href="#J"/><use transform="matrix(0.07407407407407407,0,0,0.07407407407407407,14.814814814814813,0)" xlink:href="#K"/><use transform="matrix(0.07407407407407407,0,0,0.07407407407407407,29.629629629629626,0)" xlink:href="#L"/><use transform="matrix(0.07407407407407407,0,0,0.07407407407407407,37.03703703703703,0)" xlink:href="#K"/></g><linearGradient gradientUnits="userSpaceOnUse" id="s" x1="760" y1="798.5" x2="760" y2="598.5"><stop offset="17.39%" stop-color="#ced4db"/><stop offset="26.45%" stop-color="#fff"/><stop offset="37.68%" stop-color="#fff"/><stop offset="44.2%" stop-color="#cfe4ff"/><stop offset="72.83%" stop-color="#cfe4ff"/><stop offset="83.33%" stop-color="#c3f7c8"/></linearGradient><path d="M232-93c-1 65-40 97-104 97C67 4 28-28 28-90v-158h33c8 89-33 224 67 224 102 0 64-133 71-224h33v155" id="V"/><g id="t"><use transform="matrix(0.07407407407407407,0,0,0.07407407407407407,0,0)" xlink:href="#V"/><use transform="matrix(0.07407407407407407,0,0,0.07407407407407407,19.185185185185183,0)" xlink:href="#R"/><use transform="matrix(0.07407407407407407,0,0,0.07407407407407407,32.51851851851852,0)" xlink:href="#D"/><use transform="matrix(0.07407407407407407,0,0,0.07407407407407407,47.33333333333333,0)" xlink:href="#S"/><use transform="matrix(0.07407407407407407,0,0,0.07407407407407407,56.148148148148145,0)" xlink:href="#R"/></g><path d="M205 0l-28-72H64L36 0H1l101-248h38L239 0h-34zm-38-99l-47-123c-12 45-31 82-46 123h93" id="W"/><path d="M16-82v-28h88v28H16" id="X"/><path d="M63-220v92h138v28H63V0H30v-248h175v28H63" id="Y"/><g id="u"><use transform="matrix(0.07407407407407407,0,0,0.07407407407407407,0,0)" xlink:href="#W"/><use transform="matrix(0.07407407407407407,0,0,0.07407407407407407,17.77777777777778,0)" xlink:href="#X"/><use transform="matrix(0.07407407407407407,0,0,0.07407407407407407,26.592592592592595,0)" xlink:href="#Y"/></g><linearGradient gradientUnits="userSpaceOnUse" id="v" x1="980" y1="798.5" x2="980" y2="640"><stop offset="32.97%" stop-color="#ced4db"/><stop offset="45.29%" stop-color="#fff"/><stop offset="56.16%" stop-color="#fff"/><stop offset="67.03%" stop-color="#cfe4ff"/></linearGradient><g id="w"><use transform="matrix(0.07407407407407407,0,0,0.07407407407407407,0,0)" xlink:href="#W"/><use transform="matrix(0.07407407407407407,0,0,0.07407407407407407,17.77777777777778,0)" xlink:href="#I"/><use transform="matrix(0.07407407407407407,0,0,0.07407407407407407,23.62962962962963,0)" xlink:href="#I"/></g><g id="x"><use transform="matrix(0.07407407407407407,0,0,0.07407407407407407,0,0)" xlink:href="#V"/><use transform="matrix(0.07407407407407407,0,0,0.07407407407407407,19.185185185185183,0)" xlink:href="#R"/><use transform="matrix(0.07407407407407407,0,0,0.07407407407407407,32.51851851851852,0)" xlink:href="#D"/><use transform="matrix(0.07407407407407407,0,0,0.07407407407407407,47.33333333333333,0)" xlink:href="#S"/><use transform="matrix(0.07407407407407407,0,0,0.07407407407407407,56.148148148148145,0)" xlink:href="#R"/></g><linearGradient gradientUnits="userSpaceOnUse" id="y" x1="321.5" y1="758.5" x2="321.5" y2="558.5"><stop offset="17.39%" stop-color="#ced4db"/><stop offset="26.45%" stop-color="#fff"/><stop offset="44.57%" stop-color="#fff"/><stop offset="51.81%" stop-color="#cfe4ff"/><stop offset="72.83%" stop-color="#cfe4ff"/><stop offset="83.33%" stop-color="#c3f7c8"/></linearGradient><linearGradient gradientUnits="userSpaceOnUse" id="z" x1="301.5" y1="778.5" x2="301.5" y2="578.5"><stop offset="17.39%" stop-color="#ced4db"/><stop offset="26.45%" stop-color="#fff"/><stop offset="44.57%" stop-color="#fff"/><stop offset="51.81%" stop-color="#cfe4ff"/><stop offset="72.83%" stop-color="#cfe4ff"/><stop offset="83.33%" stop-color="#c3f7c8"/></linearGradient><linearGradient gradientUnits="userSpaceOnUse" id="A" x1="281.5" y1="798.5" x2="281.5" y2="598.5"><stop offset="17.39%" stop-color="#ced4db"/><stop offset="26.45%" stop-color="#fff"/><stop offset="44.57%" stop-color="#fff"/><stop offset="51.81%" stop-color="#cfe4ff"/><stop offset="72.83%" stop-color="#cfe4ff"/><stop offset="83.33%" stop-color="#c3f7c8"/></linearGradient></defs></g></svg>