<svg xmlns="http://www.w3.org/2000/svg" xmlns:xlink="http://www.w3.org/1999/xlink" xmlns:lucid="lucid" width="1065.5" height="324.5"><g transform="translate(-275.99993750000027 -557.0000249999999)" lucid:page-tab-id="0_0"><path d="M858 824.34v-28.68M862 824.34v-28.68M870 819.18l-10 17.32-10-17.32m10 17.32V828M850 800.82l10-17.32 10 17.32m-10-17.32v8.5" stroke="#008a0e" stroke-width="2" fill="none"/><path d="M878 824.34v-50.18M882 824.34v-50.18M890 819.18l-10 17.32-10-17.32m10 17.32V828M870 779.32L880 762l10 17.32M880 762v8.5" stroke="#82755b" stroke-width="2" fill="none"/><path d="M898 824.34v-68.68M902 824.34v-68.68M910 819.18l-10 17.32-10-17.32m10 17.32V828M890 760.82l10-17.32 10 17.32m-10-17.32v8.5" stroke="#1071e5" stroke-width="2" fill="none"/><path d="M600 666a6 6 0 0 1 6-6h42a6 6 0 0 0 6-6v-8a2.3 2.3 0 0 1 4-1.54l28 31.08a6.67 6.67 0 0 1 0 8.92l-28 31.08a2.3 2.3 0 0 1-4-1.54v-8a6 6 0 0 0-6-6h-42a6 6 0 0 1-6-6z" fill="#fc9432"/><path d="M1080 704.5a6 6 0 0 1 6-6h248a6 6 0 0 1 6 6V874a6 6 0 0 1-6 6h-248a6 6 0 0 1-6-6z" stroke="#000" stroke-opacity="0" stroke-width="3" fill="#fff" fill-opacity="0"/><use xlink:href="#a" transform="matrix(1,0,0,1,1085,703.5000249999999) translate(30.40740740740742 26.708333333333332)"/><use xlink:href="#b" transform="matrix(1,0,0,1,1085,703.5000249999999) translate(83.66666666666667 26.708333333333332)"/><use xlink:href="#c" transform="matrix(1,0,0,1,1085,703.5000249999999) translate(4.333333333333343 58.70833333333333)"/><use xlink:href="#d" transform="matrix(1,0,0,1,1085,703.5000249999999) translate(121.29629629629628 58.70833333333333)"/><use xlink:href="#e" transform="matrix(1,0,0,1,1085,703.5000249999999) translate(165.74074074074073 58.70833333333333)"/><use xlink:href="#f" transform="matrix(1,0,0,1,1085,703.5000249999999) translate(15.481481481481495 90.70833333333333)"/><use xlink:href="#g" transform="matrix(1,0,0,1,1085,703.5000249999999) translate(67.33333333333334 90.70833333333333)"/><use xlink:href="#h" transform="matrix(1,0,0,1,1085,703.5000249999999) translate(175.33333333333331 90.70833333333333)"/><use xlink:href="#i" transform="matrix(1,0,0,1,1085,703.5000249999999) translate(31.777777777777786 122.70833333333333)"/><use xlink:href="#j" transform="matrix(1,0,0,1,1085,703.5000249999999) translate(86.44444444444444 122.70833333333333)"/><use xlink:href="#k" transform="matrix(1,0,0,1,1085,703.5000249999999) translate(108.66666666666667 122.70833333333333)"/><use xlink:href="#l" transform="matrix(1,0,0,1,1085,703.5000249999999) translate(196 122.70833333333333)"/><use xlink:href="#m" transform="matrix(1,0,0,1,1085,703.5000249999999) translate(35.51851851851853 154.70833333333334)"/><path d="M760 860a20 20 0 0 1 20-20h200a20 20 0 0 1 20 20 20 20 0 0 1-20 20H780a20 20 0 0 1-20-20z" stroke="#54c45e" stroke-width="3" fill="#fff"/><use xlink:href="#n" transform="matrix(1,0,0,1,765,845) translate(47.042037037037055 23.208333333333332)"/><path d="M1002.25 859.33l2.3-2.08m3.1-2.78l4.6-4.16m3.1-2.77l4.6-4.16m3.1-2.78l4.6-4.18m3.1-2.77l4.6-4.17m3.1-2.77l4.6-4.16m3.1-2.77l4.6-4.17m3.1-2.77l4.62-4.17m3.08-2.78l4.62-4.16m3.08-2.78l4.62-4.16m3.08-2.78l2.3-2.08" stroke="#3a414a" stroke-width="2" fill="none"/><path d="M1002.92 860.04l-1.53 1.37.1-1.4-.1-1.23.2-.18zM1080 790.56l-.1.1-1.32-1.45 1.42-1.26z" stroke="#3a414a" stroke-width=".05" fill="#3a414a"/><path d="M800 578.5a20 20 0 0 1 20-20h160a20 20 0 0 1 20 20V720a20 20 0 0 1-20 20H820a20 20 0 0 1-20-20z" stroke="#1071e5" stroke-width="3" fill="url(#o)"/><path d="M780 598.5a20 20 0 0 1 20-20h160a20 20 0 0 1 20 20v140a20 20 0 0 1-20 20H800a20 20 0 0 1-20-20z" stroke="#82755b" stroke-width="3" fill="url(#p)"/><path d="M760 618.5a20 20 0 0 1 20-20h160a20 20 0 0 1 20 20V760a20 20 0 0 1-20 20H780a20 20 0 0 1-20-20z" stroke="#008a0e" stroke-width="3" fill="url(#q)"/><use xlink:href="#r" transform="matrix(1,0,0,1,765,603.5000249999999) translate(35.14814814814815 91.20833333333333)"/><use xlink:href="#s" transform="matrix(1,0,0,1,765,603.5000249999999) translate(112.03703703703704 91.20833333333333)"/><path d="M318.5 581.42a20 20 0 0 1 20-20h160a20 20 0 0 1 20 20v160a20 20 0 0 1-20 20h-160a20 20 0 0 1-20-20z" stroke="#1071e5" stroke-width="3" fill="url(#t)"/><path d="M519 681.42h-9.57m-9.57 0H480.7m-9.56 0H452m-9.57 0H423.3m-9.6 0h-19.13m-9.57 0h-19.14m-9.57 0h-19.16m-9.57 0H318" stroke="#fc9432" stroke-width="2" fill="none"/><path d="M520 682.4h-1.03v-1.96H520z" stroke="#fc9432" stroke-width=".05" fill="#fc9432"/><path d="M318.03 681.42H317M519 701.42h-9.57m-9.57 0H480.7m-9.56 0H452m-9.57 0H423.3m-9.6 0h-19.13m-9.57 0h-19.14m-9.57 0h-19.16m-9.57 0H318" stroke="#fc9432" stroke-width="2" fill="none"/><path d="M520 702.4h-1.03v-1.96H520zM318.03 702.4H317v-1.96h1.03z" stroke="#fc9432" stroke-width=".05" fill="#fc9432"/><path d="M301.5 600a20 20 0 0 1 20-20h160a20 20 0 0 1 20 20v160a20 20 0 0 1-20 20h-160a20 20 0 0 1-20-20z" stroke="#82755b" stroke-width="3" fill="url(#u)"/><path d="M502 720h-9.57m-9.57 0H463.7m-9.56 0H435m-9.57 0H406.3m-9.6 0h-19.13m-9.57 0h-19.14m-9.57 0h-19.16m-9.57 0H301" stroke="#fc9432" stroke-width="2" fill="none"/><path d="M503 720.98h-1.03V719H503zM301.03 720.98H300V719h1.03z" stroke="#fc9432" stroke-width=".05" fill="#fc9432"/><path d="M301 700h9.57m9.57 0h19.15m9.56 0H368m9.57 0h19.14m9.6 0h19.13m9.57 0h19.14m9.57 0h19.16m9.57 0H502M301.03 700H300" stroke="#fc9432" stroke-width="2" fill="none"/><path d="M503 700.98h-1.03V699H503z" stroke="#fc9432" stroke-width=".05" fill="#fc9432"/><path d="M281.5 620a20 20 0 0 1 20-20h160a20 20 0 0 1 20 20v160a20 20 0 0 1-20 20h-160a20 20 0 0 1-20-20z" stroke="#008a0e" stroke-width="3" fill="url(#v)"/><use xlink:href="#r" transform="matrix(1,0,0,1,286.49993750000027,605) translate(35.14814814814815 98.52083333333333)"/><use xlink:href="#s" transform="matrix(1,0,0,1,286.49993750000027,605) translate(112.03703703703704 98.52083333333333)"/><path d="M482 740h-9.57m-9.57 0H443.7m-9.56 0H415m-9.57 0H386.3m-9.6 0h-19.13m-9.57 0h-19.14m-9.57 0h-19.16m-9.57 0H281" stroke="#fc9432" stroke-width="2" fill="none"/><path d="M483 740.98h-1.03V739H483zM281.03 740.98H280V739h1.03z" stroke="#fc9432" stroke-width=".05" fill="#fc9432"/><path d="M482 720h-9.57m-9.57 0H443.7m-9.56 0H415m-9.57 0H386.3m-9.6 0h-19.13m-9.57 0h-19.14m-9.57 0h-19.16m-9.57 0H281" stroke="#fc9432" stroke-width="2" fill="none"/><path d="M483 720.98h-1.03V719H483zM281.03 720.98H280V719h1.03z" stroke="#fc9432" stroke-width=".05" fill="#fc9432"/><path d="M497.16 728.67H554a4 4 0 0 0 4-4v-27.25a4 4 0 0 0-4-4h-19.84" stroke="#000" stroke-width="2" fill="none"/><path d="M497.16 732.67H554a8 8 0 0 0 8-8v-27.25a8 8 0 0 0-8-8h-19.84" stroke="#000" stroke-width="2" fill="none"/><path d="M502.32 740.67l-17.32-10 17.32-10m-17.32 10h8.5M539.32 701.42l-17.32-10 17.32-10m-17.32 10h8.5" stroke="#000" stroke-width="2" fill="none"/><path d="M517.16 708.67H537a8 8 0 0 1 8 8v8a8 8 0 0 1-8 8h-39.84" stroke="#000" stroke-width="2" fill="none"/><path d="M517.16 712.67H537a4 4 0 0 1 4 4v8a4 4 0 0 1-4 4h-39.84" stroke="#000" stroke-width="2" fill="none"/><path d="M522.32 720.67l-17.32-10 17.32-10m-17.32 10h8.5M502.32 740.67l-17.32-10 17.32-10m-17.32 10h8.5" stroke="#000" stroke-width="2" fill="none"/><path d="M534.16 689.42H554a8 8 0 0 1 8 8v7.25a8 8 0 0 1-8 8h-36.84" stroke="#000" stroke-width="2" fill="none"/><path d="M534.16 693.42H554a4 4 0 0 1 4 4v7.25a4 4 0 0 1-4 4h-36.84" stroke="#000" stroke-width="2" fill="none"/><path d="M539.32 701.42l-17.32-10 17.32-10m-17.32 10h8.5M522.32 720.67l-17.32-10 17.32-10m-17.32 10h8.5" stroke="#000" stroke-width="2" fill="none"/><defs><path d="M127-220V0H93v-220H8v-28h204v28h-85" id="w"/><path d="M106-169C34-169 62-67 57 0H25v-261h32l-1 103c12-21 28-36 61-36 89 0 53 116 60 194h-32v-121c2-32-8-49-39-48" id="x"/><path d="M100-194c63 0 86 42 84 106H49c0 40 14 67 53 68 26 1 43-12 49-29l28 8c-11 28-37 45-77 45C44 4 14-33 15-96c1-61 26-98 85-98zm52 81c6-60-76-77-97-28-3 7-6 17-6 28h103" id="y"/><g id="a"><use transform="matrix(0.07407407407407407,0,0,0.07407407407407407,0,0)" xlink:href="#w"/><use transform="matrix(0.07407407407407407,0,0,0.07407407407407407,16.22222222222222,0)" xlink:href="#x"/><use transform="matrix(0.07407407407407407,0,0,0.07407407407407407,31.037037037037035,0)" xlink:href="#y"/></g><path d="M222 0l43-216c-8 16-17 34-26 49L143 0h-22L81-216 41 0H11l48-248h42l38 208 116-208h45L252 0h-30" id="z"/><path d="M50-231l6-30h32l-6 30H50zM6 0l37-190h31L37 0H6" id="A"/><path d="M133-28C103 26-5 8 13-77c13-62 24-115 90-117 29-1 46 15 56 35l19-102h32L160 0h-30zM45-64c-2 27 10 43 35 43 54-1 69-50 69-103 0-29-15-46-42-46-53-1-58 58-62 106" id="B"/><path d="M6 0l50-261h32L37 0H6" id="C"/><path d="M111-194c62-3 86 47 72 106H45c-7 38 6 69 45 68 27-1 43-14 53-32l24 11C152-15 129 4 87 4 38 3 12-23 12-71c0-70 32-119 99-123zm44 81c14-66-71-72-95-28-4 8-8 17-11 28h106" id="D"/><path d="M188 0h-37l-8-164L71 0H34L18-190h31l8 164 75-164h34l8 164 74-164h31" id="E"/><path d="M165-48c-4 18 1 34 23 27l-3 20c-29 8-62 0-52-35h-2C116-14 99 4 63 4 30 4 8-16 8-49c0-68 71-67 138-67 10-26 0-56-31-54-26 1-42 9-47 31l-32-5c8-67 160-71 144 15-5 28-9 54-15 81zM42-50c3 52 80 24 89-6 7-12 7-24 11-38-47 1-103-4-100 44" id="F"/><path d="M66-151c12-25 30-51 66-40l-6 26C45-176 58-65 38 0H6l36-190h30" id="G"/><g id="b"><use transform="matrix(0.07407407407407407,0,0,0.07407407407407407,0,0)" xlink:href="#z"/><use transform="matrix(0.07407407407407407,0,0,0.07407407407407407,22.148148148148145,0)" xlink:href="#A"/><use transform="matrix(0.07407407407407407,0,0,0.07407407407407407,28,0)" xlink:href="#B"/><use transform="matrix(0.07407407407407407,0,0,0.07407407407407407,42.81481481481481,0)" xlink:href="#B"/><use transform="matrix(0.07407407407407407,0,0,0.07407407407407407,57.62962962962962,0)" xlink:href="#C"/><use transform="matrix(0.07407407407407407,0,0,0.07407407407407407,63.48148148148147,0)" xlink:href="#D"/><use transform="matrix(0.07407407407407407,0,0,0.07407407407407407,78.29629629629628,0)" xlink:href="#E"/><use transform="matrix(0.07407407407407407,0,0,0.07407407407407407,97.48148148148145,0)" xlink:href="#F"/><use transform="matrix(0.07407407407407407,0,0,0.07407407407407407,112.29629629629628,0)" xlink:href="#G"/><use transform="matrix(0.07407407407407407,0,0,0.07407407407407407,121.11111111111109,0)" xlink:href="#D"/></g><path d="M210-169c-67 3-38 105-44 169h-31v-121c0-29-5-50-35-48C34-165 62-65 56 0H25l-1-190h30c1 10-1 24 2 32 10-44 99-50 107 0 11-21 27-35 58-36 85-2 47 119 55 194h-31v-121c0-29-5-49-35-48" id="H"/><path d="M141-36C126-15 110 5 73 4 37 3 15-17 15-53c-1-64 63-63 125-63 3-35-9-54-41-54-24 1-41 7-42 31l-33-3c5-37 33-52 76-52 45 0 72 20 72 64v82c-1 20 7 32 28 27v20c-31 9-61-2-59-35zM48-53c0 20 12 33 32 33 41-3 63-29 60-74-43 2-92-5-92 41" id="I"/><path d="M117-194c89-4 53 116 60 194h-32v-121c0-31-8-49-39-48C34-167 62-67 57 0H25l-1-190h30c1 10-1 24 2 32 11-22 29-35 61-36" id="J"/><path d="M177-190C167-65 218 103 67 71c-23-6-38-20-44-43l32-5c15 47 100 32 89-28v-30C133-14 115 1 83 1 29 1 15-40 15-95c0-56 16-97 71-98 29-1 48 16 59 35 1-10 0-23 2-32h30zM94-22c36 0 50-32 50-73 0-42-14-75-50-75-39 0-46 34-46 75s6 73 46 73" id="K"/><path d="M135-143c-3-34-86-38-87 0 15 53 115 12 119 90S17 21 10-45l28-5c4 36 97 45 98 0-10-56-113-15-118-90-4-57 82-63 122-42 12 7 21 19 24 35" id="L"/><g id="c"><use transform="matrix(0.07407407407407407,0,0,0.07407407407407407,0,0)" xlink:href="#H"/><use transform="matrix(0.07407407407407407,0,0,0.07407407407407407,22.148148148148145,0)" xlink:href="#I"/><use transform="matrix(0.07407407407407407,0,0,0.07407407407407407,36.96296296296296,0)" xlink:href="#J"/><use transform="matrix(0.07407407407407407,0,0,0.07407407407407407,51.77777777777777,0)" xlink:href="#I"/><use transform="matrix(0.07407407407407407,0,0,0.07407407407407407,66.59259259259258,0)" xlink:href="#K"/><use transform="matrix(0.07407407407407407,0,0,0.07407407407407407,81.40740740740739,0)" xlink:href="#y"/><use transform="matrix(0.07407407407407407,0,0,0.07407407407407407,96.2222222222222,0)" xlink:href="#L"/></g><path d="M59-47c-2 24 18 29 38 22v24C64 9 27 4 27-40v-127H5v-23h24l9-43h21v43h35v23H59v120" id="M"/><g id="d"><use transform="matrix(0.07407407407407407,0,0,0.07407407407407407,0,0)" xlink:href="#M"/><use transform="matrix(0.07407407407407407,0,0,0.07407407407407407,7.4074074074074066,0)" xlink:href="#x"/><use transform="matrix(0.07407407407407407,0,0,0.07407407407407407,22.22222222222222,0)" xlink:href="#y"/></g><path d="M114-163C36-179 61-72 57 0H25l-1-190h30c1 12-1 29 2 39 6-27 23-49 58-41v29" id="N"/><path d="M85-194c31 0 48 13 60 33l-1-100h32l1 261h-30c-2-10 0-23-3-31C134-8 116 4 85 4 32 4 16-35 15-94c0-66 23-100 70-100zm9 24c-40 0-46 34-46 75 0 40 6 74 45 74 42 0 51-32 51-76 0-42-9-74-50-73" id="O"/><g id="e"><use transform="matrix(0.07407407407407407,0,0,0.07407407407407407,0,0)" xlink:href="#L"/><use transform="matrix(0.07407407407407407,0,0,0.07407407407407407,13.333333333333332,0)" xlink:href="#x"/><use transform="matrix(0.07407407407407407,0,0,0.07407407407407407,28.148148148148145,0)" xlink:href="#I"/><use transform="matrix(0.07407407407407407,0,0,0.07407407407407407,42.96296296296296,0)" xlink:href="#N"/><use transform="matrix(0.07407407407407407,0,0,0.07407407407407407,51.77777777777777,0)" xlink:href="#O"/><use transform="matrix(0.07407407407407407,0,0,0.07407407407407407,66.5925925925926,0)" xlink:href="#L"/></g><g id="f"><use transform="matrix(0.07407407407407407,0,0,0.07407407407407407,0,0)" xlink:href="#I"/><use transform="matrix(0.07407407407407407,0,0,0.07407407407407407,14.814814814814813,0)" xlink:href="#J"/><use transform="matrix(0.07407407407407407,0,0,0.07407407407407407,29.629629629629626,0)" xlink:href="#O"/></g><path d="M115-194c55 1 70 41 70 98S169 2 115 4C84 4 66-9 55-30l1 105H24l-1-265h31l2 30c10-21 28-34 59-34zm-8 174c40 0 45-34 45-75s-6-73-45-74c-42 0-51 32-51 76 0 43 10 73 51 73" id="P"/><path d="M100-194c62-1 85 37 85 99 1 63-27 99-86 99S16-35 15-95c0-66 28-99 85-99zM99-20c44 1 53-31 53-75 0-43-8-75-51-75s-53 32-53 75 10 74 51 75" id="Q"/><path d="M108 0H70L1-190h34L89-25l56-165h34" id="R"/><path d="M24-231v-30h32v30H24zM24 0v-190h32V0H24" id="S"/><g id="g"><use transform="matrix(0.07407407407407407,0,0,0.07407407407407407,0,0)" xlink:href="#P"/><use transform="matrix(0.07407407407407407,0,0,0.07407407407407407,14.814814814814813,0)" xlink:href="#N"/><use transform="matrix(0.07407407407407407,0,0,0.07407407407407407,23.629629629629623,0)" xlink:href="#Q"/><use transform="matrix(0.07407407407407407,0,0,0.07407407407407407,38.44444444444444,0)" xlink:href="#R"/><use transform="matrix(0.07407407407407407,0,0,0.07407407407407407,51.77777777777777,0)" xlink:href="#S"/><use transform="matrix(0.07407407407407407,0,0,0.07407407407407407,57.62962962962962,0)" xlink:href="#O"/><use transform="matrix(0.07407407407407407,0,0,0.07407407407407407,72.44444444444443,0)" xlink:href="#y"/><use transform="matrix(0.07407407407407407,0,0,0.07407407407407407,87.25925925925924,0)" xlink:href="#L"/></g><g id="h"><use transform="matrix(0.07407407407407407,0,0,0.07407407407407407,0,0)" xlink:href="#M"/><use transform="matrix(0.07407407407407407,0,0,0.07407407407407407,7.4074074074074066,0)" xlink:href="#x"/><use transform="matrix(0.07407407407407407,0,0,0.07407407407407407,22.22222222222222,0)" xlink:href="#y"/><use transform="matrix(0.07407407407407407,0,0,0.07407407407407407,37.03703703703704,0)" xlink:href="#H"/></g><path d="M206 0h-36l-40-164L89 0H53L-1-190h32L70-26l43-164h34l41 164 42-164h31" id="T"/><g id="i"><use transform="matrix(0.07407407407407407,0,0,0.07407407407407407,0,0)" xlink:href="#T"/><use transform="matrix(0.07407407407407407,0,0,0.07407407407407407,19.185185185185183,0)" xlink:href="#S"/><use transform="matrix(0.07407407407407407,0,0,0.07407407407407407,25.037037037037035,0)" xlink:href="#M"/><use transform="matrix(0.07407407407407407,0,0,0.07407407407407407,32.44444444444444,0)" xlink:href="#x"/></g><use transform="matrix(0.07407407407407407,0,0,0.07407407407407407,0,0)" xlink:href="#I" id="j"/><g id="k"><use transform="matrix(0.07407407407407407,0,0,0.07407407407407407,0,0)" xlink:href="#H"/><use transform="matrix(0.07407407407407407,0,0,0.07407407407407407,22.148148148148145,0)" xlink:href="#y"/><use transform="matrix(0.07407407407407407,0,0,0.07407407407407407,36.96296296296296,0)" xlink:href="#I"/><use transform="matrix(0.07407407407407407,0,0,0.07407407407407407,51.77777777777777,0)" xlink:href="#J"/><use transform="matrix(0.07407407407407407,0,0,0.07407407407407407,66.59259259259258,0)" xlink:href="#L"/></g><path d="M101-234c-31-9-42 10-38 44h38v23H63V0H32v-167H5v-23h27c-7-52 17-82 69-68v24" id="U"/><g id="l"><use transform="matrix(0.07407407407407407,0,0,0.07407407407407407,0,0)" xlink:href="#Q"/><use transform="matrix(0.07407407407407407,0,0,0.07407407407407407,14.814814814814813,0)" xlink:href="#U"/></g><path d="M96-169c-40 0-48 33-48 73s9 75 48 75c24 0 41-14 43-38l32 2c-6 37-31 61-74 61-59 0-76-41-82-99-10-93 101-131 147-64 4 7 5 14 7 22l-32 3c-4-21-16-35-41-35" id="V"/><path d="M84 4C-5 8 30-112 23-190h32v120c0 31 7 50 39 49 72-2 45-101 50-169h31l1 190h-30c-1-10 1-25-2-33-11 22-28 36-60 37" id="W"/><g id="m"><use transform="matrix(0.07407407407407407,0,0,0.07407407407407407,0,0)" xlink:href="#V"/><use transform="matrix(0.07407407407407407,0,0,0.07407407407407407,13.333333333333332,0)" xlink:href="#Q"/><use transform="matrix(0.07407407407407407,0,0,0.07407407407407407,28.148148148148145,0)" xlink:href="#H"/><use transform="matrix(0.07407407407407407,0,0,0.07407407407407407,50.29629629629629,0)" xlink:href="#H"/><use transform="matrix(0.07407407407407407,0,0,0.07407407407407407,72.44444444444443,0)" xlink:href="#W"/><use transform="matrix(0.07407407407407407,0,0,0.07407407407407407,87.25925925925924,0)" xlink:href="#J"/><use transform="matrix(0.07407407407407407,0,0,0.07407407407407407,102.07407407407405,0)" xlink:href="#S"/><use transform="matrix(0.07407407407407407,0,0,0.07407407407407407,107.92592592592591,0)" xlink:href="#V"/><use transform="matrix(0.07407407407407407,0,0,0.07407407407407407,121.25925925925922,0)" xlink:href="#I"/><use transform="matrix(0.07407407407407407,0,0,0.07407407407407407,136.07407407407405,0)" xlink:href="#M"/><use transform="matrix(0.07407407407407407,0,0,0.07407407407407407,143.48148148148147,0)" xlink:href="#S"/><use transform="matrix(0.07407407407407407,0,0,0.07407407407407407,149.33333333333331,0)" xlink:href="#Q"/><use transform="matrix(0.07407407407407407,0,0,0.07407407407407407,164.14814814814815,0)" xlink:href="#J"/></g><path d="M240 0l2-218c-23 76-54 145-80 218h-23L58-218 59 0H30v-248h44l77 211c21-75 51-140 76-211h43V0h-30" id="X"/><path d="M24 0v-261h32V0H24" id="Y"/><g id="n"><use transform="matrix(0.07407407407407407,0,0,0.07407407407407407,0,0)" xlink:href="#X"/><use transform="matrix(0.07407407407407407,0,0,0.07407407407407407,22.148148148148145,0)" xlink:href="#S"/><use transform="matrix(0.07407407407407407,0,0,0.07407407407407407,28,0)" xlink:href="#O"/><use transform="matrix(0.07407407407407407,0,0,0.07407407407407407,42.81481481481481,0)" xlink:href="#O"/><use transform="matrix(0.07407407407407407,0,0,0.07407407407407407,57.62962962962962,0)" xlink:href="#Y"/><use transform="matrix(0.07407407407407407,0,0,0.07407407407407407,63.48148148148147,0)" xlink:href="#y"/><use transform="matrix(0.07407407407407407,0,0,0.07407407407407407,78.29629629629628,0)" xlink:href="#T"/><use transform="matrix(0.07407407407407407,0,0,0.07407407407407407,97.48148148148145,0)" xlink:href="#I"/><use transform="matrix(0.07407407407407407,0,0,0.07407407407407407,112.29629629629628,0)" xlink:href="#N"/><use transform="matrix(0.07407407407407407,0,0,0.07407407407407407,121.11111111111109,0)" xlink:href="#y"/></g><linearGradient gradientUnits="userSpaceOnUse" id="o" x1="800" y1="740" x2="800" y2="558.5"><stop offset="17.39%" stop-color="#ced4db"/><stop offset="23.19%" stop-color="#fff"/><stop offset="34.42%" stop-color="#fff"/><stop offset="41.3%" stop-color="#cfe4ff"/><stop offset="72.83%" stop-color="#cfe4ff"/><stop offset="83.33%" stop-color="#c3f7c8"/></linearGradient><linearGradient gradientUnits="userSpaceOnUse" id="p" x1="780" y1="758.5" x2="780" y2="578.5"><stop offset="17.39%" stop-color="#ced4db"/><stop offset="23.19%" stop-color="#fff"/><stop offset="34.42%" stop-color="#fff"/><stop offset="41.3%" stop-color="#cfe4ff"/><stop offset="72.83%" stop-color="#cfe4ff"/><stop offset="83.33%" stop-color="#c3f7c8"/></linearGradient><linearGradient gradientUnits="userSpaceOnUse" id="q" x1="760" y1="780" x2="760" y2="598.5"><stop offset="17.39%" stop-color="#ced4db"/><stop offset="23.19%" stop-color="#fff"/><stop offset="34.42%" stop-color="#fff"/><stop offset="41.3%" stop-color="#cfe4ff"/><stop offset="72.83%" stop-color="#cfe4ff"/><stop offset="83.33%" stop-color="#c3f7c8"/></linearGradient><path d="M232-93c-1 65-40 97-104 97C67 4 28-28 28-90v-158h33c8 89-33 224 67 224 102 0 64-133 71-224h33v155" id="Z"/><g id="r"><use transform="matrix(0.07407407407407407,0,0,0.07407407407407407,0,0)" xlink:href="#Z"/><use transform="matrix(0.07407407407407407,0,0,0.07407407407407407,19.185185185185183,0)" xlink:href="#L"/><use transform="matrix(0.07407407407407407,0,0,0.07407407407407407,32.51851851851852,0)" xlink:href="#y"/><use transform="matrix(0.07407407407407407,0,0,0.07407407407407407,47.33333333333333,0)" xlink:href="#N"/><use transform="matrix(0.07407407407407407,0,0,0.07407407407407407,56.148148148148145,0)" xlink:href="#L"/></g><path d="M205 0l-28-72H64L36 0H1l101-248h38L239 0h-34zm-38-99l-47-123c-12 45-31 82-46 123h93" id="aa"/><path d="M16-82v-28h88v28H16" id="ab"/><path d="M63-220v92h138v28H63V0H30v-248h175v28H63" id="ac"/><g id="s"><use transform="matrix(0.07407407407407407,0,0,0.07407407407407407,0,0)" xlink:href="#aa"/><use transform="matrix(0.07407407407407407,0,0,0.07407407407407407,17.77777777777778,0)" xlink:href="#ab"/><use transform="matrix(0.07407407407407407,0,0,0.07407407407407407,26.592592592592595,0)" xlink:href="#ac"/></g><linearGradient gradientUnits="userSpaceOnUse" id="t" x1="318.5" y1="761.42" x2="318.5" y2="561.42"><stop offset="15.58%" stop-color="#ced4db"/><stop offset="22.46%" stop-color="#fff"/><stop offset="42.39%" stop-color="#fff"/><stop offset="46.38%" stop-color="#cfe4ff"/><stop offset="72.83%" stop-color="#cfe4ff"/><stop offset="83.33%" stop-color="#c3f7c8"/></linearGradient><linearGradient gradientUnits="userSpaceOnUse" id="u" x1="301.5" y1="780" x2="301.5" y2="580"><stop offset="15.58%" stop-color="#ced4db"/><stop offset="22.46%" stop-color="#fff"/><stop offset="42.39%" stop-color="#fff"/><stop offset="46.38%" stop-color="#cfe4ff"/><stop offset="72.83%" stop-color="#cfe4ff"/><stop offset="83.33%" stop-color="#c3f7c8"/></linearGradient><linearGradient gradientUnits="userSpaceOnUse" id="v" x1="281.5" y1="800" x2="281.5" y2="600"><stop offset="15.58%" stop-color="#ced4db"/><stop offset="22.46%" stop-color="#fff"/><stop offset="42.39%" stop-color="#fff"/><stop offset="46.38%" stop-color="#cfe4ff"/><stop offset="72.83%" stop-color="#cfe4ff"/><stop offset="83.33%" stop-color="#c3f7c8"/></linearGradient></defs></g></svg>