<svg xmlns="http://www.w3.org/2000/svg" xmlns:xlink="http://www.w3.org/1999/xlink" xmlns:lucid="lucid" width="1026.89" height="423"><g transform="translate(-274.61341382761117 -378.5)" lucid:page-tab-id="0_0"><path d="M600 666a6 6 0 0 1 6-6h42a6 6 0 0 0 6-6v-8a2.3 2.3 0 0 1 4-1.54l28 31.08a6.67 6.67 0 0 1 0 8.92l-28 31.08a2.3 2.3 0 0 1-4-1.54v-8a6 6 0 0 0-6-6h-42a6 6 0 0 1-6-6z" fill="#fc9432"/><path d="M320 578.5a20 20 0 0 1 20-20h160a20 20 0 0 1 20 20v160a20 20 0 0 1-20 20H340a20 20 0 0 1-20-20z" stroke="#cc4e00" stroke-width="3" fill="url(#a)"/><path d="M300 598.5a20 20 0 0 1 20-20h160a20 20 0 0 1 20 20v160a20 20 0 0 1-20 20H320a20 20 0 0 1-20-20z" stroke="#d916a8" stroke-width="3" fill="url(#b)"/><path d="M280 618.5a20 20 0 0 1 20-20h160a20 20 0 0 1 20 20v160a20 20 0 0 1-20 20H300a20 20 0 0 1-20-20z" stroke="#6db1ff" stroke-width="3" fill="url(#c)"/><use xlink:href="#d" transform="matrix(1,0,0,1,285,603.5000249999999) translate(35.14814814814815 98.52083333333333)"/><use xlink:href="#e" transform="matrix(1,0,0,1,285,603.5000249999999) translate(112.03703703703704 98.52083333333333)"/><path d="M380 461.5a20 20 0 0 1 20-20h100a20 20 0 0 1 20 20V480a20 20 0 0 1-20 20H400a20 20 0 0 1-20-20z" stroke="#cc4e00" stroke-width="3" fill="url(#f)"/><use xlink:href="#g" transform="matrix(1,0,0,1,385,446.4999687214331) translate(12.518518518518533 30.520833333333332)"/><path d="M379.8 483.5h9.35m9.36 0h18.74m9.36 0h18.72m9.36 0h18.72m9.36 0h18.73m9.35 0h9.36" stroke="#fc9432" stroke-width="2" fill="none"/><path d="M379.82 484.46h-.8l-.26-1.1-.07-.85h1.12zM521.24 483.36l-.26 1.1h-.8v-1.94h1.13z" stroke="#fc9432" stroke-width=".05" fill="#fc9432"/><path d="M349.95 522.5v56" stroke="#6db1ff" stroke-width="2" fill="none"/><path d="M350.93 522.53h-1.95v-1.03h1.95z" stroke="#6db1ff" stroke-width=".05" fill="#6db1ff"/><path d="M349.95 593.76l-4.63-14.26h9.27z" stroke="#6db1ff" stroke-width="2" fill="#6db1ff"/><path d="M449.95 502.5V540" stroke="#cc4e00" stroke-width="2" fill="none"/><path d="M450.93 502.53h-1.95v-1.03h1.95z" stroke="#cc4e00" stroke-width=".05" fill="#cc4e00"/><path d="M449.95 555.26L445.32 541h9.27z" stroke="#cc4e00" stroke-width="2" fill="#cc4e00"/><path d="M800 580a20 20 0 0 1 20-20h160a20 20 0 0 1 20 20v160a20 20 0 0 1-20 20H820a20 20 0 0 1-20-20z" stroke="#cc4e00" stroke-width="3" fill="url(#h)"/><path d="M780 600a20 20 0 0 1 20-20h160a20 20 0 0 1 20 20v160a20 20 0 0 1-20 20H800a20 20 0 0 1-20-20z" stroke="#d916a8" stroke-width="3" fill="url(#i)"/><path d="M760 620a20 20 0 0 1 20-20h160a20 20 0 0 1 20 20v160a20 20 0 0 1-20 20H780a20 20 0 0 1-20-20z" stroke="#6db1ff" stroke-width="3" fill="url(#j)"/><use xlink:href="#d" transform="matrix(1,0,0,1,765,605) translate(35.14814814814815 98.52083333333333)"/><use xlink:href="#e" transform="matrix(1,0,0,1,765,605) translate(112.03703703703704 98.52083333333333)"/><path d="M860 400a20 20 0 0 1 20-20h100a20 20 0 0 1 20 20 20 20 0 0 1-20 20H880a20 20 0 0 1-20-20z" stroke="#cc4e00" stroke-width="3" fill="#e8e2c8"/><use xlink:href="#g" transform="matrix(1,0,0,1,865,385) translate(12.52351851851853 23.208333333333332)"/><path d="M760 421.5a20 20 0 0 1 20-20h100a20 20 0 0 1 20 20 20 20 0 0 1-20 20H780a20 20 0 0 1-20-20z" stroke="#6db1ff" stroke-width="3" fill="#e8e2c8"/><use xlink:href="#k" transform="matrix(1,0,0,1,765,406.4999687214331) translate(22.07907407407408 23.208333333333332)"/><path d="M829.95 444v16" stroke="#6db1ff" stroke-width="2" fill="none"/><path d="M830.93 444.03h-1.95V443h1.95z" stroke="#6db1ff" stroke-width=".05" fill="#6db1ff"/><path d="M829.95 475.26L825.32 461h9.27z" stroke="#6db1ff" stroke-width="2" fill="#6db1ff"/><path d="M929.95 422.5V460" stroke="#cc4e00" stroke-width="2" fill="none"/><path d="M930.93 422.53h-1.95v-1.03h1.95z" stroke="#cc4e00" stroke-width=".05" fill="#cc4e00"/><path d="M929.95 475.26L925.32 461h9.27z" stroke="#cc4e00" stroke-width="2" fill="#cc4e00"/><path d="M760 500a20 20 0 0 1 20-20h200a20 20 0 0 1 20 20 20 20 0 0 1-20 20H780a20 20 0 0 1-20-20z" stroke="#54c45e" stroke-width="3" fill="#fff"/><use xlink:href="#l" transform="matrix(1,0,0,1,765,485) translate(24.005000000000003 23.208333333333332)"/><use xlink:href="#m" transform="matrix(1,0,0,1,765,485) translate(137.93092592592592 23.208333333333332)"/><path d="M828.95 479.5a1 1 0 0 1 1-1 1 1 0 0 1 1 1 1 1 0 0 1-1 1 1 1 0 0 1-1-1m0 3.93a1 1 0 0 1 1-1 1 1 0 0 1 1 1 1 1 0 0 1-1 1 1 1 0 0 1-1-1v-.02m0 3.94a1 1 0 0 1 1-1 1 1 0 0 1 1 1 1 1 0 0 1-1 1 1 1 0 0 1-1-1v-.02m0 3.94a1 1 0 0 1 1-1 1 1 0 0 1 1 1 1 1 0 0 1-1 1 1 1 0 0 1-1-1v-.02m0 3.94a1 1 0 0 1 1-1 1 1 0 0 1 1 1 1 1 0 0 1-1 1 1 1 0 0 1-1-1v-.03m0 3.94v-.02a1 1 0 0 1 1-1 1 1 0 0 1 1 1 1 1 0 0 1-1 1 1 1 0 0 1-1-1m0 3.93a1 1 0 0 1 1-1 1 1 0 0 1 1 1 1 1 0 0 1-1 1 1 1 0 0 1-1-1" fill="#6db1ff"/><path d="M830.93 479.53h-1.95v-1.03h1.95z" stroke="#6db1ff" stroke-width=".05" fill="#6db1ff"/><path d="M829.95 518.26L825.32 504h9.27z" stroke="#6db1ff" stroke-width="2" fill="#fff"/><path d="M928.95 479.5a1 1 0 0 1 1-1 1 1 0 0 1 1 1 1 1 0 0 1-1 1 1 1 0 0 1-1-1m0 4.4a1 1 0 0 1 1-1 1 1 0 0 1 1 1 1 1 0 0 1-1 1 1 1 0 0 1-1-1m0 4.4a1 1 0 0 1 1-1 1 1 0 0 1 1 1 1 1 0 0 1-1 1 1 1 0 0 1-1-1m0 4.4a1 1 0 0 1 1-1 1 1 0 0 1 1 1 1 1 0 0 1-1 1 1 1 0 0 1-1-1m0 4.4a1 1 0 0 1 1-1 1 1 0 0 1 1 1 1 1 0 0 1-1 1 1 1 0 0 1-1-1" fill="#cc4e00"/><path d="M930.93 479.53h-1.95v-1.03h1.95z" stroke="#cc4e00" stroke-width=".05" fill="#cc4e00"/><path d="M929.95 516.76l-4.63-14.26h9.27z" stroke="#cc4e00" stroke-width="2" fill="#fff"/><path d="M830 522.5V580" stroke="#6db1ff" stroke-width="2" fill="none"/><path d="M830.98 522.53H829v-1.03H831z" stroke="#6db1ff" stroke-width=".05" fill="#6db1ff"/><path d="M830 595.26L825.37 581h9.26z" stroke="#6db1ff" stroke-width="2" fill="#6db1ff"/><path d="M930 522.5V540" stroke="#cc4e00" stroke-width="2" fill="none"/><path d="M930.98 522.53H929v-1.03H931z" stroke="#cc4e00" stroke-width=".05" fill="#cc4e00"/><path d="M930 555.26L925.37 541h9.26z" stroke="#cc4e00" stroke-width="2" fill="#cc4e00"/><path d="M1080 436a6 6 0 0 1 6-6h208a6 6 0 0 1 6 6v128a6 6 0 0 1-6 6h-208a6 6 0 0 1-6-6z" stroke="#000" stroke-opacity="0" stroke-width="3" fill="#fff" fill-opacity="0"/><use xlink:href="#n" transform="matrix(1,0,0,1,1085,434.9999999771464) translate(25.111111111111114 25.395833333333332)"/><use xlink:href="#o" transform="matrix(1,0,0,1,1085,434.9999999771464) translate(78.37037037037037 25.395833333333332)"/><use xlink:href="#p" transform="matrix(1,0,0,1,1085,434.9999999771464) translate(29.518518518518533 57.39583333333333)"/><use xlink:href="#q" transform="matrix(1,0,0,1,1085,434.9999999771464) translate(105 57.39583333333333)"/><use xlink:href="#r" transform="matrix(1,0,0,1,1085,434.9999999771464) translate(8.814814814814824 89.39583333333333)"/><use xlink:href="#s" transform="matrix(1,0,0,1,1085,434.9999999771464) translate(84.22222222222221 89.39583333333333)"/><use xlink:href="#t" transform="matrix(1,0,0,1,1085,434.9999999771464) translate(158.22222222222223 89.39583333333333)"/><use xlink:href="#u" transform="matrix(1,0,0,1,1085,434.9999999771464) translate(12.925925925925938 121.39583333333333)"/><use xlink:href="#v" transform="matrix(1,0,0,1,1085,434.9999999771464) translate(57.37037037037038 121.39583333333333)"/><use xlink:href="#w" transform="matrix(1,0,0,1,1085,434.9999999771464) translate(145.22222222222223 121.39583333333333)"/><path d="M1002.5 500h2.87m3.83 0h5.73m3.83 0h5.74m3.82 0h5.74m3.82 0h5.74m3.83 0h5.73m3.83 0h5.74m3.83 0h5.74m3.83 0h2.87" stroke="#3a414a" stroke-width="2" fill="none"/><path d="M1002.53 500.98h-1.1l.08-.98-.07-.98h1.1zM1080 500.98h-1.03v-1.96h1.03z" stroke="#3a414a" stroke-width=".05" fill="#3a414a"/><path d="M280 480a20 20 0 0 1 20-20h100a20 20 0 0 1 20 20v20a20 20 0 0 1-20 20H300a20 20 0 0 1-20-20z" stroke="#6db1ff" stroke-width="3" fill="url(#x)"/><g><use xlink:href="#k" transform="matrix(1,0,0,1,285,465) translate(22.074074074074083 30.708333333333332)"/></g><path d="M279.6 501.5h9.25m9.24 0h18.47m9.24 0h18.5m9.23 0H372m9.24 0h18.48m9.24 0h9.24" stroke="#fc9432" stroke-width="2" fill="none"/><path d="M279.64 502.48h-.95l-.16-1.96h1.1zM422.2 502.48h-4.03v-.98h4.03z" stroke="#fc9432" stroke-width=".05" fill="#fc9432"/><defs><linearGradient gradientUnits="userSpaceOnUse" id="a" x1="320" y1="758.5" x2="320" y2="558.5"><stop offset="17.39%" stop-color="#ced4db"/><stop offset="26.45%" stop-color="#fff"/><stop offset="44.57%" stop-color="#fff"/><stop offset="51.81%" stop-color="#cfe4ff"/><stop offset="72.83%" stop-color="#cfe4ff"/><stop offset="83.33%" stop-color="#c3f7c8"/></linearGradient><linearGradient gradientUnits="userSpaceOnUse" id="b" x1="300" y1="778.5" x2="300" y2="578.5"><stop offset="17.39%" stop-color="#ced4db"/><stop offset="26.45%" stop-color="#fff"/><stop offset="44.57%" stop-color="#fff"/><stop offset="51.81%" stop-color="#cfe4ff"/><stop offset="72.83%" stop-color="#cfe4ff"/><stop offset="83.33%" stop-color="#c3f7c8"/></linearGradient><linearGradient gradientUnits="userSpaceOnUse" id="c" x1="280" y1="798.5" x2="280" y2="598.5"><stop offset="17.39%" stop-color="#ced4db"/><stop offset="26.45%" stop-color="#fff"/><stop offset="44.57%" stop-color="#fff"/><stop offset="51.81%" stop-color="#cfe4ff"/><stop offset="72.83%" stop-color="#cfe4ff"/><stop offset="83.33%" stop-color="#c3f7c8"/></linearGradient><path d="M232-93c-1 65-40 97-104 97C67 4 28-28 28-90v-158h33c8 89-33 224 67 224 102 0 64-133 71-224h33v155" id="y"/><path d="M135-143c-3-34-86-38-87 0 15 53 115 12 119 90S17 21 10-45l28-5c4 36 97 45 98 0-10-56-113-15-118-90-4-57 82-63 122-42 12 7 21 19 24 35" id="z"/><path d="M100-194c63 0 86 42 84 106H49c0 40 14 67 53 68 26 1 43-12 49-29l28 8c-11 28-37 45-77 45C44 4 14-33 15-96c1-61 26-98 85-98zm52 81c6-60-76-77-97-28-3 7-6 17-6 28h103" id="A"/><path d="M114-163C36-179 61-72 57 0H25l-1-190h30c1 12-1 29 2 39 6-27 23-49 58-41v29" id="B"/><g id="d"><use transform="matrix(0.07407407407407407,0,0,0.07407407407407407,0,0)" xlink:href="#y"/><use transform="matrix(0.07407407407407407,0,0,0.07407407407407407,19.185185185185183,0)" xlink:href="#z"/><use transform="matrix(0.07407407407407407,0,0,0.07407407407407407,32.51851851851852,0)" xlink:href="#A"/><use transform="matrix(0.07407407407407407,0,0,0.07407407407407407,47.33333333333333,0)" xlink:href="#B"/><use transform="matrix(0.07407407407407407,0,0,0.07407407407407407,56.148148148148145,0)" xlink:href="#z"/></g><path d="M205 0l-28-72H64L36 0H1l101-248h38L239 0h-34zm-38-99l-47-123c-12 45-31 82-46 123h93" id="C"/><path d="M16-82v-28h88v28H16" id="D"/><path d="M63-220v92h138v28H63V0H30v-248h175v28H63" id="E"/><g id="e"><use transform="matrix(0.07407407407407407,0,0,0.07407407407407407,0,0)" xlink:href="#C"/><use transform="matrix(0.07407407407407407,0,0,0.07407407407407407,17.77777777777778,0)" xlink:href="#D"/><use transform="matrix(0.07407407407407407,0,0,0.07407407407407407,26.592592592592595,0)" xlink:href="#E"/></g><linearGradient gradientUnits="userSpaceOnUse" id="f" x1="380" y1="441.5" x2="380" y2="500"><stop offset="63.41%" stop-color="#e8e2c8"/><stop offset="76.81%" stop-color="#fff"/></linearGradient><path d="M209 0H11v-25l151-195H24v-28h176v25L50-27h159V0" id="F"/><path d="M100-194c62-1 85 37 85 99 1 63-27 99-86 99S16-35 15-95c0-66 28-99 85-99zM99-20c44 1 53-31 53-75 0-43-8-75-51-75s-53 32-53 75 10 74 51 75" id="G"/><path d="M24-231v-30h32v30H24zM24 0v-190h32V0H24" id="H"/><path d="M85-194c31 0 48 13 60 33l-1-100h32l1 261h-30c-2-10 0-23-3-31C134-8 116 4 85 4 32 4 16-35 15-94c0-66 23-100 70-100zm9 24c-40 0-46 34-46 75 0 40 6 74 45 74 42 0 51-32 51-76 0-42-9-74-50-73" id="I"/><path d="M115-194c53 0 69 39 70 98 0 66-23 100-70 100C84 3 66-7 56-30L54 0H23l1-261h32v101c10-23 28-34 59-34zm-8 174c40 0 45-34 45-75 0-40-5-75-45-74-42 0-51 32-51 76 0 43 10 73 51 73" id="J"/><path d="M177-190C167-65 218 103 67 71c-23-6-38-20-44-43l32-5c15 47 100 32 89-28v-30C133-14 115 1 83 1 29 1 15-40 15-95c0-56 16-97 71-98 29-1 48 16 59 35 1-10 0-23 2-32h30zM94-22c36 0 50-32 50-73 0-42-14-75-50-75-39 0-46 34-46 75s6 73 46 73" id="K"/><g id="g"><use transform="matrix(0.07407407407407407,0,0,0.07407407407407407,0,0)" xlink:href="#F"/><use transform="matrix(0.07407407407407407,0,0,0.07407407407407407,16.22222222222222,0)" xlink:href="#G"/><use transform="matrix(0.07407407407407407,0,0,0.07407407407407407,31.037037037037035,0)" xlink:href="#H"/><use transform="matrix(0.07407407407407407,0,0,0.07407407407407407,36.888888888888886,0)" xlink:href="#I"/><use transform="matrix(0.07407407407407407,0,0,0.07407407407407407,51.703703703703695,0)" xlink:href="#J"/><use transform="matrix(0.07407407407407407,0,0,0.07407407407407407,66.5185185185185,0)" xlink:href="#A"/><use transform="matrix(0.07407407407407407,0,0,0.07407407407407407,81.33333333333331,0)" xlink:href="#B"/><use transform="matrix(0.07407407407407407,0,0,0.07407407407407407,90.14814814814812,0)" xlink:href="#K"/></g><linearGradient gradientUnits="userSpaceOnUse" id="h" x1="800" y1="760" x2="800" y2="560"><stop offset="17.39%" stop-color="#ced4db"/><stop offset="26.45%" stop-color="#fff"/><stop offset="44.57%" stop-color="#fff"/><stop offset="51.81%" stop-color="#cfe4ff"/><stop offset="72.83%" stop-color="#cfe4ff"/><stop offset="83.33%" stop-color="#c3f7c8"/></linearGradient><linearGradient gradientUnits="userSpaceOnUse" id="i" x1="780" y1="780" x2="780" y2="580"><stop offset="17.39%" stop-color="#ced4db"/><stop offset="26.45%" stop-color="#fff"/><stop offset="44.57%" stop-color="#fff"/><stop offset="51.81%" stop-color="#cfe4ff"/><stop offset="72.83%" stop-color="#cfe4ff"/><stop offset="83.33%" stop-color="#c3f7c8"/></linearGradient><linearGradient gradientUnits="userSpaceOnUse" id="j" x1="760" y1="800" x2="760" y2="600"><stop offset="17.39%" stop-color="#ced4db"/><stop offset="26.45%" stop-color="#fff"/><stop offset="44.57%" stop-color="#fff"/><stop offset="51.81%" stop-color="#cfe4ff"/><stop offset="72.83%" stop-color="#cfe4ff"/><stop offset="83.33%" stop-color="#c3f7c8"/></linearGradient><path d="M160-131c35 5 61 23 61 61C221 17 115-2 30 0v-248c76 3 177-17 177 60 0 33-19 50-47 57zm-97-11c50-1 110 9 110-42 0-47-63-36-110-37v79zm0 115c55-2 124 14 124-45 0-56-70-42-124-44v89" id="L"/><path d="M117-194c89-4 53 116 60 194h-32v-121c0-31-8-49-39-48C34-167 62-67 57 0H25l-1-190h30c1 10-1 24 2 32 11-22 29-35 61-36" id="M"/><g id="k"><use transform="matrix(0.07407407407407407,0,0,0.07407407407407407,0,0)" xlink:href="#L"/><use transform="matrix(0.07407407407407407,0,0,0.07407407407407407,17.77777777777778,0)" xlink:href="#A"/><use transform="matrix(0.07407407407407407,0,0,0.07407407407407407,32.592592592592595,0)" xlink:href="#M"/><use transform="matrix(0.07407407407407407,0,0,0.07407407407407407,47.407407407407405,0)" xlink:href="#I"/><use transform="matrix(0.07407407407407407,0,0,0.07407407407407407,62.22222222222221,0)" xlink:href="#A"/><use transform="matrix(0.07407407407407407,0,0,0.07407407407407407,77.03703703703701,0)" xlink:href="#B"/></g><path d="M185-189c-5-48-123-54-124 2 14 75 158 14 163 119 3 78-121 87-175 55-17-10-28-26-33-46l33-7c5 56 141 63 141-1 0-78-155-14-162-118-5-82 145-84 179-34 5 7 8 16 11 25" id="N"/><path d="M106-169C34-169 62-67 57 0H25v-261h32l-1 103c12-21 28-36 61-36 89 0 53 116 60 194h-32v-121c2-32-8-49-39-48" id="O"/><path d="M141-36C126-15 110 5 73 4 37 3 15-17 15-53c-1-64 63-63 125-63 3-35-9-54-41-54-24 1-41 7-42 31l-33-3c5-37 33-52 76-52 45 0 72 20 72 64v82c-1 20 7 32 28 27v20c-31 9-61-2-59-35zM48-53c0 20 12 33 32 33 41-3 63-29 60-74-43 2-92-5-92 41" id="P"/><g id="l"><use transform="matrix(0.07407407407407407,0,0,0.07407407407407407,0,0)" xlink:href="#N"/><use transform="matrix(0.07407407407407407,0,0,0.07407407407407407,17.77777777777778,0)" xlink:href="#O"/><use transform="matrix(0.07407407407407407,0,0,0.07407407407407407,32.592592592592595,0)" xlink:href="#P"/><use transform="matrix(0.07407407407407407,0,0,0.07407407407407407,47.407407407407405,0)" xlink:href="#B"/><use transform="matrix(0.07407407407407407,0,0,0.07407407407407407,56.22222222222222,0)" xlink:href="#I"/><use transform="matrix(0.07407407407407407,0,0,0.07407407407407407,71.03703703703704,0)" xlink:href="#H"/><use transform="matrix(0.07407407407407407,0,0,0.07407407407407407,76.88888888888889,0)" xlink:href="#M"/><use transform="matrix(0.07407407407407407,0,0,0.07407407407407407,91.7037037037037,0)" xlink:href="#K"/></g><path d="M30-248c87 1 191-15 191 75 0 78-77 80-158 76V0H30v-248zm33 125c57 0 124 11 124-50 0-59-68-47-124-48v98" id="Q"/><path d="M141 0L90-78 38 0H4l68-98-65-92h35l48 74 47-74h35l-64 92 68 98h-35" id="R"/><path d="M179-190L93 31C79 59 56 82 12 73V49c39 6 53-20 64-50L1-190h34L92-34l54-156h33" id="S"/><g id="m"><use transform="matrix(0.07407407407407407,0,0,0.07407407407407407,0,0)" xlink:href="#Q"/><use transform="matrix(0.07407407407407407,0,0,0.07407407407407407,17.77777777777778,0)" xlink:href="#B"/><use transform="matrix(0.07407407407407407,0,0,0.07407407407407407,26.592592592592595,0)" xlink:href="#G"/><use transform="matrix(0.07407407407407407,0,0,0.07407407407407407,41.407407407407405,0)" xlink:href="#R"/><use transform="matrix(0.07407407407407407,0,0,0.07407407407407407,54.740740740740726,0)" xlink:href="#S"/></g><path d="M127-220V0H93v-220H8v-28h204v28h-85" id="T"/><g id="n"><use transform="matrix(0.07407407407407407,0,0,0.07407407407407407,0,0)" xlink:href="#T"/><use transform="matrix(0.07407407407407407,0,0,0.07407407407407407,16.22222222222222,0)" xlink:href="#O"/><use transform="matrix(0.07407407407407407,0,0,0.07407407407407407,31.037037037037035,0)" xlink:href="#A"/></g><path d="M194-120c59 52 2 134-86 124-53-6-90-18-98-63l31-7c8 30 29 43 70 43 46 0 84-17 71-62-32-43-135-20-137-98-3-89 178-90 191-16l-30 9c-8-48-127-53-127 5 0 53 81 35 115 65" id="U"/><path d="M67-158c15-20 31-36 64-36 94 0 33 127 27 194h-32l25-140c3-38-53-32-70-12C52-117 51-51 37 0H6l51-261h31" id="V"/><path d="M165-48c-4 18 1 34 23 27l-3 20c-29 8-62 0-52-35h-2C116-14 99 4 63 4 30 4 8-16 8-49c0-68 71-67 138-67 10-26 0-56-31-54-26 1-42 9-47 31l-32-5c8-67 160-71 144 15-5 28-9 54-15 81zM42-50c3 52 80 24 89-6 7-12 7-24 11-38-47 1-103-4-100 44" id="W"/><path d="M66-151c12-25 30-51 66-40l-6 26C45-176 58-65 38 0H6l36-190h30" id="X"/><path d="M133-28C103 26-5 8 13-77c13-62 24-115 90-117 29-1 46 15 56 35l19-102h32L160 0h-30zM45-64c-2 27 10 43 35 43 54-1 69-50 69-103 0-29-15-46-42-46-53-1-58 58-62 106" id="Y"/><path d="M50-231l6-30h32l-6 30H50zM6 0l37-190h31L37 0H6" id="Z"/><path d="M67-158c22-48 132-52 116 29L158 0h-32l25-140c3-38-53-32-70-12C52-117 51-52 38 0H6l36-190h30" id="aa"/><path d="M103-194c29 0 47 14 56 36 2-11 5-23 8-32h30L160-5C157 61 82 97 21 62 9 55 4 45 1 30l28-7c7 42 83 31 92-3 4-16 9-38 13-55-13 20-29 36-62 36-40 0-60-25-60-64 0-71 23-131 91-131zm4 24c-53 0-58 54-61 104-2 27 10 44 36 44 49 0 65-50 67-102 1-29-15-46-42-46" id="ab"/><g id="o"><use transform="matrix(0.07407407407407407,0,0,0.07407407407407407,0,0)" xlink:href="#U"/><use transform="matrix(0.07407407407407407,0,0,0.07407407407407407,17.77777777777778,0)" xlink:href="#V"/><use transform="matrix(0.07407407407407407,0,0,0.07407407407407407,32.592592592592595,0)" xlink:href="#W"/><use transform="matrix(0.07407407407407407,0,0,0.07407407407407407,47.407407407407405,0)" xlink:href="#X"/><use transform="matrix(0.07407407407407407,0,0,0.07407407407407407,56.22222222222222,0)" xlink:href="#Y"/><use transform="matrix(0.07407407407407407,0,0,0.07407407407407407,71.03703703703704,0)" xlink:href="#Z"/><use transform="matrix(0.07407407407407407,0,0,0.07407407407407407,76.88888888888889,0)" xlink:href="#aa"/><use transform="matrix(0.07407407407407407,0,0,0.07407407407407407,91.7037037037037,0)" xlink:href="#ab"/></g><path d="M238-179c0 84-86 86-175 82L45 0H11l48-248c82 0 179-12 179 69zm-34 1c0-53-64-42-116-43l-19 98c63 0 135 9 135-55" id="ac"/><path d="M30-147c31-64 166-65 159 27C183-49 158 1 86 4 9 8 1-88 30-147zM88-20c53 0 68-48 68-100 0-31-11-51-44-50-52 1-68 46-68 97 0 32 13 53 44 53" id="ad"/><path d="M124 0L87-78 21 0h-35l86-98-46-92h33l34 74 61-74h37l-83 92 50 98h-34" id="ae"/><path d="M198-190L69 30C53 58 25 83-20 72c4-11-1-27 19-22 33-1 43-29 59-52L20-190h32L79-34l84-156h35" id="af"/><g id="p"><use transform="matrix(0.07407407407407407,0,0,0.07407407407407407,0,0)" xlink:href="#ac"/><use transform="matrix(0.07407407407407407,0,0,0.07407407407407407,17.77777777777778,0)" xlink:href="#X"/><use transform="matrix(0.07407407407407407,0,0,0.07407407407407407,26.592592592592595,0)" xlink:href="#ad"/><use transform="matrix(0.07407407407407407,0,0,0.07407407407407407,41.407407407407405,0)" xlink:href="#ae"/><use transform="matrix(0.07407407407407407,0,0,0.07407407407407407,54.740740740740726,0)" xlink:href="#af"/></g><path d="M143 0L79-87 56-68V0H24v-261h32v163l83-92h37l-77 82L181 0h-38" id="ag"/><path d="M206 0h-36l-40-164L89 0H53L-1-190h32L70-26l43-164h34l41 164 42-164h31" id="ah"/><g id="q"><use transform="matrix(0.07407407407407407,0,0,0.07407407407407407,0,0)" xlink:href="#ag"/><use transform="matrix(0.07407407407407407,0,0,0.07407407407407407,13.333333333333332,0)" xlink:href="#M"/><use transform="matrix(0.07407407407407407,0,0,0.07407407407407407,28.148148148148145,0)" xlink:href="#G"/><use transform="matrix(0.07407407407407407,0,0,0.07407407407407407,42.96296296296296,0)" xlink:href="#ah"/><use transform="matrix(0.07407407407407407,0,0,0.07407407407407407,62.148148148148145,0)" xlink:href="#z"/></g><path d="M96-169c-40 0-48 33-48 73s9 75 48 75c24 0 41-14 43-38l32 2c-6 37-31 61-74 61-59 0-76-41-82-99-10-93 101-131 147-64 4 7 5 14 7 22l-32 3c-4-21-16-35-41-35" id="ai"/><g id="r"><use transform="matrix(0.07407407407407407,0,0,0.07407407407407407,0,0)" xlink:href="#ah"/><use transform="matrix(0.07407407407407407,0,0,0.07407407407407407,19.185185185185183,0)" xlink:href="#O"/><use transform="matrix(0.07407407407407407,0,0,0.07407407407407407,34,0)" xlink:href="#H"/><use transform="matrix(0.07407407407407407,0,0,0.07407407407407407,39.85185185185185,0)" xlink:href="#ai"/><use transform="matrix(0.07407407407407407,0,0,0.07407407407407407,53.185185185185176,0)" xlink:href="#O"/></g><g id="s"><use transform="matrix(0.07407407407407407,0,0,0.07407407407407407,0,0)" xlink:href="#z"/><use transform="matrix(0.07407407407407407,0,0,0.07407407407407407,13.333333333333332,0)" xlink:href="#O"/><use transform="matrix(0.07407407407407407,0,0,0.07407407407407407,28.148148148148145,0)" xlink:href="#P"/><use transform="matrix(0.07407407407407407,0,0,0.07407407407407407,42.96296296296296,0)" xlink:href="#B"/><use transform="matrix(0.07407407407407407,0,0,0.07407407407407407,51.77777777777777,0)" xlink:href="#I"/></g><g id="t"><use transform="matrix(0.07407407407407407,0,0,0.07407407407407407,0,0)" xlink:href="#O"/><use transform="matrix(0.07407407407407407,0,0,0.07407407407407407,14.814814814814813,0)" xlink:href="#P"/><use transform="matrix(0.07407407407407407,0,0,0.07407407407407407,29.629629629629626,0)" xlink:href="#z"/></g><path d="M59-47c-2 24 18 29 38 22v24C64 9 27 4 27-40v-127H5v-23h24l9-43h21v43h35v23H59v120" id="aj"/><g id="u"><use transform="matrix(0.07407407407407407,0,0,0.07407407407407407,0,0)" xlink:href="#aj"/><use transform="matrix(0.07407407407407407,0,0,0.07407407407407407,7.4074074074074066,0)" xlink:href="#O"/><use transform="matrix(0.07407407407407407,0,0,0.07407407407407407,22.22222222222222,0)" xlink:href="#A"/></g><path d="M24 0v-261h32V0H24" id="ak"/><path d="M47-170H22l-4-78h33" id="al"/><g id="v"><use transform="matrix(0.07407407407407407,0,0,0.07407407407407407,0,0)" xlink:href="#ai"/><use transform="matrix(0.07407407407407407,0,0,0.07407407407407407,13.333333333333332,0)" xlink:href="#ak"/><use transform="matrix(0.07407407407407407,0,0,0.07407407407407407,19.185185185185183,0)" xlink:href="#H"/><use transform="matrix(0.07407407407407407,0,0,0.07407407407407407,25.037037037037035,0)" xlink:href="#A"/><use transform="matrix(0.07407407407407407,0,0,0.07407407407407407,39.85185185185185,0)" xlink:href="#M"/><use transform="matrix(0.07407407407407407,0,0,0.07407407407407407,54.66666666666666,0)" xlink:href="#aj"/><use transform="matrix(0.07407407407407407,0,0,0.07407407407407407,62.07407407407406,0)" xlink:href="#al"/><use transform="matrix(0.07407407407407407,0,0,0.07407407407407407,67.1111111111111,0)" xlink:href="#z"/></g><g id="w"><use transform="matrix(0.07407407407407407,0,0,0.07407407407407407,0,0)" xlink:href="#I"/><use transform="matrix(0.07407407407407407,0,0,0.07407407407407407,14.814814814814813,0)" xlink:href="#P"/><use transform="matrix(0.07407407407407407,0,0,0.07407407407407407,29.629629629629626,0)" xlink:href="#aj"/><use transform="matrix(0.07407407407407407,0,0,0.07407407407407407,37.03703703703703,0)" xlink:href="#P"/></g><linearGradient gradientUnits="userSpaceOnUse" id="x" x1="280" y1="460" x2="280" y2="520"><stop offset="63.41%" stop-color="#e8e2c8"/><stop offset="76.81%" stop-color="#fff"/></linearGradient></defs></g></svg>