<svg xmlns="http://www.w3.org/2000/svg" xmlns:xlink="http://www.w3.org/1999/xlink" xmlns:lucid="lucid" width="1041.5" height="248.5"><g transform="translate(-279.9999115625159 -557.0000249999999)" lucid:page-tab-id="0_0"><path d="M800 698.5a20 20 0 0 1 20-20h60a20 20 0 0 1 20 20 20 20 0 0 1-20 20h-60a20 20 0 0 1-20-20z" stroke="#000" stroke-width="3" fill="#ced4db"/><use xlink:href="#a" transform="matrix(1,0,0,1,805,683.5000249999999) translate(10.301296296296295 23.208333333333332)"/><use xlink:href="#b" transform="matrix(1,0,0,1,805,683.5000249999999) translate(54.67166666666666 23.208333333333332)"/><path d="M780 720a20 20 0 0 1 20-20h60a20 20 0 0 1 20 20 20 20 0 0 1-20 20h-60a20 20 0 0 1-20-20z" stroke="#82755b" stroke-width="3" fill="#ced4db"/><use xlink:href="#a" transform="matrix(1,0,0,1,785,705) translate(0.6296296296296333 21.333333333333332)"/><use xlink:href="#c" transform="matrix(1,0,0,1,785,705) translate(45 21.333333333333332)"/><path d="M920 722.5V740" stroke="#008a0e" stroke-width="2" fill="none"/><path d="M920.98 722.53H919v-1.03H921z" stroke="#008a0e" stroke-width=".05" fill="#008a0e"/><path d="M920 755.26L915.37 741h9.26z" stroke="#008a0e" stroke-width="2" fill="#008a0e"/><path d="M981.4 682.4v57.7" stroke="#1071e5" stroke-width="2" fill="none"/><path d="M982.37 682.42h-1.06l.2-2.36v-1.66h.87z" stroke="#1071e5" stroke-width=".05" fill="#1071e5"/><path d="M981.4 755.37l-4.64-14.27h9.27z" stroke="#1071e5" stroke-width="2" fill="#1071e5"/><path d="M950 702.5V740" stroke="#82755b" stroke-width="2" fill="none"/><path d="M950.98 702.53H949v-1.03H951z" stroke="#82755b" stroke-width=".05" fill="#82755b"/><path d="M950 755.26L945.37 741h9.26z" stroke="#82755b" stroke-width="2" fill="#82755b"/><path d="M800 580a20 20 0 0 1 20-20h160a20 20 0 0 1 20 20v80a20 20 0 0 1-20 20H820a20 20 0 0 1-20-20z" stroke="#1071e5" stroke-width="3" fill="url(#d)"/><path d="M780 600a20 20 0 0 1 20-20h160a20 20 0 0 1 20 20v80a20 20 0 0 1-20 20H800a20 20 0 0 1-20-20z" stroke="#82755b" stroke-width="3" fill="url(#e)"/><path d="M760 620a20 20 0 0 1 20-20h160a20 20 0 0 1 20 20v80a20 20 0 0 1-20 20H780a20 20 0 0 1-20-20z" stroke="#008a0e" stroke-width="3" fill="url(#f)"/><use xlink:href="#g" transform="matrix(1,0,0,1,765,605) translate(35.14814814814815 59.14583333333333)"/><use xlink:href="#h" transform="matrix(1,0,0,1,765,605) translate(112.03703703703704 59.14583333333333)"/><path d="M600 666a6 6 0 0 1 6-6h42a6 6 0 0 0 6-6v-8a2.3 2.3 0 0 1 4-1.54l28 31.08a6.67 6.67 0 0 1 0 8.92l-28 31.08a2.3 2.3 0 0 1-4-1.54v-8a6 6 0 0 0-6-6h-42a6 6 0 0 1-6-6z" fill="#fc9432"/><path d="M1110 666a6 6 0 0 1 6-6h168a6 6 0 0 1 6 6v126.5a6 6 0 0 1-6 6h-168a6 6 0 0 1-6-6z" stroke="#000" stroke-opacity="0" stroke-width="3" fill="#fff" fill-opacity="0"/><use xlink:href="#i" transform="matrix(1,0,0,1,1115,665) translate(11.740740740740762 25.364583333333332)"/><use xlink:href="#j" transform="matrix(1,0,0,1,1115,665) translate(65.00000000000001 25.364583333333332)"/><use xlink:href="#k" transform="matrix(1,0,0,1,1115,665) translate(1.2962962962963047 57.36458333333333)"/><use xlink:href="#l" transform="matrix(1,0,0,1,1115,665) translate(87.22222222222221 57.36458333333333)"/><use xlink:href="#m" transform="matrix(1,0,0,1,1115,665) translate(116.85185185185185 57.36458333333333)"/><use xlink:href="#n" transform="matrix(1,0,0,1,1115,665) translate(19.851851851851862 89.36458333333333)"/><use xlink:href="#o" transform="matrix(1,0,0,1,1115,665) translate(105.7037037037037 89.36458333333333)"/><use xlink:href="#p" transform="matrix(1,0,0,1,1115,665) translate(135.33333333333331 89.36458333333333)"/><use xlink:href="#q" transform="matrix(1,0,0,1,1115,665) translate(22.111111111111114 121.36458333333333)"/><use xlink:href="#r" transform="matrix(1,0,0,1,1115,665) translate(110.92592592592592 121.36458333333333)"/><path d="M900 780a20 20 0 0 1 20-20h60a20 20 0 0 1 20 20 20 20 0 0 1-20 20h-60a20 20 0 0 1-20-20z" stroke="#000" stroke-width="3" fill="#ced4db"/><use xlink:href="#s" transform="matrix(1,0,0,1,905,765) translate(2.074074074074076 21.333333333333332)"/><path d="M1002.4 779.58l2.68-1.25m3.55-1.67l5.34-2.5m3.55-1.65l5.34-2.5m3.55-1.65l5.35-2.5m3.56-1.66l5.34-2.5m3.55-1.67l5.33-2.5m3.56-1.66l5.32-2.5m3.56-1.66l5.33-2.48m3.57-1.67l5.33-2.5m3.56-1.65l5.33-2.5m3.55-1.66l5.33-2.5m3.56-1.66l5.33-2.5m3.56-1.66l2.66-1.25" stroke="#3a414a" stroke-width="2" fill="none"/><path d="M1002.85 780.45l-1.43.67.1-1.12-.1-1.04.6-.28zM1110 730.33l-.52.24-.82-1.77 1.34-.63z" stroke="#3a414a" stroke-width=".05" fill="#3a414a"/><path d="M1080 564.5a6 6 0 0 1 6-6h228a6 6 0 0 1 6 6V614a6 6 0 0 1-6 6h-228a6 6 0 0 1-6-6z" stroke="#000" stroke-opacity="0" stroke-width="3" fill="#fff" fill-opacity="0"/><use xlink:href="#t" transform="matrix(1,0,0,1,1085,563.5000249999999) translate(4 21.333333333333332)"/><use xlink:href="#u" transform="matrix(1,0,0,1,1085,563.5000249999999) translate(72.14814814814814 21.333333333333332)"/><use xlink:href="#v" transform="matrix(1,0,0,1,1085,563.5000249999999) translate(146.14814814814815 21.333333333333332)"/><use xlink:href="#w" transform="matrix(1,0,0,1,1085,563.5000249999999) translate(0.29629629629631893 53.33333333333333)"/><use xlink:href="#x" transform="matrix(1,0,0,1,1085,563.5000249999999) translate(34.29629629629631 53.33333333333333)"/><use xlink:href="#y" transform="matrix(1,0,0,1,1085,563.5000249999999) translate(125.99999999999999 53.33333333333333)"/><use xlink:href="#z" transform="matrix(1,0,0,1,1085,563.5000249999999) translate(177.85185185185185 53.33333333333333)"/><path d="M962.45 659.67l2.73-.94m3.66-1.25l5.48-1.9m3.65-1.24l5.48-1.9m3.65-1.24l5.48-1.88m3.65-1.26l5.48-1.88m3.66-1.26l5.48-1.88m3.66-1.26l5.48-1.88m3.65-1.26l5.48-1.88m3.66-1.26l5.48-1.88m3.65-1.26l5.47-1.88m3.65-1.26l5.48-1.88m3.65-1.26l5.48-1.88m3.66-1.26l5.47-1.88m3.65-1.25l2.74-.94" stroke="#3a414a" stroke-width="2" fill="none"/><path d="M962.8 660.6l-1.3.43v-2.06l.65-.23zM1081.76 618.24l.7.6.63.4-1.65.55-.63-1.85.53-.18z" stroke="#3a414a" stroke-width=".05" fill="#3a414a"/><path d="M760 740a20 20 0 0 1 20-20h60a20 20 0 0 1 20 20 20 20 0 0 1-20 20h-60a20 20 0 0 1-20-20z" stroke="#008a0e" stroke-width="3" fill="#ced4db"/><use xlink:href="#a" transform="matrix(1,0,0,1,765,725) translate(1.4074074074074048 21.333333333333332)"/><use xlink:href="#h" transform="matrix(1,0,0,1,765,725) translate(45.77777777777777 21.333333333333332)"/><path d="M862.38 739.52l2.6-1.43m3.47-1.9l5.2-2.87m3.47-1.9l5.2-2.86m3.47-1.9l5.2-2.86m3.46-1.9l5.2-2.86m3.47-1.9l5.2-2.86m3.47-1.9l5.2-2.86m3.47-1.9l5.2-2.86m3.47-1.9l5.2-2.86m3.47-1.9l5.2-2.86m3.48-1.9l5.2-2.87m3.47-1.9l5.2-2.86m3.47-1.9l5.2-2.85m3.47-1.9l5.2-2.86m3.46-1.9l5.2-2.87m3.47-1.9l5.2-2.86m3.47-1.9l5.2-2.86m3.46-1.9l5.2-2.86m3.48-1.9l5.2-2.86m3.46-1.9l5.2-2.86m3.47-1.9l5.2-2.86m3.47-1.9l5.2-2.86m3.47-1.9l5.2-2.86m3.48-1.9l5.2-2.86m3.47-1.9l5.2-2.87m3.47-1.9l2.6-1.42" stroke="#3a414a" stroke-width="2" fill="none"/><path d="M862.87 740.36l-1.46.8.1-1.16-.08-1.07.5-.28z" stroke="#3a414a" stroke-width=".05" fill="#3a414a"/><path d="M1079.1 620.5l.9-.5" stroke="#3a414a" stroke-width="2" fill="none"/><path d="M321.5 580a20 20 0 0 1 20-20h160a20 20 0 0 1 20 20v160a20 20 0 0 1-20 20h-160a20 20 0 0 1-20-20z" stroke="#1071e5" stroke-width="3" fill="url(#A)"/><path d="M522 723.75h-9.57m-9.57 0H483.7m-9.56 0H455m-9.57 0H426.3m-9.6 0h-19.13m-9.57 0h-19.14m-9.57 0h-19.16m-9.57 0H321" stroke="#fc9432" stroke-width="2" fill="none"/><path d="M523 724.73h-1.03v-1.96H523zM321.03 724.73H320v-1.96h1.03z" stroke="#fc9432" stroke-width=".05" fill="#fc9432"/><path d="M301.5 600a20 20 0 0 1 20-20h160a20 20 0 0 1 20 20v160a20 20 0 0 1-20 20h-160a20 20 0 0 1-20-20z" stroke="#82755b" stroke-width="3" fill="url(#B)"/><path d="M502 742.5h-9.57m-9.57 0H463.7m-9.56 0H435m-9.57 0H406.3m-9.6 0h-19.13m-9.57 0h-19.14m-9.57 0h-19.16m-9.57 0H301" stroke="#fc9432" stroke-width="2" fill="none"/><path d="M503 743.48h-1.03v-1.96H503zM301.03 743.48H300v-1.96h1.03z" stroke="#fc9432" stroke-width=".05" fill="#fc9432"/><path d="M281.5 620a20 20 0 0 1 20-20h160a20 20 0 0 1 20 20v160a20 20 0 0 1-20 20h-160a20 20 0 0 1-20-20z" stroke="#008a0e" stroke-width="3" fill="url(#C)"/><use xlink:href="#g" transform="matrix(1,0,0,1,286.4999115625159,605) translate(35.14814814814815 98.52083333333333)"/><use xlink:href="#h" transform="matrix(1,0,0,1,286.4999115625159,605) translate(112.03703703703704 98.52083333333333)"/><path d="M479.5 761.5h-10.78m-10.78 0H436.4m-10.8 0h-21.55m-10.77 0H382.5" stroke="#fc9432" stroke-width="2" fill="none"/><path d="M483.5 762.48h-4.03v-.98h4.03zM382.53 762.48h-4.03v-.98h4.03z" stroke="#fc9432" stroke-width=".05" fill="#fc9432"/><path d="M537.16 721.75H557a8 8 0 0 1 8 8v8a8 8 0 0 1-8 8h-39.84" stroke="#000" stroke-width="2" fill="none"/><path d="M537.16 725.75H557a4 4 0 0 1 4 4v8a4 4 0 0 1-4 4h-39.84" stroke="#000" stroke-width="2" fill="none"/><path d="M542.32 733.75l-17.32-10 17.32-10m-17.32 10h8.5M522.32 753.75l-17.32-10 17.32-10m-17.32 10h8.5" stroke="#000" stroke-width="2" fill="none"/><path d="M497.16 761.75H557a4 4 0 0 0 4-4v-28a4 4 0 0 0-4-4h-19.84" stroke="#000" stroke-width="2" fill="none"/><path d="M497.16 765.75H557a8 8 0 0 0 8-8v-28a8 8 0 0 0-8-8h-19.84" stroke="#000" stroke-width="2" fill="none"/><path d="M502.32 773.75l-17.32-10 17.32-10m-17.32 10h8.5M542.32 733.75l-17.32-10 17.32-10m-17.32 10h8.5" stroke="#000" stroke-width="2" fill="none"/><path d="M517.16 741.75H537a8 8 0 0 1 8 8v8a8 8 0 0 1-8 8h-39.84" stroke="#000" stroke-width="2" fill="none"/><path d="M517.16 745.75H537a4 4 0 0 1 4 4v8a4 4 0 0 1-4 4h-39.84" stroke="#000" stroke-width="2" fill="none"/><path d="M522.32 753.75l-17.32-10 17.32-10m-17.32 10h8.5M502.32 773.75l-17.32-10 17.32-10m-17.32 10h8.5" stroke="#000" stroke-width="2" fill="none"/><path d="M381.5 762.5v12.67m0 12.66v12.67" stroke="#fc9432" stroke-width="2" fill="none"/><path d="M382.48 762.53h-1.96v-1.03h1.96zM382.48 801.5h-1.96v-1.03h1.96z" stroke="#fc9432" stroke-width=".05" fill="#fc9432"/><defs><path d="M30-248c118-7 216 8 213 122C240-48 200 0 122 0H30v-248zM63-27c89 8 146-16 146-99s-60-101-146-95v194" id="D"/><path d="M160-131c35 5 61 23 61 61C221 17 115-2 30 0v-248c76 3 177-17 177 60 0 33-19 50-47 57zm-97-11c50-1 110 9 110-42 0-47-63-36-110-37v79zm0 115c55-2 124 14 124-45 0-56-70-42-124-44v89" id="E"/><g id="a"><use transform="matrix(0.07407407407407407,0,0,0.07407407407407407,0,0)" xlink:href="#D"/><use transform="matrix(0.07407407407407407,0,0,0.07407407407407407,19.185185185185183,0)" xlink:href="#E"/></g><path d="M16-82v-28h88v28H16" id="F"/><path d="M209 0H11v-25l151-195H24v-28h176v25L50-27h159V0" id="G"/><g id="b"><use transform="matrix(0.07407407407407407,0,0,0.07407407407407407,0,0)" xlink:href="#F"/><use transform="matrix(0.07407407407407407,0,0,0.07407407407407407,8.814814814814815,0)" xlink:href="#G"/></g><path d="M143 4C61 4 22-44 18-125c-5-107 100-154 193-111 17 8 29 25 37 43l-32 9c-13-25-37-40-76-40-61 0-88 39-88 99 0 61 29 100 91 101 35 0 62-11 79-27v-45h-74v-28h105v86C228-13 192 4 143 4" id="H"/><path d="M30 0v-248h33v221h125V0H30" id="I"/><g id="c"><use transform="matrix(0.07407407407407407,0,0,0.07407407407407407,0,0)" xlink:href="#H"/><use transform="matrix(0.07407407407407407,0,0,0.07407407407407407,20.74074074074074,0)" xlink:href="#F"/><use transform="matrix(0.07407407407407407,0,0,0.07407407407407407,29.555555555555557,0)" xlink:href="#I"/></g><linearGradient gradientUnits="userSpaceOnUse" id="d" x1="800" y1="680" x2="800" y2="560"><stop offset="18.21%" stop-color="#fff"/><stop offset="27.86%" stop-color="#cfe4ff"/><stop offset="61.59%" stop-color="#cfe4ff"/><stop offset="73.55%" stop-color="#c3f7c8"/></linearGradient><linearGradient gradientUnits="userSpaceOnUse" id="e" x1="780" y1="700" x2="780" y2="580"><stop offset="18.21%" stop-color="#fff"/><stop offset="27.86%" stop-color="#cfe4ff"/><stop offset="61.59%" stop-color="#cfe4ff"/><stop offset="73.55%" stop-color="#c3f7c8"/></linearGradient><linearGradient gradientUnits="userSpaceOnUse" id="f" x1="760" y1="720" x2="760" y2="600"><stop offset="18.21%" stop-color="#fff"/><stop offset="27.86%" stop-color="#cfe4ff"/><stop offset="61.59%" stop-color="#cfe4ff"/><stop offset="73.55%" stop-color="#c3f7c8"/></linearGradient><path d="M232-93c-1 65-40 97-104 97C67 4 28-28 28-90v-158h33c8 89-33 224 67 224 102 0 64-133 71-224h33v155" id="J"/><path d="M135-143c-3-34-86-38-87 0 15 53 115 12 119 90S17 21 10-45l28-5c4 36 97 45 98 0-10-56-113-15-118-90-4-57 82-63 122-42 12 7 21 19 24 35" id="K"/><path d="M100-194c63 0 86 42 84 106H49c0 40 14 67 53 68 26 1 43-12 49-29l28 8c-11 28-37 45-77 45C44 4 14-33 15-96c1-61 26-98 85-98zm52 81c6-60-76-77-97-28-3 7-6 17-6 28h103" id="L"/><path d="M114-163C36-179 61-72 57 0H25l-1-190h30c1 12-1 29 2 39 6-27 23-49 58-41v29" id="M"/><g id="g"><use transform="matrix(0.07407407407407407,0,0,0.07407407407407407,0,0)" xlink:href="#J"/><use transform="matrix(0.07407407407407407,0,0,0.07407407407407407,19.185185185185183,0)" xlink:href="#K"/><use transform="matrix(0.07407407407407407,0,0,0.07407407407407407,32.51851851851852,0)" xlink:href="#L"/><use transform="matrix(0.07407407407407407,0,0,0.07407407407407407,47.33333333333333,0)" xlink:href="#M"/><use transform="matrix(0.07407407407407407,0,0,0.07407407407407407,56.148148148148145,0)" xlink:href="#K"/></g><path d="M205 0l-28-72H64L36 0H1l101-248h38L239 0h-34zm-38-99l-47-123c-12 45-31 82-46 123h93" id="N"/><path d="M63-220v92h138v28H63V0H30v-248h175v28H63" id="O"/><g id="h"><use transform="matrix(0.07407407407407407,0,0,0.07407407407407407,0,0)" xlink:href="#N"/><use transform="matrix(0.07407407407407407,0,0,0.07407407407407407,17.77777777777778,0)" xlink:href="#F"/><use transform="matrix(0.07407407407407407,0,0,0.07407407407407407,26.592592592592595,0)" xlink:href="#O"/></g><path d="M127-220V0H93v-220H8v-28h204v28h-85" id="P"/><path d="M106-169C34-169 62-67 57 0H25v-261h32l-1 103c12-21 28-36 61-36 89 0 53 116 60 194h-32v-121c2-32-8-49-39-48" id="Q"/><g id="i"><use transform="matrix(0.07407407407407407,0,0,0.07407407407407407,0,0)" xlink:href="#P"/><use transform="matrix(0.07407407407407407,0,0,0.07407407407407407,16.22222222222222,0)" xlink:href="#Q"/><use transform="matrix(0.07407407407407407,0,0,0.07407407407407407,31.037037037037035,0)" xlink:href="#L"/></g><path d="M96-169c-40 0-48 33-48 73s9 75 48 75c24 0 41-14 43-38l32 2c-6 37-31 61-74 61-59 0-76-41-82-99-10-93 101-131 147-64 4 7 5 14 7 22l-32 3c-4-21-16-35-41-35" id="R"/><path d="M100-194c62-1 85 37 85 99 1 63-27 99-86 99S16-35 15-95c0-66 28-99 85-99zM99-20c44 1 53-31 53-75 0-43-8-75-51-75s-53 32-53 75 10 74 51 75" id="S"/><path d="M84 4C-5 8 30-112 23-190h32v120c0 31 7 50 39 49 72-2 45-101 50-169h31l1 190h-30c-1-10 1-25-2-33-11 22-28 36-60 37" id="T"/><path d="M115-194c55 1 70 41 70 98S169 2 115 4C84 4 66-9 55-30l1 105H24l-1-265h31l2 30c10-21 28-34 59-34zm-8 174c40 0 45-34 45-75s-6-73-45-74c-42 0-51 32-51 76 0 43 10 73 51 73" id="U"/><path d="M24 0v-261h32V0H24" id="V"/><path d="M85-194c31 0 48 13 60 33l-1-100h32l1 261h-30c-2-10 0-23-3-31C134-8 116 4 85 4 32 4 16-35 15-94c0-66 23-100 70-100zm9 24c-40 0-46 34-46 75 0 40 6 74 45 74 42 0 51-32 51-76 0-42-9-74-50-73" id="W"/><g id="j"><use transform="matrix(0.07407407407407407,0,0,0.07407407407407407,0,0)" xlink:href="#R"/><use transform="matrix(0.07407407407407407,0,0,0.07407407407407407,13.333333333333332,0)" xlink:href="#S"/><use transform="matrix(0.07407407407407407,0,0,0.07407407407407407,28.148148148148145,0)" xlink:href="#T"/><use transform="matrix(0.07407407407407407,0,0,0.07407407407407407,42.96296296296296,0)" xlink:href="#U"/><use transform="matrix(0.07407407407407407,0,0,0.07407407407407407,57.77777777777777,0)" xlink:href="#V"/><use transform="matrix(0.07407407407407407,0,0,0.07407407407407407,63.62962962962962,0)" xlink:href="#L"/><use transform="matrix(0.07407407407407407,0,0,0.07407407407407407,78.44444444444443,0)" xlink:href="#W"/></g><path d="M115-194c53 0 69 39 70 98 0 66-23 100-70 100C84 3 66-7 56-30L54 0H23l1-261h32v101c10-23 28-34 59-34zm-8 174c40 0 45-34 45-75 0-40-5-75-45-74-42 0-51 32-51 76 0 43 10 73 51 73" id="X"/><path d="M59-47c-2 24 18 29 38 22v24C64 9 27 4 27-40v-127H5v-23h24l9-43h21v43h35v23H59v120" id="Y"/><g id="k"><use transform="matrix(0.07407407407407407,0,0,0.07407407407407407,0,0)" xlink:href="#K"/><use transform="matrix(0.07407407407407407,0,0,0.07407407407407407,13.333333333333332,0)" xlink:href="#T"/><use transform="matrix(0.07407407407407407,0,0,0.07407407407407407,28.148148148148145,0)" xlink:href="#X"/><use transform="matrix(0.07407407407407407,0,0,0.07407407407407407,42.96296296296296,0)" xlink:href="#K"/><use transform="matrix(0.07407407407407407,0,0,0.07407407407407407,56.29629629629629,0)" xlink:href="#L"/><use transform="matrix(0.07407407407407407,0,0,0.07407407407407407,71.1111111111111,0)" xlink:href="#Y"/></g><path d="M101-234c-31-9-42 10-38 44h38v23H63V0H32v-167H5v-23h27c-7-52 17-82 69-68v24" id="Z"/><g id="l"><use transform="matrix(0.07407407407407407,0,0,0.07407407407407407,0,0)" xlink:href="#S"/><use transform="matrix(0.07407407407407407,0,0,0.07407407407407407,14.814814814814813,0)" xlink:href="#Z"/></g><path d="M141-36C126-15 110 5 73 4 37 3 15-17 15-53c-1-64 63-63 125-63 3-35-9-54-41-54-24 1-41 7-42 31l-33-3c5-37 33-52 76-52 45 0 72 20 72 64v82c-1 20 7 32 28 27v20c-31 9-61-2-59-35zM48-53c0 20 12 33 32 33 41-3 63-29 60-74-43 2-92-5-92 41" id="aa"/><g id="m"><use transform="matrix(0.07407407407407407,0,0,0.07407407407407407,0,0)" xlink:href="#W"/><use transform="matrix(0.07407407407407407,0,0,0.07407407407407407,14.814814814814813,0)" xlink:href="#aa"/><use transform="matrix(0.07407407407407407,0,0,0.07407407407407407,29.629629629629626,0)" xlink:href="#Y"/><use transform="matrix(0.07407407407407407,0,0,0.07407407407407407,37.03703703703703,0)" xlink:href="#aa"/></g><path d="M210-169c-67 3-38 105-44 169h-31v-121c0-29-5-50-35-48C34-165 62-65 56 0H25l-1-190h30c1 10-1 24 2 32 10-44 99-50 107 0 11-21 27-35 58-36 85-2 47 119 55 194h-31v-121c0-29-5-49-35-48" id="ab"/><path d="M108 0H70L1-190h34L89-25l56-165h34" id="ac"/><g id="n"><use transform="matrix(0.07407407407407407,0,0,0.07407407407407407,0,0)" xlink:href="#ab"/><use transform="matrix(0.07407407407407407,0,0,0.07407407407407407,22.148148148148145,0)" xlink:href="#S"/><use transform="matrix(0.07407407407407407,0,0,0.07407407407407407,36.96296296296296,0)" xlink:href="#ac"/><use transform="matrix(0.07407407407407407,0,0,0.07407407407407407,50.29629629629629,0)" xlink:href="#L"/><use transform="matrix(0.07407407407407407,0,0,0.07407407407407407,65.1111111111111,0)" xlink:href="#K"/></g><g id="o"><use transform="matrix(0.07407407407407407,0,0,0.07407407407407407,0,0)" xlink:href="#Y"/><use transform="matrix(0.07407407407407407,0,0,0.07407407407407407,7.4074074074074066,0)" xlink:href="#S"/></g><use transform="matrix(0.07407407407407407,0,0,0.07407407407407407,0,0)" xlink:href="#aa" id="p"/><g id="q"><use transform="matrix(0.07407407407407407,0,0,0.07407407407407407,0,0)" xlink:href="#K"/><use transform="matrix(0.07407407407407407,0,0,0.07407407407407407,13.333333333333332,0)" xlink:href="#Q"/><use transform="matrix(0.07407407407407407,0,0,0.07407407407407407,28.148148148148145,0)" xlink:href="#aa"/><use transform="matrix(0.07407407407407407,0,0,0.07407407407407407,42.96296296296296,0)" xlink:href="#M"/><use transform="matrix(0.07407407407407407,0,0,0.07407407407407407,51.77777777777777,0)" xlink:href="#L"/><use transform="matrix(0.07407407407407407,0,0,0.07407407407407407,66.5925925925926,0)" xlink:href="#W"/></g><g id="r"><use transform="matrix(0.07407407407407407,0,0,0.07407407407407407,0,0)" xlink:href="#D"/><use transform="matrix(0.07407407407407407,0,0,0.07407407407407407,19.185185185185183,0)" xlink:href="#E"/></g><path d="M185-189c-5-48-123-54-124 2 14 75 158 14 163 119 3 78-121 87-175 55-17-10-28-26-33-46l33-7c5 56 141 63 141-1 0-78-155-14-162-118-5-82 145-84 179-34 5 7 8 16 11 25" id="ad"/><g id="s"><use transform="matrix(0.07407407407407407,0,0,0.07407407407407407,0,0)" xlink:href="#ad"/><use transform="matrix(0.07407407407407407,0,0,0.07407407407407407,17.77777777777778,0)" xlink:href="#Q"/><use transform="matrix(0.07407407407407407,0,0,0.07407407407407407,32.592592592592595,0)" xlink:href="#aa"/><use transform="matrix(0.07407407407407407,0,0,0.07407407407407407,47.407407407407405,0)" xlink:href="#M"/><use transform="matrix(0.07407407407407407,0,0,0.07407407407407407,56.22222222222222,0)" xlink:href="#L"/><use transform="matrix(0.07407407407407407,0,0,0.07407407407407407,71.03703703703704,0)" xlink:href="#W"/></g><path d="M30 0v-248h187v28H63v79h144v27H63v87h162V0H30" id="ae"/><g id="t"><use transform="matrix(0.07407407407407407,0,0,0.07407407407407407,0,0)" xlink:href="#ae"/><use transform="matrix(0.07407407407407407,0,0,0.07407407407407407,17.77777777777778,0)" xlink:href="#aa"/><use transform="matrix(0.07407407407407407,0,0,0.07407407407407407,32.592592592592595,0)" xlink:href="#R"/><use transform="matrix(0.07407407407407407,0,0,0.07407407407407407,45.925925925925924,0)" xlink:href="#Q"/></g><g id="u"><use transform="matrix(0.07407407407407407,0,0,0.07407407407407407,0,0)" xlink:href="#K"/><use transform="matrix(0.07407407407407407,0,0,0.07407407407407407,13.333333333333332,0)" xlink:href="#Q"/><use transform="matrix(0.07407407407407407,0,0,0.07407407407407407,28.148148148148145,0)" xlink:href="#aa"/><use transform="matrix(0.07407407407407407,0,0,0.07407407407407407,42.96296296296296,0)" xlink:href="#M"/><use transform="matrix(0.07407407407407407,0,0,0.07407407407407407,51.77777777777777,0)" xlink:href="#W"/></g><path d="M24-231v-30h32v30H24zM24 0v-190h32V0H24" id="af"/><path d="M117-194c89-4 53 116 60 194h-32v-121c0-31-8-49-39-48C34-167 62-67 57 0H25l-1-190h30c1 10-1 24 2 32 11-22 29-35 61-36" id="ag"/><g id="v"><use transform="matrix(0.07407407407407407,0,0,0.07407407407407407,0,0)" xlink:href="#M"/><use transform="matrix(0.07407407407407407,0,0,0.07407407407407407,8.814814814814815,0)" xlink:href="#L"/><use transform="matrix(0.07407407407407407,0,0,0.07407407407407407,23.629629629629623,0)" xlink:href="#Y"/><use transform="matrix(0.07407407407407407,0,0,0.07407407407407407,31.03703703703703,0)" xlink:href="#aa"/><use transform="matrix(0.07407407407407407,0,0,0.07407407407407407,45.85185185185185,0)" xlink:href="#af"/><use transform="matrix(0.07407407407407407,0,0,0.07407407407407407,51.703703703703695,0)" xlink:href="#ag"/><use transform="matrix(0.07407407407407407,0,0,0.07407407407407407,66.5185185185185,0)" xlink:href="#K"/></g><g id="w"><use transform="matrix(0.07407407407407407,0,0,0.07407407407407407,0,0)" xlink:href="#af"/><use transform="matrix(0.07407407407407407,0,0,0.07407407407407407,5.851851851851851,0)" xlink:href="#Y"/><use transform="matrix(0.07407407407407407,0,0,0.07407407407407407,13.259259259259258,0)" xlink:href="#K"/></g><path d="M179-190L93 31C79 59 56 82 12 73V49c39 6 53-20 64-50L1-190h34L92-34l54-156h33" id="ah"/><g id="x"><use transform="matrix(0.07407407407407407,0,0,0.07407407407407407,0,0)" xlink:href="#af"/><use transform="matrix(0.07407407407407407,0,0,0.07407407407407407,5.851851851851851,0)" xlink:href="#W"/><use transform="matrix(0.07407407407407407,0,0,0.07407407407407407,20.666666666666664,0)" xlink:href="#L"/><use transform="matrix(0.07407407407407407,0,0,0.07407407407407407,35.48148148148148,0)" xlink:href="#ag"/><use transform="matrix(0.07407407407407407,0,0,0.07407407407407407,50.29629629629629,0)" xlink:href="#Y"/><use transform="matrix(0.07407407407407407,0,0,0.07407407407407407,57.703703703703695,0)" xlink:href="#af"/><use transform="matrix(0.07407407407407407,0,0,0.07407407407407407,63.55555555555554,0)" xlink:href="#Y"/><use transform="matrix(0.07407407407407407,0,0,0.07407407407407407,70.96296296296295,0)" xlink:href="#ah"/></g><g id="y"><use transform="matrix(0.07407407407407407,0,0,0.07407407407407407,0,0)" xlink:href="#aa"/><use transform="matrix(0.07407407407407407,0,0,0.07407407407407407,14.814814814814813,0)" xlink:href="#ag"/><use transform="matrix(0.07407407407407407,0,0,0.07407407407407407,29.629629629629626,0)" xlink:href="#W"/></g><g id="z"><use transform="matrix(0.07407407407407407,0,0,0.07407407407407407,0,0)" xlink:href="#W"/><use transform="matrix(0.07407407407407407,0,0,0.07407407407407407,14.814814814814813,0)" xlink:href="#aa"/><use transform="matrix(0.07407407407407407,0,0,0.07407407407407407,29.629629629629626,0)" xlink:href="#Y"/><use transform="matrix(0.07407407407407407,0,0,0.07407407407407407,37.03703703703703,0)" xlink:href="#aa"/></g><linearGradient gradientUnits="userSpaceOnUse" id="A" x1="321.5" y1="760" x2="321.5" y2="560"><stop offset="17.39%" stop-color="#ced4db"/><stop offset="26.45%" stop-color="#fff"/><stop offset="44.57%" stop-color="#fff"/><stop offset="51.81%" stop-color="#cfe4ff"/><stop offset="72.83%" stop-color="#cfe4ff"/><stop offset="83.33%" stop-color="#c3f7c8"/></linearGradient><linearGradient gradientUnits="userSpaceOnUse" id="B" x1="301.5" y1="780" x2="301.5" y2="580"><stop offset="17.39%" stop-color="#ced4db"/><stop offset="26.45%" stop-color="#fff"/><stop offset="44.57%" stop-color="#fff"/><stop offset="51.81%" stop-color="#cfe4ff"/><stop offset="72.83%" stop-color="#cfe4ff"/><stop offset="83.33%" stop-color="#c3f7c8"/></linearGradient><linearGradient gradientUnits="userSpaceOnUse" id="C" x1="281.5" y1="800" x2="281.5" y2="600"><stop offset="17.39%" stop-color="#ced4db"/><stop offset="26.45%" stop-color="#fff"/><stop offset="44.57%" stop-color="#fff"/><stop offset="51.81%" stop-color="#cfe4ff"/><stop offset="72.83%" stop-color="#cfe4ff"/><stop offset="83.33%" stop-color="#c3f7c8"/></linearGradient></defs></g></svg>