<svg xmlns="http://www.w3.org/2000/svg" xmlns:lucid="lucid" width="307" height="267"><g lucid:page-tab-id="0_0" stroke="#000"><path d="M23.5 123.5a20 20 0 0 1 20-20h40a20 20 0 0 1 20 20v20a20 20 0 0 1-20 20h-40a20 20 0 0 1-20-20zM203.5 123.5a20 20 0 0 1 20-20h40a20 20 0 0 1 20 20v20a20 20 0 0 1-20 20h-40a20 20 0 0 1-20-20z" stroke-width="7" fill="#0ff"/><path d="M83.5 23.5a20 20 0 0 1 20-20h100a20 20 0 0 1 20 20v17.67a20 20 0 0 1-20 20h-100a20 20 0 0 1-20-20z" stroke-width="7" fill="#0f0"/><path d="M156.7 64.07l83.6 36.53" stroke-width="7" fill="none"/><path d="M155.4 67.3l-6-2.63h7.14zM247.6 100h-7.14l1.14-2.62z" stroke-width=".05"/><path d="M150.3 64.07L66.7 100.6" stroke-width="7" fill="none"/><path d="M151.6 67.3l-1.14-2.63h7.14zM66.54 100H59.4l6-2.62z" stroke-width=".05"/><path d="M3.5 223.5a20 20 0 0 1 20-20 20 20 0 0 1 20 20v20a20 20 0 0 1-20 20 20 20 0 0 1-20-20zM263.5 223.5a20 20 0 0 1 20-20 20 20 0 0 1 20 20v20a20 20 0 0 1-20 20 20 20 0 0 1-20-20zM183.5 223.5a20 20 0 0 1 20-20 20 20 0 0 1 20 20v20a20 20 0 0 1-20 20 20 20 0 0 1-20-20zM83.5 223.5a20 20 0 0 1 20-20 20 20 0 0 1 20 20v20a20 20 0 0 1-20 20 20 20 0 0 1-20-20z" stroke-width="7" fill="#fff"/><path d="M246.07 167.38l34.86 32.24" stroke-width="7" fill="none"/><path d="M243.78 170l-3.24-3h6zM286.72 200.24l-3.22-.25-3.27.25 3-3.24z" stroke-width=".05"/><path d="M240.93 167.38l-34.86 32.24" stroke-width="7" fill="none"/><path d="M243.22 170l-2.76-3h6zM206.77 200.25l-3.27-.26-3.22.24 3.5-3.23z" stroke-width=".05"/><path d="M66.07 167.38l34.86 32.24" stroke-width="7" fill="none"/><path d="M63.78 170l-3.24-3h6zM106.72 200.24l-3.22-.25-3.27.25 3-3.24z" stroke-width=".05"/><path d="M60.93 167.38l-34.86 32.24" stroke-width="7" fill="none"/><path d="M63.22 170l-2.76-3h6zM26.77 200.25L23.5 200l-3.22.24 3.5-3.23z" stroke-width=".05"/></g></svg>