<svg xmlns="http://www.w3.org/2000/svg" xmlns:lucid="lucid" width="263" height="263"><g transform="translate(-598.5 -398.5)" lucid:page-tab-id="0_0"><path d="M699.58 620a20 20 0 0 1 20-20h20.47a20 20 0 0 1 20 20v19.5a20 20 0 0 1-20 20h-20.47a20 20 0 0 1-20-20z" stroke="#ff7" stroke-width="3" fill="#556"/><path d="M600 420.25a20 20 0 0 1 20-20h59.95a20 20 0 0 1 20 20V520a20 20 0 0 1-20 20H620a20 20 0 0 1-20-20z" stroke="#ff7" stroke-width="3" fill="url(#a)"/><path d="M760.05 420a20 20 0 0 1 20-20H840a20 20 0 0 1 20 20v100a20 20 0 0 1-20 20h-59.95a20 20 0 0 1-20-20z" stroke="#ff7" stroke-width="3" fill="url(#b)"/><path d="M600 620a20 20 0 0 1 20-20h20.47a20 20 0 0 1 20 20v20a20 20 0 0 1-20 20H620a20 20 0 0 1-20-20zM799.17 620a20 20 0 0 1 20-20H840a20 20 0 0 1 20 20v20a20 20 0 0 1-20 20h-20.83a20 20 0 0 1-20-20z" stroke="#ff7" stroke-width="3" fill="#556"/><path d="M709.76 615h40.1v30h-40.1z" stroke="#f6f" stroke-width="2" fill="#556"/><path d="M629.97 480h40v30h-40zM790.03 480h40v30h-40z" stroke="#f6f" stroke-width="2" fill="#46a"/><path d="M649.65 542.45l-13.36 38.57" stroke="#ff7" stroke-width="2" fill="none"/><path d="M650.56 542.8l-1.84-.65.22-.65H651z" stroke="#ff7" stroke-width=".05" fill="#ff7"/><path d="M631.3 595.44l.28-15 8.76 3.04z" stroke="#ff7" stroke-width="2" fill="#ff7"/><path d="M810.35 542.45L823.58 581" stroke="#ff7" stroke-width="2" fill="none"/><path d="M811.28 542.15l-1.84.64-.45-1.3h2.06z" stroke="#ff7" stroke-width=".05" fill="#ff7"/><path d="M828.53 595.44l-9-12 8.76-3z" stroke="#ff7" stroke-width="2" fill="#ff7"/><path d="M664.36 511.88l46.04 85.82" stroke="#f6f" stroke-width="2" fill="none"/><path d="M665.23 511.44l-1.72.93-.72-1.37h2.2z" stroke="#f6f" stroke-width=".05" fill="#f6f"/><path d="M717.62 611.15l-10.83-10.38 8.16-4.38z" stroke="#f6f" stroke-width="2" fill="#f6f"/><path d="M795.07 511.88l-47.03 85.9" stroke="#f6f" stroke-width="2" fill="none"/><path d="M795.9 512.37l-1.7-.94.24-.43h2.22z" stroke="#f6f" stroke-width=".05" fill="#f6f"/><path d="M740.7 611.16l2.8-14.74 8.12 4.46z" stroke="#f6f" stroke-width="2" fill="#f6f"/><defs><linearGradient gradientUnits="userSpaceOnUse" id="a" x1="600" y1="540" x2="600" y2="400.25"><stop offset="10.14%" stop-color="#788"/><stop offset="23.91%" stop-color="#46a"/><stop offset="63.41%" stop-color="#46a"/><stop offset="79.71%" stop-color="#484"/></linearGradient><linearGradient gradientUnits="userSpaceOnUse" id="b" x1="760.05" y1="540" x2="760.05" y2="400"><stop offset="10.14%" stop-color="#788"/><stop offset="23.91%" stop-color="#46a"/><stop offset="63.41%" stop-color="#46a"/><stop offset="79.71%" stop-color="#484"/></linearGradient></defs></g></svg>