<svg xmlns="http://www.w3.org/2000/svg" xmlns:xlink="http://www.w3.org/1999/xlink" xmlns:lucid="lucid" width="1307" height="385"><g transform="translate(-154.5000000000003 -418.5)" lucid:page-tab-id="0_0"><path d="M600 666a6 6 0 0 1 6-6h42a6 6 0 0 0 6-6v-8a2.3 2.3 0 0 1 4-1.54l28 31.08a6.67 6.67 0 0 1 0 8.92l-28 31.08a2.3 2.3 0 0 1-4-1.54v-8a6 6 0 0 0-6-6h-42a6 6 0 0 1-6-6z" fill="#fc9432"/><path d="M1200 426a6 6 0 0 1 6-6h248a6 6 0 0 1 6 6v150.17a6 6 0 0 1-6 6h-248a6 6 0 0 1-6-6z" stroke="#000" stroke-opacity="0" stroke-width="3" fill="#fff" fill-opacity="0"/><use xlink:href="#a" transform="matrix(1,0,0,1,1205,425) translate(7.641975308642003 29.670138888888886)"/><use xlink:href="#b" transform="matrix(1,0,0,1,1205,425) translate(69.77777777777779 29.670138888888886)"/><use xlink:href="#c" transform="matrix(1,0,0,1,1205,425) translate(4.96296296296299 67.00347222222221)"/><use xlink:href="#d" transform="matrix(1,0,0,1,1205,425) translate(79.28395061728396 67.00347222222221)"/><use xlink:href="#e" transform="matrix(1,0,0,1,1205,425) translate(131.1358024691358 67.00347222222221)"/><use xlink:href="#f" transform="matrix(1,0,0,1,1205,425) translate(12.740740740740762 104.33680555555554)"/><use xlink:href="#g" transform="matrix(1,0,0,1,1205,425) translate(47.30864197530865 104.33680555555554)"/><use xlink:href="#h" transform="matrix(1,0,0,1,1205,425) translate(164.8395061728395 104.33680555555554)"/><use xlink:href="#i" transform="matrix(1,0,0,1,1205,425) translate(65.4135802469136 141.67013888888886)"/><path d="M160 582a20 20 0 0 1 20-20h40a20 20 0 0 1 20 20v200a20 20 0 0 1-20 20h-40a20 20 0 0 1-20-20z" stroke="#000" stroke-width="3" fill="url(#j)"/><path d="M300 581a20 20 0 0 1 20-20h40a20 20 0 0 1 20 20v200a20 20 0 0 1-20 20h-40a20 20 0 0 1-20-20z" stroke="#000" stroke-width="3" fill="url(#k)"/><path d="M440 581a20 20 0 0 1 20-20h40a20 20 0 0 1 20 20v200a20 20 0 0 1-20 20h-40a20 20 0 0 1-20-20z" stroke="#000" stroke-width="3" fill="url(#l)"/><path d="M284.34 684h-28.68M284.34 680h-28.68M279.18 672l17.32 10-17.32 10m17.32-10H288M260.82 692l-17.32-10 17.32-10m-17.32 10h8.5M424.34 683h-28.68M424.34 679h-28.68M419.18 671l17.32 10-17.32 10m17.32-10H428M400.82 691l-17.32-10 17.32-10m-17.32 10h8.5" stroke="#000" stroke-width="2" fill="none"/><path d="M760 621a20 20 0 0 1 20-20h40a20 20 0 0 1 20 20v160a20 20 0 0 1-20 20h-40a20 20 0 0 1-20-20z" stroke="#000" stroke-width="3" fill="url(#m)"/><path d="M900 620a20 20 0 0 1 20-20h40a20 20 0 0 1 20 20v160a20 20 0 0 1-20 20h-40a20 20 0 0 1-20-20z" stroke="#000" stroke-width="3" fill="url(#n)"/><path d="M1040 620a20 20 0 0 1 20-20h40a20 20 0 0 1 20 20v161a20 20 0 0 1-20 20h-40a20 20 0 0 1-20-20z" stroke="#000" stroke-width="3" fill="url(#o)"/><path d="M760 540a20 20 0 0 1 20-20h320a20 20 0 0 1 20 20 20 20 0 0 1-20 20H780a20 20 0 0 1-20-20z" stroke="#000" stroke-width="3" fill="#c3f7c8"/><use xlink:href="#p" transform="matrix(1,0,0,1,765,525) translate(101.04203703703706 23.208333333333332)"/><path d="M1122.45 539.7l2.88-.96m3.83-1.27l5.74-1.9m3.83-1.26l5.75-1.9m3.83-1.26l5.75-1.9m3.83-1.26l5.74-1.9m3.84-1.27l5.74-1.9m3.83-1.25l5.74-1.9m3.83-1.27l5.75-1.9m3.83-1.26l2.87-.95" stroke="#3a414a" stroke-width="2" fill="none"/><path d="M1122.78 540.6l-1.36.45.1-1.05-.1-1 .75-.25zM1200 515.08l-.67.22-.6-1.85 1.27-.42z" stroke="#3a414a" stroke-width=".05" fill="#3a414a"/><path d="M160 480a20 20 0 0 1 20-20h320a20 20 0 0 1 20 20 20 20 0 0 1-20 20H180a20 20 0 0 1-20-20z" stroke="#000" stroke-width="3" fill="#e8e2c8"/><use xlink:href="#q" transform="matrix(1,0,0,1,165,465) translate(141.04203703703703 23.208333333333332)"/><path d="M340 541v-38.5" stroke="#000" stroke-width="2" fill="none"/><path d="M340 556.26L335.37 542h9.26z" stroke="#000" stroke-width="2"/><path d="M340.98 502.53h-1.96v-1.03h1.96z" stroke="#000" stroke-width=".05"/><path d="M760 440a20 20 0 0 1 20-20h320a20 20 0 0 1 20 20 20 20 0 0 1-20 20H780a20 20 0 0 1-20-20z" stroke="#000" stroke-width="3" fill="#e8e2c8"/><use xlink:href="#q" transform="matrix(1,0,0,1,765,425) translate(141.04203703703703 23.208333333333332)"/><path d="M940 501v-38.5" stroke="#000" stroke-width="2" fill="none"/><path d="M940 516.26L935.37 502h9.26z" stroke="#000" stroke-width="2"/><path d="M940.98 462.53H939v-1.03H941z" stroke="#000" stroke-width=".05"/><path d="M940 580v-17.5" stroke="#000" stroke-width="2" fill="none"/><path d="M940 595.26L935.37 581h9.26z" stroke="#000" stroke-width="2"/><path d="M940.98 562.53H939v-1.03H941z" stroke="#000" stroke-width=".05"/><path d="M800 581v-18.5" stroke="#000" stroke-width="2" fill="none"/><path d="M800 596.26L795.37 582h9.26z" stroke="#000" stroke-width="2"/><path d="M800.98 562.53H799v-1.03H801z" stroke="#000" stroke-width=".05"/><path d="M1080 580v-17.5" stroke="#000" stroke-width="2" fill="none"/><path d="M1080 595.26l-4.63-14.26h9.27z" stroke="#000" stroke-width="2"/><path d="M1080.98 562.53h-1.95v-1.03h1.95z" stroke="#000" stroke-width=".05"/><path d="M520.5 599h-10.03m-10.03 0H480.4m-10.04 0H450.3m-10.02 0h-20.06m-10.03 0h-20.06m-10.03 0h-20.04m-10.03 0h-20.06m-10.03 0H299.9m-10.04 0H269.8m-10.02 0h-20.06m-10.03 0h-20.06m-10.03 0h-20.04m-10.03 0H159.5" stroke="#fc9432" stroke-width="2" fill="none"/><path d="M521.5 599.98h-1.03V598h1.03zM159.53 599.98h-1.03V598h1.03z" stroke="#fc9432" stroke-width=".05" fill="#fc9432"/><path d="M1200 686a6 6 0 0 1 6-6h248a6 6 0 0 1 6 6v108a6 6 0 0 1-6 6h-248a6 6 0 0 1-6-6z" stroke="#000" stroke-opacity="0" stroke-width="3" fill="#fff" fill-opacity="0"/><g><use xlink:href="#r" transform="matrix(1,0,0,1,1205,685) translate(36.981481481481495 28.326388888888886)"/><use xlink:href="#e" transform="matrix(1,0,0,1,1205,685) translate(99.11728395061728 28.326388888888886)"/><use xlink:href="#s" transform="matrix(1,0,0,1,1205,685) translate(35.641975308642 65.65972222222221)"/><use xlink:href="#t" transform="matrix(1,0,0,1,1205,685) translate(110.65432098765433 65.65972222222221)"/><use xlink:href="#u" transform="matrix(1,0,0,1,1205,685) translate(188.43209876543207 65.65972222222221)"/><use xlink:href="#v" transform="matrix(1,0,0,1,1205,685) translate(2.5000000000000284 102.99305555555554)"/></g><path d="M1000.98 700.2l2.97.6m3.96.78l5.95 1.2m3.96.78l5.96 1.2m3.96.78l5.94 1.2m3.96.78l5.94 1.2m3.96.78l5.94 1.2m3.96.78l5.94 1.2m3.96.8l5.95 1.17m3.96.8l5.94 1.18m3.96.8l5.94 1.18m3.96.8l5.94 1.2m3.96.8l5.94 1.18m3.96.8l5.94 1.17m3.96.8l5.95 1.18m3.96.8l5.94 1.2m3.96.78l5.94 1.2m3.96.8l5.94 1.18m3.96.8l5.94 1.18m3.96.8l5.95 1.18m3.95.8l5.94 1.18m3.95.8l2.97.58M1001 700.2l-1-.2" stroke="#3a414a" stroke-width="2" fill="none"/><path d="M1200 739v2l-1.2-.25.4-1.9z" stroke="#3a414a" stroke-width=".05" fill="#3a414a"/><defs><path d="M127-220V0H93v-220H8v-28h204v28h-85" id="w"/><path d="M106-169C34-169 62-67 57 0H25v-261h32l-1 103c12-21 28-36 61-36 89 0 53 116 60 194h-32v-121c2-32-8-49-39-48" id="x"/><path d="M100-194c63 0 86 42 84 106H49c0 40 14 67 53 68 26 1 43-12 49-29l28 8c-11 28-37 45-77 45C44 4 14-33 15-96c1-61 26-98 85-98zm52 81c6-60-76-77-97-28-3 7-6 17-6 28h103" id="y"/><g id="a"><use transform="matrix(0.08641975308641973,0,0,0.08641975308641973,0,0)" xlink:href="#w"/><use transform="matrix(0.08641975308641973,0,0,0.08641975308641973,18.92592592592592,0)" xlink:href="#x"/><use transform="matrix(0.08641975308641973,0,0,0.08641975308641973,36.209876543209866,0)" xlink:href="#y"/></g><path d="M20-101c0-91 52-143 145-150 126-9 127 168 53 223-23 17-55 32-93 32C57 4 20-33 20-101zm216-33c5-57-18-91-73-90-77 1-110 51-110 125 0 49 23 75 73 75 72-1 104-45 110-110" id="z"/><path d="M66-151c12-25 30-51 66-40l-6 26C45-176 58-65 38 0H6l36-190h30" id="A"/><path d="M44-68c0 29 11 47 38 47 30 0 42-19 51-41l28 9C148-21 126 4 82 4 31 4 10-29 12-85c3-77 74-140 146-93 12 8 15 23 18 40l-31 5c-1-22-13-36-36-36-52 0-65 49-65 101" id="B"/><path d="M67-158c15-20 31-36 64-36 94 0 33 127 27 194h-32l25-140c3-38-53-32-70-12C52-117 51-51 37 0H6l51-261h31" id="C"/><path d="M111-194c62-3 86 47 72 106H45c-7 38 6 69 45 68 27-1 43-14 53-32l24 11C152-15 129 4 87 4 38 3 12-23 12-71c0-70 32-119 99-123zm44 81c14-66-71-72-95-28-4 8-8 17-11 28h106" id="D"/><path d="M55-144c13 50 104 24 104 88C159 21 15 23 1-39l26-10c6 40 102 42 102-4-13-50-104-23-104-87 0-71 143-71 148-8l-29 4c-5-35-85-37-89 0" id="E"/><path d="M51-54c-9 22 5 41 31 30L79-1C43 14 10-4 19-52l22-115H19l5-23h22l19-43h21l-9 43h35l-4 23H73" id="F"/><path d="M165-48c-4 18 1 34 23 27l-3 20c-29 8-62 0-52-35h-2C116-14 99 4 63 4 30 4 8-16 8-49c0-68 71-67 138-67 10-26 0-56-31-54-26 1-42 9-47 31l-32-5c8-67 160-71 144 15-5 28-9 54-15 81zM42-50c3 52 80 24 89-6 7-12 7-24 11-38-47 1-103-4-100 44" id="G"/><path d="M30-147c31-64 166-65 159 27C183-49 158 1 86 4 9 8 1-88 30-147zM88-20c53 0 68-48 68-100 0-31-11-51-44-50-52 1-68 46-68 97 0 32 13 53 44 53" id="H"/><g id="b"><use transform="matrix(0.08641975308641973,0,0,0.08641975308641973,0,0)" xlink:href="#z"/><use transform="matrix(0.08641975308641973,0,0,0.08641975308641973,24.197530864197525,0)" xlink:href="#A"/><use transform="matrix(0.08641975308641973,0,0,0.08641975308641973,34.481481481481474,0)" xlink:href="#B"/><use transform="matrix(0.08641975308641973,0,0,0.08641975308641973,50.037037037037024,0)" xlink:href="#C"/><use transform="matrix(0.08641975308641973,0,0,0.08641975308641973,67.32098765432097,0)" xlink:href="#D"/><use transform="matrix(0.08641975308641973,0,0,0.08641975308641973,84.60493827160492,0)" xlink:href="#E"/><use transform="matrix(0.08641975308641973,0,0,0.08641975308641973,100.16049382716047,0)" xlink:href="#F"/><use transform="matrix(0.08641975308641973,0,0,0.08641975308641973,108.80246913580244,0)" xlink:href="#A"/><use transform="matrix(0.08641975308641973,0,0,0.08641975308641973,119.08641975308639,0)" xlink:href="#G"/><use transform="matrix(0.08641975308641973,0,0,0.08641975308641973,136.37037037037035,0)" xlink:href="#F"/><use transform="matrix(0.08641975308641973,0,0,0.08641975308641973,145.01234567901233,0)" xlink:href="#H"/><use transform="matrix(0.08641975308641973,0,0,0.08641975308641973,162.29629629629628,0)" xlink:href="#A"/></g><path d="M84 4C-5 8 30-112 23-190h32v120c0 31 7 50 39 49 72-2 45-101 50-169h31l1 190h-30c-1-10 1-25-2-33-11 22-28 36-60 37" id="I"/><path d="M135-143c-3-34-86-38-87 0 15 53 115 12 119 90S17 21 10-45l28-5c4 36 97 45 98 0-10-56-113-15-118-90-4-57 82-63 122-42 12 7 21 19 24 35" id="J"/><g id="c"><use transform="matrix(0.08641975308641973,0,0,0.08641975308641973,0,0)" xlink:href="#I"/><use transform="matrix(0.08641975308641973,0,0,0.08641975308641973,17.283950617283946,0)" xlink:href="#J"/><use transform="matrix(0.08641975308641973,0,0,0.08641975308641973,32.8395061728395,0)" xlink:href="#y"/><use transform="matrix(0.08641975308641973,0,0,0.08641975308641973,50.12345679012345,0)" xlink:href="#J"/></g><path d="M59-47c-2 24 18 29 38 22v24C64 9 27 4 27-40v-127H5v-23h24l9-43h21v43h35v23H59v120" id="K"/><g id="d"><use transform="matrix(0.08641975308641973,0,0,0.08641975308641973,0,0)" xlink:href="#K"/><use transform="matrix(0.08641975308641973,0,0,0.08641975308641973,8.641975308641973,0)" xlink:href="#x"/><use transform="matrix(0.08641975308641973,0,0,0.08641975308641973,25.925925925925917,0)" xlink:href="#y"/></g><path d="M114-163C36-179 61-72 57 0H25l-1-190h30c1 12-1 29 2 39 6-27 23-49 58-41v29" id="L"/><path d="M108 0H70L1-190h34L89-25l56-165h34" id="M"/><path d="M24-231v-30h32v30H24zM24 0v-190h32V0H24" id="N"/><path d="M96-169c-40 0-48 33-48 73s9 75 48 75c24 0 41-14 43-38l32 2c-6 37-31 61-74 61-59 0-76-41-82-99-10-93 101-131 147-64 4 7 5 14 7 22l-32 3c-4-21-16-35-41-35" id="O"/><g id="e"><use transform="matrix(0.08641975308641973,0,0,0.08641975308641973,0,0)" xlink:href="#J"/><use transform="matrix(0.08641975308641973,0,0,0.08641975308641973,15.555555555555552,0)" xlink:href="#y"/><use transform="matrix(0.08641975308641973,0,0,0.08641975308641973,32.8395061728395,0)" xlink:href="#L"/><use transform="matrix(0.08641975308641973,0,0,0.08641975308641973,43.12345679012345,0)" xlink:href="#M"/><use transform="matrix(0.08641975308641973,0,0,0.08641975308641973,58.679012345679,0)" xlink:href="#N"/><use transform="matrix(0.08641975308641973,0,0,0.08641975308641973,65.50617283950616,0)" xlink:href="#O"/><use transform="matrix(0.08641975308641973,0,0,0.08641975308641973,81.06172839506172,0)" xlink:href="#y"/><use transform="matrix(0.08641975308641973,0,0,0.08641975308641973,98.34567901234568,0)" xlink:href="#J"/></g><path d="M100-194c62-1 85 37 85 99 1 63-27 99-86 99S16-35 15-95c0-66 28-99 85-99zM99-20c44 1 53-31 53-75 0-43-8-75-51-75s-53 32-53 75 10 74 51 75" id="P"/><g id="f"><use transform="matrix(0.08641975308641973,0,0,0.08641975308641973,0,0)" xlink:href="#K"/><use transform="matrix(0.08641975308641973,0,0,0.08641975308641973,8.641975308641973,0)" xlink:href="#P"/></g><path d="M141 0L90-78 38 0H4l68-98-65-92h35l48 74 47-74h35l-64 92 68 98h-35" id="Q"/><g id="g"><use transform="matrix(0.08641975308641973,0,0,0.08641975308641973,0,0)" xlink:href="#y"/><use transform="matrix(0.08641975308641973,0,0,0.08641975308641973,17.283950617283946,0)" xlink:href="#Q"/><use transform="matrix(0.08641975308641973,0,0,0.08641975308641973,32.8395061728395,0)" xlink:href="#y"/><use transform="matrix(0.08641975308641973,0,0,0.08641975308641973,50.12345679012345,0)" xlink:href="#O"/><use transform="matrix(0.08641975308641973,0,0,0.08641975308641973,65.679012345679,0)" xlink:href="#I"/><use transform="matrix(0.08641975308641973,0,0,0.08641975308641973,82.96296296296295,0)" xlink:href="#K"/><use transform="matrix(0.08641975308641973,0,0,0.08641975308641973,91.60493827160492,0)" xlink:href="#y"/></g><path d="M24 0v-261h32V0H24" id="R"/><path d="M117-194c89-4 53 116 60 194h-32v-121c0-31-8-49-39-48C34-167 62-67 57 0H25l-1-190h30c1 10-1 24 2 32 11-22 29-35 61-36" id="S"/><g id="h"><use transform="matrix(0.08641975308641973,0,0,0.08641975308641973,0,0)" xlink:href="#O"/><use transform="matrix(0.08641975308641973,0,0,0.08641975308641973,15.555555555555552,0)" xlink:href="#R"/><use transform="matrix(0.08641975308641973,0,0,0.08641975308641973,22.38271604938271,0)" xlink:href="#N"/><use transform="matrix(0.08641975308641973,0,0,0.08641975308641973,29.20987654320987,0)" xlink:href="#y"/><use transform="matrix(0.08641975308641973,0,0,0.08641975308641973,46.493827160493815,0)" xlink:href="#S"/><use transform="matrix(0.08641975308641973,0,0,0.08641975308641973,63.77777777777776,0)" xlink:href="#K"/></g><path d="M145-31C134-9 116 4 85 4 32 4 16-35 15-94c0-59 17-99 70-100 32-1 48 14 60 33 0-11-1-24 2-32h30l-1 268h-32zM93-21c41 0 51-33 51-76s-8-73-50-73c-40 0-46 35-46 75s5 74 45 74" id="T"/><g id="i"><use transform="matrix(0.08641975308641973,0,0,0.08641975308641973,0,0)" xlink:href="#L"/><use transform="matrix(0.08641975308641973,0,0,0.08641975308641973,10.28395061728395,0)" xlink:href="#y"/><use transform="matrix(0.08641975308641973,0,0,0.08641975308641973,27.567901234567895,0)" xlink:href="#T"/><use transform="matrix(0.08641975308641973,0,0,0.08641975308641973,44.85185185185184,0)" xlink:href="#I"/><use transform="matrix(0.08641975308641973,0,0,0.08641975308641973,62.13580246913578,0)" xlink:href="#y"/><use transform="matrix(0.08641975308641973,0,0,0.08641975308641973,79.41975308641973,0)" xlink:href="#J"/><use transform="matrix(0.08641975308641973,0,0,0.08641975308641973,94.97530864197529,0)" xlink:href="#K"/><use transform="matrix(0.08641975308641973,0,0,0.08641975308641973,103.61728395061726,0)" xlink:href="#J"/></g><linearGradient gradientUnits="userSpaceOnUse" id="j" x1="160" y1="802" x2="160" y2="562"><stop offset="19.2%" stop-color="#ced4db"/><stop offset="26.45%" stop-color="#fff"/><stop offset="45.29%" stop-color="#fff"/><stop offset="52.54%" stop-color="#cfe4ff"/><stop offset="79.71%" stop-color="#cfe4ff"/><stop offset="89.13%" stop-color="#c3f7c8"/></linearGradient><linearGradient gradientUnits="userSpaceOnUse" id="k" x1="300" y1="801" x2="300" y2="561"><stop offset="19.2%" stop-color="#ced4db"/><stop offset="26.45%" stop-color="#fff"/><stop offset="45.29%" stop-color="#fff"/><stop offset="52.54%" stop-color="#cfe4ff"/><stop offset="79.71%" stop-color="#cfe4ff"/><stop offset="89.13%" stop-color="#c3f7c8"/></linearGradient><linearGradient gradientUnits="userSpaceOnUse" id="l" x1="440" y1="801" x2="440" y2="561"><stop offset="19.2%" stop-color="#ced4db"/><stop offset="26.45%" stop-color="#fff"/><stop offset="45.29%" stop-color="#fff"/><stop offset="52.54%" stop-color="#cfe4ff"/><stop offset="79.71%" stop-color="#cfe4ff"/><stop offset="89.13%" stop-color="#c3f7c8"/></linearGradient><linearGradient gradientUnits="userSpaceOnUse" id="m" x1="760" y1="801" x2="760" y2="601"><stop offset="19.2%" stop-color="#ced4db"/><stop offset="26.45%" stop-color="#fff"/><stop offset="52.86%" stop-color="#fff"/><stop offset="59.29%" stop-color="#cfe4ff"/></linearGradient><linearGradient gradientUnits="userSpaceOnUse" id="n" x1="900" y1="800" x2="900" y2="600"><stop offset="19.2%" stop-color="#ced4db"/><stop offset="26.45%" stop-color="#fff"/><stop offset="52.86%" stop-color="#fff"/><stop offset="59.29%" stop-color="#cfe4ff"/></linearGradient><linearGradient gradientUnits="userSpaceOnUse" id="o" x1="1040" y1="801" x2="1040" y2="600"><stop offset="19.2%" stop-color="#ced4db"/><stop offset="26.45%" stop-color="#fff"/><stop offset="52.86%" stop-color="#fff"/><stop offset="59.29%" stop-color="#cfe4ff"/></linearGradient><path d="M140-251c81 0 123 46 123 126C263-46 219 4 140 4 59 4 17-45 17-125s42-126 123-126zm0 227c63 0 89-41 89-101s-29-99-89-99c-61 0-89 39-89 99S79-25 140-24" id="U"/><path d="M141-36C126-15 110 5 73 4 37 3 15-17 15-53c-1-64 63-63 125-63 3-35-9-54-41-54-24 1-41 7-42 31l-33-3c5-37 33-52 76-52 45 0 72 20 72 64v82c-1 20 7 32 28 27v20c-31 9-61-2-59-35zM48-53c0 20 12 33 32 33 41-3 63-29 60-74-43 2-92-5-92 41" id="V"/><g id="p"><use transform="matrix(0.07407407407407407,0,0,0.07407407407407407,0,0)" xlink:href="#U"/><use transform="matrix(0.07407407407407407,0,0,0.07407407407407407,20.74074074074074,0)" xlink:href="#L"/><use transform="matrix(0.07407407407407407,0,0,0.07407407407407407,29.555555555555557,0)" xlink:href="#O"/><use transform="matrix(0.07407407407407407,0,0,0.07407407407407407,42.888888888888886,0)" xlink:href="#x"/><use transform="matrix(0.07407407407407407,0,0,0.07407407407407407,57.703703703703695,0)" xlink:href="#y"/><use transform="matrix(0.07407407407407407,0,0,0.07407407407407407,72.5185185185185,0)" xlink:href="#J"/><use transform="matrix(0.07407407407407407,0,0,0.07407407407407407,85.85185185185183,0)" xlink:href="#K"/><use transform="matrix(0.07407407407407407,0,0,0.07407407407407407,93.25925925925924,0)" xlink:href="#L"/><use transform="matrix(0.07407407407407407,0,0,0.07407407407407407,102.07407407407405,0)" xlink:href="#V"/><use transform="matrix(0.07407407407407407,0,0,0.07407407407407407,116.88888888888887,0)" xlink:href="#K"/><use transform="matrix(0.07407407407407407,0,0,0.07407407407407407,124.29629629629626,0)" xlink:href="#P"/><use transform="matrix(0.07407407407407407,0,0,0.07407407407407407,139.1111111111111,0)" xlink:href="#L"/></g><path d="M212-179c-10-28-35-45-73-45-59 0-87 40-87 99 0 60 29 101 89 101 43 0 62-24 78-52l27 14C228-24 195 4 139 4 59 4 22-46 18-125c-6-104 99-153 187-111 19 9 31 26 39 46" id="W"/><g id="q"><use transform="matrix(0.07407407407407407,0,0,0.07407407407407407,0,0)" xlink:href="#W"/><use transform="matrix(0.07407407407407407,0,0,0.07407407407407407,19.185185185185183,0)" xlink:href="#R"/><use transform="matrix(0.07407407407407407,0,0,0.07407407407407407,25.037037037037035,0)" xlink:href="#N"/><use transform="matrix(0.07407407407407407,0,0,0.07407407407407407,30.888888888888886,0)" xlink:href="#y"/><use transform="matrix(0.07407407407407407,0,0,0.07407407407407407,45.703703703703695,0)" xlink:href="#S"/><use transform="matrix(0.07407407407407407,0,0,0.07407407407407407,60.518518518518505,0)" xlink:href="#K"/></g><g id="r"><use transform="matrix(0.08641975308641973,0,0,0.08641975308641973,0,0)" xlink:href="#w"/><use transform="matrix(0.08641975308641973,0,0,0.08641975308641973,18.92592592592592,0)" xlink:href="#x"/><use transform="matrix(0.08641975308641973,0,0,0.08641975308641973,36.209876543209866,0)" xlink:href="#y"/></g><path d="M85-194c31 0 48 13 60 33l-1-100h32l1 261h-30c-2-10 0-23-3-31C134-8 116 4 85 4 32 4 16-35 15-94c0-66 23-100 70-100zm9 24c-40 0-46 34-46 75 0 40 6 74 45 74 42 0 51-32 51-76 0-42-9-74-50-73" id="X"/><path d="M47-170H22l-4-78h33" id="Y"/><g id="s"><use transform="matrix(0.08641975308641973,0,0,0.08641975308641973,0,0)" xlink:href="#X"/><use transform="matrix(0.08641975308641973,0,0,0.08641975308641973,17.283950617283946,0)" xlink:href="#P"/><use transform="matrix(0.08641975308641973,0,0,0.08641975308641973,34.56790123456789,0)" xlink:href="#S"/><use transform="matrix(0.08641975308641973,0,0,0.08641975308641973,51.85185185185183,0)" xlink:href="#Y"/><use transform="matrix(0.08641975308641973,0,0,0.08641975308641973,57.728395061728385,0)" xlink:href="#K"/></g><g id="t"><use transform="matrix(0.08641975308641973,0,0,0.08641975308641973,0,0)" xlink:href="#S"/><use transform="matrix(0.08641975308641973,0,0,0.08641975308641973,17.283950617283946,0)" xlink:href="#y"/><use transform="matrix(0.08641975308641973,0,0,0.08641975308641973,34.56790123456789,0)" xlink:href="#y"/><use transform="matrix(0.08641975308641973,0,0,0.08641975308641973,51.85185185185183,0)" xlink:href="#X"/></g><g id="u"><use transform="matrix(0.08641975308641973,0,0,0.08641975308641973,0,0)" xlink:href="#K"/><use transform="matrix(0.08641975308641973,0,0,0.08641975308641973,8.641975308641973,0)" xlink:href="#P"/></g><path d="M210-169c-67 3-38 105-44 169h-31v-121c0-29-5-50-35-48C34-165 62-65 56 0H25l-1-190h30c1 10-1 24 2 32 10-44 99-50 107 0 11-21 27-35 58-36 85-2 47 119 55 194h-31v-121c0-29-5-49-35-48" id="Z"/><g id="v"><use transform="matrix(0.08641975308641973,0,0,0.08641975308641973,0,0)" xlink:href="#N"/><use transform="matrix(0.08641975308641973,0,0,0.08641975308641973,6.827160493827159,0)" xlink:href="#S"/><use transform="matrix(0.08641975308641973,0,0,0.08641975308641973,24.111111111111107,0)" xlink:href="#K"/><use transform="matrix(0.08641975308641973,0,0,0.08641975308641973,32.753086419753075,0)" xlink:href="#y"/><use transform="matrix(0.08641975308641973,0,0,0.08641975308641973,50.037037037037024,0)" xlink:href="#L"/><use transform="matrix(0.08641975308641973,0,0,0.08641975308641973,60.32098765432097,0)" xlink:href="#O"/><use transform="matrix(0.08641975308641973,0,0,0.08641975308641973,75.87654320987653,0)" xlink:href="#P"/><use transform="matrix(0.08641975308641973,0,0,0.08641975308641973,93.16049382716048,0)" xlink:href="#Z"/><use transform="matrix(0.08641975308641973,0,0,0.08641975308641973,118.99999999999997,0)" xlink:href="#Z"/><use transform="matrix(0.08641975308641973,0,0,0.08641975308641973,144.83950617283946,0)" xlink:href="#I"/><use transform="matrix(0.08641975308641973,0,0,0.08641975308641973,162.1234567901234,0)" xlink:href="#S"/><use transform="matrix(0.08641975308641973,0,0,0.08641975308641973,179.40740740740736,0)" xlink:href="#N"/><use transform="matrix(0.08641975308641973,0,0,0.08641975308641973,186.23456790123453,0)" xlink:href="#O"/><use transform="matrix(0.08641975308641973,0,0,0.08641975308641973,201.79012345679007,0)" xlink:href="#V"/><use transform="matrix(0.08641975308641973,0,0,0.08641975308641973,219.07407407407402,0)" xlink:href="#K"/><use transform="matrix(0.08641975308641973,0,0,0.08641975308641973,227.716049382716,0)" xlink:href="#y"/></g></defs></g></svg>