<svg xmlns="http://www.w3.org/2000/svg" xmlns:xlink="http://www.w3.org/1999/xlink" xmlns:lucid="lucid" width="963" height="323"><g transform="translate(-78.5 -498.5)" lucid:page-tab-id="0_0"><path d="M361 600h3.98m7.96 0h7.96m7.96 0h7.96m7.96 0h7.96m7.96 0h7.96m7.96 0h7.96m7.96 0h7.96m7.96 0h7.96m7.96 0h7.96m7.96 0h7.96m7.96 0h7.96m7.96 0h7.96m7.96 0h7.96m7.96 0h7.96m7.96 0h7.96m7.96 0h7.96m7.96 0h7.96m7.96 0h7.96m7.96 0h7.96m7.96 0h7.96m7.96 0h7.96m7.96 0h7.96m7.96 0h7.96m7.96 0h7.96m7.96 0h7.96m7.96 0H759M361.03 600H360M758.97 600H760" stroke="#ba23f6" stroke-width="2" fill="none"/><path d="M360 640a20 20 0 0 1 20-20h360a20 20 0 0 1 20 20v160a20 20 0 0 1-20 20H380a20 20 0 0 1-20-20z" fill-opacity="0"/><path d="M358.5 640a1.5 1.5 0 0 1 1.5-1.5 1.5 1.5 0 0 1 1.5 1.5 1.5 1.5 0 0 1-1.5 1.5 1.5 1.5 0 0 1-1.5-1.5m2.73-9.96a1.5 1.5 0 0 1 1.5-1.5 1.5 1.5 0 0 1 1.5 1.5 1.5 1.5 0 0 1-1.5 1.5 1.5 1.5 0 0 1-1.5-1.5V630m7.3-7.26a1.5 1.5 0 0 1 1.5-1.5 1.5 1.5 0 0 1 1.5 1.5 1.5 1.5 0 0 1-1.5 1.5 1.5 1.5 0 0 1-1.5-1.5v-.03m9.97-2.7a1.5 1.5 0 0 1 1.5-1.5 1.5 1.5 0 0 1 1.5 1.5 1.5 1.5 0 0 1-1.5 1.5 1.5 1.5 0 0 1-1.5-1.5m12 0a1.5 1.5 0 0 1 1.5-1.5 1.5 1.5 0 0 1 1.5 1.5 1.5 1.5 0 0 1-1.5 1.5 1.5 1.5 0 0 1-1.5-1.5m12 0a1.5 1.5 0 0 1 1.5-1.5 1.5 1.5 0 0 1 1.5 1.5 1.5 1.5 0 0 1-1.5 1.5 1.5 1.5 0 0 1-1.5-1.5m12 0a1.5 1.5 0 0 1 1.5-1.5 1.5 1.5 0 0 1 1.5 1.5 1.5 1.5 0 0 1-1.5 1.5 1.5 1.5 0 0 1-1.5-1.5m12 0a1.5 1.5 0 0 1 1.5-1.5 1.5 1.5 0 0 1 1.5 1.5 1.5 1.5 0 0 1-1.5 1.5 1.5 1.5 0 0 1-1.5-1.5m12 0a1.5 1.5 0 0 1 1.5-1.5 1.5 1.5 0 0 1 1.5 1.5 1.5 1.5 0 0 1-1.5 1.5 1.5 1.5 0 0 1-1.5-1.5m12 0a1.5 1.5 0 0 1 1.5-1.5 1.5 1.5 0 0 1 1.5 1.5 1.5 1.5 0 0 1-1.5 1.5 1.5 1.5 0 0 1-1.5-1.5m12 0a1.5 1.5 0 0 1 1.5-1.5 1.5 1.5 0 0 1 1.5 1.5 1.5 1.5 0 0 1-1.5 1.5 1.5 1.5 0 0 1-1.5-1.5m12 0a1.5 1.5 0 0 1 1.5-1.5 1.5 1.5 0 0 1 1.5 1.5 1.5 1.5 0 0 1-1.5 1.5 1.5 1.5 0 0 1-1.5-1.5m12 0a1.5 1.5 0 0 1 1.5-1.5 1.5 1.5 0 0 1 1.5 1.5 1.5 1.5 0 0 1-1.5 1.5 1.5 1.5 0 0 1-1.5-1.5m12 0a1.5 1.5 0 0 1 1.5-1.5 1.5 1.5 0 0 1 1.5 1.5 1.5 1.5 0 0 1-1.5 1.5 1.5 1.5 0 0 1-1.5-1.5m12 0a1.5 1.5 0 0 1 1.5-1.5 1.5 1.5 0 0 1 1.5 1.5 1.5 1.5 0 0 1-1.5 1.5 1.5 1.5 0 0 1-1.5-1.5m12 0a1.5 1.5 0 0 1 1.5-1.5 1.5 1.5 0 0 1 1.5 1.5 1.5 1.5 0 0 1-1.5 1.5 1.5 1.5 0 0 1-1.5-1.5m12 0a1.5 1.5 0 0 1 1.5-1.5 1.5 1.5 0 0 1 1.5 1.5 1.5 1.5 0 0 1-1.5 1.5 1.5 1.5 0 0 1-1.5-1.5m12 0a1.5 1.5 0 0 1 1.5-1.5 1.5 1.5 0 0 1 1.5 1.5 1.5 1.5 0 0 1-1.5 1.5 1.5 1.5 0 0 1-1.5-1.5m12 0a1.5 1.5 0 0 1 1.5-1.5 1.5 1.5 0 0 1 1.5 1.5 1.5 1.5 0 0 1-1.5 1.5 1.5 1.5 0 0 1-1.5-1.5m12 0a1.5 1.5 0 0 1 1.5-1.5 1.5 1.5 0 0 1 1.5 1.5 1.5 1.5 0 0 1-1.5 1.5 1.5 1.5 0 0 1-1.5-1.5m12 0a1.5 1.5 0 0 1 1.5-1.5 1.5 1.5 0 0 1 1.5 1.5 1.5 1.5 0 0 1-1.5 1.5 1.5 1.5 0 0 1-1.5-1.5m12 0a1.5 1.5 0 0 1 1.5-1.5 1.5 1.5 0 0 1 1.5 1.5 1.5 1.5 0 0 1-1.5 1.5 1.5 1.5 0 0 1-1.5-1.5m12 0a1.5 1.5 0 0 1 1.5-1.5 1.5 1.5 0 0 1 1.5 1.5 1.5 1.5 0 0 1-1.5 1.5 1.5 1.5 0 0 1-1.5-1.5m12 0a1.5 1.5 0 0 1 1.5-1.5 1.5 1.5 0 0 1 1.5 1.5 1.5 1.5 0 0 1-1.5 1.5 1.5 1.5 0 0 1-1.5-1.5m12 0a1.5 1.5 0 0 1 1.5-1.5 1.5 1.5 0 0 1 1.5 1.5 1.5 1.5 0 0 1-1.5 1.5 1.5 1.5 0 0 1-1.5-1.5m12 0a1.5 1.5 0 0 1 1.5-1.5 1.5 1.5 0 0 1 1.5 1.5 1.5 1.5 0 0 1-1.5 1.5 1.5 1.5 0 0 1-1.5-1.5m12 0a1.5 1.5 0 0 1 1.5-1.5 1.5 1.5 0 0 1 1.5 1.5 1.5 1.5 0 0 1-1.5 1.5 1.5 1.5 0 0 1-1.5-1.5m12 0a1.5 1.5 0 0 1 1.5-1.5 1.5 1.5 0 0 1 1.5 1.5 1.5 1.5 0 0 1-1.5 1.5 1.5 1.5 0 0 1-1.5-1.5m12 0a1.5 1.5 0 0 1 1.5-1.5 1.5 1.5 0 0 1 1.5 1.5 1.5 1.5 0 0 1-1.5 1.5 1.5 1.5 0 0 1-1.5-1.5m12 0a1.5 1.5 0 0 1 1.5-1.5 1.5 1.5 0 0 1 1.5 1.5 1.5 1.5 0 0 1-1.5 1.5 1.5 1.5 0 0 1-1.5-1.5m12 0a1.5 1.5 0 0 1 1.5-1.5 1.5 1.5 0 0 1 1.5 1.5 1.5 1.5 0 0 1-1.5 1.5 1.5 1.5 0 0 1-1.5-1.5m12 0a1.5 1.5 0 0 1 1.5-1.5 1.5 1.5 0 0 1 1.5 1.5 1.5 1.5 0 0 1-1.5 1.5 1.5 1.5 0 0 1-1.5-1.5m12 0a1.5 1.5 0 0 1 1.5-1.5 1.5 1.5 0 0 1 1.5 1.5 1.5 1.5 0 0 1-1.5 1.5 1.5 1.5 0 0 1-1.5-1.5m12 0a1.5 1.5 0 0 1 1.5-1.5 1.5 1.5 0 0 1 1.5 1.5 1.5 1.5 0 0 1-1.5 1.5 1.5 1.5 0 0 1-1.5-1.5m9.97 2.74a1.5 1.5 0 0 1 1.5-1.5 1.5 1.5 0 0 1 1.5 1.5 1.5 1.5 0 0 1-1.5 1.5 1.5 1.5 0 0 1-1.5-1.5v-.03m7.3 7.34a1.5 1.5 0 0 1 1.5-1.5 1.5 1.5 0 0 1 1.5 1.5 1.5 1.5 0 0 1-1.5 1.5 1.5 1.5 0 0 1-1.5-1.5V630m2.73 10a1.5 1.5 0 0 1 1.5-1.5 1.5 1.5 0 0 1 1.5 1.5 1.5 1.5 0 0 1-1.5 1.5 1.5 1.5 0 0 1-1.5-1.5m0 12.32a1.5 1.5 0 0 1 1.5-1.5 1.5 1.5 0 0 1 1.5 1.5 1.5 1.5 0 0 1-1.5 1.5 1.5 1.5 0 0 1-1.5-1.5v-.03m0 12.33a1.5 1.5 0 0 1 1.5-1.5 1.5 1.5 0 0 1 1.5 1.5 1.5 1.5 0 0 1-1.5 1.5 1.5 1.5 0 0 1-1.5-1.5v-.03m0 12.34v-.02a1.5 1.5 0 0 1 1.5-1.5 1.5 1.5 0 0 1 1.5 1.5 1.5 1.5 0 0 1-1.5 1.5 1.5 1.5 0 0 1-1.5-1.5m0 12.33v-.02a1.5 1.5 0 0 1 1.5-1.5 1.5 1.5 0 0 1 1.5 1.5 1.5 1.5 0 0 1-1.5 1.5 1.5 1.5 0 0 1-1.5-1.5m0 12.32a1.5 1.5 0 0 1 1.5-1.5 1.5 1.5 0 0 1 1.5 1.5 1.5 1.5 0 0 1-1.5 1.5 1.5 1.5 0 0 1-1.5-1.5v-.03m0 12.34a1.5 1.5 0 0 1 1.5-1.5 1.5 1.5 0 0 1 1.5 1.5 1.5 1.5 0 0 1-1.5 1.5 1.5 1.5 0 0 1-1.5-1.5v-.03m0 12.34v-.02a1.5 1.5 0 0 1 1.5-1.5 1.5 1.5 0 0 1 1.5 1.5 1.5 1.5 0 0 1-1.5 1.5 1.5 1.5 0 0 1-1.5-1.5m0 12.33v-.02a1.5 1.5 0 0 1 1.5-1.5 1.5 1.5 0 0 1 1.5 1.5 1.5 1.5 0 0 1-1.5 1.5 1.5 1.5 0 0 1-1.5-1.5m0 12.32a1.5 1.5 0 0 1 1.5-1.5 1.5 1.5 0 0 1 1.5 1.5 1.5 1.5 0 0 1-1.5 1.5 1.5 1.5 0 0 1-1.5-1.5v-.03m0 12.34v-.02a1.5 1.5 0 0 1 1.5-1.5 1.5 1.5 0 0 1 1.5 1.5 1.5 1.5 0 0 1-1.5 1.5 1.5 1.5 0 0 1-1.5-1.5v-.02m0 12.34a1.5 1.5 0 0 1 1.5-1.5 1.5 1.5 0 0 1 1.5 1.5 1.5 1.5 0 0 1-1.5 1.5 1.5 1.5 0 0 1-1.5-1.5v-.03m0 12.34a1.5 1.5 0 0 1 1.5-1.5 1.5 1.5 0 0 1 1.5 1.5 1.5 1.5 0 0 1-1.5 1.5 1.5 1.5 0 0 1-1.5-1.5v-.02m0 12.34V800a1.5 1.5 0 0 1 1.5-1.5 1.5 1.5 0 0 1 1.5 1.5 1.5 1.5 0 0 1-1.5 1.5 1.5 1.5 0 0 1-1.5-1.5m-2.73 10v-.03a1.5 1.5 0 0 1 1.5-1.5 1.5 1.5 0 0 1 1.5 1.5 1.5 1.5 0 0 1-1.5 1.5 1.5 1.5 0 0 1-1.5-1.5m-7.3 7.32v-.03a1.5 1.5 0 0 1 1.5-1.5 1.5 1.5 0 0 1 1.5 1.5 1.5 1.5 0 0 1-1.5 1.5 1.5 1.5 0 0 1-1.5-1.5M738.5 820V820a1.5 1.5 0 0 1 1.5-1.5 1.5 1.5 0 0 1 1.5 1.5 1.5 1.5 0 0 1-1.5 1.5 1.5 1.5 0 0 1-1.5-1.5m-12 0a1.5 1.5 0 0 1 1.5-1.5 1.5 1.5 0 0 1 1.5 1.5 1.5 1.5 0 0 1-1.5 1.5 1.5 1.5 0 0 1-1.5-1.5m-12 0a1.5 1.5 0 0 1 1.5-1.5 1.5 1.5 0 0 1 1.5 1.5 1.5 1.5 0 0 1-1.5 1.5 1.5 1.5 0 0 1-1.5-1.5m-12 0a1.5 1.5 0 0 1 1.5-1.5 1.5 1.5 0 0 1 1.5 1.5 1.5 1.5 0 0 1-1.5 1.5 1.5 1.5 0 0 1-1.5-1.5m-12 0a1.5 1.5 0 0 1 1.5-1.5 1.5 1.5 0 0 1 1.5 1.5 1.5 1.5 0 0 1-1.5 1.5 1.5 1.5 0 0 1-1.5-1.5m-12 0a1.5 1.5 0 0 1 1.5-1.5 1.5 1.5 0 0 1 1.5 1.5 1.5 1.5 0 0 1-1.5 1.5 1.5 1.5 0 0 1-1.5-1.5m-12 0a1.5 1.5 0 0 1 1.5-1.5 1.5 1.5 0 0 1 1.5 1.5 1.5 1.5 0 0 1-1.5 1.5 1.5 1.5 0 0 1-1.5-1.5m-12 0a1.5 1.5 0 0 1 1.5-1.5 1.5 1.5 0 0 1 1.5 1.5 1.5 1.5 0 0 1-1.5 1.5 1.5 1.5 0 0 1-1.5-1.5m-12 0a1.5 1.5 0 0 1 1.5-1.5 1.5 1.5 0 0 1 1.5 1.5 1.5 1.5 0 0 1-1.5 1.5 1.5 1.5 0 0 1-1.5-1.5m-12 0a1.5 1.5 0 0 1 1.5-1.5 1.5 1.5 0 0 1 1.5 1.5 1.5 1.5 0 0 1-1.5 1.5 1.5 1.5 0 0 1-1.5-1.5m-12 0a1.5 1.5 0 0 1 1.5-1.5 1.5 1.5 0 0 1 1.5 1.5 1.5 1.5 0 0 1-1.5 1.5 1.5 1.5 0 0 1-1.5-1.5m-12 0a1.5 1.5 0 0 1 1.5-1.5 1.5 1.5 0 0 1 1.5 1.5 1.5 1.5 0 0 1-1.5 1.5 1.5 1.5 0 0 1-1.5-1.5m-12 0a1.5 1.5 0 0 1 1.5-1.5 1.5 1.5 0 0 1 1.5 1.5 1.5 1.5 0 0 1-1.5 1.5 1.5 1.5 0 0 1-1.5-1.5m-12 0a1.5 1.5 0 0 1 1.5-1.5 1.5 1.5 0 0 1 1.5 1.5 1.5 1.5 0 0 1-1.5 1.5 1.5 1.5 0 0 1-1.5-1.5m-12 0a1.5 1.5 0 0 1 1.5-1.5 1.5 1.5 0 0 1 1.5 1.5 1.5 1.5 0 0 1-1.5 1.5 1.5 1.5 0 0 1-1.5-1.5m-12 0a1.5 1.5 0 0 1 1.5-1.5 1.5 1.5 0 0 1 1.5 1.5 1.5 1.5 0 0 1-1.5 1.5 1.5 1.5 0 0 1-1.5-1.5m-12 0a1.5 1.5 0 0 1 1.5-1.5 1.5 1.5 0 0 1 1.5 1.5 1.5 1.5 0 0 1-1.5 1.5 1.5 1.5 0 0 1-1.5-1.5m-12 0a1.5 1.5 0 0 1 1.5-1.5 1.5 1.5 0 0 1 1.5 1.5 1.5 1.5 0 0 1-1.5 1.5 1.5 1.5 0 0 1-1.5-1.5m-12 0a1.5 1.5 0 0 1 1.5-1.5 1.5 1.5 0 0 1 1.5 1.5 1.5 1.5 0 0 1-1.5 1.5 1.5 1.5 0 0 1-1.5-1.5m-12 0a1.5 1.5 0 0 1 1.5-1.5 1.5 1.5 0 0 1 1.5 1.5 1.5 1.5 0 0 1-1.5 1.5 1.5 1.5 0 0 1-1.5-1.5m-12 0a1.5 1.5 0 0 1 1.5-1.5 1.5 1.5 0 0 1 1.5 1.5 1.5 1.5 0 0 1-1.5 1.5 1.5 1.5 0 0 1-1.5-1.5m-12 0a1.5 1.5 0 0 1 1.5-1.5 1.5 1.5 0 0 1 1.5 1.5 1.5 1.5 0 0 1-1.5 1.5 1.5 1.5 0 0 1-1.5-1.5m-12 0a1.5 1.5 0 0 1 1.5-1.5 1.5 1.5 0 0 1 1.5 1.5 1.5 1.5 0 0 1-1.5 1.5 1.5 1.5 0 0 1-1.5-1.5m-12 0a1.5 1.5 0 0 1 1.5-1.5 1.5 1.5 0 0 1 1.5 1.5 1.5 1.5 0 0 1-1.5 1.5 1.5 1.5 0 0 1-1.5-1.5m-12 0a1.5 1.5 0 0 1 1.5-1.5 1.5 1.5 0 0 1 1.5 1.5 1.5 1.5 0 0 1-1.5 1.5 1.5 1.5 0 0 1-1.5-1.5m-12 0a1.5 1.5 0 0 1 1.5-1.5 1.5 1.5 0 0 1 1.5 1.5 1.5 1.5 0 0 1-1.5 1.5 1.5 1.5 0 0 1-1.5-1.5m-12 0a1.5 1.5 0 0 1 1.5-1.5 1.5 1.5 0 0 1 1.5 1.5 1.5 1.5 0 0 1-1.5 1.5 1.5 1.5 0 0 1-1.5-1.5m-12 0a1.5 1.5 0 0 1 1.5-1.5 1.5 1.5 0 0 1 1.5 1.5 1.5 1.5 0 0 1-1.5 1.5 1.5 1.5 0 0 1-1.5-1.5m-12 0a1.5 1.5 0 0 1 1.5-1.5 1.5 1.5 0 0 1 1.5 1.5 1.5 1.5 0 0 1-1.5 1.5 1.5 1.5 0 0 1-1.5-1.5m-12 0a1.5 1.5 0 0 1 1.5-1.5 1.5 1.5 0 0 1 1.5 1.5 1.5 1.5 0 0 1-1.5 1.5 1.5 1.5 0 0 1-1.5-1.5m-12 0a1.5 1.5 0 0 1 1.5-1.5 1.5 1.5 0 0 1 1.5 1.5 1.5 1.5 0 0 1-1.5 1.5 1.5 1.5 0 0 1-1.5-1.5m-9.97-2.7v-.03a1.5 1.5 0 0 1 1.5-1.5 1.5 1.5 0 0 1 1.5 1.5 1.5 1.5 0 0 1-1.5 1.5 1.5 1.5 0 0 1-1.5-1.5m-7.3-7.28v-.03a1.5 1.5 0 0 1 1.5-1.5 1.5 1.5 0 0 1 1.5 1.5 1.5 1.5 0 0 1-1.5 1.5 1.5 1.5 0 0 1-1.5-1.5M358.5 800a1.5 1.5 0 0 1 1.5-1.5 1.5 1.5 0 0 1 1.5 1.5 1.5 1.5 0 0 1-1.5 1.5 1.5 1.5 0 0 1-1.5-1.5m0-12.3a1.5 1.5 0 0 1 1.5-1.5 1.5 1.5 0 0 1 1.5 1.5 1.5 1.5 0 0 1-1.5 1.5 1.5 1.5 0 0 1-1.5-1.5v-.02m0-12.28a1.5 1.5 0 0 1 1.5-1.5 1.5 1.5 0 0 1 1.5 1.5 1.5 1.5 0 0 1-1.5 1.5 1.5 1.5 0 0 1-1.5-1.5v-.03m0-12.28v-.02a1.5 1.5 0 0 1 1.5-1.5 1.5 1.5 0 0 1 1.5 1.5 1.5 1.5 0 0 1-1.5 1.5 1.5 1.5 0 0 1-1.5-1.5v-.02m0-12.28a1.5 1.5 0 0 1 1.5-1.5 1.5 1.5 0 0 1 1.5 1.5 1.5 1.5 0 0 1-1.5 1.5 1.5 1.5 0 0 1-1.5-1.5v-.03m0-12.27v-.02a1.5 1.5 0 0 1 1.5-1.5 1.5 1.5 0 0 1 1.5 1.5 1.5 1.5 0 0 1-1.5 1.5 1.5 1.5 0 0 1-1.5-1.5m0-12.3a1.5 1.5 0 0 1 1.5-1.5 1.5 1.5 0 0 1 1.5 1.5 1.5 1.5 0 0 1-1.5 1.5 1.5 1.5 0 0 1-1.5-1.5v-.02m0-12.28a1.5 1.5 0 0 1 1.5-1.5 1.5 1.5 0 0 1 1.5 1.5 1.5 1.5 0 0 1-1.5 1.5 1.5 1.5 0 0 1-1.5-1.5v-.03m0-12.28a1.5 1.5 0 0 1 1.5-1.5 1.5 1.5 0 0 1 1.5 1.5 1.5 1.5 0 0 1-1.5 1.5 1.5 1.5 0 0 1-1.5-1.5v-.03m0-12.27v-.02a1.5 1.5 0 0 1 1.5-1.5 1.5 1.5 0 0 1 1.5 1.5 1.5 1.5 0 0 1-1.5 1.5 1.5 1.5 0 0 1-1.5-1.5m0-12.3a1.5 1.5 0 0 1 1.5-1.5 1.5 1.5 0 0 1 1.5 1.5 1.5 1.5 0 0 1-1.5 1.5 1.5 1.5 0 0 1-1.5-1.5v-.02m0-12.27a1.5 1.5 0 0 1 1.5-1.5 1.5 1.5 0 0 1 1.5 1.5 1.5 1.5 0 0 1-1.5 1.5 1.5 1.5 0 0 1-1.5-1.5v-.03m0-12.28a1.5 1.5 0 0 1 1.5-1.5 1.5 1.5 0 0 1 1.5 1.5 1.5 1.5 0 0 1-1.5 1.5 1.5 1.5 0 0 1-1.5-1.5v-.03m0-12.28V640a1.5 1.5 0 0 1 1.5-1.5 1.5 1.5 0 0 1 1.5 1.5 1.5 1.5 0 0 1-1.5 1.5 1.5 1.5 0 0 1-1.5-1.5"/><path d="M360 520a20 20 0 0 1 20-20h360a20 20 0 0 1 20 20v40a20 20 0 0 1-20 20H380a20 20 0 0 1-20-20z" fill-opacity="0"/><path d="M358.5 520a1.5 1.5 0 0 1 1.5-1.5 1.5 1.5 0 0 1 1.5 1.5 1.5 1.5 0 0 1-1.5 1.5 1.5 1.5 0 0 1-1.5-1.5m2.73-9.96a1.5 1.5 0 0 1 1.5-1.5 1.5 1.5 0 0 1 1.5 1.5 1.5 1.5 0 0 1-1.5 1.5 1.5 1.5 0 0 1-1.5-1.5V510m7.3-7.26a1.5 1.5 0 0 1 1.5-1.5 1.5 1.5 0 0 1 1.5 1.5 1.5 1.5 0 0 1-1.5 1.5 1.5 1.5 0 0 1-1.5-1.5v-.03m9.97-2.7a1.5 1.5 0 0 1 1.5-1.5 1.5 1.5 0 0 1 1.5 1.5 1.5 1.5 0 0 1-1.5 1.5 1.5 1.5 0 0 1-1.5-1.5m12 0a1.5 1.5 0 0 1 1.5-1.5 1.5 1.5 0 0 1 1.5 1.5 1.5 1.5 0 0 1-1.5 1.5 1.5 1.5 0 0 1-1.5-1.5m12 0a1.5 1.5 0 0 1 1.5-1.5 1.5 1.5 0 0 1 1.5 1.5 1.5 1.5 0 0 1-1.5 1.5 1.5 1.5 0 0 1-1.5-1.5m12 0a1.5 1.5 0 0 1 1.5-1.5 1.5 1.5 0 0 1 1.5 1.5 1.5 1.5 0 0 1-1.5 1.5 1.5 1.5 0 0 1-1.5-1.5m12 0a1.5 1.5 0 0 1 1.5-1.5 1.5 1.5 0 0 1 1.5 1.5 1.5 1.5 0 0 1-1.5 1.5 1.5 1.5 0 0 1-1.5-1.5m12 0a1.5 1.5 0 0 1 1.5-1.5 1.5 1.5 0 0 1 1.5 1.5 1.5 1.5 0 0 1-1.5 1.5 1.5 1.5 0 0 1-1.5-1.5m12 0a1.5 1.5 0 0 1 1.5-1.5 1.5 1.5 0 0 1 1.5 1.5 1.5 1.5 0 0 1-1.5 1.5 1.5 1.5 0 0 1-1.5-1.5m12 0a1.5 1.5 0 0 1 1.5-1.5 1.5 1.5 0 0 1 1.5 1.5 1.5 1.5 0 0 1-1.5 1.5 1.5 1.5 0 0 1-1.5-1.5m12 0a1.5 1.5 0 0 1 1.5-1.5 1.5 1.5 0 0 1 1.5 1.5 1.5 1.5 0 0 1-1.5 1.5 1.5 1.5 0 0 1-1.5-1.5m12 0a1.5 1.5 0 0 1 1.5-1.5 1.5 1.5 0 0 1 1.5 1.5 1.5 1.5 0 0 1-1.5 1.5 1.5 1.5 0 0 1-1.5-1.5m12 0a1.5 1.5 0 0 1 1.5-1.5 1.5 1.5 0 0 1 1.5 1.5 1.5 1.5 0 0 1-1.5 1.5 1.5 1.5 0 0 1-1.5-1.5m12 0a1.5 1.5 0 0 1 1.5-1.5 1.5 1.5 0 0 1 1.5 1.5 1.5 1.5 0 0 1-1.5 1.5 1.5 1.5 0 0 1-1.5-1.5m12 0a1.5 1.5 0 0 1 1.5-1.5 1.5 1.5 0 0 1 1.5 1.5 1.5 1.5 0 0 1-1.5 1.5 1.5 1.5 0 0 1-1.5-1.5m12 0a1.5 1.5 0 0 1 1.5-1.5 1.5 1.5 0 0 1 1.5 1.5 1.5 1.5 0 0 1-1.5 1.5 1.5 1.5 0 0 1-1.5-1.5m12 0a1.5 1.5 0 0 1 1.5-1.5 1.5 1.5 0 0 1 1.5 1.5 1.5 1.5 0 0 1-1.5 1.5 1.5 1.5 0 0 1-1.5-1.5m12 0a1.5 1.5 0 0 1 1.5-1.5 1.5 1.5 0 0 1 1.5 1.5 1.5 1.5 0 0 1-1.5 1.5 1.5 1.5 0 0 1-1.5-1.5m12 0a1.5 1.5 0 0 1 1.5-1.5 1.5 1.5 0 0 1 1.5 1.5 1.5 1.5 0 0 1-1.5 1.5 1.5 1.5 0 0 1-1.5-1.5m12 0a1.5 1.5 0 0 1 1.5-1.5 1.5 1.5 0 0 1 1.5 1.5 1.5 1.5 0 0 1-1.5 1.5 1.5 1.5 0 0 1-1.5-1.5m12 0a1.5 1.5 0 0 1 1.5-1.5 1.5 1.5 0 0 1 1.5 1.5 1.5 1.5 0 0 1-1.5 1.5 1.5 1.5 0 0 1-1.5-1.5m12 0a1.5 1.5 0 0 1 1.5-1.5 1.5 1.5 0 0 1 1.5 1.5 1.5 1.5 0 0 1-1.5 1.5 1.5 1.5 0 0 1-1.5-1.5m12 0a1.5 1.5 0 0 1 1.5-1.5 1.5 1.5 0 0 1 1.5 1.5 1.5 1.5 0 0 1-1.5 1.5 1.5 1.5 0 0 1-1.5-1.5m12 0a1.5 1.5 0 0 1 1.5-1.5 1.5 1.5 0 0 1 1.5 1.5 1.5 1.5 0 0 1-1.5 1.5 1.5 1.5 0 0 1-1.5-1.5m12 0a1.5 1.5 0 0 1 1.5-1.5 1.5 1.5 0 0 1 1.5 1.5 1.5 1.5 0 0 1-1.5 1.5 1.5 1.5 0 0 1-1.5-1.5m12 0a1.5 1.5 0 0 1 1.5-1.5 1.5 1.5 0 0 1 1.5 1.5 1.5 1.5 0 0 1-1.5 1.5 1.5 1.5 0 0 1-1.5-1.5m12 0a1.5 1.5 0 0 1 1.5-1.5 1.5 1.5 0 0 1 1.5 1.5 1.5 1.5 0 0 1-1.5 1.5 1.5 1.5 0 0 1-1.5-1.5m12 0a1.5 1.5 0 0 1 1.5-1.5 1.5 1.5 0 0 1 1.5 1.5 1.5 1.5 0 0 1-1.5 1.5 1.5 1.5 0 0 1-1.5-1.5m12 0a1.5 1.5 0 0 1 1.5-1.5 1.5 1.5 0 0 1 1.5 1.5 1.5 1.5 0 0 1-1.5 1.5 1.5 1.5 0 0 1-1.5-1.5m12 0a1.5 1.5 0 0 1 1.5-1.5 1.5 1.5 0 0 1 1.5 1.5 1.5 1.5 0 0 1-1.5 1.5 1.5 1.5 0 0 1-1.5-1.5m12 0a1.5 1.5 0 0 1 1.5-1.5 1.5 1.5 0 0 1 1.5 1.5 1.5 1.5 0 0 1-1.5 1.5 1.5 1.5 0 0 1-1.5-1.5m12 0a1.5 1.5 0 0 1 1.5-1.5 1.5 1.5 0 0 1 1.5 1.5 1.5 1.5 0 0 1-1.5 1.5 1.5 1.5 0 0 1-1.5-1.5m12 0a1.5 1.5 0 0 1 1.5-1.5 1.5 1.5 0 0 1 1.5 1.5 1.5 1.5 0 0 1-1.5 1.5 1.5 1.5 0 0 1-1.5-1.5m9.97 2.74a1.5 1.5 0 0 1 1.5-1.5 1.5 1.5 0 0 1 1.5 1.5 1.5 1.5 0 0 1-1.5 1.5 1.5 1.5 0 0 1-1.5-1.5v-.03m7.3 7.34a1.5 1.5 0 0 1 1.5-1.5 1.5 1.5 0 0 1 1.5 1.5 1.5 1.5 0 0 1-1.5 1.5 1.5 1.5 0 0 1-1.5-1.5V510m2.73 10a1.5 1.5 0 0 1 1.5-1.5 1.5 1.5 0 0 1 1.5 1.5 1.5 1.5 0 0 1-1.5 1.5 1.5 1.5 0 0 1-1.5-1.5m0 13.35v-.02a1.5 1.5 0 0 1 1.5-1.5 1.5 1.5 0 0 1 1.5 1.5 1.5 1.5 0 0 1-1.5 1.5 1.5 1.5 0 0 1-1.5-1.5m0 13.35a1.5 1.5 0 0 1 1.5-1.5 1.5 1.5 0 0 1 1.5 1.5 1.5 1.5 0 0 1-1.5 1.5 1.5 1.5 0 0 1-1.5-1.5v-.03m0 13.37V560a1.5 1.5 0 0 1 1.5-1.5 1.5 1.5 0 0 1 1.5 1.5 1.5 1.5 0 0 1-1.5 1.5 1.5 1.5 0 0 1-1.5-1.5m-2.73 10v-.03a1.5 1.5 0 0 1 1.5-1.5 1.5 1.5 0 0 1 1.5 1.5 1.5 1.5 0 0 1-1.5 1.5 1.5 1.5 0 0 1-1.5-1.5m-7.3 7.32v-.03a1.5 1.5 0 0 1 1.5-1.5 1.5 1.5 0 0 1 1.5 1.5 1.5 1.5 0 0 1-1.5 1.5 1.5 1.5 0 0 1-1.5-1.5M738.5 580V580a1.5 1.5 0 0 1 1.5-1.5 1.5 1.5 0 0 1 1.5 1.5 1.5 1.5 0 0 1-1.5 1.5 1.5 1.5 0 0 1-1.5-1.5m-12 0a1.5 1.5 0 0 1 1.5-1.5 1.5 1.5 0 0 1 1.5 1.5 1.5 1.5 0 0 1-1.5 1.5 1.5 1.5 0 0 1-1.5-1.5m-12 0a1.5 1.5 0 0 1 1.5-1.5 1.5 1.5 0 0 1 1.5 1.5 1.5 1.5 0 0 1-1.5 1.5 1.5 1.5 0 0 1-1.5-1.5m-12 0a1.5 1.5 0 0 1 1.5-1.5 1.5 1.5 0 0 1 1.5 1.5 1.5 1.5 0 0 1-1.5 1.5 1.5 1.5 0 0 1-1.5-1.5m-12 0a1.5 1.5 0 0 1 1.5-1.5 1.5 1.5 0 0 1 1.5 1.5 1.5 1.5 0 0 1-1.5 1.5 1.5 1.5 0 0 1-1.5-1.5m-12 0a1.5 1.5 0 0 1 1.5-1.5 1.5 1.5 0 0 1 1.5 1.5 1.5 1.5 0 0 1-1.5 1.5 1.5 1.5 0 0 1-1.5-1.5m-12 0a1.5 1.5 0 0 1 1.5-1.5 1.5 1.5 0 0 1 1.5 1.5 1.5 1.5 0 0 1-1.5 1.5 1.5 1.5 0 0 1-1.5-1.5m-12 0a1.5 1.5 0 0 1 1.5-1.5 1.5 1.5 0 0 1 1.5 1.5 1.5 1.5 0 0 1-1.5 1.5 1.5 1.5 0 0 1-1.5-1.5m-12 0a1.5 1.5 0 0 1 1.5-1.5 1.5 1.5 0 0 1 1.5 1.5 1.5 1.5 0 0 1-1.5 1.5 1.5 1.5 0 0 1-1.5-1.5m-12 0a1.5 1.5 0 0 1 1.5-1.5 1.5 1.5 0 0 1 1.5 1.5 1.5 1.5 0 0 1-1.5 1.5 1.5 1.5 0 0 1-1.5-1.5m-12 0a1.5 1.5 0 0 1 1.5-1.5 1.5 1.5 0 0 1 1.5 1.5 1.5 1.5 0 0 1-1.5 1.5 1.5 1.5 0 0 1-1.5-1.5m-12 0a1.5 1.5 0 0 1 1.5-1.5 1.5 1.5 0 0 1 1.5 1.5 1.5 1.5 0 0 1-1.5 1.5 1.5 1.5 0 0 1-1.5-1.5m-12 0a1.5 1.5 0 0 1 1.5-1.5 1.5 1.5 0 0 1 1.5 1.5 1.5 1.5 0 0 1-1.5 1.5 1.5 1.5 0 0 1-1.5-1.5m-12 0a1.5 1.5 0 0 1 1.5-1.5 1.5 1.5 0 0 1 1.5 1.5 1.5 1.5 0 0 1-1.5 1.5 1.5 1.5 0 0 1-1.5-1.5m-12 0a1.5 1.5 0 0 1 1.5-1.5 1.5 1.5 0 0 1 1.5 1.5 1.5 1.5 0 0 1-1.5 1.5 1.5 1.5 0 0 1-1.5-1.5m-12 0a1.5 1.5 0 0 1 1.5-1.5 1.5 1.5 0 0 1 1.5 1.5 1.5 1.5 0 0 1-1.5 1.5 1.5 1.5 0 0 1-1.5-1.5m-12 0a1.5 1.5 0 0 1 1.5-1.5 1.5 1.5 0 0 1 1.5 1.5 1.5 1.5 0 0 1-1.5 1.5 1.5 1.5 0 0 1-1.5-1.5m-12 0a1.5 1.5 0 0 1 1.5-1.5 1.5 1.5 0 0 1 1.5 1.5 1.5 1.5 0 0 1-1.5 1.5 1.5 1.5 0 0 1-1.5-1.5m-12 0a1.5 1.5 0 0 1 1.5-1.5 1.5 1.5 0 0 1 1.5 1.5 1.5 1.5 0 0 1-1.5 1.5 1.5 1.5 0 0 1-1.5-1.5m-12 0a1.5 1.5 0 0 1 1.5-1.5 1.5 1.5 0 0 1 1.5 1.5 1.5 1.5 0 0 1-1.5 1.5 1.5 1.5 0 0 1-1.5-1.5m-12 0a1.5 1.5 0 0 1 1.5-1.5 1.5 1.5 0 0 1 1.5 1.5 1.5 1.5 0 0 1-1.5 1.5 1.5 1.5 0 0 1-1.5-1.5m-12 0a1.5 1.5 0 0 1 1.5-1.5 1.5 1.5 0 0 1 1.5 1.5 1.5 1.5 0 0 1-1.5 1.5 1.5 1.5 0 0 1-1.5-1.5m-12 0a1.5 1.5 0 0 1 1.5-1.5 1.5 1.5 0 0 1 1.5 1.5 1.5 1.5 0 0 1-1.5 1.5 1.5 1.5 0 0 1-1.5-1.5m-12 0a1.5 1.5 0 0 1 1.5-1.5 1.5 1.5 0 0 1 1.5 1.5 1.5 1.5 0 0 1-1.5 1.5 1.5 1.5 0 0 1-1.5-1.5m-12 0a1.5 1.5 0 0 1 1.5-1.5 1.5 1.5 0 0 1 1.5 1.5 1.5 1.5 0 0 1-1.5 1.5 1.5 1.5 0 0 1-1.5-1.5m-12 0a1.5 1.5 0 0 1 1.5-1.5 1.5 1.5 0 0 1 1.5 1.5 1.5 1.5 0 0 1-1.5 1.5 1.5 1.5 0 0 1-1.5-1.5m-12 0a1.5 1.5 0 0 1 1.5-1.5 1.5 1.5 0 0 1 1.5 1.5 1.5 1.5 0 0 1-1.5 1.5 1.5 1.5 0 0 1-1.5-1.5m-12 0a1.5 1.5 0 0 1 1.5-1.5 1.5 1.5 0 0 1 1.5 1.5 1.5 1.5 0 0 1-1.5 1.5 1.5 1.5 0 0 1-1.5-1.5m-12 0a1.5 1.5 0 0 1 1.5-1.5 1.5 1.5 0 0 1 1.5 1.5 1.5 1.5 0 0 1-1.5 1.5 1.5 1.5 0 0 1-1.5-1.5m-12 0a1.5 1.5 0 0 1 1.5-1.5 1.5 1.5 0 0 1 1.5 1.5 1.5 1.5 0 0 1-1.5 1.5 1.5 1.5 0 0 1-1.5-1.5m-12 0a1.5 1.5 0 0 1 1.5-1.5 1.5 1.5 0 0 1 1.5 1.5 1.5 1.5 0 0 1-1.5 1.5 1.5 1.5 0 0 1-1.5-1.5m-9.97-2.7v-.03a1.5 1.5 0 0 1 1.5-1.5 1.5 1.5 0 0 1 1.5 1.5 1.5 1.5 0 0 1-1.5 1.5 1.5 1.5 0 0 1-1.5-1.5m-7.3-7.28v-.03a1.5 1.5 0 0 1 1.5-1.5 1.5 1.5 0 0 1 1.5 1.5 1.5 1.5 0 0 1-1.5 1.5 1.5 1.5 0 0 1-1.5-1.5M358.5 560a1.5 1.5 0 0 1 1.5-1.5 1.5 1.5 0 0 1 1.5 1.5 1.5 1.5 0 0 1-1.5 1.5 1.5 1.5 0 0 1-1.5-1.5m0-13.32a1.5 1.5 0 0 1 1.5-1.5 1.5 1.5 0 0 1 1.5 1.5 1.5 1.5 0 0 1-1.5 1.5 1.5 1.5 0 0 1-1.5-1.5v-.03m0-13.3v-.02a1.5 1.5 0 0 1 1.5-1.5 1.5 1.5 0 0 1 1.5 1.5 1.5 1.5 0 0 1-1.5 1.5 1.5 1.5 0 0 1-1.5-1.5"/><path d="M380 660a20 20 0 0 1 20-20h40a20 20 0 0 1 20 20v120a20 20 0 0 1-20 20h-40a20 20 0 0 1-20-20z" stroke="#008a0e" stroke-width="3" fill="url(#a)"/><use xlink:href="#b" transform="matrix(-1.8369701987210297e-16,-1,1,-1.8369701987210297e-16,384.99999999999994,794.9999499995835) translate(22.783950617283956 39.24305555555556)"/><use xlink:href="#c" transform="matrix(-1.8369701987210297e-16,-1,1,-1.8369701987210297e-16,384.99999999999994,794.9999499995835) translate(110.91975308641975 39.24305555555556)"/><path d="M520 660a20 20 0 0 1 20-20h40a20 20 0 0 1 20 20v120a20 20 0 0 1-20 20h-40a20 20 0 0 1-20-20z" stroke="#82755b" stroke-width="3" fill="url(#d)"/><use xlink:href="#b" transform="matrix(-1.8369701987210297e-16,-1,1,-1.8369701987210297e-16,525,794.9999499995835) translate(22.783950617283956 39.24305555555556)"/><use xlink:href="#e" transform="matrix(-1.8369701987210297e-16,-1,1,-1.8369701987210297e-16,525,794.9999499995835) translate(110.91975308641975 39.24305555555556)"/><path d="M660 660a20 20 0 0 1 20-20h40a20 20 0 0 1 20 20v120a20 20 0 0 1-20 20h-40a20 20 0 0 1-20-20z" stroke="#1071e5" stroke-width="3" fill="url(#f)"/><use xlink:href="#b" transform="matrix(-1.8369701987210297e-16,-1,1,-1.8369701987210297e-16,665,794.9999499995835) translate(22.138888888888893 39.24305555555556)"/><use xlink:href="#g" transform="matrix(-1.8369701987210297e-16,-1,1,-1.8369701987210297e-16,665,794.9999499995835) translate(110.27469135802468 39.24305555555556)"/><path d="M380 540a20 20 0 0 1 20-20h120a20 20 0 0 1 20 20 20 20 0 0 1-20 20H400a20 20 0 0 1-20-20z" stroke="#000" stroke-width="3" fill="url(#h)"/><use xlink:href="#i" transform="matrix(1,0,0,1,385,525) translate(40.44327160493827 21.430555555555557)"/><use xlink:href="#j" transform="matrix(1,0,0,1,385,525) translate(93.27043209876544 21.430555555555557)"/><path d="M459.4 562.3l-48.03 61.6" stroke="#008a0e" stroke-width="2" fill="none"/><path d="M460.14 562.9l-1.54-1.2.16-.2h2.48z" stroke="#008a0e" stroke-width=".05" fill="#008a0e"/><path d="M402 635.95l5.1-14.1 7.3 5.7z" stroke="#008a0e" stroke-width="2" fill="#fff"/><path d="M460.94 561.83l203.58 70.6" stroke="#1071e5" stroke-width="2" fill="none"/><path d="M460.65 562.76l-3.63-1.26h4.07z" stroke="#1071e5" stroke-width=".05" fill="#1071e5"/><path d="M678.94 637.44l-15-.3 3.04-8.75z" stroke="#1071e5" stroke-width="2" fill="#fff"/><path d="M460.74 562.18L530.36 626" stroke="#82755b" stroke-width="2" fill="none"/><path d="M460.1 562.9l-1.54-1.4h2.83z" stroke="#82755b" stroke-width=".05" fill="#82755b"/><path d="M541.6 636.3L528 630.1l6.26-6.84z" stroke="#82755b" stroke-width="2" fill="#fff"/><path d="M580 540a20 20 0 0 1 20-20h120a20 20 0 0 1 20 20 20 20 0 0 1-20 20H600a20 20 0 0 1-20-20z" stroke="#000" stroke-width="3" fill="url(#k)"/><use xlink:href="#i" transform="matrix(1,0,0,1,585,525) translate(40.44327160493827 21.430555555555557)"/><use xlink:href="#l" transform="matrix(1,0,0,1,585,525) translate(93.27043209876544 21.430555555555557)"/><path d="M659.06 561.83l-200.88 70.6" stroke="#008a0e" stroke-width="2" fill="none"/><path d="M659.36 562.76l-.45-1.26h4.04z" stroke="#008a0e" stroke-width=".05" fill="#008a0e"/><path d="M443.77 637.48l11.93-9.1 3.07 8.74z" stroke="#008a0e" stroke-width="2" fill="#fff"/><path d="M660.63 562.27l51 62.18" stroke="#1071e5" stroke-width="2" fill="none"/><path d="M661.4 561.67l-1.5 1.24-1.16-1.4h2.52z" stroke="#1071e5" stroke-width=".05" fill="#1071e5"/><path d="M721.3 636.26l-12.62-8.1 7.17-5.87z" stroke="#1071e5" stroke-width="2" fill="#fff"/><path d="M659.27 562.18l-67.78 63.66" stroke="#82755b" stroke-width="2" fill="none"/><path d="M659.92 562.9l-1.33-1.4h2.82z" stroke="#82755b" stroke-width=".05" fill="#82755b"/><path d="M580.36 636.3l7.23-13.16 6.33 6.76z" stroke="#82755b" stroke-width="2" fill="#fff"/><path d="M383.5 640h73M383.6 640H380M456.4 640h3.6" stroke="#008a0e" stroke-width="7" fill="none"/><path d="M523.5 640h73M523.6 640H520M596.4 640h3.6" stroke="#82755b" stroke-width="7" fill="none"/><path d="M663.5 640h73M663.6 640H660M736.4 640h3.6" stroke="#1071e5" stroke-width="7" fill="none"/><path d="M80 526a6 6 0 0 1 6-6h168a6 6 0 0 1 6 6v148a6 6 0 0 1-6 6H86a6 6 0 0 1-6-6z" stroke="#000" stroke-opacity="0" stroke-width="3" fill="#fff" fill-opacity="0"/><use xlink:href="#m" transform="matrix(1,0,0,1,85,525) translate(15.950617283950635 29.576388888888882)"/><use xlink:href="#n" transform="matrix(1,0,0,1,85,525) translate(95.45679012345678 29.576388888888882)"/><use xlink:href="#o" transform="matrix(1,0,0,1,85,525) translate(3.7654320987654444 66.9097222222222)"/><use xlink:href="#p" transform="matrix(1,0,0,1,85,525) translate(131.66666666666666 66.9097222222222)"/><use xlink:href="#q" transform="matrix(1,0,0,1,85,525) translate(43.60493827160495 104.24305555555553)"/><use xlink:href="#r" transform="matrix(1,0,0,1,85,525) translate(83.18518518518519 104.24305555555553)"/><use xlink:href="#s" transform="matrix(1,0,0,1,85,525) translate(28.049382716049408 141.57638888888886)"/><path d="M261 599.94l2.94-.18m3.93-.25l5.88-.35m3.93-.24l5.88-.35m3.93-.25l5.87-.36m3.93-.24l5.88-.37m3.93-.24l5.9-.37m3.92-.24l5.88-.38m3.93-.24l5.9-.36m3.9-.24l5.9-.37m3.92-.23l5.9-.36m3.9-.23l5.9-.37m3.92-.24l5.9-.36m3.9-.25l5.9-.36m3.92-.25l5.88-.37m3.92-.24l5.9-.36m3.9-.24l5.9-.37m3.93-.24l5.88-.36m3.94-.24l5.88-.37m3.93-.24l2.94-.18" stroke="#3a414a" stroke-width="2" fill="none"/><path d="M261.08 600.9L260 601v-1.96l.96-.06z" stroke="#3a414a" stroke-width=".05" fill="#3a414a"/><path d="M437.56 589.04l1.03-.06M261 599.95l2.98-.13m3.97-.2l5.96-.26m3.98-.18l5.96-.28m3.98-.18l5.95-.27m3.98-.2l5.96-.26m3.98-.2l5.96-.27m3.97-.18l5.97-.27m3.97-.2l5.96-.26m3.98-.18l5.96-.28m3.97-.18l5.97-.27m3.97-.18l5.96-.27m3.97-.18l5.96-.28m3.97-.2l5.97-.26m3.97-.2l5.96-.26m3.97-.18l5.96-.28m3.97-.18l5.96-.27m3.97-.2l5.96-.26m3.97-.17l5.95-.28m3.98-.18l5.96-.28m3.97-.2l5.96-.26m3.96-.18l5.96-.28m3.98-.18l5.95-.28m3.98-.18l5.96-.27m3.96-.2l2.98-.12" stroke="#3a414a" stroke-width="2" fill="none"/><path d="M261.07 600.93l-1.07.05v-1.96l.98-.04z" stroke="#3a414a" stroke-width=".05" fill="#3a414a"/><path d="M489.4 589.45l1.04-.05M261 599.97l3.04-.1m4.05-.12l6.07-.18m4.06-.13l6.08-.18m4.06-.13l6.08-.18m4.06-.13l6.08-.2m4.05-.1l6.08-.2m4.07-.12l6.08-.2m4.05-.1l6.08-.2m4.06-.12l6.08-.2m4.05-.1l6.08-.2m4.06-.12l6.1-.2m4.04-.1l6.08-.2m4.06-.12l6.08-.2m4.05-.1l6.1-.2m4.05-.12l6.08-.2m4.05-.1l6.08-.2m4.05-.12l6.1-.2m4.05-.1l6.08-.2m4.05-.12l6.08-.2m4.06-.1l6.08-.2m4.05-.12l6.08-.2m4.06-.12l6.07-.18m4.05-.13l6.08-.18m4.06-.13l6.08-.18m4.05-.13l6.07-.17m4.06-.13l6.08-.18m4.06-.13l6.08-.2m4.06-.12l6.08-.18m4.05-.13l3.04-.1" stroke="#3a414a" stroke-width="2" fill="none"/><path d="M261.06 600.94l-1.06.03v-1.95l1-.03z" stroke="#3a414a" stroke-width=".05" fill="#3a414a"/><path d="M544.75 591.28l1.02-.03" stroke="#3a414a" stroke-width="2" fill="none"/><path d="M840 666a6 6 0 0 1 6-6h188a6 6 0 0 1 6 6v108a6 6 0 0 1-6 6H846a6 6 0 0 1-6-6z" stroke="#000" stroke-opacity="0" stroke-width="3" fill="#fff" fill-opacity="0"/><g><use xlink:href="#t" transform="matrix(1,0,0,1,845,665) translate(6.981481481481524 28.326388888888882)"/><use xlink:href="#u" transform="matrix(1,0,0,1,845,665) translate(69.1172839506173 28.326388888888882)"/><use xlink:href="#v" transform="matrix(1,0,0,1,845,665) translate(72.57407407407408 65.6597222222222)"/><use xlink:href="#w" transform="matrix(1,0,0,1,845,665) translate(9.487654320987673 102.99305555555553)"/></g><path d="M742.5 720h2.9m3.86 0h5.78m3.87 0h5.8m3.85 0h5.8m3.86 0h5.8m3.86 0h5.78m3.87 0h5.8m3.86 0h5.8m3.84 0h5.8m3.86 0h5.78m3.87 0h2.9" stroke="#3a414a" stroke-width="2" fill="none"/><path d="M742.53 719.02V721h-1.03V719zM840 719.02V721h-1.03V719z" stroke="#3a414a" stroke-width=".05" fill="#3a414a"/><defs><linearGradient gradientUnits="userSpaceOnUse" id="a" x1="380" y1="800" x2="380" y2="640"><stop offset="27.9%" stop-color="#ced4db"/><stop offset="35.87%" stop-color="#fff"/><stop offset="61.23%" stop-color="#fff"/><stop offset="68.12%" stop-color="#cfe4ff"/></linearGradient><path d="M185-189c-5-48-123-54-124 2 14 75 158 14 163 119 3 78-121 87-175 55-17-10-28-26-33-46l33-7c5 56 141 63 141-1 0-78-155-14-162-118-5-82 145-84 179-34 5 7 8 16 11 25" id="x"/><path d="M100-194c63 0 86 42 84 106H49c0 40 14 67 53 68 26 1 43-12 49-29l28 8c-11 28-37 45-77 45C44 4 14-33 15-96c1-61 26-98 85-98zm52 81c6-60-76-77-97-28-3 7-6 17-6 28h103" id="y"/><path d="M114-163C36-179 61-72 57 0H25l-1-190h30c1 12-1 29 2 39 6-27 23-49 58-41v29" id="z"/><path d="M108 0H70L1-190h34L89-25l56-165h34" id="A"/><path d="M24-231v-30h32v30H24zM24 0v-190h32V0H24" id="B"/><path d="M96-169c-40 0-48 33-48 73s9 75 48 75c24 0 41-14 43-38l32 2c-6 37-31 61-74 61-59 0-76-41-82-99-10-93 101-131 147-64 4 7 5 14 7 22l-32 3c-4-21-16-35-41-35" id="C"/><g id="b"><use transform="matrix(0.06790123456790123,0,0,0.06790123456790123,0,0)" xlink:href="#x"/><use transform="matrix(0.06790123456790123,0,0,0.06790123456790123,16.296296296296294,0)" xlink:href="#y"/><use transform="matrix(0.06790123456790123,0,0,0.06790123456790123,29.87654320987654,0)" xlink:href="#z"/><use transform="matrix(0.06790123456790123,0,0,0.06790123456790123,37.95679012345679,0)" xlink:href="#A"/><use transform="matrix(0.06790123456790123,0,0,0.06790123456790123,50.179012345679,0)" xlink:href="#B"/><use transform="matrix(0.06790123456790123,0,0,0.06790123456790123,55.5432098765432,0)" xlink:href="#C"/><use transform="matrix(0.06790123456790123,0,0,0.06790123456790123,67.76543209876542,0)" xlink:href="#y"/></g><path d="M205 0l-28-72H64L36 0H1l101-248h38L239 0h-34zm-38-99l-47-123c-12 45-31 82-46 123h93" id="D"/><use transform="matrix(0.06790123456790123,0,0,0.06790123456790123,0,0)" xlink:href="#D" id="c"/><linearGradient gradientUnits="userSpaceOnUse" id="d" x1="520" y1="800" x2="520" y2="640"><stop offset="27.9%" stop-color="#ced4db"/><stop offset="35.87%" stop-color="#fff"/><stop offset="61.23%" stop-color="#fff"/><stop offset="68.12%" stop-color="#cfe4ff"/></linearGradient><path d="M160-131c35 5 61 23 61 61C221 17 115-2 30 0v-248c76 3 177-17 177 60 0 33-19 50-47 57zm-97-11c50-1 110 9 110-42 0-47-63-36-110-37v79zm0 115c55-2 124 14 124-45 0-56-70-42-124-44v89" id="E"/><use transform="matrix(0.06790123456790123,0,0,0.06790123456790123,0,0)" xlink:href="#E" id="e"/><linearGradient gradientUnits="userSpaceOnUse" id="f" x1="660" y1="800" x2="660" y2="640"><stop offset="27.9%" stop-color="#ced4db"/><stop offset="35.87%" stop-color="#fff"/><stop offset="61.23%" stop-color="#fff"/><stop offset="68.12%" stop-color="#cfe4ff"/></linearGradient><path d="M212-179c-10-28-35-45-73-45-59 0-87 40-87 99 0 60 29 101 89 101 43 0 62-24 78-52l27 14C228-24 195 4 139 4 59 4 22-46 18-125c-6-104 99-153 187-111 19 9 31 26 39 46" id="F"/><use transform="matrix(0.06790123456790123,0,0,0.06790123456790123,0,0)" xlink:href="#F" id="g"/><linearGradient gradientUnits="userSpaceOnUse" id="h" x1="380" y1="520" x2="380" y2="560"><stop offset="19.29%" stop-color="#fff"/><stop offset="42.39%" stop-color="#c3f7c8"/></linearGradient><path d="M63-220v92h138v28H63V0H30v-248h175v28H63" id="G"/><g id="i"><use transform="matrix(0.06790123456790123,0,0,0.06790123456790123,0,0)" xlink:href="#E"/><use transform="matrix(0.06790123456790123,0,0,0.06790123456790123,16.296296296296294,0)" xlink:href="#G"/><use transform="matrix(0.06790123456790123,0,0,0.06790123456790123,31.166666666666664,0)" xlink:href="#G"/></g><path d="M195 0l-74-108L45 0H8l94-129-87-119h37l69 98 67-98h37l-84 118L233 0h-38" id="H"/><use transform="matrix(0.06790123456790123,0,0,0.06790123456790123,0,0)" xlink:href="#H" id="j"/><linearGradient gradientUnits="userSpaceOnUse" id="k" x1="580" y1="520" x2="580" y2="560"><stop offset="19.29%" stop-color="#fff"/><stop offset="42.39%" stop-color="#c3f7c8"/></linearGradient><path d="M137-103V0h-34v-103L8-248h37l75 118 75-118h37" id="I"/><use transform="matrix(0.06790123456790123,0,0,0.06790123456790123,0,0)" xlink:href="#I" id="l"/><path d="M30 0v-248h187v28H63v79h144v27H63v87h162V0H30" id="J"/><path d="M141-36C126-15 110 5 73 4 37 3 15-17 15-53c-1-64 63-63 125-63 3-35-9-54-41-54-24 1-41 7-42 31l-33-3c5-37 33-52 76-52 45 0 72 20 72 64v82c-1 20 7 32 28 27v20c-31 9-61-2-59-35zM48-53c0 20 12 33 32 33 41-3 63-29 60-74-43 2-92-5-92 41" id="K"/><path d="M106-169C34-169 62-67 57 0H25v-261h32l-1 103c12-21 28-36 61-36 89 0 53 116 60 194h-32v-121c2-32-8-49-39-48" id="L"/><g id="m"><use transform="matrix(0.08641975308641972,0,0,0.08641975308641972,0,0)" xlink:href="#J"/><use transform="matrix(0.08641975308641972,0,0,0.08641975308641972,20.740740740740733,0)" xlink:href="#K"/><use transform="matrix(0.08641975308641972,0,0,0.08641975308641972,38.02469135802468,0)" xlink:href="#C"/><use transform="matrix(0.08641975308641972,0,0,0.08641975308641972,53.58024691358024,0)" xlink:href="#L"/></g><g id="n"><use transform="matrix(0.08641975308641972,0,0,0.08641975308641972,0,0)" xlink:href="#E"/><use transform="matrix(0.08641975308641972,0,0,0.08641975308641972,20.740740740740733,0)" xlink:href="#G"/><use transform="matrix(0.08641975308641972,0,0,0.08641975308641972,39.66666666666666,0)" xlink:href="#G"/></g><path d="M85-194c31 0 48 13 60 33l-1-100h32l1 261h-30c-2-10 0-23-3-31C134-8 116 4 85 4 32 4 16-35 15-94c0-66 23-100 70-100zm9 24c-40 0-46 34-46 75 0 40 6 74 45 74 42 0 51-32 51-76 0-42-9-74-50-73" id="M"/><path d="M115-194c55 1 70 41 70 98S169 2 115 4C84 4 66-9 55-30l1 105H24l-1-265h31l2 30c10-21 28-34 59-34zm-8 174c40 0 45-34 45-75s-6-73-45-74c-42 0-51 32-51 76 0 43 10 73 51 73" id="N"/><path d="M117-194c89-4 53 116 60 194h-32v-121c0-31-8-49-39-48C34-167 62-67 57 0H25l-1-190h30c1 10-1 24 2 32 11-22 29-35 61-36" id="O"/><path d="M135-143c-3-34-86-38-87 0 15 53 115 12 119 90S17 21 10-45l28-5c4 36 97 45 98 0-10-56-113-15-118-90-4-57 82-63 122-42 12 7 21 19 24 35" id="P"/><g id="o"><use transform="matrix(0.08641975308641972,0,0,0.08641975308641972,0,0)" xlink:href="#M"/><use transform="matrix(0.08641975308641972,0,0,0.08641975308641972,17.283950617283946,0)" xlink:href="#y"/><use transform="matrix(0.08641975308641972,0,0,0.08641975308641972,34.56790123456789,0)" xlink:href="#N"/><use transform="matrix(0.08641975308641972,0,0,0.08641975308641972,51.85185185185183,0)" xlink:href="#y"/><use transform="matrix(0.08641975308641972,0,0,0.08641975308641972,69.13580246913578,0)" xlink:href="#O"/><use transform="matrix(0.08641975308641972,0,0,0.08641975308641972,86.41975308641973,0)" xlink:href="#M"/><use transform="matrix(0.08641975308641972,0,0,0.08641975308641972,103.70370370370368,0)" xlink:href="#P"/></g><path d="M100-194c62-1 85 37 85 99 1 63-27 99-86 99S16-35 15-95c0-66 28-99 85-99zM99-20c44 1 53-31 53-75 0-43-8-75-51-75s-53 32-53 75 10 74 51 75" id="Q"/><g id="p"><use transform="matrix(0.08641975308641972,0,0,0.08641975308641972,0,0)" xlink:href="#Q"/><use transform="matrix(0.08641975308641972,0,0,0.08641975308641972,17.283950617283946,0)" xlink:href="#O"/></g><path d="M24 0v-261h32V0H24" id="R"/><g id="q"><use transform="matrix(0.08641975308641972,0,0,0.08641975308641972,0,0)" xlink:href="#K"/><use transform="matrix(0.08641975308641972,0,0,0.08641975308641972,17.283950617283946,0)" xlink:href="#R"/><use transform="matrix(0.08641975308641972,0,0,0.08641975308641972,24.111111111111104,0)" xlink:href="#R"/></g><path d="M59-47c-2 24 18 29 38 22v24C64 9 27 4 27-40v-127H5v-23h24l9-43h21v43h35v23H59v120" id="S"/><g id="r"><use transform="matrix(0.08641975308641972,0,0,0.08641975308641972,0,0)" xlink:href="#S"/><use transform="matrix(0.08641975308641972,0,0,0.08641975308641972,8.641975308641973,0)" xlink:href="#L"/><use transform="matrix(0.08641975308641972,0,0,0.08641975308641972,25.925925925925917,0)" xlink:href="#y"/></g><g id="s"><use transform="matrix(0.08641975308641972,0,0,0.08641975308641972,0,0)" xlink:href="#P"/><use transform="matrix(0.08641975308641972,0,0,0.08641975308641972,15.55555555555555,0)" xlink:href="#y"/><use transform="matrix(0.08641975308641972,0,0,0.08641975308641972,32.83950617283949,0)" xlink:href="#z"/><use transform="matrix(0.08641975308641972,0,0,0.08641975308641972,43.12345679012344,0)" xlink:href="#A"/><use transform="matrix(0.08641975308641972,0,0,0.08641975308641972,58.67901234567899,0)" xlink:href="#B"/><use transform="matrix(0.08641975308641972,0,0,0.08641975308641972,65.50617283950615,0)" xlink:href="#C"/><use transform="matrix(0.08641975308641972,0,0,0.08641975308641972,81.06172839506169,0)" xlink:href="#y"/><use transform="matrix(0.08641975308641972,0,0,0.08641975308641972,98.34567901234564,0)" xlink:href="#P"/></g><path d="M127-220V0H93v-220H8v-28h204v28h-85" id="T"/><g id="t"><use transform="matrix(0.08641975308641972,0,0,0.08641975308641972,0,0)" xlink:href="#T"/><use transform="matrix(0.08641975308641972,0,0,0.08641975308641972,18.92592592592592,0)" xlink:href="#L"/><use transform="matrix(0.08641975308641972,0,0,0.08641975308641972,36.209876543209866,0)" xlink:href="#y"/></g><g id="u"><use transform="matrix(0.08641975308641972,0,0,0.08641975308641972,0,0)" xlink:href="#P"/><use transform="matrix(0.08641975308641972,0,0,0.08641975308641972,15.55555555555555,0)" xlink:href="#y"/><use transform="matrix(0.08641975308641972,0,0,0.08641975308641972,32.83950617283949,0)" xlink:href="#z"/><use transform="matrix(0.08641975308641972,0,0,0.08641975308641972,43.12345679012344,0)" xlink:href="#A"/><use transform="matrix(0.08641975308641972,0,0,0.08641975308641972,58.67901234567899,0)" xlink:href="#B"/><use transform="matrix(0.08641975308641972,0,0,0.08641975308641972,65.50617283950615,0)" xlink:href="#C"/><use transform="matrix(0.08641975308641972,0,0,0.08641975308641972,81.06172839506169,0)" xlink:href="#y"/><use transform="matrix(0.08641975308641972,0,0,0.08641975308641972,98.34567901234564,0)" xlink:href="#P"/></g><g id="v"><use transform="matrix(0.08641975308641972,0,0,0.08641975308641972,0,0)" xlink:href="#K"/><use transform="matrix(0.08641975308641972,0,0,0.08641975308641972,17.283950617283946,0)" xlink:href="#z"/><use transform="matrix(0.08641975308641972,0,0,0.08641975308641972,27.56790123456789,0)" xlink:href="#y"/></g><g id="w"><use transform="matrix(0.08641975308641972,0,0,0.08641975308641972,0,0)" xlink:href="#B"/><use transform="matrix(0.08641975308641972,0,0,0.08641975308641972,6.827160493827158,0)" xlink:href="#O"/><use transform="matrix(0.08641975308641972,0,0,0.08641975308641972,24.111111111111104,0)" xlink:href="#M"/><use transform="matrix(0.08641975308641972,0,0,0.08641975308641972,41.39506172839505,0)" xlink:href="#y"/><use transform="matrix(0.08641975308641972,0,0,0.08641975308641972,58.679012345679,0)" xlink:href="#N"/><use transform="matrix(0.08641975308641972,0,0,0.08641975308641972,75.96296296296295,0)" xlink:href="#y"/><use transform="matrix(0.08641975308641972,0,0,0.08641975308641972,93.2469135802469,0)" xlink:href="#O"/><use transform="matrix(0.08641975308641972,0,0,0.08641975308641972,110.53086419753085,0)" xlink:href="#M"/><use transform="matrix(0.08641975308641972,0,0,0.08641975308641972,127.81481481481478,0)" xlink:href="#y"/><use transform="matrix(0.08641975308641972,0,0,0.08641975308641972,145.09876543209873,0)" xlink:href="#O"/><use transform="matrix(0.08641975308641972,0,0,0.08641975308641972,162.38271604938268,0)" xlink:href="#S"/></g></defs></g></svg>