<svg xmlns="http://www.w3.org/2000/svg" xmlns:xlink="http://www.w3.org/1999/xlink" xmlns:lucid="lucid" width="1301.5" height="383"><g transform="translate(-178.5 -438.5)" lucid:page-tab-id="0_0"><path d="M1200 466a6 6 0 0 1 6-6h266.5a6 6 0 0 1 6 6v186.83a6 6 0 0 1-6 6H1206a6 6 0 0 1-6-6z" stroke="#000" stroke-opacity="0" stroke-width="3" fill="#fff" fill-opacity="0"/><use xlink:href="#a" transform="matrix(1,0,0,1,1205,465) translate(9.320987654321016 30.795138888888886)"/><use xlink:href="#b" transform="matrix(1,0,0,1,1205,465) translate(43.88888888888891 30.795138888888886)"/><use xlink:href="#c" transform="matrix(1,0,0,1,1205,465) translate(145.69135802469137 30.795138888888886)"/><use xlink:href="#d" transform="matrix(1,0,0,1,1205,465) translate(5.864197530864232 68.12847222222221)"/><use xlink:href="#e" transform="matrix(1,0,0,1,1205,465) translate(202.64197530864197 68.12847222222221)"/><use xlink:href="#f" transform="matrix(1,0,0,1,1205,465) translate(15.327160493827193 105.46180555555554)"/><use xlink:href="#g" transform="matrix(1,0,0,1,1205,465) translate(49.895061728395085 105.46180555555554)"/><use xlink:href="#h" transform="matrix(1,0,0,1,1205,465) translate(143.14197530864197 105.46180555555554)"/><use xlink:href="#i" transform="matrix(1,0,0,1,1205,465) translate(217.46296296296293 105.46180555555554)"/><use xlink:href="#j" transform="matrix(1,0,0,1,1205,465) translate(34.33950617283952 142.79513888888886)"/><use xlink:href="#k" transform="matrix(1,0,0,1,1205,465) translate(86.19135802469135 142.79513888888886)"/><use xlink:href="#l" transform="matrix(1,0,0,1,1205,465) translate(208.73456790123456 142.79513888888886)"/><use xlink:href="#m" transform="matrix(1,0,0,1,1205,465) translate(62.94444444444446 180.1284722222222)"/><path d="M500 746a6 6 0 0 1 6-6h249.5a6 6 0 0 1 6 6v68a6 6 0 0 1-6 6H506a6 6 0 0 1-6-6z" stroke="#000" stroke-opacity="0" stroke-width="3" fill="#fff" fill-opacity="0"/><use xlink:href="#n" transform="matrix(1,0,0,1,505.00005000000004,745) translate(64.86419753086423 41.756944444444436)"/><path d="M860 746a6 6 0 0 1 6-6h249.5a6 6 0 0 1 6 6v68a6 6 0 0 1-6 6H866a6 6 0 0 1-6-6z" stroke="#000" stroke-opacity="0" stroke-width="3" fill="#fff" fill-opacity="0"/><use xlink:href="#o" transform="matrix(1,0,0,1,865,745) translate(52.123456790123484 41.756944444444436)"/><path d="M180 466a6 6 0 0 1 6-6h228a6 6 0 0 1 6 6v186.83a6 6 0 0 1-6 6H186a6 6 0 0 1-6-6z" stroke="#000" stroke-opacity="0" stroke-width="3" fill="#fff" fill-opacity="0"/><use xlink:href="#p" transform="matrix(1,0,0,1,185,465) translate(1.9629629629629903 30.795138888888882)"/><use xlink:href="#q" transform="matrix(1,0,0,1,185,465) translate(36.53086419753088 30.795138888888882)"/><use xlink:href="#r" transform="matrix(1,0,0,1,185,465) translate(62.4567901234568 30.795138888888882)"/><use xlink:href="#s" transform="matrix(1,0,0,1,185,465) translate(39.858024691358054 68.1284722222222)"/><use xlink:href="#t" transform="matrix(1,0,0,1,185,465) translate(146.9320987654321 68.1284722222222)"/><use xlink:href="#u" transform="matrix(1,0,0,1,185,465) translate(28.7098765432099 105.46180555555553)"/><use xlink:href="#v" transform="matrix(1,0,0,1,185,465) translate(3.5185185185185333 142.79513888888886)"/><use xlink:href="#w" transform="matrix(1,0,0,1,185,465) translate(88.20987654320987 142.79513888888886)"/><use xlink:href="#x" transform="matrix(1,0,0,1,185,465) translate(122.77777777777777 142.79513888888886)"/><use xlink:href="#y" transform="matrix(1,0,0,1,185,465) translate(6.19753086419756 180.12847222222217)"/><use xlink:href="#z" transform="matrix(1,0,0,1,185,465) translate(49.407407407407426 180.12847222222217)"/><use xlink:href="#A" transform="matrix(1,0,0,1,185,465) translate(125.4567901234568 180.12847222222217)"/><path d="M420.87 559.9l2.63 1.5m3.5 2.02l5.27 3m3.5 2l5.27 3m3.5 2l5.28 3.02m3.5 2l5.27 3m3.5 2l5.26 3m3.5 2.02l5.27 3m3.5 2l5.27 3m3.5 2l5.28 3.02m3.5 2l5.27 3m3.5 2l5.27 3m3.5 2l5.27 3.02m3.5 2l2.63 1.5" stroke="#3a414a" stroke-width="2" fill="none"/><path d="M421.37 559.08l-.96 1.7-.4-.24v-2.25z" stroke="#3a414a" stroke-width=".05" fill="#3a414a"/><path d="M526.1 620l.9.5" stroke="#3a414a" stroke-width="2" fill="none"/><path d="M500 640.5a20 20 0 0 1 20-20h20a20 20 0 0 1 20 20v80a20 20 0 0 1-20 20h-20a20 20 0 0 1-20-20z" stroke="#008a0e" stroke-width="3" fill="url(#B)"/><use xlink:href="#C" transform="matrix(-1.8369701987210297e-16,-1,1,-1.8369701987210297e-16,505.00005,735.5000499999953) translate(2.7839506172839563 28.930555555555557)"/><use xlink:href="#D" transform="matrix(-1.8369701987210297e-16,-1,1,-1.8369701987210297e-16,505.00005,735.5000499999953) translate(90.91975308641975 28.930555555555557)"/><path d="M600 640.5a20 20 0 0 1 20-20h20a20 20 0 0 1 20 20v80a20 20 0 0 1-20 20h-20a20 20 0 0 1-20-20z" stroke="#82755b" stroke-width="3" fill="url(#E)"/><use xlink:href="#C" transform="matrix(-1.8369701987210297e-16,-1,1,-1.8369701987210297e-16,605.0000500000001,735.5000499999954) translate(2.7839506172839563 28.930555555555557)"/><use xlink:href="#F" transform="matrix(-1.8369701987210297e-16,-1,1,-1.8369701987210297e-16,605.0000500000001,735.5000499999954) translate(90.91975308641975 28.930555555555557)"/><path d="M700 640.5a20 20 0 0 1 20-20h20a20 20 0 0 1 20 20v80a20 20 0 0 1-20 20h-20a20 20 0 0 1-20-20z" stroke="#1071e5" stroke-width="3" fill="url(#G)"/><use xlink:href="#C" transform="matrix(-1.8369701987210297e-16,-1,1,-1.8369701987210297e-16,705.0000500000001,735.5000499999954) translate(2.138888888888893 28.930555555555557)"/><use xlink:href="#H" transform="matrix(-1.8369701987210297e-16,-1,1,-1.8369701987210297e-16,705.0000500000001,735.5000499999954) translate(90.27469135802468 28.930555555555557)"/><path d="M500 460a20 20 0 0 1 20-20h220a20 20 0 0 1 20 20 20 20 0 0 1-20 20H520a20 20 0 0 1-20-20z" stroke="#000" stroke-width="3" fill="#e8e2c8"/><use xlink:href="#I" transform="matrix(1,0,0,1,505.0000500000001,445) translate(93.87228395061729 21.430555555555557)"/><path d="M500 560a20 20 0 0 1 20-20h220a20 20 0 0 1 20 20 20 20 0 0 1-20 20H520a20 20 0 0 1-20-20z" stroke="#000" stroke-width="3" fill="#c3f7c8"/><use xlink:href="#J" transform="matrix(1,0,0,1,505.0000500000001,545) translate(57.20561728395061 21.430555555555557)"/><path d="M861.5 540.5a20 20 0 0 1 20-20h20a20 20 0 0 1 20 20v80a20 20 0 0 1-20 20h-20a20 20 0 0 1-20-20z" stroke="#008a0e" stroke-width="3" fill="url(#K)"/><use xlink:href="#L" transform="matrix(-1.8369701987210297e-16,-1,1,-1.8369701987210297e-16,866.4999250150754,635.5000499999952) translate(11.000000000000007 28.930555555555557)"/><use xlink:href="#M" transform="matrix(-1.8369701987210297e-16,-1,1,-1.8369701987210297e-16,866.4999250150754,635.5000499999952) translate(82.7037037037037 28.930555555555557)"/><path d="M961.5 540.5a20 20 0 0 1 20-20h20a20 20 0 0 1 20 20v80a20 20 0 0 1-20 20h-20a20 20 0 0 1-20-20z" stroke="#82755b" stroke-width="3" fill="url(#N)"/><use xlink:href="#L" transform="matrix(-1.8369701987210297e-16,-1,1,-1.8369701987210297e-16,966.4999250150754,635.5000499999952) translate(11.000000000000007 28.930555555555557)"/><use xlink:href="#O" transform="matrix(-1.8369701987210297e-16,-1,1,-1.8369701987210297e-16,966.4999250150754,635.5000499999952) translate(82.7037037037037 28.930555555555557)"/><path d="M1061.5 540.5a20 20 0 0 1 20-20h20a20 20 0 0 1 20 20v80a20 20 0 0 1-20 20h-20a20 20 0 0 1-20-20z" stroke="#1071e5" stroke-width="3" fill="url(#P)"/><use xlink:href="#L" transform="matrix(-1.8369701987210297e-16,-1,1,-1.8369701987210297e-16,1066.4999250150754,635.5000499999953) translate(11.712962962962969 28.930555555555557)"/><use xlink:href="#Q" transform="matrix(-1.8369701987210297e-16,-1,1,-1.8369701987210297e-16,1066.4999250150754,635.5000499999953) translate(83.41666666666666 28.930555555555557)"/><path d="M861.5 460a20 20 0 0 1 20-20h220a20 20 0 0 1 20 20 20 20 0 0 1-20 20h-220a20 20 0 0 1-20-20z" stroke="#000" stroke-width="3" fill="#c3f7c8"/><use xlink:href="#J" transform="matrix(1,0,0,1,866.4999250150754,445) translate(57.20561728395061 21.430555555555557)"/><path d="M861.5 680h60v60h-60z" stroke="#008a0e" stroke-width="3" fill="#979ea8"/><use xlink:href="#R" transform="matrix(1,0,0,1,866.4999250150754,685) translate(4.697530864197532 19.555555555555557)"/><use xlink:href="#M" transform="matrix(1,0,0,1,866.4999250150754,685) translate(16.851851851851855 48.88888888888889)"/><path d="M961.5 681h60v59h-60z" stroke="#82755b" stroke-width="3" fill="#979ea8"/><use xlink:href="#R" transform="matrix(1,0,0,1,966.4999250150754,686.0000999999907) translate(4.697530864197532 19.555555555555557)"/><use xlink:href="#O" transform="matrix(1,0,0,1,966.4999250150754,686.0000999999907) translate(16.851851851851855 48.88888888888889)"/><path d="M1061.5 681h60v59h-60z" stroke="#1071e5" stroke-width="3" fill="#979ea8"/><use xlink:href="#R" transform="matrix(1,0,0,1,1066.4999250150754,686.0000999999907) translate(4.697530864197532 19.555555555555557)"/><use xlink:href="#Q" transform="matrix(1,0,0,1,1066.4999250150754,686.0000999999907) translate(17.564814814814817 48.88888888888889)"/><path d="M1092.47 481.75l2.9.74m3.88.97l5.8 1.48m3.9.98l5.8 1.48m3.88 1l5.8 1.48m3.88.98l5.83 1.48m3.87.98l5.8 1.48m3.9 1l5.8 1.46m3.88 1l5.8 1.47m3.88.98l5.82 1.5m3.87.98l5.8 1.47m3.9 1l5.8 1.47m3.88.98l2.9.74" stroke="#3a414a" stroke-width="2" fill="none"/><path d="M1092.25 482.7l-3.9-1 .06-.2h4.16zM1200 508.08v2l-1.23-.3.48-1.9z" stroke="#3a414a" stroke-width=".05" fill="#3a414a"/><path d="M756.5 540h-253M756.4 540h3.6M503.6 540H500" stroke="#000" stroke-width="7" fill="none"/><path d="M703.5 620h53M703.6 620H700M756.4 620h3.6" stroke="#1071e5" stroke-width="7" fill="none"/><path d="M603.5 620.5h53M603.6 620.5H600M656.4 620.5h3.6" stroke="#82755b" stroke-width="7" fill="none"/><path d="M503.5 620.5h53M503.6 620.5H500M556.4 620.5h3.6" stroke="#008a0e" stroke-width="7" fill="none"/><path d="M1065 480h53M1065.1 480h-3.6M1117.9 480h3.6" stroke="#1071e5" stroke-width="7" fill="none"/><path d="M965 480h53M965.1 480h-3.6M1017.9 480h3.6" stroke="#82755b" stroke-width="7" fill="none"/><path d="M865 481h53M865.1 481h-3.6M917.9 481h3.6" stroke="#008a0e" stroke-width="7" fill="none"/><path d="M1091.5 500v18" stroke="#1071e5" stroke-width="2" fill="none"/><path d="M1091.5 484.74l4.63 14.26h-9.27z" stroke="#1071e5" stroke-width="2" fill="#fff"/><path d="M1092.47 517.97V519h-1.94v-1.03z" stroke="#1071e5" stroke-width=".05" fill="#1071e5"/><path d="M991.5 498.5V518" stroke="#82755b" stroke-width="2" fill="none"/><path d="M991.5 483.24l4.63 14.26h-9.26z" stroke="#82755b" stroke-width="2" fill="#fff"/><path d="M992.48 519h-1.96v-1.03h1.96z" stroke="#82755b" stroke-width=".05" fill="#82755b"/><path d="M891.5 500v18" stroke="#008a0e" stroke-width="2" fill="none"/><path d="M891.5 484.74l4.63 14.26h-9.26z" stroke="#008a0e" stroke-width="2" fill="#fff"/><path d="M892.48 519h-1.96v-1.03h1.96z" stroke="#008a0e" stroke-width=".05" fill="#008a0e"/><path d="M1091.5 661v-18" stroke="#1071e5" stroke-width="2" fill="none"/><path d="M1091.5 676.26l-4.63-14.26h9.27z" stroke="#1071e5" stroke-width="2" fill="#fff"/><path d="M1092.47 643.03h-1.94V642h1.94z" stroke="#1071e5" stroke-width=".05" fill="#1071e5"/><path d="M991.5 661v-18" stroke="#82755b" stroke-width="2" fill="none"/><path d="M991.5 676.26L986.87 662h9.26z" stroke="#82755b" stroke-width="2" fill="#fff"/><path d="M992.48 643.03h-1.96V642h1.96z" stroke="#82755b" stroke-width=".05" fill="#82755b"/><path d="M891.5 660v-17" stroke="#008a0e" stroke-width="2" fill="none"/><path d="M891.5 675.26L886.87 661h9.26z" stroke="#008a0e" stroke-width="2" fill="#fff"/><path d="M892.48 643.03h-1.96V642h1.96z" stroke="#008a0e" stroke-width=".05" fill="#008a0e"/><path d="M730 582.5v18" stroke="#1071e5" stroke-width="2" fill="none"/><path d="M730.98 582.53H729v-1.03H731z" stroke="#1071e5" stroke-width=".05" fill="#1071e5"/><path d="M730 615.76l-4.63-14.26h9.27z" stroke="#1071e5" stroke-width="2" fill="#fff"/><path d="M630 582.5v18" stroke="#82755b" stroke-width="2" fill="none"/><path d="M630.98 582.53H629v-1.03H631z" stroke="#82755b" stroke-width=".05" fill="#82755b"/><path d="M630 615.76l-4.63-14.26h9.26z" stroke="#82755b" stroke-width="2" fill="#fff"/><path d="M529.33 582.5V602" stroke="#008a0e" stroke-width="2" fill="none"/><path d="M530.3 582.53h-1.94v-1.03h1.95z" stroke="#008a0e" stroke-width=".05" fill="#008a0e"/><path d="M529.33 617.26L524.7 603h9.27z" stroke="#008a0e" stroke-width="2" fill="#fff"/><path d="M630 482.5v39" stroke="#000" stroke-width="2" fill="none"/><path d="M630.98 482.53H629v-1.03H631z" stroke="#000" stroke-width=".05"/><path d="M630 536.76l-4.63-14.26h9.26z" stroke="#000" stroke-width="2" fill="#fff"/><path d="M422.02 560h2.83m3.78 0h5.66m3.76 0h5.66m3.77 0h5.65m3.78 0h5.66m3.76 0h5.66m3.78 0h5.66m3.77 0h5.66m3.77 0h2.82M422.05 560h-1.03" stroke="#3a414a" stroke-width="2" fill="none"/><path d="M498.5 560l.07.98h-1.1V559h1.1z" stroke="#3a414a" stroke-width=".05" fill="#3a414a"/><path d="M992 480.14l2.93.4m3.92.55l5.88.8m3.92.54l5.88.82m3.92.54l5.88.8m3.9.56l5.9.8m3.9.56l5.9.8m3.9.55l5.9.82m3.9.53l5.9.8m3.9.56l5.9.8m3.9.54l5.9.82m3.9.54l5.88.8m3.93.56l5.88.8m3.93.55l5.88.83m3.93.54l5.88.8m3.93.56l5.88.8m3.93.55l5.88.82m3.93.54l5.88.8m3.93.56l5.88.8m3.92.55l5.88.82m3.92.54l5.88.82m3.92.55l5.88.8m3.92.56l2.94.4M992.02 480.14L991 480M1197.73 508.63l1.02.14M892.5 481.6l2.96.25m3.96.36l5.93.54m3.95.35l5.94.52m3.95.36l5.92.53m3.96.36l5.93.53m3.97.35l5.93.52m3.95.36l5.94.53m3.94.35l5.93.54m3.96.36l5.93.53m3.96.35l5.93.53m3.95.37l5.94.53m3.95.35l5.92.53m3.96.35l5.93.53m3.97.36l5.93.53m3.95.35l5.93.53m3.96.36l5.93.52m3.96.35l5.93.53m3.95.35l5.95.53m3.95.36l5.93.53m3.96.35l5.92.53m3.96.36l5.93.54m3.96.35l5.94.52m3.95.35l5.93.54m3.96.36l5.93.53m3.96.34l5.93.53m3.95.36l5.95.53m3.95.35l5.93.54m3.96.36l5.92.53m3.96.35l5.93.53m3.96.36l5.93.54m3.95.35l5.93.53m3.96.35l2.96.27" stroke="#3a414a" stroke-width="2" fill="none"/><path d="M892.43 482.56l-4-.36.06-.7h4.03zM1200 508.1v1.97l-1.1-.1.16-1.95z" stroke="#3a414a" stroke-width=".05" fill="#3a414a"/><defs><path d="M33 0v-248h34V0H33" id="S"/><path d="M117-194c89-4 53 116 60 194h-32v-121c0-31-8-49-39-48C34-167 62-67 57 0H25l-1-190h30c1 10-1 24 2 32 11-22 29-35 61-36" id="T"/><g id="a"><use transform="matrix(0.08641975308641973,0,0,0.08641975308641973,0,0)" xlink:href="#S"/><use transform="matrix(0.08641975308641973,0,0,0.08641975308641973,8.641975308641973,0)" xlink:href="#T"/></g><path d="M96-169c-40 0-48 33-48 73s9 75 48 75c24 0 41-14 43-38l32 2c-6 37-31 61-74 61-59 0-76-41-82-99-10-93 101-131 147-64 4 7 5 14 7 22l-32 3c-4-21-16-35-41-35" id="U"/><path d="M100-194c62-1 85 37 85 99 1 63-27 99-86 99S16-35 15-95c0-66 28-99 85-99zM99-20c44 1 53-31 53-75 0-43-8-75-51-75s-53 32-53 75 10 74 51 75" id="V"/><path d="M59-47c-2 24 18 29 38 22v24C64 9 27 4 27-40v-127H5v-23h24l9-43h21v43h35v23H59v120" id="W"/><path d="M114-163C36-179 61-72 57 0H25l-1-190h30c1 12-1 29 2 39 6-27 23-49 58-41v29" id="X"/><path d="M24 0v-261h32V0H24" id="Y"/><g id="b"><use transform="matrix(0.08641975308641973,0,0,0.08641975308641973,0,0)" xlink:href="#U"/><use transform="matrix(0.08641975308641973,0,0,0.08641975308641973,15.555555555555552,0)" xlink:href="#V"/><use transform="matrix(0.08641975308641973,0,0,0.08641975308641973,32.8395061728395,0)" xlink:href="#T"/><use transform="matrix(0.08641975308641973,0,0,0.08641975308641973,50.12345679012345,0)" xlink:href="#W"/><use transform="matrix(0.08641975308641973,0,0,0.08641975308641973,58.765432098765416,0)" xlink:href="#X"/><use transform="matrix(0.08641975308641973,0,0,0.08641975308641973,69.04938271604937,0)" xlink:href="#V"/><use transform="matrix(0.08641975308641973,0,0,0.08641975308641973,86.33333333333331,0)" xlink:href="#Y"/></g><path d="M135-143c-3-34-86-38-87 0 15 53 115 12 119 90S17 21 10-45l28-5c4 36 97 45 98 0-10-56-113-15-118-90-4-57 82-63 122-42 12 7 21 19 24 35" id="Z"/><path d="M179-190L93 31C79 59 56 82 12 73V49c39 6 53-20 64-50L1-190h34L92-34l54-156h33" id="aa"/><path d="M100-194c63 0 86 42 84 106H49c0 40 14 67 53 68 26 1 43-12 49-29l28 8c-11 28-37 45-77 45C44 4 14-33 15-96c1-61 26-98 85-98zm52 81c6-60-76-77-97-28-3 7-6 17-6 28h103" id="ab"/><path d="M210-169c-67 3-38 105-44 169h-31v-121c0-29-5-50-35-48C34-165 62-65 56 0H25l-1-190h30c1 10-1 24 2 32 10-44 99-50 107 0 11-21 27-35 58-36 85-2 47 119 55 194h-31v-121c0-29-5-49-35-48" id="ac"/><g id="c"><use transform="matrix(0.08641975308641973,0,0,0.08641975308641973,0,0)" xlink:href="#Z"/><use transform="matrix(0.08641975308641973,0,0,0.08641975308641973,15.555555555555552,0)" xlink:href="#aa"/><use transform="matrix(0.08641975308641973,0,0,0.08641975308641973,31.111111111111104,0)" xlink:href="#Z"/><use transform="matrix(0.08641975308641973,0,0,0.08641975308641973,46.66666666666666,0)" xlink:href="#W"/><use transform="matrix(0.08641975308641973,0,0,0.08641975308641973,55.30864197530863,0)" xlink:href="#ab"/><use transform="matrix(0.08641975308641973,0,0,0.08641975308641973,72.59259259259258,0)" xlink:href="#ac"/><use transform="matrix(0.08641975308641973,0,0,0.08641975308641973,98.43209876543207,0)" xlink:href="#Z"/></g><path d="M20-101c0-91 52-143 145-150 126-9 127 168 53 223-23 17-55 32-93 32C57 4 20-33 20-101zm216-33c5-57-18-91-73-90-77 1-110 51-110 125 0 49 23 75 73 75 72-1 104-45 110-110" id="ad"/><path d="M66-151c12-25 30-51 66-40l-6 26C45-176 58-65 38 0H6l36-190h30" id="ae"/><path d="M44-68c0 29 11 47 38 47 30 0 42-19 51-41l28 9C148-21 126 4 82 4 31 4 10-29 12-85c3-77 74-140 146-93 12 8 15 23 18 40l-31 5c-1-22-13-36-36-36-52 0-65 49-65 101" id="af"/><path d="M67-158c15-20 31-36 64-36 94 0 33 127 27 194h-32l25-140c3-38-53-32-70-12C52-117 51-51 37 0H6l51-261h31" id="ag"/><path d="M111-194c62-3 86 47 72 106H45c-7 38 6 69 45 68 27-1 43-14 53-32l24 11C152-15 129 4 87 4 38 3 12-23 12-71c0-70 32-119 99-123zm44 81c14-66-71-72-95-28-4 8-8 17-11 28h106" id="ah"/><path d="M55-144c13 50 104 24 104 88C159 21 15 23 1-39l26-10c6 40 102 42 102-4-13-50-104-23-104-87 0-71 143-71 148-8l-29 4c-5-35-85-37-89 0" id="ai"/><path d="M51-54c-9 22 5 41 31 30L79-1C43 14 10-4 19-52l22-115H19l5-23h22l19-43h21l-9 43h35l-4 23H73" id="aj"/><path d="M165-48c-4 18 1 34 23 27l-3 20c-29 8-62 0-52-35h-2C116-14 99 4 63 4 30 4 8-16 8-49c0-68 71-67 138-67 10-26 0-56-31-54-26 1-42 9-47 31l-32-5c8-67 160-71 144 15-5 28-9 54-15 81zM42-50c3 52 80 24 89-6 7-12 7-24 11-38-47 1-103-4-100 44" id="ak"/><path d="M30-147c31-64 166-65 159 27C183-49 158 1 86 4 9 8 1-88 30-147zM88-20c53 0 68-48 68-100 0-31-11-51-44-50-52 1-68 46-68 97 0 32 13 53 44 53" id="al"/><g id="d"><use transform="matrix(0.08641975308641973,0,0,0.08641975308641973,0,0)" xlink:href="#ad"/><use transform="matrix(0.08641975308641973,0,0,0.08641975308641973,24.197530864197525,0)" xlink:href="#ae"/><use transform="matrix(0.08641975308641973,0,0,0.08641975308641973,34.481481481481474,0)" xlink:href="#af"/><use transform="matrix(0.08641975308641973,0,0,0.08641975308641973,50.037037037037024,0)" xlink:href="#ag"/><use transform="matrix(0.08641975308641973,0,0,0.08641975308641973,67.32098765432097,0)" xlink:href="#ah"/><use transform="matrix(0.08641975308641973,0,0,0.08641975308641973,84.60493827160492,0)" xlink:href="#ai"/><use transform="matrix(0.08641975308641973,0,0,0.08641975308641973,100.16049382716047,0)" xlink:href="#aj"/><use transform="matrix(0.08641975308641973,0,0,0.08641975308641973,108.80246913580244,0)" xlink:href="#ae"/><use transform="matrix(0.08641975308641973,0,0,0.08641975308641973,119.08641975308639,0)" xlink:href="#ak"/><use transform="matrix(0.08641975308641973,0,0,0.08641975308641973,136.37037037037035,0)" xlink:href="#aj"/><use transform="matrix(0.08641975308641973,0,0,0.08641975308641973,145.01234567901233,0)" xlink:href="#al"/><use transform="matrix(0.08641975308641973,0,0,0.08641975308641973,162.29629629629628,0)" xlink:href="#ae"/><use transform="matrix(0.08641975308641973,0,0,0.08641975308641973,172.58024691358023,0)" xlink:href="#ai"/></g><path d="M85-194c31 0 48 13 60 33l-1-100h32l1 261h-30c-2-10 0-23-3-31C134-8 116 4 85 4 32 4 16-35 15-94c0-66 23-100 70-100zm9 24c-40 0-46 34-46 75 0 40 6 74 45 74 42 0 51-32 51-76 0-42-9-74-50-73" id="am"/><g id="e"><use transform="matrix(0.08641975308641973,0,0,0.08641975308641973,0,0)" xlink:href="#W"/><use transform="matrix(0.08641975308641973,0,0,0.08641975308641973,8.641975308641973,0)" xlink:href="#ab"/><use transform="matrix(0.08641975308641973,0,0,0.08641975308641973,25.925925925925917,0)" xlink:href="#T"/><use transform="matrix(0.08641975308641973,0,0,0.08641975308641973,43.20987654320986,0)" xlink:href="#am"/></g><g id="f"><use transform="matrix(0.08641975308641973,0,0,0.08641975308641973,0,0)" xlink:href="#W"/><use transform="matrix(0.08641975308641973,0,0,0.08641975308641973,8.641975308641973,0)" xlink:href="#V"/></g><path d="M101-234c-31-9-42 10-38 44h38v23H63V0H32v-167H5v-23h27c-7-52 17-82 69-68v24" id="an"/><path d="M24-231v-30h32v30H24zM24 0v-190h32V0H24" id="ao"/><g id="g"><use transform="matrix(0.08641975308641973,0,0,0.08641975308641973,0,0)" xlink:href="#am"/><use transform="matrix(0.08641975308641973,0,0,0.08641975308641973,17.283950617283946,0)" xlink:href="#ab"/><use transform="matrix(0.08641975308641973,0,0,0.08641975308641973,34.56790123456789,0)" xlink:href="#an"/><use transform="matrix(0.08641975308641973,0,0,0.08641975308641973,43.209876543209866,0)" xlink:href="#ao"/><use transform="matrix(0.08641975308641973,0,0,0.08641975308641973,50.037037037037024,0)" xlink:href="#T"/><use transform="matrix(0.08641975308641973,0,0,0.08641975308641973,67.32098765432097,0)" xlink:href="#ab"/></g><path d="M185-189c-5-48-123-54-124 2 14 75 158 14 163 119 3 78-121 87-175 55-17-10-28-26-33-46l33-7c5 56 141 63 141-1 0-78-155-14-162-118-5-82 145-84 179-34 5 7 8 16 11 25" id="ap"/><path d="M30-248c87 1 191-15 191 75 0 78-77 80-158 76V0H30v-248zm33 125c57 0 124 11 124-50 0-59-68-47-124-48v98" id="aq"/><g id="h"><use transform="matrix(0.08641975308641973,0,0,0.08641975308641973,0,0)" xlink:href="#ap"/><use transform="matrix(0.08641975308641973,0,0,0.08641975308641973,20.740740740740737,0)" xlink:href="#aq"/><use transform="matrix(0.08641975308641973,0,0,0.08641975308641973,41.481481481481474,0)" xlink:href="#S"/><use transform="matrix(0.08641975308641973,0,0,0.08641975308641973,50.12345679012345,0)" xlink:href="#Z"/></g><g id="i"><use transform="matrix(0.08641975308641973,0,0,0.08641975308641973,0,0)" xlink:href="#an"/><use transform="matrix(0.08641975308641973,0,0,0.08641975308641973,8.641975308641973,0)" xlink:href="#V"/><use transform="matrix(0.08641975308641973,0,0,0.08641975308641973,25.925925925925917,0)" xlink:href="#X"/></g><path d="M106-169C34-169 62-67 57 0H25v-261h32l-1 103c12-21 28-36 61-36 89 0 53 116 60 194h-32v-121c2-32-8-49-39-48" id="ar"/><g id="j"><use transform="matrix(0.08641975308641973,0,0,0.08641975308641973,0,0)" xlink:href="#W"/><use transform="matrix(0.08641975308641973,0,0,0.08641975308641973,8.641975308641973,0)" xlink:href="#ar"/><use transform="matrix(0.08641975308641973,0,0,0.08641975308641973,25.925925925925917,0)" xlink:href="#ab"/></g><path d="M108 0H70L1-190h34L89-25l56-165h34" id="as"/><g id="k"><use transform="matrix(0.08641975308641973,0,0,0.08641975308641973,0,0)" xlink:href="#Z"/><use transform="matrix(0.08641975308641973,0,0,0.08641975308641973,15.555555555555552,0)" xlink:href="#ab"/><use transform="matrix(0.08641975308641973,0,0,0.08641975308641973,32.8395061728395,0)" xlink:href="#X"/><use transform="matrix(0.08641975308641973,0,0,0.08641975308641973,43.12345679012345,0)" xlink:href="#as"/><use transform="matrix(0.08641975308641973,0,0,0.08641975308641973,58.679012345679,0)" xlink:href="#ao"/><use transform="matrix(0.08641975308641973,0,0,0.08641975308641973,65.50617283950616,0)" xlink:href="#U"/><use transform="matrix(0.08641975308641973,0,0,0.08641975308641973,81.06172839506172,0)" xlink:href="#ab"/><use transform="matrix(0.08641975308641973,0,0,0.08641975308641973,98.34567901234568,0)" xlink:href="#Z"/></g><g id="l"><use transform="matrix(0.08641975308641973,0,0,0.08641975308641973,0,0)" xlink:href="#W"/><use transform="matrix(0.08641975308641973,0,0,0.08641975308641973,8.641975308641973,0)" xlink:href="#V"/></g><path d="M115-194c55 1 70 41 70 98S169 2 115 4C84 4 66-9 55-30l1 105H24l-1-265h31l2 30c10-21 28-34 59-34zm-8 174c40 0 45-34 45-75s-6-73-45-74c-42 0-51 32-51 76 0 43 10 73 51 73" id="at"/><g id="m"><use transform="matrix(0.08641975308641973,0,0,0.08641975308641973,0,0)" xlink:href="#ao"/><use transform="matrix(0.08641975308641973,0,0,0.08641975308641973,6.827160493827159,0)" xlink:href="#ac"/><use transform="matrix(0.08641975308641973,0,0,0.08641975308641973,32.66666666666666,0)" xlink:href="#at"/><use transform="matrix(0.08641975308641973,0,0,0.08641975308641973,49.950617283950606,0)" xlink:href="#Y"/><use transform="matrix(0.08641975308641973,0,0,0.08641975308641973,56.777777777777764,0)" xlink:href="#ab"/><use transform="matrix(0.08641975308641973,0,0,0.08641975308641973,74.0617283950617,0)" xlink:href="#ac"/><use transform="matrix(0.08641975308641973,0,0,0.08641975308641973,99.90123456790121,0)" xlink:href="#ab"/><use transform="matrix(0.08641975308641973,0,0,0.08641975308641973,117.18518518518516,0)" xlink:href="#T"/><use transform="matrix(0.08641975308641973,0,0,0.08641975308641973,134.4691358024691,0)" xlink:href="#W"/></g><path d="M98-208l-15 77h118l-8 40H76L58 0H6l48-248h174l-8 40H98" id="au"/><path d="M166-52c-4 17 5 29 24 23l-3 27c-30 11-74 1-67-34C105-15 91 4 56 4 23 4 3-15 2-49c0-64 63-67 128-67 10-22 3-53-29-45-13 3-22 10-25 24l-46-5c5-64 156-77 153 0-1 33-11 60-17 90zM97-88c-44-9-64 57-19 57 31 0 42-28 47-57H97" id="av"/><path d="M67-101c-8 29-7 73 27 71 23-2 32-16 39-37l48 9C170-19 141 4 91 4 36 4 7-28 12-86c6-75 61-124 140-103 26 7 40 29 43 59l-50 4c-1-20-9-34-29-34-35 0-41 29-49 59" id="aw"/><path d="M132-28C118-9 101 4 69 4 30 4 10-23 10-62c0-70 24-129 92-132 31-1 47 14 56 35l19-102h49L179 0h-49zM62-69c0 22 7 39 29 39 45-2 54-45 57-90 2-27-10-40-33-40-44 0-53 48-53 91" id="ax"/><path d="M114-194c63-2 87 48 72 110H63c-3 28 1 55 31 54 21-1 32-13 37-29l44 13C160-14 137 4 91 4 41 4 11-22 11-73c0-71 33-119 103-121zm30 77c14-47-50-61-67-22-3 6-6 13-8 22h75" id="ay"/><g id="n"><use transform="matrix(0.0987654320987654,0,0,0.0987654320987654,0,0)" xlink:href="#au"/><use transform="matrix(0.0987654320987654,0,0,0.0987654320987654,21.629629629629623,0)" xlink:href="#av"/><use transform="matrix(0.0987654320987654,0,0,0.0987654320987654,41.3827160493827,0)" xlink:href="#aw"/><use transform="matrix(0.0987654320987654,0,0,0.0987654320987654,61.13580246913578,0)" xlink:href="#av"/><use transform="matrix(0.0987654320987654,0,0,0.0987654320987654,80.88888888888886,0)" xlink:href="#ax"/><use transform="matrix(0.0987654320987654,0,0,0.0987654320987654,102.51851851851849,0)" xlink:href="#ay"/></g><path d="M212 0l43-212L151 0h-37L90-212C82-137 65-70 52 0H6l48-248h70l20 187 93-187h69L258 0h-46" id="az"/><path d="M50-224l7-37h49l-7 37H50zM6 0l37-190h49L55 0H6" id="aA"/><path d="M72-63c-8 23 5 39 32 30L98-1C54 14 12-6 23-64l18-93H15l7-33h28l24-45h31l-8 45h35l-6 33H90" id="aB"/><path d="M124-194c51 0 84 22 84 74C207-44 167 4 94 4 43 4 11-23 11-74c0-74 41-120 113-120zM99-30c46 0 58-42 58-86 0-27-11-44-37-44-44 0-55 40-57 84-1 27 10 45 36 46" id="aC"/><path d="M84-151c13-25 34-51 72-40l-8 41C67-170 71-64 56 0H6l36-190h47" id="aD"/><g id="o"><use transform="matrix(0.0987654320987654,0,0,0.0987654320987654,0,0)" xlink:href="#az"/><use transform="matrix(0.0987654320987654,0,0,0.0987654320987654,29.530864197530853,0)" xlink:href="#ay"/><use transform="matrix(0.0987654320987654,0,0,0.0987654320987654,49.283950617283935,0)" xlink:href="#ax"/><use transform="matrix(0.0987654320987654,0,0,0.0987654320987654,70.91358024691355,0)" xlink:href="#aA"/><use transform="matrix(0.0987654320987654,0,0,0.0987654320987654,80.7901234567901,0)" xlink:href="#av"/><use transform="matrix(0.0987654320987654,0,0,0.0987654320987654,100.54320987654317,0)" xlink:href="#aB"/><use transform="matrix(0.0987654320987654,0,0,0.0987654320987654,112.29629629629626,0)" xlink:href="#aC"/><use transform="matrix(0.0987654320987654,0,0,0.0987654320987654,133.92592592592587,0)" xlink:href="#aD"/></g><g id="p"><use transform="matrix(0.08641975308641972,0,0,0.08641975308641972,0,0)" xlink:href="#S"/><use transform="matrix(0.08641975308641972,0,0,0.08641975308641972,8.641975308641973,0)" xlink:href="#T"/></g><path d="M141-36C126-15 110 5 73 4 37 3 15-17 15-53c-1-64 63-63 125-63 3-35-9-54-41-54-24 1-41 7-42 31l-33-3c5-37 33-52 76-52 45 0 72 20 72 64v82c-1 20 7 32 28 27v20c-31 9-61-2-59-35zM48-53c0 20 12 33 32 33 41-3 63-29 60-74-43 2-92-5-92 41" id="aE"/><use transform="matrix(0.08641975308641972,0,0,0.08641975308641972,0,0)" xlink:href="#aE" id="q"/><path d="M16-82v-28h88v28H16" id="aF"/><path d="M177-190C167-65 218 103 67 71c-23-6-38-20-44-43l32-5c15 47 100 32 89-28v-30C133-14 115 1 83 1 29 1 15-40 15-95c0-56 16-97 71-98 29-1 48 16 59 35 1-10 0-23 2-32h30zM94-22c36 0 50-32 50-73 0-42-14-75-50-75-39 0-46 34-46 75s6 73 46 73" id="aG"/><g id="r"><use transform="matrix(0.08641975308641972,0,0,0.08641975308641972,0,0)" xlink:href="#U"/><use transform="matrix(0.08641975308641972,0,0,0.08641975308641972,15.55555555555555,0)" xlink:href="#Y"/><use transform="matrix(0.08641975308641972,0,0,0.08641975308641972,22.382716049382708,0)" xlink:href="#ao"/><use transform="matrix(0.08641975308641972,0,0,0.08641975308641972,29.209876543209866,0)" xlink:href="#ab"/><use transform="matrix(0.08641975308641972,0,0,0.08641975308641972,46.49382716049381,0)" xlink:href="#T"/><use transform="matrix(0.08641975308641972,0,0,0.08641975308641972,63.77777777777776,0)" xlink:href="#W"/><use transform="matrix(0.08641975308641972,0,0,0.08641975308641972,72.41975308641973,0)" xlink:href="#aF"/><use transform="matrix(0.08641975308641972,0,0,0.08641975308641972,82.70370370370368,0)" xlink:href="#an"/><use transform="matrix(0.08641975308641972,0,0,0.08641975308641972,91.34567901234567,0)" xlink:href="#aE"/><use transform="matrix(0.08641975308641972,0,0,0.08641975308641972,108.6296296296296,0)" xlink:href="#U"/><use transform="matrix(0.08641975308641972,0,0,0.08641975308641972,124.18518518518516,0)" xlink:href="#ao"/><use transform="matrix(0.08641975308641972,0,0,0.08641975308641972,131.01234567901233,0)" xlink:href="#T"/><use transform="matrix(0.08641975308641972,0,0,0.08641975308641972,148.29629629629628,0)" xlink:href="#aG"/></g><g id="s"><use transform="matrix(0.08641975308641972,0,0,0.08641975308641972,0,0)" xlink:href="#Z"/><use transform="matrix(0.08641975308641972,0,0,0.08641975308641972,15.55555555555555,0)" xlink:href="#aa"/><use transform="matrix(0.08641975308641972,0,0,0.08641975308641972,31.1111111111111,0)" xlink:href="#Z"/><use transform="matrix(0.08641975308641972,0,0,0.08641975308641972,46.66666666666665,0)" xlink:href="#W"/><use transform="matrix(0.08641975308641972,0,0,0.08641975308641972,55.30864197530862,0)" xlink:href="#ab"/><use transform="matrix(0.08641975308641972,0,0,0.08641975308641972,72.59259259259257,0)" xlink:href="#ac"/></g><g id="t"><use transform="matrix(0.08641975308641972,0,0,0.08641975308641972,0,0)" xlink:href="#W"/><use transform="matrix(0.08641975308641972,0,0,0.08641975308641972,8.641975308641973,0)" xlink:href="#ar"/><use transform="matrix(0.08641975308641972,0,0,0.08641975308641972,25.925925925925917,0)" xlink:href="#ab"/></g><g id="u"><use transform="matrix(0.08641975308641972,0,0,0.08641975308641972,0,0)" xlink:href="#ad"/><use transform="matrix(0.08641975308641972,0,0,0.08641975308641972,24.19753086419752,0)" xlink:href="#ae"/><use transform="matrix(0.08641975308641972,0,0,0.08641975308641972,34.48148148148147,0)" xlink:href="#af"/><use transform="matrix(0.08641975308641972,0,0,0.08641975308641972,50.03703703703702,0)" xlink:href="#ag"/><use transform="matrix(0.08641975308641972,0,0,0.08641975308641972,67.32098765432096,0)" xlink:href="#ah"/><use transform="matrix(0.08641975308641972,0,0,0.08641975308641972,84.60493827160491,0)" xlink:href="#ai"/><use transform="matrix(0.08641975308641972,0,0,0.08641975308641972,100.16049382716045,0)" xlink:href="#aj"/><use transform="matrix(0.08641975308641972,0,0,0.08641975308641972,108.80246913580243,0)" xlink:href="#ae"/><use transform="matrix(0.08641975308641972,0,0,0.08641975308641972,119.08641975308637,0)" xlink:href="#ak"/><use transform="matrix(0.08641975308641972,0,0,0.08641975308641972,136.37037037037032,0)" xlink:href="#aj"/><use transform="matrix(0.08641975308641972,0,0,0.08641975308641972,145.0123456790123,0)" xlink:href="#al"/><use transform="matrix(0.08641975308641972,0,0,0.08641975308641972,162.29629629629625,0)" xlink:href="#ae"/></g><g id="v"><use transform="matrix(0.08641975308641972,0,0,0.08641975308641972,0,0)" xlink:href="#W"/><use transform="matrix(0.08641975308641972,0,0,0.08641975308641972,8.641975308641973,0)" xlink:href="#ab"/><use transform="matrix(0.08641975308641972,0,0,0.08641975308641972,25.925925925925917,0)" xlink:href="#T"/><use transform="matrix(0.08641975308641972,0,0,0.08641975308641972,43.20987654320986,0)" xlink:href="#am"/><use transform="matrix(0.08641975308641972,0,0,0.08641975308641972,60.4938271604938,0)" xlink:href="#Z"/></g><g id="w"><use transform="matrix(0.08641975308641972,0,0,0.08641975308641972,0,0)" xlink:href="#W"/><use transform="matrix(0.08641975308641972,0,0,0.08641975308641972,8.641975308641973,0)" xlink:href="#V"/></g><g id="x"><use transform="matrix(0.08641975308641972,0,0,0.08641975308641972,0,0)" xlink:href="#am"/><use transform="matrix(0.08641975308641972,0,0,0.08641975308641972,17.283950617283946,0)" xlink:href="#ab"/><use transform="matrix(0.08641975308641972,0,0,0.08641975308641972,34.56790123456789,0)" xlink:href="#at"/><use transform="matrix(0.08641975308641972,0,0,0.08641975308641972,51.85185185185183,0)" xlink:href="#ab"/><use transform="matrix(0.08641975308641972,0,0,0.08641975308641972,69.13580246913578,0)" xlink:href="#T"/><use transform="matrix(0.08641975308641972,0,0,0.08641975308641972,86.41975308641973,0)" xlink:href="#am"/></g><g id="y"><use transform="matrix(0.08641975308641972,0,0,0.08641975308641972,0,0)" xlink:href="#V"/><use transform="matrix(0.08641975308641972,0,0,0.08641975308641972,17.283950617283946,0)" xlink:href="#T"/></g><g id="z"><use transform="matrix(0.08641975308641972,0,0,0.08641975308641972,0,0)" xlink:href="#ab"/><use transform="matrix(0.08641975308641972,0,0,0.08641975308641972,17.283950617283946,0)" xlink:href="#aE"/><use transform="matrix(0.08641975308641972,0,0,0.08641975308641972,34.56790123456789,0)" xlink:href="#U"/><use transform="matrix(0.08641975308641972,0,0,0.08641975308641972,50.12345679012344,0)" xlink:href="#ar"/></g><g id="A"><use transform="matrix(0.08641975308641972,0,0,0.08641975308641972,0,0)" xlink:href="#Z"/><use transform="matrix(0.08641975308641972,0,0,0.08641975308641972,15.55555555555555,0)" xlink:href="#ab"/><use transform="matrix(0.08641975308641972,0,0,0.08641975308641972,32.83950617283949,0)" xlink:href="#X"/><use transform="matrix(0.08641975308641972,0,0,0.08641975308641972,43.12345679012344,0)" xlink:href="#as"/><use transform="matrix(0.08641975308641972,0,0,0.08641975308641972,58.67901234567899,0)" xlink:href="#ao"/><use transform="matrix(0.08641975308641972,0,0,0.08641975308641972,65.50617283950615,0)" xlink:href="#U"/><use transform="matrix(0.08641975308641972,0,0,0.08641975308641972,81.06172839506169,0)" xlink:href="#ab"/></g><linearGradient gradientUnits="userSpaceOnUse" id="B" x1="500" y1="740.5" x2="500" y2="620.5"><stop offset="19.2%" stop-color="#ced4db"/><stop offset="26.45%" stop-color="#fff"/><stop offset="45.29%" stop-color="#fff"/><stop offset="52.54%" stop-color="#cfe4ff"/></linearGradient><g id="C"><use transform="matrix(0.06790123456790123,0,0,0.06790123456790123,0,0)" xlink:href="#ap"/><use transform="matrix(0.06790123456790123,0,0,0.06790123456790123,16.296296296296294,0)" xlink:href="#ab"/><use transform="matrix(0.06790123456790123,0,0,0.06790123456790123,29.87654320987654,0)" xlink:href="#X"/><use transform="matrix(0.06790123456790123,0,0,0.06790123456790123,37.95679012345679,0)" xlink:href="#as"/><use transform="matrix(0.06790123456790123,0,0,0.06790123456790123,50.179012345679,0)" xlink:href="#ao"/><use transform="matrix(0.06790123456790123,0,0,0.06790123456790123,55.5432098765432,0)" xlink:href="#U"/><use transform="matrix(0.06790123456790123,0,0,0.06790123456790123,67.76543209876542,0)" xlink:href="#ab"/></g><path d="M205 0l-28-72H64L36 0H1l101-248h38L239 0h-34zm-38-99l-47-123c-12 45-31 82-46 123h93" id="aH"/><use transform="matrix(0.06790123456790123,0,0,0.06790123456790123,0,0)" xlink:href="#aH" id="D"/><linearGradient gradientUnits="userSpaceOnUse" id="E" x1="600" y1="740.5" x2="600" y2="620.5"><stop offset="19.2%" stop-color="#ced4db"/><stop offset="26.45%" stop-color="#fff"/><stop offset="45.29%" stop-color="#fff"/><stop offset="52.54%" stop-color="#cfe4ff"/></linearGradient><path d="M160-131c35 5 61 23 61 61C221 17 115-2 30 0v-248c76 3 177-17 177 60 0 33-19 50-47 57zm-97-11c50-1 110 9 110-42 0-47-63-36-110-37v79zm0 115c55-2 124 14 124-45 0-56-70-42-124-44v89" id="aI"/><use transform="matrix(0.06790123456790123,0,0,0.06790123456790123,0,0)" xlink:href="#aI" id="F"/><linearGradient gradientUnits="userSpaceOnUse" id="G" x1="700" y1="740.5" x2="700" y2="620.5"><stop offset="19.2%" stop-color="#ced4db"/><stop offset="26.45%" stop-color="#fff"/><stop offset="45.29%" stop-color="#fff"/><stop offset="52.54%" stop-color="#cfe4ff"/></linearGradient><path d="M212-179c-10-28-35-45-73-45-59 0-87 40-87 99 0 60 29 101 89 101 43 0 62-24 78-52l27 14C228-24 195 4 139 4 59 4 22-46 18-125c-6-104 99-153 187-111 19 9 31 26 39 46" id="aJ"/><use transform="matrix(0.06790123456790123,0,0,0.06790123456790123,0,0)" xlink:href="#aJ" id="H"/><g id="I"><use transform="matrix(0.06790123456790123,0,0,0.06790123456790123,0,0)" xlink:href="#aJ"/><use transform="matrix(0.06790123456790123,0,0,0.06790123456790123,17.586419753086417,0)" xlink:href="#Y"/><use transform="matrix(0.06790123456790123,0,0,0.06790123456790123,22.950617283950614,0)" xlink:href="#ao"/><use transform="matrix(0.06790123456790123,0,0,0.06790123456790123,28.31481481481481,0)" xlink:href="#ab"/><use transform="matrix(0.06790123456790123,0,0,0.06790123456790123,41.895061728395056,0)" xlink:href="#T"/><use transform="matrix(0.06790123456790123,0,0,0.06790123456790123,55.4753086419753,0)" xlink:href="#W"/></g><path d="M140-251c81 0 123 46 123 126C263-46 219 4 140 4 59 4 17-45 17-125s42-126 123-126zm0 227c63 0 89-41 89-101s-29-99-89-99c-61 0-89 39-89 99S79-25 140-24" id="aK"/><g id="J"><use transform="matrix(0.06790123456790123,0,0,0.06790123456790123,0,0)" xlink:href="#aK"/><use transform="matrix(0.06790123456790123,0,0,0.06790123456790123,19.012345679012345,0)" xlink:href="#X"/><use transform="matrix(0.06790123456790123,0,0,0.06790123456790123,27.09259259259259,0)" xlink:href="#U"/><use transform="matrix(0.06790123456790123,0,0,0.06790123456790123,39.31481481481481,0)" xlink:href="#ar"/><use transform="matrix(0.06790123456790123,0,0,0.06790123456790123,52.895061728395056,0)" xlink:href="#ab"/><use transform="matrix(0.06790123456790123,0,0,0.06790123456790123,66.4753086419753,0)" xlink:href="#Z"/><use transform="matrix(0.06790123456790123,0,0,0.06790123456790123,78.69753086419752,0)" xlink:href="#W"/><use transform="matrix(0.06790123456790123,0,0,0.06790123456790123,85.48765432098764,0)" xlink:href="#X"/><use transform="matrix(0.06790123456790123,0,0,0.06790123456790123,93.5679012345679,0)" xlink:href="#aE"/><use transform="matrix(0.06790123456790123,0,0,0.06790123456790123,107.14814814814815,0)" xlink:href="#W"/><use transform="matrix(0.06790123456790123,0,0,0.06790123456790123,113.93827160493828,0)" xlink:href="#V"/><use transform="matrix(0.06790123456790123,0,0,0.06790123456790123,127.51851851851853,0)" xlink:href="#X"/></g><linearGradient gradientUnits="userSpaceOnUse" id="K" x1="861.5" y1="640.5" x2="861.5" y2="520.5"><stop offset="45.29%" stop-color="#fff"/><stop offset="52.54%" stop-color="#cfe4ff"/></linearGradient><path d="M30-248c118-7 216 8 213 122C240-48 200 0 122 0H30v-248zM63-27c89 8 146-16 146-99s-60-101-146-95v194" id="aL"/><g id="L"><use transform="matrix(0.06790123456790123,0,0,0.06790123456790123,0,0)" xlink:href="#aL"/><use transform="matrix(0.06790123456790123,0,0,0.06790123456790123,17.586419753086417,0)" xlink:href="#X"/><use transform="matrix(0.06790123456790123,0,0,0.06790123456790123,25.666666666666664,0)" xlink:href="#ao"/><use transform="matrix(0.06790123456790123,0,0,0.06790123456790123,31.03086419753086,0)" xlink:href="#as"/><use transform="matrix(0.06790123456790123,0,0,0.06790123456790123,43.25308641975308,0)" xlink:href="#ab"/><use transform="matrix(0.06790123456790123,0,0,0.06790123456790123,56.83333333333333,0)" xlink:href="#X"/></g><path d="M195 0l-74-108L45 0H8l94-129-87-119h37l69 98 67-98h37l-84 118L233 0h-38" id="aM"/><use transform="matrix(0.06790123456790123,0,0,0.06790123456790123,0,0)" xlink:href="#aM" id="M"/><linearGradient gradientUnits="userSpaceOnUse" id="N" x1="961.5" y1="640.5" x2="961.5" y2="520.5"><stop offset="45.29%" stop-color="#fff"/><stop offset="52.54%" stop-color="#cfe4ff"/></linearGradient><path d="M137-103V0h-34v-103L8-248h37l75 118 75-118h37" id="aN"/><use transform="matrix(0.06790123456790123,0,0,0.06790123456790123,0,0)" xlink:href="#aN" id="O"/><linearGradient gradientUnits="userSpaceOnUse" id="P" x1="1061.5" y1="640.5" x2="1061.5" y2="520.5"><stop offset="45.29%" stop-color="#fff"/><stop offset="52.54%" stop-color="#cfe4ff"/></linearGradient><path d="M209 0H11v-25l151-195H24v-28h176v25L50-27h159V0" id="aO"/><use transform="matrix(0.06790123456790123,0,0,0.06790123456790123,0,0)" xlink:href="#aO" id="Q"/><path d="M197 0v-115H63V0H30v-248h33v105h134v-105h34V0h-34" id="aP"/><path d="M266 0h-40l-56-210L115 0H75L2-248h35L96-30l15-64 43-154h32l59 218 59-218h35" id="aQ"/><g id="R"><use transform="matrix(0.06790123456790123,0,0,0.06790123456790123,0,0)" xlink:href="#aP"/><use transform="matrix(0.06790123456790123,0,0,0.06790123456790123,17.586419753086417,0)" xlink:href="#aQ"/></g></defs></g></svg>