<svg xmlns="http://www.w3.org/2000/svg" xmlns:xlink="http://www.w3.org/1999/xlink" xmlns:lucid="lucid" width="1243" height="325"><g transform="translate(-818.5 -456.5)" lucid:page-tab-id="0_0"><path d="M1780 479.5a20 20 0 0 1 20-20 20 20 0 0 1 20 20v80a20 20 0 0 1-20 20 20 20 0 0 1-20-20z" stroke="#008a0e" stroke-width="3" fill="url(#a)"/><use xlink:href="#b" transform="matrix(-1.8369701987210297e-16,-1,1,-1.8369701987210297e-16,1785,574.4999500000049) translate(2.7889506172839535 19.555555555555557)"/><use xlink:href="#c" transform="matrix(-1.8369701987210297e-16,-1,1,-1.8369701987210297e-16,1785,574.4999500000049) translate(90.92475308641976 19.555555555555557)"/><path d="M1860 479.5a20 20 0 0 1 20-20 20 20 0 0 1 20 20v80a20 20 0 0 1-20 20 20 20 0 0 1-20-20z" stroke="#82755b" stroke-width="3" fill="url(#d)"/><use xlink:href="#b" transform="matrix(-1.8369701987210297e-16,-1,1,-1.8369701987210297e-16,1865,574.4999500000049) translate(2.7889506172839535 19.555555555555557)"/><use xlink:href="#e" transform="matrix(-1.8369701987210297e-16,-1,1,-1.8369701987210297e-16,1865,574.4999500000049) translate(90.92475308641976 19.555555555555557)"/><path d="M1940 479.5a20 20 0 0 1 20-20 20 20 0 0 1 20 20v80a20 20 0 0 1-20 20 20 20 0 0 1-20-20z" stroke="#1071e5" stroke-width="3" fill="url(#f)"/><use xlink:href="#b" transform="matrix(-1.8369701987210297e-16,-1,1,-1.8369701987210297e-16,1945,574.499950010164) translate(2.14388888888889 19.555555555555557)"/><use xlink:href="#g" transform="matrix(-1.8369701987210297e-16,-1,1,-1.8369701987210297e-16,1945,574.499950010164) translate(90.27969135802469 19.555555555555557)"/><path d="M1700 480a20 20 0 0 1 20-20 20 20 0 0 1 20 20v79.5a20 20 0 0 1-20 20 20 20 0 0 1-20-20z" stroke="#000" stroke-width="3" fill="#fff"/><use xlink:href="#h" transform="matrix(-1.8369701987210297e-16,-1,1,-1.8369701987210297e-16,1705,574.4999500000049) translate(27.34450617283951 21.430555555555557)"/><path d="M2020 479a20 20 0 0 1 20-20 20 20 0 0 1 20 20v79.5a20 20 0 0 1-20 20 20 20 0 0 1-20-20z" stroke="#000" stroke-width="3" fill="#fff"/><use xlink:href="#i" transform="matrix(-1.8369701987210297e-16,-1,1,-1.8369701987210297e-16,2025,573.4998500000142) translate(17.838333333333324 21.430555555555557)"/><path d="M820 706a6 6 0 0 1 6-6h348a6 6 0 0 1 6 6v68a6 6 0 0 1-6 6H826a6 6 0 0 1-6-6z" stroke="#000" stroke-opacity="0" stroke-width="3" fill="#fff" fill-opacity="0"/><use xlink:href="#j" transform="matrix(1,0,0,1,825,705) translate(14.358024691358082 28.444444444444436)"/><use xlink:href="#k" transform="matrix(1,0,0,1,825,705) translate(264.7283950617284 28.444444444444436)"/><use xlink:href="#l" transform="matrix(1,0,0,1,825,705) translate(78.40740740740743 71.11111111111109)"/><path d="M1260 706a6 6 0 0 1 6-6h348a6 6 0 0 1 6 6v68a6 6 0 0 1-6 6h-348a6 6 0 0 1-6-6z" stroke="#000" stroke-opacity="0" stroke-width="3" fill="#fff" fill-opacity="0"/><use xlink:href="#j" transform="matrix(1,0,0,1,1265,705) translate(14.358024691358082 28.444444444444436)"/><use xlink:href="#k" transform="matrix(1,0,0,1,1265,705) translate(264.7283950617284 28.444444444444436)"/><use xlink:href="#m" transform="matrix(1,0,0,1,1265,705) translate(67.6913580246914 71.11111111111109)"/><path d="M1800 646a6 6 0 0 1 6-6h148a6 6 0 0 1 6 6v28a6 6 0 0 1-6 6h-148a6 6 0 0 1-6-6z" stroke="#000" stroke-opacity="0" stroke-width="3" fill="#fff" fill-opacity="0"/><use xlink:href="#n" transform="matrix(1,0,0,1,1805,645) translate(2.950617283950649 30.381944444444436)"/><path d="M1916.5 640h-33M1916.4 640h3.6M1883.6 640h-3.6" stroke="#82755b" stroke-width="7" fill="none"/><path d="M1956.5 640h-33M1956.4 640h3.6M1923.6 640h-3.6" stroke="#1071e5" stroke-width="7" fill="none"/><path d="M1836.5 640h-33M1836.4 640h3.6M1803.6 640h-3.6" stroke="#000" stroke-width="7" fill="none"/><path d="M1876.5 640h-33M1876.4 640h3.6M1843.6 640h-3.6" stroke="#008a0e" stroke-width="7" fill="none"/><path d="M1800.7 581.7l45.2 45.22" stroke="#008a0e" stroke-width="2" fill="none"/><path d="M1800 581l1.28-.1.13.14-1.36 1.38-1.54-1.53z" stroke="#008a0e" stroke-width=".05" fill="#008a0e"/><path d="M1856.7 637.7l-13.36-6.8 6.56-6.55z" stroke="#008a0e" stroke-width="2" fill="#fff"/><path d="M1880.33 581.95l14.22 40.6" stroke="#82755b" stroke-width="2" fill="none"/><path d="M1880 581l1-.08.26.73-1.84.64-.48-1.38z" stroke="#82755b" stroke-width=".05" fill="#82755b"/><path d="M1899.6 636.95l-9.1-11.94 8.76-3.05z" stroke="#82755b" stroke-width="2" fill="#fff"/><path d="M1959.67 581.95l-14.22 40.6" stroke="#1071e5" stroke-width="2" fill="none"/><path d="M1960.58 582.3l-1.84-.65.25-.73 1 .1 1.06-.1z" stroke="#1071e5" stroke-width=".05" fill="#1071e5"/><path d="M1940.4 636.95l.34-15 8.75 3.06z" stroke="#1071e5" stroke-width="2" fill="#fff"/><path d="M1720.86 581.5l84.48 49.2" stroke="#000" stroke-width="2" fill="none"/><path d="M1720 581l1.24-.1-.84 1.46-2.64-1.53z" stroke="#000" stroke-width=".05"/><path d="M1818.54 638.37l-14.66-3.17 4.66-8z" stroke="#000" stroke-width="2" fill="#fff"/><path d="M1800.3 581.96l12.8 40.4" stroke="#000" stroke-width="2" fill="none"/><path d="M1800 581l1-.07.24.76-1.86.58-.43-1.36z" stroke="#000" stroke-width=".05"/><path d="M1817.7 636.9l-8.73-12.2 8.84-2.8z" stroke="#000" stroke-width="2" fill="#fff"/><path d="M1879.3 581.7l-45.2 45.22" stroke="#000" stroke-width="2" fill="none"/><path d="M1879.96 582.42l-1.38-1.38.14-.14 1.28.1 1.5-.1z" stroke="#000" stroke-width=".05"/><path d="M1823.3 637.7l6.8-13.35 6.56 6.55z" stroke="#000" stroke-width="2" fill="#fff"/><path d="M1959.08 581.4l-122.03 51.42" stroke="#000" stroke-width="2" fill="none"/><path d="M1959.43 582.3l-.58-1.4 1.15.1 3.1-.24z" stroke="#000" stroke-width=".05"/><path d="M1822.98 638.74l11.35-9.8 3.6 8.53z" stroke="#000" stroke-width="2" fill="#fff"/><path d="M2039.04 580.27l-199.86 54.84" stroke="#000" stroke-width="2" fill="none"/><path d="M2043.15 580.15l-3.88 1.07-.36-1.3 1.1.08 3.05-.24z" stroke="#000" stroke-width=".05"/><path d="M1824.45 639.14l12.53-8.24 2.46 8.94z" stroke="#000" stroke-width="2" fill="#fff"/><path d="M1700 706a6 6 0 0 1 6-6h348a6 6 0 0 1 6 6v68a6 6 0 0 1-6 6h-348a6 6 0 0 1-6-6z" stroke="#000" stroke-opacity="0" stroke-width="3" fill="#fff" fill-opacity="0"/><use xlink:href="#j" transform="matrix(1,0,0,1,1705,705) translate(14.358024691358082 28.444444444444436)"/><use xlink:href="#k" transform="matrix(1,0,0,1,1705,705) translate(264.7283950617284 28.444444444444436)"/><use xlink:href="#o" transform="matrix(1,0,0,1,1705,705) translate(41.814814814814866 71.11111111111109)"/><use xlink:href="#p" transform="matrix(1,0,0,1,1705,705) translate(171.98765432098764 71.11111111111109)"/><path d="M900 480a20 20 0 0 1 20-20 20 20 0 0 1 20 20v80a20 20 0 0 1-20 20 20 20 0 0 1-20-20z" stroke="#008a0e" stroke-width="3" fill="url(#q)"/><use xlink:href="#b" transform="matrix(-1.8369701987210297e-16,-1,1,-1.8369701987210297e-16,905,574.9999999999999) translate(2.7889506172839535 19.555555555555557)"/><use xlink:href="#c" transform="matrix(-1.8369701987210297e-16,-1,1,-1.8369701987210297e-16,905,574.9999999999999) translate(90.92475308641976 19.555555555555557)"/><path d="M980 480a20 20 0 0 1 20-20 20 20 0 0 1 20 20v80a20 20 0 0 1-20 20 20 20 0 0 1-20-20z" stroke="#82755b" stroke-width="3" fill="url(#r)"/><use xlink:href="#b" transform="matrix(-1.8369701987210297e-16,-1,1,-1.8369701987210297e-16,985,574.9999999999999) translate(2.7889506172839535 19.555555555555557)"/><use xlink:href="#e" transform="matrix(-1.8369701987210297e-16,-1,1,-1.8369701987210297e-16,985,574.9999999999999) translate(90.92475308641976 19.555555555555557)"/><path d="M1060 480a20 20 0 0 1 20-20 20 20 0 0 1 20 20v80a20 20 0 0 1-20 20 20 20 0 0 1-20-20z" stroke="#1071e5" stroke-width="3" fill="url(#s)"/><use xlink:href="#b" transform="matrix(-1.8369701987210297e-16,-1,1,-1.8369701987210297e-16,1065,575.0000000101593) translate(2.14388888888889 19.555555555555557)"/><use xlink:href="#g" transform="matrix(-1.8369701987210297e-16,-1,1,-1.8369701987210297e-16,1065,575.0000000101593) translate(90.27969135802469 19.555555555555557)"/><path d="M862.5 520.23l17.5-.36" stroke="#008a0e" stroke-width="2" fill="none"/><path d="M862.54 521.2l-1.04.02v-1.95l1-.02z" stroke="#008a0e" stroke-width=".05" fill="#008a0e"/><path d="M895.26 519.55l-14.16 4.93-.2-9.27z" stroke="#008a0e" stroke-width="2" fill="#fff"/><path d="M942.5 520H960" stroke="#82755b" stroke-width="2" fill="none"/><path d="M942.53 520.98h-1.03V519h1.03z" stroke="#82755b" stroke-width=".05" fill="#82755b"/><path d="M975.26 520L961 524.63v-9.26z" stroke="#82755b" stroke-width="2" fill="#fff"/><path d="M1022.5 519.5h17.5" stroke="#1071e5" stroke-width="2" fill="none"/><path d="M1022.53 520.46h-1.03v-1.95h1.03z" stroke="#1071e5" stroke-width=".05" fill="#1071e5"/><path d="M1055.26 519.5L1041 524.1v-9.27z" stroke="#1071e5" stroke-width="2" fill="#fff"/><path d="M900 463.5v114M900 463.6V460M900 577.4v3.6" stroke="#008a0e" stroke-width="7" fill="none"/><path d="M980 464v112.5M980 464.1v-3.6M980 576.4v3.6" stroke="#82755b" stroke-width="7" fill="none"/><path d="M1060 463.5v113M1060 463.6V460M1060 576.4v3.6" stroke="#1071e5" stroke-width="7" fill="none"/><path d="M820 480.5a20 20 0 0 1 20-20 20 20 0 0 1 20 20V560a20 20 0 0 1-20 20 20 20 0 0 1-20-20z" stroke="#000" stroke-width="3" fill="#fff"/><use xlink:href="#h" transform="matrix(-1.8369701987210297e-16,-1,1,-1.8369701987210297e-16,825,574.9999999999998) translate(27.34450617283951 21.430555555555557)"/><path d="M1140 480.5a20 20 0 0 1 20-20 20 20 0 0 1 20 20V560a20 20 0 0 1-20 20 20 20 0 0 1-20-20z" stroke="#000" stroke-width="3" fill="#fff"/><use xlink:href="#i" transform="matrix(-1.8369701987210297e-16,-1,1,-1.8369701987210297e-16,1145,575.0000000101595) translate(17.838333333333324 21.430555555555557)"/><path d="M1140 463.5v113M1140 463.6V460M1140 576.4v3.6" stroke="#000" stroke-width="7" fill="none"/><path d="M1102.5 521h17.5" stroke="#000" stroke-width="2" fill="none"/><path d="M1102.53 521.97h-1.03v-1.95h1.03z" stroke="#000" stroke-width=".05"/><path d="M1135.26 521l-14.26 4.63v-9.27z" stroke="#000" stroke-width="2" fill="#fff"/><path d="M1340 481a20 20 0 0 1 20-20 20 20 0 0 1 20 20v80a20 20 0 0 1-20 20 20 20 0 0 1-20-20z" stroke="#008a0e" stroke-width="3" fill="url(#t)"/><use xlink:href="#b" transform="matrix(-1.8369701987210297e-16,-1,1,-1.8369701987210297e-16,1345,576.0001000203092) translate(2.7889506172839535 19.555555555555557)"/><use xlink:href="#c" transform="matrix(-1.8369701987210297e-16,-1,1,-1.8369701987210297e-16,1345,576.0001000203092) translate(90.92475308641976 19.555555555555557)"/><path d="M1420 481a20 20 0 0 1 20-20 20 20 0 0 1 20 20v80a20 20 0 0 1-20 20 20 20 0 0 1-20-20z" stroke="#82755b" stroke-width="3" fill="url(#u)"/><use xlink:href="#b" transform="matrix(-1.8369701987210297e-16,-1,1,-1.8369701987210297e-16,1425,576.0001000203092) translate(2.7889506172839535 19.555555555555557)"/><use xlink:href="#e" transform="matrix(-1.8369701987210297e-16,-1,1,-1.8369701987210297e-16,1425,576.0001000203092) translate(90.92475308641976 19.555555555555557)"/><path d="M1500 481a20 20 0 0 1 20-20 20 20 0 0 1 20 20v80a20 20 0 0 1-20 20 20 20 0 0 1-20-20z" stroke="#1071e5" stroke-width="3" fill="url(#v)"/><use xlink:href="#b" transform="matrix(-1.8369701987210297e-16,-1,1,-1.8369701987210297e-16,1505,576.0001000304685) translate(2.14388888888889 19.555555555555557)"/><use xlink:href="#g" transform="matrix(-1.8369701987210297e-16,-1,1,-1.8369701987210297e-16,1505,576.0001000304685) translate(90.27969135802469 19.555555555555557)"/><path d="M1380 464v113M1380 464.1v-3.6M1380 576.9v3.6" stroke="#008a0e" stroke-width="7" fill="none"/><path d="M1460 464v113M1460 464.1v-3.6M1460 576.9v3.6" stroke="#82755b" stroke-width="7" fill="none"/><path d="M1540 464v113M1540 464.1v-3.6M1540 576.9v3.6" stroke="#1071e5" stroke-width="7" fill="none"/><path d="M1260 481.5a20 20 0 0 1 20-20 20 20 0 0 1 20 20V561a20 20 0 0 1-20 20 20 20 0 0 1-20-20z" stroke="#000" stroke-width="3" fill="#fff"/><use xlink:href="#h" transform="matrix(-1.8369701987210297e-16,-1,1,-1.8369701987210297e-16,1265,576.0001000203092) translate(27.34450617283951 21.430555555555557)"/><path d="M1580 480.5a20 20 0 0 1 20-20 20 20 0 0 1 20 20V560a20 20 0 0 1-20 20 20 20 0 0 1-20-20z" stroke="#000" stroke-width="3" fill="#fff"/><use xlink:href="#i" transform="matrix(-1.8369701987210297e-16,-1,1,-1.8369701987210297e-16,1584.9999999999998,575.0000000203186) translate(17.838333333333324 21.430555555555557)"/><path d="M1300 464v113M1300 464.1v-3.6M1300 576.9v3.6" stroke="#000" stroke-width="7" fill="none"/><path d="M1337.5 521h-19" stroke="#000" stroke-width="2" fill="none"/><path d="M1338.5 521.98h-1.03V520h1.03z" stroke="#000" stroke-width=".05"/><path d="M1303.24 521l14.26-4.63v9.26z" stroke="#000" stroke-width="2" fill="#fff"/><path d="M1417.5 521h-19" stroke="#008a0e" stroke-width="2" fill="none"/><path d="M1418.5 521.98h-1.03V520h1.03z" stroke="#008a0e" stroke-width=".05" fill="#008a0e"/><path d="M1383.24 521l14.26-4.63v9.26z" stroke="#008a0e" stroke-width="2" fill="#fff"/><path d="M1497.5 521h-19" stroke="#82755b" stroke-width="2" fill="none"/><path d="M1498.5 521.98h-1.03V520h1.03z" stroke="#82755b" stroke-width=".05" fill="#82755b"/><path d="M1463.24 521l14.26-4.63v9.26z" stroke="#82755b" stroke-width="2" fill="#fff"/><path d="M1577.5 520.25h-19" stroke="#1071e5" stroke-width="2" fill="none"/><path d="M1578.5 521.23h-1.03v-1.96h1.03z" stroke="#1071e5" stroke-width=".05" fill="#1071e5"/><path d="M1543.24 520.25l14.26-4.63v9.26z" stroke="#1071e5" stroke-width="2" fill="#fff"/><defs><linearGradient gradientUnits="userSpaceOnUse" id="a" x1="1780" y1="579.5" x2="1780" y2="459.5"><stop offset="19.2%" stop-color="#ced4db"/><stop offset="26.45%" stop-color="#fff"/><stop offset="45.29%" stop-color="#fff"/><stop offset="52.54%" stop-color="#cfe4ff"/></linearGradient><path d="M185-189c-5-48-123-54-124 2 14 75 158 14 163 119 3 78-121 87-175 55-17-10-28-26-33-46l33-7c5 56 141 63 141-1 0-78-155-14-162-118-5-82 145-84 179-34 5 7 8 16 11 25" id="w"/><path d="M100-194c63 0 86 42 84 106H49c0 40 14 67 53 68 26 1 43-12 49-29l28 8c-11 28-37 45-77 45C44 4 14-33 15-96c1-61 26-98 85-98zm52 81c6-60-76-77-97-28-3 7-6 17-6 28h103" id="x"/><path d="M114-163C36-179 61-72 57 0H25l-1-190h30c1 12-1 29 2 39 6-27 23-49 58-41v29" id="y"/><path d="M108 0H70L1-190h34L89-25l56-165h34" id="z"/><path d="M24-231v-30h32v30H24zM24 0v-190h32V0H24" id="A"/><path d="M96-169c-40 0-48 33-48 73s9 75 48 75c24 0 41-14 43-38l32 2c-6 37-31 61-74 61-59 0-76-41-82-99-10-93 101-131 147-64 4 7 5 14 7 22l-32 3c-4-21-16-35-41-35" id="B"/><g id="b"><use transform="matrix(0.06790123456790123,0,0,0.06790123456790123,0,0)" xlink:href="#w"/><use transform="matrix(0.06790123456790123,0,0,0.06790123456790123,16.296296296296294,0)" xlink:href="#x"/><use transform="matrix(0.06790123456790123,0,0,0.06790123456790123,29.87654320987654,0)" xlink:href="#y"/><use transform="matrix(0.06790123456790123,0,0,0.06790123456790123,37.95679012345679,0)" xlink:href="#z"/><use transform="matrix(0.06790123456790123,0,0,0.06790123456790123,50.179012345679,0)" xlink:href="#A"/><use transform="matrix(0.06790123456790123,0,0,0.06790123456790123,55.5432098765432,0)" xlink:href="#B"/><use transform="matrix(0.06790123456790123,0,0,0.06790123456790123,67.76543209876542,0)" xlink:href="#x"/></g><path d="M205 0l-28-72H64L36 0H1l101-248h38L239 0h-34zm-38-99l-47-123c-12 45-31 82-46 123h93" id="C"/><use transform="matrix(0.06790123456790123,0,0,0.06790123456790123,0,0)" xlink:href="#C" id="c"/><linearGradient gradientUnits="userSpaceOnUse" id="d" x1="1860" y1="579.5" x2="1860" y2="459.5"><stop offset="19.2%" stop-color="#ced4db"/><stop offset="26.45%" stop-color="#fff"/><stop offset="45.29%" stop-color="#fff"/><stop offset="52.54%" stop-color="#cfe4ff"/></linearGradient><path d="M160-131c35 5 61 23 61 61C221 17 115-2 30 0v-248c76 3 177-17 177 60 0 33-19 50-47 57zm-97-11c50-1 110 9 110-42 0-47-63-36-110-37v79zm0 115c55-2 124 14 124-45 0-56-70-42-124-44v89" id="D"/><use transform="matrix(0.06790123456790123,0,0,0.06790123456790123,0,0)" xlink:href="#D" id="e"/><linearGradient gradientUnits="userSpaceOnUse" id="f" x1="1940" y1="579.5" x2="1940" y2="459.5"><stop offset="19.2%" stop-color="#ced4db"/><stop offset="26.45%" stop-color="#fff"/><stop offset="45.29%" stop-color="#fff"/><stop offset="52.54%" stop-color="#cfe4ff"/></linearGradient><path d="M212-179c-10-28-35-45-73-45-59 0-87 40-87 99 0 60 29 101 89 101 43 0 62-24 78-52l27 14C228-24 195 4 139 4 59 4 22-46 18-125c-6-104 99-153 187-111 19 9 31 26 39 46" id="E"/><use transform="matrix(0.06790123456790123,0,0,0.06790123456790123,0,0)" xlink:href="#E" id="g"/><path d="M33 0v-248h34V0H33" id="F"/><path d="M117-194c89-4 53 116 60 194h-32v-121c0-31-8-49-39-48C34-167 62-67 57 0H25l-1-190h30c1 10-1 24 2 32 11-22 29-35 61-36" id="G"/><path d="M115-194c55 1 70 41 70 98S169 2 115 4C84 4 66-9 55-30l1 105H24l-1-265h31l2 30c10-21 28-34 59-34zm-8 174c40 0 45-34 45-75s-6-73-45-74c-42 0-51 32-51 76 0 43 10 73 51 73" id="H"/><path d="M84 4C-5 8 30-112 23-190h32v120c0 31 7 50 39 49 72-2 45-101 50-169h31l1 190h-30c-1-10 1-25-2-33-11 22-28 36-60 37" id="I"/><path d="M59-47c-2 24 18 29 38 22v24C64 9 27 4 27-40v-127H5v-23h24l9-43h21v43h35v23H59v120" id="J"/><g id="h"><use transform="matrix(0.06790123456790123,0,0,0.06790123456790123,0,0)" xlink:href="#F"/><use transform="matrix(0.06790123456790123,0,0,0.06790123456790123,6.790123456790123,0)" xlink:href="#G"/><use transform="matrix(0.06790123456790123,0,0,0.06790123456790123,20.37037037037037,0)" xlink:href="#H"/><use transform="matrix(0.06790123456790123,0,0,0.06790123456790123,33.95061728395062,0)" xlink:href="#I"/><use transform="matrix(0.06790123456790123,0,0,0.06790123456790123,47.53086419753087,0)" xlink:href="#J"/></g><path d="M140-251c81 0 123 46 123 126C263-46 219 4 140 4 59 4 17-45 17-125s42-126 123-126zm0 227c63 0 89-41 89-101s-29-99-89-99c-61 0-89 39-89 99S79-25 140-24" id="K"/><g id="i"><use transform="matrix(0.06790123456790123,0,0,0.06790123456790123,0,0)" xlink:href="#K"/><use transform="matrix(0.06790123456790123,0,0,0.06790123456790123,19.012345679012345,0)" xlink:href="#I"/><use transform="matrix(0.06790123456790123,0,0,0.06790123456790123,32.592592592592595,0)" xlink:href="#J"/><use transform="matrix(0.06790123456790123,0,0,0.06790123456790123,39.38271604938272,0)" xlink:href="#H"/><use transform="matrix(0.06790123456790123,0,0,0.06790123456790123,52.96296296296297,0)" xlink:href="#I"/><use transform="matrix(0.06790123456790123,0,0,0.06790123456790123,66.54320987654322,0)" xlink:href="#J"/></g><path d="M250-142C247-53 197 0 108 0H6l48-248c105-5 200 3 196 106zm-49 2c1-57-42-72-103-68L66-40c84 6 135-22 135-100" id="L"/><path d="M114-194c63-2 87 48 72 110H63c-3 28 1 55 31 54 21-1 32-13 37-29l44 13C160-14 137 4 91 4 41 4 11-22 11-73c0-71 33-119 103-121zm30 77c14-47-50-61-67-22-3 6-6 13-8 22h75" id="M"/><path d="M156-122c2-23-7-37-28-37-47 0-58 44-58 89 0 24 12 40 36 40 43 0 47-49 50-92zM-8 75l50-265h48c0 10-3 24-3 30 22-50 127-45 121 29-6 73-21 135-92 135-29 0-46-14-55-35L41 75H-8" id="N"/><path d="M151-194c95 0 34 128 28 194h-49l25-134c0-29-45-25-59-9C67-111 69-48 56 0H6l36-190h47l-4 32c15-20 33-36 66-36" id="O"/><path d="M132-28C118-9 101 4 69 4 30 4 10-23 10-62c0-70 24-129 92-132 31-1 47 14 56 35l19-102h49L179 0h-49zM62-69c0 22 7 39 29 39 45-2 54-45 57-90 2-27-10-40-33-40-44 0-53 48-53 91" id="P"/><path d="M67-101c-8 29-7 73 27 71 23-2 32-16 39-37l48 9C170-19 141 4 91 4 36 4 7-28 12-86c6-75 61-124 140-103 26 7 40 29 43 59l-50 4c-1-20-9-34-29-34-35 0-41 29-49 59" id="Q"/><path d="M50-224l7-37h49l-7 37H50zM6 0l37-190h49L55 0H6" id="R"/><path d="M144-137c-1-29-70-35-71-2 16 41 103 10 103 80C176 9 79 16 32-9 18-17 9-31 4-48l44-6c3 32 80 36 82 1-15-42-103-11-103-82 0-77 157-79 161-8" id="S"/><g id="j"><use transform="matrix(0.0987654320987654,0,0,0.0987654320987654,0,0)" xlink:href="#L"/><use transform="matrix(0.0987654320987654,0,0,0.0987654320987654,25.58024691358024,0)" xlink:href="#M"/><use transform="matrix(0.0987654320987654,0,0,0.0987654320987654,45.333333333333314,0)" xlink:href="#N"/><use transform="matrix(0.0987654320987654,0,0,0.0987654320987654,66.96296296296293,0)" xlink:href="#M"/><use transform="matrix(0.0987654320987654,0,0,0.0987654320987654,86.71604938271601,0)" xlink:href="#O"/><use transform="matrix(0.0987654320987654,0,0,0.0987654320987654,108.34567901234561,0)" xlink:href="#P"/><use transform="matrix(0.0987654320987654,0,0,0.0987654320987654,129.97530864197526,0)" xlink:href="#M"/><use transform="matrix(0.0987654320987654,0,0,0.0987654320987654,149.72839506172835,0)" xlink:href="#O"/><use transform="matrix(0.0987654320987654,0,0,0.0987654320987654,171.35802469135797,0)" xlink:href="#Q"/><use transform="matrix(0.0987654320987654,0,0,0.0987654320987654,191.11111111111106,0)" xlink:href="#R"/><use transform="matrix(0.0987654320987654,0,0,0.0987654320987654,200.9876543209876,0)" xlink:href="#M"/><use transform="matrix(0.0987654320987654,0,0,0.0987654320987654,220.74074074074068,0)" xlink:href="#S"/></g><path d="M212 0h-52l-8-156L82 0H30L17-190h46l2 145 66-145h53l8 145 60-145h47" id="T"/><path d="M72-63c-8 23 5 39 32 30L98-1C54 14 12-6 23-64l18-93H15l7-33h28l24-45h31l-8 45h35l-6 33H90" id="U"/><path d="M150-105c8-23 8-54-22-51-68 7-54 98-72 156H6l50-261h50L85-158c15-20 33-36 66-36 95 0 34 128 28 194h-49" id="V"/><g id="k"><use transform="matrix(0.0987654320987654,0,0,0.0987654320987654,0,0)" xlink:href="#T"/><use transform="matrix(0.0987654320987654,0,0,0.0987654320987654,27.654320987654312,0)" xlink:href="#R"/><use transform="matrix(0.0987654320987654,0,0,0.0987654320987654,37.53086419753085,0)" xlink:href="#U"/><use transform="matrix(0.0987654320987654,0,0,0.0987654320987654,49.283950617283935,0)" xlink:href="#V"/></g><path d="M161-211c-63 0-91 46-91 110 0 39 17 65 58 64 38-1 60-20 74-45l40 20C220-23 184 0 125 4 9 13-10-144 57-208c33-50 166-62 196-1 4 8 9 18 11 27l-48 12c-6-24-25-41-55-41" id="W"/><path d="M124-194c51 0 84 22 84 74C207-44 167 4 94 4 43 4 11-23 11-74c0-74 41-120 113-120zM99-30c46 0 58-42 58-86 0-27-11-44-37-44-44 0-55 40-57 84-1 27 10 45 36 46" id="X"/><path d="M255-194c90 0 29 129 24 194h-49l25-136c-7-39-53-14-60 9-12 38-18 85-28 127h-49l25-136c2-29-39-23-50-7C69-108 68-47 56 0H6l36-190h48c-1 10-6 24-4 32 12-20 27-36 57-36s46 15 50 41c14-21 29-41 62-41" id="Y"/><path d="M166-52c-4 17 5 29 24 23l-3 27c-30 11-74 1-67-34C105-15 91 4 56 4 23 4 3-15 2-49c0-64 63-67 128-67 10-22 3-53-29-45-13 3-22 10-25 24l-46-5c5-64 156-77 153 0-1 33-11 60-17 90zM97-88c-44-9-64 57-19 57 31 0 42-28 47-57H97" id="Z"/><g id="l"><use transform="matrix(0.0987654320987654,0,0,0.0987654320987654,0,0)" xlink:href="#W"/><use transform="matrix(0.0987654320987654,0,0,0.0987654320987654,25.58024691358024,0)" xlink:href="#X"/><use transform="matrix(0.0987654320987654,0,0,0.0987654320987654,47.20987654320986,0)" xlink:href="#Y"/><use transform="matrix(0.0987654320987654,0,0,0.0987654320987654,78.81481481481478,0)" xlink:href="#Y"/><use transform="matrix(0.0987654320987654,0,0,0.0987654320987654,110.41975308641972,0)" xlink:href="#Z"/><use transform="matrix(0.0987654320987654,0,0,0.0987654320987654,130.1728395061728,0)" xlink:href="#O"/><use transform="matrix(0.0987654320987654,0,0,0.0987654320987654,151.80246913580243,0)" xlink:href="#P"/><use transform="matrix(0.0987654320987654,0,0,0.0987654320987654,173.43209876543204,0)" xlink:href="#S"/></g><path d="M155 0L90-199 52 0H6l48-248h62l66 201 38-201h46L218 0h-63" id="aa"/><path d="M93-157L62 0H13l31-157H16l6-33h28c2-54 40-81 100-68l-6 32c-29-8-44 9-45 36h38l-7 33H93" id="ab"/><g id="m"><use transform="matrix(0.0987654320987654,0,0,0.0987654320987654,0,0)" xlink:href="#aa"/><use transform="matrix(0.0987654320987654,0,0,0.0987654320987654,25.58024691358024,0)" xlink:href="#X"/><use transform="matrix(0.0987654320987654,0,0,0.0987654320987654,47.20987654320986,0)" xlink:href="#U"/><use transform="matrix(0.0987654320987654,0,0,0.0987654320987654,58.96296296296294,0)" xlink:href="#R"/><use transform="matrix(0.0987654320987654,0,0,0.0987654320987654,68.83950617283948,0)" xlink:href="#ab"/><use transform="matrix(0.0987654320987654,0,0,0.0987654320987654,80.59259259259255,0)" xlink:href="#R"/><use transform="matrix(0.0987654320987654,0,0,0.0987654320987654,90.4691358024691,0)" xlink:href="#Q"/><use transform="matrix(0.0987654320987654,0,0,0.0987654320987654,110.22222222222216,0)" xlink:href="#Z"/><use transform="matrix(0.0987654320987654,0,0,0.0987654320987654,129.97530864197526,0)" xlink:href="#U"/><use transform="matrix(0.0987654320987654,0,0,0.0987654320987654,141.72839506172835,0)" xlink:href="#R"/><use transform="matrix(0.0987654320987654,0,0,0.0987654320987654,151.60493827160488,0)" xlink:href="#X"/><use transform="matrix(0.0987654320987654,0,0,0.0987654320987654,173.2345679012345,0)" xlink:href="#O"/><use transform="matrix(0.0987654320987654,0,0,0.0987654320987654,194.86419753086412,0)" xlink:href="#S"/></g><path d="M240 0l2-218c-23 76-54 145-80 218h-23L58-218 59 0H30v-248h44l77 211c21-75 51-140 76-211h43V0h-30" id="ac"/><path d="M135-143c-3-34-86-38-87 0 15 53 115 12 119 90S17 21 10-45l28-5c4 36 97 45 98 0-10-56-113-15-118-90-4-57 82-63 122-42 12 7 21 19 24 35" id="ad"/><path d="M141-36C126-15 110 5 73 4 37 3 15-17 15-53c-1-64 63-63 125-63 3-35-9-54-41-54-24 1-41 7-42 31l-33-3c5-37 33-52 76-52 45 0 72 20 72 64v82c-1 20 7 32 28 27v20c-31 9-61-2-59-35zM48-53c0 20 12 33 32 33 41-3 63-29 60-74-43 2-92-5-92 41" id="ae"/><path d="M177-190C167-65 218 103 67 71c-23-6-38-20-44-43l32-5c15 47 100 32 89-28v-30C133-14 115 1 83 1 29 1 15-40 15-95c0-56 16-97 71-98 29-1 48 16 59 35 1-10 0-23 2-32h30zM94-22c36 0 50-32 50-73 0-42-14-75-50-75-39 0-46 34-46 75s6 73 46 73" id="af"/><g id="n"><use transform="matrix(0.0987654320987654,0,0,0.0987654320987654,0,0)" xlink:href="#ac"/><use transform="matrix(0.0987654320987654,0,0,0.0987654320987654,29.530864197530853,0)" xlink:href="#x"/><use transform="matrix(0.0987654320987654,0,0,0.0987654320987654,49.283950617283935,0)" xlink:href="#ad"/><use transform="matrix(0.0987654320987654,0,0,0.0987654320987654,67.0617283950617,0)" xlink:href="#ad"/><use transform="matrix(0.0987654320987654,0,0,0.0987654320987654,84.83950617283948,0)" xlink:href="#ae"/><use transform="matrix(0.0987654320987654,0,0,0.0987654320987654,104.59259259259255,0)" xlink:href="#af"/><use transform="matrix(0.0987654320987654,0,0,0.0987654320987654,124.34567901234564,0)" xlink:href="#x"/></g><path d="M178-136c88 48 22 151-73 140C49-3 12-15 4-64l51-9c1 50 111 53 115 3-16-63-132-20-133-112 0-93 190-91 199-10l-50 12c-4-41-93-50-97-4 7 38 59 32 89 48" id="ag"/><path d="M84-151c13-25 34-51 72-40l-8 41C67-170 71-64 56 0H6l36-190h47" id="ah"/><g id="o"><use transform="matrix(0.0987654320987654,0,0,0.0987654320987654,0,0)" xlink:href="#ag"/><use transform="matrix(0.0987654320987654,0,0,0.0987654320987654,23.703703703703695,0)" xlink:href="#V"/><use transform="matrix(0.0987654320987654,0,0,0.0987654320987654,45.333333333333314,0)" xlink:href="#Z"/><use transform="matrix(0.0987654320987654,0,0,0.0987654320987654,65.08641975308639,0)" xlink:href="#ah"/><use transform="matrix(0.0987654320987654,0,0,0.0987654320987654,78.91358024691354,0)" xlink:href="#M"/><use transform="matrix(0.0987654320987654,0,0,0.0987654320987654,98.66666666666661,0)" xlink:href="#P"/></g><g id="p"><use transform="matrix(0.0987654320987654,0,0,0.0987654320987654,0,0)" xlink:href="#ag"/><use transform="matrix(0.0987654320987654,0,0,0.0987654320987654,23.703703703703695,0)" xlink:href="#Q"/><use transform="matrix(0.0987654320987654,0,0,0.0987654320987654,43.45679012345677,0)" xlink:href="#V"/><use transform="matrix(0.0987654320987654,0,0,0.0987654320987654,65.08641975308639,0)" xlink:href="#M"/><use transform="matrix(0.0987654320987654,0,0,0.0987654320987654,84.83950617283946,0)" xlink:href="#Y"/><use transform="matrix(0.0987654320987654,0,0,0.0987654320987654,116.4444444444444,0)" xlink:href="#Z"/></g><linearGradient gradientUnits="userSpaceOnUse" id="q" x1="900" y1="580" x2="900" y2="460"><stop offset="19.2%" stop-color="#ced4db"/><stop offset="26.45%" stop-color="#fff"/><stop offset="45.29%" stop-color="#fff"/><stop offset="52.54%" stop-color="#cfe4ff"/></linearGradient><linearGradient gradientUnits="userSpaceOnUse" id="r" x1="980" y1="580" x2="980" y2="460"><stop offset="19.2%" stop-color="#ced4db"/><stop offset="26.45%" stop-color="#fff"/><stop offset="45.29%" stop-color="#fff"/><stop offset="52.54%" stop-color="#cfe4ff"/></linearGradient><linearGradient gradientUnits="userSpaceOnUse" id="s" x1="1060" y1="580" x2="1060" y2="460"><stop offset="19.2%" stop-color="#ced4db"/><stop offset="26.45%" stop-color="#fff"/><stop offset="45.29%" stop-color="#fff"/><stop offset="52.54%" stop-color="#cfe4ff"/></linearGradient><linearGradient gradientUnits="userSpaceOnUse" id="t" x1="1340" y1="581" x2="1340" y2="461"><stop offset="19.2%" stop-color="#ced4db"/><stop offset="26.45%" stop-color="#fff"/><stop offset="45.29%" stop-color="#fff"/><stop offset="52.54%" stop-color="#cfe4ff"/></linearGradient><linearGradient gradientUnits="userSpaceOnUse" id="u" x1="1420" y1="581" x2="1420" y2="461"><stop offset="19.2%" stop-color="#ced4db"/><stop offset="26.45%" stop-color="#fff"/><stop offset="45.29%" stop-color="#fff"/><stop offset="52.54%" stop-color="#cfe4ff"/></linearGradient><linearGradient gradientUnits="userSpaceOnUse" id="v" x1="1500" y1="581" x2="1500" y2="461"><stop offset="19.2%" stop-color="#ced4db"/><stop offset="26.45%" stop-color="#fff"/><stop offset="45.29%" stop-color="#fff"/><stop offset="52.54%" stop-color="#cfe4ff"/></linearGradient></defs></g></svg>