<svg xmlns="http://www.w3.org/2000/svg" xmlns:xlink="http://www.w3.org/1999/xlink" xmlns:lucid="lucid" width="1005" height="245.22"><g transform="translate(-498.5 -498.05111500163207)" lucid:page-tab-id="0_0"><path d="M500 599.8a20 20 0 0 1 20-20h20a20 20 0 0 1 20 20v120a20 20 0 0 1-20 20h-20a20 20 0 0 1-20-20z" stroke="#008a0e" stroke-width="3" fill="url(#a)"/><path d="M600 600a20 20 0 0 1 20-20h38.5a20 20 0 0 1 20 20v120a20 20 0 0 1-20 20H620a20 20 0 0 1-20-20z" stroke="#000" stroke-width="3" fill="url(#b)"/><path d="M720 599.78a20 20 0 0 1 20-20h20a20 20 0 0 1 20 20v120a20 20 0 0 1-20 20h-20a20 20 0 0 1-20-20z" stroke="#1071e5" stroke-width="3" fill="url(#c)"/><path d="M600 520a20 20 0 0 1 20-20h40a20 20 0 0 1 20 20 20 20 0 0 1-20 20h-40a20 20 0 0 1-20-20z" stroke="#ba23f6" stroke-width="3" fill="#e8e2c8"/><use xlink:href="#d" transform="matrix(1,0,0,1,605,505) translate(3.8722839506173035 21.430555555555543)"/><path d="M622.05 542.48l.27 21.84M618.05 542.52l.27 21.85" stroke="#ba23f6" stroke-width="2" fill="none"/><path d="M623.02 542.5h-1.95v-1H623zM619 541.43l.02 1.1-1.95.03v-1.3z" stroke="#ba23f6" stroke-width=".05" fill="#ba23f6"/><path d="M630.26 559.06l-9.78 17.44-10.22-17.2m10.22 17.2l-.1-8.5M662.38 555.64l-.26 22M658.38 555.6l-.26 22M650.32 560.66l10.2-17.2 9.8 17.44m-9.8-17.44l-.1 8.5" stroke="#ba23f6" stroke-width="2" fill="none"/><path d="M663.1 577.63l-.02 1.42-1.22-.3-.73-.05.02-1.1zM659.1 577.58l-.02.96-.52-.04h-1.42v-.94z" stroke="#ba23f6" stroke-width=".05" fill="#ba23f6"/><path d="M597.48 639.25l-21.85-.28M597.53 635.25l-21.85-.28" stroke="#ba23f6" stroke-width="2" fill="none"/><path d="M598.5 638.28v1.95h-1.06l.02-1.96zM598.5 634.28v1.95h-1v-1.96z" stroke="#ba23f6" stroke-width=".05" fill="#ba23f6"/><path d="M580.7 647.03l-17.2-10.22 17.45-9.77m-17.45 9.78l8.5.12M562.5 676.8h21.84M562.5 680.8h21.84" stroke="#ba23f6" stroke-width="2" fill="none"/><path d="M562.53 675.8v1.96h-1.03v-1.95zM562.53 679.8v1.96h-1.03v-1.95z" stroke="#ba23f6" stroke-width=".05" fill="#ba23f6"/><path d="M579.18 668.8l17.32 10-17.32 10m17.32-10H588" stroke="#ba23f6" stroke-width="2" fill="none"/><path d="M717.5 640.5h-23.34M717.5 636.5h-23.34" stroke="#cc4e00" stroke-width="2" fill="none"/><path d="M718.5 639.52v1.96h-1.03v-1.96zM718.5 635.52v1.96h-1.03v-1.96z" stroke="#cc4e00" stroke-width=".05" fill="#cc4e00"/><path d="M699.32 648.5l-17.32-10 17.32-10m-17.32 10h8.5" stroke="#cc4e00" stroke-width="2" fill="none"/><path d="M609.93 621.2a1.5 1.5 0 0 1 1.5-1.5 1.5 1.5 0 0 1 1.5 1.5 1.5 1.5 0 0 1-1.5 1.5 1.5 1.5 0 0 1-1.5-1.5v-.02m3.6-4.95a1.5 1.5 0 0 1 1.5-1.5 1.5 1.5 0 0 1 1.5 1.5 1.5 1.5 0 0 1-1.5 1.5 1.5 1.5 0 0 1-1.5-1.5v-.03m2.48-5.6v-.02a1.5 1.5 0 0 1 1.5-1.5 1.5 1.5 0 0 1 1.5 1.5 1.5 1.5 0 0 1-1.5 1.5 1.5 1.5 0 0 1-1.5-1.5m1.42-5.98a1.5 1.5 0 0 1 1.5-1.5 1.5 1.5 0 0 1 1.5 1.5 1.5 1.5 0 0 1-1.5 1.5 1.5 1.5 0 0 1-1.5-1.5v-.03m.72-6.1a1.5 1.5 0 0 1 1.5-1.5 1.5 1.5 0 0 1 1.5 1.5 1.5 1.5 0 0 1-1.5 1.5 1.5 1.5 0 0 1-1.5-1.5v-.02m.4-6.1v-.03a1.5 1.5 0 0 1 1.5-1.5 1.5 1.5 0 0 1 1.5 1.5 1.5 1.5 0 0 1-1.5 1.5 1.5 1.5 0 0 1-1.5-1.5m.2-6.15a1.5 1.5 0 0 1 1.5-1.5 1.5 1.5 0 0 1 1.5 1.5 1.5 1.5 0 0 1-1.5 1.5 1.5 1.5 0 0 1-1.5-1.5v-.02" fill="#ba23f6"/><path d="M601.54 633.48l5.34-14.02 7.22 5.8z" stroke="#ba23f6" stroke-width="3" fill="#fff"/><path d="M621.92 580.1l-2.94-.1.04-1.43.92-.07h2.04z" stroke="#ba23f6" stroke-width=".05" fill="#ba23f6"/><path d="M539.6 676.16v-.02a1.5 1.5 0 0 1 1.5-1.5 1.5 1.5 0 0 1 1.5 1.5 1.5 1.5 0 0 1-1.5 1.5 1.5 1.5 0 0 1-1.5-1.5m-5.63-1.96v-.02a1.5 1.5 0 0 1 1.5-1.5 1.5 1.5 0 0 1 1.5 1.5 1.5 1.5 0 0 1-1.5 1.5 1.5 1.5 0 0 1-1.5-1.5m-5.25-2.82a1.5 1.5 0 0 1 1.5-1.5 1.5 1.5 0 0 1 1.5 1.5 1.5 1.5 0 0 1-1.5 1.5 1.5 1.5 0 0 1-1.5-1.5v-.03m-4.28-4.1a1.5 1.5 0 0 1 1.5-1.5 1.5 1.5 0 0 1 1.5 1.5 1.5 1.5 0 0 1-1.5 1.5 1.5 1.5 0 0 1-1.5-1.5v-.02m-2.25-5.44a1.5 1.5 0 0 1 1.5-1.5 1.5 1.5 0 0 1 1.5 1.5 1.5 1.5 0 0 1-1.5 1.5 1.5 1.5 0 0 1-1.5-1.5v-.03m.8-5.8v-.03a1.5 1.5 0 0 1 1.5-1.5 1.5 1.5 0 0 1 1.5 1.5 1.5 1.5 0 0 1-1.5 1.5 1.5 1.5 0 0 1-1.5-1.5m3.17-5.02a1.5 1.5 0 0 1 1.5-1.5 1.5 1.5 0 0 1 1.5 1.5 1.5 1.5 0 0 1-1.5 1.5 1.5 1.5 0 0 1-1.5-1.5v-.03m4.43-3.98a1.5 1.5 0 0 1 1.5-1.5 1.5 1.5 0 0 1 1.5 1.5 1.5 1.5 0 0 1-1.5 1.5 1.5 1.5 0 0 1-1.5-1.5v-.02m5.1-3.07v-.02a1.5 1.5 0 0 1 1.5-1.5 1.5 1.5 0 0 1 1.5 1.5 1.5 1.5 0 0 1-1.5 1.5 1.5 1.5 0 0 1-1.5-1.5m5.45-2.42a1.5 1.5 0 0 1 1.5-1.5 1.5 1.5 0 0 1 1.5 1.5 1.5 1.5 0 0 1-1.5 1.5 1.5 1.5 0 0 1-1.5-1.5v-.02m5.66-1.9a1.5 1.5 0 0 1 1.5-1.5 1.5 1.5 0 0 1 1.5 1.5 1.5 1.5 0 0 1-1.5 1.5 1.5 1.5 0 0 1-1.5-1.5v-.02m5.84-1.25a1.5 1.5 0 0 1 1.5-1.5 1.5 1.5 0 0 1 1.5 1.5 1.5 1.5 0 0 1-1.5 1.5 1.5 1.5 0 0 1-1.5-1.5v-.02" fill="#ba23f6"/><path d="M556.68 678.16l-14.74 2.77 1.2-9.2z" stroke="#ba23f6" stroke-width="3" fill="#fff"/><path d="M561.5 638.27l-1.33.18-.4-2.92 1.73-.23z" stroke="#ba23f6" stroke-width=".05" fill="#ba23f6"/><path d="M747.9 598.9a1.5 1.5 0 0 1 1.5-1.5 1.5 1.5 0 0 1 1.5 1.5 1.5 1.5 0 0 1-1.5 1.5 1.5 1.5 0 0 1-1.5-1.5v-.03m-.6 5.95v-.02a1.5 1.5 0 0 1 1.5-1.5 1.5 1.5 0 0 1 1.5 1.5 1.5 1.5 0 0 1-1.5 1.5 1.5 1.5 0 0 1-1.5-1.5m-.95 5.88a1.5 1.5 0 0 1 1.5-1.5 1.5 1.5 0 0 1 1.5 1.5 1.5 1.5 0 0 1-1.5 1.5 1.5 1.5 0 0 1-1.5-1.5v-.03m-1.53 5.77a1.5 1.5 0 0 1 1.5-1.5 1.5 1.5 0 0 1 1.5 1.5 1.5 1.5 0 0 1-1.5 1.5 1.5 1.5 0 0 1-1.5-1.5v-.02m-2.42 5.45v-.02a1.5 1.5 0 0 1 1.5-1.5 1.5 1.5 0 0 1 1.5 1.5 1.5 1.5 0 0 1-1.5 1.5 1.5 1.5 0 0 1-1.5-1.5m-3.45 4.85a1.5 1.5 0 0 1 1.5-1.5 1.5 1.5 0 0 1 1.5 1.5 1.5 1.5 0 0 1-1.5 1.5 1.5 1.5 0 0 1-1.5-1.5v-.03m-4.4 4.02a1.5 1.5 0 0 1 1.5-1.5 1.5 1.5 0 0 1 1.5 1.5 1.5 1.5 0 0 1-1.5 1.5 1.5 1.5 0 0 1-1.5-1.5v-.03m-5.04 3.16v-.02a1.5 1.5 0 0 1 1.5-1.5 1.5 1.5 0 0 1 1.5 1.5 1.5 1.5 0 0 1-1.5 1.5 1.5 1.5 0 0 1-1.5-1.5m-5.43 2.4v-.02a1.5 1.5 0 0 1 1.5-1.5 1.5 1.5 0 0 1 1.5 1.5 1.5 1.5 0 0 1-1.5 1.5 1.5 1.5 0 0 1-1.5-1.5v-.02m-5.64 1.94v-.02a1.5 1.5 0 0 1 1.5-1.5 1.5 1.5 0 0 1 1.5 1.5 1.5 1.5 0 0 1-1.5 1.5 1.5 1.5 0 0 1-1.5-1.5" fill="#cc4e00"/><path d="M749.86 583.13l4.2 14.4-9.26-.28z" stroke="#cc4e00" stroke-width="3" fill="#fff"/><path d="M720.4 639.46l-1.9.58v-3.08l1.04-.32z" stroke="#cc4e00" stroke-width=".05" fill="#cc4e00"/><path d="M667.6 656.03a1.5 1.5 0 0 1 1.5-1.5 1.5 1.5 0 0 1 1.5 1.5 1.5 1.5 0 0 1-1.5 1.5 1.5 1.5 0 0 1-1.5-1.5V656m-3.2 5.22v-.02a1.5 1.5 0 0 1 1.5-1.5 1.5 1.5 0 0 1 1.5 1.5 1.5 1.5 0 0 1-1.5 1.5 1.5 1.5 0 0 1-1.5-1.5m-3.23 5.2a1.5 1.5 0 0 1 1.5-1.5 1.5 1.5 0 0 1 1.5 1.5 1.5 1.5 0 0 1-1.5 1.5 1.5 1.5 0 0 1-1.5-1.5v-.03m-3.4 5.1v-.02a1.5 1.5 0 0 1 1.5-1.5 1.5 1.5 0 0 1 1.5 1.5 1.5 1.5 0 0 1-1.5 1.5 1.5 1.5 0 0 1-1.5-1.5m-3.6 4.95a1.5 1.5 0 0 1 1.5-1.5 1.5 1.5 0 0 1 1.5 1.5 1.5 1.5 0 0 1-1.5 1.5 1.5 1.5 0 0 1-1.5-1.5v-.03m-3.9 4.74a1.5 1.5 0 0 1 1.5-1.5 1.5 1.5 0 0 1 1.5 1.5 1.5 1.5 0 0 1-1.5 1.5 1.5 1.5 0 0 1-1.5-1.5v-.02m-4.22 4.43a1.5 1.5 0 0 1 1.5-1.5 1.5 1.5 0 0 1 1.5 1.5 1.5 1.5 0 0 1-1.5 1.5 1.5 1.5 0 0 1-1.5-1.5v-.02m-4.66 3.97v-.02a1.5 1.5 0 0 1 1.5-1.5 1.5 1.5 0 0 1 1.5 1.5 1.5 1.5 0 0 1-1.5 1.5 1.5 1.5 0 0 1-1.5-1.5m-5.22 3.18a1.5 1.5 0 0 1 1.5-1.5 1.5 1.5 0 0 1 1.5 1.5 1.5 1.5 0 0 1-1.5 1.5 1.5 1.5 0 0 1-1.5-1.5v-.02m-5.77 2v-.02a1.5 1.5 0 0 1 1.5-1.5 1.5 1.5 0 0 1 1.5 1.5 1.5 1.5 0 0 1-1.5 1.5 1.5 1.5 0 0 1-1.5-1.5m-6.06.42a1.5 1.5 0 0 1 1.5-1.5 1.5 1.5 0 0 1 1.5 1.5 1.5 1.5 0 0 1-1.5 1.5 1.5 1.5 0 0 1-1.5-1.5v-.03m-5.98-1.14a1.5 1.5 0 0 1 1.5-1.5 1.5 1.5 0 0 1 1.5 1.5 1.5 1.5 0 0 1-1.5 1.5 1.5 1.5 0 0 1-1.5-1.5v-.02m-5.62-2.33v-.02a1.5 1.5 0 0 1 1.5-1.5 1.5 1.5 0 0 1 1.5 1.5 1.5 1.5 0 0 1-1.5 1.5 1.5 1.5 0 0 1-1.5-1.5m-5.22-3.15a1.5 1.5 0 0 1 1.5-1.5 1.5 1.5 0 0 1 1.5 1.5 1.5 1.5 0 0 1-1.5 1.5 1.5 1.5 0 0 1-1.5-1.5v-.03m-4.87-3.65a1.5 1.5 0 0 1 1.5-1.5 1.5 1.5 0 0 1 1.5 1.5 1.5 1.5 0 0 1-1.5 1.5 1.5 1.5 0 0 1-1.5-1.5v-.03m-4.56-4.02v-.02a1.5 1.5 0 0 1 1.5-1.5 1.5 1.5 0 0 1 1.5 1.5 1.5 1.5 0 0 1-1.5 1.5 1.5 1.5 0 0 1-1.5-1.5" fill="#ba23f6"/><path d="M677.44 642.62l-3.6 14.57-7.87-4.9z" stroke="#ba23f6" stroke-width="3" fill="#fff"/><path d="M600.63 679.5l-2.03 2.13-.1-.1v-4.07z" stroke="#ba23f6" stroke-width=".05" fill="#ba23f6"/><path d="M660.53 600.5v-.03a1.5 1.5 0 0 1 1.5-1.5 1.5 1.5 0 0 1 1.5 1.5 1.5 1.5 0 0 1-1.5 1.5 1.5 1.5 0 0 1-1.5-1.5m1.47 5.72v-.02a1.5 1.5 0 0 1 1.5-1.5 1.5 1.5 0 0 1 1.5 1.5 1.5 1.5 0 0 1-1.5 1.5 1.5 1.5 0 0 1-1.5-1.5v-.02m1.6 5.7v-.02a1.5 1.5 0 0 1 1.5-1.5 1.5 1.5 0 0 1 1.5 1.5 1.5 1.5 0 0 1-1.5 1.5 1.5 1.5 0 0 1-1.5-1.5m1.96 5.58a1.5 1.5 0 0 1 1.5-1.5 1.5 1.5 0 0 1 1.5 1.5 1.5 1.5 0 0 1-1.5 1.5 1.5 1.5 0 0 1-1.5-1.5v-.03m2.24 5.47v-.02a1.5 1.5 0 0 1 1.5-1.5 1.5 1.5 0 0 1 1.5 1.5 1.5 1.5 0 0 1-1.5 1.5 1.5 1.5 0 0 1-1.5-1.5m2.57 5.3a1.5 1.5 0 0 1 1.5-1.5 1.5 1.5 0 0 1 1.5 1.5 1.5 1.5 0 0 1-1.5 1.5 1.5 1.5 0 0 1-1.5-1.5m3.06 5.05v-.02a1.5 1.5 0 0 1 1.5-1.5 1.5 1.5 0 0 1 1.5 1.5 1.5 1.5 0 0 1-1.5 1.5 1.5 1.5 0 0 1-1.5-1.5m3.87 4.44v-.02a1.5 1.5 0 0 1 1.5-1.5 1.5 1.5 0 0 1 1.5 1.5 1.5 1.5 0 0 1-1.5 1.5 1.5 1.5 0 0 1-1.5-1.5" fill="#ba23f6"/><path d="M660.48 584.83l6.02 13.74-9.23.9z" stroke="#ba23f6" stroke-width="3" fill="#fff"/><path d="M680 636.74v3.52l-2.1-1.37 1.62-2.48z" stroke="#ba23f6" stroke-width=".05" fill="#ba23f6"/><path d="M920 586a6 6 0 0 1 6-6h146.5a6 6 0 0 1 6 6v126a6 6 0 0 1-6 6H926a6 6 0 0 1-6-6z" stroke="#000" stroke-opacity="0" stroke-width="3" fill="#fff" fill-opacity="0"/><use xlink:href="#e" transform="matrix(1,0,0,1,925,585) translate(20.500000000000014 25.33333333333333)"/><use xlink:href="#f" transform="matrix(1,0,0,1,925,585) translate(44.20370370370371 25.33333333333333)"/><use xlink:href="#g" transform="matrix(1,0,0,1,925,585) translate(4.870370370370381 57.33333333333332)"/><use xlink:href="#h" transform="matrix(1,0,0,1,925,585) translate(114.49999999999999 57.33333333333332)"/><use xlink:href="#i" transform="matrix(1,0,0,1,925,585) translate(13.055555555555571 89.33333333333331)"/><use xlink:href="#j" transform="matrix(1,0,0,1,925,585) translate(113.72222222222221 89.33333333333331)"/><use xlink:href="#k" transform="matrix(1,0,0,1,925,585) translate(4.240740740740762 121.3333333333333)"/><path d="M821.5 599.78a20 20 0 0 1 20-20h20a20 20 0 0 1 20 20v120a20 20 0 0 1-20 20h-20a20 20 0 0 1-20-20z" stroke="#82755b" stroke-width="3" fill="url(#l)"/><path d="M819 661.78h-23.34M819 657.78h-23.34" stroke="#cc4e00" stroke-width="2" fill="none"/><path d="M820 662.75h-1.03v-1.95H820zM820 658.75h-1.03v-1.95H820z" stroke="#cc4e00" stroke-width=".05" fill="#cc4e00"/><path d="M800.82 669.78l-17.32-10 17.32-10m-17.32 10h8.5" stroke="#cc4e00" stroke-width="2" fill="none"/><path d="M737.08 643.04a1.5 1.5 0 0 1 1.5-1.5 1.5 1.5 0 0 1 1.5 1.5 1.5 1.5 0 0 1-1.5 1.5 1.5 1.5 0 0 1-1.5-1.5V643m5.2 2.27v-.02a1.5 1.5 0 0 1 1.5-1.5 1.5 1.5 0 0 1 1.5 1.5 1.5 1.5 0 0 1-1.5 1.5 1.5 1.5 0 0 1-1.5-1.5v-.02m4.92 2.84a1.5 1.5 0 0 1 1.5-1.5 1.5 1.5 0 0 1 1.5 1.5 1.5 1.5 0 0 1-1.5 1.5 1.5 1.5 0 0 1-1.5-1.5v-.03m4.77 3.1a1.5 1.5 0 0 1 1.5-1.5 1.5 1.5 0 0 1 1.5 1.5 1.5 1.5 0 0 1-1.5 1.5 1.5 1.5 0 0 1-1.5-1.5v-.02m4.74 3.13a1.5 1.5 0 0 1 1.5-1.5 1.5 1.5 0 0 1 1.5 1.5 1.5 1.5 0 0 1-1.5 1.5 1.5 1.5 0 0 1-1.5-1.5v-.02m5.12 2.47v-.02a1.5 1.5 0 0 1 1.5-1.5 1.5 1.5 0 0 1 1.5 1.5 1.5 1.5 0 0 1-1.5 1.5 1.5 1.5 0 0 1-1.5-1.5m5.44 1.63a1.5 1.5 0 0 1 1.5-1.5 1.5 1.5 0 0 1 1.5 1.5 1.5 1.5 0 0 1-1.5 1.5 1.5 1.5 0 0 1-1.5-1.5v-.03m5.6.97v-.02a1.5 1.5 0 0 1 1.5-1.5 1.5 1.5 0 0 1 1.5 1.5 1.5 1.5 0 0 1-1.5 1.5 1.5 1.5 0 0 1-1.5-1.5m5.64.48a1.5 1.5 0 0 1 1.5-1.5 1.5 1.5 0 0 1 1.5 1.5 1.5 1.5 0 0 1-1.5 1.5 1.5 1.5 0 0 1-1.5-1.5v-.03" fill="#cc4e00"/><path d="M723.24 639.57l14.93-1.38-2.04 9.03z" stroke="#cc4e00" stroke-width="3" fill="#fff"/><path d="M781.5 658.3v2.95l-1.6-.06.12-2.96z" stroke="#cc4e00" stroke-width=".05" fill="#cc4e00"/><path d="M1120 599.34a20 20 0 0 1 20-20h20a20 20 0 0 1 20 20v120a20 20 0 0 1-20 20h-20a20 20 0 0 1-20-20z" stroke="#008a0e" stroke-width="3" fill="url(#m)"/><path d="M1220 599.55a20 20 0 0 1 20-20h38.5a20 20 0 0 1 20 20v120a20 20 0 0 1-20 20H1240a20 20 0 0 1-20-20z" stroke="#000" stroke-width="3" fill="url(#n)"/><path d="M1340 599.33a20 20 0 0 1 20-20h20a20 20 0 0 1 20 20v120a20 20 0 0 1-20 20h-20a20 20 0 0 1-20-20z" stroke="#1071e5" stroke-width="3" fill="url(#o)"/><path d="M1220 519.55a20 20 0 0 1 20-20h40a20 20 0 0 1 20 20 20 20 0 0 1-20 20h-40a20 20 0 0 1-20-20z" stroke="#ba23f6" stroke-width="3" fill="#e8e2c8"/><use xlink:href="#d" transform="matrix(1,0,0,1,1225,504.55111500163207) translate(3.8722839506173035 21.430555555555543)"/><path d="M1441.5 599.33a20 20 0 0 1 20-20h20a20 20 0 0 1 20 20v120a20 20 0 0 1-20 20h-20a20 20 0 0 1-20-20z" stroke="#82755b" stroke-width="3" fill="url(#p)"/><path d="M1296.5 580h-73M1296.4 580h3.6M1223.6 580h-3.6" stroke="#000" stroke-width="7" fill="none"/><path d="M1340 736.28V583.5M1340 736.2v3.58M1340 583.6V580" stroke="#1071e5" stroke-width="7" fill="none"/><path d="M1180 736.28v-153M1180 736.2v3.58M1180 583.37v-3.6" stroke="#008a0e" stroke-width="7" fill="none"/><path d="M1440 736.28V583.5M1440 736.2v3.58M1440 583.6V580" stroke="#82755b" stroke-width="7" fill="none"/><path d="M1259.35 559.55v-17.5" stroke="#000" stroke-width="2" fill="none"/><path d="M1259.35 574.82l-4.64-14.27h9.28z" stroke="#000" stroke-width="2" fill="#fff"/><path d="M1260.32 542.08h-1.95v-1.03h1.95z" stroke="#000" stroke-width=".05"/><path d="M1200 659.55h17.5" stroke="#008a0e" stroke-width="2" fill="none"/><path d="M1184.74 659.55l14.26-4.63v9.27z" stroke="#008a0e" stroke-width="2" fill="#fff"/><path d="M1218.5 660.53h-1.03v-1.95h1.03z" stroke="#008a0e" stroke-width=".05" fill="#008a0e"/><path d="M1320 659.55h-19" stroke="#1071e5" stroke-width="2" fill="none"/><path d="M1335.26 659.55L1321 664.2v-9.28z" stroke="#1071e5" stroke-width="2" fill="#fff"/><path d="M1301.03 660.53H1300v-1.95h1.03z" stroke="#1071e5" stroke-width=".05" fill="#1071e5"/><path d="M1421.5 659.33h-19" stroke="#82755b" stroke-width="2" fill="none"/><path d="M1436.76 659.33l-14.26 4.63v-9.27z" stroke="#82755b" stroke-width="2" fill="#fff"/><path d="M1402.53 660.3h-1.03v-1.95h1.03z" stroke="#82755b" stroke-width=".05" fill="#82755b"/><path d="M720 520a20 20 0 0 1 20-20h121.5a20 20 0 0 1 20 20 20 20 0 0 1-20 20H740a20 20 0 0 1-20-20z" stroke="#cc4e00" stroke-width="3" fill="#e8e2c8"/><use xlink:href="#d" transform="matrix(1,0,0,1,725,505) translate(44.3722839506173 21.430555555555543)"/><path d="M853.5 542.5v21.62M849.5 542.5v21.62" stroke="#cc4e00" stroke-width="2" fill="none"/><path d="M854.48 542.53h-1.96v-1.03h1.96zM850.48 542.53h-1.96v-1.03h1.96z" stroke="#cc4e00" stroke-width=".05" fill="#cc4e00"/><path d="M861.5 558.96l-10 17.32-10-17.32m10 17.32v-8.5M752 555.66v21.62M748 555.66v21.62M740 560.82l10-17.32 10 17.32m-10-17.32v8.5" stroke="#cc4e00" stroke-width="2" fill="none"/><path d="M752.98 578.28H751v-1.03H753zM748.98 578.28H747v-1.03H749z" stroke="#cc4e00" stroke-width=".05" fill="#cc4e00"/><path d="M835.48 648.9v-.02a1.5 1.5 0 0 1 1.5-1.5 1.5 1.5 0 0 1 1.5 1.5 1.5 1.5 0 0 1-1.5 1.5 1.5 1.5 0 0 1-1.5-1.5v-.02m3.3-4.94a1.5 1.5 0 0 1 1.5-1.5 1.5 1.5 0 0 1 1.5 1.5 1.5 1.5 0 0 1-1.5 1.5 1.5 1.5 0 0 1-1.5-1.5v-.03m2.62-5.34v-.02a1.5 1.5 0 0 1 1.5-1.5 1.5 1.5 0 0 1 1.5 1.5 1.5 1.5 0 0 1-1.5 1.5 1.5 1.5 0 0 1-1.5-1.5m2.1-5.57a1.5 1.5 0 0 1 1.5-1.5 1.5 1.5 0 0 1 1.5 1.5 1.5 1.5 0 0 1-1.5 1.5 1.5 1.5 0 0 1-1.5-1.5v-.03m1.64-5.7v-.03a1.5 1.5 0 0 1 1.5-1.5 1.5 1.5 0 0 1 1.5 1.5 1.5 1.5 0 0 1-1.5 1.5 1.5 1.5 0 0 1-1.5-1.5m1.33-5.8a1.5 1.5 0 0 1 1.5-1.5 1.5 1.5 0 0 1 1.5 1.5 1.5 1.5 0 0 1-1.5 1.5 1.5 1.5 0 0 1-1.5-1.5v-.03m.96-5.86a1.5 1.5 0 0 1 1.5-1.5 1.5 1.5 0 0 1 1.5 1.5 1.5 1.5 0 0 1-1.5 1.5 1.5 1.5 0 0 1-1.5-1.5v-.02m.78-5.9a1.5 1.5 0 0 1 1.5-1.5 1.5 1.5 0 0 1 1.5 1.5 1.5 1.5 0 0 1-1.5 1.5 1.5 1.5 0 0 1-1.5-1.5v-.02m.6-5.9v-.03a1.5 1.5 0 0 1 1.5-1.5 1.5 1.5 0 0 1 1.5 1.5 1.5 1.5 0 0 1-1.5 1.5 1.5 1.5 0 0 1-1.5-1.5m.47-5.93v-.02a1.5 1.5 0 0 1 1.5-1.5 1.5 1.5 0 0 1 1.5 1.5 1.5 1.5 0 0 1-1.5 1.5 1.5 1.5 0 0 1-1.5-1.5m.23-5.95v-.02a1.5 1.5 0 0 1 1.5-1.5 1.5 1.5 0 0 1 1.5 1.5 1.5 1.5 0 0 1-1.5 1.5 1.5 1.5 0 0 1-1.5-1.5m.23-5.94v-.02a1.5 1.5 0 0 1 1.5-1.5 1.5 1.5 0 0 1 1.5 1.5 1.5 1.5 0 0 1-1.5 1.5 1.5 1.5 0 0 1-1.5-1.5m.22-5.95v-.02a1.5 1.5 0 0 1 1.5-1.5 1.5 1.5 0 0 1 1.5 1.5 1.5 1.5 0 0 1-1.5 1.5 1.5 1.5 0 0 1-1.5-1.5v-.02" fill="#cc4e00"/><path d="M824.1 657.15l9.5-11.6 5 7.8z" stroke="#cc4e00" stroke-width="3" fill="#fff"/><path d="M852.96 579.83l-2.95-.03.02-1.52H853z" stroke="#cc4e00" stroke-width=".05" fill="#cc4e00"/><path d="M563.1 611.2a6 6 0 0 1 6-6h28a6 6 0 0 1 6 6v8a6 6 0 0 1-6 6h-28a6 6 0 0 1-6-6z" stroke="#000" stroke-opacity="0" stroke-width="2" fill="#fff" fill-opacity="0"/><use xlink:href="#q" transform="matrix(1,0,0,1,568.114216929929,610.198066425395) translate(1.1975308641975335 14.222222222222221)"/><path d="M558 687.5a6 6 0 0 1 6-6h28a6 6 0 0 1 6 6v8a6 6 0 0 1-6 6h-28a6 6 0 0 1-6-6z" stroke="#000" stroke-opacity="0" stroke-width="2" fill="#fff" fill-opacity="0"/><use xlink:href="#r" transform="matrix(1,0,0,1,563,686.5) translate(-0.777777777777775 14.222222222222221)"/><path d="M783 634a6 6 0 0 1 6-6h28a6 6 0 0 1 6 6v8a6 6 0 0 1-6 6h-28a6 6 0 0 1-6-6z" stroke="#000" stroke-opacity="0" stroke-width="2" fill="#fff" fill-opacity="0"/><use xlink:href="#s" transform="matrix(1,0,0,1,788,633) translate(-1.2222222222222214 14.222222222222221)"/><path d="M682.1 613a6 6 0 0 1 6-6h28a6 6 0 0 1 6 6v8a6 6 0 0 1-6 6h-28a6 6 0 0 1-6-6z" stroke="#000" stroke-opacity="0" stroke-width="2" fill="#fff" fill-opacity="0"/><use xlink:href="#s" transform="matrix(1,0,0,1,687.0987654320987,612) translate(-1.2222222222222214 14.222222222222221)"/><path d="M1340 519.55a20 20 0 0 1 20-20h121.5a20 20 0 0 1 20 20 20 20 0 0 1-20 20H1360a20 20 0 0 1-20-20z" stroke="#cc4e00" stroke-width="3" fill="#e8e2c8"/><use xlink:href="#d" transform="matrix(1,0,0,1,1345,504.55111500163207) translate(44.3722839506173 21.430555555555543)"/><path d="M1443.5 580h53M1443.6 580h-3.6M1496.4 580h3.6" stroke="#82755b" stroke-width="7" fill="none"/><path d="M1471.5 559.33v-17.28" stroke="#82755b" stroke-width="2" fill="none"/><path d="M1471.5 574.6l-4.63-14.27h9.27z" stroke="#82755b" stroke-width="2" fill="#fff"/><path d="M1472.47 542.08h-1.94v-1.03h1.94z" stroke="#82755b" stroke-width=".05" fill="#82755b"/><path d="M1430.5 558a6 6 0 0 1 6-6h28a6 6 0 0 1 6 6v8a6 6 0 0 1-6 6h-28a6 6 0 0 1-6-6z" stroke="#000" stroke-opacity="0" stroke-width="2" fill="#fff" fill-opacity="0"/><use xlink:href="#t" transform="matrix(1,0,0,1,1435.5,557) translate(1.1975308641975335 14.222222222222221)"/><path d="M1343.5 580h53M1343.6 580h-3.6M1396.4 580h3.6" stroke="#1071e5" stroke-width="7" fill="none"/><path d="M1370.5 559.33v-17.28" stroke="#1071e5" stroke-width="2" fill="none"/><path d="M1370.5 574.6l-4.63-14.27h9.27z" stroke="#1071e5" stroke-width="2" fill="#fff"/><path d="M1371.47 542.08h-1.94v-1.03h1.94z" stroke="#1071e5" stroke-width=".05" fill="#1071e5"/><path d="M1329 559.95a6 6 0 0 1 6-6h28a6 6 0 0 1 6 6v8a6 6 0 0 1-6 6h-28a6 6 0 0 1-6-6z" stroke="#000" stroke-opacity="0" stroke-width="2" fill="#fff" fill-opacity="0"/><use xlink:href="#u" transform="matrix(1,0,0,1,1334,558.9489767679714) translate(-0.777777777777775 14.222222222222221)"/><path d="M1296 636.05a6 6 0 0 1 6-6h28a6 6 0 0 1 6 6v48.45a6 6 0 0 1-6 6h-28a6 6 0 0 1-6-6z" stroke="#000" stroke-opacity="0" stroke-width="2" fill="#fff" fill-opacity="0"/><use xlink:href="#v" transform="matrix(1,0,0,1,1301,635.0511150016321) translate(-1.2222222222222214 18.388888888888886)"/><use xlink:href="#w" transform="matrix(1,0,0,1,1301,635.0511150016321) translate(-0.7530864197530835 39.722222222222214)"/><path d="M1398 634.78a6 6 0 0 1 6-6h28a6 6 0 0 1 6 6v48.44a6 6 0 0 1-6 6h-28a6 6 0 0 1-6-6z" stroke="#000" stroke-opacity="0" stroke-width="2" fill="#fff" fill-opacity="0"/><g><use xlink:href="#x" transform="matrix(1,0,0,1,1403,633.775557500816) translate(-1.2222222222222214 18.388888888888886)"/><use xlink:href="#y" transform="matrix(1,0,0,1,1403,633.775557500816) translate(-0.7530864197530835 39.722222222222214)"/></g><path d="M1180.5 635.78a6 6 0 0 1 6-6h28a6 6 0 0 1 6 6v48.44a6 6 0 0 1-6 6h-28a6 6 0 0 1-6-6z" stroke="#000" stroke-opacity="0" stroke-width="2" fill="#fff" fill-opacity="0"/><g><use xlink:href="#z" transform="matrix(1,0,0,1,1185.5,634.775557500816) translate(1.1975308641975335 18.388888888888886)"/><use xlink:href="#A" transform="matrix(1,0,0,1,1185.5,634.775557500816) translate(-0.777777777777775 39.722222222222214)"/></g><path d="M1220 560.05a6 6 0 0 1 6-6h68a6 6 0 0 1 6 6v8a6 6 0 0 1-6 6h-68a6 6 0 0 1-6-6z" stroke="#000" stroke-opacity="0" stroke-width="2" fill="#fff" fill-opacity="0"/><g><use xlink:href="#B" transform="matrix(1,0,0,1,1225,559.0511150016321) translate(0.48148148148148806 14.222222222222221)"/><use xlink:href="#C" transform="matrix(1,0,0,1,1225,559.0511150016321) translate(37.96296296296296 14.222222222222221)"/></g><defs><linearGradient gradientUnits="userSpaceOnUse" id="a" x1="500" y1="739.79" x2="500" y2="579.79"><stop offset="19.2%" stop-color="#ced4db"/><stop offset="26.45%" stop-color="#fff"/><stop offset="45.29%" stop-color="#fff"/><stop offset="52.54%" stop-color="#cfe4ff"/><stop offset="73.91%" stop-color="#cfe4ff"/><stop offset="82.97%" stop-color="#c3f7c8"/></linearGradient><linearGradient gradientUnits="userSpaceOnUse" id="b" x1="600" y1="740" x2="600" y2="580"><stop offset="19.2%" stop-color="#ced4db"/><stop offset="26.45%" stop-color="#fff"/><stop offset="45.29%" stop-color="#fff"/><stop offset="52.54%" stop-color="#cfe4ff"/><stop offset="73.91%" stop-color="#cfe4ff"/><stop offset="82.97%" stop-color="#c3f7c8"/></linearGradient><linearGradient gradientUnits="userSpaceOnUse" id="c" x1="720" y1="739.78" x2="720" y2="579.78"><stop offset="19.2%" stop-color="#ced4db"/><stop offset="26.45%" stop-color="#fff"/><stop offset="45.29%" stop-color="#fff"/><stop offset="52.54%" stop-color="#cfe4ff"/><stop offset="73.91%" stop-color="#cfe4ff"/><stop offset="82.97%" stop-color="#c3f7c8"/></linearGradient><path d="M212-179c-10-28-35-45-73-45-59 0-87 40-87 99 0 60 29 101 89 101 43 0 62-24 78-52l27 14C228-24 195 4 139 4 59 4 22-46 18-125c-6-104 99-153 187-111 19 9 31 26 39 46" id="D"/><path d="M24 0v-261h32V0H24" id="E"/><path d="M24-231v-30h32v30H24zM24 0v-190h32V0H24" id="F"/><path d="M100-194c63 0 86 42 84 106H49c0 40 14 67 53 68 26 1 43-12 49-29l28 8c-11 28-37 45-77 45C44 4 14-33 15-96c1-61 26-98 85-98zm52 81c6-60-76-77-97-28-3 7-6 17-6 28h103" id="G"/><path d="M117-194c89-4 53 116 60 194h-32v-121c0-31-8-49-39-48C34-167 62-67 57 0H25l-1-190h30c1 10-1 24 2 32 11-22 29-35 61-36" id="H"/><path d="M59-47c-2 24 18 29 38 22v24C64 9 27 4 27-40v-127H5v-23h24l9-43h21v43h35v23H59v120" id="I"/><g id="d"><use transform="matrix(0.06790123456790119,0,0,0.06790123456790119,0,0)" xlink:href="#D"/><use transform="matrix(0.06790123456790119,0,0,0.06790123456790119,17.586419753086407,0)" xlink:href="#E"/><use transform="matrix(0.06790123456790119,0,0,0.06790123456790119,22.9506172839506,0)" xlink:href="#F"/><use transform="matrix(0.06790123456790119,0,0,0.06790123456790119,28.314814814814795,0)" xlink:href="#G"/><use transform="matrix(0.06790123456790119,0,0,0.06790123456790119,41.895061728395035,0)" xlink:href="#H"/><use transform="matrix(0.06790123456790119,0,0,0.06790123456790119,55.475308641975275,0)" xlink:href="#I"/></g><path d="M205 0l-28-72H64L36 0H1l101-248h38L239 0h-34zm-38-99l-47-123c-12 45-31 82-46 123h93" id="J"/><use transform="matrix(0.07407407407407406,0,0,0.07407407407407406,0,0)" xlink:href="#J" id="e"/><path d="M135-143c-3-34-86-38-87 0 15 53 115 12 119 90S17 21 10-45l28-5c4 36 97 45 98 0-10-56-113-15-118-90-4-57 82-63 122-42 12 7 21 19 24 35" id="K"/><path d="M114-163C36-179 61-72 57 0H25l-1-190h30c1 12-1 29 2 39 6-27 23-49 58-41v29" id="L"/><path d="M108 0H70L1-190h34L89-25l56-165h34" id="M"/><path d="M96-169c-40 0-48 33-48 73s9 75 48 75c24 0 41-14 43-38l32 2c-6 37-31 61-74 61-59 0-76-41-82-99-10-93 101-131 147-64 4 7 5 14 7 22l-32 3c-4-21-16-35-41-35" id="N"/><g id="f"><use transform="matrix(0.07407407407407406,0,0,0.07407407407407406,0,0)" xlink:href="#K"/><use transform="matrix(0.07407407407407406,0,0,0.07407407407407406,13.33333333333333,0)" xlink:href="#G"/><use transform="matrix(0.07407407407407406,0,0,0.07407407407407406,28.14814814814814,0)" xlink:href="#L"/><use transform="matrix(0.07407407407407406,0,0,0.07407407407407406,36.962962962962955,0)" xlink:href="#M"/><use transform="matrix(0.07407407407407406,0,0,0.07407407407407406,50.29629629629628,0)" xlink:href="#F"/><use transform="matrix(0.07407407407407406,0,0,0.07407407407407406,56.14814814814813,0)" xlink:href="#N"/><use transform="matrix(0.07407407407407406,0,0,0.07407407407407406,69.48148148148147,0)" xlink:href="#G"/></g><path d="M85-194c31 0 48 13 60 33l-1-100h32l1 261h-30c-2-10 0-23-3-31C134-8 116 4 85 4 32 4 16-35 15-94c0-66 23-100 70-100zm9 24c-40 0-46 34-46 75 0 40 6 74 45 74 42 0 51-32 51-76 0-42-9-74-50-73" id="O"/><path d="M115-194c55 1 70 41 70 98S169 2 115 4C84 4 66-9 55-30l1 105H24l-1-265h31l2 30c10-21 28-34 59-34zm-8 174c40 0 45-34 45-75s-6-73-45-74c-42 0-51 32-51 76 0 43 10 73 51 73" id="P"/><g id="g"><use transform="matrix(0.07407407407407406,0,0,0.07407407407407406,0,0)" xlink:href="#O"/><use transform="matrix(0.07407407407407406,0,0,0.07407407407407406,14.814814814814811,0)" xlink:href="#G"/><use transform="matrix(0.07407407407407406,0,0,0.07407407407407406,29.629629629629623,0)" xlink:href="#P"/><use transform="matrix(0.07407407407407406,0,0,0.07407407407407406,44.444444444444436,0)" xlink:href="#G"/><use transform="matrix(0.07407407407407406,0,0,0.07407407407407406,59.259259259259245,0)" xlink:href="#H"/><use transform="matrix(0.07407407407407406,0,0,0.07407407407407406,74.07407407407406,0)" xlink:href="#O"/><use transform="matrix(0.07407407407407406,0,0,0.07407407407407406,88.88888888888887,0)" xlink:href="#K"/></g><path d="M100-194c62-1 85 37 85 99 1 63-27 99-86 99S16-35 15-95c0-66 28-99 85-99zM99-20c44 1 53-31 53-75 0-43-8-75-51-75s-53 32-53 75 10 74 51 75" id="Q"/><g id="h"><use transform="matrix(0.07407407407407406,0,0,0.07407407407407406,0,0)" xlink:href="#Q"/><use transform="matrix(0.07407407407407406,0,0,0.07407407407407406,14.814814814814811,0)" xlink:href="#H"/></g><path d="M84 4C-5 8 30-112 23-190h32v120c0 31 7 50 39 49 72-2 45-101 50-169h31l1 190h-30c-1-10 1-25-2-33-11 22-28 36-60 37" id="R"/><g id="i"><use transform="matrix(0.07407407407407406,0,0,0.07407407407407406,0,0)" xlink:href="#K"/><use transform="matrix(0.07407407407407406,0,0,0.07407407407407406,13.33333333333333,0)" xlink:href="#Q"/><use transform="matrix(0.07407407407407406,0,0,0.07407407407407406,28.14814814814814,0)" xlink:href="#R"/><use transform="matrix(0.07407407407407406,0,0,0.07407407407407406,42.962962962962955,0)" xlink:href="#L"/><use transform="matrix(0.07407407407407406,0,0,0.07407407407407406,51.77777777777777,0)" xlink:href="#N"/><use transform="matrix(0.07407407407407406,0,0,0.07407407407407406,65.1111111111111,0)" xlink:href="#G"/><use transform="matrix(0.07407407407407406,0,0,0.07407407407407406,79.92592592592591,0)" xlink:href="#K"/></g><path d="M101-234c-31-9-42 10-38 44h38v23H63V0H32v-167H5v-23h27c-7-52 17-82 69-68v24" id="S"/><g id="j"><use transform="matrix(0.07407407407407406,0,0,0.07407407407407406,0,0)" xlink:href="#Q"/><use transform="matrix(0.07407407407407406,0,0,0.07407407407407406,14.814814814814811,0)" xlink:href="#S"/></g><path d="M141-36C126-15 110 5 73 4 37 3 15-17 15-53c-1-64 63-63 125-63 3-35-9-54-41-54-24 1-41 7-42 31l-33-3c5-37 33-52 76-52 45 0 72 20 72 64v82c-1 20 7 32 28 27v20c-31 9-61-2-59-35zM48-53c0 20 12 33 32 33 41-3 63-29 60-74-43 2-92-5-92 41" id="T"/><g id="k"><use transform="matrix(0.07407407407407406,0,0,0.07407407407407406,0,0)" xlink:href="#H"/><use transform="matrix(0.07407407407407406,0,0,0.07407407407407406,14.814814814814811,0)" xlink:href="#Q"/><use transform="matrix(0.07407407407407406,0,0,0.07407407407407406,29.629629629629623,0)" xlink:href="#I"/><use transform="matrix(0.07407407407407406,0,0,0.07407407407407406,37.03703703703703,0)" xlink:href="#F"/><use transform="matrix(0.07407407407407406,0,0,0.07407407407407406,42.88888888888888,0)" xlink:href="#S"/><use transform="matrix(0.07407407407407406,0,0,0.07407407407407406,50.29629629629628,0)" xlink:href="#F"/><use transform="matrix(0.07407407407407406,0,0,0.07407407407407406,56.14814814814813,0)" xlink:href="#N"/><use transform="matrix(0.07407407407407406,0,0,0.07407407407407406,69.48148148148147,0)" xlink:href="#T"/><use transform="matrix(0.07407407407407406,0,0,0.07407407407407406,84.29629629629628,0)" xlink:href="#I"/><use transform="matrix(0.07407407407407406,0,0,0.07407407407407406,91.70370370370368,0)" xlink:href="#F"/><use transform="matrix(0.07407407407407406,0,0,0.07407407407407406,97.55555555555553,0)" xlink:href="#Q"/><use transform="matrix(0.07407407407407406,0,0,0.07407407407407406,112.37037037037034,0)" xlink:href="#H"/><use transform="matrix(0.07407407407407406,0,0,0.07407407407407406,127.18518518518515,0)" xlink:href="#K"/></g><linearGradient gradientUnits="userSpaceOnUse" id="l" x1="821.5" y1="739.78" x2="821.5" y2="579.78"><stop offset="19.2%" stop-color="#ced4db"/><stop offset="26.45%" stop-color="#fff"/><stop offset="45.29%" stop-color="#fff"/><stop offset="52.54%" stop-color="#cfe4ff"/><stop offset="73.91%" stop-color="#cfe4ff"/><stop offset="82.97%" stop-color="#c3f7c8"/></linearGradient><linearGradient gradientUnits="userSpaceOnUse" id="m" x1="1120" y1="739.34" x2="1120" y2="579.34"><stop offset="19.2%" stop-color="#ced4db"/><stop offset="26.45%" stop-color="#fff"/><stop offset="45.29%" stop-color="#fff"/><stop offset="52.54%" stop-color="#cfe4ff"/><stop offset="73.91%" stop-color="#cfe4ff"/><stop offset="82.97%" stop-color="#c3f7c8"/></linearGradient><linearGradient gradientUnits="userSpaceOnUse" id="n" x1="1220" y1="739.55" x2="1220" y2="579.55"><stop offset="19.2%" stop-color="#ced4db"/><stop offset="26.45%" stop-color="#fff"/><stop offset="45.29%" stop-color="#fff"/><stop offset="52.54%" stop-color="#cfe4ff"/><stop offset="73.91%" stop-color="#cfe4ff"/><stop offset="82.97%" stop-color="#c3f7c8"/></linearGradient><linearGradient gradientUnits="userSpaceOnUse" id="o" x1="1340" y1="739.33" x2="1340" y2="579.33"><stop offset="19.2%" stop-color="#ced4db"/><stop offset="26.45%" stop-color="#fff"/><stop offset="45.29%" stop-color="#fff"/><stop offset="52.54%" stop-color="#cfe4ff"/><stop offset="73.91%" stop-color="#cfe4ff"/><stop offset="82.97%" stop-color="#c3f7c8"/></linearGradient><linearGradient gradientUnits="userSpaceOnUse" id="p" x1="1441.5" y1="739.33" x2="1441.5" y2="579.33"><stop offset="19.2%" stop-color="#ced4db"/><stop offset="26.45%" stop-color="#fff"/><stop offset="45.29%" stop-color="#fff"/><stop offset="52.54%" stop-color="#cfe4ff"/><stop offset="73.91%" stop-color="#cfe4ff"/><stop offset="82.97%" stop-color="#c3f7c8"/></linearGradient><path fill="#ba23f6" d="M135-150c-39-12-60 13-60 57V0H25l-1-190h47c2 13-1 29 3 40 6-28 27-53 61-41v41" id="U"/><path fill="#ba23f6" d="M185-48c-13 30-37 53-82 52C43 2 14-33 14-96s30-98 90-98c62 0 83 45 84 108H66c0 31 8 55 39 56 18 0 30-7 34-22zm-45-69c5-46-57-63-70-21-2 6-4 13-4 21h74" id="V"/><path fill="#ba23f6" d="M84 4C32 4 15-41 15-95c0-55 18-99 73-99 29 0 47 12 58 34l2-30h48l-1 265h-49V-32C136-9 114 4 84 4zm21-34c32 0 41-29 41-66 0-36-9-64-40-64-33 0-39 30-40 65 0 43 13 65 39 65" id="W"/><g id="q"><use transform="matrix(0.049382716049382706,0,0,0.049382716049382706,0,0)" xlink:href="#U"/><use transform="matrix(0.049382716049382706,0,0,0.049382716049382706,6.913580246913579,0)" xlink:href="#V"/><use transform="matrix(0.049382716049382706,0,0,0.049382716049382706,16.79012345679012,0)" xlink:href="#W"/></g><path fill="#ba23f6" d="M190-63c-7 42-38 67-86 67-59 0-84-38-90-98-12-110 154-137 174-36l-49 2c-2-19-15-32-35-32-30 0-35 28-38 64-6 74 65 87 74 30" id="X"/><path fill="#ba23f6" d="M121-226c-27-7-43 5-38 36h38v33H83V0H34v-157H6v-33h28c-9-59 32-81 87-68v32" id="Y"/><path fill="#ba23f6" d="M220-157c-53 9-28 100-34 157h-49v-107c1-27-5-49-29-50C55-147 81-57 75 0H25l-1-190h47c2 12-1 28 3 38 10-53 101-56 108 0 13-22 24-43 59-42 82 1 51 116 57 194h-49v-107c-1-25-5-48-29-50" id="Z"/><g id="r"><use transform="matrix(0.049382716049382706,0,0,0.049382716049382706,0,0)" xlink:href="#X"/><use transform="matrix(0.049382716049382706,0,0,0.049382716049382706,9.87654320987654,0)" xlink:href="#Y"/><use transform="matrix(0.049382716049382706,0,0,0.049382716049382706,15.75308641975308,0)" xlink:href="#Z"/></g><path fill="#cc4e00" d="M135-194c53 0 70 44 70 98 0 56-19 98-73 100-31 1-45-17-59-34 3 33 2 69 2 105H25l-1-265h48c2 10 0 23 3 31 11-24 29-35 60-35zM114-30c33 0 39-31 40-66 0-38-9-64-40-64-56 0-55 130 0 130" id="aa"/><path fill="#cc4e00" d="M85 4C-2 5 27-109 22-190h50c7 57-23 150 33 157 60-5 35-97 40-157h50l1 190h-47c-2-12 1-28-3-38-12 25-28 42-61 42" id="ab"/><path fill="#cc4e00" d="M135-194c52 0 70 43 70 98 0 56-19 99-73 100-30 1-46-15-58-35L72 0H24l1-261h50v104c11-23 29-37 60-37zM114-30c31 0 40-27 40-66 0-37-7-63-39-63s-41 28-41 65c0 36 8 64 40 64" id="ac"/><g id="s"><use transform="matrix(0.049382716049382706,0,0,0.049382716049382706,0,0)" xlink:href="#aa"/><use transform="matrix(0.049382716049382706,0,0,0.049382716049382706,10.814814814814813,0)" xlink:href="#ab"/><use transform="matrix(0.049382716049382706,0,0,0.049382716049382706,21.629629629629626,0)" xlink:href="#ac"/></g><path fill="#82755b" d="M135-150c-39-12-60 13-60 57V0H25l-1-190h47c2 13-1 29 3 40 6-28 27-53 61-41v41" id="ad"/><path fill="#82755b" d="M185-48c-13 30-37 53-82 52C43 2 14-33 14-96s30-98 90-98c62 0 83 45 84 108H66c0 31 8 55 39 56 18 0 30-7 34-22zm-45-69c5-46-57-63-70-21-2 6-4 13-4 21h74" id="ae"/><path fill="#82755b" d="M84 4C32 4 15-41 15-95c0-55 18-99 73-99 29 0 47 12 58 34l2-30h48l-1 265h-49V-32C136-9 114 4 84 4zm21-34c32 0 41-29 41-66 0-36-9-64-40-64-33 0-39 30-40 65 0 43 13 65 39 65" id="af"/><g id="t"><use transform="matrix(0.049382716049382706,0,0,0.049382716049382706,0,0)" xlink:href="#ad"/><use transform="matrix(0.049382716049382706,0,0,0.049382716049382706,6.913580246913579,0)" xlink:href="#ae"/><use transform="matrix(0.049382716049382706,0,0,0.049382716049382706,16.79012345679012,0)" xlink:href="#af"/></g><path fill="#1071e5" d="M190-63c-7 42-38 67-86 67-59 0-84-38-90-98-12-110 154-137 174-36l-49 2c-2-19-15-32-35-32-30 0-35 28-38 64-6 74 65 87 74 30" id="ag"/><path fill="#1071e5" d="M121-226c-27-7-43 5-38 36h38v33H83V0H34v-157H6v-33h28c-9-59 32-81 87-68v32" id="ah"/><path fill="#1071e5" d="M220-157c-53 9-28 100-34 157h-49v-107c1-27-5-49-29-50C55-147 81-57 75 0H25l-1-190h47c2 12-1 28 3 38 10-53 101-56 108 0 13-22 24-43 59-42 82 1 51 116 57 194h-49v-107c-1-25-5-48-29-50" id="ai"/><g id="u"><use transform="matrix(0.049382716049382706,0,0,0.049382716049382706,0,0)" xlink:href="#ag"/><use transform="matrix(0.049382716049382706,0,0,0.049382716049382706,9.87654320987654,0)" xlink:href="#ah"/><use transform="matrix(0.049382716049382706,0,0,0.049382716049382706,15.75308641975308,0)" xlink:href="#ai"/></g><path fill="#1071e5" d="M135-194c53 0 70 44 70 98 0 56-19 98-73 100-31 1-45-17-59-34 3 33 2 69 2 105H25l-1-265h48c2 10 0 23 3 31 11-24 29-35 60-35zM114-30c33 0 39-31 40-66 0-38-9-64-40-64-56 0-55 130 0 130" id="aj"/><path fill="#1071e5" d="M85 4C-2 5 27-109 22-190h50c7 57-23 150 33 157 60-5 35-97 40-157h50l1 190h-47c-2-12 1-28-3-38-12 25-28 42-61 42" id="ak"/><path fill="#1071e5" d="M135-194c52 0 70 43 70 98 0 56-19 99-73 100-30 1-46-15-58-35L72 0H24l1-261h50v104c11-23 29-37 60-37zM114-30c31 0 40-27 40-66 0-37-7-63-39-63s-41 28-41 65c0 36 8 64 40 64" id="al"/><g id="v"><use transform="matrix(0.049382716049382706,0,0,0.049382716049382706,0,0)" xlink:href="#aj"/><use transform="matrix(0.049382716049382706,0,0,0.049382716049382706,10.814814814814813,0)" xlink:href="#ak"/><use transform="matrix(0.049382716049382706,0,0,0.049382716049382706,21.629629629629626,0)" xlink:href="#al"/></g><path fill="#1071e5" d="M137-138c1-29-70-34-71-4 15 46 118 7 119 86 1 83-164 76-172 9l43-7c4 19 20 25 44 25 33 8 57-30 24-41C81-84 22-81 20-136c-2-80 154-74 161-7" id="am"/><g id="w"><use transform="matrix(0.049382716049382706,0,0,0.049382716049382706,0,0)" xlink:href="#am"/><use transform="matrix(0.049382716049382706,0,0,0.049382716049382706,9.87654320987654,0)" xlink:href="#ak"/><use transform="matrix(0.049382716049382706,0,0,0.049382716049382706,20.691358024691354,0)" xlink:href="#al"/></g><path fill="#82755b" d="M135-194c53 0 70 44 70 98 0 56-19 98-73 100-31 1-45-17-59-34 3 33 2 69 2 105H25l-1-265h48c2 10 0 23 3 31 11-24 29-35 60-35zM114-30c33 0 39-31 40-66 0-38-9-64-40-64-56 0-55 130 0 130" id="an"/><path fill="#82755b" d="M85 4C-2 5 27-109 22-190h50c7 57-23 150 33 157 60-5 35-97 40-157h50l1 190h-47c-2-12 1-28-3-38-12 25-28 42-61 42" id="ao"/><path fill="#82755b" d="M135-194c52 0 70 43 70 98 0 56-19 99-73 100-30 1-46-15-58-35L72 0H24l1-261h50v104c11-23 29-37 60-37zM114-30c31 0 40-27 40-66 0-37-7-63-39-63s-41 28-41 65c0 36 8 64 40 64" id="ap"/><g id="x"><use transform="matrix(0.049382716049382706,0,0,0.049382716049382706,0,0)" xlink:href="#an"/><use transform="matrix(0.049382716049382706,0,0,0.049382716049382706,10.814814814814813,0)" xlink:href="#ao"/><use transform="matrix(0.049382716049382706,0,0,0.049382716049382706,21.629629629629626,0)" xlink:href="#ap"/></g><path fill="#82755b" d="M137-138c1-29-70-34-71-4 15 46 118 7 119 86 1 83-164 76-172 9l43-7c4 19 20 25 44 25 33 8 57-30 24-41C81-84 22-81 20-136c-2-80 154-74 161-7" id="aq"/><g id="y"><use transform="matrix(0.049382716049382706,0,0,0.049382716049382706,0,0)" xlink:href="#aq"/><use transform="matrix(0.049382716049382706,0,0,0.049382716049382706,9.87654320987654,0)" xlink:href="#ao"/><use transform="matrix(0.049382716049382706,0,0,0.049382716049382706,20.691358024691354,0)" xlink:href="#ap"/></g><path fill="#008a0e" d="M135-150c-39-12-60 13-60 57V0H25l-1-190h47c2 13-1 29 3 40 6-28 27-53 61-41v41" id="ar"/><path fill="#008a0e" d="M185-48c-13 30-37 53-82 52C43 2 14-33 14-96s30-98 90-98c62 0 83 45 84 108H66c0 31 8 55 39 56 18 0 30-7 34-22zm-45-69c5-46-57-63-70-21-2 6-4 13-4 21h74" id="as"/><path fill="#008a0e" d="M84 4C32 4 15-41 15-95c0-55 18-99 73-99 29 0 47 12 58 34l2-30h48l-1 265h-49V-32C136-9 114 4 84 4zm21-34c32 0 41-29 41-66 0-36-9-64-40-64-33 0-39 30-40 65 0 43 13 65 39 65" id="at"/><g id="z"><use transform="matrix(0.049382716049382706,0,0,0.049382716049382706,0,0)" xlink:href="#ar"/><use transform="matrix(0.049382716049382706,0,0,0.049382716049382706,6.913580246913579,0)" xlink:href="#as"/><use transform="matrix(0.049382716049382706,0,0,0.049382716049382706,16.79012345679012,0)" xlink:href="#at"/></g><path fill="#008a0e" d="M190-63c-7 42-38 67-86 67-59 0-84-38-90-98-12-110 154-137 174-36l-49 2c-2-19-15-32-35-32-30 0-35 28-38 64-6 74 65 87 74 30" id="au"/><path fill="#008a0e" d="M121-226c-27-7-43 5-38 36h38v33H83V0H34v-157H6v-33h28c-9-59 32-81 87-68v32" id="av"/><path fill="#008a0e" d="M220-157c-53 9-28 100-34 157h-49v-107c1-27-5-49-29-50C55-147 81-57 75 0H25l-1-190h47c2 12-1 28 3 38 10-53 101-56 108 0 13-22 24-43 59-42 82 1 51 116 57 194h-49v-107c-1-25-5-48-29-50" id="aw"/><g id="A"><use transform="matrix(0.049382716049382706,0,0,0.049382716049382706,0,0)" xlink:href="#au"/><use transform="matrix(0.049382716049382706,0,0,0.049382716049382706,9.87654320987654,0)" xlink:href="#av"/><use transform="matrix(0.049382716049382706,0,0,0.049382716049382706,15.75308641975308,0)" xlink:href="#aw"/></g><path d="M135-150c-39-12-60 13-60 57V0H25l-1-190h47c2 13-1 29 3 40 6-28 27-53 61-41v41" id="ax"/><path d="M185-48c-13 30-37 53-82 52C43 2 14-33 14-96s30-98 90-98c62 0 83 45 84 108H66c0 31 8 55 39 56 18 0 30-7 34-22zm-45-69c5-46-57-63-70-21-2 6-4 13-4 21h74" id="ay"/><path d="M84 4C32 4 15-41 15-95c0-55 18-99 73-99 29 0 47 12 58 34l2-30h48l-1 265h-49V-32C136-9 114 4 84 4zm21-34c32 0 41-29 41-66 0-36-9-64-40-64-33 0-39 30-40 65 0 43 13 65 39 65" id="az"/><g id="B"><use transform="matrix(0.049382716049382706,0,0,0.049382716049382706,0,0)" xlink:href="#ax"/><use transform="matrix(0.049382716049382706,0,0,0.049382716049382706,6.913580246913579,0)" xlink:href="#ay"/><use transform="matrix(0.049382716049382706,0,0,0.049382716049382706,16.79012345679012,0)" xlink:href="#az"/></g><path d="M190-63c-7 42-38 67-86 67-59 0-84-38-90-98-12-110 154-137 174-36l-49 2c-2-19-15-32-35-32-30 0-35 28-38 64-6 74 65 87 74 30" id="aA"/><path d="M121-226c-27-7-43 5-38 36h38v33H83V0H34v-157H6v-33h28c-9-59 32-81 87-68v32" id="aB"/><path d="M220-157c-53 9-28 100-34 157h-49v-107c1-27-5-49-29-50C55-147 81-57 75 0H25l-1-190h47c2 12-1 28 3 38 10-53 101-56 108 0 13-22 24-43 59-42 82 1 51 116 57 194h-49v-107c-1-25-5-48-29-50" id="aC"/><g id="C"><use transform="matrix(0.049382716049382706,0,0,0.049382716049382706,0,0)" xlink:href="#aA"/><use transform="matrix(0.049382716049382706,0,0,0.049382716049382706,9.87654320987654,0)" xlink:href="#aB"/><use transform="matrix(0.049382716049382706,0,0,0.049382716049382706,15.75308641975308,0)" xlink:href="#aC"/></g></defs></g></svg>