<svg xmlns="http://www.w3.org/2000/svg" xmlns:xlink="http://www.w3.org/1999/xlink" xmlns:lucid="lucid" width="1004.5" height="245.22"><g transform="translate(-498.5 -498.05111500163207)" lucid:page-tab-id="0_0"><path d="M500 599.8a20 20 0 0 1 20-20h20a20 20 0 0 1 20 20v120a20 20 0 0 1-20 20h-20a20 20 0 0 1-20-20z" stroke="#008a0e" stroke-width="3" fill="url(#a)"/><path d="M600 600a20 20 0 0 1 20-20h38.5a20 20 0 0 1 20 20v120a20 20 0 0 1-20 20H620a20 20 0 0 1-20-20z" stroke="#000" stroke-width="3" fill="url(#b)"/><path d="M720 599.78a20 20 0 0 1 20-20h20a20 20 0 0 1 20 20v120a20 20 0 0 1-20 20h-20a20 20 0 0 1-20-20z" stroke="#1071e5" stroke-width="3" fill="url(#c)"/><path d="M600 520a20 20 0 0 1 20-20h40a20 20 0 0 1 20 20 20 20 0 0 1-20 20h-40a20 20 0 0 1-20-20z" stroke="#000" stroke-width="3" fill="#e8e2c8"/><use xlink:href="#d" transform="matrix(1,0,0,1,605,505) translate(3.8722839506173035 21.430555555555543)"/><path d="M622.05 542.48l.27 21.84M618.05 542.52l.27 21.85" stroke="#ba23f6" stroke-width="2" fill="none"/><path d="M623.02 542.5h-1.95v-1H623zM619 541.43l.02 1.1-1.95.03v-1.3z" stroke="#ba23f6" stroke-width=".05" fill="#ba23f6"/><path d="M630.26 559.06l-9.78 17.44-10.22-17.2m10.22 17.2l-.1-8.5M662.38 555.64l-.26 22M658.38 555.6l-.26 22M650.32 560.66l10.2-17.2 9.8 17.44m-9.8-17.44l-.1 8.5" stroke="#ba23f6" stroke-width="2" fill="none"/><path d="M663.1 577.63l-.02 1.42-1.22-.3-.73-.05.02-1.1zM659.1 577.58l-.02.96-.52-.04h-1.42v-.94z" stroke="#ba23f6" stroke-width=".05" fill="#ba23f6"/><path d="M597.48 639.25l-21.85-.28M597.53 635.25l-21.85-.28" stroke="#ba23f6" stroke-width="2" fill="none"/><path d="M598.5 638.28v1.95h-1.06l.02-1.96zM598.5 634.28v1.95h-1v-1.96z" stroke="#ba23f6" stroke-width=".05" fill="#ba23f6"/><path d="M580.7 647.03l-17.2-10.22 17.45-9.77m-17.45 9.78l8.5.12M562.5 676.8h21.84M562.5 680.8h21.84" stroke="#ba23f6" stroke-width="2" fill="none"/><path d="M562.53 675.8v1.96h-1.03v-1.95zM562.53 679.8v1.96h-1.03v-1.95z" stroke="#ba23f6" stroke-width=".05" fill="#ba23f6"/><path d="M579.18 668.8l17.32 10-17.32 10m17.32-10H588M681 697.5h23.34M681 701.5h23.34" stroke="#ba23f6" stroke-width="2" fill="none"/><path d="M681.03 696.52v1.96H680v-1.96zM681.03 700.52v1.96H680v-1.96z" stroke="#ba23f6" stroke-width=".05" fill="#ba23f6"/><path d="M699.18 689.5l17.32 10-17.32 10m17.32-10H708M717.5 623.27h-23.34M717.5 619.27h-23.34" stroke="#ba23f6" stroke-width="2" fill="none"/><path d="M718.5 622.3v1.95h-1.03v-1.95zM718.5 618.3v1.95h-1.03v-1.95z" stroke="#ba23f6" stroke-width=".05" fill="#ba23f6"/><path d="M699.32 631.27l-17.32-10 17.32-10m-17.32 10h8.5" stroke="#ba23f6" stroke-width="2" fill="none"/><path d="M609.83 622.27a1.5 1.5 0 0 1 1.5-1.5 1.5 1.5 0 0 1 1.5 1.5 1.5 1.5 0 0 1-1.5 1.5 1.5 1.5 0 0 1-1.5-1.5v-.03m3.6-5.13a1.5 1.5 0 0 1 1.5-1.5 1.5 1.5 0 0 1 1.5 1.5 1.5 1.5 0 0 1-1.5 1.5 1.5 1.5 0 0 1-1.5-1.5v-.02m2.48-5.76v-.02a1.5 1.5 0 0 1 1.5-1.5 1.5 1.5 0 0 1 1.5 1.5 1.5 1.5 0 0 1-1.5 1.5 1.5 1.5 0 0 1-1.5-1.5m1.48-6.12a1.5 1.5 0 0 1 1.5-1.5 1.5 1.5 0 0 1 1.5 1.5 1.5 1.5 0 0 1-1.5 1.5 1.5 1.5 0 0 1-1.5-1.5v-.03m.76-6.23a1.5 1.5 0 0 1 1.5-1.5 1.5 1.5 0 0 1 1.5 1.5 1.5 1.5 0 0 1-1.5 1.5 1.5 1.5 0 0 1-1.5-1.5v-.03m.35-6.27v-.02a1.5 1.5 0 0 1 1.5-1.5 1.5 1.5 0 0 1 1.5 1.5 1.5 1.5 0 0 1-1.5 1.5 1.5 1.5 0 0 1-1.5-1.5m.22-6.28v-.02a1.5 1.5 0 0 1 1.5-1.5 1.5 1.5 0 0 1 1.5 1.5 1.5 1.5 0 0 1-1.5 1.5 1.5 1.5 0 0 1-1.5-1.5m.23-6.3a1.5 1.5 0 0 1 1.5-1.5 1.5 1.5 0 0 1 1.5 1.5 1.5 1.5 0 0 1-1.5 1.5 1.5 1.5 0 0 1-1.5-1.5v-.02" fill="#ba23f6"/><path d="M601.52 634.6l5.25-14.05 7.25 5.76z" stroke="#ba23f6" stroke-width="3" fill="#fff"/><path d="M621.92 580.1l-2.95-.12.05-1.4.92-.08h2.04z" stroke="#ba23f6" stroke-width=".05" fill="#ba23f6"/><path d="M539.6 676.16v-.02a1.5 1.5 0 0 1 1.5-1.5 1.5 1.5 0 0 1 1.5 1.5 1.5 1.5 0 0 1-1.5 1.5 1.5 1.5 0 0 1-1.5-1.5m-5.63-1.96v-.02a1.5 1.5 0 0 1 1.5-1.5 1.5 1.5 0 0 1 1.5 1.5 1.5 1.5 0 0 1-1.5 1.5 1.5 1.5 0 0 1-1.5-1.5m-5.25-2.82a1.5 1.5 0 0 1 1.5-1.5 1.5 1.5 0 0 1 1.5 1.5 1.5 1.5 0 0 1-1.5 1.5 1.5 1.5 0 0 1-1.5-1.5v-.03m-4.28-4.1a1.5 1.5 0 0 1 1.5-1.5 1.5 1.5 0 0 1 1.5 1.5 1.5 1.5 0 0 1-1.5 1.5 1.5 1.5 0 0 1-1.5-1.5v-.02m-2.25-5.44a1.5 1.5 0 0 1 1.5-1.5 1.5 1.5 0 0 1 1.5 1.5 1.5 1.5 0 0 1-1.5 1.5 1.5 1.5 0 0 1-1.5-1.5v-.03m.8-5.8v-.03a1.5 1.5 0 0 1 1.5-1.5 1.5 1.5 0 0 1 1.5 1.5 1.5 1.5 0 0 1-1.5 1.5 1.5 1.5 0 0 1-1.5-1.5m3.17-5.02a1.5 1.5 0 0 1 1.5-1.5 1.5 1.5 0 0 1 1.5 1.5 1.5 1.5 0 0 1-1.5 1.5 1.5 1.5 0 0 1-1.5-1.5v-.03m4.43-3.98a1.5 1.5 0 0 1 1.5-1.5 1.5 1.5 0 0 1 1.5 1.5 1.5 1.5 0 0 1-1.5 1.5 1.5 1.5 0 0 1-1.5-1.5v-.02m5.1-3.07v-.02a1.5 1.5 0 0 1 1.5-1.5 1.5 1.5 0 0 1 1.5 1.5 1.5 1.5 0 0 1-1.5 1.5 1.5 1.5 0 0 1-1.5-1.5m5.45-2.42a1.5 1.5 0 0 1 1.5-1.5 1.5 1.5 0 0 1 1.5 1.5 1.5 1.5 0 0 1-1.5 1.5 1.5 1.5 0 0 1-1.5-1.5v-.02m5.66-1.9a1.5 1.5 0 0 1 1.5-1.5 1.5 1.5 0 0 1 1.5 1.5 1.5 1.5 0 0 1-1.5 1.5 1.5 1.5 0 0 1-1.5-1.5v-.02m5.84-1.25a1.5 1.5 0 0 1 1.5-1.5 1.5 1.5 0 0 1 1.5 1.5 1.5 1.5 0 0 1-1.5 1.5 1.5 1.5 0 0 1-1.5-1.5v-.02" fill="#ba23f6"/><path d="M556.68 678.16l-14.74 2.77 1.2-9.2z" stroke="#ba23f6" stroke-width="3" fill="#fff"/><path d="M561.5 638.27l-1.33.18-.4-2.92 1.73-.23z" stroke="#ba23f6" stroke-width=".05" fill="#ba23f6"/><path d="M759.87 686.3v-.02a1.5 1.5 0 0 1 1.5-1.5 1.5 1.5 0 0 1 1.5 1.5 1.5 1.5 0 0 1-1.5 1.5 1.5 1.5 0 0 1-1.5-1.5m-5.86 2.27a1.5 1.5 0 0 1 1.5-1.5 1.5 1.5 0 0 1 1.5 1.5 1.5 1.5 0 0 1-1.5 1.5 1.5 1.5 0 0 1-1.5-1.5v-.03m-5.7 2.65v-.02a1.5 1.5 0 0 1 1.5-1.5 1.5 1.5 0 0 1 1.5 1.5 1.5 1.5 0 0 1-1.5 1.5 1.5 1.5 0 0 1-1.5-1.5m-5.66 2.7a1.5 1.5 0 0 1 1.5-1.5 1.5 1.5 0 0 1 1.5 1.5 1.5 1.5 0 0 1-1.5 1.5 1.5 1.5 0 0 1-1.5-1.5v-.02m-5.68 2.73a1.5 1.5 0 0 1 1.5-1.5 1.5 1.5 0 0 1 1.5 1.5 1.5 1.5 0 0 1-1.5 1.5 1.5 1.5 0 0 1-1.5-1.5v-.03m-6 1.87a1.5 1.5 0 0 1 1.5-1.5 1.5 1.5 0 0 1 1.5 1.5 1.5 1.5 0 0 1-1.5 1.5 1.5 1.5 0 0 1-1.5-1.5v-.03m-6.2.95a1.5 1.5 0 0 1 1.5-1.5 1.5 1.5 0 0 1 1.5 1.5 1.5 1.5 0 0 1-1.5 1.5 1.5 1.5 0 0 1-1.5-1.5v-.03" fill="#ba23f6"/><path d="M776.75 683l-13 7.5-1.92-9.05z" stroke="#ba23f6" stroke-width="3" fill="#fff"/><path d="M720.04 698.03v2.95h-1.54V698z" stroke="#ba23f6" stroke-width=".05" fill="#ba23f6"/><path d="M662.34 712.3v-.02a1.5 1.5 0 0 1 1.5-1.5 1.5 1.5 0 0 1 1.5 1.5 1.5 1.5 0 0 1-1.5 1.5 1.5 1.5 0 0 1-1.5-1.5m-5.24 3.25a1.5 1.5 0 0 1 1.5-1.5 1.5 1.5 0 0 1 1.5 1.5 1.5 1.5 0 0 1-1.5 1.5 1.5 1.5 0 0 1-1.5-1.5v-.03m-5.5 2.78v-.02a1.5 1.5 0 0 1 1.5-1.5 1.5 1.5 0 0 1 1.5 1.5 1.5 1.5 0 0 1-1.5 1.5 1.5 1.5 0 0 1-1.5-1.5m-5.83 2v-.02a1.5 1.5 0 0 1 1.5-1.5 1.5 1.5 0 0 1 1.5 1.5 1.5 1.5 0 0 1-1.5 1.5 1.5 1.5 0 0 1-1.5-1.5m-6.1.84v-.02a1.5 1.5 0 0 1 1.5-1.5 1.5 1.5 0 0 1 1.5 1.5 1.5 1.5 0 0 1-1.5 1.5 1.5 1.5 0 0 1-1.5-1.5m-6.1-.64a1.5 1.5 0 0 1 1.5-1.5 1.5 1.5 0 0 1 1.5 1.5 1.5 1.5 0 0 1-1.5 1.5 1.5 1.5 0 0 1-1.5-1.5v-.03m-5.73-2.15v-.02a1.5 1.5 0 0 1 1.5-1.5 1.5 1.5 0 0 1 1.5 1.5 1.5 1.5 0 0 1-1.5 1.5 1.5 1.5 0 0 1-1.5-1.5m-5.16-3.34v-.02a1.5 1.5 0 0 1 1.5-1.5 1.5 1.5 0 0 1 1.5 1.5 1.5 1.5 0 0 1-1.5 1.5 1.5 1.5 0 0 1-1.5-1.5v-.02m-4.56-4.1a1.5 1.5 0 0 1 1.5-1.5 1.5 1.5 0 0 1 1.5 1.5 1.5 1.5 0 0 1-1.5 1.5 1.5 1.5 0 0 1-1.5-1.5v-.02m-4.08-4.58a1.5 1.5 0 0 1 1.5-1.5 1.5 1.5 0 0 1 1.5 1.5 1.5 1.5 0 0 1-1.5 1.5 1.5 1.5 0 0 1-1.5-1.5v-.03m-3.7-4.88v-.02a1.5 1.5 0 0 1 1.5-1.5 1.5 1.5 0 0 1 1.5 1.5 1.5 1.5 0 0 1-1.5 1.5 1.5 1.5 0 0 1-1.5-1.5m-3.44-5.1a1.5 1.5 0 0 1 1.5-1.5 1.5 1.5 0 0 1 1.5 1.5 1.5 1.5 0 0 1-1.5 1.5 1.5 1.5 0 0 1-1.5-1.5v-.02m-3.2-5.2v-.03a1.5 1.5 0 0 1 1.5-1.5 1.5 1.5 0 0 1 1.5 1.5 1.5 1.5 0 0 1-1.5 1.5 1.5 1.5 0 0 1-1.5-1.5m-3.05-5.34a1.5 1.5 0 0 1 1.5-1.5 1.5 1.5 0 0 1 1.5 1.5 1.5 1.5 0 0 1-1.5 1.5 1.5 1.5 0 0 1-1.5-1.5v-.02m-2.94-5.38a1.5 1.5 0 0 1 1.5-1.5 1.5 1.5 0 0 1 1.5 1.5 1.5 1.5 0 0 1-1.5 1.5 1.5 1.5 0 0 1-1.5-1.5v-.03" fill="#ba23f6"/><path d="M676.2 702.5l-8.32 12.5-5.75-7.27z" stroke="#ba23f6" stroke-width="3" fill="#fff"/><path d="M598.5 675.7v4.84l-.56.3-2.17-4 2.6-1.4z" stroke="#ba23f6" stroke-width=".05" fill="#ba23f6"/><path d="M661.77 600.2a1.5 1.5 0 0 1 1.5-1.5 1.5 1.5 0 0 1 1.5 1.5 1.5 1.5 0 0 1-1.5 1.5 1.5 1.5 0 0 1-1.5-1.5v-.02m2.76 5.87v-.02a1.5 1.5 0 0 1 1.5-1.5 1.5 1.5 0 0 1 1.5 1.5 1.5 1.5 0 0 1-1.5 1.5 1.5 1.5 0 0 1-1.5-1.5m3.52 5.42a1.5 1.5 0 0 1 1.5-1.5 1.5 1.5 0 0 1 1.5 1.5 1.5 1.5 0 0 1-1.5 1.5 1.5 1.5 0 0 1-1.5-1.5v-.03m4.24 4.9a1.5 1.5 0 0 1 1.5-1.5 1.5 1.5 0 0 1 1.5 1.5 1.5 1.5 0 0 1-1.5 1.5 1.5 1.5 0 0 1-1.5-1.5v-.02" fill="#ba23f6"/><path d="M660.78 584.8l6.86 13.33-9.16 1.5z" stroke="#ba23f6" stroke-width="3" fill="#fff"/><path d="M680 619.48v3.6l-2.1-1.47 1.68-2.4z" stroke="#ba23f6" stroke-width=".05" fill="#ba23f6"/><path d="M920 586a6 6 0 0 1 6-6h146.5a6 6 0 0 1 6 6v126a6 6 0 0 1-6 6H926a6 6 0 0 1-6-6z" stroke="#000" stroke-opacity="0" stroke-width="3" fill="#fff" fill-opacity="0"/><use xlink:href="#e" transform="matrix(1,0,0,1,925,585) translate(20.500000000000014 25.33333333333333)"/><use xlink:href="#f" transform="matrix(1,0,0,1,925,585) translate(44.20370370370371 25.33333333333333)"/><use xlink:href="#g" transform="matrix(1,0,0,1,925,585) translate(4.870370370370381 57.33333333333332)"/><use xlink:href="#h" transform="matrix(1,0,0,1,925,585) translate(114.49999999999999 57.33333333333332)"/><use xlink:href="#i" transform="matrix(1,0,0,1,925,585) translate(10.166666666666686 89.33333333333331)"/><use xlink:href="#j" transform="matrix(1,0,0,1,925,585) translate(125.57407407407406 89.33333333333331)"/><use xlink:href="#k" transform="matrix(1,0,0,1,925,585) translate(46.35185185185186 121.3333333333333)"/><path d="M821.5 599.78a20 20 0 0 1 20-20h20a20 20 0 0 1 20 20v120a20 20 0 0 1-20 20h-20a20 20 0 0 1-20-20z" stroke="#82755b" stroke-width="3" fill="url(#l)"/><path d="M782.5 680h23.34M782.5 684h23.34" stroke="#ba23f6" stroke-width="2" fill="none"/><path d="M782.53 679.02V681h-1.03V679zM782.53 683.02V685h-1.03V683z" stroke="#ba23f6" stroke-width=".05" fill="#ba23f6"/><path d="M800.68 672L818 682l-17.32 10M818 682h-8.5M819 642.5h-23.34M819 638.5h-23.34" stroke="#ba23f6" stroke-width="2" fill="none"/><path d="M820 641.52v1.96h-1.03v-1.96zM820 637.52v1.96h-1.03v-1.96z" stroke="#ba23f6" stroke-width=".05" fill="#ba23f6"/><path d="M800.82 650.5l-17.32-10 17.32-10m-17.32 10h8.5" stroke="#ba23f6" stroke-width="2" fill="none"/><path d="M738.58 624.53v-.02a1.5 1.5 0 0 1 1.5-1.5 1.5 1.5 0 0 1 1.5 1.5 1.5 1.5 0 0 1-1.5 1.5 1.5 1.5 0 0 1-1.5-1.5m5.7 2.55a1.5 1.5 0 0 1 1.5-1.5 1.5 1.5 0 0 1 1.5 1.5 1.5 1.5 0 0 1-1.5 1.5 1.5 1.5 0 0 1-1.5-1.5V627m5.37 3.2a1.5 1.5 0 0 1 1.5-1.5 1.5 1.5 0 0 1 1.5 1.5 1.5 1.5 0 0 1-1.5 1.5 1.5 1.5 0 0 1-1.5-1.5v-.02m5.26 3.38a1.5 1.5 0 0 1 1.5-1.5 1.5 1.5 0 0 1 1.5 1.5 1.5 1.5 0 0 1-1.5 1.5 1.5 1.5 0 0 1-1.5-1.5v-.03m5.35 3.26a1.5 1.5 0 0 1 1.5-1.5 1.5 1.5 0 0 1 1.5 1.5 1.5 1.5 0 0 1-1.5 1.5 1.5 1.5 0 0 1-1.5-1.5v-.02m5.9 2.03a1.5 1.5 0 0 1 1.5-1.5 1.5 1.5 0 0 1 1.5 1.5 1.5 1.5 0 0 1-1.5 1.5 1.5 1.5 0 0 1-1.5-1.5v-.02m6.13 1.17a1.5 1.5 0 0 1 1.5-1.5 1.5 1.5 0 0 1 1.5 1.5 1.5 1.5 0 0 1-1.5 1.5 1.5 1.5 0 0 1-1.5-1.5v-.03" fill="#ba23f6"/><path d="M724.74 621.07l14.93-1.4-2.03 9.05z" stroke="#ba23f6" stroke-width="3" fill="#fff"/><path d="M781.5 639.02v2.96l-1.6-.06.12-2.95z" stroke="#ba23f6" stroke-width=".05" fill="#ba23f6"/><path d="M839.1 641.13a1.5 1.5 0 0 1 1.5-1.5 1.5 1.5 0 0 1 1.5 1.5 1.5 1.5 0 0 1-1.5 1.5 1.5 1.5 0 0 1-1.5-1.5v-.03m5.93.88v-.02a1.5 1.5 0 0 1 1.5-1.5 1.5 1.5 0 0 1 1.5 1.5 1.5 1.5 0 0 1-1.5 1.5 1.5 1.5 0 0 1-1.5-1.5m5.84 1.4v-.02a1.5 1.5 0 0 1 1.5-1.5 1.5 1.5 0 0 1 1.5 1.5 1.5 1.5 0 0 1-1.5 1.5 1.5 1.5 0 0 1-1.5-1.5m5.6 2.14v-.02a1.5 1.5 0 0 1 1.5-1.5 1.5 1.5 0 0 1 1.5 1.5 1.5 1.5 0 0 1-1.5 1.5 1.5 1.5 0 0 1-1.5-1.5m5.23 2.98a1.5 1.5 0 0 1 1.5-1.5 1.5 1.5 0 0 1 1.5 1.5 1.5 1.5 0 0 1-1.5 1.5 1.5 1.5 0 0 1-1.5-1.5v-.03m4.32 4.2v-.03a1.5 1.5 0 0 1 1.5-1.5 1.5 1.5 0 0 1 1.5 1.5 1.5 1.5 0 0 1-1.5 1.5 1.5 1.5 0 0 1-1.5-1.5v-.02m2.53 5.43v-.02a1.5 1.5 0 0 1 1.5-1.5 1.5 1.5 0 0 1 1.5 1.5 1.5 1.5 0 0 1-1.5 1.5 1.5 1.5 0 0 1-1.5-1.5m-.45 5.94v-.02a1.5 1.5 0 0 1 1.5-1.5 1.5 1.5 0 0 1 1.5 1.5 1.5 1.5 0 0 1-1.5 1.5 1.5 1.5 0 0 1-1.5-1.5m-3.08 5.12a1.5 1.5 0 0 1 1.5-1.5 1.5 1.5 0 0 1 1.5 1.5 1.5 1.5 0 0 1-1.5 1.5 1.5 1.5 0 0 1-1.5-1.5v-.03m-4.54 3.95v-.02a1.5 1.5 0 0 1 1.5-1.5 1.5 1.5 0 0 1 1.5 1.5 1.5 1.5 0 0 1-1.5 1.5 1.5 1.5 0 0 1-1.5-1.5m-5.2 3v-.02a1.5 1.5 0 0 1 1.5-1.5 1.5 1.5 0 0 1 1.5 1.5 1.5 1.5 0 0 1-1.5 1.5 1.5 1.5 0 0 1-1.5-1.5v-.02m-5.6 2.2a1.5 1.5 0 0 1 1.5-1.5 1.5 1.5 0 0 1 1.5 1.5 1.5 1.5 0 0 1-1.5 1.5 1.5 1.5 0 0 1-1.5-1.5v-.02m-5.82 1.53a1.5 1.5 0 0 1 1.5-1.5 1.5 1.5 0 0 1 1.5 1.5 1.5 1.5 0 0 1-1.5 1.5 1.5 1.5 0 0 1-1.5-1.5v-.03m-5.9 1.13a1.5 1.5 0 0 1 1.5-1.5 1.5 1.5 0 0 1 1.5 1.5 1.5 1.5 0 0 1-1.5 1.5 1.5 1.5 0 0 1-1.5-1.5v-.03m-5.97.75v-.02a1.5 1.5 0 0 1 1.5-1.5 1.5 1.5 0 0 1 1.5 1.5 1.5 1.5 0 0 1-1.5 1.5 1.5 1.5 0 0 1-1.5-1.5v-.02m-6 .5v-.03a1.5 1.5 0 0 1 1.5-1.5 1.5 1.5 0 0 1 1.5 1.5 1.5 1.5 0 0 1-1.5 1.5 1.5 1.5 0 0 1-1.5-1.5" fill="#ba23f6"/><path d="M824.86 641.03l14.3-4.55-.06 9.26z" stroke="#ba23f6" stroke-width="3" fill="#fff"/><path d="M821.57 683.44l-1.57.03v-2.95l1.5-.03z" stroke="#ba23f6" stroke-width=".05" fill="#ba23f6"/><path d="M1120 599.34a20 20 0 0 1 20-20h20a20 20 0 0 1 20 20v120a20 20 0 0 1-20 20h-20a20 20 0 0 1-20-20z" stroke="#008a0e" stroke-width="3" fill="url(#m)"/><path d="M1220 599.55a20 20 0 0 1 20-20h38.5a20 20 0 0 1 20 20v120a20 20 0 0 1-20 20H1240a20 20 0 0 1-20-20z" stroke="#000" stroke-width="3" fill="url(#n)"/><path d="M1340 599.33a20 20 0 0 1 20-20h20a20 20 0 0 1 20 20v120a20 20 0 0 1-20 20h-20a20 20 0 0 1-20-20z" stroke="#1071e5" stroke-width="3" fill="url(#o)"/><path d="M1220 519.55a20 20 0 0 1 20-20h40a20 20 0 0 1 20 20 20 20 0 0 1-20 20h-40a20 20 0 0 1-20-20z" stroke="#000" stroke-width="3" fill="#e8e2c8"/><use xlink:href="#d" transform="matrix(1,0,0,1,1225,504.55111500163207) translate(3.8722839506173035 21.430555555555543)"/><path d="M1441.5 599.33a20 20 0 0 1 20-20h20a20 20 0 0 1 20 20v120a20 20 0 0 1-20 20h-20a20 20 0 0 1-20-20z" stroke="#82755b" stroke-width="3" fill="url(#p)"/><path d="M1296.5 580h-73M1296.4 580h3.6M1223.6 580h-3.6" stroke="#000" stroke-width="7" fill="none"/><path d="M1340 736.28v-153M1340 736.2v3.58M1340 583.37v-3.6" stroke="#1071e5" stroke-width="7" fill="none"/><path d="M1180 736.28v-153M1180 736.2v3.58M1180 583.37v-3.6" stroke="#008a0e" stroke-width="7" fill="none"/><path d="M1440 736.28v-153M1440 736.2v3.58M1440 583.37v-3.6" stroke="#82755b" stroke-width="7" fill="none"/><path d="M1259.35 561.5v-19.45" stroke="#000" stroke-width="2" fill="none"/><path d="M1259.35 576.76l-4.64-14.26h9.28z" stroke="#000" stroke-width="2" fill="#fff"/><path d="M1260.32 542.08h-1.95v-1.03h1.95z" stroke="#000" stroke-width=".05"/><path d="M1200 659.55h17.5" stroke="#008a0e" stroke-width="2" fill="none"/><path d="M1184.74 659.55l14.26-4.63v9.27z" stroke="#008a0e" stroke-width="2" fill="#fff"/><path d="M1218.5 660.53h-1.03v-1.95h1.03z" stroke="#008a0e" stroke-width=".05" fill="#008a0e"/><path d="M1320 659.55h-19" stroke="#1071e5" stroke-width="2" fill="none"/><path d="M1335.26 659.55L1321 664.2v-9.28z" stroke="#1071e5" stroke-width="2" fill="#fff"/><path d="M1301.03 660.53H1300v-1.95h1.03z" stroke="#1071e5" stroke-width=".05" fill="#1071e5"/><path d="M1421.5 659.33h-19" stroke="#82755b" stroke-width="2" fill="none"/><path d="M1436.76 659.33l-14.26 4.63v-9.27z" stroke="#82755b" stroke-width="2" fill="#fff"/><path d="M1402.53 660.3h-1.03v-1.95h1.03z" stroke="#82755b" stroke-width=".05" fill="#82755b"/><path d="M560 610.8a6 6 0 0 1 6-6h28a6 6 0 0 1 6 6v8a6 6 0 0 1-6 6h-28a6 6 0 0 1-6-6z" stroke="#000" stroke-opacity="0" stroke-width="2" fill="#fff" fill-opacity="0"/><use xlink:href="#q" transform="matrix(1,0,0,1,565,609.8) translate(1.1975308641975335 14.222222222222221)"/><path d="M680.53 673.47a6 6 0 0 1 6-6h28a6 6 0 0 1 6 6v8a6 6 0 0 1-6 6h-28a6 6 0 0 1-6-6z" stroke="#000" stroke-opacity="0" stroke-width="2" fill="#fff" fill-opacity="0"/><use xlink:href="#q" transform="matrix(1,0,0,1,685.5333333333334,672.4666666666666) translate(1.1975308641975335 14.222222222222221)"/><path d="M779.33 690a6 6 0 0 1 6-6h28a6 6 0 0 1 6 6v8a6 6 0 0 1-6 6h-28a6 6 0 0 1-6-6z" stroke="#000" stroke-opacity="0" stroke-width="2" fill="#fff" fill-opacity="0"/><use xlink:href="#q" transform="matrix(1,0,0,1,784.3333333333333,688.9999999999999) translate(1.1975308641975335 14.222222222222221)"/><path d="M559.33 689.5a6 6 0 0 1 6-6h28a6 6 0 0 1 6 6v8a6 6 0 0 1-6 6h-28a6 6 0 0 1-6-6z" stroke="#000" stroke-opacity="0" stroke-width="2" fill="#fff" fill-opacity="0"/><use xlink:href="#r" transform="matrix(1,0,0,1,564.3333333333333,688.4999999999999) translate(-0.777777777777775 14.222222222222221)"/><path d="M680.67 632.17a6 6 0 0 1 6-6h28a6 6 0 0 1 6 6v8a6 6 0 0 1-6 6h-28a6 6 0 0 1-6-6z" stroke="#000" stroke-opacity="0" stroke-width="2" fill="#fff" fill-opacity="0"/><use xlink:href="#r" transform="matrix(1,0,0,1,685.6666666666665,631.1666666666666) translate(-0.777777777777775 14.222222222222221)"/><path d="M780.67 614.83a6 6 0 0 1 6-6h28a6 6 0 0 1 6 6v8a6 6 0 0 1-6 6h-28a6 6 0 0 1-6-6z" stroke="#000" stroke-opacity="0" stroke-width="2" fill="#fff" fill-opacity="0"/><use xlink:href="#r" transform="matrix(1,0,0,1,785.6666666666665,613.8333333333333) translate(-0.777777777777775 14.222222222222221)"/><path d="M1220.67 560.67a6 6 0 0 1 6-6h68a6 6 0 0 1 6 6v8a6 6 0 0 1-6 6h-68a6 6 0 0 1-6-6z" stroke="#000" stroke-opacity="0" stroke-width="2" fill="#fff" fill-opacity="0"/><use xlink:href="#s" transform="matrix(1,0,0,1,1225.6666666666665,559.6666666666665) translate(0.48148148148148806 14.222222222222221)"/><use xlink:href="#t" transform="matrix(1,0,0,1,1225.6666666666665,559.6666666666665) translate(37.96296296296296 14.222222222222221)"/><path d="M1182.67 636.44a6 6 0 0 1 6-6h28a6 6 0 0 1 6 6v48.45a6 6 0 0 1-6 6h-28a6 6 0 0 1-6-6z" stroke="#000" stroke-opacity="0" stroke-width="2" fill="#fff" fill-opacity="0"/><g><use xlink:href="#u" transform="matrix(1,0,0,1,1187.6666666666665,635.4422241674826) translate(1.1975308641975335 18.388888888888886)"/><use xlink:href="#v" transform="matrix(1,0,0,1,1187.6666666666665,635.4422241674826) translate(-0.777777777777775 39.722222222222214)"/></g><path d="M1299.33 635.78a6 6 0 0 1 6-6h28a6 6 0 0 1 6 6v48.44a6 6 0 0 1-6 6h-28a6 6 0 0 1-6-6z" stroke="#000" stroke-opacity="0" stroke-width="2" fill="#fff" fill-opacity="0"/><g><use xlink:href="#w" transform="matrix(1,0,0,1,1304.333333333333,634.7755575008159) translate(1.1975308641975335 18.388888888888886)"/><use xlink:href="#x" transform="matrix(1,0,0,1,1304.333333333333,634.7755575008159) translate(-0.777777777777775 39.722222222222214)"/></g><path d="M1400.67 637.1a6 6 0 0 1 6-6h28a6 6 0 0 1 6 6v48.46a6 6 0 0 1-6 6h-28a6 6 0 0 1-6-6z" stroke="#000" stroke-opacity="0" stroke-width="2" fill="#fff" fill-opacity="0"/><g><use xlink:href="#y" transform="matrix(1,0,0,1,1405.6666666666663,636.1088908341493) translate(1.1975308641975335 18.388888888888886)"/><use xlink:href="#z" transform="matrix(1,0,0,1,1405.6666666666663,636.1088908341493) translate(-0.777777777777775 39.722222222222214)"/></g><defs><linearGradient gradientUnits="userSpaceOnUse" id="a" x1="500" y1="739.79" x2="500" y2="579.79"><stop offset="19.2%" stop-color="#ced4db"/><stop offset="26.45%" stop-color="#fff"/><stop offset="45.29%" stop-color="#fff"/><stop offset="52.54%" stop-color="#cfe4ff"/><stop offset="73.91%" stop-color="#cfe4ff"/><stop offset="82.97%" stop-color="#c3f7c8"/></linearGradient><linearGradient gradientUnits="userSpaceOnUse" id="b" x1="600" y1="740" x2="600" y2="580"><stop offset="19.2%" stop-color="#ced4db"/><stop offset="26.45%" stop-color="#fff"/><stop offset="45.29%" stop-color="#fff"/><stop offset="52.54%" stop-color="#cfe4ff"/><stop offset="73.91%" stop-color="#cfe4ff"/><stop offset="82.97%" stop-color="#c3f7c8"/></linearGradient><linearGradient gradientUnits="userSpaceOnUse" id="c" x1="720" y1="739.78" x2="720" y2="579.78"><stop offset="19.2%" stop-color="#ced4db"/><stop offset="26.45%" stop-color="#fff"/><stop offset="45.29%" stop-color="#fff"/><stop offset="52.54%" stop-color="#cfe4ff"/><stop offset="73.91%" stop-color="#cfe4ff"/><stop offset="82.97%" stop-color="#c3f7c8"/></linearGradient><path d="M212-179c-10-28-35-45-73-45-59 0-87 40-87 99 0 60 29 101 89 101 43 0 62-24 78-52l27 14C228-24 195 4 139 4 59 4 22-46 18-125c-6-104 99-153 187-111 19 9 31 26 39 46" id="A"/><path d="M24 0v-261h32V0H24" id="B"/><path d="M24-231v-30h32v30H24zM24 0v-190h32V0H24" id="C"/><path d="M100-194c63 0 86 42 84 106H49c0 40 14 67 53 68 26 1 43-12 49-29l28 8c-11 28-37 45-77 45C44 4 14-33 15-96c1-61 26-98 85-98zm52 81c6-60-76-77-97-28-3 7-6 17-6 28h103" id="D"/><path d="M117-194c89-4 53 116 60 194h-32v-121c0-31-8-49-39-48C34-167 62-67 57 0H25l-1-190h30c1 10-1 24 2 32 11-22 29-35 61-36" id="E"/><path d="M59-47c-2 24 18 29 38 22v24C64 9 27 4 27-40v-127H5v-23h24l9-43h21v43h35v23H59v120" id="F"/><g id="d"><use transform="matrix(0.06790123456790119,0,0,0.06790123456790119,0,0)" xlink:href="#A"/><use transform="matrix(0.06790123456790119,0,0,0.06790123456790119,17.586419753086407,0)" xlink:href="#B"/><use transform="matrix(0.06790123456790119,0,0,0.06790123456790119,22.9506172839506,0)" xlink:href="#C"/><use transform="matrix(0.06790123456790119,0,0,0.06790123456790119,28.314814814814795,0)" xlink:href="#D"/><use transform="matrix(0.06790123456790119,0,0,0.06790123456790119,41.895061728395035,0)" xlink:href="#E"/><use transform="matrix(0.06790123456790119,0,0,0.06790123456790119,55.475308641975275,0)" xlink:href="#F"/></g><path d="M205 0l-28-72H64L36 0H1l101-248h38L239 0h-34zm-38-99l-47-123c-12 45-31 82-46 123h93" id="G"/><use transform="matrix(0.07407407407407406,0,0,0.07407407407407406,0,0)" xlink:href="#G" id="e"/><path d="M135-143c-3-34-86-38-87 0 15 53 115 12 119 90S17 21 10-45l28-5c4 36 97 45 98 0-10-56-113-15-118-90-4-57 82-63 122-42 12 7 21 19 24 35" id="H"/><path d="M114-163C36-179 61-72 57 0H25l-1-190h30c1 12-1 29 2 39 6-27 23-49 58-41v29" id="I"/><path d="M108 0H70L1-190h34L89-25l56-165h34" id="J"/><path d="M96-169c-40 0-48 33-48 73s9 75 48 75c24 0 41-14 43-38l32 2c-6 37-31 61-74 61-59 0-76-41-82-99-10-93 101-131 147-64 4 7 5 14 7 22l-32 3c-4-21-16-35-41-35" id="K"/><g id="f"><use transform="matrix(0.07407407407407406,0,0,0.07407407407407406,0,0)" xlink:href="#H"/><use transform="matrix(0.07407407407407406,0,0,0.07407407407407406,13.33333333333333,0)" xlink:href="#D"/><use transform="matrix(0.07407407407407406,0,0,0.07407407407407406,28.14814814814814,0)" xlink:href="#I"/><use transform="matrix(0.07407407407407406,0,0,0.07407407407407406,36.962962962962955,0)" xlink:href="#J"/><use transform="matrix(0.07407407407407406,0,0,0.07407407407407406,50.29629629629628,0)" xlink:href="#C"/><use transform="matrix(0.07407407407407406,0,0,0.07407407407407406,56.14814814814813,0)" xlink:href="#K"/><use transform="matrix(0.07407407407407406,0,0,0.07407407407407406,69.48148148148147,0)" xlink:href="#D"/></g><path d="M85-194c31 0 48 13 60 33l-1-100h32l1 261h-30c-2-10 0-23-3-31C134-8 116 4 85 4 32 4 16-35 15-94c0-66 23-100 70-100zm9 24c-40 0-46 34-46 75 0 40 6 74 45 74 42 0 51-32 51-76 0-42-9-74-50-73" id="L"/><path d="M115-194c55 1 70 41 70 98S169 2 115 4C84 4 66-9 55-30l1 105H24l-1-265h31l2 30c10-21 28-34 59-34zm-8 174c40 0 45-34 45-75s-6-73-45-74c-42 0-51 32-51 76 0 43 10 73 51 73" id="M"/><g id="g"><use transform="matrix(0.07407407407407406,0,0,0.07407407407407406,0,0)" xlink:href="#L"/><use transform="matrix(0.07407407407407406,0,0,0.07407407407407406,14.814814814814811,0)" xlink:href="#D"/><use transform="matrix(0.07407407407407406,0,0,0.07407407407407406,29.629629629629623,0)" xlink:href="#M"/><use transform="matrix(0.07407407407407406,0,0,0.07407407407407406,44.444444444444436,0)" xlink:href="#D"/><use transform="matrix(0.07407407407407406,0,0,0.07407407407407406,59.259259259259245,0)" xlink:href="#E"/><use transform="matrix(0.07407407407407406,0,0,0.07407407407407406,74.07407407407406,0)" xlink:href="#L"/><use transform="matrix(0.07407407407407406,0,0,0.07407407407407406,88.88888888888887,0)" xlink:href="#H"/></g><path d="M100-194c62-1 85 37 85 99 1 63-27 99-86 99S16-35 15-95c0-66 28-99 85-99zM99-20c44 1 53-31 53-75 0-43-8-75-51-75s-53 32-53 75 10 74 51 75" id="N"/><g id="h"><use transform="matrix(0.07407407407407406,0,0,0.07407407407407406,0,0)" xlink:href="#N"/><use transform="matrix(0.07407407407407406,0,0,0.07407407407407406,14.814814814814811,0)" xlink:href="#E"/></g><path d="M206 0h-36l-40-164L89 0H53L-1-190h32L70-26l43-164h34l41 164 42-164h31" id="O"/><path d="M106-169C34-169 62-67 57 0H25v-261h32l-1 103c12-21 28-36 61-36 89 0 53 116 60 194h-32v-121c2-32-8-49-39-48" id="P"/><path d="M141-36C126-15 110 5 73 4 37 3 15-17 15-53c-1-64 63-63 125-63 3-35-9-54-41-54-24 1-41 7-42 31l-33-3c5-37 33-52 76-52 45 0 72 20 72 64v82c-1 20 7 32 28 27v20c-31 9-61-2-59-35zM48-53c0 20 12 33 32 33 41-3 63-29 60-74-43 2-92-5-92 41" id="Q"/><g id="i"><use transform="matrix(0.07407407407407406,0,0,0.07407407407407406,0,0)" xlink:href="#O"/><use transform="matrix(0.07407407407407406,0,0,0.07407407407407406,19.18518518518518,0)" xlink:href="#P"/><use transform="matrix(0.07407407407407406,0,0,0.07407407407407406,33.99999999999999,0)" xlink:href="#Q"/><use transform="matrix(0.07407407407407406,0,0,0.07407407407407406,48.8148148148148,0)" xlink:href="#F"/><use transform="matrix(0.07407407407407406,0,0,0.07407407407407406,56.22222222222221,0)" xlink:href="#D"/><use transform="matrix(0.07407407407407406,0,0,0.07407407407407406,71.03703703703702,0)" xlink:href="#J"/><use transform="matrix(0.07407407407407406,0,0,0.07407407407407406,84.37037037037035,0)" xlink:href="#D"/><use transform="matrix(0.07407407407407406,0,0,0.07407407407407406,99.18518518518516,0)" xlink:href="#I"/></g><g id="j"><use transform="matrix(0.07407407407407406,0,0,0.07407407407407406,0,0)" xlink:href="#C"/><use transform="matrix(0.07407407407407406,0,0,0.07407407407407406,5.85185185185185,0)" xlink:href="#F"/></g><path d="M84 4C-5 8 30-112 23-190h32v120c0 31 7 50 39 49 72-2 45-101 50-169h31l1 190h-30c-1-10 1-25-2-33-11 22-28 36-60 37" id="R"/><g id="k"><use transform="matrix(0.07407407407407406,0,0,0.07407407407407406,0,0)" xlink:href="#R"/><use transform="matrix(0.07407407407407406,0,0,0.07407407407407406,14.814814814814811,0)" xlink:href="#H"/><use transform="matrix(0.07407407407407406,0,0,0.07407407407407406,28.14814814814814,0)" xlink:href="#D"/><use transform="matrix(0.07407407407407406,0,0,0.07407407407407406,42.962962962962955,0)" xlink:href="#H"/></g><linearGradient gradientUnits="userSpaceOnUse" id="l" x1="821.5" y1="739.78" x2="821.5" y2="579.78"><stop offset="19.2%" stop-color="#ced4db"/><stop offset="26.45%" stop-color="#fff"/><stop offset="45.29%" stop-color="#fff"/><stop offset="52.54%" stop-color="#cfe4ff"/><stop offset="73.91%" stop-color="#cfe4ff"/><stop offset="82.97%" stop-color="#c3f7c8"/></linearGradient><linearGradient gradientUnits="userSpaceOnUse" id="m" x1="1120" y1="739.34" x2="1120" y2="579.34"><stop offset="19.2%" stop-color="#ced4db"/><stop offset="26.45%" stop-color="#fff"/><stop offset="45.29%" stop-color="#fff"/><stop offset="52.54%" stop-color="#cfe4ff"/><stop offset="73.91%" stop-color="#cfe4ff"/><stop offset="82.97%" stop-color="#c3f7c8"/></linearGradient><linearGradient gradientUnits="userSpaceOnUse" id="n" x1="1220" y1="739.55" x2="1220" y2="579.55"><stop offset="19.2%" stop-color="#ced4db"/><stop offset="26.45%" stop-color="#fff"/><stop offset="45.29%" stop-color="#fff"/><stop offset="52.54%" stop-color="#cfe4ff"/><stop offset="73.91%" stop-color="#cfe4ff"/><stop offset="82.97%" stop-color="#c3f7c8"/></linearGradient><linearGradient gradientUnits="userSpaceOnUse" id="o" x1="1340" y1="739.33" x2="1340" y2="579.33"><stop offset="19.2%" stop-color="#ced4db"/><stop offset="26.45%" stop-color="#fff"/><stop offset="45.29%" stop-color="#fff"/><stop offset="52.54%" stop-color="#cfe4ff"/><stop offset="73.91%" stop-color="#cfe4ff"/><stop offset="82.97%" stop-color="#c3f7c8"/></linearGradient><linearGradient gradientUnits="userSpaceOnUse" id="p" x1="1441.5" y1="739.33" x2="1441.5" y2="579.33"><stop offset="19.2%" stop-color="#ced4db"/><stop offset="26.45%" stop-color="#fff"/><stop offset="45.29%" stop-color="#fff"/><stop offset="52.54%" stop-color="#cfe4ff"/><stop offset="73.91%" stop-color="#cfe4ff"/><stop offset="82.97%" stop-color="#c3f7c8"/></linearGradient><path fill="#ba23f6" d="M135-150c-39-12-60 13-60 57V0H25l-1-190h47c2 13-1 29 3 40 6-28 27-53 61-41v41" id="S"/><path fill="#ba23f6" d="M185-48c-13 30-37 53-82 52C43 2 14-33 14-96s30-98 90-98c62 0 83 45 84 108H66c0 31 8 55 39 56 18 0 30-7 34-22zm-45-69c5-46-57-63-70-21-2 6-4 13-4 21h74" id="T"/><path fill="#ba23f6" d="M84 4C32 4 15-41 15-95c0-55 18-99 73-99 29 0 47 12 58 34l2-30h48l-1 265h-49V-32C136-9 114 4 84 4zm21-34c32 0 41-29 41-66 0-36-9-64-40-64-33 0-39 30-40 65 0 43 13 65 39 65" id="U"/><g id="q"><use transform="matrix(0.049382716049382706,0,0,0.049382716049382706,0,0)" xlink:href="#S"/><use transform="matrix(0.049382716049382706,0,0,0.049382716049382706,6.913580246913579,0)" xlink:href="#T"/><use transform="matrix(0.049382716049382706,0,0,0.049382716049382706,16.79012345679012,0)" xlink:href="#U"/></g><path fill="#ba23f6" d="M190-63c-7 42-38 67-86 67-59 0-84-38-90-98-12-110 154-137 174-36l-49 2c-2-19-15-32-35-32-30 0-35 28-38 64-6 74 65 87 74 30" id="V"/><path fill="#ba23f6" d="M121-226c-27-7-43 5-38 36h38v33H83V0H34v-157H6v-33h28c-9-59 32-81 87-68v32" id="W"/><path fill="#ba23f6" d="M220-157c-53 9-28 100-34 157h-49v-107c1-27-5-49-29-50C55-147 81-57 75 0H25l-1-190h47c2 12-1 28 3 38 10-53 101-56 108 0 13-22 24-43 59-42 82 1 51 116 57 194h-49v-107c-1-25-5-48-29-50" id="X"/><g id="r"><use transform="matrix(0.049382716049382706,0,0,0.049382716049382706,0,0)" xlink:href="#V"/><use transform="matrix(0.049382716049382706,0,0,0.049382716049382706,9.87654320987654,0)" xlink:href="#W"/><use transform="matrix(0.049382716049382706,0,0,0.049382716049382706,15.75308641975308,0)" xlink:href="#X"/></g><path d="M135-150c-39-12-60 13-60 57V0H25l-1-190h47c2 13-1 29 3 40 6-28 27-53 61-41v41" id="Y"/><path d="M185-48c-13 30-37 53-82 52C43 2 14-33 14-96s30-98 90-98c62 0 83 45 84 108H66c0 31 8 55 39 56 18 0 30-7 34-22zm-45-69c5-46-57-63-70-21-2 6-4 13-4 21h74" id="Z"/><path d="M84 4C32 4 15-41 15-95c0-55 18-99 73-99 29 0 47 12 58 34l2-30h48l-1 265h-49V-32C136-9 114 4 84 4zm21-34c32 0 41-29 41-66 0-36-9-64-40-64-33 0-39 30-40 65 0 43 13 65 39 65" id="aa"/><g id="s"><use transform="matrix(0.049382716049382706,0,0,0.049382716049382706,0,0)" xlink:href="#Y"/><use transform="matrix(0.049382716049382706,0,0,0.049382716049382706,6.913580246913579,0)" xlink:href="#Z"/><use transform="matrix(0.049382716049382706,0,0,0.049382716049382706,16.79012345679012,0)" xlink:href="#aa"/></g><path d="M190-63c-7 42-38 67-86 67-59 0-84-38-90-98-12-110 154-137 174-36l-49 2c-2-19-15-32-35-32-30 0-35 28-38 64-6 74 65 87 74 30" id="ab"/><path d="M121-226c-27-7-43 5-38 36h38v33H83V0H34v-157H6v-33h28c-9-59 32-81 87-68v32" id="ac"/><path d="M220-157c-53 9-28 100-34 157h-49v-107c1-27-5-49-29-50C55-147 81-57 75 0H25l-1-190h47c2 12-1 28 3 38 10-53 101-56 108 0 13-22 24-43 59-42 82 1 51 116 57 194h-49v-107c-1-25-5-48-29-50" id="ad"/><g id="t"><use transform="matrix(0.049382716049382706,0,0,0.049382716049382706,0,0)" xlink:href="#ab"/><use transform="matrix(0.049382716049382706,0,0,0.049382716049382706,9.87654320987654,0)" xlink:href="#ac"/><use transform="matrix(0.049382716049382706,0,0,0.049382716049382706,15.75308641975308,0)" xlink:href="#ad"/></g><path fill="#008a0e" d="M135-150c-39-12-60 13-60 57V0H25l-1-190h47c2 13-1 29 3 40 6-28 27-53 61-41v41" id="ae"/><path fill="#008a0e" d="M185-48c-13 30-37 53-82 52C43 2 14-33 14-96s30-98 90-98c62 0 83 45 84 108H66c0 31 8 55 39 56 18 0 30-7 34-22zm-45-69c5-46-57-63-70-21-2 6-4 13-4 21h74" id="af"/><path fill="#008a0e" d="M84 4C32 4 15-41 15-95c0-55 18-99 73-99 29 0 47 12 58 34l2-30h48l-1 265h-49V-32C136-9 114 4 84 4zm21-34c32 0 41-29 41-66 0-36-9-64-40-64-33 0-39 30-40 65 0 43 13 65 39 65" id="ag"/><g id="u"><use transform="matrix(0.049382716049382706,0,0,0.049382716049382706,0,0)" xlink:href="#ae"/><use transform="matrix(0.049382716049382706,0,0,0.049382716049382706,6.913580246913579,0)" xlink:href="#af"/><use transform="matrix(0.049382716049382706,0,0,0.049382716049382706,16.79012345679012,0)" xlink:href="#ag"/></g><path fill="#008a0e" d="M190-63c-7 42-38 67-86 67-59 0-84-38-90-98-12-110 154-137 174-36l-49 2c-2-19-15-32-35-32-30 0-35 28-38 64-6 74 65 87 74 30" id="ah"/><path fill="#008a0e" d="M121-226c-27-7-43 5-38 36h38v33H83V0H34v-157H6v-33h28c-9-59 32-81 87-68v32" id="ai"/><path fill="#008a0e" d="M220-157c-53 9-28 100-34 157h-49v-107c1-27-5-49-29-50C55-147 81-57 75 0H25l-1-190h47c2 12-1 28 3 38 10-53 101-56 108 0 13-22 24-43 59-42 82 1 51 116 57 194h-49v-107c-1-25-5-48-29-50" id="aj"/><g id="v"><use transform="matrix(0.049382716049382706,0,0,0.049382716049382706,0,0)" xlink:href="#ah"/><use transform="matrix(0.049382716049382706,0,0,0.049382716049382706,9.87654320987654,0)" xlink:href="#ai"/><use transform="matrix(0.049382716049382706,0,0,0.049382716049382706,15.75308641975308,0)" xlink:href="#aj"/></g><path fill="#1071e5" d="M135-150c-39-12-60 13-60 57V0H25l-1-190h47c2 13-1 29 3 40 6-28 27-53 61-41v41" id="ak"/><path fill="#1071e5" d="M185-48c-13 30-37 53-82 52C43 2 14-33 14-96s30-98 90-98c62 0 83 45 84 108H66c0 31 8 55 39 56 18 0 30-7 34-22zm-45-69c5-46-57-63-70-21-2 6-4 13-4 21h74" id="al"/><path fill="#1071e5" d="M84 4C32 4 15-41 15-95c0-55 18-99 73-99 29 0 47 12 58 34l2-30h48l-1 265h-49V-32C136-9 114 4 84 4zm21-34c32 0 41-29 41-66 0-36-9-64-40-64-33 0-39 30-40 65 0 43 13 65 39 65" id="am"/><g id="w"><use transform="matrix(0.049382716049382706,0,0,0.049382716049382706,0,0)" xlink:href="#ak"/><use transform="matrix(0.049382716049382706,0,0,0.049382716049382706,6.913580246913579,0)" xlink:href="#al"/><use transform="matrix(0.049382716049382706,0,0,0.049382716049382706,16.79012345679012,0)" xlink:href="#am"/></g><path fill="#1071e5" d="M190-63c-7 42-38 67-86 67-59 0-84-38-90-98-12-110 154-137 174-36l-49 2c-2-19-15-32-35-32-30 0-35 28-38 64-6 74 65 87 74 30" id="an"/><path fill="#1071e5" d="M121-226c-27-7-43 5-38 36h38v33H83V0H34v-157H6v-33h28c-9-59 32-81 87-68v32" id="ao"/><path fill="#1071e5" d="M220-157c-53 9-28 100-34 157h-49v-107c1-27-5-49-29-50C55-147 81-57 75 0H25l-1-190h47c2 12-1 28 3 38 10-53 101-56 108 0 13-22 24-43 59-42 82 1 51 116 57 194h-49v-107c-1-25-5-48-29-50" id="ap"/><g id="x"><use transform="matrix(0.049382716049382706,0,0,0.049382716049382706,0,0)" xlink:href="#an"/><use transform="matrix(0.049382716049382706,0,0,0.049382716049382706,9.87654320987654,0)" xlink:href="#ao"/><use transform="matrix(0.049382716049382706,0,0,0.049382716049382706,15.75308641975308,0)" xlink:href="#ap"/></g><path fill="#82755b" d="M135-150c-39-12-60 13-60 57V0H25l-1-190h47c2 13-1 29 3 40 6-28 27-53 61-41v41" id="aq"/><path fill="#82755b" d="M185-48c-13 30-37 53-82 52C43 2 14-33 14-96s30-98 90-98c62 0 83 45 84 108H66c0 31 8 55 39 56 18 0 30-7 34-22zm-45-69c5-46-57-63-70-21-2 6-4 13-4 21h74" id="ar"/><path fill="#82755b" d="M84 4C32 4 15-41 15-95c0-55 18-99 73-99 29 0 47 12 58 34l2-30h48l-1 265h-49V-32C136-9 114 4 84 4zm21-34c32 0 41-29 41-66 0-36-9-64-40-64-33 0-39 30-40 65 0 43 13 65 39 65" id="as"/><g id="y"><use transform="matrix(0.049382716049382706,0,0,0.049382716049382706,0,0)" xlink:href="#aq"/><use transform="matrix(0.049382716049382706,0,0,0.049382716049382706,6.913580246913579,0)" xlink:href="#ar"/><use transform="matrix(0.049382716049382706,0,0,0.049382716049382706,16.79012345679012,0)" xlink:href="#as"/></g><path fill="#82755b" d="M190-63c-7 42-38 67-86 67-59 0-84-38-90-98-12-110 154-137 174-36l-49 2c-2-19-15-32-35-32-30 0-35 28-38 64-6 74 65 87 74 30" id="at"/><path fill="#82755b" d="M121-226c-27-7-43 5-38 36h38v33H83V0H34v-157H6v-33h28c-9-59 32-81 87-68v32" id="au"/><path fill="#82755b" d="M220-157c-53 9-28 100-34 157h-49v-107c1-27-5-49-29-50C55-147 81-57 75 0H25l-1-190h47c2 12-1 28 3 38 10-53 101-56 108 0 13-22 24-43 59-42 82 1 51 116 57 194h-49v-107c-1-25-5-48-29-50" id="av"/><g id="z"><use transform="matrix(0.049382716049382706,0,0,0.049382716049382706,0,0)" xlink:href="#at"/><use transform="matrix(0.049382716049382706,0,0,0.049382716049382706,9.87654320987654,0)" xlink:href="#au"/><use transform="matrix(0.049382716049382706,0,0,0.049382716049382706,15.75308641975308,0)" xlink:href="#av"/></g></defs></g></svg>