<svg xmlns="http://www.w3.org/2000/svg" xmlns:xlink="http://www.w3.org/1999/xlink" xmlns:lucid="lucid" width="1063" height="284.5"><g transform="translate(-718.5 -357)" lucid:page-tab-id="0_0"><path d="M1278.6 428.85l-2.97.6m-3.97.78l-5.96 1.18m-3.97.8l-5.96 1.18m-3.97.78l-5.96 1.2m-3.97.77l-5.96 1.2m-3.96.77l-5.96 1.18m-3.97.8l-5.95 1.17m-3.97.8l-5.96 1.17m-3.97.8l-5.96 1.17m-4 .78l-5.94 1.18m-3.97.8l-5.97 1.17m-3.97.8l-5.96 1.17m-3.98.8l-5.95 1.17m-3.98.8l-5.96 1.17m-3.98.78l-5.95 1.2m-3.97.77l-5.95 1.18m-3.98.78l-5.96 1.18m-3.97.8l-5.95 1.17m-3.98.8l-5.95 1.18m-4 .8l-5.95 1.17m-3.97.8l-5.95 1.17m-3.98.8l-5.96 1.17m-3.98.78l-5.96 1.18m-3.97.8l-5.97 1.17m-3.97.78l-5.96 1.2m-3.97.78l-5.96 1.2m-3.97.77l-5.96 1.2m-3.97.77l-5.96 1.18m-3.96.8l-5.96 1.17m-3.97.8l-5.95 1.17m-3.97.8l-5.96 1.17m-3.97.8l-5.96 1.18m-3.98.8l-5.96 1.17m-3.97.8l-5.97 1.17m-3.97.8l-2.98.58" stroke="#000" stroke-width="2" fill="none"/><path d="M1279.6 429.65l-.83.16-.38-1.9 1.2-.24z" stroke="#000" stroke-width=".05" fill="#000"/><path d="M941 495.8l-1 .2" stroke="#000" stroke-width="2" fill="none"/><path d="M980 440a20 20 0 0 1 20-20h180a20 20 0 0 1 20 20v180a20 20 0 0 1-20 20h-180a20 20 0 0 1-20-20z" fill-opacity="0"/><path d="M978.5 440a1.5 1.5 0 0 1 1.5-1.5 1.5 1.5 0 0 1 1.5 1.5 1.5 1.5 0 0 1-1.5 1.5 1.5 1.5 0 0 1-1.5-1.5m2.73-9.96a1.5 1.5 0 0 1 1.5-1.5 1.5 1.5 0 0 1 1.5 1.5 1.5 1.5 0 0 1-1.5 1.5 1.5 1.5 0 0 1-1.5-1.5V430m7.3-7.26a1.5 1.5 0 0 1 1.5-1.5 1.5 1.5 0 0 1 1.5 1.5 1.5 1.5 0 0 1-1.5 1.5 1.5 1.5 0 0 1-1.5-1.5v-.03m9.97-2.7a1.5 1.5 0 0 1 1.5-1.5 1.5 1.5 0 0 1 1.5 1.5 1.5 1.5 0 0 1-1.5 1.5 1.5 1.5 0 0 1-1.5-1.5m12 0a1.5 1.5 0 0 1 1.5-1.5 1.5 1.5 0 0 1 1.5 1.5 1.5 1.5 0 0 1-1.5 1.5 1.5 1.5 0 0 1-1.5-1.5m12 0a1.5 1.5 0 0 1 1.5-1.5 1.5 1.5 0 0 1 1.5 1.5 1.5 1.5 0 0 1-1.5 1.5 1.5 1.5 0 0 1-1.5-1.5m12 0a1.5 1.5 0 0 1 1.5-1.5 1.5 1.5 0 0 1 1.5 1.5 1.5 1.5 0 0 1-1.5 1.5 1.5 1.5 0 0 1-1.5-1.5m12 0a1.5 1.5 0 0 1 1.5-1.5 1.5 1.5 0 0 1 1.5 1.5 1.5 1.5 0 0 1-1.5 1.5 1.5 1.5 0 0 1-1.5-1.5m12 0a1.5 1.5 0 0 1 1.5-1.5 1.5 1.5 0 0 1 1.5 1.5 1.5 1.5 0 0 1-1.5 1.5 1.5 1.5 0 0 1-1.5-1.5m12 0a1.5 1.5 0 0 1 1.5-1.5 1.5 1.5 0 0 1 1.5 1.5 1.5 1.5 0 0 1-1.5 1.5 1.5 1.5 0 0 1-1.5-1.5m12 0a1.5 1.5 0 0 1 1.5-1.5 1.5 1.5 0 0 1 1.5 1.5 1.5 1.5 0 0 1-1.5 1.5 1.5 1.5 0 0 1-1.5-1.5m12 0a1.5 1.5 0 0 1 1.5-1.5 1.5 1.5 0 0 1 1.5 1.5 1.5 1.5 0 0 1-1.5 1.5 1.5 1.5 0 0 1-1.5-1.5m12 0a1.5 1.5 0 0 1 1.5-1.5 1.5 1.5 0 0 1 1.5 1.5 1.5 1.5 0 0 1-1.5 1.5 1.5 1.5 0 0 1-1.5-1.5m12 0a1.5 1.5 0 0 1 1.5-1.5 1.5 1.5 0 0 1 1.5 1.5 1.5 1.5 0 0 1-1.5 1.5 1.5 1.5 0 0 1-1.5-1.5m12 0a1.5 1.5 0 0 1 1.5-1.5 1.5 1.5 0 0 1 1.5 1.5 1.5 1.5 0 0 1-1.5 1.5 1.5 1.5 0 0 1-1.5-1.5m12 0a1.5 1.5 0 0 1 1.5-1.5 1.5 1.5 0 0 1 1.5 1.5 1.5 1.5 0 0 1-1.5 1.5 1.5 1.5 0 0 1-1.5-1.5m12 0a1.5 1.5 0 0 1 1.5-1.5 1.5 1.5 0 0 1 1.5 1.5 1.5 1.5 0 0 1-1.5 1.5 1.5 1.5 0 0 1-1.5-1.5m12 0a1.5 1.5 0 0 1 1.5-1.5 1.5 1.5 0 0 1 1.5 1.5 1.5 1.5 0 0 1-1.5 1.5 1.5 1.5 0 0 1-1.5-1.5m12 0a1.5 1.5 0 0 1 1.5-1.5 1.5 1.5 0 0 1 1.5 1.5 1.5 1.5 0 0 1-1.5 1.5 1.5 1.5 0 0 1-1.5-1.5m9.97 2.74a1.5 1.5 0 0 1 1.5-1.5 1.5 1.5 0 0 1 1.5 1.5 1.5 1.5 0 0 1-1.5 1.5 1.5 1.5 0 0 1-1.5-1.5v-.03m7.3 7.34a1.5 1.5 0 0 1 1.5-1.5 1.5 1.5 0 0 1 1.5 1.5 1.5 1.5 0 0 1-1.5 1.5 1.5 1.5 0 0 1-1.5-1.5V430m2.73 10a1.5 1.5 0 0 1 1.5-1.5 1.5 1.5 0 0 1 1.5 1.5 1.5 1.5 0 0 1-1.5 1.5 1.5 1.5 0 0 1-1.5-1.5m0 12a1.5 1.5 0 0 1 1.5-1.5 1.5 1.5 0 0 1 1.5 1.5 1.5 1.5 0 0 1-1.5 1.5 1.5 1.5 0 0 1-1.5-1.5m0 12a1.5 1.5 0 0 1 1.5-1.5 1.5 1.5 0 0 1 1.5 1.5 1.5 1.5 0 0 1-1.5 1.5 1.5 1.5 0 0 1-1.5-1.5m0 12a1.5 1.5 0 0 1 1.5-1.5 1.5 1.5 0 0 1 1.5 1.5 1.5 1.5 0 0 1-1.5 1.5 1.5 1.5 0 0 1-1.5-1.5m0 12a1.5 1.5 0 0 1 1.5-1.5 1.5 1.5 0 0 1 1.5 1.5 1.5 1.5 0 0 1-1.5 1.5 1.5 1.5 0 0 1-1.5-1.5m0 12a1.5 1.5 0 0 1 1.5-1.5 1.5 1.5 0 0 1 1.5 1.5 1.5 1.5 0 0 1-1.5 1.5 1.5 1.5 0 0 1-1.5-1.5m0 12a1.5 1.5 0 0 1 1.5-1.5 1.5 1.5 0 0 1 1.5 1.5 1.5 1.5 0 0 1-1.5 1.5 1.5 1.5 0 0 1-1.5-1.5m0 12a1.5 1.5 0 0 1 1.5-1.5 1.5 1.5 0 0 1 1.5 1.5 1.5 1.5 0 0 1-1.5 1.5 1.5 1.5 0 0 1-1.5-1.5m0 12a1.5 1.5 0 0 1 1.5-1.5 1.5 1.5 0 0 1 1.5 1.5 1.5 1.5 0 0 1-1.5 1.5 1.5 1.5 0 0 1-1.5-1.5m0 12a1.5 1.5 0 0 1 1.5-1.5 1.5 1.5 0 0 1 1.5 1.5 1.5 1.5 0 0 1-1.5 1.5 1.5 1.5 0 0 1-1.5-1.5m0 12a1.5 1.5 0 0 1 1.5-1.5 1.5 1.5 0 0 1 1.5 1.5 1.5 1.5 0 0 1-1.5 1.5 1.5 1.5 0 0 1-1.5-1.5m0 12a1.5 1.5 0 0 1 1.5-1.5 1.5 1.5 0 0 1 1.5 1.5 1.5 1.5 0 0 1-1.5 1.5 1.5 1.5 0 0 1-1.5-1.5m0 12a1.5 1.5 0 0 1 1.5-1.5 1.5 1.5 0 0 1 1.5 1.5 1.5 1.5 0 0 1-1.5 1.5 1.5 1.5 0 0 1-1.5-1.5m0 12a1.5 1.5 0 0 1 1.5-1.5 1.5 1.5 0 0 1 1.5 1.5 1.5 1.5 0 0 1-1.5 1.5 1.5 1.5 0 0 1-1.5-1.5m0 12a1.5 1.5 0 0 1 1.5-1.5 1.5 1.5 0 0 1 1.5 1.5 1.5 1.5 0 0 1-1.5 1.5 1.5 1.5 0 0 1-1.5-1.5m0 12a1.5 1.5 0 0 1 1.5-1.5 1.5 1.5 0 0 1 1.5 1.5 1.5 1.5 0 0 1-1.5 1.5 1.5 1.5 0 0 1-1.5-1.5m-2.73 10v-.03a1.5 1.5 0 0 1 1.5-1.5 1.5 1.5 0 0 1 1.5 1.5 1.5 1.5 0 0 1-1.5 1.5 1.5 1.5 0 0 1-1.5-1.5m-7.3 7.32v-.03a1.5 1.5 0 0 1 1.5-1.5 1.5 1.5 0 0 1 1.5 1.5 1.5 1.5 0 0 1-1.5 1.5 1.5 1.5 0 0 1-1.5-1.5m-9.97 2.75V640a1.5 1.5 0 0 1 1.5-1.5 1.5 1.5 0 0 1 1.5 1.5 1.5 1.5 0 0 1-1.5 1.5 1.5 1.5 0 0 1-1.5-1.5m-12 0a1.5 1.5 0 0 1 1.5-1.5 1.5 1.5 0 0 1 1.5 1.5 1.5 1.5 0 0 1-1.5 1.5 1.5 1.5 0 0 1-1.5-1.5m-12 0a1.5 1.5 0 0 1 1.5-1.5 1.5 1.5 0 0 1 1.5 1.5 1.5 1.5 0 0 1-1.5 1.5 1.5 1.5 0 0 1-1.5-1.5m-12 0a1.5 1.5 0 0 1 1.5-1.5 1.5 1.5 0 0 1 1.5 1.5 1.5 1.5 0 0 1-1.5 1.5 1.5 1.5 0 0 1-1.5-1.5m-12 0a1.5 1.5 0 0 1 1.5-1.5 1.5 1.5 0 0 1 1.5 1.5 1.5 1.5 0 0 1-1.5 1.5 1.5 1.5 0 0 1-1.5-1.5m-12 0a1.5 1.5 0 0 1 1.5-1.5 1.5 1.5 0 0 1 1.5 1.5 1.5 1.5 0 0 1-1.5 1.5 1.5 1.5 0 0 1-1.5-1.5m-12 0a1.5 1.5 0 0 1 1.5-1.5 1.5 1.5 0 0 1 1.5 1.5 1.5 1.5 0 0 1-1.5 1.5 1.5 1.5 0 0 1-1.5-1.5m-12 0a1.5 1.5 0 0 1 1.5-1.5 1.5 1.5 0 0 1 1.5 1.5 1.5 1.5 0 0 1-1.5 1.5 1.5 1.5 0 0 1-1.5-1.5m-12 0a1.5 1.5 0 0 1 1.5-1.5 1.5 1.5 0 0 1 1.5 1.5 1.5 1.5 0 0 1-1.5 1.5 1.5 1.5 0 0 1-1.5-1.5m-12 0a1.5 1.5 0 0 1 1.5-1.5 1.5 1.5 0 0 1 1.5 1.5 1.5 1.5 0 0 1-1.5 1.5 1.5 1.5 0 0 1-1.5-1.5m-12 0a1.5 1.5 0 0 1 1.5-1.5 1.5 1.5 0 0 1 1.5 1.5 1.5 1.5 0 0 1-1.5 1.5 1.5 1.5 0 0 1-1.5-1.5m-12 0a1.5 1.5 0 0 1 1.5-1.5 1.5 1.5 0 0 1 1.5 1.5 1.5 1.5 0 0 1-1.5 1.5 1.5 1.5 0 0 1-1.5-1.5m-12 0a1.5 1.5 0 0 1 1.5-1.5 1.5 1.5 0 0 1 1.5 1.5 1.5 1.5 0 0 1-1.5 1.5 1.5 1.5 0 0 1-1.5-1.5m-12 0a1.5 1.5 0 0 1 1.5-1.5 1.5 1.5 0 0 1 1.5 1.5 1.5 1.5 0 0 1-1.5 1.5 1.5 1.5 0 0 1-1.5-1.5m-12 0a1.5 1.5 0 0 1 1.5-1.5 1.5 1.5 0 0 1 1.5 1.5 1.5 1.5 0 0 1-1.5 1.5 1.5 1.5 0 0 1-1.5-1.5m-12 0a1.5 1.5 0 0 1 1.5-1.5 1.5 1.5 0 0 1 1.5 1.5 1.5 1.5 0 0 1-1.5 1.5 1.5 1.5 0 0 1-1.5-1.5m-9.97-2.7v-.03a1.5 1.5 0 0 1 1.5-1.5 1.5 1.5 0 0 1 1.5 1.5 1.5 1.5 0 0 1-1.5 1.5 1.5 1.5 0 0 1-1.5-1.5m-7.3-7.28v-.03a1.5 1.5 0 0 1 1.5-1.5 1.5 1.5 0 0 1 1.5 1.5 1.5 1.5 0 0 1-1.5 1.5 1.5 1.5 0 0 1-1.5-1.5M978.5 620a1.5 1.5 0 0 1 1.5-1.5 1.5 1.5 0 0 1 1.5 1.5 1.5 1.5 0 0 1-1.5 1.5 1.5 1.5 0 0 1-1.5-1.5m0-12a1.5 1.5 0 0 1 1.5-1.5 1.5 1.5 0 0 1 1.5 1.5 1.5 1.5 0 0 1-1.5 1.5 1.5 1.5 0 0 1-1.5-1.5m0-12a1.5 1.5 0 0 1 1.5-1.5 1.5 1.5 0 0 1 1.5 1.5 1.5 1.5 0 0 1-1.5 1.5 1.5 1.5 0 0 1-1.5-1.5m0-12a1.5 1.5 0 0 1 1.5-1.5 1.5 1.5 0 0 1 1.5 1.5 1.5 1.5 0 0 1-1.5 1.5 1.5 1.5 0 0 1-1.5-1.5m0-12a1.5 1.5 0 0 1 1.5-1.5 1.5 1.5 0 0 1 1.5 1.5 1.5 1.5 0 0 1-1.5 1.5 1.5 1.5 0 0 1-1.5-1.5m0-12a1.5 1.5 0 0 1 1.5-1.5 1.5 1.5 0 0 1 1.5 1.5 1.5 1.5 0 0 1-1.5 1.5 1.5 1.5 0 0 1-1.5-1.5m0-12a1.5 1.5 0 0 1 1.5-1.5 1.5 1.5 0 0 1 1.5 1.5 1.5 1.5 0 0 1-1.5 1.5 1.5 1.5 0 0 1-1.5-1.5m0-12a1.5 1.5 0 0 1 1.5-1.5 1.5 1.5 0 0 1 1.5 1.5 1.5 1.5 0 0 1-1.5 1.5 1.5 1.5 0 0 1-1.5-1.5m0-12a1.5 1.5 0 0 1 1.5-1.5 1.5 1.5 0 0 1 1.5 1.5 1.5 1.5 0 0 1-1.5 1.5 1.5 1.5 0 0 1-1.5-1.5m0-12a1.5 1.5 0 0 1 1.5-1.5 1.5 1.5 0 0 1 1.5 1.5 1.5 1.5 0 0 1-1.5 1.5 1.5 1.5 0 0 1-1.5-1.5m0-12a1.5 1.5 0 0 1 1.5-1.5 1.5 1.5 0 0 1 1.5 1.5 1.5 1.5 0 0 1-1.5 1.5 1.5 1.5 0 0 1-1.5-1.5m0-12a1.5 1.5 0 0 1 1.5-1.5 1.5 1.5 0 0 1 1.5 1.5 1.5 1.5 0 0 1-1.5 1.5 1.5 1.5 0 0 1-1.5-1.5m0-12a1.5 1.5 0 0 1 1.5-1.5 1.5 1.5 0 0 1 1.5 1.5 1.5 1.5 0 0 1-1.5 1.5 1.5 1.5 0 0 1-1.5-1.5m0-12a1.5 1.5 0 0 1 1.5-1.5 1.5 1.5 0 0 1 1.5 1.5 1.5 1.5 0 0 1-1.5 1.5 1.5 1.5 0 0 1-1.5-1.5m0-12a1.5 1.5 0 0 1 1.5-1.5 1.5 1.5 0 0 1 1.5 1.5 1.5 1.5 0 0 1-1.5 1.5 1.5 1.5 0 0 1-1.5-1.5"/><path d="M1120 500a20 20 0 0 1 20-20h20a20 20 0 0 1 20 20v20a20 20 0 0 1-20 20h-20a20 20 0 0 1-20-20z" stroke="#000" stroke-width="3" fill="url(#a)"/><path d="M1150 560v-17.5" stroke="#000" stroke-width="2" fill="none"/><path d="M1150 575.26l-4.63-14.26h9.27z" stroke="#000" stroke-width="2"/><path d="M1150.97 542.53h-1.94v-1.03h1.94z" stroke="#000" stroke-width=".05"/><path d="M1038 600a20 20 0 0 1 20-20h102a20 20 0 0 1 20 20 20 20 0 0 1-20 20h-102a20 20 0 0 1-20-20z" stroke="#000" stroke-width="3" fill="#ced4db"/><path d="M1062 361v24.16M1058 361v24.16M1062 361.03V360M1058 361.03V360M1070 380l-10 17.32-10-17.32m10 17.32v-8.5" stroke="#e81313" stroke-width="2" fill="none"/><path d="M1038 500a20 20 0 0 1 20-20h22a20 20 0 0 1 20 20v20a20 20 0 0 1-20 20h-22a20 20 0 0 1-20-20z" stroke="#000" stroke-width="3" fill="url(#b)"/><path d="M1038 420a20 20 0 0 1 20-20h102a20 20 0 0 1 20 20 20 20 0 0 1-20 20h-102a20 20 0 0 1-20-20z" stroke="#000" stroke-width="3" fill="url(#c)"/><path d="M1069 560v-17.5" stroke="#e81313" stroke-width="2" fill="none"/><path d="M1069 575.26l-4.64-14.26h9.27z" stroke="#e81313" stroke-width="2" fill="#e81313"/><path d="M1069.97 542.53h-1.95v-1.03h1.95z" stroke="#e81313" stroke-width=".05" fill="#e81313"/><path d="M960 540a20 20 0 0 1 20-20 20 20 0 0 1 20 20v40a20 20 0 0 1-20 20 20 20 0 0 1-20-20z" stroke="#000" stroke-width="3" fill="url(#d)"/><path d="M957.5 542.12H946a8 8 0 0 1-8-8V366a4 4 0 0 0-4-4h-88a4 4 0 0 0-4 4v18.34" stroke="#e81313" stroke-width="2" fill="none"/><path d="M957.5 538.12H946a4 4 0 0 1-4-4V366a8 8 0 0 0-8-8h-88a8 8 0 0 0-8 8v18.34" stroke="#e81313" stroke-width="2" fill="none"/><path d="M958.5 543.1h-1.03v-1.95h1.03zM958.57 539.1h-1.1v-1.95h1.25z" stroke="#e81313" stroke-width=".05" fill="#e81313"/><path d="M850 379.18l-10 17.32-10-17.32m10 17.32V388M1078 397.5v-23.34M1082 397.5v-23.34" stroke="#e81313" stroke-width="2" fill="none"/><path d="M1078.97 398.5h-1.94v-1.03h1.94zM1082.97 398.5h-1.94v-1.03h1.94z" stroke="#e81313" stroke-width=".05" fill="#e81313"/><path d="M1070 379.32l10-17.32 10 17.32M1080 362v8.5M1062 442.5v23.34M1058 442.5v23.34" stroke="#e81313" stroke-width="2" fill="none"/><path d="M1062.97 442.53h-1.94v-1.03h1.94zM1057.94 441.5h1.03v1.03h-1.94v-1.1z" stroke="#e81313" stroke-width=".05" fill="#e81313"/><path d="M1070 460.68L1060 478l-10-17.32m10 17.32v-8.5M1078 477.5v-21.84M1082 477.5v-21.84" stroke="#e81313" stroke-width="2" fill="none"/><path d="M1078.97 478.5h-1.94v-1.03h1.94zM1082.97 478.73l-1.94-.15v-1.1h1.94z" stroke="#e81313" stroke-width=".05" fill="#e81313"/><path d="M1070 460.82l10-17.32 10 17.32m-10-17.32v8.5" stroke="#e81313" stroke-width="2" fill="none"/><path d="M1142 442.5v21.84M1138 442.5v21.84" stroke="#000" stroke-width="2" fill="none"/><path d="M1142.97 442.53h-1.94v-1.03h1.94zM1138.97 442.53h-1.94v-1.03h1.94z" stroke="#000" stroke-width=".05"/><path d="M1150 459.18l-10 17.32-10-17.32m10 17.32V468M1158 477.5v-21.84M1162 477.5v-21.84" stroke="#000" stroke-width="2" fill="none"/><path d="M1158.97 478.5h-1.94v-1.03h1.94zM1162.97 478.73l-1.94-.15v-1.1h1.94z" stroke="#000" stroke-width=".05"/><path d="M1150 460.82l10-17.32 10 17.32m-10-17.32v8.5" stroke="#000" stroke-width="2" fill="none"/><path d="M1037 512.18l-23.4 19.44M1034.45 509.1l-23.4 19.45" stroke="#e81313" stroke-width="2" fill="none"/><path d="M1036.5 511.6l-.14-.16.13-.1zM1036.5 508.67l-1.45 1.2-1.25-1.5 2.7-2.24z" stroke="#e81313" stroke-width=".05" fill="#e81313"/><path d="M1022.7 534.48l-19.73 3.38 6.93-18.76m-6.92 18.76l6.53-5.44M1000.8 577.22l32.1-32.1M1003.62 580.05l32.1-32.1" stroke="#e81313" stroke-width="2" fill="none"/><path d="M1001.5 577.9zM1004.33 580.72l-2.85 2.84-.24-.23.2-2.48 1.5-1.5z" stroke="#e81313" stroke-width=".05" fill="#e81313"/><path d="M1023.6 543.1l19.3-5.17-5.17 19.32m5.18-19.32l-6 6" stroke="#e81313" stroke-width="2" fill="none"/><path d="M720 440a20 20 0 0 1 20-20h140.4a20 20 0 0 1 20 20v180a20 20 0 0 1-20 20H740a20 20 0 0 1-20-20z" fill-opacity="0"/><path d="M718.5 440a1.5 1.5 0 0 1 1.5-1.5 1.5 1.5 0 0 1 1.5 1.5 1.5 1.5 0 0 1-1.5 1.5 1.5 1.5 0 0 1-1.5-1.5m2.73-9.96a1.5 1.5 0 0 1 1.5-1.5 1.5 1.5 0 0 1 1.5 1.5 1.5 1.5 0 0 1-1.5 1.5 1.5 1.5 0 0 1-1.5-1.5V430m7.3-7.26a1.5 1.5 0 0 1 1.5-1.5 1.5 1.5 0 0 1 1.5 1.5 1.5 1.5 0 0 1-1.5 1.5 1.5 1.5 0 0 1-1.5-1.5v-.03m9.97-2.7a1.5 1.5 0 0 1 1.5-1.5 1.5 1.5 0 0 1 1.5 1.5 1.5 1.5 0 0 1-1.5 1.5 1.5 1.5 0 0 1-1.5-1.5m11.7 0a1.5 1.5 0 0 1 1.5-1.5 1.5 1.5 0 0 1 1.5 1.5 1.5 1.5 0 0 1-1.5 1.5 1.5 1.5 0 0 1-1.5-1.5m11.7 0a1.5 1.5 0 0 1 1.5-1.5 1.5 1.5 0 0 1 1.5 1.5 1.5 1.5 0 0 1-1.5 1.5 1.5 1.5 0 0 1-1.5-1.5m11.7 0a1.5 1.5 0 0 1 1.5-1.5 1.5 1.5 0 0 1 1.5 1.5 1.5 1.5 0 0 1-1.5 1.5 1.5 1.5 0 0 1-1.5-1.5m11.7 0a1.5 1.5 0 0 1 1.5-1.5 1.5 1.5 0 0 1 1.5 1.5 1.5 1.5 0 0 1-1.5 1.5 1.5 1.5 0 0 1-1.5-1.5m11.7 0a1.5 1.5 0 0 1 1.5-1.5 1.5 1.5 0 0 1 1.5 1.5 1.5 1.5 0 0 1-1.5 1.5 1.5 1.5 0 0 1-1.5-1.5m11.7 0a1.5 1.5 0 0 1 1.5-1.5 1.5 1.5 0 0 1 1.5 1.5 1.5 1.5 0 0 1-1.5 1.5 1.5 1.5 0 0 1-1.5-1.5m11.7 0a1.5 1.5 0 0 1 1.5-1.5 1.5 1.5 0 0 1 1.5 1.5 1.5 1.5 0 0 1-1.5 1.5 1.5 1.5 0 0 1-1.5-1.5m11.7 0a1.5 1.5 0 0 1 1.5-1.5 1.5 1.5 0 0 1 1.5 1.5 1.5 1.5 0 0 1-1.5 1.5 1.5 1.5 0 0 1-1.5-1.5m11.7 0a1.5 1.5 0 0 1 1.5-1.5 1.5 1.5 0 0 1 1.5 1.5 1.5 1.5 0 0 1-1.5 1.5 1.5 1.5 0 0 1-1.5-1.5m11.7 0a1.5 1.5 0 0 1 1.5-1.5 1.5 1.5 0 0 1 1.5 1.5 1.5 1.5 0 0 1-1.5 1.5 1.5 1.5 0 0 1-1.5-1.5m11.7 0a1.5 1.5 0 0 1 1.5-1.5 1.5 1.5 0 0 1 1.5 1.5 1.5 1.5 0 0 1-1.5 1.5 1.5 1.5 0 0 1-1.5-1.5m11.7 0a1.5 1.5 0 0 1 1.5-1.5 1.5 1.5 0 0 1 1.5 1.5 1.5 1.5 0 0 1-1.5 1.5 1.5 1.5 0 0 1-1.5-1.5m9.98 2.74a1.5 1.5 0 0 1 1.5-1.5 1.5 1.5 0 0 1 1.5 1.5 1.5 1.5 0 0 1-1.5 1.5 1.5 1.5 0 0 1-1.5-1.5v-.03m7.3 7.34a1.5 1.5 0 0 1 1.5-1.5 1.5 1.5 0 0 1 1.5 1.5 1.5 1.5 0 0 1-1.5 1.5 1.5 1.5 0 0 1-1.5-1.5V430m2.73 10a1.5 1.5 0 0 1 1.5-1.5 1.5 1.5 0 0 1 1.5 1.5 1.5 1.5 0 0 1-1.5 1.5 1.5 1.5 0 0 1-1.5-1.5m0 12a1.5 1.5 0 0 1 1.5-1.5 1.5 1.5 0 0 1 1.5 1.5 1.5 1.5 0 0 1-1.5 1.5 1.5 1.5 0 0 1-1.5-1.5m0 12a1.5 1.5 0 0 1 1.5-1.5 1.5 1.5 0 0 1 1.5 1.5 1.5 1.5 0 0 1-1.5 1.5 1.5 1.5 0 0 1-1.5-1.5m0 12a1.5 1.5 0 0 1 1.5-1.5 1.5 1.5 0 0 1 1.5 1.5 1.5 1.5 0 0 1-1.5 1.5 1.5 1.5 0 0 1-1.5-1.5m0 12a1.5 1.5 0 0 1 1.5-1.5 1.5 1.5 0 0 1 1.5 1.5 1.5 1.5 0 0 1-1.5 1.5 1.5 1.5 0 0 1-1.5-1.5m0 12a1.5 1.5 0 0 1 1.5-1.5 1.5 1.5 0 0 1 1.5 1.5 1.5 1.5 0 0 1-1.5 1.5 1.5 1.5 0 0 1-1.5-1.5m0 12a1.5 1.5 0 0 1 1.5-1.5 1.5 1.5 0 0 1 1.5 1.5 1.5 1.5 0 0 1-1.5 1.5 1.5 1.5 0 0 1-1.5-1.5m0 12a1.5 1.5 0 0 1 1.5-1.5 1.5 1.5 0 0 1 1.5 1.5 1.5 1.5 0 0 1-1.5 1.5 1.5 1.5 0 0 1-1.5-1.5m0 12a1.5 1.5 0 0 1 1.5-1.5 1.5 1.5 0 0 1 1.5 1.5 1.5 1.5 0 0 1-1.5 1.5 1.5 1.5 0 0 1-1.5-1.5m0 12a1.5 1.5 0 0 1 1.5-1.5 1.5 1.5 0 0 1 1.5 1.5 1.5 1.5 0 0 1-1.5 1.5 1.5 1.5 0 0 1-1.5-1.5m0 12a1.5 1.5 0 0 1 1.5-1.5 1.5 1.5 0 0 1 1.5 1.5 1.5 1.5 0 0 1-1.5 1.5 1.5 1.5 0 0 1-1.5-1.5m0 12a1.5 1.5 0 0 1 1.5-1.5 1.5 1.5 0 0 1 1.5 1.5 1.5 1.5 0 0 1-1.5 1.5 1.5 1.5 0 0 1-1.5-1.5m0 12a1.5 1.5 0 0 1 1.5-1.5 1.5 1.5 0 0 1 1.5 1.5 1.5 1.5 0 0 1-1.5 1.5 1.5 1.5 0 0 1-1.5-1.5m0 12a1.5 1.5 0 0 1 1.5-1.5 1.5 1.5 0 0 1 1.5 1.5 1.5 1.5 0 0 1-1.5 1.5 1.5 1.5 0 0 1-1.5-1.5m0 12a1.5 1.5 0 0 1 1.5-1.5 1.5 1.5 0 0 1 1.5 1.5 1.5 1.5 0 0 1-1.5 1.5 1.5 1.5 0 0 1-1.5-1.5m0 12a1.5 1.5 0 0 1 1.5-1.5 1.5 1.5 0 0 1 1.5 1.5 1.5 1.5 0 0 1-1.5 1.5 1.5 1.5 0 0 1-1.5-1.5m-2.72 10v-.03a1.5 1.5 0 0 1 1.5-1.5 1.5 1.5 0 0 1 1.5 1.5 1.5 1.5 0 0 1-1.5 1.5 1.5 1.5 0 0 1-1.5-1.5m-7.3 7.32v-.03a1.5 1.5 0 0 1 1.5-1.5 1.5 1.5 0 0 1 1.5 1.5 1.5 1.5 0 0 1-1.5 1.5 1.5 1.5 0 0 1-1.5-1.5M878.9 640V640a1.5 1.5 0 0 1 1.5-1.5 1.5 1.5 0 0 1 1.5 1.5 1.5 1.5 0 0 1-1.5 1.5 1.5 1.5 0 0 1-1.5-1.5m-11.7 0a1.5 1.5 0 0 1 1.5-1.5 1.5 1.5 0 0 1 1.5 1.5 1.5 1.5 0 0 1-1.5 1.5 1.5 1.5 0 0 1-1.5-1.5m-11.7 0a1.5 1.5 0 0 1 1.5-1.5 1.5 1.5 0 0 1 1.5 1.5 1.5 1.5 0 0 1-1.5 1.5 1.5 1.5 0 0 1-1.5-1.5m-11.7 0a1.5 1.5 0 0 1 1.5-1.5 1.5 1.5 0 0 1 1.5 1.5 1.5 1.5 0 0 1-1.5 1.5 1.5 1.5 0 0 1-1.5-1.5m-11.7 0a1.5 1.5 0 0 1 1.5-1.5 1.5 1.5 0 0 1 1.5 1.5 1.5 1.5 0 0 1-1.5 1.5 1.5 1.5 0 0 1-1.5-1.5m-11.7 0a1.5 1.5 0 0 1 1.5-1.5 1.5 1.5 0 0 1 1.5 1.5 1.5 1.5 0 0 1-1.5 1.5 1.5 1.5 0 0 1-1.5-1.5m-11.7 0a1.5 1.5 0 0 1 1.5-1.5 1.5 1.5 0 0 1 1.5 1.5 1.5 1.5 0 0 1-1.5 1.5 1.5 1.5 0 0 1-1.5-1.5m-11.7 0a1.5 1.5 0 0 1 1.5-1.5 1.5 1.5 0 0 1 1.5 1.5 1.5 1.5 0 0 1-1.5 1.5 1.5 1.5 0 0 1-1.5-1.5m-11.7 0a1.5 1.5 0 0 1 1.5-1.5 1.5 1.5 0 0 1 1.5 1.5 1.5 1.5 0 0 1-1.5 1.5 1.5 1.5 0 0 1-1.5-1.5m-11.7 0a1.5 1.5 0 0 1 1.5-1.5 1.5 1.5 0 0 1 1.5 1.5 1.5 1.5 0 0 1-1.5 1.5 1.5 1.5 0 0 1-1.5-1.5m-11.7 0a1.5 1.5 0 0 1 1.5-1.5 1.5 1.5 0 0 1 1.5 1.5 1.5 1.5 0 0 1-1.5 1.5 1.5 1.5 0 0 1-1.5-1.5m-11.7 0a1.5 1.5 0 0 1 1.5-1.5 1.5 1.5 0 0 1 1.5 1.5 1.5 1.5 0 0 1-1.5 1.5 1.5 1.5 0 0 1-1.5-1.5m-11.7 0a1.5 1.5 0 0 1 1.5-1.5 1.5 1.5 0 0 1 1.5 1.5 1.5 1.5 0 0 1-1.5 1.5 1.5 1.5 0 0 1-1.5-1.5m-9.97-2.7v-.03a1.5 1.5 0 0 1 1.5-1.5 1.5 1.5 0 0 1 1.5 1.5 1.5 1.5 0 0 1-1.5 1.5 1.5 1.5 0 0 1-1.5-1.5m-7.3-7.28v-.03a1.5 1.5 0 0 1 1.5-1.5 1.5 1.5 0 0 1 1.5 1.5 1.5 1.5 0 0 1-1.5 1.5 1.5 1.5 0 0 1-1.5-1.5M718.5 620a1.5 1.5 0 0 1 1.5-1.5 1.5 1.5 0 0 1 1.5 1.5 1.5 1.5 0 0 1-1.5 1.5 1.5 1.5 0 0 1-1.5-1.5m0-12a1.5 1.5 0 0 1 1.5-1.5 1.5 1.5 0 0 1 1.5 1.5 1.5 1.5 0 0 1-1.5 1.5 1.5 1.5 0 0 1-1.5-1.5m0-12a1.5 1.5 0 0 1 1.5-1.5 1.5 1.5 0 0 1 1.5 1.5 1.5 1.5 0 0 1-1.5 1.5 1.5 1.5 0 0 1-1.5-1.5m0-12a1.5 1.5 0 0 1 1.5-1.5 1.5 1.5 0 0 1 1.5 1.5 1.5 1.5 0 0 1-1.5 1.5 1.5 1.5 0 0 1-1.5-1.5m0-12a1.5 1.5 0 0 1 1.5-1.5 1.5 1.5 0 0 1 1.5 1.5 1.5 1.5 0 0 1-1.5 1.5 1.5 1.5 0 0 1-1.5-1.5m0-12a1.5 1.5 0 0 1 1.5-1.5 1.5 1.5 0 0 1 1.5 1.5 1.5 1.5 0 0 1-1.5 1.5 1.5 1.5 0 0 1-1.5-1.5m0-12a1.5 1.5 0 0 1 1.5-1.5 1.5 1.5 0 0 1 1.5 1.5 1.5 1.5 0 0 1-1.5 1.5 1.5 1.5 0 0 1-1.5-1.5m0-12a1.5 1.5 0 0 1 1.5-1.5 1.5 1.5 0 0 1 1.5 1.5 1.5 1.5 0 0 1-1.5 1.5 1.5 1.5 0 0 1-1.5-1.5m0-12a1.5 1.5 0 0 1 1.5-1.5 1.5 1.5 0 0 1 1.5 1.5 1.5 1.5 0 0 1-1.5 1.5 1.5 1.5 0 0 1-1.5-1.5m0-12a1.5 1.5 0 0 1 1.5-1.5 1.5 1.5 0 0 1 1.5 1.5 1.5 1.5 0 0 1-1.5 1.5 1.5 1.5 0 0 1-1.5-1.5m0-12a1.5 1.5 0 0 1 1.5-1.5 1.5 1.5 0 0 1 1.5 1.5 1.5 1.5 0 0 1-1.5 1.5 1.5 1.5 0 0 1-1.5-1.5m0-12a1.5 1.5 0 0 1 1.5-1.5 1.5 1.5 0 0 1 1.5 1.5 1.5 1.5 0 0 1-1.5 1.5 1.5 1.5 0 0 1-1.5-1.5m0-12a1.5 1.5 0 0 1 1.5-1.5 1.5 1.5 0 0 1 1.5 1.5 1.5 1.5 0 0 1-1.5 1.5 1.5 1.5 0 0 1-1.5-1.5m0-12a1.5 1.5 0 0 1 1.5-1.5 1.5 1.5 0 0 1 1.5 1.5 1.5 1.5 0 0 1-1.5 1.5 1.5 1.5 0 0 1-1.5-1.5m0-12a1.5 1.5 0 0 1 1.5-1.5 1.5 1.5 0 0 1 1.5 1.5 1.5 1.5 0 0 1-1.5 1.5 1.5 1.5 0 0 1-1.5-1.5" fill="#1071e5"/><path d="M820.4 500a20 20 0 0 1 20-20h20a20 20 0 0 1 20 20v20a20 20 0 0 1-20 20h-20a20 20 0 0 1-20-20z" stroke="#1071e5" stroke-width="3" fill="url(#e)"/><path d="M850.4 560v-17.5" stroke="#000" stroke-width="2" fill="none"/><path d="M850.4 575.26L845.8 561h9.27z" stroke="#000" stroke-width="2"/><path d="M851.4 542.53h-1.96v-1.03h1.95z" stroke="#000" stroke-width=".05"/><path d="M738.4 600a20 20 0 0 1 20-20h102a20 20 0 0 1 20 20 20 20 0 0 1-20 20h-102a20 20 0 0 1-20-20z" stroke="#1071e5" stroke-width="3" fill="#ced4db"/><path d="M738.4 500a20 20 0 0 1 20-20h22a20 20 0 0 1 20 20v20a20 20 0 0 1-20 20h-22a20 20 0 0 1-20-20z" stroke="#1071e5" stroke-width="3" fill="url(#f)"/><path d="M738.4 420a20 20 0 0 1 20-20h102a20 20 0 0 1 20 20 20 20 0 0 1-20 20h-102a20 20 0 0 1-20-20z" stroke="#1071e5" stroke-width="3" fill="url(#g)"/><path d="M769.4 560v-17.5" stroke="#000" stroke-width="2" fill="none"/><path d="M769.4 575.26L764.78 561h9.27z" stroke="#000" stroke-width="2"/><path d="M770.38 542.53h-1.95v-1.03h1.95z" stroke="#000" stroke-width=".05"/><path d="M858 397.5V386a8 8 0 0 1 8-8h46.5a8 8 0 0 1 8 8v187.34a4 4 0 0 0 4 4h19.84" stroke="#e81313" stroke-width="2" fill="none"/><path d="M862 397.5V386a4 4 0 0 1 4-4h46.5a4 4 0 0 1 4 4v187.34a8 8 0 0 0 8 8h19.84" stroke="#e81313" stroke-width="2" fill="none"/><path d="M858.98 398.5H857v-1.03H859zM862.98 398.7l-1.96-.16v-1.07H863z" stroke="#e81313" stroke-width=".05" fill="#e81313"/><path d="M939.18 569.34l17.32 10-17.32 10m17.32-10H948" stroke="#e81313" stroke-width="2" fill="none"/><path d="M762.4 442.5v23.34M758.4 442.5v23.34" stroke="#000" stroke-width="2" fill="none"/><path d="M763.4 442.53h-1.96v-1.03h1.95zM758.35 441.5h1.04v1.03h-1.96v-1.1z" stroke="#000" stroke-width=".05"/><path d="M770.4 460.68l-10 17.32-10-17.32m10 17.32v-8.5M778.4 477.5v-21.84M782.4 477.5v-21.84" stroke="#000" stroke-width="2" fill="none"/><path d="M779.4 478.5h-1.96v-1.03h1.95zM783.4 478.73l-1.96-.15v-1.1h1.95z" stroke="#000" stroke-width=".05"/><path d="M770.4 460.82l10-17.32 10 17.32m-10-17.32v8.5" stroke="#000" stroke-width="2" fill="none"/><path d="M842.4 442.5v21.84M838.4 442.5v21.84" stroke="#e81313" stroke-width="2" fill="none"/><path d="M843.4 442.53h-1.96v-1.03h1.95zM839.4 442.53h-1.96v-1.03h1.95z" stroke="#e81313" stroke-width=".05" fill="#e81313"/><path d="M850.4 459.18l-10 17.32-10-17.32m10 17.32V468M858.4 477.5v-21.84M862.4 477.5v-21.84" stroke="#e81313" stroke-width="2" fill="none"/><path d="M859.4 478.5h-1.96v-1.03h1.95zM863.4 478.73l-1.96-.15v-1.1h1.95z" stroke="#e81313" stroke-width=".05" fill="#e81313"/><path d="M850.4 460.82l10-17.32 10 17.32m-10-17.32v8.5" stroke="#e81313" stroke-width="2" fill="none"/><path d="M838.5 400a1.5 1.5 0 0 1 1.5-1.5 1.5 1.5 0 0 1 1.5 1.5 1.5 1.5 0 0 1-1.5 1.5 1.5 1.5 0 0 1-1.5-1.5m0 6.48v-.02a1.5 1.5 0 0 1 1.5-1.5 1.5 1.5 0 0 1 1.5 1.5 1.5 1.5 0 0 1-1.5 1.5 1.5 1.5 0 0 1-1.5-1.5m0 6.48v-.02a1.5 1.5 0 0 1 1.5-1.5 1.5 1.5 0 0 1 1.5 1.5 1.5 1.5 0 0 1-1.5 1.5 1.5 1.5 0 0 1-1.5-1.5v-.02" fill="#e81313"/><path d="M841.48 400.04h-2.96v-1.54h2.96z" stroke="#e81313" stroke-width=".05" fill="#e81313"/><path d="M840 435.15l-4.63-14.27h9.26z" stroke="#e81313" stroke-width="3" fill="#fff"/><path d="M858.9 440a1.5 1.5 0 0 1 1.5-1.5 1.5 1.5 0 0 1 1.5 1.5 1.5 1.5 0 0 1-1.5 1.5 1.5 1.5 0 0 1-1.5-1.5m0-6.94v-.02a1.5 1.5 0 0 1 1.5-1.5 1.5 1.5 0 0 1 1.5 1.5 1.5 1.5 0 0 1-1.5 1.5 1.5 1.5 0 0 1-1.5-1.5v-.02m0-6.92v-.02a1.5 1.5 0 0 1 1.5-1.5 1.5 1.5 0 0 1 1.5 1.5 1.5 1.5 0 0 1-1.5 1.5 1.5 1.5 0 0 1-1.5-1.5m0-6.94v-.02a1.5 1.5 0 0 1 1.5-1.5 1.5 1.5 0 0 1 1.5 1.5 1.5 1.5 0 0 1-1.5 1.5 1.5 1.5 0 0 1-1.5-1.5" fill="#e81313"/><path d="M861.9 441.4l-1.43.1h-1.53v-1.54h2.95z" stroke="#e81313" stroke-width=".05" fill="#e81313"/><path d="M860.4 403.35l4.65 14.27h-9.27z" stroke="#e81313" stroke-width="3" fill="#fff"/><path d="M998.44 539.15a1.5 1.5 0 0 1 1.5-1.5 1.5 1.5 0 0 1 1.5 1.5 1.5 1.5 0 0 1-1.5 1.5 1.5 1.5 0 0 1-1.5-1.5v-.03m-6.92.03a1.5 1.5 0 0 1 1.5-1.5 1.5 1.5 0 0 1 1.5 1.5 1.5 1.5 0 0 1-1.5 1.5 1.5 1.5 0 0 1-1.5-1.5v-.03m-6.92.03a1.5 1.5 0 0 1 1.5-1.5 1.5 1.5 0 0 1 1.5 1.5 1.5 1.5 0 0 1-1.5 1.5 1.5 1.5 0 0 1-1.5-1.5v-.03" fill="#e81313"/><path d="M1001.5 539.94v.67h-1.6v-2.94h1.42z" stroke="#e81313" stroke-width=".05" fill="#e81313"/><path d="M963.42 539.14l14.26-4.64v9.27z" stroke="#e81313" stroke-width="3" fill="#fff"/><path d="M958.5 579.35a1.5 1.5 0 0 1 1.5-1.5 1.5 1.5 0 0 1 1.5 1.5 1.5 1.5 0 0 1-1.5 1.5 1.5 1.5 0 0 1-1.5-1.5v-.03m6.96.03a1.5 1.5 0 0 1 1.5-1.5 1.5 1.5 0 0 1 1.5 1.5 1.5 1.5 0 0 1-1.5 1.5 1.5 1.5 0 0 1-1.5-1.5v-.03m6.96.03a1.5 1.5 0 0 1 1.5-1.5 1.5 1.5 0 0 1 1.5 1.5 1.5 1.5 0 0 1-1.5 1.5 1.5 1.5 0 0 1-1.5-1.5v-.03" fill="#e81313"/><path d="M960.04 580.8h-1.48l-.06-.74v-2.2h1.54z" stroke="#e81313" stroke-width=".05" fill="#e81313"/><path d="M996.65 579.34l-14.27 4.63v-9.27z" stroke="#e81313" stroke-width="3" fill="#fff"/><path d="M1058.5 400a1.5 1.5 0 0 1 1.5-1.5 1.5 1.5 0 0 1 1.5 1.5 1.5 1.5 0 0 1-1.5 1.5 1.5 1.5 0 0 1-1.5-1.5m0 6.48v-.02a1.5 1.5 0 0 1 1.5-1.5 1.5 1.5 0 0 1 1.5 1.5 1.5 1.5 0 0 1-1.5 1.5 1.5 1.5 0 0 1-1.5-1.5m0 6.48v-.02a1.5 1.5 0 0 1 1.5-1.5 1.5 1.5 0 0 1 1.5 1.5 1.5 1.5 0 0 1-1.5 1.5 1.5 1.5 0 0 1-1.5-1.5v-.02" fill="#e81313"/><path d="M1061.47 400.04h-2.94v-1.54h2.94z" stroke="#e81313" stroke-width=".05" fill="#e81313"/><path d="M1060 435.15l-4.63-14.27h9.27z" stroke="#e81313" stroke-width="3" fill="#fff"/><path d="M1078.5 440a1.5 1.5 0 0 1 1.5-1.5 1.5 1.5 0 0 1 1.5 1.5 1.5 1.5 0 0 1-1.5 1.5 1.5 1.5 0 0 1-1.5-1.5m0-6.94v-.02a1.5 1.5 0 0 1 1.5-1.5 1.5 1.5 0 0 1 1.5 1.5 1.5 1.5 0 0 1-1.5 1.5 1.5 1.5 0 0 1-1.5-1.5v-.02m0-6.92v-.02a1.5 1.5 0 0 1 1.5-1.5 1.5 1.5 0 0 1 1.5 1.5 1.5 1.5 0 0 1-1.5 1.5 1.5 1.5 0 0 1-1.5-1.5m0-6.94v-.02a1.5 1.5 0 0 1 1.5-1.5 1.5 1.5 0 0 1 1.5 1.5 1.5 1.5 0 0 1-1.5 1.5 1.5 1.5 0 0 1-1.5-1.5" fill="#e81313"/><path d="M1081.47 441.5h-2.94v-1.54h2.94z" stroke="#e81313" stroke-width=".05" fill="#e81313"/><path d="M1080 403.35l4.63 14.27h-9.27z" stroke="#e81313" stroke-width="3" fill="#fff"/><path d="M1058.35 481.5a1.5 1.5 0 0 1 1.5-1.5 1.5 1.5 0 0 1 1.5 1.5 1.5 1.5 0 0 1-1.5 1.5 1.5 1.5 0 0 1-1.5-1.5v-.02m-.64 6.45a1.5 1.5 0 0 1 1.5-1.5 1.5 1.5 0 0 1 1.5 1.5 1.5 1.5 0 0 1-1.5 1.5 1.5 1.5 0 0 1-1.5-1.5v-.03m-1.35 6.32v-.02a1.5 1.5 0 0 1 1.5-1.5 1.5 1.5 0 0 1 1.5 1.5 1.5 1.5 0 0 1-1.5 1.5 1.5 1.5 0 0 1-1.5-1.5m-3.66 5.24v-.02a1.5 1.5 0 0 1 1.5-1.5 1.5 1.5 0 0 1 1.5 1.5 1.5 1.5 0 0 1-1.5 1.5 1.5 1.5 0 0 1-1.5-1.5" fill="#e81313"/><path d="M1059.85 481.53l.15-1.53" stroke="#e81313" stroke-width="3" fill="none"/><path d="M1040.66 507.5l9.87-11.3 4.75 7.97z" stroke="#e81313" stroke-width="3" fill="#fff"/><path d="M1043.66 535.3v-.03a1.5 1.5 0 0 1 1.5-1.5 1.5 1.5 0 0 1 1.5 1.5 1.5 1.5 0 0 1-1.5 1.5 1.5 1.5 0 0 1-1.5-1.5m3.72-5.1v-.03a1.5 1.5 0 0 1 1.5-1.5 1.5 1.5 0 0 1 1.5 1.5 1.5 1.5 0 0 1-1.5 1.5 1.5 1.5 0 0 1-1.5-1.5m4.9-3.98a1.5 1.5 0 0 1 1.5-1.5 1.5 1.5 0 0 1 1.5 1.5 1.5 1.5 0 0 1-1.5 1.5 1.5 1.5 0 0 1-1.5-1.5v-.03" fill="#e81313"/><path d="M1046.4 536.07l-.94 1.4-.1-.07-2.17-1.85.76-1.13z" stroke="#e81313" stroke-width=".05" fill="#e81313"/><path d="M1066.67 537.24l-10.9-10.3 8.12-4.44z" stroke="#e81313" stroke-width="3" fill="#fff"/><path d="M1068.5 540.4v-.03a1.5 1.5 0 0 1 1.5-1.5 1.5 1.5 0 0 1 1.5 1.5 1.5 1.5 0 0 1-1.5 1.5 1.5 1.5 0 0 1-1.5-1.5m3.96-4.7a1.5 1.5 0 0 1 1.5-1.5 1.5 1.5 0 0 1 1.5 1.5 1.5 1.5 0 0 1-1.5 1.5 1.5 1.5 0 0 1-1.5-1.5m3.45-5.08v-.02a1.5 1.5 0 0 1 1.5-1.5 1.5 1.5 0 0 1 1.5 1.5 1.5 1.5 0 0 1-1.5 1.5 1.5 1.5 0 0 1-1.5-1.5v-.02m2.56-5.56a1.5 1.5 0 0 1 1.5-1.5 1.5 1.5 0 0 1 1.5 1.5 1.5 1.5 0 0 1-1.5 1.5 1.5 1.5 0 0 1-1.5-1.5v-.03m1.35-5.96a1.5 1.5 0 0 1 1.5-1.5 1.5 1.5 0 0 1 1.5 1.5 1.5 1.5 0 0 1-1.5 1.5 1.5 1.5 0 0 1-1.5-1.5v-.02m.1-6.13a1.5 1.5 0 0 1 1.5-1.5 1.5 1.5 0 0 1 1.5 1.5 1.5 1.5 0 0 1-1.5 1.5 1.5 1.5 0 0 1-1.5-1.5v-.02m-.47-6.12a1.5 1.5 0 0 1 1.5-1.5 1.5 1.5 0 0 1 1.5 1.5 1.5 1.5 0 0 1-1.5 1.5 1.5 1.5 0 0 1-1.5-1.5m-.48-6.12v-.02a1.5 1.5 0 0 1 1.5-1.5 1.5 1.5 0 0 1 1.5 1.5 1.5 1.5 0 0 1-1.5 1.5 1.5 1.5 0 0 1-1.5-1.5" fill="#e81313"/><path d="M1071.12 541.32l-.16.18h-3.92l1.86-2.13z" stroke="#e81313" stroke-width=".05" fill="#e81313"/><path d="M1080.1 484.85l4.96 14.16-9.27.22z" stroke="#e81313" stroke-width="3" fill="#fff"/><path d="M830.2 500h40v20h-40z" fill="#6db1ff"/><path d="M829.2 500a1 1 0 0 1 1-1 1 1 0 0 1 1 1 1 1 0 0 1-1 1 1 1 0 0 1-1-1m4 0a1 1 0 0 1 1-1 1 1 0 0 1 1 1 1 1 0 0 1-1 1 1 1 0 0 1-1-1m4 0a1 1 0 0 1 1-1 1 1 0 0 1 1 1 1 1 0 0 1-1 1 1 1 0 0 1-1-1m4 0a1 1 0 0 1 1-1 1 1 0 0 1 1 1 1 1 0 0 1-1 1 1 1 0 0 1-1-1m4 0a1 1 0 0 1 1-1 1 1 0 0 1 1 1 1 1 0 0 1-1 1 1 1 0 0 1-1-1m4 0a1 1 0 0 1 1-1 1 1 0 0 1 1 1 1 1 0 0 1-1 1 1 1 0 0 1-1-1m4 0a1 1 0 0 1 1-1 1 1 0 0 1 1 1 1 1 0 0 1-1 1 1 1 0 0 1-1-1m4 0a1 1 0 0 1 1-1 1 1 0 0 1 1 1 1 1 0 0 1-1 1 1 1 0 0 1-1-1m4 0a1 1 0 0 1 1-1 1 1 0 0 1 1 1 1 1 0 0 1-1 1 1 1 0 0 1-1-1m4 0a1 1 0 0 1 1-1 1 1 0 0 1 1 1 1 1 0 0 1-1 1 1 1 0 0 1-1-1m4 0a1 1 0 0 1 1-1 1 1 0 0 1 1 1 1 1 0 0 1-1 1 1 1 0 0 1-1-1m0 4a1 1 0 0 1 1-1 1 1 0 0 1 1 1 1 1 0 0 1-1 1 1 1 0 0 1-1-1m0 4a1 1 0 0 1 1-1 1 1 0 0 1 1 1 1 1 0 0 1-1 1 1 1 0 0 1-1-1m0 4a1 1 0 0 1 1-1 1 1 0 0 1 1 1 1 1 0 0 1-1 1 1 1 0 0 1-1-1m0 4a1 1 0 0 1 1-1 1 1 0 0 1 1 1 1 1 0 0 1-1 1 1 1 0 0 1-1-1m0 4a1 1 0 0 1 1-1 1 1 0 0 1 1 1 1 1 0 0 1-1 1 1 1 0 0 1-1-1m-4 0a1 1 0 0 1 1-1 1 1 0 0 1 1 1 1 1 0 0 1-1 1 1 1 0 0 1-1-1m-4 0a1 1 0 0 1 1-1 1 1 0 0 1 1 1 1 1 0 0 1-1 1 1 1 0 0 1-1-1m-4 0a1 1 0 0 1 1-1 1 1 0 0 1 1 1 1 1 0 0 1-1 1 1 1 0 0 1-1-1m-4 0a1 1 0 0 1 1-1 1 1 0 0 1 1 1 1 1 0 0 1-1 1 1 1 0 0 1-1-1m-4 0a1 1 0 0 1 1-1 1 1 0 0 1 1 1 1 1 0 0 1-1 1 1 1 0 0 1-1-1m-4 0a1 1 0 0 1 1-1 1 1 0 0 1 1 1 1 1 0 0 1-1 1 1 1 0 0 1-1-1m-4 0a1 1 0 0 1 1-1 1 1 0 0 1 1 1 1 1 0 0 1-1 1 1 1 0 0 1-1-1m-4 0a1 1 0 0 1 1-1 1 1 0 0 1 1 1 1 1 0 0 1-1 1 1 1 0 0 1-1-1m-4 0a1 1 0 0 1 1-1 1 1 0 0 1 1 1 1 1 0 0 1-1 1 1 1 0 0 1-1-1m-4 0a1 1 0 0 1 1-1 1 1 0 0 1 1 1 1 1 0 0 1-1 1 1 1 0 0 1-1-1m0-4a1 1 0 0 1 1-1 1 1 0 0 1 1 1 1 1 0 0 1-1 1 1 1 0 0 1-1-1m0-4a1 1 0 0 1 1-1 1 1 0 0 1 1 1 1 1 0 0 1-1 1 1 1 0 0 1-1-1m0-4a1 1 0 0 1 1-1 1 1 0 0 1 1 1 1 1 0 0 1-1 1 1 1 0 0 1-1-1m0-4a1 1 0 0 1 1-1 1 1 0 0 1 1 1 1 1 0 0 1-1 1 1 1 0 0 1-1-1" fill="#1071e5"/><path d="M836.64 480.2v-.02a1.5 1.5 0 0 1 1.5-1.5 1.5 1.5 0 0 1 1.5 1.5 1.5 1.5 0 0 1-1.5 1.5 1.5 1.5 0 0 1-1.5-1.5m.5 6.04a1.5 1.5 0 0 1 1.5-1.5 1.5 1.5 0 0 1 1.5 1.5 1.5 1.5 0 0 1-1.5 1.5 1.5 1.5 0 0 1-1.5-1.5v-.03m.5 6.05a1.5 1.5 0 0 1 1.5-1.5 1.5 1.5 0 0 1 1.5 1.5 1.5 1.5 0 0 1-1.5 1.5 1.5 1.5 0 0 1-1.5-1.5v-.03m1.02 5.96a1.5 1.5 0 0 1 1.5-1.5 1.5 1.5 0 0 1 1.5 1.5 1.5 1.5 0 0 1-1.5 1.5 1.5 1.5 0 0 1-1.5-1.5v-.03m1.82 5.8v-.02a1.5 1.5 0 0 1 1.5-1.5 1.5 1.5 0 0 1 1.5 1.5 1.5 1.5 0 0 1-1.5 1.5 1.5 1.5 0 0 1-1.5-1.5m3.15 5.15v-.02a1.5 1.5 0 0 1 1.5-1.5 1.5 1.5 0 0 1 1.5 1.5 1.5 1.5 0 0 1-1.5 1.5 1.5 1.5 0 0 1-1.5-1.5m5 3.14a1.5 1.5 0 0 1 1.5-1.5 1.5 1.5 0 0 1 1.5 1.5 1.5 1.5 0 0 1-1.5 1.5 1.5 1.5 0 0 1-1.5-1.5v-.03m5.38-2.14a1.5 1.5 0 0 1 1.5-1.5 1.5 1.5 0 0 1 1.5 1.5 1.5 1.5 0 0 1-1.5 1.5 1.5 1.5 0 0 1-1.5-1.5V510m3.03-5.13v-.02a1.5 1.5 0 0 1 1.5-1.5 1.5 1.5 0 0 1 1.5 1.5 1.5 1.5 0 0 1-1.5 1.5 1.5 1.5 0 0 1-1.5-1.5" fill="#e81313"/><path d="M839.62 480.1l-2.94.24-.12-1.46.5-.12 2.43-.2z" stroke="#e81313" stroke-width=".05" fill="#e81313"/><path d="M860.33 483.35l4.38 14.35-9.26-.16z" stroke="#e81313" stroke-width="3" fill="#fff"/><path d="M1279.6 366a6 6 0 0 1 6-6H1474a6 6 0 0 1 6 6v94.8a6 6 0 0 1-6 6h-188.4a6 6 0 0 1-6-6z" stroke="#000" stroke-opacity="0" stroke-width="3" fill="#fff" fill-opacity="0"/><use xlink:href="#h" transform="matrix(1,0,0,1,1284.588461356051,365) translate(48.94444444444445 24.364583333333332)"/><use xlink:href="#i" transform="matrix(1,0,0,1,1284.588461356051,365) translate(6.018518518518533 56.36458333333333)"/><use xlink:href="#j" transform="matrix(1,0,0,1,1284.588461356051,365) translate(55.611111111111114 88.36458333333333)"/><use xlink:href="#k" transform="matrix(1,0,0,1,1284.588461356051,365) translate(82.2037037037037 88.36458333333333)"/><path d="M1269.8 486a6 6 0 0 1 6-6h208a6 6 0 0 1 6 6v148a6 6 0 0 1-6 6h-208a6 6 0 0 1-6-6z" stroke="#000" stroke-opacity="0" stroke-width="3" fill="#fff" fill-opacity="0"/><use xlink:href="#l" transform="matrix(1,0,0,1,1274.7942306780255,485) translate(33.22222222222223 21.333333333333332)"/><use xlink:href="#m" transform="matrix(1,0,0,1,1274.7942306780255,485) translate(139.7407407407407 21.333333333333332)"/><use xlink:href="#n" transform="matrix(1,0,0,1,1274.7942306780255,485) translate(21.40740740740742 53.33333333333333)"/><use xlink:href="#o" transform="matrix(1,0,0,1,1274.7942306780255,485) translate(133.92592592592592 53.33333333333333)"/><use xlink:href="#p" transform="matrix(1,0,0,1,1274.7942306780255,485) translate(3.0000000000000284 85.33333333333333)"/><use xlink:href="#q" transform="matrix(1,0,0,1,1274.7942306780255,485) translate(63.59259259259261 85.33333333333333)"/><use xlink:href="#r" transform="matrix(1,0,0,1,1274.7942306780255,485) translate(161.29629629629628 85.33333333333333)"/><use xlink:href="#s" transform="matrix(1,0,0,1,1274.7942306780255,485) translate(0.7037037037037237 117.33333333333333)"/><use xlink:href="#t" transform="matrix(1,0,0,1,1274.7942306780255,485) translate(36.259259259259274 117.33333333333333)"/><use xlink:href="#u" transform="matrix(1,0,0,1,1274.7942306780255,485) translate(58.481481481481495 117.33333333333333)"/><use xlink:href="#v" transform="matrix(1,0,0,1,1274.7942306780255,485) translate(139.8148148148148 117.33333333333333)"/><use xlink:href="#w" transform="matrix(1,0,0,1,1274.7942306780255,485) translate(35.44444444444446 149.33333333333334)"/><use xlink:href="#x" transform="matrix(1,0,0,1,1274.7942306780255,485) translate(107.96296296296296 149.33333333333334)"/><path d="M1560 440a20 20 0 0 1 20-20h180a20 20 0 0 1 20 20v180a20 20 0 0 1-20 20h-180a20 20 0 0 1-20-20z" fill-opacity="0"/><path d="M1558.5 440a1.5 1.5 0 0 1 1.5-1.5 1.5 1.5 0 0 1 1.5 1.5 1.5 1.5 0 0 1-1.5 1.5 1.5 1.5 0 0 1-1.5-1.5m2.73-9.96a1.5 1.5 0 0 1 1.5-1.5 1.5 1.5 0 0 1 1.5 1.5 1.5 1.5 0 0 1-1.5 1.5 1.5 1.5 0 0 1-1.5-1.5V430m7.3-7.26a1.5 1.5 0 0 1 1.5-1.5 1.5 1.5 0 0 1 1.5 1.5 1.5 1.5 0 0 1-1.5 1.5 1.5 1.5 0 0 1-1.5-1.5v-.03m9.97-2.7a1.5 1.5 0 0 1 1.5-1.5 1.5 1.5 0 0 1 1.5 1.5 1.5 1.5 0 0 1-1.5 1.5 1.5 1.5 0 0 1-1.5-1.5m12 0a1.5 1.5 0 0 1 1.5-1.5 1.5 1.5 0 0 1 1.5 1.5 1.5 1.5 0 0 1-1.5 1.5 1.5 1.5 0 0 1-1.5-1.5m12 0a1.5 1.5 0 0 1 1.5-1.5 1.5 1.5 0 0 1 1.5 1.5 1.5 1.5 0 0 1-1.5 1.5 1.5 1.5 0 0 1-1.5-1.5m12 0a1.5 1.5 0 0 1 1.5-1.5 1.5 1.5 0 0 1 1.5 1.5 1.5 1.5 0 0 1-1.5 1.5 1.5 1.5 0 0 1-1.5-1.5m12 0a1.5 1.5 0 0 1 1.5-1.5 1.5 1.5 0 0 1 1.5 1.5 1.5 1.5 0 0 1-1.5 1.5 1.5 1.5 0 0 1-1.5-1.5m12 0a1.5 1.5 0 0 1 1.5-1.5 1.5 1.5 0 0 1 1.5 1.5 1.5 1.5 0 0 1-1.5 1.5 1.5 1.5 0 0 1-1.5-1.5m12 0a1.5 1.5 0 0 1 1.5-1.5 1.5 1.5 0 0 1 1.5 1.5 1.5 1.5 0 0 1-1.5 1.5 1.5 1.5 0 0 1-1.5-1.5m12 0a1.5 1.5 0 0 1 1.5-1.5 1.5 1.5 0 0 1 1.5 1.5 1.5 1.5 0 0 1-1.5 1.5 1.5 1.5 0 0 1-1.5-1.5m12 0a1.5 1.5 0 0 1 1.5-1.5 1.5 1.5 0 0 1 1.5 1.5 1.5 1.5 0 0 1-1.5 1.5 1.5 1.5 0 0 1-1.5-1.5m12 0a1.5 1.5 0 0 1 1.5-1.5 1.5 1.5 0 0 1 1.5 1.5 1.5 1.5 0 0 1-1.5 1.5 1.5 1.5 0 0 1-1.5-1.5m12 0a1.5 1.5 0 0 1 1.5-1.5 1.5 1.5 0 0 1 1.5 1.5 1.5 1.5 0 0 1-1.5 1.5 1.5 1.5 0 0 1-1.5-1.5m12 0a1.5 1.5 0 0 1 1.5-1.5 1.5 1.5 0 0 1 1.5 1.5 1.5 1.5 0 0 1-1.5 1.5 1.5 1.5 0 0 1-1.5-1.5m12 0a1.5 1.5 0 0 1 1.5-1.5 1.5 1.5 0 0 1 1.5 1.5 1.5 1.5 0 0 1-1.5 1.5 1.5 1.5 0 0 1-1.5-1.5m12 0a1.5 1.5 0 0 1 1.5-1.5 1.5 1.5 0 0 1 1.5 1.5 1.5 1.5 0 0 1-1.5 1.5 1.5 1.5 0 0 1-1.5-1.5m12 0a1.5 1.5 0 0 1 1.5-1.5 1.5 1.5 0 0 1 1.5 1.5 1.5 1.5 0 0 1-1.5 1.5 1.5 1.5 0 0 1-1.5-1.5m12 0a1.5 1.5 0 0 1 1.5-1.5 1.5 1.5 0 0 1 1.5 1.5 1.5 1.5 0 0 1-1.5 1.5 1.5 1.5 0 0 1-1.5-1.5m9.97 2.74a1.5 1.5 0 0 1 1.5-1.5 1.5 1.5 0 0 1 1.5 1.5 1.5 1.5 0 0 1-1.5 1.5 1.5 1.5 0 0 1-1.5-1.5v-.03m7.3 7.34a1.5 1.5 0 0 1 1.5-1.5 1.5 1.5 0 0 1 1.5 1.5 1.5 1.5 0 0 1-1.5 1.5 1.5 1.5 0 0 1-1.5-1.5V430m2.73 10a1.5 1.5 0 0 1 1.5-1.5 1.5 1.5 0 0 1 1.5 1.5 1.5 1.5 0 0 1-1.5 1.5 1.5 1.5 0 0 1-1.5-1.5m0 12a1.5 1.5 0 0 1 1.5-1.5 1.5 1.5 0 0 1 1.5 1.5 1.5 1.5 0 0 1-1.5 1.5 1.5 1.5 0 0 1-1.5-1.5m0 12a1.5 1.5 0 0 1 1.5-1.5 1.5 1.5 0 0 1 1.5 1.5 1.5 1.5 0 0 1-1.5 1.5 1.5 1.5 0 0 1-1.5-1.5m0 12a1.5 1.5 0 0 1 1.5-1.5 1.5 1.5 0 0 1 1.5 1.5 1.5 1.5 0 0 1-1.5 1.5 1.5 1.5 0 0 1-1.5-1.5m0 12a1.5 1.5 0 0 1 1.5-1.5 1.5 1.5 0 0 1 1.5 1.5 1.5 1.5 0 0 1-1.5 1.5 1.5 1.5 0 0 1-1.5-1.5m0 12a1.5 1.5 0 0 1 1.5-1.5 1.5 1.5 0 0 1 1.5 1.5 1.5 1.5 0 0 1-1.5 1.5 1.5 1.5 0 0 1-1.5-1.5m0 12a1.5 1.5 0 0 1 1.5-1.5 1.5 1.5 0 0 1 1.5 1.5 1.5 1.5 0 0 1-1.5 1.5 1.5 1.5 0 0 1-1.5-1.5m0 12a1.5 1.5 0 0 1 1.5-1.5 1.5 1.5 0 0 1 1.5 1.5 1.5 1.5 0 0 1-1.5 1.5 1.5 1.5 0 0 1-1.5-1.5m0 12a1.5 1.5 0 0 1 1.5-1.5 1.5 1.5 0 0 1 1.5 1.5 1.5 1.5 0 0 1-1.5 1.5 1.5 1.5 0 0 1-1.5-1.5m0 12a1.5 1.5 0 0 1 1.5-1.5 1.5 1.5 0 0 1 1.5 1.5 1.5 1.5 0 0 1-1.5 1.5 1.5 1.5 0 0 1-1.5-1.5m0 12a1.5 1.5 0 0 1 1.5-1.5 1.5 1.5 0 0 1 1.5 1.5 1.5 1.5 0 0 1-1.5 1.5 1.5 1.5 0 0 1-1.5-1.5m0 12a1.5 1.5 0 0 1 1.5-1.5 1.5 1.5 0 0 1 1.5 1.5 1.5 1.5 0 0 1-1.5 1.5 1.5 1.5 0 0 1-1.5-1.5m0 12a1.5 1.5 0 0 1 1.5-1.5 1.5 1.5 0 0 1 1.5 1.5 1.5 1.5 0 0 1-1.5 1.5 1.5 1.5 0 0 1-1.5-1.5m0 12a1.5 1.5 0 0 1 1.5-1.5 1.5 1.5 0 0 1 1.5 1.5 1.5 1.5 0 0 1-1.5 1.5 1.5 1.5 0 0 1-1.5-1.5m0 12a1.5 1.5 0 0 1 1.5-1.5 1.5 1.5 0 0 1 1.5 1.5 1.5 1.5 0 0 1-1.5 1.5 1.5 1.5 0 0 1-1.5-1.5m0 12a1.5 1.5 0 0 1 1.5-1.5 1.5 1.5 0 0 1 1.5 1.5 1.5 1.5 0 0 1-1.5 1.5 1.5 1.5 0 0 1-1.5-1.5m-2.73 10v-.03a1.5 1.5 0 0 1 1.5-1.5 1.5 1.5 0 0 1 1.5 1.5 1.5 1.5 0 0 1-1.5 1.5 1.5 1.5 0 0 1-1.5-1.5m-7.3 7.32v-.03a1.5 1.5 0 0 1 1.5-1.5 1.5 1.5 0 0 1 1.5 1.5 1.5 1.5 0 0 1-1.5 1.5 1.5 1.5 0 0 1-1.5-1.5m-9.97 2.75V640a1.5 1.5 0 0 1 1.5-1.5 1.5 1.5 0 0 1 1.5 1.5 1.5 1.5 0 0 1-1.5 1.5 1.5 1.5 0 0 1-1.5-1.5m-12 0a1.5 1.5 0 0 1 1.5-1.5 1.5 1.5 0 0 1 1.5 1.5 1.5 1.5 0 0 1-1.5 1.5 1.5 1.5 0 0 1-1.5-1.5m-12 0a1.5 1.5 0 0 1 1.5-1.5 1.5 1.5 0 0 1 1.5 1.5 1.5 1.5 0 0 1-1.5 1.5 1.5 1.5 0 0 1-1.5-1.5m-12 0a1.5 1.5 0 0 1 1.5-1.5 1.5 1.5 0 0 1 1.5 1.5 1.5 1.5 0 0 1-1.5 1.5 1.5 1.5 0 0 1-1.5-1.5m-12 0a1.5 1.5 0 0 1 1.5-1.5 1.5 1.5 0 0 1 1.5 1.5 1.5 1.5 0 0 1-1.5 1.5 1.5 1.5 0 0 1-1.5-1.5m-12 0a1.5 1.5 0 0 1 1.5-1.5 1.5 1.5 0 0 1 1.5 1.5 1.5 1.5 0 0 1-1.5 1.5 1.5 1.5 0 0 1-1.5-1.5m-12 0a1.5 1.5 0 0 1 1.5-1.5 1.5 1.5 0 0 1 1.5 1.5 1.5 1.5 0 0 1-1.5 1.5 1.5 1.5 0 0 1-1.5-1.5m-12 0a1.5 1.5 0 0 1 1.5-1.5 1.5 1.5 0 0 1 1.5 1.5 1.5 1.5 0 0 1-1.5 1.5 1.5 1.5 0 0 1-1.5-1.5m-12 0a1.5 1.5 0 0 1 1.5-1.5 1.5 1.5 0 0 1 1.5 1.5 1.5 1.5 0 0 1-1.5 1.5 1.5 1.5 0 0 1-1.5-1.5m-12 0a1.5 1.5 0 0 1 1.5-1.5 1.5 1.5 0 0 1 1.5 1.5 1.5 1.5 0 0 1-1.5 1.5 1.5 1.5 0 0 1-1.5-1.5m-12 0a1.5 1.5 0 0 1 1.5-1.5 1.5 1.5 0 0 1 1.5 1.5 1.5 1.5 0 0 1-1.5 1.5 1.5 1.5 0 0 1-1.5-1.5m-12 0a1.5 1.5 0 0 1 1.5-1.5 1.5 1.5 0 0 1 1.5 1.5 1.5 1.5 0 0 1-1.5 1.5 1.5 1.5 0 0 1-1.5-1.5m-12 0a1.5 1.5 0 0 1 1.5-1.5 1.5 1.5 0 0 1 1.5 1.5 1.5 1.5 0 0 1-1.5 1.5 1.5 1.5 0 0 1-1.5-1.5m-12 0a1.5 1.5 0 0 1 1.5-1.5 1.5 1.5 0 0 1 1.5 1.5 1.5 1.5 0 0 1-1.5 1.5 1.5 1.5 0 0 1-1.5-1.5m-12 0a1.5 1.5 0 0 1 1.5-1.5 1.5 1.5 0 0 1 1.5 1.5 1.5 1.5 0 0 1-1.5 1.5 1.5 1.5 0 0 1-1.5-1.5m-12 0a1.5 1.5 0 0 1 1.5-1.5 1.5 1.5 0 0 1 1.5 1.5 1.5 1.5 0 0 1-1.5 1.5 1.5 1.5 0 0 1-1.5-1.5m-9.97-2.7v-.03a1.5 1.5 0 0 1 1.5-1.5 1.5 1.5 0 0 1 1.5 1.5 1.5 1.5 0 0 1-1.5 1.5 1.5 1.5 0 0 1-1.5-1.5m-7.3-7.28v-.03a1.5 1.5 0 0 1 1.5-1.5 1.5 1.5 0 0 1 1.5 1.5 1.5 1.5 0 0 1-1.5 1.5 1.5 1.5 0 0 1-1.5-1.5m-2.73-9.96a1.5 1.5 0 0 1 1.5-1.5 1.5 1.5 0 0 1 1.5 1.5 1.5 1.5 0 0 1-1.5 1.5 1.5 1.5 0 0 1-1.5-1.5m0-12a1.5 1.5 0 0 1 1.5-1.5 1.5 1.5 0 0 1 1.5 1.5 1.5 1.5 0 0 1-1.5 1.5 1.5 1.5 0 0 1-1.5-1.5m0-12a1.5 1.5 0 0 1 1.5-1.5 1.5 1.5 0 0 1 1.5 1.5 1.5 1.5 0 0 1-1.5 1.5 1.5 1.5 0 0 1-1.5-1.5m0-12a1.5 1.5 0 0 1 1.5-1.5 1.5 1.5 0 0 1 1.5 1.5 1.5 1.5 0 0 1-1.5 1.5 1.5 1.5 0 0 1-1.5-1.5m0-12a1.5 1.5 0 0 1 1.5-1.5 1.5 1.5 0 0 1 1.5 1.5 1.5 1.5 0 0 1-1.5 1.5 1.5 1.5 0 0 1-1.5-1.5m0-12a1.5 1.5 0 0 1 1.5-1.5 1.5 1.5 0 0 1 1.5 1.5 1.5 1.5 0 0 1-1.5 1.5 1.5 1.5 0 0 1-1.5-1.5m0-12a1.5 1.5 0 0 1 1.5-1.5 1.5 1.5 0 0 1 1.5 1.5 1.5 1.5 0 0 1-1.5 1.5 1.5 1.5 0 0 1-1.5-1.5m0-12a1.5 1.5 0 0 1 1.5-1.5 1.5 1.5 0 0 1 1.5 1.5 1.5 1.5 0 0 1-1.5 1.5 1.5 1.5 0 0 1-1.5-1.5m0-12a1.5 1.5 0 0 1 1.5-1.5 1.5 1.5 0 0 1 1.5 1.5 1.5 1.5 0 0 1-1.5 1.5 1.5 1.5 0 0 1-1.5-1.5m0-12a1.5 1.5 0 0 1 1.5-1.5 1.5 1.5 0 0 1 1.5 1.5 1.5 1.5 0 0 1-1.5 1.5 1.5 1.5 0 0 1-1.5-1.5m0-12a1.5 1.5 0 0 1 1.5-1.5 1.5 1.5 0 0 1 1.5 1.5 1.5 1.5 0 0 1-1.5 1.5 1.5 1.5 0 0 1-1.5-1.5m0-12a1.5 1.5 0 0 1 1.5-1.5 1.5 1.5 0 0 1 1.5 1.5 1.5 1.5 0 0 1-1.5 1.5 1.5 1.5 0 0 1-1.5-1.5m0-12a1.5 1.5 0 0 1 1.5-1.5 1.5 1.5 0 0 1 1.5 1.5 1.5 1.5 0 0 1-1.5 1.5 1.5 1.5 0 0 1-1.5-1.5m0-12a1.5 1.5 0 0 1 1.5-1.5 1.5 1.5 0 0 1 1.5 1.5 1.5 1.5 0 0 1-1.5 1.5 1.5 1.5 0 0 1-1.5-1.5m0-12a1.5 1.5 0 0 1 1.5-1.5 1.5 1.5 0 0 1 1.5 1.5 1.5 1.5 0 0 1-1.5 1.5 1.5 1.5 0 0 1-1.5-1.5"/><path d="M1700 501.23a20 20 0 0 1 20-20h20a20 20 0 0 1 20 20v20a20 20 0 0 1-20 20h-20a20 20 0 0 1-20-20z" stroke="#000" stroke-width="3" fill="url(#y)"/><path d="M1730 561.23v-17.5" stroke="#000" stroke-width="2" fill="none"/><path d="M1730 576.5l-4.63-14.27h9.27z" stroke="#000" stroke-width="2"/><path d="M1730.97 543.75h-1.94v-1.02h1.94z" stroke="#000" stroke-width=".05"/><path d="M1618 601.23a20 20 0 0 1 20-20h102a20 20 0 0 1 20 20 20 20 0 0 1-20 20h-102a20 20 0 0 1-20-20z" stroke="#000" stroke-width="3" fill="#ced4db"/><path d="M1642 362.23v24.15M1638 362.23v24.15M1642 362.25v-1.02M1638 362.25v-1.02M1650 381.23l-10 17.32-10-17.32m10 17.32v-8.5" stroke="#008a0e" stroke-width="2" fill="none"/><path d="M1618 501.23a20 20 0 0 1 20-20h22a20 20 0 0 1 20 20v20a20 20 0 0 1-20 20h-22a20 20 0 0 1-20-20z" stroke="#000" stroke-width="3" fill="url(#z)"/><path d="M1618 421.23a20 20 0 0 1 20-20h102a20 20 0 0 1 20 20 20 20 0 0 1-20 20h-102a20 20 0 0 1-20-20z" stroke="#000" stroke-width="3" fill="url(#A)"/><path d="M1649 561.23v-17.5" stroke="#008a0e" stroke-width="2" fill="none"/><path d="M1649 576.5l-4.64-14.27h9.27z" stroke="#008a0e" stroke-width="2" fill="#008a0e"/><path d="M1649.97 543.75h-1.95v-1.02h1.95z" stroke="#008a0e" stroke-width=".05" fill="#008a0e"/><path d="M1658 398.73V375.4M1662 398.73V375.4" stroke="#008a0e" stroke-width="2" fill="none"/><path d="M1658.97 399.73h-1.94v-1.03h1.94zM1662.97 399.73h-1.94v-1.03h1.94z" stroke="#008a0e" stroke-width=".05" fill="#008a0e"/><path d="M1650 380.55l10-17.32 10 17.32m-10-17.32v8.5M1642 443.73v23.34M1638 443.73v23.34" stroke="#008a0e" stroke-width="2" fill="none"/><path d="M1642.97 443.75h-1.94v-1.02h1.94zM1637.94 442.73h1.03v1.02h-1.94v-1.1z" stroke="#008a0e" stroke-width=".05" fill="#008a0e"/><path d="M1650 461.9l-10 17.33-10-17.32m10 17.33v-8.5M1658 478.73V456.9M1662 478.73V456.9" stroke="#008a0e" stroke-width="2" fill="none"/><path d="M1658.97 479.73h-1.94v-1.03h1.94zM1662.97 479.96l-1.94-.15v-1.1h1.94z" stroke="#008a0e" stroke-width=".05" fill="#008a0e"/><path d="M1650 462.05l10-17.32 10 17.32m-10-17.32v8.5" stroke="#008a0e" stroke-width="2" fill="none"/><path d="M1722 443.73v21.84M1718 443.73v21.84" stroke="#000" stroke-width="2" fill="none"/><path d="M1722.97 443.75h-1.94v-1.02h1.94zM1718.97 443.75h-1.94v-1.02h1.94z" stroke="#000" stroke-width=".05"/><path d="M1730 460.4l-10 17.33-10-17.32m10 17.33v-8.5M1738 478.73V456.9M1742 478.73V456.9" stroke="#000" stroke-width="2" fill="none"/><path d="M1738.97 479.73h-1.94v-1.03h1.94zM1742.97 479.96l-1.94-.15v-1.1h1.94z" stroke="#000" stroke-width=".05"/><path d="M1730 462.05l10-17.32 10 17.32m-10-17.32v8.5" stroke="#000" stroke-width="2" fill="none"/><path d="M1638.5 401.24a1.5 1.5 0 0 1 1.5-1.5 1.5 1.5 0 0 1 1.5 1.5 1.5 1.5 0 0 1-1.5 1.5 1.5 1.5 0 0 1-1.5-1.5v-.03m0 6.5a1.5 1.5 0 0 1 1.5-1.5 1.5 1.5 0 0 1 1.5 1.5 1.5 1.5 0 0 1-1.5 1.5 1.5 1.5 0 0 1-1.5-1.5v-.03m0 6.5v-.02a1.5 1.5 0 0 1 1.5-1.5 1.5 1.5 0 0 1 1.5 1.5 1.5 1.5 0 0 1-1.5 1.5 1.5 1.5 0 0 1-1.5-1.5v-.02" fill="#008a0e"/><path d="M1641.47 401.27h-2.94v-1.54h2.94z" stroke="#008a0e" stroke-width=".05" fill="#008a0e"/><path d="M1640 436.38l-4.63-14.27h9.27z" stroke="#008a0e" stroke-width="3" fill="#fff"/><path d="M1658.5 441.24a1.5 1.5 0 0 1 1.5-1.5 1.5 1.5 0 0 1 1.5 1.5 1.5 1.5 0 0 1-1.5 1.5 1.5 1.5 0 0 1-1.5-1.5v-.03m0-6.92a1.5 1.5 0 0 1 1.5-1.5 1.5 1.5 0 0 1 1.5 1.5 1.5 1.5 0 0 1-1.5 1.5 1.5 1.5 0 0 1-1.5-1.5v-.03m0-6.93a1.5 1.5 0 0 1 1.5-1.5 1.5 1.5 0 0 1 1.5 1.5 1.5 1.5 0 0 1-1.5 1.5 1.5 1.5 0 0 1-1.5-1.5v-.03m0-6.94a1.5 1.5 0 0 1 1.5-1.5 1.5 1.5 0 0 1 1.5 1.5 1.5 1.5 0 0 1-1.5 1.5 1.5 1.5 0 0 1-1.5-1.5v-.03" fill="#008a0e"/><path d="M1661.47 442.73h-2.94v-1.54h2.94z" stroke="#008a0e" stroke-width=".05" fill="#008a0e"/><path d="M1660 404.58l4.63 14.27h-9.27z" stroke="#008a0e" stroke-width="3" fill="#fff"/><path d="M1638.35 482.74v-.02a1.5 1.5 0 0 1 1.5-1.5 1.5 1.5 0 0 1 1.5 1.5 1.5 1.5 0 0 1-1.5 1.5 1.5 1.5 0 0 1-1.5-1.5m-.64 6.44v-.02a1.5 1.5 0 0 1 1.5-1.5 1.5 1.5 0 0 1 1.5 1.5 1.5 1.5 0 0 1-1.5 1.5 1.5 1.5 0 0 1-1.5-1.5m-1.35 6.3a1.5 1.5 0 0 1 1.5-1.5 1.5 1.5 0 0 1 1.5 1.5 1.5 1.5 0 0 1-1.5 1.5 1.5 1.5 0 0 1-1.5-1.5v-.02" fill="#008a0e"/><path d="M1639.85 482.76l.15-1.53" stroke="#008a0e" stroke-width="3" fill="none"/><path d="M1620.66 508.74l9.87-11.3 4.75 7.95z" stroke="#008a0e" stroke-width="3" fill="#fff"/><path d="M1623.66 536.52v-.02a1.5 1.5 0 0 1 1.5-1.5 1.5 1.5 0 0 1 1.5 1.5 1.5 1.5 0 0 1-1.5 1.5 1.5 1.5 0 0 1-1.5-1.5m3.72-5.1v-.03a1.5 1.5 0 0 1 1.5-1.5 1.5 1.5 0 0 1 1.5 1.5 1.5 1.5 0 0 1-1.5 1.5 1.5 1.5 0 0 1-1.5-1.5m4.9-3.98v-.03a1.5 1.5 0 0 1 1.5-1.5 1.5 1.5 0 0 1 1.5 1.5 1.5 1.5 0 0 1-1.5 1.5 1.5 1.5 0 0 1-1.5-1.5m6.08-1.33a1.5 1.5 0 0 1 1.5-1.5 1.5 1.5 0 0 1 1.5 1.5 1.5 1.5 0 0 1-1.5 1.5 1.5 1.5 0 0 1-1.5-1.5V526" fill="#008a0e"/><path d="M1626.4 537.3l-.94 1.4-.1-.07-2.17-1.85.76-1.14z" stroke="#008a0e" stroke-width=".05" fill="#008a0e"/><path d="M1646.67 538.47l-10.9-10.3 8.12-4.44z" stroke="#008a0e" stroke-width="3" fill="#fff"/><path d="M1648.5 541.6a1.5 1.5 0 0 1 1.5-1.5 1.5 1.5 0 0 1 1.5 1.5 1.5 1.5 0 0 1-1.5 1.5 1.5 1.5 0 0 1-1.5-1.5m3.96-4.7a1.5 1.5 0 0 1 1.5-1.5 1.5 1.5 0 0 1 1.5 1.5 1.5 1.5 0 0 1-1.5 1.5 1.5 1.5 0 0 1-1.5-1.5v-.02m3.45-5.06a1.5 1.5 0 0 1 1.5-1.5 1.5 1.5 0 0 1 1.5 1.5 1.5 1.5 0 0 1-1.5 1.5 1.5 1.5 0 0 1-1.5-1.5v-.03m2.56-5.57a1.5 1.5 0 0 1 1.5-1.5 1.5 1.5 0 0 1 1.5 1.5 1.5 1.5 0 0 1-1.5 1.5 1.5 1.5 0 0 1-1.5-1.5v-.03m1.35-5.97a1.5 1.5 0 0 1 1.5-1.5 1.5 1.5 0 0 1 1.5 1.5 1.5 1.5 0 0 1-1.5 1.5 1.5 1.5 0 0 1-1.5-1.5v-.02m.1-6.12a1.5 1.5 0 0 1 1.5-1.5 1.5 1.5 0 0 1 1.5 1.5 1.5 1.5 0 0 1-1.5 1.5 1.5 1.5 0 0 1-1.5-1.5v-.03m-.47-6.1v-.02a1.5 1.5 0 0 1 1.5-1.5 1.5 1.5 0 0 1 1.5 1.5 1.5 1.5 0 0 1-1.5 1.5 1.5 1.5 0 0 1-1.5-1.5v-.02" fill="#008a0e"/><path d="M1651.12 542.54l-.16.2h-3.92l1.86-2.14z" stroke="#008a0e" stroke-width=".05" fill="#008a0e"/><path d="M1660.1 486.08l4.96 14.16-9.27.2z" stroke="#008a0e" stroke-width="3" fill="#fff"/><path d="M1575.23 530a10 10 0 0 1 10-10 10 10 0 0 1 10 10v20a10 10 0 0 1-10 10 10 10 0 0 1-10-10z" stroke="#1071e5" stroke-width="3" fill="#6db1ff"/><path d="M1616.72 513.45l-8.3 5.28M1614.58 510.08l-8.3 5.28" stroke="#008a0e" stroke-width="2" fill="none"/><path d="M1616.5 513.14l-.32-.5.3-.2zM1616.5 510l-1.42.9-1.05-1.63 2.46-1.57z" stroke="#008a0e" stroke-width=".05" fill="#008a0e"/><path d="M1617.07 522.7l-19.98.87 9.24-17.73m-9.25 17.73l7.16-4.56M1596.58 549.56l14.2-7.2M1598.4 553.13l14.2-7.2" stroke="#008a0e" stroke-width="2" fill="none"/><path d="M1597.04 550.42l-.35.18.03-.54v-.26zM1598.85 554l-3.6 1.8-.05-.12.28-.46.7-1.67.1-.44 1.7-.85z" stroke="#008a0e" stroke-width=".05" fill="#008a0e"/><path d="M1602.57 537.56l19.97 1.1-10.93 16.74m10.94-16.75l-7.58 3.84" stroke="#008a0e" stroke-width="2" fill="none"/><path d="M1592.97 525.82v-.02a1.5 1.5 0 0 1 1.5-1.5 1.5 1.5 0 0 1 1.5 1.5 1.5 1.5 0 0 1-1.5 1.5 1.5 1.5 0 0 1-1.5-1.5m-5.95.25a1.5 1.5 0 0 1 1.5-1.5 1.5 1.5 0 0 1 1.5 1.5 1.5 1.5 0 0 1-1.5 1.5 1.5 1.5 0 0 1-1.5-1.5V526m-5.1 3a1.5 1.5 0 0 1 1.5-1.5 1.5 1.5 0 0 1 1.5 1.5 1.5 1.5 0 0 1-1.5 1.5 1.5 1.5 0 0 1-1.5-1.5V529m-2.26 5.47a1.5 1.5 0 0 1 1.5-1.5 1.5 1.5 0 0 1 1.5 1.5 1.5 1.5 0 0 1-1.5 1.5 1.5 1.5 0 0 1-1.5-1.5v-.03m.6 5.95v-.03a1.5 1.5 0 0 1 1.5-1.5 1.5 1.5 0 0 1 1.5 1.5 1.5 1.5 0 0 1-1.5 1.5 1.5 1.5 0 0 1-1.5-1.5" fill="#008a0e"/><path d="M1595.24 524.4l.24.38.7 1.67.23 1-2.1-.18.26-2.94z" stroke="#008a0e" stroke-width=".05" fill="#008a0e"/><path d="M1592.47 550.7l-13.5-6.57 6.44-6.68z" stroke="#008a0e" stroke-width="3" fill="#fff"/><path d="M1572.76 540.23l-3.08.73m-4.1.98l-6.15 1.47m-4.1.98l-6.15 1.47m-4.1.98l-6.14 1.46m-4.1.97l-6.15 1.46m-4.1.98l-6.16 1.47m-4.1.98l-6.15 1.47m-4.1.97l-6.16 1.46m-4.1.98l-3.07.73" stroke="#000" stroke-width="2" fill="none"/><path d="M1573.73 541l-.77.2-.45-1.9 1.23-.3zM1491.02 560.7l-1.23.3v-2l.77-.2z" stroke="#000" stroke-width=".05" fill="#000"/><defs><linearGradient gradientUnits="userSpaceOnUse" id="a" x1="1120" y1="540" x2="1120" y2="480"><stop offset="18.48%" stop-color="#fff"/><stop offset="24.28%" stop-color="#cfe4ff"/></linearGradient><linearGradient gradientUnits="userSpaceOnUse" id="b" x1="1037.99" y1="540" x2="1037.99" y2="480"><stop offset="18.48%" stop-color="#fff"/><stop offset="24.28%" stop-color="#cfe4ff"/></linearGradient><linearGradient gradientUnits="userSpaceOnUse" id="c" x1="1037.99" y1="400" x2="1037.99" y2="440"><stop offset="39.49%" stop-color="#fff"/><stop offset="56.66%" stop-color="#c3f7c8"/></linearGradient><linearGradient gradientUnits="userSpaceOnUse" id="d" x1="960" y1="600" x2="1000" y2="600"><stop offset="6.16%" stop-color="#1071e5"/><stop offset="34.42%" stop-color="#fff"/></linearGradient><linearGradient gradientUnits="userSpaceOnUse" id="e" x1="820.41" y1="540" x2="820.41" y2="480"><stop offset="18.48%" stop-color="#fff"/><stop offset="24.28%" stop-color="#cfe4ff"/></linearGradient><linearGradient gradientUnits="userSpaceOnUse" id="f" x1="738.41" y1="540" x2="738.41" y2="480"><stop offset="18.48%" stop-color="#fff"/><stop offset="24.28%" stop-color="#cfe4ff"/></linearGradient><linearGradient gradientUnits="userSpaceOnUse" id="g" x1="738.41" y1="400" x2="738.41" y2="440"><stop offset="39.49%" stop-color="#fff"/><stop offset="56.66%" stop-color="#c3f7c8"/></linearGradient><path d="M33 0v-248h34V0H33" id="B"/><path d="M117-194c89-4 53 116 60 194h-32v-121c0-31-8-49-39-48C34-167 62-67 57 0H25l-1-190h30c1 10-1 24 2 32 11-22 29-35 61-36" id="C"/><path d="M59-47c-2 24 18 29 38 22v24C64 9 27 4 27-40v-127H5v-23h24l9-43h21v43h35v23H59v120" id="D"/><path d="M100-194c63 0 86 42 84 106H49c0 40 14 67 53 68 26 1 43-12 49-29l28 8c-11 28-37 45-77 45C44 4 14-33 15-96c1-61 26-98 85-98zm52 81c6-60-76-77-97-28-3 7-6 17-6 28h103" id="E"/><path d="M114-163C36-179 61-72 57 0H25l-1-190h30c1 12-1 29 2 39 6-27 23-49 58-41v29" id="F"/><path d="M96-169c-40 0-48 33-48 73s9 75 48 75c24 0 41-14 43-38l32 2c-6 37-31 61-74 61-59 0-76-41-82-99-10-93 101-131 147-64 4 7 5 14 7 22l-32 3c-4-21-16-35-41-35" id="G"/><path d="M24 0v-261h32V0H24" id="H"/><g id="h"><use transform="matrix(0.07407407407407407,0,0,0.07407407407407407,0,0)" xlink:href="#B"/><use transform="matrix(0.07407407407407407,0,0,0.07407407407407407,7.4074074074074066,0)" xlink:href="#C"/><use transform="matrix(0.07407407407407407,0,0,0.07407407407407407,22.22222222222222,0)" xlink:href="#D"/><use transform="matrix(0.07407407407407407,0,0,0.07407407407407407,29.629629629629626,0)" xlink:href="#E"/><use transform="matrix(0.07407407407407407,0,0,0.07407407407407407,44.44444444444444,0)" xlink:href="#F"/><use transform="matrix(0.07407407407407407,0,0,0.07407407407407407,53.25925925925926,0)" xlink:href="#G"/><use transform="matrix(0.07407407407407407,0,0,0.07407407407407407,66.5925925925926,0)" xlink:href="#E"/><use transform="matrix(0.07407407407407407,0,0,0.07407407407407407,81.4074074074074,0)" xlink:href="#H"/><use transform="matrix(0.07407407407407407,0,0,0.07407407407407407,87.25925925925925,0)" xlink:href="#H"/></g><path d="M100-194c62-1 85 37 85 99 1 63-27 99-86 99S16-35 15-95c0-66 28-99 85-99zM99-20c44 1 53-31 53-75 0-43-8-75-51-75s-53 32-53 75 10 74 51 75" id="I"/><path d="M210-169c-67 3-38 105-44 169h-31v-121c0-29-5-50-35-48C34-165 62-65 56 0H25l-1-190h30c1 10-1 24 2 32 10-44 99-50 107 0 11-21 27-35 58-36 85-2 47 119 55 194h-31v-121c0-29-5-49-35-48" id="J"/><path d="M84 4C-5 8 30-112 23-190h32v120c0 31 7 50 39 49 72-2 45-101 50-169h31l1 190h-30c-1-10 1-25-2-33-11 22-28 36-60 37" id="K"/><path d="M24-231v-30h32v30H24zM24 0v-190h32V0H24" id="L"/><path d="M141-36C126-15 110 5 73 4 37 3 15-17 15-53c-1-64 63-63 125-63 3-35-9-54-41-54-24 1-41 7-42 31l-33-3c5-37 33-52 76-52 45 0 72 20 72 64v82c-1 20 7 32 28 27v20c-31 9-61-2-59-35zM48-53c0 20 12 33 32 33 41-3 63-29 60-74-43 2-92-5-92 41" id="M"/><g id="i"><use transform="matrix(0.07407407407407407,0,0,0.07407407407407407,0,0)" xlink:href="#G"/><use transform="matrix(0.07407407407407407,0,0,0.07407407407407407,13.333333333333332,0)" xlink:href="#I"/><use transform="matrix(0.07407407407407407,0,0,0.07407407407407407,28.148148148148145,0)" xlink:href="#J"/><use transform="matrix(0.07407407407407407,0,0,0.07407407407407407,50.29629629629629,0)" xlink:href="#J"/><use transform="matrix(0.07407407407407407,0,0,0.07407407407407407,72.44444444444443,0)" xlink:href="#K"/><use transform="matrix(0.07407407407407407,0,0,0.07407407407407407,87.25925925925924,0)" xlink:href="#C"/><use transform="matrix(0.07407407407407407,0,0,0.07407407407407407,102.07407407407405,0)" xlink:href="#L"/><use transform="matrix(0.07407407407407407,0,0,0.07407407407407407,107.92592592592591,0)" xlink:href="#G"/><use transform="matrix(0.07407407407407407,0,0,0.07407407407407407,121.25925925925922,0)" xlink:href="#M"/><use transform="matrix(0.07407407407407407,0,0,0.07407407407407407,136.07407407407405,0)" xlink:href="#D"/><use transform="matrix(0.07407407407407407,0,0,0.07407407407407407,143.48148148148147,0)" xlink:href="#L"/><use transform="matrix(0.07407407407407407,0,0,0.07407407407407407,149.33333333333331,0)" xlink:href="#I"/><use transform="matrix(0.07407407407407407,0,0,0.07407407407407407,164.14814814814815,0)" xlink:href="#C"/></g><path d="M135-143c-3-34-86-38-87 0 15 53 115 12 119 90S17 21 10-45l28-5c4 36 97 45 98 0-10-56-113-15-118-90-4-57 82-63 122-42 12 7 21 19 24 35" id="N"/><g id="j"><use transform="matrix(0.07407407407407407,0,0,0.07407407407407407,0,0)" xlink:href="#L"/><use transform="matrix(0.07407407407407407,0,0,0.07407407407407407,5.851851851851851,0)" xlink:href="#N"/></g><path d="M206 0h-36l-40-164L89 0H53L-1-190h32L70-26l43-164h34l41 164 42-164h31" id="O"/><g id="k"><use transform="matrix(0.07407407407407407,0,0,0.07407407407407407,0,0)" xlink:href="#N"/><use transform="matrix(0.07407407407407407,0,0,0.07407407407407407,13.333333333333332,0)" xlink:href="#H"/><use transform="matrix(0.07407407407407407,0,0,0.07407407407407407,19.185185185185183,0)" xlink:href="#I"/><use transform="matrix(0.07407407407407407,0,0,0.07407407407407407,34,0)" xlink:href="#O"/></g><path d="M24-231v-30h32v30H24zM-9 49c24 4 33-6 33-30v-209h32V24c2 40-23 58-65 49V49" id="P"/><path d="M177-190C167-65 218 103 67 71c-23-6-38-20-44-43l32-5c15 47 100 32 89-28v-30C133-14 115 1 83 1 29 1 15-40 15-95c0-56 16-97 71-98 29-1 48 16 59 35 1-10 0-23 2-32h30zM94-22c36 0 50-32 50-73 0-42-14-75-50-75-39 0-46 34-46 75s6 73 46 73" id="Q"/><g id="l"><use transform="matrix(0.07407407407407407,0,0,0.07407407407407407,0,0)" xlink:href="#B"/><use transform="matrix(0.07407407407407407,0,0,0.07407407407407407,7.4074074074074066,0)" xlink:href="#C"/><use transform="matrix(0.07407407407407407,0,0,0.07407407407407407,22.22222222222222,0)" xlink:href="#P"/><use transform="matrix(0.07407407407407407,0,0,0.07407407407407407,28.074074074074073,0)" xlink:href="#E"/><use transform="matrix(0.07407407407407407,0,0,0.07407407407407407,42.888888888888886,0)" xlink:href="#G"/><use transform="matrix(0.07407407407407407,0,0,0.07407407407407407,56.22222222222221,0)" xlink:href="#D"/><use transform="matrix(0.07407407407407407,0,0,0.07407407407407407,63.62962962962962,0)" xlink:href="#L"/><use transform="matrix(0.07407407407407407,0,0,0.07407407407407407,69.48148148148147,0)" xlink:href="#C"/><use transform="matrix(0.07407407407407407,0,0,0.07407407407407407,84.29629629629628,0)" xlink:href="#Q"/></g><path d="M106-169C34-169 62-67 57 0H25v-261h32l-1 103c12-21 28-36 61-36 89 0 53 116 60 194h-32v-121c2-32-8-49-39-48" id="R"/><g id="m"><use transform="matrix(0.07407407407407407,0,0,0.07407407407407407,0,0)" xlink:href="#D"/><use transform="matrix(0.07407407407407407,0,0,0.07407407407407407,7.4074074074074066,0)" xlink:href="#R"/><use transform="matrix(0.07407407407407407,0,0,0.07407407407407407,22.22222222222222,0)" xlink:href="#E"/></g><path d="M115-194c53 0 69 39 70 98 0 66-23 100-70 100C84 3 66-7 56-30L54 0H23l1-261h32v101c10-23 28-34 59-34zm-8 174c40 0 45-34 45-75 0-40-5-75-45-74-42 0-51 32-51 76 0 43 10 73 51 73" id="S"/><g id="n"><use transform="matrix(0.07407407407407407,0,0,0.07407407407407407,0,0)" xlink:href="#S"/><use transform="matrix(0.07407407407407407,0,0,0.07407407407407407,14.814814814814813,0)" xlink:href="#K"/><use transform="matrix(0.07407407407407407,0,0,0.07407407407407407,29.629629629629626,0)" xlink:href="#N"/><use transform="matrix(0.07407407407407407,0,0,0.07407407407407407,42.96296296296296,0)" xlink:href="#L"/><use transform="matrix(0.07407407407407407,0,0,0.07407407407407407,48.81481481481481,0)" xlink:href="#C"/><use transform="matrix(0.07407407407407407,0,0,0.07407407407407407,63.62962962962962,0)" xlink:href="#E"/><use transform="matrix(0.07407407407407407,0,0,0.07407407407407407,78.44444444444443,0)" xlink:href="#N"/><use transform="matrix(0.07407407407407407,0,0,0.07407407407407407,91.77777777777776,0)" xlink:href="#N"/></g><g id="o"><use transform="matrix(0.07407407407407407,0,0,0.07407407407407407,0,0)" xlink:href="#H"/><use transform="matrix(0.07407407407407407,0,0,0.07407407407407407,5.851851851851851,0)" xlink:href="#I"/><use transform="matrix(0.07407407407407407,0,0,0.07407407407407407,20.666666666666664,0)" xlink:href="#Q"/><use transform="matrix(0.07407407407407407,0,0,0.07407407407407407,35.48148148148148,0)" xlink:href="#L"/><use transform="matrix(0.07407407407407407,0,0,0.07407407407407407,41.33333333333333,0)" xlink:href="#G"/></g><path d="M101-234c-31-9-42 10-38 44h38v23H63V0H32v-167H5v-23h27c-7-52 17-82 69-68v24" id="T"/><g id="p"><use transform="matrix(0.07407407407407407,0,0,0.07407407407407407,0,0)" xlink:href="#T"/><use transform="matrix(0.07407407407407407,0,0,0.07407407407407407,7.4074074074074066,0)" xlink:href="#F"/><use transform="matrix(0.07407407407407407,0,0,0.07407407407407407,16.22222222222222,0)" xlink:href="#I"/><use transform="matrix(0.07407407407407407,0,0,0.07407407407407407,31.037037037037035,0)" xlink:href="#J"/></g><g id="q"><use transform="matrix(0.07407407407407407,0,0,0.07407407407407407,0,0)" xlink:href="#M"/><use transform="matrix(0.07407407407407407,0,0,0.07407407407407407,14.814814814814813,0)" xlink:href="#C"/><use transform="matrix(0.07407407407407407,0,0,0.07407407407407407,29.629629629629626,0)" xlink:href="#I"/><use transform="matrix(0.07407407407407407,0,0,0.07407407407407407,44.44444444444444,0)" xlink:href="#D"/><use transform="matrix(0.07407407407407407,0,0,0.07407407407407407,51.85185185185185,0)" xlink:href="#R"/><use transform="matrix(0.07407407407407407,0,0,0.07407407407407407,66.66666666666666,0)" xlink:href="#E"/><use transform="matrix(0.07407407407407407,0,0,0.07407407407407407,81.48148148148147,0)" xlink:href="#F"/></g><path d="M125-24c46 0 70-25 89-51l25 16C214-24 183 4 123 4 8 4-5-146 60-208c32-50 158-61 191-5 5 7 9 14 11 22l-32 10c-9-28-33-43-69-43-74 0-108 51-108 125 0 46 24 75 72 75" id="U"/><path d="M111-194c62-3 86 47 72 106H45c-7 38 6 69 45 68 27-1 43-14 53-32l24 11C152-15 129 4 87 4 38 3 12-23 12-71c0-70 32-119 99-123zm44 81c14-66-71-72-95-28-4 8-8 17-11 28h106" id="V"/><path d="M6 0l50-261h32L37 0H6" id="W"/><g id="r"><use transform="matrix(0.07407407407407407,0,0,0.07407407407407407,0,0)" xlink:href="#U"/><use transform="matrix(0.07407407407407407,0,0,0.07407407407407407,19.185185185185183,0)" xlink:href="#V"/><use transform="matrix(0.07407407407407407,0,0,0.07407407407407407,34,0)" xlink:href="#W"/><use transform="matrix(0.07407407407407407,0,0,0.07407407407407407,39.85185185185185,0)" xlink:href="#W"/></g><g id="s"><use transform="matrix(0.07407407407407407,0,0,0.07407407407407407,0,0)" xlink:href="#M"/><use transform="matrix(0.07407407407407407,0,0,0.07407407407407407,14.814814814814813,0)" xlink:href="#N"/></g><use transform="matrix(0.07407407407407407,0,0,0.07407407407407407,0,0)" xlink:href="#M" id="t"/><path d="M238-179c0 84-86 86-175 82L45 0H11l48-248c82 0 179-12 179 69zm-34 1c0-53-64-42-116-43l-19 98c63 0 135 9 135-55" id="X"/><path d="M67 3c-93-2-31-127-26-193h32L48-50c-3 39 53 32 70 12 30-34 30-101 43-152h32L157 0h-30c1-10 6-24 4-33-14 20-29 37-64 36" id="Y"/><path d="M103-194c29 0 47 14 56 36 2-11 5-23 8-32h30L160-5C157 61 82 97 21 62 9 55 4 45 1 30l28-7c7 42 83 31 92-3 4-16 9-38 13-55-13 20-29 36-62 36-40 0-60-25-60-64 0-71 23-131 91-131zm4 24c-53 0-58 54-61 104-2 27 10 44 36 44 49 0 65-50 67-102 1-29-15-46-42-46" id="Z"/><path d="M50-231l6-30h32l-6 30H50zM6 0l37-190h31L37 0H6" id="aa"/><path d="M67-158c22-48 132-52 116 29L158 0h-32l25-140c3-38-53-32-70-12C52-117 51-52 38 0H6l36-190h30" id="ab"/><g id="u"><use transform="matrix(0.07407407407407407,0,0,0.07407407407407407,0,0)" xlink:href="#X"/><use transform="matrix(0.07407407407407407,0,0,0.07407407407407407,17.77777777777778,0)" xlink:href="#W"/><use transform="matrix(0.07407407407407407,0,0,0.07407407407407407,23.62962962962963,0)" xlink:href="#Y"/><use transform="matrix(0.07407407407407407,0,0,0.07407407407407407,38.44444444444444,0)" xlink:href="#Z"/><use transform="matrix(0.07407407407407407,0,0,0.07407407407407407,53.25925925925926,0)" xlink:href="#aa"/><use transform="matrix(0.07407407407407407,0,0,0.07407407407407407,59.1111111111111,0)" xlink:href="#ab"/></g><path d="M143 0L79-87 56-68V0H24v-261h32v163l83-92h37l-77 82L181 0h-38" id="ac"/><g id="v"><use transform="matrix(0.07407407407407407,0,0,0.07407407407407407,0,0)" xlink:href="#O"/><use transform="matrix(0.07407407407407407,0,0,0.07407407407407407,19.185185185185183,0)" xlink:href="#I"/><use transform="matrix(0.07407407407407407,0,0,0.07407407407407407,34,0)" xlink:href="#F"/><use transform="matrix(0.07407407407407407,0,0,0.07407407407407407,42.814814814814824,0)" xlink:href="#ac"/><use transform="matrix(0.07407407407407407,0,0,0.07407407407407407,56.14814814814815,0)" xlink:href="#N"/></g><g id="w"><use transform="matrix(0.07407407407407407,0,0,0.07407407407407407,0,0)" xlink:href="#J"/><use transform="matrix(0.07407407407407407,0,0,0.07407407407407407,22.148148148148145,0)" xlink:href="#K"/><use transform="matrix(0.07407407407407407,0,0,0.07407407407407407,36.96296296296296,0)" xlink:href="#G"/><use transform="matrix(0.07407407407407407,0,0,0.07407407407407407,50.29629629629629,0)" xlink:href="#R"/></g><g id="x"><use transform="matrix(0.07407407407407407,0,0,0.07407407407407407,0,0)" xlink:href="#T"/><use transform="matrix(0.07407407407407407,0,0,0.07407407407407407,7.4074074074074066,0)" xlink:href="#M"/><use transform="matrix(0.07407407407407407,0,0,0.07407407407407407,22.22222222222222,0)" xlink:href="#N"/><use transform="matrix(0.07407407407407407,0,0,0.07407407407407407,35.55555555555556,0)" xlink:href="#D"/><use transform="matrix(0.07407407407407407,0,0,0.07407407407407407,42.96296296296296,0)" xlink:href="#E"/><use transform="matrix(0.07407407407407407,0,0,0.07407407407407407,57.77777777777777,0)" xlink:href="#F"/></g><linearGradient gradientUnits="userSpaceOnUse" id="y" x1="1700" y1="541.23" x2="1700" y2="481.23"><stop offset="18.48%" stop-color="#fff"/><stop offset="24.28%" stop-color="#cfe4ff"/></linearGradient><linearGradient gradientUnits="userSpaceOnUse" id="z" x1="1617.99" y1="541.23" x2="1617.99" y2="481.23"><stop offset="18.48%" stop-color="#fff"/><stop offset="24.28%" stop-color="#cfe4ff"/></linearGradient><linearGradient gradientUnits="userSpaceOnUse" id="A" x1="1617.99" y1="401.23" x2="1617.99" y2="441.23"><stop offset="39.49%" stop-color="#fff"/><stop offset="56.66%" stop-color="#c3f7c8"/></linearGradient></defs></g></svg>