<svg xmlns="http://www.w3.org/2000/svg" xmlns:xlink="http://www.w3.org/1999/xlink" xmlns:lucid="lucid" width="1483" height="483"><g transform="translate(-118.5 -558.5)" lucid:page-tab-id="0_0"><path d="M220 700a20 20 0 0 1 20-20h60a20 20 0 0 1 20 20v20a20 20 0 0 1-20 20h-60a20 20 0 0 1-20-20z" stroke="#000" stroke-width="3" fill="url(#a)"/><path d="M440 700a20 20 0 0 1 20-20h60a20 20 0 0 1 20 20v20a20 20 0 0 1-20 20h-60a20 20 0 0 1-20-20z" stroke="#000" stroke-width="3" fill="url(#b)"/><path d="M300 580a20 20 0 0 1 20-20h120a20 20 0 0 1 20 20v17.67a20 20 0 0 1-20 20H320a20 20 0 0 1-20-20z" stroke="#000" stroke-width="3" fill="url(#c)"/><path d="M436.15 628l54.68 47.25M432.23 632.54l54.67 47.25M430.17 640.02l-6.57-18.9 19.65 3.77m-19.65-3.77l6.44 5.56" stroke="#008a0e" stroke-width="3" fill="none"/><path d="M495.2 677.08l-1.24 1.42h-1.63l-2.5-2.16 1.93-2.23z" stroke="#008a0e" stroke-width=".05" fill="#008a0e"/><path stroke="#008a0e" stroke-width=".05" fill="#008a0e"/><path d="M328.38 632.5l-55.3 47.3M324.47 627.93l-55.28 47.32M317.4 624.78l19.65-3.66-6.65 18.86m6.65-18.86l-6.45 5.52" stroke="#008a0e" stroke-width="3" fill="none"/><path stroke="#008a0e" stroke-width=".05" fill="#008a0e"/><path d="M270.18 676.34l-2.53 2.16h-1.6l-1.24-1.45 3.46-2.95z" stroke="#008a0e" stroke-width=".05" fill="#008a0e"/><path d="M180 820a20 20 0 0 1 20-20 20 20 0 0 1 20 20v20a20 20 0 0 1-20 20 20 20 0 0 1-20-20z" stroke="#000" stroke-width="3" fill="url(#d)"/><path d="M520 820a20 20 0 0 1 20-20 20 20 0 0 1 20 20v20a20 20 0 0 1-20 20 20 20 0 0 1-20-20z" stroke="#000" stroke-width="3" fill="url(#e)"/><path d="M420 820a20 20 0 0 1 20-20 20 20 0 0 1 20 20v20a20 20 0 0 1-20 20 20 20 0 0 1-20-20z" stroke="#000" stroke-width="3" fill="url(#f)"/><path d="M320 820a20 20 0 0 1 20-20 20 20 0 0 1 20 20v20a20 20 0 0 1-20 20 20 20 0 0 1-20-20z" stroke="#000" stroke-width="3" fill="url(#g)"/><path d="M250 820a20 20 0 0 1 20-20 20 20 0 0 1 20 20v20a20 20 0 0 1-20 20 20 20 0 0 1-20-20z" stroke="#000" stroke-width="3" fill="url(#h)"/><path d="M518.92 753.18l22.4 43.5M515.37 755l22.4 43.52M510.62 763.25l.96-19.97 16.82 10.82m-16.82-10.82l3.9 7.56" stroke="#000" stroke-width="2" fill="none"/><path d="M543.5 798.8l-.14-.04-2.16-.17-.76-1.5 1.74-.88zM538.9 798.58l-1.55.12 1.27-.65z" stroke="#000" stroke-width=".05"/><path d="M465.17 754.96l-22.93 43.58M461.63 753.1l-22.93 43.58M452.15 753.94l16.92-10.67.78 20m-.78-20l-3.96 7.52" stroke="#000" stroke-width="2" fill="none"/><path d="M442.6 798.7l-1.5-.12.28-.5zM439.57 797.1l-.78 1.5-2.16.16-.16.04 1.37-2.6z" stroke="#000" stroke-width=".05"/><path d="M309.77 751.94l31.3 44.6M306.5 754.24l31.3 44.6M302.9 763.06l-1.75-19.92 18.13 8.43m-18.13-8.43l4.88 6.96" stroke="#000" stroke-width="2" fill="none"/><path d="M343.9 798.9l-.54-.14-2.04-.16-1.07-1.53 1.6-1.12zM338.8 798.6l-.8.05.57-.4z" stroke="#000" stroke-width=".05"/><path d="M272 755.66v41.84M268 755.66v41.84M260 760.82l10-17.32 10 17.32m-10-17.32v8.5" stroke="#000" stroke-width="2" fill="none"/><path d="M272.98 798.73l-1.96-.15v-1.1h1.96zM268.98 798.58l-1.96.15v-1.26h1.96z" stroke="#000" stroke-width=".05"/><path d="M234.18 754.18l-31.97 44.67M230.93 751.85l-31.97 44.67M221.42 751.4l18.22-8.27-1.95 19.9m1.94-19.9l-4.95 6.9" stroke="#000" stroke-width="2" fill="none"/><path d="M201.98 798.65l-.8-.06.25-.34zM199.76 797.07l-1.1 1.53-2.02.16-.6.14 2.14-2.97z" stroke="#000" stroke-width=".05"/><path d="M120 886a6 6 0 0 1 6-6h488a6 6 0 0 1 6 6v148a6 6 0 0 1-6 6H126a6 6 0 0 1-6-6z" stroke="#000" stroke-opacity="0" stroke-width="3" fill="#fff" fill-opacity="0"/><use xlink:href="#i" transform="matrix(1,0,0,1,125,885) translate(40.888888888888914 36.6875)"/><use xlink:href="#j" transform="matrix(1,0,0,1,125,885) translate(211.44444444444449 36.6875)"/><use xlink:href="#k" transform="matrix(1,0,0,1,125,885) translate(331.44444444444446 36.6875)"/><use xlink:href="#l" transform="matrix(1,0,0,1,125,885) translate(13.944444444444457 84.6875)"/><use xlink:href="#m" transform="matrix(1,0,0,1,125,885) translate(204.94444444444449 84.6875)"/><use xlink:href="#n" transform="matrix(1,0,0,1,125,885) translate(271.61111111111114 84.6875)"/><use xlink:href="#o" transform="matrix(1,0,0,1,125,885) translate(400.5 84.6875)"/><use xlink:href="#p" transform="matrix(1,0,0,1,125,885) translate(28.666666666666686 132.6875)"/><use xlink:href="#q" transform="matrix(1,0,0,1,125,885) translate(168.44444444444446 132.6875)"/><use xlink:href="#r" transform="matrix(1,0,0,1,125,885) translate(259.33333333333337 132.6875)"/><use xlink:href="#s" transform="matrix(1,0,0,1,125,885) translate(352.44444444444446 132.6875)"/><path d="M250 730c0 5.52-4.48 10-10 10s-10-4.48-10-10 4.48-10 10-10 10 4.48 10 10z" stroke="#fcce14" stroke-width="3" fill="#008a0e"/><path d="M280 730c0 5.52-4.48 10-10 10s-10-4.48-10-10 4.48-10 10-10 10 4.48 10 10z" stroke="#fcce14" stroke-width="3" fill="#82755b"/><path d="M310 730c0 5.52-4.48 10-10 10s-10-4.48-10-10 4.48-10 10-10 10 4.48 10 10z" stroke="#fcce14" stroke-width="3" fill="#1071e5"/><path d="M480 730c0 5.52-4.48 10-10 10s-10-4.48-10-10 4.48-10 10-10 10 4.48 10 10z" stroke="#fcce14" stroke-width="3" fill="#ba23f6"/><path d="M520 730c0 5.52-4.48 10-10 10s-10-4.48-10-10 4.48-10 10-10 10 4.48 10 10z" stroke="#fcce14" stroke-width="3" fill="#635dff"/><path d="M340 586.5c0 5.52-4.48 10-10 10s-10-4.48-10-10 4.48-10 10-10 10 4.48 10 10z" stroke="#fcce14" stroke-width="3" fill="#008a0e"/><path d="M340 607.67c0 5.52-4.48 10-10 10s-10-4.48-10-10c0-5.53 4.48-10 10-10s10 4.47 10 10z" stroke="#fcce14" stroke-width="3" fill="#82755b"/><path d="M360 607.67c0 5.52-4.48 10-10 10s-10-4.48-10-10c0-5.53 4.48-10 10-10s10 4.47 10 10z" stroke="#fcce14" stroke-width="3" fill="#1071e5"/><path d="M420 607.67c0 5.52-4.48 10-10 10s-10-4.48-10-10c0-5.53 4.48-10 10-10s10 4.47 10 10z" stroke="#fcce14" stroke-width="3" fill="#ba23f6"/><path d="M440 607.67c0 5.52-4.48 10-10 10s-10-4.48-10-10c0-5.53 4.48-10 10-10s10 4.47 10 10z" stroke="#fcce14" stroke-width="3" fill="#635dff"/><path d="M740 700a20 20 0 0 1 20-20h60a20 20 0 0 1 20 20v20a20 20 0 0 1-20 20h-60a20 20 0 0 1-20-20z" stroke="#000" stroke-width="3" fill="url(#t)"/><path d="M960 700a20 20 0 0 1 20-20h60a20 20 0 0 1 20 20v20a20 20 0 0 1-20 20h-60a20 20 0 0 1-20-20z" stroke="#000" stroke-width="3" fill="url(#u)"/><path d="M820 580a20 20 0 0 1 20-20h120a20 20 0 0 1 20 20v17.67a20 20 0 0 1-20 20H840a20 20 0 0 1-20-20z" stroke="#000" stroke-width="3" fill="url(#v)"/><path d="M953.36 626.9l47.23 40.83M950.74 629.94l47.24 40.8M949.4 639.37l-6.55-18.9 19.64 3.76m-19.65-3.76l6.43 5.56M1001.92 658.3l6.57 18.9-19.66-3.77m19.65 3.76l-6.45-5.57M849.88 629.9l-47.82 40.9M847.27 626.85l-47.8 40.92M838.15 624.13l19.66-3.66-6.64 18.86m6.65-18.86l-6.44 5.52M811.18 673.54l-19.66 3.66 6.66-18.86m-6.66 18.86l6.46-5.53" stroke="#000" stroke-width="2" fill="none"/><path d="M700 820a20 20 0 0 1 20-20 20 20 0 0 1 20 20v20a20 20 0 0 1-20 20 20 20 0 0 1-20-20z" stroke="#000" stroke-width="3" fill="url(#w)"/><path d="M1040 820a20 20 0 0 1 20-20 20 20 0 0 1 20 20v20a20 20 0 0 1-20 20 20 20 0 0 1-20-20z" stroke="#000" stroke-width="3" fill="url(#x)"/><path d="M940 820a20 20 0 0 1 20-20 20 20 0 0 1 20 20v20a20 20 0 0 1-20 20 20 20 0 0 1-20-20z" stroke="#000" stroke-width="3" fill="url(#y)"/><path d="M840 820a20 20 0 0 1 20-20 20 20 0 0 1 20 20v20a20 20 0 0 1-20 20 20 20 0 0 1-20-20z" stroke="#000" stroke-width="3" fill="url(#z)"/><path d="M770 820a20 20 0 0 1 20-20 20 20 0 0 1 20 20v20a20 20 0 0 1-20 20 20 20 0 0 1-20-20z" stroke="#000" stroke-width="3" fill="url(#A)"/><path d="M1038.92 753.18l16.38 31.8M1035.37 755l16.37 31.82M1030.62 763.25l.96-19.97 16.82 10.82m-16.82-10.82l3.9 7.56M1060.05 776.74l-.96 19.98-16.83-10.83m16.82 10.82l-3.9-7.56M985.17 754.96l-16.8 31.94M981.63 753.1l-16.8 31.93M972.15 753.94l16.92-10.67.78 20m-.78-20l-3.96 7.52M977.85 786.06l-16.92 10.67-.78-20m.78 20l3.96-7.53" stroke="#000" stroke-width="2" fill="none"/><path d="M823.32 741l29.38 41.87M818.4 744.45l29.38 41.86" stroke="#008a0e" stroke-width="3" fill="none"/><path d="M822.13 741.88l-.36-.5 1.24-.1zM819.64 743.63l-2.42 1.7-2.6-3.72.16-.1h3.36z" stroke="#008a0e" stroke-width=".05" fill="#008a0e"/><path d="M856.5 776.12l1.78 19.92-18.14-8.43m18.14 8.44l-4.9-6.96" stroke="#008a0e" stroke-width="3" fill="none"/><path d="M792 755.66v28.68M788 755.66v28.68M780 760.82l10-17.32 10 17.32m-10-17.32v8.5M800 779.17l-10 17.33-10-17.33m10 17.33V788" stroke="#000" stroke-width="2" fill="none"/><path d="M753.35 757.06l-30.04 41.96M748.47 753.57l-30.04 41.96M740.84 752.2l18.2-8.26-1.94 19.9m1.95-19.9l-4.94 6.9" stroke="#008a0e" stroke-width="3" fill="none"/><path d="M722.97 798.73l-1.2-.1.37-.5zM719.65 796.36l-1.64 2.3-1.36.1-1.07.25-.96-.67 2.66-3.7z" stroke="#008a0e" stroke-width=".05" fill="#008a0e"/><path d="M680 886a6 6 0 0 1 6-6h408a6 6 0 0 1 6 6v148a6 6 0 0 1-6 6H686a6 6 0 0 1-6-6z" stroke="#000" stroke-opacity="0" stroke-width="3" fill="#fff" fill-opacity="0"/><use xlink:href="#i" transform="matrix(1,0,0,1,685,885) translate(0.8888888888889142 36.6875)"/><use xlink:href="#j" transform="matrix(1,0,0,1,685,885) translate(171.44444444444449 36.6875)"/><use xlink:href="#k" transform="matrix(1,0,0,1,685,885) translate(291.44444444444446 36.6875)"/><use xlink:href="#B" transform="matrix(1,0,0,1,685,885) translate(48.44444444444443 84.6875)"/><use xlink:href="#C" transform="matrix(1,0,0,1,685,885) translate(112.88888888888887 84.6875)"/><use xlink:href="#D" transform="matrix(1,0,0,1,685,885) translate(39.66666666666666 132.6875)"/><use xlink:href="#E" transform="matrix(1,0,0,1,685,885) translate(223.8888888888889 132.6875)"/><path d="M770 730c0 5.52-4.48 10-10 10s-10-4.48-10-10 4.48-10 10-10 10 4.48 10 10z" stroke="#fcce14" stroke-width="3" fill="#008a0e"/><path d="M870 810c0 5.52-4.48 10-10 10s-10-4.48-10-10 4.48-10 10-10 10 4.48 10 10z" stroke="#fcce14" stroke-width="3" fill="#1071e5"/><path d="M239.4 717.3a1.5 1.5 0 0 1 1.5-1.5 1.5 1.5 0 0 1 1.5 1.5 1.5 1.5 0 0 1-1.5 1.5 1.5 1.5 0 0 1-1.5-1.5v-.03m3.34-4.43a1.5 1.5 0 0 1 1.5-1.5 1.5 1.5 0 0 1 1.5 1.5 1.5 1.5 0 0 1-1.5 1.5 1.5 1.5 0 0 1-1.5-1.5v-.03m3.35-4.4v-.03a1.5 1.5 0 0 1 1.5-1.5 1.5 1.5 0 0 1 1.5 1.5 1.5 1.5 0 0 1-1.5 1.5 1.5 1.5 0 0 1-1.5-1.5m3.34-4.44v-.02a1.5 1.5 0 0 1 1.5-1.5 1.5 1.5 0 0 1 1.5 1.5 1.5 1.5 0 0 1-1.5 1.5 1.5 1.5 0 0 1-1.5-1.5m3.34-4.43v-.02a1.5 1.5 0 0 1 1.5-1.5 1.5 1.5 0 0 1 1.5 1.5 1.5 1.5 0 0 1-1.5 1.5 1.5 1.5 0 0 1-1.5-1.5m3.34-4.44a1.5 1.5 0 0 1 1.5-1.5 1.5 1.5 0 0 1 1.5 1.5 1.5 1.5 0 0 1-1.5 1.5 1.5 1.5 0 0 1-1.5-1.5v-.02" fill="#008a0e"/><path d="M242.1 718.14l-.42.57-1.68-.2-2.04.25 1.78-2.38z" stroke="#008a0e" stroke-width=".05" fill="#008a0e"/><path d="M267.1 682.38l-4.87 14.2-7.4-5.57z" stroke="#008a0e" stroke-width="3" fill="#fff"/><path d="M268.5 717a1.5 1.5 0 0 1 1.5-1.5 1.5 1.5 0 0 1 1.5 1.5 1.5 1.5 0 0 1-1.5 1.5 1.5 1.5 0 0 1-1.5-1.5v-.03m0-5.92v-.02a1.5 1.5 0 0 1 1.5-1.5 1.5 1.5 0 0 1 1.5 1.5 1.5 1.5 0 0 1-1.5 1.5 1.5 1.5 0 0 1-1.5-1.5m0-5.94v-.02a1.5 1.5 0 0 1 1.5-1.5 1.5 1.5 0 0 1 1.5 1.5 1.5 1.5 0 0 1-1.5 1.5 1.5 1.5 0 0 1-1.5-1.5v-.02" fill="#008a0e"/><path d="M271.48 718.68l-1.48-.2-1.48.2v-1.73h2.96z" stroke="#008a0e" stroke-width=".05" fill="#008a0e"/><path d="M270 683.35l4.63 14.27h-9.26z" stroke="#008a0e" stroke-width="3" fill="#fff"/><path d="M297.6 717.3a1.5 1.5 0 0 1 1.5-1.5 1.5 1.5 0 0 1 1.5 1.5 1.5 1.5 0 0 1-1.5 1.5 1.5 1.5 0 0 1-1.5-1.5v-.03m-3.35-4.43a1.5 1.5 0 0 1 1.5-1.5 1.5 1.5 0 0 1 1.5 1.5 1.5 1.5 0 0 1-1.5 1.5 1.5 1.5 0 0 1-1.5-1.5v-.03m-3.34-4.4v-.03a1.5 1.5 0 0 1 1.5-1.5 1.5 1.5 0 0 1 1.5 1.5 1.5 1.5 0 0 1-1.5 1.5 1.5 1.5 0 0 1-1.5-1.5m-3.33-4.44v-.02a1.5 1.5 0 0 1 1.5-1.5 1.5 1.5 0 0 1 1.5 1.5 1.5 1.5 0 0 1-1.5 1.5 1.5 1.5 0 0 1-1.5-1.5m-3.35-4.43v-.02a1.5 1.5 0 0 1 1.5-1.5 1.5 1.5 0 0 1 1.5 1.5 1.5 1.5 0 0 1-1.5 1.5 1.5 1.5 0 0 1-1.5-1.5m-3.35-4.44a1.5 1.5 0 0 1 1.5-1.5 1.5 1.5 0 0 1 1.5 1.5 1.5 1.5 0 0 1-1.5 1.5 1.5 1.5 0 0 1-1.5-1.5v-.02" fill="#008a0e"/><path d="M302.05 718.75l-2.05-.26-1.68.2-.42-.56 2.36-1.77z" stroke="#008a0e" stroke-width=".05" fill="#008a0e"/><path d="M272.9 682.38L285.2 691l-7.4 5.58z" stroke="#008a0e" stroke-width="3" fill="#fff"/><path d="M469.17 717.16a1.5 1.5 0 0 1 1.5-1.5 1.5 1.5 0 0 1 1.5 1.5 1.5 1.5 0 0 1-1.5 1.5 1.5 1.5 0 0 1-1.5-1.5v-.03m2.53-5.02a1.5 1.5 0 0 1 1.5-1.5 1.5 1.5 0 0 1 1.5 1.5 1.5 1.5 0 0 1-1.5 1.5 1.5 1.5 0 0 1-1.5-1.5v-.02m2.52-5.02v-.02a1.5 1.5 0 0 1 1.5-1.5 1.5 1.5 0 0 1 1.5 1.5 1.5 1.5 0 0 1-1.5 1.5 1.5 1.5 0 0 1-1.5-1.5m2.53-5.03a1.5 1.5 0 0 1 1.5-1.5 1.5 1.5 0 0 1 1.5 1.5 1.5 1.5 0 0 1-1.5 1.5 1.5 1.5 0 0 1-1.5-1.5v-.02" fill="#008a0e"/><path d="M472 717.77l-.45.92-1.55-.2-1.76.22 1.13-2.27z" stroke="#008a0e" stroke-width=".05" fill="#008a0e"/><path d="M487.83 682.84l-2.24 14.83-8.3-4.14z" stroke="#008a0e" stroke-width="3" fill="#fff"/><path d="M507.83 717.16a1.5 1.5 0 0 1 1.5-1.5 1.5 1.5 0 0 1 1.5 1.5 1.5 1.5 0 0 1-1.5 1.5 1.5 1.5 0 0 1-1.5-1.5v-.03m-2.53-5.02a1.5 1.5 0 0 1 1.5-1.5 1.5 1.5 0 0 1 1.5 1.5 1.5 1.5 0 0 1-1.5 1.5 1.5 1.5 0 0 1-1.5-1.5v-.02m-2.52-5.02v-.02a1.5 1.5 0 0 1 1.5-1.5 1.5 1.5 0 0 1 1.5 1.5 1.5 1.5 0 0 1-1.5 1.5 1.5 1.5 0 0 1-1.5-1.5m-2.53-5.03a1.5 1.5 0 0 1 1.5-1.5 1.5 1.5 0 0 1 1.5 1.5 1.5 1.5 0 0 1-1.5 1.5 1.5 1.5 0 0 1-1.5-1.5v-.02" fill="#008a0e"/><path d="M511.76 718.72l-1.76-.23-1.55.2-.46-.93 2.63-1.32z" stroke="#008a0e" stroke-width=".05" fill="#008a0e"/><path d="M492.17 682.84l10.53 10.7-8.3 4.13z" stroke="#008a0e" stroke-width="3" fill="#fff"/><path d="M759.06 717.1a1.5 1.5 0 0 1 1.5-1.5 1.5 1.5 0 0 1 1.5 1.5 1.5 1.5 0 0 1-1.5 1.5 1.5 1.5 0 0 1-1.5-1.5v-.02m2.35-5.6a1.5 1.5 0 0 1 1.5-1.5 1.5 1.5 0 0 1 1.5 1.5 1.5 1.5 0 0 1-1.5 1.5 1.5 1.5 0 0 1-1.5-1.5v-.03m2.88-5.35v-.02a1.5 1.5 0 0 1 1.5-1.5 1.5 1.5 0 0 1 1.5 1.5 1.5 1.5 0 0 1-1.5 1.5 1.5 1.5 0 0 1-1.5-1.5m3.44-5v-.03a1.5 1.5 0 0 1 1.5-1.5 1.5 1.5 0 0 1 1.5 1.5 1.5 1.5 0 0 1-1.5 1.5 1.5 1.5 0 0 1-1.5-1.5m4.3-4.3v-.02a1.5 1.5 0 0 1 1.5-1.5 1.5 1.5 0 0 1 1.5 1.5 1.5 1.5 0 0 1-1.5 1.5 1.5 1.5 0 0 1-1.5-1.5v-.02m5.22-3.05v-.02a1.5 1.5 0 0 1 1.5-1.5 1.5 1.5 0 0 1 1.5 1.5 1.5 1.5 0 0 1-1.5 1.5 1.5 1.5 0 0 1-1.5-1.5m5.97-1a1.5 1.5 0 0 1 1.5-1.5 1.5 1.5 0 0 1 1.5 1.5 1.5 1.5 0 0 1-1.5 1.5 1.5 1.5 0 0 1-1.5-1.5v-.02m5.9 1.45a1.5 1.5 0 0 1 1.5-1.5 1.5 1.5 0 0 1 1.5 1.5 1.5 1.5 0 0 1-1.5 1.5 1.5 1.5 0 0 1-1.5-1.5v-.02m5.2 3.2a1.5 1.5 0 0 1 1.5-1.5 1.5 1.5 0 0 1 1.5 1.5 1.5 1.5 0 0 1-1.5 1.5 1.5 1.5 0 0 1-1.5-1.5v-.03m4.42 4.22a1.5 1.5 0 0 1 1.5-1.5 1.5 1.5 0 0 1 1.5 1.5 1.5 1.5 0 0 1-1.5 1.5 1.5 1.5 0 0 1-1.5-1.5v-.03m3.8 4.78a1.5 1.5 0 0 1 1.5-1.5 1.5 1.5 0 0 1 1.5 1.5 1.5 1.5 0 0 1-1.5 1.5 1.5 1.5 0 0 1-1.5-1.5v-.03m3.3 5.16a1.5 1.5 0 0 1 1.5-1.5 1.5 1.5 0 0 1 1.5 1.5 1.5 1.5 0 0 1-1.5 1.5 1.5 1.5 0 0 1-1.5-1.5v-.02m2.95 5.38v-.02a1.5 1.5 0 0 1 1.5-1.5 1.5 1.5 0 0 1 1.5 1.5 1.5 1.5 0 0 1-1.5 1.5 1.5 1.5 0 0 1-1.5-1.5" fill="#008a0e"/><path d="M761.95 717.6l-.44 1.08-1.5-.2-1.68.23.9-2.2z" stroke="#008a0e" stroke-width=".05" fill="#008a0e"/><path d="M818.3 736.95l-9.32-11.75 8.7-3.24z" stroke="#008a0e" stroke-width="3" fill="#fff"/><path d="M1260 700a20 20 0 0 1 20-20h60a20 20 0 0 1 20 20v20a20 20 0 0 1-20 20h-60a20 20 0 0 1-20-20z" stroke="#000" stroke-width="3" fill="url(#F)"/><path d="M1480 700a20 20 0 0 1 20-20h60a20 20 0 0 1 20 20v20a20 20 0 0 1-20 20h-60a20 20 0 0 1-20-20z" stroke="#000" stroke-width="3" fill="url(#G)"/><path d="M1340 580a20 20 0 0 1 20-20h120a20 20 0 0 1 20 20v17.67a20 20 0 0 1-20 20h-120a20 20 0 0 1-20-20z" stroke="#000" stroke-width="3" fill="url(#H)"/><path d="M1473.36 626.9l47.23 40.83M1470.74 629.94l47.24 40.8M1469.4 639.37l-6.55-18.9 19.64 3.76m-19.65-3.76l6.43 5.56M1521.92 658.3l6.57 18.9-19.66-3.77m19.65 3.76l-6.44-5.57M1369.88 629.9l-47.82 40.9M1367.27 626.85l-47.8 40.92M1358.15 624.13l19.66-3.66-6.64 18.86m6.65-18.86l-6.44 5.52M1331.18 673.54l-19.66 3.66 6.66-18.86m-6.66 18.86l6.46-5.53" stroke="#000" stroke-width="2" fill="none"/><path d="M1220 820a20 20 0 0 1 20-20 20 20 0 0 1 20 20v20a20 20 0 0 1-20 20 20 20 0 0 1-20-20z" stroke="#000" stroke-width="3" fill="url(#I)"/><path d="M1560 820a20 20 0 0 1 20-20 20 20 0 0 1 20 20v20a20 20 0 0 1-20 20 20 20 0 0 1-20-20z" stroke="#000" stroke-width="3" fill="url(#J)"/><path d="M1460 820a20 20 0 0 1 20-20 20 20 0 0 1 20 20v20a20 20 0 0 1-20 20 20 20 0 0 1-20-20z" stroke="#000" stroke-width="3" fill="url(#K)"/><path d="M1360 820a20 20 0 0 1 20-20 20 20 0 0 1 20 20v20a20 20 0 0 1-20 20 20 20 0 0 1-20-20z" stroke="#000" stroke-width="3" fill="url(#L)"/><path d="M1290 820a20 20 0 0 1 20-20 20 20 0 0 1 20 20v20a20 20 0 0 1-20 20 20 20 0 0 1-20-20z" stroke="#000" stroke-width="3" fill="url(#M)"/><path d="M1558.92 753.18l16.38 31.8M1555.37 755l16.37 31.82M1550.62 763.25l.96-19.97 16.82 10.82m-16.82-10.82l3.9 7.56M1580.05 776.74l-.96 19.98-16.83-10.83m16.82 10.82l-3.9-7.56M1505.17 754.96l-16.8 31.94M1501.63 753.1l-16.8 31.93M1492.15 753.94l16.92-10.67.78 20m-.78-20l-3.96 7.52M1497.85 786.06l-16.92 10.67-.78-20m.78 20l3.96-7.53M1349.77 751.94l23.73 33.82M1346.5 754.24l23.73 33.8M1342.9 763.06l-1.75-19.92 18.13 8.43m-18.13-8.43l4.88 6.96M1377.1 776.94l1.75 19.92-18.13-8.44m18.13 8.44l-4.88-6.96M1312 755.66v28.68M1308 755.66v28.68M1300 760.82l10-17.32 10 17.32m-10-17.32v8.5M1320 779.17l-10 17.33-10-17.33m10 17.33V788M1274.18 754.18l-24.3 33.97M1270.93 751.85l-24.3 33.97M1261.42 751.4l18.22-8.27-1.96 19.9m1.96-19.9l-4.95 6.9M1259.38 788.6l-18.22 8.27 1.95-19.9m-1.94 19.9l4.95-6.9" stroke="#000" stroke-width="2" fill="none"/><path d="M1220 886a6 6 0 0 1 6-6h368a6 6 0 0 1 6 6v148a6 6 0 0 1-6 6h-368a6 6 0 0 1-6-6z" stroke="#000" stroke-opacity="0" stroke-width="3" fill="#fff" fill-opacity="0"/><g><use xlink:href="#N" transform="matrix(1,0,0,1,1225,885) translate(3 36.6875)"/><use xlink:href="#j" transform="matrix(1,0,0,1,1225,885) translate(182.55555555555554 36.6875)"/><use xlink:href="#O" transform="matrix(1,0,0,1,1225,885) translate(302.55555555555554 36.6875)"/><use xlink:href="#P" transform="matrix(1,0,0,1,1225,885) translate(27.5 84.6875)"/><use xlink:href="#Q" transform="matrix(1,0,0,1,1225,885) translate(121.83333333333334 132.6875)"/></g><path d="M1480 830c0 5.52-4.48 10-10 10s-10-4.48-10-10 4.48-10 10-10 10 4.48 10 10z" stroke="#fcce14" stroke-width="3" fill="#1071e5"/><path d="M1418.5 827h23M1418.5 833h23M1421.82 840l-17.32-10 17.32-10m-17.32 10h8.5M1438.18 820l17.32 10-17.32 10m17.32-10h-8.5" stroke="#008a0e" stroke-width="3" fill="none"/><path d="M1400 830c0 5.52-4.48 10-10 10s-10-4.48-10-10 4.48-10 10-10 10 4.48 10 10z" stroke="#fcce14" stroke-width="3" fill="#ba23f6"/><defs><linearGradient gradientUnits="userSpaceOnUse" id="a" x1="220" y1="740" x2="220" y2="680"><stop offset="31.07%" stop-color="#fff"/><stop offset="42.5%" stop-color="#cfe4ff"/><stop offset="70.65%" stop-color="#cfe4ff"/><stop offset="84.42%" stop-color="#c3f7c8"/></linearGradient><linearGradient gradientUnits="userSpaceOnUse" id="b" x1="440" y1="740" x2="440" y2="680"><stop offset="31.07%" stop-color="#fff"/><stop offset="42.5%" stop-color="#cfe4ff"/><stop offset="70.65%" stop-color="#cfe4ff"/><stop offset="84.42%" stop-color="#c3f7c8"/></linearGradient><linearGradient gradientUnits="userSpaceOnUse" id="c" x1="300" y1="560" x2="300" y2="617.67"><stop offset="56.16%" stop-color="#c3f7c8"/><stop offset="75.72%" stop-color="#cfe4ff"/></linearGradient><linearGradient gradientUnits="userSpaceOnUse" id="d" x1="180" y1="800" x2="180" y2="860"><stop offset="26.79%" stop-color="#cfe4ff"/><stop offset="37.5%" stop-color="#fff"/></linearGradient><linearGradient gradientUnits="userSpaceOnUse" id="e" x1="520" y1="800" x2="520" y2="860"><stop offset="26.79%" stop-color="#cfe4ff"/><stop offset="37.5%" stop-color="#fff"/></linearGradient><linearGradient gradientUnits="userSpaceOnUse" id="f" x1="420" y1="800" x2="420" y2="860"><stop offset="26.79%" stop-color="#cfe4ff"/><stop offset="37.5%" stop-color="#fff"/></linearGradient><linearGradient gradientUnits="userSpaceOnUse" id="g" x1="320" y1="800" x2="320" y2="860"><stop offset="26.79%" stop-color="#cfe4ff"/><stop offset="37.5%" stop-color="#fff"/></linearGradient><linearGradient gradientUnits="userSpaceOnUse" id="h" x1="250" y1="800" x2="250" y2="860"><stop offset="26.79%" stop-color="#cfe4ff"/><stop offset="37.5%" stop-color="#fff"/></linearGradient><path d="M240 0l2-218c-23 76-54 145-80 218h-23L58-218 59 0H30v-248h44l77 211c21-75 51-140 76-211h43V0h-30" id="R"/><path d="M24-231v-30h32v30H24zM24 0v-190h32V0H24" id="S"/><path d="M85-194c31 0 48 13 60 33l-1-100h32l1 261h-30c-2-10 0-23-3-31C134-8 116 4 85 4 32 4 16-35 15-94c0-66 23-100 70-100zm9 24c-40 0-46 34-46 75 0 40 6 74 45 74 42 0 51-32 51-76 0-42-9-74-50-73" id="T"/><path d="M16-82v-28h88v28H16" id="U"/><path d="M24 0v-261h32V0H24" id="V"/><path d="M100-194c63 0 86 42 84 106H49c0 40 14 67 53 68 26 1 43-12 49-29l28 8c-11 28-37 45-77 45C44 4 14-33 15-96c1-61 26-98 85-98zm52 81c6-60-76-77-97-28-3 7-6 17-6 28h103" id="W"/><path d="M108 0H70L1-190h34L89-25l56-165h34" id="X"/><g id="i"><use transform="matrix(0.1111111111111111,0,0,0.1111111111111111,0,0)" xlink:href="#R"/><use transform="matrix(0.1111111111111111,0,0,0.1111111111111111,33.22222222222222,0)" xlink:href="#S"/><use transform="matrix(0.1111111111111111,0,0,0.1111111111111111,42,0)" xlink:href="#T"/><use transform="matrix(0.1111111111111111,0,0,0.1111111111111111,64.22222222222223,0)" xlink:href="#U"/><use transform="matrix(0.1111111111111111,0,0,0.1111111111111111,77.44444444444446,0)" xlink:href="#V"/><use transform="matrix(0.1111111111111111,0,0,0.1111111111111111,86.22222222222223,0)" xlink:href="#W"/><use transform="matrix(0.1111111111111111,0,0,0.1111111111111111,108.44444444444446,0)" xlink:href="#X"/><use transform="matrix(0.1111111111111111,0,0,0.1111111111111111,128.44444444444446,0)" xlink:href="#W"/><use transform="matrix(0.1111111111111111,0,0,0.1111111111111111,150.66666666666669,0)" xlink:href="#V"/></g><path d="M117-194c89-4 53 116 60 194h-32v-121c0-31-8-49-39-48C34-167 62-67 57 0H25l-1-190h30c1 10-1 24 2 32 11-22 29-35 61-36" id="Y"/><path d="M100-194c62-1 85 37 85 99 1 63-27 99-86 99S16-35 15-95c0-66 28-99 85-99zM99-20c44 1 53-31 53-75 0-43-8-75-51-75s-53 32-53 75 10 74 51 75" id="Z"/><path d="M135-143c-3-34-86-38-87 0 15 53 115 12 119 90S17 21 10-45l28-5c4 36 97 45 98 0-10-56-113-15-118-90-4-57 82-63 122-42 12 7 21 19 24 35" id="aa"/><g id="j"><use transform="matrix(0.1111111111111111,0,0,0.1111111111111111,0,0)" xlink:href="#Y"/><use transform="matrix(0.1111111111111111,0,0,0.1111111111111111,22.22222222222222,0)" xlink:href="#Z"/><use transform="matrix(0.1111111111111111,0,0,0.1111111111111111,44.44444444444444,0)" xlink:href="#T"/><use transform="matrix(0.1111111111111111,0,0,0.1111111111111111,66.66666666666666,0)" xlink:href="#W"/><use transform="matrix(0.1111111111111111,0,0,0.1111111111111111,88.88888888888889,0)" xlink:href="#aa"/></g><path d="M106-169C34-169 62-67 57 0H25v-261h32l-1 103c12-21 28-36 61-36 89 0 53 116 60 194h-32v-121c2-32-8-49-39-48" id="ab"/><path d="M84 4C-5 8 30-112 23-190h32v120c0 31 7 50 39 49 72-2 45-101 50-169h31l1 190h-30c-1-10 1-25-2-33-11 22-28 36-60 37" id="ac"/><g id="k"><use transform="matrix(0.1111111111111111,0,0,0.1111111111111111,0,0)" xlink:href="#aa"/><use transform="matrix(0.1111111111111111,0,0,0.1111111111111111,20,0)" xlink:href="#ab"/><use transform="matrix(0.1111111111111111,0,0,0.1111111111111111,42.22222222222222,0)" xlink:href="#Z"/><use transform="matrix(0.1111111111111111,0,0,0.1111111111111111,64.44444444444444,0)" xlink:href="#ac"/><use transform="matrix(0.1111111111111111,0,0,0.1111111111111111,86.66666666666666,0)" xlink:href="#V"/><use transform="matrix(0.1111111111111111,0,0,0.1111111111111111,95.44444444444443,0)" xlink:href="#T"/></g><path d="M141-36C126-15 110 5 73 4 37 3 15-17 15-53c-1-64 63-63 125-63 3-35-9-54-41-54-24 1-41 7-42 31l-33-3c5-37 33-52 76-52 45 0 72 20 72 64v82c-1 20 7 32 28 27v20c-31 9-61-2-59-35zM48-53c0 20 12 33 32 33 41-3 63-29 60-74-43 2-92-5-92 41" id="ad"/><path d="M177-190C167-65 218 103 67 71c-23-6-38-20-44-43l32-5c15 47 100 32 89-28v-30C133-14 115 1 83 1 29 1 15-40 15-95c0-56 16-97 71-98 29-1 48 16 59 35 1-10 0-23 2-32h30zM94-22c36 0 50-32 50-73 0-42-14-75-50-75-39 0-46 34-46 75s6 73 46 73" id="ae"/><path d="M114-163C36-179 61-72 57 0H25l-1-190h30c1 12-1 29 2 39 6-27 23-49 58-41v29" id="af"/><path d="M59-47c-2 24 18 29 38 22v24C64 9 27 4 27-40v-127H5v-23h24l9-43h21v43h35v23H59v120" id="ag"/><g id="l"><use transform="matrix(0.1111111111111111,0,0,0.1111111111111111,0,0)" xlink:href="#ad"/><use transform="matrix(0.1111111111111111,0,0,0.1111111111111111,22.22222222222222,0)" xlink:href="#ae"/><use transform="matrix(0.1111111111111111,0,0,0.1111111111111111,44.44444444444444,0)" xlink:href="#ae"/><use transform="matrix(0.1111111111111111,0,0,0.1111111111111111,66.66666666666666,0)" xlink:href="#af"/><use transform="matrix(0.1111111111111111,0,0,0.1111111111111111,79.88888888888889,0)" xlink:href="#W"/><use transform="matrix(0.1111111111111111,0,0,0.1111111111111111,102.11111111111111,0)" xlink:href="#ae"/><use transform="matrix(0.1111111111111111,0,0,0.1111111111111111,124.33333333333336,0)" xlink:href="#ad"/><use transform="matrix(0.1111111111111111,0,0,0.1111111111111111,146.55555555555557,0)" xlink:href="#ag"/><use transform="matrix(0.1111111111111111,0,0,0.1111111111111111,157.66666666666669,0)" xlink:href="#W"/></g><g id="m"><use transform="matrix(0.1111111111111111,0,0,0.1111111111111111,0,0)" xlink:href="#ag"/><use transform="matrix(0.1111111111111111,0,0,0.1111111111111111,11.11111111111111,0)" xlink:href="#ab"/><use transform="matrix(0.1111111111111111,0,0,0.1111111111111111,33.33333333333333,0)" xlink:href="#W"/></g><g id="n"><use transform="matrix(0.1111111111111111,0,0,0.1111111111111111,0,0)" xlink:href="#W"/><use transform="matrix(0.1111111111111111,0,0,0.1111111111111111,22.22222222222222,0)" xlink:href="#X"/><use transform="matrix(0.1111111111111111,0,0,0.1111111111111111,42.22222222222222,0)" xlink:href="#W"/><use transform="matrix(0.1111111111111111,0,0,0.1111111111111111,64.44444444444444,0)" xlink:href="#Y"/><use transform="matrix(0.1111111111111111,0,0,0.1111111111111111,86.66666666666666,0)" xlink:href="#ag"/><use transform="matrix(0.1111111111111111,0,0,0.1111111111111111,97.77777777777777,0)" xlink:href="#aa"/></g><path d="M179-190L93 31C79 59 56 82 12 73V49c39 6 53-20 64-50L1-190h34L92-34l54-156h33" id="ah"/><g id="o"><use transform="matrix(0.1111111111111111,0,0,0.1111111111111111,0,0)" xlink:href="#ag"/><use transform="matrix(0.1111111111111111,0,0,0.1111111111111111,11.11111111111111,0)" xlink:href="#ab"/><use transform="matrix(0.1111111111111111,0,0,0.1111111111111111,33.33333333333333,0)" xlink:href="#W"/><use transform="matrix(0.1111111111111111,0,0,0.1111111111111111,55.55555555555555,0)" xlink:href="#ah"/></g><path d="M96-169c-40 0-48 33-48 73s9 75 48 75c24 0 41-14 43-38l32 2c-6 37-31 61-74 61-59 0-76-41-82-99-10-93 101-131 147-64 4 7 5 14 7 22l-32 3c-4-21-16-35-41-35" id="ai"/><g id="p"><use transform="matrix(0.1111111111111111,0,0,0.1111111111111111,0,0)" xlink:href="#af"/><use transform="matrix(0.1111111111111111,0,0,0.1111111111111111,13.222222222222221,0)" xlink:href="#W"/><use transform="matrix(0.1111111111111111,0,0,0.1111111111111111,35.44444444444444,0)" xlink:href="#ai"/><use transform="matrix(0.1111111111111111,0,0,0.1111111111111111,55.44444444444444,0)" xlink:href="#W"/><use transform="matrix(0.1111111111111111,0,0,0.1111111111111111,77.66666666666666,0)" xlink:href="#S"/><use transform="matrix(0.1111111111111111,0,0,0.1111111111111111,86.44444444444443,0)" xlink:href="#X"/><use transform="matrix(0.1111111111111111,0,0,0.1111111111111111,106.44444444444443,0)" xlink:href="#W"/></g><path d="M101-234c-31-9-42 10-38 44h38v23H63V0H32v-167H5v-23h27c-7-52 17-82 69-68v24" id="aj"/><path d="M210-169c-67 3-38 105-44 169h-31v-121c0-29-5-50-35-48C34-165 62-65 56 0H25l-1-190h30c1 10-1 24 2 32 10-44 99-50 107 0 11-21 27-35 58-36 85-2 47 119 55 194h-31v-121c0-29-5-49-35-48" id="ak"/><g id="q"><use transform="matrix(0.1111111111111111,0,0,0.1111111111111111,0,0)" xlink:href="#aj"/><use transform="matrix(0.1111111111111111,0,0,0.1111111111111111,11.11111111111111,0)" xlink:href="#af"/><use transform="matrix(0.1111111111111111,0,0,0.1111111111111111,24.333333333333332,0)" xlink:href="#Z"/><use transform="matrix(0.1111111111111111,0,0,0.1111111111111111,46.55555555555556,0)" xlink:href="#ak"/></g><g id="r"><use transform="matrix(0.1111111111111111,0,0,0.1111111111111111,0,0)" xlink:href="#ai"/><use transform="matrix(0.1111111111111111,0,0,0.1111111111111111,20,0)" xlink:href="#ab"/><use transform="matrix(0.1111111111111111,0,0,0.1111111111111111,42.22222222222222,0)" xlink:href="#S"/><use transform="matrix(0.1111111111111111,0,0,0.1111111111111111,51,0)" xlink:href="#V"/><use transform="matrix(0.1111111111111111,0,0,0.1111111111111111,59.77777777777777,0)" xlink:href="#T"/></g><g id="s"><use transform="matrix(0.1111111111111111,0,0,0.1111111111111111,0,0)" xlink:href="#Y"/><use transform="matrix(0.1111111111111111,0,0,0.1111111111111111,22.22222222222222,0)" xlink:href="#Z"/><use transform="matrix(0.1111111111111111,0,0,0.1111111111111111,44.44444444444444,0)" xlink:href="#T"/><use transform="matrix(0.1111111111111111,0,0,0.1111111111111111,66.66666666666666,0)" xlink:href="#W"/><use transform="matrix(0.1111111111111111,0,0,0.1111111111111111,88.88888888888889,0)" xlink:href="#aa"/></g><linearGradient gradientUnits="userSpaceOnUse" id="t" x1="740" y1="740" x2="740" y2="680"><stop offset="31.07%" stop-color="#fff"/><stop offset="42.5%" stop-color="#cfe4ff"/><stop offset="70.65%" stop-color="#cfe4ff"/><stop offset="84.42%" stop-color="#c3f7c8"/></linearGradient><linearGradient gradientUnits="userSpaceOnUse" id="u" x1="960" y1="740" x2="960" y2="680"><stop offset="31.07%" stop-color="#fff"/><stop offset="42.5%" stop-color="#cfe4ff"/><stop offset="70.65%" stop-color="#cfe4ff"/><stop offset="84.42%" stop-color="#c3f7c8"/></linearGradient><linearGradient gradientUnits="userSpaceOnUse" id="v" x1="820" y1="560" x2="820" y2="617.67"><stop offset="56.16%" stop-color="#c3f7c8"/><stop offset="75.72%" stop-color="#cfe4ff"/></linearGradient><linearGradient gradientUnits="userSpaceOnUse" id="w" x1="700" y1="800" x2="700" y2="860"><stop offset="26.79%" stop-color="#cfe4ff"/><stop offset="37.5%" stop-color="#fff"/></linearGradient><linearGradient gradientUnits="userSpaceOnUse" id="x" x1="1040" y1="800" x2="1040" y2="860"><stop offset="26.79%" stop-color="#cfe4ff"/><stop offset="37.5%" stop-color="#fff"/></linearGradient><linearGradient gradientUnits="userSpaceOnUse" id="y" x1="940" y1="800" x2="940" y2="860"><stop offset="26.79%" stop-color="#cfe4ff"/><stop offset="37.5%" stop-color="#fff"/></linearGradient><linearGradient gradientUnits="userSpaceOnUse" id="z" x1="840" y1="800" x2="840" y2="860"><stop offset="26.79%" stop-color="#cfe4ff"/><stop offset="37.5%" stop-color="#fff"/></linearGradient><linearGradient gradientUnits="userSpaceOnUse" id="A" x1="770" y1="800" x2="770" y2="860"><stop offset="26.79%" stop-color="#cfe4ff"/><stop offset="37.5%" stop-color="#fff"/></linearGradient><g id="B"><use transform="matrix(0.1111111111111111,0,0,0.1111111111111111,0,0)" xlink:href="#ad"/><use transform="matrix(0.1111111111111111,0,0,0.1111111111111111,22.22222222222222,0)" xlink:href="#ai"/><use transform="matrix(0.1111111111111111,0,0,0.1111111111111111,42.22222222222222,0)" xlink:href="#ag"/></g><g id="C"><use transform="matrix(0.1111111111111111,0,0,0.1111111111111111,0,0)" xlink:href="#ad"/><use transform="matrix(0.1111111111111111,0,0,0.1111111111111111,22.22222222222222,0)" xlink:href="#ac"/><use transform="matrix(0.1111111111111111,0,0,0.1111111111111111,44.44444444444444,0)" xlink:href="#ag"/><use transform="matrix(0.1111111111111111,0,0,0.1111111111111111,55.55555555555556,0)" xlink:href="#Z"/><use transform="matrix(0.1111111111111111,0,0,0.1111111111111111,77.77777777777777,0)" xlink:href="#Y"/><use transform="matrix(0.1111111111111111,0,0,0.1111111111111111,100,0)" xlink:href="#Z"/><use transform="matrix(0.1111111111111111,0,0,0.1111111111111111,122.22222222222224,0)" xlink:href="#ak"/><use transform="matrix(0.1111111111111111,0,0,0.1111111111111111,155.44444444444446,0)" xlink:href="#Z"/><use transform="matrix(0.1111111111111111,0,0,0.1111111111111111,177.66666666666669,0)" xlink:href="#ac"/><use transform="matrix(0.1111111111111111,0,0,0.1111111111111111,199.8888888888889,0)" xlink:href="#aa"/><use transform="matrix(0.1111111111111111,0,0,0.1111111111111111,219.8888888888889,0)" xlink:href="#V"/><use transform="matrix(0.1111111111111111,0,0,0.1111111111111111,228.6666666666667,0)" xlink:href="#ah"/></g><path d="M206 0h-36l-40-164L89 0H53L-1-190h32L70-26l43-164h34l41 164 42-164h31" id="al"/><g id="D"><use transform="matrix(0.1111111111111111,0,0,0.1111111111111111,0,0)" xlink:href="#al"/><use transform="matrix(0.1111111111111111,0,0,0.1111111111111111,28.777777777777775,0)" xlink:href="#ab"/><use transform="matrix(0.1111111111111111,0,0,0.1111111111111111,51,0)" xlink:href="#W"/><use transform="matrix(0.1111111111111111,0,0,0.1111111111111111,73.22222222222223,0)" xlink:href="#Y"/><use transform="matrix(0.1111111111111111,0,0,0.1111111111111111,95.44444444444446,0)" xlink:href="#W"/><use transform="matrix(0.1111111111111111,0,0,0.1111111111111111,117.66666666666669,0)" xlink:href="#X"/><use transform="matrix(0.1111111111111111,0,0,0.1111111111111111,137.66666666666669,0)" xlink:href="#W"/><use transform="matrix(0.1111111111111111,0,0,0.1111111111111111,159.8888888888889,0)" xlink:href="#af"/></g><path d="M115-194c55 1 70 41 70 98S169 2 115 4C84 4 66-9 55-30l1 105H24l-1-265h31l2 30c10-21 28-34 59-34zm-8 174c40 0 45-34 45-75s-6-73-45-74c-42 0-51 32-51 76 0 43 10 73 51 73" id="am"/><path d="M115-194c53 0 69 39 70 98 0 66-23 100-70 100C84 3 66-7 56-30L54 0H23l1-261h32v101c10-23 28-34 59-34zm-8 174c40 0 45-34 45-75 0-40-5-75-45-74-42 0-51 32-51 76 0 43 10 73 51 73" id="an"/><g id="E"><use transform="matrix(0.1111111111111111,0,0,0.1111111111111111,0,0)" xlink:href="#am"/><use transform="matrix(0.1111111111111111,0,0,0.1111111111111111,22.22222222222222,0)" xlink:href="#Z"/><use transform="matrix(0.1111111111111111,0,0,0.1111111111111111,44.44444444444444,0)" xlink:href="#aa"/><use transform="matrix(0.1111111111111111,0,0,0.1111111111111111,64.44444444444444,0)" xlink:href="#aa"/><use transform="matrix(0.1111111111111111,0,0,0.1111111111111111,84.44444444444444,0)" xlink:href="#S"/><use transform="matrix(0.1111111111111111,0,0,0.1111111111111111,93.22222222222221,0)" xlink:href="#an"/><use transform="matrix(0.1111111111111111,0,0,0.1111111111111111,115.44444444444444,0)" xlink:href="#V"/><use transform="matrix(0.1111111111111111,0,0,0.1111111111111111,124.22222222222219,0)" xlink:href="#W"/></g><linearGradient gradientUnits="userSpaceOnUse" id="F" x1="1260" y1="740" x2="1260" y2="680"><stop offset="31.07%" stop-color="#fff"/><stop offset="42.5%" stop-color="#cfe4ff"/><stop offset="70.65%" stop-color="#cfe4ff"/><stop offset="84.42%" stop-color="#c3f7c8"/></linearGradient><linearGradient gradientUnits="userSpaceOnUse" id="G" x1="1480" y1="740" x2="1480" y2="680"><stop offset="31.07%" stop-color="#fff"/><stop offset="42.5%" stop-color="#cfe4ff"/><stop offset="70.65%" stop-color="#cfe4ff"/><stop offset="84.42%" stop-color="#c3f7c8"/></linearGradient><linearGradient gradientUnits="userSpaceOnUse" id="H" x1="1340" y1="560" x2="1340" y2="617.67"><stop offset="56.16%" stop-color="#c3f7c8"/><stop offset="75.72%" stop-color="#cfe4ff"/></linearGradient><linearGradient gradientUnits="userSpaceOnUse" id="I" x1="1220" y1="800" x2="1220" y2="860"><stop offset="26.79%" stop-color="#cfe4ff"/><stop offset="37.5%" stop-color="#fff"/></linearGradient><linearGradient gradientUnits="userSpaceOnUse" id="J" x1="1560" y1="800" x2="1560" y2="860"><stop offset="26.79%" stop-color="#cfe4ff"/><stop offset="37.5%" stop-color="#fff"/></linearGradient><linearGradient gradientUnits="userSpaceOnUse" id="K" x1="1460" y1="800" x2="1460" y2="860"><stop offset="26.79%" stop-color="#cfe4ff"/><stop offset="37.5%" stop-color="#fff"/></linearGradient><linearGradient gradientUnits="userSpaceOnUse" id="L" x1="1360" y1="800" x2="1360" y2="860"><stop offset="26.79%" stop-color="#cfe4ff"/><stop offset="37.5%" stop-color="#fff"/></linearGradient><linearGradient gradientUnits="userSpaceOnUse" id="M" x1="1290" y1="800" x2="1290" y2="860"><stop offset="26.79%" stop-color="#cfe4ff"/><stop offset="37.5%" stop-color="#fff"/></linearGradient><path d="M30 0v-248h33v221h125V0H30" id="ao"/><g id="N"><use transform="matrix(0.1111111111111111,0,0,0.1111111111111111,0,0)" xlink:href="#ao"/><use transform="matrix(0.1111111111111111,0,0,0.1111111111111111,22.22222222222222,0)" xlink:href="#Z"/><use transform="matrix(0.1111111111111111,0,0,0.1111111111111111,44.44444444444444,0)" xlink:href="#al"/><use transform="matrix(0.1111111111111111,0,0,0.1111111111111111,73.22222222222221,0)" xlink:href="#U"/><use transform="matrix(0.1111111111111111,0,0,0.1111111111111111,86.44444444444443,0)" xlink:href="#V"/><use transform="matrix(0.1111111111111111,0,0,0.1111111111111111,95.2222222222222,0)" xlink:href="#W"/><use transform="matrix(0.1111111111111111,0,0,0.1111111111111111,117.44444444444444,0)" xlink:href="#X"/><use transform="matrix(0.1111111111111111,0,0,0.1111111111111111,137.44444444444443,0)" xlink:href="#W"/><use transform="matrix(0.1111111111111111,0,0,0.1111111111111111,159.66666666666666,0)" xlink:href="#V"/></g><g id="O"><use transform="matrix(0.1111111111111111,0,0,0.1111111111111111,0,0)" xlink:href="#ai"/><use transform="matrix(0.1111111111111111,0,0,0.1111111111111111,20,0)" xlink:href="#ad"/><use transform="matrix(0.1111111111111111,0,0,0.1111111111111111,42.22222222222222,0)" xlink:href="#Y"/></g><g id="P"><use transform="matrix(0.1111111111111111,0,0,0.1111111111111111,0,0)" xlink:href="#S"/><use transform="matrix(0.1111111111111111,0,0,0.1111111111111111,8.777777777777777,0)" xlink:href="#Y"/><use transform="matrix(0.1111111111111111,0,0,0.1111111111111111,31,0)" xlink:href="#ag"/><use transform="matrix(0.1111111111111111,0,0,0.1111111111111111,42.111111111111114,0)" xlink:href="#W"/><use transform="matrix(0.1111111111111111,0,0,0.1111111111111111,64.33333333333334,0)" xlink:href="#af"/><use transform="matrix(0.1111111111111111,0,0,0.1111111111111111,77.55555555555557,0)" xlink:href="#ai"/><use transform="matrix(0.1111111111111111,0,0,0.1111111111111111,97.55555555555557,0)" xlink:href="#Z"/><use transform="matrix(0.1111111111111111,0,0,0.1111111111111111,119.7777777777778,0)" xlink:href="#ak"/><use transform="matrix(0.1111111111111111,0,0,0.1111111111111111,153.00000000000003,0)" xlink:href="#ak"/><use transform="matrix(0.1111111111111111,0,0,0.1111111111111111,186.22222222222226,0)" xlink:href="#ac"/><use transform="matrix(0.1111111111111111,0,0,0.1111111111111111,208.44444444444449,0)" xlink:href="#Y"/><use transform="matrix(0.1111111111111111,0,0,0.1111111111111111,230.6666666666667,0)" xlink:href="#S"/><use transform="matrix(0.1111111111111111,0,0,0.1111111111111111,239.44444444444449,0)" xlink:href="#ai"/><use transform="matrix(0.1111111111111111,0,0,0.1111111111111111,259.44444444444446,0)" xlink:href="#ad"/><use transform="matrix(0.1111111111111111,0,0,0.1111111111111111,281.6666666666667,0)" xlink:href="#ag"/><use transform="matrix(0.1111111111111111,0,0,0.1111111111111111,292.77777777777777,0)" xlink:href="#W"/></g><g id="Q"><use transform="matrix(0.1111111111111111,0,0,0.1111111111111111,0,0)" xlink:href="#T"/><use transform="matrix(0.1111111111111111,0,0,0.1111111111111111,22.22222222222222,0)" xlink:href="#S"/><use transform="matrix(0.1111111111111111,0,0,0.1111111111111111,31,0)" xlink:href="#af"/><use transform="matrix(0.1111111111111111,0,0,0.1111111111111111,44.22222222222222,0)" xlink:href="#W"/><use transform="matrix(0.1111111111111111,0,0,0.1111111111111111,66.44444444444444,0)" xlink:href="#ai"/><use transform="matrix(0.1111111111111111,0,0,0.1111111111111111,86.44444444444444,0)" xlink:href="#ag"/><use transform="matrix(0.1111111111111111,0,0,0.1111111111111111,97.55555555555556,0)" xlink:href="#V"/><use transform="matrix(0.1111111111111111,0,0,0.1111111111111111,106.33333333333333,0)" xlink:href="#ah"/></g></defs></g></svg>