<svg xmlns="http://www.w3.org/2000/svg" xmlns:xlink="http://www.w3.org/1999/xlink" xmlns:lucid="lucid" width="1003" height="423.4"><g transform="translate(-78.5 -418.5)" lucid:page-tab-id="0_0"><path d="M677.55 670.2H626a6 6 0 0 1-6-6V546a6 6 0 0 0-6-6h-53.9" stroke="#000" stroke-width="2" fill="none"/><path d="M678.55 671.17h-1.03v-1.94h1.03z" stroke="#000" stroke-width=".05"/><path d="M544.84 540l14.27-4.63v9.26z" stroke="#000" stroke-width="2"/><path d="M440 780v-37.5" stroke="#000" stroke-width="2" fill="none"/><path d="M440 795.26L435.37 781h9.26z" stroke="#000" stroke-width="2"/><path d="M440.98 742.53h-1.96v-1.03h1.96z" stroke="#000" stroke-width=".05"/><path d="M660 820a20 20 0 0 1 20-20h80a20 20 0 0 1 20 20 20 20 0 0 1-20 20h-80a20 20 0 0 1-20-20z" stroke="#000" stroke-width="3" fill="#ced4db"/><use xlink:href="#a" transform="matrix(1,0,0,1,665,805) translate(29.109938271604943 19.65277777777778)"/><use xlink:href="#b" transform="matrix(1,0,0,1,665,805) translate(66.08524691358025 19.65277777777778)"/><path d="M730.05 580.4v-17.9" stroke="#000" stroke-width="2" fill="none"/><path d="M730.05 595.66l-4.64-14.26h9.28z" stroke="#000" stroke-width="2"/><path d="M731.02 562.53h-1.95v-1.03h1.95z" stroke="#000" stroke-width=".05"/><path d="M680.05 620.4a20 20 0 0 1 20-20h60a20 20 0 0 1 20 20V720a20 20 0 0 1-20 20h-60a20 20 0 0 1-20-20z" stroke="#000" stroke-width="3" fill="url(#c)"/><path d="M660.05 540a20 20 0 0 1 20-20h80a20 20 0 0 1 20 20 20 20 0 0 1-20 20h-80a20 20 0 0 1-20-20z" stroke="#000" stroke-width="3" fill="#fff"/><use xlink:href="#d" transform="matrix(1,0,0,1,665.0493071518765,525) translate(30.93092592592593 19.65277777777778)"/><use xlink:href="#b" transform="matrix(1,0,0,1,665.0493071518765,525) translate(64.26425925925926 19.65277777777778)"/><path d="M730.05 780v-37.5" stroke="#000" stroke-width="2" fill="none"/><path d="M730.05 795.26L725.4 781h9.28z" stroke="#000" stroke-width="2"/><path d="M731.02 742.53h-1.95v-1.03h1.95z" stroke="#000" stroke-width=".05"/><path d="M380.05 820a20 20 0 0 1 20-20h120a20 20 0 0 1 20 20 20 20 0 0 1-20 20h-120a20 20 0 0 1-20-20z" stroke="#000" stroke-width="3" fill="#ced4db"/><use xlink:href="#a" transform="matrix(1,0,0,1,385.049307151882,805) translate(49.10993827160494 19.65277777777778)"/><use xlink:href="#e" transform="matrix(1,0,0,1,385.049307151882,805) translate(86.08524691358025 19.65277777777778)"/><path d="M500.07 580l.03-17.5" stroke="#000" stroke-width="2" fill="none"/><path d="M500.05 595.26l-4.6-14.27h9.26z" stroke="#000" stroke-width="2"/><path d="M501.07 562.53h-1.95v-1.03h1.96z" stroke="#000" stroke-width=".05"/><path d="M460.05 620a20 20 0 0 1 20-20h40a20 20 0 0 1 20 20v40a20 20 0 0 1-20 20h-40a20 20 0 0 1-20-20z" stroke="#000" stroke-width="3" fill="url(#f)"/><path d="M380.05 540a20 20 0 0 1 20-20H520.1a20 20 0 0 1 20 20 20 20 0 0 1-20 20H400.05a20 20 0 0 1-20-20z" stroke="#000" stroke-width="3" fill="#fff"/><use xlink:href="#d" transform="matrix(1,0,0,1,385.0511391972145,525) translate(50.930925925925926 19.65277777777778)"/><use xlink:href="#e" transform="matrix(1,0,0,1,385.0511391972145,525) translate(84.26425925925926 19.65277777777778)"/><path d="M500.05 780v-97.5" stroke="#000" stroke-width="2" fill="none"/><path d="M500.05 795.26L495.4 781h9.3z" stroke="#000" stroke-width="2"/><path d="M501.02 682.53h-1.95v-1.03h1.95z" stroke="#000" stroke-width=".05"/><path d="M657.5 689.8H626a6 6 0 0 1-6-6V546a6 6 0 0 0-6-6h-53.9" stroke="#000" stroke-width="2" fill="none"/><path d="M658.5 690.77h-1.03v-1.94h1.03z" stroke="#000" stroke-width=".05"/><path d="M544.84 540l14.27-4.63v9.26z" stroke="#000" stroke-width="2"/><path d="M440 640a20 20 0 0 1 20-20h40a20 20 0 0 1 20 20v40a20 20 0 0 1-20 20h-40a20 20 0 0 1-20-20z" stroke="#000" stroke-width="3" fill="url(#g)"/><path d="M420.02 660a20 20 0 0 1 20-20h40a20 20 0 0 1 20 20v40a20 20 0 0 1-20 20h-40a20 20 0 0 1-20-20z" stroke="#000" stroke-width="3" fill="url(#h)"/><path d="M400 680a20 20 0 0 1 20-20h40a20 20 0 0 1 20 20v40a20 20 0 0 1-20 20h-40a20 20 0 0 1-20-20z" stroke="#000" stroke-width="3" fill="url(#i)"/><path d="M380 700a20 20 0 0 1 20-20h40a20 20 0 0 1 20 20v40a20 20 0 0 1-20 20h-40a20 20 0 0 1-20-20z" stroke="#000" stroke-width="3" fill="url(#j)"/><use xlink:href="#k" transform="matrix(1,0,0,1,385,685) translate(26.85185185185185 39.24305555555556)"/><path d="M660 640a20 20 0 0 1 20-20h60a20 20 0 0 1 20 20v99.6a20 20 0 0 1-20 20h-60a20 20 0 0 1-20-20z" stroke="#000" stroke-width="3" fill="url(#l)"/><use xlink:href="#m" transform="matrix(1,0,0,1,665,625) translate(36.85185185185185 68.30555555555556)"/><path d="M380.1 440a20 20 0 0 1 20-20h359.95a20 20 0 0 1 20 20 20 20 0 0 1-20 20H400.1a20 20 0 0 1-20-20z" stroke="#000" stroke-width="3" fill="#e8e2c8"/><use xlink:href="#n" transform="matrix(1,0,0,1,385.0986143037585,425) translate(161.14697530864197 19.65277777777778)"/><path d="M710 600v-37.5" stroke="#000" stroke-width="2" fill="none"/><path d="M710 615.26L705.37 601h9.26z" stroke="#000" stroke-width="2"/><path d="M710.98 562.53H709v-1.03H711z" stroke="#000" stroke-width=".05"/><path d="M710 780v-17.9" stroke="#000" stroke-width="2" fill="none"/><path d="M710 795.26L705.37 781h9.26z" stroke="#000" stroke-width="2"/><path d="M710.98 762.13H709v-1.03H711z" stroke="#000" stroke-width=".05"/><path d="M480.02 600l.03-37.5" stroke="#000" stroke-width="2" fill="none"/><path d="M480 615.26L475.38 601h9.27z" stroke="#000" stroke-width="2"/><path d="M481.02 562.53h-1.94v-1.03h1.95z" stroke="#000" stroke-width=".05"/><path d="M460.05 620l.02-57.5" stroke="#000" stroke-width="2" fill="none"/><path d="M460.04 635.26L455.4 621h9.28z" stroke="#000" stroke-width="2"/><path d="M461.04 562.53h-1.95v-1.03h1.94z" stroke="#000" stroke-width=".05"/><path d="M438.5 641.5l.05-79" stroke="#000" stroke-width="2" fill="none"/><path d="M438.5 656.76l-4.63-14.26h9.27z" stroke="#000" stroke-width="2"/><path d="M439.53 562.53h-1.95v-1.03h1.95z" stroke="#000" stroke-width=".05"/><path d="M420 660l.05-97.5" stroke="#000" stroke-width="2" fill="none"/><path d="M420 675.26L415.37 661h9.27z" stroke="#000" stroke-width="2"/><path d="M421.03 562.53h-1.95v-1.03h1.95z" stroke="#000" stroke-width=".05"/><path d="M480 780v-77.5" stroke="#000" stroke-width="2" fill="none"/><path d="M480 795.26L475.37 781h9.26z" stroke="#000" stroke-width="2"/><path d="M480.98 702.53h-1.96v-1.03h1.96z" stroke="#000" stroke-width=".05"/><path d="M460.04 780v-57.5" stroke="#000" stroke-width="2" fill="none"/><path d="M460.05 795.26L455.4 781h9.28z" stroke="#000" stroke-width="2"/><path d="M461 722.52h-1.94v-1.02H461z" stroke="#000" stroke-width=".05"/><path d="M420 780v-17.5" stroke="#000" stroke-width="2" fill="none"/><path d="M420 795.26L415.37 781h9.26z" stroke="#000" stroke-width="2"/><path d="M420.98 762.53h-1.96v-1.03h1.96z" stroke="#000" stroke-width=".05"/><path d="M730.04 500l.03-37.5" stroke="#000" stroke-width="2" fill="none"/><path d="M730.03 515.26L725.4 501h9.27z" stroke="#000" stroke-width="2"/><path d="M731.05 462.53h-1.95v-1.03h1.95z" stroke="#000" stroke-width=".05"/><path d="M710 500l.02-37.5" stroke="#000" stroke-width="2" fill="none"/><path d="M709.98 515.26L705.35 501h9.28z" stroke="#000" stroke-width="2"/><path d="M711 462.53h-1.95v-1.03H711z" stroke="#000" stroke-width=".05"/><path d="M680 500v-4a6 6 0 0 0-6-6h-88a6 6 0 0 0-6 6v138a6 6 0 0 1-6 6h-31.45" stroke="#000" stroke-width="2" fill="none"/><path d="M680 515.26L675.37 501h9.26z" stroke="#000" stroke-width="2"/><path d="M542.58 640.98h-1.03V639h1.03z" stroke="#000" stroke-width=".05"/><path d="M680 500v-4a6 6 0 0 0-6-6h-88a6 6 0 0 0-6 6v158a6 6 0 0 1-6 6h-51.5" stroke="#000" stroke-width="2" fill="none"/><path d="M680 515.26L675.37 501h9.26z" stroke="#000" stroke-width="2"/><path d="M522.53 660.98h-1.03V659h1.03z" stroke="#000" stroke-width=".05"/><path d="M680 500v-4a6 6 0 0 0-6-6h-88a6 6 0 0 0-6 6v178a6 6 0 0 1-6 6h-71.48" stroke="#000" stroke-width="2" fill="none"/><path d="M680 515.26L675.37 501h9.26z" stroke="#000" stroke-width="2"/><path d="M502.55 680.98h-1.03V679h1.03z" stroke="#000" stroke-width=".05"/><path d="M680 500v-4a6 6 0 0 0-6-6h-88a6 6 0 0 0-6 6v198a6 6 0 0 1-6 6h-91.5" stroke="#000" stroke-width="2" fill="none"/><path d="M680 515.26L675.37 501h9.26z" stroke="#000" stroke-width="2"/><path d="M482.53 700.98h-1.03V699h1.03z" stroke="#000" stroke-width=".05"/><path d="M680 500v-4a6 6 0 0 0-6-6h-88a6 6 0 0 0-6 6v218a6 6 0 0 1-6 6H462.5" stroke="#000" stroke-width="2" fill="none"/><path d="M680 515.26L675.37 501h9.26z" stroke="#000" stroke-width="2"/><path d="M462.53 720.98h-1.03V719h1.03z" stroke="#000" stroke-width=".05"/><path d="M500.07 501.5V461" stroke="#000" stroke-width="2" fill="none"/><path d="M500.07 516.76l-4.63-14.26h9.27z" stroke="#000" stroke-width="2"/><path d="M500.07 461.03V460M480.02 501.5V461" stroke="#000" stroke-width="2" fill="none"/><path d="M480.02 516.76l-4.63-14.26h9.26z" stroke="#000" stroke-width="2"/><path d="M480.02 461.03V460M459.98 501.5L460 461" stroke="#000" stroke-width="2" fill="none"/><path d="M459.98 516.76l-4.63-14.26h9.27z" stroke="#000" stroke-width="2"/><path d="M460 461.03V460M438.52 501.5V461" stroke="#000" stroke-width="2" fill="none"/><path d="M438.52 516.76l-4.63-14.26h9.26z" stroke="#000" stroke-width="2"/><path d="M438.52 461.03V460M420.02 501.5V461" stroke="#000" stroke-width="2" fill="none"/><path d="M420.02 516.76l-4.63-14.26h9.26z" stroke="#000" stroke-width="2"/><path d="M420.02 461.03V460" stroke="#000" stroke-width="2" fill="none"/><path d="M880 766a6 6 0 0 1 6-6h168a6 6 0 0 1 6 6v68.4a6 6 0 0 1-6 6H886a6 6 0 0 1-6-6z" stroke="#000" stroke-opacity="0" stroke-width="3" fill="#fff" fill-opacity="0"/><use xlink:href="#o" transform="matrix(1,0,0,1,885,765) translate(2.814814814814838 25.770833333333332)"/><use xlink:href="#p" transform="matrix(1,0,0,1,885,765) translate(137.55555555555554 25.770833333333332)"/><use xlink:href="#q" transform="matrix(1,0,0,1,885,765) translate(31.70370370370371 57.77083333333333)"/><use xlink:href="#r" transform="matrix(1,0,0,1,885,765) translate(76.14814814814815 57.77083333333333)"/><path d="M782.5 819.8l2.88-.58m3.86-.77l5.8-1.17m3.86-.78l5.8-1.16m3.85-.78l5.8-1.16m3.85-.78l5.8-1.16m3.86-.78l5.8-1.16m3.85-.78l5.8-1.16m3.86-.78l5.8-1.16m3.86-.78l5.8-1.16m3.85-.78l5.8-1.16m3.85-.78l2.9-.58" stroke="#3a414a" stroke-width="2" fill="none"/><path d="M782.7 820.75l-1.28.26.1-1-.1-.98.9-.18zM880 801.2l-.8.16-.4-1.9 1.2-.25z" stroke="#3a414a" stroke-width=".05" fill="#3a414a"/><path d="M80 566a6 6 0 0 1 6-6h208a6 6 0 0 1 6 6v153a6 6 0 0 1-6 6H86a6 6 0 0 1-6-6z" stroke="#000" stroke-opacity="0" stroke-width="3" fill="#fff" fill-opacity="0"/><use xlink:href="#s" transform="matrix(1,0,0,1,85,565) translate(0.6666666666666856 26.177083333333332)"/><use xlink:href="#t" transform="matrix(1,0,0,1,85,565) translate(96.81481481481482 26.177083333333332)"/><use xlink:href="#u" transform="matrix(1,0,0,1,85,565) translate(3.5925925925926094 58.17708333333333)"/><use xlink:href="#v" transform="matrix(1,0,0,1,85,565) translate(49.44444444444446 58.17708333333333)"/><use xlink:href="#w" transform="matrix(1,0,0,1,85,565) translate(161.96296296296293 58.17708333333333)"/><use xlink:href="#x" transform="matrix(1,0,0,1,85,565) translate(30.333333333333343 90.17708333333333)"/><use xlink:href="#y" transform="matrix(1,0,0,1,85,565) translate(89.44444444444446 90.17708333333333)"/><use xlink:href="#z" transform="matrix(1,0,0,1,85,565) translate(6.518518518518533 122.17708333333333)"/><use xlink:href="#A" transform="matrix(1,0,0,1,85,565) translate(116.14814814814814 122.17708333333333)"/><use xlink:href="#B" transform="matrix(1,0,0,1,85,565) translate(153.18518518518516 122.17708333333333)"/><use xlink:href="#A" transform="matrix(1,0,0,1,85,565) translate(22.11111111111113 154.17708333333334)"/><use xlink:href="#C" transform="matrix(1,0,0,1,85,565) translate(59.14814814814816 154.17708333333334)"/><use xlink:href="#D" transform="matrix(1,0,0,1,85,565) translate(103.5925925925926 154.17708333333334)"/><path d="M404 664.44l-2.82-.6m-3.75-.78l-5.62-1.2m-3.73-.78l-5.62-1.2m-3.75-.77l-5.6-1.18m-3.76-.8l-5.62-1.18m-3.75-.8l-5.6-1.17m-3.76-.8L345 652m-3.75-.8l-5.62-1.18m-3.75-.8l-5.62-1.18m-3.74-.8l-5.62-1.17m-3.75-.8l-5.62-1.18m-3.74-.8l-2.82-.6" stroke="#3a414a" stroke-width="2" fill="none"/><path d="M405.9 663.85l-1.1.94-.6.68-.44-.1.4-1.9zM301.2 641.76l-.4 1.9-.8-.16v-2z" stroke="#3a414a" stroke-width=".05" fill="#3a414a"/><path d="M80 426a6 6 0 0 1 6-6h208a6 6 0 0 1 6 6v88a6 6 0 0 1-6 6H86a6 6 0 0 1-6-6z" stroke="#000" stroke-opacity="0" stroke-width="3" fill="#fff" fill-opacity="0"/><g><use xlink:href="#E" transform="matrix(1,0,0,1,85,425) translate(31.037037037037038 24.145833333333332)"/><use xlink:href="#F" transform="matrix(1,0,0,1,85,425) translate(140.5185185185185 24.145833333333332)"/><use xlink:href="#G" transform="matrix(1,0,0,1,85,425) translate(7.296296296296319 56.14583333333333)"/><use xlink:href="#H" transform="matrix(1,0,0,1,85,425) translate(122.77777777777777 56.14583333333333)"/><use xlink:href="#I" transform="matrix(1,0,0,1,85,425) translate(12.481481481481495 88.14583333333333)"/><use xlink:href="#J" transform="matrix(1,0,0,1,85,425) translate(79.14814814814815 88.14583333333333)"/></g><path d="M377.8 539.34l-2.3-2.07m-3.1-2.74l-4.62-4.12m-3.08-2.74l-4.62-4.12M357 520.8l-4.63-4.13m-3.08-2.74l-4.63-4.12m-3.1-2.74l-4.6-4.12m-3.1-2.75l-4.6-4.13m-3.1-2.74l-4.62-4.12m-3.08-2.74l-4.62-4.12m-3.1-2.75l-4.6-4.13m-3.1-2.75l-2.3-2.06" stroke="#3a414a" stroke-width="2" fill="none"/><path d="M378.64 538.78l-.1 1.22.12 1.4-1.53-1.35 1.3-1.46zM301.4 469.95l-1.28 1.46-.12-.1v-2.6z" stroke="#3a414a" stroke-width=".05" fill="#3a414a"/><path d="M860 526a6 6 0 0 1 6-6h208a6 6 0 0 1 6 6v126a6 6 0 0 1-6 6H866a6 6 0 0 1-6-6z" stroke="#000" stroke-opacity="0" stroke-width="3" fill="#fff" fill-opacity="0"/><g><use xlink:href="#K" transform="matrix(1,0,0,1,865,525) translate(0.25925925925926663 37.33333333333333)"/><use xlink:href="#L" transform="matrix(1,0,0,1,865,525) translate(145.22222222222223 37.33333333333333)"/><use xlink:href="#M" transform="matrix(1,0,0,1,865,525) translate(5.037037037037052 69.33333333333333)"/><use xlink:href="#N" transform="matrix(1,0,0,1,865,525) translate(70.22222222222223 69.33333333333333)"/><use xlink:href="#O" transform="matrix(1,0,0,1,865,525) translate(167.92592592592592 69.33333333333333)"/><use xlink:href="#I" transform="matrix(1,0,0,1,865,525) translate(12.481481481481495 101.33333333333333)"/><use xlink:href="#J" transform="matrix(1,0,0,1,865,525) translate(79.14814814814815 101.33333333333333)"/></g><path d="M621 569.08l2.97.25m3.97.33l5.95.5m3.96.33l5.95.48m3.97.33l5.95.5m3.97.34l5.94.5m3.97.33l5.96.5m3.96.32l5.95.5m3.97.32l5.95.5m3.96.33l5.95.5m3.97.32l5.95.5m3.97.33l5.94.5m3.97.33l5.96.5m3.97.32l5.95.5m3.96.33l5.95.5m3.96.32l5.95.5m3.98.33l5.95.5m3.96.33l5.94.5m3.97.32l5.96.5m3.97.33l5.95.5m3.96.34l5.95.5m3.96.32l5.95.5m3.98.33l5.95.5m3.97.32l5.94.5m3.97.32l5.96.5m3.97.33l2.97.25M621.02 569.1L620 569" stroke="#3a414a" stroke-width="2" fill="none"/><path d="M860 588.02v1.96l-1.1-.1.16-1.94z" stroke="#3a414a" stroke-width=".05" fill="#3a414a"/><defs><path d="M30-248c118-7 216 8 213 122C240-48 200 0 122 0H30v-248zM63-27c89 8 146-16 146-99s-60-101-146-95v194" id="P"/><path d="M160-131c35 5 61 23 61 61C221 17 115-2 30 0v-248c76 3 177-17 177 60 0 33-19 50-47 57zm-97-11c50-1 110 9 110-42 0-47-63-36-110-37v79zm0 115c55-2 124 14 124-45 0-56-70-42-124-44v89" id="Q"/><g id="a"><use transform="matrix(0.06172839506172839,0,0,0.06172839506172839,0,0)" xlink:href="#P"/><use transform="matrix(0.06172839506172839,0,0,0.06172839506172839,15.987654320987653,0)" xlink:href="#Q"/></g><use transform="matrix(0.06172839506172839,0,0,0.06172839506172839,0,0)" xlink:href="#Q" id="b"/><linearGradient gradientUnits="userSpaceOnUse" id="c" x1="680.05" y1="740" x2="680.05" y2="600.4"><stop offset="19.93%" stop-color="#fff"/><stop offset="27.17%" stop-color="#cfe4ff"/><stop offset="68.12%" stop-color="#cfe4ff"/><stop offset="75%" stop-color="#c3f7c8"/></linearGradient><path d="M30 0v-248h33v221h125V0H30" id="R"/><g id="d"><use transform="matrix(0.06172839506172839,0,0,0.06172839506172839,0,0)" xlink:href="#R"/><use transform="matrix(0.06172839506172839,0,0,0.06172839506172839,12.345679012345679,0)" xlink:href="#Q"/></g><path d="M205 0l-28-72H64L36 0H1l101-248h38L239 0h-34zm-38-99l-47-123c-12 45-31 82-46 123h93" id="S"/><use transform="matrix(0.06172839506172839,0,0,0.06172839506172839,0,0)" xlink:href="#S" id="e"/><linearGradient gradientUnits="userSpaceOnUse" id="f" x1="460.05" y1="680" x2="460.05" y2="600"><stop offset="19.93%" stop-color="#fff"/><stop offset="27.17%" stop-color="#cfe4ff"/><stop offset="68.12%" stop-color="#cfe4ff"/><stop offset="75%" stop-color="#c3f7c8"/></linearGradient><linearGradient gradientUnits="userSpaceOnUse" id="g" x1="440" y1="700" x2="440" y2="620"><stop offset="19.93%" stop-color="#fff"/><stop offset="27.17%" stop-color="#cfe4ff"/><stop offset="68.12%" stop-color="#cfe4ff"/><stop offset="75%" stop-color="#c3f7c8"/></linearGradient><linearGradient gradientUnits="userSpaceOnUse" id="h" x1="420.02" y1="720" x2="420.02" y2="640"><stop offset="19.93%" stop-color="#fff"/><stop offset="27.17%" stop-color="#cfe4ff"/><stop offset="68.12%" stop-color="#cfe4ff"/><stop offset="75%" stop-color="#c3f7c8"/></linearGradient><linearGradient gradientUnits="userSpaceOnUse" id="i" x1="400" y1="740" x2="400" y2="660"><stop offset="19.93%" stop-color="#fff"/><stop offset="27.17%" stop-color="#cfe4ff"/><stop offset="68.12%" stop-color="#cfe4ff"/><stop offset="75%" stop-color="#c3f7c8"/></linearGradient><linearGradient gradientUnits="userSpaceOnUse" id="j" x1="380" y1="760" x2="380" y2="680"><stop offset="19.93%" stop-color="#fff"/><stop offset="27.17%" stop-color="#cfe4ff"/><stop offset="68.12%" stop-color="#cfe4ff"/><stop offset="75%" stop-color="#c3f7c8"/></linearGradient><use transform="matrix(0.06790123456790124,0,0,0.06790123456790124,0,0)" xlink:href="#S" id="k"/><linearGradient gradientUnits="userSpaceOnUse" id="l" x1="660" y1="759.6" x2="660" y2="620"><stop offset="19.93%" stop-color="#fff"/><stop offset="27.17%" stop-color="#cfe4ff"/><stop offset="68.12%" stop-color="#cfe4ff"/><stop offset="75%" stop-color="#c3f7c8"/></linearGradient><use transform="matrix(0.06790123456790124,0,0,0.06790123456790124,0,0)" xlink:href="#Q" id="m"/><path d="M212-179c-10-28-35-45-73-45-59 0-87 40-87 99 0 60 29 101 89 101 43 0 62-24 78-52l27 14C228-24 195 4 139 4 59 4 22-46 18-125c-6-104 99-153 187-111 19 9 31 26 39 46" id="T"/><path d="M24 0v-261h32V0H24" id="U"/><path d="M24-231v-30h32v30H24zM24 0v-190h32V0H24" id="V"/><path d="M100-194c63 0 86 42 84 106H49c0 40 14 67 53 68 26 1 43-12 49-29l28 8c-11 28-37 45-77 45C44 4 14-33 15-96c1-61 26-98 85-98zm52 81c6-60-76-77-97-28-3 7-6 17-6 28h103" id="W"/><path d="M117-194c89-4 53 116 60 194h-32v-121c0-31-8-49-39-48C34-167 62-67 57 0H25l-1-190h30c1 10-1 24 2 32 11-22 29-35 61-36" id="X"/><path d="M59-47c-2 24 18 29 38 22v24C64 9 27 4 27-40v-127H5v-23h24l9-43h21v43h35v23H59v120" id="Y"/><path d="M135-143c-3-34-86-38-87 0 15 53 115 12 119 90S17 21 10-45l28-5c4 36 97 45 98 0-10-56-113-15-118-90-4-57 82-63 122-42 12 7 21 19 24 35" id="Z"/><g id="n"><use transform="matrix(0.06172839506172839,0,0,0.06172839506172839,0,0)" xlink:href="#T"/><use transform="matrix(0.06172839506172839,0,0,0.06172839506172839,15.987654320987653,0)" xlink:href="#U"/><use transform="matrix(0.06172839506172839,0,0,0.06172839506172839,20.864197530864196,0)" xlink:href="#V"/><use transform="matrix(0.06172839506172839,0,0,0.06172839506172839,25.74074074074074,0)" xlink:href="#W"/><use transform="matrix(0.06172839506172839,0,0,0.06172839506172839,38.08641975308642,0)" xlink:href="#X"/><use transform="matrix(0.06172839506172839,0,0,0.06172839506172839,50.432098765432094,0)" xlink:href="#Y"/><use transform="matrix(0.06172839506172839,0,0,0.06172839506172839,56.60493827160494,0)" xlink:href="#Z"/></g><path d="M141-36C126-15 110 5 73 4 37 3 15-17 15-53c-1-64 63-63 125-63 3-35-9-54-41-54-24 1-41 7-42 31l-33-3c5-37 33-52 76-52 45 0 72 20 72 64v82c-1 20 7 32 28 27v20c-31 9-61-2-59-35zM48-53c0 20 12 33 32 33 41-3 63-29 60-74-43 2-92-5-92 41" id="aa"/><path d="M115-194c53 0 69 39 70 98 0 66-23 100-70 100C84 3 66-7 56-30L54 0H23l1-261h32v101c10-23 28-34 59-34zm-8 174c40 0 45-34 45-75 0-40-5-75-45-74-42 0-51 32-51 76 0 43 10 73 51 73" id="ab"/><g id="o"><use transform="matrix(0.07407407407407407,0,0,0.07407407407407407,0,0)" xlink:href="#P"/><use transform="matrix(0.07407407407407407,0,0,0.07407407407407407,19.185185185185183,0)" xlink:href="#aa"/><use transform="matrix(0.07407407407407407,0,0,0.07407407407407407,34,0)" xlink:href="#Y"/><use transform="matrix(0.07407407407407407,0,0,0.07407407407407407,41.407407407407405,0)" xlink:href="#aa"/><use transform="matrix(0.07407407407407407,0,0,0.07407407407407407,56.22222222222221,0)" xlink:href="#ab"/><use transform="matrix(0.07407407407407407,0,0,0.07407407407407407,71.03703703703702,0)" xlink:href="#aa"/><use transform="matrix(0.07407407407407407,0,0,0.07407407407407407,85.85185185185183,0)" xlink:href="#Z"/><use transform="matrix(0.07407407407407407,0,0,0.07407407407407407,99.18518518518516,0)" xlink:href="#W"/><use transform="matrix(0.07407407407407407,0,0,0.07407407407407407,113.99999999999997,0)" xlink:href="#Z"/></g><path d="M85-194c31 0 48 13 60 33l-1-100h32l1 261h-30c-2-10 0-23-3-31C134-8 116 4 85 4 32 4 16-35 15-94c0-66 23-100 70-100zm9 24c-40 0-46 34-46 75 0 40 6 74 45 74 42 0 51-32 51-76 0-42-9-74-50-73" id="ac"/><path d="M100-194c62-1 85 37 85 99 1 63-27 99-86 99S16-35 15-95c0-66 28-99 85-99zM99-20c44 1 53-31 53-75 0-43-8-75-51-75s-53 32-53 75 10 74 51 75" id="ad"/><g id="p"><use transform="matrix(0.07407407407407407,0,0,0.07407407407407407,0,0)" xlink:href="#ac"/><use transform="matrix(0.07407407407407407,0,0,0.07407407407407407,14.814814814814813,0)" xlink:href="#ad"/></g><g id="q"><use transform="matrix(0.07407407407407407,0,0,0.07407407407407407,0,0)" xlink:href="#X"/><use transform="matrix(0.07407407407407407,0,0,0.07407407407407407,14.814814814814813,0)" xlink:href="#ad"/><use transform="matrix(0.07407407407407407,0,0,0.07407407407407407,29.629629629629626,0)" xlink:href="#Y"/></g><path d="M96-169c-40 0-48 33-48 73s9 75 48 75c24 0 41-14 43-38l32 2c-6 37-31 61-74 61-59 0-76-41-82-99-10-93 101-131 147-64 4 7 5 14 7 22l-32 3c-4-21-16-35-41-35" id="ae"/><g id="r"><use transform="matrix(0.07407407407407407,0,0,0.07407407407407407,0,0)" xlink:href="#Z"/><use transform="matrix(0.07407407407407407,0,0,0.07407407407407407,13.333333333333332,0)" xlink:href="#ae"/><use transform="matrix(0.07407407407407407,0,0,0.07407407407407407,26.666666666666664,0)" xlink:href="#aa"/><use transform="matrix(0.07407407407407407,0,0,0.07407407407407407,41.48148148148148,0)" xlink:href="#U"/><use transform="matrix(0.07407407407407407,0,0,0.07407407407407407,47.33333333333333,0)" xlink:href="#W"/></g><path d="M185-189c-5-48-123-54-124 2 14 75 158 14 163 119 3 78-121 87-175 55-17-10-28-26-33-46l33-7c5 56 141 63 141-1 0-78-155-14-162-118-5-82 145-84 179-34 5 7 8 16 11 25" id="af"/><path d="M114-163C36-179 61-72 57 0H25l-1-190h30c1 12-1 29 2 39 6-27 23-49 58-41v29" id="ag"/><path d="M108 0H70L1-190h34L89-25l56-165h34" id="ah"/><g id="s"><use transform="matrix(0.07407407407407407,0,0,0.07407407407407407,0,0)" xlink:href="#af"/><use transform="matrix(0.07407407407407407,0,0,0.07407407407407407,17.77777777777778,0)" xlink:href="#W"/><use transform="matrix(0.07407407407407407,0,0,0.07407407407407407,32.592592592592595,0)" xlink:href="#ag"/><use transform="matrix(0.07407407407407407,0,0,0.07407407407407407,41.40740740740741,0)" xlink:href="#ah"/><use transform="matrix(0.07407407407407407,0,0,0.07407407407407407,54.74074074074075,0)" xlink:href="#V"/><use transform="matrix(0.07407407407407407,0,0,0.07407407407407407,60.592592592592595,0)" xlink:href="#ae"/><use transform="matrix(0.07407407407407407,0,0,0.07407407407407407,73.92592592592592,0)" xlink:href="#W"/></g><g id="t"><use transform="matrix(0.07407407407407407,0,0,0.07407407407407407,0,0)" xlink:href="#V"/><use transform="matrix(0.07407407407407407,0,0,0.07407407407407407,5.851851851851851,0)" xlink:href="#X"/><use transform="matrix(0.07407407407407407,0,0,0.07407407407407407,20.666666666666664,0)" xlink:href="#Z"/><use transform="matrix(0.07407407407407407,0,0,0.07407407407407407,34,0)" xlink:href="#Y"/><use transform="matrix(0.07407407407407407,0,0,0.07407407407407407,41.407407407407405,0)" xlink:href="#aa"/><use transform="matrix(0.07407407407407407,0,0,0.07407407407407407,56.22222222222221,0)" xlink:href="#X"/><use transform="matrix(0.07407407407407407,0,0,0.07407407407407407,71.03703703703702,0)" xlink:href="#ae"/><use transform="matrix(0.07407407407407407,0,0,0.07407407407407407,84.37037037037035,0)" xlink:href="#W"/><use transform="matrix(0.07407407407407407,0,0,0.07407407407407407,99.18518518518516,0)" xlink:href="#Z"/></g><g id="u"><use transform="matrix(0.07407407407407407,0,0,0.07407407407407407,0,0)" xlink:href="#aa"/><use transform="matrix(0.07407407407407407,0,0,0.07407407407407407,14.814814814814813,0)" xlink:href="#ag"/><use transform="matrix(0.07407407407407407,0,0,0.07407407407407407,23.629629629629623,0)" xlink:href="#W"/></g><g id="v"><use transform="matrix(0.07407407407407407,0,0,0.07407407407407407,0,0)" xlink:href="#Z"/><use transform="matrix(0.07407407407407407,0,0,0.07407407407407407,13.333333333333332,0)" xlink:href="#Y"/><use transform="matrix(0.07407407407407407,0,0,0.07407407407407407,20.74074074074074,0)" xlink:href="#aa"/><use transform="matrix(0.07407407407407407,0,0,0.07407407407407407,35.55555555555556,0)" xlink:href="#Y"/><use transform="matrix(0.07407407407407407,0,0,0.07407407407407407,42.96296296296296,0)" xlink:href="#W"/><use transform="matrix(0.07407407407407407,0,0,0.07407407407407407,57.77777777777777,0)" xlink:href="#U"/><use transform="matrix(0.07407407407407407,0,0,0.07407407407407407,63.62962962962962,0)" xlink:href="#W"/><use transform="matrix(0.07407407407407407,0,0,0.07407407407407407,78.44444444444443,0)" xlink:href="#Z"/><use transform="matrix(0.07407407407407407,0,0,0.07407407407407407,91.77777777777776,0)" xlink:href="#Z"/></g><g id="w"><use transform="matrix(0.07407407407407407,0,0,0.07407407407407407,0,0)" xlink:href="#aa"/><use transform="matrix(0.07407407407407407,0,0,0.07407407407407407,14.814814814814813,0)" xlink:href="#X"/><use transform="matrix(0.07407407407407407,0,0,0.07407407407407407,29.629629629629626,0)" xlink:href="#ac"/></g><path d="M106-169C34-169 62-67 57 0H25v-261h32l-1 103c12-21 28-36 61-36 89 0 53 116 60 194h-32v-121c2-32-8-49-39-48" id="ai"/><g id="x"><use transform="matrix(0.07407407407407407,0,0,0.07407407407407407,0,0)" xlink:href="#Y"/><use transform="matrix(0.07407407407407407,0,0,0.07407407407407407,7.4074074074074066,0)" xlink:href="#ai"/><use transform="matrix(0.07407407407407407,0,0,0.07407407407407407,22.22222222222222,0)" xlink:href="#W"/><use transform="matrix(0.07407407407407407,0,0,0.07407407407407407,37.03703703703704,0)" xlink:href="#V"/><use transform="matrix(0.07407407407407407,0,0,0.07407407407407407,42.888888888888886,0)" xlink:href="#ag"/></g><path d="M84 4C-5 8 30-112 23-190h32v120c0 31 7 50 39 49 72-2 45-101 50-169h31l1 190h-30c-1-10 1-25-2-33-11 22-28 36-60 37" id="aj"/><path d="M210-169c-67 3-38 105-44 169h-31v-121c0-29-5-50-35-48C34-165 62-65 56 0H25l-1-190h30c1 10-1 24 2 32 10-44 99-50 107 0 11-21 27-35 58-36 85-2 47 119 55 194h-31v-121c0-29-5-49-35-48" id="ak"/><g id="y"><use transform="matrix(0.07407407407407407,0,0,0.07407407407407407,0,0)" xlink:href="#X"/><use transform="matrix(0.07407407407407407,0,0,0.07407407407407407,14.814814814814813,0)" xlink:href="#aj"/><use transform="matrix(0.07407407407407407,0,0,0.07407407407407407,29.629629629629626,0)" xlink:href="#ak"/><use transform="matrix(0.07407407407407407,0,0,0.07407407407407407,51.77777777777777,0)" xlink:href="#ab"/><use transform="matrix(0.07407407407407407,0,0,0.07407407407407407,66.59259259259258,0)" xlink:href="#W"/><use transform="matrix(0.07407407407407407,0,0,0.07407407407407407,81.40740740740739,0)" xlink:href="#ag"/></g><path d="M115-194c55 1 70 41 70 98S169 2 115 4C84 4 66-9 55-30l1 105H24l-1-265h31l2 30c10-21 28-34 59-34zm-8 174c40 0 45-34 45-75s-6-73-45-74c-42 0-51 32-51 76 0 43 10 73 51 73" id="al"/><g id="z"><use transform="matrix(0.07407407407407407,0,0,0.07407407407407407,0,0)" xlink:href="#ac"/><use transform="matrix(0.07407407407407407,0,0,0.07407407407407407,14.814814814814813,0)" xlink:href="#W"/><use transform="matrix(0.07407407407407407,0,0,0.07407407407407407,29.629629629629626,0)" xlink:href="#al"/><use transform="matrix(0.07407407407407407,0,0,0.07407407407407407,44.44444444444444,0)" xlink:href="#W"/><use transform="matrix(0.07407407407407407,0,0,0.07407407407407407,59.25925925925925,0)" xlink:href="#X"/><use transform="matrix(0.07407407407407407,0,0,0.07407407407407407,74.07407407407406,0)" xlink:href="#ac"/><use transform="matrix(0.07407407407407407,0,0,0.07407407407407407,88.88888888888887,0)" xlink:href="#Z"/></g><g id="A"><use transform="matrix(0.07407407407407407,0,0,0.07407407407407407,0,0)" xlink:href="#ad"/><use transform="matrix(0.07407407407407407,0,0,0.07407407407407407,14.814814814814813,0)" xlink:href="#X"/></g><g id="B"><use transform="matrix(0.07407407407407407,0,0,0.07407407407407407,0,0)" xlink:href="#U"/><use transform="matrix(0.07407407407407407,0,0,0.07407407407407407,5.851851851851851,0)" xlink:href="#ad"/><use transform="matrix(0.07407407407407407,0,0,0.07407407407407407,20.666666666666664,0)" xlink:href="#aa"/><use transform="matrix(0.07407407407407407,0,0,0.07407407407407407,35.48148148148148,0)" xlink:href="#ac"/></g><g id="C"><use transform="matrix(0.07407407407407407,0,0,0.07407407407407407,0,0)" xlink:href="#Y"/><use transform="matrix(0.07407407407407407,0,0,0.07407407407407407,7.4074074074074066,0)" xlink:href="#ai"/><use transform="matrix(0.07407407407407407,0,0,0.07407407407407407,22.22222222222222,0)" xlink:href="#W"/></g><g id="D"><use transform="matrix(0.07407407407407407,0,0,0.07407407407407407,0,0)" xlink:href="#Z"/><use transform="matrix(0.07407407407407407,0,0,0.07407407407407407,13.333333333333332,0)" xlink:href="#W"/><use transform="matrix(0.07407407407407407,0,0,0.07407407407407407,28.148148148148145,0)" xlink:href="#ag"/><use transform="matrix(0.07407407407407407,0,0,0.07407407407407407,36.96296296296296,0)" xlink:href="#ah"/><use transform="matrix(0.07407407407407407,0,0,0.07407407407407407,50.29629629629629,0)" xlink:href="#V"/><use transform="matrix(0.07407407407407407,0,0,0.07407407407407407,56.14814814814814,0)" xlink:href="#ae"/><use transform="matrix(0.07407407407407407,0,0,0.07407407407407407,69.48148148148147,0)" xlink:href="#W"/></g><g id="E"><use transform="matrix(0.07407407407407407,0,0,0.07407407407407407,0,0)" xlink:href="#af"/><use transform="matrix(0.07407407407407407,0,0,0.07407407407407407,17.77777777777778,0)" xlink:href="#W"/><use transform="matrix(0.07407407407407407,0,0,0.07407407407407407,32.592592592592595,0)" xlink:href="#ag"/><use transform="matrix(0.07407407407407407,0,0,0.07407407407407407,41.40740740740741,0)" xlink:href="#ah"/><use transform="matrix(0.07407407407407407,0,0,0.07407407407407407,54.74074074074075,0)" xlink:href="#V"/><use transform="matrix(0.07407407407407407,0,0,0.07407407407407407,60.592592592592595,0)" xlink:href="#ae"/><use transform="matrix(0.07407407407407407,0,0,0.07407407407407407,73.92592592592592,0)" xlink:href="#W"/><use transform="matrix(0.07407407407407407,0,0,0.07407407407407407,88.74074074074073,0)" xlink:href="#Z"/></g><g id="F"><use transform="matrix(0.07407407407407407,0,0,0.07407407407407407,0,0)" xlink:href="#aa"/><use transform="matrix(0.07407407407407407,0,0,0.07407407407407407,14.814814814814813,0)" xlink:href="#ag"/><use transform="matrix(0.07407407407407407,0,0,0.07407407407407407,23.629629629629623,0)" xlink:href="#W"/></g><path d="M179-190L93 31C79 59 56 82 12 73V49c39 6 53-20 64-50L1-190h34L92-34l54-156h33" id="am"/><g id="G"><use transform="matrix(0.07407407407407407,0,0,0.07407407407407407,0,0)" xlink:href="#ac"/><use transform="matrix(0.07407407407407407,0,0,0.07407407407407407,14.814814814814813,0)" xlink:href="#W"/><use transform="matrix(0.07407407407407407,0,0,0.07407407407407407,29.629629629629626,0)" xlink:href="#al"/><use transform="matrix(0.07407407407407407,0,0,0.07407407407407407,44.44444444444444,0)" xlink:href="#U"/><use transform="matrix(0.07407407407407407,0,0,0.07407407407407407,50.29629629629629,0)" xlink:href="#ad"/><use transform="matrix(0.07407407407407407,0,0,0.07407407407407407,65.1111111111111,0)" xlink:href="#am"/><use transform="matrix(0.07407407407407407,0,0,0.07407407407407407,78.44444444444443,0)" xlink:href="#W"/><use transform="matrix(0.07407407407407407,0,0,0.07407407407407407,93.25925925925924,0)" xlink:href="#ac"/></g><g id="H"><use transform="matrix(0.07407407407407407,0,0,0.07407407407407407,0,0)" xlink:href="#ab"/><use transform="matrix(0.07407407407407407,0,0,0.07407407407407407,14.814814814814813,0)" xlink:href="#W"/><use transform="matrix(0.07407407407407407,0,0,0.07407407407407407,29.629629629629626,0)" xlink:href="#ai"/><use transform="matrix(0.07407407407407407,0,0,0.07407407407407407,44.44444444444444,0)" xlink:href="#V"/><use transform="matrix(0.07407407407407407,0,0,0.07407407407407407,50.29629629629629,0)" xlink:href="#X"/><use transform="matrix(0.07407407407407407,0,0,0.07407407407407407,65.1111111111111,0)" xlink:href="#ac"/></g><path d="M11 0l48-248h34L50-27h125l-5 27H11" id="an"/><path d="M30-147c31-64 166-65 159 27C183-49 158 1 86 4 9 8 1-88 30-147zM88-20c53 0 68-48 68-100 0-31-11-51-44-50-52 1-68 46-68 97 0 32 13 53 44 53" id="ao"/><path d="M165-48c-4 18 1 34 23 27l-3 20c-29 8-62 0-52-35h-2C116-14 99 4 63 4 30 4 8-16 8-49c0-68 71-67 138-67 10-26 0-56-31-54-26 1-42 9-47 31l-32-5c8-67 160-71 144 15-5 28-9 54-15 81zM42-50c3 52 80 24 89-6 7-12 7-24 11-38-47 1-103-4-100 44" id="ap"/><path d="M133-28C103 26-5 8 13-77c13-62 24-115 90-117 29-1 46 15 56 35l19-102h32L160 0h-30zM45-64c-2 27 10 43 35 43 54-1 69-50 69-103 0-29-15-46-42-46-53-1-58 58-62 106" id="aq"/><g id="I"><use transform="matrix(0.07407407407407407,0,0,0.07407407407407407,0,0)" xlink:href="#an"/><use transform="matrix(0.07407407407407407,0,0,0.07407407407407407,14.814814814814813,0)" xlink:href="#ao"/><use transform="matrix(0.07407407407407407,0,0,0.07407407407407407,29.629629629629626,0)" xlink:href="#ap"/><use transform="matrix(0.07407407407407407,0,0,0.07407407407407407,44.44444444444444,0)" xlink:href="#aq"/></g><path d="M219-77C219 17 104-2 11 0l48-248c73 2 169-15 169 57 0 38-24 54-60 60 29 5 51 21 51 54zm-26-111c0-44-62-31-105-33l-16 79c55 0 121 9 121-46zm-7 110c-1-49-69-36-119-38L50-27c61-1 137 12 136-51" id="ar"/><path d="M6 0l50-261h32L37 0H6" id="as"/><path d="M67-158c22-48 132-52 116 29L158 0h-32l25-140c3-38-53-32-70-12C52-117 51-52 38 0H6l36-190h30" id="at"/><path d="M44-68c0 29 11 47 38 47 30 0 42-19 51-41l28 9C148-21 126 4 82 4 31 4 10-29 12-85c3-77 74-140 146-93 12 8 15 23 18 40l-31 5c-1-22-13-36-36-36-52 0-65 49-65 101" id="au"/><path d="M111-194c62-3 86 47 72 106H45c-7 38 6 69 45 68 27-1 43-14 53-32l24 11C152-15 129 4 87 4 38 3 12-23 12-71c0-70 32-119 99-123zm44 81c14-66-71-72-95-28-4 8-8 17-11 28h106" id="av"/><path d="M66-151c12-25 30-51 66-40l-6 26C45-176 58-65 38 0H6l36-190h30" id="aw"/><path d="M55-144c13 50 104 24 104 88C159 21 15 23 1-39l26-10c6 40 102 42 102-4-13-50-104-23-104-87 0-71 143-71 148-8l-29 4c-5-35-85-37-89 0" id="ax"/><g id="J"><use transform="matrix(0.07407407407407407,0,0,0.07407407407407407,0,0)" xlink:href="#ar"/><use transform="matrix(0.07407407407407407,0,0,0.07407407407407407,17.77777777777778,0)" xlink:href="#ap"/><use transform="matrix(0.07407407407407407,0,0,0.07407407407407407,32.592592592592595,0)" xlink:href="#as"/><use transform="matrix(0.07407407407407407,0,0,0.07407407407407407,38.44444444444444,0)" xlink:href="#ap"/><use transform="matrix(0.07407407407407407,0,0,0.07407407407407407,53.25925925925926,0)" xlink:href="#at"/><use transform="matrix(0.07407407407407407,0,0,0.07407407407407407,68.07407407407406,0)" xlink:href="#au"/><use transform="matrix(0.07407407407407407,0,0,0.07407407407407407,81.40740740740739,0)" xlink:href="#av"/><use transform="matrix(0.07407407407407407,0,0,0.07407407407407407,96.2222222222222,0)" xlink:href="#aw"/><use transform="matrix(0.07407407407407407,0,0,0.07407407407407407,105.03703703703701,0)" xlink:href="#ax"/></g><path d="M33 0v-248h34V0H33" id="ay"/><g id="K"><use transform="matrix(0.07407407407407407,0,0,0.07407407407407407,0,0)" xlink:href="#ay"/><use transform="matrix(0.07407407407407407,0,0,0.07407407407407407,7.4074074074074066,0)" xlink:href="#X"/><use transform="matrix(0.07407407407407407,0,0,0.07407407407407407,22.22222222222222,0)" xlink:href="#Y"/><use transform="matrix(0.07407407407407407,0,0,0.07407407407407407,29.629629629629626,0)" xlink:href="#W"/><use transform="matrix(0.07407407407407407,0,0,0.07407407407407407,44.44444444444444,0)" xlink:href="#ag"/><use transform="matrix(0.07407407407407407,0,0,0.07407407407407407,53.25925925925926,0)" xlink:href="#Z"/><use transform="matrix(0.07407407407407407,0,0,0.07407407407407407,66.5925925925926,0)" xlink:href="#W"/><use transform="matrix(0.07407407407407407,0,0,0.07407407407407407,81.4074074074074,0)" xlink:href="#ag"/><use transform="matrix(0.07407407407407407,0,0,0.07407407407407407,90.22222222222221,0)" xlink:href="#ah"/><use transform="matrix(0.07407407407407407,0,0,0.07407407407407407,103.55555555555554,0)" xlink:href="#V"/><use transform="matrix(0.07407407407407407,0,0,0.07407407407407407,109.40740740740739,0)" xlink:href="#ae"/><use transform="matrix(0.07407407407407407,0,0,0.07407407407407407,122.74074074074072,0)" xlink:href="#W"/></g><path d="M101-234c-31-9-42 10-38 44h38v23H63V0H32v-167H5v-23h27c-7-52 17-82 69-68v24" id="az"/><g id="L"><use transform="matrix(0.07407407407407407,0,0,0.07407407407407407,0,0)" xlink:href="#Y"/><use transform="matrix(0.07407407407407407,0,0,0.07407407407407407,7.4074074074074066,0)" xlink:href="#ag"/><use transform="matrix(0.07407407407407407,0,0,0.07407407407407407,16.22222222222222,0)" xlink:href="#aa"/><use transform="matrix(0.07407407407407407,0,0,0.07407407407407407,31.037037037037035,0)" xlink:href="#az"/><use transform="matrix(0.07407407407407407,0,0,0.07407407407407407,37.925925925925924,0)" xlink:href="#az"/><use transform="matrix(0.07407407407407407,0,0,0.07407407407407407,45.33333333333333,0)" xlink:href="#V"/><use transform="matrix(0.07407407407407407,0,0,0.07407407407407407,51.185185185185176,0)" xlink:href="#ae"/></g><path d="M177-190C167-65 218 103 67 71c-23-6-38-20-44-43l32-5c15 47 100 32 89-28v-30C133-14 115 1 83 1 29 1 15-40 15-95c0-56 16-97 71-98 29-1 48 16 59 35 1-10 0-23 2-32h30zM94-22c36 0 50-32 50-73 0-42-14-75-50-75-39 0-46 34-46 75s6 73 46 73" id="aA"/><g id="M"><use transform="matrix(0.07407407407407407,0,0,0.07407407407407407,0,0)" xlink:href="#aA"/><use transform="matrix(0.07407407407407407,0,0,0.07407407407407407,14.814814814814813,0)" xlink:href="#ad"/><use transform="matrix(0.07407407407407407,0,0,0.07407407407407407,29.629629629629626,0)" xlink:href="#W"/><use transform="matrix(0.07407407407407407,0,0,0.07407407407407407,44.44444444444444,0)" xlink:href="#Z"/></g><g id="N"><use transform="matrix(0.07407407407407407,0,0,0.07407407407407407,0,0)" xlink:href="#Y"/><use transform="matrix(0.07407407407407407,0,0,0.07407407407407407,7.4074074074074066,0)" xlink:href="#ai"/><use transform="matrix(0.07407407407407407,0,0,0.07407407407407407,22.22222222222222,0)" xlink:href="#ag"/><use transform="matrix(0.07407407407407407,0,0,0.07407407407407407,31.037037037037038,0)" xlink:href="#ad"/><use transform="matrix(0.07407407407407407,0,0,0.07407407407407407,45.85185185185185,0)" xlink:href="#aj"/><use transform="matrix(0.07407407407407407,0,0,0.07407407407407407,60.66666666666666,0)" xlink:href="#aA"/><use transform="matrix(0.07407407407407407,0,0,0.07407407407407407,75.48148148148147,0)" xlink:href="#ai"/></g><g id="O"><use transform="matrix(0.07407407407407407,0,0,0.07407407407407407,0,0)" xlink:href="#Y"/><use transform="matrix(0.07407407407407407,0,0,0.07407407407407407,7.4074074074074066,0)" xlink:href="#ai"/><use transform="matrix(0.07407407407407407,0,0,0.07407407407407407,22.22222222222222,0)" xlink:href="#W"/></g></defs></g></svg>