<svg xmlns="http://www.w3.org/2000/svg" xmlns:xlink="http://www.w3.org/1999/xlink" xmlns:lucid="lucid" width="1063" height="283.5"><g transform="translate(-118.5 -438)" lucid:page-tab-id="0_0"><path d="M360.33 698.42a20 20 0 0 1 20-20h200a20 20 0 0 1 20 20 20 20 0 0 1-20 20h-200a20 20 0 0 1-20-20z" stroke="#000" stroke-width="3" fill="#ced4db"/><path d="M360 618.42a20 20 0 0 1 20-20h200a20 20 0 0 1 20 20 20 20 0 0 1-20 20H380a20 20 0 0 1-20-20z" stroke="#000" stroke-width="3" fill="url(#a)"/><path d="M360 538.46a20 20 0 0 1 20-20h200a20 20 0 0 1 20 20 20 20 0 0 1-20 20H380a20 20 0 0 1-20-20z" stroke="#000" stroke-width="3" fill="#c3f7c8"/><path d="M360.33 461a19 19 0 0 1 19-19h202a19 19 0 0 1 19 19 19 19 0 0 1-19 19h-202a19 19 0 0 1-19-19z" stroke="#000" stroke-width="3" fill="#e8e2c8"/><use xlink:href="#b" transform="matrix(1,0,0,1,365.3333330833135,447) translate(86.70253086419754 19.52777777777778)"/><path d="M394.32 483.03l-.16 16.97M388.32 482.97l-.16 16.97" stroke="#e81313" stroke-width="3" fill="none"/><path d="M395.8 483.08l-2.96-.03.02-1.55h2.95zM389.8 483.02l-2.96-.02.02-1.5h2.95z" stroke="#e81313" stroke-width=".05" fill="#e81313"/><path d="M401.2 496.73l-10.17 17.23-9.84-17.42m9.83 17.42l.08-8.5M403.33 561.46v18.47M397.33 561.46v18.47" stroke="#e81313" stroke-width="3" fill="none"/><path d="M404.8 561.5h-2.94v-1.54h2.95zM398.8 561.5h-2.94v-1.54h2.95z" stroke="#e81313" stroke-width=".05" fill="#e81313"/><path d="M410.33 576.6l-10 17.32-10-17.32m10 17.32v-8.5M413.33 641.42v18.5M407.33 641.42v18.5" stroke="#e81313" stroke-width="3" fill="none"/><path d="M414.8 641.46h-2.94v-1.54h2.95zM408.8 641.46h-2.94v-1.54h2.95z" stroke="#e81313" stroke-width=".05" fill="#e81313"/><path d="M420.33 656.6l-10 17.32-10-17.32m10 17.32v-8.5M427.33 676.5v-19.6M433.33 676.5v-19.6M427.33 676.46V678M433.33 676.46V678M420.33 660.24l10-17.32 10 17.32m-10-17.32v8.5" stroke="#e81313" stroke-width="3" fill="none"/><path d="M430.33 688c0 5.52-4.47 10-10 10-5.52 0-10-4.48-10-10s4.48-10 10-10c5.53 0 10 4.48 10 10z" stroke="#fcce14" stroke-width="3" fill="#008a0e"/><path d="M490.33 688.84c0 5.52-4.47 10-10 10-5.52 0-10-4.48-10-10 0-5.53 4.48-10 10-10 5.53 0 10 4.47 10 10z" stroke="#fcce14" stroke-width="3" fill="#82755b"/><path d="M550.33 688c0 5.52-4.47 10-10 10-5.52 0-10-4.48-10-10s4.48-10 10-10c5.53 0 10 4.48 10 10z" stroke="#fcce14" stroke-width="3" fill="#1071e5"/><path d="M472.33 641.42v18.5M466.33 641.42v18.5" stroke="#e81313" stroke-width="3" fill="none"/><path d="M473.8 641.46h-2.94v-1.54h2.95zM467.8 641.46h-2.94v-1.54h2.95z" stroke="#e81313" stroke-width=".05" fill="#e81313"/><path d="M479.33 656.6l-10 17.32-10-17.32m10 17.32v-8.5M487.33 676.5v-19.6M493.33 676.5v-19.6M487.33 676.46V678M493.33 676.46V678M480.33 660.24l10-17.32 10 17.32m-10-17.32v8.5M534.08 641.42v18.5M528.08 641.42v18.5" stroke="#e81313" stroke-width="3" fill="none"/><path d="M535.56 641.46h-2.95v-1.54h2.96zM529.56 641.46h-2.95v-1.54h2.96z" stroke="#e81313" stroke-width=".05" fill="#e81313"/><path d="M541.08 656.6l-10 17.32-10-17.32m10 17.32v-8.5M547.83 675.42v-18.5M553.83 675.42v-18.5" stroke="#e81313" stroke-width="3" fill="none"/><path d="M549.3 675.38v1.54h-2.94v-1.54zM555.3 675.38v1.54h-2.94v-1.54z" stroke="#e81313" stroke-width=".05" fill="#e81313"/><path d="M540.83 660.24l10-17.32 10 17.32m-10-17.32v8.5M438.32 595.44l-.17-18.46M444.32 595.4l-.17-18.48" stroke="#e81313" stroke-width="3" fill="none"/><path d="M439.8 596.92h-2.94v-1.5l2.93-.03zM445.8 596.92h-2.94l-.02-1.55 2.95-.03z" stroke="#e81313" stroke-width=".05" fill="#e81313"/><path d="M431.18 580.37l9.85-17.4 10.15 17.22m-10.15-17.24l.07 8.5M567 515.43l.17-16.97M573 515.5l.17-16.98" stroke="#e81313" stroke-width="3" fill="none"/><path d="M568.5 515.4l-.02 1.56h-2.96l.02-1.58zM574.5 515.46l-.02 1.5h-2.96l.02-1.53z" stroke="#e81313" stroke-width=".05" fill="#e81313"/><path d="M560.14 501.73l10.17-17.23 9.84 17.4m-9.83-17.4l-.07 8.5" stroke="#e81313" stroke-width="3" fill="none"/><path d="M429.2 638.48v-.02a1.5 1.5 0 0 1 1.5-1.5 1.5 1.5 0 0 1 1.5 1.5 1.5 1.5 0 0 1-1.5 1.5 1.5 1.5 0 0 1-1.5-1.5m1.54-6.14a1.5 1.5 0 0 1 1.5-1.5 1.5 1.5 0 0 1 1.5 1.5 1.5 1.5 0 0 1-1.5 1.5 1.5 1.5 0 0 1-1.5-1.5v-.03m1.54-6.13a1.5 1.5 0 0 1 1.5-1.5 1.5 1.5 0 0 1 1.5 1.5 1.5 1.5 0 0 1-1.5 1.5 1.5 1.5 0 0 1-1.5-1.5v-.03m1.54-6.12V620a1.5 1.5 0 0 1 1.5-1.5 1.5 1.5 0 0 1 1.5 1.5 1.5 1.5 0 0 1-1.5 1.5 1.5 1.5 0 0 1-1.5-1.5" fill="#e81313"/><path d="M432.14 638.78l-.3 1.14h-3.03l.48-1.85z" stroke="#e81313" stroke-width=".05" fill="#e81313"/><path d="M439.15 604.7l1.03 14.97-9-2.25z" stroke="#e81313" stroke-width="3" fill="#fff"/><path d="M399.5 621.3v-.02a1.5 1.5 0 0 1 1.5-1.5 1.5 1.5 0 0 1 1.5 1.5 1.5 1.5 0 0 1-1.5 1.5 1.5 1.5 0 0 1-1.5-1.5v-.02" fill="#e81313"/><path d="M400.33 619.94l1.53-.25.48.95-2.64 1.32-1.16-2.32z" stroke="#e81313" stroke-width=".05" fill="#e81313"/><path d="M408.16 635.58l-10.53-10.7 8.3-4.13z" stroke="#e81313" stroke-width="3" fill="#fff"/><path d="M390.33 470c0 5.52-4.47 10-10 10-5.52 0-10-4.48-10-10s4.48-10 10-10c5.53 0 10 4.48 10 10z" stroke="#fcce14" stroke-width="3" fill="#008a0e"/><path d="M410.33 470c0 5.52-4.47 10-10 10-5.52 0-10-4.48-10-10s4.48-10 10-10c5.53 0 10 4.48 10 10z" stroke="#fcce14" stroke-width="3" fill="#82755b"/><path d="M410.33 450c0 5.52-4.47 10-10 10-5.52 0-10-4.48-10-10s4.48-10 10-10c5.53 0 10 4.48 10 10z" stroke="#fcce14" stroke-width="3" fill="#1071e5"/><path d="M700 698.42a20 20 0 0 1 20-20h200a20 20 0 0 1 20 20 20 20 0 0 1-20 20H720a20 20 0 0 1-20-20z" stroke="#000" stroke-width="3" fill="#ced4db"/><path d="M700 618.42a20 20 0 0 1 20-20h200a20 20 0 0 1 20 20 20 20 0 0 1-20 20H720a20 20 0 0 1-20-20z" stroke="#000" stroke-width="3" fill="url(#c)"/><path d="M700 538a20 20 0 0 1 20-20h200a20 20 0 0 1 20 20 20 20 0 0 1-20 20H720a20 20 0 0 1-20-20z" stroke="#000" stroke-width="3" fill="#c3f7c8"/><path d="M700 460.5a19 19 0 0 1 19-19h202a19 19 0 0 1 19 19 19 19 0 0 1-19 19H719a19 19 0 0 1-19-19z" stroke="#000" stroke-width="3" fill="#e8e2c8"/><use xlink:href="#b" transform="matrix(1,0,0,1,705,446.5) translate(86.70253086419754 19.52777777777778)"/><path d="M733 482.5v17M727 482.5v17" stroke="#008a0e" stroke-width="3" fill="none"/><path d="M734.48 482.54h-2.96V481h2.96zM728.48 482.54h-2.96V481h2.96z" stroke="#008a0e" stroke-width=".05" fill="#008a0e"/><path d="M740 496.18l-10 17.32-10-17.32m10 17.32V505M916.25 515v-17M922.25 515v-17" stroke="#008a0e" stroke-width="3" fill="none"/><path d="M917.73 514.96v1.54h-2.96v-1.54zM923.73 514.96v1.9l-.37-.1-2.6-.2v-1.6z" stroke="#008a0e" stroke-width=".05" fill="#008a0e"/><path d="M909.25 501.32l10-17.32 10 17.32m-10-17.32v8.5" stroke="#008a0e" stroke-width="3" fill="none"/><path d="M740 530c0 5.52-4.48 10-10 10s-10-4.48-10-10 4.48-10 10-10 10 4.48 10 10z" stroke="#fcce14" stroke-width="3" fill="#008a0e"/><path d="M760 530c0 5.52-4.48 10-10 10s-10-4.48-10-10 4.48-10 10-10 10 4.48 10 10z" stroke="#fcce14" stroke-width="3" fill="#82755b"/><path d="M780 530c0 5.52-4.48 10-10 10s-10-4.48-10-10 4.48-10 10-10 10 4.48 10 10z" stroke="#fcce14" stroke-width="3" fill="#1071e5"/><path d="M730.5 469.5c0 5.52-4.48 10-10 10s-10-4.48-10-10 4.48-10 10-10 10 4.48 10 10z" stroke="#fcce14" stroke-width="3" fill="#008a0e"/><path d="M750.5 469.5c0 5.52-4.48 10-10 10s-10-4.48-10-10 4.48-10 10-10 10 4.48 10 10z" stroke="#fcce14" stroke-width="3" fill="#82755b"/><path d="M750.5 449.5c0 5.52-4.48 10-10 10s-10-4.48-10-10 4.48-10 10-10 10 4.48 10 10z" stroke="#fcce14" stroke-width="3" fill="#1071e5"/><path d="M729.6 542.54v-.02a1.5 1.5 0 0 1 1.5-1.5 1.5 1.5 0 0 1 1.5 1.5 1.5 1.5 0 0 1-1.5 1.5 1.5 1.5 0 0 1-1.5-1.5" fill="#008a0e"/><path d="M730 541.52l1.87-.3.26.23-1.97 2.2-2.85-2.56z" stroke="#008a0e" stroke-width=".05" fill="#008a0e"/><path d="M746.4 556.25l-13.72-6.1 6.2-6.88z" stroke="#008a0e" stroke-width="3" fill="#fff"/><path d="M120 544a6 6 0 0 1 6-6h168a6 6 0 0 1 6 6v128a6 6 0 0 1-6 6H126a6 6 0 0 1-6-6z" stroke="#000" stroke-opacity="0" stroke-width="3" fill="#fff" fill-opacity="0"/><use xlink:href="#d" transform="matrix(1,0,0,1,125,543) translate(10.370370370370381 25.395833333333332)"/><use xlink:href="#e" transform="matrix(1,0,0,1,125,543) translate(19.8888888888889 57.39583333333333)"/><use xlink:href="#f" transform="matrix(1,0,0,1,125,543) translate(20.629629629629633 89.39583333333333)"/><use xlink:href="#g" transform="matrix(1,0,0,1,125,543) translate(66.48148148148148 89.39583333333333)"/><use xlink:href="#h" transform="matrix(1,0,0,1,125,543) translate(118.33333333333333 89.39583333333333)"/><use xlink:href="#i" transform="matrix(1,0,0,1,125,543) translate(10.296296296296305 121.39583333333333)"/><path d="M1000 586a6 6 0 0 1 6-6h168a6 6 0 0 1 6 6v128a6 6 0 0 1-6 6h-168a6 6 0 0 1-6-6z" stroke="#000" stroke-opacity="0" stroke-width="3" fill="#fff" fill-opacity="0"/><use xlink:href="#j" transform="matrix(1,0,0,1,1005,585) translate(40.111111111111114 25.395833333333332)"/><use xlink:href="#k" transform="matrix(1,0,0,1,1005,585) translate(86.92592592592592 25.395833333333332)"/><use xlink:href="#l" transform="matrix(1,0,0,1,1005,585) translate(17.70370370370371 57.39583333333333)"/><use xlink:href="#m" transform="matrix(1,0,0,1,1005,585) translate(124.14814814814814 57.39583333333333)"/><use xlink:href="#n" transform="matrix(1,0,0,1,1005,585) translate(5.07407407407409 89.39583333333333)"/><use xlink:href="#o" transform="matrix(1,0,0,1,1005,585) translate(105.74074074074073 89.39583333333333)"/><use xlink:href="#p" transform="matrix(1,0,0,1,1005,585) translate(23.518518518518526 121.39583333333333)"/><use xlink:href="#q" transform="matrix(1,0,0,1,1005,585) translate(59.074074074074076 121.39583333333333)"/><use xlink:href="#r" transform="matrix(1,0,0,1,1005,585) translate(81.2962962962963 121.39583333333333)"/><path d="M760.5 659.96l2.98-.13m3.98-.16l5.96-.25m3.97-.16l5.96-.25m3.97-.16l5.96-.25m3.97-.17l5.96-.25m3.98-.16l5.97-.25m3.97-.17l5.97-.25m3.98-.16l5.96-.26m3.98-.16l5.96-.25m3.98-.17l5.96-.24m3.97-.17l5.96-.25m3.97-.16l5.96-.25m3.97-.18l5.96-.24m3.98-.17l5.97-.24m3.97-.16l5.97-.25m3.98-.17l5.96-.24m3.98-.17l5.96-.25m3.98-.16l5.96-.25m3.97-.15l5.96-.25m3.97-.17l5.96-.25m3.97-.16l5.96-.25m3.98-.17l5.97-.24m3.97-.17l5.97-.26m3.98-.16l5.96-.25m3.98-.16l2.98-.13M760.52 659.96l-1.02.04" stroke="#3a414a" stroke-width="2" fill="none"/><path d="M1000 650.98l-.98.04-.1-1.95 1.08-.05z" stroke="#3a414a" stroke-width=".05" fill="#3a414a"/><path d="M400 528c0 5.52-4.48 10-10 10s-10-4.48-10-10 4.48-10 10-10 10 4.48 10 10z" stroke="#fcce14" stroke-width="3" fill="#008a0e"/><path d="M460 528c0 5.52-4.48 10-10 10s-10-4.48-10-10 4.48-10 10-10 10 4.48 10 10z" stroke="#fcce14" stroke-width="3" fill="#82755b"/><path d="M520 528c0 5.52-4.48 10-10 10s-10-4.48-10-10 4.48-10 10-10 10 4.48 10 10z" stroke="#fcce14" stroke-width="3" fill="#1071e5"/><path d="M439.72 558.5v-.03a1.5 1.5 0 0 1 1.5-1.5 1.5 1.5 0 0 1 1.5 1.5 1.5 1.5 0 0 1-1.5 1.5 1.5 1.5 0 0 1-1.5-1.5m.8-5.35a1.5 1.5 0 0 1 1.5-1.5 1.5 1.5 0 0 1 1.5 1.5 1.5 1.5 0 0 1-1.5 1.5 1.5 1.5 0 0 1-1.5-1.5v-.03m.8-5.35a1.5 1.5 0 0 1 1.5-1.5 1.5 1.5 0 0 1 1.5 1.5 1.5 1.5 0 0 1-1.5 1.5 1.5 1.5 0 0 1-1.5-1.5v-.03m2.1-4.96a1.5 1.5 0 0 1 1.5-1.5 1.5 1.5 0 0 1 1.5 1.5 1.5 1.5 0 0 1-1.5 1.5 1.5 1.5 0 0 1-1.5-1.5v-.02m3.94-3.53a1.5 1.5 0 0 1 1.5-1.5 1.5 1.5 0 0 1 1.5 1.5 1.5 1.5 0 0 1-1.5 1.5 1.5 1.5 0 0 1-1.5-1.5v-.02" fill="#e81313"/><path d="M441.23 558.44l-.23 1.52" stroke="#e81313" stroke-width="3" fill="none"/><path d="M458.5 555.34l-8.8-12.15 8.82-2.86z" stroke="#e81313" stroke-width="3" fill="#fff"/><path d="M410.33 608.42c0 5.52-4.47 10-10 10-5.52 0-10-4.48-10-10s4.48-10 10-10c5.53 0 10 4.48 10 10z" stroke="#fcce14" stroke-width="3" fill="#008a0e"/><path d="M463 561.43l.18 18.46M457 561.5l.18 18.44" stroke="#e81313" stroke-width="3" fill="none"/><path d="M464.5 561.46l-2.96.02-.02-1.52h2.96zM458.5 561.5l-2.96.04-.02-1.58h2.96z" stroke="#e81313" stroke-width=".05" fill="#e81313"/><path d="M470.15 576.5l-9.84 17.4-10.15-17.23m10.16 17.24l-.07-8.5" stroke="#e81313" stroke-width="3" fill="none"/><path d="M470.33 608.42c0 5.52-4.47 10-10 10-5.52 0-10-4.48-10-10s4.48-10 10-10c5.53 0 10 4.48 10 10z" stroke="#fcce14" stroke-width="3" fill="#82755b"/><path d="M458.5 621.13a1.5 1.5 0 0 1 1.5-1.5 1.5 1.5 0 0 1 1.5 1.5 1.5 1.5 0 0 1-1.5 1.5 1.5 1.5 0 0 1-1.5-1.5v-.03" fill="#e81313"/><path d="M460.33 619.94l.68-.1.34.66-2.64 1.3-1.16-2.3z" stroke="#e81313" stroke-width=".05" fill="#e81313"/><path d="M467.18 635.57l-10.5-10.72 8.3-4.12z" stroke="#e81313" stroke-width="3" fill="#fff"/><path d="M489.17 638.47a1.5 1.5 0 0 1 1.5-1.5 1.5 1.5 0 0 1 1.5 1.5 1.5 1.5 0 0 1-1.5 1.5 1.5 1.5 0 0 1-1.5-1.5v-.03m1.25-5.33a1.5 1.5 0 0 1 1.5-1.5 1.5 1.5 0 0 1 1.5 1.5 1.5 1.5 0 0 1-1.5 1.5 1.5 1.5 0 0 1-1.5-1.5v-.02m1.25-5.34a1.5 1.5 0 0 1 1.5-1.5 1.5 1.5 0 0 1 1.5 1.5 1.5 1.5 0 0 1-1.5 1.5 1.5 1.5 0 0 1-1.5-1.5v-.03m1.25-5.32a1.5 1.5 0 0 1 1.5-1.5 1.5 1.5 0 0 1 1.5 1.5 1.5 1.5 0 0 1-1.5 1.5 1.5 1.5 0 0 1-1.5-1.5v-.03" fill="#e81313"/><path d="M492.12 638.75l-.27 1.17h-3.03l.43-1.83z" stroke="#e81313" stroke-width=".05" fill="#e81313"/><path d="M499.23 601.64l1.3 14.95-9.04-2.1z" stroke="#e81313" stroke-width="3" fill="#fff"/><path d="M497.32 595.44l-.17-18.46M503.32 595.4l-.17-18.48" stroke="#e81313" stroke-width="3" fill="none"/><path d="M498.8 596.92h-2.94v-1.5l2.94-.03zM504.8 596.92h-2.94l-.02-1.55 2.95-.03z" stroke="#e81313" stroke-width=".05" fill="#e81313"/><path d="M490.18 580.37l9.85-17.4 10.15 17.22m-10.15-17.24l.07 8.5" stroke="#e81313" stroke-width="3" fill="none"/><path d="M498.7 558.5v-.03a1.5 1.5 0 0 1 1.5-1.5 1.5 1.5 0 0 1 1.5 1.5 1.5 1.5 0 0 1-1.5 1.5 1.5 1.5 0 0 1-1.5-1.5m.8-5.48v-.02a1.5 1.5 0 0 1 1.5-1.5 1.5 1.5 0 0 1 1.5 1.5 1.5 1.5 0 0 1-1.5 1.5 1.5 1.5 0 0 1-1.5-1.5m1-5.42v-.02a1.5 1.5 0 0 1 1.5-1.5 1.5 1.5 0 0 1 1.5 1.5 1.5 1.5 0 0 1-1.5 1.5 1.5 1.5 0 0 1-1.5-1.5m2.33-5a1.5 1.5 0 0 1 1.5-1.5 1.5 1.5 0 0 1 1.5 1.5 1.5 1.5 0 0 1-1.5 1.5 1.5 1.5 0 0 1-1.5-1.5v-.03m4.2-3.37v-.02a1.5 1.5 0 0 1 1.5-1.5 1.5 1.5 0 0 1 1.5 1.5 1.5 1.5 0 0 1-1.5 1.5 1.5 1.5 0 0 1-1.5-1.5m5.04 1.67a1.5 1.5 0 0 1 1.5-1.5 1.5 1.5 0 0 1 1.5 1.5 1.5 1.5 0 0 1-1.5 1.5 1.5 1.5 0 0 1-1.5-1.5v-.03" fill="#e81313"/><path d="M501.68 558.65l-.2 1.3h-2.97l.26-1.73z" stroke="#e81313" stroke-width=".05" fill="#e81313"/><path d="M518.46 555.36l-8.93-12.06 8.8-2.94z" stroke="#e81313" stroke-width="3" fill="#fff"/><path d="M530.33 608.42c0 5.52-4.47 10-10 10-5.52 0-10-4.48-10-10s4.48-10 10-10c5.53 0 10 4.48 10 10z" stroke="#fcce14" stroke-width="3" fill="#1071e5"/><path d="M523 561.43l.18 18.46M517 561.5l.18 18.44" stroke="#e81313" stroke-width="3" fill="none"/><path d="M524.5 561.46l-2.96.02v-1.52h2.94zM518.5 561.5l-2.96.04v-1.58h2.94z" stroke="#e81313" stroke-width=".05" fill="#e81313"/><path d="M530.15 576.5l-9.84 17.4-10.15-17.23m10.16 17.24l-.07-8.5" stroke="#e81313" stroke-width="3" fill="none"/><path d="M549.65 638.47v-.02a1.5 1.5 0 0 1 1.5-1.5 1.5 1.5 0 0 1 1.5 1.5 1.5 1.5 0 0 1-1.5 1.5 1.5 1.5 0 0 1-1.5-1.5m1.15-5.33a1.5 1.5 0 0 1 1.5-1.5 1.5 1.5 0 0 1 1.5 1.5 1.5 1.5 0 0 1-1.5 1.5 1.5 1.5 0 0 1-1.5-1.5v-.03m1.15-5.32v-.02a1.5 1.5 0 0 1 1.5-1.5 1.5 1.5 0 0 1 1.5 1.5 1.5 1.5 0 0 1-1.5 1.5 1.5 1.5 0 0 1-1.5-1.5m1.15-5.33a1.5 1.5 0 0 1 1.5-1.5 1.5 1.5 0 0 1 1.5 1.5 1.5 1.5 0 0 1-1.5 1.5 1.5 1.5 0 0 1-1.5-1.5v-.02" fill="#e81313"/><path d="M552.6 638.72l-.26 1.2h-3l.38-1.82z" stroke="#e81313" stroke-width=".05" fill="#e81313"/><path d="M559.06 601.66l1.53 14.93-9.07-1.97z" stroke="#e81313" stroke-width="3" fill="#fff"/><path d="M557.07 595.44l-.17-18.46M563.07 595.4l-.17-18.48" stroke="#e81313" stroke-width="3" fill="none"/><path d="M558.56 596.92h-2.95v-1.5l2.94-.03zM564.56 596.92h-2.95v-1.55l2.94-.03z" stroke="#e81313" stroke-width=".05" fill="#e81313"/><path d="M549.93 580.37l9.85-17.4 10.15 17.22m-10.15-17.24l.07 8.5" stroke="#e81313" stroke-width="3" fill="none"/><path d="M558.62 558.52v-.02a1.5 1.5 0 0 1 1.5-1.5 1.5 1.5 0 0 1 1.5 1.5 1.5 1.5 0 0 1-1.5 1.5 1.5 1.5 0 0 1-1.5-1.5m1.3-5.1v-.02a1.5 1.5 0 0 1 1.5-1.5 1.5 1.5 0 0 1 1.5 1.5 1.5 1.5 0 0 1-1.5 1.5 1.5 1.5 0 0 1-1.5-1.5v-.02m1.28-5.1a1.5 1.5 0 0 1 1.5-1.5 1.5 1.5 0 0 1 1.5 1.5 1.5 1.5 0 0 1-1.5 1.5 1.5 1.5 0 0 1-1.5-1.5v-.03m1.3-5.1a1.5 1.5 0 0 1 1.5-1.5 1.5 1.5 0 0 1 1.5 1.5 1.5 1.5 0 0 1-1.5 1.5 1.5 1.5 0 0 1-1.5-1.5v-.02" fill="#e81313"/><path d="M561.56 558.83l-.3 1.13h-3.03l.47-1.85z" stroke="#e81313" stroke-width=".05" fill="#e81313"/><path d="M569.15 522.7l1 14.97-9-2.26z" stroke="#e81313" stroke-width="3" fill="#fff"/><path d="M519.54 621.27a1.5 1.5 0 0 1 1.5-1.5 1.5 1.5 0 0 1 1.5 1.5 1.5 1.5 0 0 1-1.5 1.5 1.5 1.5 0 0 1-1.5-1.5v-.03" fill="#e81313"/><path d="M520.33 619.94l1.54-.25.5.9-2.6 1.4-1.27-2.36z" stroke="#e81313" stroke-width=".05" fill="#e81313"/><path d="M528.78 635.64l-10.84-10.36 8.17-4.4z" stroke="#e81313" stroke-width="3" fill="#fff"/><path d="M389.18 540.87a1.5 1.5 0 0 1 1.5-1.5 1.5 1.5 0 0 1 1.5 1.5 1.5 1.5 0 0 1-1.5 1.5 1.5 1.5 0 0 1-1.5-1.5v-.03" fill="#e81313"/><path d="M390 539.52l1.53-.25.48.96-2.62 1.33-1.18-2.33z" stroke="#e81313" stroke-width=".05" fill="#e81313"/><path d="M398.14 555.63L387.57 545l8.27-4.2z" stroke="#e81313" stroke-width="3" fill="#fff"/><path d="M753 561v18.9M747 561v18.9" stroke="#008a0e" stroke-width="3" fill="none"/><path d="M754.48 561.04h-2.96v-1.54h2.96zM748.48 561.04h-2.96v-1.54h2.96z" stroke="#008a0e" stroke-width=".05" fill="#008a0e"/><path d="M760 576.58l-10 17.32-10-17.32m10 17.32v-8.5" stroke="#008a0e" stroke-width="3" fill="none"/><path d="M760 608.42c0 5.52-4.48 10-10 10s-10-4.48-10-10 4.48-10 10-10 10 4.48 10 10z" stroke="#fcce14" stroke-width="3" fill="#008a0e"/><path d="M780 608.42c0 5.52-4.48 10-10 10s-10-4.48-10-10 4.48-10 10-10 10 4.48 10 10z" stroke="#fcce14" stroke-width="3" fill="#82755b"/><path d="M800 608.42c0 5.52-4.48 10-10 10s-10-4.48-10-10 4.48-10 10-10 10 4.48 10 10z" stroke="#fcce14" stroke-width="3" fill="#1071e5"/><path d="M748.5 543.03a1.5 1.5 0 0 1 1.5-1.5 1.5 1.5 0 0 1 1.5 1.5 1.5 1.5 0 0 1-1.5 1.5 1.5 1.5 0 0 1-1.5-1.5V543" fill="#008a0e"/><path d="M751.48 543.06h-2.96v-1.78l1.48.24 1.48-.24z" stroke="#008a0e" stroke-width=".05" fill="#008a0e"/><path d="M750 554.65l-4.63-14.27h9.26z" stroke="#008a0e" stroke-width="3" fill="#fff"/><path d="M767.4 542.54v-.02a1.5 1.5 0 0 1 1.5-1.5 1.5 1.5 0 0 1 1.5 1.5 1.5 1.5 0 0 1-1.5 1.5 1.5 1.5 0 0 1-1.5-1.5" fill="#008a0e"/><path d="M769.84 543.64l-1.97-2.2.26-.22 1.87.3 2.7-.43z" stroke="#008a0e" stroke-width=".05" fill="#008a0e"/><path d="M753.6 556.25l7.52-12.98 6.2 6.9z" stroke="#008a0e" stroke-width="3" fill="#fff"/><path d="M749.16 621.3a1.5 1.5 0 0 1 1.5-1.5 1.5 1.5 0 0 1 1.5 1.5 1.5 1.5 0 0 1-1.5 1.5 1.5 1.5 0 0 1-1.5-1.5v-.03" fill="#008a0e"/><path d="M750 619.94l1.52-.25.48.97-2.65 1.3-1.13-2.32z" stroke="#008a0e" stroke-width=".05" fill="#008a0e"/><path d="M757.62 635.55l-10.42-10.78 8.33-4.07z" stroke="#008a0e" stroke-width="3" fill="#fff"/><path d="M780 688c0 5.52-4.48 10-10 10s-10-4.48-10-10 4.48-10 10-10 10 4.48 10 10z" stroke="#fcce14" stroke-width="3" fill="#008a0e"/><path d="M762.5 641.42v18.5M756.5 641.42v18.5" stroke="#008a0e" stroke-width="3" fill="none"/><path d="M763.98 641.46H761v-1.54H764zM757.98 641.46H755v-1.54H758z" stroke="#008a0e" stroke-width=".05" fill="#008a0e"/><path d="M769.5 656.6l-10 17.32-10-17.32m10 17.32v-8.5" stroke="#008a0e" stroke-width="3" fill="none"/><path d="M840 688.84c0 5.52-4.48 10-10 10s-10-4.48-10-10c0-5.53 4.48-10 10-10s10 4.47 10 10z" stroke="#fcce14" stroke-width="3" fill="#82755b"/><path d="M900 688.84c0 5.52-4.48 10-10 10s-10-4.48-10-10c0-5.53 4.48-10 10-10s10 4.47 10 10z" stroke="#fcce14" stroke-width="3" fill="#1071e5"/><path d="M903.5 657v18.42M897.5 657v18.42M890.5 660.32l10-17.32 10 17.32m-10-17.32v8.5" stroke="#008a0e" stroke-width="3" fill="none"/><path d="M904.98 676.92H902v-1.54H905zM898.98 676.92H896v-1.54H899z" stroke="#008a0e" stroke-width=".05" fill="#008a0e"/><path d="M900.3 638.46a1.5 1.5 0 0 1 1.5-1.5 1.5 1.5 0 0 1 1.5 1.5 1.5 1.5 0 0 1-1.5 1.5 1.5 1.5 0 0 1-1.5-1.5v-.03m1.08-5.3a1.5 1.5 0 0 1 1.5-1.5 1.5 1.5 0 0 1 1.5 1.5 1.5 1.5 0 0 1-1.5 1.5 1.5 1.5 0 0 1-1.5-1.5v-.03m1.1-5.3a1.5 1.5 0 0 1 1.5-1.5 1.5 1.5 0 0 1 1.5 1.5 1.5 1.5 0 0 1-1.5 1.5 1.5 1.5 0 0 1-1.5-1.5v-.03m1.07-5.3v-.02a1.5 1.5 0 0 1 1.5-1.5 1.5 1.5 0 0 1 1.5 1.5 1.5 1.5 0 0 1-1.5 1.5 1.5 1.5 0 0 1-1.5-1.5" fill="#008a0e"/><path d="M903.25 638.7l-.24 1.22h-3l.36-1.8z" stroke="#008a0e" stroke-width=".05" fill="#008a0e"/><path d="M909.28 601.67l1.7 14.9-9.1-1.84z" stroke="#008a0e" stroke-width="3" fill="#fff"/><path d="M907.5 595.42V577M913.5 595.42V577" stroke="#008a0e" stroke-width="3" fill="none"/><path d="M908.98 596.92H906v-1.54H909zM914.98 596.92H912v-1.54H915z" stroke="#008a0e" stroke-width=".05" fill="#008a0e"/><path d="M900.5 580.32l10-17.32 10 17.32m-10-17.32v8.5" stroke="#008a0e" stroke-width="3" fill="none"/><path d="M909.6 558.05a1.5 1.5 0 0 1 1.5-1.5 1.5 1.5 0 0 1 1.5 1.5 1.5 1.5 0 0 1-1.5 1.5 1.5 1.5 0 0 1-1.5-1.5v-.02m1.4-5.96v-.02a1.5 1.5 0 0 1 1.5-1.5 1.5 1.5 0 0 1 1.5 1.5 1.5 1.5 0 0 1-1.5 1.5 1.5 1.5 0 0 1-1.5-1.5m1.4-5.97v-.02a1.5 1.5 0 0 1 1.5-1.5 1.5 1.5 0 0 1 1.5 1.5 1.5 1.5 0 0 1-1.5 1.5 1.5 1.5 0 0 1-1.5-1.5m1.4-5.97v-.02a1.5 1.5 0 0 1 1.5-1.5 1.5 1.5 0 0 1 1.5 1.5 1.5 1.5 0 0 1-1.5 1.5 1.5 1.5 0 0 1-1.5-1.5v-.02" fill="#008a0e"/><path d="M912.54 558.34l-.27 1.16h-3.03l.42-1.83z" stroke="#008a0e" stroke-width=".05" fill="#008a0e"/><path d="M918.9 524.73l1.25 14.94-9.02-2.1z" stroke="#008a0e" stroke-width="3" fill="#fff"/><path d="M300.97 607.74l2.95-.78m3.93-1.05l5.9-1.56m3.94-1.04l5.9-1.57m3.93-1.05l5.9-1.57m3.94-1.03l5.9-1.57m3.94-1.05l5.92-1.57m3.94-1.04l5.9-1.57m3.94-1.05l5.9-1.57m3.94-1.04l5.9-1.56m3.94-1.05l5.9-1.58m3.94-1.04l2.95-.8" stroke="#3a414a" stroke-width="2" fill="none"/><path d="M301.24 608.68L300 609v-2l.74-.2z" stroke="#3a414a" stroke-width=".05" fill="#3a414a"/><path d="M399.34 581.6l1-.27" stroke="#3a414a" stroke-width="2" fill="none"/><path d="M781.5 688a1.5 1.5 0 0 1 1.5-1.5 1.5 1.5 0 0 1 1.5 1.5 1.5 1.5 0 0 1-1.5 1.5 1.5 1.5 0 0 1-1.5-1.5m7.5 0a1.5 1.5 0 0 1 1.5-1.5 1.5 1.5 0 0 1 1.5 1.5 1.5 1.5 0 0 1-1.5 1.5 1.5 1.5 0 0 1-1.5-1.5" fill="#008a0e"/><path d="M783.05 689.48h-1.77l.24-1.46-.2-1.5h1.73z" stroke="#008a0e" stroke-width=".05" fill="#008a0e"/><path d="M813.74 688l-14.26 4.63v-9.26z" stroke="#008a0e" stroke-width="3" fill="#fff"/><path d="M841.5 688.85a1.5 1.5 0 0 1 1.5-1.5 1.5 1.5 0 0 1 1.5 1.5 1.5 1.5 0 0 1-1.5 1.5 1.5 1.5 0 0 1-1.5-1.5v-.03m7.44.03a1.5 1.5 0 0 1 1.5-1.5 1.5 1.5 0 0 1 1.5 1.5 1.5 1.5 0 0 1-1.5 1.5 1.5 1.5 0 0 1-1.5-1.5v-.03" fill="#008a0e"/><path d="M843.05 690.3h-1.77l.24-1.44-.2-1.5h1.73z" stroke="#008a0e" stroke-width=".05" fill="#008a0e"/><path d="M873.63 688.84l-14.26 4.63v-9.27z" stroke="#008a0e" stroke-width="3" fill="#fff"/><path d="M300.9 608.46l2.67 1.4m3.57 1.85l5.36 2.8m3.57 1.86l5.36 2.78M325 621l5.36 2.78m3.57 1.86l5.35 2.8m3.58 1.84l5.35 2.8m3.6 1.85l5.34 2.8m3.57 1.84l5.37 2.8m3.57 1.85L375 647m3.57 1.86l5.36 2.78m3.57 1.86l5.36 2.8m3.57 1.85l2.68 1.4" stroke="#3a414a" stroke-width="2" fill="none"/><path d="M301.36 607.6l-.9 1.74-.46-.24v-2.2z" stroke="#3a414a" stroke-width=".05" fill="#3a414a"/><path d="M399.1 659.53l.9.47" stroke="#3a414a" stroke-width="2" fill="none"/><defs><linearGradient gradientUnits="userSpaceOnUse" id="a" x1="360" y1="638.42" x2="360" y2="598.42"><stop offset="18.48%" stop-color="#fff"/><stop offset="24.28%" stop-color="#cfe4ff"/></linearGradient><path d="M212-179c-10-28-35-45-73-45-59 0-87 40-87 99 0 60 29 101 89 101 43 0 62-24 78-52l27 14C228-24 195 4 139 4 59 4 22-46 18-125c-6-104 99-153 187-111 19 9 31 26 39 46" id="s"/><path d="M24 0v-261h32V0H24" id="t"/><path d="M24-231v-30h32v30H24zM24 0v-190h32V0H24" id="u"/><path d="M100-194c63 0 86 42 84 106H49c0 40 14 67 53 68 26 1 43-12 49-29l28 8c-11 28-37 45-77 45C44 4 14-33 15-96c1-61 26-98 85-98zm52 81c6-60-76-77-97-28-3 7-6 17-6 28h103" id="v"/><path d="M117-194c89-4 53 116 60 194h-32v-121c0-31-8-49-39-48C34-167 62-67 57 0H25l-1-190h30c1 10-1 24 2 32 11-22 29-35 61-36" id="w"/><path d="M59-47c-2 24 18 29 38 22v24C64 9 27 4 27-40v-127H5v-23h24l9-43h21v43h35v23H59v120" id="x"/><g id="b"><use transform="matrix(0.06172839506172839,0,0,0.06172839506172839,0,0)" xlink:href="#s"/><use transform="matrix(0.06172839506172839,0,0,0.06172839506172839,15.987654320987653,0)" xlink:href="#t"/><use transform="matrix(0.06172839506172839,0,0,0.06172839506172839,20.864197530864196,0)" xlink:href="#u"/><use transform="matrix(0.06172839506172839,0,0,0.06172839506172839,25.74074074074074,0)" xlink:href="#v"/><use transform="matrix(0.06172839506172839,0,0,0.06172839506172839,38.08641975308642,0)" xlink:href="#w"/><use transform="matrix(0.06172839506172839,0,0,0.06172839506172839,50.432098765432094,0)" xlink:href="#x"/></g><linearGradient gradientUnits="userSpaceOnUse" id="c" x1="700" y1="638.42" x2="700" y2="598.42"><stop offset="18.48%" stop-color="#fff"/><stop offset="24.28%" stop-color="#cfe4ff"/></linearGradient><path d="M63-220v92h138v28H63V0H30v-248h175v28H63" id="y"/><path d="M16-82v-28h88v28H16" id="z"/><path d="M177-190C167-65 218 103 67 71c-23-6-38-20-44-43l32-5c15 47 100 32 89-28v-30C133-14 115 1 83 1 29 1 15-40 15-95c0-56 16-97 71-98 29-1 48 16 59 35 1-10 0-23 2-32h30zM94-22c36 0 50-32 50-73 0-42-14-75-50-75-39 0-46 34-46 75s6 73 46 73" id="A"/><path d="M114-163C36-179 61-72 57 0H25l-1-190h30c1 12-1 29 2 39 6-27 23-49 58-41v29" id="B"/><path d="M141-36C126-15 110 5 73 4 37 3 15-17 15-53c-1-64 63-63 125-63 3-35-9-54-41-54-24 1-41 7-42 31l-33-3c5-37 33-52 76-52 45 0 72 20 72 64v82c-1 20 7 32 28 27v20c-31 9-61-2-59-35zM48-53c0 20 12 33 32 33 41-3 63-29 60-74-43 2-92-5-92 41" id="C"/><path d="M85-194c31 0 48 13 60 33l-1-100h32l1 261h-30c-2-10 0-23-3-31C134-8 116 4 85 4 32 4 16-35 15-94c0-66 23-100 70-100zm9 24c-40 0-46 34-46 75 0 40 6 74 45 74 42 0 51-32 51-76 0-42-9-74-50-73" id="D"/><g id="d"><use transform="matrix(0.07407407407407407,0,0,0.07407407407407407,0,0)" xlink:href="#y"/><use transform="matrix(0.07407407407407407,0,0,0.07407407407407407,16.22222222222222,0)" xlink:href="#u"/><use transform="matrix(0.07407407407407407,0,0,0.07407407407407407,22.074074074074073,0)" xlink:href="#w"/><use transform="matrix(0.07407407407407407,0,0,0.07407407407407407,36.888888888888886,0)" xlink:href="#v"/><use transform="matrix(0.07407407407407407,0,0,0.07407407407407407,51.703703703703695,0)" xlink:href="#z"/><use transform="matrix(0.07407407407407407,0,0,0.07407407407407407,60.51851851851851,0)" xlink:href="#A"/><use transform="matrix(0.07407407407407407,0,0,0.07407407407407407,75.33333333333333,0)" xlink:href="#B"/><use transform="matrix(0.07407407407407407,0,0,0.07407407407407407,84.14814814814814,0)" xlink:href="#C"/><use transform="matrix(0.07407407407407407,0,0,0.07407407407407407,98.96296296296295,0)" xlink:href="#u"/><use transform="matrix(0.07407407407407407,0,0,0.07407407407407407,104.8148148148148,0)" xlink:href="#w"/><use transform="matrix(0.07407407407407407,0,0,0.07407407407407407,119.6296296296296,0)" xlink:href="#v"/><use transform="matrix(0.07407407407407407,0,0,0.07407407407407407,134.44444444444443,0)" xlink:href="#D"/></g><path d="M96-169c-40 0-48 33-48 73s9 75 48 75c24 0 41-14 43-38l32 2c-6 37-31 61-74 61-59 0-76-41-82-99-10-93 101-131 147-64 4 7 5 14 7 22l-32 3c-4-21-16-35-41-35" id="E"/><path d="M100-194c62-1 85 37 85 99 1 63-27 99-86 99S16-35 15-95c0-66 28-99 85-99zM99-20c44 1 53-31 53-75 0-43-8-75-51-75s-53 32-53 75 10 74 51 75" id="F"/><path d="M210-169c-67 3-38 105-44 169h-31v-121c0-29-5-50-35-48C34-165 62-65 56 0H25l-1-190h30c1 10-1 24 2 32 10-44 99-50 107 0 11-21 27-35 58-36 85-2 47 119 55 194h-31v-121c0-29-5-49-35-48" id="G"/><path d="M135-143c-3-34-86-38-87 0 15 53 115 12 119 90S17 21 10-45l28-5c4 36 97 45 98 0-10-56-113-15-118-90-4-57 82-63 122-42 12 7 21 19 24 35" id="H"/><g id="e"><use transform="matrix(0.07407407407407407,0,0,0.07407407407407407,0,0)" xlink:href="#E"/><use transform="matrix(0.07407407407407407,0,0,0.07407407407407407,13.333333333333332,0)" xlink:href="#F"/><use transform="matrix(0.07407407407407407,0,0,0.07407407407407407,28.148148148148145,0)" xlink:href="#G"/><use transform="matrix(0.07407407407407407,0,0,0.07407407407407407,50.29629629629629,0)" xlink:href="#G"/><use transform="matrix(0.07407407407407407,0,0,0.07407407407407407,72.44444444444443,0)" xlink:href="#C"/><use transform="matrix(0.07407407407407407,0,0,0.07407407407407407,87.25925925925924,0)" xlink:href="#w"/><use transform="matrix(0.07407407407407407,0,0,0.07407407407407407,102.07407407407405,0)" xlink:href="#D"/><use transform="matrix(0.07407407407407407,0,0,0.07407407407407407,116.88888888888887,0)" xlink:href="#H"/></g><g id="f"><use transform="matrix(0.07407407407407407,0,0,0.07407407407407407,0,0)" xlink:href="#C"/><use transform="matrix(0.07407407407407407,0,0,0.07407407407407407,14.814814814814813,0)" xlink:href="#B"/><use transform="matrix(0.07407407407407407,0,0,0.07407407407407407,23.629629629629623,0)" xlink:href="#v"/></g><path d="M115-194c53 0 69 39 70 98 0 66-23 100-70 100C84 3 66-7 56-30L54 0H23l1-261h32v101c10-23 28-34 59-34zm-8 174c40 0 45-34 45-75 0-40-5-75-45-74-42 0-51 32-51 76 0 43 10 73 51 73" id="I"/><g id="g"><use transform="matrix(0.07407407407407407,0,0,0.07407407407407407,0,0)" xlink:href="#I"/><use transform="matrix(0.07407407407407407,0,0,0.07407407407407407,14.814814814814813,0)" xlink:href="#C"/><use transform="matrix(0.07407407407407407,0,0,0.07407407407407407,29.629629629629626,0)" xlink:href="#D"/></g><path d="M101-234c-31-9-42 10-38 44h38v23H63V0H32v-167H5v-23h27c-7-52 17-82 69-68v24" id="J"/><g id="h"><use transform="matrix(0.07407407407407407,0,0,0.07407407407407407,0,0)" xlink:href="#J"/><use transform="matrix(0.07407407407407407,0,0,0.07407407407407407,7.4074074074074066,0)" xlink:href="#F"/><use transform="matrix(0.07407407407407407,0,0,0.07407407407407407,22.22222222222222,0)" xlink:href="#B"/></g><path d="M115-194c55 1 70 41 70 98S169 2 115 4C84 4 66-9 55-30l1 105H24l-1-265h31l2 30c10-21 28-34 59-34zm-8 174c40 0 45-34 45-75s-6-73-45-74c-42 0-51 32-51 76 0 43 10 73 51 73" id="K"/><g id="i"><use transform="matrix(0.07407407407407407,0,0,0.07407407407407407,0,0)" xlink:href="#K"/><use transform="matrix(0.07407407407407407,0,0,0.07407407407407407,14.814814814814813,0)" xlink:href="#v"/><use transform="matrix(0.07407407407407407,0,0,0.07407407407407407,29.629629629629626,0)" xlink:href="#B"/><use transform="matrix(0.07407407407407407,0,0,0.07407407407407407,38.44444444444444,0)" xlink:href="#J"/><use transform="matrix(0.07407407407407407,0,0,0.07407407407407407,45.85185185185185,0)" xlink:href="#F"/><use transform="matrix(0.07407407407407407,0,0,0.07407407407407407,60.66666666666666,0)" xlink:href="#B"/><use transform="matrix(0.07407407407407407,0,0,0.07407407407407407,69.48148148148147,0)" xlink:href="#G"/><use transform="matrix(0.07407407407407407,0,0,0.07407407407407407,91.62962962962962,0)" xlink:href="#C"/><use transform="matrix(0.07407407407407407,0,0,0.07407407407407407,106.44444444444443,0)" xlink:href="#w"/><use transform="matrix(0.07407407407407407,0,0,0.07407407407407407,121.25925925925924,0)" xlink:href="#E"/><use transform="matrix(0.07407407407407407,0,0,0.07407407407407407,134.59259259259258,0)" xlink:href="#v"/></g><path d="M266 0h-40l-56-210L115 0H75L2-248h35L96-30l15-64 43-154h32l59 218 59-218h35" id="L"/><g id="j"><use transform="matrix(0.07407407407407407,0,0,0.07407407407407407,0,0)" xlink:href="#L"/><use transform="matrix(0.07407407407407407,0,0,0.07407407407407407,24.59259259259259,0)" xlink:href="#v"/></g><g id="k"><use transform="matrix(0.07407407407407407,0,0,0.07407407407407407,0,0)" xlink:href="#E"/><use transform="matrix(0.07407407407407407,0,0,0.07407407407407407,13.333333333333332,0)" xlink:href="#C"/><use transform="matrix(0.07407407407407407,0,0,0.07407407407407407,28.148148148148145,0)" xlink:href="#w"/></g><path d="M9 0v-24l116-142H16v-24h144v24L44-24h123V0H9" id="M"/><g id="l"><use transform="matrix(0.07407407407407407,0,0,0.07407407407407407,0,0)" xlink:href="#F"/><use transform="matrix(0.07407407407407407,0,0,0.07407407407407407,14.814814814814813,0)" xlink:href="#K"/><use transform="matrix(0.07407407407407407,0,0,0.07407407407407407,29.629629629629626,0)" xlink:href="#x"/><use transform="matrix(0.07407407407407407,0,0,0.07407407407407407,37.03703703703703,0)" xlink:href="#u"/><use transform="matrix(0.07407407407407407,0,0,0.07407407407407407,42.888888888888886,0)" xlink:href="#G"/><use transform="matrix(0.07407407407407407,0,0,0.07407407407407407,65.03703703703704,0)" xlink:href="#u"/><use transform="matrix(0.07407407407407407,0,0,0.07407407407407407,70.88888888888889,0)" xlink:href="#M"/><use transform="matrix(0.07407407407407407,0,0,0.07407407407407407,84.22222222222221,0)" xlink:href="#v"/></g><path d="M179-190L93 31C79 59 56 82 12 73V49c39 6 53-20 64-50L1-190h34L92-34l54-156h33" id="N"/><g id="m"><use transform="matrix(0.07407407407407407,0,0,0.07407407407407407,0,0)" xlink:href="#I"/><use transform="matrix(0.07407407407407407,0,0,0.07407407407407407,14.814814814814813,0)" xlink:href="#N"/></g><g id="n"><use transform="matrix(0.07407407407407407,0,0,0.07407407407407407,0,0)" xlink:href="#H"/><use transform="matrix(0.07407407407407407,0,0,0.07407407407407407,13.333333333333332,0)" xlink:href="#v"/><use transform="matrix(0.07407407407407407,0,0,0.07407407407407407,28.148148148148145,0)" xlink:href="#w"/><use transform="matrix(0.07407407407407407,0,0,0.07407407407407407,42.96296296296296,0)" xlink:href="#D"/><use transform="matrix(0.07407407407407407,0,0,0.07407407407407407,57.77777777777777,0)" xlink:href="#u"/><use transform="matrix(0.07407407407407407,0,0,0.07407407407407407,63.62962962962962,0)" xlink:href="#w"/><use transform="matrix(0.07407407407407407,0,0,0.07407407407407407,78.44444444444443,0)" xlink:href="#A"/></g><path d="M106-169C34-169 62-67 57 0H25v-261h32l-1 103c12-21 28-36 61-36 89 0 53 116 60 194h-32v-121c2-32-8-49-39-48" id="O"/><g id="o"><use transform="matrix(0.07407407407407407,0,0,0.07407407407407407,0,0)" xlink:href="#x"/><use transform="matrix(0.07407407407407407,0,0,0.07407407407407407,7.4074074074074066,0)" xlink:href="#O"/><use transform="matrix(0.07407407407407407,0,0,0.07407407407407407,22.22222222222222,0)" xlink:href="#v"/><use transform="matrix(0.07407407407407407,0,0,0.07407407407407407,37.03703703703704,0)" xlink:href="#G"/></g><g id="p"><use transform="matrix(0.07407407407407407,0,0,0.07407407407407407,0,0)" xlink:href="#C"/><use transform="matrix(0.07407407407407407,0,0,0.07407407407407407,14.814814814814813,0)" xlink:href="#H"/></g><use transform="matrix(0.07407407407407407,0,0,0.07407407407407407,0,0)" xlink:href="#C" id="q"/><g id="r"><use transform="matrix(0.07407407407407407,0,0,0.07407407407407407,0,0)" xlink:href="#I"/><use transform="matrix(0.07407407407407407,0,0,0.07407407407407407,14.814814814814813,0)" xlink:href="#C"/><use transform="matrix(0.07407407407407407,0,0,0.07407407407407407,29.629629629629626,0)" xlink:href="#x"/><use transform="matrix(0.07407407407407407,0,0,0.07407407407407407,37.03703703703703,0)" xlink:href="#E"/><use transform="matrix(0.07407407407407407,0,0,0.07407407407407407,50.37037037037037,0)" xlink:href="#O"/></g></defs></g></svg>