<svg xmlns="http://www.w3.org/2000/svg" xmlns:xlink="http://www.w3.org/1999/xlink" xmlns:lucid="lucid" width="1123" height="303.42"><g transform="translate(-78.5 -438.5)" lucid:page-tab-id="0_0"><path d="M360 700.42a20 20 0 0 1 20-20h200a20 20 0 0 1 20 20 20 20 0 0 1-20 20H380a20 20 0 0 1-20-20z" stroke="#000" stroke-width="3" fill="#ced4db"/><path d="M360 620.42a20 20 0 0 1 20-20h200a20 20 0 0 1 20 20 20 20 0 0 1-20 20H380a20 20 0 0 1-20-20z" stroke="#000" stroke-width="3" fill="url(#a)"/><path d="M360 540a20 20 0 0 1 20-20h200a20 20 0 0 1 20 20 20 20 0 0 1-20 20H380a20 20 0 0 1-20-20z" stroke="#000" stroke-width="3" fill="#c3f7c8"/><path d="M360 461a19 19 0 0 1 19-19h202a19 19 0 0 1 19 19 19 19 0 0 1-19 19H379a19 19 0 0 1-19-19z" stroke="#000" stroke-width="3" fill="#e8e2c8"/><use xlink:href="#b" transform="matrix(1,0,0,1,365,447) translate(86.70253086419754 19.52777777777778)"/><path d="M440 700.42c0 11.04-8.95 20-20 20s-20-8.96-20-20c0-11.05 8.95-20 20-20s20 8.95 20 20z" stroke="#fcce14" stroke-width="3" fill="#008a0e"/><path d="M500 700.42c0 11.04-8.95 20-20 20s-20-8.96-20-20c0-11.05 8.95-20 20-20s20 8.95 20 20z" stroke="#fcce14" stroke-width="3" fill="#82755b"/><path d="M560 700.42c0 11.04-8.95 20-20 20s-20-8.96-20-20c0-11.05 8.95-20 20-20s20 8.95 20 20z" stroke="#fcce14" stroke-width="3" fill="#1071e5"/><path d="M382.33 483v18.56M376.33 483v18.56" stroke="#e81313" stroke-width="3" fill="none"/><path d="M383.8 483.04h-2.94v-1.54h2.95zM375.8 481.25l2 .16v1.64h-2.94v-2z" stroke="#e81313" stroke-width=".05" fill="#e81313"/><path d="M389.33 498.23l-10 17.32-10-17.32m10 17.32v-8.5M393 563v18.93M387 563v18.93" stroke="#e81313" stroke-width="3" fill="none"/><path d="M394.48 563.04h-2.96v-1.54h2.96zM388.48 563.04h-2.96v-1.54h2.96z" stroke="#e81313" stroke-width=".05" fill="#e81313"/><path d="M400 578.6l-10 17.32-10-17.32m10 17.32v-8.5M404.33 643.42v18.5M398.33 643.42v18.5" stroke="#e81313" stroke-width="3" fill="none"/><path d="M405.8 643.46h-2.94v-1.54h2.95zM399.8 643.46h-2.94v-1.54h2.95z" stroke="#e81313" stroke-width=".05" fill="#e81313"/><path d="M411.33 658.6l-10 17.32-10-17.32m10 17.32v-8.5M427 677.42v-18.5M433 677.42v-18.5" stroke="#e81313" stroke-width="3" fill="none"/><path d="M428.48 677.38v1.54h-2.96v-1.54zM434.48 677.38v1.54h-2.96v-1.54z" stroke="#e81313" stroke-width=".05" fill="#e81313"/><path d="M420 662.26l10-17.32 10 17.32m-10-17.32v8.5" stroke="#e81313" stroke-width="3" fill="none"/><path d="M440 630.42c0 5.52-4.48 10-10 10s-10-4.48-10-10 4.48-10 10-10 10 4.48 10 10z" stroke="#fcce14" stroke-width="3" fill="#008a0e"/><path d="M500 630.42c0 5.52-4.48 10-10 10s-10-4.48-10-10 4.48-10 10-10 10 4.48 10 10z" stroke="#fcce14" stroke-width="3" fill="#82755b"/><path d="M560 630.42c0 5.52-4.48 10-10 10s-10-4.48-10-10 4.48-10 10-10 10 4.48 10 10z" stroke="#fcce14" stroke-width="3" fill="#1071e5"/><path d="M462.33 643.42v18.5M456.33 643.42v18.5" stroke="#e81313" stroke-width="3" fill="none"/><path d="M463.8 643.46h-2.94v-1.54h2.95zM457.8 643.46h-2.94v-1.54h2.95z" stroke="#e81313" stroke-width=".05" fill="#e81313"/><path d="M469.33 658.6l-10 17.32-10-17.32m10 17.32v-8.5M487.67 677.42v-18.5M493.67 677.42v-18.5" stroke="#e81313" stroke-width="3" fill="none"/><path d="M489.14 677.38v1.54h-2.95v-1.54zM495.14 677.38v1.54h-2.95v-1.54z" stroke="#e81313" stroke-width=".05" fill="#e81313"/><path d="M480.67 662.24l10-17.32 10 17.32m-10-17.32v8.5M523 643.42v18.5M517 643.42v18.5" stroke="#e81313" stroke-width="3" fill="none"/><path d="M524.48 643.46h-2.96v-1.54h2.96zM518.48 643.46h-2.96v-1.54h2.96z" stroke="#e81313" stroke-width=".05" fill="#e81313"/><path d="M530 658.6l-10 17.32-10-17.32m10 17.32v-8.5M547 677.42v-18.5M553 677.42v-18.5" stroke="#e81313" stroke-width="3" fill="none"/><path d="M548.48 677.38v1.54h-2.96v-1.54zM554.48 677.38v1.54h-2.96v-1.54z" stroke="#e81313" stroke-width=".05" fill="#e81313"/><path d="M540 662.24l10-17.32 10 17.32m-10-17.32v8.5M557 597.42V578.5M563 597.42V578.5" stroke="#e81313" stroke-width="3" fill="none"/><path d="M558.48 597.38v1.54h-2.96v-1.54zM564.48 597.38v1.54h-2.96v-1.54z" stroke="#e81313" stroke-width=".05" fill="#e81313"/><path d="M550 581.82l10-17.32 10 17.32m-10-17.32v8.5M567 517v-18.5M573 517v-18.5" stroke="#e81313" stroke-width="3" fill="none"/><path d="M568.48 516.96v1.54h-2.96v-1.54zM574.48 516.96v1.54h-2.96v-1.54z" stroke="#e81313" stroke-width=".05" fill="#e81313"/><path d="M560 501.82l10-17.32 10 17.32m-10-17.32v8.5" stroke="#e81313" stroke-width="3" fill="none"/><path d="M549.17 617.58v-.02a1.5 1.5 0 0 1 1.5-1.5 1.5 1.5 0 0 1 1.5 1.5 1.5 1.5 0 0 1-1.5 1.5 1.5 1.5 0 0 1-1.5-1.5" fill="#e81313"/><path d="M552 618.2l-.45.9-1.55-.2-1.76.24 1.13-2.27z" stroke="#e81313" stroke-width=".05" fill="#e81313"/><path d="M557.83 603.26l-2.24 14.83-8.3-4.16z" stroke="#e81313" stroke-width="3" fill="#fff"/><path d="M501.3 631.23v-.02a1.5 1.5 0 0 1 1.5-1.5 1.5 1.5 0 0 1 1.5 1.5 1.5 1.5 0 0 1-1.5 1.5 1.5 1.5 0 0 1-1.5-1.5" fill="#e81313"/><path d="M503.6 629.98l-1.56 2.5-.78-.48.26-1.56-.25-1.9z" stroke="#e81313" stroke-width=".05" fill="#e81313"/><path d="M515.88 639.35l-14.56-3.6 4.9-7.87z" stroke="#e81313" stroke-width="3" fill="#fff"/><path d="M441.27 631.25v-.02a1.5 1.5 0 0 1 1.5-1.5 1.5 1.5 0 0 1 1.5 1.5 1.5 1.5 0 0 1-1.5 1.5 1.5 1.5 0 0 1-1.5-1.5" fill="#e81313"/><path d="M443.6 630l-1.6 2.5-.74-.5.26-1.56-.26-1.94z" stroke="#e81313" stroke-width=".05" fill="#e81313"/><path d="M455.25 639.3l-14.5-3.85 5.03-7.8z" stroke="#e81313" stroke-width="3" fill="#fff"/><path d="M388.88 600.38a1.5 1.5 0 0 1 1.5-1.5 1.5 1.5 0 0 1 1.5 1.5 1.5 1.5 0 0 1-1.5 1.5 1.5 1.5 0 0 1-1.5-1.5v-.03m1.43 5.43a1.5 1.5 0 0 1 1.5-1.5 1.5 1.5 0 0 1 1.5 1.5 1.5 1.5 0 0 1-1.5 1.5 1.5 1.5 0 0 1-1.5-1.5v-.02m1.43 5.43v-.03a1.5 1.5 0 0 1 1.5-1.5 1.5 1.5 0 0 1 1.5 1.5 1.5 1.5 0 0 1-1.5 1.5 1.5 1.5 0 0 1-1.5-1.5m1.42 5.42v-.02a1.5 1.5 0 0 1 1.5-1.5 1.5 1.5 0 0 1 1.5 1.5 1.5 1.5 0 0 1-1.5 1.5 1.5 1.5 0 0 1-1.5-1.5v-.02m1.43 5.43v-.02a1.5 1.5 0 0 1 1.5-1.5 1.5 1.5 0 0 1 1.5 1.5 1.5 1.5 0 0 1-1.5 1.5 1.5 1.5 0 0 1-1.5-1.5v-.02" fill="#e81313"/><path d="M391.82 600.03l-2.86.75-.5-1.86h3.06z" stroke="#e81313" stroke-width=".05" fill="#e81313"/><path d="M400.1 637.22l-8.12-12.6 8.96-2.37z" stroke="#e81313" stroke-width="3" fill="#fff"/><path d="M378.2 520.02V520a1.5 1.5 0 0 1 1.5-1.5 1.5 1.5 0 0 1 1.5 1.5 1.5 1.5 0 0 1-1.5 1.5 1.5 1.5 0 0 1-1.5-1.5m1.33 5.4v-.02a1.5 1.5 0 0 1 1.5-1.5 1.5 1.5 0 0 1 1.5 1.5 1.5 1.5 0 0 1-1.5 1.5 1.5 1.5 0 0 1-1.5-1.5v-.02m1.33 5.4a1.5 1.5 0 0 1 1.5-1.5 1.5 1.5 0 0 1 1.5 1.5 1.5 1.5 0 0 1-1.5 1.5 1.5 1.5 0 0 1-1.5-1.5v-.03m1.34 5.4a1.5 1.5 0 0 1 1.5-1.5 1.5 1.5 0 0 1 1.5 1.5 1.5 1.5 0 0 1-1.5 1.5 1.5 1.5 0 0 1-1.5-1.5v-.03" fill="#e81313"/><path d="M381.13 519.68l-2.86.72-.43-1.74 2.1-.16h.9z" stroke="#e81313" stroke-width=".05" fill="#e81313"/><path d="M388.83 556.8l-7.94-12.74 9-2.23z" stroke="#e81313" stroke-width="3" fill="#fff"/><path d="M560 550c0 5.52-4.48 10-10 10s-10-4.48-10-10 4.48-10 10-10 10 4.48 10 10z" stroke="#fcce14" stroke-width="3" fill="#008a0e"/><path d="M580 550c0 5.52-4.48 10-10 10s-10-4.48-10-10 4.48-10 10-10 10 4.48 10 10z" stroke="#fcce14" stroke-width="3" fill="#82755b"/><path d="M580 530c0 5.52-4.48 10-10 10s-10-4.48-10-10 4.48-10 10-10 10 4.48 10 10z" stroke="#fcce14" stroke-width="3" fill="#1071e5"/><path d="M570 470c0 5.52-4.48 10-10 10s-10-4.48-10-10 4.48-10 10-10 10 4.48 10 10z" stroke="#fcce14" stroke-width="3" fill="#008a0e"/><path d="M590 470c0 5.52-4.48 10-10 10s-10-4.48-10-10 4.48-10 10-10 10 4.48 10 10z" stroke="#fcce14" stroke-width="3" fill="#82755b"/><path d="M590 450c0 5.52-4.48 10-10 10s-10-4.48-10-10 4.48-10 10-10 10 4.48 10 10z" stroke="#fcce14" stroke-width="3" fill="#1071e5"/><path d="M700 700.42a20 20 0 0 1 20-20h200a20 20 0 0 1 20 20 20 20 0 0 1-20 20H720a20 20 0 0 1-20-20z" stroke="#000" stroke-width="3" fill="#ced4db"/><path d="M700 620.42a20 20 0 0 1 20-20h200a20 20 0 0 1 20 20 20 20 0 0 1-20 20H720a20 20 0 0 1-20-20z" stroke="#000" stroke-width="3" fill="url(#c)"/><path d="M700 540a20 20 0 0 1 20-20h200a20 20 0 0 1 20 20 20 20 0 0 1-20 20H720a20 20 0 0 1-20-20z" stroke="#000" stroke-width="3" fill="#c3f7c8"/><path d="M700 461a19 19 0 0 1 19-19h202a19 19 0 0 1 19 19 19 19 0 0 1-19 19H719a19 19 0 0 1-19-19z" stroke="#000" stroke-width="3" fill="#e8e2c8"/><use xlink:href="#b" transform="matrix(1,0,0,1,705,447) translate(86.70253086419754 19.52777777777778)"/><path d="M780 700.42c0 11.04-8.95 20-20 20s-20-8.96-20-20c0-11.05 8.95-20 20-20s20 8.95 20 20z" stroke="#fcce14" stroke-width="3" fill="#008a0e"/><path d="M840 700.42c0 11.04-8.95 20-20 20s-20-8.96-20-20c0-11.05 8.95-20 20-20s20 8.95 20 20z" stroke="#fcce14" stroke-width="3" fill="#82755b"/><path d="M900 700.42c0 11.04-8.95 20-20 20s-20-8.96-20-20c0-11.05 8.95-20 20-20s20 8.95 20 20z" stroke="#fcce14" stroke-width="3" fill="#1071e5"/><path d="M722.33 483v18.56M716.33 483v18.56" stroke="#008a0e" stroke-width="3" fill="none"/><path d="M723.8 483.04h-2.94v-1.54h2.95zM715.8 481.25l2 .16v1.64h-2.94v-2z" stroke="#008a0e" stroke-width=".05" fill="#008a0e"/><path d="M729.33 498.23l-10 17.32-10-17.32m10 17.32v-8.5M907 517v-18.5M913 517v-18.5" stroke="#008a0e" stroke-width="3" fill="none"/><path d="M908.48 516.96v1.54h-2.96v-1.54zM914.48 516.96v1.54h-2.96v-1.54z" stroke="#008a0e" stroke-width=".05" fill="#008a0e"/><path d="M900 501.82l10-17.32 10 17.32m-10-17.32v8.5" stroke="#008a0e" stroke-width="3" fill="none"/><path d="M719.28 518.97v-.02a1.5 1.5 0 0 1 1.5-1.5 1.5 1.5 0 0 1 1.5 1.5 1.5 1.5 0 0 1-1.5 1.5 1.5 1.5 0 0 1-1.5-1.5m6 1.7a1.5 1.5 0 0 1 1.5-1.5 1.5 1.5 0 0 1 1.5 1.5 1.5 1.5 0 0 1-1.5 1.5 1.5 1.5 0 0 1-1.5-1.5v-.03m6.03 1.7a1.5 1.5 0 0 1 1.5-1.5 1.5 1.5 0 0 1 1.5 1.5 1.5 1.5 0 0 1-1.5 1.5 1.5 1.5 0 0 1-1.5-1.5v-.02m6.02 1.72V524a1.5 1.5 0 0 1 1.5-1.5 1.5 1.5 0 0 1 1.5 1.5 1.5 1.5 0 0 1-1.5 1.5 1.5 1.5 0 0 1-1.5-1.5m6.02 1.7v-.02a1.5 1.5 0 0 1 1.5-1.5 1.5 1.5 0 0 1 1.5 1.5 1.5 1.5 0 0 1-1.5 1.5 1.5 1.5 0 0 1-1.5-1.5m6 1.7a1.5 1.5 0 0 1 1.5-1.5 1.5 1.5 0 0 1 1.5 1.5 1.5 1.5 0 0 1-1.5 1.5 1.5 1.5 0 0 1-1.5-1.5v-.03m6.03 1.7a1.5 1.5 0 0 1 1.5-1.5 1.5 1.5 0 0 1 1.5 1.5 1.5 1.5 0 0 1-1.5 1.5 1.5 1.5 0 0 1-1.5-1.5v-.02m6 1.72v-.02a1.5 1.5 0 0 1 1.5-1.5 1.5 1.5 0 0 1 1.5 1.5 1.5 1.5 0 0 1-1.5 1.5 1.5 1.5 0 0 1-1.5-1.5m6.03 1.7v-.02a1.5 1.5 0 0 1 1.5-1.5 1.5 1.5 0 0 1 1.5 1.5 1.5 1.5 0 0 1-1.5 1.5 1.5 1.5 0 0 1-1.5-1.5" fill="#008a0e"/><path d="M721.2 517.54l-.26.96h-1l-3.3.26-.52.12.72-2.56z" stroke="#008a0e" stroke-width=".05" fill="#008a0e"/><path d="M784.08 536.66l-15 .62 2.5-8.93z" stroke="#008a0e" stroke-width="3" fill="#fff"/><path d="M810 540c0 5.52-4.48 10-10 10s-10-4.48-10-10 4.48-10 10-10 10 4.48 10 10z" stroke="#fcce14" stroke-width="3" fill="#008a0e"/><path d="M830 540c0 5.52-4.48 10-10 10s-10-4.48-10-10 4.48-10 10-10 10 4.48 10 10z" stroke="#fcce14" stroke-width="3" fill="#82755b"/><path d="M850 540c0 5.52-4.48 10-10 10s-10-4.48-10-10 4.48-10 10-10 10 4.48 10 10z" stroke="#fcce14" stroke-width="3" fill="#1071e5"/><path d="M910 470c0 5.52-4.48 10-10 10s-10-4.48-10-10 4.48-10 10-10 10 4.48 10 10z" stroke="#fcce14" stroke-width="3" fill="#008a0e"/><path d="M930 470c0 5.52-4.48 10-10 10s-10-4.48-10-10 4.48-10 10-10 10 4.48 10 10z" stroke="#fcce14" stroke-width="3" fill="#82755b"/><path d="M930 450c0 5.52-4.48 10-10 10s-10-4.48-10-10 4.48-10 10-10 10 4.48 10 10z" stroke="#fcce14" stroke-width="3" fill="#1071e5"/><path d="M851.42 539.5v-.02a1.5 1.5 0 0 1 1.5-1.5 1.5 1.5 0 0 1 1.5 1.5 1.5 1.5 0 0 1-1.5 1.5 1.5 1.5 0 0 1-1.5-1.5m5.4-1.96v-.02a1.5 1.5 0 0 1 1.5-1.5 1.5 1.5 0 0 1 1.5 1.5 1.5 1.5 0 0 1-1.5 1.5 1.5 1.5 0 0 1-1.5-1.5m5.38-1.97a1.5 1.5 0 0 1 1.5-1.5 1.5 1.5 0 0 1 1.5 1.5 1.5 1.5 0 0 1-1.5 1.5 1.5 1.5 0 0 1-1.5-1.5v-.02m5.4-1.95a1.5 1.5 0 0 1 1.5-1.5 1.5 1.5 0 0 1 1.5 1.5 1.5 1.5 0 0 1-1.5 1.5 1.5 1.5 0 0 1-1.5-1.5v-.03m5.38-1.95a1.5 1.5 0 0 1 1.5-1.5 1.5 1.5 0 0 1 1.5 1.5 1.5 1.5 0 0 1-1.5 1.5 1.5 1.5 0 0 1-1.5-1.5v-.03m5.4-1.95v-.02a1.5 1.5 0 0 1 1.5-1.5 1.5 1.5 0 0 1 1.5 1.5 1.5 1.5 0 0 1-1.5 1.5 1.5 1.5 0 0 1-1.5-1.5v-.02m5.38-1.95a1.5 1.5 0 0 1 1.5-1.5 1.5 1.5 0 0 1 1.5 1.5 1.5 1.5 0 0 1-1.5 1.5 1.5 1.5 0 0 1-1.5-1.5v-.02" fill="#008a0e"/><path d="M853.47 540.85l-2.22.82.27-1.65-.2-1.52 1.13-.4z" stroke="#008a0e" stroke-width=".05" fill="#008a0e"/><path d="M905.44 520.17l-11.8 9.28-3.18-8.7z" stroke="#008a0e" stroke-width="3" fill="#fff"/><path d="M90 448a6 6 0 0 1 6-6h208a6 6 0 0 1 6 6v128a6 6 0 0 1-6 6H96a6 6 0 0 1-6-6z" stroke="#000" stroke-opacity="0" stroke-width="3" fill="#fff" fill-opacity="0"/><use xlink:href="#d" transform="matrix(1,0,0,1,95,447) translate(65.03703703703704 25.395833333333332)"/><use xlink:href="#e" transform="matrix(1,0,0,1,95,447) translate(32.44444444444446 57.39583333333333)"/><use xlink:href="#f" transform="matrix(1,0,0,1,95,447) translate(9.518518518518533 89.39583333333333)"/><use xlink:href="#g" transform="matrix(1,0,0,1,95,447) translate(83.5925925925926 89.39583333333333)"/><use xlink:href="#h" transform="matrix(1,0,0,1,95,447) translate(142.7037037037037 89.39583333333333)"/><use xlink:href="#i" transform="matrix(1,0,0,1,95,447) translate(65.11111111111111 121.39583333333333)"/><use xlink:href="#j" transform="matrix(1,0,0,1,95,447) translate(91.7037037037037 121.39583333333333)"/><path d="M80 646.42a6 6 0 0 1 6-6h228a6 6 0 0 1 6 6v88a6 6 0 0 1-6 6H86a6 6 0 0 1-6-6z" stroke="#000" stroke-opacity="0" stroke-width="3" fill="#fff" fill-opacity="0"/><use xlink:href="#k" transform="matrix(1,0,0,1,85,645.4173478346455) translate(2.5925925925926094 35.39583333333333)"/><use xlink:href="#l" transform="matrix(1,0,0,1,85,645.4173478346455) translate(72.22222222222223 35.39583333333333)"/><use xlink:href="#m" transform="matrix(1,0,0,1,85,645.4173478346455) translate(101.85185185185185 35.39583333333333)"/><use xlink:href="#n" transform="matrix(1,0,0,1,85,645.4173478346455) translate(124.07407407407408 35.39583333333333)"/><use xlink:href="#o" transform="matrix(1,0,0,1,85,645.4173478346455) translate(49.11111111111113 67.39583333333333)"/><path d="M321 690.54l2.86.37m3.83.5l5.73.73m3.82.5l5.74.72m3.82.48l5.73.73m3.83.5l5.74.72m3.82.5l5.74.72m3.83.5l5.75.72m3.82.5l5.74.72m3.84.48l2.87.37" stroke="#3a414a" stroke-width="2" fill="none"/><path d="M321.14 689.58l-.25 1.93-.9-.1v-1.97zM398.6 699.45l-.1.9.03 1.05-1.17-.14.25-1.94z" stroke="#3a414a" stroke-width=".05" fill="#3a414a"/><path d="M200.93 582.36l2.83 1.1m3.78 1.48l5.66 2.2m3.77 1.48l5.66 2.2m3.78 1.48l5.67 2.2m3.77 1.48l5.66 2.2m3.78 1.48l5.66 2.2m3.77 1.48l5.67 2.2m3.78 1.48l5.66 2.2m3.78 1.48l5.66 2.2m3.78 1.48l5.66 2.2m3.77 1.48l5.66 2.2m3.8 1.48l5.65 2.2m3.77 1.48l5.66 2.2m3.78 1.48l5.66 2.2m3.77 1.48l5.65 2.2m3.78 1.48l5.66 2.2m3.76 1.47l5.66 2.2m3.78 1.48l5.66 2.22m3.77 1.47l5.66 2.2m3.77 1.47l5.66 2.2m3.77 1.48l5.66 2.2m3.78 1.48l2.83 1.1" stroke="#3a414a" stroke-width="2" fill="none"/><path d="M200.6 583.28l-3.28-1.28h3.78z" stroke="#3a414a" stroke-width=".05" fill="#3a414a"/><path d="M399.04 659.63l.96.37" stroke="#3a414a" stroke-width="2" fill="none"/><path d="M1000 526a6 6 0 0 1 6-6h188a6 6 0 0 1 6 6v168a6 6 0 0 1-6 6h-188a6 6 0 0 1-6-6z" stroke="#000" stroke-opacity="0" stroke-width="3" fill="#fff" fill-opacity="0"/><g><use xlink:href="#p" transform="matrix(1,0,0,1,1005,525) translate(29.111111111111114 26.645833333333332)"/><use xlink:href="#q" transform="matrix(1,0,0,1,1005,525) translate(76.51851851851852 26.645833333333332)"/><use xlink:href="#r" transform="matrix(1,0,0,1,1005,525) translate(117.92592592592592 26.645833333333332)"/><use xlink:href="#s" transform="matrix(1,0,0,1,1005,525) translate(8.481481481481495 58.64583333333333)"/><use xlink:href="#t" transform="matrix(1,0,0,1,1005,525) translate(137.07407407407408 58.64583333333333)"/><use xlink:href="#u" transform="matrix(1,0,0,1,1005,525) translate(26.888888888888886 90.64583333333333)"/><use xlink:href="#v" transform="matrix(1,0,0,1,1005,525) translate(77.25925925925925 90.64583333333333)"/><use xlink:href="#w" transform="matrix(1,0,0,1,1005,525) translate(121.7037037037037 90.64583333333333)"/><use xlink:href="#x" transform="matrix(1,0,0,1,1005,525) translate(9.111111111111114 122.64583333333333)"/><use xlink:href="#y" transform="matrix(1,0,0,1,1005,525) translate(93.48148148148148 122.64583333333333)"/><use xlink:href="#z" transform="matrix(1,0,0,1,1005,525) translate(158.66666666666666 122.64583333333333)"/><use xlink:href="#v" transform="matrix(1,0,0,1,1005,525) translate(0.22222222222222854 154.64583333333334)"/><use xlink:href="#A" transform="matrix(1,0,0,1,1005,525) translate(44.66666666666667 154.64583333333334)"/></g><path d="M820.95 551.83l2.8.9m3.76 1.23l5.64 1.83m3.75 1.2l5.6 1.83m3.76 1.22l5.62 1.83m3.75 1.22l5.63 1.82m3.75 1.22l5.63 1.83m3.75 1.22L880 571m3.75 1.23l5.63 1.83m3.75 1.22l5.62 1.83m3.75 1.22l5.63 1.83m3.75 1.22l5.62 1.83m3.75 1.2l5.62 1.84m3.75 1.22l5.63 1.83m3.75 1.2l5.62 1.83m3.75 1.22l5.62 1.83m3.74 1.22l5.63 1.82m3.75 1.22l5.62 1.83m3.75 1.22l5.6 1.8m3.76 1.23l5.63 1.83m3.74 1.22l2.8.9" stroke="#3a414a" stroke-width="2" fill="none"/><path d="M820 551.52l1.14-.18-.47 1.42-3.82-1.24.15-.48zM1000 608.98V611l-1.28-.4.6-1.86z" stroke="#3a414a" stroke-width=".05" fill="#3a414a"/><defs><linearGradient gradientUnits="userSpaceOnUse" id="a" x1="360" y1="640.42" x2="360" y2="600.42"><stop offset="18.48%" stop-color="#fff"/><stop offset="24.28%" stop-color="#cfe4ff"/></linearGradient><path d="M212-179c-10-28-35-45-73-45-59 0-87 40-87 99 0 60 29 101 89 101 43 0 62-24 78-52l27 14C228-24 195 4 139 4 59 4 22-46 18-125c-6-104 99-153 187-111 19 9 31 26 39 46" id="B"/><path d="M24 0v-261h32V0H24" id="C"/><path d="M24-231v-30h32v30H24zM24 0v-190h32V0H24" id="D"/><path d="M100-194c63 0 86 42 84 106H49c0 40 14 67 53 68 26 1 43-12 49-29l28 8c-11 28-37 45-77 45C44 4 14-33 15-96c1-61 26-98 85-98zm52 81c6-60-76-77-97-28-3 7-6 17-6 28h103" id="E"/><path d="M117-194c89-4 53 116 60 194h-32v-121c0-31-8-49-39-48C34-167 62-67 57 0H25l-1-190h30c1 10-1 24 2 32 11-22 29-35 61-36" id="F"/><path d="M59-47c-2 24 18 29 38 22v24C64 9 27 4 27-40v-127H5v-23h24l9-43h21v43h35v23H59v120" id="G"/><g id="b"><use transform="matrix(0.06172839506172839,0,0,0.06172839506172839,0,0)" xlink:href="#B"/><use transform="matrix(0.06172839506172839,0,0,0.06172839506172839,15.987654320987653,0)" xlink:href="#C"/><use transform="matrix(0.06172839506172839,0,0,0.06172839506172839,20.864197530864196,0)" xlink:href="#D"/><use transform="matrix(0.06172839506172839,0,0,0.06172839506172839,25.74074074074074,0)" xlink:href="#E"/><use transform="matrix(0.06172839506172839,0,0,0.06172839506172839,38.08641975308642,0)" xlink:href="#F"/><use transform="matrix(0.06172839506172839,0,0,0.06172839506172839,50.432098765432094,0)" xlink:href="#G"/></g><linearGradient gradientUnits="userSpaceOnUse" id="c" x1="700" y1="640.42" x2="700" y2="600.42"><stop offset="18.48%" stop-color="#fff"/><stop offset="24.28%" stop-color="#cfe4ff"/></linearGradient><path d="M205 0l-28-72H64L36 0H1l101-248h38L239 0h-34zm-38-99l-47-123c-12 45-31 82-46 123h93" id="H"/><path d="M135-143c-3-34-86-38-87 0 15 53 115 12 119 90S17 21 10-45l28-5c4 36 97 45 98 0-10-56-113-15-118-90-4-57 82-63 122-42 12 7 21 19 24 35" id="I"/><path d="M143 0L79-87 56-68V0H24v-261h32v163l83-92h37l-77 82L181 0h-38" id="J"/><path d="M177-190C167-65 218 103 67 71c-23-6-38-20-44-43l32-5c15 47 100 32 89-28v-30C133-14 115 1 83 1 29 1 15-40 15-95c0-56 16-97 71-98 29-1 48 16 59 35 1-10 0-23 2-32h30zM94-22c36 0 50-32 50-73 0-42-14-75-50-75-39 0-46 34-46 75s6 73 46 73" id="K"/><g id="d"><use transform="matrix(0.07407407407407407,0,0,0.07407407407407407,0,0)" xlink:href="#H"/><use transform="matrix(0.07407407407407407,0,0,0.07407407407407407,17.77777777777778,0)" xlink:href="#I"/><use transform="matrix(0.07407407407407407,0,0,0.07407407407407407,31.11111111111111,0)" xlink:href="#J"/><use transform="matrix(0.07407407407407407,0,0,0.07407407407407407,44.44444444444444,0)" xlink:href="#D"/><use transform="matrix(0.07407407407407407,0,0,0.07407407407407407,50.29629629629629,0)" xlink:href="#F"/><use transform="matrix(0.07407407407407407,0,0,0.07407407407407407,65.1111111111111,0)" xlink:href="#K"/></g><path d="M96-169c-40 0-48 33-48 73s9 75 48 75c24 0 41-14 43-38l32 2c-6 37-31 61-74 61-59 0-76-41-82-99-10-93 101-131 147-64 4 7 5 14 7 22l-32 3c-4-21-16-35-41-35" id="L"/><path d="M100-194c62-1 85 37 85 99 1 63-27 99-86 99S16-35 15-95c0-66 28-99 85-99zM99-20c44 1 53-31 53-75 0-43-8-75-51-75s-53 32-53 75 10 74 51 75" id="M"/><path d="M210-169c-67 3-38 105-44 169h-31v-121c0-29-5-50-35-48C34-165 62-65 56 0H25l-1-190h30c1 10-1 24 2 32 10-44 99-50 107 0 11-21 27-35 58-36 85-2 47 119 55 194h-31v-121c0-29-5-49-35-48" id="N"/><path d="M115-194c55 1 70 41 70 98S169 2 115 4C84 4 66-9 55-30l1 105H24l-1-265h31l2 30c10-21 28-34 59-34zm-8 174c40 0 45-34 45-75s-6-73-45-74c-42 0-51 32-51 76 0 43 10 73 51 73" id="O"/><g id="e"><use transform="matrix(0.07407407407407407,0,0,0.07407407407407407,0,0)" xlink:href="#L"/><use transform="matrix(0.07407407407407407,0,0,0.07407407407407407,13.333333333333332,0)" xlink:href="#M"/><use transform="matrix(0.07407407407407407,0,0,0.07407407407407407,28.148148148148145,0)" xlink:href="#N"/><use transform="matrix(0.07407407407407407,0,0,0.07407407407407407,50.29629629629629,0)" xlink:href="#O"/><use transform="matrix(0.07407407407407407,0,0,0.07407407407407407,65.1111111111111,0)" xlink:href="#M"/><use transform="matrix(0.07407407407407407,0,0,0.07407407407407407,79.92592592592591,0)" xlink:href="#F"/><use transform="matrix(0.07407407407407407,0,0,0.07407407407407407,94.74074074074072,0)" xlink:href="#E"/><use transform="matrix(0.07407407407407407,0,0,0.07407407407407407,109.55555555555553,0)" xlink:href="#F"/><use transform="matrix(0.07407407407407407,0,0,0.07407407407407407,124.37037037037035,0)" xlink:href="#G"/><use transform="matrix(0.07407407407407407,0,0,0.07407407407407407,131.77777777777774,0)" xlink:href="#I"/></g><path d="M141-36C126-15 110 5 73 4 37 3 15-17 15-53c-1-64 63-63 125-63 3-35-9-54-41-54-24 1-41 7-42 31l-33-3c5-37 33-52 76-52 45 0 72 20 72 64v82c-1 20 7 32 28 27v20c-31 9-61-2-59-35zM48-53c0 20 12 33 32 33 41-3 63-29 60-74-43 2-92-5-92 41" id="P"/><path d="M115-194c53 0 69 39 70 98 0 66-23 100-70 100C84 3 66-7 56-30L54 0H23l1-261h32v101c10-23 28-34 59-34zm-8 174c40 0 45-34 45-75 0-40-5-75-45-74-42 0-51 32-51 76 0 43 10 73 51 73" id="Q"/><path d="M84 4C-5 8 30-112 23-190h32v120c0 31 7 50 39 49 72-2 45-101 50-169h31l1 190h-30c-1-10 1-25-2-33-11 22-28 36-60 37" id="R"/><g id="f"><use transform="matrix(0.07407407407407407,0,0,0.07407407407407407,0,0)" xlink:href="#P"/><use transform="matrix(0.07407407407407407,0,0,0.07407407407407407,14.814814814814813,0)" xlink:href="#Q"/><use transform="matrix(0.07407407407407407,0,0,0.07407407407407407,29.629629629629626,0)" xlink:href="#M"/><use transform="matrix(0.07407407407407407,0,0,0.07407407407407407,44.44444444444444,0)" xlink:href="#R"/><use transform="matrix(0.07407407407407407,0,0,0.07407407407407407,59.25925925925925,0)" xlink:href="#G"/></g><path d="M106-169C34-169 62-67 57 0H25v-261h32l-1 103c12-21 28-36 61-36 89 0 53 116 60 194h-32v-121c2-32-8-49-39-48" id="S"/><path d="M114-163C36-179 61-72 57 0H25l-1-190h30c1 12-1 29 2 39 6-27 23-49 58-41v29" id="T"/><g id="g"><use transform="matrix(0.07407407407407407,0,0,0.07407407407407407,0,0)" xlink:href="#G"/><use transform="matrix(0.07407407407407407,0,0,0.07407407407407407,7.4074074074074066,0)" xlink:href="#S"/><use transform="matrix(0.07407407407407407,0,0,0.07407407407407407,22.22222222222222,0)" xlink:href="#E"/><use transform="matrix(0.07407407407407407,0,0,0.07407407407407407,37.03703703703704,0)" xlink:href="#D"/><use transform="matrix(0.07407407407407407,0,0,0.07407407407407407,42.888888888888886,0)" xlink:href="#T"/></g><g id="h"><use transform="matrix(0.07407407407407407,0,0,0.07407407407407407,0,0)" xlink:href="#I"/><use transform="matrix(0.07407407407407407,0,0,0.07407407407407407,13.333333333333332,0)" xlink:href="#G"/><use transform="matrix(0.07407407407407407,0,0,0.07407407407407407,20.74074074074074,0)" xlink:href="#P"/><use transform="matrix(0.07407407407407407,0,0,0.07407407407407407,35.55555555555556,0)" xlink:href="#G"/><use transform="matrix(0.07407407407407407,0,0,0.07407407407407407,42.96296296296296,0)" xlink:href="#E"/></g><g id="i"><use transform="matrix(0.07407407407407407,0,0,0.07407407407407407,0,0)" xlink:href="#D"/><use transform="matrix(0.07407407407407407,0,0,0.07407407407407407,5.851851851851851,0)" xlink:href="#I"/></g><path d="M206 0h-36l-40-164L89 0H53L-1-190h32L70-26l43-164h34l41 164 42-164h31" id="U"/><g id="j"><use transform="matrix(0.07407407407407407,0,0,0.07407407407407407,0,0)" xlink:href="#I"/><use transform="matrix(0.07407407407407407,0,0,0.07407407407407407,13.333333333333332,0)" xlink:href="#C"/><use transform="matrix(0.07407407407407407,0,0,0.07407407407407407,19.185185185185183,0)" xlink:href="#M"/><use transform="matrix(0.07407407407407407,0,0,0.07407407407407407,34,0)" xlink:href="#U"/></g><path d="M185-189c-5-48-123-54-124 2 14 75 158 14 163 119 3 78-121 87-175 55-17-10-28-26-33-46l33-7c5 56 141 63 141-1 0-78-155-14-162-118-5-82 145-84 179-34 5 7 8 16 11 25" id="V"/><g id="k"><use transform="matrix(0.07407407407407407,0,0,0.07407407407407407,0,0)" xlink:href="#V"/><use transform="matrix(0.07407407407407407,0,0,0.07407407407407407,17.77777777777778,0)" xlink:href="#G"/><use transform="matrix(0.07407407407407407,0,0,0.07407407407407407,25.185185185185183,0)" xlink:href="#P"/><use transform="matrix(0.07407407407407407,0,0,0.07407407407407407,40,0)" xlink:href="#G"/><use transform="matrix(0.07407407407407407,0,0,0.07407407407407407,47.407407407407405,0)" xlink:href="#E"/></g><path d="M101-234c-31-9-42 10-38 44h38v23H63V0H32v-167H5v-23h27c-7-52 17-82 69-68v24" id="W"/><g id="l"><use transform="matrix(0.07407407407407407,0,0,0.07407407407407407,0,0)" xlink:href="#M"/><use transform="matrix(0.07407407407407407,0,0,0.07407407407407407,14.814814814814813,0)" xlink:href="#W"/></g><use transform="matrix(0.07407407407407407,0,0,0.07407407407407407,0,0)" xlink:href="#P" id="m"/><path d="M16-82v-28h88v28H16" id="X"/><path d="M108 0H70L1-190h34L89-25l56-165h34" id="Y"/><g id="n"><use transform="matrix(0.07407407407407407,0,0,0.07407407407407407,0,0)" xlink:href="#C"/><use transform="matrix(0.07407407407407407,0,0,0.07407407407407407,5.851851851851851,0)" xlink:href="#M"/><use transform="matrix(0.07407407407407407,0,0,0.07407407407407407,20.666666666666664,0)" xlink:href="#U"/><use transform="matrix(0.07407407407407407,0,0,0.07407407407407407,39.85185185185185,0)" xlink:href="#X"/><use transform="matrix(0.07407407407407407,0,0,0.07407407407407407,48.666666666666664,0)" xlink:href="#C"/><use transform="matrix(0.07407407407407407,0,0,0.07407407407407407,54.51851851851852,0)" xlink:href="#E"/><use transform="matrix(0.07407407407407407,0,0,0.07407407407407407,69.33333333333333,0)" xlink:href="#Y"/><use transform="matrix(0.07407407407407407,0,0,0.07407407407407407,82.66666666666666,0)" xlink:href="#E"/><use transform="matrix(0.07407407407407407,0,0,0.07407407407407407,97.48148148148145,0)" xlink:href="#C"/></g><g id="o"><use transform="matrix(0.07407407407407407,0,0,0.07407407407407407,0,0)" xlink:href="#L"/><use transform="matrix(0.07407407407407407,0,0,0.07407407407407407,13.333333333333332,0)" xlink:href="#M"/><use transform="matrix(0.07407407407407407,0,0,0.07407407407407407,28.148148148148145,0)" xlink:href="#N"/><use transform="matrix(0.07407407407407407,0,0,0.07407407407407407,50.29629629629629,0)" xlink:href="#O"/><use transform="matrix(0.07407407407407407,0,0,0.07407407407407407,65.1111111111111,0)" xlink:href="#M"/><use transform="matrix(0.07407407407407407,0,0,0.07407407407407407,79.92592592592591,0)" xlink:href="#F"/><use transform="matrix(0.07407407407407407,0,0,0.07407407407407407,94.74074074074072,0)" xlink:href="#E"/><use transform="matrix(0.07407407407407407,0,0,0.07407407407407407,109.55555555555553,0)" xlink:href="#F"/><use transform="matrix(0.07407407407407407,0,0,0.07407407407407407,124.37037037037035,0)" xlink:href="#G"/></g><path d="M160-131c35 5 61 23 61 61C221 17 115-2 30 0v-248c76 3 177-17 177 60 0 33-19 50-47 57zm-97-11c50-1 110 9 110-42 0-47-63-36-110-37v79zm0 115c55-2 124 14 124-45 0-56-70-42-124-44v89" id="Z"/><g id="p"><use transform="matrix(0.07407407407407407,0,0,0.07407407407407407,0,0)" xlink:href="#Z"/><use transform="matrix(0.07407407407407407,0,0,0.07407407407407407,17.77777777777778,0)" xlink:href="#R"/><use transform="matrix(0.07407407407407407,0,0,0.07407407407407407,32.592592592592595,0)" xlink:href="#G"/></g><g id="q"><use transform="matrix(0.07407407407407407,0,0,0.07407407407407407,0,0)" xlink:href="#U"/><use transform="matrix(0.07407407407407407,0,0,0.07407407407407407,19.185185185185183,0)" xlink:href="#E"/></g><g id="r"><use transform="matrix(0.07407407407407407,0,0,0.07407407407407407,0,0)" xlink:href="#L"/><use transform="matrix(0.07407407407407407,0,0,0.07407407407407407,13.333333333333332,0)" xlink:href="#P"/><use transform="matrix(0.07407407407407407,0,0,0.07407407407407407,28.148148148148145,0)" xlink:href="#F"/></g><g id="s"><use transform="matrix(0.07407407407407407,0,0,0.07407407407407407,0,0)" xlink:href="#T"/><use transform="matrix(0.07407407407407407,0,0,0.07407407407407407,8.814814814814815,0)" xlink:href="#E"/><use transform="matrix(0.07407407407407407,0,0,0.07407407407407407,23.629629629629623,0)" xlink:href="#N"/><use transform="matrix(0.07407407407407407,0,0,0.07407407407407407,45.77777777777778,0)" xlink:href="#E"/><use transform="matrix(0.07407407407407407,0,0,0.07407407407407407,60.59259259259258,0)" xlink:href="#N"/><use transform="matrix(0.07407407407407407,0,0,0.07407407407407407,82.74074074074073,0)" xlink:href="#Q"/><use transform="matrix(0.07407407407407407,0,0,0.07407407407407407,97.55555555555556,0)" xlink:href="#E"/><use transform="matrix(0.07407407407407407,0,0,0.07407407407407407,112.37037037037035,0)" xlink:href="#T"/></g><path d="M85-194c31 0 48 13 60 33l-1-100h32l1 261h-30c-2-10 0-23-3-31C134-8 116 4 85 4 32 4 16-35 15-94c0-66 23-100 70-100zm9 24c-40 0-46 34-46 75 0 40 6 74 45 74 42 0 51-32 51-76 0-42-9-74-50-73" id="aa"/><g id="t"><use transform="matrix(0.07407407407407407,0,0,0.07407407407407407,0,0)" xlink:href="#P"/><use transform="matrix(0.07407407407407407,0,0,0.07407407407407407,14.814814814814813,0)" xlink:href="#F"/><use transform="matrix(0.07407407407407407,0,0,0.07407407407407407,29.629629629629626,0)" xlink:href="#aa"/></g><g id="u"><use transform="matrix(0.07407407407407407,0,0,0.07407407407407407,0,0)" xlink:href="#R"/><use transform="matrix(0.07407407407407407,0,0,0.07407407407407407,14.814814814814813,0)" xlink:href="#I"/><use transform="matrix(0.07407407407407407,0,0,0.07407407407407407,28.148148148148145,0)" xlink:href="#E"/></g><g id="v"><use transform="matrix(0.07407407407407407,0,0,0.07407407407407407,0,0)" xlink:href="#G"/><use transform="matrix(0.07407407407407407,0,0,0.07407407407407407,7.4074074074074066,0)" xlink:href="#S"/><use transform="matrix(0.07407407407407407,0,0,0.07407407407407407,22.22222222222222,0)" xlink:href="#E"/></g><g id="w"><use transform="matrix(0.07407407407407407,0,0,0.07407407407407407,0,0)" xlink:href="#C"/><use transform="matrix(0.07407407407407407,0,0,0.07407407407407407,5.851851851851851,0)" xlink:href="#P"/><use transform="matrix(0.07407407407407407,0,0,0.07407407407407407,20.666666666666664,0)" xlink:href="#I"/><use transform="matrix(0.07407407407407407,0,0,0.07407407407407407,34,0)" xlink:href="#G"/></g><g id="x"><use transform="matrix(0.07407407407407407,0,0,0.07407407407407407,0,0)" xlink:href="#J"/><use transform="matrix(0.07407407407407407,0,0,0.07407407407407407,13.333333333333332,0)" xlink:href="#F"/><use transform="matrix(0.07407407407407407,0,0,0.07407407407407407,28.148148148148145,0)" xlink:href="#M"/><use transform="matrix(0.07407407407407407,0,0,0.07407407407407407,42.96296296296296,0)" xlink:href="#U"/><use transform="matrix(0.07407407407407407,0,0,0.07407407407407407,62.148148148148145,0)" xlink:href="#F"/></g><g id="y"><use transform="matrix(0.07407407407407407,0,0,0.07407407407407407,0,0)" xlink:href="#I"/><use transform="matrix(0.07407407407407407,0,0,0.07407407407407407,13.333333333333332,0)" xlink:href="#G"/><use transform="matrix(0.07407407407407407,0,0,0.07407407407407407,20.74074074074074,0)" xlink:href="#P"/><use transform="matrix(0.07407407407407407,0,0,0.07407407407407407,35.55555555555556,0)" xlink:href="#G"/><use transform="matrix(0.07407407407407407,0,0,0.07407407407407407,42.96296296296296,0)" xlink:href="#E"/></g><g id="z"><use transform="matrix(0.07407407407407407,0,0,0.07407407407407407,0,0)" xlink:href="#M"/><use transform="matrix(0.07407407407407407,0,0,0.07407407407407407,14.814814814814813,0)" xlink:href="#W"/></g><g id="A"><use transform="matrix(0.07407407407407407,0,0,0.07407407407407407,0,0)" xlink:href="#L"/><use transform="matrix(0.07407407407407407,0,0,0.07407407407407407,13.333333333333332,0)" xlink:href="#M"/><use transform="matrix(0.07407407407407407,0,0,0.07407407407407407,28.148148148148145,0)" xlink:href="#N"/><use transform="matrix(0.07407407407407407,0,0,0.07407407407407407,50.29629629629629,0)" xlink:href="#O"/><use transform="matrix(0.07407407407407407,0,0,0.07407407407407407,65.1111111111111,0)" xlink:href="#M"/><use transform="matrix(0.07407407407407407,0,0,0.07407407407407407,79.92592592592591,0)" xlink:href="#F"/><use transform="matrix(0.07407407407407407,0,0,0.07407407407407407,94.74074074074072,0)" xlink:href="#E"/><use transform="matrix(0.07407407407407407,0,0,0.07407407407407407,109.55555555555553,0)" xlink:href="#F"/><use transform="matrix(0.07407407407407407,0,0,0.07407407407407407,124.37037037037035,0)" xlink:href="#G"/><use transform="matrix(0.07407407407407407,0,0,0.07407407407407407,131.77777777777774,0)" xlink:href="#I"/></g></defs></g></svg>