<svg xmlns="http://www.w3.org/2000/svg" xmlns:xlink="http://www.w3.org/1999/xlink" xmlns:lucid="lucid" width="668.89" height="383.5"><g transform="translate(-478.6012197742948 -257.99995000000473)" lucid:page-tab-id="0_0"><path d="M680 440.78a20 20 0 0 1 20-20h20.1a20 20 0 0 1 20 20v81.6a20 20 0 0 1-20 20H700a20 20 0 0 1-20-20z" stroke="#000" stroke-width="3" fill="url(#a)"/><use xlink:href="#b" transform="matrix(-1.8369701987210297e-16,-1,1,-1.8369701987210297e-16,685,537.3897058823527) translate(15.293209876543209 29.118055555555557)"/><use xlink:href="#c" transform="matrix(-1.8369701987210297e-16,-1,1,-1.8369701987210297e-16,685,537.3897058823527) translate(79.12037037037038 29.118055555555557)"/><path d="M480.1 566a6 6 0 0 1 6-6h268a6 6 0 0 1 6 6v68a6 6 0 0 1-6 6h-268a6 6 0 0 1-6-6z" stroke="#000" stroke-opacity="0" stroke-width="3" fill="#fff" fill-opacity="0"/><use xlink:href="#d" transform="matrix(1,0,0,1,485.1012197742948,565) translate(16.99382716049388 27.10763888888888)"/><use xlink:href="#e" transform="matrix(1,0,0,1,485.1012197742948,565) translate(104.7962962962963 27.10763888888888)"/><use xlink:href="#f" transform="matrix(1,0,0,1,485.1012197742948,565) translate(72.95061728395065 64.4409722222222)"/><use xlink:href="#g" transform="matrix(1,0,0,1,485.1012197742948,565) translate(110.80246913580248 64.4409722222222)"/><path d="M500.1 438.4a20 20 0 0 1 20-20h20.1a20 20 0 0 1 20 20V520a20 20 0 0 1-20 20h-20.1a20 20 0 0 1-20-20z" stroke="#000" stroke-width="3" fill="url(#h)"/><use xlink:href="#b" transform="matrix(-1.8369701987210297e-16,-1,1,-1.8369701987210297e-16,505.1012197742948,535) translate(15.938271604938265 29.118055555555557)"/><use xlink:href="#i" transform="matrix(-1.8369701987210297e-16,-1,1,-1.8369701987210297e-16,505.1012197742948,535) translate(79.76543209876543 29.118055555555557)"/><path d="M500 360a20 20 0 0 1 20-20h200a20 20 0 0 1 20 20 20 20 0 0 1-20 20H520a20 20 0 0 1-20-20z" stroke="#000" stroke-width="3" fill="#fff"/><use xlink:href="#j" transform="matrix(1,0,0,1,505,345) translate(30.36611111111109 21.430555555555557)"/><use xlink:href="#k" transform="matrix(1,0,0,1,505,345) translate(94.05746913580246 21.430555555555557)"/><path d="M530.15 398.4v-15.9" stroke="#000" stroke-width="2" fill="none"/><path d="M530.15 413.65l-4.63-14.26h9.27z" stroke="#000" stroke-width="2"/><path d="M531.13 382.53h-1.95v-1.03h1.95z" stroke="#000" stroke-width=".05"/><path d="M589.95 440.03a20 20 0 0 1 20-20h20.1a20 20 0 0 1 20 20v81.6a20 20 0 0 1-20 20h-20.1a20 20 0 0 1-20-20z" stroke="#000" stroke-width="3" fill="url(#l)"/><use xlink:href="#b" transform="matrix(-1.8369701987210297e-16,-1,1,-1.8369701987210297e-16,594.9493901128526,536.6397033950052) translate(15.938271604938265 29.118055555555557)"/><use xlink:href="#m" transform="matrix(-1.8369701987210297e-16,-1,1,-1.8369701987210297e-16,594.9493901128526,536.6397033950052) translate(79.76543209876543 29.118055555555557)"/><path d="M620 400.03V382.5" stroke="#000" stroke-width="2" fill="none"/><path d="M620 415.3l-4.63-14.27h9.26z" stroke="#000" stroke-width="2"/><path d="M620.98 382.53H619v-1.03H621z" stroke="#000" stroke-width=".05"/><path d="M710.05 400.78V382.5" stroke="#000" stroke-width="2" fill="none"/><path d="M710.05 416.04l-4.63-14.26h9.27z" stroke="#000" stroke-width="2"/><path d="M711.03 382.53h-1.95v-1.03h1.95z" stroke="#000" stroke-width=".05"/><path d="M500.1 280a20 20 0 0 1 20-20h200a20 20 0 0 1 20 20 20 20 0 0 1-20 20h-200a20 20 0 0 1-20-20z" stroke="#000" stroke-width="3" fill="#e8e2c8"/><use xlink:href="#n" transform="matrix(1,0,0,1,505.1012197742948,265) translate(83.87228395061727 21.430555555555557)"/><path d="M620.05 320l.02-17.5" stroke="#000" stroke-width="2" fill="none"/><path d="M620.03 335.26L615.4 321h9.28z" stroke="#000" stroke-width="2"/><path d="M621.05 302.53h-1.95v-1.03h1.95z" stroke="#000" stroke-width=".05"/><path d="M946 480a20 20 0 0 1 20-20 20 20 0 0 1 20 20v40a20 20 0 0 1-20 20 20 20 0 0 1-20-20z" stroke="#000" stroke-width="3" fill="url(#o)"/><use xlink:href="#p" transform="matrix(-1.8369701987210297e-16,-1,1,-1.8369701987210297e-16,950.989847852207,534.9999999999999) translate(26.85685185185185 21.430555555555557)"/><path d="M1026 479.5a20 20 0 0 1 20-20 20 20 0 0 1 20 20V520a20 20 0 0 1-20 20 20 20 0 0 1-20-20z" stroke="#000" stroke-width="3" fill="url(#q)"/><use xlink:href="#r" transform="matrix(-1.8369701987210297e-16,-1,1,-1.8369701987210297e-16,1030.989847852207,534.9999999999998) translate(26.211790123456794 21.430555555555557)"/><path d="M1106 479.5a20 20 0 0 1 20-20 20 20 0 0 1 20 20V520a20 20 0 0 1-20 20 20 20 0 0 1-20-20z" stroke="#000" stroke-width="3" fill="url(#s)"/><use xlink:href="#t" transform="matrix(-1.8369701987210297e-16,-1,1,-1.8369701987210297e-16,1110.989847852207,535) translate(26.211790123456794 21.430555555555557)"/><path d="M846 279.5a20 20 0 0 1 20-20h260a20 20 0 0 1 20 20 20 20 0 0 1-20 20H866a20 20 0 0 1-20-20z" stroke="#000" stroke-width="3" fill="#e8e2c8"/><use xlink:href="#u" transform="matrix(1,0,0,1,850.989847852207,264.49995000000473) translate(113.87228395061729 21.430555555555557)"/><path d="M868 302v41.84M864 302v41.84" stroke="#000" stroke-width="2" fill="none"/><path d="M868.97 302.03H867V301H869zM864.97 300.92v1.1H863v-1.25z" stroke="#000" stroke-width=".05"/><path d="M876 338.68L866 356l-10-17.32M866 356v-8.5M988.48 498.56l21.84-.14M988.5 502.56l21.84-.14" stroke="#000" stroke-width="2" fill="none"/><path d="M988.5 499.54h-1v-1.95h1zM988.53 503.54h-1.04v-1.95h1.02z" stroke="#000" stroke-width=".05"/><path d="M1005.1 490.45l17.4 9.9-17.26 10.1m17.25-10.1l-8.5.04M1068.5 497.75h21.83M1068.5 501.75h21.83" stroke="#000" stroke-width="2" fill="none"/><path d="M1068.52 498.73h-1.03v-1.96h1.02zM1068.52 502.73h-1.03v-1.96h1.02z" stroke="#000" stroke-width=".05"/><path d="M1085.17 489.75l17.32 10-17.33 10m17.32-10h-8.5" stroke="#000" stroke-width="2" fill="none"/><path d="M846 379.5a20 20 0 0 1 20-20h20a20 20 0 0 1 20 20v80a20 20 0 0 1-20 20h-20a20 20 0 0 1-20-20z" stroke="#000" stroke-width="3" fill="url(#v)"/><use xlink:href="#w" transform="matrix(-1.8369701987210297e-16,-1,1,-1.8369701987210297e-16,850.9898478522068,474.4999500000047) translate(26.549382716049386 19.555555555555557)"/><use xlink:href="#x" transform="matrix(-1.8369701987210297e-16,-1,1,-1.8369701987210297e-16,850.9898478522068,474.4999500000047) translate(2.206790123456784 48.88888888888889)"/><path d="M909.65 457.43l26.98 30.62M906.65 460.07l26.98 30.63" stroke="#000" stroke-width="2" fill="none"/><path d="M910.4 456.8l-1.46 1.3-1.45-1.65V454l.24-.22z" stroke="#000" stroke-width=".05"/><path stroke="#000" stroke-width=".05"/><path d="M939.22 478.9l3.95 19.6-18.95-6.4m18.95 6.4l-5.62-6.38M955.27 463.4l-41.24-35.66M957.9 460.36l-41.26-35.65M955.25 463.37l.78.67M957.87 460.34l.77.67M912.7 437.16l-6.56-18.9 19.64 3.77m-19.64-3.76l6.43 5.56M1034.05 465.88l-116.48-62.31M1035.93 462.36l-116.48-62.32M1034.03 465.87l.9.48M1035.9 462.34l.92.5M918.34 413.05l-10.55-17 19.98-.63m-20 .64l7.5 4M1110.35 464.6L917.8 378.64M1111.98 460.95L919.43 375" stroke="#000" stroke-width="2" fill="none"/><path d="M1111.2 463.93l-.42.36-.67.78.62-1.37zM1114.86 461.17l-1.5.93-.42.35-1.38-.62.8-1.78z" stroke="#000" stroke-width=".05"/><path d="M919.25 388.04l-11.74-16.2 19.9-2.07m-19.9 2.07l7.77 3.47M1064.55 301.33l-151.08 53.04" stroke="#000" stroke-width="2" fill="none"/><path d="M1064.85 302.26l-.45-1.26h4.03z" stroke="#000" stroke-width=".05"/><path d="M899.07 359.43l11.92-9.1 3.06 8.74z" stroke="#000" stroke-width="2"/><path d="M840 367.33a6 6 0 0 1-6-6V299.7a6 6 0 0 1 6-6h8a6 6 0 0 1 6 6v61.63a6 6 0 0 1-6 6z" stroke="#000" stroke-opacity="0" stroke-width="2" fill="#fff" fill-opacity="0"/><use xlink:href="#y" transform="matrix(6.123233995736766e-17,-1,1,6.123233995736766e-17,839.0101521477931,362.3269294908496) translate(-1.0370370370370239 14.222222222222218)"/><path d="M917.55 330.98a6 6 0 0 1 3.75-7.6l83.6-28.33a6 6 0 0 1 7.6 3.76l2.56 7.58a6 6 0 0 1-3.75 7.6l-83.58 28.34a6 6 0 0 1-7.6-3.76z" stroke="#000" stroke-opacity="0" stroke-width="2" fill="#fff" fill-opacity="0"/><use xlink:href="#z" transform="matrix(0.9470992133801983,-0.32094092916705047,0.32094092916705047,0.9470992133801983,921.9625234918587,328.43014015353083) translate(3.6481481481481666 14.222222222222218)"/><use xlink:href="#A" transform="matrix(0.9470992133801983,-0.32094092916705047,0.32094092916705047,0.9470992133801983,921.9625234918587,328.43014015353083) translate(35.15432098765433 14.222222222222218)"/><g><path d="M928.54 412.02a6 6 0 0 1 8.46-.7l36.22 30.74a6 6 0 0 1 .7 8.46l-5.2 6.1a6 6 0 0 1-8.44.7l-36.22-30.74a6 6 0 0 1-.7-8.46z" stroke="#000" stroke-opacity="0" stroke-width="2" fill="#fff" fill-opacity="0"/></g><g><use xlink:href="#B" transform="matrix(0.7625006922156701,0.646987398927231,-0.646987398927231,0.7625006922156701,932.998692572568,414.4934765088778) translate(0.9012345679012448 14.222222222222218)"/></g><g><path d="M992.64 417.25a6 6 0 0 1 8.15-2.38l41.63 22.86a6 6 0 0 1 2.37 8.14l-3.85 7.02a6 6 0 0 1-8.14 2.36l-41.63-22.85a6 6 0 0 1-2.38-8.14z" stroke="#000" stroke-opacity="0" stroke-width="2" fill="#fff" fill-opacity="0"/></g><g><use xlink:href="#B" transform="matrix(0.8766355122365612,0.4811550464099299,-0.4811550464099299,0.8766355122365612,997.505732555993,418.77503278882125) translate(0.9012345679012448 14.222222222222218)"/></g><g><path d="M1066.82 418.73a6 6 0 0 1 7.97-2.9l43.03 20.1a6 6 0 0 1 2.9 7.97l-3.38 7.25a6 6 0 0 1-7.98 2.9l-43.04-20.1a6 6 0 0 1-2.9-7.97z" stroke="#000" stroke-opacity="0" stroke-width="2" fill="#fff" fill-opacity="0"/></g><g><use xlink:href="#B" transform="matrix(0.9061058231006732,0.4230511048833834,-0.4230511048833834,0.9061058231006732,1071.7719763418054,419.9385152810266) translate(0.9012345679012448 14.222222222222218)"/></g><path d="M860 566a6 6 0 0 1 6-6h248a6 6 0 0 1 6 6v68a6 6 0 0 1-6 6H866a6 6 0 0 1-6-6z" stroke="#000" stroke-opacity="0" stroke-width="3" fill="#fff" fill-opacity="0"/><g><use xlink:href="#d" transform="matrix(1,0,0,1,865,565) translate(7.493827160493879 27.10763888888888)"/><use xlink:href="#e" transform="matrix(1,0,0,1,865,565) translate(95.2962962962963 27.10763888888888)"/><use xlink:href="#f" transform="matrix(1,0,0,1,865,565) translate(63.45061728395065 64.4409722222222)"/><use xlink:href="#C" transform="matrix(1,0,0,1,865,565) translate(101.30246913580248 64.4409722222222)"/></g><defs><linearGradient gradientUnits="userSpaceOnUse" id="a" x1="680" y1="542.39" x2="680" y2="420.78"><stop offset="19.93%" stop-color="#fff"/><stop offset="27.17%" stop-color="#cfe4ff"/><stop offset="68.12%" stop-color="#cfe4ff"/><stop offset="75%" stop-color="#c3f7c8"/></linearGradient><path d="M30-248c87 1 191-15 191 75 0 78-77 80-158 76V0H30v-248zm33 125c57 0 124 11 124-50 0-59-68-47-124-48v98" id="D"/><path d="M141-36C126-15 110 5 73 4 37 3 15-17 15-53c-1-64 63-63 125-63 3-35-9-54-41-54-24 1-41 7-42 31l-33-3c5-37 33-52 76-52 45 0 72 20 72 64v82c-1 20 7 32 28 27v20c-31 9-61-2-59-35zM48-53c0 20 12 33 32 33 41-3 63-29 60-74-43 2-92-5-92 41" id="E"/><path d="M177-190C167-65 218 103 67 71c-23-6-38-20-44-43l32-5c15 47 100 32 89-28v-30C133-14 115 1 83 1 29 1 15-40 15-95c0-56 16-97 71-98 29-1 48 16 59 35 1-10 0-23 2-32h30zM94-22c36 0 50-32 50-73 0-42-14-75-50-75-39 0-46 34-46 75s6 73 46 73" id="F"/><path d="M100-194c63 0 86 42 84 106H49c0 40 14 67 53 68 26 1 43-12 49-29l28 8c-11 28-37 45-77 45C44 4 14-33 15-96c1-61 26-98 85-98zm52 81c6-60-76-77-97-28-3 7-6 17-6 28h103" id="G"/><g id="b"><use transform="matrix(0.06790123456790124,0,0,0.06790123456790124,0,0)" xlink:href="#D"/><use transform="matrix(0.06790123456790124,0,0,0.06790123456790124,16.296296296296298,0)" xlink:href="#E"/><use transform="matrix(0.06790123456790124,0,0,0.06790123456790124,29.876543209876544,0)" xlink:href="#F"/><use transform="matrix(0.06790123456790124,0,0,0.06790123456790124,43.45679012345679,0)" xlink:href="#G"/></g><path d="M212-179c-10-28-35-45-73-45-59 0-87 40-87 99 0 60 29 101 89 101 43 0 62-24 78-52l27 14C228-24 195 4 139 4 59 4 22-46 18-125c-6-104 99-153 187-111 19 9 31 26 39 46" id="H"/><use transform="matrix(0.06790123456790124,0,0,0.06790123456790124,0,0)" xlink:href="#H" id="c"/><path d="M98-208l-15 77h118l-8 40H76L58 0H6l48-248h174l-8 40H98" id="I"/><path d="M84-151c13-25 34-51 72-40l-8 41C67-170 71-64 56 0H6l36-190h47" id="J"/><path d="M124-194c51 0 84 22 84 74C207-44 167 4 94 4 43 4 11-23 11-74c0-74 41-120 113-120zM99-30c46 0 58-42 58-86 0-27-11-44-37-44-44 0-55 40-57 84-1 27 10 45 36 46" id="K"/><path d="M151-194c95 0 34 128 28 194h-49l25-134c0-29-45-25-59-9C67-111 69-48 56 0H6l36-190h47l-4 32c15-20 33-36 66-36" id="L"/><path d="M72-63c-8 23 5 39 32 30L98-1C54 14 12-6 23-64l18-93H15l7-33h28l24-45h31l-8 45h35l-6 33H90" id="M"/><g id="d"><use transform="matrix(0.0864197530864197,0,0,0.0864197530864197,0,0)" xlink:href="#I"/><use transform="matrix(0.0864197530864197,0,0,0.0864197530864197,18.925925925925917,0)" xlink:href="#J"/><use transform="matrix(0.0864197530864197,0,0,0.0864197530864197,31.024691358024675,0)" xlink:href="#K"/><use transform="matrix(0.0864197530864197,0,0,0.0864197530864197,49.95061728395059,0)" xlink:href="#L"/><use transform="matrix(0.0864197530864197,0,0,0.0864197530864197,68.8765432098765,0)" xlink:href="#M"/></g><path d="M161-211c-63 0-91 46-91 110 0 39 17 65 58 64 38-1 60-20 74-45l40 20C220-23 184 0 125 4 9 13-10-144 57-208c33-50 166-62 196-1 4 8 9 18 11 27l-48 12c-6-24-25-41-55-41" id="N"/><path d="M6 0l51-261h49L55 0H6" id="O"/><path d="M114-194c63-2 87 48 72 110H63c-3 28 1 55 31 54 21-1 32-13 37-29l44 13C160-14 137 4 91 4 41 4 11-22 11-73c0-71 33-119 103-121zm30 77c14-47-50-61-67-22-3 6-6 13-8 22h75" id="P"/><g id="e"><use transform="matrix(0.0864197530864197,0,0,0.0864197530864197,0,0)" xlink:href="#N"/><use transform="matrix(0.0864197530864197,0,0,0.0864197530864197,22.382716049382704,0)" xlink:href="#K"/><use transform="matrix(0.0864197530864197,0,0,0.0864197530864197,41.30864197530862,0)" xlink:href="#L"/><use transform="matrix(0.0864197530864197,0,0,0.0864197530864197,60.234567901234534,0)" xlink:href="#M"/><use transform="matrix(0.0864197530864197,0,0,0.0864197530864197,70.51851851851848,0)" xlink:href="#J"/><use transform="matrix(0.0864197530864197,0,0,0.0864197530864197,82.61728395061724,0)" xlink:href="#K"/><use transform="matrix(0.0864197530864197,0,0,0.0864197530864197,101.54320987654316,0)" xlink:href="#O"/><use transform="matrix(0.0864197530864197,0,0,0.0864197530864197,110.18518518518512,0)" xlink:href="#O"/><use transform="matrix(0.0864197530864197,0,0,0.0864197530864197,118.82716049382712,0)" xlink:href="#P"/><use transform="matrix(0.0864197530864197,0,0,0.0864197530864197,136.11111111111106,0)" xlink:href="#J"/></g><path d="M93-157L62 0H13l31-157H16l6-33h28c2-54 40-81 100-68l-6 32c-29-8-44 9-45 36h38l-7 33H93" id="Q"/><g id="f"><use transform="matrix(0.0864197530864197,0,0,0.0864197530864197,0,0)" xlink:href="#K"/><use transform="matrix(0.0864197530864197,0,0,0.0864197530864197,18.925925925925917,0)" xlink:href="#Q"/></g><path d="M241-173c-1 82-78 91-166 86L58 0H6l48-248c87 0 188-12 187 75zm-53 2c0-43-48-36-90-36l-15 80c50 0 105 7 105-44" id="R"/><path d="M6 0l48-248h195l-8 40H98l-12 63h132l-7 40H79L66-40h150l-8 40H6" id="S"/><path d="M183 0l-10-63H79L44 0H-7l138-248h61L234 0h-51zm-14-102l-15-108c-16 38-36 73-55 108h70" id="T"/><g id="g"><use transform="matrix(0.0864197530864197,0,0,0.0864197530864197,0,0)" xlink:href="#R"/><use transform="matrix(0.0864197530864197,0,0,0.0864197530864197,20.74074074074073,0)" xlink:href="#S"/><use transform="matrix(0.0864197530864197,0,0,0.0864197530864197,41.48148148148146,0)" xlink:href="#T"/><use transform="matrix(0.0864197530864197,0,0,0.0864197530864197,63.86419753086416,0)" xlink:href="#T"/></g><linearGradient gradientUnits="userSpaceOnUse" id="h" x1="500.1" y1="540" x2="500.1" y2="418.39"><stop offset="19.93%" stop-color="#fff"/><stop offset="27.17%" stop-color="#cfe4ff"/><stop offset="68.12%" stop-color="#cfe4ff"/><stop offset="75%" stop-color="#c3f7c8"/></linearGradient><path d="M205 0l-28-72H64L36 0H1l101-248h38L239 0h-34zm-38-99l-47-123c-12 45-31 82-46 123h93" id="U"/><use transform="matrix(0.06790123456790124,0,0,0.06790123456790124,0,0)" xlink:href="#U" id="i"/><path d="M63-220v92h138v28H63V0H30v-248h175v28H63" id="V"/><path d="M114-163C36-179 61-72 57 0H25l-1-190h30c1 12-1 29 2 39 6-27 23-49 58-41v29" id="W"/><path d="M100-194c62-1 85 37 85 99 1 63-27 99-86 99S16-35 15-95c0-66 28-99 85-99zM99-20c44 1 53-31 53-75 0-43-8-75-51-75s-53 32-53 75 10 74 51 75" id="X"/><path d="M117-194c89-4 53 116 60 194h-32v-121c0-31-8-49-39-48C34-167 62-67 57 0H25l-1-190h30c1 10-1 24 2 32 11-22 29-35 61-36" id="Y"/><path d="M59-47c-2 24 18 29 38 22v24C64 9 27 4 27-40v-127H5v-23h24l9-43h21v43h35v23H59v120" id="Z"/><g id="j"><use transform="matrix(0.06790123456790124,0,0,0.06790123456790124,0,0)" xlink:href="#V"/><use transform="matrix(0.06790123456790124,0,0,0.06790123456790124,14.870370370370372,0)" xlink:href="#W"/><use transform="matrix(0.06790123456790124,0,0,0.06790123456790124,22.95061728395062,0)" xlink:href="#X"/><use transform="matrix(0.06790123456790124,0,0,0.06790123456790124,36.53086419753087,0)" xlink:href="#Y"/><use transform="matrix(0.06790123456790124,0,0,0.06790123456790124,50.111111111111114,0)" xlink:href="#Z"/></g><path d="M24 0v-261h32V0H24" id="aa"/><g id="k"><use transform="matrix(0.06790123456790124,0,0,0.06790123456790124,0,0)" xlink:href="#H"/><use transform="matrix(0.06790123456790124,0,0,0.06790123456790124,17.58641975308642,0)" xlink:href="#X"/><use transform="matrix(0.06790123456790124,0,0,0.06790123456790124,31.16666666666667,0)" xlink:href="#Y"/><use transform="matrix(0.06790123456790124,0,0,0.06790123456790124,44.74691358024692,0)" xlink:href="#Z"/><use transform="matrix(0.06790123456790124,0,0,0.06790123456790124,51.537037037037045,0)" xlink:href="#W"/><use transform="matrix(0.06790123456790124,0,0,0.06790123456790124,59.61728395061729,0)" xlink:href="#X"/><use transform="matrix(0.06790123456790124,0,0,0.06790123456790124,73.19753086419755,0)" xlink:href="#aa"/><use transform="matrix(0.06790123456790124,0,0,0.06790123456790124,78.56172839506175,0)" xlink:href="#aa"/><use transform="matrix(0.06790123456790124,0,0,0.06790123456790124,83.92592592592595,0)" xlink:href="#G"/><use transform="matrix(0.06790123456790124,0,0,0.06790123456790124,97.5061728395062,0)" xlink:href="#W"/></g><linearGradient gradientUnits="userSpaceOnUse" id="l" x1="589.95" y1="541.64" x2="589.95" y2="420.03"><stop offset="19.93%" stop-color="#fff"/><stop offset="27.17%" stop-color="#cfe4ff"/><stop offset="68.12%" stop-color="#cfe4ff"/><stop offset="75%" stop-color="#c3f7c8"/></linearGradient><path d="M160-131c35 5 61 23 61 61C221 17 115-2 30 0v-248c76 3 177-17 177 60 0 33-19 50-47 57zm-97-11c50-1 110 9 110-42 0-47-63-36-110-37v79zm0 115c55-2 124 14 124-45 0-56-70-42-124-44v89" id="ab"/><use transform="matrix(0.06790123456790124,0,0,0.06790123456790124,0,0)" xlink:href="#ab" id="m"/><path d="M24-231v-30h32v30H24zM24 0v-190h32V0H24" id="ac"/><g id="n"><use transform="matrix(0.06790123456790124,0,0,0.06790123456790124,0,0)" xlink:href="#H"/><use transform="matrix(0.06790123456790124,0,0,0.06790123456790124,17.58641975308642,0)" xlink:href="#aa"/><use transform="matrix(0.06790123456790124,0,0,0.06790123456790124,22.95061728395062,0)" xlink:href="#ac"/><use transform="matrix(0.06790123456790124,0,0,0.06790123456790124,28.31481481481482,0)" xlink:href="#G"/><use transform="matrix(0.06790123456790124,0,0,0.06790123456790124,41.89506172839507,0)" xlink:href="#Y"/><use transform="matrix(0.06790123456790124,0,0,0.06790123456790124,55.47530864197532,0)" xlink:href="#Z"/></g><linearGradient gradientUnits="userSpaceOnUse" id="o" x1="945.99" y1="540" x2="945.99" y2="460"><stop offset="19.2%" stop-color="#ced4db"/><stop offset="26.45%" stop-color="#fff"/><stop offset="45.29%" stop-color="#fff"/><stop offset="52.54%" stop-color="#cfe4ff"/></linearGradient><use transform="matrix(0.06790123456790123,0,0,0.06790123456790123,0,0)" xlink:href="#ab" id="p"/><linearGradient gradientUnits="userSpaceOnUse" id="q" x1="1025.99" y1="540" x2="1025.99" y2="459.5"><stop offset="19.2%" stop-color="#ced4db"/><stop offset="26.45%" stop-color="#fff"/><stop offset="45.29%" stop-color="#fff"/><stop offset="52.54%" stop-color="#cfe4ff"/></linearGradient><use transform="matrix(0.06790123456790123,0,0,0.06790123456790123,0,0)" xlink:href="#H" id="r"/><linearGradient gradientUnits="userSpaceOnUse" id="s" x1="1105.99" y1="540" x2="1105.99" y2="459.5"><stop offset="19.2%" stop-color="#ced4db"/><stop offset="26.45%" stop-color="#fff"/><stop offset="45.29%" stop-color="#fff"/><stop offset="52.54%" stop-color="#cfe4ff"/></linearGradient><path d="M30-248c118-7 216 8 213 122C240-48 200 0 122 0H30v-248zM63-27c89 8 146-16 146-99s-60-101-146-95v194" id="ad"/><use transform="matrix(0.06790123456790123,0,0,0.06790123456790123,0,0)" xlink:href="#ad" id="t"/><g id="u"><use transform="matrix(0.06790123456790123,0,0,0.06790123456790123,0,0)" xlink:href="#H"/><use transform="matrix(0.06790123456790123,0,0,0.06790123456790123,17.586419753086417,0)" xlink:href="#aa"/><use transform="matrix(0.06790123456790123,0,0,0.06790123456790123,22.950617283950614,0)" xlink:href="#ac"/><use transform="matrix(0.06790123456790123,0,0,0.06790123456790123,28.31481481481481,0)" xlink:href="#G"/><use transform="matrix(0.06790123456790123,0,0,0.06790123456790123,41.895061728395056,0)" xlink:href="#Y"/><use transform="matrix(0.06790123456790123,0,0,0.06790123456790123,55.4753086419753,0)" xlink:href="#Z"/></g><linearGradient gradientUnits="userSpaceOnUse" id="v" x1="845.99" y1="479.5" x2="845.99" y2="359.5"><stop offset="29.71%" stop-color="#ced4db"/><stop offset="37.68%" stop-color="#fff"/><stop offset="53.26%" stop-color="#fff"/><stop offset="61.23%" stop-color="#cfe4ff"/><stop offset="76.81%" stop-color="#cfe4ff"/><stop offset="85.14%" stop-color="#c3f7c8"/></linearGradient><g id="w"><use transform="matrix(0.06790123456790123,0,0,0.06790123456790123,0,0)" xlink:href="#V"/><use transform="matrix(0.06790123456790123,0,0,0.06790123456790123,14.87037037037037,0)" xlink:href="#W"/><use transform="matrix(0.06790123456790123,0,0,0.06790123456790123,22.950617283950617,0)" xlink:href="#X"/><use transform="matrix(0.06790123456790123,0,0,0.06790123456790123,36.53086419753086,0)" xlink:href="#Y"/><use transform="matrix(0.06790123456790123,0,0,0.06790123456790123,50.11111111111111,0)" xlink:href="#Z"/></g><g id="x"><use transform="matrix(0.06790123456790123,0,0,0.06790123456790123,0,0)" xlink:href="#H"/><use transform="matrix(0.06790123456790123,0,0,0.06790123456790123,17.586419753086417,0)" xlink:href="#X"/><use transform="matrix(0.06790123456790123,0,0,0.06790123456790123,31.166666666666664,0)" xlink:href="#Y"/><use transform="matrix(0.06790123456790123,0,0,0.06790123456790123,44.74691358024691,0)" xlink:href="#Z"/><use transform="matrix(0.06790123456790123,0,0,0.06790123456790123,51.537037037037045,0)" xlink:href="#W"/><use transform="matrix(0.06790123456790123,0,0,0.06790123456790123,59.617283950617285,0)" xlink:href="#X"/><use transform="matrix(0.06790123456790123,0,0,0.06790123456790123,73.19753086419753,0)" xlink:href="#aa"/><use transform="matrix(0.06790123456790123,0,0,0.06790123456790123,78.56172839506173,0)" xlink:href="#aa"/><use transform="matrix(0.06790123456790123,0,0,0.06790123456790123,83.92592592592594,0)" xlink:href="#G"/><use transform="matrix(0.06790123456790123,0,0,0.06790123456790123,97.50617283950618,0)" xlink:href="#W"/></g><path d="M185-48c-13 30-37 53-82 52C43 2 14-33 14-96s30-98 90-98c62 0 83 45 84 108H66c0 31 8 55 39 56 18 0 30-7 34-22zm-45-69c5-46-57-63-70-21-2 6-4 13-4 21h74" id="ae"/><path d="M144 0l-44-69L55 0H2l70-98-66-92h53l41 62 40-62h54l-67 91 71 99h-54" id="af"/><path d="M190-63c-7 42-38 67-86 67-59 0-84-38-90-98-12-110 154-137 174-36l-49 2c-2-19-15-32-35-32-30 0-35 28-38 64-6 74 65 87 74 30" id="ag"/><path d="M85 4C-2 5 27-109 22-190h50c7 57-23 150 33 157 60-5 35-97 40-157h50l1 190h-47c-2-12 1-28-3-38-12 25-28 42-61 42" id="ah"/><path d="M115-3C79 11 28 4 28-45v-112H4v-33h27l15-45h31v45h36v33H77v99c-1 23 16 31 38 25v30" id="ai"/><g id="y"><use transform="matrix(0.0493827160493827,0,0,0.0493827160493827,0,0)" xlink:href="#ae"/><use transform="matrix(0.0493827160493827,0,0,0.0493827160493827,9.876543209876539,0)" xlink:href="#af"/><use transform="matrix(0.0493827160493827,0,0,0.0493827160493827,19.753086419753078,0)" xlink:href="#ae"/><use transform="matrix(0.0493827160493827,0,0,0.0493827160493827,29.62962962962962,0)" xlink:href="#ag"/><use transform="matrix(0.0493827160493827,0,0,0.0493827160493827,39.506172839506156,0)" xlink:href="#ah"/><use transform="matrix(0.0493827160493827,0,0,0.0493827160493827,50.320987654320966,0)" xlink:href="#ai"/><use transform="matrix(0.0493827160493827,0,0,0.0493827160493827,56.1975308641975,0)" xlink:href="#ae"/></g><path d="M195-6C206 82 75 100 31 46c-4-6-6-13-8-21l49-6c3 16 16 24 34 25 40 0 42-37 40-79-11 22-30 35-61 35-53 0-70-43-70-97 0-56 18-96 73-97 30 0 46 14 59 34l2-30h47zm-90-29c32 0 41-27 41-63 0-35-9-62-40-62-32 0-39 29-40 63 0 36 9 62 39 62" id="aj"/><g id="z"><use transform="matrix(0.0493827160493827,0,0,0.0493827160493827,0,0)" xlink:href="#aj"/><use transform="matrix(0.0493827160493827,0,0,0.0493827160493827,10.814814814814811,0)" xlink:href="#ae"/><use transform="matrix(0.0493827160493827,0,0,0.0493827160493827,20.69135802469135,0)" xlink:href="#ai"/></g><path d="M137-138c1-29-70-34-71-4 15 46 118 7 119 86 1 83-164 76-172 9l43-7c4 19 20 25 44 25 33 8 57-30 24-41C81-84 22-81 20-136c-2-80 154-74 161-7" id="ak"/><path d="M133-34C117-15 103 5 69 4 32 3 11-16 11-54c-1-60 55-63 116-61 1-26-3-47-28-47-18 1-26 9-28 27l-52-2c7-38 36-58 82-57s74 22 75 68l1 82c-1 14 12 18 25 15v27c-30 8-71 5-69-32zm-48 3c29 0 43-24 42-57-32 0-66-3-65 30 0 17 8 27 23 27" id="al"/><g id="A"><use transform="matrix(0.0493827160493827,0,0,0.0493827160493827,0,0)" xlink:href="#ak"/><use transform="matrix(0.0493827160493827,0,0,0.0493827160493827,9.876543209876539,0)" xlink:href="#ai"/><use transform="matrix(0.0493827160493827,0,0,0.0493827160493827,15.753086419753082,0)" xlink:href="#al"/><use transform="matrix(0.0493827160493827,0,0,0.0493827160493827,25.629629629629623,0)" xlink:href="#ai"/><use transform="matrix(0.0493827160493827,0,0,0.0493827160493827,31.506172839506164,0)" xlink:href="#ah"/><use transform="matrix(0.0493827160493827,0,0,0.0493827160493827,42.32098765432097,0)" xlink:href="#ak"/></g><path d="M135-194c87-1 58 113 63 194h-50c-7-57 23-157-34-157-59 0-34 97-39 157H25l-1-190h47c2 12-1 28 3 38 12-26 28-41 61-42" id="am"/><path d="M110-194c64 0 96 36 96 99 0 64-35 99-97 99-61 0-95-36-95-99 0-62 34-99 96-99zm-1 164c35 0 45-28 45-65 0-40-10-65-43-65-34 0-45 26-45 65 0 36 10 65 43 65" id="an"/><path d="M25-224v-37h50v37H25zM25 0v-190h50V0H25" id="ao"/><path d="M121-226c-27-7-43 5-38 36h38v33H83V0H34v-157H6v-33h28c-9-59 32-81 87-68v32" id="ap"/><path d="M123 10C108 53 80 86 19 72V37c35 8 53-11 59-39L3-190h52l48 148c12-52 28-100 44-148h51" id="aq"/><g id="B"><use transform="matrix(0.0493827160493827,0,0,0.0493827160493827,0,0)" xlink:href="#am"/><use transform="matrix(0.0493827160493827,0,0,0.0493827160493827,10.814814814814811,0)" xlink:href="#an"/><use transform="matrix(0.0493827160493827,0,0,0.0493827160493827,21.629629629629623,0)" xlink:href="#ai"/><use transform="matrix(0.0493827160493827,0,0,0.0493827160493827,27.506172839506164,0)" xlink:href="#ao"/><use transform="matrix(0.0493827160493827,0,0,0.0493827160493827,32.444444444444436,0)" xlink:href="#ap"/><use transform="matrix(0.0493827160493827,0,0,0.0493827160493827,38.32098765432097,0)" xlink:href="#aq"/></g><path d="M178-136c88 48 22 151-73 140C49-3 12-15 4-64l51-9c1 50 111 53 115 3-16-63-132-20-133-112 0-93 190-91 199-10l-50 12c-4-41-93-50-97-4 7 38 59 32 89 48" id="ar"/><path d="M168 0l21-106H79L58 0H6l48-248h52l-19 99h110l19-99h50L218 0h-50" id="as"/><g id="C"><use transform="matrix(0.0864197530864197,0,0,0.0864197530864197,0,0)" xlink:href="#ar"/><use transform="matrix(0.0864197530864197,0,0,0.0864197530864197,20.74074074074073,0)" xlink:href="#T"/><use transform="matrix(0.0864197530864197,0,0,0.0864197530864197,43.123456790123434,0)" xlink:href="#as"/><use transform="matrix(0.0864197530864197,0,0,0.0864197530864197,65.50617283950614,0)" xlink:href="#R"/></g></defs></g></svg>