<svg xmlns="http://www.w3.org/2000/svg" xmlns:xlink="http://www.w3.org/1999/xlink" xmlns:lucid="lucid" width="843" height="343"><g transform="translate(-118.5 -578.5)" lucid:page-tab-id="0_0"><path d="M620 780v-17.5" stroke="#008573" stroke-width="2" fill="none"/><path d="M620 795.26L615.37 781h9.26z" stroke="#008573" stroke-width="2" fill="#008573"/><path d="M620.98 762.53H619v-1.03H621z" stroke="#008573" stroke-width=".05" fill="#008573"/><path d="M400 680a20 20 0 0 1 20-20h240a20 20 0 0 1 20 20v60a20 20 0 0 1-20 20H420a20 20 0 0 1-20-20z" stroke="#000" stroke-width="3" fill="url(#a)"/><use xlink:href="#b" transform="matrix(1,0,0,1,405,665) translate(87.46913580246913 49.78993055555556)"/><path d="M400 600a20 20 0 0 1 20-20h240a20 20 0 0 1 20 20 20 20 0 0 1-20 20H420a20 20 0 0 1-20-20z" stroke="#000" stroke-width="3" fill="url(#c)"/><use xlink:href="#d" transform="matrix(1,0,0,1,405,585) translate(58.378456790123444 20.024305555555557)"/><use xlink:href="#e" transform="matrix(1,0,0,1,405,585) translate(116.6377160493827 20.024305555555557)"/><path d="M460 780v-17.5" stroke="#cc4e00" stroke-width="2" fill="none"/><path d="M460 795.26L455.37 781h9.26z" stroke="#cc4e00" stroke-width="2" fill="#cc4e00"/><path d="M460.98 762.53h-1.96v-1.03h1.96z" stroke="#cc4e00" stroke-width=".05" fill="#cc4e00"/><path d="M460 641.5v-19" stroke="#cc4e00" stroke-width="2" fill="none"/><path d="M460 656.76l-4.63-14.26h9.26z" stroke="#cc4e00" stroke-width="2" fill="#cc4e00"/><path d="M460.98 622.53h-1.96v-1.03h1.96z" stroke="#cc4e00" stroke-width=".05" fill="#cc4e00"/><path d="M120 706a6 6 0 0 1 6-6h188a6 6 0 0 1 6 6v88a6 6 0 0 1-6 6H126a6 6 0 0 1-6-6z" fill="none"/><use xlink:href="#f" transform="matrix(1,0,0,1,125,705) translate(9.481481481481467 21.684895833333336)"/><use xlink:href="#g" transform="matrix(1,0,0,1,125,705) translate(78.37037037037037 21.684895833333336)"/><use xlink:href="#h" transform="matrix(1,0,0,1,125,705) translate(5.925925925925924 53.684895833333336)"/><use xlink:href="#i" transform="matrix(1,0,0,1,125,705) translate(42.96296296296296 53.684895833333336)"/><use xlink:href="#j" transform="matrix(1,0,0,1,125,705) translate(72.5925925925926 53.684895833333336)"/><use xlink:href="#k" transform="matrix(1,0,0,1,125,705) translate(117.03703703703704 53.684895833333336)"/><use xlink:href="#l" transform="matrix(1,0,0,1,125,705) translate(25.370370370370367 85.68489583333334)"/><use xlink:href="#m" transform="matrix(1,0,0,1,125,705) translate(142.40740740740742 85.68489583333334)"/><path d="M320.98 750.2l2.96.6m3.94.8l5.92 1.2m3.94.8l5.92 1.2m3.94.8l5.92 1.2m3.94.8l5.92 1.2m3.94.8l5.92 1.2m3.94.8l5.92 1.2m3.94.8l5.92 1.2m3.94.8l5.92 1.2m3.94.8l5.92 1.2m3.94.8l5.92 1.2m3.94.8l5.92 1.2m3.94.8l5.92 1.2m3.94.8l5.92 1.2m3.94.8l2.96.6" stroke="#000" stroke-width="2" fill="none"/><path d="M321.2 749.25l-.4 1.9-.8-.15v-2z" stroke="#000" stroke-width=".05" fill="#000"/><path d="M459 778.2l1 .2" stroke="#000" stroke-width="2" fill="none"/><path d="M620 641.5v-19" stroke="#008573" stroke-width="2" fill="none"/><path d="M620 656.76l-4.63-14.26h9.26z" stroke="#008573" stroke-width="2" fill="#008573"/><path d="M620.98 622.53H619v-1.03H621z" stroke="#008573" stroke-width=".05" fill="#008573"/><path d="M400 820a20 20 0 0 1 20-20h80a20 20 0 0 1 20 20 20 20 0 0 1-20 20h-80a20 20 0 0 1-20-20z" stroke="#000" stroke-width="3" fill="#ced4db"/><use xlink:href="#n" transform="matrix(1,0,0,1,405,805) translate(3.9432716049382623 20.024305555555557)"/><use xlink:href="#o" transform="matrix(1,0,0,1,405,805) translate(72.18401234567901 20.024305555555557)"/><path d="M760 626a6 6 0 0 1 6-6h188a6 6 0 0 1 6 6v148a6 6 0 0 1-6 6H766a6 6 0 0 1-6-6z" fill="none"/><use xlink:href="#p" transform="matrix(1,0,0,1,765,625) translate(24.851851851851848 21.626302083333336)"/><use xlink:href="#q" transform="matrix(1,0,0,1,765,625) translate(13.592592592592581 53.626302083333336)"/><use xlink:href="#g" transform="matrix(1,0,0,1,765,625) translate(74.25925925925925 53.626302083333336)"/><use xlink:href="#r" transform="matrix(1,0,0,1,765,625) translate(1.8148148148148096 85.62630208333334)"/><use xlink:href="#s" transform="matrix(1,0,0,1,765,625) translate(47.66666666666667 85.62630208333334)"/><use xlink:href="#t" transform="matrix(1,0,0,1,765,625) translate(135 85.62630208333334)"/><use xlink:href="#j" transform="matrix(1,0,0,1,765,625) translate(37.48148148148148 117.62630208333334)"/><use xlink:href="#u" transform="matrix(1,0,0,1,765,625) translate(81.92592592592592 117.62630208333334)"/><use xlink:href="#v" transform="matrix(1,0,0,1,765,625) translate(40.185185185185176 149.62630208333334)"/><path d="M620.97 779.77l2.96-.7m3.95-.92l5.9-1.38m3.96-.93l5.9-1.38m3.96-.93l5.9-1.38m3.96-.93l5.92-1.38m3.94-.93l5.92-1.37m3.94-.93l5.92-1.38m3.94-.93l5.92-1.4m3.94-.92l5.92-1.38m3.94-.93l5.92-1.38m3.94-.94l5.92-1.38m3.95-.93l5.9-1.38m3.95-.93l5.9-1.38m3.96-.93l5.92-1.38m3.95-.93l2.96-.7M621 779.77l-1 .23" stroke="#000" stroke-width="2" fill="none"/><path d="M760 748.2l-.78.18-.44-1.9 1.22-.28z" stroke="#000" stroke-width=".05" fill="#000"/><path d="M560 820a20 20 0 0 1 20-20h80a20 20 0 0 1 20 20 20 20 0 0 1-20 20h-80a20 20 0 0 1-20-20z" stroke="#000" stroke-width="3" fill="#ced4db"/><use xlink:href="#w" transform="matrix(1,0,0,1,565,805) translate(2.313641975308636 20.024305555555557)"/><use xlink:href="#o" transform="matrix(1,0,0,1,565,805) translate(73.81364197530864 20.024305555555557)"/><path d="M521.5 818a1 1 0 0 1 1-1 1 1 0 0 1 1 1 1 1 0 0 1-1 1 1 1 0 0 1-1-1m4 0a1 1 0 0 1 1-1 1 1 0 0 1 1 1 1 1 0 0 1-1 1 1 1 0 0 1-1-1m4 0a1 1 0 0 1 1-1 1 1 0 0 1 1 1 1 1 0 0 1-1 1 1 1 0 0 1-1-1m4 0a1 1 0 0 1 1-1 1 1 0 0 1 1 1 1 1 0 0 1-1 1 1 1 0 0 1-1-1m4 0a1 1 0 0 1 1-1 1 1 0 0 1 1 1 1 1 0 0 1-1 1 1 1 0 0 1-1-1m4 0a1 1 0 0 1 1-1 1 1 0 0 1 1 1 1 1 0 0 1-1 1 1 1 0 0 1-1-1M521.5 822a1 1 0 0 1 1-1 1 1 0 0 1 1 1 1 1 0 0 1-1 1 1 1 0 0 1-1-1m4 0a1 1 0 0 1 1-1 1 1 0 0 1 1 1 1 1 0 0 1-1 1 1 1 0 0 1-1-1m4 0a1 1 0 0 1 1-1 1 1 0 0 1 1 1 1 1 0 0 1-1 1 1 1 0 0 1-1-1m4 0a1 1 0 0 1 1-1 1 1 0 0 1 1 1 1 1 0 0 1-1 1 1 1 0 0 1-1-1m4 0a1 1 0 0 1 1-1 1 1 0 0 1 1 1 1 1 0 0 1-1 1 1 1 0 0 1-1-1m4 0a1 1 0 0 1 1-1 1 1 0 0 1 1 1 1 1 0 0 1-1 1 1 1 0 0 1-1-1" fill="#cc4e00"/><path d="M522.53 818.98h-1.1l-.16-1.96h1.26zM522.53 822.98h-1.26l.15-1.96h1.1z" stroke="#cc4e00" stroke-width=".05" fill="#cc4e00"/><path d="M556.5 820l-13 7.5v-15z" stroke="#cc4e00" stroke-width="2" fill="#fff"/><path d="M458.5 660a1.5 1.5 0 0 1 1.5-1.5 1.5 1.5 0 0 1 1.5 1.5 1.5 1.5 0 0 1-1.5 1.5 1.5 1.5 0 0 1-1.5-1.5m0 6.12a1.5 1.5 0 0 1 1.5-1.5 1.5 1.5 0 0 1 1.5 1.5 1.5 1.5 0 0 1-1.5 1.5 1.5 1.5 0 0 1-1.5-1.5v-.03m0 6.13v-.02a1.5 1.5 0 0 1 1.5-1.5 1.5 1.5 0 0 1 1.5 1.5 1.5 1.5 0 0 1-1.5 1.5 1.5 1.5 0 0 1-1.5-1.5m0 6.13a1.5 1.5 0 0 1 1.5-1.5 1.5 1.5 0 0 1 1.5 1.5 1.5 1.5 0 0 1-1.5 1.5 1.5 1.5 0 0 1-1.5-1.5v-.03m0 6.14v-.02a1.5 1.5 0 0 1 1.5-1.5 1.5 1.5 0 0 1 1.5 1.5 1.5 1.5 0 0 1-1.5 1.5 1.5 1.5 0 0 1-1.5-1.5m0 6.13v-.02a1.5 1.5 0 0 1 1.5-1.5 1.5 1.5 0 0 1 1.5 1.5 1.5 1.5 0 0 1-1.5 1.5 1.5 1.5 0 0 1-1.5-1.5m0 6.12a1.5 1.5 0 0 1 1.5-1.5 1.5 1.5 0 0 1 1.5 1.5 1.5 1.5 0 0 1-1.5 1.5 1.5 1.5 0 0 1-1.5-1.5v-.03m0 6.14v-.02a1.5 1.5 0 0 1 1.5-1.5 1.5 1.5 0 0 1 1.5 1.5 1.5 1.5 0 0 1-1.5 1.5 1.5 1.5 0 0 1-1.5-1.5m0 6.12a1.5 1.5 0 0 1 1.5-1.5 1.5 1.5 0 0 1 1.5 1.5 1.5 1.5 0 0 1-1.5 1.5 1.5 1.5 0 0 1-1.5-1.5v-.03m0 6.14a1.5 1.5 0 0 1 1.5-1.5 1.5 1.5 0 0 1 1.5 1.5 1.5 1.5 0 0 1-1.5 1.5 1.5 1.5 0 0 1-1.5-1.5v-.03m0 6.14v-.02a1.5 1.5 0 0 1 1.5-1.5 1.5 1.5 0 0 1 1.5 1.5 1.5 1.5 0 0 1-1.5 1.5 1.5 1.5 0 0 1-1.5-1.5m0 6.12a1.5 1.5 0 0 1 1.5-1.5 1.5 1.5 0 0 1 1.5 1.5 1.5 1.5 0 0 1-1.5 1.5 1.5 1.5 0 0 1-1.5-1.5v-.03m0 6.14v-.03a1.5 1.5 0 0 1 1.5-1.5 1.5 1.5 0 0 1 1.5 1.5 1.5 1.5 0 0 1-1.5 1.5 1.5 1.5 0 0 1-1.5-1.5" fill="#cc4e00"/><path d="M461.48 660.04h-2.96v-1.54h2.96z" stroke="#cc4e00" stroke-width=".05" fill="#cc4e00"/><path d="M460 755.15l-4.63-14.27h9.26z" stroke="#cc4e00" stroke-width="3" fill="#fff"/><path d="M459.93 800.48v-.02a1.5 1.5 0 0 1 1.5-1.5 1.5 1.5 0 0 1 1.5 1.5 1.5 1.5 0 0 1-1.5 1.5 1.5 1.5 0 0 1-1.5-1.5m5.78 1.9v-.02a1.5 1.5 0 0 1 1.5-1.5 1.5 1.5 0 0 1 1.5 1.5 1.5 1.5 0 0 1-1.5 1.5 1.5 1.5 0 0 1-1.5-1.5m5.8 1.9v-.02a1.5 1.5 0 0 1 1.5-1.5 1.5 1.5 0 0 1 1.5 1.5 1.5 1.5 0 0 1-1.5 1.5 1.5 1.5 0 0 1-1.5-1.5m5.77 1.9v-.02a1.5 1.5 0 0 1 1.5-1.5 1.5 1.5 0 0 1 1.5 1.5 1.5 1.5 0 0 1-1.5 1.5 1.5 1.5 0 0 1-1.5-1.5m5.78 1.9v-.02a1.5 1.5 0 0 1 1.5-1.5 1.5 1.5 0 0 1 1.5 1.5 1.5 1.5 0 0 1-1.5 1.5 1.5 1.5 0 0 1-1.5-1.5m5.78 1.9v-.02a1.5 1.5 0 0 1 1.5-1.5 1.5 1.5 0 0 1 1.5 1.5 1.5 1.5 0 0 1-1.5 1.5 1.5 1.5 0 0 1-1.5-1.5m5.78 1.9v-.02a1.5 1.5 0 0 1 1.5-1.5 1.5 1.5 0 0 1 1.5 1.5 1.5 1.5 0 0 1-1.5 1.5 1.5 1.5 0 0 1-1.5-1.5" fill="#cc4e00"/><path d="M461.46 800.48L460 800" stroke="#cc4e00" stroke-width="3" fill="none"/><path d="M516.9 818.5h-15l2.86-8.82z" stroke="#cc4e00" stroke-width="3" fill="#fff"/><path d="M618.5 660a1.5 1.5 0 0 1 1.5-1.5 1.5 1.5 0 0 1 1.5 1.5 1.5 1.5 0 0 1-1.5 1.5 1.5 1.5 0 0 1-1.5-1.5m0 6.24v-.02a1.5 1.5 0 0 1 1.5-1.5 1.5 1.5 0 0 1 1.5 1.5 1.5 1.5 0 0 1-1.5 1.5 1.5 1.5 0 0 1-1.5-1.5m0 6.24v-.02a1.5 1.5 0 0 1 1.5-1.5 1.5 1.5 0 0 1 1.5 1.5 1.5 1.5 0 0 1-1.5 1.5 1.5 1.5 0 0 1-1.5-1.5m0 6.24a1.5 1.5 0 0 1 1.5-1.5 1.5 1.5 0 0 1 1.5 1.5 1.5 1.5 0 0 1-1.5 1.5 1.5 1.5 0 0 1-1.5-1.5v-.03m0 6.25a1.5 1.5 0 0 1 1.5-1.5 1.5 1.5 0 0 1 1.5 1.5 1.5 1.5 0 0 1-1.5 1.5 1.5 1.5 0 0 1-1.5-1.5v-.03m0 6.25a1.5 1.5 0 0 1 1.5-1.5 1.5 1.5 0 0 1 1.5 1.5 1.5 1.5 0 0 1-1.5 1.5 1.5 1.5 0 0 1-1.5-1.5v-.03m0 6.24a1.5 1.5 0 0 1 1.5-1.5 1.5 1.5 0 0 1 1.5 1.5 1.5 1.5 0 0 1-1.5 1.5 1.5 1.5 0 0 1-1.5-1.5v-.03m0 6.27v-.02a1.5 1.5 0 0 1 1.5-1.5 1.5 1.5 0 0 1 1.5 1.5 1.5 1.5 0 0 1-1.5 1.5 1.5 1.5 0 0 1-1.5-1.5m0 6.24v-.03a1.5 1.5 0 0 1 1.5-1.5 1.5 1.5 0 0 1 1.5 1.5 1.5 1.5 0 0 1-1.5 1.5 1.5 1.5 0 0 1-1.5-1.5m0 6.24a1.5 1.5 0 0 1 1.5-1.5 1.5 1.5 0 0 1 1.5 1.5 1.5 1.5 0 0 1-1.5 1.5 1.5 1.5 0 0 1-1.5-1.5v-.02m0 6.25a1.5 1.5 0 0 1 1.5-1.5 1.5 1.5 0 0 1 1.5 1.5 1.5 1.5 0 0 1-1.5 1.5 1.5 1.5 0 0 1-1.5-1.5v-.03m0 6.25a1.5 1.5 0 0 1 1.5-1.5 1.5 1.5 0 0 1 1.5 1.5 1.5 1.5 0 0 1-1.5 1.5 1.5 1.5 0 0 1-1.5-1.5v-.03m0 6.25a1.5 1.5 0 0 1 1.5-1.5 1.5 1.5 0 0 1 1.5 1.5 1.5 1.5 0 0 1-1.5 1.5 1.5 1.5 0 0 1-1.5-1.5v-.03" fill="#008573"/><path d="M621.48 660.04h-2.96v-1.54h2.96z" stroke="#008573" stroke-width=".05" fill="#008573"/><path d="M620 756.65l-4.63-14.27h9.26z" stroke="#008573" stroke-width="3" fill="#fff"/><path d="M280 886a6 6 0 0 1 6-6h508a6 6 0 0 1 6 6v28a6 6 0 0 1-6 6H286a6 6 0 0 1-6-6z" fill="none"/><g><use xlink:href="#x" transform="matrix(1,0,0,1,285,885) translate(1.2962962962962479 21.802083333333336)"/><use xlink:href="#y" transform="matrix(1,0,0,1,285,885) translate(30.92592592592588 21.802083333333336)"/><use xlink:href="#z" transform="matrix(1,0,0,1,285,885) translate(82.77777777777774 21.802083333333336)"/><use xlink:href="#A" transform="matrix(1,0,0,1,285,885) translate(128.62962962962962 21.802083333333336)"/><use xlink:href="#B" transform="matrix(1,0,0,1,285,885) translate(246.99999999999997 21.802083333333336)"/><use xlink:href="#C" transform="matrix(1,0,0,1,285,885) translate(276.6296296296296 21.802083333333336)"/><use xlink:href="#D" transform="matrix(1,0,0,1,285,885) translate(321.0740740740741 21.802083333333336)"/><use xlink:href="#E" transform="matrix(1,0,0,1,285,885) translate(399.0740740740741 21.802083333333336)"/></g><path d="M540 879v-2.9m0-3.87v-5.8m0-3.86v-5.8m0-3.87v-5.8m0-3.87v-5.8m0-3.86v-5.8m0-3.87V821" stroke="#000" stroke-width="2" fill="none"/><path d="M540.98 880H539v-1.03H541z" stroke="#000" stroke-width=".05" fill="#000"/><path d="M540 821.03V820" stroke="#000" stroke-width="2" fill="none"/><defs><linearGradient gradientUnits="userSpaceOnUse" id="a" x1="400" y1="760" x2="400" y2="660"><stop offset="19.93%" stop-color="#fff"/><stop offset="27.17%" stop-color="#cfe4ff"/><stop offset="73.91%" stop-color="#cfe4ff"/><stop offset="90.94%" stop-color="#c3f7c8"/></linearGradient><path d="M160-131c35 5 61 23 61 61C221 17 115-2 30 0v-248c76 3 177-17 177 60 0 33-19 50-47 57zm-97-11c50-1 110 9 110-42 0-47-63-36-110-37v79zm0 115c55-2 124 14 124-45 0-56-70-42-124-44v89" id="F"/><path d="M141-36C126-15 110 5 73 4 37 3 15-17 15-53c-1-64 63-63 125-63 3-35-9-54-41-54-24 1-41 7-42 31l-33-3c5-37 33-52 76-52 45 0 72 20 72 64v82c-1 20 7 32 28 27v20c-31 9-61-2-59-35zM48-53c0 20 12 33 32 33 41-3 63-29 60-74-43 2-92-5-92 41" id="G"/><path d="M96-169c-40 0-48 33-48 73s9 75 48 75c24 0 41-14 43-38l32 2c-6 37-31 61-74 61-59 0-76-41-82-99-10-93 101-131 147-64 4 7 5 14 7 22l-32 3c-4-21-16-35-41-35" id="H"/><path d="M143 0L79-87 56-68V0H24v-261h32v163l83-92h37l-77 82L181 0h-38" id="I"/><path d="M100-194c63 0 86 42 84 106H49c0 40 14 67 53 68 26 1 43-12 49-29l28 8c-11 28-37 45-77 45C44 4 14-33 15-96c1-61 26-98 85-98zm52 81c6-60-76-77-97-28-3 7-6 17-6 28h103" id="J"/><path d="M117-194c89-4 53 116 60 194h-32v-121c0-31-8-49-39-48C34-167 62-67 57 0H25l-1-190h30c1 10-1 24 2 32 11-22 29-35 61-36" id="K"/><path d="M85-194c31 0 48 13 60 33l-1-100h32l1 261h-30c-2-10 0-23-3-31C134-8 116 4 85 4 32 4 16-35 15-94c0-66 23-100 70-100zm9 24c-40 0-46 34-46 75 0 40 6 74 45 74 42 0 51-32 51-76 0-42-9-74-50-73" id="L"/><g id="b"><use transform="matrix(0.06790123456790124,0,0,0.06790123456790124,0,0)" xlink:href="#F"/><use transform="matrix(0.06790123456790124,0,0,0.06790123456790124,16.296296296296298,0)" xlink:href="#G"/><use transform="matrix(0.06790123456790124,0,0,0.06790123456790124,29.876543209876544,0)" xlink:href="#H"/><use transform="matrix(0.06790123456790124,0,0,0.06790123456790124,42.098765432098766,0)" xlink:href="#I"/><use transform="matrix(0.06790123456790124,0,0,0.06790123456790124,54.32098765432099,0)" xlink:href="#J"/><use transform="matrix(0.06790123456790124,0,0,0.06790123456790124,67.90123456790124,0)" xlink:href="#K"/><use transform="matrix(0.06790123456790124,0,0,0.06790123456790124,81.4814814814815,0)" xlink:href="#L"/></g><linearGradient gradientUnits="userSpaceOnUse" id="c" x1="400" y1="580" x2="400" y2="620"><stop offset="53.99%" stop-color="#fff"/><stop offset="82.97%" stop-color="#c3f7c8"/></linearGradient><path d="M232-93c-1 65-40 97-104 97C67 4 28-28 28-90v-158h33c8 89-33 224 67 224 102 0 64-133 71-224h33v155" id="M"/><path d="M135-143c-3-34-86-38-87 0 15 53 115 12 119 90S17 21 10-45l28-5c4 36 97 45 98 0-10-56-113-15-118-90-4-57 82-63 122-42 12 7 21 19 24 35" id="N"/><path d="M114-163C36-179 61-72 57 0H25l-1-190h30c1 12-1 29 2 39 6-27 23-49 58-41v29" id="O"/><g id="d"><use transform="matrix(0.06790123456790124,0,0,0.06790123456790124,0,0)" xlink:href="#M"/><use transform="matrix(0.06790123456790124,0,0,0.06790123456790124,17.58641975308642,0)" xlink:href="#N"/><use transform="matrix(0.06790123456790124,0,0,0.06790123456790124,29.808641975308646,0)" xlink:href="#J"/><use transform="matrix(0.06790123456790124,0,0,0.06790123456790124,43.38888888888889,0)" xlink:href="#O"/></g><path d="M33 0v-248h34V0H33" id="P"/><path d="M59-47c-2 24 18 29 38 22v24C64 9 27 4 27-40v-127H5v-23h24l9-43h21v43h35v23H59v120" id="Q"/><path d="M101-234c-31-9-42 10-38 44h38v23H63V0H32v-167H5v-23h27c-7-52 17-82 69-68v24" id="R"/><g id="e"><use transform="matrix(0.06790123456790124,0,0,0.06790123456790124,0,0)" xlink:href="#P"/><use transform="matrix(0.06790123456790124,0,0,0.06790123456790124,6.790123456790124,0)" xlink:href="#K"/><use transform="matrix(0.06790123456790124,0,0,0.06790123456790124,20.370370370370374,0)" xlink:href="#Q"/><use transform="matrix(0.06790123456790124,0,0,0.06790123456790124,27.160493827160497,0)" xlink:href="#J"/><use transform="matrix(0.06790123456790124,0,0,0.06790123456790124,40.74074074074075,0)" xlink:href="#O"/><use transform="matrix(0.06790123456790124,0,0,0.06790123456790124,48.820987654320994,0)" xlink:href="#R"/><use transform="matrix(0.06790123456790124,0,0,0.06790123456790124,55.61111111111112,0)" xlink:href="#G"/><use transform="matrix(0.06790123456790124,0,0,0.06790123456790124,69.19135802469137,0)" xlink:href="#H"/><use transform="matrix(0.06790123456790124,0,0,0.06790123456790124,81.4135802469136,0)" xlink:href="#J"/></g><path d="M266 0h-40l-56-210L115 0H75L2-248h35L96-30l15-64 43-154h32l59 218 59-218h35" id="S"/><path d="M24-231v-30h32v30H24zM24 0v-190h32V0H24" id="T"/><g id="f"><use transform="matrix(0.07407407407407408,0,0,0.07407407407407408,0,0)" xlink:href="#S"/><use transform="matrix(0.07407407407407408,0,0,0.07407407407407408,24.592592592592595,0)" xlink:href="#O"/><use transform="matrix(0.07407407407407408,0,0,0.07407407407407408,33.40740740740741,0)" xlink:href="#T"/><use transform="matrix(0.07407407407407408,0,0,0.07407407407407408,39.25925925925927,0)" xlink:href="#Q"/><use transform="matrix(0.07407407407407408,0,0,0.07407407407407408,46.66666666666667,0)" xlink:href="#J"/></g><path d="M145-31C134-9 116 4 85 4 32 4 16-35 15-94c0-59 17-99 70-100 32-1 48 14 60 33 0-11-1-24 2-32h30l-1 268h-32zM93-21c41 0 51-33 51-76s-8-73-50-73c-40 0-46 35-46 75s5 74 45 74" id="U"/><path d="M84 4C-5 8 30-112 23-190h32v120c0 31 7 50 39 49 72-2 45-101 50-169h31l1 190h-30c-1-10 1-25-2-33-11 22-28 36-60 37" id="V"/><g id="g"><use transform="matrix(0.07407407407407408,0,0,0.07407407407407408,0,0)" xlink:href="#O"/><use transform="matrix(0.07407407407407408,0,0,0.07407407407407408,8.814814814814817,0)" xlink:href="#J"/><use transform="matrix(0.07407407407407408,0,0,0.07407407407407408,23.629629629629633,0)" xlink:href="#U"/><use transform="matrix(0.07407407407407408,0,0,0.07407407407407408,38.44444444444445,0)" xlink:href="#V"/><use transform="matrix(0.07407407407407408,0,0,0.07407407407407408,53.25925925925927,0)" xlink:href="#J"/><use transform="matrix(0.07407407407407408,0,0,0.07407407407407408,68.07407407407408,0)" xlink:href="#N"/><use transform="matrix(0.07407407407407408,0,0,0.07407407407407408,81.40740740740742,0)" xlink:href="#Q"/><use transform="matrix(0.07407407407407408,0,0,0.07407407407407408,88.81481481481482,0)" xlink:href="#N"/></g><path d="M177-190C167-65 218 103 67 71c-23-6-38-20-44-43l32-5c15 47 100 32 89-28v-30C133-14 115 1 83 1 29 1 15-40 15-95c0-56 16-97 71-98 29-1 48 16 59 35 1-10 0-23 2-32h30zM94-22c36 0 50-32 50-73 0-42-14-75-50-75-39 0-46 34-46 75s6 73 46 73" id="W"/><path d="M100-194c62-1 85 37 85 99 1 63-27 99-86 99S16-35 15-95c0-66 28-99 85-99zM99-20c44 1 53-31 53-75 0-43-8-75-51-75s-53 32-53 75 10 74 51 75" id="X"/><g id="h"><use transform="matrix(0.07407407407407408,0,0,0.07407407407407408,0,0)" xlink:href="#W"/><use transform="matrix(0.07407407407407408,0,0,0.07407407407407408,14.814814814814817,0)" xlink:href="#X"/></g><g id="i"><use transform="matrix(0.07407407407407408,0,0,0.07407407407407408,0,0)" xlink:href="#Q"/><use transform="matrix(0.07407407407407408,0,0,0.07407407407407408,7.407407407407408,0)" xlink:href="#X"/></g><path d="M106-169C34-169 62-67 57 0H25v-261h32l-1 103c12-21 28-36 61-36 89 0 53 116 60 194h-32v-121c2-32-8-49-39-48" id="Y"/><g id="j"><use transform="matrix(0.07407407407407408,0,0,0.07407407407407408,0,0)" xlink:href="#Q"/><use transform="matrix(0.07407407407407408,0,0,0.07407407407407408,7.407407407407408,0)" xlink:href="#Y"/><use transform="matrix(0.07407407407407408,0,0,0.07407407407407408,22.222222222222225,0)" xlink:href="#J"/></g><path d="M140-251c81 0 123 46 123 126C263-46 219 4 140 4 59 4 17-45 17-125s42-126 123-126zm0 227c63 0 89-41 89-101s-29-99-89-99c-61 0-89 39-89 99S79-25 140-24" id="Z"/><path d="M30 0v-248h33v221h125V0H30" id="aa"/><path d="M127-220V0H93v-220H8v-28h204v28h-85" id="ab"/><path d="M30-248c87 1 191-15 191 75 0 78-77 80-158 76V0H30v-248zm33 125c57 0 124 11 124-50 0-59-68-47-124-48v98" id="ac"/><g id="k"><use transform="matrix(0.07407407407407408,0,0,0.07407407407407408,0,0)" xlink:href="#Z"/><use transform="matrix(0.07407407407407408,0,0,0.07407407407407408,20.740740740740744,0)" xlink:href="#aa"/><use transform="matrix(0.07407407407407408,0,0,0.07407407407407408,33.55555555555556,0)" xlink:href="#ab"/><use transform="matrix(0.07407407407407408,0,0,0.07407407407407408,49.777777777777786,0)" xlink:href="#ac"/></g><path d="M115-194c53 0 69 39 70 98 0 66-23 100-70 100C84 3 66-7 56-30L54 0H23l1-261h32v101c10-23 28-34 59-34zm-8 174c40 0 45-34 45-75 0-40-5-75-45-74-42 0-51 32-51 76 0 43 10 73 51 73" id="ad"/><g id="l"><use transform="matrix(0.07407407407407408,0,0,0.07407407407407408,0,0)" xlink:href="#L"/><use transform="matrix(0.07407407407407408,0,0,0.07407407407407408,14.814814814814817,0)" xlink:href="#G"/><use transform="matrix(0.07407407407407408,0,0,0.07407407407407408,29.629629629629633,0)" xlink:href="#Q"/><use transform="matrix(0.07407407407407408,0,0,0.07407407407407408,37.03703703703704,0)" xlink:href="#G"/><use transform="matrix(0.07407407407407408,0,0,0.07407407407407408,51.85185185185186,0)" xlink:href="#ad"/><use transform="matrix(0.07407407407407408,0,0,0.07407407407407408,66.66666666666667,0)" xlink:href="#G"/><use transform="matrix(0.07407407407407408,0,0,0.07407407407407408,81.4814814814815,0)" xlink:href="#N"/><use transform="matrix(0.07407407407407408,0,0,0.07407407407407408,94.81481481481484,0)" xlink:href="#J"/></g><path d="M33 0v-38h34V0H33" id="ae"/><g id="m"><use transform="matrix(0.07407407407407408,0,0,0.07407407407407408,0,0)" xlink:href="#ae"/><use transform="matrix(0.07407407407407408,0,0,0.07407407407407408,7.407407407407408,0)" xlink:href="#ae"/><use transform="matrix(0.07407407407407408,0,0,0.07407407407407408,14.814814814814817,0)" xlink:href="#ae"/></g><g id="n"><use transform="matrix(0.06790123456790124,0,0,0.06790123456790124,0,0)" xlink:href="#Z"/><use transform="matrix(0.06790123456790124,0,0,0.06790123456790124,19.01234567901235,0)" xlink:href="#aa"/><use transform="matrix(0.06790123456790124,0,0,0.06790123456790124,30.759259259259267,0)" xlink:href="#ab"/><use transform="matrix(0.06790123456790124,0,0,0.06790123456790124,45.62962962962965,0)" xlink:href="#ac"/></g><path d="M30-248c118-7 216 8 213 122C240-48 200 0 122 0H30v-248zM63-27c89 8 146-16 146-99s-60-101-146-95v194" id="af"/><g id="o"><use transform="matrix(0.06790123456790124,0,0,0.06790123456790124,0,0)" xlink:href="#af"/><use transform="matrix(0.06790123456790124,0,0,0.06790123456790124,17.58641975308642,0)" xlink:href="#F"/></g><path d="M240 0l2-218c-23 76-54 145-80 218h-23L58-218 59 0H30v-248h44l77 211c21-75 51-140 76-211h43V0h-30" id="ag"/><path d="M24 0v-261h32V0H24" id="ah"/><path d="M16-82v-28h88v28H16" id="ai"/><g id="p"><use transform="matrix(0.07407407407407408,0,0,0.07407407407407408,0,0)" xlink:href="#ag"/><use transform="matrix(0.07407407407407408,0,0,0.07407407407407408,22.148148148148152,0)" xlink:href="#V"/><use transform="matrix(0.07407407407407408,0,0,0.07407407407407408,36.96296296296297,0)" xlink:href="#ah"/><use transform="matrix(0.07407407407407408,0,0,0.07407407407407408,42.814814814814824,0)" xlink:href="#Q"/><use transform="matrix(0.07407407407407408,0,0,0.07407407407407408,50.22222222222223,0)" xlink:href="#T"/><use transform="matrix(0.07407407407407408,0,0,0.07407407407407408,56.07407407407408,0)" xlink:href="#ai"/><use transform="matrix(0.07407407407407408,0,0,0.07407407407407408,64.8888888888889,0)" xlink:href="#O"/><use transform="matrix(0.07407407407407408,0,0,0.07407407407407408,73.70370370370372,0)" xlink:href="#J"/><use transform="matrix(0.07407407407407408,0,0,0.07407407407407408,88.51851851851853,0)" xlink:href="#H"/><use transform="matrix(0.07407407407407408,0,0,0.07407407407407408,101.85185185185188,0)" xlink:href="#X"/><use transform="matrix(0.07407407407407408,0,0,0.07407407407407408,116.66666666666669,0)" xlink:href="#O"/><use transform="matrix(0.07407407407407408,0,0,0.07407407407407408,125.4814814814815,0)" xlink:href="#L"/></g><g id="q"><use transform="matrix(0.07407407407407408,0,0,0.07407407407407408,0,0)" xlink:href="#O"/><use transform="matrix(0.07407407407407408,0,0,0.07407407407407408,8.814814814814817,0)" xlink:href="#J"/><use transform="matrix(0.07407407407407408,0,0,0.07407407407407408,23.629629629629633,0)" xlink:href="#G"/><use transform="matrix(0.07407407407407408,0,0,0.07407407407407408,38.44444444444445,0)" xlink:href="#L"/></g><g id="r"><use transform="matrix(0.07407407407407408,0,0,0.07407407407407408,0,0)" xlink:href="#G"/><use transform="matrix(0.07407407407407408,0,0,0.07407407407407408,14.814814814814817,0)" xlink:href="#O"/><use transform="matrix(0.07407407407407408,0,0,0.07407407407407408,23.629629629629633,0)" xlink:href="#J"/></g><path d="M108 0H70L1-190h34L89-25l56-165h34" id="aj"/><g id="s"><use transform="matrix(0.07407407407407408,0,0,0.07407407407407408,0,0)" xlink:href="#N"/><use transform="matrix(0.07407407407407408,0,0,0.07407407407407408,13.333333333333336,0)" xlink:href="#J"/><use transform="matrix(0.07407407407407408,0,0,0.07407407407407408,28.148148148148152,0)" xlink:href="#O"/><use transform="matrix(0.07407407407407408,0,0,0.07407407407407408,36.96296296296297,0)" xlink:href="#aj"/><use transform="matrix(0.07407407407407408,0,0,0.07407407407407408,50.296296296296305,0)" xlink:href="#J"/><use transform="matrix(0.07407407407407408,0,0,0.07407407407407408,65.11111111111111,0)" xlink:href="#L"/></g><path d="M210-169c-67 3-38 105-44 169h-31v-121c0-29-5-50-35-48C34-165 62-65 56 0H25l-1-190h30c1 10-1 24 2 32 10-44 99-50 107 0 11-21 27-35 58-36 85-2 47 119 55 194h-31v-121c0-29-5-49-35-48" id="ak"/><g id="t"><use transform="matrix(0.07407407407407408,0,0,0.07407407407407408,0,0)" xlink:href="#R"/><use transform="matrix(0.07407407407407408,0,0,0.07407407407407408,7.407407407407408,0)" xlink:href="#O"/><use transform="matrix(0.07407407407407408,0,0,0.07407407407407408,16.222222222222225,0)" xlink:href="#X"/><use transform="matrix(0.07407407407407408,0,0,0.07407407407407408,31.03703703703704,0)" xlink:href="#ak"/></g><path d="M205 0l-28-72H64L36 0H1l101-248h38L239 0h-34zm-38-99l-47-123c-12 45-31 82-46 123h93" id="al"/><g id="u"><use transform="matrix(0.07407407407407408,0,0,0.07407407407407408,0,0)" xlink:href="#Z"/><use transform="matrix(0.07407407407407408,0,0,0.07407407407407408,20.740740740740744,0)" xlink:href="#aa"/><use transform="matrix(0.07407407407407408,0,0,0.07407407407407408,35.55555555555556,0)" xlink:href="#al"/><use transform="matrix(0.07407407407407408,0,0,0.07407407407407408,53.33333333333333,0)" xlink:href="#ac"/></g><g id="v"><use transform="matrix(0.07407407407407408,0,0,0.07407407407407408,0,0)" xlink:href="#L"/><use transform="matrix(0.07407407407407408,0,0,0.07407407407407408,14.814814814814817,0)" xlink:href="#G"/><use transform="matrix(0.07407407407407408,0,0,0.07407407407407408,29.629629629629633,0)" xlink:href="#Q"/><use transform="matrix(0.07407407407407408,0,0,0.07407407407407408,37.03703703703704,0)" xlink:href="#G"/><use transform="matrix(0.07407407407407408,0,0,0.07407407407407408,51.85185185185186,0)" xlink:href="#ad"/><use transform="matrix(0.07407407407407408,0,0,0.07407407407407408,66.66666666666667,0)" xlink:href="#G"/><use transform="matrix(0.07407407407407408,0,0,0.07407407407407408,81.4814814814815,0)" xlink:href="#N"/><use transform="matrix(0.07407407407407408,0,0,0.07407407407407408,94.81481481481484,0)" xlink:href="#J"/></g><g id="w"><use transform="matrix(0.06790123456790124,0,0,0.06790123456790124,0,0)" xlink:href="#Z"/><use transform="matrix(0.06790123456790124,0,0,0.06790123456790124,19.01234567901235,0)" xlink:href="#aa"/><use transform="matrix(0.06790123456790124,0,0,0.06790123456790124,32.592592592592595,0)" xlink:href="#al"/><use transform="matrix(0.06790123456790124,0,0,0.06790123456790124,48.88888888888889,0)" xlink:href="#ac"/></g><g id="x"><use transform="matrix(0.07407407407407408,0,0,0.07407407407407408,0,0)" xlink:href="#ae"/><use transform="matrix(0.07407407407407408,0,0,0.07407407407407408,7.407407407407408,0)" xlink:href="#ae"/><use transform="matrix(0.07407407407407408,0,0,0.07407407407407408,14.814814814814817,0)" xlink:href="#ae"/></g><g id="y"><use transform="matrix(0.07407407407407408,0,0,0.07407407407407408,0,0)" xlink:href="#G"/><use transform="matrix(0.07407407407407408,0,0,0.07407407407407408,14.814814814814817,0)" xlink:href="#K"/><use transform="matrix(0.07407407407407408,0,0,0.07407407407407408,29.629629629629633,0)" xlink:href="#L"/></g><g id="z"><use transform="matrix(0.07407407407407408,0,0,0.07407407407407408,0,0)" xlink:href="#G"/><use transform="matrix(0.07407407407407408,0,0,0.07407407407407408,14.814814814814817,0)" xlink:href="#O"/><use transform="matrix(0.07407407407407408,0,0,0.07407407407407408,23.629629629629633,0)" xlink:href="#J"/></g><g id="A"><use transform="matrix(0.07407407407407408,0,0,0.07407407407407408,0,0)" xlink:href="#N"/><use transform="matrix(0.07407407407407408,0,0,0.07407407407407408,13.333333333333336,0)" xlink:href="#Q"/><use transform="matrix(0.07407407407407408,0,0,0.07407407407407408,20.740740740740744,0)" xlink:href="#O"/><use transform="matrix(0.07407407407407408,0,0,0.07407407407407408,29.55555555555556,0)" xlink:href="#J"/><use transform="matrix(0.07407407407407408,0,0,0.07407407407407408,44.37037037037039,0)" xlink:href="#G"/><use transform="matrix(0.07407407407407408,0,0,0.07407407407407408,59.185185185185205,0)" xlink:href="#ak"/><use transform="matrix(0.07407407407407408,0,0,0.07407407407407408,81.33333333333334,0)" xlink:href="#J"/><use transform="matrix(0.07407407407407408,0,0,0.07407407407407408,96.14814814814814,0)" xlink:href="#L"/></g><g id="B"><use transform="matrix(0.07407407407407408,0,0,0.07407407407407408,0,0)" xlink:href="#Q"/><use transform="matrix(0.07407407407407408,0,0,0.07407407407407408,7.407407407407408,0)" xlink:href="#X"/></g><g id="C"><use transform="matrix(0.07407407407407408,0,0,0.07407407407407408,0,0)" xlink:href="#Q"/><use transform="matrix(0.07407407407407408,0,0,0.07407407407407408,7.407407407407408,0)" xlink:href="#Y"/><use transform="matrix(0.07407407407407408,0,0,0.07407407407407408,22.222222222222225,0)" xlink:href="#J"/></g><g id="D"><use transform="matrix(0.07407407407407408,0,0,0.07407407407407408,0,0)" xlink:href="#Z"/><use transform="matrix(0.07407407407407408,0,0,0.07407407407407408,20.740740740740744,0)" xlink:href="#aa"/><use transform="matrix(0.07407407407407408,0,0,0.07407407407407408,35.55555555555556,0)" xlink:href="#al"/><use transform="matrix(0.07407407407407408,0,0,0.07407407407407408,53.33333333333333,0)" xlink:href="#ac"/></g><g id="E"><use transform="matrix(0.07407407407407408,0,0,0.07407407407407408,0,0)" xlink:href="#L"/><use transform="matrix(0.07407407407407408,0,0,0.07407407407407408,14.814814814814817,0)" xlink:href="#G"/><use transform="matrix(0.07407407407407408,0,0,0.07407407407407408,29.629629629629633,0)" xlink:href="#Q"/><use transform="matrix(0.07407407407407408,0,0,0.07407407407407408,37.03703703703704,0)" xlink:href="#G"/><use transform="matrix(0.07407407407407408,0,0,0.07407407407407408,51.85185185185186,0)" xlink:href="#ad"/><use transform="matrix(0.07407407407407408,0,0,0.07407407407407408,66.66666666666667,0)" xlink:href="#G"/><use transform="matrix(0.07407407407407408,0,0,0.07407407407407408,81.4814814814815,0)" xlink:href="#N"/><use transform="matrix(0.07407407407407408,0,0,0.07407407407407408,94.81481481481484,0)" xlink:href="#J"/></g></defs></g></svg>