<svg xmlns="http://www.w3.org/2000/svg" xmlns:xlink="http://www.w3.org/1999/xlink" xmlns:lucid="lucid" width="1223" height="303.25"><g transform="translate(-458.5 -698.2500249999977)" lucid:page-tab-id="0_0"><path d="M741.6 926a6 6 0 0 1 6-6h247.9a6 6 0 0 1 6 6v68a6 6 0 0 1-6 6H747.6a6 6 0 0 1-6-6z" stroke="#000" stroke-opacity="0" stroke-width="3" fill="#fff" fill-opacity="0"/><use xlink:href="#a" transform="matrix(1,0,0,1,746.6045450861297,925) translate(0.7283950617284347 27.07638888888888)"/><use xlink:href="#b" transform="matrix(1,0,0,1,746.6045450861297,925) translate(33.61111111111114 64.4097222222222)"/><path d="M460 727.3a6 6 0 0 1 6-6h169.5a6 6 0 0 1 6 6v148a6 6 0 0 1-6 6H466a6 6 0 0 1-6-6z" stroke="#000" stroke-opacity="0" stroke-width="3" fill="#fff" fill-opacity="0"/><use xlink:href="#c" transform="matrix(1,0,0,1,465,726.2923353346446) translate(8.200617283950606 46.548611111111114)"/><use xlink:href="#d" transform="matrix(1,0,0,1,465,726.2923353346446) translate(75.60802469135803 46.548611111111114)"/><use xlink:href="#e" transform="matrix(1,0,0,1,465,726.2923353346446) translate(9.885802469135825 81.21527777777777)"/><use xlink:href="#f" transform="matrix(1,0,0,1,465,726.2923353346446) translate(73.96296296296296 115.88194444444444)"/><path d="M744.67 801.3a19.88 19.88 0 0 1 19.88-19.88h20.25a19.88 19.88 0 0 1 19.87 19.87 19.88 19.88 0 0 1-19.87 19.87h-20.25a19.88 19.88 0 0 1-19.88-19.88z" stroke="#1071e5" stroke-width="3" fill="url(#g)"/><path d="M841.7 801.17a20 20 0 0 1 20-20h20a20 20 0 0 1 20 20 20 20 0 0 1-20 20h-20a20 20 0 0 1-20-20z" stroke="#000" stroke-width="3" fill="url(#h)"/><use xlink:href="#i" transform="matrix(1,0,0,1,846.709234649459,786.1673478346432) translate(5.251913580246912 19.65277777777778)"/><path d="M941.8 801.17a20 20 0 0 1 20-20h20a20 20 0 0 1 20 20v.25a20 20 0 0 1-20 20h-20a20 20 0 0 1-20-20z" stroke="#008a0e" stroke-width="3" fill="url(#j)"/><path d="M740 720a20 20 0 0 1 20-20h63.2a20 20 0 0 1 20 20 20 20 0 0 1-20 20H760a20 20 0 0 1-20-20z" stroke="#000" stroke-width="3" fill="url(#k)"/><use xlink:href="#l" transform="matrix(1,0,0,1,745,705) translate(23.696358024691364 19.65277777777778)"/><path d="M790.97 742.27l-19.84 24.07" stroke="#000" stroke-width="2" fill="none"/><path d="M791.7 742.9l-1.5-1.23.14-.17h2.53z" stroke="#000" stroke-width=".05"/><path d="M761.42 778.12l5.5-13.95 7.15 5.9z" stroke="#000" stroke-width="2"/><path d="M792.58 741.73l147.24 34.16" stroke="#000" stroke-width="2" fill="none"/><path d="M792.38 742.68l-3.92-.9.06-.28h4.14z" stroke="#000" stroke-width=".05"/><path d="M954.7 779.34l-14.96 1.3 2.1-9.04z" stroke="#000" stroke-width="2"/><path d="M792.47 742l50.6 28.73" stroke="#000" stroke-width="2" fill="none"/><path d="M792 742.85l-2.37-1.35h3.15z" stroke="#000" stroke-width=".05"/><path d="M856.35 778.26l-14.7-3 4.58-8.07z" stroke="#000" stroke-width="2"/><path d="M901.7 721.17a20 20 0 0 1 20-20h59.9a20 20 0 0 1 20 20 20 20 0 0 1-20 20h-59.9a20 20 0 0 1-20-20z" stroke="#000" stroke-width="3" fill="url(#m)"/><use xlink:href="#n" transform="matrix(1,0,0,1,906.7093791266586,706.1673478346432) translate(22.196358024691364 19.65277777777778)"/><path d="M950.68 742.9l-142.2 33.58" stroke="#000" stroke-width="2" fill="none"/><path d="M954.8 742.93l-3.92.92-.28-1.18h4.14z" stroke="#000" stroke-width=".05"/><path d="M793.6 780l12.83-7.8 2.13 9.02z" stroke="#000" stroke-width="2"/><path d="M952.36 743.38l23.9 24.42" stroke="#000" stroke-width="2" fill="none"/><path d="M953.07 742.72l-1.4 1.36-1.38-1.4H953z" stroke="#000" stroke-width=".05"/><path d="M986.93 778.7l-13.3-6.95 6.64-6.48z" stroke="#000" stroke-width="2"/><path d="M950.8 743.16l-49.02 27.8" stroke="#000" stroke-width="2" fill="none"/><path d="M951.25 744.02l-.77-1.35h3.15z" stroke="#000" stroke-width=".05"/><path d="M888.5 778.48l10.12-11.07 4.58 8.07z" stroke="#000" stroke-width="2"/><path d="M741.6 882.6a20 20 0 0 1 20-20h60a20 20 0 0 1 20 20v.5a20 20 0 0 1-20 20h-60a20 20 0 0 1-20-20z" stroke="#cc4e00" stroke-width="3" fill="#fff"/><path d="M901.6 881.42a20 20 0 0 1 20-20h60a20 20 0 0 1 20 20 20 20 0 0 1-20 20h-60a20 20 0 0 1-20-20z" stroke="#000" stroke-width="3" fill="#fff"/><use xlink:href="#o" transform="matrix(1,0,0,1,906.6048340405289,866.4173228346456) translate(17.967962962962964 19.65277777777778)"/><path d="M774.57 818.3v24.28" stroke="#cc4e00" stroke-width="2" fill="none"/><path d="M775.54 818.32h-1.95v-1.03h1.94z" stroke="#cc4e00" stroke-width=".05" fill="#cc4e00"/><path d="M774.57 857.85l-4.64-14.27h9.28z" stroke="#cc4e00" stroke-width="2" fill="#cc4e00"/><path d="M775.64 822.93l121.38 33.2" stroke="#000" stroke-width="2" fill="none"/><path d="M775.4 823.88l-3.88-1.06.04-.15h4.18z" stroke="#000" stroke-width=".05"/><path d="M911.74 860.15l-14.98.7 2.44-8.93z" stroke="#000" stroke-width="2"/><path d="M872.62 823.1l62.22 29" stroke="#000" stroke-width="2" fill="none"/><path d="M872.23 823.98l-2.83-1.3h3.44z" stroke="#000" stroke-width=".05"/><path d="M948.67 858.55l-14.9-1.83 3.93-8.4z" stroke="#000" stroke-width="2"/><path d="M870.8 823.1l-62.5 29.98" stroke="#000" stroke-width="2" fill="none"/><path d="M871.2 824l-.63-1.33h3.4z" stroke="#000" stroke-width=".05"/><path d="M794.52 859.68l10.86-10.34 4 8.36z" stroke="#000" stroke-width="2"/><path d="M971.8 823.92v17.5" stroke="#000" stroke-width="2" fill="none"/><path d="M972.8 823.94h-1.96v-1.02h1.95z" stroke="#000" stroke-width=".05"/><path d="M971.8 856.68l-4.62-14.26h9.27z" stroke="#000" stroke-width="2"/><path d="M969.9 817.5l-119.8 40.7" stroke="#cc4e00" stroke-width="2" fill="none"/><path d="M970.2 818.42l-.43-1.25h4.1z" stroke="#cc4e00" stroke-width=".05" fill="#cc4e00"/><path d="M835.64 863.13l12.02-9 2.98 8.8z" stroke="#cc4e00" stroke-width="2" fill="#cc4e00"/><path d="M1198.4 880.92a20 20 0 0 1 20-20h60a20 20 0 0 1 20 20 20 20 0 0 1-20 20h-60a20 20 0 0 1-20-20z" stroke="#ba23f6" stroke-width="3" fill="#ced4db"/><path d="M1293.3 864.33l2.8-.96m3.7-1.27l5.58-1.9m3.7-1.3l5.6-1.9m3.7-1.27l5.57-1.9m3.72-1.28l5.57-1.9m3.72-1.28l5.57-1.9m3.7-1.3l5.6-1.9m3.7-1.27l5.57-1.9m3.72-1.28l5.57-1.92m3.7-1.27l5.58-1.9m3.7-1.28l5.6-1.9m3.7-1.3l5.57-1.9m3.72-1.27l5.57-1.9m3.72-1.28l5.57-1.9m3.7-1.3l5.6-1.9m3.7-1.27l5.57-1.9m3.72-1.28l5.57-1.9m3.7-1.3l5.58-1.9m3.7-1.27l5.6-1.9m3.7-1.28l5.57-1.9m3.72-1.3l2.78-.94" stroke="#3a414a" stroke-width="2" fill="none"/><path d="M1293.65 865.24l-.43.15-1.72-1.48 1.5-.52zM1480 801.36l-.65.23-.64-1.86 1.3-.44z" stroke="#3a414a" stroke-width=".05" fill="#3a414a"/><path d="M1480 705.75a6 6 0 0 1 6-6h188a6 6 0 0 1 6 6v189.17a6 6 0 0 1-6 6h-188a6 6 0 0 1-6-6z" stroke="#000" stroke-opacity="0" stroke-width="3" fill="#fff" fill-opacity="0"/><use xlink:href="#p" transform="matrix(1,0,0,1,1485,704.7500249999977) translate(6.768518518518519 35.111111111111114)"/><use xlink:href="#q" transform="matrix(1,0,0,1,1485,704.7500249999977) translate(38.867283950617285 35.111111111111114)"/><use xlink:href="#d" transform="matrix(1,0,0,1,1485,704.7500249999977) translate(95.04012345679013 35.111111111111114)"/><use xlink:href="#r" transform="matrix(1,0,0,1,1485,704.7500249999977) translate(19.5679012345679 69.77777777777777)"/><use xlink:href="#s" transform="matrix(1,0,0,1,1485,704.7500249999977) translate(83.76543209876543 69.77777777777777)"/><use xlink:href="#t" transform="matrix(1,0,0,1,1485,704.7500249999977) translate(138.33333333333331 69.77777777777777)"/><use xlink:href="#u" transform="matrix(1,0,0,1,1485,704.7500249999977) translate(17.20061728395062 104.44444444444444)"/><use xlink:href="#v" transform="matrix(1,0,0,1,1485,704.7500249999977) translate(142.30555555555554 104.44444444444444)"/><use xlink:href="#w" transform="matrix(1,0,0,1,1485,704.7500249999977) translate(38.867283950617285 139.11111111111111)"/><use xlink:href="#x" transform="matrix(1,0,0,1,1485,704.7500249999977) translate(42.11728395061729 173.77777777777777)"/><path d="M642.35 801.83l2.57 1.63m3.44 2.17l5.15 3.25m3.45 2.17l5.16 3.26m3.44 2.18l5.16 3.26m3.44 2.17l5.15 3.27m3.43 2.17l5.15 3.25m3.44 2.17l5.16 3.25m3.43 2.17l5.17 3.25m3.44 2.17l5.16 3.26m3.44 2.17l5.15 3.26m3.44 2.18l5.15 3.25m3.43 2.18l5.16 3.26m3.43 2.17l2.58 1.63" stroke="#3a414a" stroke-width="2" fill="none"/><path d="M642.9 801.02l-1.05 1.64-.35-.2v-2.32zM747.05 866.82l-.65.56-.74.87-.75-.48 1.05-1.65z" stroke="#3a414a" stroke-width=".05" fill="#3a414a"/><path d="M754.67 786.3h40v30h-40z" stroke="#1071e5" stroke-width="2" fill="#cfe4ff"/><use xlink:href="#y" transform="matrix(1,0,0,1,759.674090408454,791.2923353346445) translate(-2.7222222222222214 16)"/><path d="M950.86 786.17h40v30h-40z" stroke="#008a0e" stroke-width="2" fill="#cfe4ff"/><use xlink:href="#z" transform="matrix(1,0,0,1,955.8546895633293,791.1673478346432) translate(-2.7222222222222214 16)"/><path d="M1120 720a20 20 0 0 1 20-20h59.9a20 20 0 0 1 20 20v81.42a20 20 0 0 1-20 20H1140a20 20 0 0 1-20-20z" stroke="#000" stroke-width="3" fill="url(#A)"/><use xlink:href="#B" transform="matrix(1,0,0,1,1125,705) translate(8.02469135802469 59.77777777777778)"/><path d="M1280 719.75a20 20 0 0 1 20-20h60a20 20 0 0 1 20 20v81.42a20 20 0 0 1-20 20h-60a20 20 0 0 1-20-20z" stroke="#000" stroke-width="3" fill="url(#C)"/><use xlink:href="#B" transform="matrix(1,0,0,1,1285,704.7500249999977) translate(8.02469135802469 59.77777777777778)"/><path d="M1120 880.92a20 20 0 0 1 20-20h20a20 20 0 0 1 20 20 20 20 0 0 1-20 20h-20a20 20 0 0 1-20-20z" stroke="#000" stroke-width="3" fill="#ced4db"/><use xlink:href="#D" transform="matrix(1,0,0,1,1125,865.9173728346409) translate(3.430925925925928 19.65277777777778)"/><path d="M1320 881.42a20 20 0 0 1 20-20h20a20 20 0 0 1 20 20v.5a20 20 0 0 1-20 20h-20a20 20 0 0 1-20-20z" stroke="#000" stroke-width="3" fill="#ced4db"/><use xlink:href="#E" transform="matrix(1,0,0,1,1325,866.4173228346456) translate(3.430925925925928 19.71527777777778)"/><path d="M1208.4 865.92h80v30h-80z" stroke="#ba23f6" stroke-width="2" fill="#ced4db"/><use xlink:href="#F" transform="matrix(1,0,0,1,1213.3950720998223,870.9173728346408) translate(-1.55555555555555 16)"/><path d="M1149.95 775.7h40v30h-40z" stroke="#1071e5" stroke-width="2" fill="#cfe4ff"/><use xlink:href="#y" transform="matrix(1,0,0,1,1154.9475829797357,780.7086614173228) translate(-2.7222222222222214 16)"/><path d="M1310 775.7h40v30h-40z" stroke="#008a0e" stroke-width="2" fill="#cfe4ff"/><use xlink:href="#z" transform="matrix(1,0,0,1,1315,780.7086614173228) translate(-2.7222222222222214 16)"/><path d="M1169.47 823.8l-10.6 19.38" stroke="#000" stroke-width="2" fill="none"/><path d="M1170.3 824.3l-1.7-.95.24-.43h2.22z" stroke="#000" stroke-width=".05"/><path d="M1151.55 856.58l2.78-14.74 8.13 4.44z" stroke="#000" stroke-width="2"/><path d="M1330.47 823.55l10.78 20.07" stroke="#000" stroke-width="2" fill="none"/><path d="M1331.34 823.1l-1.7.93-.75-1.36h2.2z" stroke="#000" stroke-width=".05"/><path d="M1348.47 857.07l-10.83-10.38 8.16-4.4z" stroke="#000" stroke-width="2"/><path d="M1184.43 807.53l25.38 36.67" stroke="#ba23f6" stroke-width="2" fill="none"/><path d="M1185.25 807l-1.6 1.1-.97-1.4h2.37z" stroke="#ba23f6" stroke-width=".05" fill="#ba23f6"/><path d="M1218.5 856.76l-11.94-9.1 7.63-5.27z" stroke="#ba23f6" stroke-width="2" fill="#ba23f6"/><path d="M1314.96 807.53l-25.05 36.7" stroke="#ba23f6" stroke-width="2" fill="none"/><path d="M1315.75 808.1l-1.6-1.1.2-.3h2.36z" stroke="#ba23f6" stroke-width=".05" fill="#ba23f6"/><path d="M1281.3 856.83l4.22-14.4 7.66 5.23z" stroke="#ba23f6" stroke-width="2" fill="#ba23f6"/><path d="M1088.4 926a6 6 0 0 1 6-6h308a6 6 0 0 1 6 6v68a6 6 0 0 1-6 6h-308a6 6 0 0 1-6-6z" stroke="#000" stroke-opacity="0" stroke-width="3" fill="#fff" fill-opacity="0"/><g><use xlink:href="#G" transform="matrix(1,0,0,1,1093.3950720998223,925) translate(20.401234567901298 24.88888888888888)"/><use xlink:href="#H" transform="matrix(1,0,0,1,1093.3950720998223,925) translate(134.30246913580248 24.88888888888888)"/><use xlink:href="#I" transform="matrix(1,0,0,1,1093.3950720998223,925) translate(280.9567901234567 24.88888888888888)"/><use xlink:href="#J" transform="matrix(1,0,0,1,1093.3950720998223,925) translate(2.2962962962963616 62.22222222222219)"/><use xlink:href="#K" transform="matrix(1,0,0,1,1093.3950720998223,925) translate(133.30864197530866 62.22222222222219)"/></g><path d="M751.6 867.84h80v30h-80z" stroke="#cc4e00" stroke-width="2" fill="#fff"/><g><use xlink:href="#L" transform="matrix(1,0,0,1,756.6045920159542,872.8346456692911) translate(4.527777777777782 17.25)"/></g><defs><path d="M178-136c88 48 22 151-73 140C49-3 12-15 4-64l51-9c1 50 111 53 115 3-16-63-132-20-133-112 0-93 190-91 199-10l-50 12c-4-41-93-50-97-4 7 38 59 32 89 48" id="M"/><path d="M114-194c63-2 87 48 72 110H63c-3 28 1 55 31 54 21-1 32-13 37-29l44 13C160-14 137 4 91 4 41 4 11-22 11-73c0-71 33-119 103-121zm30 77c14-47-50-61-67-22-3 6-6 13-8 22h75" id="N"/><path d="M84-151c13-25 34-51 72-40l-8 41C67-170 71-64 56 0H6l36-190h47" id="O"/><path d="M109 0H50L19-190h51L86-37l77-153h54" id="P"/><path d="M50-224l7-37h49l-7 37H50zM6 0l37-190h49L55 0H6" id="Q"/><path d="M67-101c-8 29-7 73 27 71 23-2 32-16 39-37l48 9C170-19 141 4 91 4 36 4 7-28 12-86c6-75 61-124 140-103 26 7 40 29 43 59l-50 4c-1-20-9-34-29-34-35 0-41 29-49 59" id="R"/><path d="M10-72l8-43h92l-9 43H10" id="S"/><path d="M18-101c0-91 52-150 145-150 68 0 111 34 111 101C274-54 221 4 128 4 59 4 18-33 18-101zm202-32c4-46-15-77-59-77-65 0-88 46-91 108-2 41 22 65 60 65 60 0 84-40 90-96" id="T"/><path d="M151-194c95 0 34 128 28 194h-49l25-134c0-29-45-25-59-9C67-111 69-48 56 0H6l36-190h47l-4 32c15-20 33-36 66-36" id="U"/><path d="M72-63c-8 23 5 39 32 30L98-1C54 14 12-6 23-64l18-93H15l7-33h28l24-45h31l-8 45h35l-6 33H90" id="V"/><path d="M132-28C118-9 101 4 69 4 30 4 10-23 10-62c0-70 24-129 92-132 31-1 47 14 56 35l19-102h49L179 0h-49zM62-69c0 22 7 39 29 39 45-2 54-45 57-90 2-27-10-40-33-40-44 0-53 48-53 91" id="W"/><g id="a"><use transform="matrix(0.0864197530864197,0,0,0.0864197530864197,0,0)" xlink:href="#M"/><use transform="matrix(0.0864197530864197,0,0,0.0864197530864197,20.74074074074073,0)" xlink:href="#N"/><use transform="matrix(0.0864197530864197,0,0,0.0864197530864197,38.02469135802467,0)" xlink:href="#O"/><use transform="matrix(0.0864197530864197,0,0,0.0864197530864197,50.12345679012343,0)" xlink:href="#P"/><use transform="matrix(0.0864197530864197,0,0,0.0864197530864197,67.40740740740736,0)" xlink:href="#Q"/><use transform="matrix(0.0864197530864197,0,0,0.0864197530864197,76.04938271604934,0)" xlink:href="#R"/><use transform="matrix(0.0864197530864197,0,0,0.0864197530864197,93.33333333333329,0)" xlink:href="#N"/><use transform="matrix(0.0864197530864197,0,0,0.0864197530864197,110.61728395061725,0)" xlink:href="#S"/><use transform="matrix(0.0864197530864197,0,0,0.0864197530864197,120.90123456790118,0)" xlink:href="#T"/><use transform="matrix(0.0864197530864197,0,0,0.0864197530864197,145.0987654320987,0)" xlink:href="#O"/><use transform="matrix(0.0864197530864197,0,0,0.0864197530864197,157.19753086419746,0)" xlink:href="#Q"/><use transform="matrix(0.0864197530864197,0,0,0.0864197530864197,165.83950617283944,0)" xlink:href="#N"/><use transform="matrix(0.0864197530864197,0,0,0.0864197530864197,183.12345679012338,0)" xlink:href="#U"/><use transform="matrix(0.0864197530864197,0,0,0.0864197530864197,202.0493827160493,0)" xlink:href="#V"/><use transform="matrix(0.0864197530864197,0,0,0.0864197530864197,212.33333333333326,0)" xlink:href="#N"/><use transform="matrix(0.0864197530864197,0,0,0.0864197530864197,229.6172839506172,0)" xlink:href="#W"/></g><path d="M183 0l-10-63H79L44 0H-7l138-248h61L234 0h-51zm-14-102l-15-108c-16 38-36 73-55 108h70" id="X"/><path d="M150-105c8-23 8-54-22-51-68 7-54 98-72 156H6l50-261h50L85-158c15-20 33-36 66-36 95 0 34 128 28 194h-49" id="Y"/><path d="M69 3c-96 0-34-126-28-193h49L65-57c6 42 62 18 71-6 14-38 17-86 28-127h50L178 0h-47c0-11 4-26 3-33-14 20-30 37-65 36" id="Z"/><g id="b"><use transform="matrix(0.0864197530864197,0,0,0.0864197530864197,0,0)" xlink:href="#X"/><use transform="matrix(0.0864197530864197,0,0,0.0864197530864197,22.382716049382704,0)" xlink:href="#O"/><use transform="matrix(0.0864197530864197,0,0,0.0864197530864197,34.48148148148147,0)" xlink:href="#R"/><use transform="matrix(0.0864197530864197,0,0,0.0864197530864197,51.7654320987654,0)" xlink:href="#Y"/><use transform="matrix(0.0864197530864197,0,0,0.0864197530864197,70.69135802469133,0)" xlink:href="#Q"/><use transform="matrix(0.0864197530864197,0,0,0.0864197530864197,79.3333333333333,0)" xlink:href="#V"/><use transform="matrix(0.0864197530864197,0,0,0.0864197530864197,89.61728395061725,0)" xlink:href="#N"/><use transform="matrix(0.0864197530864197,0,0,0.0864197530864197,106.90123456790117,0)" xlink:href="#R"/><use transform="matrix(0.0864197530864197,0,0,0.0864197530864197,124.18518518518513,0)" xlink:href="#V"/><use transform="matrix(0.0864197530864197,0,0,0.0864197530864197,134.46913580246908,0)" xlink:href="#Z"/><use transform="matrix(0.0864197530864197,0,0,0.0864197530864197,153.395061728395,0)" xlink:href="#O"/><use transform="matrix(0.0864197530864197,0,0,0.0864197530864197,165.49382716049377,0)" xlink:href="#N"/></g><path d="M160-131c35 5 61 23 61 61C221 17 115-2 30 0v-248c76 3 177-17 177 60 0 33-19 50-47 57zm-97-11c50-1 110 9 110-42 0-47-63-36-110-37v79zm0 115c55-2 124 14 124-45 0-56-70-42-124-44v89" id="aa"/><path d="M100-194c62-1 85 37 85 99 1 63-27 99-86 99S16-35 15-95c0-66 28-99 85-99zM99-20c44 1 53-31 53-75 0-43-8-75-51-75s-53 32-53 75 10 74 51 75" id="ab"/><path d="M59-47c-2 24 18 29 38 22v24C64 9 27 4 27-40v-127H5v-23h24l9-43h21v43h35v23H59v120" id="ac"/><path d="M106-169C34-169 62-67 57 0H25v-261h32l-1 103c12-21 28-36 61-36 89 0 53 116 60 194h-32v-121c2-32-8-49-39-48" id="ad"/><g id="c"><use transform="matrix(0.08024691358024691,0,0,0.08024691358024691,0,0)" xlink:href="#aa"/><use transform="matrix(0.08024691358024691,0,0,0.08024691358024691,19.25925925925926,0)" xlink:href="#ab"/><use transform="matrix(0.08024691358024691,0,0,0.08024691358024691,35.308641975308646,0)" xlink:href="#ac"/><use transform="matrix(0.08024691358024691,0,0,0.08024691358024691,43.33333333333334,0)" xlink:href="#ad"/></g><path d="M135-143c-3-34-86-38-87 0 15 53 115 12 119 90S17 21 10-45l28-5c4 36 97 45 98 0-10-56-113-15-118-90-4-57 82-63 122-42 12 7 21 19 24 35" id="ae"/><path d="M141-36C126-15 110 5 73 4 37 3 15-17 15-53c-1-64 63-63 125-63 3-35-9-54-41-54-24 1-41 7-42 31l-33-3c5-37 33-52 76-52 45 0 72 20 72 64v82c-1 20 7 32 28 27v20c-31 9-61-2-59-35zM48-53c0 20 12 33 32 33 41-3 63-29 60-74-43 2-92-5-92 41" id="af"/><path d="M114-163C36-179 61-72 57 0H25l-1-190h30c1 12-1 29 2 39 6-27 23-49 58-41v29" id="ag"/><path d="M100-194c63 0 86 42 84 106H49c0 40 14 67 53 68 26 1 43-12 49-29l28 8c-11 28-37 45-77 45C44 4 14-33 15-96c1-61 26-98 85-98zm52 81c6-60-76-77-97-28-3 7-6 17-6 28h103" id="ah"/><path d="M85-194c31 0 48 13 60 33l-1-100h32l1 261h-30c-2-10 0-23-3-31C134-8 116 4 85 4 32 4 16-35 15-94c0-66 23-100 70-100zm9 24c-40 0-46 34-46 75 0 40 6 74 45 74 42 0 51-32 51-76 0-42-9-74-50-73" id="ai"/><g id="d"><use transform="matrix(0.08024691358024691,0,0,0.08024691358024691,0,0)" xlink:href="#ae"/><use transform="matrix(0.08024691358024691,0,0,0.08024691358024691,14.444444444444443,0)" xlink:href="#ad"/><use transform="matrix(0.08024691358024691,0,0,0.08024691358024691,30.493827160493826,0)" xlink:href="#af"/><use transform="matrix(0.08024691358024691,0,0,0.08024691358024691,46.54320987654321,0)" xlink:href="#ag"/><use transform="matrix(0.08024691358024691,0,0,0.08024691358024691,56.092592592592595,0)" xlink:href="#ah"/><use transform="matrix(0.08024691358024691,0,0,0.08024691358024691,72.14197530864197,0)" xlink:href="#ai"/></g><path d="M101-234c-31-9-42 10-38 44h38v23H63V0H32v-167H5v-23h27c-7-52 17-82 69-68v24" id="aj"/><path d="M84 4C-5 8 30-112 23-190h32v120c0 31 7 50 39 49 72-2 45-101 50-169h31l1 190h-30c-1-10 1-25-2-33-11 22-28 36-60 37" id="ak"/><path d="M117-194c89-4 53 116 60 194h-32v-121c0-31-8-49-39-48C34-167 62-67 57 0H25l-1-190h30c1 10-1 24 2 32 11-22 29-35 61-36" id="al"/><path d="M96-169c-40 0-48 33-48 73s9 75 48 75c24 0 41-14 43-38l32 2c-6 37-31 61-74 61-59 0-76-41-82-99-10-93 101-131 147-64 4 7 5 14 7 22l-32 3c-4-21-16-35-41-35" id="am"/><path d="M24-231v-30h32v30H24zM24 0v-190h32V0H24" id="an"/><path d="M24 0v-261h32V0H24" id="ao"/><path d="M179-190L93 31C79 59 56 82 12 73V49c39 6 53-20 64-50L1-190h34L92-34l54-156h33" id="ap"/><g id="e"><use transform="matrix(0.08024691358024691,0,0,0.08024691358024691,0,0)" xlink:href="#aj"/><use transform="matrix(0.08024691358024691,0,0,0.08024691358024691,8.024691358024691,0)" xlink:href="#ak"/><use transform="matrix(0.08024691358024691,0,0,0.08024691358024691,24.074074074074076,0)" xlink:href="#al"/><use transform="matrix(0.08024691358024691,0,0,0.08024691358024691,40.123456790123456,0)" xlink:href="#am"/><use transform="matrix(0.08024691358024691,0,0,0.08024691358024691,54.5679012345679,0)" xlink:href="#ac"/><use transform="matrix(0.08024691358024691,0,0,0.08024691358024691,62.59259259259259,0)" xlink:href="#an"/><use transform="matrix(0.08024691358024691,0,0,0.08024691358024691,68.93209876543209,0)" xlink:href="#ab"/><use transform="matrix(0.08024691358024691,0,0,0.08024691358024691,84.98148148148145,0)" xlink:href="#al"/><use transform="matrix(0.08024691358024691,0,0,0.08024691358024691,101.03086419753085,0)" xlink:href="#af"/><use transform="matrix(0.08024691358024691,0,0,0.08024691358024691,117.08024691358023,0)" xlink:href="#ao"/><use transform="matrix(0.08024691358024691,0,0,0.08024691358024691,123.41975308641973,0)" xlink:href="#an"/><use transform="matrix(0.08024691358024691,0,0,0.08024691358024691,129.75925925925924,0)" xlink:href="#ac"/><use transform="matrix(0.08024691358024691,0,0,0.08024691358024691,137.78395061728392,0)" xlink:href="#ap"/></g><path d="M33 0v-38h34V0H33" id="aq"/><g id="f"><use transform="matrix(0.08024691358024691,0,0,0.08024691358024691,0,0)" xlink:href="#aq"/><use transform="matrix(0.08024691358024691,0,0,0.08024691358024691,8.024691358024691,0)" xlink:href="#aq"/><use transform="matrix(0.08024691358024691,0,0,0.08024691358024691,16.049382716049383,0)" xlink:href="#aq"/></g><linearGradient gradientUnits="userSpaceOnUse" id="g" x1="744.67" y1="781.42" x2="744.67" y2="821.17"><stop offset="72.83%" stop-color="#cfe4ff"/><stop offset="86.96%" stop-color="#ced4db"/></linearGradient><linearGradient gradientUnits="userSpaceOnUse" id="h" x1="841.71" y1="781.17" x2="841.71" y2="821.17"><stop offset="72.83%" stop-color="#cfe4ff"/><stop offset="86.96%" stop-color="#ced4db"/></linearGradient><path d="M30 0v-248h187v28H63v79h144v27H63v87h162V0H30" id="ar"/><g id="i"><use transform="matrix(0.06172839506172839,0,0,0.06172839506172839,0,0)" xlink:href="#ar"/><use transform="matrix(0.06172839506172839,0,0,0.06172839506172839,14.814814814814813,0)" xlink:href="#al"/><use transform="matrix(0.06172839506172839,0,0,0.06172839506172839,27.160493827160494,0)" xlink:href="#ac"/><use transform="matrix(0.06172839506172839,0,0,0.06172839506172839,33.333333333333336,0)" xlink:href="#aq"/></g><linearGradient gradientUnits="userSpaceOnUse" id="j" x1="941.81" y1="781.17" x2="941.81" y2="821.42"><stop offset="72.83%" stop-color="#cfe4ff"/><stop offset="86.96%" stop-color="#ced4db"/></linearGradient><linearGradient gradientUnits="userSpaceOnUse" id="k" x1="740" y1="700" x2="740" y2="740"><stop offset="19.29%" stop-color="#fff"/><stop offset="35%" stop-color="#c3f7c8"/></linearGradient><path d="M127-220V0H93v-220H8v-28h204v28h-85" id="as"/><path d="M143 0L79-87 56-68V0H24v-261h32v163l83-92h37l-77 82L181 0h-38" id="at"/><g id="l"><use transform="matrix(0.06172839506172839,0,0,0.06172839506172839,0,0)" xlink:href="#as"/><use transform="matrix(0.06172839506172839,0,0,0.06172839506172839,11.049382716049381,0)" xlink:href="#af"/><use transform="matrix(0.06172839506172839,0,0,0.06172839506172839,23.39506172839506,0)" xlink:href="#ae"/><use transform="matrix(0.06172839506172839,0,0,0.06172839506172839,34.50617283950617,0)" xlink:href="#at"/></g><linearGradient gradientUnits="userSpaceOnUse" id="m" x1="901.71" y1="701.17" x2="901.71" y2="741.17"><stop offset="19.29%" stop-color="#fff"/><stop offset="35%" stop-color="#c3f7c8"/></linearGradient><g id="n"><use transform="matrix(0.06172839506172839,0,0,0.06172839506172839,0,0)" xlink:href="#as"/><use transform="matrix(0.06172839506172839,0,0,0.06172839506172839,11.049382716049381,0)" xlink:href="#af"/><use transform="matrix(0.06172839506172839,0,0,0.06172839506172839,23.39506172839506,0)" xlink:href="#ae"/><use transform="matrix(0.06172839506172839,0,0,0.06172839506172839,34.50617283950617,0)" xlink:href="#at"/></g><path d="M232-93c-1 65-40 97-104 97C67 4 28-28 28-90v-158h33c8 89-33 224 67 224 102 0 64-133 71-224h33v155" id="au"/><g id="o"><use transform="matrix(0.06172839506172839,0,0,0.06172839506172839,0,0)" xlink:href="#au"/><use transform="matrix(0.06172839506172839,0,0,0.06172839506172839,15.987654320987653,0)" xlink:href="#ac"/><use transform="matrix(0.06172839506172839,0,0,0.06172839506172839,22.160493827160494,0)" xlink:href="#an"/><use transform="matrix(0.06172839506172839,0,0,0.06172839506172839,27.037037037037038,0)" xlink:href="#ao"/><use transform="matrix(0.06172839506172839,0,0,0.06172839506172839,31.913580246913586,0)" xlink:href="#an"/><use transform="matrix(0.06172839506172839,0,0,0.06172839506172839,36.79012345679013,0)" xlink:href="#ac"/><use transform="matrix(0.06172839506172839,0,0,0.06172839506172839,42.96296296296297,0)" xlink:href="#ap"/></g><g id="p"><use transform="matrix(0.08024691358024691,0,0,0.08024691358024691,0,0)" xlink:href="#aq"/><use transform="matrix(0.08024691358024691,0,0,0.08024691358024691,8.024691358024691,0)" xlink:href="#aq"/><use transform="matrix(0.08024691358024691,0,0,0.08024691358024691,16.049382716049383,0)" xlink:href="#aq"/></g><g id="q"><use transform="matrix(0.08024691358024691,0,0,0.08024691358024691,0,0)" xlink:href="#af"/><use transform="matrix(0.08024691358024691,0,0,0.08024691358024691,16.049382716049383,0)" xlink:href="#al"/><use transform="matrix(0.08024691358024691,0,0,0.08024691358024691,32.098765432098766,0)" xlink:href="#ai"/></g><g id="r"><use transform="matrix(0.08024691358024691,0,0,0.08024691358024691,0,0)" xlink:href="#ai"/><use transform="matrix(0.08024691358024691,0,0,0.08024691358024691,16.049382716049383,0)" xlink:href="#af"/><use transform="matrix(0.08024691358024691,0,0,0.08024691358024691,32.098765432098766,0)" xlink:href="#ac"/><use transform="matrix(0.08024691358024691,0,0,0.08024691358024691,40.123456790123456,0)" xlink:href="#af"/></g><g id="s"><use transform="matrix(0.08024691358024691,0,0,0.08024691358024691,0,0)" xlink:href="#am"/><use transform="matrix(0.08024691358024691,0,0,0.08024691358024691,14.444444444444443,0)" xlink:href="#af"/><use transform="matrix(0.08024691358024691,0,0,0.08024691358024691,30.493827160493826,0)" xlink:href="#al"/></g><path d="M115-194c53 0 69 39 70 98 0 66-23 100-70 100C84 3 66-7 56-30L54 0H23l1-261h32v101c10-23 28-34 59-34zm-8 174c40 0 45-34 45-75 0-40-5-75-45-74-42 0-51 32-51 76 0 43 10 73 51 73" id="av"/><g id="t"><use transform="matrix(0.08024691358024691,0,0,0.08024691358024691,0,0)" xlink:href="#av"/><use transform="matrix(0.08024691358024691,0,0,0.08024691358024691,16.049382716049383,0)" xlink:href="#ah"/></g><path d="M115-194c55 1 70 41 70 98S169 2 115 4C84 4 66-9 55-30l1 105H24l-1-265h31l2 30c10-21 28-34 59-34zm-8 174c40 0 45-34 45-75s-6-73-45-74c-42 0-51 32-51 76 0 43 10 73 51 73" id="aw"/><g id="u"><use transform="matrix(0.08024691358024691,0,0,0.08024691358024691,0,0)" xlink:href="#ai"/><use transform="matrix(0.08024691358024691,0,0,0.08024691358024691,16.049382716049383,0)" xlink:href="#ah"/><use transform="matrix(0.08024691358024691,0,0,0.08024691358024691,32.098765432098766,0)" xlink:href="#aw"/><use transform="matrix(0.08024691358024691,0,0,0.08024691358024691,48.14814814814815,0)" xlink:href="#ao"/><use transform="matrix(0.08024691358024691,0,0,0.08024691358024691,54.48765432098766,0)" xlink:href="#ab"/><use transform="matrix(0.08024691358024691,0,0,0.08024691358024691,70.53703703703704,0)" xlink:href="#ap"/><use transform="matrix(0.08024691358024691,0,0,0.08024691358024691,84.98148148148148,0)" xlink:href="#ah"/><use transform="matrix(0.08024691358024691,0,0,0.08024691358024691,101.03086419753086,0)" xlink:href="#ai"/></g><g id="v"><use transform="matrix(0.08024691358024691,0,0,0.08024691358024691,0,0)" xlink:href="#af"/><use transform="matrix(0.08024691358024691,0,0,0.08024691358024691,16.049382716049383,0)" xlink:href="#ae"/></g><g id="w"><use transform="matrix(0.08024691358024691,0,0,0.08024691358024691,0,0)" xlink:href="#ae"/><use transform="matrix(0.08024691358024691,0,0,0.08024691358024691,14.444444444444443,0)" xlink:href="#ah"/><use transform="matrix(0.08024691358024691,0,0,0.08024691358024691,30.493827160493826,0)" xlink:href="#aw"/><use transform="matrix(0.08024691358024691,0,0,0.08024691358024691,46.54320987654321,0)" xlink:href="#af"/><use transform="matrix(0.08024691358024691,0,0,0.08024691358024691,62.592592592592595,0)" xlink:href="#ag"/><use transform="matrix(0.08024691358024691,0,0,0.08024691358024691,72.14197530864197,0)" xlink:href="#af"/><use transform="matrix(0.08024691358024691,0,0,0.08024691358024691,88.19135802469135,0)" xlink:href="#ac"/><use transform="matrix(0.08024691358024691,0,0,0.08024691358024691,96.21604938271605,0)" xlink:href="#ah"/></g><path d="M108 0H70L1-190h34L89-25l56-165h34" id="ax"/><g id="x"><use transform="matrix(0.08024691358024691,0,0,0.08024691358024691,0,0)" xlink:href="#ae"/><use transform="matrix(0.08024691358024691,0,0,0.08024691358024691,14.444444444444443,0)" xlink:href="#ah"/><use transform="matrix(0.08024691358024691,0,0,0.08024691358024691,30.493827160493826,0)" xlink:href="#ag"/><use transform="matrix(0.08024691358024691,0,0,0.08024691358024691,40.04320987654321,0)" xlink:href="#ax"/><use transform="matrix(0.08024691358024691,0,0,0.08024691358024691,54.48765432098765,0)" xlink:href="#an"/><use transform="matrix(0.08024691358024691,0,0,0.08024691358024691,60.82716049382716,0)" xlink:href="#am"/><use transform="matrix(0.08024691358024691,0,0,0.08024691358024691,75.2716049382716,0)" xlink:href="#ah"/><use transform="matrix(0.08024691358024691,0,0,0.08024691358024691,91.32098765432096,0)" xlink:href="#ae"/></g><path d="M76-208v77h127v40H76V0H24v-248h183v40H76" id="ay"/><path d="M135-194c87-1 58 113 63 194h-50c-7-57 23-157-34-157-59 0-34 97-39 157H25l-1-190h47c2 12-1 28 3 38 12-26 28-41 61-42" id="az"/><path d="M23 0v-37h61v-169l-59 37v-38l62-41h46v211h57V0H23" id="aA"/><g id="y"><use transform="matrix(0.05555555555555555,0,0,0.05555555555555555,0,0)" xlink:href="#ay"/><use transform="matrix(0.05555555555555555,0,0,0.05555555555555555,12.166666666666666,0)" xlink:href="#az"/><use transform="matrix(0.05555555555555555,0,0,0.05555555555555555,24.333333333333332,0)" xlink:href="#aA"/></g><path d="M182-182c0 78-84 86-111 141h115V0H12c-6-101 99-100 120-180 1-22-12-31-33-32-23 0-32 14-35 34l-49-3c5-45 32-70 84-70 51 0 83 22 83 69" id="aB"/><g id="z"><use transform="matrix(0.05555555555555555,0,0,0.05555555555555555,0,0)" xlink:href="#ay"/><use transform="matrix(0.05555555555555555,0,0,0.05555555555555555,12.166666666666666,0)" xlink:href="#az"/><use transform="matrix(0.05555555555555555,0,0,0.05555555555555555,24.333333333333332,0)" xlink:href="#aB"/></g><linearGradient gradientUnits="userSpaceOnUse" id="A" x1="1120" y1="821.42" x2="1120" y2="700"><stop offset="10.14%" stop-color="#fff"/><stop offset="23.91%" stop-color="#cfe4ff"/><stop offset="63.41%" stop-color="#cfe4ff"/><stop offset="79.71%" stop-color="#c3f7c8"/></linearGradient><path d="M185-189c-5-48-123-54-124 2 14 75 158 14 163 119 3 78-121 87-175 55-17-10-28-26-33-46l33-7c5 56 141 63 141-1 0-78-155-14-162-118-5-82 145-84 179-34 5 7 8 16 11 25" id="aC"/><g id="B"><use transform="matrix(0.06172839506172839,0,0,0.06172839506172839,0,0)" xlink:href="#aC"/><use transform="matrix(0.06172839506172839,0,0,0.06172839506172839,14.814814814814813,0)" xlink:href="#ah"/><use transform="matrix(0.06172839506172839,0,0,0.06172839506172839,27.160493827160494,0)" xlink:href="#ag"/><use transform="matrix(0.06172839506172839,0,0,0.06172839506172839,34.50617283950617,0)" xlink:href="#ax"/><use transform="matrix(0.06172839506172839,0,0,0.06172839506172839,45.61728395061728,0)" xlink:href="#an"/><use transform="matrix(0.06172839506172839,0,0,0.06172839506172839,50.49382716049382,0)" xlink:href="#am"/><use transform="matrix(0.06172839506172839,0,0,0.06172839506172839,61.60493827160494,0)" xlink:href="#ah"/></g><linearGradient gradientUnits="userSpaceOnUse" id="C" x1="1280" y1="821.17" x2="1280" y2="699.75"><stop offset="10.14%" stop-color="#fff"/><stop offset="23.91%" stop-color="#cfe4ff"/><stop offset="63.41%" stop-color="#cfe4ff"/><stop offset="79.71%" stop-color="#c3f7c8"/></linearGradient><path d="M30-248c118-7 216 8 213 122C240-48 200 0 122 0H30v-248zM63-27c89 8 146-16 146-99s-60-101-146-95v194" id="aD"/><path d="M27 0v-27h64v-190l-56 39v-29l58-41h29v221h61V0H27" id="aE"/><g id="D"><use transform="matrix(0.06172839506172839,0,0,0.06172839506172839,0,0)" xlink:href="#aD"/><use transform="matrix(0.06172839506172839,0,0,0.06172839506172839,15.987654320987653,0)" xlink:href="#aa"/><use transform="matrix(0.06172839506172839,0,0,0.06172839506172839,30.80246913580247,0)" xlink:href="#aE"/></g><path d="M101-251c82-7 93 87 43 132L82-64C71-53 59-42 53-27h129V0H18c2-99 128-94 128-182 0-28-16-43-45-43s-46 15-49 41l-32-3c6-41 34-60 81-64" id="aF"/><g id="E"><use transform="matrix(0.06172839506172839,0,0,0.06172839506172839,0,0)" xlink:href="#aD"/><use transform="matrix(0.06172839506172839,0,0,0.06172839506172839,15.987654320987653,0)" xlink:href="#aa"/><use transform="matrix(0.06172839506172839,0,0,0.06172839506172839,30.80246913580247,0)" xlink:href="#aF"/></g><path d="M190-63c-7 42-38 67-86 67-59 0-84-38-90-98-12-110 154-137 174-36l-49 2c-2-19-15-32-35-32-30 0-35 28-38 64-6 74 65 87 74 30" id="aG"/><path d="M110-194c64 0 96 36 96 99 0 64-35 99-97 99-61 0-95-36-95-99 0-62 34-99 96-99zm-1 164c35 0 45-28 45-65 0-40-10-65-43-65-34 0-45 26-45 65 0 36 10 65 43 65" id="aH"/><path d="M85 4C-2 5 27-109 22-190h50c7 57-23 150 33 157 60-5 35-97 40-157h50l1 190h-47c-2-12 1-28-3-38-12 25-28 42-61 42" id="aI"/><path d="M115-3C79 11 28 4 28-45v-112H4v-33h27l15-45h31v45h36v33H77v99c-1 23 16 31 38 25v30" id="aJ"/><path d="M185-48c-13 30-37 53-82 52C43 2 14-33 14-96s30-98 90-98c62 0 83 45 84 108H66c0 31 8 55 39 56 18 0 30-7 34-22zm-45-69c5-46-57-63-70-21-2 6-4 13-4 21h74" id="aK"/><path d="M135-150c-39-12-60 13-60 57V0H25l-1-190h47c2 13-1 29 3 40 6-28 27-53 61-41v41" id="aL"/><g id="F"><use transform="matrix(0.05555555555555555,0,0,0.05555555555555555,0,0)" xlink:href="#aG"/><use transform="matrix(0.05555555555555555,0,0,0.05555555555555555,11.11111111111111,0)" xlink:href="#aH"/><use transform="matrix(0.05555555555555555,0,0,0.05555555555555555,23.27777777777778,0)" xlink:href="#aI"/><use transform="matrix(0.05555555555555555,0,0,0.05555555555555555,35.44444444444444,0)" xlink:href="#az"/><use transform="matrix(0.05555555555555555,0,0,0.05555555555555555,47.61111111111111,0)" xlink:href="#aJ"/><use transform="matrix(0.05555555555555555,0,0,0.05555555555555555,54.222222222222214,0)" xlink:href="#aK"/><use transform="matrix(0.05555555555555555,0,0,0.05555555555555555,65.33333333333333,0)" xlink:href="#aL"/></g><path d="M166-52c-4 17 5 29 24 23l-3 27c-30 11-74 1-67-34C105-15 91 4 56 4 23 4 3-15 2-49c0-64 63-67 128-67 10-22 3-53-29-45-13 3-22 10-25 24l-46-5c5-64 156-77 153 0-1 33-11 60-17 90zM97-88c-44-9-64 57-19 57 31 0 42-28 47-57H97" id="aM"/><g id="G"><use transform="matrix(0.0864197530864197,0,0,0.0864197530864197,0,0)" xlink:href="#M"/><use transform="matrix(0.0864197530864197,0,0,0.0864197530864197,20.74074074074073,0)" xlink:href="#Y"/><use transform="matrix(0.0864197530864197,0,0,0.0864197530864197,39.66666666666664,0)" xlink:href="#aM"/><use transform="matrix(0.0864197530864197,0,0,0.0864197530864197,56.950617283950585,0)" xlink:href="#O"/><use transform="matrix(0.0864197530864197,0,0,0.0864197530864197,69.04938271604934,0)" xlink:href="#N"/><use transform="matrix(0.0864197530864197,0,0,0.0864197530864197,86.33333333333329,0)" xlink:href="#W"/></g><path d="M250-142C247-53 197 0 108 0H6l48-248c105-5 200 3 196 106zm-49 2c1-57-42-72-103-68L66-40c84 6 135-22 135-100" id="aN"/><path d="M87-160c15-17 32-34 63-34 99 1 59 172-1 192-36 12-78 0-87-29L54 0H6l52-261h49zm71 38c0-24-5-37-29-37-46 0-55 46-57 89-1 25 12 40 35 40 44 0 51-50 51-92" id="aO"/><path d="M144-137c-1-29-70-35-71-2 16 41 103 10 103 80C176 9 79 16 32-9 18-17 9-31 4-48l44-6c3 32 80 36 82 1-15-42-103-11-103-82 0-77 157-79 161-8" id="aP"/><g id="H"><use transform="matrix(0.0864197530864197,0,0,0.0864197530864197,0,0)" xlink:href="#aN"/><use transform="matrix(0.0864197530864197,0,0,0.0864197530864197,22.382716049382704,0)" xlink:href="#aM"/><use transform="matrix(0.0864197530864197,0,0,0.0864197530864197,39.66666666666664,0)" xlink:href="#V"/><use transform="matrix(0.0864197530864197,0,0,0.0864197530864197,49.95061728395059,0)" xlink:href="#aM"/><use transform="matrix(0.0864197530864197,0,0,0.0864197530864197,67.23456790123453,0)" xlink:href="#aO"/><use transform="matrix(0.0864197530864197,0,0,0.0864197530864197,86.16049382716045,0)" xlink:href="#aM"/><use transform="matrix(0.0864197530864197,0,0,0.0864197530864197,103.44444444444441,0)" xlink:href="#aP"/><use transform="matrix(0.0864197530864197,0,0,0.0864197530864197,120.72839506172835,0)" xlink:href="#N"/></g><path d="M-13 7L90-261h42L29 7h-42" id="aQ"/><use transform="matrix(0.0864197530864197,0,0,0.0864197530864197,0,0)" xlink:href="#aQ" id="I"/><path d="M241-173c-1 82-78 91-166 86L58 0H6l48-248c87 0 188-12 187 75zm-53 2c0-43-48-36-90-36l-15 80c50 0 105 7 105-44" id="aR"/><path d="M124-194c51 0 84 22 84 74C207-44 167 4 94 4 43 4 11-23 11-74c0-74 41-120 113-120zM99-30c46 0 58-42 58-86 0-27-11-44-37-44-44 0-55 40-57 84-1 27 10 45 36 46" id="aS"/><path d="M6 0l51-261h49L55 0H6" id="aT"/><path d="M100 10C77 47 50 87-15 72l7-35c37 9 51-18 65-41L20-190h51L89-44l73-146h53" id="aU"/><path d="M45-171c29-32 103-29 114 14 2-11 5-23 8-33h47L176-2c-3 70-92 96-155 64C9 56 1 42-1 25l50-5c2 28 48 27 63 11 13-13 20-45 21-66-13 20-30 35-62 36-87 3-60-134-26-172zM94-35c41-3 55-43 55-86 0-24-12-39-35-39-43 0-51 48-51 90 0 22 9 37 31 35" id="aV"/><g id="J"><use transform="matrix(0.0864197530864197,0,0,0.0864197530864197,0,0)" xlink:href="#aR"/><use transform="matrix(0.0864197530864197,0,0,0.0864197530864197,20.74074074074073,0)" xlink:href="#aS"/><use transform="matrix(0.0864197530864197,0,0,0.0864197530864197,39.66666666666664,0)" xlink:href="#aT"/><use transform="matrix(0.0864197530864197,0,0,0.0864197530864197,48.30864197530862,0)" xlink:href="#aU"/><use transform="matrix(0.0864197530864197,0,0,0.0864197530864197,65.59259259259255,0)" xlink:href="#aV"/><use transform="matrix(0.0864197530864197,0,0,0.0864197530864197,84.51851851851848,0)" xlink:href="#aT"/><use transform="matrix(0.0864197530864197,0,0,0.0864197530864197,93.16049382716044,0)" xlink:href="#aS"/><use transform="matrix(0.0864197530864197,0,0,0.0864197530864197,112.08641975308637,0)" xlink:href="#V"/></g><g id="K"><use transform="matrix(0.0864197530864197,0,0,0.0864197530864197,0,0)" xlink:href="#aR"/><use transform="matrix(0.0864197530864197,0,0,0.0864197530864197,20.74074074074073,0)" xlink:href="#N"/><use transform="matrix(0.0864197530864197,0,0,0.0864197530864197,38.02469135802467,0)" xlink:href="#O"/><use transform="matrix(0.0864197530864197,0,0,0.0864197530864197,50.12345679012343,0)" xlink:href="#aP"/><use transform="matrix(0.0864197530864197,0,0,0.0864197530864197,67.40740740740736,0)" xlink:href="#Q"/><use transform="matrix(0.0864197530864197,0,0,0.0864197530864197,76.04938271604934,0)" xlink:href="#aP"/><use transform="matrix(0.0864197530864197,0,0,0.0864197530864197,93.33333333333329,0)" xlink:href="#V"/><use transform="matrix(0.0864197530864197,0,0,0.0864197530864197,103.61728395061724,0)" xlink:href="#N"/><use transform="matrix(0.0864197530864197,0,0,0.0864197530864197,120.90123456790118,0)" xlink:href="#U"/><use transform="matrix(0.0864197530864197,0,0,0.0864197530864197,139.8271604938271,0)" xlink:href="#R"/><use transform="matrix(0.0864197530864197,0,0,0.0864197530864197,157.11111111111106,0)" xlink:href="#N"/></g><path d="M25 0v-261h50V0H25" id="aW"/><path d="M195-6C206 82 75 100 31 46c-4-6-6-13-8-21l49-6c3 16 16 24 34 25 40 0 42-37 40-79-11 22-30 35-61 35-53 0-70-43-70-97 0-56 18-96 73-97 30 0 46 14 59 34l2-30h47zm-90-29c32 0 41-27 41-63 0-35-9-62-40-62-32 0-39 29-40 63 0 36 9 62 39 62" id="aX"/><g id="L"><use transform="matrix(0.05555555555555555,0,0,0.05555555555555555,0,0)" xlink:href="#aW"/><use transform="matrix(0.05555555555555555,0,0,0.05555555555555555,5.555555555555555,0)" xlink:href="#aH"/><use transform="matrix(0.05555555555555555,0,0,0.05555555555555555,17.72222222222222,0)" xlink:href="#aX"/><use transform="matrix(0.05555555555555555,0,0,0.05555555555555555,29.888888888888886,0)" xlink:href="#aX"/><use transform="matrix(0.05555555555555555,0,0,0.05555555555555555,42.05555555555555,0)" xlink:href="#aK"/><use transform="matrix(0.05555555555555555,0,0,0.05555555555555555,53.16666666666666,0)" xlink:href="#aL"/></g></defs></g></svg>