<svg xmlns="http://www.w3.org/2000/svg" xmlns:xlink="http://www.w3.org/1999/xlink" xmlns:lucid="lucid" width="1011.32" height="543"><g transform="translate(-530.6000000000001 -298.5)" lucid:page-tab-id="0_0"><path d="M898.8 660.55a20 20 0 0 1 20-20h79.6a20 20 0 0 1 20 20 20 20 0 0 1-20 20h-79.6a20 20 0 0 1-20-20z" stroke="#000" stroke-width="3" fill="url(#a)" transform="matrix(-1,1.2246467991473532e-16,-1.2246467991473532e-16,-1,1917.1909757365434,1321.0938271604937)"/><use xlink:href="#b" transform="matrix(1,-2.4492935982947064e-16,2.4492935982947064e-16,1,903.7990296039378,645.546913580247) translate(2.011172839506168 19.65277777777778)"/><path d="M558.23 340a20 20 0 0 1 20-20h40.48a20 20 0 0 1 20 20 20 20 0 0 1-20 20h-40.47a20 20 0 0 1-20-20z" stroke="#000" stroke-width="3" fill="url(#c)"/><path d="M538.64 420a20 20 0 0 1 20-20h240.13a20 20 0 0 1 20 20 20 20 0 0 1-20 20H558.64a20 20 0 0 1-20-20z" stroke="#000" stroke-width="3" fill="#c3f7c8"/><use xlink:href="#d" transform="matrix(1,0,0,1,543.6386270718256,405) translate(75.35376543209875 21.430555555555557)"/><path d="M538.4 660a20 20 0 0 1 20-20H638a20 20 0 0 1 20 20 20 20 0 0 1-20 20h-79.6a20 20 0 0 1-20-20z" stroke="#000" stroke-width="3" fill="url(#e)" transform="matrix(-1,1.2246467991473532e-16,-1.2246467991473532e-16,-1,1196.4070834713325,1320)"/><use xlink:href="#b" transform="matrix(1,-2.4492935982947064e-16,2.4492935982947064e-16,1,543.4070834713324,645.0000000000001) translate(2.011172839506168 19.65277777777778)"/><path d="M699 660a20 20 0 0 1 20-20h79.6a20 20 0 0 1 20 20 20 20 0 0 1-20 20H719a20 20 0 0 1-20-20z" stroke="#000" stroke-width="3" fill="url(#f)" transform="matrix(-1,1.2246467991473532e-16,-1.2246467991473532e-16,-1,1517.6237617973375,1320)"/><use xlink:href="#g" transform="matrix(1,-2.4492935982947064e-16,2.4492935982947064e-16,1,704.0154226343349,645) translate(32.81364197530864 19.65277777777778)"/><path d="M718.23 340a20 20 0 0 1 20-20h40a20 20 0 0 1 20 20 20 20 0 0 1-20 20h-40a20 20 0 0 1-20-20z" stroke="#000" stroke-width="3" fill="url(#h)"/><path d="M698.23 320a20 20 0 0 1 20-20h80a20 20 0 0 1 20 20 20 20 0 0 1-20 20h-80a20 20 0 0 1-20-20z" stroke="#cc4e00" stroke-width="3" fill="#fff"/><use xlink:href="#i" transform="matrix(1,0,0,1,703.2315436004932,305) translate(4.41858024691358 19.65277777777778)"/><use xlink:href="#j" transform="matrix(1,0,0,1,703.2315436004932,305) translate(69.78895061728394 19.65277777777778)"/><path d="M538.87 320a20 20 0 0 1 20-20h79.36a20 20 0 0 1 20 20 20 20 0 0 1-20 20h-79.36a20 20 0 0 1-20-20z" stroke="#cc4e00" stroke-width="3" fill="#fff"/><use xlink:href="#k" transform="matrix(1,0,0,1,543.8701706723189,305) translate(4.665493827160498 19.71527777777778)"/><use xlink:href="#j" transform="matrix(1,0,0,1,543.8701706723189,305) translate(69.54203703703703 19.71527777777778)"/><path d="M598.48 362.5l.25 18.63" stroke="#000" stroke-width="2" fill="none"/><path d="M599.46 362.5l-1.95.04v-1.04h1.95z" stroke="#000" stroke-width=".05"/><path d="M598.93 396.4l-4.82-14.2 9.27-.14z" stroke="#000" stroke-width="2"/><path d="M760.25 362.5v18.62" stroke="#000" stroke-width="2" fill="none"/><path d="M761.22 362.53h-1.95v-1.03h1.95z" stroke="#000" stroke-width=".05"/><path d="M760.25 396.4l-4.64-14.28h9.28z" stroke="#000" stroke-width="2"/><path d="M538.4 500.8a20 20 0 0 1 20-20h240.14a20 20 0 0 1 20 20V580a20 20 0 0 1-20 20H558.4a20 20 0 0 1-20-20z" stroke="#008a0e" stroke-width="3" fill="#cfe4ff"/><use xlink:href="#l" transform="matrix(1,0,0,1,543.4070834713325,485.79999999999995) translate(93.50308641975307 60.80555555555556)"/><path d="M778 442.5V620" stroke="#000" stroke-width="2" fill="none"/><path d="M778.98 442.53H777v-1.03H779z" stroke="#000" stroke-width=".05"/><path d="M778 635.26L773.37 621h9.26z" stroke="#000" stroke-width="2"/><path d="M557.92 442.45v177.58" stroke="#000" stroke-width="2" fill="none"/><path d="M558.58 441.5h.32v.97h-1.95v-1.1z" stroke="#000" stroke-width=".05"/><path d="M557.92 635.3l-4.63-14.27h9.26z" stroke="#000" stroke-width="2"/><path d="M598 442.5v18.3" stroke="#008a0e" stroke-width="2" fill="none"/><path d="M598.98 442.53H597v-1.03H599z" stroke="#008a0e" stroke-width=".05" fill="#008a0e"/><path d="M598 476.06l-4.63-14.26h9.26z" stroke="#008a0e" stroke-width="2" fill="#008a0e"/><path d="M538.64 746a6 6 0 0 1 6-6h267.9a6 6 0 0 1 6 6v88a6 6 0 0 1-6 6h-267.9a6 6 0 0 1-6-6z" stroke="#000" stroke-opacity="0" stroke-width="3" fill="#fff" fill-opacity="0"/><use xlink:href="#m" transform="matrix(1,0,0,1,543.6386270718257,745) translate(26.604938271604993 31.256944444444436)"/><use xlink:href="#n" transform="matrix(1,0,0,1,543.6386270718257,745) translate(166.6543209876543 31.256944444444436)"/><use xlink:href="#o" transform="matrix(1,0,0,1,543.6386270718257,745) translate(52.28395061728399 73.92361111111109)"/><path d="M918.16 340a20 20 0 0 1 20-20h40.48a20 20 0 0 1 20 20 20 20 0 0 1-20 20h-40.48a20 20 0 0 1-20-20z" stroke="#000" stroke-width="3" fill="url(#p)"/><path d="M898.57 420a20 20 0 0 1 20-20h240.13a20 20 0 0 1 20 20 20 20 0 0 1-20 20H918.57a20 20 0 0 1-20-20z" stroke="#000" stroke-width="3" fill="#c3f7c8"/><use xlink:href="#d" transform="matrix(1,0,0,1,903.5674860034449,405) translate(75.35376543209875 21.430555555555557)"/><path d="M1058.94 660a20 20 0 0 1 20-20h79.6a20 20 0 0 1 20 20 20 20 0 0 1-20 20h-79.6a20 20 0 0 1-20-20z" stroke="#000" stroke-width="3" fill="url(#q)" transform="matrix(-1,1.2246467991473532e-16,-1.2246467991473532e-16,-1,2237.481479660576,1320)"/><use xlink:href="#g" transform="matrix(1,-2.4492935982947064e-16,2.4492935982947064e-16,1,1063.9442815659545,645) translate(32.81364197530864 19.65277777777778)"/><path d="M1078.16 340a20 20 0 0 1 20-20h40a20 20 0 0 1 20 20 20 20 0 0 1-20 20h-40a20 20 0 0 1-20-20z" stroke="#000" stroke-width="3" fill="url(#r)"/><path d="M1058.16 320a20 20 0 0 1 20-20h80a20 20 0 0 1 20 20 20 20 0 0 1-20 20h-80a20 20 0 0 1-20-20z" stroke="#cc4e00" stroke-width="3" fill="#fff"/><use xlink:href="#i" transform="matrix(1,0,0,1,1063.1604025321124,305) translate(4.41858024691358 19.65277777777778)"/><use xlink:href="#j" transform="matrix(1,0,0,1,1063.1604025321124,305) translate(69.78895061728394 19.65277777777778)"/><path d="M898.8 320a20 20 0 0 1 20-20h79.36a20 20 0 0 1 20 20 20 20 0 0 1-20 20H918.8a20 20 0 0 1-20-20z" stroke="#cc4e00" stroke-width="3" fill="#fff"/><use xlink:href="#k" transform="matrix(1,0,0,1,903.7990296039379,305) translate(4.665493827160498 19.71527777777778)"/><use xlink:href="#j" transform="matrix(1,0,0,1,903.7990296039379,305) translate(69.54203703703703 19.71527777777778)"/><path d="M958.4 362.5l.25 18.63" stroke="#000" stroke-width="2" fill="none"/><path d="M959.4 362.5l-1.96.04-.02-1.04h1.95z" stroke="#000" stroke-width=".05"/><path d="M958.86 396.4l-4.83-14.2 9.27-.14z" stroke="#000" stroke-width="2"/><path d="M1120.18 362.5v18.62" stroke="#000" stroke-width="2" fill="none"/><path d="M1121.15 362.53h-1.95v-1.03h1.95z" stroke="#000" stroke-width=".05"/><path d="M1120.18 396.4l-4.64-14.28h9.27z" stroke="#000" stroke-width="2"/><path d="M898.34 500a20 20 0 0 1 20-20h240.13a20 20 0 0 1 20 20v80a20 20 0 0 1-20 20H918.34a20 20 0 0 1-20-20z" stroke="#000" stroke-width="3" fill="#cfe4ff"/><use xlink:href="#l" transform="matrix(1,0,0,1,903.3359424029516,485) translate(93.50308641975307 60.80555555555556)"/><path d="M1140.17 442.5l-.2 177.5" stroke="#000" stroke-width="2" fill="none"/><path d="M1141.14 442.53h-1.95v-1.03h1.94z" stroke="#000" stroke-width=".05"/><path d="M1139.94 635.26l-4.62-14.27h9.27z" stroke="#000" stroke-width="2"/><path d="M920.17 442.5l-.2 177.5" stroke="#000" stroke-width="2" fill="none"/><path d="M921.14 442.53h-1.95v-1.03h1.94z" stroke="#000" stroke-width=".05"/><path d="M919.94 635.26L915.32 621h9.27z" stroke="#000" stroke-width="2"/><path d="M959.84 442.5V460" stroke="#000" stroke-width="2" fill="none"/><path d="M960.8 442.53h-1.94v-1.03h1.95z" stroke="#000" stroke-width=".05"/><path d="M959.84 475.26L955.2 461h9.27z" stroke="#000" stroke-width="2"/><path d="M898.26 746a6 6 0 0 1 6-6h267.9a6 6 0 0 1 6 6v88a6 6 0 0 1-6 6h-267.9a6 6 0 0 1-6-6z" stroke="#000" stroke-opacity="0" stroke-width="3" fill="#fff" fill-opacity="0"/><use xlink:href="#s" transform="matrix(1,0,0,1,903.2615916194071,745) translate(5.864197530864232 31.256944444444436)"/><use xlink:href="#n" transform="matrix(1,0,0,1,903.2615916194071,745) translate(187.39506172839504 31.256944444444436)"/><use xlink:href="#o" transform="matrix(1,0,0,1,903.2615916194071,745) translate(52.28395061728399 73.92361111111109)"/><path d="M998.84 602.5v18.08" stroke="#000" stroke-width="2" fill="none"/><path d="M999.8 602.53h-1.94v-1.03h1.95z" stroke="#000" stroke-width=".05"/><path d="M998.84 635.84l-4.64-14.26h9.27z" stroke="#000" stroke-width="2"/><path d="M1279.65 340a20 20 0 0 1 20-20h40.48a20 20 0 0 1 20 20 20 20 0 0 1-20 20h-40.48a20 20 0 0 1-20-20z" stroke="#000" stroke-width="3" fill="url(#t)"/><path d="M1260.06 420a20 20 0 0 1 20-20h240.13a20 20 0 0 1 20 20 20 20 0 0 1-20 20h-240.14a20 20 0 0 1-20-20z" stroke="#000" stroke-width="3" fill="#c3f7c8"/><use xlink:href="#d" transform="matrix(1,0,0,1,1265.056003729654,405) translate(75.35376543209875 21.430555555555557)"/><path d="M1259.82 660a20 20 0 0 1 20-20h79.6a20 20 0 0 1 20 20 20 20 0 0 1-20 20h-79.6a20 20 0 0 1-20-20z" stroke="#000" stroke-width="3" fill="url(#u)" transform="matrix(-1,1.2246467991473532e-16,-1.2246467991473532e-16,-1,2639.241836786989,1320)"/><use xlink:href="#b" transform="matrix(1,-2.4492935982947064e-16,2.4492935982947064e-16,1,1264.824460129161,644.9999999999999) translate(2.011172839506168 19.65277777777778)"/><path d="M1420.43 660a20 20 0 0 1 20-20h79.6a20 20 0 0 1 20 20 20 20 0 0 1-20 20h-79.6a20 20 0 0 1-20-20z" stroke="#000" stroke-width="3" fill="url(#v)" transform="matrix(-1,1.2246467991473532e-16,-1.2246467991473532e-16,-1,2960.4585151129945,1319.9999999999998)"/><use xlink:href="#g" transform="matrix(1,-2.4492935982947064e-16,2.4492935982947064e-16,1,1425.4327992921637,645.0000000000001) translate(32.81364197530864 19.65277777777778)"/><path d="M1439.65 340a20 20 0 0 1 20-20h40a20 20 0 0 1 20 20 20 20 0 0 1-20 20h-40a20 20 0 0 1-20-20z" stroke="#000" stroke-width="3" fill="url(#w)"/><path d="M1419.65 320a20 20 0 0 1 20-20h80a20 20 0 0 1 20 20 20 20 0 0 1-20 20h-80a20 20 0 0 1-20-20z" stroke="#cc4e00" stroke-width="3" fill="#fff"/><use xlink:href="#i" transform="matrix(1,0,0,1,1424.6489202583216,305) translate(4.41858024691358 19.65277777777778)"/><use xlink:href="#j" transform="matrix(1,0,0,1,1424.6489202583216,305) translate(69.78895061728394 19.65277777777778)"/><path d="M1260.3 320a20 20 0 0 1 20-20h79.35a20 20 0 0 1 20 20 20 20 0 0 1-20 20h-79.36a20 20 0 0 1-20-20z" stroke="#cc4e00" stroke-width="3" fill="#fff"/><use xlink:href="#k" transform="matrix(1,0,0,1,1265.2875473301474,305) translate(4.665493827160498 19.71527777777778)"/><use xlink:href="#j" transform="matrix(1,0,0,1,1265.2875473301474,305) translate(69.54203703703703 19.71527777777778)"/><path d="M1319.9 362.5l.24 18.63" stroke="#000" stroke-width="2" fill="none"/><path d="M1320.88 362.5l-1.95.04-.02-1.04h1.96z" stroke="#000" stroke-width=".05"/><path d="M1320.34 396.4l-4.82-14.2 9.27-.14z" stroke="#000" stroke-width="2"/><path d="M1481.67 362.5v18.62" stroke="#000" stroke-width="2" fill="none"/><path d="M1482.64 362.53h-1.95v-1.03h1.94z" stroke="#000" stroke-width=".05"/><path d="M1481.67 396.4l-4.64-14.28h9.27z" stroke="#000" stroke-width="2"/><path d="M1260.3 580a20 20 0 0 1 20-20h239.12a20 20 0 0 1 20 20 20 20 0 0 1-20 20H1280.3a20 20 0 0 1-20-20z" stroke="#008a0e" stroke-width="3" fill="#cfe4ff"/><use xlink:href="#x" transform="matrix(1,0,0,1,1265.2875473301474,565) translate(108.80864197530862 21.430555555555557)"/><use xlink:href="#y" transform="matrix(1,0,0,1,1265.2875473301474,565) translate(199.5925925925926 21.430555555555557)"/><path d="M1280.57 442.5V460" stroke="#000" stroke-width="2" fill="none"/><path d="M1280 441.5h1.54v1.03h-1.95v-1.06z" stroke="#000" stroke-width=".05"/><path d="M1280.57 475.26l-4.64-14.26h9.27z" stroke="#000" stroke-width="2"/><path d="M1259.2 746a6 6 0 0 1 6-6h267.9a6 6 0 0 1 6 6v88a6 6 0 0 1-6 6h-267.9a6 6 0 0 1-6-6z" stroke="#000" stroke-opacity="0" stroke-width="3" fill="#fff" fill-opacity="0"/><use xlink:href="#z" transform="matrix(1,0,0,1,1264.2126713610855,745) translate(83.79012345679014 31.256944444444436)"/><use xlink:href="#A" transform="matrix(1,0,0,1,1264.2126713610855,745) translate(30.555555555555586 73.92361111111109)"/><path d="M938.34 638.05V620" stroke="#000" stroke-width="2" fill="none"/><path d="M939.3 638.02v1.03h-1.94v-1.03z" stroke="#000" stroke-width=".05"/><path d="M938.34 604.74l4.63 14.26h-9.27z" stroke="#000" stroke-width="2"/><path d="M578 637.5V620" stroke="#008a0e" stroke-width="2" fill="none"/><path d="M578.98 637.47v1.03H577v-1.03z" stroke="#008a0e" stroke-width=".05" fill="#008a0e"/><path d="M578 604.74l4.63 14.26h-9.26z" stroke="#008a0e" stroke-width="2" fill="#008a0e"/><path d="M1260.3 500a20 20 0 0 1 20-20h240.12a20 20 0 0 1 20 20 20 20 0 0 1-20 20H1280.3a20 20 0 0 1-20-20z" stroke="#000" stroke-width="3" fill="#cfe4ff"/><use xlink:href="#x" transform="matrix(1,0,0,1,1265.2875473301474,485) translate(82.64814814814811 21.430555555555557)"/><use xlink:href="#B" transform="matrix(1,0,0,1,1265.2875473301474,485) translate(173.4320987654321 21.430555555555557)"/><path d="M1280 521v99M1280 521.03V520" stroke="#000" stroke-width="2" fill="none"/><path d="M1280 635.26l-4.63-14.26h9.27z" stroke="#000" stroke-width="2"/><path d="M1301 637.5V620" stroke="#008a0e" stroke-width="2" fill="none"/><path d="M1301.97 637.47v1.03h-1.94v-1.03z" stroke="#008a0e" stroke-width=".05" fill="#008a0e"/><path d="M1301 604.74l4.63 14.26h-9.27z" stroke="#008a0e" stroke-width="2" fill="#008a0e"/><path d="M1500 442.5V620" stroke="#000" stroke-width="2" fill="none"/><path d="M1500.97 442.53h-1.94v-1.03h1.94z" stroke="#000" stroke-width=".05"/><path d="M1500 635.26l-4.63-14.26h9.27z" stroke="#000" stroke-width="2"/><path d="M537.6 639.2a6 6 0 0 1-6-6v-28a6 6 0 0 1 6-6h8a6 6 0 0 1 6 6v28a6 6 0 0 1-6 6z" stroke="#000" stroke-opacity="0" stroke-width="2" fill="#fff" fill-opacity="0"/><use xlink:href="#C" transform="matrix(6.123233995736766e-17,-1,1,6.123233995736766e-17,536.6000000000001,634.2) translate(-3.740740740740737 14.222222222222221)"/><path d="M897.04 637.6a6 6 0 0 1-6-6v-28a6 6 0 0 1 6-6h8a6 6 0 0 1 6 6v28a6 6 0 0 1-6 6z" stroke="#000" stroke-opacity="0" stroke-width="2" fill="#fff" fill-opacity="0"/><use xlink:href="#C" transform="matrix(6.123233995736766e-17,-1,1,6.123233995736766e-17,896.0359424029518,632.6000000000001) translate(-3.740740740740737 14.222222222222221)"/><path d="M1259.5 639.2a6 6 0 0 1-6-6v-28a6 6 0 0 1 6-6h8a6 6 0 0 1 6 6v28a6 6 0 0 1-6 6z" stroke="#000" stroke-opacity="0" stroke-width="2" fill="#fff" fill-opacity="0"/><use xlink:href="#C" transform="matrix(6.123233995736766e-17,-1,1,6.123233995736766e-17,1258.5000000000005,634.2000000000003) translate(-3.740740740740737 14.222222222222221)"/><path d="M1361.6 638.95a6 6 0 0 1-6-6v-28a6 6 0 0 1 6-6h8a6 6 0 0 1 6 6v28a6 6 0 0 1-6 6z" stroke="#000" stroke-opacity="0" stroke-width="2" fill="#fff" fill-opacity="0"/><use xlink:href="#D" transform="matrix(6.123233995736766e-17,-1,1,6.123233995736766e-17,1360.6000000000004,633.9469135802472) translate(-4.753086419753082 14.222222222222221)"/><path d="M602.3 480a6 6 0 0 1-6-6v-28a6 6 0 0 1 6-6h8a6 6 0 0 1 6 6v28a6 6 0 0 1-6 6z" stroke="#000" stroke-opacity="0" stroke-width="2" fill="#fff" fill-opacity="0"/><use xlink:href="#E" transform="matrix(6.123233995736766e-17,-1,1,6.123233995736766e-17,601.3000000000004,474.9999999999998) translate(0.7283950617283974 14.222222222222221)"/><path d="M963.24 480a6 6 0 0 1-6-6v-28a6 6 0 0 1 6-6h8a6 6 0 0 1 6 6v28a6 6 0 0 1-6 6z" stroke="#000" stroke-opacity="0" stroke-width="2" fill="#fff" fill-opacity="0"/><use xlink:href="#E" transform="matrix(6.123233995736766e-17,-1,1,6.123233995736766e-17,962.2371647924342,475) translate(0.7283950617283974 14.222222222222221)"/><path d="M1259.15 480a6 6 0 0 1-6-6v-28a6 6 0 0 1 6-6h8a6 6 0 0 1 6 6v28a6 6 0 0 1-6 6z" stroke="#000" stroke-opacity="0" stroke-width="2" fill="#fff" fill-opacity="0"/><use xlink:href="#F" transform="matrix(6.123233995736766e-17,-1,1,6.123233995736766e-17,1258.1489202583216,474.9999999999998) translate(-3.2222222222222214 14.222222222222221)"/><path d="M1325.1 560a6 6 0 0 1-6-6v-28a6 6 0 0 1 6-6h8a6 6 0 0 1 6 6v28a6 6 0 0 1-6 6z" stroke="#000" stroke-opacity="0" stroke-width="2" fill="#fff" fill-opacity="0"/><use xlink:href="#E" transform="matrix(6.123233995736766e-17,-1,1,6.123233995736766e-17,1324.1000000000004,555) translate(0.7283950617283974 14.222222222222221)"/><path d="M780.35 640a6 6 0 0 1-6-6v-28a6 6 0 0 1 6-6h8a6 6 0 0 1 6 6v28a6 6 0 0 1-6 6z" stroke="#000" stroke-opacity="0" stroke-width="2" fill="#fff" fill-opacity="0"/><use xlink:href="#G" transform="matrix(6.123233995736766e-17,-1,1,6.123233995736766e-17,779.3500000000001,635.0000000000002) translate(-3.691358024691354 14.222222222222221)"/><path d="M1144.34 638.95a6 6 0 0 1-6-6v-28a6 6 0 0 1 6-6h8a6 6 0 0 1 6 6v28a6 6 0 0 1-6 6z" stroke="#000" stroke-opacity="0" stroke-width="2" fill="#fff" fill-opacity="0"/><use xlink:href="#G" transform="matrix(6.123233995736766e-17,-1,1,6.123233995736766e-17,1143.3359424029518,633.9469135802472) translate(-3.691358024691354 14.222222222222221)"/><path d="M1506 640a6 6 0 0 1-6-6v-28a6 6 0 0 1 6-6h8a6 6 0 0 1 6 6v28a6 6 0 0 1-6 6z" stroke="#000" stroke-opacity="0" stroke-width="2" fill="#fff" fill-opacity="0"/><use xlink:href="#G" transform="matrix(6.123233995736766e-17,-1,1,6.123233995736766e-17,1505,635) translate(-3.691358024691354 14.222222222222221)"/><path d="M576.3 580h62.4v18.95h-62.4z" stroke="#ffe342" stroke-width="3" fill="#ffe342"/><path d="M640.1 639.1a6 6 0 0 1-6-6v-28a6 6 0 0 1 6-6h8a6 6 0 0 1 6 6v28a6 6 0 0 1-6 6z" stroke="#000" stroke-opacity="0" stroke-width="2" fill="#fff" fill-opacity="0"/><use xlink:href="#D" transform="matrix(6.123233995736766e-17,-1,1,6.123233995736766e-17,639.1000000000008,634.1000000000001) translate(-4.753086419753082 14.222222222222221)"/><path d="M638 442.5V620" stroke="#000" stroke-width="2" fill="none"/><path d="M638.98 442.53H637v-1.03H639z" stroke="#000" stroke-width=".05"/><path d="M638 635.26L633.37 621h9.26z" stroke="#000" stroke-width="2"/><path d="M586.9 589.88c0 5.52-4.48 10-10 10s-10-4.48-10-10 4.48-10 10-10 10 4.48 10 10z" stroke="#fc9432" stroke-width="3" fill="#ffe342"/><path d="M935.84 579.5h62.8v18.95h-62.8z" stroke="#ffe342" stroke-width="3" fill="#ffe342"/><path d="M948.34 589c0 5.52-4.48 10-10 10-5.53 0-10-4.48-10-10s4.47-10 10-10c5.52 0 10 4.48 10 10z" stroke="#fc9432" stroke-width="3" fill="#ffe342"/><path d="M941.84 637.08a6 6 0 0 1-6-6v-28a6 6 0 0 1 6-6h8a6 6 0 0 1 6 6v28a6 6 0 0 1-6 6z" stroke="#000" stroke-opacity="0" stroke-width="2" fill="#fff" fill-opacity="0"/><use xlink:href="#H" transform="matrix(6.123233995736766e-17,-1,1,6.123233995736766e-17,940.8359424029516,632.083950617284) translate(-7.716049382716044 14.222222222222221)"/><path d="M582.3 635.2a6 6 0 0 1-6-6v-28a6 6 0 0 1 6-6h8a6 6 0 0 1 6 6v28a6 6 0 0 1-6 6z" stroke="#000" stroke-opacity="0" stroke-width="2" fill="#fff" fill-opacity="0"/><use xlink:href="#H" transform="matrix(6.123233995736766e-17,-1,1,6.123233995736766e-17,581.3000000000004,630.2) translate(-7.716049382716044 14.222222222222221)"/><path d="M1299.65 580.4h60.48v18.95h-60.48z" stroke="#ffe342" stroke-width="3" fill="#ffe342"/><path d="M1310 589.5c0 5.52-4.48 10-10 10s-10-4.48-10-10 4.48-10 10-10 10 4.48 10 10z" stroke="#fc9432" stroke-width="3" fill="#ffe342"/><path d="M1305.1 635.48a6 6 0 0 1-6-6v-28a6 6 0 0 1 6-6h8a6 6 0 0 1 6 6v28a6 6 0 0 1-6 6z" stroke="#000" stroke-opacity="0" stroke-width="2" fill="#fff" fill-opacity="0"/><use xlink:href="#H" transform="matrix(6.123233995736766e-17,-1,1,6.123233995736766e-17,1304.1000000000004,630.4839506172841) translate(-7.716049382716044 14.222222222222221)"/><path d="M596.5 480.8a1.5 1.5 0 0 1 1.5-1.5 1.5 1.5 0 0 1 1.5 1.5 1.5 1.5 0 0 1-1.5 1.5 1.5 1.5 0 0 1-1.5-1.5m0 5.94a1.5 1.5 0 0 1 1.5-1.5 1.5 1.5 0 0 1 1.5 1.5 1.5 1.5 0 0 1-1.5 1.5 1.5 1.5 0 0 1-1.5-1.5v-.03m0 5.97a1.5 1.5 0 0 1 1.5-1.5 1.5 1.5 0 0 1 1.5 1.5 1.5 1.5 0 0 1-1.5 1.5 1.5 1.5 0 0 1-1.5-1.5v-.03m0 5.96a1.5 1.5 0 0 1 1.5-1.5 1.5 1.5 0 0 1 1.5 1.5 1.5 1.5 0 0 1-1.5 1.5 1.5 1.5 0 0 1-1.5-1.5v-.03m0 5.96a1.5 1.5 0 0 1 1.5-1.5 1.5 1.5 0 0 1 1.5 1.5 1.5 1.5 0 0 1-1.5 1.5 1.5 1.5 0 0 1-1.5-1.5v-.03m0 5.96a1.5 1.5 0 0 1 1.5-1.5 1.5 1.5 0 0 1 1.5 1.5 1.5 1.5 0 0 1-1.5 1.5 1.5 1.5 0 0 1-1.5-1.5v-.03m0 5.96v-.02a1.5 1.5 0 0 1 1.5-1.5 1.5 1.5 0 0 1 1.5 1.5 1.5 1.5 0 0 1-1.5 1.5 1.5 1.5 0 0 1-1.5-1.5v-.02m0 5.96v-.02a1.5 1.5 0 0 1 1.5-1.5 1.5 1.5 0 0 1 1.5 1.5 1.5 1.5 0 0 1-1.5 1.5 1.5 1.5 0 0 1-1.5-1.5m0 5.95v-.02a1.5 1.5 0 0 1 1.5-1.5 1.5 1.5 0 0 1 1.5 1.5 1.5 1.5 0 0 1-1.5 1.5 1.5 1.5 0 0 1-1.5-1.5m0 5.95v-.02a1.5 1.5 0 0 1 1.5-1.5 1.5 1.5 0 0 1 1.5 1.5 1.5 1.5 0 0 1-1.5 1.5 1.5 1.5 0 0 1-1.5-1.5m0 5.95a1.5 1.5 0 0 1 1.5-1.5 1.5 1.5 0 0 1 1.5 1.5 1.5 1.5 0 0 1-1.5 1.5 1.5 1.5 0 0 1-1.5-1.5v-.02m0 5.96v-.02a1.5 1.5 0 0 1 1.5-1.5 1.5 1.5 0 0 1 1.5 1.5 1.5 1.5 0 0 1-1.5 1.5 1.5 1.5 0 0 1-1.5-1.5m0 5.95v-.02a1.5 1.5 0 0 1 1.5-1.5 1.5 1.5 0 0 1 1.5 1.5 1.5 1.5 0 0 1-1.5 1.5 1.5 1.5 0 0 1-1.5-1.5m0 5.94v-.02a1.5 1.5 0 0 1 1.5-1.5 1.5 1.5 0 0 1 1.5 1.5 1.5 1.5 0 0 1-1.5 1.5 1.5 1.5 0 0 1-1.5-1.5" fill="#fc9432"/><path d="M599.48 480.84h-2.96v-1.54h2.96z" stroke="#fc9432" stroke-width=".05" fill="#fc9432"/><path d="M598 573.65l-4.63-14.27h9.26z" stroke="#fc9432" stroke-width="3" fill="#fff"/><path d="M959.56 481.1v-.02a1.5 1.5 0 0 1 1.5-1.5 1.5 1.5 0 0 1 1.5 1.5 1.5 1.5 0 0 1-1.5 1.5 1.5 1.5 0 0 1-1.5-1.5m-.08 5.88a1.5 1.5 0 0 1 1.5-1.5 1.5 1.5 0 0 1 1.5 1.5 1.5 1.5 0 0 1-1.5 1.5 1.5 1.5 0 0 1-1.5-1.5v-.02m-.1 5.9v-.02a1.5 1.5 0 0 1 1.5-1.5 1.5 1.5 0 0 1 1.5 1.5 1.5 1.5 0 0 1-1.5 1.5 1.5 1.5 0 0 1-1.5-1.5v-.02m-.07 5.9a1.5 1.5 0 0 1 1.5-1.5 1.5 1.5 0 0 1 1.5 1.5 1.5 1.5 0 0 1-1.5 1.5 1.5 1.5 0 0 1-1.5-1.5v-.03m-.08 5.9a1.5 1.5 0 0 1 1.5-1.5 1.5 1.5 0 0 1 1.5 1.5 1.5 1.5 0 0 1-1.5 1.5 1.5 1.5 0 0 1-1.5-1.5v-.03m-.08 5.9a1.5 1.5 0 0 1 1.5-1.5 1.5 1.5 0 0 1 1.5 1.5 1.5 1.5 0 0 1-1.5 1.5 1.5 1.5 0 0 1-1.5-1.5v-.03m-.08 5.9a1.5 1.5 0 0 1 1.5-1.5 1.5 1.5 0 0 1 1.5 1.5 1.5 1.5 0 0 1-1.5 1.5 1.5 1.5 0 0 1-1.5-1.5v-.02m-.1 5.9a1.5 1.5 0 0 1 1.5-1.5 1.5 1.5 0 0 1 1.5 1.5 1.5 1.5 0 0 1-1.5 1.5 1.5 1.5 0 0 1-1.5-1.5v-.03m-.07 5.9a1.5 1.5 0 0 1 1.5-1.5 1.5 1.5 0 0 1 1.5 1.5 1.5 1.5 0 0 1-1.5 1.5 1.5 1.5 0 0 1-1.5-1.5V528m-.1 5.9a1.5 1.5 0 0 1 1.5-1.5 1.5 1.5 0 0 1 1.5 1.5 1.5 1.5 0 0 1-1.5 1.5 1.5 1.5 0 0 1-1.5-1.5v-.03m-.08 5.9v-.03a1.5 1.5 0 0 1 1.5-1.5 1.5 1.5 0 0 1 1.5 1.5 1.5 1.5 0 0 1-1.5 1.5 1.5 1.5 0 0 1-1.5-1.5m-.08 5.9v-.03a1.5 1.5 0 0 1 1.5-1.5 1.5 1.5 0 0 1 1.5 1.5 1.5 1.5 0 0 1-1.5 1.5 1.5 1.5 0 0 1-1.5-1.5m-.1 5.9v-.03a1.5 1.5 0 0 1 1.5-1.5 1.5 1.5 0 0 1 1.5 1.5 1.5 1.5 0 0 1-1.5 1.5 1.5 1.5 0 0 1-1.5-1.5" fill="#fc9432"/><path d="M959.7 478.85l.8.5.88.36.92.23.25.02-.02 1.2-2.95-.05.04-2.33z" stroke="#fc9432" stroke-width=".05" fill="#fc9432"/><path d="M959.75 573.15l-4.43-14.33 9.26.13z" stroke="#fc9432" stroke-width="3" fill="#fff"/><path d="M1319 560a1.5 1.5 0 0 1 1.5-1.5 1.5 1.5 0 0 1 1.5 1.5 1.5 1.5 0 0 1-1.5 1.5 1.5 1.5 0 0 1-1.5-1.5" fill="#fc9432"/><path d="M1321.97 560.04h-2.94v-1.54h2.94z" stroke="#fc9432" stroke-width=".05" fill="#fc9432"/><path d="M1320.5 574.05l-4.64-14.26h9.28z" stroke="#fc9432" stroke-width="3" fill="#fff"/><path d="M1320 441l.42 99M1320 441.03V440" stroke="#008a0e" stroke-width="2" fill="none"/><path d="M1320.5 555.26l-4.7-14.24 9.26-.04z" stroke="#008a0e" stroke-width="2" fill="#008a0e"/><path d="M1361 442.5V460" stroke="#000" stroke-width="2" fill="none"/><path d="M1361.97 442.53h-1.94v-1.03h1.94z" stroke="#000" stroke-width=".05"/><path d="M1361 475.26l-4.63-14.26h9.27z" stroke="#000" stroke-width="2"/><path d="M1363.6 479.5a6 6 0 0 1-6-6v-28a6 6 0 0 1 6-6h8a6 6 0 0 1 6 6v28a6 6 0 0 1-6 6z" stroke="#000" stroke-opacity="0" stroke-width="2" fill="#fff" fill-opacity="0"/><use xlink:href="#D" transform="matrix(6.123233995736766e-17,-1,1,6.123233995736766e-17,1362.6000000000001,474.5) translate(-4.753086419753082 14.222222222222221)"/><path d="M658 700a20 20 0 0 1-20 20h-79.52a20 20 0 0 1-20-20 20 20 0 0 1 20-20H638a20 20 0 0 1 20 20z" stroke="#cc4e00" stroke-width="3" fill="#ced4db"/><use xlink:href="#I" transform="matrix(1,-2.4492935982947064e-16,2.4492935982947064e-16,1,543.4779846498042,685.0000000000001) translate(7.504999999999997 19.65277777777778)"/><path d="M818.54 700a20 20 0 0 1-20 20h-79.52a20 20 0 0 1-20-20 20 20 0 0 1 20-20h79.52a20 20 0 0 1 20 20z" stroke="#cc4e00" stroke-width="3" fill="#fff"/><use xlink:href="#J" transform="matrix(1,-2.4492935982947064e-16,2.4492935982947064e-16,1,704.0154226343349,685) translate(12.412407407407402 19.65277777777778)"/><path d="M1017.93 700a20 20 0 0 1-20 20H918.4a20 20 0 0 1-20-20 20 20 0 0 1 20-20h79.53a20 20 0 0 1 20 20z" stroke="#cc4e00" stroke-width="3" fill="#ced4db"/><g><use xlink:href="#I" transform="matrix(1,-2.4492935982947064e-16,2.4492935982947064e-16,1,903.4068435814233,685) translate(7.504999999999997 19.65277777777778)"/></g><g><path d="M1178.47 700a20 20 0 0 1-20 20h-79.53a20 20 0 0 1-20-20 20 20 0 0 1 20-20h79.53a20 20 0 0 1 20 20z" stroke="#cc4e00" stroke-width="3" fill="#fff"/></g><g><use xlink:href="#J" transform="matrix(1,-2.4492935982947064e-16,2.4492935982947064e-16,1,1063.9442815659543,685) translate(12.412407407407402 19.65277777777778)"/></g><g><path d="M1379.42 700a20 20 0 0 1-20 20h-79.52a20 20 0 0 1-20-20 20 20 0 0 1 20-20h79.52a20 20 0 0 1 20 20z" stroke="#cc4e00" stroke-width="3" fill="#ced4db"/></g><g><use xlink:href="#I" transform="matrix(1,-2.4492935982947064e-16,2.4492935982947064e-16,1,1264.8953613076333,684.9999999999999) translate(7.504999999999997 19.65277777777778)"/></g><g><path d="M1539.95 700a20 20 0 0 1-20 20h-79.52a20 20 0 0 1-20-20 20 20 0 0 1 20-20h79.52a20 20 0 0 1 20 20z" stroke="#cc4e00" stroke-width="3" fill="#fff"/></g><g><use xlink:href="#J" transform="matrix(1,-2.4492935982947064e-16,2.4492935982947064e-16,1,1425.432799292164,685.0000000000001) translate(12.412407407407402 19.65277777777778)"/></g><path d="M1359.58 522.5V620" stroke="#000" stroke-width="2" fill="none"/><path d="M1360.55 522.53h-1.95v-1.03h1.95z" stroke="#000" stroke-width=".05"/><path d="M1359.58 635.27l-4.64-14.26h9.27z" stroke="#000" stroke-width="2"/><g><path d="M1001.6 639.5a6 6 0 0 1-6-6v-28a6 6 0 0 1 6-6h8a6 6 0 0 1 6 6v28a6 6 0 0 1-6 6z" stroke="#000" stroke-opacity="0" stroke-width="2" fill="#fff" fill-opacity="0"/></g><g><use xlink:href="#D" transform="matrix(6.123233995736766e-17,-1,1,6.123233995736766e-17,1000.5859424029516,634.4999999999998) translate(-4.753086419753082 14.222222222222221)"/></g><defs><linearGradient gradientUnits="userSpaceOnUse" id="a" x1="898.8" y1="640.55" x2="898.8" y2="680.55"><stop offset="73.57%" stop-color="#fff"/><stop offset="89.29%" stop-color="#4c535d"/></linearGradient><path d="M233-177c-1 41-23 64-60 70L243 0h-38l-65-103H63V0H30v-248c88 3 205-21 203 71zM63-129c60-2 137 13 137-47 0-61-80-42-137-45v92" id="K"/><path d="M100-194c63 0 86 42 84 106H49c0 40 14 67 53 68 26 1 43-12 49-29l28 8c-11 28-37 45-77 45C44 4 14-33 15-96c1-61 26-98 85-98zm52 81c6-60-76-77-97-28-3 7-6 17-6 28h103" id="L"/><path d="M115-194c55 1 70 41 70 98S169 2 115 4C84 4 66-9 55-30l1 105H24l-1-265h31l2 30c10-21 28-34 59-34zm-8 174c40 0 45-34 45-75s-6-73-45-74c-42 0-51 32-51 76 0 43 10 73 51 73" id="M"/><path d="M100-194c62-1 85 37 85 99 1 63-27 99-86 99S16-35 15-95c0-66 28-99 85-99zM99-20c44 1 53-31 53-75 0-43-8-75-51-75s-53 32-53 75 10 74 51 75" id="N"/><path d="M135-143c-3-34-86-38-87 0 15 53 115 12 119 90S17 21 10-45l28-5c4 36 97 45 98 0-10-56-113-15-118-90-4-57 82-63 122-42 12 7 21 19 24 35" id="O"/><path d="M24-231v-30h32v30H24zM24 0v-190h32V0H24" id="P"/><path d="M59-47c-2 24 18 29 38 22v24C64 9 27 4 27-40v-127H5v-23h24l9-43h21v43h35v23H59v120" id="Q"/><path d="M114-163C36-179 61-72 57 0H25l-1-190h30c1 12-1 29 2 39 6-27 23-49 58-41v29" id="R"/><path d="M179-190L93 31C79 59 56 82 12 73V49c39 6 53-20 64-50L1-190h34L92-34l54-156h33" id="S"/><g id="b"><use transform="matrix(0.06172839506172839,0,0,0.06172839506172839,0,0)" xlink:href="#K"/><use transform="matrix(0.06172839506172839,0,0,0.06172839506172839,15.987654320987653,0)" xlink:href="#L"/><use transform="matrix(0.06172839506172839,0,0,0.06172839506172839,28.333333333333332,0)" xlink:href="#M"/><use transform="matrix(0.06172839506172839,0,0,0.06172839506172839,40.67901234567901,0)" xlink:href="#N"/><use transform="matrix(0.06172839506172839,0,0,0.06172839506172839,53.02469135802469,0)" xlink:href="#O"/><use transform="matrix(0.06172839506172839,0,0,0.06172839506172839,64.1358024691358,0)" xlink:href="#P"/><use transform="matrix(0.06172839506172839,0,0,0.06172839506172839,69.01234567901234,0)" xlink:href="#Q"/><use transform="matrix(0.06172839506172839,0,0,0.06172839506172839,75.18518518518518,0)" xlink:href="#N"/><use transform="matrix(0.06172839506172839,0,0,0.06172839506172839,87.53086419753086,0)" xlink:href="#R"/><use transform="matrix(0.06172839506172839,0,0,0.06172839506172839,94.87654320987654,0)" xlink:href="#S"/></g><linearGradient gradientUnits="userSpaceOnUse" id="c" x1="558.23" y1="320" x2="558.23" y2="360"><stop offset="73.57%" stop-color="#fff"/><stop offset="89.29%" stop-color="#4c535d"/></linearGradient><path d="M205 0l-28-72H64L36 0H1l101-248h38L239 0h-34zm-38-99l-47-123c-12 45-31 82-46 123h93" id="T"/><path d="M24 0v-261h32V0H24" id="U"/><path d="M96-169c-40 0-48 33-48 73s9 75 48 75c24 0 41-14 43-38l32 2c-6 37-31 61-74 61-59 0-76-41-82-99-10-93 101-131 147-64 4 7 5 14 7 22l-32 3c-4-21-16-35-41-35" id="V"/><path d="M141-36C126-15 110 5 73 4 37 3 15-17 15-53c-1-64 63-63 125-63 3-35-9-54-41-54-24 1-41 7-42 31l-33-3c5-37 33-52 76-52 45 0 72 20 72 64v82c-1 20 7 32 28 27v20c-31 9-61-2-59-35zM48-53c0 20 12 33 32 33 41-3 63-29 60-74-43 2-92-5-92 41" id="W"/><path d="M117-194c89-4 53 116 60 194h-32v-121c0-31-8-49-39-48C34-167 62-67 57 0H25l-1-190h30c1 10-1 24 2 32 11-22 29-35 61-36" id="X"/><g id="d"><use transform="matrix(0.06790123456790124,0,0,0.06790123456790124,0,0)" xlink:href="#T"/><use transform="matrix(0.06790123456790124,0,0,0.06790123456790124,16.296296296296298,0)" xlink:href="#M"/><use transform="matrix(0.06790123456790124,0,0,0.06790123456790124,29.876543209876544,0)" xlink:href="#M"/><use transform="matrix(0.06790123456790124,0,0,0.06790123456790124,43.45679012345679,0)" xlink:href="#U"/><use transform="matrix(0.06790123456790124,0,0,0.06790123456790124,48.82098765432099,0)" xlink:href="#P"/><use transform="matrix(0.06790123456790124,0,0,0.06790123456790124,54.18518518518518,0)" xlink:href="#V"/><use transform="matrix(0.06790123456790124,0,0,0.06790123456790124,66.4074074074074,0)" xlink:href="#W"/><use transform="matrix(0.06790123456790124,0,0,0.06790123456790124,79.98765432098767,0)" xlink:href="#Q"/><use transform="matrix(0.06790123456790124,0,0,0.06790123456790124,86.77777777777779,0)" xlink:href="#P"/><use transform="matrix(0.06790123456790124,0,0,0.06790123456790124,92.14197530864199,0)" xlink:href="#N"/><use transform="matrix(0.06790123456790124,0,0,0.06790123456790124,105.72222222222224,0)" xlink:href="#X"/></g><linearGradient gradientUnits="userSpaceOnUse" id="e" x1="538.41" y1="640" x2="538.41" y2="680"><stop offset="73.57%" stop-color="#fff"/><stop offset="89.29%" stop-color="#4c535d"/></linearGradient><linearGradient gradientUnits="userSpaceOnUse" id="f" x1="699.02" y1="640" x2="699.02" y2="680"><stop offset="73.57%" stop-color="#fff"/><stop offset="89.29%" stop-color="#4c535d"/></linearGradient><path d="M33 0v-248h34V0H33" id="Y"/><path d="M101-234c-31-9-42 10-38 44h38v23H63V0H32v-167H5v-23h27c-7-52 17-82 69-68v24" id="Z"/><g id="g"><use transform="matrix(0.06172839506172839,0,0,0.06172839506172839,0,0)" xlink:href="#Y"/><use transform="matrix(0.06172839506172839,0,0,0.06172839506172839,6.172839506172839,0)" xlink:href="#X"/><use transform="matrix(0.06172839506172839,0,0,0.06172839506172839,18.51851851851852,0)" xlink:href="#Z"/><use transform="matrix(0.06172839506172839,0,0,0.06172839506172839,24.691358024691358,0)" xlink:href="#R"/><use transform="matrix(0.06172839506172839,0,0,0.06172839506172839,32.03703703703704,0)" xlink:href="#W"/></g><linearGradient gradientUnits="userSpaceOnUse" id="h" x1="718.23" y1="320" x2="718.23" y2="360"><stop offset="73.57%" stop-color="#fff"/><stop offset="89.29%" stop-color="#4c535d"/></linearGradient><path d="M153-248C145-148 188 4 80 4 36 3 13-21 6-62l32-5c4 25 16 42 43 43 27 0 39-20 39-49v-147H72v-28h81" id="aa"/><path d="M185-189c-5-48-123-54-124 2 14 75 158 14 163 119 3 78-121 87-175 55-17-10-28-26-33-46l33-7c5 56 141 63 141-1 0-78-155-14-162-118-5-82 145-84 179-34 5 7 8 16 11 25" id="ab"/><path d="M140-251c81 0 123 46 123 126C263-46 219 4 140 4 59 4 17-45 17-125s42-126 123-126zm0 227c63 0 89-41 89-101s-29-99-89-99c-61 0-89 39-89 99S79-25 140-24" id="ac"/><path d="M190 0L58-211 59 0H30v-248h39L202-35l-2-213h31V0h-41" id="ad"/><g id="i"><use transform="matrix(0.06172839506172839,0,0,0.06172839506172839,0,0)" xlink:href="#aa"/><use transform="matrix(0.06172839506172839,0,0,0.06172839506172839,11.11111111111111,0)" xlink:href="#ab"/><use transform="matrix(0.06172839506172839,0,0,0.06172839506172839,25.925925925925924,0)" xlink:href="#ac"/><use transform="matrix(0.06172839506172839,0,0,0.06172839506172839,43.20987654320987,0)" xlink:href="#ad"/></g><path d="M30-248c87 1 191-15 191 75 0 78-77 80-158 76V0H30v-248zm33 125c57 0 124 11 124-50 0-59-68-47-124-48v98" id="ae"/><g id="j"><use transform="matrix(0.06172839506172839,0,0,0.06172839506172839,0,0)" xlink:href="#T"/><use transform="matrix(0.06172839506172839,0,0,0.06172839506172839,14.814814814814813,0)" xlink:href="#ae"/><use transform="matrix(0.06172839506172839,0,0,0.06172839506172839,29.629629629629626,0)" xlink:href="#Y"/></g><path d="M30 0v-248h187v28H63v79h144v27H63v87h162V0H30" id="af"/><path d="M127-220V0H93v-220H8v-28h204v28h-85" id="ag"/><g id="k"><use transform="matrix(0.06172839506172839,0,0,0.06172839506172839,0,0)" xlink:href="#K"/><use transform="matrix(0.06172839506172839,0,0,0.06172839506172839,15.987654320987653,0)" xlink:href="#af"/><use transform="matrix(0.06172839506172839,0,0,0.06172839506172839,30.80246913580247,0)" xlink:href="#ab"/><use transform="matrix(0.06172839506172839,0,0,0.06172839506172839,45.61728395061728,0)" xlink:href="#ag"/></g><path d="M30-248c118-7 216 8 213 122C240-48 200 0 122 0H30v-248zM63-27c89 8 146-16 146-99s-60-101-146-95v194" id="ah"/><path d="M210-169c-67 3-38 105-44 169h-31v-121c0-29-5-50-35-48C34-165 62-65 56 0H25l-1-190h30c1 10-1 24 2 32 10-44 99-50 107 0 11-21 27-35 58-36 85-2 47 119 55 194h-31v-121c0-29-5-49-35-48" id="ai"/><g id="l"><use transform="matrix(0.06790123456790124,0,0,0.06790123456790124,0,0)" xlink:href="#ah"/><use transform="matrix(0.06790123456790124,0,0,0.06790123456790124,17.58641975308642,0)" xlink:href="#N"/><use transform="matrix(0.06790123456790124,0,0,0.06790123456790124,31.16666666666667,0)" xlink:href="#ai"/><use transform="matrix(0.06790123456790124,0,0,0.06790123456790124,51.46913580246915,0)" xlink:href="#W"/><use transform="matrix(0.06790123456790124,0,0,0.06790123456790124,65.0493827160494,0)" xlink:href="#P"/><use transform="matrix(0.06790123456790124,0,0,0.06790123456790124,70.4135802469136,0)" xlink:href="#X"/></g><path d="M241-173c-1 82-78 91-166 86L58 0H6l48-248c87 0 188-12 187 75zm-53 2c0-43-48-36-90-36l-15 80c50 0 105 7 105-44" id="aj"/><path d="M69 3c-96 0-34-126-28-193h49L65-57c6 42 62 18 71-6 14-38 17-86 28-127h50L178 0h-47c0-11 4-26 3-33-14 20-30 37-65 36" id="ak"/><path d="M84-151c13-25 34-51 72-40l-8 41C67-170 71-64 56 0H6l36-190h47" id="al"/><path d="M50-224l7-37h49l-7 37H50zM6 0l37-190h49L55 0H6" id="am"/><path d="M144-137c-1-29-70-35-71-2 16 41 103 10 103 80C176 9 79 16 32-9 18-17 9-31 4-48l44-6c3 32 80 36 82 1-15-42-103-11-103-82 0-77 157-79 161-8" id="an"/><path d="M72-63c-8 23 5 39 32 30L98-1C54 14 12-6 23-64l18-93H15l7-33h28l24-45h31l-8 45h35l-6 33H90" id="ao"/><path d="M67-101c-8 29-7 73 27 71 23-2 32-16 39-37l48 9C170-19 141 4 91 4 36 4 7-28 12-86c6-75 61-124 140-103 26 7 40 29 43 59l-50 4c-1-20-9-34-29-34-35 0-41 29-49 59" id="ap"/><g id="m"><use transform="matrix(0.0987654320987654,0,0,0.0987654320987654,0,0)" xlink:href="#aj"/><use transform="matrix(0.0987654320987654,0,0,0.0987654320987654,23.703703703703695,0)" xlink:href="#ak"/><use transform="matrix(0.0987654320987654,0,0,0.0987654320987654,45.333333333333314,0)" xlink:href="#al"/><use transform="matrix(0.0987654320987654,0,0,0.0987654320987654,59.16049382716047,0)" xlink:href="#am"/><use transform="matrix(0.0987654320987654,0,0,0.0987654320987654,69.03703703703701,0)" xlink:href="#an"/><use transform="matrix(0.0987654320987654,0,0,0.0987654320987654,88.79012345679008,0)" xlink:href="#ao"/><use transform="matrix(0.0987654320987654,0,0,0.0987654320987654,100.54320987654316,0)" xlink:href="#am"/><use transform="matrix(0.0987654320987654,0,0,0.0987654320987654,110.41975308641969,0)" xlink:href="#ap"/></g><path d="M250-142C247-53 197 0 108 0H6l48-248c105-5 200 3 196 106zm-49 2c1-57-42-72-103-68L66-40c84 6 135-22 135-100" id="aq"/><g id="n"><use transform="matrix(0.0987654320987654,0,0,0.0987654320987654,0,0)" xlink:href="#aq"/><use transform="matrix(0.0987654320987654,0,0,0.0987654320987654,25.58024691358024,0)" xlink:href="#aq"/><use transform="matrix(0.0987654320987654,0,0,0.0987654320987654,51.16049382716048,0)" xlink:href="#aq"/></g><path d="M183 0l-10-63H79L44 0H-7l138-248h61L234 0h-51zm-14-102l-15-108c-16 38-36 73-55 108h70" id="ar"/><path d="M156-122c2-23-7-37-28-37-47 0-58 44-58 89 0 24 12 40 36 40 43 0 47-49 50-92zM-8 75l50-265h48c0 10-3 24-3 30 22-50 127-45 121 29-6 73-21 135-92 135-29 0-46-14-55-35L41 75H-8" id="as"/><path d="M124-194c51 0 84 22 84 74C207-44 167 4 94 4 43 4 11-23 11-74c0-74 41-120 113-120zM99-30c46 0 58-42 58-86 0-27-11-44-37-44-44 0-55 40-57 84-1 27 10 45 36 46" id="at"/><path d="M166-52c-4 17 5 29 24 23l-3 27c-30 11-74 1-67-34C105-15 91 4 56 4 23 4 3-15 2-49c0-64 63-67 128-67 10-22 3-53-29-45-13 3-22 10-25 24l-46-5c5-64 156-77 153 0-1 33-11 60-17 90zM97-88c-44-9-64 57-19 57 31 0 42-28 47-57H97" id="au"/><path d="M150-105c8-23 8-54-22-51-68 7-54 98-72 156H6l50-261h50L85-158c15-20 33-36 66-36 95 0 34 128 28 194h-49" id="av"/><g id="o"><use transform="matrix(0.0987654320987654,0,0,0.0987654320987654,0,0)" xlink:href="#ar"/><use transform="matrix(0.0987654320987654,0,0,0.0987654320987654,25.58024691358024,0)" xlink:href="#as"/><use transform="matrix(0.0987654320987654,0,0,0.0987654320987654,47.20987654320986,0)" xlink:href="#as"/><use transform="matrix(0.0987654320987654,0,0,0.0987654320987654,68.83950617283948,0)" xlink:href="#al"/><use transform="matrix(0.0987654320987654,0,0,0.0987654320987654,82.66666666666663,0)" xlink:href="#at"/><use transform="matrix(0.0987654320987654,0,0,0.0987654320987654,104.29629629629623,0)" xlink:href="#au"/><use transform="matrix(0.0987654320987654,0,0,0.0987654320987654,124.04938271604932,0)" xlink:href="#ap"/><use transform="matrix(0.0987654320987654,0,0,0.0987654320987654,143.8024691358024,0)" xlink:href="#av"/></g><linearGradient gradientUnits="userSpaceOnUse" id="p" x1="918.16" y1="320" x2="918.16" y2="360"><stop offset="73.57%" stop-color="#fff"/><stop offset="89.29%" stop-color="#4c535d"/></linearGradient><linearGradient gradientUnits="userSpaceOnUse" id="q" x1="1058.94" y1="640" x2="1058.94" y2="680"><stop offset="73.57%" stop-color="#fff"/><stop offset="89.29%" stop-color="#4c535d"/></linearGradient><linearGradient gradientUnits="userSpaceOnUse" id="r" x1="1078.16" y1="320" x2="1078.16" y2="360"><stop offset="73.57%" stop-color="#fff"/><stop offset="89.29%" stop-color="#4c535d"/></linearGradient><path d="M45-171c29-32 103-29 114 14 2-11 5-23 8-33h47L176-2c-3 70-92 96-155 64C9 56 1 42-1 25l50-5c2 28 48 27 63 11 13-13 20-45 21-66-13 20-30 35-62 36-87 3-60-134-26-172zM94-35c41-3 55-43 55-86 0-24-12-39-35-39-43 0-51 48-51 90 0 22 9 37 31 35" id="aw"/><path d="M255-194c90 0 29 129 24 194h-49l25-136c-7-39-53-14-60 9-12 38-18 85-28 127h-49l25-136c2-29-39-23-50-7C69-108 68-47 56 0H6l36-190h48c-1 10-6 24-4 32 12-20 27-36 57-36s46 15 50 41c14-21 29-41 62-41" id="ax"/><g id="s"><use transform="matrix(0.0987654320987654,0,0,0.0987654320987654,0,0)" xlink:href="#aj"/><use transform="matrix(0.0987654320987654,0,0,0.0987654320987654,23.703703703703695,0)" xlink:href="#al"/><use transform="matrix(0.0987654320987654,0,0,0.0987654320987654,37.53086419753085,0)" xlink:href="#au"/><use transform="matrix(0.0987654320987654,0,0,0.0987654320987654,57.28395061728393,0)" xlink:href="#aw"/><use transform="matrix(0.0987654320987654,0,0,0.0987654320987654,78.91358024691355,0)" xlink:href="#ax"/><use transform="matrix(0.0987654320987654,0,0,0.0987654320987654,110.51851851851848,0)" xlink:href="#au"/><use transform="matrix(0.0987654320987654,0,0,0.0987654320987654,130.27160493827157,0)" xlink:href="#ao"/><use transform="matrix(0.0987654320987654,0,0,0.0987654320987654,142.02469135802465,0)" xlink:href="#am"/><use transform="matrix(0.0987654320987654,0,0,0.0987654320987654,151.90123456790118,0)" xlink:href="#ap"/></g><linearGradient gradientUnits="userSpaceOnUse" id="t" x1="1279.65" y1="320" x2="1279.65" y2="360"><stop offset="73.57%" stop-color="#fff"/><stop offset="89.29%" stop-color="#4c535d"/></linearGradient><linearGradient gradientUnits="userSpaceOnUse" id="u" x1="1259.82" y1="640" x2="1259.82" y2="680"><stop offset="73.57%" stop-color="#fff"/><stop offset="89.29%" stop-color="#4c535d"/></linearGradient><linearGradient gradientUnits="userSpaceOnUse" id="v" x1="1420.43" y1="640" x2="1420.43" y2="680"><stop offset="73.57%" stop-color="#fff"/><stop offset="89.29%" stop-color="#4c535d"/></linearGradient><linearGradient gradientUnits="userSpaceOnUse" id="w" x1="1439.65" y1="320" x2="1439.65" y2="360"><stop offset="73.57%" stop-color="#fff"/><stop offset="89.29%" stop-color="#4c535d"/></linearGradient><g id="x"><use transform="matrix(0.06790123456790124,0,0,0.06790123456790124,0,0)" xlink:href="#ah"/><use transform="matrix(0.06790123456790124,0,0,0.06790123456790124,17.58641975308642,0)" xlink:href="#N"/><use transform="matrix(0.06790123456790124,0,0,0.06790123456790124,31.16666666666667,0)" xlink:href="#ai"/><use transform="matrix(0.06790123456790124,0,0,0.06790123456790124,51.46913580246915,0)" xlink:href="#W"/><use transform="matrix(0.06790123456790124,0,0,0.06790123456790124,65.0493827160494,0)" xlink:href="#P"/><use transform="matrix(0.06790123456790124,0,0,0.06790123456790124,70.4135802469136,0)" xlink:href="#X"/></g><path d="M240 0l2-218c-23 76-54 145-80 218h-23L58-218 59 0H30v-248h44l77 211c21-75 51-140 76-211h43V0h-30" id="ay"/><path d="M85-194c31 0 48 13 60 33l-1-100h32l1 261h-30c-2-10 0-23-3-31C134-8 116 4 85 4 32 4 16-35 15-94c0-66 23-100 70-100zm9 24c-40 0-46 34-46 75 0 40 6 74 45 74 42 0 51-32 51-76 0-42-9-74-50-73" id="az"/><g id="y"><use transform="matrix(0.06790123456790124,0,0,0.06790123456790124,0,0)" xlink:href="#ay"/><use transform="matrix(0.06790123456790124,0,0,0.06790123456790124,20.302469135802472,0)" xlink:href="#N"/><use transform="matrix(0.06790123456790124,0,0,0.06790123456790124,33.88271604938272,0)" xlink:href="#az"/><use transform="matrix(0.06790123456790124,0,0,0.06790123456790124,47.46296296296297,0)" xlink:href="#L"/><use transform="matrix(0.06790123456790124,0,0,0.06790123456790124,61.043209876543216,0)" xlink:href="#U"/></g><path d="M18-101c0-91 52-150 145-150 68 0 111 34 111 101C274-54 221 4 128 4 59 4 18-33 18-101zm202-32c4-46-15-77-59-77-65 0-88 46-91 108-2 41 22 65 60 65 60 0 84-40 90-96" id="aA"/><path d="M151-194c95 0 34 128 28 194h-49l25-134c0-29-45-25-59-9C67-111 69-48 56 0H6l36-190h47l-4 32c15-20 33-36 66-36" id="aB"/><g id="z"><use transform="matrix(0.0987654320987654,0,0,0.0987654320987654,0,0)" xlink:href="#aA"/><use transform="matrix(0.0987654320987654,0,0,0.0987654320987654,27.654320987654312,0)" xlink:href="#aB"/><use transform="matrix(0.0987654320987654,0,0,0.0987654320987654,49.283950617283935,0)" xlink:href="#am"/><use transform="matrix(0.0987654320987654,0,0,0.0987654320987654,59.16049382716047,0)" xlink:href="#at"/><use transform="matrix(0.0987654320987654,0,0,0.0987654320987654,80.7901234567901,0)" xlink:href="#aB"/></g><path d="M114-194c63-2 87 48 72 110H63c-3 28 1 55 31 54 21-1 32-13 37-29l44 13C160-14 137 4 91 4 41 4 11-22 11-73c0-71 33-119 103-121zm30 77c14-47-50-61-67-22-3 6-6 13-8 22h75" id="aC"/><g id="A"><use transform="matrix(0.0987654320987654,0,0,0.0987654320987654,0,0)" xlink:href="#ar"/><use transform="matrix(0.0987654320987654,0,0,0.0987654320987654,25.58024691358024,0)" xlink:href="#al"/><use transform="matrix(0.0987654320987654,0,0,0.0987654320987654,39.4074074074074,0)" xlink:href="#ap"/><use transform="matrix(0.0987654320987654,0,0,0.0987654320987654,59.16049382716047,0)" xlink:href="#av"/><use transform="matrix(0.0987654320987654,0,0,0.0987654320987654,80.7901234567901,0)" xlink:href="#am"/><use transform="matrix(0.0987654320987654,0,0,0.0987654320987654,90.66666666666664,0)" xlink:href="#ao"/><use transform="matrix(0.0987654320987654,0,0,0.0987654320987654,102.41975308641972,0)" xlink:href="#aC"/><use transform="matrix(0.0987654320987654,0,0,0.0987654320987654,122.17283950617279,0)" xlink:href="#ap"/><use transform="matrix(0.0987654320987654,0,0,0.0987654320987654,141.92592592592587,0)" xlink:href="#ao"/><use transform="matrix(0.0987654320987654,0,0,0.0987654320987654,153.67901234567896,0)" xlink:href="#ak"/><use transform="matrix(0.0987654320987654,0,0,0.0987654320987654,175.30864197530857,0)" xlink:href="#al"/><use transform="matrix(0.0987654320987654,0,0,0.0987654320987654,189.13580246913574,0)" xlink:href="#aC"/></g><path d="M108 0H70L1-190h34L89-25l56-165h34" id="aD"/><g id="B"><use transform="matrix(0.06790123456790124,0,0,0.06790123456790124,0,0)" xlink:href="#ab"/><use transform="matrix(0.06790123456790124,0,0,0.06790123456790124,16.296296296296298,0)" xlink:href="#L"/><use transform="matrix(0.06790123456790124,0,0,0.06790123456790124,29.876543209876544,0)" xlink:href="#R"/><use transform="matrix(0.06790123456790124,0,0,0.06790123456790124,37.95679012345679,0)" xlink:href="#aD"/><use transform="matrix(0.06790123456790124,0,0,0.06790123456790124,50.17901234567901,0)" xlink:href="#P"/><use transform="matrix(0.06790123456790124,0,0,0.06790123456790124,55.54320987654321,0)" xlink:href="#V"/><use transform="matrix(0.06790123456790124,0,0,0.06790123456790124,67.76543209876543,0)" xlink:href="#L"/><use transform="matrix(0.06790123456790124,0,0,0.06790123456790124,81.34567901234568,0)" xlink:href="#O"/></g><path fill="#d916a8" d="M135-150c-39-12-60 13-60 57V0H25l-1-190h47c2 13-1 29 3 40 6-28 27-53 61-41v41" id="aE"/><path fill="#d916a8" d="M185-48c-13 30-37 53-82 52C43 2 14-33 14-96s30-98 90-98c62 0 83 45 84 108H66c0 31 8 55 39 56 18 0 30-7 34-22zm-45-69c5-46-57-63-70-21-2 6-4 13-4 21h74" id="aF"/><path fill="#d916a8" d="M133-34C117-15 103 5 69 4 32 3 11-16 11-54c-1-60 55-63 116-61 1-26-3-47-28-47-18 1-26 9-28 27l-52-2c7-38 36-58 82-57s74 22 75 68l1 82c-1 14 12 18 25 15v27c-30 8-71 5-69-32zm-48 3c29 0 43-24 42-57-32 0-66-3-65 30 0 17 8 27 23 27" id="aG"/><path fill="#d916a8" d="M88-194c31-1 46 15 58 34l-1-101h50l1 261h-48c-2-10 0-23-3-31C134-8 116 4 84 4 32 4 16-41 15-95c0-56 19-97 73-99zm17 164c33 0 40-30 41-66 1-37-9-64-41-64s-38 30-39 65c0 43 13 65 39 65" id="aH"/><g id="C"><use transform="matrix(0.049382716049382706,0,0,0.049382716049382706,0,0)" xlink:href="#aE"/><use transform="matrix(0.049382716049382706,0,0,0.049382716049382706,6.913580246913579,0)" xlink:href="#aF"/><use transform="matrix(0.049382716049382706,0,0,0.049382716049382706,16.79012345679012,0)" xlink:href="#aG"/><use transform="matrix(0.049382716049382706,0,0,0.049382716049382706,26.66666666666666,0)" xlink:href="#aH"/></g><path fill="#d916a8" d="M137-138c1-29-70-34-71-4 15 46 118 7 119 86 1 83-164 76-172 9l43-7c4 19 20 25 44 25 33 8 57-30 24-41C81-84 22-81 20-136c-2-80 154-74 161-7" id="aI"/><path fill="#d916a8" d="M128 0H69L1-190h53L99-40l48-150h52" id="aJ"/><g id="D"><use transform="matrix(0.049382716049382706,0,0,0.049382716049382706,0,0)" xlink:href="#aI"/><use transform="matrix(0.049382716049382706,0,0,0.049382716049382706,9.87654320987654,0)" xlink:href="#aG"/><use transform="matrix(0.049382716049382706,0,0,0.049382716049382706,19.75308641975308,0)" xlink:href="#aJ"/><use transform="matrix(0.049382716049382706,0,0,0.049382716049382706,29.629629629629623,0)" xlink:href="#aF"/></g><path fill="#d916a8" d="M85 4C-2 5 27-109 22-190h50c7 57-23 150 33 157 60-5 35-97 40-157h50l1 190h-47c-2-12 1-28-3-38-12 25-28 42-61 42" id="aK"/><path fill="#d916a8" d="M135-194c87-1 58 113 63 194h-50c-7-57 23-157-34-157-59 0-34 97-39 157H25l-1-190h47c2 12-1 28 3 38 12-26 28-41 61-42" id="aL"/><g id="E"><use transform="matrix(0.049382716049382706,0,0,0.049382716049382706,0,0)" xlink:href="#aE"/><use transform="matrix(0.049382716049382706,0,0,0.049382716049382706,6.913580246913579,0)" xlink:href="#aK"/><use transform="matrix(0.049382716049382706,0,0,0.049382716049382706,17.728395061728392,0)" xlink:href="#aL"/></g><path fill="#d916a8" d="M25 0v-261h50V0H25" id="aM"/><path fill="#d916a8" d="M110-194c64 0 96 36 96 99 0 64-35 99-97 99-61 0-95-36-95-99 0-62 34-99 96-99zm-1 164c35 0 45-28 45-65 0-40-10-65-43-65-34 0-45 26-45 65 0 36 10 65 43 65" id="aN"/><g id="F"><use transform="matrix(0.049382716049382706,0,0,0.049382716049382706,0,0)" xlink:href="#aM"/><use transform="matrix(0.049382716049382706,0,0,0.049382716049382706,4.93827160493827,0)" xlink:href="#aN"/><use transform="matrix(0.049382716049382706,0,0,0.049382716049382706,15.753086419753084,0)" xlink:href="#aG"/><use transform="matrix(0.049382716049382706,0,0,0.049382716049382706,25.629629629629626,0)" xlink:href="#aH"/></g><path fill="#d916a8" d="M135-194c53 0 70 44 70 98 0 56-19 98-73 100-31 1-45-17-59-34 3 33 2 69 2 105H25l-1-265h48c2 10 0 23 3 31 11-24 29-35 60-35zM114-30c33 0 39-31 40-66 0-38-9-64-40-64-56 0-55 130 0 130" id="aO"/><path fill="#d916a8" d="M115-3C79 11 28 4 28-45v-112H4v-33h27l15-45h31v45h36v33H77v99c-1 23 16 31 38 25v30" id="aP"/><g id="G"><use transform="matrix(0.049382716049382706,0,0,0.049382716049382706,0,0)" xlink:href="#aO"/><use transform="matrix(0.049382716049382706,0,0,0.049382716049382706,10.814814814814813,0)" xlink:href="#aN"/><use transform="matrix(0.049382716049382706,0,0,0.049382716049382706,21.629629629629626,0)" xlink:href="#aI"/><use transform="matrix(0.049382716049382706,0,0,0.049382716049382706,31.506172839506167,0)" xlink:href="#aP"/></g><path fill="#d916a8" d="M220-157c-53 9-28 100-34 157h-49v-107c1-27-5-49-29-50C55-147 81-57 75 0H25l-1-190h47c2 12-1 28 3 38 10-53 101-56 108 0 13-22 24-43 59-42 82 1 51 116 57 194h-49v-107c-1-25-5-48-29-50" id="aQ"/><path fill="#d916a8" d="M147 0L96-86 75-71V0H25v-261h50v150l67-79h53l-66 74L201 0h-54" id="aR"/><g id="H"><use transform="matrix(0.049382716049382706,0,0,0.049382716049382706,0,0)" xlink:href="#aQ"/><use transform="matrix(0.049382716049382706,0,0,0.049382716049382706,15.802469135802466,0)" xlink:href="#aG"/><use transform="matrix(0.049382716049382706,0,0,0.049382716049382706,25.679012345679006,0)" xlink:href="#aR"/><use transform="matrix(0.049382716049382706,0,0,0.049382716049382706,35.55555555555554,0)" xlink:href="#aF"/></g><path d="M115-194c53 0 69 39 70 98 0 66-23 100-70 100C84 3 66-7 56-30L54 0H23l1-261h32v101c10-23 28-34 59-34zm-8 174c40 0 45-34 45-75 0-40-5-75-45-74-42 0-51 32-51 76 0 43 10 73 51 73" id="aS"/><g id="I"><use transform="matrix(0.06172839506172839,0,0,0.06172839506172839,0,0)" xlink:href="#ah"/><use transform="matrix(0.06172839506172839,0,0,0.06172839506172839,15.987654320987653,0)" xlink:href="#W"/><use transform="matrix(0.06172839506172839,0,0,0.06172839506172839,28.333333333333332,0)" xlink:href="#Q"/><use transform="matrix(0.06172839506172839,0,0,0.06172839506172839,34.50617283950617,0)" xlink:href="#W"/><use transform="matrix(0.06172839506172839,0,0,0.06172839506172839,46.85185185185185,0)" xlink:href="#aS"/><use transform="matrix(0.06172839506172839,0,0,0.06172839506172839,59.197530864197525,0)" xlink:href="#W"/><use transform="matrix(0.06172839506172839,0,0,0.06172839506172839,71.5432098765432,0)" xlink:href="#O"/><use transform="matrix(0.06172839506172839,0,0,0.06172839506172839,82.65432098765432,0)" xlink:href="#L"/></g><path d="M84 4C-5 8 30-112 23-190h32v120c0 31 7 50 39 49 72-2 45-101 50-169h31l1 190h-30c-1-10 1-25-2-33-11 22-28 36-60 37" id="aT"/><path d="M0 4l72-265h28L28 4H0" id="aU"/><g id="J"><use transform="matrix(0.06172839506172839,0,0,0.06172839506172839,0,0)" xlink:href="#ae"/><use transform="matrix(0.06172839506172839,0,0,0.06172839506172839,14.814814814814813,0)" xlink:href="#aT"/><use transform="matrix(0.06172839506172839,0,0,0.06172839506172839,27.160493827160494,0)" xlink:href="#aS"/><use transform="matrix(0.06172839506172839,0,0,0.06172839506172839,39.50617283950617,0)" xlink:href="#aU"/><use transform="matrix(0.06172839506172839,0,0,0.06172839506172839,45.67901234567901,0)" xlink:href="#ab"/><use transform="matrix(0.06172839506172839,0,0,0.06172839506172839,60.49382716049382,0)" xlink:href="#aT"/><use transform="matrix(0.06172839506172839,0,0,0.06172839506172839,72.8395061728395,0)" xlink:href="#aS"/></g></defs></g></svg>