<svg xmlns="http://www.w3.org/2000/svg" xmlns:xlink="http://www.w3.org/1999/xlink" xmlns:lucid="lucid" width="603" height="361.5"><g transform="translate(-278.5 -518.5)" lucid:page-tab-id="0_0"><path d="M544.18 792.18l4.8 30.52M540.22 792.8l4.8 30.52M533.12 799.14l7.2-18.66 12.56 15.55m-12.57-15.55l1.33 8.4M556.08 816.36l-7.2 18.66-12.56-15.55m12.57 15.55l-1.33-8.4M553.35 783.64l44.45 24.73M551.4 787.13l44.45 24.73" stroke="#008a0e" stroke-width="2" fill="none"/><path d="M552.02 796.63l-10.27-17.16 20-.32m-20 .32l7.43 4.13M597.18 798.87l10.27 17.16-20 .32m20-.32l-7.43-4.13" stroke="#008a0e" stroke-width="2" fill="none"/><path d="M576.6 773.9l-20.28 50.7M572.88 772.4l-20.28 50.7M563.54 774.23l15.72-12.37 2.85 19.8m-2.84-19.8l-3.16 7.9M565.66 822.77l-15.72 12.37-2.85-19.8m2.84 19.8l3.16-7.9M589.28 771.08l15.57 32.3M585.68 772.82l15.57 32.3" stroke="#82755b" stroke-width="2" fill="none"/><path d="M580.7 780.94l1.5-19.95 16.53 11.25M582.2 761l3.7 7.65M609.82 795.25l-1.5 19.95-16.52-11.26m16.53 11.26l-3.7-7.66" stroke="#82755b" stroke-width="2" fill="none"/><path d="M613.27 752.62l-54.1 74.12M610.04 750.26l-54.1 74.12M600.53 749.7l18.3-8.08-2.14 19.88m2.12-19.88l-5 6.86M568.67 827.3l-18.3 8.1 2.14-19.9m-2.12 19.88l5-6.86M620 754.3l-6.85 48.96M616.05 753.75l-6.86 48.95" stroke="#1071e5" stroke-width="2" fill="none"/><path d="M607.4 757.74l12.32-15.76 7.5 18.54m-7.5-18.54l-1.18 8.42M621.8 799.26l-12.32 15.76-7.5-18.54m7.5 18.54l1.18-8.42M622 635.66v47.18M618 635.66v47.18M610 640.82l10-17.32 10 17.32m-10-17.32v8.5M630 677.68L620 695l-10-17.32M620 695v-8.5" stroke="#1071e5" stroke-width="2" fill="none"/><path d="M580 580a20 20 0 0 1 20-20h40a20 20 0 0 1 20 20v20a20 20 0 0 1-20 20h-40a20 20 0 0 1-20-20z" stroke="#1071e5" stroke-width="3" fill="url(#a)"/><use xlink:href="#b" transform="matrix(1,0,0,1,585,565) translate(6.697530864197532 30.27777777777778)"/><path d="M580 718.5a20 20 0 0 1 20-20h40a20 20 0 0 1 20 20 20 20 0 0 1-20 20h-40a20 20 0 0 1-20-20z" stroke="#1071e5" stroke-width="3" fill="#fff"/><use xlink:href="#c" transform="matrix(1,0,0,1,585.000063873474,703.500049986049) translate(13.40006172839506 19.65277777777778)"/><path d="M540 738.5a20 20 0 0 1 20-20h40a20 20 0 0 1 20 20 20 20 0 0 1-20 20h-40a20 20 0 0 1-20-20z" stroke="#82755b" stroke-width="3" fill="#fff"/><use xlink:href="#c" transform="matrix(1,0,0,1,545,723.500049986049) translate(13.40006172839506 19.65277777777778)"/><path d="M500 757a20 20 0 0 1 20-20h40a20 20 0 0 1 20 20 20 20 0 0 1-20 20h-40a20 20 0 0 1-20-20z" stroke="#008a0e" stroke-width="3" fill="#fff"/><use xlink:href="#c" transform="matrix(1,0,0,1,505.000063873474,742.0000999860443) translate(13.40006172839506 19.65277777777778)"/><path d="M537.22 600a20 20 0 0 1 20-20h40a20 20 0 0 1 20 20v20a20 20 0 0 1-20 20h-40a20 20 0 0 1-20-20z" stroke="#82755b" stroke-width="3" fill="url(#d)"/><use xlink:href="#b" transform="matrix(1,0,0,1,542.2157129028276,585) translate(6.697530864197532 30.27777777777778)"/><path d="M542 675.66v45.68M538 675.66v45.68M530 680.82l10-17.32 10 17.32m-10-17.32v8.5M550 716.18l-10 17.32-10-17.32m10 17.32V725" stroke="#008a0e" stroke-width="2" fill="none"/><path d="M580 655.64l.37 47.2M576 655.67l.37 47.2M568.05 660.9l9.86-17.4 10.15 17.24M577.9 643.5l.08 8.5M588.33 697.6l-9.86 17.4-10.14-17.24M578.47 715l-.07-8.5" stroke="#82755b" stroke-width="2" fill="none"/><path d="M500 620a20 20 0 0 1 20-20h40a20 20 0 0 1 20 20v20a20 20 0 0 1-20 20h-40a20 20 0 0 1-20-20z" stroke="#008a0e" stroke-width="3" fill="url(#e)"/><use xlink:href="#b" transform="matrix(1,0,0,1,505.000063873474,605.0000000139463) translate(6.697530864197532 30.27777777777778)"/><path d="M309.67 526a6 6 0 0 1 6-6h128a6 6 0 0 1 6 6v87.74a6 6 0 0 1-6 6h-128a6 6 0 0 1-6-6z" stroke="#000" stroke-opacity="0" stroke-width="3" fill="#fff" fill-opacity="0"/><use xlink:href="#f" transform="matrix(1,0,0,1,314.6666666666667,525) translate(12.037037037037038 23.40277777777778)"/><use xlink:href="#g" transform="matrix(1,0,0,1,314.6666666666667,525) translate(85.92592592592592 23.40277777777778)"/><use xlink:href="#h" transform="matrix(1,0,0,1,314.6666666666667,525) translate(7.685185185185183 50.06944444444445)"/><use xlink:href="#i" transform="matrix(1,0,0,1,314.6666666666667,525) translate(86.57407407407408 50.06944444444445)"/><use xlink:href="#j" transform="matrix(1,0,0,1,314.6666666666667,525) translate(109.96913580246914 50.06944444444445)"/><use xlink:href="#k" transform="matrix(1,0,0,1,314.6666666666667,525) translate(12.56172839506172 76.73611111111111)"/><path d="M450.5 570.44l2.56 1.8m3.43 2.42l5.14 3.6m3.43 2.42l5.14 3.62m3.44 2.4l5.15 3.62m3.42 2.4l5.15 3.63m3.43 2.4l5.15 3.62m3.43 2.4l2.57 1.82" stroke="#3a414a" stroke-width="2" fill="none"/><path d="M451.07 569.66l-1.12 1.6-.28-.2v-2.38zM503.4 606.42l-.8.94-.37.62-.86-.6 1.12-1.6z" stroke="#3a414a" stroke-width=".05" fill="#3a414a"/><path d="M450.67 569.87h2.98m4 0l5.97-.02m3.98 0h5.97m4 0l5.97-.02m3.98 0h5.98m3.98 0l5.97-.02m4 0h5.96m4 0h5.98m3.98 0l5.98-.02m3.98 0h5.97m3.98 0l5.98-.02m3.98 0h5.98m3.98 0l5.97-.02m4 0h2.98" stroke="#3a414a" stroke-width="2" fill="none"/><path d="M450.7 570.84h-1.03v-1.95h1.02zM580.84 570.24l-.2.47h-.52v-1.94h1.63z" stroke="#3a414a" stroke-width=".05" fill="#3a414a"/><path d="M450.65 570.07l2.9.6m3.9.82l5.84 1.2m3.88.8l5.83 1.22m3.9.8l5.83 1.23m3.9.8l5.82 1.22m3.9.8l5.83 1.22m3.9.8l5.82 1.2m3.9.82l5.83 1.22m3.88.8l5.85 1.22m3.9.8l2.9.6" stroke="#3a414a" stroke-width="2" fill="none"/><path d="M450.87 569.12l-.4 1.9-.8-.16v-2zM539.67 587.6l-1.08 1.76-.67-.14.4-1.9z" stroke="#3a414a" stroke-width=".05" fill="#3a414a"/><path d="M560 838.5a20 20 0 0 1 20-20h58.4a20 20 0 0 1 20 20 20 20 0 0 1-20 20H580a20 20 0 0 1-20-20z" stroke="#000" stroke-width="3" fill="#fff"/><use xlink:href="#l" transform="matrix(1,0,0,1,565,823.500049986049) translate(16.140802469135807 19.65277777777778)"/><path d="M500 858.5a20 20 0 0 1 20-20h58.4a20 20 0 0 1 20 20 20 20 0 0 1-20 20H520a20 20 0 0 1-20-20z" stroke="#000" stroke-width="3" fill="#fff"/><use xlink:href="#m" transform="matrix(1,0,0,1,505.00006387347395,843.500049986049) translate(16.140802469135807 19.65277777777778)"/><path d="M280 644.5a6 6 0 0 1 6-6h147.33a6 6 0 0 1 6 6V731a6 6 0 0 1-6 6H286a6 6 0 0 1-6-6z" stroke="#000" stroke-opacity="0" stroke-width="3" fill="#fff" fill-opacity="0"/><use xlink:href="#n" transform="matrix(1,0,0,1,285,643.5000500139416) translate(9.660493827160494 23.34027777777778)"/><use xlink:href="#o" transform="matrix(1,0,0,1,285,643.5000500139416) translate(66.45061728395062 23.34027777777778)"/><use xlink:href="#p" transform="matrix(1,0,0,1,285,643.5000500139416) translate(124.35185185185186 23.34027777777778)"/><use xlink:href="#q" transform="matrix(1,0,0,1,285,643.5000500139416) translate(2.1604938271604937 50.00694444444445)"/><use xlink:href="#r" transform="matrix(1,0,0,1,285,643.5000500139416) translate(110.80246913580247 50.00694444444445)"/><use xlink:href="#j" transform="matrix(1,0,0,1,285,643.5000500139416) translate(135.49382716049382 50.00694444444445)"/><use xlink:href="#s" transform="matrix(1,0,0,1,285,643.5000500139416) translate(29.351851851851848 76.67361111111111)"/><use xlink:href="#t" transform="matrix(1,0,0,1,285,643.5000500139416) translate(71.26543209876543 76.67361111111111)"/><path d="M440.33 687.87l2.96.36m3.93.48l5.92.73m3.95.48l5.92.73m3.95.48l5.92.73m3.94.48l5.92.73m3.95.5l5.93.7m3.94.5l5.93.7m3.94.5l5.92.7m3.95.5l5.93.7m3.95.5l5.92.7m3.95.5l2.96.35" stroke="#3a414a" stroke-width="2" fill="none"/><path d="M440.47 686.9l-.24 1.94-.9-.1v-1.97z" stroke="#3a414a" stroke-width=".05" fill="#3a414a"/><path d="M538.98 699.88l1.02.12" stroke="#3a414a" stroke-width="2" fill="none"/><path d="M290.33 766a6 6 0 0 1 6-6h147.34a6 6 0 0 1 6 6v86.5a6 6 0 0 1-6 6H296.33a6 6 0 0 1-6-6z" stroke="#000" stroke-opacity="0" stroke-width="3" fill="#fff" fill-opacity="0"/><g><use xlink:href="#n" transform="matrix(1,0,0,1,295.3333333333333,765.0000000139463) translate(17.654320987654316 23.34027777777778)"/><use xlink:href="#s" transform="matrix(1,0,0,1,295.3333333333333,765.0000000139463) translate(74.44444444444444 23.34027777777778)"/><use xlink:href="#p" transform="matrix(1,0,0,1,295.3333333333333,765.0000000139463) translate(116.35802469135803 23.34027777777778)"/><use xlink:href="#q" transform="matrix(1,0,0,1,295.3333333333333,765.0000000139463) translate(11.419753086419753 50.00694444444445)"/><use xlink:href="#u" transform="matrix(1,0,0,1,295.3333333333333,765.0000000139463) translate(120.06172839506172 50.00694444444445)"/><use xlink:href="#v" transform="matrix(1,0,0,1,295.3333333333333,765.0000000139463) translate(1.018518518518519 76.67361111111111)"/><use xlink:href="#w" transform="matrix(1,0,0,1,295.3333333333333,765.0000000139463) translate(29.290123456790123 76.67361111111111)"/><use xlink:href="#x" transform="matrix(1,0,0,1,295.3333333333333,765.0000000139463) translate(88.48765432098766 76.67361111111111)"/></g><path d="M450.67 809.3l3.13.18m4.18.23l6.26.35m4.18.24l6.27.33m4.17.23l6.26.35m4.18.24l6.28.34m4.18.23l6.26.36m4.18.23l6.27.34m4.18.23l6.26.34m4.2.24l6.26.35m4.18.22l3.13.17" stroke="#3a414a" stroke-width="2" fill="none"/><path d="M450.74 808.33l-.1 1.95-.97-.05v-1.96z" stroke="#3a414a" stroke-width=".05" fill="#3a414a"/><path d="M544.64 814.5l1.03.05M450.67 809.22l2.9-.1m3.88-.12l5.82-.18m3.88-.12l5.82-.2m3.88-.1l5.82-.2m3.88-.12l5.82-.18m3.88-.12l5.8-.2m3.9-.1l5.8-.2m3.9-.12l5.8-.18m3.9-.13l5.8-.18m3.9-.12l5.8-.2m3.88-.1l5.82-.2m3.88-.12l5.82-.18m3.88-.12l5.82-.2m3.88-.1l5.82-.2m3.88-.12l2.9-.08" stroke="#3a414a" stroke-width="2" fill="none"/><path d="M450.72 810.2l-1.05.03v-1.96l1-.03z" stroke="#3a414a" stroke-width=".05" fill="#3a414a"/><path d="M586.4 804.92l1.03-.03" stroke="#3a414a" stroke-width="2" fill="none"/><path d="M720 536a6 6 0 0 1 6-6h148a6 6 0 0 1 6 6v148a6 6 0 0 1-6 6H726a6 6 0 0 1-6-6z" stroke="#000" stroke-opacity="0" stroke-width="3" fill="#fff" fill-opacity="0"/><g><use xlink:href="#y" transform="matrix(1,0,0,1,725,535) translate(29.938271604938272 17.77777777777778)"/><use xlink:href="#z" transform="matrix(1,0,0,1,725,535) translate(54.62962962962963 17.77777777777778)"/><use xlink:href="#j" transform="matrix(1,0,0,1,725,535) translate(107.71604938271605 17.77777777777778)"/><use xlink:href="#A" transform="matrix(1,0,0,1,725,535) translate(2.2530864197530747 44.44444444444444)"/><use xlink:href="#j" transform="matrix(1,0,0,1,725,535) translate(135.40123456790127 44.44444444444444)"/><use xlink:href="#B" transform="matrix(1,0,0,1,725,535) translate(23.24074074074074 71.11111111111111)"/><use xlink:href="#C" transform="matrix(1,0,0,1,725,535) translate(89.72222222222223 71.11111111111111)"/><use xlink:href="#j" transform="matrix(1,0,0,1,725,535) translate(114.41358024691357 71.11111111111111)"/><use xlink:href="#D" transform="matrix(1,0,0,1,725,535) translate(20.092592592592588 97.77777777777777)"/><use xlink:href="#E" transform="matrix(1,0,0,1,725,535) translate(3.024691358024697 124.44444444444446)"/><use xlink:href="#F" transform="matrix(1,0,0,1,725,535) translate(74.19753086419753 124.44444444444446)"/><use xlink:href="#G" transform="matrix(1,0,0,1,725,535) translate(98.88888888888889 124.44444444444446)"/><use xlink:href="#H" transform="matrix(1,0,0,1,725,535) translate(27.53086419753086 151.11111111111111)"/><use xlink:href="#I" transform="matrix(1,0,0,1,725,535) translate(70.74074074074073 151.11111111111111)"/></g><path d="M720 724.67a6 6 0 0 1 6-6h148a6 6 0 0 1 6 6V872.5a6 6 0 0 1-6 6H726a6 6 0 0 1-6-6z" stroke="#000" stroke-opacity="0" stroke-width="3" fill="#fff" fill-opacity="0"/><g><use xlink:href="#J" transform="matrix(1,0,0,1,725,723.666766652711) translate(38.08641975308642 17.77777777777778)"/><use xlink:href="#K" transform="matrix(1,0,0,1,725,723.666766652711) translate(0.4320987654321016 44.44444444444444)"/><use xlink:href="#L" transform="matrix(1,0,0,1,725,723.666766652711) translate(5.956790123456784 71.11111111111111)"/><use xlink:href="#M" transform="matrix(1,0,0,1,725,723.666766652711) translate(66.4506172839506 71.11111111111111)"/><use xlink:href="#N" transform="matrix(1,0,0,1,725,723.666766652711) translate(126.82098765432099 71.11111111111111)"/><use xlink:href="#O" transform="matrix(1,0,0,1,725,723.666766652711) translate(0.40123456790124123 97.77777777777777)"/><use xlink:href="#P" transform="matrix(1,0,0,1,725,723.666766652711) translate(48.48765432098766 97.77777777777777)"/><use xlink:href="#Q" transform="matrix(1,0,0,1,725,723.666766652711) translate(5.956790123456784 124.44444444444446)"/><use xlink:href="#R" transform="matrix(1,0,0,1,725,723.666766652711) translate(36.82098765432098 124.44444444444446)"/><use xlink:href="#S" transform="matrix(1,0,0,1,725,723.666766652711) translate(28.79629629629629 151.11111111111111)"/></g><defs><linearGradient gradientUnits="userSpaceOnUse" id="a" x1="580" y1="560" x2="580" y2="620"><stop offset="23.55%" stop-color="#c3f7c8"/><stop offset="33.7%" stop-color="#cfe4ff"/><stop offset="59.29%" stop-color="#cfe4ff"/><stop offset="70.71%" stop-color="#ced4db"/></linearGradient><path d="M212-179c-10-28-35-45-73-45-59 0-87 40-87 99 0 60 29 101 89 101 43 0 62-24 78-52l27 14C228-24 195 4 139 4 59 4 22-46 18-125c-6-104 99-153 187-111 19 9 31 26 39 46" id="T"/><path d="M24 0v-261h32V0H24" id="U"/><path d="M24-231v-30h32v30H24zM24 0v-190h32V0H24" id="V"/><path d="M100-194c63 0 86 42 84 106H49c0 40 14 67 53 68 26 1 43-12 49-29l28 8c-11 28-37 45-77 45C44 4 14-33 15-96c1-61 26-98 85-98zm52 81c6-60-76-77-97-28-3 7-6 17-6 28h103" id="W"/><path d="M117-194c89-4 53 116 60 194h-32v-121c0-31-8-49-39-48C34-167 62-67 57 0H25l-1-190h30c1 10-1 24 2 32 11-22 29-35 61-36" id="X"/><path d="M59-47c-2 24 18 29 38 22v24C64 9 27 4 27-40v-127H5v-23h24l9-43h21v43h35v23H59v120" id="Y"/><g id="b"><use transform="matrix(0.06172839506172839,0,0,0.06172839506172839,0,0)" xlink:href="#T"/><use transform="matrix(0.06172839506172839,0,0,0.06172839506172839,15.987654320987653,0)" xlink:href="#U"/><use transform="matrix(0.06172839506172839,0,0,0.06172839506172839,20.864197530864196,0)" xlink:href="#V"/><use transform="matrix(0.06172839506172839,0,0,0.06172839506172839,25.74074074074074,0)" xlink:href="#W"/><use transform="matrix(0.06172839506172839,0,0,0.06172839506172839,38.08641975308642,0)" xlink:href="#X"/><use transform="matrix(0.06172839506172839,0,0,0.06172839506172839,50.432098765432094,0)" xlink:href="#Y"/></g><path d="M30 0v-248h33v221h125V0H30" id="Z"/><path d="M141-36C126-15 110 5 73 4 37 3 15-17 15-53c-1-64 63-63 125-63 3-35-9-54-41-54-24 1-41 7-42 31l-33-3c5-37 33-52 76-52 45 0 72 20 72 64v82c-1 20 7 32 28 27v20c-31 9-61-2-59-35zM48-53c0 20 12 33 32 33 41-3 63-29 60-74-43 2-92-5-92 41" id="aa"/><path d="M101-234c-31-9-42 10-38 44h38v23H63V0H32v-167H5v-23h27c-7-52 17-82 69-68v24" id="ab"/><g id="c"><use transform="matrix(0.06172839506172839,0,0,0.06172839506172839,0,0)" xlink:href="#Z"/><use transform="matrix(0.06172839506172839,0,0,0.06172839506172839,12.345679012345679,0)" xlink:href="#W"/><use transform="matrix(0.06172839506172839,0,0,0.06172839506172839,24.691358024691358,0)" xlink:href="#aa"/><use transform="matrix(0.06172839506172839,0,0,0.06172839506172839,37.03703703703704,0)" xlink:href="#ab"/></g><linearGradient gradientUnits="userSpaceOnUse" id="d" x1="537.22" y1="580" x2="537.22" y2="640"><stop offset="23.55%" stop-color="#c3f7c8"/><stop offset="33.7%" stop-color="#cfe4ff"/><stop offset="59.29%" stop-color="#cfe4ff"/><stop offset="70.71%" stop-color="#ced4db"/></linearGradient><linearGradient gradientUnits="userSpaceOnUse" id="e" x1="500" y1="600" x2="500" y2="660"><stop offset="23.55%" stop-color="#c3f7c8"/><stop offset="33.7%" stop-color="#cfe4ff"/><stop offset="59.29%" stop-color="#cfe4ff"/><stop offset="70.71%" stop-color="#ced4db"/></linearGradient><path d="M135-143c-3-34-86-38-87 0 15 53 115 12 119 90S17 21 10-45l28-5c4 36 97 45 98 0-10-56-113-15-118-90-4-57 82-63 122-42 12 7 21 19 24 35" id="ac"/><g id="f"><use transform="matrix(0.06172839506172839,0,0,0.06172839506172839,0,0)" xlink:href="#T"/><use transform="matrix(0.06172839506172839,0,0,0.06172839506172839,15.987654320987653,0)" xlink:href="#U"/><use transform="matrix(0.06172839506172839,0,0,0.06172839506172839,20.864197530864196,0)" xlink:href="#V"/><use transform="matrix(0.06172839506172839,0,0,0.06172839506172839,25.74074074074074,0)" xlink:href="#W"/><use transform="matrix(0.06172839506172839,0,0,0.06172839506172839,38.08641975308642,0)" xlink:href="#X"/><use transform="matrix(0.06172839506172839,0,0,0.06172839506172839,50.432098765432094,0)" xlink:href="#Y"/><use transform="matrix(0.06172839506172839,0,0,0.06172839506172839,56.60493827160494,0)" xlink:href="#ac"/></g><path d="M114-163C36-179 61-72 57 0H25l-1-190h30c1 12-1 29 2 39 6-27 23-49 58-41v29" id="ad"/><g id="g"><use transform="matrix(0.06172839506172839,0,0,0.06172839506172839,0,0)" xlink:href="#aa"/><use transform="matrix(0.06172839506172839,0,0,0.06172839506172839,12.345679012345679,0)" xlink:href="#ad"/><use transform="matrix(0.06172839506172839,0,0,0.06172839506172839,19.691358024691358,0)" xlink:href="#W"/></g><path d="M108 0H70L1-190h34L89-25l56-165h34" id="ae"/><g id="h"><use transform="matrix(0.06172839506172839,0,0,0.06172839506172839,0,0)" xlink:href="#ac"/><use transform="matrix(0.06172839506172839,0,0,0.06172839506172839,11.11111111111111,0)" xlink:href="#W"/><use transform="matrix(0.06172839506172839,0,0,0.06172839506172839,23.45679012345679,0)" xlink:href="#ad"/><use transform="matrix(0.06172839506172839,0,0,0.06172839506172839,30.80246913580247,0)" xlink:href="#ae"/><use transform="matrix(0.06172839506172839,0,0,0.06172839506172839,41.91358024691358,0)" xlink:href="#W"/><use transform="matrix(0.06172839506172839,0,0,0.06172839506172839,54.25925925925926,0)" xlink:href="#ad"/><use transform="matrix(0.06172839506172839,0,0,0.06172839506172839,61.60493827160494,0)" xlink:href="#ac"/></g><g id="i"><use transform="matrix(0.06172839506172839,0,0,0.06172839506172839,0,0)" xlink:href="#V"/><use transform="matrix(0.06172839506172839,0,0,0.06172839506172839,4.876543209876543,0)" xlink:href="#X"/></g><use transform="matrix(0.06172839506172839,0,0,0.06172839506172839,0,0)" xlink:href="#aa" id="j"/><path d="M85-194c31 0 48 13 60 33l-1-100h32l1 261h-30c-2-10 0-23-3-31C134-8 116 4 85 4 32 4 16-35 15-94c0-66 23-100 70-100zm9 24c-40 0-46 34-46 75 0 40 6 74 45 74 42 0 51-32 51-76 0-42-9-74-50-73" id="af"/><path d="M96-169c-40 0-48 33-48 73s9 75 48 75c24 0 41-14 43-38l32 2c-6 37-31 61-74 61-59 0-76-41-82-99-10-93 101-131 147-64 4 7 5 14 7 22l-32 3c-4-21-16-35-41-35" id="ag"/><g id="k"><use transform="matrix(0.06172839506172839,0,0,0.06172839506172839,0,0)" xlink:href="#af"/><use transform="matrix(0.06172839506172839,0,0,0.06172839506172839,12.345679012345679,0)" xlink:href="#aa"/><use transform="matrix(0.06172839506172839,0,0,0.06172839506172839,24.691358024691358,0)" xlink:href="#Y"/><use transform="matrix(0.06172839506172839,0,0,0.06172839506172839,30.864197530864196,0)" xlink:href="#aa"/><use transform="matrix(0.06172839506172839,0,0,0.06172839506172839,43.20987654320987,0)" xlink:href="#ag"/><use transform="matrix(0.06172839506172839,0,0,0.06172839506172839,54.32098765432099,0)" xlink:href="#W"/><use transform="matrix(0.06172839506172839,0,0,0.06172839506172839,66.66666666666667,0)" xlink:href="#X"/><use transform="matrix(0.06172839506172839,0,0,0.06172839506172839,79.01234567901236,0)" xlink:href="#Y"/><use transform="matrix(0.06172839506172839,0,0,0.06172839506172839,85.18518518518519,0)" xlink:href="#W"/><use transform="matrix(0.06172839506172839,0,0,0.06172839506172839,97.53086419753087,0)" xlink:href="#ad"/></g><path d="M185-189c-5-48-123-54-124 2 14 75 158 14 163 119 3 78-121 87-175 55-17-10-28-26-33-46l33-7c5 56 141 63 141-1 0-78-155-14-162-118-5-82 145-84 179-34 5 7 8 16 11 25" id="ah"/><path d="M115-194c55 1 70 41 70 98S169 2 115 4C84 4 66-9 55-30l1 105H24l-1-265h31l2 30c10-21 28-34 59-34zm-8 174c40 0 45-34 45-75s-6-73-45-74c-42 0-51 32-51 76 0 43 10 73 51 73" id="ai"/><g id="l"><use transform="matrix(0.06172839506172839,0,0,0.06172839506172839,0,0)" xlink:href="#ah"/><use transform="matrix(0.06172839506172839,0,0,0.06172839506172839,14.814814814814813,0)" xlink:href="#ai"/><use transform="matrix(0.06172839506172839,0,0,0.06172839506172839,27.160493827160494,0)" xlink:href="#V"/><use transform="matrix(0.06172839506172839,0,0,0.06172839506172839,32.03703703703704,0)" xlink:href="#X"/><use transform="matrix(0.06172839506172839,0,0,0.06172839506172839,44.382716049382715,0)" xlink:href="#W"/></g><g id="m"><use transform="matrix(0.06172839506172839,0,0,0.06172839506172839,0,0)" xlink:href="#ah"/><use transform="matrix(0.06172839506172839,0,0,0.06172839506172839,14.814814814814813,0)" xlink:href="#ai"/><use transform="matrix(0.06172839506172839,0,0,0.06172839506172839,27.160493827160494,0)" xlink:href="#V"/><use transform="matrix(0.06172839506172839,0,0,0.06172839506172839,32.03703703703704,0)" xlink:href="#X"/><use transform="matrix(0.06172839506172839,0,0,0.06172839506172839,44.382716049382715,0)" xlink:href="#W"/></g><path d="M30 0v-248h187v28H63v79h144v27H63v87h162V0H30" id="aj"/><path d="M106-169C34-169 62-67 57 0H25v-261h32l-1 103c12-21 28-36 61-36 89 0 53 116 60 194h-32v-121c2-32-8-49-39-48" id="ak"/><g id="n"><use transform="matrix(0.06172839506172839,0,0,0.06172839506172839,0,0)" xlink:href="#aj"/><use transform="matrix(0.06172839506172839,0,0,0.06172839506172839,14.814814814814813,0)" xlink:href="#aa"/><use transform="matrix(0.06172839506172839,0,0,0.06172839506172839,27.160493827160494,0)" xlink:href="#ag"/><use transform="matrix(0.06172839506172839,0,0,0.06172839506172839,38.27160493827161,0)" xlink:href="#ak"/></g><g id="o"><use transform="matrix(0.06172839506172839,0,0,0.06172839506172839,0,0)" xlink:href="#ag"/><use transform="matrix(0.06172839506172839,0,0,0.06172839506172839,11.11111111111111,0)" xlink:href="#U"/><use transform="matrix(0.06172839506172839,0,0,0.06172839506172839,15.987654320987653,0)" xlink:href="#V"/><use transform="matrix(0.06172839506172839,0,0,0.06172839506172839,20.864197530864196,0)" xlink:href="#W"/><use transform="matrix(0.06172839506172839,0,0,0.06172839506172839,33.20987654320987,0)" xlink:href="#X"/><use transform="matrix(0.06172839506172839,0,0,0.06172839506172839,45.55555555555555,0)" xlink:href="#Y"/></g><g id="p"><use transform="matrix(0.06172839506172839,0,0,0.06172839506172839,0,0)" xlink:href="#V"/><use transform="matrix(0.06172839506172839,0,0,0.06172839506172839,4.876543209876543,0)" xlink:href="#ac"/></g><path d="M100-194c62-1 85 37 85 99 1 63-27 99-86 99S16-35 15-95c0-66 28-99 85-99zM99-20c44 1 53-31 53-75 0-43-8-75-51-75s-53 32-53 75 10 74 51 75" id="al"/><g id="q"><use transform="matrix(0.06172839506172839,0,0,0.06172839506172839,0,0)" xlink:href="#ag"/><use transform="matrix(0.06172839506172839,0,0,0.06172839506172839,11.11111111111111,0)" xlink:href="#al"/><use transform="matrix(0.06172839506172839,0,0,0.06172839506172839,23.45679012345679,0)" xlink:href="#X"/><use transform="matrix(0.06172839506172839,0,0,0.06172839506172839,35.80246913580247,0)" xlink:href="#X"/><use transform="matrix(0.06172839506172839,0,0,0.06172839506172839,48.148148148148145,0)" xlink:href="#W"/><use transform="matrix(0.06172839506172839,0,0,0.06172839506172839,60.49382716049382,0)" xlink:href="#ag"/><use transform="matrix(0.06172839506172839,0,0,0.06172839506172839,71.60493827160494,0)" xlink:href="#Y"/><use transform="matrix(0.06172839506172839,0,0,0.06172839506172839,77.77777777777777,0)" xlink:href="#W"/><use transform="matrix(0.06172839506172839,0,0,0.06172839506172839,90.12345679012346,0)" xlink:href="#af"/></g><g id="r"><use transform="matrix(0.06172839506172839,0,0,0.06172839506172839,0,0)" xlink:href="#Y"/><use transform="matrix(0.06172839506172839,0,0,0.06172839506172839,6.172839506172839,0)" xlink:href="#al"/></g><g id="s"><use transform="matrix(0.06172839506172839,0,0,0.06172839506172839,0,0)" xlink:href="#U"/><use transform="matrix(0.06172839506172839,0,0,0.06172839506172839,4.876543209876543,0)" xlink:href="#W"/><use transform="matrix(0.06172839506172839,0,0,0.06172839506172839,17.22222222222222,0)" xlink:href="#aa"/><use transform="matrix(0.06172839506172839,0,0,0.06172839506172839,29.5679012345679,0)" xlink:href="#ab"/></g><g id="t"><use transform="matrix(0.06172839506172839,0,0,0.06172839506172839,0,0)" xlink:href="#X"/><use transform="matrix(0.06172839506172839,0,0,0.06172839506172839,12.345679012345679,0)" xlink:href="#al"/><use transform="matrix(0.06172839506172839,0,0,0.06172839506172839,24.691358024691358,0)" xlink:href="#af"/><use transform="matrix(0.06172839506172839,0,0,0.06172839506172839,37.03703703703704,0)" xlink:href="#W"/></g><g id="u"><use transform="matrix(0.06172839506172839,0,0,0.06172839506172839,0,0)" xlink:href="#Y"/><use transform="matrix(0.06172839506172839,0,0,0.06172839506172839,6.172839506172839,0)" xlink:href="#al"/></g><g id="v"><use transform="matrix(0.06172839506172839,0,0,0.06172839506172839,0,0)" xlink:href="#aa"/><use transform="matrix(0.06172839506172839,0,0,0.06172839506172839,12.345679012345679,0)" xlink:href="#U"/><use transform="matrix(0.06172839506172839,0,0,0.06172839506172839,17.22222222222222,0)" xlink:href="#U"/></g><g id="w"><use transform="matrix(0.06172839506172839,0,0,0.06172839506172839,0,0)" xlink:href="#ac"/><use transform="matrix(0.06172839506172839,0,0,0.06172839506172839,11.11111111111111,0)" xlink:href="#ai"/><use transform="matrix(0.06172839506172839,0,0,0.06172839506172839,23.45679012345679,0)" xlink:href="#V"/><use transform="matrix(0.06172839506172839,0,0,0.06172839506172839,28.333333333333336,0)" xlink:href="#X"/><use transform="matrix(0.06172839506172839,0,0,0.06172839506172839,40.67901234567901,0)" xlink:href="#W"/></g><g id="x"><use transform="matrix(0.06172839506172839,0,0,0.06172839506172839,0,0)" xlink:href="#X"/><use transform="matrix(0.06172839506172839,0,0,0.06172839506172839,12.345679012345679,0)" xlink:href="#al"/><use transform="matrix(0.06172839506172839,0,0,0.06172839506172839,24.691358024691358,0)" xlink:href="#af"/><use transform="matrix(0.06172839506172839,0,0,0.06172839506172839,37.03703703703704,0)" xlink:href="#W"/><use transform="matrix(0.06172839506172839,0,0,0.06172839506172839,49.382716049382715,0)" xlink:href="#ac"/></g><path d="M33 0v-248h34V0H33" id="am"/><g id="y"><use transform="matrix(0.06172839506172839,0,0,0.06172839506172839,0,0)" xlink:href="#am"/><use transform="matrix(0.06172839506172839,0,0,0.06172839506172839,6.172839506172839,0)" xlink:href="#X"/></g><path d="M84 4C-5 8 30-112 23-190h32v120c0 31 7 50 39 49 72-2 45-101 50-169h31l1 190h-30c-1-10 1-25-2-33-11 22-28 36-60 37" id="an"/><g id="z"><use transform="matrix(0.06172839506172839,0,0,0.06172839506172839,0,0)" xlink:href="#ac"/><use transform="matrix(0.06172839506172839,0,0,0.06172839506172839,11.11111111111111,0)" xlink:href="#an"/><use transform="matrix(0.06172839506172839,0,0,0.06172839506172839,23.45679012345679,0)" xlink:href="#ag"/><use transform="matrix(0.06172839506172839,0,0,0.06172839506172839,34.5679012345679,0)" xlink:href="#ak"/></g><path d="M177-190C167-65 218 103 67 71c-23-6-38-20-44-43l32-5c15 47 100 32 89-28v-30C133-14 115 1 83 1 29 1 15-40 15-95c0-56 16-97 71-98 29-1 48 16 59 35 1-10 0-23 2-32h30zM94-22c36 0 50-32 50-73 0-42-14-75-50-75-39 0-46 34-46 75s6 73 46 73" id="ao"/><g id="A"><use transform="matrix(0.06172839506172839,0,0,0.06172839506172839,0,0)" xlink:href="#ag"/><use transform="matrix(0.06172839506172839,0,0,0.06172839506172839,11.11111111111111,0)" xlink:href="#al"/><use transform="matrix(0.06172839506172839,0,0,0.06172839506172839,23.45679012345679,0)" xlink:href="#X"/><use transform="matrix(0.06172839506172839,0,0,0.06172839506172839,35.80246913580247,0)" xlink:href="#ab"/><use transform="matrix(0.06172839506172839,0,0,0.06172839506172839,41.97530864197531,0)" xlink:href="#V"/><use transform="matrix(0.06172839506172839,0,0,0.06172839506172839,46.851851851851855,0)" xlink:href="#ao"/><use transform="matrix(0.06172839506172839,0,0,0.06172839506172839,59.19753086419753,0)" xlink:href="#an"/><use transform="matrix(0.06172839506172839,0,0,0.06172839506172839,71.54320987654322,0)" xlink:href="#ad"/><use transform="matrix(0.06172839506172839,0,0,0.06172839506172839,78.8888888888889,0)" xlink:href="#aa"/><use transform="matrix(0.06172839506172839,0,0,0.06172839506172839,91.23456790123458,0)" xlink:href="#Y"/><use transform="matrix(0.06172839506172839,0,0,0.06172839506172839,97.40740740740742,0)" xlink:href="#V"/><use transform="matrix(0.06172839506172839,0,0,0.06172839506172839,102.28395061728396,0)" xlink:href="#al"/><use transform="matrix(0.06172839506172839,0,0,0.06172839506172839,114.62962962962965,0)" xlink:href="#X"/></g><g id="B"><use transform="matrix(0.06172839506172839,0,0,0.06172839506172839,0,0)" xlink:href="#ab"/><use transform="matrix(0.06172839506172839,0,0,0.06172839506172839,6.172839506172839,0)" xlink:href="#aa"/><use transform="matrix(0.06172839506172839,0,0,0.06172839506172839,18.51851851851852,0)" xlink:href="#V"/><use transform="matrix(0.06172839506172839,0,0,0.06172839506172839,23.395061728395063,0)" xlink:href="#U"/><use transform="matrix(0.06172839506172839,0,0,0.06172839506172839,28.271604938271608,0)" xlink:href="#an"/><use transform="matrix(0.06172839506172839,0,0,0.06172839506172839,40.617283950617285,0)" xlink:href="#ad"/><use transform="matrix(0.06172839506172839,0,0,0.06172839506172839,47.96296296296296,0)" xlink:href="#W"/></g><g id="C"><use transform="matrix(0.06172839506172839,0,0,0.06172839506172839,0,0)" xlink:href="#al"/><use transform="matrix(0.06172839506172839,0,0,0.06172839506172839,12.345679012345679,0)" xlink:href="#ab"/></g><path d="M210-169c-67 3-38 105-44 169h-31v-121c0-29-5-50-35-48C34-165 62-65 56 0H25l-1-190h30c1 10-1 24 2 32 10-44 99-50 107 0 11-21 27-35 58-36 85-2 47 119 55 194h-31v-121c0-29-5-49-35-48" id="ap"/><g id="D"><use transform="matrix(0.06172839506172839,0,0,0.06172839506172839,0,0)" xlink:href="#ag"/><use transform="matrix(0.06172839506172839,0,0,0.06172839506172839,11.11111111111111,0)" xlink:href="#al"/><use transform="matrix(0.06172839506172839,0,0,0.06172839506172839,23.45679012345679,0)" xlink:href="#ap"/><use transform="matrix(0.06172839506172839,0,0,0.06172839506172839,41.91358024691358,0)" xlink:href="#ai"/><use transform="matrix(0.06172839506172839,0,0,0.06172839506172839,54.25925925925926,0)" xlink:href="#al"/><use transform="matrix(0.06172839506172839,0,0,0.06172839506172839,66.60493827160494,0)" xlink:href="#X"/><use transform="matrix(0.06172839506172839,0,0,0.06172839506172839,78.95061728395062,0)" xlink:href="#W"/><use transform="matrix(0.06172839506172839,0,0,0.06172839506172839,91.2962962962963,0)" xlink:href="#X"/><use transform="matrix(0.06172839506172839,0,0,0.06172839506172839,103.64197530864199,0)" xlink:href="#Y"/></g><g id="E"><use transform="matrix(0.06172839506172839,0,0,0.06172839506172839,0,0)" xlink:href="#aa"/><use transform="matrix(0.06172839506172839,0,0,0.06172839506172839,12.345679012345679,0)" xlink:href="#ab"/><use transform="matrix(0.06172839506172839,0,0,0.06172839506172839,18.08641975308642,0)" xlink:href="#ab"/><use transform="matrix(0.06172839506172839,0,0,0.06172839506172839,24.25925925925926,0)" xlink:href="#W"/><use transform="matrix(0.06172839506172839,0,0,0.06172839506172839,36.60493827160494,0)" xlink:href="#ag"/><use transform="matrix(0.06172839506172839,0,0,0.06172839506172839,47.71604938271605,0)" xlink:href="#Y"/><use transform="matrix(0.06172839506172839,0,0,0.06172839506172839,53.88888888888889,0)" xlink:href="#ac"/></g><g id="F"><use transform="matrix(0.06172839506172839,0,0,0.06172839506172839,0,0)" xlink:href="#aa"/><use transform="matrix(0.06172839506172839,0,0,0.06172839506172839,12.345679012345679,0)" xlink:href="#Y"/></g><g id="G"><use transform="matrix(0.06172839506172839,0,0,0.06172839506172839,0,0)" xlink:href="#ap"/><use transform="matrix(0.06172839506172839,0,0,0.06172839506172839,18.456790123456788,0)" xlink:href="#al"/><use transform="matrix(0.06172839506172839,0,0,0.06172839506172839,30.80246913580247,0)" xlink:href="#ac"/><use transform="matrix(0.06172839506172839,0,0,0.06172839506172839,41.91358024691358,0)" xlink:href="#Y"/></g><g id="H"><use transform="matrix(0.06172839506172839,0,0,0.06172839506172839,0,0)" xlink:href="#al"/><use transform="matrix(0.06172839506172839,0,0,0.06172839506172839,12.345679012345679,0)" xlink:href="#X"/><use transform="matrix(0.06172839506172839,0,0,0.06172839506172839,24.691358024691358,0)" xlink:href="#W"/></g><g id="I"><use transform="matrix(0.06172839506172839,0,0,0.06172839506172839,0,0)" xlink:href="#ag"/><use transform="matrix(0.06172839506172839,0,0,0.06172839506172839,11.11111111111111,0)" xlink:href="#U"/><use transform="matrix(0.06172839506172839,0,0,0.06172839506172839,15.987654320987653,0)" xlink:href="#V"/><use transform="matrix(0.06172839506172839,0,0,0.06172839506172839,20.864197530864196,0)" xlink:href="#W"/><use transform="matrix(0.06172839506172839,0,0,0.06172839506172839,33.20987654320987,0)" xlink:href="#X"/><use transform="matrix(0.06172839506172839,0,0,0.06172839506172839,45.55555555555555,0)" xlink:href="#Y"/></g><path d="M30-248c87 1 191-15 191 75 0 78-77 80-158 76V0H30v-248zm33 125c57 0 124 11 124-50 0-59-68-47-124-48v98" id="aq"/><g id="J"><use transform="matrix(0.06172839506172839,0,0,0.06172839506172839,0,0)" xlink:href="#aq"/><use transform="matrix(0.06172839506172839,0,0,0.06172839506172839,14.814814814814813,0)" xlink:href="#aa"/><use transform="matrix(0.06172839506172839,0,0,0.06172839506172839,27.160493827160494,0)" xlink:href="#ad"/><use transform="matrix(0.06172839506172839,0,0,0.06172839506172839,34.50617283950617,0)" xlink:href="#aa"/><use transform="matrix(0.06172839506172839,0,0,0.06172839506172839,46.85185185185185,0)" xlink:href="#U"/><use transform="matrix(0.06172839506172839,0,0,0.06172839506172839,51.72839506172839,0)" xlink:href="#U"/><use transform="matrix(0.06172839506172839,0,0,0.06172839506172839,56.60493827160494,0)" xlink:href="#W"/><use transform="matrix(0.06172839506172839,0,0,0.06172839506172839,68.95061728395062,0)" xlink:href="#U"/></g><g id="K"><use transform="matrix(0.06172839506172839,0,0,0.06172839506172839,0,0)" xlink:href="#ag"/><use transform="matrix(0.06172839506172839,0,0,0.06172839506172839,11.11111111111111,0)" xlink:href="#al"/><use transform="matrix(0.06172839506172839,0,0,0.06172839506172839,23.45679012345679,0)" xlink:href="#ap"/><use transform="matrix(0.06172839506172839,0,0,0.06172839506172839,41.91358024691358,0)" xlink:href="#ap"/><use transform="matrix(0.06172839506172839,0,0,0.06172839506172839,60.37037037037037,0)" xlink:href="#an"/><use transform="matrix(0.06172839506172839,0,0,0.06172839506172839,72.71604938271605,0)" xlink:href="#X"/><use transform="matrix(0.06172839506172839,0,0,0.06172839506172839,85.06172839506173,0)" xlink:href="#V"/><use transform="matrix(0.06172839506172839,0,0,0.06172839506172839,89.93827160493828,0)" xlink:href="#ag"/><use transform="matrix(0.06172839506172839,0,0,0.06172839506172839,101.0493827160494,0)" xlink:href="#aa"/><use transform="matrix(0.06172839506172839,0,0,0.06172839506172839,113.39506172839508,0)" xlink:href="#Y"/><use transform="matrix(0.06172839506172839,0,0,0.06172839506172839,119.56790123456791,0)" xlink:href="#V"/><use transform="matrix(0.06172839506172839,0,0,0.06172839506172839,124.44444444444446,0)" xlink:href="#al"/><use transform="matrix(0.06172839506172839,0,0,0.06172839506172839,136.79012345679013,0)" xlink:href="#X"/></g><g id="L"><use transform="matrix(0.06172839506172839,0,0,0.06172839506172839,0,0)" xlink:href="#ai"/><use transform="matrix(0.06172839506172839,0,0,0.06172839506172839,12.345679012345679,0)" xlink:href="#aa"/><use transform="matrix(0.06172839506172839,0,0,0.06172839506172839,24.691358024691358,0)" xlink:href="#Y"/><use transform="matrix(0.06172839506172839,0,0,0.06172839506172839,30.864197530864196,0)" xlink:href="#ak"/><use transform="matrix(0.06172839506172839,0,0,0.06172839506172839,43.20987654320987,0)" xlink:href="#ac"/></g><g id="M"><use transform="matrix(0.06172839506172839,0,0,0.06172839506172839,0,0)" xlink:href="#ad"/><use transform="matrix(0.06172839506172839,0,0,0.06172839506172839,7.345679012345679,0)" xlink:href="#W"/><use transform="matrix(0.06172839506172839,0,0,0.06172839506172839,19.691358024691358,0)" xlink:href="#ac"/><use transform="matrix(0.06172839506172839,0,0,0.06172839506172839,30.80246913580247,0)" xlink:href="#an"/><use transform="matrix(0.06172839506172839,0,0,0.06172839506172839,43.148148148148145,0)" xlink:href="#U"/><use transform="matrix(0.06172839506172839,0,0,0.06172839506172839,48.02469135802469,0)" xlink:href="#Y"/></g><g id="N"><use transform="matrix(0.06172839506172839,0,0,0.06172839506172839,0,0)" xlink:href="#V"/><use transform="matrix(0.06172839506172839,0,0,0.06172839506172839,4.876543209876543,0)" xlink:href="#X"/></g><g id="O"><use transform="matrix(0.06172839506172839,0,0,0.06172839506172839,0,0)" xlink:href="#ak"/><use transform="matrix(0.06172839506172839,0,0,0.06172839506172839,12.345679012345679,0)" xlink:href="#V"/><use transform="matrix(0.06172839506172839,0,0,0.06172839506172839,17.22222222222222,0)" xlink:href="#ao"/><use transform="matrix(0.06172839506172839,0,0,0.06172839506172839,29.5679012345679,0)" xlink:href="#ak"/></g><path d="M115-194c53 0 69 39 70 98 0 66-23 100-70 100C84 3 66-7 56-30L54 0H23l1-261h32v101c10-23 28-34 59-34zm-8 174c40 0 45-34 45-75 0-40-5-75-45-74-42 0-51 32-51 76 0 43 10 73 51 73" id="ar"/><path d="M206 0h-36l-40-164L89 0H53L-1-190h32L70-26l43-164h34l41 164 42-164h31" id="as"/><g id="P"><use transform="matrix(0.06172839506172839,0,0,0.06172839506172839,0,0)" xlink:href="#ar"/><use transform="matrix(0.06172839506172839,0,0,0.06172839506172839,12.345679012345679,0)" xlink:href="#aa"/><use transform="matrix(0.06172839506172839,0,0,0.06172839506172839,24.691358024691358,0)" xlink:href="#X"/><use transform="matrix(0.06172839506172839,0,0,0.06172839506172839,37.03703703703704,0)" xlink:href="#af"/><use transform="matrix(0.06172839506172839,0,0,0.06172839506172839,49.382716049382715,0)" xlink:href="#as"/><use transform="matrix(0.06172839506172839,0,0,0.06172839506172839,65.37037037037037,0)" xlink:href="#V"/><use transform="matrix(0.06172839506172839,0,0,0.06172839506172839,70.24691358024691,0)" xlink:href="#af"/><use transform="matrix(0.06172839506172839,0,0,0.06172839506172839,82.5925925925926,0)" xlink:href="#Y"/><use transform="matrix(0.06172839506172839,0,0,0.06172839506172839,88.76543209876543,0)" xlink:href="#ak"/></g><g id="Q"><use transform="matrix(0.06172839506172839,0,0,0.06172839506172839,0,0)" xlink:href="#al"/><use transform="matrix(0.06172839506172839,0,0,0.06172839506172839,12.345679012345679,0)" xlink:href="#X"/></g><path d="M179-190L93 31C79 59 56 82 12 73V49c39 6 53-20 64-50L1-190h34L92-34l54-156h33" id="at"/><g id="R"><use transform="matrix(0.06172839506172839,0,0,0.06172839506172839,0,0)" xlink:href="#ag"/><use transform="matrix(0.06172839506172839,0,0,0.06172839506172839,11.11111111111111,0)" xlink:href="#al"/><use transform="matrix(0.06172839506172839,0,0,0.06172839506172839,23.45679012345679,0)" xlink:href="#ap"/><use transform="matrix(0.06172839506172839,0,0,0.06172839506172839,41.91358024691358,0)" xlink:href="#ap"/><use transform="matrix(0.06172839506172839,0,0,0.06172839506172839,60.37037037037037,0)" xlink:href="#al"/><use transform="matrix(0.06172839506172839,0,0,0.06172839506172839,72.71604938271605,0)" xlink:href="#af"/><use transform="matrix(0.06172839506172839,0,0,0.06172839506172839,85.06172839506173,0)" xlink:href="#V"/><use transform="matrix(0.06172839506172839,0,0,0.06172839506172839,89.93827160493828,0)" xlink:href="#Y"/><use transform="matrix(0.06172839506172839,0,0,0.06172839506172839,96.11111111111111,0)" xlink:href="#at"/></g><g id="S"><use transform="matrix(0.06172839506172839,0,0,0.06172839506172839,0,0)" xlink:href="#ak"/><use transform="matrix(0.06172839506172839,0,0,0.06172839506172839,12.345679012345679,0)" xlink:href="#aa"/><use transform="matrix(0.06172839506172839,0,0,0.06172839506172839,24.691358024691358,0)" xlink:href="#ad"/><use transform="matrix(0.06172839506172839,0,0,0.06172839506172839,32.03703703703704,0)" xlink:href="#af"/><use transform="matrix(0.06172839506172839,0,0,0.06172839506172839,44.382716049382715,0)" xlink:href="#as"/><use transform="matrix(0.06172839506172839,0,0,0.06172839506172839,60.37037037037037,0)" xlink:href="#aa"/><use transform="matrix(0.06172839506172839,0,0,0.06172839506172839,72.71604938271605,0)" xlink:href="#ad"/><use transform="matrix(0.06172839506172839,0,0,0.06172839506172839,80.06172839506173,0)" xlink:href="#W"/></g></defs></g></svg>