<svg xmlns="http://www.w3.org/2000/svg" xmlns:xlink="http://www.w3.org/1999/xlink" xmlns:lucid="lucid" width="943" height="384.67"><g transform="translate(-138.5 -498.5)" lucid:page-tab-id="0_0"><path d="M511.23 600l.02 17.5" stroke="#000" stroke-width="2" fill="none"/><path d="M511.22 584.74l4.64 14.26h-9.27z" stroke="#000" stroke-width="2"/><path d="M512.22 618.5h-1.95v-1.02h1.95z" stroke="#000" stroke-width=".05"/><path d="M530.58 580v37.5" stroke="#000" stroke-width="2" fill="none"/><path d="M530.58 564.74L535.2 579h-9.26z" stroke="#000" stroke-width="2"/><path d="M531.55 617.47v1.03h-1.95v-1.03z" stroke="#000" stroke-width=".05"/><path d="M548.73 560v57.5" stroke="#000" stroke-width="2" fill="none"/><path d="M548.73 544.74l4.64 14.26h-9.27z" stroke="#000" stroke-width="2"/><path d="M549.7 617.47v1.03h-1.95v-1.03z" stroke="#000" stroke-width=".05"/><path d="M689.37 600v17.5" stroke="#000" stroke-width="2" fill="none"/><path d="M689.37 584.74L694 599h-9.27z" stroke="#000" stroke-width="2"/><path d="M690.34 618.5h-1.95v-1.03h1.94z" stroke="#000" stroke-width=".05"/><path d="M709.97 580v37.5" stroke="#000" stroke-width="2" fill="none"/><path d="M709.97 564.74L714.6 579h-9.26z" stroke="#000" stroke-width="2"/><path d="M710.95 618.5H709v-1.03h1.95z" stroke="#000" stroke-width=".05"/><path d="M500 520a20 20 0 0 1 20-20h57.55a20 20 0 0 1 20 20 20 20 0 0 1-20 20H520a20 20 0 0 1-20-20z" fill="#c3f7c8"/><path d="M503 509.58l.82-1.34 2.04-2.38 2.38-2.04 1.34-.82m5.77-2.4l1.52-.35L520 500h4.32m5.75 0h8.63m5.76 0h8.63m5.75 0h8.63m5.76 0h4.3l3.14.25 1.53.36m5.77 2.4l1.34.82 2.4 2.04 2.03 2.38.82 1.34m2.4 5.77l.36 1.52.25 3.13-.24 3.13-.36 1.52m-2.4 5.77l-.8 1.34-2.05 2.38-2.4 2.04-1.33.82m-5.76 2.4l-1.52.35-3.13.25h-4.3m-5.77 0h-8.63m-5.76 0h-8.64m-5.76 0h-8.63m-5.75 0H520l-3.13-.25-1.52-.36m-5.77-2.4l-1.34-.82-2.38-2.04-2.04-2.38-.82-1.34m-2.4-5.76l-.35-1.53L500 520l.25-3.13.36-1.52" stroke="#000" stroke-width="3" fill="none"/><use xlink:href="#a" transform="matrix(1,0,0,1,505,505) translate(7.585246913580251 19.65277777777778)"/><use xlink:href="#b" transform="matrix(1,0,0,1,505,505) translate(65.60993827160493 19.65277777777778)"/><path d="M481.85 540a20 20 0 0 1 20-20h57.55a20 20 0 0 1 20 20 20 20 0 0 1-20 20h-57.55a20 20 0 0 1-20-20z" fill="#c3f7c8"/><path d="M484.84 529.58l.82-1.34 2.04-2.38 2.4-2.04 1.33-.82m5.76-2.4l1.52-.35 3.13-.25h4.3m5.77 0h8.63m5.75 0h8.64m5.75 0h8.63m5.75 0h4.32l3.13.25 1.52.36m5.77 2.4l1.33.82 2.4 2.04 2.03 2.38.82 1.34m2.38 5.76l.37 1.53.25 3.13-.25 3.13-.37 1.52m-2.38 5.77l-.82 1.34-2.04 2.38-2.4 2.04-1.32.82m-5.77 2.4l-1.52.35-3.13.25h-4.32m-5.75 0h-8.64m-5.76 0h-8.64m-5.75 0h-8.63m-5.76 0h-4.3l-3.14-.25-1.53-.36m-5.77-2.4l-1.34-.82-2.4-2.04-2.04-2.38-.82-1.34m-2.38-5.76l-.37-1.53-.25-3.13.24-3.13.36-1.52" stroke="#000" stroke-width="3" fill="none"/><use xlink:href="#a" transform="matrix(1,0,0,1,486.8445128661241,525) translate(7.585246913580251 19.65277777777778)"/><use xlink:href="#b" transform="matrix(1,0,0,1,486.8445128661241,525) translate(65.60993827160493 19.65277777777778)"/><path d="M660 540a20 20 0 0 1 20-20h60.03a20 20 0 0 1 20 20 20 20 0 0 1-20 20H680a20 20 0 0 1-20-20z" fill="#c3f7c8"/><path d="M663 529.58l.82-1.34 2.04-2.38 2.38-2.04 1.34-.82m5.76-2.4l1.53-.35L680 520h4.5m6 0h9m6 0h9.02m6 0h9m6 0h4.5l3.14.25 1.53.36m5.75 2.4l1.34.82 2.38 2.04 2.04 2.38.8 1.34m2.4 5.76l.37 1.53.24 3.13-.25 3.13-.38 1.52m-2.38 5.77l-.82 1.34-2.04 2.38-2.4 2.04-1.33.82m-5.76 2.4l-1.54.35-3.13.25h-4.5m-6 0h-9m-6 0h-9m-6.02 0h-9m-6 0H680l-3.13-.25-1.52-.36m-5.77-2.4l-1.34-.82-2.38-2.04-2.04-2.38-.82-1.34m-2.4-5.76l-.35-1.53L660 540l.25-3.13.36-1.52" stroke="#000" stroke-width="3" fill="none"/><use xlink:href="#a" transform="matrix(1,0,0,1,665,525) translate(8.585246913580251 19.65277777777778)"/><use xlink:href="#c" transform="matrix(1,0,0,1,665,525) translate(66.60993827160493 19.65277777777778)"/><path d="M460 640a20 20 0 0 1 20-20h260a20 20 0 0 1 20 20 20 20 0 0 1-20 20H480a20 20 0 0 1-20-20z" stroke="#000" stroke-width="3" fill="#fff"/><use xlink:href="#a" transform="matrix(1,0,0,1,465,625) translate(81.45561728395062 19.65277777777778)"/><use xlink:href="#d" transform="matrix(1,0,0,1,465,625) translate(139.48030864197528 19.65277777777778)"/><path d="M462.52 560a20 20 0 0 1 20-20H540a20 20 0 0 1 20 20 20 20 0 0 1-20 20h-57.48a20 20 0 0 1-20-20z" fill="#c3f7c8"/><path d="M465.52 549.58l.82-1.34 2.04-2.38 2.38-2.04 1.34-.82m5.76-2.4l1.53-.35 3.12-.25h4.3m5.76 0h8.62m5.75 0h8.62m5.75 0h8.62m5.75 0h4.3l3.13.25 1.52.36m5.77 2.4l1.34.82 2.38 2.04 2.04 2.38.82 1.34m2.4 5.76l.35 1.53.25 3.13-.25 3.13-.36 1.52m-2.4 5.77l-.82 1.34-2.04 2.38-2.38 2.04-1.34.82m-5.76 2.4l-1.53.35-3.13.25h-4.3m-5.76 0h-8.62m-5.75 0h-8.62m-5.75 0h-8.62m-5.75 0h-4.3l-3.14-.25-1.54-.36m-5.76-2.4l-1.34-.82-2.38-2.04-2.04-2.38-.82-1.34m-2.4-5.76l-.36-1.53-.24-3.13.24-3.13.37-1.52" stroke="#000" stroke-width="3" fill="none"/><use xlink:href="#a" transform="matrix(1,0,0,1,467.517488261964,545) translate(7.585246913580251 19.65277777777778)"/><use xlink:href="#b" transform="matrix(1,0,0,1,467.517488261964,545) translate(65.60993827160493 19.65277777777778)"/><path d="M840.64 526a6 6 0 0 1 6-6H1074a6 6 0 0 1 6 6v228a6 6 0 0 1-6 6H846.64a6 6 0 0 1-6-6z" stroke="#000" stroke-opacity="0" stroke-width="3" fill="#fff" fill-opacity="0"/><use xlink:href="#e" transform="matrix(1,0,0,1,845.6380927315608,525) translate(12.111111111111114 28.520833333333336)"/><use xlink:href="#f" transform="matrix(1,0,0,1,845.6380927315608,525) translate(65.37037037037038 28.520833333333336)"/><use xlink:href="#g" transform="matrix(1,0,0,1,845.6380927315608,525) translate(135 28.520833333333336)"/><use xlink:href="#h" transform="matrix(1,0,0,1,845.6380927315608,525) translate(25.40740740740739 60.520833333333336)"/><use xlink:href="#i" transform="matrix(1,0,0,1,845.6380927315608,525) translate(142.37037037037038 60.520833333333336)"/><use xlink:href="#j" transform="matrix(1,0,0,1,845.6380927315608,525) translate(15.777777777777771 92.52083333333334)"/><use xlink:href="#k" transform="matrix(1,0,0,1,845.6380927315608,525) translate(143.11111111111111 92.52083333333334)"/><use xlink:href="#l" transform="matrix(1,0,0,1,845.6380927315608,525) translate(19.555555555555543 124.52083333333334)"/><use xlink:href="#m" transform="matrix(1,0,0,1,845.6380927315608,525) translate(78.66666666666666 124.52083333333334)"/><use xlink:href="#n" transform="matrix(1,0,0,1,845.6380927315608,525) translate(188.22222222222223 124.52083333333334)"/><use xlink:href="#o" transform="matrix(1,0,0,1,845.6380927315608,525) translate(14.333333333333314 156.52083333333334)"/><use xlink:href="#p" transform="matrix(1,0,0,1,845.6380927315608,525) translate(58.77777777777776 156.52083333333334)"/><use xlink:href="#q" transform="matrix(1,0,0,1,845.6380927315608,525) translate(171.22222222222223 156.52083333333334)"/><use xlink:href="#r" transform="matrix(1,0,0,1,845.6380927315608,525) translate(46.925925925925924 188.52083333333334)"/><use xlink:href="#s" transform="matrix(1,0,0,1,845.6380927315608,525) translate(126.77777777777779 188.52083333333334)"/><use xlink:href="#t" transform="matrix(1,0,0,1,845.6380927315608,525) translate(53.55555555555554 220.52083333333334)"/><path d="M839.64 640h-2.9m-3.85 0h-5.8m-3.85 0h-5.8m-3.84 0h-5.78m-3.86 0h-5.78m-3.86 0h-5.78m-3.86 0h-5.78m-3.86 0h-5.8m-3.84 0h-2.9" stroke="#3a414a" stroke-width="2" fill="none"/><path d="M840.64 640.98h-1.03V639h1.04zM762.53 640.98h-1.1l.08-.98-.07-.98h1.1z" stroke="#3a414a" stroke-width=".05" fill="#3a414a"/><path d="M639.4 560a20 20 0 0 1 20-20h60.03a20 20 0 0 1 20 20 20 20 0 0 1-20 20H659.4a20 20 0 0 1-20-20z" fill="#c3f7c8"/><path d="M642.4 549.58l.82-1.34 2.03-2.38 2.4-2.04 1.33-.82m5.76-2.4l1.53-.35 3.13-.25h4.5m6 0h9m6 0h9.02m6 0h9m6 0h4.5l3.14.25 1.53.36m5.75 2.4l1.34.82 2.37 2.04 2.04 2.38.83 1.34m2.4 5.76l.35 1.53.25 3.13-.25 3.13-.36 1.52m-2.4 5.77l-.8 1.34-2.05 2.38-2.38 2.04-1.35.82m-5.76 2.4l-1.54.35-3.13.25h-4.5m-6 0h-9m-6 0h-9.02m-6 0h-9m-6 0h-4.5l-3.13-.25-1.53-.36m-5.76-2.4l-1.34-.82-2.38-2.04-2.04-2.38-.82-1.34m-2.4-5.76l-.36-1.53-.24-3.13.24-3.13.37-1.52" stroke="#000" stroke-width="3" fill="none"/><use xlink:href="#a" transform="matrix(1,0,0,1,644.3967899327183,545) translate(8.585246913580251 19.65277777777778)"/><use xlink:href="#c" transform="matrix(1,0,0,1,644.3967899327183,545) translate(66.60993827160493 19.65277777777778)"/><path d="M460.4 600h3.92m7.84 0H480m7.84 0h7.85m7.83 0h7.84m7.84 0h7.85m7.85 0h7.84m7.84 0h7.84m7.85 0h7.84m7.85 0h7.84m7.83 0h7.85m7.84 0h7.84m7.84 0h7.84m7.85 0h7.83m7.84 0h7.84m7.85 0h7.85m7.84 0h7.84m7.84 0h7.85m7.84 0h7.85m7.84 0h7.83m7.85 0h3.92M460.42 600h-1.02M758.37 600h1.03" stroke="#ba23f6" stroke-width="2" fill="none"/><path d="M200 786a6 6 0 0 1 6-6h167.36a6 6 0 0 1 6 6v89.67a6 6 0 0 1-6 6H206a6 6 0 0 1-6-6z" stroke="#000" stroke-opacity="0" stroke-width="3" fill="#fff" fill-opacity="0"/><use xlink:href="#u" transform="matrix(1,0,0,1,205,785) translate(8.777777777777771 35.708333333333336)"/><use xlink:href="#v" transform="matrix(1,0,0,1,205,785) translate(76.92592592592592 35.708333333333336)"/><use xlink:href="#w" transform="matrix(1,0,0,1,205,785) translate(7.2962962962962905 67.70833333333334)"/><use xlink:href="#x" transform="matrix(1,0,0,1,205,785) translate(76.85185185185185 67.70833333333334)"/><use xlink:href="#y" transform="matrix(1,0,0,1,205,785) translate(110.85185185185185 67.70833333333334)"/><path d="M140 506a6 6 0 0 1 6-6h227.36a6 6 0 0 1 6 6v148a6 6 0 0 1-6 6H146a6 6 0 0 1-6-6z" stroke="#000" stroke-opacity="0" stroke-width="3" fill="#fff" fill-opacity="0"/><use xlink:href="#z" transform="matrix(1,0,0,1,145,505) translate(26.148148148148152 21.333333333333336)"/><use xlink:href="#A" transform="matrix(1,0,0,1,145,505) translate(109.11111111111113 21.333333333333336)"/><use xlink:href="#B" transform="matrix(1,0,0,1,145,505) translate(53.62962962962962 53.333333333333336)"/><use xlink:href="#C" transform="matrix(1,0,0,1,145,505) translate(35.1111111111111 85.33333333333334)"/><use xlink:href="#D" transform="matrix(1,0,0,1,145,505) translate(186.07407407407408 85.33333333333334)"/><use xlink:href="#E" transform="matrix(1,0,0,1,145,505) translate(0.44444444444442865 117.33333333333334)"/><use xlink:href="#F" transform="matrix(1,0,0,1,145,505) translate(34.37037037037037 117.33333333333334)"/><use xlink:href="#G" transform="matrix(1,0,0,1,145,505) translate(65.4074074074074 117.33333333333334)"/><use xlink:href="#H" transform="matrix(1,0,0,1,145,505) translate(160.14814814814815 117.33333333333334)"/><use xlink:href="#I" transform="matrix(1,0,0,1,145,505) translate(4.7777777777777715 149.33333333333334)"/><use xlink:href="#J" transform="matrix(1,0,0,1,145,505) translate(34.407407407407405 149.33333333333334)"/><use xlink:href="#K" transform="matrix(1,0,0,1,145,505) translate(127.59259259259258 149.33333333333334)"/><path d="M380.33 579.76l3-.73m3.98-.98l6-1.46m3.97-1l5.98-1.45m4-.98l5.96-1.46m4-.97l5.98-1.46m3.98-.98l5.98-1.47m4-.98l5.96-1.46m4-1l5.97-1.45m3.98-.98l3-.73" stroke="#3a414a" stroke-width="2" fill="none"/><path d="M380.6 580.7l-1.24.3v-2l.77-.2zM461 560l.1 1-.85.2-.46-1.9 1.3-.32z" stroke="#3a414a" stroke-width=".05" fill="#3a414a"/><path d="M459.4 740a20 20 0 0 1 20-20h20a20 20 0 0 1 20 20v121.67a20 20 0 0 1-20 20h-20a20 20 0 0 1-20-20z" stroke="#000" stroke-width="3" fill="url(#L)"/><g><use xlink:href="#M" transform="matrix(-1.8369701987210297e-16,-1,1,-1.8369701987210297e-16,464.3967899327183,876.6666666666667) translate(28.530864197530867 30.27777777777778)"/><use xlink:href="#N" transform="matrix(-1.8369701987210297e-16,-1,1,-1.8369701987210297e-16,464.3967899327183,876.6666666666667) translate(108.65432098765433 30.27777777777778)"/></g><path d="M580 740a20 20 0 0 1 20-20h20a20 20 0 0 1 20 20v121.67a20 20 0 0 1-20 20h-20a20 20 0 0 1-20-20z" stroke="#000" stroke-width="3" fill="url(#O)"/><g><use xlink:href="#M" transform="matrix(-1.8369701987210297e-16,-1,1,-1.8369701987210297e-16,585,876.666666666667) translate(28.530864197530867 30.27777777777778)"/><use xlink:href="#P" transform="matrix(-1.8369701987210297e-16,-1,1,-1.8369701987210297e-16,585,876.666666666667) translate(108.65432098765433 30.27777777777778)"/></g><path d="M699.36 740a20 20 0 0 1 20-20H740a20 20 0 0 1 20 20v121.67a20 20 0 0 1-20 20h-20.64a20 20 0 0 1-20-20z" stroke="#000" stroke-width="3" fill="url(#Q)"/><g><use xlink:href="#M" transform="matrix(-1.8369701987210297e-16,-1,1,-1.8369701987210297e-16,704.3619072684392,876.6666666666667) translate(29.179012345679013 30.52777777777778)"/><use xlink:href="#R" transform="matrix(-1.8369701987210297e-16,-1,1,-1.8369701987210297e-16,704.3619072684392,876.6666666666667) translate(109.30246913580247 30.52777777777778)"/></g><path d="M607.85 704.36l-.3-28.68M611.85 704.32l-.3-28.68M619.8 699.08l-9.82 17.42-10.18-17.2m10.18 17.2l-.1-8.5M599.6 680.92l9.82-17.42 10.18 17.2m-10.18-17.2l.1 8.5M727.68 704.34v-28.68M731.68 704.34v-28.68M739.68 699.18l-10 17.32-10-17.32m10 17.32V708M719.68 680.82l10-17.32 10 17.32m-10-17.32v8.5M487.4 704.34v-28.68M491.4 704.34v-28.68M499.4 699.18l-10 17.32-10-17.32m10 17.32V708M479.4 680.82l10-17.32 10 17.32m-10-17.32v8.5" stroke="#000" stroke-width="2" fill="none"/><path d="M380.32 831.1l2.96.87m3.95 1.14l5.93 1.73m3.94 1.14l5.93 1.72m3.95 1.14l5.92 1.7m3.95 1.16l5.92 1.7m3.95 1.16l5.92 1.72m3.95 1.14l5.9 1.72m3.96 1.14l5.93 1.72m3.94 1.14l5.92 1.72m3.95 1.14l5.93 1.72m3.95 1.14l2.96.86" stroke="#3a414a" stroke-width="2" fill="none"/><path d="M380.62 830.18l-.54 1.88-.72-.2v-2.04z" stroke="#3a414a" stroke-width=".05" fill="#3a414a"/><path d="M479 859.7l1 .3" stroke="#3a414a" stroke-width="2" fill="none"/><defs><path d="M185-189c-5-48-123-54-124 2 14 75 158 14 163 119 3 78-121 87-175 55-17-10-28-26-33-46l33-7c5 56 141 63 141-1 0-78-155-14-162-118-5-82 145-84 179-34 5 7 8 16 11 25" id="S"/><path d="M141-36C126-15 110 5 73 4 37 3 15-17 15-53c-1-64 63-63 125-63 3-35-9-54-41-54-24 1-41 7-42 31l-33-3c5-37 33-52 76-52 45 0 72 20 72 64v82c-1 20 7 32 28 27v20c-31 9-61-2-59-35zM48-53c0 20 12 33 32 33 41-3 63-29 60-74-43 2-92-5-92 41" id="T"/><path d="M177-190C167-65 218 103 67 71c-23-6-38-20-44-43l32-5c15 47 100 32 89-28v-30C133-14 115 1 83 1 29 1 15-40 15-95c0-56 16-97 71-98 29-1 48 16 59 35 1-10 0-23 2-32h30zM94-22c36 0 50-32 50-73 0-42-14-75-50-75-39 0-46 34-46 75s6 73 46 73" id="U"/><g id="a"><use transform="matrix(0.06172839506172839,0,0,0.06172839506172839,0,0)" xlink:href="#S"/><use transform="matrix(0.06172839506172839,0,0,0.06172839506172839,14.814814814814813,0)" xlink:href="#T"/><use transform="matrix(0.06172839506172839,0,0,0.06172839506172839,27.160493827160494,0)" xlink:href="#U"/><use transform="matrix(0.06172839506172839,0,0,0.06172839506172839,39.50617283950617,0)" xlink:href="#T"/></g><path d="M205 0l-28-72H64L36 0H1l101-248h38L239 0h-34zm-38-99l-47-123c-12 45-31 82-46 123h93" id="V"/><use transform="matrix(0.06172839506172839,0,0,0.06172839506172839,0,0)" xlink:href="#V" id="b"/><path d="M160-131c35 5 61 23 61 61C221 17 115-2 30 0v-248c76 3 177-17 177 60 0 33-19 50-47 57zm-97-11c50-1 110 9 110-42 0-47-63-36-110-37v79zm0 115c55-2 124 14 124-45 0-56-70-42-124-44v89" id="W"/><use transform="matrix(0.06172839506172839,0,0,0.06172839506172839,0,0)" xlink:href="#W" id="c"/><path d="M30 0v-248h187v28H63v79h144v27H63v87h162V0H30" id="X"/><path d="M117-194c89-4 53 116 60 194h-32v-121c0-31-8-49-39-48C34-167 62-67 57 0H25l-1-190h30c1 10-1 24 2 32 11-22 29-35 61-36" id="Y"/><path d="M24-231v-30h32v30H24zM24 0v-190h32V0H24" id="Z"/><path d="M100-194c63 0 86 42 84 106H49c0 40 14 67 53 68 26 1 43-12 49-29l28 8c-11 28-37 45-77 45C44 4 14-33 15-96c1-61 26-98 85-98zm52 81c6-60-76-77-97-28-3 7-6 17-6 28h103" id="aa"/><g id="d"><use transform="matrix(0.06172839506172839,0,0,0.06172839506172839,0,0)" xlink:href="#X"/><use transform="matrix(0.06172839506172839,0,0,0.06172839506172839,14.814814814814813,0)" xlink:href="#Y"/><use transform="matrix(0.06172839506172839,0,0,0.06172839506172839,27.160493827160494,0)" xlink:href="#U"/><use transform="matrix(0.06172839506172839,0,0,0.06172839506172839,39.50617283950617,0)" xlink:href="#Z"/><use transform="matrix(0.06172839506172839,0,0,0.06172839506172839,44.382716049382715,0)" xlink:href="#Y"/><use transform="matrix(0.06172839506172839,0,0,0.06172839506172839,56.72839506172839,0)" xlink:href="#aa"/></g><path d="M127-220V0H93v-220H8v-28h204v28h-85" id="ab"/><path d="M106-169C34-169 62-67 57 0H25v-261h32l-1 103c12-21 28-36 61-36 89 0 53 116 60 194h-32v-121c2-32-8-49-39-48" id="ac"/><g id="e"><use transform="matrix(0.07407407407407408,0,0,0.07407407407407408,0,0)" xlink:href="#ab"/><use transform="matrix(0.07407407407407408,0,0,0.07407407407407408,16.222222222222225,0)" xlink:href="#ac"/><use transform="matrix(0.07407407407407408,0,0,0.07407407407407408,31.03703703703704,0)" xlink:href="#aa"/></g><path d="M194-120c59 52 2 134-86 124-53-6-90-18-98-63l31-7c8 30 29 43 70 43 46 0 84-17 71-62-32-43-135-20-137-98-3-89 178-90 191-16l-30 9c-8-48-127-53-127 5 0 53 81 35 115 65" id="ad"/><path d="M165-48c-4 18 1 34 23 27l-3 20c-29 8-62 0-52-35h-2C116-14 99 4 63 4 30 4 8-16 8-49c0-68 71-67 138-67 10-26 0-56-31-54-26 1-42 9-47 31l-32-5c8-67 160-71 144 15-5 28-9 54-15 81zM42-50c3 52 80 24 89-6 7-12 7-24 11-38-47 1-103-4-100 44" id="ae"/><path d="M103-194c29 0 47 14 56 36 2-11 5-23 8-32h30L160-5C157 61 82 97 21 62 9 55 4 45 1 30l28-7c7 42 83 31 92-3 4-16 9-38 13-55-13 20-29 36-62 36-40 0-60-25-60-64 0-71 23-131 91-131zm4 24c-53 0-58 54-61 104-2 27 10 44 36 44 49 0 65-50 67-102 1-29-15-46-42-46" id="af"/><g id="f"><use transform="matrix(0.07407407407407408,0,0,0.07407407407407408,0,0)" xlink:href="#ad"/><use transform="matrix(0.07407407407407408,0,0,0.07407407407407408,17.77777777777778,0)" xlink:href="#ae"/><use transform="matrix(0.07407407407407408,0,0,0.07407407407407408,32.592592592592595,0)" xlink:href="#af"/><use transform="matrix(0.07407407407407408,0,0,0.07407407407407408,47.40740740740741,0)" xlink:href="#ae"/></g><path d="M11 0l48-248h184l-5 28H87l-15 79h140l-5 27H67L50-27h158l-5 27H11" id="ag"/><path d="M67-158c22-48 132-52 116 29L158 0h-32l25-140c3-38-53-32-70-12C52-117 51-52 38 0H6l36-190h30" id="ah"/><path d="M50-231l6-30h32l-6 30H50zM6 0l37-190h31L37 0H6" id="ai"/><path d="M111-194c62-3 86 47 72 106H45c-7 38 6 69 45 68 27-1 43-14 53-32l24 11C152-15 129 4 87 4 38 3 12-23 12-71c0-70 32-119 99-123zm44 81c14-66-71-72-95-28-4 8-8 17-11 28h106" id="aj"/><g id="g"><use transform="matrix(0.07407407407407408,0,0,0.07407407407407408,0,0)" xlink:href="#ag"/><use transform="matrix(0.07407407407407408,0,0,0.07407407407407408,17.77777777777778,0)" xlink:href="#ah"/><use transform="matrix(0.07407407407407408,0,0,0.07407407407407408,32.592592592592595,0)" xlink:href="#af"/><use transform="matrix(0.07407407407407408,0,0,0.07407407407407408,47.40740740740741,0)" xlink:href="#ai"/><use transform="matrix(0.07407407407407408,0,0,0.07407407407407408,53.25925925925927,0)" xlink:href="#ah"/><use transform="matrix(0.07407407407407408,0,0,0.07407407407407408,68.07407407407408,0)" xlink:href="#aj"/></g><path d="M210-169c-67 3-38 105-44 169h-31v-121c0-29-5-50-35-48C34-165 62-65 56 0H25l-1-190h30c1 10-1 24 2 32 10-44 99-50 107 0 11-21 27-35 58-36 85-2 47 119 55 194h-31v-121c0-29-5-49-35-48" id="ak"/><path d="M135-143c-3-34-86-38-87 0 15 53 115 12 119 90S17 21 10-45l28-5c4 36 97 45 98 0-10-56-113-15-118-90-4-57 82-63 122-42 12 7 21 19 24 35" id="al"/><g id="h"><use transform="matrix(0.07407407407407408,0,0,0.07407407407407408,0,0)" xlink:href="#ak"/><use transform="matrix(0.07407407407407408,0,0,0.07407407407407408,22.148148148148152,0)" xlink:href="#T"/><use transform="matrix(0.07407407407407408,0,0,0.07407407407407408,36.96296296296297,0)" xlink:href="#Y"/><use transform="matrix(0.07407407407407408,0,0,0.07407407407407408,51.777777777777786,0)" xlink:href="#T"/><use transform="matrix(0.07407407407407408,0,0,0.07407407407407408,66.59259259259261,0)" xlink:href="#U"/><use transform="matrix(0.07407407407407408,0,0,0.07407407407407408,81.40740740740742,0)" xlink:href="#aa"/><use transform="matrix(0.07407407407407408,0,0,0.07407407407407408,96.22222222222223,0)" xlink:href="#al"/></g><g id="i"><use transform="matrix(0.07407407407407408,0,0,0.07407407407407408,0,0)" xlink:href="#ad"/><use transform="matrix(0.07407407407407408,0,0,0.07407407407407408,17.77777777777778,0)" xlink:href="#ae"/><use transform="matrix(0.07407407407407408,0,0,0.07407407407407408,32.592592592592595,0)" xlink:href="#af"/><use transform="matrix(0.07407407407407408,0,0,0.07407407407407408,47.40740740740741,0)" xlink:href="#ae"/></g><path d="M59-47c-2 24 18 29 38 22v24C64 9 27 4 27-40v-127H5v-23h24l9-43h21v43h35v23H59v120" id="am"/><path d="M96-169c-40 0-48 33-48 73s9 75 48 75c24 0 41-14 43-38l32 2c-6 37-31 61-74 61-59 0-76-41-82-99-10-93 101-131 147-64 4 7 5 14 7 22l-32 3c-4-21-16-35-41-35" id="an"/><path d="M68-38c1 34 0 65-14 84H32c9-13 17-26 17-46H33v-38h35" id="ao"/><g id="j"><use transform="matrix(0.07407407407407408,0,0,0.07407407407407408,0,0)" xlink:href="#Z"/><use transform="matrix(0.07407407407407408,0,0,0.07407407407407408,5.851851851851853,0)" xlink:href="#Y"/><use transform="matrix(0.07407407407407408,0,0,0.07407407407407408,20.666666666666668,0)" xlink:href="#al"/><use transform="matrix(0.07407407407407408,0,0,0.07407407407407408,34.00000000000001,0)" xlink:href="#am"/><use transform="matrix(0.07407407407407408,0,0,0.07407407407407408,41.40740740740742,0)" xlink:href="#T"/><use transform="matrix(0.07407407407407408,0,0,0.07407407407407408,56.222222222222236,0)" xlink:href="#Y"/><use transform="matrix(0.07407407407407408,0,0,0.07407407407407408,71.03703703703705,0)" xlink:href="#an"/><use transform="matrix(0.07407407407407408,0,0,0.07407407407407408,84.37037037037038,0)" xlink:href="#aa"/><use transform="matrix(0.07407407407407408,0,0,0.07407407407407408,99.1851851851852,0)" xlink:href="#al"/><use transform="matrix(0.07407407407407408,0,0,0.07407407407407408,112.51851851851853,0)" xlink:href="#ao"/></g><path d="M85-194c31 0 48 13 60 33l-1-100h32l1 261h-30c-2-10 0-23-3-31C134-8 116 4 85 4 32 4 16-35 15-94c0-66 23-100 70-100zm9 24c-40 0-46 34-46 75 0 40 6 74 45 74 42 0 51-32 51-76 0-42-9-74-50-73" id="ap"/><g id="k"><use transform="matrix(0.07407407407407408,0,0,0.07407407407407408,0,0)" xlink:href="#al"/><use transform="matrix(0.07407407407407408,0,0,0.07407407407407408,13.333333333333336,0)" xlink:href="#aa"/><use transform="matrix(0.07407407407407408,0,0,0.07407407407407408,28.148148148148152,0)" xlink:href="#Y"/><use transform="matrix(0.07407407407407408,0,0,0.07407407407407408,42.96296296296297,0)" xlink:href="#ap"/><use transform="matrix(0.07407407407407408,0,0,0.07407407407407408,57.777777777777786,0)" xlink:href="#al"/></g><path d="M114-163C36-179 61-72 57 0H25l-1-190h30c1 12-1 29 2 39 6-27 23-49 58-41v29" id="aq"/><g id="l"><use transform="matrix(0.07407407407407408,0,0,0.07407407407407408,0,0)" xlink:href="#am"/><use transform="matrix(0.07407407407407408,0,0,0.07407407407407408,7.407407407407408,0)" xlink:href="#ac"/><use transform="matrix(0.07407407407407408,0,0,0.07407407407407408,22.222222222222225,0)" xlink:href="#aa"/><use transform="matrix(0.07407407407407408,0,0,0.07407407407407408,37.03703703703704,0)" xlink:href="#Z"/><use transform="matrix(0.07407407407407408,0,0,0.07407407407407408,42.88888888888889,0)" xlink:href="#aq"/></g><path d="M145-31C134-9 116 4 85 4 32 4 16-35 15-94c0-59 17-99 70-100 32-1 48 14 60 33 0-11-1-24 2-32h30l-1 268h-32zM93-21c41 0 51-33 51-76s-8-73-50-73c-40 0-46 35-46 75s5 74 45 74" id="ar"/><path d="M84 4C-5 8 30-112 23-190h32v120c0 31 7 50 39 49 72-2 45-101 50-169h31l1 190h-30c-1-10 1-25-2-33-11 22-28 36-60 37" id="as"/><g id="m"><use transform="matrix(0.07407407407407408,0,0,0.07407407407407408,0,0)" xlink:href="#aq"/><use transform="matrix(0.07407407407407408,0,0,0.07407407407407408,8.814814814814817,0)" xlink:href="#aa"/><use transform="matrix(0.07407407407407408,0,0,0.07407407407407408,23.629629629629633,0)" xlink:href="#ar"/><use transform="matrix(0.07407407407407408,0,0,0.07407407407407408,38.44444444444445,0)" xlink:href="#as"/><use transform="matrix(0.07407407407407408,0,0,0.07407407407407408,53.25925925925927,0)" xlink:href="#aa"/><use transform="matrix(0.07407407407407408,0,0,0.07407407407407408,68.07407407407408,0)" xlink:href="#al"/><use transform="matrix(0.07407407407407408,0,0,0.07407407407407408,81.40740740740742,0)" xlink:href="#am"/><use transform="matrix(0.07407407407407408,0,0,0.07407407407407408,88.81481481481482,0)" xlink:href="#al"/></g><path d="M100-194c62-1 85 37 85 99 1 63-27 99-86 99S16-35 15-95c0-66 28-99 85-99zM99-20c44 1 53-31 53-75 0-43-8-75-51-75s-53 32-53 75 10 74 51 75" id="at"/><g id="n"><use transform="matrix(0.07407407407407408,0,0,0.07407407407407408,0,0)" xlink:href="#am"/><use transform="matrix(0.07407407407407408,0,0,0.07407407407407408,7.407407407407408,0)" xlink:href="#at"/></g><g id="o"><use transform="matrix(0.07407407407407408,0,0,0.07407407407407408,0,0)" xlink:href="#am"/><use transform="matrix(0.07407407407407408,0,0,0.07407407407407408,7.407407407407408,0)" xlink:href="#ac"/><use transform="matrix(0.07407407407407408,0,0,0.07407407407407408,22.222222222222225,0)" xlink:href="#aa"/></g><path d="M108 0H70L1-190h34L89-25l56-165h34" id="au"/><g id="p"><use transform="matrix(0.07407407407407408,0,0,0.07407407407407408,0,0)" xlink:href="#al"/><use transform="matrix(0.07407407407407408,0,0,0.07407407407407408,13.333333333333336,0)" xlink:href="#aa"/><use transform="matrix(0.07407407407407408,0,0,0.07407407407407408,28.148148148148152,0)" xlink:href="#aq"/><use transform="matrix(0.07407407407407408,0,0,0.07407407407407408,36.96296296296297,0)" xlink:href="#au"/><use transform="matrix(0.07407407407407408,0,0,0.07407407407407408,50.296296296296305,0)" xlink:href="#Z"/><use transform="matrix(0.07407407407407408,0,0,0.07407407407407408,56.14814814814815,0)" xlink:href="#an"/><use transform="matrix(0.07407407407407408,0,0,0.07407407407407408,69.4814814814815,0)" xlink:href="#aa"/><use transform="matrix(0.07407407407407408,0,0,0.07407407407407408,84.2962962962963,0)" xlink:href="#al"/><use transform="matrix(0.07407407407407408,0,0,0.07407407407407408,97.62962962962965,0)" xlink:href="#ao"/></g><g id="q"><use transform="matrix(0.07407407407407408,0,0,0.07407407407407408,0,0)" xlink:href="#T"/><use transform="matrix(0.07407407407407408,0,0,0.07407407407407408,14.814814814814817,0)" xlink:href="#Y"/><use transform="matrix(0.07407407407407408,0,0,0.07407407407407408,29.629629629629633,0)" xlink:href="#ap"/></g><path d="M115-194c53 0 69 39 70 98 0 66-23 100-70 100C84 3 66-7 56-30L54 0H23l1-261h32v101c10-23 28-34 59-34zm-8 174c40 0 45-34 45-75 0-40-5-75-45-74-42 0-51 32-51 76 0 43 10 73 51 73" id="av"/><g id="r"><use transform="matrix(0.07407407407407408,0,0,0.07407407407407408,0,0)" xlink:href="#av"/><use transform="matrix(0.07407407407407408,0,0,0.07407407407407408,14.814814814814817,0)" xlink:href="#aq"/><use transform="matrix(0.07407407407407408,0,0,0.07407407407407408,23.629629629629633,0)" xlink:href="#Z"/><use transform="matrix(0.07407407407407408,0,0,0.07407407407407408,29.481481481481488,0)" xlink:href="#Y"/><use transform="matrix(0.07407407407407408,0,0,0.07407407407407408,44.296296296296305,0)" xlink:href="#U"/><use transform="matrix(0.07407407407407408,0,0,0.07407407407407408,59.11111111111112,0)" xlink:href="#al"/></g><path d="M143 0L79-87 56-68V0H24v-261h32v163l83-92h37l-77 82L181 0h-38" id="aw"/><g id="s"><use transform="matrix(0.07407407407407408,0,0,0.07407407407407408,0,0)" xlink:href="#av"/><use transform="matrix(0.07407407407407408,0,0,0.07407407407407408,14.814814814814817,0)" xlink:href="#T"/><use transform="matrix(0.07407407407407408,0,0,0.07407407407407408,29.629629629629633,0)" xlink:href="#an"/><use transform="matrix(0.07407407407407408,0,0,0.07407407407407408,42.96296296296297,0)" xlink:href="#aw"/></g><path d="M115-194c55 1 70 41 70 98S169 2 115 4C84 4 66-9 55-30l1 105H24l-1-265h31l2 30c10-21 28-34 59-34zm-8 174c40 0 45-34 45-75s-6-73-45-74c-42 0-51 32-51 76 0 43 10 73 51 73" id="ax"/><g id="t"><use transform="matrix(0.07407407407407408,0,0,0.07407407407407408,0,0)" xlink:href="#aq"/><use transform="matrix(0.07407407407407408,0,0,0.07407407407407408,8.814814814814817,0)" xlink:href="#aa"/><use transform="matrix(0.07407407407407408,0,0,0.07407407407407408,23.629629629629633,0)" xlink:href="#al"/><use transform="matrix(0.07407407407407408,0,0,0.07407407407407408,36.96296296296297,0)" xlink:href="#ax"/><use transform="matrix(0.07407407407407408,0,0,0.07407407407407408,51.777777777777786,0)" xlink:href="#at"/><use transform="matrix(0.07407407407407408,0,0,0.07407407407407408,66.59259259259261,0)" xlink:href="#Y"/><use transform="matrix(0.07407407407407408,0,0,0.07407407407407408,81.40740740740742,0)" xlink:href="#al"/><use transform="matrix(0.07407407407407408,0,0,0.07407407407407408,94.74074074074078,0)" xlink:href="#aa"/><use transform="matrix(0.07407407407407408,0,0,0.07407407407407408,109.55555555555557,0)" xlink:href="#al"/></g><g id="u"><use transform="matrix(0.07407407407407408,0,0,0.07407407407407408,0,0)" xlink:href="#X"/><use transform="matrix(0.07407407407407408,0,0,0.07407407407407408,17.77777777777778,0)" xlink:href="#T"/><use transform="matrix(0.07407407407407408,0,0,0.07407407407407408,32.592592592592595,0)" xlink:href="#an"/><use transform="matrix(0.07407407407407408,0,0,0.07407407407407408,45.92592592592593,0)" xlink:href="#ac"/></g><g id="v"><use transform="matrix(0.07407407407407408,0,0,0.07407407407407408,0,0)" xlink:href="#al"/><use transform="matrix(0.07407407407407408,0,0,0.07407407407407408,13.333333333333336,0)" xlink:href="#aa"/><use transform="matrix(0.07407407407407408,0,0,0.07407407407407408,28.148148148148152,0)" xlink:href="#aq"/><use transform="matrix(0.07407407407407408,0,0,0.07407407407407408,36.96296296296297,0)" xlink:href="#au"/><use transform="matrix(0.07407407407407408,0,0,0.07407407407407408,50.296296296296305,0)" xlink:href="#Z"/><use transform="matrix(0.07407407407407408,0,0,0.07407407407407408,56.14814814814815,0)" xlink:href="#an"/><use transform="matrix(0.07407407407407408,0,0,0.07407407407407408,69.4814814814815,0)" xlink:href="#aa"/></g><path d="M206 0h-36l-40-164L89 0H53L-1-190h32L70-26l43-164h34l41 164 42-164h31" id="ay"/><g id="w"><use transform="matrix(0.07407407407407408,0,0,0.07407407407407408,0,0)" xlink:href="#at"/><use transform="matrix(0.07407407407407408,0,0,0.07407407407407408,14.814814814814817,0)" xlink:href="#ay"/><use transform="matrix(0.07407407407407408,0,0,0.07407407407407408,34,0)" xlink:href="#Y"/><use transform="matrix(0.07407407407407408,0,0,0.07407407407407408,48.81481481481481,0)" xlink:href="#al"/></g><g id="x"><use transform="matrix(0.07407407407407408,0,0,0.07407407407407408,0,0)" xlink:href="#Z"/><use transform="matrix(0.07407407407407408,0,0,0.07407407407407408,5.851851851851853,0)" xlink:href="#am"/><use transform="matrix(0.07407407407407408,0,0,0.07407407407407408,13.259259259259261,0)" xlink:href="#al"/></g><g id="y"><use transform="matrix(0.07407407407407408,0,0,0.07407407407407408,0,0)" xlink:href="#ap"/><use transform="matrix(0.07407407407407408,0,0,0.07407407407407408,14.814814814814817,0)" xlink:href="#T"/><use transform="matrix(0.07407407407407408,0,0,0.07407407407407408,29.629629629629633,0)" xlink:href="#am"/><use transform="matrix(0.07407407407407408,0,0,0.07407407407407408,37.03703703703704,0)" xlink:href="#T"/></g><path d="M55-144c13 50 104 24 104 88C159 21 15 23 1-39l26-10c6 40 102 42 102-4-13-50-104-23-104-87 0-71 143-71 148-8l-29 4c-5-35-85-37-89 0" id="az"/><g id="z"><use transform="matrix(0.07407407407407408,0,0,0.07407407407407408,0,0)" xlink:href="#ad"/><use transform="matrix(0.07407407407407408,0,0,0.07407407407407408,17.77777777777778,0)" xlink:href="#ae"/><use transform="matrix(0.07407407407407408,0,0,0.07407407407407408,32.592592592592595,0)" xlink:href="#af"/><use transform="matrix(0.07407407407407408,0,0,0.07407407407407408,47.40740740740741,0)" xlink:href="#ae"/><use transform="matrix(0.07407407407407408,0,0,0.07407407407407408,62.22222222222223,0)" xlink:href="#az"/></g><g id="A"><use transform="matrix(0.07407407407407408,0,0,0.07407407407407408,0,0)" xlink:href="#at"/><use transform="matrix(0.07407407407407408,0,0,0.07407407407407408,14.814814814814817,0)" xlink:href="#au"/><use transform="matrix(0.07407407407407408,0,0,0.07407407407407408,28.148148148148152,0)" xlink:href="#aa"/><use transform="matrix(0.07407407407407408,0,0,0.07407407407407408,42.96296296296297,0)" xlink:href="#aq"/><use transform="matrix(0.07407407407407408,0,0,0.07407407407407408,51.777777777777786,0)" xlink:href="#al"/><use transform="matrix(0.07407407407407408,0,0,0.07407407407407408,65.11111111111111,0)" xlink:href="#aa"/><use transform="matrix(0.07407407407407408,0,0,0.07407407407407408,79.92592592592592,0)" xlink:href="#aa"/></g><g id="B"><use transform="matrix(0.07407407407407408,0,0,0.07407407407407408,0,0)" xlink:href="#ap"/><use transform="matrix(0.07407407407407408,0,0,0.07407407407407408,14.814814814814817,0)" xlink:href="#Z"/><use transform="matrix(0.07407407407407408,0,0,0.07407407407407408,20.666666666666668,0)" xlink:href="#al"/><use transform="matrix(0.07407407407407408,0,0,0.07407407407407408,34.00000000000001,0)" xlink:href="#am"/><use transform="matrix(0.07407407407407408,0,0,0.07407407407407408,41.40740740740742,0)" xlink:href="#aq"/><use transform="matrix(0.07407407407407408,0,0,0.07407407407407408,50.222222222222236,0)" xlink:href="#Z"/><use transform="matrix(0.07407407407407408,0,0,0.07407407407407408,56.07407407407409,0)" xlink:href="#av"/><use transform="matrix(0.07407407407407408,0,0,0.07407407407407408,70.88888888888891,0)" xlink:href="#as"/><use transform="matrix(0.07407407407407408,0,0,0.07407407407407408,85.70370370370374,0)" xlink:href="#am"/><use transform="matrix(0.07407407407407408,0,0,0.07407407407407408,93.11111111111113,0)" xlink:href="#aa"/><use transform="matrix(0.07407407407407408,0,0,0.07407407407407408,107.92592592592595,0)" xlink:href="#ap"/></g><g id="C"><use transform="matrix(0.07407407407407408,0,0,0.07407407407407408,0,0)" xlink:href="#am"/><use transform="matrix(0.07407407407407408,0,0,0.07407407407407408,7.407407407407408,0)" xlink:href="#aq"/><use transform="matrix(0.07407407407407408,0,0,0.07407407407407408,16.222222222222225,0)" xlink:href="#T"/><use transform="matrix(0.07407407407407408,0,0,0.07407407407407408,31.03703703703704,0)" xlink:href="#Y"/><use transform="matrix(0.07407407407407408,0,0,0.07407407407407408,45.851851851851855,0)" xlink:href="#al"/><use transform="matrix(0.07407407407407408,0,0,0.07407407407407408,59.185185185185205,0)" xlink:href="#T"/><use transform="matrix(0.07407407407407408,0,0,0.07407407407407408,74.00000000000001,0)" xlink:href="#an"/><use transform="matrix(0.07407407407407408,0,0,0.07407407407407408,87.33333333333334,0)" xlink:href="#am"/><use transform="matrix(0.07407407407407408,0,0,0.07407407407407408,94.74074074074075,0)" xlink:href="#Z"/><use transform="matrix(0.07407407407407408,0,0,0.07407407407407408,100.5925925925926,0)" xlink:href="#at"/><use transform="matrix(0.07407407407407408,0,0,0.07407407407407408,115.40740740740742,0)" xlink:href="#Y"/><use transform="matrix(0.07407407407407408,0,0,0.07407407407407408,130.22222222222223,0)" xlink:href="#al"/></g><path d="M16-82v-28h88v28H16" id="aA"/><use transform="matrix(0.07407407407407408,0,0,0.07407407407407408,0,0)" xlink:href="#aA" id="D"/><path d="M6 0l50-261h32L37 0H6" id="aB"/><g id="E"><use transform="matrix(0.07407407407407408,0,0,0.07407407407407408,0,0)" xlink:href="#ae"/><use transform="matrix(0.07407407407407408,0,0,0.07407407407407408,14.814814814814817,0)" xlink:href="#aB"/><use transform="matrix(0.07407407407407408,0,0,0.07407407407407408,20.666666666666668,0)" xlink:href="#aB"/></g><path d="M30-147c31-64 166-65 159 27C183-49 158 1 86 4 9 8 1-88 30-147zM88-20c53 0 68-48 68-100 0-31-11-51-44-50-52 1-68 46-68 97 0 32 13 53 44 53" id="aC"/><path d="M66-151c12-25 30-51 66-40l-6 26C45-176 58-65 38 0H6l36-190h30" id="aD"/><g id="F"><use transform="matrix(0.07407407407407408,0,0,0.07407407407407408,0,0)" xlink:href="#aC"/><use transform="matrix(0.07407407407407408,0,0,0.07407407407407408,14.814814814814817,0)" xlink:href="#aD"/></g><path d="M51-54c-9 22 5 41 31 30L79-1C43 14 10-4 19-52l22-115H19l5-23h22l19-43h21l-9 43h35l-4 23H73" id="aE"/><path d="M67-158c15-20 31-36 64-36 94 0 33 127 27 194h-32l25-140c3-38-53-32-70-12C52-117 51-51 37 0H6l51-261h31" id="aF"/><g id="G"><use transform="matrix(0.07407407407407408,0,0,0.07407407407407408,0,0)" xlink:href="#ah"/><use transform="matrix(0.07407407407407408,0,0,0.07407407407407408,14.814814814814817,0)" xlink:href="#aC"/><use transform="matrix(0.07407407407407408,0,0,0.07407407407407408,29.629629629629633,0)" xlink:href="#aE"/><use transform="matrix(0.07407407407407408,0,0,0.07407407407407408,37.03703703703704,0)" xlink:href="#aF"/><use transform="matrix(0.07407407407407408,0,0,0.07407407407407408,51.85185185185186,0)" xlink:href="#ai"/><use transform="matrix(0.07407407407407408,0,0,0.07407407407407408,57.70370370370371,0)" xlink:href="#ah"/><use transform="matrix(0.07407407407407408,0,0,0.07407407407407408,72.51851851851853,0)" xlink:href="#af"/></g><g id="H"><use transform="matrix(0.07407407407407408,0,0,0.07407407407407408,0,0)" xlink:href="#ay"/><use transform="matrix(0.07407407407407408,0,0,0.07407407407407408,19.185185185185187,0)" xlink:href="#aq"/><use transform="matrix(0.07407407407407408,0,0,0.07407407407407408,28.000000000000004,0)" xlink:href="#Z"/><use transform="matrix(0.07407407407407408,0,0,0.07407407407407408,33.851851851851855,0)" xlink:href="#am"/><use transform="matrix(0.07407407407407408,0,0,0.07407407407407408,41.25925925925927,0)" xlink:href="#aa"/><use transform="matrix(0.07407407407407408,0,0,0.07407407407407408,56.07407407407408,0)" xlink:href="#al"/></g><g id="I"><use transform="matrix(0.07407407407407408,0,0,0.07407407407407408,0,0)" xlink:href="#am"/><use transform="matrix(0.07407407407407408,0,0,0.07407407407407408,7.407407407407408,0)" xlink:href="#at"/></g><path d="M24 0v-261h32V0H24" id="aG"/><g id="J"><use transform="matrix(0.07407407407407408,0,0,0.07407407407407408,0,0)" xlink:href="#al"/><use transform="matrix(0.07407407407407408,0,0,0.07407407407407408,13.333333333333336,0)" xlink:href="#aa"/><use transform="matrix(0.07407407407407408,0,0,0.07407407407407408,28.148148148148152,0)" xlink:href="#au"/><use transform="matrix(0.07407407407407408,0,0,0.07407407407407408,41.48148148148149,0)" xlink:href="#aa"/><use transform="matrix(0.07407407407407408,0,0,0.07407407407407408,56.296296296296305,0)" xlink:href="#aq"/><use transform="matrix(0.07407407407407408,0,0,0.07407407407407408,65.11111111111111,0)" xlink:href="#T"/><use transform="matrix(0.07407407407407408,0,0,0.07407407407407408,79.92592592592592,0)" xlink:href="#aG"/></g><g id="K"><use transform="matrix(0.07407407407407408,0,0,0.07407407407407408,0,0)" xlink:href="#al"/><use transform="matrix(0.07407407407407408,0,0,0.07407407407407408,13.333333333333336,0)" xlink:href="#aa"/><use transform="matrix(0.07407407407407408,0,0,0.07407407407407408,28.148148148148152,0)" xlink:href="#aq"/><use transform="matrix(0.07407407407407408,0,0,0.07407407407407408,36.96296296296297,0)" xlink:href="#au"/><use transform="matrix(0.07407407407407408,0,0,0.07407407407407408,50.296296296296305,0)" xlink:href="#Z"/><use transform="matrix(0.07407407407407408,0,0,0.07407407407407408,56.14814814814815,0)" xlink:href="#an"/><use transform="matrix(0.07407407407407408,0,0,0.07407407407407408,69.4814814814815,0)" xlink:href="#aa"/><use transform="matrix(0.07407407407407408,0,0,0.07407407407407408,84.2962962962963,0)" xlink:href="#al"/></g><linearGradient gradientUnits="userSpaceOnUse" id="L" x1="459.4" y1="881.67" x2="459.4" y2="720"><stop offset="19.2%" stop-color="#ced4db"/><stop offset="26.45%" stop-color="#fff"/><stop offset="45.29%" stop-color="#fff"/><stop offset="52.54%" stop-color="#cfe4ff"/><stop offset="73.91%" stop-color="#cfe4ff"/><stop offset="82.97%" stop-color="#c3f7c8"/></linearGradient><g id="M"><use transform="matrix(0.06172839506172839,0,0,0.06172839506172839,0,0)" xlink:href="#S"/><use transform="matrix(0.06172839506172839,0,0,0.06172839506172839,14.814814814814813,0)" xlink:href="#aa"/><use transform="matrix(0.06172839506172839,0,0,0.06172839506172839,27.160493827160494,0)" xlink:href="#aq"/><use transform="matrix(0.06172839506172839,0,0,0.06172839506172839,34.50617283950617,0)" xlink:href="#au"/><use transform="matrix(0.06172839506172839,0,0,0.06172839506172839,45.61728395061728,0)" xlink:href="#Z"/><use transform="matrix(0.06172839506172839,0,0,0.06172839506172839,50.49382716049382,0)" xlink:href="#an"/><use transform="matrix(0.06172839506172839,0,0,0.06172839506172839,61.60493827160494,0)" xlink:href="#aa"/></g><path d="M195 0l-74-108L45 0H8l94-129-87-119h37l69 98 67-98h37l-84 118L233 0h-38" id="aH"/><use transform="matrix(0.06172839506172839,0,0,0.06172839506172839,0,0)" xlink:href="#aH" id="N"/><linearGradient gradientUnits="userSpaceOnUse" id="O" x1="580" y1="881.67" x2="580" y2="720"><stop offset="19.2%" stop-color="#ced4db"/><stop offset="26.45%" stop-color="#fff"/><stop offset="45.29%" stop-color="#fff"/><stop offset="52.54%" stop-color="#cfe4ff"/><stop offset="73.91%" stop-color="#cfe4ff"/><stop offset="82.97%" stop-color="#c3f7c8"/></linearGradient><path d="M137-103V0h-34v-103L8-248h37l75 118 75-118h37" id="aI"/><use transform="matrix(0.06172839506172839,0,0,0.06172839506172839,0,0)" xlink:href="#aI" id="P"/><linearGradient gradientUnits="userSpaceOnUse" id="Q" x1="699.36" y1="881.67" x2="699.36" y2="720"><stop offset="19.2%" stop-color="#ced4db"/><stop offset="26.45%" stop-color="#fff"/><stop offset="45.29%" stop-color="#fff"/><stop offset="52.54%" stop-color="#cfe4ff"/><stop offset="73.91%" stop-color="#cfe4ff"/><stop offset="82.97%" stop-color="#c3f7c8"/></linearGradient><path d="M209 0H11v-25l151-195H24v-28h176v25L50-27h159V0" id="aJ"/><use transform="matrix(0.06172839506172839,0,0,0.06172839506172839,0,0)" xlink:href="#aJ" id="R"/></defs></g></svg>