<svg xmlns="http://www.w3.org/2000/svg" xmlns:xlink="http://www.w3.org/1999/xlink" xmlns:lucid="lucid" width="1023" height="602.67"><g transform="translate(-458.5 -357.66666666666663)" lucid:page-tab-id="0_0"><path d="M620.53 760.83a20 20 0 0 1 20-20h20a20 20 0 0 1 20 20 20 20 0 0 1-20 20h-20a20 20 0 0 1-20-20z" stroke="#000" stroke-width="3" fill="url(#a)" transform="matrix(-1,1.2246467991473532e-16,-1.2246467991473532e-16,-1,1301.0559828432142,1521.6666666666665)"/><path d="M460 580.83a20 20 0 0 1 20-20h200a20 20 0 0 1 20 20v100a20 20 0 0 1-20 20H480a20 20 0 0 1-20-20z" stroke="#000" stroke-width="3" fill="url(#b)"/><use xlink:href="#c" transform="matrix(1,0,0,1,465,565.8333333333334) translate(86.18518518518519 70.08333333333334)"/><path d="M460 379.67A19.67 19.67 0 0 1 479.67 360h200.66A19.67 19.67 0 0 1 700 379.67a19.67 19.67 0 0 1-19.67 19.66H479.67A19.67 19.67 0 0 1 460 379.67z" stroke="#cc4e00" stroke-width="3" fill="#e8e2c8"/><use xlink:href="#d" transform="matrix(1,0,0,1,465.00000021151095,365) translate(83.87228395061727 21.430555555555557)"/><path d="M820 660a20 20 0 0 1 20-20h200a20 20 0 0 1 20 20v20a20 20 0 0 1-20 20H840a20 20 0 0 1-20-20z" stroke="#000" stroke-width="3" fill="#cfe4ff"/><use xlink:href="#e" transform="matrix(1,0,0,1,825.0100942689774,645) translate(73.00308641975307 28.930555555555557)"/><path d="M820 580a20 20 0 0 1 20-20h200a20 20 0 0 1 20 20 20 20 0 0 1-20 20H840a20 20 0 0 1-20-20z" stroke="#000" stroke-width="3" fill="#c3f7c8"/><use xlink:href="#f" transform="matrix(1,0,0,1,825.0100942689774,565) translate(83.80438271604939 21.430555555555557)"/><path d="M940 620v-17.5" stroke="#000" stroke-width="2" fill="none"/><path d="M940 635.26L935.38 621h9.27z" stroke="#000" stroke-width="2"/><path d="M941 602.53H939v-1.03H941z" stroke="#000" stroke-width=".05"/><path d="M460.54 826.83a6 6 0 0 1 6-6h228a6 6 0 0 1 6 6v126a6 6 0 0 1-6 6h-228a6 6 0 0 1-6-6z" stroke="#000" stroke-opacity="0" stroke-width="3" fill="#fff" fill-opacity="0"/><use xlink:href="#g" transform="matrix(1,0,0,1,465.5380862434314,825.8333333333334) translate(26.407407407407433 32.444444444444436)"/><use xlink:href="#h" transform="matrix(1,0,0,1,465.5380862434314,825.8333333333334) translate(25.32098765432103 75.11111111111109)"/><use xlink:href="#i" transform="matrix(1,0,0,1,465.5380862434314,825.8333333333334) translate(10.555555555555586 117.77777777777774)"/><path d="M820.03 826a6 6 0 0 1 6-6h228a6 6 0 0 1 6 6v126a6 6 0 0 1-6 6h-228a6 6 0 0 1-6-6z" stroke="#000" stroke-opacity="0" stroke-width="3" fill="#fff" fill-opacity="0"/><use xlink:href="#j" transform="matrix(1,0,0,1,825.0302837011147,825) translate(46.95061728395065 32.444444444444436)"/><use xlink:href="#h" transform="matrix(1,0,0,1,825.0302837011147,825) translate(25.32098765432103 75.11111111111109)"/><use xlink:href="#i" transform="matrix(1,0,0,1,825.0302837011147,825) translate(10.555555555555586 117.77777777777774)"/><path d="M509.73 540.83l.25-17.5" stroke="#000" stroke-width="2" fill="none"/><path d="M509.5 556.1l-4.42-14.33 9.27.13z" stroke="#000" stroke-width="2"/><path d="M510.96 523.37l-1.95-.02.02-1.02h1.96z" stroke="#000" stroke-width=".05"/><path d="M650.28 540.83l.24 17.5" stroke="#000" stroke-width="2" fill="none"/><path d="M650.07 525.57l4.83 14.2-9.27.13z" stroke="#000" stroke-width="2"/><path d="M651.5 559.33h-1.94v-1l1.94-.04z" stroke="#000" stroke-width=".05"/><path d="M600.54 780.83a20 20 0 0 1 20-20h60a20 20 0 0 1 20 20 20 20 0 0 1-20 20h-60a20 20 0 0 1-20-20z" stroke="#1071e5" stroke-width="3" fill="#fff"/><use xlink:href="#k" transform="matrix(1,0,0,1,605.5380862434314,765.8333333333335) translate(28.742654320987654 21.430555555555557)"/><path d="M510 720.84l-.5-17.5" stroke="#000" stroke-width="2" fill="none"/><path d="M510.43 736.1l-5.05-14.13 9.27-.26z" stroke="#000" stroke-width="2"/><path d="M510.47 703.33l-1.95.06-.03-1.07h1.94z" stroke="#000" stroke-width=".05"/><path d="M650.54 720.83v-17.5" stroke="#000" stroke-width="2" fill="none"/><path d="M650.54 736.1l-4.64-14.27h9.27z" stroke="#000" stroke-width="2"/><path d="M651.5 703.36h-1.94v-1.03h1.95z" stroke="#000" stroke-width=".05"/><path d="M480 500.83a20 20 0 0 1 20-20h20a20 20 0 0 1 20 20 20 20 0 0 1-20 20h-20a20 20 0 0 1-20-20z" stroke="#000" stroke-width="3" fill="url(#l)"/><path d="M620 500.83a20 20 0 0 1 20-20h20a20 20 0 0 1 20 20 20 20 0 0 1-20 20h-20a20 20 0 0 1-20-20z" stroke="#000" stroke-width="3" fill="url(#m)"/><path d="M460 479.67A19.67 19.67 0 0 1 479.67 460h60.66A19.67 19.67 0 0 1 560 479.67a19.67 19.67 0 0 1-19.67 19.66h-60.66A19.67 19.67 0 0 1 460 479.67z" stroke="#cc4e00" stroke-width="3" fill="#fff"/><use xlink:href="#n" transform="matrix(1,0,0,1,465.00000021151095,465) translate(17.844506172839502 21.430555555555557)"/><path d="M600 479.67A19.67 19.67 0 0 1 619.7 460h60.66A19.67 19.67 0 0 1 700 479.67a19.67 19.67 0 0 1-19.66 19.66h-60.66A19.67 19.67 0 0 1 600 479.67z" stroke="#cc4e00" stroke-width="3" fill="#fff"/><use xlink:href="#o" transform="matrix(1,0,0,1,605.0100944804883,465) translate(8.338333333333326 21.430555555555557)"/><path d="M512.2 401.84l-.15 42.5M508.2 401.83l-.15 42.5" stroke="#cc4e00" stroke-width="2" fill="none"/><path d="M513.2 401.87h-1.96v-1.04h1.95zM509.2 401.86h-1.96v-1.03h1.95z" stroke="#cc4e00" stroke-width=".05" fill="#cc4e00"/><path d="M520.07 439.22L510 456.5l-9.93-17.36M510 456.5l.04-8.5M648 457.5l-.16-42.5M652 457.5l-.16-42.5" stroke="#cc4e00" stroke-width="2" fill="none"/><path d="M649 458.5H647v-1l1.95-.02zM653 458.5H651v-1.03h1.95z" stroke="#cc4e00" stroke-width=".05" fill="#cc4e00"/><path d="M639.86 420.2l9.93-17.37 10.06 17.28m-10.07-17.27l.02 8.5" stroke="#cc4e00" stroke-width="2" fill="none"/><path d="M480.52 760.83a20 20 0 0 1 20-20h20a20 20 0 0 1 20 20 20 20 0 0 1-20 20h-20a20 20 0 0 1-20-20z" stroke="#000" stroke-width="3" fill="url(#p)" transform="matrix(-1,1.2246467991473532e-16,-1.2246467991473532e-16,-1,1021.0357936225887,1521.6666666666665)"/><path d="M460.52 780.83a20 20 0 0 1 20-20h60a20 20 0 0 1 20 20 20 20 0 0 1-20 20h-60a20 20 0 0 1-20-20z" stroke="#008a0e" stroke-width="3" fill="#ced4db"/><use xlink:href="#q" transform="matrix(1,0,0,1,465.51789681129424,765.8333333333334) translate(28.06364197530864 21.430555555555557)"/><path d="M820 378.83a19.67 19.67 0 0 1 19.67-19.66h200.66a19.67 19.67 0 0 1 19.67 19.66 19.67 19.67 0 0 1-19.67 19.67H839.67A19.67 19.67 0 0 1 820 378.83z" stroke="#cc4e00" stroke-width="3" fill="#e8e2c8"/><use xlink:href="#d" transform="matrix(1,0,0,1,825,364.16666666666663) translate(83.87228395061727 21.430555555555557)"/><path d="M870 540v-17.5" stroke="#000" stroke-width="2" fill="none"/><path d="M870 555.26L865.35 541h9.27z" stroke="#000" stroke-width="2"/><path d="M870.98 522.53H869v-1.03H871z" stroke="#000" stroke-width=".05"/><path d="M1010 540v17.5" stroke="#000" stroke-width="2" fill="none"/><path d="M1010.02 524.74l4.63 14.26h-9.27z" stroke="#000" stroke-width="2"/><path d="M1010 557.47v1.03" stroke="#000" stroke-width="2" fill="none"/><path d="M840 500a20 20 0 0 1 20-20h20a20 20 0 0 1 20 20 20 20 0 0 1-20 20h-20a20 20 0 0 1-20-20z" stroke="#000" stroke-width="3" fill="url(#r)"/><path d="M980 500a20 20 0 0 1 20-20h20a20 20 0 0 1 20 20 20 20 0 0 1-20 20h-20a20 20 0 0 1-20-20z" stroke="#000" stroke-width="3" fill="url(#s)"/><path d="M820 478.83a19.67 19.67 0 0 1 19.67-19.66h60.66A19.67 19.67 0 0 1 920 478.83a19.67 19.67 0 0 1-19.67 19.67h-60.66A19.67 19.67 0 0 1 820 478.83z" stroke="#cc4e00" stroke-width="3" fill="#fff"/><use xlink:href="#n" transform="matrix(1,0,0,1,825,464.16666666666663) translate(17.844506172839502 21.430555555555557)"/><path d="M960 478.83a19.67 19.67 0 0 1 19.68-19.66h60.66a19.67 19.67 0 0 1 19.67 19.66 19.67 19.67 0 0 1-19.66 19.67h-60.66A19.67 19.67 0 0 1 960 478.83z" stroke="#cc4e00" stroke-width="3" fill="#fff"/><use xlink:href="#o" transform="matrix(1,0,0,1,965.0100942689774,464.16666666666663) translate(8.338333333333326 21.430555555555557)"/><path d="M872.2 401l-.15 42.5M868.2 401l-.15 42.5" stroke="#cc4e00" stroke-width="2" fill="none"/><path d="M873.2 401.04h-1.96V400h1.95zM869.2 401.02h-1.96V400h1.95z" stroke="#cc4e00" stroke-width=".05" fill="#cc4e00"/><path d="M880.07 438.38L870 455.68l-9.93-17.37m9.94 17.37l.04-8.5M1008 456.68l-.16-42.5M1012 456.66l-.16-42.5" stroke="#cc4e00" stroke-width="2" fill="none"/><path d="M1009 457.67H1007v-1.02h1.95zM1013 457.67H1011v-1.03h1.95z" stroke="#cc4e00" stroke-width=".05" fill="#cc4e00"/><path d="M999.86 419.36l9.93-17.36 10.06 17.28M1009.8 402l.02 8.5" stroke="#cc4e00" stroke-width="2" fill="none"/><path d="M980.02 760a20 20 0 0 1 20-20h20a20 20 0 0 1 20 20 20 20 0 0 1-20 20h-20a20 20 0 0 1-20-20z" stroke="#000" stroke-width="3" fill="url(#t)" transform="matrix(-1,1.2246467991473532e-16,-1.2246467991473532e-16,-1,2020.0403777585811,1520)"/><path d="M960.03 780a20 20 0 0 1 20-20h60a20 20 0 0 1 20 20 20 20 0 0 1-20 20h-60a20 20 0 0 1-20-20z" stroke="#1071e5" stroke-width="3" fill="#fff"/><use xlink:href="#k" transform="matrix(1,0,0,1,965.0302837011147,765.0000000000001) translate(28.742654320987654 21.430555555555557)"/><path d="M870 720v-19" stroke="#000" stroke-width="2" fill="none"/><path d="M870 735.26L865.38 721h9.27z" stroke="#000" stroke-width="2"/><path d="M870 701.03V700M1010.03 720v-19" stroke="#000" stroke-width="2" fill="none"/><path d="M1010.03 735.26L1005.4 721h9.27z" stroke="#000" stroke-width="2"/><path d="M1010.03 701.03V700" stroke="#000" stroke-width="2" fill="none"/><path d="M840 760a20 20 0 0 1 20-20h20a20 20 0 0 1 20 20 20 20 0 0 1-20 20h-20a20 20 0 0 1-20-20z" stroke="#000" stroke-width="3" fill="url(#u)" transform="matrix(-1,1.2246467991473532e-16,-1.2246467991473532e-16,-1,1740.0201885379552,1520)"/><path d="M820 780a20 20 0 0 1 20-20h60a20 20 0 0 1 20 20 20 20 0 0 1-20 20h-60a20 20 0 0 1-20-20z" stroke="#008a0e" stroke-width="3" fill="#ced4db"/><use xlink:href="#q" transform="matrix(1,0,0,1,825.0100942689776,765) translate(28.06364197530864 21.430555555555557)"/><path d="M1180 600a20 20 0 0 1 20-20h20a20 20 0 0 1 20 20v80a20 20 0 0 1-20 20h-20a20 20 0 0 1-20-20z" stroke="#000" stroke-width="3" fill="url(#v)"/><path d="M1180.03 826.83a6 6 0 0 1 6-6H1474a6 6 0 0 1 6 6v126a6 6 0 0 1-6 6h-287.97a6 6 0 0 1-6-6z" stroke="#000" stroke-opacity="0" stroke-width="3" fill="#fff" fill-opacity="0"/><use xlink:href="#w" transform="matrix(1,0,0,1,1185.0302837011145,825.8333333333334) translate(76.06172839506175 32.444444444444436)"/><use xlink:href="#h" transform="matrix(1,0,0,1,1185.0302837011145,825.8333333333334) translate(55.32098765432103 75.11111111111109)"/><use xlink:href="#i" transform="matrix(1,0,0,1,1185.0302837011145,825.8333333333334) translate(40.555555555555586 117.77777777777774)"/><path d="M1180 379.67a19.67 19.67 0 0 1 19.67-19.67h260.66a19.67 19.67 0 0 1 19.67 19.67 19.67 19.67 0 0 1-19.67 19.66h-260.66a19.67 19.67 0 0 1-19.67-19.66z" stroke="#cc4e00" stroke-width="3" fill="#e8e2c8"/><use xlink:href="#d" transform="matrix(1,0,0,1,1185,365) translate(113.87228395061727 21.430555555555557)"/><path d="M1214.9 565.07l22.87-42.8M1218.44 566.95l22.85-42.8M1227.93 566.17l-16.98 10.57-.66-20m.65 20l4-7.5" stroke="#000" stroke-width="2" fill="none"/><path d="M1238.6 522.75l-.78-.42h1.02zM1242.14 524.64l-1.72-.92.74-1.4h2.2z" stroke="#000" stroke-width=".05"/><path d="M1428.45 533.88l22.84 42.8M1424.92 535.77l22.85 42.8M1420.3 544.1l.65-20 16.98 10.57m-16.98-10.57l4 7.5" stroke="#000" stroke-width="2" fill="none"/><path d="M1453.37 578.5h-2.2l-.75-1.4 1.72-.9zM1448.84 578.5h-1.02l.8-.42z" stroke="#000" stroke-width=".05"/><path d="M1200 500.83a20 20 0 0 1 20-20h40a20 20 0 0 1 20 20 20 20 0 0 1-20 20h-40a20 20 0 0 1-20-20z" stroke="#000" stroke-width="3" fill="url(#x)"/><path d="M1380 500.83a20 20 0 0 1 20-20h40a20 20 0 0 1 20 20 20 20 0 0 1-20 20h-40a20 20 0 0 1-20-20z" stroke="#000" stroke-width="3" fill="url(#y)"/><path d="M1180 479.67a19.67 19.67 0 0 1 19.67-19.67h80.66a19.67 19.67 0 0 1 19.67 19.67 19.67 19.67 0 0 1-19.67 19.66h-80.66a19.67 19.67 0 0 1-19.67-19.66z" stroke="#cc4e00" stroke-width="3" fill="#fff"/><use xlink:href="#n" transform="matrix(1,0,0,1,1185,465) translate(27.844506172839502 21.430555555555557)"/><path d="M1360 479.67a19.67 19.67 0 0 1 19.67-19.67h80.66a19.67 19.67 0 0 1 19.67 19.67 19.67 19.67 0 0 1-19.67 19.66h-80.66a19.67 19.67 0 0 1-19.67-19.66z" stroke="#cc4e00" stroke-width="3" fill="#fff"/><use xlink:href="#o" transform="matrix(1,0,0,1,1365,465) translate(18.338333333333324 21.430555555555557)"/><path d="M1242 401.83v42.5M1238 401.83v42.5" stroke="#cc4e00" stroke-width="2" fill="none"/><path d="M1242.97 401.86h-1.94v-1.03h1.94zM1238.97 401.86h-1.94v-1.03h1.94z" stroke="#cc4e00" stroke-width=".05" fill="#cc4e00"/><path d="M1250 439.18l-10 17.32-10-17.32m10 17.32V448M1418 457.5V415M1422 457.5V415" stroke="#cc4e00" stroke-width="2" fill="none"/><path d="M1418.97 457.47v1.03h-1.94v-1.03zM1422.97 457.47v1.03h-1.94v-1.03z" stroke="#cc4e00" stroke-width=".05" fill="#cc4e00"/><path d="M1410 420.15l10-17.32 10 17.32m-10-17.32v8.5" stroke="#cc4e00" stroke-width="2" fill="none"/><path d="M1380 760.83a20 20 0 0 1 20-20h40a20 20 0 0 1 20 20 20 20 0 0 1-20 20h-40a20 20 0 0 1-20-20z" stroke="#000" stroke-width="3" fill="url(#z)" transform="matrix(-1,1.2246467991473532e-16,-1.2246467991473532e-16,-1,2839.989905178176,1521.6666666666665)"/><path d="M1360 780.83a20 20 0 0 1 20-20h80a20 20 0 0 1 20 20 20 20 0 0 1-20 20h-80a20 20 0 0 1-20-20z" stroke="#1071e5" stroke-width="3" fill="#fff"/><use xlink:href="#k" transform="matrix(1,0,0,1,1365,765.8333333333335) translate(38.74265432098765 21.430555555555557)"/><path d="M1228.5 724.84l-17.87-22.56" stroke="#000" stroke-width="2" fill="none"/><path d="M1238 736.8l-12.5-8.3 7.26-5.76z" stroke="#000" stroke-width="2"/><path d="M1211.4 701.7l-1.52 1.2-1.1-1.4h2.47z" stroke="#000" stroke-width=".05"/><path d="M1431.5 724.83l17.88-22.55" stroke="#000" stroke-width="2" fill="none"/><path d="M1422.02 736.8l5.23-14.06 7.26 5.76z" stroke="#000" stroke-width="2"/><path d="M1450.13 702.9l-1.53-1.2.16-.2h2.48z" stroke="#000" stroke-width=".05"/><path d="M1200 760.83a20 20 0 0 1 20-20h40a20 20 0 0 1 20 20 20 20 0 0 1-20 20h-40a20 20 0 0 1-20-20z" stroke="#000" stroke-width="3" fill="url(#A)" transform="matrix(-1,1.2246467991473532e-16,-1.2246467991473532e-16,-1,2480.0100942689774,1521.6666666666665)"/><path d="M1180 780.83a20 20 0 0 1 20-20h80a20 20 0 0 1 20 20 20 20 0 0 1-20 20h-80a20 20 0 0 1-20-20z" stroke="#008a0e" stroke-width="3" fill="#ced4db"/><use xlink:href="#q" transform="matrix(1,0,0,1,1185.0100942689774,765.8333333333334) translate(38.063641975308634 21.430555555555557)"/><path d="M1300 600a20 20 0 0 1 20-20h20a20 20 0 0 1 20 20v80a20 20 0 0 1-20 20h-20a20 20 0 0 1-20-20z" stroke="#000" stroke-width="3" fill="url(#B)"/><path d="M1420 600a20 20 0 0 1 20-20h20a20 20 0 0 1 20 20v80a20 20 0 0 1-20 20h-20a20 20 0 0 1-20-20z" stroke="#000" stroke-width="3" fill="url(#C)"/><path d="M1257.06 732.16l72.02-30.27" stroke="#000" stroke-width="2" fill="none"/><path d="M1243 738.08l11.34-9.8 3.6 8.54z" stroke="#000" stroke-width="2"/><path d="M1329.43 702.8l-.54-1.3h3.62z" stroke="#000" stroke-width=".05"/><path d="M1258.2 736.05l190.82-34.37" stroke="#000" stroke-width="2" fill="none"/><path d="M1243.2 738.76l13.2-7.1 1.65 9.13z" stroke="#000" stroke-width="2"/><path d="M1453.13 701.93l-3.97.7-.2-1.13h4.1z" stroke="#000" stroke-width=".05"/><path d="M1402.94 732.16l-72.02-30.27" stroke="#000" stroke-width="2" fill="none"/><path d="M1417 738.08l-14.94-1.26 3.6-8.54z" stroke="#000" stroke-width="2"/><path d="M1330.57 702.8l-3.1-1.3h3.64z" stroke="#000" stroke-width=".05"/><path d="M1401.8 736.05L1211 701.68" stroke="#000" stroke-width="2" fill="none"/><path d="M1416.8 738.76l-14.85 2.03 1.64-9.13z" stroke="#000" stroke-width="2"/><path d="M1210.85 702.64l-3.96-.7.06-.44h4.1z" stroke="#000" stroke-width=".05"/><path d="M1316.93 572.7l-77.14-48.14M1319.05 569.3l-77.14-48.13M1318.9 559.8l9.4 17.64-19.98-.7m19.98.7l-7.2-4.5" stroke="#000" stroke-width="2" fill="none"/><path d="M1240.33 523.75l-1.03 1.65-3.42-2.13.58-.94h1.6z" stroke="#000" stroke-width=".05"/><path stroke="#000" stroke-width=".05"/><path d="M1435.8 576.77l-195.35-52.25M1436.84 572.9l-195.36-52.24M1433.92 563.85l14.15 14.13-19.32 5.2m19.32-5.2l-8.2-2.2" stroke="#000" stroke-width="2" fill="none"/><path d="M1240.73 523.6l-.5 1.87-3.9-1.04.5-1.88z" stroke="#000" stroke-width=".05"/><path stroke="#000" stroke-width=".05"/><path d="M1409.05 531.53l-77.14 48.14M1406.93 528.13l-77.14 48.14M1398.32 524.08l19.98-.7-9.4 17.67m9.4-17.66l-7.2 4.5" stroke="#000" stroke-width="2" fill="none"/><path stroke="#000" stroke-width=".05"/><path d="M1330.33 577.1l-2.27 1.4h-1.6l-.58-.94 3.4-2.13z" stroke="#000" stroke-width=".05"/><path d="M1406.84 527.92l-195.35 52.25M1405.8 524.06l-195.34 52.25M1398.75 517.66l19.32 5.2-14.15 14.13m14.15-14.15l-8.2 2.2" stroke="#000" stroke-width="2" fill="none"/><path stroke="#000" stroke-width=".05"/><path d="M1210.74 577.25l-3.9 1.03-.5-1.88 3.9-1.04z" stroke="#000" stroke-width=".05"/><path d="M1255.67 638h28.67M1255.67 642h28.67M1260.83 650l-17.32-10 17.33-10m-17.32 10h8.5M1279.18 630l17.32 10-17.32 10m17.32-10h-8.5M1375.66 638h28.68M1375.66 642h28.68M1380.82 650l-17.32-10 17.32-10m-17.32 10h8.5M1399.18 630l17.32 10-17.32 10m17.32-10h-8.5" stroke="#000" stroke-width="2" fill="none"/><path d="M1181 720h3.92m7.84 0h7.85m7.85 0h7.84m7.83 0h7.84m7.85 0h7.84m7.84 0h7.84m7.84 0h7.85m7.84 0h7.84m7.85 0h7.85m7.84 0h7.84m7.84 0h7.84m7.85 0h7.85m7.84 0h7.83m7.84 0h7.85m7.84 0h7.84m7.84 0h7.84m7.85 0h7.84m7.84 0h7.85m7.85 0h7.84m7.84 0h3.92M1181.03 720H1180M1478.97 720h1.03M1181 540h3.92m7.84 0h7.85m7.85 0h7.84m7.83 0h7.84m7.85 0h7.84m7.84 0h7.84m7.84 0h7.85m7.84 0h7.84m7.85 0h7.85m7.84 0h7.84m7.84 0h7.84m7.85 0h7.85m7.84 0h7.83m7.84 0h7.85m7.84 0h7.84m7.84 0h7.84m7.85 0h7.84m7.84 0h7.85m7.85 0h7.84m7.84 0h3.92M1181.03 540H1180M1478.97 540h1.03" stroke="#ba23f6" stroke-width="2" fill="none"/><defs><linearGradient gradientUnits="userSpaceOnUse" id="a" x1="620.53" y1="740.83" x2="620.53" y2="780.83"><stop offset="73.57%" stop-color="#fff"/><stop offset="89.29%" stop-color="#4c535d"/></linearGradient><linearGradient gradientUnits="userSpaceOnUse" id="b" x1="460" y1="560.83" x2="460" y2="700.83"><stop offset="23.91%" stop-color="#c3f7c8"/><stop offset="39.49%" stop-color="#cfe4ff"/></linearGradient><path d="M212-179c-10-28-35-45-73-45-59 0-87 40-87 99 0 60 29 101 89 101 43 0 62-24 78-52l27 14C228-24 195 4 139 4 59 4 22-46 18-125c-6-104 99-153 187-111 19 9 31 26 39 46" id="D"/><path d="M100-194c62-1 85 37 85 99 1 63-27 99-86 99S16-35 15-95c0-66 28-99 85-99zM99-20c44 1 53-31 53-75 0-43-8-75-51-75s-53 32-53 75 10 74 51 75" id="E"/><path d="M114-163C36-179 61-72 57 0H25l-1-190h30c1 12-1 29 2 39 6-27 23-49 58-41v29" id="F"/><path d="M100-194c63 0 86 42 84 106H49c0 40 14 67 53 68 26 1 43-12 49-29l28 8c-11 28-37 45-77 45C44 4 14-33 15-96c1-61 26-98 85-98zm52 81c6-60-76-77-97-28-3 7-6 17-6 28h103" id="G"/><g id="c"><use transform="matrix(0.07407407407407408,0,0,0.07407407407407408,0,0)" xlink:href="#D"/><use transform="matrix(0.07407407407407408,0,0,0.07407407407407408,19.185185185185187,0)" xlink:href="#E"/><use transform="matrix(0.07407407407407408,0,0,0.07407407407407408,34,0)" xlink:href="#F"/><use transform="matrix(0.07407407407407408,0,0,0.07407407407407408,42.814814814814824,0)" xlink:href="#G"/></g><path d="M24 0v-261h32V0H24" id="H"/><path d="M24-231v-30h32v30H24zM24 0v-190h32V0H24" id="I"/><path d="M117-194c89-4 53 116 60 194h-32v-121c0-31-8-49-39-48C34-167 62-67 57 0H25l-1-190h30c1 10-1 24 2 32 11-22 29-35 61-36" id="J"/><path d="M59-47c-2 24 18 29 38 22v24C64 9 27 4 27-40v-127H5v-23h24l9-43h21v43h35v23H59v120" id="K"/><g id="d"><use transform="matrix(0.06790123456790124,0,0,0.06790123456790124,0,0)" xlink:href="#D"/><use transform="matrix(0.06790123456790124,0,0,0.06790123456790124,17.58641975308642,0)" xlink:href="#H"/><use transform="matrix(0.06790123456790124,0,0,0.06790123456790124,22.95061728395062,0)" xlink:href="#I"/><use transform="matrix(0.06790123456790124,0,0,0.06790123456790124,28.31481481481482,0)" xlink:href="#G"/><use transform="matrix(0.06790123456790124,0,0,0.06790123456790124,41.89506172839507,0)" xlink:href="#J"/><use transform="matrix(0.06790123456790124,0,0,0.06790123456790124,55.47530864197532,0)" xlink:href="#K"/></g><path d="M30-248c118-7 216 8 213 122C240-48 200 0 122 0H30v-248zM63-27c89 8 146-16 146-99s-60-101-146-95v194" id="L"/><path d="M210-169c-67 3-38 105-44 169h-31v-121c0-29-5-50-35-48C34-165 62-65 56 0H25l-1-190h30c1 10-1 24 2 32 10-44 99-50 107 0 11-21 27-35 58-36 85-2 47 119 55 194h-31v-121c0-29-5-49-35-48" id="M"/><path d="M141-36C126-15 110 5 73 4 37 3 15-17 15-53c-1-64 63-63 125-63 3-35-9-54-41-54-24 1-41 7-42 31l-33-3c5-37 33-52 76-52 45 0 72 20 72 64v82c-1 20 7 32 28 27v20c-31 9-61-2-59-35zM48-53c0 20 12 33 32 33 41-3 63-29 60-74-43 2-92-5-92 41" id="N"/><g id="e"><use transform="matrix(0.06790123456790124,0,0,0.06790123456790124,0,0)" xlink:href="#L"/><use transform="matrix(0.06790123456790124,0,0,0.06790123456790124,17.58641975308642,0)" xlink:href="#E"/><use transform="matrix(0.06790123456790124,0,0,0.06790123456790124,31.16666666666667,0)" xlink:href="#M"/><use transform="matrix(0.06790123456790124,0,0,0.06790123456790124,51.46913580246915,0)" xlink:href="#N"/><use transform="matrix(0.06790123456790124,0,0,0.06790123456790124,65.0493827160494,0)" xlink:href="#I"/><use transform="matrix(0.06790123456790124,0,0,0.06790123456790124,70.4135802469136,0)" xlink:href="#J"/></g><path d="M127-220V0H93v-220H8v-28h204v28h-85" id="O"/><path d="M135-143c-3-34-86-38-87 0 15 53 115 12 119 90S17 21 10-45l28-5c4 36 97 45 98 0-10-56-113-15-118-90-4-57 82-63 122-42 12 7 21 19 24 35" id="P"/><path d="M143 0L79-87 56-68V0H24v-261h32v163l83-92h37l-77 82L181 0h-38" id="Q"/><g id="f"><use transform="matrix(0.06790123456790124,0,0,0.06790123456790124,0,0)" xlink:href="#O"/><use transform="matrix(0.06790123456790124,0,0,0.06790123456790124,12.154320987654323,0)" xlink:href="#N"/><use transform="matrix(0.06790123456790124,0,0,0.06790123456790124,25.734567901234573,0)" xlink:href="#P"/><use transform="matrix(0.06790123456790124,0,0,0.06790123456790124,37.95679012345679,0)" xlink:href="#Q"/><use transform="matrix(0.06790123456790124,0,0,0.06790123456790124,50.17901234567901,0)" xlink:href="#P"/></g><path d="M212 0l43-212L151 0h-37L90-212C82-137 65-70 52 0H6l48-248h70l20 187 93-187h69L258 0h-46" id="R"/><path d="M124-194c51 0 84 22 84 74C207-44 167 4 94 4 43 4 11-23 11-74c0-74 41-120 113-120zM99-30c46 0 58-42 58-86 0-27-11-44-37-44-44 0-55 40-57 84-1 27 10 45 36 46" id="S"/><path d="M151-194c95 0 34 128 28 194h-49l25-134c0-29-45-25-59-9C67-111 69-48 56 0H6l36-190h47l-4 32c15-20 33-36 66-36" id="T"/><path d="M6 0l51-261h49L55 0H6" id="U"/><path d="M50-224l7-37h49l-7 37H50zM6 0l37-190h49L55 0H6" id="V"/><path d="M72-63c-8 23 5 39 32 30L98-1C54 14 12-6 23-64l18-93H15l7-33h28l24-45h31l-8 45h35l-6 33H90" id="W"/><path d="M150-105c8-23 8-54-22-51-68 7-54 98-72 156H6l50-261h50L85-158c15-20 33-36 66-36 95 0 34 128 28 194h-49" id="X"/><path d="M67-101c-8 29-7 73 27 71 23-2 32-16 39-37l48 9C170-19 141 4 91 4 36 4 7-28 12-86c6-75 61-124 140-103 26 7 40 29 43 59l-50 4c-1-20-9-34-29-34-35 0-41 29-49 59" id="Y"/><g id="g"><use transform="matrix(0.0987654320987654,0,0,0.0987654320987654,0,0)" xlink:href="#R"/><use transform="matrix(0.0987654320987654,0,0,0.0987654320987654,29.530864197530853,0)" xlink:href="#S"/><use transform="matrix(0.0987654320987654,0,0,0.0987654320987654,51.16049382716048,0)" xlink:href="#T"/><use transform="matrix(0.0987654320987654,0,0,0.0987654320987654,72.7901234567901,0)" xlink:href="#S"/><use transform="matrix(0.0987654320987654,0,0,0.0987654320987654,94.41975308641972,0)" xlink:href="#U"/><use transform="matrix(0.0987654320987654,0,0,0.0987654320987654,104.29629629629626,0)" xlink:href="#V"/><use transform="matrix(0.0987654320987654,0,0,0.0987654320987654,114.1728395061728,0)" xlink:href="#W"/><use transform="matrix(0.0987654320987654,0,0,0.0987654320987654,125.92592592592591,0)" xlink:href="#X"/><use transform="matrix(0.0987654320987654,0,0,0.0987654320987654,147.55555555555551,0)" xlink:href="#V"/><use transform="matrix(0.0987654320987654,0,0,0.0987654320987654,157.43209876543204,0)" xlink:href="#Y"/></g><path d="M168 0l21-106H79L58 0H6l48-248h52l-19 99h110l19-99h50L218 0h-50" id="Z"/><path d="M114-194c63-2 87 48 72 110H63c-3 28 1 55 31 54 21-1 32-13 37-29l44 13C160-14 137 4 91 4 41 4 11-22 11-73c0-71 33-119 103-121zm30 77c14-47-50-61-67-22-3 6-6 13-8 22h75" id="aa"/><path d="M127 0L95-67 37 0h-53l89-99-49-91h52l30 61 52-61h54l-85 92 52 98h-52" id="ab"/><path d="M166-52c-4 17 5 29 24 23l-3 27c-30 11-74 1-67-34C105-15 91 4 56 4 23 4 3-15 2-49c0-64 63-67 128-67 10-22 3-53-29-45-13 3-22 10-25 24l-46-5c5-64 156-77 153 0-1 33-11 60-17 90zM97-88c-44-9-64 57-19 57 31 0 42-28 47-57H97" id="ac"/><path d="M45-171c29-32 103-29 114 14 2-11 5-23 8-33h47L176-2c-3 70-92 96-155 64C9 56 1 42-1 25l50-5c2 28 48 27 63 11 13-13 20-45 21-66-13 20-30 35-62 36-87 3-60-134-26-172zM94-35c41-3 55-43 55-86 0-24-12-39-35-39-43 0-51 48-51 90 0 22 9 37 31 35" id="ad"/><g id="h"><use transform="matrix(0.0987654320987654,0,0,0.0987654320987654,0,0)" xlink:href="#Z"/><use transform="matrix(0.0987654320987654,0,0,0.0987654320987654,25.58024691358024,0)" xlink:href="#aa"/><use transform="matrix(0.0987654320987654,0,0,0.0987654320987654,45.333333333333314,0)" xlink:href="#ab"/><use transform="matrix(0.0987654320987654,0,0,0.0987654320987654,65.08641975308639,0)" xlink:href="#ac"/><use transform="matrix(0.0987654320987654,0,0,0.0987654320987654,84.83950617283946,0)" xlink:href="#ad"/><use transform="matrix(0.0987654320987654,0,0,0.0987654320987654,106.46913580246908,0)" xlink:href="#S"/><use transform="matrix(0.0987654320987654,0,0,0.0987654320987654,128.0987654320987,0)" xlink:href="#T"/><use transform="matrix(0.0987654320987654,0,0,0.0987654320987654,149.72839506172832,0)" xlink:href="#ac"/><use transform="matrix(0.0987654320987654,0,0,0.0987654320987654,169.4814814814814,0)" xlink:href="#U"/></g><path d="M183 0l-10-63H79L44 0H-7l138-248h61L234 0h-51zm-14-102l-15-108c-16 38-36 73-55 108h70" id="ae"/><path d="M84-151c13-25 34-51 72-40l-8 41C67-170 71-64 56 0H6l36-190h47" id="af"/><path d="M69 3c-96 0-34-126-28-193h49L65-57c6 42 62 18 71-6 14-38 17-86 28-127h50L178 0h-47c0-11 4-26 3-33-14 20-30 37-65 36" id="ag"/><g id="i"><use transform="matrix(0.0987654320987654,0,0,0.0987654320987654,0,0)" xlink:href="#ae"/><use transform="matrix(0.0987654320987654,0,0,0.0987654320987654,25.58024691358024,0)" xlink:href="#af"/><use transform="matrix(0.0987654320987654,0,0,0.0987654320987654,39.4074074074074,0)" xlink:href="#Y"/><use transform="matrix(0.0987654320987654,0,0,0.0987654320987654,59.16049382716047,0)" xlink:href="#X"/><use transform="matrix(0.0987654320987654,0,0,0.0987654320987654,80.7901234567901,0)" xlink:href="#V"/><use transform="matrix(0.0987654320987654,0,0,0.0987654320987654,90.66666666666664,0)" xlink:href="#W"/><use transform="matrix(0.0987654320987654,0,0,0.0987654320987654,102.41975308641972,0)" xlink:href="#aa"/><use transform="matrix(0.0987654320987654,0,0,0.0987654320987654,122.17283950617279,0)" xlink:href="#Y"/><use transform="matrix(0.0987654320987654,0,0,0.0987654320987654,141.92592592592587,0)" xlink:href="#W"/><use transform="matrix(0.0987654320987654,0,0,0.0987654320987654,153.67901234567896,0)" xlink:href="#ag"/><use transform="matrix(0.0987654320987654,0,0,0.0987654320987654,175.30864197530857,0)" xlink:href="#af"/><use transform="matrix(0.0987654320987654,0,0,0.0987654320987654,189.13580246913574,0)" xlink:href="#aa"/></g><path d="M6 0l48-248h52L66-40h133l-8 40H6" id="ah"/><path d="M100 10C77 47 50 87-15 72l7-35c37 9 51-18 65-41L20-190h51L89-44l73-146h53" id="ai"/><path d="M132-28C118-9 101 4 69 4 30 4 10-23 10-62c0-70 24-129 92-132 31-1 47 14 56 35l19-102h49L179 0h-49zM62-69c0 22 7 39 29 39 45-2 54-45 57-90 2-27-10-40-33-40-44 0-53 48-53 91" id="aj"/><g id="j"><use transform="matrix(0.0987654320987654,0,0,0.0987654320987654,0,0)" xlink:href="#ah"/><use transform="matrix(0.0987654320987654,0,0,0.0987654320987654,21.629629629629623,0)" xlink:href="#ac"/><use transform="matrix(0.0987654320987654,0,0,0.0987654320987654,41.3827160493827,0)" xlink:href="#ai"/><use transform="matrix(0.0987654320987654,0,0,0.0987654320987654,61.13580246913578,0)" xlink:href="#aa"/><use transform="matrix(0.0987654320987654,0,0,0.0987654320987654,80.88888888888886,0)" xlink:href="#af"/><use transform="matrix(0.0987654320987654,0,0,0.0987654320987654,94.71604938271601,0)" xlink:href="#aa"/><use transform="matrix(0.0987654320987654,0,0,0.0987654320987654,114.46913580246907,0)" xlink:href="#aj"/></g><path d="M30 0v-248h33v221h125V0H30" id="ak"/><path d="M115-194c53 0 69 39 70 98 0 66-23 100-70 100C84 3 66-7 56-30L54 0H23l1-261h32v101c10-23 28-34 59-34zm-8 174c40 0 45-34 45-75 0-40-5-75-45-74-42 0-51 32-51 76 0 43 10 73 51 73" id="al"/><g id="k"><use transform="matrix(0.06790123456790124,0,0,0.06790123456790124,0,0)" xlink:href="#ak"/><use transform="matrix(0.06790123456790124,0,0,0.06790123456790124,13.580246913580249,0)" xlink:href="#I"/><use transform="matrix(0.06790123456790124,0,0,0.06790123456790124,18.944444444444446,0)" xlink:href="#al"/></g><linearGradient gradientUnits="userSpaceOnUse" id="l" x1="480" y1="480.83" x2="480" y2="520.83"><stop offset="73.57%" stop-color="#fff"/><stop offset="89.29%" stop-color="#4c535d"/></linearGradient><linearGradient gradientUnits="userSpaceOnUse" id="m" x1="620.01" y1="480.83" x2="620.01" y2="520.83"><stop offset="73.57%" stop-color="#fff"/><stop offset="89.29%" stop-color="#4c535d"/></linearGradient><path d="M33 0v-248h34V0H33" id="am"/><path d="M115-194c55 1 70 41 70 98S169 2 115 4C84 4 66-9 55-30l1 105H24l-1-265h31l2 30c10-21 28-34 59-34zm-8 174c40 0 45-34 45-75s-6-73-45-74c-42 0-51 32-51 76 0 43 10 73 51 73" id="an"/><path d="M84 4C-5 8 30-112 23-190h32v120c0 31 7 50 39 49 72-2 45-101 50-169h31l1 190h-30c-1-10 1-25-2-33-11 22-28 36-60 37" id="ao"/><g id="n"><use transform="matrix(0.06790123456790124,0,0,0.06790123456790124,0,0)" xlink:href="#am"/><use transform="matrix(0.06790123456790124,0,0,0.06790123456790124,6.790123456790124,0)" xlink:href="#J"/><use transform="matrix(0.06790123456790124,0,0,0.06790123456790124,20.370370370370374,0)" xlink:href="#an"/><use transform="matrix(0.06790123456790124,0,0,0.06790123456790124,33.95061728395062,0)" xlink:href="#ao"/><use transform="matrix(0.06790123456790124,0,0,0.06790123456790124,47.530864197530875,0)" xlink:href="#K"/></g><path d="M140-251c81 0 123 46 123 126C263-46 219 4 140 4 59 4 17-45 17-125s42-126 123-126zm0 227c63 0 89-41 89-101s-29-99-89-99c-61 0-89 39-89 99S79-25 140-24" id="ap"/><g id="o"><use transform="matrix(0.06790123456790124,0,0,0.06790123456790124,0,0)" xlink:href="#ap"/><use transform="matrix(0.06790123456790124,0,0,0.06790123456790124,19.01234567901235,0)" xlink:href="#ao"/><use transform="matrix(0.06790123456790124,0,0,0.06790123456790124,32.592592592592595,0)" xlink:href="#K"/><use transform="matrix(0.06790123456790124,0,0,0.06790123456790124,39.38271604938272,0)" xlink:href="#an"/><use transform="matrix(0.06790123456790124,0,0,0.06790123456790124,52.96296296296297,0)" xlink:href="#ao"/><use transform="matrix(0.06790123456790124,0,0,0.06790123456790124,66.54320987654322,0)" xlink:href="#K"/></g><linearGradient gradientUnits="userSpaceOnUse" id="p" x1="480.52" y1="740.83" x2="480.52" y2="780.83"><stop offset="73.57%" stop-color="#fff"/><stop offset="89.29%" stop-color="#4c535d"/></linearGradient><path d="M160-131c35 5 61 23 61 61C221 17 115-2 30 0v-248c76 3 177-17 177 60 0 33-19 50-47 57zm-97-11c50-1 110 9 110-42 0-47-63-36-110-37v79zm0 115c55-2 124 14 124-45 0-56-70-42-124-44v89" id="aq"/><g id="q"><use transform="matrix(0.06790123456790124,0,0,0.06790123456790124,0,0)" xlink:href="#L"/><use transform="matrix(0.06790123456790124,0,0,0.06790123456790124,17.58641975308642,0)" xlink:href="#aq"/></g><linearGradient gradientUnits="userSpaceOnUse" id="r" x1="840" y1="480" x2="840" y2="520"><stop offset="73.57%" stop-color="#fff"/><stop offset="89.29%" stop-color="#4c535d"/></linearGradient><linearGradient gradientUnits="userSpaceOnUse" id="s" x1="980.01" y1="480" x2="980.01" y2="520"><stop offset="73.57%" stop-color="#fff"/><stop offset="89.29%" stop-color="#4c535d"/></linearGradient><linearGradient gradientUnits="userSpaceOnUse" id="t" x1="980.02" y1="740" x2="980.02" y2="780"><stop offset="73.57%" stop-color="#fff"/><stop offset="89.29%" stop-color="#4c535d"/></linearGradient><linearGradient gradientUnits="userSpaceOnUse" id="u" x1="840.01" y1="740" x2="840.01" y2="780"><stop offset="73.57%" stop-color="#fff"/><stop offset="89.29%" stop-color="#4c535d"/></linearGradient><linearGradient gradientUnits="userSpaceOnUse" id="v" x1="1180.01" y1="580" x2="1180.01" y2="700"><stop offset="23.91%" stop-color="#c3f7c8"/><stop offset="39.49%" stop-color="#cfe4ff"/></linearGradient><g id="w"><use transform="matrix(0.0987654320987654,0,0,0.0987654320987654,0,0)" xlink:href="#R"/><use transform="matrix(0.0987654320987654,0,0,0.0987654320987654,29.530864197530853,0)" xlink:href="#S"/><use transform="matrix(0.0987654320987654,0,0,0.0987654320987654,51.16049382716048,0)" xlink:href="#aj"/><use transform="matrix(0.0987654320987654,0,0,0.0987654320987654,72.7901234567901,0)" xlink:href="#ag"/><use transform="matrix(0.0987654320987654,0,0,0.0987654320987654,94.41975308641972,0)" xlink:href="#U"/><use transform="matrix(0.0987654320987654,0,0,0.0987654320987654,104.29629629629626,0)" xlink:href="#ac"/><use transform="matrix(0.0987654320987654,0,0,0.0987654320987654,124.04938271604934,0)" xlink:href="#af"/></g><linearGradient gradientUnits="userSpaceOnUse" id="x" x1="1200" y1="480.83" x2="1200" y2="520.83"><stop offset="73.57%" stop-color="#fff"/><stop offset="89.29%" stop-color="#4c535d"/></linearGradient><linearGradient gradientUnits="userSpaceOnUse" id="y" x1="1380" y1="480.83" x2="1380" y2="520.83"><stop offset="73.57%" stop-color="#fff"/><stop offset="89.29%" stop-color="#4c535d"/></linearGradient><linearGradient gradientUnits="userSpaceOnUse" id="z" x1="1380" y1="740.83" x2="1380" y2="780.83"><stop offset="73.57%" stop-color="#fff"/><stop offset="89.29%" stop-color="#4c535d"/></linearGradient><linearGradient gradientUnits="userSpaceOnUse" id="A" x1="1200.01" y1="740.83" x2="1200.01" y2="780.83"><stop offset="73.57%" stop-color="#fff"/><stop offset="89.29%" stop-color="#4c535d"/></linearGradient><linearGradient gradientUnits="userSpaceOnUse" id="B" x1="1300" y1="580" x2="1300" y2="700"><stop offset="23.91%" stop-color="#c3f7c8"/><stop offset="39.49%" stop-color="#cfe4ff"/></linearGradient><linearGradient gradientUnits="userSpaceOnUse" id="C" x1="1420" y1="580" x2="1420" y2="700"><stop offset="23.91%" stop-color="#c3f7c8"/><stop offset="39.49%" stop-color="#cfe4ff"/></linearGradient></defs></g></svg>