<svg xmlns="http://www.w3.org/2000/svg" xmlns:xlink="http://www.w3.org/1999/xlink" xmlns:lucid="lucid" width="1226" height="463"><g transform="translate(-278.5 -458.5)" lucid:page-tab-id="0_0"><path d="M862.02 715.66l.03 27.68M858.02 715.66l.03 27.68M850.02 720.83L860 703.5l10.02 17.3M860 703.5v8.5M870.04 738.17l-9.98 17.33-10.02-17.3m10.02 17.3V747M882 695.66v47.68M878 695.66v47.68M870 700.82l10-17.32 10 17.32m-10-17.32v8.5" stroke="#000" stroke-width="2" fill="none"/><path d="M890 738.18l-10 17.32-10-17.32m10 17.32V747M902 675.66l-.06 67.68M898 675.66l-.06 67.68M890 680.8l10-17.3 10 17.33m-10-17.33v8.5" stroke="#000" stroke-width="2" fill="none"/><path d="M909.95 738.2l-10.02 17.3-9.98-17.33m9.98 17.33V747" stroke="#000" stroke-width="2" fill="none"/><path d="M280 481.5a20 20 0 0 1 20-20h40a20 20 0 0 1 20 20V680a20 20 0 0 1-20 20h-40a20 20 0 0 1-20-20z" stroke="#000" stroke-width="3" fill="url(#a)"/><path d="M420 481.5a20 20 0 0 1 20-20h40a20 20 0 0 1 20 20V680a20 20 0 0 1-20 20h-40a20 20 0 0 1-20-20z" stroke="#000" stroke-width="3" fill="url(#b)"/><path d="M560 480a20 20 0 0 1 20-20h40a20 20 0 0 1 20 20v200a20 20 0 0 1-20 20h-40a20 20 0 0 1-20-20z" stroke="#000" stroke-width="3" fill="url(#c)"/><path d="M601.88 715.68l-.23 27.68M597.88 715.64l-.23 27.68M589.84 720.74l10.14-17.24 9.86 17.4m-9.86-17.4l-.07 8.5M609.7 738.26l-10.15 17.24-9.85-17.4m9.85 17.4l.07-8.5" stroke="#000" stroke-width="2" fill="none"/><path d="M280 779a20 20 0 0 1 20-20h320a20 20 0 0 1 20 20v2a20 20 0 0 1-20 20H300a20 20 0 0 1-20-20z" stroke="#000" stroke-width="3" fill="#fff"/><use xlink:href="#d" transform="matrix(1,0,0,1,285,764) translate(107.04203703703706 23.333333333333332)"/><path d="M462 715.66v27.68M458 715.66v27.68M450 720.82l10-17.32 10 17.32m-10-17.32v8.5M470 738.18l-10 17.32-10-17.32m10 17.32V747M322.12 715.64l.23 27.68M318.12 715.68l.23 27.68M310.16 720.9l9.86-17.4 10.14 17.24m-10.14-17.24l.07 8.5M330.3 738.1l-9.85 17.4-10.14-17.24m10.15 17.24l-.07-8.5" stroke="#000" stroke-width="2" fill="none"/><path d="M280 826a6 6 0 0 1 6-6h348a6 6 0 0 1 6 6v88a6 6 0 0 1-6 6H286a6 6 0 0 1-6-6z" stroke="#000" stroke-opacity="0" stroke-width="3" fill="#fff" fill-opacity="0"/><use xlink:href="#e" transform="matrix(1,0,0,1,285,825) translate(49.81481481481485 31.288194444444436)"/><use xlink:href="#f" transform="matrix(1,0,0,1,285,825) translate(252.9753086419753 31.288194444444436)"/><use xlink:href="#g" transform="matrix(1,0,0,1,285,825) translate(101.91358024691361 73.95486111111109)"/><path d="M760 779a20 20 0 0 1 20-20h200a20 20 0 0 1 20 20v2a20 20 0 0 1-20 20H780a20 20 0 0 1-20-20z" stroke="#000" stroke-width="3" fill="#fff"/><use xlink:href="#d" transform="matrix(1,0,0,1,765,764) translate(47.042037037037055 23.333333333333332)"/><path d="M800 481.5a20 20 0 0 1 20-20h160a20 20 0 0 1 20 20V640a20 20 0 0 1-20 20H820a20 20 0 0 1-20-20z" stroke="#000" stroke-width="3" fill="url(#h)"/><path d="M780 500a20 20 0 0 1 20-20h160a20 20 0 0 1 20 20v160a20 20 0 0 1-20 20H800a20 20 0 0 1-20-20z" stroke="#000" stroke-width="3" fill="url(#i)"/><path d="M760 521.5a20 20 0 0 1 20-20h160a20 20 0 0 1 20 20V680a20 20 0 0 1-20 20H780a20 20 0 0 1-20-20z" stroke="#000" stroke-width="3" fill="url(#j)"/><path d="M760 826a6 6 0 0 1 6-6h228a6 6 0 0 1 6 6v88a6 6 0 0 1-6 6H766a6 6 0 0 1-6-6z" stroke="#000" stroke-opacity="0" stroke-width="3" fill="#fff" fill-opacity="0"/><use xlink:href="#k" transform="matrix(1,0,0,1,765,825) translate(18.358024691358054 31.288194444444436)"/><use xlink:href="#l" transform="matrix(1,0,0,1,765,825) translate(26.30864197530869 73.95486111111109)"/><use xlink:href="#m" transform="matrix(1,0,0,1,765,825) translate(83.39506172839509 73.95486111111109)"/><path d="M1101 520h3.98m7.96 0h7.96m7.96 0h7.96m7.96 0h7.96m7.96 0h7.96m7.96 0h7.96m7.96 0h7.96m7.96 0h7.96m7.96 0h7.96m7.96 0h7.96m7.96 0h7.96m7.96 0h7.96m7.96 0h7.96m7.96 0h7.96m7.96 0h7.96m7.96 0h7.96m7.96 0h7.96m7.96 0h7.96m7.96 0h7.96m7.96 0h7.96m7.96 0h7.96m7.96 0h7.96m7.96 0h7.96m7.96 0h7.96m7.96 0h7.96m7.96 0h3.98M1101.03 520H1100M1498.97 520h1.03M1101 640h3.98m7.96 0h7.96m7.96 0h7.96m7.96 0h7.96m7.96 0h7.96m7.96 0h7.96m7.96 0h7.96m7.96 0h7.96m7.96 0h7.96m7.96 0h7.96m7.96 0h7.96m7.96 0h7.96m7.96 0h7.96m7.96 0h7.96m7.96 0h7.96m7.96 0h7.96m7.96 0h7.96m7.96 0h7.96m7.96 0h7.96m7.96 0h7.96m7.96 0h7.96m7.96 0h7.96m7.96 0h7.96m7.96 0h7.96m7.96 0h7.96m7.96 0h3.98M1101.03 640H1100M1498.97 640h1.03" stroke="#ba23f6" stroke-width="2" fill="none"/><path d="M1120 560a20 20 0 0 1 20-20h20a20 20 0 0 1 20 20v41.5a20 20 0 0 1-20 20h-20a20 20 0 0 1-20-20z" stroke="#000" stroke-width="3" fill="url(#n)"/><path d="M1270 560.5a20 20 0 0 1 20-20h20a20 20 0 0 1 20 20V602a20 20 0 0 1-20 20h-20a20 20 0 0 1-20-20z" stroke="#000" stroke-width="3" fill="url(#o)"/><path d="M1420 560a20 20 0 0 1 20-20h20a20 20 0 0 1 20 20v41.5a20 20 0 0 1-20 20h-20a20 20 0 0 1-20-20z" stroke="#000" stroke-width="3" fill="url(#p)"/><path d="M1140 481.5a20 20 0 0 1 20-20h80a20 20 0 0 1 20 20 20 20 0 0 1-20 20h-80a20 20 0 0 1-20-20z" stroke="#000" stroke-width="3" fill="url(#q)"/><path d="M1340 480a20 20 0 0 1 20-20h80a20 20 0 0 1 20 20 20 20 0 0 1-20 20h-80a20 20 0 0 1-20-20z" stroke="#000" stroke-width="3" fill="url(#r)"/><path d="M1100 680a20 20 0 0 1 20-20 20 20 0 0 1 20 20 20 20 0 0 1-20 20 20 20 0 0 1-20-20zM1224 680a20 20 0 0 1 20-20 20 20 0 0 1 20 20 20 20 0 0 1-20 20 20 20 0 0 1-20-20z" stroke="#000" stroke-width="3" fill="#cfe4ff"/><path d="M1342 680a20 20 0 0 1 20-20 20 20 0 0 1 20 20 20 20 0 0 1-20 20 20 20 0 0 1-20-20zM1460 680a20 20 0 0 1 20-20 20 20 0 0 1 20 20 20 20 0 0 1-20 20 20 20 0 0 1-20-20zM1100 778.5a20 20 0 0 1 20-20h363a20 20 0 0 1 20 20v2a20 20 0 0 1-20 20h-363a20 20 0 0 1-20-20z" stroke="#000" stroke-width="3" fill="#fff"/><use xlink:href="#d" transform="matrix(1,0,0,1,1105.0001444771995,763.5000499999953) translate(128.54203703703706 23.333333333333332)"/><path d="M1122.15 715.64l.3 27.18M1118.15 715.7l.3 27.16M1110.2 720.93l9.82-17.42 10.2 17.22M1120 703.5l.1 8.5M1130.4 737.57l-9.82 17.43-10.2-17.2m10.2 17.2l-.1-8.5M1246.05 715.66l.1 27.17M1242.05 715.67l.1 27.18M1234.07 720.86l9.94-17.36 10.07 17.3M1244 703.5l.04 8.5M1254.13 737.64l-9.95 17.36-10.06-17.3m10.06 17.3l-.03-8.5M1363.95 715.67l-.1 27.18M1359.95 715.66l-.1 27.17M1351.93 720.8l10.06-17.3 9.93 17.36M1362 703.5l-.04 8.5M1371.87 737.72L1361.8 755l-9.93-17.36m9.94 17.36l.04-8.5M1481.85 715.7l-.3 27.16M1477.85 715.64l-.3 27.18M1469.8 720.72l10.18-17.22 9.8 17.43m-9.8-17.43l-.1 8.5M1489.6 737.8l-10.17 17.2-9.82-17.43m9.83 17.43l.1-8.5M1451.95 637.17l-.4 105.68M1447.95 637.15l-.4 105.68M1439.93 642.28L1450 625l9.93 17.36M1450 625l-.04 8.5M1459.58 737.72L1449.52 755l-9.94-17.36m9.94 17.36l.03-8.5M1302 637.66v105.18M1298 637.66v105.18M1290 642.82l10-17.32 10 17.32m-10-17.32v8.5M1310 737.68L1300 755l-10-17.32m10 17.32v-8.5M1152.05 637.15l.4 105.68M1148.05 637.17l.4 105.68M1140.07 642.36L1150 625l10.07 17.28M1150 625l.04 8.5M1160.43 737.64L1150.5 755l-10.07-17.28M1150.5 755l-.04-8.5M1202.02 517.16l.3 225.68M1198.02 517.16l.3 225.68M1190.03 522.33L1200 505l10.03 17.3M1200 505v8.5M1210.3 737.67l-9.97 17.33-10.02-17.3m10.03 17.3v-8.5M1405.32 515.66l-.3 227.18M1401.32 515.66l-.3 227.18M1393.3 520.8l10.03-17.3 9.98 17.33m-9.97-17.33v8.5M1413.02 737.7L1403 755l-9.98-17.33M1403 755v-8.5" stroke="#000" stroke-width="2" fill="none"/><path d="M1102 826a6 6 0 0 1 6-6h386a6 6 0 0 1 6 6v88a6 6 0 0 1-6 6h-386a6 6 0 0 1-6-6z" stroke="#000" stroke-opacity="0" stroke-width="3" fill="#fff" fill-opacity="0"/><g><use xlink:href="#e" transform="matrix(1,0,0,1,1107.0002130280727,825) translate(25.407407407407447 51.194444444444436)"/><use xlink:href="#l" transform="matrix(1,0,0,1,1107.0002130280727,825) translate(228.56790123456787 51.194444444444436)"/><use xlink:href="#s" transform="matrix(1,0,0,1,1107.0002130280727,825) translate(285.6543209876543 51.194444444444436)"/></g><defs><linearGradient gradientUnits="userSpaceOnUse" id="a" x1="280" y1="700" x2="280" y2="461.5"><stop offset="19.2%" stop-color="#ced4db"/><stop offset="26.45%" stop-color="#fff"/><stop offset="45.29%" stop-color="#fff"/><stop offset="52.54%" stop-color="#cfe4ff"/><stop offset="73.91%" stop-color="#cfe4ff"/><stop offset="82.97%" stop-color="#c3f7c8"/></linearGradient><linearGradient gradientUnits="userSpaceOnUse" id="b" x1="420" y1="700" x2="420" y2="461.5"><stop offset="19.2%" stop-color="#ced4db"/><stop offset="26.45%" stop-color="#fff"/><stop offset="45.29%" stop-color="#fff"/><stop offset="52.54%" stop-color="#cfe4ff"/><stop offset="73.91%" stop-color="#cfe4ff"/><stop offset="82.97%" stop-color="#c3f7c8"/></linearGradient><linearGradient gradientUnits="userSpaceOnUse" id="c" x1="560" y1="700" x2="560" y2="460"><stop offset="19.2%" stop-color="#ced4db"/><stop offset="26.45%" stop-color="#fff"/><stop offset="45.29%" stop-color="#fff"/><stop offset="52.54%" stop-color="#cfe4ff"/><stop offset="73.91%" stop-color="#cfe4ff"/><stop offset="82.97%" stop-color="#c3f7c8"/></linearGradient><path d="M240 0l2-218c-23 76-54 145-80 218h-23L58-218 59 0H30v-248h44l77 211c21-75 51-140 76-211h43V0h-30" id="t"/><path d="M24-231v-30h32v30H24zM24 0v-190h32V0H24" id="u"/><path d="M85-194c31 0 48 13 60 33l-1-100h32l1 261h-30c-2-10 0-23-3-31C134-8 116 4 85 4 32 4 16-35 15-94c0-66 23-100 70-100zm9 24c-40 0-46 34-46 75 0 40 6 74 45 74 42 0 51-32 51-76 0-42-9-74-50-73" id="v"/><path d="M24 0v-261h32V0H24" id="w"/><path d="M100-194c63 0 86 42 84 106H49c0 40 14 67 53 68 26 1 43-12 49-29l28 8c-11 28-37 45-77 45C44 4 14-33 15-96c1-61 26-98 85-98zm52 81c6-60-76-77-97-28-3 7-6 17-6 28h103" id="x"/><path d="M206 0h-36l-40-164L89 0H53L-1-190h32L70-26l43-164h34l41 164 42-164h31" id="y"/><path d="M141-36C126-15 110 5 73 4 37 3 15-17 15-53c-1-64 63-63 125-63 3-35-9-54-41-54-24 1-41 7-42 31l-33-3c5-37 33-52 76-52 45 0 72 20 72 64v82c-1 20 7 32 28 27v20c-31 9-61-2-59-35zM48-53c0 20 12 33 32 33 41-3 63-29 60-74-43 2-92-5-92 41" id="z"/><path d="M114-163C36-179 61-72 57 0H25l-1-190h30c1 12-1 29 2 39 6-27 23-49 58-41v29" id="A"/><g id="d"><use transform="matrix(0.07407407407407407,0,0,0.07407407407407407,0,0)" xlink:href="#t"/><use transform="matrix(0.07407407407407407,0,0,0.07407407407407407,22.148148148148145,0)" xlink:href="#u"/><use transform="matrix(0.07407407407407407,0,0,0.07407407407407407,28,0)" xlink:href="#v"/><use transform="matrix(0.07407407407407407,0,0,0.07407407407407407,42.81481481481481,0)" xlink:href="#v"/><use transform="matrix(0.07407407407407407,0,0,0.07407407407407407,57.62962962962962,0)" xlink:href="#w"/><use transform="matrix(0.07407407407407407,0,0,0.07407407407407407,63.48148148148147,0)" xlink:href="#x"/><use transform="matrix(0.07407407407407407,0,0,0.07407407407407407,78.29629629629628,0)" xlink:href="#y"/><use transform="matrix(0.07407407407407407,0,0,0.07407407407407407,97.48148148148145,0)" xlink:href="#z"/><use transform="matrix(0.07407407407407407,0,0,0.07407407407407407,112.29629629629628,0)" xlink:href="#A"/><use transform="matrix(0.07407407407407407,0,0,0.07407407407407407,121.11111111111109,0)" xlink:href="#x"/></g><path d="M212 0l43-212L151 0h-37L90-212C82-137 65-70 52 0H6l48-248h70l20 187 93-187h69L258 0h-46" id="B"/><path d="M50-224l7-37h49l-7 37H50zM6 0l37-190h49L55 0H6" id="C"/><path d="M132-28C118-9 101 4 69 4 30 4 10-23 10-62c0-70 24-129 92-132 31-1 47 14 56 35l19-102h49L179 0h-49zM62-69c0 22 7 39 29 39 45-2 54-45 57-90 2-27-10-40-33-40-44 0-53 48-53 91" id="D"/><path d="M6 0l51-261h49L55 0H6" id="E"/><path d="M114-194c63-2 87 48 72 110H63c-3 28 1 55 31 54 21-1 32-13 37-29l44 13C160-14 137 4 91 4 41 4 11-22 11-73c0-71 33-119 103-121zm30 77c14-47-50-61-67-22-3 6-6 13-8 22h75" id="F"/><path d="M212 0h-52l-8-156L82 0H30L17-190h46l2 145 66-145h53l8 145 60-145h47" id="G"/><path d="M166-52c-4 17 5 29 24 23l-3 27c-30 11-74 1-67-34C105-15 91 4 56 4 23 4 3-15 2-49c0-64 63-67 128-67 10-22 3-53-29-45-13 3-22 10-25 24l-46-5c5-64 156-77 153 0-1 33-11 60-17 90zM97-88c-44-9-64 57-19 57 31 0 42-28 47-57H97" id="H"/><path d="M84-151c13-25 34-51 72-40l-8 41C67-170 71-64 56 0H6l36-190h47" id="I"/><g id="e"><use transform="matrix(0.0987654320987654,0,0,0.0987654320987654,0,0)" xlink:href="#B"/><use transform="matrix(0.0987654320987654,0,0,0.0987654320987654,29.530864197530853,0)" xlink:href="#C"/><use transform="matrix(0.0987654320987654,0,0,0.0987654320987654,39.40740740740739,0)" xlink:href="#D"/><use transform="matrix(0.0987654320987654,0,0,0.0987654320987654,61.037037037037,0)" xlink:href="#D"/><use transform="matrix(0.0987654320987654,0,0,0.0987654320987654,82.66666666666663,0)" xlink:href="#E"/><use transform="matrix(0.0987654320987654,0,0,0.0987654320987654,92.54320987654317,0)" xlink:href="#F"/><use transform="matrix(0.0987654320987654,0,0,0.0987654320987654,112.29629629629626,0)" xlink:href="#G"/><use transform="matrix(0.0987654320987654,0,0,0.0987654320987654,139.95061728395055,0)" xlink:href="#H"/><use transform="matrix(0.0987654320987654,0,0,0.0987654320987654,159.70370370370364,0)" xlink:href="#I"/><use transform="matrix(0.0987654320987654,0,0,0.0987654320987654,173.5308641975308,0)" xlink:href="#F"/></g><path d="M93-157L62 0H13l31-157H16l6-33h28c2-54 40-81 100-68l-6 32c-29-8-44 9-45 36h38l-7 33H93" id="J"/><path d="M124-194c51 0 84 22 84 74C207-44 167 4 94 4 43 4 11-23 11-74c0-74 41-120 113-120zM99-30c46 0 58-42 58-86 0-27-11-44-37-44-44 0-55 40-57 84-1 27 10 45 36 46" id="K"/><g id="f"><use transform="matrix(0.0987654320987654,0,0,0.0987654320987654,0,0)" xlink:href="#J"/><use transform="matrix(0.0987654320987654,0,0,0.0987654320987654,11.753086419753082,0)" xlink:href="#K"/><use transform="matrix(0.0987654320987654,0,0,0.0987654320987654,33.38271604938271,0)" xlink:href="#I"/></g><path d="M178-136c88 48 22 151-73 140C49-3 12-15 4-64l51-9c1 50 111 53 115 3-16-63-132-20-133-112 0-93 190-91 199-10l-50 12c-4-41-93-50-97-4 7 38 59 32 89 48" id="L"/><path d="M109 0H50L19-190h51L86-37l77-153h54" id="M"/><path d="M67-101c-8 29-7 73 27 71 23-2 32-16 39-37l48 9C170-19 141 4 91 4 36 4 7-28 12-86c6-75 61-124 140-103 26 7 40 29 43 59l-50 4c-1-20-9-34-29-34-35 0-41 29-49 59" id="N"/><path d="M144-137c-1-29-70-35-71-2 16 41 103 10 103 80C176 9 79 16 32-9 18-17 9-31 4-48l44-6c3 32 80 36 82 1-15-42-103-11-103-82 0-77 157-79 161-8" id="O"/><g id="g"><use transform="matrix(0.0987654320987654,0,0,0.0987654320987654,0,0)" xlink:href="#L"/><use transform="matrix(0.0987654320987654,0,0,0.0987654320987654,23.703703703703695,0)" xlink:href="#F"/><use transform="matrix(0.0987654320987654,0,0,0.0987654320987654,43.45679012345677,0)" xlink:href="#I"/><use transform="matrix(0.0987654320987654,0,0,0.0987654320987654,57.28395061728393,0)" xlink:href="#M"/><use transform="matrix(0.0987654320987654,0,0,0.0987654320987654,77.03703703703701,0)" xlink:href="#C"/><use transform="matrix(0.0987654320987654,0,0,0.0987654320987654,86.91358024691355,0)" xlink:href="#N"/><use transform="matrix(0.0987654320987654,0,0,0.0987654320987654,106.66666666666663,0)" xlink:href="#F"/><use transform="matrix(0.0987654320987654,0,0,0.0987654320987654,126.41975308641972,0)" xlink:href="#O"/></g><linearGradient gradientUnits="userSpaceOnUse" id="h" x1="800" y1="660" x2="800" y2="461.5"><stop offset="19.2%" stop-color="#ced4db"/><stop offset="26.45%" stop-color="#fff"/><stop offset="45.29%" stop-color="#fff"/><stop offset="52.54%" stop-color="#cfe4ff"/><stop offset="73.91%" stop-color="#cfe4ff"/><stop offset="82.97%" stop-color="#c3f7c8"/></linearGradient><linearGradient gradientUnits="userSpaceOnUse" id="i" x1="780" y1="680" x2="780" y2="480"><stop offset="19.2%" stop-color="#ced4db"/><stop offset="26.45%" stop-color="#fff"/><stop offset="45.29%" stop-color="#fff"/><stop offset="52.54%" stop-color="#cfe4ff"/><stop offset="73.91%" stop-color="#cfe4ff"/><stop offset="82.97%" stop-color="#c3f7c8"/></linearGradient><linearGradient gradientUnits="userSpaceOnUse" id="j" x1="760" y1="700" x2="760" y2="501.5"><stop offset="19.2%" stop-color="#ced4db"/><stop offset="26.45%" stop-color="#fff"/><stop offset="45.29%" stop-color="#fff"/><stop offset="52.54%" stop-color="#cfe4ff"/><stop offset="73.91%" stop-color="#cfe4ff"/><stop offset="82.97%" stop-color="#c3f7c8"/></linearGradient><g id="k"><use transform="matrix(0.0987654320987654,0,0,0.0987654320987654,0,0)" xlink:href="#B"/><use transform="matrix(0.0987654320987654,0,0,0.0987654320987654,29.530864197530853,0)" xlink:href="#C"/><use transform="matrix(0.0987654320987654,0,0,0.0987654320987654,39.40740740740739,0)" xlink:href="#D"/><use transform="matrix(0.0987654320987654,0,0,0.0987654320987654,61.037037037037,0)" xlink:href="#D"/><use transform="matrix(0.0987654320987654,0,0,0.0987654320987654,82.66666666666663,0)" xlink:href="#E"/><use transform="matrix(0.0987654320987654,0,0,0.0987654320987654,92.54320987654317,0)" xlink:href="#F"/><use transform="matrix(0.0987654320987654,0,0,0.0987654320987654,112.29629629629626,0)" xlink:href="#G"/><use transform="matrix(0.0987654320987654,0,0,0.0987654320987654,139.95061728395055,0)" xlink:href="#H"/><use transform="matrix(0.0987654320987654,0,0,0.0987654320987654,159.70370370370364,0)" xlink:href="#I"/><use transform="matrix(0.0987654320987654,0,0,0.0987654320987654,173.5308641975308,0)" xlink:href="#F"/></g><g id="l"><use transform="matrix(0.0987654320987654,0,0,0.0987654320987654,0,0)" xlink:href="#J"/><use transform="matrix(0.0987654320987654,0,0,0.0987654320987654,11.753086419753082,0)" xlink:href="#K"/><use transform="matrix(0.0987654320987654,0,0,0.0987654320987654,33.38271604938271,0)" xlink:href="#I"/></g><path d="M150-105c8-23 8-54-22-51-68 7-54 98-72 156H6l50-261h50L85-158c15-20 33-36 66-36 95 0 34 128 28 194h-49" id="P"/><g id="m"><use transform="matrix(0.0987654320987654,0,0,0.0987654320987654,0,0)" xlink:href="#L"/><use transform="matrix(0.0987654320987654,0,0,0.0987654320987654,23.703703703703695,0)" xlink:href="#P"/><use transform="matrix(0.0987654320987654,0,0,0.0987654320987654,45.333333333333314,0)" xlink:href="#H"/><use transform="matrix(0.0987654320987654,0,0,0.0987654320987654,65.08641975308639,0)" xlink:href="#I"/><use transform="matrix(0.0987654320987654,0,0,0.0987654320987654,78.91358024691354,0)" xlink:href="#D"/><use transform="matrix(0.0987654320987654,0,0,0.0987654320987654,100.54320987654316,0)" xlink:href="#O"/></g><linearGradient gradientUnits="userSpaceOnUse" id="n" x1="1120" y1="540" x2="1120" y2="621.5"><stop offset="66.07%" stop-color="#cfe4ff"/><stop offset="80%" stop-color="#ced4db"/></linearGradient><linearGradient gradientUnits="userSpaceOnUse" id="o" x1="1270" y1="540.5" x2="1270" y2="622"><stop offset="66.07%" stop-color="#cfe4ff"/><stop offset="80%" stop-color="#ced4db"/></linearGradient><linearGradient gradientUnits="userSpaceOnUse" id="p" x1="1420" y1="540" x2="1420" y2="621.5"><stop offset="66.07%" stop-color="#cfe4ff"/><stop offset="80%" stop-color="#ced4db"/></linearGradient><linearGradient gradientUnits="userSpaceOnUse" id="q" x1="1140" y1="461.5" x2="1140" y2="501.5"><stop offset="19.29%" stop-color="#fff"/><stop offset="35%" stop-color="#c3f7c8"/></linearGradient><linearGradient gradientUnits="userSpaceOnUse" id="r" x1="1340" y1="460" x2="1340" y2="500"><stop offset="19.29%" stop-color="#fff"/><stop offset="35%" stop-color="#c3f7c8"/></linearGradient><path d="M18-101c0-91 52-150 145-150 68 0 111 34 111 101C274-54 221 4 128 4 59 4 18-33 18-101zm202-32c4-46-15-77-59-77-65 0-88 46-91 108-2 41 22 65 60 65 60 0 84-40 90-96" id="Q"/><path d="M183 0l-10-63H79L44 0H-7l138-248h61L234 0h-51zm-14-102l-15-108c-16 38-36 73-55 108h70" id="R"/><g id="s"><use transform="matrix(0.0987654320987654,0,0,0.0987654320987654,0,0)" xlink:href="#L"/><use transform="matrix(0.0987654320987654,0,0,0.0987654320987654,23.703703703703695,0)" xlink:href="#Q"/><use transform="matrix(0.0987654320987654,0,0,0.0987654320987654,51.358024691358004,0)" xlink:href="#R"/></g></defs></g></svg>