<svg xmlns="http://www.w3.org/2000/svg" xmlns:xlink="http://www.w3.org/1999/xlink" xmlns:lucid="lucid" width="1343" height="463.5"><g transform="translate(-338.5 -557.0000499999812)" lucid:page-tab-id="0_0"><path d="M1220 760.83V722.5" stroke="#82755b" stroke-width="2" fill="none"/><path d="M1220 776.1l-4.63-14.27h9.27z" stroke="#82755b" stroke-width="2" fill="#82755b"/><path d="M1220.97 722.53h-1.94v-1.03h1.03l.9-.07z" stroke="#82755b" stroke-width=".05" fill="#82755b"/><path d="M1120 761.5v-59" stroke="#1071e5" stroke-width="2" fill="none"/><path d="M1120 776.76l-4.63-14.26h9.27z" stroke="#1071e5" stroke-width="2" fill="#1071e5"/><path d="M1120.97 702.53h-1.94v-1.03h1.94z" stroke="#1071e5" stroke-width=".05" fill="#1071e5"/><path d="M1199.38 760.88V744" stroke="#008a0e" stroke-width="2" fill="none"/><path d="M1199.38 776.14l-4.64-14.26h9.27z" stroke="#008a0e" stroke-width="2" fill="#008a0e"/><path d="M1200.35 744.03h-1.95V743h1.66l.3-.02z" stroke="#008a0e" stroke-width=".05" fill="#008a0e"/><path d="M1080 580a20 20 0 0 1 20-20h140a20 20 0 0 1 20 20v100a20 20 0 0 1-20 20h-140a20 20 0 0 1-20-20z" stroke="#1071e5" stroke-width="3" fill="url(#a)"/><path d="M1240.9 760.9v-58.47" stroke="#1071e5" stroke-width="2" fill="none"/><path d="M1240.9 776.16l-4.63-14.26h9.27z" stroke="#1071e5" stroke-width="2" fill="#1071e5"/><path d="M1241.88 702.46h-1.95v-.96h.13l1.82-.14z" stroke="#1071e5" stroke-width=".05" fill="#1071e5"/><path d="M1380 580a20 20 0 0 1 20-20h20a20 20 0 0 1 20 20v180a20 20 0 0 1-20 20h-20a20 20 0 0 1-20-20z" stroke="#000" stroke-width="3" fill="url(#b)"/><path d="M1500 580a20 20 0 0 1 20-20h20a20 20 0 0 1 20 20v180a20 20 0 0 1-20 20h-20a20 20 0 0 1-20-20z" stroke="#000" stroke-width="3" fill="url(#c)"/><path d="M1620 580a20 20 0 0 1 20-20h20a20 20 0 0 1 20 20v180a20 20 0 0 1-20 20h-20a20 20 0 0 1-20-20z" stroke="#000" stroke-width="3" fill="url(#d)"/><path d="M1484.34 672h-28.68M1484.34 668h-28.68M1479.18 660l17.32 10-17.32 10m17.32-10h-8.5M1460.82 680l-17.32-10 17.32-10m-17.32 10h8.5M1604.34 672h-28.68M1604.34 668h-28.68M1599.18 660l17.32 10-17.32 10m17.32-10h-8.5M1580.82 680l-17.32-10 17.32-10m-17.32 10h8.5" stroke="#000" stroke-width="2" fill="none"/><path d="M360 578.5a20 20 0 0 1 20-20h180a20 20 0 0 1 20 20v180a20 20 0 0 1-20 20H380a20 20 0 0 1-20-20z" stroke="#000" stroke-width="3" fill="url(#e)"/><path d="M360 838.58a20 20 0 0 1 20-20h60a20 20 0 0 1 20 20v2a20 20 0 0 1-20 20h-60a20 20 0 0 1-20-20z" stroke="#000" stroke-width="3" fill="#ced4db"/><use xlink:href="#f" transform="matrix(1,0,0,1,365,823.5833083333428) translate(13.930925925925928 23.333333333333336)"/><use xlink:href="#g" transform="matrix(1,0,0,1,365,823.5833083333428) translate(58.30129629629629 23.333333333333336)"/><path d="M410 798.58V781" stroke="#000" stroke-width="2" fill="none"/><path d="M410 813.85l-4.63-14.27h9.26z" stroke="#000" stroke-width="2"/><path d="M410.98 781.03h-1.96V780h1.96z" stroke="#000" stroke-width=".05"/><path d="M700 578.5a20 20 0 0 1 20-20h180a20 20 0 0 1 20 20 20 20 0 0 1-20 20H720a20 20 0 0 1-20-20z" stroke="#000" stroke-width="3" fill="#c3f7c8"/><path d="M700 658.5a20 20 0 0 1 20-20h180a20 20 0 0 1 20 20v100a20 20 0 0 1-20 20H720a20 20 0 0 1-20-20z" stroke="#000" stroke-width="3" fill="url(#h)"/><path d="M340 886a6 6 0 0 1 6-6h248a6 6 0 0 1 6 6v126a6 6 0 0 1-6 6H346a6 6 0 0 1-6-6z" stroke="#000" stroke-opacity="0" stroke-width="3" fill="#fff" fill-opacity="0"/><use xlink:href="#i" transform="matrix(1,0,0,1,345,885) translate(55.07407407407409 32.444444444444436)"/><use xlink:href="#j" transform="matrix(1,0,0,1,345,885) translate(25.3456790123457 75.11111111111109)"/><use xlink:href="#k" transform="matrix(1,0,0,1,345,885) translate(22.67901234567904 117.77777777777774)"/><use xlink:href="#l" transform="matrix(1,0,0,1,345,885) translate(79.76543209876544 117.77777777777774)"/><path d="M480 838.58a20 20 0 0 1 20-20h60a20 20 0 0 1 20 20v2a20 20 0 0 1-20 20h-60a20 20 0 0 1-20-20z" stroke="#000" stroke-width="3" fill="#ced4db"/><use xlink:href="#f" transform="matrix(1,0,0,1,485,823.5833083333428) translate(13.930925925925928 23.333333333333336)"/><use xlink:href="#m" transform="matrix(1,0,0,1,485,823.5833083333428) translate(58.30129629629629 23.333333333333336)"/><path d="M530 798.58V781" stroke="#000" stroke-width="2" fill="none"/><path d="M530 813.85l-4.63-14.27h9.26z" stroke="#000" stroke-width="2"/><path d="M530.98 781.03H529V780H531z" stroke="#000" stroke-width=".05"/><path d="M1381 800h3.92m7.84 0h7.85m7.85 0h7.84m7.83 0h7.84m7.85 0h7.84m7.84 0h7.84m7.84 0h7.85m7.84 0h7.84m7.85 0h7.85m7.84 0h7.84m7.84 0h7.84m7.85 0h7.85m7.84 0h7.83m7.84 0h7.85m7.84 0h7.84m7.84 0h7.84m7.85 0h7.84m7.84 0h7.85m7.85 0h7.84m7.84 0h3.92M1381.03 800H1380M1678.97 800h1.03" stroke="#ba23f6" stroke-width="2" fill="none"/><path d="M1060 599.25a20 20 0 0 1 20-20h140a20 20 0 0 1 20 20V700a20 20 0 0 1-20 20h-140a20 20 0 0 1-20-20z" stroke="#82755b" stroke-width="3" fill="url(#n)"/><path d="M1080 799.42a20 20 0 0 1 20-20h40a20 20 0 0 1 20 20v2a20 20 0 0 1-20 20h-40a20 20 0 0 1-20-20z" stroke="#1071e5" stroke-width="3" fill="#ced4db"/><use xlink:href="#f" transform="matrix(1,0,0,1,1085,784.4166916666572) translate(3.930925925925928 23.333333333333336)"/><use xlink:href="#g" transform="matrix(1,0,0,1,1085,784.4166916666572) translate(48.30129629629629 23.333333333333336)"/><path d="M680 886a6 6 0 0 1 6-6h248a6 6 0 0 1 6 6v126a6 6 0 0 1-6 6H686a6 6 0 0 1-6-6z" stroke="#000" stroke-opacity="0" stroke-width="3" fill="#fff" fill-opacity="0"/><use xlink:href="#o" transform="matrix(1,0,0,1,685,885) translate(55.07407407407409 32.444444444444436)"/><use xlink:href="#p" transform="matrix(1,0,0,1,685,885) translate(25.3456790123457 75.11111111111109)"/><use xlink:href="#q" transform="matrix(1,0,0,1,685,885) translate(39.22222222222226 117.77777777777774)"/><use xlink:href="#r" transform="matrix(1,0,0,1,685,885) translate(96.30864197530866 117.77777777777774)"/><path d="M1020 887a6 6 0 0 1 6-6h248a6 6 0 0 1 6 6v126a6 6 0 0 1-6 6h-248a6 6 0 0 1-6-6z" stroke="#000" stroke-opacity="0" stroke-width="3" fill="#fff" fill-opacity="0"/><use xlink:href="#o" transform="matrix(1,0,0,1,1025,886) translate(55.07407407407409 32.444444444444436)"/><use xlink:href="#p" transform="matrix(1,0,0,1,1025,886) translate(25.3456790123457 75.11111111111109)"/><use xlink:href="#q" transform="matrix(1,0,0,1,1025,886) translate(36.30864197530869 117.77777777777774)"/><use xlink:href="#s" transform="matrix(1,0,0,1,1025,886) translate(93.39506172839509 117.77777777777774)"/><path d="M1400 887a6 6 0 0 1 6-6h248a6 6 0 0 1 6 6v126a6 6 0 0 1-6 6h-248a6 6 0 0 1-6-6z" stroke="#000" stroke-opacity="0" stroke-width="3" fill="#fff" fill-opacity="0"/><use xlink:href="#o" transform="matrix(1,0,0,1,1405,886) translate(55.07407407407409 32.444444444444436)"/><use xlink:href="#p" transform="matrix(1,0,0,1,1405,886) translate(25.3456790123457 75.11111111111109)"/><use xlink:href="#q" transform="matrix(1,0,0,1,1405,886) translate(23.37037037037041 117.77777777777774)"/><use xlink:href="#t" transform="matrix(1,0,0,1,1405,886) translate(80.45679012345681 117.77777777777774)"/><path d="M700 838.58a20 20 0 0 1 20-20h60a20 20 0 0 1 20 20v2a20 20 0 0 1-20 20h-60a20 20 0 0 1-20-20z" stroke="#000" stroke-width="3" fill="#ced4db"/><use xlink:href="#f" transform="matrix(1,0,0,1,705,823.5833083333428) translate(13.930925925925928 23.333333333333336)"/><use xlink:href="#g" transform="matrix(1,0,0,1,705,823.5833083333428) translate(58.30129629629629 23.333333333333336)"/><path d="M750 798.58V781" stroke="#000" stroke-width="2" fill="none"/><path d="M750 813.85l-4.63-14.27h9.26z" stroke="#000" stroke-width="2"/><path d="M750 781.03V780" stroke="#000" stroke-width="2" fill="none"/><path d="M820 838.58a20 20 0 0 1 20-20h60a20 20 0 0 1 20 20v2a20 20 0 0 1-20 20h-60a20 20 0 0 1-20-20z" stroke="#000" stroke-width="3" fill="#ced4db"/><use xlink:href="#f" transform="matrix(1,0,0,1,825,823.5833083333428) translate(13.930925925925928 23.333333333333336)"/><use xlink:href="#m" transform="matrix(1,0,0,1,825,823.5833083333428) translate(58.30129629629629 23.333333333333336)"/><path d="M870 798.58V781" stroke="#000" stroke-width="2" fill="none"/><path d="M870 813.85l-4.63-14.27h9.26z" stroke="#000" stroke-width="2"/><path d="M870 781.03V780M810 618.5V601" stroke="#000" stroke-width="2" fill="none"/><path d="M810 633.76l-4.63-14.26h9.26z" stroke="#000" stroke-width="2"/><path d="M810.98 601.03H809V600H811z" stroke="#000" stroke-width=".05"/><path d="M1100 778.58V722.5" stroke="#82755b" stroke-width="2" fill="none"/><path d="M1100 793.85l-4.63-14.27h9.27z" stroke="#82755b" stroke-width="2" fill="#82755b"/><path d="M1100.97 722.53h-1.94v-1.03h1.94z" stroke="#82755b" stroke-width=".05" fill="#82755b"/><path d="M1180 800.83a20 20 0 0 1 20-20h40a20 20 0 0 1 20 20v38.34a20 20 0 0 1-20 20h-40a20 20 0 0 1-20-20z" stroke="#000" stroke-width="3" fill="#ced4db"/><use xlink:href="#f" transform="matrix(1,0,0,1,1185,785.8333833333145) translate(3.9259259259259274 40.739583333333336)"/><use xlink:href="#m" transform="matrix(1,0,0,1,1185,785.8333833333145) translate(48.29629629629629 40.739583333333336)"/><path d="M1380 838.58a20 20 0 0 1 20-20h80a20 20 0 0 1 20 20v2a20 20 0 0 1-20 20h-80a20 20 0 0 1-20-20z" stroke="#000" stroke-width="3" fill="#ced4db"/><use xlink:href="#f" transform="matrix(1,0,0,1,1385,823.5833083333428) translate(23.930925925925926 23.333333333333336)"/><use xlink:href="#g" transform="matrix(1,0,0,1,1385,823.5833083333428) translate(68.3012962962963 23.333333333333336)"/><path d="M1428.07 802.94l-17.42-20.68" stroke="#000" stroke-width="2" fill="none"/><path d="M1437.9 814.6l-12.73-7.9 7.1-6z" stroke="#000" stroke-width="2"/><path d="M1411.4 781.66l-1.48 1.25-1.2-1.4h2.56z" stroke="#000" stroke-width=".05"/><path d="M1560 838.58a20 20 0 0 1 20-20h80a20 20 0 0 1 20 20v2a20 20 0 0 1-20 20h-80a20 20 0 0 1-20-20z" stroke="#000" stroke-width="3" fill="#ced4db"/><use xlink:href="#f" transform="matrix(1,0,0,1,1565,823.5833083333428) translate(23.930925925925926 23.333333333333336)"/><use xlink:href="#m" transform="matrix(1,0,0,1,1565,823.5833083333428) translate(68.3012962962963 23.333333333333336)"/><path d="M1602.8 810.28l-71.87-28.4" stroke="#000" stroke-width="2" fill="none"/><path d="M1617 815.9l-14.98-.94 3.4-8.62z" stroke="#000" stroke-width="2"/><path d="M1530.6 782.78l-3.25-1.28h3.75z" stroke="#000" stroke-width=".05"/><path d="M1601.76 814L1411 781.66" stroke="#000" stroke-width="2" fill="none"/><path d="M1616.8 816.54l-14.83 2.2 1.55-9.15z" stroke="#000" stroke-width="2"/><path d="M1410.85 782.63l-3.97-.67.08-.46h4.08z" stroke="#000" stroke-width=".05"/><path d="M1457.2 810.28l71.87-28.4" stroke="#000" stroke-width="2" fill="none"/><path d="M1443 815.9l11.57-9.56 3.4 8.62z" stroke="#000" stroke-width="2"/><path d="M1529.4 782.78l-.5-1.28h3.75z" stroke="#000" stroke-width=".05"/><path d="M1458.24 814L1649 781.66" stroke="#000" stroke-width="2" fill="none"/><path d="M1443.2 816.54l13.28-6.95 1.55 9.13z" stroke="#000" stroke-width="2"/><path d="M1653.12 781.96l-3.97.67-.2-1.13h4.1z" stroke="#000" stroke-width=".05"/><path d="M1631.93 802.94l17.42-20.68" stroke="#000" stroke-width="2" fill="none"/><path d="M1622.1 814.6l5.64-13.88 7.1 5.97z" stroke="#000" stroke-width="2"/><path d="M1650.08 782.9l-1.5-1.24.14-.16h2.56z" stroke="#000" stroke-width=".05"/><path d="M1060 818.58a20 20 0 0 1 20-20h40a20 20 0 0 1 20 20v2a20 20 0 0 1-20 20h-40a20 20 0 0 1-20-20z" stroke="#82755b" stroke-width="3" fill="#ced4db"/><g><use xlink:href="#f" transform="matrix(1,0,0,1,1065,803.5833083333428) translate(3.930925925925928 23.333333333333336)"/><use xlink:href="#g" transform="matrix(1,0,0,1,1065,803.5833083333428) translate(48.30129629629629 23.333333333333336)"/></g><path d="M1040 838.58a20 20 0 0 1 20-20h40a20 20 0 0 1 20 20v2a20 20 0 0 1-20 20h-40a20 20 0 0 1-20-20z" stroke="#008a0e" stroke-width="3" fill="#ced4db"/><g><use xlink:href="#f" transform="matrix(1,0,0,1,1045,823.5833083333428) translate(3.930925925925928 23.333333333333336)"/><use xlink:href="#g" transform="matrix(1,0,0,1,1045,823.5833083333428) translate(48.30129629629629 23.333333333333336)"/></g><path d="M1080 798.58V744" stroke="#008a0e" stroke-width="2" fill="none"/><path d="M1080 813.85l-4.63-14.27h9.27z" stroke="#008a0e" stroke-width="2" fill="#008a0e"/><path d="M1080.97 744.03h-1.94V743h1.94z" stroke="#008a0e" stroke-width=".05" fill="#008a0e"/><path d="M1040 620a20 20 0 0 1 20-20h140a20 20 0 0 1 20 20v101.5a20 20 0 0 1-20 20h-140a20 20 0 0 1-20-20z" stroke="#008a0e" stroke-width="3" fill="url(#u)"/><defs><linearGradient gradientUnits="userSpaceOnUse" id="a" x1="1080" y1="700" x2="1080" y2="560"><stop offset="19.93%" stop-color="#fff"/><stop offset="27.17%" stop-color="#cfe4ff"/><stop offset="68.12%" stop-color="#cfe4ff"/><stop offset="75%" stop-color="#c3f7c8"/></linearGradient><linearGradient gradientUnits="userSpaceOnUse" id="b" x1="1380" y1="780" x2="1380" y2="560"><stop offset="19.93%" stop-color="#fff"/><stop offset="27.17%" stop-color="#cfe4ff"/><stop offset="68.12%" stop-color="#cfe4ff"/><stop offset="75%" stop-color="#c3f7c8"/></linearGradient><linearGradient gradientUnits="userSpaceOnUse" id="c" x1="1500" y1="780" x2="1500" y2="560"><stop offset="19.93%" stop-color="#fff"/><stop offset="27.17%" stop-color="#cfe4ff"/><stop offset="68.12%" stop-color="#cfe4ff"/><stop offset="75%" stop-color="#c3f7c8"/></linearGradient><linearGradient gradientUnits="userSpaceOnUse" id="d" x1="1620" y1="780" x2="1620" y2="560"><stop offset="19.93%" stop-color="#fff"/><stop offset="27.17%" stop-color="#cfe4ff"/><stop offset="68.12%" stop-color="#cfe4ff"/><stop offset="75%" stop-color="#c3f7c8"/></linearGradient><linearGradient gradientUnits="userSpaceOnUse" id="e" x1="360" y1="778.5" x2="360" y2="558.5"><stop offset="19.93%" stop-color="#fff"/><stop offset="27.17%" stop-color="#cfe4ff"/><stop offset="68.12%" stop-color="#cfe4ff"/><stop offset="75%" stop-color="#c3f7c8"/></linearGradient><path d="M30-248c118-7 216 8 213 122C240-48 200 0 122 0H30v-248zM63-27c89 8 146-16 146-99s-60-101-146-95v194" id="v"/><path d="M160-131c35 5 61 23 61 61C221 17 115-2 30 0v-248c76 3 177-17 177 60 0 33-19 50-47 57zm-97-11c50-1 110 9 110-42 0-47-63-36-110-37v79zm0 115c55-2 124 14 124-45 0-56-70-42-124-44v89" id="w"/><g id="f"><use transform="matrix(0.07407407407407408,0,0,0.07407407407407408,0,0)" xlink:href="#v"/><use transform="matrix(0.07407407407407408,0,0,0.07407407407407408,19.185185185185187,0)" xlink:href="#w"/></g><path d="M195 0l-74-108L45 0H8l94-129-87-119h37l69 98 67-98h37l-84 118L233 0h-38" id="x"/><use transform="matrix(0.07407407407407408,0,0,0.07407407407407408,0,0)" xlink:href="#x" id="g"/><linearGradient gradientUnits="userSpaceOnUse" id="h" x1="700" y1="778.5" x2="700" y2="638.5"><stop offset="18.48%" stop-color="#fff"/><stop offset="24.28%" stop-color="#cfe4ff"/></linearGradient><path d="M241-173c-1 82-78 91-166 86L58 0H6l48-248c87 0 188-12 187 75zm-53 2c0-43-48-36-90-36l-15 80c50 0 105 7 105-44" id="y"/><path d="M124-194c51 0 84 22 84 74C207-44 167 4 94 4 43 4 11-23 11-74c0-74 41-120 113-120zM99-30c46 0 58-42 58-86 0-27-11-44-37-44-44 0-55 40-57 84-1 27 10 45 36 46" id="z"/><path d="M6 0l51-261h49L55 0H6" id="A"/><path d="M100 10C77 47 50 87-15 72l7-35c37 9 51-18 65-41L20-190h51L89-44l73-146h53" id="B"/><path d="M45-171c29-32 103-29 114 14 2-11 5-23 8-33h47L176-2c-3 70-92 96-155 64C9 56 1 42-1 25l50-5c2 28 48 27 63 11 13-13 20-45 21-66-13 20-30 35-62 36-87 3-60-134-26-172zM94-35c41-3 55-43 55-86 0-24-12-39-35-39-43 0-51 48-51 90 0 22 9 37 31 35" id="C"/><path d="M72-63c-8 23 5 39 32 30L98-1C54 14 12-6 23-64l18-93H15l7-33h28l24-45h31l-8 45h35l-6 33H90" id="D"/><g id="i"><use transform="matrix(0.0987654320987654,0,0,0.0987654320987654,0,0)" xlink:href="#y"/><use transform="matrix(0.0987654320987654,0,0,0.0987654320987654,23.703703703703695,0)" xlink:href="#z"/><use transform="matrix(0.0987654320987654,0,0,0.0987654320987654,45.333333333333314,0)" xlink:href="#A"/><use transform="matrix(0.0987654320987654,0,0,0.0987654320987654,55.209876543209845,0)" xlink:href="#B"/><use transform="matrix(0.0987654320987654,0,0,0.0987654320987654,74.96296296296293,0)" xlink:href="#C"/><use transform="matrix(0.0987654320987654,0,0,0.0987654320987654,96.59259259259255,0)" xlink:href="#A"/><use transform="matrix(0.0987654320987654,0,0,0.0987654320987654,106.4691358024691,0)" xlink:href="#z"/><use transform="matrix(0.0987654320987654,0,0,0.0987654320987654,128.09876543209873,0)" xlink:href="#D"/></g><path d="M114-194c63-2 87 48 72 110H63c-3 28 1 55 31 54 21-1 32-13 37-29l44 13C160-14 137 4 91 4 41 4 11-22 11-73c0-71 33-119 103-121zm30 77c14-47-50-61-67-22-3 6-6 13-8 22h75" id="E"/><path d="M84-151c13-25 34-51 72-40l-8 41C67-170 71-64 56 0H6l36-190h47" id="F"/><path d="M144-137c-1-29-70-35-71-2 16 41 103 10 103 80C176 9 79 16 32-9 18-17 9-31 4-48l44-6c3 32 80 36 82 1-15-42-103-11-103-82 0-77 157-79 161-8" id="G"/><path d="M50-224l7-37h49l-7 37H50zM6 0l37-190h49L55 0H6" id="H"/><path d="M151-194c95 0 34 128 28 194h-49l25-134c0-29-45-25-59-9C67-111 69-48 56 0H6l36-190h47l-4 32c15-20 33-36 66-36" id="I"/><path d="M67-101c-8 29-7 73 27 71 23-2 32-16 39-37l48 9C170-19 141 4 91 4 36 4 7-28 12-86c6-75 61-124 140-103 26 7 40 29 43 59l-50 4c-1-20-9-34-29-34-35 0-41 29-49 59" id="J"/><g id="j"><use transform="matrix(0.0987654320987654,0,0,0.0987654320987654,0,0)" xlink:href="#y"/><use transform="matrix(0.0987654320987654,0,0,0.0987654320987654,23.703703703703695,0)" xlink:href="#E"/><use transform="matrix(0.0987654320987654,0,0,0.0987654320987654,43.45679012345677,0)" xlink:href="#F"/><use transform="matrix(0.0987654320987654,0,0,0.0987654320987654,57.28395061728393,0)" xlink:href="#G"/><use transform="matrix(0.0987654320987654,0,0,0.0987654320987654,77.03703703703701,0)" xlink:href="#H"/><use transform="matrix(0.0987654320987654,0,0,0.0987654320987654,86.91358024691355,0)" xlink:href="#G"/><use transform="matrix(0.0987654320987654,0,0,0.0987654320987654,106.66666666666663,0)" xlink:href="#D"/><use transform="matrix(0.0987654320987654,0,0,0.0987654320987654,118.41975308641972,0)" xlink:href="#E"/><use transform="matrix(0.0987654320987654,0,0,0.0987654320987654,138.1728395061728,0)" xlink:href="#I"/><use transform="matrix(0.0987654320987654,0,0,0.0987654320987654,159.80246913580243,0)" xlink:href="#J"/><use transform="matrix(0.0987654320987654,0,0,0.0987654320987654,179.55555555555551,0)" xlink:href="#E"/></g><path d="M93-157L62 0H13l31-157H16l6-33h28c2-54 40-81 100-68l-6 32c-29-8-44 9-45 36h38l-7 33H93" id="K"/><g id="k"><use transform="matrix(0.0987654320987654,0,0,0.0987654320987654,0,0)" xlink:href="#K"/><use transform="matrix(0.0987654320987654,0,0,0.0987654320987654,11.753086419753082,0)" xlink:href="#z"/><use transform="matrix(0.0987654320987654,0,0,0.0987654320987654,33.38271604938271,0)" xlink:href="#F"/></g><path d="M212 0l43-212L151 0h-37L90-212C82-137 65-70 52 0H6l48-248h70l20 187 93-187h69L258 0h-46" id="L"/><path d="M150-105c8-23 8-54-22-51-68 7-54 98-72 156H6l50-261h50L85-158c15-20 33-36 66-36 95 0 34 128 28 194h-49" id="M"/><g id="l"><use transform="matrix(0.0987654320987654,0,0,0.0987654320987654,0,0)" xlink:href="#L"/><use transform="matrix(0.0987654320987654,0,0,0.0987654320987654,29.530864197530853,0)" xlink:href="#z"/><use transform="matrix(0.0987654320987654,0,0,0.0987654320987654,51.16049382716048,0)" xlink:href="#I"/><use transform="matrix(0.0987654320987654,0,0,0.0987654320987654,72.7901234567901,0)" xlink:href="#z"/><use transform="matrix(0.0987654320987654,0,0,0.0987654320987654,94.41975308641972,0)" xlink:href="#A"/><use transform="matrix(0.0987654320987654,0,0,0.0987654320987654,104.29629629629626,0)" xlink:href="#H"/><use transform="matrix(0.0987654320987654,0,0,0.0987654320987654,114.1728395061728,0)" xlink:href="#D"/><use transform="matrix(0.0987654320987654,0,0,0.0987654320987654,125.92592592592591,0)" xlink:href="#M"/></g><path d="M137-103V0h-34v-103L8-248h37l75 118 75-118h37" id="N"/><use transform="matrix(0.07407407407407408,0,0,0.07407407407407408,0,0)" xlink:href="#N" id="m"/><linearGradient gradientUnits="userSpaceOnUse" id="n" x1="1060" y1="720" x2="1060" y2="579.25"><stop offset="19.93%" stop-color="#fff"/><stop offset="27.17%" stop-color="#cfe4ff"/><stop offset="68.12%" stop-color="#cfe4ff"/><stop offset="75%" stop-color="#c3f7c8"/></linearGradient><g id="o"><use transform="matrix(0.0987654320987654,0,0,0.0987654320987654,0,0)" xlink:href="#y"/><use transform="matrix(0.0987654320987654,0,0,0.0987654320987654,23.703703703703695,0)" xlink:href="#z"/><use transform="matrix(0.0987654320987654,0,0,0.0987654320987654,45.333333333333314,0)" xlink:href="#A"/><use transform="matrix(0.0987654320987654,0,0,0.0987654320987654,55.209876543209845,0)" xlink:href="#B"/><use transform="matrix(0.0987654320987654,0,0,0.0987654320987654,74.96296296296293,0)" xlink:href="#C"/><use transform="matrix(0.0987654320987654,0,0,0.0987654320987654,96.59259259259255,0)" xlink:href="#A"/><use transform="matrix(0.0987654320987654,0,0,0.0987654320987654,106.4691358024691,0)" xlink:href="#z"/><use transform="matrix(0.0987654320987654,0,0,0.0987654320987654,128.09876543209873,0)" xlink:href="#D"/></g><g id="p"><use transform="matrix(0.0987654320987654,0,0,0.0987654320987654,0,0)" xlink:href="#y"/><use transform="matrix(0.0987654320987654,0,0,0.0987654320987654,23.703703703703695,0)" xlink:href="#E"/><use transform="matrix(0.0987654320987654,0,0,0.0987654320987654,43.45679012345677,0)" xlink:href="#F"/><use transform="matrix(0.0987654320987654,0,0,0.0987654320987654,57.28395061728393,0)" xlink:href="#G"/><use transform="matrix(0.0987654320987654,0,0,0.0987654320987654,77.03703703703701,0)" xlink:href="#H"/><use transform="matrix(0.0987654320987654,0,0,0.0987654320987654,86.91358024691355,0)" xlink:href="#G"/><use transform="matrix(0.0987654320987654,0,0,0.0987654320987654,106.66666666666663,0)" xlink:href="#D"/><use transform="matrix(0.0987654320987654,0,0,0.0987654320987654,118.41975308641972,0)" xlink:href="#E"/><use transform="matrix(0.0987654320987654,0,0,0.0987654320987654,138.1728395061728,0)" xlink:href="#I"/><use transform="matrix(0.0987654320987654,0,0,0.0987654320987654,159.80246913580243,0)" xlink:href="#J"/><use transform="matrix(0.0987654320987654,0,0,0.0987654320987654,179.55555555555551,0)" xlink:href="#E"/></g><g id="q"><use transform="matrix(0.0987654320987654,0,0,0.0987654320987654,0,0)" xlink:href="#K"/><use transform="matrix(0.0987654320987654,0,0,0.0987654320987654,11.753086419753082,0)" xlink:href="#z"/><use transform="matrix(0.0987654320987654,0,0,0.0987654320987654,33.38271604938271,0)" xlink:href="#F"/></g><path d="M6 0l48-248h52L66-40h133l-8 40H6" id="O"/><path d="M166-52c-4 17 5 29 24 23l-3 27c-30 11-74 1-67-34C105-15 91 4 56 4 23 4 3-15 2-49c0-64 63-67 128-67 10-22 3-53-29-45-13 3-22 10-25 24l-46-5c5-64 156-77 153 0-1 33-11 60-17 90zM97-88c-44-9-64 57-19 57 31 0 42-28 47-57H97" id="P"/><g id="r"><use transform="matrix(0.0987654320987654,0,0,0.0987654320987654,0,0)" xlink:href="#O"/><use transform="matrix(0.0987654320987654,0,0,0.0987654320987654,21.629629629629623,0)" xlink:href="#P"/><use transform="matrix(0.0987654320987654,0,0,0.0987654320987654,41.3827160493827,0)" xlink:href="#B"/><use transform="matrix(0.0987654320987654,0,0,0.0987654320987654,61.13580246913578,0)" xlink:href="#E"/><use transform="matrix(0.0987654320987654,0,0,0.0987654320987654,80.88888888888886,0)" xlink:href="#F"/><use transform="matrix(0.0987654320987654,0,0,0.0987654320987654,94.71604938271601,0)" xlink:href="#G"/></g><path d="M178-136c88 48 22 151-73 140C49-3 12-15 4-64l51-9c1 50 111 53 115 3-16-63-132-20-133-112 0-93 190-91 199-10l-50 12c-4-41-93-50-97-4 7 38 59 32 89 48" id="Q"/><path d="M132-28C118-9 101 4 69 4 30 4 10-23 10-62c0-70 24-129 92-132 31-1 47 14 56 35l19-102h49L179 0h-49zM62-69c0 22 7 39 29 39 45-2 54-45 57-90 2-27-10-40-33-40-44 0-53 48-53 91" id="R"/><g id="s"><use transform="matrix(0.0987654320987654,0,0,0.0987654320987654,0,0)" xlink:href="#Q"/><use transform="matrix(0.0987654320987654,0,0,0.0987654320987654,23.703703703703695,0)" xlink:href="#M"/><use transform="matrix(0.0987654320987654,0,0,0.0987654320987654,45.333333333333314,0)" xlink:href="#P"/><use transform="matrix(0.0987654320987654,0,0,0.0987654320987654,65.08641975308639,0)" xlink:href="#F"/><use transform="matrix(0.0987654320987654,0,0,0.0987654320987654,78.91358024691354,0)" xlink:href="#R"/><use transform="matrix(0.0987654320987654,0,0,0.0987654320987654,100.54320987654316,0)" xlink:href="#G"/></g><path d="M109 0H50L19-190h51L86-37l77-153h54" id="S"/><g id="t"><use transform="matrix(0.0987654320987654,0,0,0.0987654320987654,0,0)" xlink:href="#Q"/><use transform="matrix(0.0987654320987654,0,0,0.0987654320987654,23.703703703703695,0)" xlink:href="#E"/><use transform="matrix(0.0987654320987654,0,0,0.0987654320987654,43.45679012345677,0)" xlink:href="#F"/><use transform="matrix(0.0987654320987654,0,0,0.0987654320987654,57.28395061728393,0)" xlink:href="#S"/><use transform="matrix(0.0987654320987654,0,0,0.0987654320987654,77.03703703703701,0)" xlink:href="#H"/><use transform="matrix(0.0987654320987654,0,0,0.0987654320987654,86.91358024691355,0)" xlink:href="#J"/><use transform="matrix(0.0987654320987654,0,0,0.0987654320987654,106.66666666666663,0)" xlink:href="#E"/><use transform="matrix(0.0987654320987654,0,0,0.0987654320987654,126.41975308641972,0)" xlink:href="#G"/></g><linearGradient gradientUnits="userSpaceOnUse" id="u" x1="1040" y1="741.5" x2="1040" y2="600"><stop offset="19.93%" stop-color="#fff"/><stop offset="27.17%" stop-color="#cfe4ff"/><stop offset="68.12%" stop-color="#cfe4ff"/><stop offset="75%" stop-color="#c3f7c8"/></linearGradient></defs></g></svg>