<svg xmlns="http://www.w3.org/2000/svg" xmlns:xlink="http://www.w3.org/1999/xlink" xmlns:lucid="lucid" width="1263" height="462.5"><g transform="translate(-98.5 -439)" lucid:page-tab-id="0_0"><path d="M1060 578.5a20 20 0 0 1 20-20h20a20 20 0 0 1 20 20v180a20 20 0 0 1-20 20h-20a20 20 0 0 1-20-20z" stroke="#000" stroke-width="3" fill="url(#a)"/><path d="M1180 578.5a20 20 0 0 1 20-20h20a20 20 0 0 1 20 20v180a20 20 0 0 1-20 20h-20a20 20 0 0 1-20-20z" stroke="#000" stroke-width="3" fill="url(#b)"/><path d="M1300 578.5a20 20 0 0 1 20-20h20a20 20 0 0 1 20 20v180a20 20 0 0 1-20 20h-20a20 20 0 0 1-20-20z" stroke="#000" stroke-width="3" fill="url(#c)"/><path d="M1164.34 670.5h-28.68M1164.34 666.5h-28.68M1159.18 658.5l17.32 10-17.32 10m17.32-10h-8.5M1140.82 678.5l-17.32-10 17.32-10m-17.32 10h8.5M1284.34 670.5h-28.68M1284.34 666.5h-28.68M1279.18 658.5l17.32 10-17.32 10m17.32-10h-8.5M1260.82 678.5l-17.32-10 17.32-10m-17.32 10h8.5" stroke="#000" stroke-width="2" fill="none"/><path d="M1060 498.83a19.67 19.67 0 0 1 19.67-19.66h260.66a19.67 19.67 0 0 1 19.67 19.66 19.67 19.67 0 0 1-19.67 19.67h-260.66a19.67 19.67 0 0 1-19.67-19.67z" stroke="#000" stroke-width="3" fill="#fff"/><use xlink:href="#d" transform="matrix(1,0,0,1,1065,484.1666666666666) translate(113.80438271604939 21.430555555555557)"/><path d="M1090.37 521l-.18 17.5" stroke="#000" stroke-width="2" fill="none"/><path d="M1091.34 521.03h-1.95V520h1.95z" stroke="#000" stroke-width=".05"/><path d="M1090.03 553.76l-4.5-14.3 9.28.1z" stroke="#000" stroke-width="2"/><path d="M1329.64 521l.17 17.5" stroke="#000" stroke-width="2" fill="none"/><path d="M1330.6 521.02h-1.94V520h1.94z" stroke="#000" stroke-width=".05"/><path d="M1329.97 553.76l-4.78-14.2 9.26-.1z" stroke="#000" stroke-width="2"/><path d="M1210 521v17.5" stroke="#000" stroke-width="2" fill="none"/><path d="M1210.97 521.03h-1.94V520h1.94z" stroke="#000" stroke-width=".05"/><path d="M1210 553.76l-4.63-14.26h9.27z" stroke="#000" stroke-width="2"/><path d="M1210 441v18.17M1210 441.03V440" stroke="#000" stroke-width="2" fill="none"/><path d="M1210 474.43l-4.63-14.26h9.27z" stroke="#000" stroke-width="2"/><path d="M100 580a20 20 0 0 1 20-20h160a20 20 0 0 1 20 20v180a20 20 0 0 1-20 20H120a20 20 0 0 1-20-20z" stroke="#000" stroke-width="3" fill="url(#e)"/><path d="M100 500.33a19.67 19.67 0 0 1 19.67-19.66h160.66A19.67 19.67 0 0 1 300 500.33 19.67 19.67 0 0 1 280.33 520H119.67A19.67 19.67 0 0 1 100 500.33z" stroke="#000" stroke-width="3" fill="#fff"/><use xlink:href="#d" transform="matrix(1,0,0,1,105,485.66661666668534) translate(63.80438271604938 21.430555555555557)"/><path d="M200 522.5V540" stroke="#000" stroke-width="2" fill="none"/><path d="M200.97 522.53h-1.94v-1.03h1.94z" stroke="#000" stroke-width=".05"/><path d="M200 555.26L195.37 541h9.26z" stroke="#000" stroke-width="2"/><path d="M200 441v19.67M200 441.03V440" stroke="#000" stroke-width="2" fill="none"/><path d="M200 475.93l-4.63-14.26h9.26z" stroke="#000" stroke-width="2"/><path d="M460 580a20 20 0 0 1 20-20h120a20 20 0 0 1 20 20v140a20 20 0 0 1-20 20H480a20 20 0 0 1-20-20z" stroke="#000" stroke-width="3" fill="url(#f)"/><path d="M420 500.33a19.67 19.67 0 0 1 19.67-19.66h160.66A19.67 19.67 0 0 1 620 500.33 19.67 19.67 0 0 1 600.33 520H439.67A19.67 19.67 0 0 1 420 500.33z" stroke="#000" stroke-width="3" fill="#fff"/><use xlink:href="#d" transform="matrix(1,0,0,1,425,485.66661666668534) translate(63.80438271604938 21.430555555555557)"/><path d="M520 522.5V560" stroke="#000" stroke-width="2" fill="none"/><path d="M520.98 522.53H519v-1.03H521z" stroke="#000" stroke-width=".05"/><path d="M520 575.26L515.37 561h9.26z" stroke="#000" stroke-width="2"/><path d="M520 442.5v18.17M520 442.53v-1.03" stroke="#000" stroke-width="2" fill="none"/><path d="M520 475.93l-4.63-14.26h9.26z" stroke="#000" stroke-width="2"/><path d="M440 600a20 20 0 0 1 20-20h120a20 20 0 0 1 20 20v140a20 20 0 0 1-20 20H460a20 20 0 0 1-20-20z" stroke="#000" stroke-width="3" fill="url(#g)"/><path d="M420 620a20 20 0 0 1 20-20h120a20 20 0 0 1 20 20v140a20 20 0 0 1-20 20H440a20 20 0 0 1-20-20z" stroke="#000" stroke-width="3" fill="url(#h)"/><path d="M539.94 522.5l.03 17.5" stroke="#000" stroke-width="2" fill="none"/><path d="M540.9 522.52h-1.94v-1.02h1.95z" stroke="#000" stroke-width=".05"/><path d="M540 555.26L535.34 541h9.27z" stroke="#000" stroke-width="2"/><path d="M500.06 522.5L500 580" stroke="#000" stroke-width="2" fill="none"/><path d="M501.04 522.53h-1.95v-1.03h1.94z" stroke="#000" stroke-width=".05"/><path d="M500 595.26L495.38 581h9.27z" stroke="#000" stroke-width="2"/><path d="M740 760a20 20 0 0 1 20-20h160a20 20 0 0 1 20 20 20 20 0 0 1-20 20H760a20 20 0 0 1-20-20z" stroke="#000" stroke-width="3" fill="#ced4db"/><path d="M740 660a20 20 0 0 1 20-20h160a20 20 0 0 1 20 20v20a20 20 0 0 1-20 20H760a20 20 0 0 1-20-20z" stroke="#000" stroke-width="3" fill="url(#i)"/><path d="M740 580a20 20 0 0 1 20-20h160a20 20 0 0 1 20 20 20 20 0 0 1-20 20H760a20 20 0 0 1-20-20z" stroke="#000" stroke-width="3" fill="#c3f7c8"/><path d="M840 720v-17.5" stroke="#000" stroke-width="2" fill="none"/><path d="M840 735.26L835.37 721h9.26z" stroke="#000" stroke-width="2"/><path d="M840.98 702.53H839v-1.03H841z" stroke="#000" stroke-width=".05"/><path d="M840 620v-17.5" stroke="#000" stroke-width="2" fill="none"/><path d="M840 635.26L835.37 621h9.26z" stroke="#000" stroke-width="2"/><path d="M840.98 602.53H839v-1.03H841z" stroke="#000" stroke-width=".05"/><path d="M740 500.33a19.67 19.67 0 0 1 19.67-19.66h160.66A19.67 19.67 0 0 1 940 500.33 19.67 19.67 0 0 1 920.33 520H759.67A19.67 19.67 0 0 1 740 500.33z" stroke="#000" stroke-width="3" fill="#fff"/><use xlink:href="#d" transform="matrix(1,0,0,1,745,485.66661666668534) translate(63.80438271604938 21.430555555555557)"/><path d="M840 522.5V540" stroke="#000" stroke-width="2" fill="none"/><path d="M840.98 522.53H839v-1.03H841z" stroke="#000" stroke-width=".05"/><path d="M840 555.26L835.37 541h9.26z" stroke="#000" stroke-width="2"/><path d="M840 441v19.67M840 441.03V440" stroke="#000" stroke-width="2" fill="none"/><path d="M840 475.93l-4.63-14.26h9.26z" stroke="#000" stroke-width="2"/><path d="M100 806a6 6 0 0 1 6-6h188a6 6 0 0 1 6 6v88a6 6 0 0 1-6 6H106a6 6 0 0 1-6-6z" stroke="#000" stroke-opacity="0" stroke-width="3" fill="#fff" fill-opacity="0"/><use xlink:href="#j" transform="matrix(1,0,0,1,105,805) translate(17.123456790123484 31.256944444444436)"/><use xlink:href="#k" transform="matrix(1,0,0,1,105,805) translate(125.66666666666666 31.256944444444436)"/><use xlink:href="#l" transform="matrix(1,0,0,1,105,805) translate(21.222222222222243 73.92361111111109)"/><path d="M420 806a6 6 0 0 1 6-6h188a6 6 0 0 1 6 6v88a6 6 0 0 1-6 6H426a6 6 0 0 1-6-6z" stroke="#000" stroke-opacity="0" stroke-width="3" fill="#fff" fill-opacity="0"/><use xlink:href="#j" transform="matrix(1,0,0,1,425,805.0000000000001) translate(17.123456790123484 31.256944444444436)"/><use xlink:href="#k" transform="matrix(1,0,0,1,425,805.0000000000001) translate(125.66666666666666 31.256944444444436)"/><use xlink:href="#m" transform="matrix(1,0,0,1,425,805.0000000000001) translate(34.85185185185188 73.92361111111109)"/><path d="M740 806a6 6 0 0 1 6-6h188a6 6 0 0 1 6 6v88a6 6 0 0 1-6 6H746a6 6 0 0 1-6-6z" stroke="#000" stroke-opacity="0" stroke-width="3" fill="#fff" fill-opacity="0"/><g><use xlink:href="#j" transform="matrix(1,0,0,1,745,805) translate(17.123456790123484 31.256944444444436)"/><use xlink:href="#k" transform="matrix(1,0,0,1,745,805) translate(125.66666666666666 31.256944444444436)"/><use xlink:href="#n" transform="matrix(1,0,0,1,745,805) translate(37.76543209876546 73.92361111111109)"/></g><path d="M1060 806a6 6 0 0 1 6-6h288a6 6 0 0 1 6 6v88a6 6 0 0 1-6 6h-288a6 6 0 0 1-6-6z" stroke="#000" stroke-opacity="0" stroke-width="3" fill="#fff" fill-opacity="0"/><g><use xlink:href="#j" transform="matrix(1,0,0,1,1065,805.0000000000002) translate(67.12345679012348 31.256944444444436)"/><use xlink:href="#k" transform="matrix(1,0,0,1,1065,805.0000000000002) translate(175.66666666666666 31.256944444444436)"/><use xlink:href="#o" transform="matrix(1,0,0,1,1065,805.0000000000002) translate(71.91358024691361 73.92361111111109)"/></g><defs><linearGradient gradientUnits="userSpaceOnUse" id="a" x1="1060" y1="778.5" x2="1060" y2="558.5"><stop offset="19.2%" stop-color="#ced4db"/><stop offset="26.45%" stop-color="#fff"/><stop offset="45.29%" stop-color="#fff"/><stop offset="52.54%" stop-color="#cfe4ff"/><stop offset="73.91%" stop-color="#cfe4ff"/><stop offset="82.97%" stop-color="#c3f7c8"/></linearGradient><linearGradient gradientUnits="userSpaceOnUse" id="b" x1="1180" y1="778.5" x2="1180" y2="558.5"><stop offset="19.2%" stop-color="#ced4db"/><stop offset="26.45%" stop-color="#fff"/><stop offset="45.29%" stop-color="#fff"/><stop offset="52.54%" stop-color="#cfe4ff"/><stop offset="73.91%" stop-color="#cfe4ff"/><stop offset="82.97%" stop-color="#c3f7c8"/></linearGradient><linearGradient gradientUnits="userSpaceOnUse" id="c" x1="1300" y1="778.5" x2="1300" y2="558.5"><stop offset="19.2%" stop-color="#ced4db"/><stop offset="26.45%" stop-color="#fff"/><stop offset="45.29%" stop-color="#fff"/><stop offset="52.54%" stop-color="#cfe4ff"/><stop offset="73.91%" stop-color="#cfe4ff"/><stop offset="82.97%" stop-color="#c3f7c8"/></linearGradient><path d="M30-248c87 1 191-15 191 75 0 78-77 80-158 76V0H30v-248zm33 125c57 0 124 11 124-50 0-59-68-47-124-48v98" id="p"/><path d="M114-163C36-179 61-72 57 0H25l-1-190h30c1 12-1 29 2 39 6-27 23-49 58-41v29" id="q"/><path d="M100-194c62-1 85 37 85 99 1 63-27 99-86 99S16-35 15-95c0-66 28-99 85-99zM99-20c44 1 53-31 53-75 0-43-8-75-51-75s-53 32-53 75 10 74 51 75" id="r"/><path d="M141 0L90-78 38 0H4l68-98-65-92h35l48 74 47-74h35l-64 92 68 98h-35" id="s"/><path d="M179-190L93 31C79 59 56 82 12 73V49c39 6 53-20 64-50L1-190h34L92-34l54-156h33" id="t"/><g id="d"><use transform="matrix(0.06790123456790124,0,0,0.06790123456790124,0,0)" xlink:href="#p"/><use transform="matrix(0.06790123456790124,0,0,0.06790123456790124,16.296296296296298,0)" xlink:href="#q"/><use transform="matrix(0.06790123456790124,0,0,0.06790123456790124,24.376543209876544,0)" xlink:href="#r"/><use transform="matrix(0.06790123456790124,0,0,0.06790123456790124,37.95679012345679,0)" xlink:href="#s"/><use transform="matrix(0.06790123456790124,0,0,0.06790123456790124,50.17901234567901,0)" xlink:href="#t"/></g><linearGradient gradientUnits="userSpaceOnUse" id="e" x1="100" y1="780" x2="100" y2="560"><stop offset="19.2%" stop-color="#ced4db"/><stop offset="26.45%" stop-color="#fff"/><stop offset="45.29%" stop-color="#fff"/><stop offset="52.54%" stop-color="#cfe4ff"/><stop offset="73.91%" stop-color="#cfe4ff"/><stop offset="82.97%" stop-color="#c3f7c8"/></linearGradient><linearGradient gradientUnits="userSpaceOnUse" id="f" x1="460" y1="740" x2="460" y2="560"><stop offset="19.2%" stop-color="#ced4db"/><stop offset="26.45%" stop-color="#fff"/><stop offset="45.29%" stop-color="#fff"/><stop offset="52.54%" stop-color="#cfe4ff"/><stop offset="73.91%" stop-color="#cfe4ff"/><stop offset="82.97%" stop-color="#c3f7c8"/></linearGradient><linearGradient gradientUnits="userSpaceOnUse" id="g" x1="440" y1="760" x2="440" y2="580"><stop offset="19.2%" stop-color="#ced4db"/><stop offset="26.45%" stop-color="#fff"/><stop offset="45.29%" stop-color="#fff"/><stop offset="52.54%" stop-color="#cfe4ff"/><stop offset="73.91%" stop-color="#cfe4ff"/><stop offset="82.97%" stop-color="#c3f7c8"/></linearGradient><linearGradient gradientUnits="userSpaceOnUse" id="h" x1="420" y1="780" x2="420" y2="600"><stop offset="19.2%" stop-color="#ced4db"/><stop offset="26.45%" stop-color="#fff"/><stop offset="45.29%" stop-color="#fff"/><stop offset="52.54%" stop-color="#cfe4ff"/><stop offset="73.91%" stop-color="#cfe4ff"/><stop offset="82.97%" stop-color="#c3f7c8"/></linearGradient><linearGradient gradientUnits="userSpaceOnUse" id="i" x1="740" y1="700" x2="740" y2="640"><stop offset="18.48%" stop-color="#fff"/><stop offset="24.28%" stop-color="#cfe4ff"/></linearGradient><path d="M241-173c-1 82-78 91-166 86L58 0H6l48-248c87 0 188-12 187 75zm-53 2c0-43-48-36-90-36l-15 80c50 0 105 7 105-44" id="u"/><path d="M84-151c13-25 34-51 72-40l-8 41C67-170 71-64 56 0H6l36-190h47" id="v"/><path d="M124-194c51 0 84 22 84 74C207-44 167 4 94 4 43 4 11-23 11-74c0-74 41-120 113-120zM99-30c46 0 58-42 58-86 0-27-11-44-37-44-44 0-55 40-57 84-1 27 10 45 36 46" id="w"/><path d="M127 0L95-67 37 0h-53l89-99-49-91h52l30 61 52-61h54l-85 92 52 98h-52" id="x"/><path d="M100 10C77 47 50 87-15 72l7-35c37 9 51-18 65-41L20-190h51L89-44l73-146h53" id="y"/><g id="j"><use transform="matrix(0.0987654320987654,0,0,0.0987654320987654,0,0)" xlink:href="#u"/><use transform="matrix(0.0987654320987654,0,0,0.0987654320987654,23.703703703703695,0)" xlink:href="#v"/><use transform="matrix(0.0987654320987654,0,0,0.0987654320987654,37.53086419753085,0)" xlink:href="#w"/><use transform="matrix(0.0987654320987654,0,0,0.0987654320987654,59.16049382716047,0)" xlink:href="#x"/><use transform="matrix(0.0987654320987654,0,0,0.0987654320987654,78.91358024691355,0)" xlink:href="#y"/></g><path d="M93-157L62 0H13l31-157H16l6-33h28c2-54 40-81 100-68l-6 32c-29-8-44 9-45 36h38l-7 33H93" id="z"/><g id="k"><use transform="matrix(0.0987654320987654,0,0,0.0987654320987654,0,0)" xlink:href="#z"/><use transform="matrix(0.0987654320987654,0,0,0.0987654320987654,11.753086419753082,0)" xlink:href="#w"/><use transform="matrix(0.0987654320987654,0,0,0.0987654320987654,33.38271604938271,0)" xlink:href="#v"/></g><path d="M212 0l43-212L151 0h-37L90-212C82-137 65-70 52 0H6l48-248h70l20 187 93-187h69L258 0h-46" id="A"/><path d="M151-194c95 0 34 128 28 194h-49l25-134c0-29-45-25-59-9C67-111 69-48 56 0H6l36-190h47l-4 32c15-20 33-36 66-36" id="B"/><path d="M6 0l51-261h49L55 0H6" id="C"/><path d="M50-224l7-37h49l-7 37H50zM6 0l37-190h49L55 0H6" id="D"/><path d="M72-63c-8 23 5 39 32 30L98-1C54 14 12-6 23-64l18-93H15l7-33h28l24-45h31l-8 45h35l-6 33H90" id="E"/><path d="M150-105c8-23 8-54-22-51-68 7-54 98-72 156H6l50-261h50L85-158c15-20 33-36 66-36 95 0 34 128 28 194h-49" id="F"/><g id="l"><use transform="matrix(0.0987654320987654,0,0,0.0987654320987654,0,0)" xlink:href="#A"/><use transform="matrix(0.0987654320987654,0,0,0.0987654320987654,29.530864197530853,0)" xlink:href="#w"/><use transform="matrix(0.0987654320987654,0,0,0.0987654320987654,51.16049382716048,0)" xlink:href="#B"/><use transform="matrix(0.0987654320987654,0,0,0.0987654320987654,72.7901234567901,0)" xlink:href="#w"/><use transform="matrix(0.0987654320987654,0,0,0.0987654320987654,94.41975308641972,0)" xlink:href="#C"/><use transform="matrix(0.0987654320987654,0,0,0.0987654320987654,104.29629629629626,0)" xlink:href="#D"/><use transform="matrix(0.0987654320987654,0,0,0.0987654320987654,114.1728395061728,0)" xlink:href="#E"/><use transform="matrix(0.0987654320987654,0,0,0.0987654320987654,125.92592592592591,0)" xlink:href="#F"/></g><path d="M178-136c88 48 22 151-73 140C49-3 12-15 4-64l51-9c1 50 111 53 115 3-16-63-132-20-133-112 0-93 190-91 199-10l-50 12c-4-41-93-50-97-4 7 38 59 32 89 48" id="G"/><path d="M166-52c-4 17 5 29 24 23l-3 27c-30 11-74 1-67-34C105-15 91 4 56 4 23 4 3-15 2-49c0-64 63-67 128-67 10-22 3-53-29-45-13 3-22 10-25 24l-46-5c5-64 156-77 153 0-1 33-11 60-17 90zM97-88c-44-9-64 57-19 57 31 0 42-28 47-57H97" id="H"/><path d="M132-28C118-9 101 4 69 4 30 4 10-23 10-62c0-70 24-129 92-132 31-1 47 14 56 35l19-102h49L179 0h-49zM62-69c0 22 7 39 29 39 45-2 54-45 57-90 2-27-10-40-33-40-44 0-53 48-53 91" id="I"/><path d="M144-137c-1-29-70-35-71-2 16 41 103 10 103 80C176 9 79 16 32-9 18-17 9-31 4-48l44-6c3 32 80 36 82 1-15-42-103-11-103-82 0-77 157-79 161-8" id="J"/><g id="m"><use transform="matrix(0.0987654320987654,0,0,0.0987654320987654,0,0)" xlink:href="#G"/><use transform="matrix(0.0987654320987654,0,0,0.0987654320987654,23.703703703703695,0)" xlink:href="#F"/><use transform="matrix(0.0987654320987654,0,0,0.0987654320987654,45.333333333333314,0)" xlink:href="#H"/><use transform="matrix(0.0987654320987654,0,0,0.0987654320987654,65.08641975308639,0)" xlink:href="#v"/><use transform="matrix(0.0987654320987654,0,0,0.0987654320987654,78.91358024691354,0)" xlink:href="#I"/><use transform="matrix(0.0987654320987654,0,0,0.0987654320987654,100.54320987654316,0)" xlink:href="#J"/></g><path d="M6 0l48-248h52L66-40h133l-8 40H6" id="K"/><path d="M114-194c63-2 87 48 72 110H63c-3 28 1 55 31 54 21-1 32-13 37-29l44 13C160-14 137 4 91 4 41 4 11-22 11-73c0-71 33-119 103-121zm30 77c14-47-50-61-67-22-3 6-6 13-8 22h75" id="L"/><g id="n"><use transform="matrix(0.0987654320987654,0,0,0.0987654320987654,0,0)" xlink:href="#K"/><use transform="matrix(0.0987654320987654,0,0,0.0987654320987654,21.629629629629623,0)" xlink:href="#H"/><use transform="matrix(0.0987654320987654,0,0,0.0987654320987654,41.3827160493827,0)" xlink:href="#y"/><use transform="matrix(0.0987654320987654,0,0,0.0987654320987654,61.13580246913578,0)" xlink:href="#L"/><use transform="matrix(0.0987654320987654,0,0,0.0987654320987654,80.88888888888886,0)" xlink:href="#v"/><use transform="matrix(0.0987654320987654,0,0,0.0987654320987654,94.71604938271601,0)" xlink:href="#J"/></g><path d="M109 0H50L19-190h51L86-37l77-153h54" id="M"/><path d="M67-101c-8 29-7 73 27 71 23-2 32-16 39-37l48 9C170-19 141 4 91 4 36 4 7-28 12-86c6-75 61-124 140-103 26 7 40 29 43 59l-50 4c-1-20-9-34-29-34-35 0-41 29-49 59" id="N"/><g id="o"><use transform="matrix(0.0987654320987654,0,0,0.0987654320987654,0,0)" xlink:href="#G"/><use transform="matrix(0.0987654320987654,0,0,0.0987654320987654,23.703703703703695,0)" xlink:href="#L"/><use transform="matrix(0.0987654320987654,0,0,0.0987654320987654,43.45679012345677,0)" xlink:href="#v"/><use transform="matrix(0.0987654320987654,0,0,0.0987654320987654,57.28395061728393,0)" xlink:href="#M"/><use transform="matrix(0.0987654320987654,0,0,0.0987654320987654,77.03703703703701,0)" xlink:href="#D"/><use transform="matrix(0.0987654320987654,0,0,0.0987654320987654,86.91358024691355,0)" xlink:href="#N"/><use transform="matrix(0.0987654320987654,0,0,0.0987654320987654,106.66666666666663,0)" xlink:href="#L"/><use transform="matrix(0.0987654320987654,0,0,0.0987654320987654,126.41975308641972,0)" xlink:href="#J"/></g></defs></g></svg>