<svg xmlns="http://www.w3.org/2000/svg" xmlns:xlink="http://www.w3.org/1999/xlink" xmlns:lucid="lucid" width="1643.01" height="422.17"><g transform="translate(-98.49277009772845 -499.33464566929115)" lucid:page-tab-id="0_0"><path d="M360 700a20 20 0 0 1 20-20h200a20 20 0 0 1 20 20 20 20 0 0 1-20 20H380a20 20 0 0 1-20-20z" stroke="#000" stroke-width="3" fill="#fff"/><use xlink:href="#a" transform="matrix(1,0,0,1,365,685) translate(36.56055555555556 23.208333333333332)"/><use xlink:href="#b" transform="matrix(1,0,0,1,365,685) translate(129.81981481481483 23.208333333333332)"/><path d="M730 722.5V740" stroke="#000" stroke-width="2" fill="none"/><path d="M730.98 722.53H729v-1.03H731z" stroke="#000" stroke-width=".05"/><path d="M730 755.26L725.35 741h9.27z" stroke="#000" stroke-width="2"/><path d="M700 620a20 20 0 0 1 20-20h20a20 20 0 0 1 20 20v80a20 20 0 0 1-20 20h-20a20 20 0 0 1-20-20z" stroke="#000" stroke-width="3" fill="url(#c)"/><use xlink:href="#d" transform="matrix(1,0,0,1,705,605) translate(16.11111111111111 59.14583333333333)"/><path d="M700 780a20 20 0 0 1 20-20h200a20 20 0 0 1 20 20 20 20 0 0 1-20 20H720a20 20 0 0 1-20-20z" stroke="#000" stroke-width="3" fill="#ced4db"/><use xlink:href="#e" transform="matrix(1,0,0,1,704.9927700977285,765) translate(86.8938888888889 23.208333333333332)"/><path d="M700.3 520.84a20 20 0 0 1 20-20h200a20 20 0 0 1 20 20V540a20 20 0 0 1-20 20h-200a20 20 0 0 1-20-20z" stroke="#000" stroke-width="3" fill="url(#f)"/><use xlink:href="#g" transform="matrix(1,0,0,1,705.2986069672677,505.83464566929115) translate(49.925925925925924 30.708333333333336)"/><path d="M730 562.5V580" stroke="#000" stroke-width="2" fill="none"/><path d="M730.98 562.53H729v-1.03H731z" stroke="#000" stroke-width=".05"/><path d="M730 595.26L725.37 581h9.26z" stroke="#000" stroke-width="2"/><path d="M790 620a20 20 0 0 1 20-20h20a20 20 0 0 1 20 20v80a20 20 0 0 1-20 20h-20a20 20 0 0 1-20-20z" stroke="#000" stroke-width="3" fill="url(#h)"/><use xlink:href="#i" transform="matrix(1,0,0,1,795,605.0000000000001) translate(16.11111111111111 59.14583333333333)"/><path d="M880 620a20 20 0 0 1 20-20h20a20 20 0 0 1 20 20v80a20 20 0 0 1-20 20h-20a20 20 0 0 1-20-20z" stroke="#000" stroke-width="3" fill="url(#j)"/><use xlink:href="#k" transform="matrix(1,0,0,1,885,605.0000000000001) translate(15.407407407407408 59.14583333333333)"/><path d="M820.3 562.5l-.15 17.5" stroke="#000" stroke-width="2" fill="none"/><path d="M821.26 562.53h-1.94v-1.03h1.95z" stroke="#000" stroke-width=".05"/><path d="M820.03 595.26l-4.52-14.3 9.28.08z" stroke="#000" stroke-width="2"/><path d="M910 562.5V580" stroke="#000" stroke-width="2" fill="none"/><path d="M910.98 562.53H909v-1.03H911z" stroke="#000" stroke-width=".05"/><path d="M910 595.26L905.37 581h9.26z" stroke="#000" stroke-width="2"/><path d="M821 722.5V740" stroke="#000" stroke-width="2" fill="none"/><path d="M821.96 722.53H820v-1.03h1.96z" stroke="#000" stroke-width=".05"/><path d="M821 755.26L816.35 741h9.27z" stroke="#000" stroke-width="2"/><path d="M910 722.5V740" stroke="#000" stroke-width="2" fill="none"/><path d="M910.98 722.53H909v-1.03H911z" stroke="#000" stroke-width=".05"/><path d="M910 755.26L905.35 741h9.27z" stroke="#000" stroke-width="2"/><path d="M390 682.5V740" stroke="#000" stroke-width="2" fill="none"/><path d="M390.98 682.53h-1.96v-1.03h1.96z" stroke="#000" stroke-width=".05"/><path d="M390 755.26L385.36 741h9.27z" stroke="#000" stroke-width="2"/><path d="M360 620a20 20 0 0 1 20-20h20a20 20 0 0 1 20 20v40a20 20 0 0 1-20 20h-20a20 20 0 0 1-20-20z" stroke="#000" stroke-width="3" fill="#cfe4ff"/><use xlink:href="#d" transform="matrix(1,0,0,1,365,605.0000000000002) translate(16.11111111111111 41.02083333333333)"/><path d="M360 780a20 20 0 0 1 20-20h200a20 20 0 0 1 20 20 20 20 0 0 1-20 20H380a20 20 0 0 1-20-20z" stroke="#000" stroke-width="3" fill="#ced4db"/><use xlink:href="#e" transform="matrix(1,0,0,1,365,765) translate(86.8938888888889 23.208333333333332)"/><path d="M360 520.84a20 20 0 0 1 20-20h200a20 20 0 0 1 20 20V540a20 20 0 0 1-20 20H380a20 20 0 0 1-20-20z" stroke="#000" stroke-width="3" fill="url(#l)"/><use xlink:href="#g" transform="matrix(1,0,0,1,365,505.83464566929115) translate(49.925925925925924 30.708333333333336)"/><path d="M390 562.5V580" stroke="#000" stroke-width="2" fill="none"/><path d="M390.98 562.53h-1.96v-1.03h1.96z" stroke="#000" stroke-width=".05"/><path d="M390 595.26L385.37 581h9.26z" stroke="#000" stroke-width="2"/><path d="M450 620a20 20 0 0 1 20-20h20a20 20 0 0 1 20 20v40a20 20 0 0 1-20 20h-20a20 20 0 0 1-20-20z" stroke="#000" stroke-width="3" fill="#cfe4ff"/><use xlink:href="#i" transform="matrix(1,0,0,1,455,605.0000000000002) translate(16.11111111111111 41.02083333333333)"/><path d="M540 620a20 20 0 0 1 20-20h20a20 20 0 0 1 20 20v40a20 20 0 0 1-20 20h-20a20 20 0 0 1-20-20z" stroke="#000" stroke-width="3" fill="#cfe4ff"/><use xlink:href="#k" transform="matrix(1,0,0,1,545,605.0000000000002) translate(15.407407407407408 41.02083333333333)"/><path d="M480 562.5V580" stroke="#000" stroke-width="2" fill="none"/><path d="M480.98 562.53h-1.96v-1.03h1.96z" stroke="#000" stroke-width=".05"/><path d="M480 595.26L475.37 581h9.26z" stroke="#000" stroke-width="2"/><path d="M570 562.5V580" stroke="#000" stroke-width="2" fill="none"/><path d="M570.98 562.53H569v-1.03H571z" stroke="#000" stroke-width=".05"/><path d="M570 595.26L565.37 581h9.26z" stroke="#000" stroke-width="2"/><path d="M481 682.5V740" stroke="#000" stroke-width="2" fill="none"/><path d="M481.98 682.53h-1.96v-1.03h1.96z" stroke="#000" stroke-width=".05"/><path d="M481 755.26L476.37 741h9.26z" stroke="#000" stroke-width="2"/><path d="M570 682.5V740" stroke="#000" stroke-width="2" fill="none"/><path d="M570.98 682.53H569v-1.03H571z" stroke="#000" stroke-width=".05"/><path d="M570 755.26L565.37 741h9.26z" stroke="#000" stroke-width="2"/><path d="M1070 722.5V740" stroke="#000" stroke-width="2" fill="none"/><path d="M1070.96 722.53H1069v-1.03h1.96z" stroke="#000" stroke-width=".05"/><path d="M1070 755.26l-4.65-14.26h9.27z" stroke="#000" stroke-width="2"/><path d="M1040 601a20 20 0 0 1 20-20h20a20 20 0 0 1 20 20v99a20 20 0 0 1-20 20h-20a20 20 0 0 1-20-20z" stroke="#000" stroke-width="3" fill="url(#m)"/><use xlink:href="#n" transform="matrix(-1.8369701987210297e-16,-1,1,-1.8369701987210297e-16,1044.985540195457,715.0000000000001) translate(7.537037037037038 30.708333333333332)"/><use xlink:href="#o" transform="matrix(-1.8369701987210297e-16,-1,1,-1.8369701987210297e-16,1044.985540195457,715.0000000000001) translate(103.68518518518518 30.708333333333332)"/><path d="M1040 780a20 20 0 0 1 20-20h260a20 20 0 0 1 20 20 20 20 0 0 1-20 20h-260a20 20 0 0 1-20-20z" stroke="#000" stroke-width="3" fill="#ced4db"/><use xlink:href="#a" transform="matrix(1,0,0,1,1044.9859378716317,765) translate(34.7827777777778 23.208333333333332)"/><use xlink:href="#p" transform="matrix(1,0,0,1,1044.9859378716317,765) translate(128.04203703703706 23.208333333333332)"/><path d="M1160 600a20 20 0 0 1 20-20h20a20 20 0 0 1 20 20v100a20 20 0 0 1-20 20h-20a20 20 0 0 1-20-20z" stroke="#000" stroke-width="3" fill="url(#q)"/><use xlink:href="#n" transform="matrix(-1.8369701987210297e-16,-1,1,-1.8369701987210297e-16,1164.985540195457,714.9999999999998) translate(8.037037037037038 30.708333333333332)"/><use xlink:href="#r" transform="matrix(-1.8369701987210297e-16,-1,1,-1.8369701987210297e-16,1164.985540195457,714.9999999999998) translate(104.18518518518518 30.708333333333332)"/><path d="M1280 600a20 20 0 0 1 20-20h20a20 20 0 0 1 20 20v100a20 20 0 0 1-20 20h-20a20 20 0 0 1-20-20z" stroke="#000" stroke-width="3" fill="url(#s)"/><use xlink:href="#n" transform="matrix(-1.8369701987210297e-16,-1,1,-1.8369701987210297e-16,1284.985540195457,714.9999999999998) translate(7.333333333333343 30.708333333333332)"/><use xlink:href="#t" transform="matrix(-1.8369701987210297e-16,-1,1,-1.8369701987210297e-16,1284.985540195457,714.9999999999998) translate(103.48148148148148 30.708333333333332)"/><path d="M1190.98 722.5l.12 17.5" stroke="#000" stroke-width="2" fill="none"/><path d="M1191.95 722.52H1190v-1.02h1.94z" stroke="#000" stroke-width=".05"/><path d="M1191.2 755.26l-4.73-14.23 9.27-.06z" stroke="#000" stroke-width="2"/><path d="M1310 722.5V740" stroke="#000" stroke-width="2" fill="none"/><path d="M1310.96 722.53H1309v-1.03h1.96z" stroke="#000" stroke-width=".05"/><path d="M1310 755.26l-4.65-14.26h9.27z" stroke="#000" stroke-width="2"/><path d="M1235.65 648h9.56m9.57 0h9.56M1235.65 652h9.56m9.57 0h9.56M1240.8 660l-17.3-10 17.3-10m-17.3 10h8.5M1259.16 640l17.33 10-17.34 10m17.33-10h-8.5M1115.63 648.38l9.56-.1m9.55-.07l9.56-.08M1115.66 652.38l9.56-.1m9.56-.07l9.56-.08M1120.9 660.33l-17.42-9.85 17.24-10.15m-17.24 10.15l8.5-.07M1139.08 640.17l17.4 9.85-17.23 10.15m17.24-10.15l-8.5.07" stroke="#000" stroke-width="2" fill="none"/><path d="M100 780a20 20 0 0 1 20-20h118.67a20 20 0 0 1 20 20 20 20 0 0 1-20 20H120a20 20 0 0 1-20-20z" stroke="#000" stroke-width="3" fill="#ced4db"/><use xlink:href="#e" transform="matrix(1,0,0,1,105.00722990227155,765) translate(45.89388888888889 23.208333333333332)"/><path d="M100 520.84a20 20 0 0 1 20-20h120a20 20 0 0 1 20 20V540a20 20 0 0 1-20 20H120a20 20 0 0 1-20-20z" stroke="#000" stroke-width="3" fill="url(#u)"/><use xlink:href="#g" transform="matrix(1,0,0,1,105.00722990227155,505.83464566929115) translate(10.425925925925924 30.708333333333336)"/><path d="M100 620a20 20 0 0 1 20-20h120a20 20 0 0 1 20 20v80a20 20 0 0 1-20 20H120a20 20 0 0 1-20-20z" stroke="#000" stroke-width="3" fill="url(#v)"/><use xlink:href="#w" transform="matrix(1,0,0,1,105,605.0000000000001) translate(29.68518518518519 59.14583333333333)"/><path d="M180 562.5V580" stroke="#000" stroke-width="2" fill="none"/><path d="M181 562.53h-1.96v-1.03H181z" stroke="#000" stroke-width=".05"/><path d="M180 595.26L175.37 581h9.27z" stroke="#000" stroke-width="2"/><path d="M180 722.5V740" stroke="#000" stroke-width="2" fill="none"/><path d="M180.98 722.53h-1.95v-1.03h1.95z" stroke="#000" stroke-width=".05"/><path d="M180 755.26L175.37 741h9.27z" stroke="#000" stroke-width="2"/><path d="M1440 600a20 20 0 0 1 20-20h20a20 20 0 0 1 20 20v180a20 20 0 0 1-20 20h-20a20 20 0 0 1-20-20z" stroke="#000" stroke-width="3" fill="url(#x)"/><use xlink:href="#n" transform="matrix(-1.8369701987210297e-16,-1,1,-1.8369701987210297e-16,1445,794.9999999999998) translate(48.03703703703704 30.708333333333332)"/><use xlink:href="#o" transform="matrix(-1.8369701987210297e-16,-1,1,-1.8369701987210297e-16,1445,794.9999999999998) translate(144.18518518518516 30.708333333333332)"/><path d="M1560 600a20 20 0 0 1 20-20h20a20 20 0 0 1 20 20v180a20 20 0 0 1-20 20h-20a20 20 0 0 1-20-20z" stroke="#000" stroke-width="3" fill="url(#y)"/><use xlink:href="#n" transform="matrix(-1.8369701987210297e-16,-1,1,-1.8369701987210297e-16,1565,794.9999999999998) translate(48.03703703703704 30.708333333333332)"/><use xlink:href="#r" transform="matrix(-1.8369701987210297e-16,-1,1,-1.8369701987210297e-16,1565,794.9999999999998) translate(144.18518518518516 30.708333333333332)"/><path d="M1680 600a20 20 0 0 1 20-20h20a20 20 0 0 1 20 20v180a20 20 0 0 1-20 20h-20a20 20 0 0 1-20-20z" stroke="#000" stroke-width="3" fill="url(#z)"/><use xlink:href="#n" transform="matrix(-1.8369701987210297e-16,-1,1,-1.8369701987210297e-16,1685,794.9999999999998) translate(47.33333333333334 30.708333333333332)"/><use xlink:href="#t" transform="matrix(-1.8369701987210297e-16,-1,1,-1.8369701987210297e-16,1685,794.9999999999998) translate(143.48148148148147 30.708333333333332)"/><path d="M1635.66 688h28.68M1635.66 692h28.68M1640.82 700l-17.32-10 17.32-10m-17.32 10h8.5M1659.18 680l17.32 10-17.32 10m17.32-10h-8.5M1515.66 688h28.68M1515.66 692h28.68M1520.82 700l-17.32-10 17.32-10m-17.32 10h8.5M1539.18 680l17.32 10-17.32 10m17.32-10h-8.5" stroke="#000" stroke-width="2" fill="none"/><path d="M100 806a6 6 0 0 1 6-6h146.65a6 6 0 0 1 6 6v88a6 6 0 0 1-6 6H106a6 6 0 0 1-6-6z" stroke="#000" stroke-opacity="0" stroke-width="3" fill="#fff" fill-opacity="0"/><use xlink:href="#A" transform="matrix(1,0,0,1,104.99277009772845,804.9999999999997) translate(10.111111111111114 51.6875)"/><path d="M360.9 804.58a6 6 0 0 1 6-6h228a6 6 0 0 1 6 6v88a6 6 0 0 1-6 6h-228a6 6 0 0 1-6-6z" stroke="#000" stroke-opacity="0" stroke-width="3" fill="#fff" fill-opacity="0"/><use xlink:href="#B" transform="matrix(1,0,0,1,365.9130231257559,803.5826771653544) translate(21.83333333333333 51.6875)"/><path d="M699.54 803.16a6 6 0 0 1 6-6h228a6 6 0 0 1 6 6V894a6 6 0 0 1-6 6h-228a6 6 0 0 1-6-6z" stroke="#000" stroke-opacity="0" stroke-width="3" fill="#fff" fill-opacity="0"/><use xlink:href="#B" transform="matrix(1,0,0,1,704.5362585348505,802.1653543307089) translate(21.83333333333333 55.25)"/><path d="M1039.07 806a6 6 0 0 1 6-6h288.5a6 6 0 0 1 6 6v108a6 6 0 0 1-6 6h-288.5a6 6 0 0 1-6-6z" stroke="#000" stroke-opacity="0" stroke-width="3" fill="#fff" fill-opacity="0"/><use xlink:href="#C" transform="matrix(1,0,0,1,1044.072517069701,804.9999999999997) translate(7.888888888888886 38.875)"/><use xlink:href="#D" transform="matrix(1,0,0,1,1044.072517069701,804.9999999999997) translate(28 86.875)"/><path d="M1438.65 803.16a6 6 0 0 1 6-6h288a6 6 0 0 1 6 6V894a6 6 0 0 1-6 6h-288a6 6 0 0 1-6-6z" stroke="#000" stroke-opacity="0" stroke-width="3" fill="#fff" fill-opacity="0"/><use xlink:href="#E" transform="matrix(1,0,0,1,1443.6522640416733,802.1653543307084) translate(62.77777777777777 55.25)"/><path d="M290 633a3 3 0 0 1 3-3h19a3 3 0 0 0 3-3v-4a1 1 0 0 1 1.8-.6l11.4 15.2a4 4 0 0 1 0 4.8l-11.4 15.2a1 1 0 0 1-1.8-.6v-4a3 3 0 0 0-3-3h-19a3 3 0 0 1-3-3zM630 633a3 3 0 0 1 3-3h19a3 3 0 0 0 3-3v-4a1 1 0 0 1 1.8-.6l11.4 15.2a4 4 0 0 1 0 4.8l-11.4 15.2a1 1 0 0 1-1.8-.6v-4a3 3 0 0 0-3-3h-19a3 3 0 0 1-3-3zM970 633a3 3 0 0 1 3-3h19a3 3 0 0 0 3-3v-4a1 1 0 0 1 1.8-.6l11.4 15.2a4 4 0 0 1 0 4.8l-11.4 15.2a1 1 0 0 1-1.8-.6v-4a3 3 0 0 0-3-3h-19a3 3 0 0 1-3-3zM1370 633a3 3 0 0 1 3-3h19a3 3 0 0 0 3-3v-4a1 1 0 0 1 1.8-.6l11.4 15.2a4 4 0 0 1 0 4.8l-11.4 15.2a1 1 0 0 1-1.8-.6v-4a3 3 0 0 0-3-3h-19a3 3 0 0 1-3-3zM1410 707a3 3 0 0 1-3 3h-19a3 3 0 0 0-3 3v4a1 1 0 0 1-1.8.6l-11.4-15.2a4 4 0 0 1 0-4.8l11.4-15.2a1 1 0 0 1 1.8.6v4a3 3 0 0 0 3 3h19a3 3 0 0 1 3 3zM1010 707a3 3 0 0 1-3 3h-19a3 3 0 0 0-3 3v4a1 1 0 0 1-1.8.6l-11.4-15.2a4 4 0 0 1 0-4.8l11.4-15.2a1 1 0 0 1 1.8.6v4a3 3 0 0 0 3 3h19a3 3 0 0 1 3 3zM670 707a3 3 0 0 1-3 3h-19a3 3 0 0 0-3 3v4a1 1 0 0 1-1.8.6l-11.4-15.2a4 4 0 0 1 0-4.8l11.4-15.2a1 1 0 0 1 1.8.6v4a3 3 0 0 0 3 3h19a3 3 0 0 1 3 3zM330 709.83a3 3 0 0 1-3 3h-19a3 3 0 0 0-3 3v4a1 1 0 0 1-1.8.6l-11.4-15.2a4 4 0 0 1 0-4.8l11.4-15.2a1 1 0 0 1 1.8.6v4a3 3 0 0 0 3 3h19a3 3 0 0 1 3 3z" fill="#fc9432"/><path d="M1040 520.42a19.58 19.58 0 0 1 19.58-19.58h260.84A19.58 19.58 0 0 1 1340 520.4a19.58 19.58 0 0 1-19.58 19.58h-260.84a19.58 19.58 0 0 1-19.58-19.58z" stroke="#000" stroke-width="3" fill="url(#F)"/><use xlink:href="#G" transform="matrix(1,0,0,1,1045,505.83464566929115) translate(91.74574074074074 23.208333333333336)"/><path d="M1069.42 542.5l.28 18.5" stroke="#000" stroke-width="2" fill="none"/><path d="M1070.4 542.5l-1.95.04-.02-1.04h1.95z" stroke="#000" stroke-width=".05"/><path d="M1069.94 576.26l-4.86-14.2 9.27-.13z" stroke="#000" stroke-width="2"/><path d="M1189.98 542.5V560" stroke="#000" stroke-width="2" fill="none"/><path d="M1190.96 542.53H1189v-1.03h1.96z" stroke="#000" stroke-width=".05"/><path d="M1190 575.26l-4.65-14.26h9.27z" stroke="#000" stroke-width="2"/><path d="M1310.55 542.5l-.27 17.5" stroke="#000" stroke-width="2" fill="none"/><path d="M1311.52 542.54l-1.95-.03.02-1h1.94z" stroke="#000" stroke-width=".05"/><path d="M1310.04 575.26l-4.4-14.33 9.25.14z" stroke="#000" stroke-width="2"/><path d="M1440 520.42a19.58 19.58 0 0 1 19.58-19.58h260.84A19.58 19.58 0 0 1 1740 520.4a19.58 19.58 0 0 1-19.58 19.58h-260.84a19.58 19.58 0 0 1-19.58-19.58z" stroke="#000" stroke-width="3" fill="#fff"/><use xlink:href="#G" transform="matrix(1,0,0,1,1445,505.83464566929115) translate(91.74574074074074 23.208333333333336)"/><path d="M1469.42 542.5l.3 19" stroke="#000" stroke-width="2" fill="none"/><path d="M1470.4 542.5l-1.95.04-.02-1.04h1.95z" stroke="#000" stroke-width=".05"/><path d="M1469.94 576.76l-4.85-14.2 9.26-.13z" stroke="#000" stroke-width="2"/><path d="M1589.98 542.5v18" stroke="#000" stroke-width="2" fill="none"/><path d="M1590.96 542.53H1589v-1.03h1.96z" stroke="#000" stroke-width=".05"/><path d="M1590 575.76l-4.65-14.26h9.27z" stroke="#000" stroke-width="2"/><path d="M1710.55 542.5l-.28 18" stroke="#000" stroke-width="2" fill="none"/><path d="M1711.52 542.54l-1.95-.03.02-1h1.94z" stroke="#000" stroke-width=".05"/><path d="M1710.04 575.76l-4.42-14.33 9.27.14z" stroke="#000" stroke-width="2"/><defs><path d="M185-189c-5-48-123-54-124 2 14 75 158 14 163 119 3 78-121 87-175 55-17-10-28-26-33-46l33-7c5 56 141 63 141-1 0-78-155-14-162-118-5-82 145-84 179-34 5 7 8 16 11 25" id="H"/><path d="M106-169C34-169 62-67 57 0H25v-261h32l-1 103c12-21 28-36 61-36 89 0 53 116 60 194h-32v-121c2-32-8-49-39-48" id="I"/><path d="M141-36C126-15 110 5 73 4 37 3 15-17 15-53c-1-64 63-63 125-63 3-35-9-54-41-54-24 1-41 7-42 31l-33-3c5-37 33-52 76-52 45 0 72 20 72 64v82c-1 20 7 32 28 27v20c-31 9-61-2-59-35zM48-53c0 20 12 33 32 33 41-3 63-29 60-74-43 2-92-5-92 41" id="J"/><path d="M114-163C36-179 61-72 57 0H25l-1-190h30c1 12-1 29 2 39 6-27 23-49 58-41v29" id="K"/><path d="M100-194c63 0 86 42 84 106H49c0 40 14 67 53 68 26 1 43-12 49-29l28 8c-11 28-37 45-77 45C44 4 14-33 15-96c1-61 26-98 85-98zm52 81c6-60-76-77-97-28-3 7-6 17-6 28h103" id="L"/><path d="M85-194c31 0 48 13 60 33l-1-100h32l1 261h-30c-2-10 0-23-3-31C134-8 116 4 85 4 32 4 16-35 15-94c0-66 23-100 70-100zm9 24c-40 0-46 34-46 75 0 40 6 74 45 74 42 0 51-32 51-76 0-42-9-74-50-73" id="M"/><g id="a"><use transform="matrix(0.07407407407407407,0,0,0.07407407407407407,0,0)" xlink:href="#H"/><use transform="matrix(0.07407407407407407,0,0,0.07407407407407407,17.77777777777778,0)" xlink:href="#I"/><use transform="matrix(0.07407407407407407,0,0,0.07407407407407407,32.592592592592595,0)" xlink:href="#J"/><use transform="matrix(0.07407407407407407,0,0,0.07407407407407407,47.407407407407405,0)" xlink:href="#K"/><use transform="matrix(0.07407407407407407,0,0,0.07407407407407407,56.22222222222222,0)" xlink:href="#L"/><use transform="matrix(0.07407407407407407,0,0,0.07407407407407407,71.03703703703704,0)" xlink:href="#M"/></g><path d="M212-179c-10-28-35-45-73-45-59 0-87 40-87 99 0 60 29 101 89 101 43 0 62-24 78-52l27 14C228-24 195 4 139 4 59 4 22-46 18-125c-6-104 99-153 187-111 19 9 31 26 39 46" id="N"/><path d="M100-194c62-1 85 37 85 99 1 63-27 99-86 99S16-35 15-95c0-66 28-99 85-99zM99-20c44 1 53-31 53-75 0-43-8-75-51-75s-53 32-53 75 10 74 51 75" id="O"/><g id="b"><use transform="matrix(0.07407407407407407,0,0,0.07407407407407407,0,0)" xlink:href="#N"/><use transform="matrix(0.07407407407407407,0,0,0.07407407407407407,19.185185185185183,0)" xlink:href="#O"/><use transform="matrix(0.07407407407407407,0,0,0.07407407407407407,34,0)" xlink:href="#M"/><use transform="matrix(0.07407407407407407,0,0,0.07407407407407407,48.81481481481481,0)" xlink:href="#L"/></g><linearGradient gradientUnits="userSpaceOnUse" id="c" x1="700" y1="720" x2="700" y2="600"><stop offset="27.9%" stop-color="#fff"/><stop offset="48.19%" stop-color="#cfe4ff"/></linearGradient><path d="M205 0l-28-72H64L36 0H1l101-248h38L239 0h-34zm-38-99l-47-123c-12 45-31 82-46 123h93" id="P"/><use transform="matrix(0.07407407407407407,0,0,0.07407407407407407,0,0)" xlink:href="#P" id="d"/><path d="M30-248c118-7 216 8 213 122C240-48 200 0 122 0H30v-248zM63-27c89 8 146-16 146-99s-60-101-146-95v194" id="Q"/><path d="M59-47c-2 24 18 29 38 22v24C64 9 27 4 27-40v-127H5v-23h24l9-43h21v43h35v23H59v120" id="R"/><g id="e"><use transform="matrix(0.07407407407407407,0,0,0.07407407407407407,0,0)" xlink:href="#Q"/><use transform="matrix(0.07407407407407407,0,0,0.07407407407407407,19.185185185185183,0)" xlink:href="#J"/><use transform="matrix(0.07407407407407407,0,0,0.07407407407407407,34,0)" xlink:href="#R"/><use transform="matrix(0.07407407407407407,0,0,0.07407407407407407,41.407407407407405,0)" xlink:href="#J"/></g><linearGradient gradientUnits="userSpaceOnUse" id="f" x1="700.3" y1="500.83" x2="700.3" y2="560"><stop offset="31.52%" stop-color="#fff"/><stop offset="62.68%" stop-color="#c3f7c8"/></linearGradient><path d="M115-194c55 1 70 41 70 98S169 2 115 4C84 4 66-9 55-30l1 105H24l-1-265h31l2 30c10-21 28-34 59-34zm-8 174c40 0 45-34 45-75s-6-73-45-74c-42 0-51 32-51 76 0 43 10 73 51 73" id="S"/><path d="M24 0v-261h32V0H24" id="T"/><path d="M24-231v-30h32v30H24zM24 0v-190h32V0H24" id="U"/><path d="M96-169c-40 0-48 33-48 73s9 75 48 75c24 0 41-14 43-38l32 2c-6 37-31 61-74 61-59 0-76-41-82-99-10-93 101-131 147-64 4 7 5 14 7 22l-32 3c-4-21-16-35-41-35" id="V"/><path d="M117-194c89-4 53 116 60 194h-32v-121c0-31-8-49-39-48C34-167 62-67 57 0H25l-1-190h30c1 10-1 24 2 32 11-22 29-35 61-36" id="W"/><g id="g"><use transform="matrix(0.07407407407407408,0,0,0.07407407407407408,0,0)" xlink:href="#P"/><use transform="matrix(0.07407407407407408,0,0,0.07407407407407408,17.77777777777778,0)" xlink:href="#S"/><use transform="matrix(0.07407407407407408,0,0,0.07407407407407408,32.592592592592595,0)" xlink:href="#S"/><use transform="matrix(0.07407407407407408,0,0,0.07407407407407408,47.40740740740741,0)" xlink:href="#T"/><use transform="matrix(0.07407407407407408,0,0,0.07407407407407408,53.25925925925927,0)" xlink:href="#U"/><use transform="matrix(0.07407407407407408,0,0,0.07407407407407408,59.11111111111112,0)" xlink:href="#V"/><use transform="matrix(0.07407407407407408,0,0,0.07407407407407408,72.44444444444446,0)" xlink:href="#J"/><use transform="matrix(0.07407407407407408,0,0,0.07407407407407408,87.25925925925927,0)" xlink:href="#R"/><use transform="matrix(0.07407407407407408,0,0,0.07407407407407408,94.66666666666669,0)" xlink:href="#U"/><use transform="matrix(0.07407407407407408,0,0,0.07407407407407408,100.51851851851852,0)" xlink:href="#O"/><use transform="matrix(0.07407407407407408,0,0,0.07407407407407408,115.33333333333334,0)" xlink:href="#W"/></g><linearGradient gradientUnits="userSpaceOnUse" id="h" x1="790" y1="720" x2="790" y2="600"><stop offset="27.9%" stop-color="#fff"/><stop offset="48.19%" stop-color="#cfe4ff"/></linearGradient><path d="M160-131c35 5 61 23 61 61C221 17 115-2 30 0v-248c76 3 177-17 177 60 0 33-19 50-47 57zm-97-11c50-1 110 9 110-42 0-47-63-36-110-37v79zm0 115c55-2 124 14 124-45 0-56-70-42-124-44v89" id="X"/><use transform="matrix(0.07407407407407407,0,0,0.07407407407407407,0,0)" xlink:href="#X" id="i"/><linearGradient gradientUnits="userSpaceOnUse" id="j" x1="880" y1="720" x2="880" y2="600"><stop offset="27.9%" stop-color="#fff"/><stop offset="48.19%" stop-color="#cfe4ff"/></linearGradient><use transform="matrix(0.07407407407407407,0,0,0.07407407407407407,0,0)" xlink:href="#N" id="k"/><linearGradient gradientUnits="userSpaceOnUse" id="l" x1="360" y1="500.83" x2="360" y2="560"><stop offset="31.52%" stop-color="#fff"/><stop offset="62.68%" stop-color="#c3f7c8"/></linearGradient><linearGradient gradientUnits="userSpaceOnUse" id="m" x1="1039.99" y1="720" x2="1039.99" y2="581"><stop offset="17.75%" stop-color="#fff"/><stop offset="32.97%" stop-color="#cfe4ff"/><stop offset="65.22%" stop-color="#cfe4ff"/><stop offset="77.17%" stop-color="#c3f7c8"/></linearGradient><path d="M108 0H70L1-190h34L89-25l56-165h34" id="Y"/><g id="n"><use transform="matrix(0.07407407407407407,0,0,0.07407407407407407,0,0)" xlink:href="#H"/><use transform="matrix(0.07407407407407407,0,0,0.07407407407407407,17.77777777777778,0)" xlink:href="#L"/><use transform="matrix(0.07407407407407407,0,0,0.07407407407407407,32.592592592592595,0)" xlink:href="#K"/><use transform="matrix(0.07407407407407407,0,0,0.07407407407407407,41.40740740740741,0)" xlink:href="#Y"/><use transform="matrix(0.07407407407407407,0,0,0.07407407407407407,54.74074074074075,0)" xlink:href="#U"/><use transform="matrix(0.07407407407407407,0,0,0.07407407407407407,60.592592592592595,0)" xlink:href="#V"/><use transform="matrix(0.07407407407407407,0,0,0.07407407407407407,73.92592592592592,0)" xlink:href="#L"/></g><use transform="matrix(0.07407407407407407,0,0,0.07407407407407407,0,0)" xlink:href="#P" id="o"/><path d="M233-177c-1 41-23 64-60 70L243 0h-38l-65-103H63V0H30v-248c88 3 205-21 203 71zM63-129c60-2 137 13 137-47 0-61-80-42-137-45v92" id="Z"/><path d="M135-143c-3-34-86-38-87 0 15 53 115 12 119 90S17 21 10-45l28-5c4 36 97 45 98 0-10-56-113-15-118-90-4-57 82-63 122-42 12 7 21 19 24 35" id="aa"/><path d="M179-190L93 31C79 59 56 82 12 73V49c39 6 53-20 64-50L1-190h34L92-34l54-156h33" id="ab"/><g id="p"><use transform="matrix(0.07407407407407407,0,0,0.07407407407407407,0,0)" xlink:href="#Z"/><use transform="matrix(0.07407407407407407,0,0,0.07407407407407407,19.185185185185183,0)" xlink:href="#L"/><use transform="matrix(0.07407407407407407,0,0,0.07407407407407407,34,0)" xlink:href="#S"/><use transform="matrix(0.07407407407407407,0,0,0.07407407407407407,48.81481481481481,0)" xlink:href="#O"/><use transform="matrix(0.07407407407407407,0,0,0.07407407407407407,63.62962962962962,0)" xlink:href="#aa"/><use transform="matrix(0.07407407407407407,0,0,0.07407407407407407,76.96296296296295,0)" xlink:href="#U"/><use transform="matrix(0.07407407407407407,0,0,0.07407407407407407,82.8148148148148,0)" xlink:href="#R"/><use transform="matrix(0.07407407407407407,0,0,0.07407407407407407,90.2222222222222,0)" xlink:href="#O"/><use transform="matrix(0.07407407407407407,0,0,0.07407407407407407,105.03703703703701,0)" xlink:href="#K"/><use transform="matrix(0.07407407407407407,0,0,0.07407407407407407,113.8518518518518,0)" xlink:href="#ab"/></g><linearGradient gradientUnits="userSpaceOnUse" id="q" x1="1159.99" y1="720" x2="1159.99" y2="580"><stop offset="17.75%" stop-color="#fff"/><stop offset="32.97%" stop-color="#cfe4ff"/><stop offset="65.22%" stop-color="#cfe4ff"/><stop offset="77.17%" stop-color="#c3f7c8"/></linearGradient><use transform="matrix(0.07407407407407407,0,0,0.07407407407407407,0,0)" xlink:href="#X" id="r"/><linearGradient gradientUnits="userSpaceOnUse" id="s" x1="1279.99" y1="720" x2="1279.99" y2="580"><stop offset="17.75%" stop-color="#fff"/><stop offset="32.97%" stop-color="#cfe4ff"/><stop offset="65.22%" stop-color="#cfe4ff"/><stop offset="77.17%" stop-color="#c3f7c8"/></linearGradient><use transform="matrix(0.07407407407407407,0,0,0.07407407407407407,0,0)" xlink:href="#N" id="t"/><linearGradient gradientUnits="userSpaceOnUse" id="u" x1="100.01" y1="500.83" x2="100.01" y2="560"><stop offset="31.52%" stop-color="#fff"/><stop offset="62.68%" stop-color="#c3f7c8"/></linearGradient><linearGradient gradientUnits="userSpaceOnUse" id="v" x1="100" y1="720" x2="100" y2="600"><stop offset="27.9%" stop-color="#fff"/><stop offset="48.19%" stop-color="#cfe4ff"/></linearGradient><path d="M210-169c-67 3-38 105-44 169h-31v-121c0-29-5-50-35-48C34-165 62-65 56 0H25l-1-190h30c1 10-1 24 2 32 10-44 99-50 107 0 11-21 27-35 58-36 85-2 47 119 55 194h-31v-121c0-29-5-49-35-48" id="ac"/><g id="w"><use transform="matrix(0.07407407407407407,0,0,0.07407407407407407,0,0)" xlink:href="#Q"/><use transform="matrix(0.07407407407407407,0,0,0.07407407407407407,19.185185185185183,0)" xlink:href="#O"/><use transform="matrix(0.07407407407407407,0,0,0.07407407407407407,34,0)" xlink:href="#ac"/><use transform="matrix(0.07407407407407407,0,0,0.07407407407407407,56.148148148148145,0)" xlink:href="#J"/><use transform="matrix(0.07407407407407407,0,0,0.07407407407407407,70.96296296296296,0)" xlink:href="#U"/><use transform="matrix(0.07407407407407407,0,0,0.07407407407407407,76.81481481481481,0)" xlink:href="#W"/></g><linearGradient gradientUnits="userSpaceOnUse" id="x" x1="1440" y1="800" x2="1440" y2="580"><stop offset="15.22%" stop-color="#ced4db"/><stop offset="23.91%" stop-color="#fff"/><stop offset="34.78%" stop-color="#fff"/><stop offset="41.67%" stop-color="#cfe4ff"/><stop offset="72.1%" stop-color="#cfe4ff"/><stop offset="81.88%" stop-color="#c3f7c8"/></linearGradient><linearGradient gradientUnits="userSpaceOnUse" id="y" x1="1560" y1="800" x2="1560" y2="580"><stop offset="15.22%" stop-color="#ced4db"/><stop offset="23.91%" stop-color="#fff"/><stop offset="34.78%" stop-color="#fff"/><stop offset="41.67%" stop-color="#cfe4ff"/><stop offset="72.1%" stop-color="#cfe4ff"/><stop offset="81.88%" stop-color="#c3f7c8"/></linearGradient><linearGradient gradientUnits="userSpaceOnUse" id="z" x1="1680" y1="800" x2="1680" y2="580"><stop offset="15.22%" stop-color="#ced4db"/><stop offset="23.91%" stop-color="#fff"/><stop offset="34.78%" stop-color="#fff"/><stop offset="41.67%" stop-color="#cfe4ff"/><stop offset="72.1%" stop-color="#cfe4ff"/><stop offset="81.88%" stop-color="#c3f7c8"/></linearGradient><path d="M6 0l48-248h52L66-40h133l-8 40H6" id="ad"/><path d="M166-52c-4 17 5 29 24 23l-3 27c-30 11-74 1-67-34C105-15 91 4 56 4 23 4 3-15 2-49c0-64 63-67 128-67 10-22 3-53-29-45-13 3-22 10-25 24l-46-5c5-64 156-77 153 0-1 33-11 60-17 90zM97-88c-44-9-64 57-19 57 31 0 42-28 47-57H97" id="ae"/><path d="M100 10C77 47 50 87-15 72l7-35c37 9 51-18 65-41L20-190h51L89-44l73-146h53" id="af"/><path d="M114-194c63-2 87 48 72 110H63c-3 28 1 55 31 54 21-1 32-13 37-29l44 13C160-14 137 4 91 4 41 4 11-22 11-73c0-71 33-119 103-121zm30 77c14-47-50-61-67-22-3 6-6 13-8 22h75" id="ag"/><path d="M84-151c13-25 34-51 72-40l-8 41C67-170 71-64 56 0H6l36-190h47" id="ah"/><path d="M144-137c-1-29-70-35-71-2 16 41 103 10 103 80C176 9 79 16 32-9 18-17 9-31 4-48l44-6c3 32 80 36 82 1-15-42-103-11-103-82 0-77 157-79 161-8" id="ai"/><g id="A"><use transform="matrix(0.1111111111111111,0,0,0.1111111111111111,0,0)" xlink:href="#ad"/><use transform="matrix(0.1111111111111111,0,0,0.1111111111111111,24.333333333333332,0)" xlink:href="#ae"/><use transform="matrix(0.1111111111111111,0,0,0.1111111111111111,46.55555555555556,0)" xlink:href="#af"/><use transform="matrix(0.1111111111111111,0,0,0.1111111111111111,68.77777777777777,0)" xlink:href="#ag"/><use transform="matrix(0.1111111111111111,0,0,0.1111111111111111,91,0)" xlink:href="#ah"/><use transform="matrix(0.1111111111111111,0,0,0.1111111111111111,106.55555555555556,0)" xlink:href="#ai"/></g><path d="M178-136c88 48 22 151-73 140C49-3 12-15 4-64l51-9c1 50 111 53 115 3-16-63-132-20-133-112 0-93 190-91 199-10l-50 12c-4-41-93-50-97-4 7 38 59 32 89 48" id="aj"/><path d="M151-194c95 0 34 128 28 194h-49l25-134c0-29-45-25-59-9C67-111 69-48 56 0H6l36-190h47l-4 32c15-20 33-36 66-36" id="ak"/><path d="M132-28C118-9 101 4 69 4 30 4 10-23 10-62c0-70 24-129 92-132 31-1 47 14 56 35l19-102h49L179 0h-49zM62-69c0 22 7 39 29 39 45-2 54-45 57-90 2-27-10-40-33-40-44 0-53 48-53 91" id="al"/><path d="M212 0h-52l-8-156L82 0H30L17-190h46l2 145 66-145h53l8 145 60-145h47" id="am"/><path d="M50-224l7-37h49l-7 37H50zM6 0l37-190h49L55 0H6" id="an"/><path d="M67-101c-8 29-7 73 27 71 23-2 32-16 39-37l48 9C170-19 141 4 91 4 36 4 7-28 12-86c6-75 61-124 140-103 26 7 40 29 43 59l-50 4c-1-20-9-34-29-34-35 0-41 29-49 59" id="ao"/><path d="M150-105c8-23 8-54-22-51-68 7-54 98-72 156H6l50-261h50L85-158c15-20 33-36 66-36 95 0 34 128 28 194h-49" id="ap"/><g id="B"><use transform="matrix(0.1111111111111111,0,0,0.1111111111111111,0,0)" xlink:href="#aj"/><use transform="matrix(0.1111111111111111,0,0,0.1111111111111111,26.666666666666664,0)" xlink:href="#ae"/><use transform="matrix(0.1111111111111111,0,0,0.1111111111111111,48.888888888888886,0)" xlink:href="#ak"/><use transform="matrix(0.1111111111111111,0,0,0.1111111111111111,73.22222222222221,0)" xlink:href="#al"/><use transform="matrix(0.1111111111111111,0,0,0.1111111111111111,97.55555555555554,0)" xlink:href="#am"/><use transform="matrix(0.1111111111111111,0,0,0.1111111111111111,128.66666666666666,0)" xlink:href="#an"/><use transform="matrix(0.1111111111111111,0,0,0.1111111111111111,139.77777777777777,0)" xlink:href="#ao"/><use transform="matrix(0.1111111111111111,0,0,0.1111111111111111,162,0)" xlink:href="#ap"/></g><path d="M109 0H50L19-190h51L86-37l77-153h54" id="aq"/><path d="M10-72l8-43h92l-9 43H10" id="ar"/><path d="M240-76C239 26 104-5 6 0l48-248c79 4 193-21 193 58 0 38-25 53-57 60 29 5 49 21 50 54zm-45-106c0-40-58-24-96-27l-12 61c45-3 108 12 108-34zm-7 105c0-44-65-31-109-33L66-38c51-3 122 14 122-39" id="as"/><g id="C"><use transform="matrix(0.1111111111111111,0,0,0.1111111111111111,0,0)" xlink:href="#aj"/><use transform="matrix(0.1111111111111111,0,0,0.1111111111111111,26.666666666666664,0)" xlink:href="#ag"/><use transform="matrix(0.1111111111111111,0,0,0.1111111111111111,48.888888888888886,0)" xlink:href="#ah"/><use transform="matrix(0.1111111111111111,0,0,0.1111111111111111,64.44444444444444,0)" xlink:href="#aq"/><use transform="matrix(0.1111111111111111,0,0,0.1111111111111111,86.66666666666666,0)" xlink:href="#an"/><use transform="matrix(0.1111111111111111,0,0,0.1111111111111111,97.77777777777777,0)" xlink:href="#ao"/><use transform="matrix(0.1111111111111111,0,0,0.1111111111111111,120,0)" xlink:href="#ag"/><use transform="matrix(0.1111111111111111,0,0,0.1111111111111111,142.22222222222223,0)" xlink:href="#ar"/><use transform="matrix(0.1111111111111111,0,0,0.1111111111111111,155.44444444444446,0)" xlink:href="#as"/><use transform="matrix(0.1111111111111111,0,0,0.1111111111111111,184.22222222222223,0)" xlink:href="#ae"/><use transform="matrix(0.1111111111111111,0,0,0.1111111111111111,206.44444444444446,0)" xlink:href="#ai"/><use transform="matrix(0.1111111111111111,0,0,0.1111111111111111,228.6666666666667,0)" xlink:href="#ag"/><use transform="matrix(0.1111111111111111,0,0,0.1111111111111111,250.8888888888889,0)" xlink:href="#al"/></g><path d="M183 0l-10-63H79L44 0H-7l138-248h61L234 0h-51zm-14-102l-15-108c-16 38-36 73-55 108h70" id="at"/><path d="M72-63c-8 23 5 39 32 30L98-1C54 14 12-6 23-64l18-93H15l7-33h28l24-45h31l-8 45h35l-6 33H90" id="au"/><path d="M69 3c-96 0-34-126-28-193h49L65-57c6 42 62 18 71-6 14-38 17-86 28-127h50L178 0h-47c0-11 4-26 3-33-14 20-30 37-65 36" id="av"/><g id="D"><use transform="matrix(0.1111111111111111,0,0,0.1111111111111111,0,0)" xlink:href="#at"/><use transform="matrix(0.1111111111111111,0,0,0.1111111111111111,28.777777777777775,0)" xlink:href="#ah"/><use transform="matrix(0.1111111111111111,0,0,0.1111111111111111,44.33333333333333,0)" xlink:href="#ao"/><use transform="matrix(0.1111111111111111,0,0,0.1111111111111111,66.55555555555554,0)" xlink:href="#ap"/><use transform="matrix(0.1111111111111111,0,0,0.1111111111111111,90.88888888888887,0)" xlink:href="#an"/><use transform="matrix(0.1111111111111111,0,0,0.1111111111111111,101.99999999999999,0)" xlink:href="#au"/><use transform="matrix(0.1111111111111111,0,0,0.1111111111111111,115.22222222222219,0)" xlink:href="#ag"/><use transform="matrix(0.1111111111111111,0,0,0.1111111111111111,137.44444444444443,0)" xlink:href="#ao"/><use transform="matrix(0.1111111111111111,0,0,0.1111111111111111,159.66666666666666,0)" xlink:href="#au"/><use transform="matrix(0.1111111111111111,0,0,0.1111111111111111,172.88888888888889,0)" xlink:href="#av"/><use transform="matrix(0.1111111111111111,0,0,0.1111111111111111,197.22222222222223,0)" xlink:href="#ah"/><use transform="matrix(0.1111111111111111,0,0,0.1111111111111111,212.77777777777777,0)" xlink:href="#ag"/></g><g id="E"><use transform="matrix(0.1111111111111111,0,0,0.1111111111111111,0,0)" xlink:href="#aj"/><use transform="matrix(0.1111111111111111,0,0,0.1111111111111111,26.666666666666664,0)" xlink:href="#ag"/><use transform="matrix(0.1111111111111111,0,0,0.1111111111111111,48.888888888888886,0)" xlink:href="#ah"/><use transform="matrix(0.1111111111111111,0,0,0.1111111111111111,64.44444444444444,0)" xlink:href="#aq"/><use transform="matrix(0.1111111111111111,0,0,0.1111111111111111,86.66666666666666,0)" xlink:href="#an"/><use transform="matrix(0.1111111111111111,0,0,0.1111111111111111,97.77777777777777,0)" xlink:href="#ao"/><use transform="matrix(0.1111111111111111,0,0,0.1111111111111111,120,0)" xlink:href="#ag"/><use transform="matrix(0.1111111111111111,0,0,0.1111111111111111,142.22222222222223,0)" xlink:href="#ai"/></g><linearGradient gradientUnits="userSpaceOnUse" id="F" x1="1040" y1="500.83" x2="1040" y2="540"><stop offset="60.51%" stop-color="#fff"/><stop offset="88.04%" stop-color="#c3f7c8"/></linearGradient><path d="M63-220v92h138v28H63V0H30v-248h175v28H63" id="aw"/><g id="G"><use transform="matrix(0.07407407407407408,0,0,0.07407407407407408,0,0)" xlink:href="#aw"/><use transform="matrix(0.07407407407407408,0,0,0.07407407407407408,16.222222222222225,0)" xlink:href="#K"/><use transform="matrix(0.07407407407407408,0,0,0.07407407407407408,25.03703703703704,0)" xlink:href="#O"/><use transform="matrix(0.07407407407407408,0,0,0.07407407407407408,39.85185185185187,0)" xlink:href="#W"/><use transform="matrix(0.07407407407407408,0,0,0.07407407407407408,54.666666666666686,0)" xlink:href="#R"/><use transform="matrix(0.07407407407407408,0,0,0.07407407407407408,62.07407407407409,0)" xlink:href="#L"/><use transform="matrix(0.07407407407407408,0,0,0.07407407407407408,76.88888888888891,0)" xlink:href="#W"/><use transform="matrix(0.07407407407407408,0,0,0.07407407407407408,91.70370370370371,0)" xlink:href="#M"/></g></defs></g></svg>