<svg xmlns="http://www.w3.org/2000/svg" xmlns:xlink="http://www.w3.org/1999/xlink" xmlns:lucid="lucid" width="1383" height="428.17"><g transform="translate(-138.5 -397)" lucid:page-tab-id="0_0"><path d="M980.04 722.5l.54 13.85" stroke="#82755b" stroke-width="2" fill="none"/><path d="M981 722.5l-1.93.06-.05-1.06h1.96z" stroke="#82755b" stroke-width=".05" fill="#82755b"/><path d="M981.17 751.6L976 737.52l9.25-.36z" stroke="#82755b" stroke-width="2" fill="#82755b"/><path d="M600 580a20 20 0 0 1 20-20h40a20 20 0 0 1 20 20v140a20 20 0 0 1-20 20h-40a20 20 0 0 1-20-20z" stroke="#000" stroke-width="3" fill="url(#a)"/><path d="M720 580a20 20 0 0 1 20-20h40a20 20 0 0 1 20 20v140a20 20 0 0 1-20 20h-40a20 20 0 0 1-20-20z" stroke="#000" stroke-width="3" fill="url(#b)"/><path d="M759.96 742.5l-.54 13.85" stroke="#000" stroke-width="2" fill="none"/><path d="M760.93 742.56l-1.94-.07.02-1h1.96z" stroke="#000" stroke-width=".05"/><path d="M758.83 771.6l-4.08-14.44 9.26.37z" stroke="#000" stroke-width="2"/><path d="M480 796.33a20 20 0 0 1 20-20h280a20 20 0 0 1 20 20v7.34a20 20 0 0 1-20 20H500a20 20 0 0 1-20-20z" stroke="#000" stroke-width="3" fill="#dfe3e8"/><path d="M640 742.5v13.83" stroke="#000" stroke-width="2" fill="none"/><path d="M640.98 742.53H639v-1.03H641z" stroke="#000" stroke-width=".05"/><path d="M640 771.6l-4.63-14.27h9.26z" stroke="#000" stroke-width="2"/><path d="M500.05 742.5l.62 13.85" stroke="#1071e5" stroke-width="2" fill="none"/><path d="M500 741.5l.97-.07.05 1.06-1.95.07-.05-1.14z" stroke="#1071e5" stroke-width=".05" fill="#1071e5"/><path d="M501.37 771.6l-5.28-14.04 9.25-.42z" stroke="#1071e5" stroke-width="2" fill="#1071e5"/><path d="M480 476.33a20 20 0 0 1 20-20h280a20 20 0 0 1 20 20v7.34a20 20 0 0 1-20 20H500a20 20 0 0 1-20-20z" stroke="#000" stroke-width="3" fill="url(#c)"/><path d="M638 440.67v-26.5M642 440.67v-26.5M650 435.5l-10 17.33-10-17.32m10 17.33v-8.5M630 419.32L640 402l10 17.32M640 402v8.5" stroke="#000" stroke-width="2" fill="none"/><path d="M498.23 584.3l1.05-65M502.23 584.37l1.05-65M510.3 579.34l-10.27 17.16-9.7-17.5m9.7 17.5l.14-8.5M491.2 524.32l10.28-17.15 9.72 17.48m-9.72-17.48l-.14 8.5" stroke="#1071e5" stroke-width="2" fill="none"/><path d="M638 544.34v-25M642 544.34v-25M650 539.18l-10 17.32-10-17.32m10 17.32V548M630 524.5l10-17.33 10 17.32m-10-17.33v8.5M757.66 544.4l-.6-25.03M761.65 544.3l-.6-25.03M769.53 538.94l-9.58 17.56-10.42-17.07m10.42 17.07l-.2-8.5M749.18 524.73l9.57-17.56 10.42 17.07m-10.42-17.07l.2 8.5" stroke="#000" stroke-width="2" fill="none"/><path d="M520 580a20 20 0 0 1 20-20 20 20 0 0 1 20 20v100a20 20 0 0 1-20 20 20 20 0 0 1-20-20z" stroke="#008a0e" stroke-width="3" fill="url(#d)"/><path d="M500 600a20 20 0 0 1 20-20 20 20 0 0 1 20 20v100a20 20 0 0 1-20 20 20 20 0 0 1-20-20z" stroke="#82755b" stroke-width="3" fill="url(#e)"/><path d="M480 620a20 20 0 0 1 20-20 20 20 0 0 1 20 20v100a20 20 0 0 1-20 20 20 20 0 0 1-20-20z" stroke="#1071e5" stroke-width="3" fill="url(#f)"/><path d="M516.75 568.45l.85-49.16M520.75 568.52l.85-49.16M528.84 563.5l-10.3 17.15-9.7-17.5m9.7 17.5l.14-8.5M509.5 524.3l10.3-17.13 9.7 17.5m-9.7-17.5l-.13 8.5" stroke="#82755b" stroke-width="2" fill="none"/><path d="M538.3 544.3l.5-25.02M542.3 544.38l.5-25M550.4 539.38l-10.36 17.12-9.65-17.52m9.64 17.52l.17-8.5M530.7 524.28l10.34-17.1 9.65 17.5m-9.66-17.5l-.17 8.48" stroke="#008a0e" stroke-width="2" fill="none"/><path d="M520.02 722.5l.83 33.84" stroke="#82755b" stroke-width="2" fill="none"/><path d="M520 721.5l.97-.07.03 1.08-1.95.05-.03-1.12z" stroke="#82755b" stroke-width=".05" fill="#82755b"/><path d="M521.22 771.6l-4.98-14.15 9.26-.23z" stroke="#82755b" stroke-width="2" fill="#82755b"/><path d="M540 702.5l.8 53.83" stroke="#008a0e" stroke-width="2" fill="none"/><path d="M540 701.5l.97-.07.02 1.1h-1.96l-.02-1.1z" stroke="#008a0e" stroke-width=".05" fill="#008a0e"/><path d="M541.03 771.6l-4.84-14.2 9.26-.13z" stroke="#008a0e" stroke-width="2" fill="#008a0e"/><path d="M140 443.66a6 6 0 0 1 6-6h248a6 6 0 0 1 6 6V674a6 6 0 0 1-6 6H146a6 6 0 0 1-6-6z" stroke="#000" stroke-opacity="0" stroke-width="3" fill="#fff" fill-opacity="0"/><use xlink:href="#g" transform="matrix(1,0,0,1,145,442.66213208357067) translate(15.234567901234612 37.503472222222214)"/><use xlink:href="#h" transform="matrix(1,0,0,1,145,442.66213208357067) translate(81.55555555555557 37.503472222222214)"/><use xlink:href="#i" transform="matrix(1,0,0,1,145,442.66213208357067) translate(152.91358024691357 37.503472222222214)"/><use xlink:href="#j" transform="matrix(1,0,0,1,145,442.66213208357067) translate(60.14814814814817 82.83680555555554)"/><use xlink:href="#k" transform="matrix(1,0,0,1,145,442.66213208357067) translate(24.311728395061763 128.17013888888886)"/><use xlink:href="#l" transform="matrix(1,0,0,1,145,442.66213208357067) translate(194.20679012345676 128.17013888888886)"/><use xlink:href="#m" transform="matrix(1,0,0,1,145,442.66213208357067) translate(54.74382716049385 173.50347222222217)"/><use xlink:href="#n" transform="matrix(1,0,0,1,145,442.66213208357067) translate(1.22530864197536 218.8368055555555)"/><use xlink:href="#o" transform="matrix(1,0,0,1,145,442.66213208357067) translate(217.2932098765432 218.8368055555555)"/><path d="M400.93 559.2l2.9 1.12m3.88 1.5l5.82 2.27m3.88 1.5l5.8 2.25m3.88 1.5l5.8 2.27m3.9 1.5l5.8 2.27m3.87 1.5l5.8 2.25m3.9 1.5l5.8 2.27m3.87 1.5l5.8 2.26m3.9 1.5l5.8 2.27m3.87 1.5l5.8 2.26m3.88 1.52l2.9 1.13" stroke="#3a414a" stroke-width="2" fill="none"/><path d="M401.3 558.3l-.7 1.8-.6-.22v-2.1zM498.86 596.22l-.1.42-.13 1.6-1.23-.5.7-1.8z" stroke="#3a414a" stroke-width=".05" fill="#3a414a"/><path d="M1060 580a20 20 0 0 1 20-20h40a20 20 0 0 1 20 20v120a20 20 0 0 1-20 20h-40a20 20 0 0 1-20-20z" stroke="#82755b" stroke-width="3" fill="url(#p)"/><path d="M1180 580a20 20 0 0 1 20-20h40a20 20 0 0 1 20 20v120a20 20 0 0 1-20 20h-40a20 20 0 0 1-20-20z" stroke="#82755b" stroke-width="3" fill="url(#q)"/><path d="M1220 722.5V740" stroke="#82755b" stroke-width="2" fill="none"/><path d="M1220.97 722.53h-1.94v-1.03h1.94z" stroke="#82755b" stroke-width=".05" fill="#82755b"/><path d="M1220 755.26l-4.63-14.26h9.27z" stroke="#82755b" stroke-width="2" fill="#82755b"/><path d="M940 776.33a20 20 0 0 1 20-20h280a20 20 0 0 1 20 20v7.34a20 20 0 0 1-20 20H960a20 20 0 0 1-20-20z" stroke="#82755b" stroke-width="3" fill="#dfe3e8"/><path d="M1100 722.5v13.83" stroke="#82755b" stroke-width="2" fill="none"/><path d="M1100.97 722.53h-1.94v-1.03h1.94z" stroke="#82755b" stroke-width=".05" fill="#82755b"/><path d="M1100 751.6l-4.63-14.27h9.27z" stroke="#82755b" stroke-width="2" fill="#82755b"/><path d="M940 476.33a20 20 0 0 1 20-20h280a20 20 0 0 1 20 20v7.34a20 20 0 0 1-20 20H960a20 20 0 0 1-20-20z" stroke="#82755b" stroke-width="3" fill="url(#r)"/><path d="M1098 440.67v-26.5M1102 440.67v-26.5M1110 435.5l-10 17.33-10-17.32m10 17.33v-8.5M1090 419.32l10-17.32 10 17.32M1100 402v8.5M1098 544.34v-25M1102 544.34v-25M1110 539.18l-10 17.32-10-17.32m10 17.32V548M1090 524.5l10-17.33 10 17.32m-10-17.33v8.5M1217.66 544.4l-.6-25.03M1221.65 544.3l-.6-25.03M1229.53 538.94l-9.58 17.56-10.42-17.07m10.42 17.07l-.2-8.5M1209.18 524.73l9.57-17.56 10.42 17.07m-10.42-17.07l.2 8.5" stroke="#82755b" stroke-width="2" fill="none"/><path d="M940 580a20 20 0 0 1 20-20h40a20 20 0 0 1 20 20v120a20 20 0 0 1-20 20h-40a20 20 0 0 1-20-20z" stroke="#82755b" stroke-width="3" fill="url(#s)"/><path d="M979.3 722.2l-6.22 6.22" stroke="#000" stroke-width="2" fill="none"/><path d="M979.96 722.9l-1.38-1.36.04-.04h2.76z" stroke="#000" stroke-width=".05"/><path d="M962.3 739.2l6.8-13.35 6.55 6.55z" stroke="#000" stroke-width="2"/><path d="M978.35 544.3l.6-25.03M982.34 544.4l.6-25.03M990.47 539.43l-10.42 17.07-9.58-17.56m9.58 17.56l.2-8.5M970.83 524.24l10.42-17.07 9.57 17.56m-9.57-17.56l-.2 8.5" stroke="#82755b" stroke-width="2" fill="none"/><path d="M1040 600a20 20 0 0 1 20-20h40a20 20 0 0 1 20 20v120a20 20 0 0 1-20 20h-40a20 20 0 0 1-20-20z" stroke="#008573" stroke-width="3" fill="url(#t)"/><path d="M1160 600a20 20 0 0 1 20-20h40a20 20 0 0 1 20 20v120a20 20 0 0 1-20 20h-40a20 20 0 0 1-20-20z" stroke="#008573" stroke-width="3" fill="url(#u)"/><path d="M1200 742.5V760" stroke="#008573" stroke-width="2" fill="none"/><path d="M1200.97 742.53h-1.94v-1.03h1.94z" stroke="#008573" stroke-width=".05" fill="#008573"/><path d="M1200 775.26l-4.63-14.26h9.27z" stroke="#008573" stroke-width="2" fill="#008573"/><path d="M920 796.33a20 20 0 0 1 20-20h280a20 20 0 0 1 20 20v7.34a20 20 0 0 1-20 20H940a20 20 0 0 1-20-20z" stroke="#008573" stroke-width="3" fill="#dfe3e8"/><path d="M1080 742.5v13.83" stroke="#008573" stroke-width="2" fill="none"/><path d="M1080.97 742.53h-1.94v-1.03h1.94z" stroke="#008573" stroke-width=".05" fill="#008573"/><path d="M1080 771.6l-4.63-14.27h9.27z" stroke="#008573" stroke-width="2" fill="#008573"/><path d="M920 496.33a20 20 0 0 1 20-20h280a20 20 0 0 1 20 20v7.34a20 20 0 0 1-20 20H940a20 20 0 0 1-20-20z" stroke="#008573" stroke-width="3" fill="url(#v)"/><path d="M1078 564.34v-25M1082 564.34v-25M1090 559.18l-10 17.32-10-17.32m10 17.32V568M1070 544.5l10-17.33 10 17.32m-10-17.33v8.5M1197.66 564.4l-.6-25.03M1201.65 564.3l-.6-25.03M1209.53 558.94l-9.58 17.56-10.42-17.07m10.42 17.07l-.2-8.5M1189.18 544.73l9.57-17.56 10.42 17.07m-10.42-17.07l.2 8.5" stroke="#008573" stroke-width="2" fill="none"/><path d="M920 600a20 20 0 0 1 20-20h40a20 20 0 0 1 20 20v120a20 20 0 0 1-20 20h-40a20 20 0 0 1-20-20z" stroke="#008573" stroke-width="3" fill="url(#w)"/><path d="M960 742.5v19" stroke="#008573" stroke-width="2" fill="none"/><path d="M960.98 742.53H959v-1.03H961z" stroke="#008573" stroke-width=".05" fill="#008573"/><path d="M960 776.76l-4.63-14.26h9.26z" stroke="#008573" stroke-width="2" fill="#008573"/><path d="M958.35 564.3l.6-25.03M962.34 564.4l.6-25.03M970.47 559.43l-10.42 17.07-9.58-17.56m9.58 17.56l.2-8.5M950.83 544.24l10.42-17.07 9.57 17.56m-9.57-17.56l-.2 8.5M1078 460.67v-46.5M1082 460.67v-46.5M1090 455.5l-10 17.33-10-17.32m10 17.33v-8.5M1070 419.32l10-17.32 10 17.32M1080 402v8.5" stroke="#008573" stroke-width="2" fill="none"/><path d="M1340 540.33a6 6 0 0 1 6-6h168a6 6 0 0 1 6 6v179.34a6 6 0 0 1-6 6h-168a6 6 0 0 1-6-6z" stroke="#000" stroke-opacity="0" stroke-width="3" fill="#fff" fill-opacity="0"/><g><use xlink:href="#x" transform="matrix(1,0,0,1,1345,539.3333333333334) translate(26.287037037037052 52.972222222222214)"/><use xlink:href="#y" transform="matrix(1,0,0,1,1345,539.3333333333334) translate(68.26234567901236 52.972222222222214)"/><use xlink:href="#l" transform="matrix(1,0,0,1,1345,539.3333333333334) translate(112.23148148148147 52.972222222222214)"/><use xlink:href="#z" transform="matrix(1,0,0,1,1345,539.3333333333334) translate(6.40123456790127 98.30555555555553)"/><use xlink:href="#A" transform="matrix(1,0,0,1,1345,539.3333333333334) translate(69.36419753086422 98.30555555555553)"/><use xlink:href="#B" transform="matrix(1,0,0,1,1345,539.3333333333334) translate(25.23765432098768 143.63888888888886)"/></g><path d="M401 559l2.94.48m3.93.64l5.9.97m3.94.63l5.9.97m3.94.64l5.9.97m3.94.66l5.9.96m3.93.65l5.92.96m3.93.65l5.9.97m3.94.64l5.9.96m3.92.64l5.9.97m3.94.64l5.9.98m3.93.65l5.9.96m3.93.64l5.9.97m3.93.65l2.95.48" stroke="#3a414a" stroke-width="2" fill="none"/><path d="M401.17 558.03l-.32 1.93-.85-.14v-1.98zM523.12 578.02l-.12.7-3-.23-1.05.08.2-1.2z" stroke="#3a414a" stroke-width=".05" fill="#3a414a"/><path d="M401 558.83h2.96m3.94-.02h5.9m3.96 0l5.9-.03m3.95 0l5.93-.02m3.94 0l5.92-.02m3.93 0l5.9-.03m3.96 0l5.9-.02m3.94 0l5.92-.02m3.94 0l5.9-.03m3.96 0l5.9-.02m3.95 0h5.93m3.94-.02l5.92-.02m3.93 0l5.9-.02m3.96 0l5.9-.03m3.94 0H539" stroke="#3a414a" stroke-width="2" fill="none"/><path d="M401.03 559.8H400v-1.94h1.02zM543 558.73l-3-.24-1.02.08v-1.06H543z" stroke="#3a414a" stroke-width=".05" fill="#3a414a"/><defs><linearGradient gradientUnits="userSpaceOnUse" id="a" x1="600" y1="740" x2="600" y2="560"><stop offset="20.65%" stop-color="#fff"/><stop offset="26.81%" stop-color="#cfe4ff"/></linearGradient><linearGradient gradientUnits="userSpaceOnUse" id="b" x1="720" y1="740" x2="720" y2="560"><stop offset="20.65%" stop-color="#fff"/><stop offset="26.81%" stop-color="#cfe4ff"/></linearGradient><linearGradient gradientUnits="userSpaceOnUse" id="c" x1="480" y1="456.33" x2="480" y2="503.67"><stop offset="38.93%" stop-color="#fff"/><stop offset="55.36%" stop-color="#c3f7c8"/></linearGradient><linearGradient gradientUnits="userSpaceOnUse" id="d" x1="520" y1="700" x2="520" y2="560"><stop offset="20.65%" stop-color="#fff"/><stop offset="26.81%" stop-color="#cfe4ff"/></linearGradient><linearGradient gradientUnits="userSpaceOnUse" id="e" x1="500" y1="720" x2="500" y2="580"><stop offset="20.65%" stop-color="#fff"/><stop offset="26.81%" stop-color="#cfe4ff"/></linearGradient><linearGradient gradientUnits="userSpaceOnUse" id="f" x1="480" y1="740" x2="480" y2="600"><stop offset="20.65%" stop-color="#fff"/><stop offset="26.81%" stop-color="#cfe4ff"/></linearGradient><path d="M266 0h-40l-56-210L115 0H75L2-248h35L96-30l15-64 43-154h32l59 218 59-218h35" id="C"/><path d="M100-194c63 0 86 42 84 106H49c0 40 14 67 53 68 26 1 43-12 49-29l28 8c-11 28-37 45-77 45C44 4 14-33 15-96c1-61 26-98 85-98zm52 81c6-60-76-77-97-28-3 7-6 17-6 28h103" id="D"/><g id="g"><use transform="matrix(0.10493827160493824,0,0,0.10493827160493824,0,0)" xlink:href="#C"/><use transform="matrix(0.10493827160493824,0,0,0.10493827160493824,34.83950617283949,0)" xlink:href="#D"/></g><path d="M96-169c-40 0-48 33-48 73s9 75 48 75c24 0 41-14 43-38l32 2c-6 37-31 61-74 61-59 0-76-41-82-99-10-93 101-131 147-64 4 7 5 14 7 22l-32 3c-4-21-16-35-41-35" id="E"/><path d="M141-36C126-15 110 5 73 4 37 3 15-17 15-53c-1-64 63-63 125-63 3-35-9-54-41-54-24 1-41 7-42 31l-33-3c5-37 33-52 76-52 45 0 72 20 72 64v82c-1 20 7 32 28 27v20c-31 9-61-2-59-35zM48-53c0 20 12 33 32 33 41-3 63-29 60-74-43 2-92-5-92 41" id="F"/><path d="M117-194c89-4 53 116 60 194h-32v-121c0-31-8-49-39-48C34-167 62-67 57 0H25l-1-190h30c1 10-1 24 2 32 11-22 29-35 61-36" id="G"/><g id="h"><use transform="matrix(0.10493827160493824,0,0,0.10493827160493824,0,0)" xlink:href="#E"/><use transform="matrix(0.10493827160493824,0,0,0.10493827160493824,18.888888888888882,0)" xlink:href="#F"/><use transform="matrix(0.10493827160493824,0,0,0.10493827160493824,39.87654320987653,0)" xlink:href="#G"/></g><path d="M106-169C34-169 62-67 57 0H25v-261h32l-1 103c12-21 28-36 61-36 89 0 53 116 60 194h-32v-121c2-32-8-49-39-48" id="H"/><path d="M108 0H70L1-190h34L89-25l56-165h34" id="I"/><g id="i"><use transform="matrix(0.10493827160493824,0,0,0.10493827160493824,0,0)" xlink:href="#H"/><use transform="matrix(0.10493827160493824,0,0,0.10493827160493824,20.987654320987648,0)" xlink:href="#F"/><use transform="matrix(0.10493827160493824,0,0,0.10493827160493824,41.975308641975296,0)" xlink:href="#I"/><use transform="matrix(0.10493827160493824,0,0,0.10493827160493824,60.864197530864175,0)" xlink:href="#D"/></g><path d="M210-169c-67 3-38 105-44 169h-31v-121c0-29-5-50-35-48C34-165 62-65 56 0H25l-1-190h30c1 10-1 24 2 32 10-44 99-50 107 0 11-21 27-35 58-36 85-2 47 119 55 194h-31v-121c0-29-5-49-35-48" id="J"/><path d="M84 4C-5 8 30-112 23-190h32v120c0 31 7 50 39 49 72-2 45-101 50-169h31l1 190h-30c-1-10 1-25-2-33-11 22-28 36-60 37" id="K"/><path d="M24 0v-261h32V0H24" id="L"/><path d="M59-47c-2 24 18 29 38 22v24C64 9 27 4 27-40v-127H5v-23h24l9-43h21v43h35v23H59v120" id="M"/><path d="M24-231v-30h32v30H24zM24 0v-190h32V0H24" id="N"/><path d="M115-194c55 1 70 41 70 98S169 2 115 4C84 4 66-9 55-30l1 105H24l-1-265h31l2 30c10-21 28-34 59-34zm-8 174c40 0 45-34 45-75s-6-73-45-74c-42 0-51 32-51 76 0 43 10 73 51 73" id="O"/><g id="j"><use transform="matrix(0.10493827160493824,0,0,0.10493827160493824,0,0)" xlink:href="#J"/><use transform="matrix(0.10493827160493824,0,0,0.10493827160493824,31.376543209876534,0)" xlink:href="#K"/><use transform="matrix(0.10493827160493824,0,0,0.10493827160493824,52.36419753086418,0)" xlink:href="#L"/><use transform="matrix(0.10493827160493824,0,0,0.10493827160493824,60.6543209876543,0)" xlink:href="#M"/><use transform="matrix(0.10493827160493824,0,0,0.10493827160493824,71.14814814814812,0)" xlink:href="#N"/><use transform="matrix(0.10493827160493824,0,0,0.10493827160493824,79.43827160493825,0)" xlink:href="#O"/><use transform="matrix(0.10493827160493824,0,0,0.10493827160493824,100.4259259259259,0)" xlink:href="#L"/><use transform="matrix(0.10493827160493824,0,0,0.10493827160493824,108.71604938271601,0)" xlink:href="#D"/></g><path d="M135-143c-3-34-86-38-87 0 15 53 115 12 119 90S17 21 10-45l28-5c4 36 97 45 98 0-10-56-113-15-118-90-4-57 82-63 122-42 12 7 21 19 24 35" id="P"/><g id="k"><use transform="matrix(0.10493827160493824,0,0,0.10493827160493824,0,0)" xlink:href="#N"/><use transform="matrix(0.10493827160493824,0,0,0.10493827160493824,8.290123456790122,0)" xlink:href="#G"/><use transform="matrix(0.10493827160493824,0,0,0.10493827160493824,29.277777777777775,0)" xlink:href="#P"/><use transform="matrix(0.10493827160493824,0,0,0.10493827160493824,48.16666666666666,0)" xlink:href="#M"/><use transform="matrix(0.10493827160493824,0,0,0.10493827160493824,58.66049382716047,0)" xlink:href="#F"/><use transform="matrix(0.10493827160493824,0,0,0.10493827160493824,79.64814814814812,0)" xlink:href="#G"/><use transform="matrix(0.10493827160493824,0,0,0.10493827160493824,100.63580246913577,0)" xlink:href="#E"/><use transform="matrix(0.10493827160493824,0,0,0.10493827160493824,119.52469135802465,0)" xlink:href="#D"/><use transform="matrix(0.10493827160493824,0,0,0.10493827160493824,140.5123456790123,0)" xlink:href="#P"/></g><path d="M100-194c62-1 85 37 85 99 1 63-27 99-86 99S16-35 15-95c0-66 28-99 85-99zM99-20c44 1 53-31 53-75 0-43-8-75-51-75s-53 32-53 75 10 74 51 75" id="Q"/><path d="M101-234c-31-9-42 10-38 44h38v23H63V0H32v-167H5v-23h27c-7-52 17-82 69-68v24" id="R"/><g id="l"><use transform="matrix(0.10493827160493824,0,0,0.10493827160493824,0,0)" xlink:href="#Q"/><use transform="matrix(0.10493827160493824,0,0,0.10493827160493824,20.987654320987648,0)" xlink:href="#R"/></g><path d="M85-194c31 0 48 13 60 33l-1-100h32l1 261h-30c-2-10 0-23-3-31C134-8 116 4 85 4 32 4 16-35 15-94c0-66 23-100 70-100zm9 24c-40 0-46 34-46 75 0 40 6 74 45 74 42 0 51-32 51-76 0-42-9-74-50-73" id="S"/><g id="m"><use transform="matrix(0.10493827160493824,0,0,0.10493827160493824,0,0)" xlink:href="#P"/><use transform="matrix(0.10493827160493824,0,0,0.10493827160493824,18.888888888888882,0)" xlink:href="#D"/><use transform="matrix(0.10493827160493824,0,0,0.10493827160493824,39.87654320987653,0)" xlink:href="#L"/><use transform="matrix(0.10493827160493824,0,0,0.10493827160493824,48.16666666666665,0)" xlink:href="#D"/><use transform="matrix(0.10493827160493824,0,0,0.10493827160493824,69.1543209876543,0)" xlink:href="#E"/><use transform="matrix(0.10493827160493824,0,0,0.10493827160493824,88.04320987654319,0)" xlink:href="#M"/><use transform="matrix(0.10493827160493824,0,0,0.10493827160493824,98.53703703703701,0)" xlink:href="#D"/><use transform="matrix(0.10493827160493824,0,0,0.10493827160493824,119.52469135802465,0)" xlink:href="#S"/></g><g id="n"><use transform="matrix(0.10493827160493824,0,0,0.10493827160493824,0,0)" xlink:href="#E"/><use transform="matrix(0.10493827160493824,0,0,0.10493827160493824,18.888888888888882,0)" xlink:href="#Q"/><use transform="matrix(0.10493827160493824,0,0,0.10493827160493824,39.87654320987653,0)" xlink:href="#J"/><use transform="matrix(0.10493827160493824,0,0,0.10493827160493824,71.25308641975306,0)" xlink:href="#O"/><use transform="matrix(0.10493827160493824,0,0,0.10493827160493824,92.2407407407407,0)" xlink:href="#Q"/><use transform="matrix(0.10493827160493824,0,0,0.10493827160493824,113.22839506172836,0)" xlink:href="#G"/><use transform="matrix(0.10493827160493824,0,0,0.10493827160493824,134.216049382716,0)" xlink:href="#D"/><use transform="matrix(0.10493827160493824,0,0,0.10493827160493824,155.20370370370364,0)" xlink:href="#G"/><use transform="matrix(0.10493827160493824,0,0,0.10493827160493824,176.19135802469128,0)" xlink:href="#M"/><use transform="matrix(0.10493827160493824,0,0,0.10493827160493824,186.6851851851851,0)" xlink:href="#P"/></g><path d="M33 0v-38h34V0H33" id="T"/><g id="o"><use transform="matrix(0.10493827160493824,0,0,0.10493827160493824,0,0)" xlink:href="#T"/><use transform="matrix(0.10493827160493824,0,0,0.10493827160493824,10.493827160493824,0)" xlink:href="#T"/><use transform="matrix(0.10493827160493824,0,0,0.10493827160493824,20.987654320987648,0)" xlink:href="#T"/></g><linearGradient gradientUnits="userSpaceOnUse" id="p" x1="1060" y1="720" x2="1060" y2="560"><stop offset="20.65%" stop-color="#fff"/><stop offset="26.81%" stop-color="#cfe4ff"/></linearGradient><linearGradient gradientUnits="userSpaceOnUse" id="q" x1="1180" y1="720" x2="1180" y2="560"><stop offset="20.65%" stop-color="#fff"/><stop offset="26.81%" stop-color="#cfe4ff"/></linearGradient><linearGradient gradientUnits="userSpaceOnUse" id="r" x1="940" y1="456.33" x2="940" y2="503.67"><stop offset="38.93%" stop-color="#fff"/><stop offset="55.36%" stop-color="#c3f7c8"/></linearGradient><linearGradient gradientUnits="userSpaceOnUse" id="s" x1="940" y1="720" x2="940" y2="560"><stop offset="20.65%" stop-color="#fff"/><stop offset="26.81%" stop-color="#cfe4ff"/></linearGradient><linearGradient gradientUnits="userSpaceOnUse" id="t" x1="1040" y1="740" x2="1040" y2="580"><stop offset="20.65%" stop-color="#fff"/><stop offset="26.81%" stop-color="#cfe4ff"/></linearGradient><linearGradient gradientUnits="userSpaceOnUse" id="u" x1="1160" y1="740" x2="1160" y2="580"><stop offset="20.65%" stop-color="#fff"/><stop offset="26.81%" stop-color="#cfe4ff"/></linearGradient><linearGradient gradientUnits="userSpaceOnUse" id="v" x1="920" y1="476.33" x2="920" y2="523.67"><stop offset="38.93%" stop-color="#fff"/><stop offset="55.36%" stop-color="#c3f7c8"/></linearGradient><linearGradient gradientUnits="userSpaceOnUse" id="w" x1="920" y1="740" x2="920" y2="580"><stop offset="20.65%" stop-color="#fff"/><stop offset="26.81%" stop-color="#cfe4ff"/></linearGradient><g id="x"><use transform="matrix(0.10493827160493824,0,0,0.10493827160493824,0,0)" xlink:href="#T"/><use transform="matrix(0.10493827160493824,0,0,0.10493827160493824,10.493827160493824,0)" xlink:href="#T"/><use transform="matrix(0.10493827160493824,0,0,0.10493827160493824,20.987654320987648,0)" xlink:href="#T"/></g><path d="M114-163C36-179 61-72 57 0H25l-1-190h30c1 12-1 29 2 39 6-27 23-49 58-41v29" id="U"/><g id="y"><use transform="matrix(0.10493827160493824,0,0,0.10493827160493824,0,0)" xlink:href="#Q"/><use transform="matrix(0.10493827160493824,0,0,0.10493827160493824,20.987654320987648,0)" xlink:href="#U"/></g><g id="z"><use transform="matrix(0.10493827160493824,0,0,0.10493827160493824,0,0)" xlink:href="#M"/><use transform="matrix(0.10493827160493824,0,0,0.10493827160493824,10.493827160493824,0)" xlink:href="#H"/><use transform="matrix(0.10493827160493824,0,0,0.10493827160493824,31.48148148148147,0)" xlink:href="#D"/></g><g id="A"><use transform="matrix(0.10493827160493824,0,0,0.10493827160493824,0,0)" xlink:href="#D"/><use transform="matrix(0.10493827160493824,0,0,0.10493827160493824,20.987654320987648,0)" xlink:href="#G"/><use transform="matrix(0.10493827160493824,0,0,0.10493827160493824,41.975308641975296,0)" xlink:href="#M"/><use transform="matrix(0.10493827160493824,0,0,0.10493827160493824,52.46913580246912,0)" xlink:href="#N"/><use transform="matrix(0.10493827160493824,0,0,0.10493827160493824,60.75925925925924,0)" xlink:href="#U"/><use transform="matrix(0.10493827160493824,0,0,0.10493827160493824,73.24691358024688,0)" xlink:href="#D"/></g><path d="M179-190L93 31C79 59 56 82 12 73V49c39 6 53-20 64-50L1-190h34L92-34l54-156h33" id="V"/><g id="B"><use transform="matrix(0.10493827160493824,0,0,0.10493827160493824,0,0)" xlink:href="#P"/><use transform="matrix(0.10493827160493824,0,0,0.10493827160493824,18.888888888888882,0)" xlink:href="#V"/><use transform="matrix(0.10493827160493824,0,0,0.10493827160493824,37.777777777777764,0)" xlink:href="#P"/><use transform="matrix(0.10493827160493824,0,0,0.10493827160493824,56.66666666666665,0)" xlink:href="#M"/><use transform="matrix(0.10493827160493824,0,0,0.10493827160493824,67.16049382716047,0)" xlink:href="#D"/><use transform="matrix(0.10493827160493824,0,0,0.10493827160493824,88.14814814814811,0)" xlink:href="#J"/></g></defs></g></svg>