<svg xmlns="http://www.w3.org/2000/svg" xmlns:xlink="http://www.w3.org/1999/xlink" xmlns:lucid="lucid" width="1226" height="462.5"><g transform="translate(-278.5 -458.5)" lucid:page-tab-id="0_0"><path d="M860 702.5l.03 17" stroke="#000" stroke-width="2" fill="none"/><path d="M860.98 702.52h-1.95v-1.02h1.95z" stroke="#000" stroke-width=".05"/><path d="M860.06 734.76l-4.66-14.25h9.27z" stroke="#000" stroke-width="2"/><path d="M880 682.5v37" stroke="#000" stroke-width="2" fill="none"/><path d="M880.98 682.53H879v-1.03H881z" stroke="#000" stroke-width=".05"/><path d="M880 734.76l-4.63-14.26h9.26z" stroke="#000" stroke-width="2"/><path d="M900 662.5l-.05 57" stroke="#000" stroke-width="2" fill="none"/><path d="M900.97 662.53h-1.95v-1.03H901z" stroke="#000" stroke-width=".05"/><path d="M899.94 734.76l-4.63-14.27h9.28z" stroke="#000" stroke-width="2"/><path d="M280 481.5a20 20 0 0 1 20-20h40a20 20 0 0 1 20 20V680a20 20 0 0 1-20 20h-40a20 20 0 0 1-20-20z" stroke="#000" stroke-width="3" fill="url(#a)"/><path d="M420 481.5a20 20 0 0 1 20-20h40a20 20 0 0 1 20 20V680a20 20 0 0 1-20 20h-40a20 20 0 0 1-20-20z" stroke="#000" stroke-width="3" fill="url(#b)"/><path d="M560 480a20 20 0 0 1 20-20h40a20 20 0 0 1 20 20v200a20 20 0 0 1-20 20h-40a20 20 0 0 1-20-20z" stroke="#000" stroke-width="3" fill="url(#c)"/><path d="M600 702.5l-.23 17" stroke="#000" stroke-width="2" fill="none"/><path d="M600.96 702.54l-1.95-.03.02-1H601z" stroke="#000" stroke-width=".05"/><path d="M599.58 734.76l-4.46-14.32 9.27.12z" stroke="#000" stroke-width="2"/><path d="M280 759.5a20 20 0 0 1 20-20h320a20 20 0 0 1 20 20v2a20 20 0 0 1-20 20H300a20 20 0 0 1-20-20z" stroke="#000" stroke-width="3" fill="#ced4db"/><use xlink:href="#d" transform="matrix(1,0,0,1,285,744.4999500000047) translate(71.37537037037038 23.333333333333336)"/><use xlink:href="#e" transform="matrix(1,0,0,1,285,744.4999500000047) translate(164.63462962962961 23.333333333333336)"/><path d="M460 702.5v17" stroke="#000" stroke-width="2" fill="none"/><path d="M460.98 702.53h-1.96v-1.03h1.96z" stroke="#000" stroke-width=".05"/><path d="M460 734.76l-4.63-14.26h9.26z" stroke="#000" stroke-width="2"/><path d="M320 702.5l.23 17" stroke="#000" stroke-width="2" fill="none"/><path d="M321 702.5l-1.96.04-.02-1.04h1.96z" stroke="#000" stroke-width=".05"/><path d="M320.42 734.76l-4.8-14.2 9.26-.12z" stroke="#000" stroke-width="2"/><path d="M280 806.5a6 6 0 0 1 6-6h348a6 6 0 0 1 6 6v88a6 6 0 0 1-6 6H286a6 6 0 0 1-6-6z" stroke="#000" stroke-opacity="0" stroke-width="3" fill="#fff" fill-opacity="0"/><use xlink:href="#f" transform="matrix(1,0,0,1,285,805.4999500000047) translate(17.320987654321044 31.288194444444436)"/><use xlink:href="#g" transform="matrix(1,0,0,1,285,805.4999500000047) translate(147.49382716049382 31.288194444444436)"/><use xlink:href="#h" transform="matrix(1,0,0,1,285,805.4999500000047) translate(73.37037037037041 73.95486111111109)"/><use xlink:href="#i" transform="matrix(1,0,0,1,285,805.4999500000047) translate(130.4567901234568 73.95486111111109)"/><path d="M760 759.5a20 20 0 0 1 20-20h200a20 20 0 0 1 20 20v2a20 20 0 0 1-20 20H780a20 20 0 0 1-20-20z" stroke="#000" stroke-width="3" fill="#ced4db"/><use xlink:href="#d" transform="matrix(1,0,0,1,765,744.4999500000047) translate(11.375370370370371 23.333333333333336)"/><use xlink:href="#e" transform="matrix(1,0,0,1,765,744.4999500000047) translate(104.63462962962963 23.333333333333336)"/><path d="M800 481.5a20 20 0 0 1 20-20h160a20 20 0 0 1 20 20V640a20 20 0 0 1-20 20H820a20 20 0 0 1-20-20z" stroke="#000" stroke-width="3" fill="url(#j)"/><path d="M780 500a20 20 0 0 1 20-20h160a20 20 0 0 1 20 20v160a20 20 0 0 1-20 20H800a20 20 0 0 1-20-20z" stroke="#000" stroke-width="3" fill="url(#k)"/><path d="M760 521.5a20 20 0 0 1 20-20h160a20 20 0 0 1 20 20V680a20 20 0 0 1-20 20H780a20 20 0 0 1-20-20z" stroke="#000" stroke-width="3" fill="url(#l)"/><path d="M710 787.5a6 6 0 0 1 6-6h328a6 6 0 0 1 6 6v126a6 6 0 0 1-6 6H716a6 6 0 0 1-6-6z" stroke="#000" stroke-opacity="0" stroke-width="3" fill="#fff" fill-opacity="0"/><use xlink:href="#f" transform="matrix(1,0,0,1,715,786.4999500000047) translate(7.320987654321044 48.444444444444436)"/><use xlink:href="#g" transform="matrix(1,0,0,1,715,786.4999500000047) translate(137.49382716049382 48.444444444444436)"/><use xlink:href="#h" transform="matrix(1,0,0,1,715,786.4999500000047) translate(76.30864197530869 91.11111111111109)"/><use xlink:href="#m" transform="matrix(1,0,0,1,715,786.4999500000047) translate(133.3950617283951 91.11111111111109)"/><path d="M1101 520h3.98m7.96 0h7.96m7.96 0h7.96m7.96 0h7.96m7.96 0h7.96m7.96 0h7.96m7.96 0h7.96m7.96 0h7.96m7.96 0h7.96m7.96 0h7.96m7.96 0h7.96m7.96 0h7.96m7.96 0h7.96m7.96 0h7.96m7.96 0h7.96m7.96 0h7.96m7.96 0h7.96m7.96 0h7.96m7.96 0h7.96m7.96 0h7.96m7.96 0h7.96m7.96 0h7.96m7.96 0h7.96m7.96 0h7.96m7.96 0h7.96m7.96 0h3.98M1101.03 520H1100M1498.97 520h1.03M1101 640h3.98m7.96 0h7.96m7.96 0h7.96m7.96 0h7.96m7.96 0h7.96m7.96 0h7.96m7.96 0h7.96m7.96 0h7.96m7.96 0h7.96m7.96 0h7.96m7.96 0h7.96m7.96 0h7.96m7.96 0h7.96m7.96 0h7.96m7.96 0h7.96m7.96 0h7.96m7.96 0h7.96m7.96 0h7.96m7.96 0h7.96m7.96 0h7.96m7.96 0h7.96m7.96 0h7.96m7.96 0h7.96m7.96 0h7.96m7.96 0h7.96m7.96 0h3.98M1101.03 640H1100M1498.97 640h1.03" stroke="#ba23f6" stroke-width="2" fill="none"/><path d="M1120 560a20 20 0 0 1 20-20h20a20 20 0 0 1 20 20v41.5a20 20 0 0 1-20 20h-20a20 20 0 0 1-20-20zM1270 560.5a20 20 0 0 1 20-20h20a20 20 0 0 1 20 20V602a20 20 0 0 1-20 20h-20a20 20 0 0 1-20-20zM1420 560a20 20 0 0 1 20-20h20a20 20 0 0 1 20 20v41.5a20 20 0 0 1-20 20h-20a20 20 0 0 1-20-20z" stroke="#000" stroke-width="3" fill="#cfe4ff"/><path d="M1140 481.5a20 20 0 0 1 20-20h80a20 20 0 0 1 20 20 20 20 0 0 1-20 20h-80a20 20 0 0 1-20-20z" stroke="#000" stroke-width="3" fill="url(#n)"/><path d="M1340 480a20 20 0 0 1 20-20h80a20 20 0 0 1 20 20 20 20 0 0 1-20 20h-80a20 20 0 0 1-20-20z" stroke="#000" stroke-width="3" fill="url(#o)"/><path d="M1100 680a20 20 0 0 1 20-20 20 20 0 0 1 20 20 20 20 0 0 1-20 20 20 20 0 0 1-20-20zM1224 680a20 20 0 0 1 20-20 20 20 0 0 1 20 20 20 20 0 0 1-20 20 20 20 0 0 1-20-20z" stroke="#000" stroke-width="3" fill="#cfe4ff"/><path d="M1342 680a20 20 0 0 1 20-20 20 20 0 0 1 20 20 20 20 0 0 1-20 20 20 20 0 0 1-20-20zM1460 680a20 20 0 0 1 20-20 20 20 0 0 1 20 20 20 20 0 0 1-20 20 20 20 0 0 1-20-20z" stroke="#000" stroke-width="3" fill="#fff"/><path d="M1100 759a20 20 0 0 1 20-20h363a20 20 0 0 1 20 20v2a20 20 0 0 1-20 20h-363a20 20 0 0 1-20-20z" stroke="#000" stroke-width="3" fill="#ced4db"/><use xlink:href="#d" transform="matrix(1,0,0,1,1105.0001444771995,744) translate(92.87537037037038 23.333333333333336)"/><use xlink:href="#e" transform="matrix(1,0,0,1,1105.0001444771995,744) translate(186.13462962962961 23.333333333333336)"/><path d="M1120.02 702.5l.27 16.5" stroke="#000" stroke-width="2" fill="none"/><path d="M1120 701.5l.97-.07.02 1.08-1.96.05-.02-1.12z" stroke="#000" stroke-width=".05"/><path d="M1120.55 734.26l-4.88-14.18 9.27-.16z" stroke="#000" stroke-width="2"/><path d="M1244 702.5l.1 16.5" stroke="#000" stroke-width="2" fill="none"/><path d="M1244 701.5l.97-.07v1.1h-1.94v-1.1z" stroke="#000" stroke-width=".05"/><path d="M1244.17 734.26l-4.7-14.24 9.26-.05z" stroke="#000" stroke-width="2"/><path d="M1450 624l-.4 95" stroke="#000" stroke-width="2" fill="none"/><path d="M1450.97 624.03h-1.95V623h1.96z" stroke="#000" stroke-width=".05"/><path d="M1449.52 734.26l-4.57-14.28 9.27.04z" stroke="#000" stroke-width="2"/><path d="M1300 624.5V719" stroke="#000" stroke-width="2" fill="none"/><path d="M1300.97 624.52h-1.94v-1.02h1.94z" stroke="#000" stroke-width=".05"/><path d="M1300 734.26l-4.63-14.26h9.27z" stroke="#000" stroke-width="2"/><path d="M1150 624l.42 95" stroke="#000" stroke-width="2" fill="none"/><path d="M1150.98 624.02h-1.95V623h1.94z" stroke="#000" stroke-width=".05"/><path d="M1150.5 734.26l-4.7-14.24 9.26-.04z" stroke="#000" stroke-width="2"/><path d="M1120 806.5a6 6 0 0 1 6-6h348a6 6 0 0 1 6 6v88a6 6 0 0 1-6 6h-348a6 6 0 0 1-6-6z" stroke="#000" stroke-opacity="0" stroke-width="3" fill="#fff" fill-opacity="0"/><use xlink:href="#f" transform="matrix(1,0,0,1,1125,805.4999500000047) translate(17.820987654321044 31.288194444444436)"/><use xlink:href="#g" transform="matrix(1,0,0,1,1125,805.4999500000047) translate(147.99382716049382 31.288194444444436)"/><use xlink:href="#h" transform="matrix(1,0,0,1,1125,805.4999500000047) translate(108.48765432098767 73.95486111111109)"/><use xlink:href="#p" transform="matrix(1,0,0,1,1125,805.4999500000047) translate(165.57407407407408 73.95486111111109)"/><path d="M375.66 578.75h9.56m9.56 0h9.56M375.66 582.75h9.56m9.56 0h9.56M380.82 590.75l-17.32-10 17.32-10m-17.32 10h8.5M399.18 570.75l17.32 10-17.32 10m17.32-10H408M515.66 578.75h9.56m9.56 0h9.56M515.66 582.75h9.56m9.56 0h9.56M520.82 590.75l-17.32-10 17.32-10m-17.32 10h8.5M539.18 570.75l17.32 10-17.32 10m17.32-10H548M1213.7 506.98l57.07 25.64M1212.05 510.63l57.08 25.64M1213.48 520.04l-11.7-16.22 19.9-2.02m-19.9 2.02l7.75 3.48M1269.34 523.2l11.7 16.23-19.9 2.03m19.9-2.03l-7.76-3.48M1266.1 501.12l144.56 39.2M1265.06 504.98l144.55 39.2M1267.95 514.05l-14.1-14.2 19.33-5.1m-19.33 5.1l8.2 2.24M1407.77 531.25l14.1 14.18-19.33 5.12m19.33-5.12l-8.2-2.22M1155.67 516.9l-1.34 7.97M1151.73 516.23l-1.35 7.97M1142.98 520l12.74-15.43 6.98 18.75m-6.98-18.75l-1.4 8.38" stroke="#000" stroke-width="2" fill="none"/><path d="M1163.08 521.1l-12.75 15.43-6.98-18.75m6.98 18.75l1.42-8.38M1339.96 505.47l-155.58 34.48M1339.1 501.56l-155.58 34.48M1332.33 494.87l19.07 6-14.74 13.53m14.74-13.5l-8.3 1.82M1191.15 546.64l-19.07-6 14.74-13.52m-14.74 13.5l8.3-1.83M1385.46 509.95l-50.96 27.27M1383.57 506.42l-50.95 27.28M1375.25 501.8l20 .64-10.56 17m10.54-17l-7.5 4M1342.83 541.84l-20-.64 10.56-17m-10.56 17l7.5-4M1446.8 514.76l2.1 9.48M1442.9 515.62l2.1 9.5M1436.2 522.4l6.02-19.08 13.5 14.75m-13.5-14.75l1.84 8.3" stroke="#000" stroke-width="2" fill="none"/><path d="M1455.6 517.48l-6.03 19.07-13.5-14.76m13.5 14.75l-1.84-8.3M1128.85 635.08l-3 10.37M1125 633.97l-3 10.37M1115.9 636.7l14.4-13.86 4.8 19.42m-4.8-19.42l-2.35 8.17M1134.97 642.7l-14.4 13.87-4.8-19.4m4.8 19.4l2.35-8.16M1263.87 625.42l-111.16 41.1M1262.5 621.66l-111.17 41.1M1254.87 615.95l19.72 3.37-12.8 15.4m12.8-15.4l-8 2.95M1160.33 672.23l-19.72-3.38 12.8-15.38m-12.8 15.38l8-2.94M1177.27 615.7l149.65 46.2" stroke="#000" stroke-width="2" fill="none"/><path d="M1177.58 614.78l-.58 1.87-1.38-.43 1.38-1.62z" stroke="#000" stroke-width=".05"/><path d="M1341.5 666.4l-15 .23 2.75-8.86z" stroke="#000" stroke-width="2"/><path d="M1175.2 628.15l44.86 25.68M1173.2 631.62l44.88 25.68M1173.7 641.13l-10.05-17.28 20-.08m-20 .08l7.37 4.22M1219.56 644.33l10.06 17.28-20 .08m20-.07l-7.37-4.2M1281.48 636.12l-12.57 18.17M1278.2 633.85L1265.6 652M1268.68 633.53l18.08-8.55-1.64 19.94m1.64-19.94l-4.84 7M1278.42 654.6l-18.08 8.55 1.64-19.93m-1.64 19.93l4.84-7M1321.7 621.14l17.9 25.78" stroke="#000" stroke-width="2" fill="none"/><path d="M1322.52 620.6l-1.6 1.12-.62-.9 1.67-1z" stroke="#000" stroke-width=".05"/><path d="M1348.3 659.47l-11.95-9.08 7.62-5.3z" stroke="#000" stroke-width="2"/><path d="M1329.25 613.5l116.26 46.86" stroke="#000" stroke-width="2" fill="none"/><path d="M1329.64 612.6l-.73 1.82-1.1-.44 1.04-1.7z" stroke="#000" stroke-width=".05"/><path d="M1459.67 666.07l-14.97-1.03 3.47-8.6z" stroke="#000" stroke-width="2"/><path d="M1428.86 620.9l-40.06 30.2" stroke="#000" stroke-width="2" fill="none"/><path d="M1430.24 620.66l.36.15-1.18.9-1.17-1.56.5-.38z" stroke="#000" stroke-width=".05"/><path d="M1376.6 660.28l8.6-12.3 5.6 7.4z" stroke="#000" stroke-width="2"/><path d="M1469.07 622.02l5.62 18.75" stroke="#000" stroke-width="2" fill="none"/><path d="M1470 621.77l-1.86.56-.26-.9 1.8-.74z" stroke="#000" stroke-width=".05"/><path d="M1479.07 655.4l-8.53-12.34 8.88-2.66z" stroke="#000" stroke-width="2"/><defs><linearGradient gradientUnits="userSpaceOnUse" id="a" x1="280" y1="700" x2="280" y2="461.5"><stop offset="19.93%" stop-color="#fff"/><stop offset="27.17%" stop-color="#cfe4ff"/><stop offset="68.12%" stop-color="#cfe4ff"/><stop offset="75%" stop-color="#c3f7c8"/></linearGradient><linearGradient gradientUnits="userSpaceOnUse" id="b" x1="420" y1="700" x2="420" y2="461.5"><stop offset="19.93%" stop-color="#fff"/><stop offset="27.17%" stop-color="#cfe4ff"/><stop offset="68.12%" stop-color="#cfe4ff"/><stop offset="75%" stop-color="#c3f7c8"/></linearGradient><linearGradient gradientUnits="userSpaceOnUse" id="c" x1="560" y1="700" x2="560" y2="460"><stop offset="19.93%" stop-color="#fff"/><stop offset="27.17%" stop-color="#cfe4ff"/><stop offset="68.12%" stop-color="#cfe4ff"/><stop offset="75%" stop-color="#c3f7c8"/></linearGradient><path d="M185-189c-5-48-123-54-124 2 14 75 158 14 163 119 3 78-121 87-175 55-17-10-28-26-33-46l33-7c5 56 141 63 141-1 0-78-155-14-162-118-5-82 145-84 179-34 5 7 8 16 11 25" id="q"/><path d="M106-169C34-169 62-67 57 0H25v-261h32l-1 103c12-21 28-36 61-36 89 0 53 116 60 194h-32v-121c2-32-8-49-39-48" id="r"/><path d="M141-36C126-15 110 5 73 4 37 3 15-17 15-53c-1-64 63-63 125-63 3-35-9-54-41-54-24 1-41 7-42 31l-33-3c5-37 33-52 76-52 45 0 72 20 72 64v82c-1 20 7 32 28 27v20c-31 9-61-2-59-35zM48-53c0 20 12 33 32 33 41-3 63-29 60-74-43 2-92-5-92 41" id="s"/><path d="M114-163C36-179 61-72 57 0H25l-1-190h30c1 12-1 29 2 39 6-27 23-49 58-41v29" id="t"/><path d="M100-194c63 0 86 42 84 106H49c0 40 14 67 53 68 26 1 43-12 49-29l28 8c-11 28-37 45-77 45C44 4 14-33 15-96c1-61 26-98 85-98zm52 81c6-60-76-77-97-28-3 7-6 17-6 28h103" id="u"/><path d="M85-194c31 0 48 13 60 33l-1-100h32l1 261h-30c-2-10 0-23-3-31C134-8 116 4 85 4 32 4 16-35 15-94c0-66 23-100 70-100zm9 24c-40 0-46 34-46 75 0 40 6 74 45 74 42 0 51-32 51-76 0-42-9-74-50-73" id="v"/><g id="d"><use transform="matrix(0.07407407407407408,0,0,0.07407407407407408,0,0)" xlink:href="#q"/><use transform="matrix(0.07407407407407408,0,0,0.07407407407407408,17.77777777777778,0)" xlink:href="#r"/><use transform="matrix(0.07407407407407408,0,0,0.07407407407407408,32.592592592592595,0)" xlink:href="#s"/><use transform="matrix(0.07407407407407408,0,0,0.07407407407407408,47.40740740740741,0)" xlink:href="#t"/><use transform="matrix(0.07407407407407408,0,0,0.07407407407407408,56.22222222222223,0)" xlink:href="#u"/><use transform="matrix(0.07407407407407408,0,0,0.07407407407407408,71.03703703703704,0)" xlink:href="#v"/></g><path d="M30-248c118-7 216 8 213 122C240-48 200 0 122 0H30v-248zM63-27c89 8 146-16 146-99s-60-101-146-95v194" id="w"/><path d="M59-47c-2 24 18 29 38 22v24C64 9 27 4 27-40v-127H5v-23h24l9-43h21v43h35v23H59v120" id="x"/><path d="M115-194c53 0 69 39 70 98 0 66-23 100-70 100C84 3 66-7 56-30L54 0H23l1-261h32v101c10-23 28-34 59-34zm-8 174c40 0 45-34 45-75 0-40-5-75-45-74-42 0-51 32-51 76 0 43 10 73 51 73" id="y"/><path d="M135-143c-3-34-86-38-87 0 15 53 115 12 119 90S17 21 10-45l28-5c4 36 97 45 98 0-10-56-113-15-118-90-4-57 82-63 122-42 12 7 21 19 24 35" id="z"/><g id="e"><use transform="matrix(0.07407407407407408,0,0,0.07407407407407408,0,0)" xlink:href="#w"/><use transform="matrix(0.07407407407407408,0,0,0.07407407407407408,19.185185185185187,0)" xlink:href="#s"/><use transform="matrix(0.07407407407407408,0,0,0.07407407407407408,34,0)" xlink:href="#x"/><use transform="matrix(0.07407407407407408,0,0,0.07407407407407408,41.407407407407405,0)" xlink:href="#s"/><use transform="matrix(0.07407407407407408,0,0,0.07407407407407408,56.22222222222222,0)" xlink:href="#y"/><use transform="matrix(0.07407407407407408,0,0,0.07407407407407408,71.03703703703704,0)" xlink:href="#s"/><use transform="matrix(0.07407407407407408,0,0,0.07407407407407408,85.85185185185185,0)" xlink:href="#z"/><use transform="matrix(0.07407407407407408,0,0,0.07407407407407408,99.1851851851852,0)" xlink:href="#u"/></g><path d="M178-136c88 48 22 151-73 140C49-3 12-15 4-64l51-9c1 50 111 53 115 3-16-63-132-20-133-112 0-93 190-91 199-10l-50 12c-4-41-93-50-97-4 7 38 59 32 89 48" id="A"/><path d="M150-105c8-23 8-54-22-51-68 7-54 98-72 156H6l50-261h50L85-158c15-20 33-36 66-36 95 0 34 128 28 194h-49" id="B"/><path d="M166-52c-4 17 5 29 24 23l-3 27c-30 11-74 1-67-34C105-15 91 4 56 4 23 4 3-15 2-49c0-64 63-67 128-67 10-22 3-53-29-45-13 3-22 10-25 24l-46-5c5-64 156-77 153 0-1 33-11 60-17 90zM97-88c-44-9-64 57-19 57 31 0 42-28 47-57H97" id="C"/><path d="M84-151c13-25 34-51 72-40l-8 41C67-170 71-64 56 0H6l36-190h47" id="D"/><path d="M114-194c63-2 87 48 72 110H63c-3 28 1 55 31 54 21-1 32-13 37-29l44 13C160-14 137 4 91 4 41 4 11-22 11-73c0-71 33-119 103-121zm30 77c14-47-50-61-67-22-3 6-6 13-8 22h75" id="E"/><path d="M132-28C118-9 101 4 69 4 30 4 10-23 10-62c0-70 24-129 92-132 31-1 47 14 56 35l19-102h49L179 0h-49zM62-69c0 22 7 39 29 39 45-2 54-45 57-90 2-27-10-40-33-40-44 0-53 48-53 91" id="F"/><g id="f"><use transform="matrix(0.0987654320987654,0,0,0.0987654320987654,0,0)" xlink:href="#A"/><use transform="matrix(0.0987654320987654,0,0,0.0987654320987654,23.703703703703695,0)" xlink:href="#B"/><use transform="matrix(0.0987654320987654,0,0,0.0987654320987654,45.333333333333314,0)" xlink:href="#C"/><use transform="matrix(0.0987654320987654,0,0,0.0987654320987654,65.08641975308639,0)" xlink:href="#D"/><use transform="matrix(0.0987654320987654,0,0,0.0987654320987654,78.91358024691354,0)" xlink:href="#E"/><use transform="matrix(0.0987654320987654,0,0,0.0987654320987654,98.66666666666661,0)" xlink:href="#F"/></g><path d="M258-177c0 46-32 67-71 75L235 0h-57l-41-94H76L58 0H6l48-248c89 2 204-19 204 71zm-53 3c0-46-63-30-107-33l-14 73c51-2 120 13 121-40" id="G"/><path d="M156-122c2-23-7-37-28-37-47 0-58 44-58 89 0 24 12 40 36 40 43 0 47-49 50-92zM-8 75l50-265h48c0 10-3 24-3 30 22-50 127-45 121 29-6 73-21 135-92 135-29 0-46-14-55-35L41 75H-8" id="H"/><path d="M124-194c51 0 84 22 84 74C207-44 167 4 94 4 43 4 11-23 11-74c0-74 41-120 113-120zM99-30c46 0 58-42 58-86 0-27-11-44-37-44-44 0-55 40-57 84-1 27 10 45 36 46" id="I"/><path d="M144-137c-1-29-70-35-71-2 16 41 103 10 103 80C176 9 79 16 32-9 18-17 9-31 4-48l44-6c3 32 80 36 82 1-15-42-103-11-103-82 0-77 157-79 161-8" id="J"/><path d="M50-224l7-37h49l-7 37H50zM6 0l37-190h49L55 0H6" id="K"/><path d="M72-63c-8 23 5 39 32 30L98-1C54 14 12-6 23-64l18-93H15l7-33h28l24-45h31l-8 45h35l-6 33H90" id="L"/><path d="M100 10C77 47 50 87-15 72l7-35c37 9 51-18 65-41L20-190h51L89-44l73-146h53" id="M"/><g id="g"><use transform="matrix(0.0987654320987654,0,0,0.0987654320987654,0,0)" xlink:href="#G"/><use transform="matrix(0.0987654320987654,0,0,0.0987654320987654,25.58024691358024,0)" xlink:href="#E"/><use transform="matrix(0.0987654320987654,0,0,0.0987654320987654,45.333333333333314,0)" xlink:href="#H"/><use transform="matrix(0.0987654320987654,0,0,0.0987654320987654,66.96296296296293,0)" xlink:href="#I"/><use transform="matrix(0.0987654320987654,0,0,0.0987654320987654,88.59259259259255,0)" xlink:href="#J"/><use transform="matrix(0.0987654320987654,0,0,0.0987654320987654,108.34567901234561,0)" xlink:href="#K"/><use transform="matrix(0.0987654320987654,0,0,0.0987654320987654,118.22222222222219,0)" xlink:href="#L"/><use transform="matrix(0.0987654320987654,0,0,0.0987654320987654,129.97530864197526,0)" xlink:href="#I"/><use transform="matrix(0.0987654320987654,0,0,0.0987654320987654,151.60493827160488,0)" xlink:href="#D"/><use transform="matrix(0.0987654320987654,0,0,0.0987654320987654,165.43209876543204,0)" xlink:href="#M"/></g><path d="M93-157L62 0H13l31-157H16l6-33h28c2-54 40-81 100-68l-6 32c-29-8-44 9-45 36h38l-7 33H93" id="N"/><g id="h"><use transform="matrix(0.0987654320987654,0,0,0.0987654320987654,0,0)" xlink:href="#N"/><use transform="matrix(0.0987654320987654,0,0,0.0987654320987654,11.753086419753082,0)" xlink:href="#I"/><use transform="matrix(0.0987654320987654,0,0,0.0987654320987654,33.38271604938271,0)" xlink:href="#D"/></g><path d="M109 0H50L19-190h51L86-37l77-153h54" id="O"/><path d="M67-101c-8 29-7 73 27 71 23-2 32-16 39-37l48 9C170-19 141 4 91 4 36 4 7-28 12-86c6-75 61-124 140-103 26 7 40 29 43 59l-50 4c-1-20-9-34-29-34-35 0-41 29-49 59" id="P"/><g id="i"><use transform="matrix(0.0987654320987654,0,0,0.0987654320987654,0,0)" xlink:href="#A"/><use transform="matrix(0.0987654320987654,0,0,0.0987654320987654,23.703703703703695,0)" xlink:href="#E"/><use transform="matrix(0.0987654320987654,0,0,0.0987654320987654,43.45679012345677,0)" xlink:href="#D"/><use transform="matrix(0.0987654320987654,0,0,0.0987654320987654,57.28395061728393,0)" xlink:href="#O"/><use transform="matrix(0.0987654320987654,0,0,0.0987654320987654,77.03703703703701,0)" xlink:href="#K"/><use transform="matrix(0.0987654320987654,0,0,0.0987654320987654,86.91358024691355,0)" xlink:href="#P"/><use transform="matrix(0.0987654320987654,0,0,0.0987654320987654,106.66666666666663,0)" xlink:href="#E"/><use transform="matrix(0.0987654320987654,0,0,0.0987654320987654,126.41975308641972,0)" xlink:href="#J"/></g><linearGradient gradientUnits="userSpaceOnUse" id="j" x1="800" y1="660" x2="800" y2="461.5"><stop offset="19.93%" stop-color="#fff"/><stop offset="27.17%" stop-color="#cfe4ff"/><stop offset="68.12%" stop-color="#cfe4ff"/><stop offset="75%" stop-color="#c3f7c8"/></linearGradient><linearGradient gradientUnits="userSpaceOnUse" id="k" x1="780" y1="680" x2="780" y2="480"><stop offset="19.93%" stop-color="#fff"/><stop offset="27.17%" stop-color="#cfe4ff"/><stop offset="68.12%" stop-color="#cfe4ff"/><stop offset="75%" stop-color="#c3f7c8"/></linearGradient><linearGradient gradientUnits="userSpaceOnUse" id="l" x1="760" y1="700" x2="760" y2="501.5"><stop offset="19.93%" stop-color="#fff"/><stop offset="27.17%" stop-color="#cfe4ff"/><stop offset="68.12%" stop-color="#cfe4ff"/><stop offset="75%" stop-color="#c3f7c8"/></linearGradient><g id="m"><use transform="matrix(0.0987654320987654,0,0,0.0987654320987654,0,0)" xlink:href="#A"/><use transform="matrix(0.0987654320987654,0,0,0.0987654320987654,23.703703703703695,0)" xlink:href="#B"/><use transform="matrix(0.0987654320987654,0,0,0.0987654320987654,45.333333333333314,0)" xlink:href="#C"/><use transform="matrix(0.0987654320987654,0,0,0.0987654320987654,65.08641975308639,0)" xlink:href="#D"/><use transform="matrix(0.0987654320987654,0,0,0.0987654320987654,78.91358024691354,0)" xlink:href="#F"/><use transform="matrix(0.0987654320987654,0,0,0.0987654320987654,100.54320987654316,0)" xlink:href="#J"/></g><linearGradient gradientUnits="userSpaceOnUse" id="n" x1="1140" y1="461.5" x2="1140" y2="501.5"><stop offset="19.29%" stop-color="#fff"/><stop offset="35%" stop-color="#c3f7c8"/></linearGradient><linearGradient gradientUnits="userSpaceOnUse" id="o" x1="1340" y1="460" x2="1340" y2="500"><stop offset="19.29%" stop-color="#fff"/><stop offset="35%" stop-color="#c3f7c8"/></linearGradient><path d="M18-101c0-91 52-150 145-150 68 0 111 34 111 101C274-54 221 4 128 4 59 4 18-33 18-101zm202-32c4-46-15-77-59-77-65 0-88 46-91 108-2 41 22 65 60 65 60 0 84-40 90-96" id="Q"/><path d="M183 0l-10-63H79L44 0H-7l138-248h61L234 0h-51zm-14-102l-15-108c-16 38-36 73-55 108h70" id="R"/><g id="p"><use transform="matrix(0.0987654320987654,0,0,0.0987654320987654,0,0)" xlink:href="#A"/><use transform="matrix(0.0987654320987654,0,0,0.0987654320987654,23.703703703703695,0)" xlink:href="#Q"/><use transform="matrix(0.0987654320987654,0,0,0.0987654320987654,51.358024691358004,0)" xlink:href="#R"/></g></defs></g></svg>