<svg xmlns="http://www.w3.org/2000/svg" xmlns:xlink="http://www.w3.org/1999/xlink" xmlns:lucid="lucid" width="903" height="364"><g transform="translate(-78.5 -657.5)" lucid:page-tab-id="0_0"><path d="M80 666a6 6 0 0 1 6-6h228a6 6 0 0 1 6 6v348a6 6 0 0 1-6 6H86a6 6 0 0 1-6-6z" stroke="#000" stroke-opacity="0" stroke-width="3" fill="#fff" fill-opacity="0"/><use xlink:href="#a" transform="matrix(1,0,0,1,85,665) translate(40.765432098765444 106.92013888888889)"/><use xlink:href="#b" transform="matrix(1,0,0,1,85,665) translate(32.16666666666667 144.25347222222223)"/><use xlink:href="#c" transform="matrix(1,0,0,1,85,665) translate(6.197530864197546 181.58680555555554)"/><use xlink:href="#d" transform="matrix(1,0,0,1,85,665) translate(123.72839506172839 181.58680555555554)"/><use xlink:href="#e" transform="matrix(1,0,0,1,85,665) translate(163.39506172839506 181.58680555555554)"/><use xlink:href="#f" transform="matrix(1,0,0,1,85,665) translate(27.888888888888914 218.92013888888889)"/><use xlink:href="#g" transform="matrix(1,0,0,1,85,665) translate(91.66666666666667 218.92013888888889)"/><use xlink:href="#h" transform="matrix(1,0,0,1,85,665) translate(56.320987654320994 256.2534722222222)"/><path d="M760.48 666a6 6 0 0 1 6-6H974a6 6 0 0 1 6 6v348a6 6 0 0 1-6 6H766.48a6 6 0 0 1-6-6z" stroke="#000" stroke-opacity="0" stroke-width="3" fill="#fff" fill-opacity="0"/><use xlink:href="#i" transform="matrix(1,0,0,1,765.4779846498043,665) translate(10.888888888888914 106.92013888888889)"/><use xlink:href="#j" transform="matrix(1,0,0,1,765.4779846498043,665) translate(55.82716049382718 106.92013888888889)"/><use xlink:href="#k" transform="matrix(1,0,0,1,765.4779846498043,665) translate(107.67901234567901 106.92013888888889)"/><use xlink:href="#l" transform="matrix(1,0,0,1,765.4779846498043,665) translate(176.72839506172838 106.92013888888889)"/><use xlink:href="#m" transform="matrix(1,0,0,1,765.4779846498043,665) translate(4.925925925925952 144.25347222222223)"/><use xlink:href="#n" transform="matrix(1,0,0,1,765.4779846498043,665) translate(161.8641975308642 144.25347222222223)"/><use xlink:href="#o" transform="matrix(1,0,0,1,765.4779846498043,665) translate(12.660493827160508 181.58680555555554)"/><use xlink:href="#p" transform="matrix(1,0,0,1,765.4779846498043,665) translate(98.9074074074074 181.58680555555554)"/><use xlink:href="#q" transform="matrix(1,0,0,1,765.4779846498043,665) translate(12.530864197530875 218.92013888888889)"/><use xlink:href="#r" transform="matrix(1,0,0,1,765.4779846498043,665) translate(138.7037037037037 218.92013888888889)"/><use xlink:href="#s" transform="matrix(1,0,0,1,765.4779846498043,665) translate(180.18518518518516 218.92013888888889)"/><use xlink:href="#t" transform="matrix(1,0,0,1,765.4779846498043,665) translate(46.3641975308642 256.2534722222222)"/><path d="M320.7 920.87l2.14 2.14m2.84 2.86l4.26 4.28m2.84 2.85l4.26 4.27m2.83 2.85l4.26 4.27m2.85 2.85l4.25 4.27m2.84 2.86l4.26 4.27m2.85 2.86l4.25 4.28m2.84 2.86l4.27 4.27m2.83 2.86l4.26 4.28m2.85 2.85l4.25 4.27m2.84 2.85l4.26 4.28m2.85 2.85l2.13 2.14" stroke="#3a414a" stroke-width="2" fill="none"/><path d="M321.42 920.2l-1.4 1.37-.02-.03v-2.76zM399.6 998.72l-.1 1.28.13 1.5-1.53-1.54 1.38-1.38z" stroke="#3a414a" stroke-width=".05" fill="#3a414a"/><path d="M320.75 768.36l2.27-2.03m3.03-2.7l4.55-4.04m3.03-2.7l4.54-4.06m3.03-2.7l4.55-4.04m3.03-2.7l4.55-4.05m3.03-2.7l4.54-4.04m3.04-2.7l4.54-4.04m3.03-2.7l4.56-4.04m3.03-2.7l4.53-4.05m3.04-2.7l4.54-4.05m3.04-2.7l4.55-4.04m3.02-2.7l4.55-4.05m3.03-2.7l4.54-4.04m3.03-2.7l2.28-2.04" stroke="#3a414a" stroke-width="2" fill="none"/><path d="M321.4 769.07l-1.4 1.26v-2.6l.12-.12zM420 678.94v2.35l-.12.1-1.3-1.45 1.43-1.27z" stroke="#3a414a" stroke-width=".05" fill="#3a414a"/><path d="M401.5 780a20 20 0 0 1 20-20H659a20 20 0 0 1 20 20v120a20 20 0 0 1-20 20H421.5a20 20 0 0 1-20-20z" stroke="#1071e5" stroke-width="3" fill="url(#u)"/><use xlink:href="#v" transform="matrix(1,0,0,1,406.4934072841389,765) translate(95.58024691358024 80.00694444444444)"/><path d="M471.52 722.5v21.84M467.52 722.5v21.84" stroke="#1071e5" stroke-width="2" fill="none"/><path d="M472.5 722.53h-1.95v-1.03h1.95zM468.5 722.53h-1.95v-1.03h1.95z" stroke="#1071e5" stroke-width=".05" fill="#1071e5"/><path d="M479.52 739.18l-10 17.32-10-17.32m10 17.32V748M607.6 757.5v-21.84M611.6 757.5v-21.84" stroke="#1071e5" stroke-width="2" fill="none"/><path d="M608.6 758.5h-1.96v-1.03h1.95zM612.6 758.5h-1.96v-1.03h1.95z" stroke="#1071e5" stroke-width=".05" fill="#1071e5"/><path d="M599.6 740.82l10-17.32 10 17.32m-10-17.32v8.5M540.23 922.5l-.1 17.5" stroke="#1071e5" stroke-width="2" fill="none"/><path d="M541.2 922.53h-1.94v-1.03h1.95z" stroke="#1071e5" stroke-width=".05" fill="#1071e5"/><path d="M540.02 955.26l-4.54-14.3 9.27.07z" stroke="#1071e5" stroke-width="2" fill="#1071e5"/><path d="M640.48 922.5V940" stroke="#1071e5" stroke-width="2" fill="none"/><path d="M641.45 922.53h-1.95v-1.03h1.95z" stroke="#1071e5" stroke-width=".05" fill="#1071e5"/><path d="M640.48 955.26L635.84 941h9.27z" stroke="#1071e5" stroke-width="2" fill="#1071e5"/><path d="M411.65 980a20 20 0 0 1 20-20h20a20 20 0 0 1 20 20 20 20 0 0 1-20 20h-20a20 20 0 0 1-20-20z" stroke="#1071e5" stroke-width="3" fill="url(#w)" transform="matrix(-1,1.2246467991473532e-16,-1.2246467991473532e-16,-1,883.3080994123205,1960)"/><path d="M510 980a20 20 0 0 1 20-20h20a20 20 0 0 1 20 20 20 20 0 0 1-20 20h-20a20 20 0 0 1-20-20z" stroke="#1071e5" stroke-width="3" fill="url(#x)" transform="matrix(-1,1.2246467991473532e-16,-1.2246467991473532e-16,-1,1080.0000000000002,1960)"/><path d="M610.48 980a20 20 0 0 1 20-20h20a20 20 0 0 1 20 20 20 20 0 0 1-20 20h-20a20 20 0 0 1-20-20z" stroke="#1071e5" stroke-width="3" fill="url(#y)" transform="matrix(-1,1.2246467991473532e-16,-1.2246467991473532e-16,-1,1280.9559692996083,1960)"/><path d="M478.03 1000a20 20 0 0 1-20 20h-37a20 20 0 0 1-20-20 20 20 0 0 1 20-20h37a20 20 0 0 1 20 20z" stroke="#000" stroke-width="3" fill="#dfe3e8"/><g><use xlink:href="#z" transform="matrix(1,-2.4492935982947064e-16,2.4492935982947064e-16,1,406.01542263433464,984.9999999999999) translate(11.319814814814814 23.208333333333332)"/><use xlink:href="#A" transform="matrix(1,-2.4492935982947064e-16,2.4492935982947064e-16,1,406.01542263433464,984.9999999999999) translate(18.72722222222222 23.208333333333332)"/></g><g><path d="M578.5 1000a20 20 0 0 1-20 20h-37a20 20 0 0 1-20-20 20 20 0 0 1 20-20h37a20 20 0 0 1 20 20z" stroke="#000" stroke-width="3" fill="#fff"/></g><g><use xlink:href="#B" transform="matrix(1,-2.4492935982947064e-16,2.4492935982947064e-16,1,506.4934072841389,985.0000000000001) translate(6.875370370370371 23.208333333333332)"/></g><g><path d="M678.98 1000a20 20 0 0 1-20 20h-37a20 20 0 0 1-20-20 20 20 0 0 1 20-20h37a20 20 0 0 1 20 20z" stroke="#000" stroke-width="3" fill="#fff"/></g><g><use xlink:href="#C" transform="matrix(1,-2.4492935982947064e-16,2.4492935982947064e-16,1,606.9713919339429,985.0000000000001) translate(6.875370370370371 23.208333333333332)"/></g><path d="M439.52 700a20 20 0 0 1 20-20h20a20 20 0 0 1 20 20 20 20 0 0 1-20 20h-20a20 20 0 0 1-20-20z" stroke="#1071e5" stroke-width="3" fill="url(#D)"/><path d="M578.54 700a20 20 0 0 1 20-20h20a20 20 0 0 1 20 20 20 20 0 0 1-20 20h-20a20 20 0 0 1-20-20z" stroke="#1071e5" stroke-width="3" fill="url(#E)"/><path d="M421.5 679a20 20 0 0 1 20-20h58.02a20 20 0 0 1 20 20v2a20 20 0 0 1-20 20H441.5a20 20 0 0 1-20-20z" stroke="#000" stroke-width="3" fill="#fff"/><g><use xlink:href="#F" transform="matrix(1,0,0,1,426.4934072841388,664) translate(14.375370370370375 23.333333333333332)"/></g><path d="M559.52 679a20 20 0 0 1 20-20h58.03a20 20 0 0 1 20 20v2a20 20 0 0 1-20 20h-58.03a20 20 0 0 1-20-20z" stroke="#000" stroke-width="3" fill="#fff"/><g><use xlink:href="#G" transform="matrix(1,0,0,1,564.5220153501959,664) translate(4.005000000000004 23.333333333333332)"/></g><path d="M440 922.5V940" stroke="#1071e5" stroke-width="2" fill="none"/><path d="M440.98 922.53h-1.96v-1.03h1.96z" stroke="#1071e5" stroke-width=".05" fill="#1071e5"/><path d="M440 955.26L435.37 941h9.26z" stroke="#1071e5" stroke-width="2" fill="#1071e5"/><path d="M321 840h2.93m3.9 0h5.84m3.9 0h5.85m3.9 0h5.85m3.9 0h5.85m3.9 0h5.85m3.9 0h5.85m3.9 0h5.85m3.9 0H399" stroke="#3a414a" stroke-width="2" fill="none"/><path d="M321.03 840.98H320V839h1.03zM400 840.98h-1.03V839H400z" stroke="#3a414a" stroke-width=".05" fill="#3a414a"/><defs><path d="M179 0l23-115H67L45 0H11l48-248h34L72-143h135l21-105h32L212 0h-33" id="H"/><path d="M111-194c62-3 86 47 72 106H45c-7 38 6 69 45 68 27-1 43-14 53-32l24 11C152-15 129 4 87 4 38 3 12-23 12-71c0-70 32-119 99-123zm44 81c14-66-71-72-95-28-4 8-8 17-11 28h106" id="I"/><path d="M124 0L87-78 21 0h-35l86-98-46-92h33l34 74 61-74h37l-83 92 50 98h-34" id="J"/><path d="M165-48c-4 18 1 34 23 27l-3 20c-29 8-62 0-52-35h-2C116-14 99 4 63 4 30 4 8-16 8-49c0-68 71-67 138-67 10-26 0-56-31-54-26 1-42 9-47 31l-32-5c8-67 160-71 144 15-5 28-9 54-15 81zM42-50c3 52 80 24 89-6 7-12 7-24 11-38-47 1-103-4-100 44" id="K"/><path d="M103-194c29 0 47 14 56 36 2-11 5-23 8-32h30L160-5C157 61 82 97 21 62 9 55 4 45 1 30l28-7c7 42 83 31 92-3 4-16 9-38 13-55-13 20-29 36-62 36-40 0-60-25-60-64 0-71 23-131 91-131zm4 24c-53 0-58 54-61 104-2 27 10 44 36 44 49 0 65-50 67-102 1-29-15-46-42-46" id="L"/><path d="M30-147c31-64 166-65 159 27C183-49 158 1 86 4 9 8 1-88 30-147zM88-20c53 0 68-48 68-100 0-31-11-51-44-50-52 1-68 46-68 97 0 32 13 53 44 53" id="M"/><path d="M67-158c22-48 132-52 116 29L158 0h-32l25-140c3-38-53-32-70-12C52-117 51-52 38 0H6l36-190h30" id="N"/><path d="M6 0l50-261h32L37 0H6" id="O"/><g id="a"><use transform="matrix(0.08641975308641973,0,0,0.08641975308641973,0,0)" xlink:href="#H"/><use transform="matrix(0.08641975308641973,0,0,0.08641975308641973,22.38271604938271,0)" xlink:href="#I"/><use transform="matrix(0.08641975308641973,0,0,0.08641975308641973,39.66666666666666,0)" xlink:href="#J"/><use transform="matrix(0.08641975308641973,0,0,0.08641975308641973,55.22222222222221,0)" xlink:href="#K"/><use transform="matrix(0.08641975308641973,0,0,0.08641975308641973,72.50617283950615,0)" xlink:href="#L"/><use transform="matrix(0.08641975308641973,0,0,0.08641975308641973,89.7901234567901,0)" xlink:href="#M"/><use transform="matrix(0.08641975308641973,0,0,0.08641975308641973,107.07407407407405,0)" xlink:href="#N"/><use transform="matrix(0.08641975308641973,0,0,0.08641975308641973,124.358024691358,0)" xlink:href="#K"/><use transform="matrix(0.08641975308641973,0,0,0.08641975308641973,141.64197530864195,0)" xlink:href="#O"/></g><path d="M187 0l-14-72H61L19 0h-37l149-248h38L221 0h-34zm-19-99l-22-123L76-99h92" id="P"/><path d="M66-151c12-25 30-51 66-40l-6 26C45-176 58-65 38 0H6l36-190h30" id="Q"/><path d="M44-68c0 29 11 47 38 47 30 0 42-19 51-41l28 9C148-21 126 4 82 4 31 4 10-29 12-85c3-77 74-140 146-93 12 8 15 23 18 40l-31 5c-1-22-13-36-36-36-52 0-65 49-65 101" id="R"/><path d="M67-158c15-20 31-36 64-36 94 0 33 127 27 194h-32l25-140c3-38-53-32-70-12C52-117 51-51 37 0H6l51-261h31" id="S"/><path d="M50-231l6-30h32l-6 30H50zM6 0l37-190h31L37 0H6" id="T"/><path d="M51-54c-9 22 5 41 31 30L79-1C43 14 10-4 19-52l22-115H19l5-23h22l19-43h21l-9 43h35l-4 23H73" id="U"/><path d="M67 3c-93-2-31-127-26-193h32L48-50c-3 39 53 32 70 12 30-34 30-101 43-152h32L157 0h-30c1-10 6-24 4-33-14 20-29 37-64 36" id="V"/><g id="b"><use transform="matrix(0.08641975308641973,0,0,0.08641975308641973,0,0)" xlink:href="#P"/><use transform="matrix(0.08641975308641973,0,0,0.08641975308641973,20.740740740740737,0)" xlink:href="#Q"/><use transform="matrix(0.08641975308641973,0,0,0.08641975308641973,31.024691358024686,0)" xlink:href="#R"/><use transform="matrix(0.08641975308641973,0,0,0.08641975308641973,46.58024691358024,0)" xlink:href="#S"/><use transform="matrix(0.08641975308641973,0,0,0.08641975308641973,63.864197530864196,0)" xlink:href="#T"/><use transform="matrix(0.08641975308641973,0,0,0.08641975308641973,70.69135802469135,0)" xlink:href="#U"/><use transform="matrix(0.08641975308641973,0,0,0.08641975308641973,79.33333333333333,0)" xlink:href="#I"/><use transform="matrix(0.08641975308641973,0,0,0.08641975308641973,96.61728395061728,0)" xlink:href="#R"/><use transform="matrix(0.08641975308641973,0,0,0.08641975308641973,112.17283950617283,0)" xlink:href="#U"/><use transform="matrix(0.08641975308641973,0,0,0.08641975308641973,120.81481481481481,0)" xlink:href="#V"/><use transform="matrix(0.08641975308641973,0,0,0.08641975308641973,138.09876543209876,0)" xlink:href="#Q"/><use transform="matrix(0.08641975308641973,0,0,0.08641975308641973,148.3827160493827,0)" xlink:href="#I"/></g><path d="M100-194c63 0 86 42 84 106H49c0 40 14 67 53 68 26 1 43-12 49-29l28 8c-11 28-37 45-77 45C44 4 14-33 15-96c1-61 26-98 85-98zm52 81c6-60-76-77-97-28-3 7-6 17-6 28h103" id="W"/><path d="M141 0L90-78 38 0H4l68-98-65-92h35l48 74 47-74h35l-64 92 68 98h-35" id="X"/><path d="M59-47c-2 24 18 29 38 22v24C64 9 27 4 27-40v-127H5v-23h24l9-43h21v43h35v23H59v120" id="Y"/><path d="M117-194c89-4 53 116 60 194h-32v-121c0-31-8-49-39-48C34-167 62-67 57 0H25l-1-190h30c1 10-1 24 2 32 11-22 29-35 61-36" id="Z"/><path d="M85-194c31 0 48 13 60 33l-1-100h32l1 261h-30c-2-10 0-23-3-31C134-8 116 4 85 4 32 4 16-35 15-94c0-66 23-100 70-100zm9 24c-40 0-46 34-46 75 0 40 6 74 45 74 42 0 51-32 51-76 0-42-9-74-50-73" id="aa"/><path d="M135-143c-3-34-86-38-87 0 15 53 115 12 119 90S17 21 10-45l28-5c4 36 97 45 98 0-10-56-113-15-118-90-4-57 82-63 122-42 12 7 21 19 24 35" id="ab"/><g id="c"><use transform="matrix(0.08641975308641973,0,0,0.08641975308641973,0,0)" xlink:href="#W"/><use transform="matrix(0.08641975308641973,0,0,0.08641975308641973,17.283950617283946,0)" xlink:href="#X"/><use transform="matrix(0.08641975308641973,0,0,0.08641975308641973,32.8395061728395,0)" xlink:href="#Y"/><use transform="matrix(0.08641975308641973,0,0,0.08641975308641973,41.481481481481474,0)" xlink:href="#W"/><use transform="matrix(0.08641975308641973,0,0,0.08641975308641973,58.765432098765416,0)" xlink:href="#Z"/><use transform="matrix(0.08641975308641973,0,0,0.08641975308641973,76.04938271604937,0)" xlink:href="#aa"/><use transform="matrix(0.08641975308641973,0,0,0.08641975308641973,93.33333333333331,0)" xlink:href="#ab"/></g><path d="M24-231v-30h32v30H24zM24 0v-190h32V0H24" id="ac"/><g id="d"><use transform="matrix(0.08641975308641973,0,0,0.08641975308641973,0,0)" xlink:href="#ac"/><use transform="matrix(0.08641975308641973,0,0,0.08641975308641973,6.827160493827159,0)" xlink:href="#Y"/><use transform="matrix(0.08641975308641973,0,0,0.08641975308641973,15.469135802469133,0)" xlink:href="#ab"/></g><path d="M96-169c-40 0-48 33-48 73s9 75 48 75c24 0 41-14 43-38l32 2c-6 37-31 61-74 61-59 0-76-41-82-99-10-93 101-131 147-64 4 7 5 14 7 22l-32 3c-4-21-16-35-41-35" id="ad"/><path d="M100-194c62-1 85 37 85 99 1 63-27 99-86 99S16-35 15-95c0-66 28-99 85-99zM99-20c44 1 53-31 53-75 0-43-8-75-51-75s-53 32-53 75 10 74 51 75" id="ae"/><path d="M114-163C36-179 61-72 57 0H25l-1-190h30c1 12-1 29 2 39 6-27 23-49 58-41v29" id="af"/><g id="e"><use transform="matrix(0.08641975308641973,0,0,0.08641975308641973,0,0)" xlink:href="#ad"/><use transform="matrix(0.08641975308641973,0,0,0.08641975308641973,15.555555555555552,0)" xlink:href="#ae"/><use transform="matrix(0.08641975308641973,0,0,0.08641975308641973,32.8395061728395,0)" xlink:href="#af"/><use transform="matrix(0.08641975308641973,0,0,0.08641975308641973,43.12345679012345,0)" xlink:href="#W"/></g><path d="M206 0h-36l-40-164L89 0H53L-1-190h32L70-26l43-164h34l41 164 42-164h31" id="ag"/><path d="M106-169C34-169 62-67 57 0H25v-261h32l-1 103c12-21 28-36 61-36 89 0 53 116 60 194h-32v-121c2-32-8-49-39-48" id="ah"/><g id="f"><use transform="matrix(0.08641975308641973,0,0,0.08641975308641973,0,0)" xlink:href="#ag"/><use transform="matrix(0.08641975308641973,0,0,0.08641975308641973,22.38271604938271,0)" xlink:href="#ac"/><use transform="matrix(0.08641975308641973,0,0,0.08641975308641973,29.20987654320987,0)" xlink:href="#Y"/><use transform="matrix(0.08641975308641973,0,0,0.08641975308641973,37.85185185185184,0)" xlink:href="#ah"/></g><path d="M141-36C126-15 110 5 73 4 37 3 15-17 15-53c-1-64 63-63 125-63 3-35-9-54-41-54-24 1-41 7-42 31l-33-3c5-37 33-52 76-52 45 0 72 20 72 64v82c-1 20 7 32 28 27v20c-31 9-61-2-59-35zM48-53c0 20 12 33 32 33 41-3 63-29 60-74-43 2-92-5-92 41" id="ai"/><path d="M24 0v-261h32V0H24" id="aj"/><g id="g"><use transform="matrix(0.08641975308641973,0,0,0.08641975308641973,0,0)" xlink:href="#W"/><use transform="matrix(0.08641975308641973,0,0,0.08641975308641973,17.283950617283946,0)" xlink:href="#X"/><use transform="matrix(0.08641975308641973,0,0,0.08641975308641973,32.8395061728395,0)" xlink:href="#Y"/><use transform="matrix(0.08641975308641973,0,0,0.08641975308641973,41.481481481481474,0)" xlink:href="#W"/><use transform="matrix(0.08641975308641973,0,0,0.08641975308641973,58.765432098765416,0)" xlink:href="#af"/><use transform="matrix(0.08641975308641973,0,0,0.08641975308641973,69.04938271604937,0)" xlink:href="#Z"/><use transform="matrix(0.08641975308641973,0,0,0.08641975308641973,86.33333333333331,0)" xlink:href="#ai"/><use transform="matrix(0.08641975308641973,0,0,0.08641975308641973,103.61728395061726,0)" xlink:href="#aj"/></g><path d="M210-169c-67 3-38 105-44 169h-31v-121c0-29-5-50-35-48C34-165 62-65 56 0H25l-1-190h30c1 10-1 24 2 32 10-44 99-50 107 0 11-21 27-35 58-36 85-2 47 119 55 194h-31v-121c0-29-5-49-35-48" id="ak"/><path d="M84 4C-5 8 30-112 23-190h32v120c0 31 7 50 39 49 72-2 45-101 50-169h31l1 190h-30c-1-10 1-25-2-33-11 22-28 36-60 37" id="al"/><g id="h"><use transform="matrix(0.08641975308641973,0,0,0.08641975308641973,0,0)" xlink:href="#ak"/><use transform="matrix(0.08641975308641973,0,0,0.08641975308641973,25.8395061728395,0)" xlink:href="#ae"/><use transform="matrix(0.08641975308641973,0,0,0.08641975308641973,43.12345679012344,0)" xlink:href="#aa"/><use transform="matrix(0.08641975308641973,0,0,0.08641975308641973,60.4074074074074,0)" xlink:href="#al"/><use transform="matrix(0.08641975308641973,0,0,0.08641975308641973,77.69135802469134,0)" xlink:href="#aj"/><use transform="matrix(0.08641975308641973,0,0,0.08641975308641973,84.5185185185185,0)" xlink:href="#W"/><use transform="matrix(0.08641975308641973,0,0,0.08641975308641973,101.80246913580245,0)" xlink:href="#ab"/></g><path d="M205 0l-28-72H64L36 0H1l101-248h38L239 0h-34zm-38-99l-47-123c-12 45-31 82-46 123h93" id="am"/><g id="i"><use transform="matrix(0.08641975308641973,0,0,0.08641975308641973,0,0)" xlink:href="#am"/><use transform="matrix(0.08641975308641973,0,0,0.08641975308641973,20.740740740740737,0)" xlink:href="#ab"/></g><g id="j"><use transform="matrix(0.08641975308641973,0,0,0.08641975308641973,0,0)" xlink:href="#Y"/><use transform="matrix(0.08641975308641973,0,0,0.08641975308641973,8.641975308641973,0)" xlink:href="#ah"/><use transform="matrix(0.08641975308641973,0,0,0.08641975308641973,25.925925925925917,0)" xlink:href="#W"/></g><g id="k"><use transform="matrix(0.08641975308641973,0,0,0.08641975308641973,0,0)" xlink:href="#ad"/><use transform="matrix(0.08641975308641973,0,0,0.08641975308641973,15.555555555555552,0)" xlink:href="#ae"/><use transform="matrix(0.08641975308641973,0,0,0.08641975308641973,32.8395061728395,0)" xlink:href="#af"/><use transform="matrix(0.08641975308641973,0,0,0.08641975308641973,43.12345679012345,0)" xlink:href="#W"/></g><g id="l"><use transform="matrix(0.08641975308641973,0,0,0.08641975308641973,0,0)" xlink:href="#ac"/><use transform="matrix(0.08641975308641973,0,0,0.08641975308641973,6.827160493827159,0)" xlink:href="#ab"/></g><path d="M68-38c1 34 0 65-14 84H32c9-13 17-26 17-46H33v-38h35" id="an"/><g id="m"><use transform="matrix(0.08641975308641973,0,0,0.08641975308641973,0,0)" xlink:href="#ak"/><use transform="matrix(0.08641975308641973,0,0,0.08641975308641973,25.8395061728395,0)" xlink:href="#ae"/><use transform="matrix(0.08641975308641973,0,0,0.08641975308641973,43.12345679012344,0)" xlink:href="#Z"/><use transform="matrix(0.08641975308641973,0,0,0.08641975308641973,60.4074074074074,0)" xlink:href="#ae"/><use transform="matrix(0.08641975308641973,0,0,0.08641975308641973,77.69135802469134,0)" xlink:href="#aj"/><use transform="matrix(0.08641975308641973,0,0,0.08641975308641973,84.5185185185185,0)" xlink:href="#ac"/><use transform="matrix(0.08641975308641973,0,0,0.08641975308641973,91.34567901234568,0)" xlink:href="#Y"/><use transform="matrix(0.08641975308641973,0,0,0.08641975308641973,99.98765432098766,0)" xlink:href="#ah"/><use transform="matrix(0.08641975308641973,0,0,0.08641975308641973,117.2716049382716,0)" xlink:href="#ac"/><use transform="matrix(0.08641975308641973,0,0,0.08641975308641973,124.09876543209876,0)" xlink:href="#ad"/><use transform="matrix(0.08641975308641973,0,0,0.08641975308641973,139.6543209876543,0)" xlink:href="#an"/></g><g id="n"><use transform="matrix(0.08641975308641973,0,0,0.08641975308641973,0,0)" xlink:href="#Y"/><use transform="matrix(0.08641975308641973,0,0,0.08641975308641973,8.641975308641973,0)" xlink:href="#ah"/><use transform="matrix(0.08641975308641973,0,0,0.08641975308641973,25.925925925925917,0)" xlink:href="#W"/></g><g id="o"><use transform="matrix(0.08641975308641973,0,0,0.08641975308641973,0,0)" xlink:href="#W"/><use transform="matrix(0.08641975308641973,0,0,0.08641975308641973,17.283950617283946,0)" xlink:href="#Z"/><use transform="matrix(0.08641975308641973,0,0,0.08641975308641973,34.56790123456789,0)" xlink:href="#Y"/><use transform="matrix(0.08641975308641973,0,0,0.08641975308641973,43.209876543209866,0)" xlink:href="#ac"/><use transform="matrix(0.08641975308641973,0,0,0.08641975308641973,50.037037037037024,0)" xlink:href="#af"/><use transform="matrix(0.08641975308641973,0,0,0.08641975308641973,60.32098765432097,0)" xlink:href="#W"/></g><path d="M179-190L93 31C79 59 56 82 12 73V49c39 6 53-20 64-50L1-190h34L92-34l54-156h33" id="ao"/><g id="p"><use transform="matrix(0.08641975308641973,0,0,0.08641975308641973,0,0)" xlink:href="#ab"/><use transform="matrix(0.08641975308641973,0,0,0.08641975308641973,15.555555555555552,0)" xlink:href="#ao"/><use transform="matrix(0.08641975308641973,0,0,0.08641975308641973,31.111111111111104,0)" xlink:href="#ab"/><use transform="matrix(0.08641975308641973,0,0,0.08641975308641973,46.66666666666666,0)" xlink:href="#Y"/><use transform="matrix(0.08641975308641973,0,0,0.08641975308641973,55.30864197530863,0)" xlink:href="#W"/><use transform="matrix(0.08641975308641973,0,0,0.08641975308641973,72.59259259259258,0)" xlink:href="#ak"/></g><path d="M115-194c53 0 69 39 70 98 0 66-23 100-70 100C84 3 66-7 56-30L54 0H23l1-261h32v101c10-23 28-34 59-34zm-8 174c40 0 45-34 45-75 0-40-5-75-45-74-42 0-51 32-51 76 0 43 10 73 51 73" id="ap"/><path d="M108 0H70L1-190h34L89-25l56-165h34" id="aq"/><g id="q"><use transform="matrix(0.08641975308641973,0,0,0.08641975308641973,0,0)" xlink:href="#ap"/><use transform="matrix(0.08641975308641973,0,0,0.08641975308641973,17.283950617283946,0)" xlink:href="#W"/><use transform="matrix(0.08641975308641973,0,0,0.08641975308641973,34.56790123456789,0)" xlink:href="#ah"/><use transform="matrix(0.08641975308641973,0,0,0.08641975308641973,51.85185185185183,0)" xlink:href="#ai"/><use transform="matrix(0.08641975308641973,0,0,0.08641975308641973,69.13580246913578,0)" xlink:href="#aq"/><use transform="matrix(0.08641975308641973,0,0,0.08641975308641973,84.69135802469134,0)" xlink:href="#W"/><use transform="matrix(0.08641975308641973,0,0,0.08641975308641973,101.97530864197529,0)" xlink:href="#ab"/></g><g id="r"><use transform="matrix(0.08641975308641973,0,0,0.08641975308641973,0,0)" xlink:href="#ai"/><use transform="matrix(0.08641975308641973,0,0,0.08641975308641973,17.283950617283946,0)" xlink:href="#ab"/></g><use transform="matrix(0.08641975308641973,0,0,0.08641975308641973,0,0)" xlink:href="#ai" id="s"/><path d="M222 0l43-216c-8 16-17 34-26 49L143 0h-22L81-216 41 0H11l48-248h42l38 208 116-208h45L252 0h-30" id="ar"/><g id="t"><use transform="matrix(0.08641975308641973,0,0,0.08641975308641973,0,0)" xlink:href="#ar"/><use transform="matrix(0.08641975308641973,0,0,0.08641975308641973,25.8395061728395,0)" xlink:href="#M"/><use transform="matrix(0.08641975308641973,0,0,0.08641975308641973,43.12345679012344,0)" xlink:href="#N"/><use transform="matrix(0.08641975308641973,0,0,0.08641975308641973,60.4074074074074,0)" xlink:href="#M"/><use transform="matrix(0.08641975308641973,0,0,0.08641975308641973,77.69135802469134,0)" xlink:href="#O"/><use transform="matrix(0.08641975308641973,0,0,0.08641975308641973,84.5185185185185,0)" xlink:href="#T"/><use transform="matrix(0.08641975308641973,0,0,0.08641975308641973,91.34567901234568,0)" xlink:href="#U"/><use transform="matrix(0.08641975308641973,0,0,0.08641975308641973,99.98765432098766,0)" xlink:href="#S"/></g><linearGradient gradientUnits="userSpaceOnUse" id="u" x1="401.49" y1="760" x2="401.49" y2="920"><stop offset="23.91%" stop-color="#c3f7c8"/><stop offset="39.49%" stop-color="#cfe4ff"/></linearGradient><path d="M212-179c-10-28-35-45-73-45-59 0-87 40-87 99 0 60 29 101 89 101 43 0 62-24 78-52l27 14C228-24 195 4 139 4 59 4 22-46 18-125c-6-104 99-153 187-111 19 9 31 26 39 46" id="as"/><g id="v"><use transform="matrix(0.09876543209876544,0,0,0.09876543209876544,0,0)" xlink:href="#as"/><use transform="matrix(0.09876543209876544,0,0,0.09876543209876544,25.58024691358025,0)" xlink:href="#ae"/><use transform="matrix(0.09876543209876544,0,0,0.09876543209876544,45.33333333333334,0)" xlink:href="#af"/><use transform="matrix(0.09876543209876544,0,0,0.09876543209876544,57.08641975308644,0)" xlink:href="#W"/></g><linearGradient gradientUnits="userSpaceOnUse" id="w" x1="411.65" y1="960" x2="411.65" y2="1000"><stop offset="73.57%" stop-color="#fff"/><stop offset="89.29%" stop-color="#6db1ff"/></linearGradient><linearGradient gradientUnits="userSpaceOnUse" id="x" x1="510" y1="960" x2="510" y2="1000"><stop offset="73.57%" stop-color="#fff"/><stop offset="89.29%" stop-color="#6db1ff"/></linearGradient><linearGradient gradientUnits="userSpaceOnUse" id="y" x1="610.48" y1="960" x2="610.48" y2="1000"><stop offset="73.57%" stop-color="#fff"/><stop offset="89.29%" stop-color="#6db1ff"/></linearGradient><path d="M30-248c118-7 216 8 213 122C240-48 200 0 122 0H30v-248zM63-27c89 8 146-16 146-99s-60-101-146-95v194" id="at"/><path d="M160-131c35 5 61 23 61 61C221 17 115-2 30 0v-248c76 3 177-17 177 60 0 33-19 50-47 57zm-97-11c50-1 110 9 110-42 0-47-63-36-110-37v79zm0 115c55-2 124 14 124-45 0-56-70-42-124-44v89" id="au"/><g id="A"><use transform="matrix(0.07407407407407407,0,0,0.07407407407407407,0,0)" xlink:href="#at"/><use transform="matrix(0.07407407407407407,0,0,0.07407407407407407,19.185185185185183,0)" xlink:href="#au"/></g><path d="M30 0v-248h33v221h125V0H30" id="av"/><path d="M195 0l-74-108L45 0H8l94-129-87-119h37l69 98 67-98h37l-84 118L233 0h-38" id="aw"/><g id="B"><use transform="matrix(0.07407407407407407,0,0,0.07407407407407407,0,0)" xlink:href="#av"/><use transform="matrix(0.07407407407407407,0,0,0.07407407407407407,14.814814814814813,0)" xlink:href="#ac"/><use transform="matrix(0.07407407407407407,0,0,0.07407407407407407,20.666666666666664,0)" xlink:href="#ap"/><use transform="matrix(0.07407407407407407,0,0,0.07407407407407407,35.48148148148148,0)" xlink:href="#aw"/></g><path d="M137-103V0h-34v-103L8-248h37l75 118 75-118h37" id="ax"/><g id="C"><use transform="matrix(0.07407407407407407,0,0,0.07407407407407407,0,0)" xlink:href="#av"/><use transform="matrix(0.07407407407407407,0,0,0.07407407407407407,14.814814814814813,0)" xlink:href="#ac"/><use transform="matrix(0.07407407407407407,0,0,0.07407407407407407,20.666666666666664,0)" xlink:href="#ap"/><use transform="matrix(0.07407407407407407,0,0,0.07407407407407407,35.48148148148148,0)" xlink:href="#ax"/></g><linearGradient gradientUnits="userSpaceOnUse" id="D" x1="439.52" y1="680" x2="439.52" y2="720"><stop offset="73.57%" stop-color="#fff"/><stop offset="89.29%" stop-color="#6db1ff"/></linearGradient><linearGradient gradientUnits="userSpaceOnUse" id="E" x1="578.54" y1="680" x2="578.54" y2="720"><stop offset="73.57%" stop-color="#fff"/><stop offset="89.29%" stop-color="#6db1ff"/></linearGradient><path d="M33 0v-248h34V0H33" id="ay"/><path d="M115-194c55 1 70 41 70 98S169 2 115 4C84 4 66-9 55-30l1 105H24l-1-265h31l2 30c10-21 28-34 59-34zm-8 174c40 0 45-34 45-75s-6-73-45-74c-42 0-51 32-51 76 0 43 10 73 51 73" id="az"/><g id="F"><use transform="matrix(0.07407407407407407,0,0,0.07407407407407407,0,0)" xlink:href="#ay"/><use transform="matrix(0.07407407407407407,0,0,0.07407407407407407,7.4074074074074066,0)" xlink:href="#Z"/><use transform="matrix(0.07407407407407407,0,0,0.07407407407407407,22.22222222222222,0)" xlink:href="#az"/><use transform="matrix(0.07407407407407407,0,0,0.07407407407407407,37.03703703703704,0)" xlink:href="#al"/><use transform="matrix(0.07407407407407407,0,0,0.07407407407407407,51.85185185185185,0)" xlink:href="#Y"/></g><path d="M140-251c81 0 123 46 123 126C263-46 219 4 140 4 59 4 17-45 17-125s42-126 123-126zm0 227c63 0 89-41 89-101s-29-99-89-99c-61 0-89 39-89 99S79-25 140-24" id="aA"/><g id="G"><use transform="matrix(0.07407407407407407,0,0,0.07407407407407407,0,0)" xlink:href="#aA"/><use transform="matrix(0.07407407407407407,0,0,0.07407407407407407,20.74074074074074,0)" xlink:href="#al"/><use transform="matrix(0.07407407407407407,0,0,0.07407407407407407,35.55555555555556,0)" xlink:href="#Y"/><use transform="matrix(0.07407407407407407,0,0,0.07407407407407407,42.96296296296296,0)" xlink:href="#az"/><use transform="matrix(0.07407407407407407,0,0,0.07407407407407407,57.77777777777777,0)" xlink:href="#al"/><use transform="matrix(0.07407407407407407,0,0,0.07407407407407407,72.59259259259258,0)" xlink:href="#Y"/></g></defs></g></svg>