<svg xmlns="http://www.w3.org/2000/svg" xmlns:xlink="http://www.w3.org/1999/xlink" xmlns:lucid="lucid" width="1523" height="466.67"><g transform="translate(-158.5 -354.8333333333333)" lucid:page-tab-id="0_0"><path d="M460 460a20 20 0 0 1 20-20h320a20 20 0 0 1 20 20v340a20 20 0 0 1-20 20H480a20 20 0 0 1-20-20z" fill="#dedeff" fill-opacity=".5"/><path d="M458.5 460a1.5 1.5 0 0 1 1.5-1.5 1.5 1.5 0 0 1 1.5 1.5 1.5 1.5 0 0 1-1.5 1.5 1.5 1.5 0 0 1-1.5-1.5m2.73-9.96a1.5 1.5 0 0 1 1.5-1.5 1.5 1.5 0 0 1 1.5 1.5 1.5 1.5 0 0 1-1.5 1.5 1.5 1.5 0 0 1-1.5-1.5V450m7.3-7.26a1.5 1.5 0 0 1 1.5-1.5 1.5 1.5 0 0 1 1.5 1.5 1.5 1.5 0 0 1-1.5 1.5 1.5 1.5 0 0 1-1.5-1.5v-.03m9.97-2.7a1.5 1.5 0 0 1 1.5-1.5 1.5 1.5 0 0 1 1.5 1.5 1.5 1.5 0 0 1-1.5 1.5 1.5 1.5 0 0 1-1.5-1.5m11.85 0a1.5 1.5 0 0 1 1.5-1.5 1.5 1.5 0 0 1 1.5 1.5 1.5 1.5 0 0 1-1.5 1.5 1.5 1.5 0 0 1-1.5-1.5m11.85 0a1.5 1.5 0 0 1 1.5-1.5 1.5 1.5 0 0 1 1.5 1.5 1.5 1.5 0 0 1-1.5 1.5 1.5 1.5 0 0 1-1.5-1.5m11.86 0a1.5 1.5 0 0 1 1.5-1.5 1.5 1.5 0 0 1 1.5 1.5 1.5 1.5 0 0 1-1.5 1.5 1.5 1.5 0 0 1-1.5-1.5m11.85 0a1.5 1.5 0 0 1 1.5-1.5 1.5 1.5 0 0 1 1.5 1.5 1.5 1.5 0 0 1-1.5 1.5 1.5 1.5 0 0 1-1.5-1.5m11.86 0a1.5 1.5 0 0 1 1.5-1.5 1.5 1.5 0 0 1 1.5 1.5 1.5 1.5 0 0 1-1.5 1.5 1.5 1.5 0 0 1-1.5-1.5m11.85 0a1.5 1.5 0 0 1 1.5-1.5 1.5 1.5 0 0 1 1.5 1.5 1.5 1.5 0 0 1-1.5 1.5 1.5 1.5 0 0 1-1.5-1.5m11.86 0a1.5 1.5 0 0 1 1.5-1.5 1.5 1.5 0 0 1 1.5 1.5 1.5 1.5 0 0 1-1.5 1.5 1.5 1.5 0 0 1-1.5-1.5m11.86 0a1.5 1.5 0 0 1 1.5-1.5 1.5 1.5 0 0 1 1.5 1.5 1.5 1.5 0 0 1-1.5 1.5 1.5 1.5 0 0 1-1.5-1.5m11.85 0a1.5 1.5 0 0 1 1.5-1.5 1.5 1.5 0 0 1 1.5 1.5 1.5 1.5 0 0 1-1.5 1.5 1.5 1.5 0 0 1-1.5-1.5m11.85 0a1.5 1.5 0 0 1 1.5-1.5 1.5 1.5 0 0 1 1.5 1.5 1.5 1.5 0 0 1-1.5 1.5 1.5 1.5 0 0 1-1.5-1.5m11.85 0a1.5 1.5 0 0 1 1.5-1.5 1.5 1.5 0 0 1 1.5 1.5 1.5 1.5 0 0 1-1.5 1.5 1.5 1.5 0 0 1-1.5-1.5m11.85 0a1.5 1.5 0 0 1 1.5-1.5 1.5 1.5 0 0 1 1.5 1.5 1.5 1.5 0 0 1-1.5 1.5 1.5 1.5 0 0 1-1.5-1.5m11.85 0a1.5 1.5 0 0 1 1.5-1.5 1.5 1.5 0 0 1 1.5 1.5 1.5 1.5 0 0 1-1.5 1.5 1.5 1.5 0 0 1-1.5-1.5m11.86 0a1.5 1.5 0 0 1 1.5-1.5 1.5 1.5 0 0 1 1.5 1.5 1.5 1.5 0 0 1-1.5 1.5 1.5 1.5 0 0 1-1.5-1.5m11.85 0a1.5 1.5 0 0 1 1.5-1.5 1.5 1.5 0 0 1 1.5 1.5 1.5 1.5 0 0 1-1.5 1.5 1.5 1.5 0 0 1-1.5-1.5m11.85 0a1.5 1.5 0 0 1 1.5-1.5 1.5 1.5 0 0 1 1.5 1.5 1.5 1.5 0 0 1-1.5 1.5 1.5 1.5 0 0 1-1.5-1.5m11.85 0a1.5 1.5 0 0 1 1.5-1.5 1.5 1.5 0 0 1 1.5 1.5 1.5 1.5 0 0 1-1.5 1.5 1.5 1.5 0 0 1-1.5-1.5m11.85 0a1.5 1.5 0 0 1 1.5-1.5 1.5 1.5 0 0 1 1.5 1.5 1.5 1.5 0 0 1-1.5 1.5 1.5 1.5 0 0 1-1.5-1.5m11.85 0a1.5 1.5 0 0 1 1.5-1.5 1.5 1.5 0 0 1 1.5 1.5 1.5 1.5 0 0 1-1.5 1.5 1.5 1.5 0 0 1-1.5-1.5m11.86 0a1.5 1.5 0 0 1 1.5-1.5 1.5 1.5 0 0 1 1.5 1.5 1.5 1.5 0 0 1-1.5 1.5 1.5 1.5 0 0 1-1.5-1.5m11.85 0a1.5 1.5 0 0 1 1.5-1.5 1.5 1.5 0 0 1 1.5 1.5 1.5 1.5 0 0 1-1.5 1.5 1.5 1.5 0 0 1-1.5-1.5m11.84 0a1.5 1.5 0 0 1 1.5-1.5 1.5 1.5 0 0 1 1.5 1.5 1.5 1.5 0 0 1-1.5 1.5 1.5 1.5 0 0 1-1.5-1.5m11.85 0a1.5 1.5 0 0 1 1.5-1.5 1.5 1.5 0 0 1 1.5 1.5 1.5 1.5 0 0 1-1.5 1.5 1.5 1.5 0 0 1-1.5-1.5m11.84 0a1.5 1.5 0 0 1 1.5-1.5 1.5 1.5 0 0 1 1.5 1.5 1.5 1.5 0 0 1-1.5 1.5 1.5 1.5 0 0 1-1.5-1.5m11.86 0a1.5 1.5 0 0 1 1.5-1.5 1.5 1.5 0 0 1 1.5 1.5 1.5 1.5 0 0 1-1.5 1.5 1.5 1.5 0 0 1-1.5-1.5m11.85 0a1.5 1.5 0 0 1 1.5-1.5 1.5 1.5 0 0 1 1.5 1.5 1.5 1.5 0 0 1-1.5 1.5 1.5 1.5 0 0 1-1.5-1.5m11.85 0a1.5 1.5 0 0 1 1.5-1.5 1.5 1.5 0 0 1 1.5 1.5 1.5 1.5 0 0 1-1.5 1.5 1.5 1.5 0 0 1-1.5-1.5m9.97 2.74a1.5 1.5 0 0 1 1.5-1.5 1.5 1.5 0 0 1 1.5 1.5 1.5 1.5 0 0 1-1.5 1.5 1.5 1.5 0 0 1-1.5-1.5v-.03m7.3 7.34a1.5 1.5 0 0 1 1.5-1.5 1.5 1.5 0 0 1 1.5 1.5 1.5 1.5 0 0 1-1.5 1.5 1.5 1.5 0 0 1-1.5-1.5V450m2.73 10a1.5 1.5 0 0 1 1.5-1.5 1.5 1.5 0 0 1 1.5 1.5 1.5 1.5 0 0 1-1.5 1.5 1.5 1.5 0 0 1-1.5-1.5m0 12.16v-.02a1.5 1.5 0 0 1 1.5-1.5 1.5 1.5 0 0 1 1.5 1.5 1.5 1.5 0 0 1-1.5 1.5 1.5 1.5 0 0 1-1.5-1.5m0 12.16a1.5 1.5 0 0 1 1.5-1.5 1.5 1.5 0 0 1 1.5 1.5 1.5 1.5 0 0 1-1.5 1.5 1.5 1.5 0 0 1-1.5-1.5v-.03m0 12.17a1.5 1.5 0 0 1 1.5-1.5 1.5 1.5 0 0 1 1.5 1.5 1.5 1.5 0 0 1-1.5 1.5 1.5 1.5 0 0 1-1.5-1.5v-.03m0 12.2v-.03a1.5 1.5 0 0 1 1.5-1.5 1.5 1.5 0 0 1 1.5 1.5 1.5 1.5 0 0 1-1.5 1.5 1.5 1.5 0 0 1-1.5-1.5m0 12.16v-.02a1.5 1.5 0 0 1 1.5-1.5 1.5 1.5 0 0 1 1.5 1.5 1.5 1.5 0 0 1-1.5 1.5 1.5 1.5 0 0 1-1.5-1.5m0 12.17a1.5 1.5 0 0 1 1.5-1.5 1.5 1.5 0 0 1 1.5 1.5 1.5 1.5 0 0 1-1.5 1.5 1.5 1.5 0 0 1-1.5-1.5v-.03m0 12.17a1.5 1.5 0 0 1 1.5-1.5 1.5 1.5 0 0 1 1.5 1.5 1.5 1.5 0 0 1-1.5 1.5 1.5 1.5 0 0 1-1.5-1.5m0 12.16v-.02a1.5 1.5 0 0 1 1.5-1.5 1.5 1.5 0 0 1 1.5 1.5 1.5 1.5 0 0 1-1.5 1.5 1.5 1.5 0 0 1-1.5-1.5m0 12.16a1.5 1.5 0 0 1 1.5-1.5 1.5 1.5 0 0 1 1.5 1.5 1.5 1.5 0 0 1-1.5 1.5 1.5 1.5 0 0 1-1.5-1.5v-.03m0 12.17a1.5 1.5 0 0 1 1.5-1.5 1.5 1.5 0 0 1 1.5 1.5 1.5 1.5 0 0 1-1.5 1.5 1.5 1.5 0 0 1-1.5-1.5v-.03m0 12.2v-.03a1.5 1.5 0 0 1 1.5-1.5 1.5 1.5 0 0 1 1.5 1.5 1.5 1.5 0 0 1-1.5 1.5 1.5 1.5 0 0 1-1.5-1.5m0 12.16v-.02a1.5 1.5 0 0 1 1.5-1.5 1.5 1.5 0 0 1 1.5 1.5 1.5 1.5 0 0 1-1.5 1.5 1.5 1.5 0 0 1-1.5-1.5m0 12.17a1.5 1.5 0 0 1 1.5-1.5 1.5 1.5 0 0 1 1.5 1.5 1.5 1.5 0 0 1-1.5 1.5 1.5 1.5 0 0 1-1.5-1.5v-.03m0 12.17a1.5 1.5 0 0 1 1.5-1.5 1.5 1.5 0 0 1 1.5 1.5 1.5 1.5 0 0 1-1.5 1.5 1.5 1.5 0 0 1-1.5-1.5m0 12.16v-.02a1.5 1.5 0 0 1 1.5-1.5 1.5 1.5 0 0 1 1.5 1.5 1.5 1.5 0 0 1-1.5 1.5 1.5 1.5 0 0 1-1.5-1.5m0 12.16a1.5 1.5 0 0 1 1.5-1.5 1.5 1.5 0 0 1 1.5 1.5 1.5 1.5 0 0 1-1.5 1.5 1.5 1.5 0 0 1-1.5-1.5v-.03m0 12.17a1.5 1.5 0 0 1 1.5-1.5 1.5 1.5 0 0 1 1.5 1.5 1.5 1.5 0 0 1-1.5 1.5 1.5 1.5 0 0 1-1.5-1.5v-.03m0 12.2v-.03a1.5 1.5 0 0 1 1.5-1.5 1.5 1.5 0 0 1 1.5 1.5 1.5 1.5 0 0 1-1.5 1.5 1.5 1.5 0 0 1-1.5-1.5m0 12.16v-.02a1.5 1.5 0 0 1 1.5-1.5 1.5 1.5 0 0 1 1.5 1.5 1.5 1.5 0 0 1-1.5 1.5 1.5 1.5 0 0 1-1.5-1.5m0 12.17a1.5 1.5 0 0 1 1.5-1.5 1.5 1.5 0 0 1 1.5 1.5 1.5 1.5 0 0 1-1.5 1.5 1.5 1.5 0 0 1-1.5-1.5v-.03m0 12.17a1.5 1.5 0 0 1 1.5-1.5 1.5 1.5 0 0 1 1.5 1.5 1.5 1.5 0 0 1-1.5 1.5 1.5 1.5 0 0 1-1.5-1.5m0 12.16v-.02a1.5 1.5 0 0 1 1.5-1.5 1.5 1.5 0 0 1 1.5 1.5 1.5 1.5 0 0 1-1.5 1.5 1.5 1.5 0 0 1-1.5-1.5m0 12.16a1.5 1.5 0 0 1 1.5-1.5 1.5 1.5 0 0 1 1.5 1.5 1.5 1.5 0 0 1-1.5 1.5 1.5 1.5 0 0 1-1.5-1.5v-.03m0 12.17a1.5 1.5 0 0 1 1.5-1.5 1.5 1.5 0 0 1 1.5 1.5 1.5 1.5 0 0 1-1.5 1.5 1.5 1.5 0 0 1-1.5-1.5v-.03m0 12.2v-.03a1.5 1.5 0 0 1 1.5-1.5 1.5 1.5 0 0 1 1.5 1.5 1.5 1.5 0 0 1-1.5 1.5 1.5 1.5 0 0 1-1.5-1.5m0 12.16v-.02a1.5 1.5 0 0 1 1.5-1.5 1.5 1.5 0 0 1 1.5 1.5 1.5 1.5 0 0 1-1.5 1.5 1.5 1.5 0 0 1-1.5-1.5m0 12.17a1.5 1.5 0 0 1 1.5-1.5 1.5 1.5 0 0 1 1.5 1.5 1.5 1.5 0 0 1-1.5 1.5 1.5 1.5 0 0 1-1.5-1.5v-.03m0 12.17a1.5 1.5 0 0 1 1.5-1.5 1.5 1.5 0 0 1 1.5 1.5 1.5 1.5 0 0 1-1.5 1.5 1.5 1.5 0 0 1-1.5-1.5m-2.73 10v-.03a1.5 1.5 0 0 1 1.5-1.5 1.5 1.5 0 0 1 1.5 1.5 1.5 1.5 0 0 1-1.5 1.5 1.5 1.5 0 0 1-1.5-1.5m-7.3 7.32v-.03a1.5 1.5 0 0 1 1.5-1.5 1.5 1.5 0 0 1 1.5 1.5 1.5 1.5 0 0 1-1.5 1.5 1.5 1.5 0 0 1-1.5-1.5M798.5 820V820a1.5 1.5 0 0 1 1.5-1.5 1.5 1.5 0 0 1 1.5 1.5 1.5 1.5 0 0 1-1.5 1.5 1.5 1.5 0 0 1-1.5-1.5m-11.85 0a1.5 1.5 0 0 1 1.5-1.5 1.5 1.5 0 0 1 1.5 1.5 1.5 1.5 0 0 1-1.5 1.5 1.5 1.5 0 0 1-1.5-1.5m-11.85 0a1.5 1.5 0 0 1 1.5-1.5 1.5 1.5 0 0 1 1.5 1.5 1.5 1.5 0 0 1-1.5 1.5 1.5 1.5 0 0 1-1.5-1.5m-11.86 0a1.5 1.5 0 0 1 1.5-1.5 1.5 1.5 0 0 1 1.5 1.5 1.5 1.5 0 0 1-1.5 1.5 1.5 1.5 0 0 1-1.5-1.5m-11.85 0a1.5 1.5 0 0 1 1.5-1.5 1.5 1.5 0 0 1 1.5 1.5 1.5 1.5 0 0 1-1.5 1.5 1.5 1.5 0 0 1-1.5-1.5m-11.86 0a1.5 1.5 0 0 1 1.5-1.5 1.5 1.5 0 0 1 1.5 1.5 1.5 1.5 0 0 1-1.5 1.5 1.5 1.5 0 0 1-1.5-1.5m-11.85 0a1.5 1.5 0 0 1 1.5-1.5 1.5 1.5 0 0 1 1.5 1.5 1.5 1.5 0 0 1-1.5 1.5 1.5 1.5 0 0 1-1.5-1.5m-11.86 0a1.5 1.5 0 0 1 1.5-1.5 1.5 1.5 0 0 1 1.5 1.5 1.5 1.5 0 0 1-1.5 1.5 1.5 1.5 0 0 1-1.5-1.5m-11.86 0a1.5 1.5 0 0 1 1.5-1.5 1.5 1.5 0 0 1 1.5 1.5 1.5 1.5 0 0 1-1.5 1.5 1.5 1.5 0 0 1-1.5-1.5m-11.85 0a1.5 1.5 0 0 1 1.5-1.5 1.5 1.5 0 0 1 1.5 1.5 1.5 1.5 0 0 1-1.5 1.5 1.5 1.5 0 0 1-1.5-1.5m-11.85 0a1.5 1.5 0 0 1 1.5-1.5 1.5 1.5 0 0 1 1.5 1.5 1.5 1.5 0 0 1-1.5 1.5 1.5 1.5 0 0 1-1.5-1.5m-11.85 0a1.5 1.5 0 0 1 1.5-1.5 1.5 1.5 0 0 1 1.5 1.5 1.5 1.5 0 0 1-1.5 1.5 1.5 1.5 0 0 1-1.5-1.5m-11.85 0a1.5 1.5 0 0 1 1.5-1.5 1.5 1.5 0 0 1 1.5 1.5 1.5 1.5 0 0 1-1.5 1.5 1.5 1.5 0 0 1-1.5-1.5m-11.85 0a1.5 1.5 0 0 1 1.5-1.5 1.5 1.5 0 0 1 1.5 1.5 1.5 1.5 0 0 1-1.5 1.5 1.5 1.5 0 0 1-1.5-1.5m-11.86 0a1.5 1.5 0 0 1 1.5-1.5 1.5 1.5 0 0 1 1.5 1.5 1.5 1.5 0 0 1-1.5 1.5 1.5 1.5 0 0 1-1.5-1.5m-11.85 0a1.5 1.5 0 0 1 1.5-1.5 1.5 1.5 0 0 1 1.5 1.5 1.5 1.5 0 0 1-1.5 1.5 1.5 1.5 0 0 1-1.5-1.5m-11.85 0a1.5 1.5 0 0 1 1.5-1.5 1.5 1.5 0 0 1 1.5 1.5 1.5 1.5 0 0 1-1.5 1.5 1.5 1.5 0 0 1-1.5-1.5m-11.85 0a1.5 1.5 0 0 1 1.5-1.5 1.5 1.5 0 0 1 1.5 1.5 1.5 1.5 0 0 1-1.5 1.5 1.5 1.5 0 0 1-1.5-1.5m-11.85 0a1.5 1.5 0 0 1 1.5-1.5 1.5 1.5 0 0 1 1.5 1.5 1.5 1.5 0 0 1-1.5 1.5 1.5 1.5 0 0 1-1.5-1.5m-11.85 0a1.5 1.5 0 0 1 1.5-1.5 1.5 1.5 0 0 1 1.5 1.5 1.5 1.5 0 0 1-1.5 1.5 1.5 1.5 0 0 1-1.5-1.5m-11.86 0a1.5 1.5 0 0 1 1.5-1.5 1.5 1.5 0 0 1 1.5 1.5 1.5 1.5 0 0 1-1.5 1.5 1.5 1.5 0 0 1-1.5-1.5m-11.85 0a1.5 1.5 0 0 1 1.5-1.5 1.5 1.5 0 0 1 1.5 1.5 1.5 1.5 0 0 1-1.5 1.5 1.5 1.5 0 0 1-1.5-1.5m-11.84 0a1.5 1.5 0 0 1 1.5-1.5 1.5 1.5 0 0 1 1.5 1.5 1.5 1.5 0 0 1-1.5 1.5 1.5 1.5 0 0 1-1.5-1.5m-11.85 0a1.5 1.5 0 0 1 1.5-1.5 1.5 1.5 0 0 1 1.5 1.5 1.5 1.5 0 0 1-1.5 1.5 1.5 1.5 0 0 1-1.5-1.5m-11.84 0a1.5 1.5 0 0 1 1.5-1.5 1.5 1.5 0 0 1 1.5 1.5 1.5 1.5 0 0 1-1.5 1.5 1.5 1.5 0 0 1-1.5-1.5m-11.86 0a1.5 1.5 0 0 1 1.5-1.5 1.5 1.5 0 0 1 1.5 1.5 1.5 1.5 0 0 1-1.5 1.5 1.5 1.5 0 0 1-1.5-1.5m-11.85 0a1.5 1.5 0 0 1 1.5-1.5 1.5 1.5 0 0 1 1.5 1.5 1.5 1.5 0 0 1-1.5 1.5 1.5 1.5 0 0 1-1.5-1.5m-11.85 0a1.5 1.5 0 0 1 1.5-1.5 1.5 1.5 0 0 1 1.5 1.5 1.5 1.5 0 0 1-1.5 1.5 1.5 1.5 0 0 1-1.5-1.5m-9.97-2.7v-.03a1.5 1.5 0 0 1 1.5-1.5 1.5 1.5 0 0 1 1.5 1.5 1.5 1.5 0 0 1-1.5 1.5 1.5 1.5 0 0 1-1.5-1.5m-7.3-7.28v-.03a1.5 1.5 0 0 1 1.5-1.5 1.5 1.5 0 0 1 1.5 1.5 1.5 1.5 0 0 1-1.5 1.5 1.5 1.5 0 0 1-1.5-1.5M458.5 800a1.5 1.5 0 0 1 1.5-1.5 1.5 1.5 0 0 1 1.5 1.5 1.5 1.5 0 0 1-1.5 1.5 1.5 1.5 0 0 1-1.5-1.5m0-12.13a1.5 1.5 0 0 1 1.5-1.5 1.5 1.5 0 0 1 1.5 1.5 1.5 1.5 0 0 1-1.5 1.5 1.5 1.5 0 0 1-1.5-1.5v-.03m0-12.1v-.03a1.5 1.5 0 0 1 1.5-1.5 1.5 1.5 0 0 1 1.5 1.5 1.5 1.5 0 0 1-1.5 1.5 1.5 1.5 0 0 1-1.5-1.5m0-12.1v-.03a1.5 1.5 0 0 1 1.5-1.5 1.5 1.5 0 0 1 1.5 1.5 1.5 1.5 0 0 1-1.5 1.5 1.5 1.5 0 0 1-1.5-1.5m0-12.13a1.5 1.5 0 0 1 1.5-1.5 1.5 1.5 0 0 1 1.5 1.5 1.5 1.5 0 0 1-1.5 1.5 1.5 1.5 0 0 1-1.5-1.5v-.03m0-12.1a1.5 1.5 0 0 1 1.5-1.5 1.5 1.5 0 0 1 1.5 1.5 1.5 1.5 0 0 1-1.5 1.5 1.5 1.5 0 0 1-1.5-1.5v-.03m0-12.1v-.03a1.5 1.5 0 0 1 1.5-1.5 1.5 1.5 0 0 1 1.5 1.5 1.5 1.5 0 0 1-1.5 1.5 1.5 1.5 0 0 1-1.5-1.5m0-12.13a1.5 1.5 0 0 1 1.5-1.5 1.5 1.5 0 0 1 1.5 1.5 1.5 1.5 0 0 1-1.5 1.5 1.5 1.5 0 0 1-1.5-1.5m0-12.13a1.5 1.5 0 0 1 1.5-1.5 1.5 1.5 0 0 1 1.5 1.5 1.5 1.5 0 0 1-1.5 1.5 1.5 1.5 0 0 1-1.5-1.5v-.03m0-12.1v-.03a1.5 1.5 0 0 1 1.5-1.5 1.5 1.5 0 0 1 1.5 1.5 1.5 1.5 0 0 1-1.5 1.5 1.5 1.5 0 0 1-1.5-1.5m0-12.1v-.03a1.5 1.5 0 0 1 1.5-1.5 1.5 1.5 0 0 1 1.5 1.5 1.5 1.5 0 0 1-1.5 1.5 1.5 1.5 0 0 1-1.5-1.5m0-12.13a1.5 1.5 0 0 1 1.5-1.5 1.5 1.5 0 0 1 1.5 1.5 1.5 1.5 0 0 1-1.5 1.5 1.5 1.5 0 0 1-1.5-1.5v-.03m0-12.1a1.5 1.5 0 0 1 1.5-1.5 1.5 1.5 0 0 1 1.5 1.5 1.5 1.5 0 0 1-1.5 1.5 1.5 1.5 0 0 1-1.5-1.5v-.03m0-12.1v-.03a1.5 1.5 0 0 1 1.5-1.5 1.5 1.5 0 0 1 1.5 1.5 1.5 1.5 0 0 1-1.5 1.5 1.5 1.5 0 0 1-1.5-1.5m0-12.13a1.5 1.5 0 0 1 1.5-1.5 1.5 1.5 0 0 1 1.5 1.5 1.5 1.5 0 0 1-1.5 1.5 1.5 1.5 0 0 1-1.5-1.5m0-12.13a1.5 1.5 0 0 1 1.5-1.5 1.5 1.5 0 0 1 1.5 1.5 1.5 1.5 0 0 1-1.5 1.5 1.5 1.5 0 0 1-1.5-1.5v-.03m0-12.1v-.03a1.5 1.5 0 0 1 1.5-1.5 1.5 1.5 0 0 1 1.5 1.5 1.5 1.5 0 0 1-1.5 1.5 1.5 1.5 0 0 1-1.5-1.5m0-12.1v-.03a1.5 1.5 0 0 1 1.5-1.5 1.5 1.5 0 0 1 1.5 1.5 1.5 1.5 0 0 1-1.5 1.5 1.5 1.5 0 0 1-1.5-1.5m0-12.13a1.5 1.5 0 0 1 1.5-1.5 1.5 1.5 0 0 1 1.5 1.5 1.5 1.5 0 0 1-1.5 1.5 1.5 1.5 0 0 1-1.5-1.5v-.03m0-12.1a1.5 1.5 0 0 1 1.5-1.5 1.5 1.5 0 0 1 1.5 1.5 1.5 1.5 0 0 1-1.5 1.5 1.5 1.5 0 0 1-1.5-1.5v-.03m0-12.1v-.03a1.5 1.5 0 0 1 1.5-1.5 1.5 1.5 0 0 1 1.5 1.5 1.5 1.5 0 0 1-1.5 1.5 1.5 1.5 0 0 1-1.5-1.5m0-12.13a1.5 1.5 0 0 1 1.5-1.5 1.5 1.5 0 0 1 1.5 1.5 1.5 1.5 0 0 1-1.5 1.5 1.5 1.5 0 0 1-1.5-1.5m0-12.13a1.5 1.5 0 0 1 1.5-1.5 1.5 1.5 0 0 1 1.5 1.5 1.5 1.5 0 0 1-1.5 1.5 1.5 1.5 0 0 1-1.5-1.5v-.03m0-12.1v-.03a1.5 1.5 0 0 1 1.5-1.5 1.5 1.5 0 0 1 1.5 1.5 1.5 1.5 0 0 1-1.5 1.5 1.5 1.5 0 0 1-1.5-1.5m0-12.1v-.03a1.5 1.5 0 0 1 1.5-1.5 1.5 1.5 0 0 1 1.5 1.5 1.5 1.5 0 0 1-1.5 1.5 1.5 1.5 0 0 1-1.5-1.5m0-12.13a1.5 1.5 0 0 1 1.5-1.5 1.5 1.5 0 0 1 1.5 1.5 1.5 1.5 0 0 1-1.5 1.5 1.5 1.5 0 0 1-1.5-1.5v-.03m0-12.1a1.5 1.5 0 0 1 1.5-1.5 1.5 1.5 0 0 1 1.5 1.5 1.5 1.5 0 0 1-1.5 1.5 1.5 1.5 0 0 1-1.5-1.5v-.03m0-12.1v-.03a1.5 1.5 0 0 1 1.5-1.5 1.5 1.5 0 0 1 1.5 1.5 1.5 1.5 0 0 1-1.5 1.5 1.5 1.5 0 0 1-1.5-1.5m0-12.13a1.5 1.5 0 0 1 1.5-1.5 1.5 1.5 0 0 1 1.5 1.5 1.5 1.5 0 0 1-1.5 1.5 1.5 1.5 0 0 1-1.5-1.5"/><path d="M480 580a20 20 0 0 1 20-20h40a20 20 0 0 1 20 20v120a20 20 0 0 1-20 20h-40a20 20 0 0 1-20-20z" stroke="#000" stroke-width="3" fill="url(#a)"/><use xlink:href="#b" transform="matrix(-1.8369701987210297e-16,-1,1,-1.8369701987210297e-16,485,715.0000000000001) translate(8.543209876543216 40.201388888888886)"/><use xlink:href="#c" transform="matrix(-1.8369701987210297e-16,-1,1,-1.8369701987210297e-16,485,715.0000000000001) translate(120.71604938271604 40.201388888888886)"/><path d="M600 580a20 20 0 0 1 20-20h40a20 20 0 0 1 20 20v120a20 20 0 0 1-20 20h-40a20 20 0 0 1-20-20z" stroke="#000" stroke-width="3" fill="url(#d)"/><use xlink:href="#b" transform="matrix(-1.8369701987210297e-16,-1,1,-1.8369701987210297e-16,605,715.0000000000001) translate(8.543209876543216 40.201388888888886)"/><use xlink:href="#e" transform="matrix(-1.8369701987210297e-16,-1,1,-1.8369701987210297e-16,605,715.0000000000001) translate(120.71604938271604 40.201388888888886)"/><path d="M720 580a20 20 0 0 1 20-20h40a20 20 0 0 1 20 20v120a20 20 0 0 1-20 20h-40a20 20 0 0 1-20-20z" stroke="#000" stroke-width="3" fill="url(#f)"/><use xlink:href="#b" transform="matrix(-1.8369701987210297e-16,-1,1,-1.8369701987210297e-16,725,715.0000000000001) translate(7.7222222222222285 40.201388888888886)"/><use xlink:href="#g" transform="matrix(-1.8369701987210297e-16,-1,1,-1.8369701987210297e-16,725,715.0000000000001) translate(119.89506172839505 40.201388888888886)"/><path d="M760 722.5V740" stroke="#000" stroke-width="2" fill="none"/><path d="M760.98 722.53H759v-1.03H761z" stroke="#000" stroke-width=".05"/><path d="M760 755.26L755.37 741h9.26z" stroke="#000" stroke-width="2"/><path d="M480 776.33a20 20 0 0 1 20-20h280a20 20 0 0 1 20 20v7.34a20 20 0 0 1-20 20H500a20 20 0 0 1-20-20z" stroke="#000" stroke-width="3" fill="#dfe3e8"/><use xlink:href="#h" transform="matrix(1,0,0,1,485,761.3333333333334) translate(88.50500000000002 27.263888888888886)"/><path d="M640 722.5v13.83" stroke="#000" stroke-width="2" fill="none"/><path d="M640.98 722.53H639v-1.03H641z" stroke="#000" stroke-width=".05"/><path d="M640 751.6l-4.63-14.27h9.26z" stroke="#000" stroke-width="2"/><path d="M520.04 722.5l.54 13.85" stroke="#000" stroke-width="2" fill="none"/><path d="M521 722.5l-1.93.06-.05-1.06h1.96z" stroke="#000" stroke-width=".05"/><path d="M521.17 751.6L516 737.52l9.25-.36z" stroke="#000" stroke-width="2"/><path d="M480 476.33a20 20 0 0 1 20-20h280a20 20 0 0 1 20 20v7.34a20 20 0 0 1-20 20H500a20 20 0 0 1-20-20z" stroke="#000" stroke-width="3" fill="url(#i)"/><use xlink:href="#j" transform="matrix(1,0,0,1,485,461.3333333333333) translate(67.76425925925928 27.263888888888886)"/><use xlink:href="#k" transform="matrix(1,0,0,1,485,461.3333333333333) translate(126.52969135802469 27.263888888888886)"/><path d="M638 440.67v-21.34M642 440.67v-21.34M650 435.5l-10 17.33-10-17.32m10 17.33v-8.5M630 424.5l10-17.33 10 17.32m-10-17.33v8.5M518.35 544.3l.6-25.03M522.34 544.4l.6-25.03M530.47 539.43l-10.42 17.07-9.58-17.56m9.58 17.56l.2-8.5M510.83 524.24l10.42-17.07 9.57 17.56m-9.57-17.56l-.2 8.5M638 544.34v-25M642 544.34v-25M650 539.18l-10 17.32-10-17.32m10 17.32V548M630 524.5l10-17.33 10 17.32m-10-17.33v8.5M757.66 544.4l-.6-25.03M761.65 544.3l-.6-25.03M769.53 538.94l-9.58 17.56-10.42-17.07m10.42 17.07l-.2-8.5M749.18 524.73l9.57-17.56 10.42 17.07m-10.42-17.07l.2 8.5" stroke="#000" stroke-width="2" fill="none"/><path d="M480 376.33a20 20 0 0 1 20-20h280a20 20 0 0 1 20 20v7.34a20 20 0 0 1-20 20H500a20 20 0 0 1-20-20z" stroke="#000" stroke-width="3" fill="#e8e2c8"/><use xlink:href="#l" transform="matrix(1,0,0,1,485,361.3333333333333) translate(115.38154320987655 27.263888888888886)"/><path d="M160 446a6 6 0 0 1 6-6h188a6 6 0 0 1 6 6v188a6 6 0 0 1-6 6H166a6 6 0 0 1-6-6z" stroke="#000" stroke-opacity="0" stroke-width="3" fill="#fff" fill-opacity="0"/><use xlink:href="#m" transform="matrix(1,0,0,1,165,445) translate(26.21296296296299 36.190972222222214)"/><use xlink:href="#n" transform="matrix(1,0,0,1,165,445) translate(92.53395061728395 36.190972222222214)"/><use xlink:href="#o" transform="matrix(1,0,0,1,165,445) translate(23.74691358024694 81.52430555555554)"/><use xlink:href="#p" transform="matrix(1,0,0,1,165,445) translate(8.006172839506206 126.85763888888886)"/><use xlink:href="#q" transform="matrix(1,0,0,1,165,445) translate(3.8086419753086744 172.19097222222217)"/><use xlink:href="#r" transform="matrix(1,0,0,1,165,445) translate(154.70987654320987 172.19097222222217)"/><path d="M875 606a6 6 0 0 1 6-6h42a6 6 0 0 0 6-6v-8a2.3 2.3 0 0 1 4-1.54l28 31.08a6.67 6.67 0 0 1 0 8.92l-28 31.08a2.3 2.3 0 0 1-4-1.54v-8a6 6 0 0 0-6-6h-42a6 6 0 0 1-6-6z" fill="#fc9432"/><path d="M1020 480a20 20 0 0 1 20-20h280a20 20 0 0 1 20 20v300a20 20 0 0 1-20 20h-280a20 20 0 0 1-20-20z" stroke="#000" stroke-width="3" fill="#dedeff" fill-opacity=".5"/><use xlink:href="#s" transform="matrix(1,0,0,1,1025,465) translate(48.50000000000003 171.640625)"/><use xlink:href="#t" transform="matrix(1,0,0,1,1025,465) translate(128.38888888888889 171.640625)"/><path d="M1178 444.34v-25M1182 444.34v-25M1190 439.18l-10 17.32-10-17.32m10 17.32V448M1170 424.5l10-17.33 10 17.32m-10-17.33v8.5" stroke="#000" stroke-width="2" fill="none"/><path d="M1020 376.33a20 20 0 0 1 20-20h280a20 20 0 0 1 20 20v7.34a20 20 0 0 1-20 20h-280a20 20 0 0 1-20-20z" stroke="#000" stroke-width="3" fill="#e8e2c8"/><g><use xlink:href="#l" transform="matrix(1,0,0,1,1025,361.3333333333333) translate(115.38154320987655 27.263888888888886)"/></g><path d="M1440 546a6 6 0 0 1 6-6h228a6 6 0 0 1 6 6v246.33a6 6 0 0 1-6 6h-228a6 6 0 0 1-6-6z" stroke="#000" stroke-opacity="0" stroke-width="3" fill="#fff" fill-opacity="0"/><g><use xlink:href="#u" transform="matrix(1,0,0,1,1445,545) translate(35.29938271604941 38.003472222222214)"/><use xlink:href="#v" transform="matrix(1,0,0,1,1445,545) translate(77.27469135802471 38.003472222222214)"/><use xlink:href="#w" transform="matrix(1,0,0,1,1445,545) translate(140.23765432098764 38.003472222222214)"/><use xlink:href="#x" transform="matrix(1,0,0,1,1445,545) translate(22.86419753086423 83.33680555555554)"/><use xlink:href="#y" transform="matrix(1,0,0,1,1445,545) translate(152.8827160493827 83.33680555555554)"/><use xlink:href="#z" transform="matrix(1,0,0,1,1445,545) translate(70.9783950617284 128.67013888888886)"/><use xlink:href="#A" transform="matrix(1,0,0,1,1445,545) translate(9.222222222222243 174.00347222222217)"/><use xlink:href="#B" transform="matrix(1,0,0,1,1445,545) translate(189.2962962962963 174.00347222222217)"/><use xlink:href="#C" transform="matrix(1,0,0,1,1445,545) translate(37.50308641975312 219.3368055555555)"/><use xlink:href="#D" transform="matrix(1,0,0,1,1445,545) translate(85.66975308641977 219.3368055555555)"/></g><defs><linearGradient gradientUnits="userSpaceOnUse" id="a" x1="480" y1="720" x2="480" y2="560"><stop offset="25%" stop-color="#fff"/><stop offset="40.94%" stop-color="#cfe4ff"/></linearGradient><path d="M185-189c-5-48-123-54-124 2 14 75 158 14 163 119 3 78-121 87-175 55-17-10-28-26-33-46l33-7c5 56 141 63 141-1 0-78-155-14-162-118-5-82 145-84 179-34 5 7 8 16 11 25" id="E"/><path d="M100-194c63 0 86 42 84 106H49c0 40 14 67 53 68 26 1 43-12 49-29l28 8c-11 28-37 45-77 45C44 4 14-33 15-96c1-61 26-98 85-98zm52 81c6-60-76-77-97-28-3 7-6 17-6 28h103" id="F"/><path d="M114-163C36-179 61-72 57 0H25l-1-190h30c1 12-1 29 2 39 6-27 23-49 58-41v29" id="G"/><path d="M108 0H70L1-190h34L89-25l56-165h34" id="H"/><path d="M24-231v-30h32v30H24zM24 0v-190h32V0H24" id="I"/><path d="M96-169c-40 0-48 33-48 73s9 75 48 75c24 0 41-14 43-38l32 2c-6 37-31 61-74 61-59 0-76-41-82-99-10-93 101-131 147-64 4 7 5 14 7 22l-32 3c-4-21-16-35-41-35" id="J"/><g id="b"><use transform="matrix(0.08641975308641973,0,0,0.08641975308641973,0,0)" xlink:href="#E"/><use transform="matrix(0.08641975308641973,0,0,0.08641975308641973,20.740740740740737,0)" xlink:href="#F"/><use transform="matrix(0.08641975308641973,0,0,0.08641975308641973,38.02469135802468,0)" xlink:href="#G"/><use transform="matrix(0.08641975308641973,0,0,0.08641975308641973,48.30864197530863,0)" xlink:href="#H"/><use transform="matrix(0.08641975308641973,0,0,0.08641975308641973,63.86419753086418,0)" xlink:href="#I"/><use transform="matrix(0.08641975308641973,0,0,0.08641975308641973,70.69135802469134,0)" xlink:href="#J"/><use transform="matrix(0.08641975308641973,0,0,0.08641975308641973,86.2469135802469,0)" xlink:href="#F"/></g><path d="M205 0l-28-72H64L36 0H1l101-248h38L239 0h-34zm-38-99l-47-123c-12 45-31 82-46 123h93" id="K"/><use transform="matrix(0.08641975308641973,0,0,0.08641975308641973,0,0)" xlink:href="#K" id="c"/><linearGradient gradientUnits="userSpaceOnUse" id="d" x1="600" y1="720" x2="600" y2="560"><stop offset="25%" stop-color="#fff"/><stop offset="40.94%" stop-color="#cfe4ff"/></linearGradient><path d="M160-131c35 5 61 23 61 61C221 17 115-2 30 0v-248c76 3 177-17 177 60 0 33-19 50-47 57zm-97-11c50-1 110 9 110-42 0-47-63-36-110-37v79zm0 115c55-2 124 14 124-45 0-56-70-42-124-44v89" id="L"/><use transform="matrix(0.08641975308641973,0,0,0.08641975308641973,0,0)" xlink:href="#L" id="e"/><linearGradient gradientUnits="userSpaceOnUse" id="f" x1="720" y1="720" x2="720" y2="560"><stop offset="25%" stop-color="#fff"/><stop offset="40.94%" stop-color="#cfe4ff"/></linearGradient><path d="M212-179c-10-28-35-45-73-45-59 0-87 40-87 99 0 60 29 101 89 101 43 0 62-24 78-52l27 14C228-24 195 4 139 4 59 4 22-46 18-125c-6-104 99-153 187-111 19 9 31 26 39 46" id="M"/><use transform="matrix(0.08641975308641973,0,0,0.08641975308641973,0,0)" xlink:href="#M" id="g"/><path d="M30-248c118-7 216 8 213 122C240-48 200 0 122 0H30v-248zM63-27c89 8 146-16 146-99s-60-101-146-95v194" id="N"/><path d="M141-36C126-15 110 5 73 4 37 3 15-17 15-53c-1-64 63-63 125-63 3-35-9-54-41-54-24 1-41 7-42 31l-33-3c5-37 33-52 76-52 45 0 72 20 72 64v82c-1 20 7 32 28 27v20c-31 9-61-2-59-35zM48-53c0 20 12 33 32 33 41-3 63-29 60-74-43 2-92-5-92 41" id="O"/><path d="M59-47c-2 24 18 29 38 22v24C64 9 27 4 27-40v-127H5v-23h24l9-43h21v43h35v23H59v120" id="P"/><path d="M115-194c53 0 69 39 70 98 0 66-23 100-70 100C84 3 66-7 56-30L54 0H23l1-261h32v101c10-23 28-34 59-34zm-8 174c40 0 45-34 45-75 0-40-5-75-45-74-42 0-51 32-51 76 0 43 10 73 51 73" id="Q"/><path d="M135-143c-3-34-86-38-87 0 15 53 115 12 119 90S17 21 10-45l28-5c4 36 97 45 98 0-10-56-113-15-118-90-4-57 82-63 122-42 12 7 21 19 24 35" id="R"/><g id="h"><use transform="matrix(0.08641975308641973,0,0,0.08641975308641973,0,0)" xlink:href="#N"/><use transform="matrix(0.08641975308641973,0,0,0.08641975308641973,22.38271604938271,0)" xlink:href="#O"/><use transform="matrix(0.08641975308641973,0,0,0.08641975308641973,39.66666666666666,0)" xlink:href="#P"/><use transform="matrix(0.08641975308641973,0,0,0.08641975308641973,48.30864197530863,0)" xlink:href="#O"/><use transform="matrix(0.08641975308641973,0,0,0.08641975308641973,65.59259259259258,0)" xlink:href="#Q"/><use transform="matrix(0.08641975308641973,0,0,0.08641975308641973,82.87654320987653,0)" xlink:href="#O"/><use transform="matrix(0.08641975308641973,0,0,0.08641975308641973,100.16049382716047,0)" xlink:href="#R"/><use transform="matrix(0.08641975308641973,0,0,0.08641975308641973,115.71604938271605,0)" xlink:href="#F"/></g><linearGradient gradientUnits="userSpaceOnUse" id="i" x1="480" y1="456.33" x2="480" y2="503.67"><stop offset="27.9%" stop-color="#fff"/><stop offset="57.61%" stop-color="#c3f7c8"/></linearGradient><path d="M30-248c87 1 191-15 191 75 0 78-77 80-158 76V0H30v-248zm33 125c57 0 124 11 124-50 0-59-68-47-124-48v98" id="S"/><path d="M33 0v-248h34V0H33" id="T"/><g id="j"><use transform="matrix(0.08641975308641973,0,0,0.08641975308641973,0,0)" xlink:href="#K"/><use transform="matrix(0.08641975308641973,0,0,0.08641975308641973,20.740740740740737,0)" xlink:href="#S"/><use transform="matrix(0.08641975308641973,0,0,0.08641975308641973,41.481481481481474,0)" xlink:href="#T"/></g><path d="M177-190C167-65 218 103 67 71c-23-6-38-20-44-43l32-5c15 47 100 32 89-28v-30C133-14 115 1 83 1 29 1 15-40 15-95c0-56 16-97 71-98 29-1 48 16 59 35 1-10 0-23 2-32h30zM94-22c36 0 50-32 50-73 0-42-14-75-50-75-39 0-46 34-46 75s6 73 46 73" id="U"/><path d="M206 0h-36l-40-164L89 0H53L-1-190h32L70-26l43-164h34l41 164 42-164h31" id="V"/><path d="M179-190L93 31C79 59 56 82 12 73V49c39 6 53-20 64-50L1-190h34L92-34l54-156h33" id="W"/><g id="k"><use transform="matrix(0.08641975308641973,0,0,0.08641975308641973,0,0)" xlink:href="#U"/><use transform="matrix(0.08641975308641973,0,0,0.08641975308641973,17.283950617283946,0)" xlink:href="#O"/><use transform="matrix(0.08641975308641973,0,0,0.08641975308641973,34.56790123456789,0)" xlink:href="#P"/><use transform="matrix(0.08641975308641973,0,0,0.08641975308641973,43.209876543209866,0)" xlink:href="#F"/><use transform="matrix(0.08641975308641973,0,0,0.08641975308641973,60.4938271604938,0)" xlink:href="#V"/><use transform="matrix(0.08641975308641973,0,0,0.08641975308641973,82.87654320987652,0)" xlink:href="#O"/><use transform="matrix(0.08641975308641973,0,0,0.08641975308641973,100.16049382716047,0)" xlink:href="#W"/></g><path d="M24 0v-261h32V0H24" id="X"/><path d="M117-194c89-4 53 116 60 194h-32v-121c0-31-8-49-39-48C34-167 62-67 57 0H25l-1-190h30c1 10-1 24 2 32 11-22 29-35 61-36" id="Y"/><g id="l"><use transform="matrix(0.08641975308641973,0,0,0.08641975308641973,0,0)" xlink:href="#M"/><use transform="matrix(0.08641975308641973,0,0,0.08641975308641973,22.38271604938271,0)" xlink:href="#X"/><use transform="matrix(0.08641975308641973,0,0,0.08641975308641973,29.20987654320987,0)" xlink:href="#I"/><use transform="matrix(0.08641975308641973,0,0,0.08641975308641973,36.03703703703703,0)" xlink:href="#F"/><use transform="matrix(0.08641975308641973,0,0,0.08641975308641973,53.32098765432097,0)" xlink:href="#Y"/><use transform="matrix(0.08641975308641973,0,0,0.08641975308641973,70.60493827160492,0)" xlink:href="#P"/></g><path d="M266 0h-40l-56-210L115 0H75L2-248h35L96-30l15-64 43-154h32l59 218 59-218h35" id="Z"/><g id="m"><use transform="matrix(0.10493827160493824,0,0,0.10493827160493824,0,0)" xlink:href="#Z"/><use transform="matrix(0.10493827160493824,0,0,0.10493827160493824,34.83950617283949,0)" xlink:href="#F"/></g><path d="M210-169c-67 3-38 105-44 169h-31v-121c0-29-5-50-35-48C34-165 62-65 56 0H25l-1-190h30c1 10-1 24 2 32 10-44 99-50 107 0 11-21 27-35 58-36 85-2 47 119 55 194h-31v-121c0-29-5-49-35-48" id="aa"/><g id="n"><use transform="matrix(0.10493827160493824,0,0,0.10493827160493824,0,0)" xlink:href="#aa"/><use transform="matrix(0.10493827160493824,0,0,0.10493827160493824,31.376543209876534,0)" xlink:href="#O"/><use transform="matrix(0.10493827160493824,0,0,0.10493827160493824,52.36419753086418,0)" xlink:href="#W"/></g><path d="M106-169C34-169 62-67 57 0H25v-261h32l-1 103c12-21 28-36 61-36 89 0 53 116 60 194h-32v-121c2-32-8-49-39-48" id="ab"/><g id="o"><use transform="matrix(0.10493827160493824,0,0,0.10493827160493824,0,0)" xlink:href="#O"/><use transform="matrix(0.10493827160493824,0,0,0.10493827160493824,20.987654320987648,0)" xlink:href="#G"/><use transform="matrix(0.10493827160493824,0,0,0.10493827160493824,33.475308641975296,0)" xlink:href="#J"/><use transform="matrix(0.10493827160493824,0,0,0.10493827160493824,52.364197530864175,0)" xlink:href="#ab"/><use transform="matrix(0.10493827160493824,0,0,0.10493827160493824,73.35185185185182,0)" xlink:href="#I"/><use transform="matrix(0.10493827160493824,0,0,0.10493827160493824,81.64197530864195,0)" xlink:href="#P"/><use transform="matrix(0.10493827160493824,0,0,0.10493827160493824,92.13580246913577,0)" xlink:href="#F"/><use transform="matrix(0.10493827160493824,0,0,0.10493827160493824,113.12345679012343,0)" xlink:href="#J"/><use transform="matrix(0.10493827160493824,0,0,0.10493827160493824,132.0123456790123,0)" xlink:href="#P"/></g><path d="M100-194c62-1 85 37 85 99 1 63-27 99-86 99S16-35 15-95c0-66 28-99 85-99zM99-20c44 1 53-31 53-75 0-43-8-75-51-75s-53 32-53 75 10 74 51 75" id="ac"/><g id="p"><use transform="matrix(0.10493827160493824,0,0,0.10493827160493824,0,0)" xlink:href="#R"/><use transform="matrix(0.10493827160493824,0,0,0.10493827160493824,18.888888888888882,0)" xlink:href="#ac"/><use transform="matrix(0.10493827160493824,0,0,0.10493827160493824,39.87654320987653,0)" xlink:href="#aa"/><use transform="matrix(0.10493827160493824,0,0,0.10493827160493824,71.25308641975306,0)" xlink:href="#F"/><use transform="matrix(0.10493827160493824,0,0,0.10493827160493824,92.2407407407407,0)" xlink:href="#P"/><use transform="matrix(0.10493827160493824,0,0,0.10493827160493824,102.73456790123453,0)" xlink:href="#ab"/><use transform="matrix(0.10493827160493824,0,0,0.10493827160493824,123.72222222222219,0)" xlink:href="#I"/><use transform="matrix(0.10493827160493824,0,0,0.10493827160493824,132.0123456790123,0)" xlink:href="#Y"/><use transform="matrix(0.10493827160493824,0,0,0.10493827160493824,152.99999999999994,0)" xlink:href="#U"/></g><path d="M115-194c55 1 70 41 70 98S169 2 115 4C84 4 66-9 55-30l1 105H24l-1-265h31l2 30c10-21 28-34 59-34zm-8 174c40 0 45-34 45-75s-6-73-45-74c-42 0-51 32-51 76 0 43 10 73 51 73" id="ad"/><path d="M141 0L90-78 38 0H4l68-98-65-92h35l48 74 47-74h35l-64 92 68 98h-35" id="ae"/><g id="q"><use transform="matrix(0.10493827160493824,0,0,0.10493827160493824,0,0)" xlink:href="#J"/><use transform="matrix(0.10493827160493824,0,0,0.10493827160493824,18.888888888888882,0)" xlink:href="#ac"/><use transform="matrix(0.10493827160493824,0,0,0.10493827160493824,39.87654320987653,0)" xlink:href="#aa"/><use transform="matrix(0.10493827160493824,0,0,0.10493827160493824,71.25308641975306,0)" xlink:href="#ad"/><use transform="matrix(0.10493827160493824,0,0,0.10493827160493824,92.2407407407407,0)" xlink:href="#X"/><use transform="matrix(0.10493827160493824,0,0,0.10493827160493824,100.53086419753083,0)" xlink:href="#F"/><use transform="matrix(0.10493827160493824,0,0,0.10493827160493824,121.51851851851848,0)" xlink:href="#ae"/></g><path d="M33 0v-38h34V0H33" id="af"/><g id="r"><use transform="matrix(0.10493827160493824,0,0,0.10493827160493824,0,0)" xlink:href="#af"/><use transform="matrix(0.10493827160493824,0,0,0.10493827160493824,10.493827160493824,0)" xlink:href="#af"/><use transform="matrix(0.10493827160493824,0,0,0.10493827160493824,20.987654320987648,0)" xlink:href="#af"/></g><path d="M127-220V0H93v-220H8v-28h204v28h-85" id="ag"/><g id="s"><use transform="matrix(0.11111111111111108,0,0,0.11111111111111108,0,0)" xlink:href="#ag"/><use transform="matrix(0.11111111111111108,0,0,0.11111111111111108,24.333333333333325,0)" xlink:href="#ab"/><use transform="matrix(0.11111111111111108,0,0,0.11111111111111108,46.55555555555554,0)" xlink:href="#F"/></g><g id="t"><use transform="matrix(0.11111111111111108,0,0,0.11111111111111108,0,0)" xlink:href="#E"/><use transform="matrix(0.11111111111111108,0,0,0.11111111111111108,26.666666666666657,0)" xlink:href="#F"/><use transform="matrix(0.11111111111111108,0,0,0.11111111111111108,48.88888888888887,0)" xlink:href="#G"/><use transform="matrix(0.11111111111111108,0,0,0.11111111111111108,62.11111111111109,0)" xlink:href="#H"/><use transform="matrix(0.11111111111111108,0,0,0.11111111111111108,82.11111111111109,0)" xlink:href="#I"/><use transform="matrix(0.11111111111111108,0,0,0.11111111111111108,90.88888888888886,0)" xlink:href="#J"/><use transform="matrix(0.11111111111111108,0,0,0.11111111111111108,110.88888888888886,0)" xlink:href="#F"/></g><g id="u"><use transform="matrix(0.10493827160493824,0,0,0.10493827160493824,0,0)" xlink:href="#af"/><use transform="matrix(0.10493827160493824,0,0,0.10493827160493824,10.493827160493824,0)" xlink:href="#af"/><use transform="matrix(0.10493827160493824,0,0,0.10493827160493824,20.987654320987648,0)" xlink:href="#af"/></g><path d="M84 4C-5 8 30-112 23-190h32v120c0 31 7 50 39 49 72-2 45-101 50-169h31l1 190h-30c-1-10 1-25-2-33-11 22-28 36-60 37" id="ah"/><g id="v"><use transform="matrix(0.10493827160493824,0,0,0.10493827160493824,0,0)" xlink:href="#Q"/><use transform="matrix(0.10493827160493824,0,0,0.10493827160493824,20.987654320987648,0)" xlink:href="#ah"/><use transform="matrix(0.10493827160493824,0,0,0.10493827160493824,41.975308641975296,0)" xlink:href="#P"/></g><g id="w"><use transform="matrix(0.10493827160493824,0,0,0.10493827160493824,0,0)" xlink:href="#ac"/><use transform="matrix(0.10493827160493824,0,0,0.10493827160493824,20.987654320987648,0)" xlink:href="#ah"/><use transform="matrix(0.10493827160493824,0,0,0.10493827160493824,41.975308641975296,0)" xlink:href="#G"/></g><g id="x"><use transform="matrix(0.10493827160493824,0,0,0.10493827160493824,0,0)" xlink:href="#R"/><use transform="matrix(0.10493827160493824,0,0,0.10493827160493824,18.888888888888882,0)" xlink:href="#W"/><use transform="matrix(0.10493827160493824,0,0,0.10493827160493824,37.777777777777764,0)" xlink:href="#R"/><use transform="matrix(0.10493827160493824,0,0,0.10493827160493824,56.66666666666665,0)" xlink:href="#P"/><use transform="matrix(0.10493827160493824,0,0,0.10493827160493824,67.16049382716047,0)" xlink:href="#F"/><use transform="matrix(0.10493827160493824,0,0,0.10493827160493824,88.14814814814811,0)" xlink:href="#aa"/></g><g id="y"><use transform="matrix(0.10493827160493824,0,0,0.10493827160493824,0,0)" xlink:href="#R"/><use transform="matrix(0.10493827160493824,0,0,0.10493827160493824,18.888888888888882,0)" xlink:href="#P"/><use transform="matrix(0.10493827160493824,0,0,0.10493827160493824,29.382716049382708,0)" xlink:href="#I"/><use transform="matrix(0.10493827160493824,0,0,0.10493827160493824,37.67283950617283,0)" xlink:href="#X"/><use transform="matrix(0.10493827160493824,0,0,0.10493827160493824,45.96296296296295,0)" xlink:href="#X"/></g><path d="M143 0L79-87 56-68V0H24v-261h32v163l83-92h37l-77 82L181 0h-38" id="ai"/><g id="z"><use transform="matrix(0.10493827160493824,0,0,0.10493827160493824,0,0)" xlink:href="#X"/><use transform="matrix(0.10493827160493824,0,0,0.10493827160493824,8.290123456790122,0)" xlink:href="#ac"/><use transform="matrix(0.10493827160493824,0,0,0.10493827160493824,29.277777777777775,0)" xlink:href="#ac"/><use transform="matrix(0.10493827160493824,0,0,0.10493827160493824,50.265432098765416,0)" xlink:href="#ai"/><use transform="matrix(0.10493827160493824,0,0,0.10493827160493824,69.1543209876543,0)" xlink:href="#R"/></g><g id="A"><use transform="matrix(0.10493827160493824,0,0,0.10493827160493824,0,0)" xlink:href="#aa"/><use transform="matrix(0.10493827160493824,0,0,0.10493827160493824,31.376543209876534,0)" xlink:href="#ac"/><use transform="matrix(0.10493827160493824,0,0,0.10493827160493824,52.36419753086418,0)" xlink:href="#Y"/><use transform="matrix(0.10493827160493824,0,0,0.10493827160493824,73.35185185185183,0)" xlink:href="#ac"/><use transform="matrix(0.10493827160493824,0,0,0.10493827160493824,94.33950617283948,0)" xlink:href="#X"/><use transform="matrix(0.10493827160493824,0,0,0.10493827160493824,102.6296296296296,0)" xlink:href="#I"/><use transform="matrix(0.10493827160493824,0,0,0.10493827160493824,110.91975308641975,0)" xlink:href="#P"/><use transform="matrix(0.10493827160493824,0,0,0.10493827160493824,121.41358024691357,0)" xlink:href="#ab"/><use transform="matrix(0.10493827160493824,0,0,0.10493827160493824,142.4012345679012,0)" xlink:href="#I"/><use transform="matrix(0.10493827160493824,0,0,0.10493827160493824,150.69135802469134,0)" xlink:href="#J"/></g><g id="B"><use transform="matrix(0.10493827160493824,0,0,0.10493827160493824,0,0)" xlink:href="#P"/><use transform="matrix(0.10493827160493824,0,0,0.10493827160493824,10.493827160493824,0)" xlink:href="#ac"/></g><g id="C"><use transform="matrix(0.10493827160493824,0,0,0.10493827160493824,0,0)" xlink:href="#I"/><use transform="matrix(0.10493827160493824,0,0,0.10493827160493824,8.290123456790122,0)" xlink:href="#P"/><use transform="matrix(0.10493827160493824,0,0,0.10493827160493824,18.783950617283946,0)" xlink:href="#R"/></g><g id="D"><use transform="matrix(0.10493827160493824,0,0,0.10493827160493824,0,0)" xlink:href="#J"/><use transform="matrix(0.10493827160493824,0,0,0.10493827160493824,18.888888888888882,0)" xlink:href="#X"/><use transform="matrix(0.10493827160493824,0,0,0.10493827160493824,27.179012345679002,0)" xlink:href="#I"/><use transform="matrix(0.10493827160493824,0,0,0.10493827160493824,35.469135802469125,0)" xlink:href="#F"/><use transform="matrix(0.10493827160493824,0,0,0.10493827160493824,56.45679012345677,0)" xlink:href="#Y"/><use transform="matrix(0.10493827160493824,0,0,0.10493827160493824,77.44444444444441,0)" xlink:href="#P"/><use transform="matrix(0.10493827160493824,0,0,0.10493827160493824,87.93827160493824,0)" xlink:href="#R"/></g></defs></g></svg>