<svg xmlns="http://www.w3.org/2000/svg" xmlns:lucid="lucid" width="243" height="304.5"><g transform="translate(-278.5 -497)" lucid:page-tab-id="0_0"><path d="M280 580a20 20 0 0 1 20-20h200a20 20 0 0 1 20 20v200a20 20 0 0 1-20 20H300a20 20 0 0 1-20-20z" stroke="#000" stroke-width="3" fill="url(#a)"/><path d="M398 544.34v-30.18M402 544.34v-30.18M410 539.18l-10 17.32-10-17.32m10 17.32V548M390 519.32L400 502l10 17.32M400 502v8.5" stroke="#000" stroke-width="2" fill="none"/><defs><linearGradient gradientUnits="userSpaceOnUse" id="a" x1="280" y1="800" x2="280" y2="560"><stop offset="19.2%" stop-color="#ced4db"/><stop offset="26.45%" stop-color="#fff"/><stop offset="45.29%" stop-color="#fff"/><stop offset="52.54%" stop-color="#cfe4ff"/><stop offset="73.91%" stop-color="#cfe4ff"/><stop offset="82.97%" stop-color="#c3f7c8"/></linearGradient></defs></g></svg>