<svg xmlns="http://www.w3.org/2000/svg" xmlns:xlink="http://www.w3.org/1999/xlink" xmlns:lucid="lucid" width="1104.9" height="383"><g transform="translate(-118.5 -418.5)" lucid:page-tab-id="0_0"><path d="M340.95 710.3l2.92.97m3.88 1.27l5.83 1.9m3.9 1.28l5.82 1.9m3.88 1.28l5.83 1.9m3.9 1.28l5.83 1.9m3.9 1.28l5.82 1.9m3.88 1.3l5.84 1.9m3.88 1.27l5.83 1.9m3.9 1.28l5.82 1.92m3.88 1.27l5.83 1.9m3.9 1.27l5.83 1.9m3.9 1.28l5.82 1.9m3.88 1.28l2.92.96" stroke="#3a414a" stroke-width="2" fill="none"/><path d="M341.28 709.4l-.6 1.85-.68-.22v-2.06zM458.5 747.77v2.06l-1.28-.42.6-1.85z" stroke="#3a414a" stroke-width=".05" fill="#3a414a"/><path d="M480 640a20 20 0 0 1 20-20h160a20 20 0 0 1 20 20v100a20 20 0 0 1-20 20H500a20 20 0 0 1-20-20z" stroke="#008a0e" stroke-width="3" fill="url(#a)"/><use xlink:href="#b" transform="matrix(1,0,0,1,485,625) translate(42.27469135802468 68.30555555555556)"/><use xlink:href="#c" transform="matrix(1,0,0,1,485,625) translate(114.1820987654321 68.30555555555556)"/><path d="M440 558.83a20 20 0 0 1 20-20h200a20 20 0 0 1 20 20V560a20 20 0 0 1-20 20H460a20 20 0 0 1-20-20z" stroke="#000" stroke-width="3" fill="#fff"/><use xlink:href="#d" transform="matrix(1,0,0,1,445,543.8333333333333) translate(31.588333333333317 21.555555555555557)"/><use xlink:href="#e" transform="matrix(1,0,0,1,445,543.8333333333333) translate(136.02043209876547 21.555555555555557)"/><path d="M540 440a20 20 0 0 1 20-20h80a20 20 0 0 1 20 20 20 20 0 0 1-20 20h-80a20 20 0 0 1-20-20z" stroke="#1071e5" stroke-width="3" fill="#e8e2c8"/><use xlink:href="#f" transform="matrix(1,0,0,1,544.9999999999999,425) translate(24.653148148148148 21.430555555555557)"/><path d="M460 460a20 20 0 0 1 20-20h80a20 20 0 0 1 20 20 20 20 0 0 1-20 20h-80a20 20 0 0 1-20-20z" stroke="#008a0e" stroke-width="3" fill="#e8e2c8"/><use xlink:href="#g" transform="matrix(1,0,0,1,464.9999999999999,445) translate(19.967962962962957 21.430555555555557)"/><path d="M120 426a6 6 0 0 1 6-6h228a6 6 0 0 1 6 6v148a6 6 0 0 1-6 6H126a6 6 0 0 1-6-6z" stroke="#000" stroke-opacity="0" stroke-width="3" fill="#fff" fill-opacity="0"/><use xlink:href="#h" transform="matrix(1,0,0,1,125,425) translate(15.148148148148138 49.458333333333336)"/><use xlink:href="#i" transform="matrix(1,0,0,1,125,425) translate(103.81481481481481 49.458333333333336)"/><use xlink:href="#j" transform="matrix(1,0,0,1,125,425) translate(177.81481481481484 49.458333333333336)"/><use xlink:href="#k" transform="matrix(1,0,0,1,125,425) translate(12.851851851851848 81.45833333333334)"/><use xlink:href="#l" transform="matrix(1,0,0,1,125,425) translate(104.62962962962963 81.45833333333334)"/><use xlink:href="#m" transform="matrix(1,0,0,1,125,425) translate(202.33333333333334 81.45833333333334)"/><use xlink:href="#n" transform="matrix(1,0,0,1,125,425) translate(9.18518518518519 113.45833333333334)"/><use xlink:href="#o" transform="matrix(1,0,0,1,125,425) translate(123.1111111111111 113.45833333333334)"/><use xlink:href="#p" transform="matrix(1,0,0,1,125,425) translate(198.59259259259258 113.45833333333334)"/><path d="M361 499.96l2.97-.13m3.97-.17l5.95-.26m3.96-.17l5.95-.26m3.97-.17l5.95-.26m3.97-.17l5.94-.26m3.97-.16l5.96-.26m3.96-.17l5.96-.25m3.96-.17l5.95-.26m3.96-.17l5.95-.26m3.97-.18l5.96-.26m3.96-.17l5.94-.27m3.97-.17l5.96-.26m3.96-.17l5.96-.26m3.96-.17l5.95-.26m3.96-.17l5.95-.26m3.97-.16l5.96-.26m3.96-.17l5.94-.25m3.97-.17l5.96-.26m3.97-.17l5.95-.26m3.96-.18l5.95-.26m3.96-.17l5.95-.27m3.98-.17l5.95-.26m3.96-.17l5.94-.26m3.97-.17l5.96-.26m3.97-.17l2.97-.13" stroke="#3a414a" stroke-width="2" fill="none"/><path d="M361.07 500.93l-1.07.05v-1.96l.98-.04z" stroke="#3a414a" stroke-width=".05" fill="#3a414a"/><path d="M598.98 489.64l1.02-.04M361 500.07l2.96.2m3.95.28l5.94.42m3.95.27l5.9.42m3.96.28l5.93.4m3.94.3l5.92.4m3.95.28l5.94.4m3.95.3l5.9.4m3.96.28l5.93.42m3.94.27l5.92.4m3.95.28l5.94.42m3.95.27l5.9.42m3.96.27l5.93.4m3.94.3l5.92.4m3.95.28l5.94.4m3.95.3l5.9.4m3.96.28l5.93.42m3.94.27l2.96.2" stroke="#3a414a" stroke-width="2" fill="none"/><path d="M361.1 499.1l-.15 1.94-.95-.06v-1.96z" stroke="#3a414a" stroke-width=".05" fill="#3a414a"/><path d="M518.98 511.13l1.02.07" stroke="#3a414a" stroke-width="2" fill="none"/><path d="M760.55 546a6 6 0 0 1 6-6H858a6 6 0 0 0 6-6v-8a2.3 2.3 0 0 1 4-1.54l28 31.08a6.67 6.67 0 0 1 0 8.92l-28 31.08a2.3 2.3 0 0 1-4-1.54v-8a6 6 0 0 0-6-6h-91.45a6 6 0 0 1-6-6z" fill="#fc9432"/><path d="M699.75 605.42a6 6 0 0 1 6-6H954a6 6 0 0 1 6 6V794a6 6 0 0 1-6 6H705.75a6 6 0 0 1-6-6z" stroke="#000" stroke-opacity="0" stroke-width="3" fill="#fff" fill-opacity="0"/><use xlink:href="#q" transform="matrix(1,0,0,1,704.7500735078718,604.4166666666666) translate(21.98148148148148 39.239583333333336)"/><use xlink:href="#r" transform="matrix(1,0,0,1,704.7500735078718,604.4166666666666) translate(51.611111111111114 39.239583333333336)"/><use xlink:href="#s" transform="matrix(1,0,0,1,704.7500735078718,604.4166666666666) translate(127.01851851851852 39.239583333333336)"/><use xlink:href="#t" transform="matrix(1,0,0,1,704.7500735078718,604.4166666666666) translate(7.833333333333329 71.23958333333334)"/><use xlink:href="#u" transform="matrix(1,0,0,1,704.7500735078718,604.4166666666666) translate(66.94444444444444 71.23958333333334)"/><use xlink:href="#v" transform="matrix(1,0,0,1,704.7500735078718,604.4166666666666) translate(176.5 71.23958333333334)"/><use xlink:href="#j" transform="matrix(1,0,0,1,704.7500735078718,604.4166666666666) translate(206.12962962962962 71.23958333333334)"/><use xlink:href="#w" transform="matrix(1,0,0,1,704.7500735078718,604.4166666666666) translate(9.277777777777771 103.23958333333334)"/><use xlink:href="#x" transform="matrix(1,0,0,1,704.7500735078718,604.4166666666666) translate(83.27777777777779 103.23958333333334)"/><use xlink:href="#y" transform="matrix(1,0,0,1,704.7500735078718,604.4166666666666) translate(135.12962962962962 103.23958333333334)"/><use xlink:href="#j" transform="matrix(1,0,0,1,704.7500735078718,604.4166666666666) translate(204.6851851851852 103.23958333333334)"/><use xlink:href="#z" transform="matrix(1,0,0,1,704.7500735078718,604.4166666666666) translate(26.462962962962962 135.23958333333334)"/><use xlink:href="#A" transform="matrix(1,0,0,1,704.7500735078718,604.4166666666666) translate(76.68518518518519 135.23958333333334)"/><use xlink:href="#B" transform="matrix(1,0,0,1,704.7500735078718,604.4166666666666) translate(143.20370370370372 135.23958333333334)"/><use xlink:href="#C" transform="matrix(1,0,0,1,704.7500735078718,604.4166666666666) translate(172.83333333333334 135.23958333333334)"/><use xlink:href="#D" transform="matrix(1,0,0,1,704.7500735078718,604.4166666666666) translate(92.2037037037037 167.23958333333334)"/><path d="M460 660a20 20 0 0 1 20-20h160a20 20 0 0 1 20 20v100a20 20 0 0 1-20 20H480a20 20 0 0 1-20-20z" stroke="#1071e5" stroke-width="3" fill="url(#E)"/><use xlink:href="#b" transform="matrix(1,0,0,1,465,645) translate(42.27469135802468 68.30555555555556)"/><use xlink:href="#F" transform="matrix(1,0,0,1,465,645) translate(114.1820987654321 68.30555555555556)"/><path d="M440 680a20 20 0 0 1 20-20h160a20 20 0 0 1 20 20v100a20 20 0 0 1-20 20H460a20 20 0 0 1-20-20z" stroke="#82755b" stroke-width="3" fill="url(#G)"/><use xlink:href="#b" transform="matrix(1,0,0,1,445,665) translate(41.62962962962962 68.30555555555556)"/><use xlink:href="#H" transform="matrix(1,0,0,1,445,665) translate(113.53703703703704 68.30555555555556)"/><path d="M600 518.83V462.5" stroke="#1071e5" stroke-width="2" fill="none"/><path d="M600 534.1l-4.63-14.27h9.26z" stroke="#1071e5" stroke-width="2" fill="#1071e5"/><path d="M600.98 462.53H599v-1.03H601z" stroke="#1071e5" stroke-width=".05" fill="#1071e5"/><path d="M600.8 620v-37.5" stroke="#1071e5" stroke-width="2" fill="none"/><path d="M600.8 635.26L596.17 621h9.26z" stroke="#1071e5" stroke-width="2" fill="#1071e5"/><path d="M601.77 582.53h-1.94v-1.03h1.94z" stroke="#1071e5" stroke-width=".05" fill="#1071e5"/><path d="M520 518.83V482.5" stroke="#008a0e" stroke-width="2" fill="none"/><path d="M520 534.1l-4.63-14.27h9.26z" stroke="#008a0e" stroke-width="2" fill="#008a0e"/><path d="M520.98 482.53H519v-1.03H521z" stroke="#008a0e" stroke-width=".05" fill="#008a0e"/><path d="M981.9 558.83a20 20 0 0 1 20-20h200a20 20 0 0 1 20 20V560a20 20 0 0 1-20 20h-200a20 20 0 0 1-20-20z" stroke="#000" stroke-width="3" fill="#fff"/><use xlink:href="#d" transform="matrix(1,0,0,1,986.9003267811336,543.8333333333333) translate(31.588333333333317 21.555555555555557)"/><use xlink:href="#e" transform="matrix(1,0,0,1,986.9003267811336,543.8333333333333) translate(136.02043209876547 21.555555555555557)"/><path d="M1078.85 440a20 20 0 0 1 20-20h80a20 20 0 0 1 20 20 20 20 0 0 1-20 20h-80a20 20 0 0 1-20-20z" stroke="#1071e5" stroke-width="3" fill="#e8e2c8"/><use xlink:href="#f" transform="matrix(1,0,0,1,1083.8503017811336,425) translate(24.653148148148148 21.430555555555557)"/><path d="M998.85 460a20 20 0 0 1 20-20h80a20 20 0 0 1 20 20 20 20 0 0 1-20 20h-80a20 20 0 0 1-20-20z" stroke="#008a0e" stroke-width="3" fill="#e8e2c8"/><g><use xlink:href="#g" transform="matrix(1,0,0,1,1003.8503017811336,445) translate(19.967962962962957 21.430555555555557)"/></g><path d="M1138.85 518.83V462.5" stroke="#1071e5" stroke-width="2" fill="none"/><path d="M1138.85 534.1l-4.63-14.27h9.27z" stroke="#1071e5" stroke-width="2" fill="#1071e5"/><path d="M1139.83 462.53h-1.95v-1.03h1.94z" stroke="#1071e5" stroke-width=".05" fill="#1071e5"/><path d="M1058.85 518.83V482.5" stroke="#008a0e" stroke-width="2" fill="none"/><path d="M1058.85 534.1l-4.63-14.27h9.26z" stroke="#008a0e" stroke-width="2" fill="#008a0e"/><path d="M1059.83 482.53h-1.95v-1.03h1.94z" stroke="#008a0e" stroke-width=".05" fill="#008a0e"/><path d="M140 626a6 6 0 0 1 6-6h188a6 6 0 0 1 6 6v168a6 6 0 0 1-6 6H146a6 6 0 0 1-6-6z" stroke="#000" stroke-opacity="0" stroke-width="3" fill="#fff" fill-opacity="0"/><g><use xlink:href="#I" transform="matrix(1,0,0,1,145,625) translate(5.481481481481467 26.645833333333336)"/><use xlink:href="#J" transform="matrix(1,0,0,1,145,625) translate(58.74074074074073 26.645833333333336)"/><use xlink:href="#K" transform="matrix(1,0,0,1,145,625) translate(146.07407407407408 26.645833333333336)"/><use xlink:href="#L" transform="matrix(1,0,0,1,145,625) translate(1 58.645833333333336)"/><use xlink:href="#M" transform="matrix(1,0,0,1,145,625) translate(131.22222222222223 58.645833333333336)"/><use xlink:href="#N" transform="matrix(1,0,0,1,145,625) translate(6.185185185185162 90.64583333333334)"/><use xlink:href="#O" transform="matrix(1,0,0,1,145,625) translate(86.1111111111111 90.64583333333334)"/><use xlink:href="#P" transform="matrix(1,0,0,1,145,625) translate(108.33333333333333 90.64583333333334)"/><use xlink:href="#Q" transform="matrix(1,0,0,1,145,625) translate(161.5925925925926 90.64583333333334)"/><use xlink:href="#R" transform="matrix(1,0,0,1,145,625) translate(21.40740740740739 122.64583333333334)"/><use xlink:href="#S" transform="matrix(1,0,0,1,145,625) translate(65.85185185185183 122.64583333333334)"/><use xlink:href="#T" transform="matrix(1,0,0,1,145,625) translate(66.11111111111111 154.64583333333334)"/></g><path d="M340.87 710.5l2.63 1.53m3.52 2.04l5.28 3.06m3.52 2.04l5.28 3.06m3.52 2.03l5.28 3.06m3.52 2.04l5.27 3.06m3.5 2.04l5.3 3.06m3.5 2.04l5.3 3.06m3.5 2.04l5.28 3.06m3.52 2.03l5.28 3.06m3.52 2.05l5.28 3.06m3.52 2.05l5.28 3.06m3.52 2.05l2.63 1.53" stroke="#3a414a" stroke-width="2" fill="none"/><path d="M341.38 709.67l-.98 1.7-.4-.24v-2.26zM438.5 765.95v2.25l-1.38-.8.98-1.68z" stroke="#3a414a" stroke-width=".05" fill="#3a414a"/><path d="M960.97 625l2.86-.76m3.8-1.02l5.74-1.53m3.82-1.03l5.7-1.54m3.83-1.02l5.72-1.52m3.82-1.02l5.73-1.54m3.8-1.02l5.74-1.53m3.8-1.02l5.74-1.54m3.82-1l5.72-1.54m3.82-1.02l5.72-1.54m3.82-1.02l5.72-1.53m3.82-1.02l2.86-.77" stroke="#3a414a" stroke-width="2" fill="none"/><path d="M961.24 625.95l-1.24.33v-2.02l.74-.2z" stroke="#3a414a" stroke-width=".05" fill="#3a414a"/><path d="M1056.36 599.47l1-.27" stroke="#3a414a" stroke-width="2" fill="none"/><path d="M1021.9 640a20 20 0 0 1 20-20h160a20 20 0 0 1 20 20v100a20 20 0 0 1-20 20h-160a20 20 0 0 1-20-20z" stroke="#008a0e" stroke-width="3" fill="url(#U)"/><g><use xlink:href="#b" transform="matrix(1,0,0,1,1026.9003267811336,625) translate(42.27469135802468 68.30555555555556)"/><use xlink:href="#c" transform="matrix(1,0,0,1,1026.9003267811336,625) translate(114.1820987654321 68.30555555555556)"/></g><path d="M1001.9 660a20 20 0 0 1 20-20h160a20 20 0 0 1 20 20v100a20 20 0 0 1-20 20h-160a20 20 0 0 1-20-20z" stroke="#1071e5" stroke-width="3" fill="url(#V)"/><g><use xlink:href="#b" transform="matrix(1,0,0,1,1006.9003267811336,645) translate(42.27469135802468 68.30555555555556)"/><use xlink:href="#F" transform="matrix(1,0,0,1,1006.9003267811336,645) translate(114.1820987654321 68.30555555555556)"/></g><path d="M981.9 680a20 20 0 0 1 20-20h160a20 20 0 0 1 20 20v100a20 20 0 0 1-20 20h-160a20 20 0 0 1-20-20z" stroke="#82755b" stroke-width="3" fill="url(#W)"/><g><use xlink:href="#b" transform="matrix(1,0,0,1,986.9003267811336,665) translate(41.62962962962962 68.30555555555556)"/><use xlink:href="#H" transform="matrix(1,0,0,1,986.9003267811336,665) translate(113.53703703703704 68.30555555555556)"/></g><path d="M1138.85 620v-37.5" stroke="#1071e5" stroke-width="2" fill="none"/><path d="M1138.85 635.26l-4.63-14.26h9.27z" stroke="#1071e5" stroke-width="2" fill="#1071e5"/><path d="M1139.83 582.53h-1.95v-1.03h1.94z" stroke="#1071e5" stroke-width=".05" fill="#1071e5"/><path d="M1057.35 600v-17.5" stroke="#008a0e" stroke-width="2" fill="none"/><path d="M1057.35 615.26l-4.63-14.26h9.27z" stroke="#008a0e" stroke-width="2" fill="#008a0e"/><path d="M1058.33 582.53h-1.95v-1.03h1.94z" stroke="#008a0e" stroke-width=".05" fill="#008a0e"/><defs><linearGradient gradientUnits="userSpaceOnUse" id="a" x1="480" y1="760" x2="480" y2="620"><stop offset="19.2%" stop-color="#ced4db"/><stop offset="26.45%" stop-color="#fff"/><stop offset="45.29%" stop-color="#fff"/><stop offset="52.54%" stop-color="#cfe4ff"/><stop offset="73.91%" stop-color="#cfe4ff"/><stop offset="82.97%" stop-color="#c3f7c8"/></linearGradient><path d="M185-189c-5-48-123-54-124 2 14 75 158 14 163 119 3 78-121 87-175 55-17-10-28-26-33-46l33-7c5 56 141 63 141-1 0-78-155-14-162-118-5-82 145-84 179-34 5 7 8 16 11 25" id="X"/><path d="M106-169C34-169 62-67 57 0H25v-261h32l-1 103c12-21 28-36 61-36 89 0 53 116 60 194h-32v-121c2-32-8-49-39-48" id="Y"/><path d="M141-36C126-15 110 5 73 4 37 3 15-17 15-53c-1-64 63-63 125-63 3-35-9-54-41-54-24 1-41 7-42 31l-33-3c5-37 33-52 76-52 45 0 72 20 72 64v82c-1 20 7 32 28 27v20c-31 9-61-2-59-35zM48-53c0 20 12 33 32 33 41-3 63-29 60-74-43 2-92-5-92 41" id="Z"/><path d="M114-163C36-179 61-72 57 0H25l-1-190h30c1 12-1 29 2 39 6-27 23-49 58-41v29" id="aa"/><path d="M85-194c31 0 48 13 60 33l-1-100h32l1 261h-30c-2-10 0-23-3-31C134-8 116 4 85 4 32 4 16-35 15-94c0-66 23-100 70-100zm9 24c-40 0-46 34-46 75 0 40 6 74 45 74 42 0 51-32 51-76 0-42-9-74-50-73" id="ab"/><g id="b"><use transform="matrix(0.06790123456790124,0,0,0.06790123456790124,0,0)" xlink:href="#X"/><use transform="matrix(0.06790123456790124,0,0,0.06790123456790124,16.296296296296298,0)" xlink:href="#Y"/><use transform="matrix(0.06790123456790124,0,0,0.06790123456790124,29.876543209876544,0)" xlink:href="#Z"/><use transform="matrix(0.06790123456790124,0,0,0.06790123456790124,43.45679012345679,0)" xlink:href="#aa"/><use transform="matrix(0.06790123456790124,0,0,0.06790123456790124,51.53703703703704,0)" xlink:href="#ab"/></g><path d="M109-170H84l-4-78h32zm-65 0H19l-4-78h33" id="ac"/><path d="M205 0l-28-72H64L36 0H1l101-248h38L239 0h-34zm-38-99l-47-123c-12 45-31 82-46 123h93" id="ad"/><g id="c"><use transform="matrix(0.06790123456790124,0,0,0.06790123456790124,0,0)" xlink:href="#ac"/><use transform="matrix(0.06790123456790124,0,0,0.06790123456790124,8.623456790123457,0)" xlink:href="#ad"/><use transform="matrix(0.06790123456790124,0,0,0.06790123456790124,24.919753086419753,0)" xlink:href="#ac"/></g><path d="M24-231v-30h32v30H24zM24 0v-190h32V0H24" id="ae"/><path d="M117-194c89-4 53 116 60 194h-32v-121c0-31-8-49-39-48C34-167 62-67 57 0H25l-1-190h30c1 10-1 24 2 32 11-22 29-35 61-36" id="af"/><path d="M177-190C167-65 218 103 67 71c-23-6-38-20-44-43l32-5c15 47 100 32 89-28v-30C133-14 115 1 83 1 29 1 15-40 15-95c0-56 16-97 71-98 29-1 48 16 59 35 1-10 0-23 2-32h30zM94-22c36 0 50-32 50-73 0-42-14-75-50-75-39 0-46 34-46 75s6 73 46 73" id="ag"/><g id="d"><use transform="matrix(0.06790123456790124,0,0,0.06790123456790124,0,0)" xlink:href="#X"/><use transform="matrix(0.06790123456790124,0,0,0.06790123456790124,16.296296296296298,0)" xlink:href="#Y"/><use transform="matrix(0.06790123456790124,0,0,0.06790123456790124,29.876543209876544,0)" xlink:href="#Z"/><use transform="matrix(0.06790123456790124,0,0,0.06790123456790124,43.45679012345679,0)" xlink:href="#aa"/><use transform="matrix(0.06790123456790124,0,0,0.06790123456790124,51.53703703703704,0)" xlink:href="#ab"/><use transform="matrix(0.06790123456790124,0,0,0.06790123456790124,65.11728395061729,0)" xlink:href="#ae"/><use transform="matrix(0.06790123456790124,0,0,0.06790123456790124,70.4814814814815,0)" xlink:href="#af"/><use transform="matrix(0.06790123456790124,0,0,0.06790123456790124,84.06172839506176,0)" xlink:href="#ag"/></g><path d="M30-248c87 1 191-15 191 75 0 78-77 80-158 76V0H30v-248zm33 125c57 0 124 11 124-50 0-59-68-47-124-48v98" id="ah"/><path d="M100-194c62-1 85 37 85 99 1 63-27 99-86 99S16-35 15-95c0-66 28-99 85-99zM99-20c44 1 53-31 53-75 0-43-8-75-51-75s-53 32-53 75 10 74 51 75" id="ai"/><path d="M141 0L90-78 38 0H4l68-98-65-92h35l48 74 47-74h35l-64 92 68 98h-35" id="aj"/><path d="M179-190L93 31C79 59 56 82 12 73V49c39 6 53-20 64-50L1-190h34L92-34l54-156h33" id="ak"/><g id="e"><use transform="matrix(0.06790123456790124,0,0,0.06790123456790124,0,0)" xlink:href="#ah"/><use transform="matrix(0.06790123456790124,0,0,0.06790123456790124,16.296296296296298,0)" xlink:href="#aa"/><use transform="matrix(0.06790123456790124,0,0,0.06790123456790124,24.376543209876544,0)" xlink:href="#ai"/><use transform="matrix(0.06790123456790124,0,0,0.06790123456790124,37.95679012345679,0)" xlink:href="#aj"/><use transform="matrix(0.06790123456790124,0,0,0.06790123456790124,50.17901234567901,0)" xlink:href="#ak"/></g><path d="M160-131c35 5 61 23 61 61C221 17 115-2 30 0v-248c76 3 177-17 177 60 0 33-19 50-47 57zm-97-11c50-1 110 9 110-42 0-47-63-36-110-37v79zm0 115c55-2 124 14 124-45 0-56-70-42-124-44v89" id="al"/><path d="M115-194c53 0 69 39 70 98 0 66-23 100-70 100C84 3 66-7 56-30L54 0H23l1-261h32v101c10-23 28-34 59-34zm-8 174c40 0 45-34 45-75 0-40-5-75-45-74-42 0-51 32-51 76 0 43 10 73 51 73" id="am"/><g id="f"><use transform="matrix(0.06790123456790124,0,0,0.06790123456790124,0,0)" xlink:href="#ac"/><use transform="matrix(0.06790123456790124,0,0,0.06790123456790124,8.623456790123457,0)" xlink:href="#al"/><use transform="matrix(0.06790123456790124,0,0,0.06790123456790124,24.919753086419753,0)" xlink:href="#ai"/><use transform="matrix(0.06790123456790124,0,0,0.06790123456790124,38.5,0)" xlink:href="#am"/><use transform="matrix(0.06790123456790124,0,0,0.06790123456790124,52.08024691358025,0)" xlink:href="#ac"/></g><path d="M24 0v-261h32V0H24" id="an"/><path d="M96-169c-40 0-48 33-48 73s9 75 48 75c24 0 41-14 43-38l32 2c-6 37-31 61-74 61-59 0-76-41-82-99-10-93 101-131 147-64 4 7 5 14 7 22l-32 3c-4-21-16-35-41-35" id="ao"/><path d="M100-194c63 0 86 42 84 106H49c0 40 14 67 53 68 26 1 43-12 49-29l28 8c-11 28-37 45-77 45C44 4 14-33 15-96c1-61 26-98 85-98zm52 81c6-60-76-77-97-28-3 7-6 17-6 28h103" id="ap"/><g id="g"><use transform="matrix(0.06790123456790124,0,0,0.06790123456790124,0,0)" xlink:href="#ac"/><use transform="matrix(0.06790123456790124,0,0,0.06790123456790124,8.623456790123457,0)" xlink:href="#ad"/><use transform="matrix(0.06790123456790124,0,0,0.06790123456790124,24.919753086419753,0)" xlink:href="#an"/><use transform="matrix(0.06790123456790124,0,0,0.06790123456790124,30.283950617283953,0)" xlink:href="#ae"/><use transform="matrix(0.06790123456790124,0,0,0.06790123456790124,35.64814814814815,0)" xlink:href="#ao"/><use transform="matrix(0.06790123456790124,0,0,0.06790123456790124,47.87037037037038,0)" xlink:href="#ap"/><use transform="matrix(0.06790123456790124,0,0,0.06790123456790124,61.45061728395062,0)" xlink:href="#ac"/></g><path d="M212-179c-10-28-35-45-73-45-59 0-87 40-87 99 0 60 29 101 89 101 43 0 62-24 78-52l27 14C228-24 195 4 139 4 59 4 22-46 18-125c-6-104 99-153 187-111 19 9 31 26 39 46" id="aq"/><path d="M59-47c-2 24 18 29 38 22v24C64 9 27 4 27-40v-127H5v-23h24l9-43h21v43h35v23H59v120" id="ar"/><path d="M135-143c-3-34-86-38-87 0 15 53 115 12 119 90S17 21 10-45l28-5c4 36 97 45 98 0-10-56-113-15-118-90-4-57 82-63 122-42 12 7 21 19 24 35" id="as"/><g id="h"><use transform="matrix(0.07407407407407408,0,0,0.07407407407407408,0,0)" xlink:href="#aq"/><use transform="matrix(0.07407407407407408,0,0,0.07407407407407408,19.185185185185187,0)" xlink:href="#an"/><use transform="matrix(0.07407407407407408,0,0,0.07407407407407408,25.037037037037035,0)" xlink:href="#ae"/><use transform="matrix(0.07407407407407408,0,0,0.07407407407407408,30.888888888888893,0)" xlink:href="#ap"/><use transform="matrix(0.07407407407407408,0,0,0.07407407407407408,45.70370370370371,0)" xlink:href="#af"/><use transform="matrix(0.07407407407407408,0,0,0.07407407407407408,60.518518518518526,0)" xlink:href="#ar"/><use transform="matrix(0.07407407407407408,0,0,0.07407407407407408,67.92592592592594,0)" xlink:href="#as"/></g><g id="i"><use transform="matrix(0.07407407407407408,0,0,0.07407407407407408,0,0)" xlink:href="#aa"/><use transform="matrix(0.07407407407407408,0,0,0.07407407407407408,8.814814814814817,0)" xlink:href="#ap"/><use transform="matrix(0.07407407407407408,0,0,0.07407407407407408,23.629629629629633,0)" xlink:href="#Z"/><use transform="matrix(0.07407407407407408,0,0,0.07407407407407408,38.44444444444445,0)" xlink:href="#ao"/><use transform="matrix(0.07407407407407408,0,0,0.07407407407407408,51.777777777777786,0)" xlink:href="#Y"/></g><g id="j"><use transform="matrix(0.07407407407407408,0,0,0.07407407407407408,0,0)" xlink:href="#ar"/><use transform="matrix(0.07407407407407408,0,0,0.07407407407407408,7.407407407407408,0)" xlink:href="#Y"/><use transform="matrix(0.07407407407407408,0,0,0.07407407407407408,22.222222222222225,0)" xlink:href="#ap"/></g><path d="M210-169c-67 3-38 105-44 169h-31v-121c0-29-5-50-35-48C34-165 62-65 56 0H25l-1-190h30c1 10-1 24 2 32 10-44 99-50 107 0 11-21 27-35 58-36 85-2 47 119 55 194h-31v-121c0-29-5-49-35-48" id="at"/><g id="k"><use transform="matrix(0.07407407407407408,0,0,0.07407407407407408,0,0)" xlink:href="#as"/><use transform="matrix(0.07407407407407408,0,0,0.07407407407407408,13.333333333333336,0)" xlink:href="#ak"/><use transform="matrix(0.07407407407407408,0,0,0.07407407407407408,26.66666666666667,0)" xlink:href="#as"/><use transform="matrix(0.07407407407407408,0,0,0.07407407407407408,40.00000000000001,0)" xlink:href="#ar"/><use transform="matrix(0.07407407407407408,0,0,0.07407407407407408,47.40740740740742,0)" xlink:href="#ap"/><use transform="matrix(0.07407407407407408,0,0,0.07407407407407408,62.222222222222236,0)" xlink:href="#at"/></g><path d="M84 4C-5 8 30-112 23-190h32v120c0 31 7 50 39 49 72-2 45-101 50-169h31l1 190h-30c-1-10 1-25-2-33-11 22-28 36-60 37" id="au"/><g id="l"><use transform="matrix(0.07407407407407408,0,0,0.07407407407407408,0,0)" xlink:href="#ar"/><use transform="matrix(0.07407407407407408,0,0,0.07407407407407408,7.407407407407408,0)" xlink:href="#Y"/><use transform="matrix(0.07407407407407408,0,0,0.07407407407407408,22.222222222222225,0)" xlink:href="#aa"/><use transform="matrix(0.07407407407407408,0,0,0.07407407407407408,31.03703703703704,0)" xlink:href="#ai"/><use transform="matrix(0.07407407407407408,0,0,0.07407407407407408,45.851851851851855,0)" xlink:href="#au"/><use transform="matrix(0.07407407407407408,0,0,0.07407407407407408,60.66666666666667,0)" xlink:href="#ag"/><use transform="matrix(0.07407407407407408,0,0,0.07407407407407408,75.4814814814815,0)" xlink:href="#Y"/></g><use transform="matrix(0.07407407407407408,0,0,0.07407407407407408,0,0)" xlink:href="#Z" id="m"/><path d="M194-120c59 52 2 134-86 124-53-6-90-18-98-63l31-7c8 30 29 43 70 43 46 0 84-17 71-62-32-43-135-20-137-98-3-89 178-90 191-16l-30 9c-8-48-127-53-127 5 0 53 81 35 115 65" id="av"/><path d="M67-158c15-20 31-36 64-36 94 0 33 127 27 194h-32l25-140c3-38-53-32-70-12C52-117 51-51 37 0H6l51-261h31" id="aw"/><path d="M165-48c-4 18 1 34 23 27l-3 20c-29 8-62 0-52-35h-2C116-14 99 4 63 4 30 4 8-16 8-49c0-68 71-67 138-67 10-26 0-56-31-54-26 1-42 9-47 31l-32-5c8-67 160-71 144 15-5 28-9 54-15 81zM42-50c3 52 80 24 89-6 7-12 7-24 11-38-47 1-103-4-100 44" id="ax"/><path d="M66-151c12-25 30-51 66-40l-6 26C45-176 58-65 38 0H6l36-190h30" id="ay"/><path d="M133-28C103 26-5 8 13-77c13-62 24-115 90-117 29-1 46 15 56 35l19-102h32L160 0h-30zM45-64c-2 27 10 43 35 43 54-1 69-50 69-103 0-29-15-46-42-46-53-1-58 58-62 106" id="az"/><path d="M50-231l6-30h32l-6 30H50zM6 0l37-190h31L37 0H6" id="aA"/><path d="M67-158c22-48 132-52 116 29L158 0h-32l25-140c3-38-53-32-70-12C52-117 51-52 38 0H6l36-190h30" id="aB"/><path d="M103-194c29 0 47 14 56 36 2-11 5-23 8-32h30L160-5C157 61 82 97 21 62 9 55 4 45 1 30l28-7c7 42 83 31 92-3 4-16 9-38 13-55-13 20-29 36-62 36-40 0-60-25-60-64 0-71 23-131 91-131zm4 24c-53 0-58 54-61 104-2 27 10 44 36 44 49 0 65-50 67-102 1-29-15-46-42-46" id="aC"/><g id="n"><use transform="matrix(0.07407407407407408,0,0,0.07407407407407408,0,0)" xlink:href="#av"/><use transform="matrix(0.07407407407407408,0,0,0.07407407407407408,17.77777777777778,0)" xlink:href="#aw"/><use transform="matrix(0.07407407407407408,0,0,0.07407407407407408,32.592592592592595,0)" xlink:href="#ax"/><use transform="matrix(0.07407407407407408,0,0,0.07407407407407408,47.40740740740741,0)" xlink:href="#ay"/><use transform="matrix(0.07407407407407408,0,0,0.07407407407407408,56.22222222222223,0)" xlink:href="#az"/><use transform="matrix(0.07407407407407408,0,0,0.07407407407407408,71.03703703703704,0)" xlink:href="#aA"/><use transform="matrix(0.07407407407407408,0,0,0.07407407407407408,76.88888888888889,0)" xlink:href="#aB"/><use transform="matrix(0.07407407407407408,0,0,0.07407407407407408,91.7037037037037,0)" xlink:href="#aC"/></g><path d="M238-179c0 84-86 86-175 82L45 0H11l48-248c82 0 179-12 179 69zm-34 1c0-53-64-42-116-43l-19 98c63 0 135 9 135-55" id="aD"/><path d="M30-147c31-64 166-65 159 27C183-49 158 1 86 4 9 8 1-88 30-147zM88-20c53 0 68-48 68-100 0-31-11-51-44-50-52 1-68 46-68 97 0 32 13 53 44 53" id="aE"/><path d="M124 0L87-78 21 0h-35l86-98-46-92h33l34 74 61-74h37l-83 92 50 98h-34" id="aF"/><path d="M198-190L69 30C53 58 25 83-20 72c4-11-1-27 19-22 33-1 43-29 59-52L20-190h32L79-34l84-156h35" id="aG"/><g id="o"><use transform="matrix(0.07407407407407408,0,0,0.07407407407407408,0,0)" xlink:href="#aD"/><use transform="matrix(0.07407407407407408,0,0,0.07407407407407408,17.77777777777778,0)" xlink:href="#ay"/><use transform="matrix(0.07407407407407408,0,0,0.07407407407407408,26.592592592592595,0)" xlink:href="#aE"/><use transform="matrix(0.07407407407407408,0,0,0.07407407407407408,41.40740740740741,0)" xlink:href="#aF"/><use transform="matrix(0.07407407407407408,0,0,0.07407407407407408,54.74074074074075,0)" xlink:href="#aG"/></g><path d="M33 0v-38h34V0H33" id="aH"/><g id="p"><use transform="matrix(0.07407407407407408,0,0,0.07407407407407408,0,0)" xlink:href="#aH"/><use transform="matrix(0.07407407407407408,0,0,0.07407407407407408,7.407407407407408,0)" xlink:href="#aH"/><use transform="matrix(0.07407407407407408,0,0,0.07407407407407408,14.814814814814817,0)" xlink:href="#aH"/></g><g id="q"><use transform="matrix(0.07407407407407408,0,0,0.07407407407407408,0,0)" xlink:href="#aH"/><use transform="matrix(0.07407407407407408,0,0,0.07407407407407408,7.407407407407408,0)" xlink:href="#aH"/><use transform="matrix(0.07407407407407408,0,0,0.07407407407407408,14.814814814814817,0)" xlink:href="#aH"/></g><path d="M206 0h-36l-40-164L89 0H53L-1-190h32L70-26l43-164h34l41 164 42-164h31" id="aI"/><g id="r"><use transform="matrix(0.07407407407407408,0,0,0.07407407407407408,0,0)" xlink:href="#aI"/><use transform="matrix(0.07407407407407408,0,0,0.07407407407407408,19.185185185185187,0)" xlink:href="#Y"/><use transform="matrix(0.07407407407407408,0,0,0.07407407407407408,34,0)" xlink:href="#ae"/><use transform="matrix(0.07407407407407408,0,0,0.07407407407407408,39.851851851851855,0)" xlink:href="#ao"/><use transform="matrix(0.07407407407407408,0,0,0.07407407407407408,53.18518518518519,0)" xlink:href="#Y"/></g><path d="M101-234c-31-9-42 10-38 44h38v23H63V0H32v-167H5v-23h27c-7-52 17-82 69-68v24" id="aJ"/><g id="s"><use transform="matrix(0.07407407407407408,0,0,0.07407407407407408,0,0)" xlink:href="#aJ"/><use transform="matrix(0.07407407407407408,0,0,0.07407407407407408,7.407407407407408,0)" xlink:href="#ai"/><use transform="matrix(0.07407407407407408,0,0,0.07407407407407408,22.222222222222225,0)" xlink:href="#aa"/><use transform="matrix(0.07407407407407408,0,0,0.07407407407407408,31.03703703703704,0)" xlink:href="#aI"/><use transform="matrix(0.07407407407407408,0,0,0.07407407407407408,50.22222222222223,0)" xlink:href="#Z"/><use transform="matrix(0.07407407407407408,0,0,0.07407407407407408,65.03703703703704,0)" xlink:href="#aa"/><use transform="matrix(0.07407407407407408,0,0,0.07407407407407408,73.85185185185185,0)" xlink:href="#ab"/><use transform="matrix(0.07407407407407408,0,0,0.07407407407407408,88.66666666666666,0)" xlink:href="#as"/></g><g id="t"><use transform="matrix(0.07407407407407408,0,0,0.07407407407407408,0,0)" xlink:href="#ar"/><use transform="matrix(0.07407407407407408,0,0,0.07407407407407408,7.407407407407408,0)" xlink:href="#Y"/><use transform="matrix(0.07407407407407408,0,0,0.07407407407407408,22.222222222222225,0)" xlink:href="#ap"/><use transform="matrix(0.07407407407407408,0,0,0.07407407407407408,37.03703703703704,0)" xlink:href="#ae"/><use transform="matrix(0.07407407407407408,0,0,0.07407407407407408,42.88888888888889,0)" xlink:href="#aa"/></g><path d="M145-31C134-9 116 4 85 4 32 4 16-35 15-94c0-59 17-99 70-100 32-1 48 14 60 33 0-11-1-24 2-32h30l-1 268h-32zM93-21c41 0 51-33 51-76s-8-73-50-73c-40 0-46 35-46 75s5 74 45 74" id="aK"/><g id="u"><use transform="matrix(0.07407407407407408,0,0,0.07407407407407408,0,0)" xlink:href="#aa"/><use transform="matrix(0.07407407407407408,0,0,0.07407407407407408,8.814814814814817,0)" xlink:href="#ap"/><use transform="matrix(0.07407407407407408,0,0,0.07407407407407408,23.629629629629633,0)" xlink:href="#aK"/><use transform="matrix(0.07407407407407408,0,0,0.07407407407407408,38.44444444444445,0)" xlink:href="#au"/><use transform="matrix(0.07407407407407408,0,0,0.07407407407407408,53.25925925925927,0)" xlink:href="#ap"/><use transform="matrix(0.07407407407407408,0,0,0.07407407407407408,68.07407407407408,0)" xlink:href="#as"/><use transform="matrix(0.07407407407407408,0,0,0.07407407407407408,81.40740740740742,0)" xlink:href="#ar"/><use transform="matrix(0.07407407407407408,0,0,0.07407407407407408,88.81481481481482,0)" xlink:href="#as"/></g><g id="v"><use transform="matrix(0.07407407407407408,0,0,0.07407407407407408,0,0)" xlink:href="#ar"/><use transform="matrix(0.07407407407407408,0,0,0.07407407407407408,7.407407407407408,0)" xlink:href="#ai"/></g><g id="w"><use transform="matrix(0.07407407407407408,0,0,0.07407407407407408,0,0)" xlink:href="#as"/><use transform="matrix(0.07407407407407408,0,0,0.07407407407407408,13.333333333333336,0)" xlink:href="#Y"/><use transform="matrix(0.07407407407407408,0,0,0.07407407407407408,28.148148148148152,0)" xlink:href="#Z"/><use transform="matrix(0.07407407407407408,0,0,0.07407407407407408,42.96296296296297,0)" xlink:href="#aa"/><use transform="matrix(0.07407407407407408,0,0,0.07407407407407408,51.777777777777786,0)" xlink:href="#ab"/></g><g id="x"><use transform="matrix(0.07407407407407408,0,0,0.07407407407407408,0,0)" xlink:href="#ar"/><use transform="matrix(0.07407407407407408,0,0,0.07407407407407408,7.407407407407408,0)" xlink:href="#Y"/><use transform="matrix(0.07407407407407408,0,0,0.07407407407407408,22.222222222222225,0)" xlink:href="#Z"/><use transform="matrix(0.07407407407407408,0,0,0.07407407407407408,37.03703703703704,0)" xlink:href="#ar"/></g><g id="y"><use transform="matrix(0.07407407407407408,0,0,0.07407407407407408,0,0)" xlink:href="#ai"/><use transform="matrix(0.07407407407407408,0,0,0.07407407407407408,14.814814814814817,0)" xlink:href="#aI"/><use transform="matrix(0.07407407407407408,0,0,0.07407407407407408,34,0)" xlink:href="#af"/><use transform="matrix(0.07407407407407408,0,0,0.07407407407407408,48.81481481481481,0)" xlink:href="#as"/></g><g id="z"><use transform="matrix(0.07407407407407408,0,0,0.07407407407407408,0,0)" xlink:href="#aJ"/><use transform="matrix(0.07407407407407408,0,0,0.07407407407407408,7.407407407407408,0)" xlink:href="#ae"/><use transform="matrix(0.07407407407407408,0,0,0.07407407407407408,13.259259259259261,0)" xlink:href="#aa"/><use transform="matrix(0.07407407407407408,0,0,0.07407407407407408,22.074074074074076,0)" xlink:href="#as"/><use transform="matrix(0.07407407407407408,0,0,0.07407407407407408,35.40740740740741,0)" xlink:href="#ar"/></g><g id="A"><use transform="matrix(0.07407407407407408,0,0,0.07407407407407408,0,0)" xlink:href="#an"/><use transform="matrix(0.07407407407407408,0,0,0.07407407407407408,5.851851851851853,0)" xlink:href="#ap"/><use transform="matrix(0.07407407407407408,0,0,0.07407407407407408,20.666666666666668,0)" xlink:href="#ar"/><use transform="matrix(0.07407407407407408,0,0,0.07407407407407408,28.074074074074076,0)" xlink:href="#ar"/><use transform="matrix(0.07407407407407408,0,0,0.07407407407407408,35.48148148148149,0)" xlink:href="#ap"/><use transform="matrix(0.07407407407407408,0,0,0.07407407407407408,50.296296296296305,0)" xlink:href="#aa"/></g><g id="B"><use transform="matrix(0.07407407407407408,0,0,0.07407407407407408,0,0)" xlink:href="#ai"/><use transform="matrix(0.07407407407407408,0,0,0.07407407407407408,14.814814814814817,0)" xlink:href="#aJ"/></g><g id="C"><use transform="matrix(0.07407407407407408,0,0,0.07407407407407408,0,0)" xlink:href="#ar"/><use transform="matrix(0.07407407407407408,0,0,0.07407407407407408,7.407407407407408,0)" xlink:href="#Y"/><use transform="matrix(0.07407407407407408,0,0,0.07407407407407408,22.222222222222225,0)" xlink:href="#ap"/><use transform="matrix(0.07407407407407408,0,0,0.07407407407407408,37.03703703703704,0)" xlink:href="#ae"/><use transform="matrix(0.07407407407407408,0,0,0.07407407407407408,42.88888888888889,0)" xlink:href="#aa"/></g><g id="D"><use transform="matrix(0.07407407407407408,0,0,0.07407407407407408,0,0)" xlink:href="#af"/><use transform="matrix(0.07407407407407408,0,0,0.07407407407407408,14.814814814814817,0)" xlink:href="#Z"/><use transform="matrix(0.07407407407407408,0,0,0.07407407407407408,29.629629629629633,0)" xlink:href="#at"/><use transform="matrix(0.07407407407407408,0,0,0.07407407407407408,51.777777777777786,0)" xlink:href="#ap"/></g><linearGradient gradientUnits="userSpaceOnUse" id="E" x1="460" y1="780" x2="460" y2="640"><stop offset="19.2%" stop-color="#ced4db"/><stop offset="26.45%" stop-color="#fff"/><stop offset="45.29%" stop-color="#fff"/><stop offset="52.54%" stop-color="#cfe4ff"/><stop offset="73.91%" stop-color="#cfe4ff"/><stop offset="82.97%" stop-color="#c3f7c8"/></linearGradient><g id="F"><use transform="matrix(0.06790123456790124,0,0,0.06790123456790124,0,0)" xlink:href="#ac"/><use transform="matrix(0.06790123456790124,0,0,0.06790123456790124,8.623456790123457,0)" xlink:href="#al"/><use transform="matrix(0.06790123456790124,0,0,0.06790123456790124,24.919753086419753,0)" xlink:href="#ac"/></g><linearGradient gradientUnits="userSpaceOnUse" id="G" x1="440" y1="800" x2="440" y2="660"><stop offset="19.2%" stop-color="#ced4db"/><stop offset="26.45%" stop-color="#fff"/><stop offset="45.29%" stop-color="#fff"/><stop offset="52.54%" stop-color="#cfe4ff"/><stop offset="73.91%" stop-color="#cfe4ff"/><stop offset="82.97%" stop-color="#c3f7c8"/></linearGradient><g id="H"><use transform="matrix(0.06790123456790124,0,0,0.06790123456790124,0,0)" xlink:href="#ac"/><use transform="matrix(0.06790123456790124,0,0,0.06790123456790124,8.623456790123457,0)" xlink:href="#aq"/><use transform="matrix(0.06790123456790124,0,0,0.06790123456790124,26.20987654320988,0)" xlink:href="#ac"/></g><path d="M127-220V0H93v-220H8v-28h204v28h-85" id="aL"/><g id="I"><use transform="matrix(0.07407407407407408,0,0,0.07407407407407408,0,0)" xlink:href="#aL"/><use transform="matrix(0.07407407407407408,0,0,0.07407407407407408,16.222222222222225,0)" xlink:href="#Y"/><use transform="matrix(0.07407407407407408,0,0,0.07407407407407408,31.03703703703704,0)" xlink:href="#ap"/></g><g id="J"><use transform="matrix(0.07407407407407408,0,0,0.07407407407407408,0,0)" xlink:href="#as"/><use transform="matrix(0.07407407407407408,0,0,0.07407407407407408,13.333333333333336,0)" xlink:href="#Y"/><use transform="matrix(0.07407407407407408,0,0,0.07407407407407408,28.148148148148152,0)" xlink:href="#Z"/><use transform="matrix(0.07407407407407408,0,0,0.07407407407407408,42.96296296296297,0)" xlink:href="#aa"/><use transform="matrix(0.07407407407407408,0,0,0.07407407407407408,51.777777777777786,0)" xlink:href="#ab"/><use transform="matrix(0.07407407407407408,0,0,0.07407407407407408,66.59259259259261,0)" xlink:href="#as"/></g><g id="K"><use transform="matrix(0.07407407407407408,0,0,0.07407407407407408,0,0)" xlink:href="#Z"/><use transform="matrix(0.07407407407407408,0,0,0.07407407407407408,14.814814814814817,0)" xlink:href="#aa"/><use transform="matrix(0.07407407407407408,0,0,0.07407407407407408,23.629629629629633,0)" xlink:href="#ap"/></g><path d="M115-194c55 1 70 41 70 98S169 2 115 4C84 4 66-9 55-30l1 105H24l-1-265h31l2 30c10-21 28-34 59-34zm-8 174c40 0 45-34 45-75s-6-73-45-74c-42 0-51 32-51 76 0 43 10 73 51 73" id="aM"/><path d="M68-38c1 34 0 65-14 84H32c9-13 17-26 17-46H33v-38h35" id="aN"/><g id="L"><use transform="matrix(0.07407407407407408,0,0,0.07407407407407408,0,0)" xlink:href="#aM"/><use transform="matrix(0.07407407407407408,0,0,0.07407407407407408,14.814814814814817,0)" xlink:href="#ap"/><use transform="matrix(0.07407407407407408,0,0,0.07407407407407408,29.629629629629633,0)" xlink:href="#aa"/><use transform="matrix(0.07407407407407408,0,0,0.07407407407407408,38.44444444444445,0)" xlink:href="#as"/><use transform="matrix(0.07407407407407408,0,0,0.07407407407407408,51.777777777777786,0)" xlink:href="#ae"/><use transform="matrix(0.07407407407407408,0,0,0.07407407407407408,57.62962962962964,0)" xlink:href="#as"/><use transform="matrix(0.07407407407407408,0,0,0.07407407407407408,70.96296296296298,0)" xlink:href="#ar"/><use transform="matrix(0.07407407407407408,0,0,0.07407407407407408,78.37037037037038,0)" xlink:href="#ap"/><use transform="matrix(0.07407407407407408,0,0,0.07407407407407408,93.18518518518519,0)" xlink:href="#af"/><use transform="matrix(0.07407407407407408,0,0,0.07407407407407408,108,0)" xlink:href="#ar"/><use transform="matrix(0.07407407407407408,0,0,0.07407407407407408,115.4074074074074,0)" xlink:href="#aN"/></g><g id="M"><use transform="matrix(0.07407407407407408,0,0,0.07407407407407408,0,0)" xlink:href="#ap"/><use transform="matrix(0.07407407407407408,0,0,0.07407407407407408,14.814814814814817,0)" xlink:href="#Z"/><use transform="matrix(0.07407407407407408,0,0,0.07407407407407408,29.629629629629633,0)" xlink:href="#ao"/><use transform="matrix(0.07407407407407408,0,0,0.07407407407407408,42.96296296296297,0)" xlink:href="#Y"/></g><g id="N"><use transform="matrix(0.07407407407407408,0,0,0.07407407407407408,0,0)" xlink:href="#as"/><use transform="matrix(0.07407407407407408,0,0,0.07407407407407408,13.333333333333336,0)" xlink:href="#ar"/><use transform="matrix(0.07407407407407408,0,0,0.07407407407407408,20.740740740740744,0)" xlink:href="#ai"/><use transform="matrix(0.07407407407407408,0,0,0.07407407407407408,35.55555555555556,0)" xlink:href="#aa"/><use transform="matrix(0.07407407407407408,0,0,0.07407407407407408,44.370370370370374,0)" xlink:href="#ap"/><use transform="matrix(0.07407407407407408,0,0,0.07407407407407408,59.18518518518519,0)" xlink:href="#as"/></g><use transform="matrix(0.07407407407407408,0,0,0.07407407407407408,0,0)" xlink:href="#Z" id="O"/><g id="P"><use transform="matrix(0.07407407407407408,0,0,0.07407407407407408,0,0)" xlink:href="#aM"/><use transform="matrix(0.07407407407407408,0,0,0.07407407407407408,14.814814814814817,0)" xlink:href="#Z"/><use transform="matrix(0.07407407407407408,0,0,0.07407407407407408,29.629629629629633,0)" xlink:href="#aa"/><use transform="matrix(0.07407407407407408,0,0,0.07407407407407408,38.44444444444445,0)" xlink:href="#ar"/></g><g id="Q"><use transform="matrix(0.07407407407407408,0,0,0.07407407407407408,0,0)" xlink:href="#ai"/><use transform="matrix(0.07407407407407408,0,0,0.07407407407407408,14.814814814814817,0)" xlink:href="#aJ"/></g><g id="R"><use transform="matrix(0.07407407407407408,0,0,0.07407407407407408,0,0)" xlink:href="#ar"/><use transform="matrix(0.07407407407407408,0,0,0.07407407407407408,7.407407407407408,0)" xlink:href="#Y"/><use transform="matrix(0.07407407407407408,0,0,0.07407407407407408,22.222222222222225,0)" xlink:href="#ap"/></g><path d="M47-170H22l-4-78h33" id="aO"/><g id="S"><use transform="matrix(0.07407407407407408,0,0,0.07407407407407408,0,0)" xlink:href="#as"/><use transform="matrix(0.07407407407407408,0,0,0.07407407407407408,13.333333333333336,0)" xlink:href="#ak"/><use transform="matrix(0.07407407407407408,0,0,0.07407407407407408,26.66666666666667,0)" xlink:href="#as"/><use transform="matrix(0.07407407407407408,0,0,0.07407407407407408,40.00000000000001,0)" xlink:href="#ar"/><use transform="matrix(0.07407407407407408,0,0,0.07407407407407408,47.40740740740742,0)" xlink:href="#ap"/><use transform="matrix(0.07407407407407408,0,0,0.07407407407407408,62.222222222222236,0)" xlink:href="#at"/><use transform="matrix(0.07407407407407408,0,0,0.07407407407407408,84.37037037037038,0)" xlink:href="#aO"/><use transform="matrix(0.07407407407407408,0,0,0.07407407407407408,89.40740740740742,0)" xlink:href="#as"/></g><g id="T"><use transform="matrix(0.07407407407407408,0,0,0.07407407407407408,0,0)" xlink:href="#as"/><use transform="matrix(0.07407407407407408,0,0,0.07407407407407408,13.333333333333336,0)" xlink:href="#ar"/><use transform="matrix(0.07407407407407408,0,0,0.07407407407407408,20.740740740740744,0)" xlink:href="#Z"/><use transform="matrix(0.07407407407407408,0,0,0.07407407407407408,35.55555555555556,0)" xlink:href="#ar"/><use transform="matrix(0.07407407407407408,0,0,0.07407407407407408,42.96296296296296,0)" xlink:href="#ap"/></g><linearGradient gradientUnits="userSpaceOnUse" id="U" x1="1021.9" y1="760" x2="1021.9" y2="620"><stop offset="19.2%" stop-color="#ced4db"/><stop offset="26.45%" stop-color="#fff"/><stop offset="45.29%" stop-color="#fff"/><stop offset="52.54%" stop-color="#cfe4ff"/><stop offset="73.91%" stop-color="#cfe4ff"/><stop offset="82.97%" stop-color="#c3f7c8"/></linearGradient><linearGradient gradientUnits="userSpaceOnUse" id="V" x1="1001.9" y1="780" x2="1001.9" y2="640"><stop offset="19.2%" stop-color="#ced4db"/><stop offset="26.45%" stop-color="#fff"/><stop offset="45.29%" stop-color="#fff"/><stop offset="52.54%" stop-color="#cfe4ff"/><stop offset="73.91%" stop-color="#cfe4ff"/><stop offset="82.97%" stop-color="#c3f7c8"/></linearGradient><linearGradient gradientUnits="userSpaceOnUse" id="W" x1="981.9" y1="800" x2="981.9" y2="660"><stop offset="19.2%" stop-color="#ced4db"/><stop offset="26.45%" stop-color="#fff"/><stop offset="45.29%" stop-color="#fff"/><stop offset="52.54%" stop-color="#cfe4ff"/><stop offset="73.91%" stop-color="#cfe4ff"/><stop offset="82.97%" stop-color="#c3f7c8"/></linearGradient></defs></g></svg>