<svg xmlns="http://www.w3.org/2000/svg" xmlns:xlink="http://www.w3.org/1999/xlink" xmlns:lucid="lucid" width="993" height="423"><g transform="translate(-188.5 -358.5)" lucid:page-tab-id="0_0"><path d="M444.55 760a20 20 0 0 1 20-20h200a20 20 0 0 1 20 20 20 20 0 0 1-20 20h-200a20 20 0 0 1-20-20z" stroke="#000" stroke-width="3" fill="#ced4db"/><use xlink:href="#a" transform="matrix(1,0,0,1,449.54999999999995,745) translate(67.50500000000001 19.65277777777778)"/><path d="M595.4 624.36l-.6-68.68M599.4 624.32l-.6-68.68M607.36 619.1l-9.85 17.4-10.14-17.23m10.15 17.23l-.06-8.5M586.85 560.9l9.84-17.4 10.14 17.23M596.7 543.5l.07 8.5" stroke="#1071e5" stroke-width="2" fill="none"/><path d="M444.55 660a20 20 0 0 1 20-20h200a20 20 0 0 1 20 20v20a20 20 0 0 1-20 20h-200a20 20 0 0 1-20-20z" stroke="#000" stroke-width="3" fill="url(#b)"/><use xlink:href="#c" transform="matrix(1,0,0,1,449.54999999999995,645) translate(71.79012345679013 30.27777777777778)"/><path d="M544.55 500a20 20 0 0 1 20-20h80a20 20 0 0 1 20 20v20a20 20 0 0 1-20 20h-80a20 20 0 0 1-20-20z" stroke="#1071e5" stroke-width="3" fill="url(#d)"/><use xlink:href="#e" transform="matrix(1,0,0,1,549.55,485) translate(16.141975308641975 30.27777777777778)"/><use xlink:href="#f" transform="matrix(1,0,0,1,549.55,485) translate(81.51234567901234 30.27777777777778)"/><path d="M564.55 720v-17.5" stroke="#000" stroke-width="2" fill="none"/><path d="M564.55 735.26L559.92 721h9.26z" stroke="#000" stroke-width="2"/><path d="M565.52 702.53h-1.94v-1.03h1.94z" stroke="#000" stroke-width=".05"/><path d="M584.55 380a20 20 0 0 1 20-20h80a20 20 0 0 1 20 20 20 20 0 0 1-20 20h-80a20 20 0 0 1-20-20z" stroke="#1071e5" stroke-width="3" fill="#e8e2c8"/><use xlink:href="#g" transform="matrix(1,0,0,1,589.55,365) translate(17.44327160493827 19.65277777777778)"/><use xlink:href="#f" transform="matrix(1,0,0,1,589.55,365) translate(80.22104938271605 19.65277777777778)"/><path d="M613.08 462.08l31-59.7" stroke="#1071e5" stroke-width="2" fill="none"/><path d="M606.04 475.63l2.47-14.8 8.23 4.28z" stroke="#1071e5" stroke-width="2" fill="#1071e5"/><path d="M644.94 402.86l-1.73-.9.25-.46h2.2z" stroke="#1071e5" stroke-width=".05" fill="#1071e5"/><path d="M562.55 624.34v-48.68M566.55 624.34v-48.68M574.55 619.18l-10 17.32-10-17.32m10 17.32V628M554.55 580.82l10-17.32 10 17.32m-10-17.32v8.5" stroke="#82755b" stroke-width="2" fill="none"/><path d="M504.55 520a20 20 0 0 1 20-20h80a20 20 0 0 1 20 20v20a20 20 0 0 1-20 20h-80a20 20 0 0 1-20-20z" stroke="#82755b" stroke-width="3" fill="url(#h)"/><use xlink:href="#i" transform="matrix(1,0,0,1,509.54999999999995,505) translate(3.76543209876543 30.27777777777778)"/><use xlink:href="#j" transform="matrix(1,0,0,1,509.54999999999995,505) translate(93.88888888888889 30.27777777777778)"/><path d="M504.55 400a20 20 0 0 1 20-20h80a20 20 0 0 1 20 20 20 20 0 0 1-20 20h-80a20 20 0 0 1-20-20z" stroke="#82755b" stroke-width="3" fill="#e8e2c8"/><use xlink:href="#g" transform="matrix(1,0,0,1,509.54999999999995,385) translate(17.44327160493827 19.65277777777778)"/><use xlink:href="#j" transform="matrix(1,0,0,1,509.54999999999995,385) translate(80.22104938271605 19.65277777777778)"/><path d="M564.55 480v-57.5" stroke="#82755b" stroke-width="2" fill="none"/><path d="M564.55 495.26L559.92 481h9.26z" stroke="#82755b" stroke-width="2" fill="#82755b"/><path d="M565.52 422.53h-1.94v-1.03h1.94z" stroke="#82755b" stroke-width=".05" fill="#82755b"/><path d="M424.55 420a20 20 0 0 1 20-20h80a20 20 0 0 1 20 20 20 20 0 0 1-20 20h-80a20 20 0 0 1-20-20z" stroke="#008a0e" stroke-width="3" fill="#e8e2c8"/><use xlink:href="#g" transform="matrix(1,0,0,1,429.5499999999999,405) translate(17.44327160493827 19.65277777777778)"/><use xlink:href="#k" transform="matrix(1,0,0,1,429.5499999999999,405) translate(80.22104938271605 19.65277777777778)"/><path d="M483.68 620l.87-177.5" stroke="#008a0e" stroke-width="2" fill="none"/><path d="M483.6 635.26l-4.56-14.28 9.27.04z" stroke="#008a0e" stroke-width="2" fill="#008a0e"/><path d="M485.52 442.53h-1.95v-1.03h1.95z" stroke="#008a0e" stroke-width=".05" fill="#008a0e"/><path d="M200 546a6 6 0 0 1 6-6h148a6 6 0 0 1 6 6v88a6 6 0 0 1-6 6H206a6 6 0 0 1-6-6z" stroke="#000" stroke-opacity="0" stroke-width="3" fill="#fff" fill-opacity="0"/><use xlink:href="#l" transform="matrix(1,0,0,1,205,545) translate(15.833333333333336 23.40277777777778)"/><use xlink:href="#m" transform="matrix(1,0,0,1,205,545) translate(35.58641975308642 23.40277777777778)"/><use xlink:href="#n" transform="matrix(1,0,0,1,205,545) translate(82.43827160493828 23.40277777777778)"/><use xlink:href="#o" transform="matrix(1,0,0,1,205,545) translate(38.611111111111114 50.06944444444445)"/><use xlink:href="#p" transform="matrix(1,0,0,1,205,545) translate(99.04320987654322 50.06944444444445)"/><use xlink:href="#q" transform="matrix(1,0,0,1,205,545) translate(25.030864197530867 76.73611111111111)"/><use xlink:href="#r" transform="matrix(1,0,0,1,205,545) translate(106.4506172839506 76.73611111111111)"/><path d="M361 590h3.05m4.06 0h6.1m4.06 0l6.1.02m4.05 0h6.1m4.06 0h6.1m4.05 0l6.1.02m4.07 0h6.1m4.05 0h6.1m4.05 0l6.1.02m4.05 0h6.1m4.05 0h6.1m4.06.02h6.1m4.05 0h3.04" stroke="#3a414a" stroke-width="2" fill="none"/><path d="M361.03 589.03v1.95H360V589z" stroke="#3a414a" stroke-width=".05" fill="#3a414a"/><path d="M482.8 590.08h1.02" stroke="#3a414a" stroke-width="2" fill="none"/><path d="M190 406a6 6 0 0 1 6-6h168a6 6 0 0 1 6 6v108.17a6 6 0 0 1-6 6H196a6 6 0 0 1-6-6z" stroke="#000" stroke-opacity="0" stroke-width="3" fill="#fff" fill-opacity="0"/><use xlink:href="#s" transform="matrix(1,0,0,1,195,405) translate(9.753086419753089 21.24652777777778)"/><use xlink:href="#t" transform="matrix(1,0,0,1,195,405) translate(66.54320987654322 21.24652777777778)"/><use xlink:href="#u" transform="matrix(1,0,0,1,195,405) translate(124.44444444444446 21.24652777777778)"/><use xlink:href="#v" transform="matrix(1,0,0,1,195,405) translate(15.895061728395063 47.91319444444444)"/><use xlink:href="#w" transform="matrix(1,0,0,1,195,405) translate(46.75925925925926 47.91319444444444)"/><use xlink:href="#x" transform="matrix(1,0,0,1,195,405) translate(135.5864197530864 47.91319444444444)"/><use xlink:href="#y" transform="matrix(1,0,0,1,195,405) translate(19.0432098765432 74.57986111111111)"/><use xlink:href="#z" transform="matrix(1,0,0,1,195,405) translate(65.30864197530865 101.24652777777777)"/><path d="M371 460.13l3.04.14m4.05.2l6.07.28m4.06.2l6.08.28m4.06.2l6.08.27m4.06.2l6.08.28m4.05.2l6.08.27m4.06.2l6.1.28m4.04.2l6.08.28m4.05.2l6.08.28m4.07.2l6.08.28m4.05.2l6.08.27m4.06.2l6.08.28m4.05.2l6.08.3m4.06.18l6.1.28m4.04.2l6.08.28m4.05.2l6.08.27m4.06.2l6.1.3m4.04.18l6.08.3m4.06.18l6.08.28m4.05.2l3.05.13" stroke="#3a414a" stroke-width="2" fill="none"/><path d="M371.07 459.16l-.1 1.95-.97-.04v-1.95z" stroke="#3a414a" stroke-width=".05" fill="#3a414a"/><path d="M563.52 469.17l1.03.05M371 460.02l3-.2m4-.25l6.02-.38m4-.26l6.02-.4m4-.24l6.02-.38m4-.26l6.02-.38m4-.26l6.02-.38m4-.25l6.02-.4m4-.25l6.02-.4m4-.24l6-.37m4.02-.26l6-.38m4.02-.27l6-.38m4.02-.25l6-.4m4.02-.24l6-.4m4.02-.24l6-.38m4.02-.26l6-.38m4-.26l6.03-.38m4-.25l6-.38m4-.25l6.02-.4m4-.24l6.02-.38m4-.26l6.02-.4m4-.25l6.02-.38m4-.25l6.02-.4m4-.24l6.02-.38m4-.26l6.02-.38m4-.26l6.02-.38m4-.26l3-.2" stroke="#3a414a" stroke-width="2" fill="none"/><path d="M371.08 461l-1.08.06v-1.95l.96-.05z" stroke="#3a414a" stroke-width=".05" fill="#3a414a"/><path d="M621.44 444.07l1.03-.06" stroke="#3a414a" stroke-width="2" fill="none"/><path d="M740 536a6 6 0 0 1 6-6h42a6 6 0 0 0 6-6v-8a2.3 2.3 0 0 1 4-1.54l28 31.08a6.67 6.67 0 0 1 0 8.92l-28 31.08a2.3 2.3 0 0 1-4-1.54v-8a6 6 0 0 0-6-6h-42a6 6 0 0 1-6-6z" fill="#fc9432"/><path d="M924.55 760a20 20 0 0 1 20-20h200a20 20 0 0 1 20 20 20 20 0 0 1-20 20h-200a20 20 0 0 1-20-20z" stroke="#000" stroke-width="3" fill="#ced4db"/><use xlink:href="#a" transform="matrix(1,0,0,1,929.55005,745) translate(67.50500000000001 19.65277777777778)"/><path d="M1078.37 624.35l-.3-68.68M1082.37 624.33l-.3-68.68M1090.34 619.14l-9.92 17.36-10.08-17.28m10.08 17.28l-.04-8.5M1070.1 560.86l9.9-17.36 10.1 17.28M1080 543.5l.05 8.5" stroke="#1071e5" stroke-width="2" fill="none"/><path d="M924.55 660a20 20 0 0 1 20-20h200a20 20 0 0 1 20 20v20a20 20 0 0 1-20 20h-200a20 20 0 0 1-20-20z" stroke="#000" stroke-width="3" fill="url(#A)"/><use xlink:href="#c" transform="matrix(1,0,0,1,929.55005,645) translate(71.79012345679013 30.27777777777778)"/><path d="M1020 500a20 20 0 0 1 20-20h80a20 20 0 0 1 20 20v20a20 20 0 0 1-20 20h-80a20 20 0 0 1-20-20z" stroke="#1071e5" stroke-width="3" fill="url(#B)"/><use xlink:href="#i" transform="matrix(1,0,0,1,1025,485) translate(3.76543209876543 30.27777777777778)"/><use xlink:href="#f" transform="matrix(1,0,0,1,1025,485) translate(93.88888888888889 30.27777777777778)"/><path d="M1044.55 720v-17.5" stroke="#000" stroke-width="2" fill="none"/><path d="M1044.55 735.26l-4.63-14.26h9.26z" stroke="#000" stroke-width="2"/><path d="M1045.53 702.53h-1.95v-1.03h1.95z" stroke="#000" stroke-width=".05"/><path d="M1060 380a20 20 0 0 1 20-20h80a20 20 0 0 1 20 20 20 20 0 0 1-20 20h-80a20 20 0 0 1-20-20z" stroke="#1071e5" stroke-width="3" fill="#e8e2c8"/><use xlink:href="#g" transform="matrix(1,0,0,1,1065,365) translate(17.44327160493827 19.65277777777778)"/><use xlink:href="#f" transform="matrix(1,0,0,1,1065,365) translate(80.22104938271605 19.65277777777778)"/><path d="M1084.75 465l26.95-51.86M1088.3 466.86l26.95-51.87M1097.78 465.96l-16.86 10.77-.9-20m.9 20l3.92-7.55M1102.22 414.04l16.86-10.77.9 20m-.9-20l-3.92 7.55" stroke="#1071e5" stroke-width="2" fill="none"/><path d="M1038.93 624.34l.07-48.68M1042.93 624.34l.07-48.68M1050.94 619.2l-10.03 17.3-9.96-17.34m9.97 17.34l.03-8.5M1031 580.8l10.02-17.3 9.98 17.34m-9.98-17.34v8.5" stroke="#82755b" stroke-width="2" fill="none"/><path d="M980 520a20 20 0 0 1 20-20h80a20 20 0 0 1 20 20v20a20 20 0 0 1-20 20h-80a20 20 0 0 1-20-20z" stroke="#82755b" stroke-width="3" fill="url(#C)"/><use xlink:href="#i" transform="matrix(1,0,0,1,985,505) translate(3.76543209876543 30.27777777777778)"/><use xlink:href="#j" transform="matrix(1,0,0,1,985,505) translate(93.88888888888889 30.27777777777778)"/><path d="M980 400a20 20 0 0 1 20-20h80a20 20 0 0 1 20 20 20 20 0 0 1-20 20h-80a20 20 0 0 1-20-20z" stroke="#82755b" stroke-width="3" fill="#e8e2c8"/><use xlink:href="#g" transform="matrix(1,0,0,1,985,385) translate(17.44327160493827 19.65277777777778)"/><use xlink:href="#j" transform="matrix(1,0,0,1,985,385) translate(80.22104938271605 19.65277777777778)"/><path d="M1038 484.34v-48.68M1042 484.34v-48.68M1050 479.18l-10 17.32-10-17.32m10 17.32V488M1030 440.82l10-17.32 10 17.32m-10-17.32v8.5" stroke="#82755b" stroke-width="2" fill="none"/><path d="M900 420a20 20 0 0 1 20-20h80a20 20 0 0 1 20 20 20 20 0 0 1-20 20h-80a20 20 0 0 1-20-20z" stroke="#008a0e" stroke-width="3" fill="#e8e2c8"/><g><use xlink:href="#g" transform="matrix(1,0,0,1,905,405) translate(17.44327160493827 19.65277777777778)"/><use xlink:href="#k" transform="matrix(1,0,0,1,905,405) translate(80.22104938271605 19.65277777777778)"/></g><path d="M940 540a20 20 0 0 1 20-20h80a20 20 0 0 1 20 20v20a20 20 0 0 1-20 20h-80a20 20 0 0 1-20-20z" stroke="#008a0e" stroke-width="3" fill="url(#D)"/><g><use xlink:href="#i" transform="matrix(1,0,0,1,945,525) translate(3.76543209876543 30.27777777777778)"/><use xlink:href="#k" transform="matrix(1,0,0,1,945,525) translate(93.88888888888889 30.27777777777778)"/></g><path d="M991.7 506.86L964.75 455M995.25 505l-26.95-51.86M999.97 496.75l-.9 19.98-16.85-10.77m16.86 10.77l-3.92-7.55M960.03 463.25l.9-19.98 16.85 10.77m-16.86-10.77l3.92 7.55M997.6 624.32l.27-28.68M1001.6 624.36l.27-28.68M1009.64 619.27L999.5 636.5l-9.83-17.4m9.83 17.4l.08-8.5M989.82 600.73l10.16-17.23 9.84 17.4m-9.84-17.4l-.08 8.5" stroke="#008a0e" stroke-width="2" fill="none"/><path d="M714.55 626a6 6 0 0 1 6-6h168a6 6 0 0 1 6 6v128a6 6 0 0 1-6 6h-168a6 6 0 0 1-6-6z" stroke="#000" stroke-opacity="0" stroke-width="3" fill="#fff" fill-opacity="0"/><g><use xlink:href="#E" transform="matrix(1,0,0,1,719.550025,625) translate(20.80246913580247 21.84027777777778)"/><use xlink:href="#F" transform="matrix(1,0,0,1,719.550025,625) translate(45.49382716049382 21.84027777777778)"/><use xlink:href="#G" transform="matrix(1,0,0,1,719.550025,625) translate(88.70370370370371 21.84027777777778)"/><use xlink:href="#p" transform="matrix(1,0,0,1,719.550025,625) translate(136.85185185185185 21.84027777777778)"/><use xlink:href="#m" transform="matrix(1,0,0,1,719.550025,625) translate(13.456790123456784 48.50694444444444)"/><use xlink:href="#H" transform="matrix(1,0,0,1,719.550025,625) translate(60.30864197530864 48.50694444444444)"/><use xlink:href="#w" transform="matrix(1,0,0,1,719.550025,625) translate(6.728395061728406 75.17361111111111)"/><use xlink:href="#I" transform="matrix(1,0,0,1,719.550025,625) translate(95.55555555555556 75.17361111111111)"/><use xlink:href="#J" transform="matrix(1,0,0,1,719.550025,625) translate(141.11111111111111 75.17361111111111)"/><use xlink:href="#K" transform="matrix(1,0,0,1,719.550025,625) translate(10.401234567901241 101.84027777777777)"/><use xlink:href="#L" transform="matrix(1,0,0,1,719.550025,625) translate(64.72222222222223 101.84027777777777)"/><use xlink:href="#M" transform="matrix(1,0,0,1,719.550025,625) translate(115.27777777777779 101.84027777777777)"/><use xlink:href="#N" transform="matrix(1,0,0,1,719.550025,625) translate(20.80246913580247 128.50694444444446)"/><use xlink:href="#O" transform="matrix(1,0,0,1,719.550025,625) translate(57.839506172839506 128.50694444444446)"/></g><path d="M948.07 578.7l-2.85.82m-3.8 1.1l-5.7 1.63m-3.8 1.1l-5.7 1.64m-3.8 1.08l-5.7 1.64m-3.8 1.1l-5.72 1.64m-3.8 1.1l-5.7 1.63m-3.8 1.1l-5.7 1.63m-3.8 1.1l-5.7 1.63m-3.8 1.1l-5.7 1.64m-3.8 1.1l-5.72 1.63m-3.8 1.1l-5.7 1.64m-3.8 1.1l-5.7 1.63m-3.8 1.1l-5.7 1.64m-3.8 1.1l-5.7 1.63m-3.8 1.1l-5.72 1.64m-3.8 1.1l-2.85.82" stroke="#3a414a" stroke-width="2" fill="none"/><path d="M950.16 579.1l-1.84.54-.54-1.87.13-.04zM805.62 620h-4.2l-.02-.1 3.87-1.12z" stroke="#3a414a" stroke-width=".05" fill="#3a414a"/><path d="M200 666a6 6 0 0 1 6-6h148a6 6 0 0 1 6 6v108a6 6 0 0 1-6 6H206a6 6 0 0 1-6-6z" stroke="#000" stroke-opacity="0" stroke-width="3" fill="#fff" fill-opacity="0"/><g><use xlink:href="#P" transform="matrix(1,0,0,1,205,665) translate(7.129629629629633 21.24652777777778)"/><use xlink:href="#Q" transform="matrix(1,0,0,1,205,665) translate(51.51234567901235 21.24652777777778)"/><use xlink:href="#R" transform="matrix(1,0,0,1,205,665) translate(26.265432098765444 47.91319444444444)"/><use xlink:href="#S" transform="matrix(1,0,0,1,205,665) translate(92.87037037037037 47.91319444444444)"/><use xlink:href="#K" transform="matrix(1,0,0,1,205,665) translate(16.388888888888886 74.57986111111111)"/><use xlink:href="#T" transform="matrix(1,0,0,1,205,665) translate(70.70987654320987 74.57986111111111)"/><use xlink:href="#S" transform="matrix(1,0,0,1,205,665) translate(102.74691358024691 74.57986111111111)"/><use xlink:href="#U" transform="matrix(1,0,0,1,205,665) translate(9.043209876543216 101.24652777777777)"/><use xlink:href="#V" transform="matrix(1,0,0,1,205,665) translate(70.64814814814815 101.24652777777777)"/></g><path d="M360.9 720.43l2.7 1.3m3.62 1.75l5.42 2.6m3.6 1.75l5.42 2.6m3.6 1.74l5.43 2.6m3.6 1.75l5.42 2.6m3.6 1.75l5.42 2.6m3.62 1.75l5.4 2.6m3.62 1.75l5.42 2.6m3.6 1.74l5.43 2.62m3.6 1.74l2.7 1.3" stroke="#3a414a" stroke-width="2" fill="none"/><path d="M361.35 719.57l-.85 1.75-.5-.24v-2.16zM443.13 758.96l-.08 1.04.08 1.13-1.43-.7.84-1.75z" stroke="#3a414a" stroke-width=".05" fill="#3a414a"/><defs><path d="M30-248c118-7 216 8 213 122C240-48 200 0 122 0H30v-248zM63-27c89 8 146-16 146-99s-60-101-146-95v194" id="W"/><path d="M141-36C126-15 110 5 73 4 37 3 15-17 15-53c-1-64 63-63 125-63 3-35-9-54-41-54-24 1-41 7-42 31l-33-3c5-37 33-52 76-52 45 0 72 20 72 64v82c-1 20 7 32 28 27v20c-31 9-61-2-59-35zM48-53c0 20 12 33 32 33 41-3 63-29 60-74-43 2-92-5-92 41" id="X"/><path d="M59-47c-2 24 18 29 38 22v24C64 9 27 4 27-40v-127H5v-23h24l9-43h21v43h35v23H59v120" id="Y"/><path d="M115-194c53 0 69 39 70 98 0 66-23 100-70 100C84 3 66-7 56-30L54 0H23l1-261h32v101c10-23 28-34 59-34zm-8 174c40 0 45-34 45-75 0-40-5-75-45-74-42 0-51 32-51 76 0 43 10 73 51 73" id="Z"/><path d="M135-143c-3-34-86-38-87 0 15 53 115 12 119 90S17 21 10-45l28-5c4 36 97 45 98 0-10-56-113-15-118-90-4-57 82-63 122-42 12 7 21 19 24 35" id="aa"/><path d="M100-194c63 0 86 42 84 106H49c0 40 14 67 53 68 26 1 43-12 49-29l28 8c-11 28-37 45-77 45C44 4 14-33 15-96c1-61 26-98 85-98zm52 81c6-60-76-77-97-28-3 7-6 17-6 28h103" id="ab"/><g id="a"><use transform="matrix(0.06172839506172839,0,0,0.06172839506172839,0,0)" xlink:href="#W"/><use transform="matrix(0.06172839506172839,0,0,0.06172839506172839,15.987654320987653,0)" xlink:href="#X"/><use transform="matrix(0.06172839506172839,0,0,0.06172839506172839,28.333333333333332,0)" xlink:href="#Y"/><use transform="matrix(0.06172839506172839,0,0,0.06172839506172839,34.50617283950617,0)" xlink:href="#X"/><use transform="matrix(0.06172839506172839,0,0,0.06172839506172839,46.85185185185185,0)" xlink:href="#Z"/><use transform="matrix(0.06172839506172839,0,0,0.06172839506172839,59.197530864197525,0)" xlink:href="#X"/><use transform="matrix(0.06172839506172839,0,0,0.06172839506172839,71.5432098765432,0)" xlink:href="#aa"/><use transform="matrix(0.06172839506172839,0,0,0.06172839506172839,82.65432098765432,0)" xlink:href="#ab"/></g><linearGradient gradientUnits="userSpaceOnUse" id="b" x1="444.55" y1="700" x2="444.55" y2="640"><stop offset="22.83%" stop-color="#fff"/><stop offset="39.49%" stop-color="#c3f7c8"/></linearGradient><path d="M160-131c35 5 61 23 61 61C221 17 115-2 30 0v-248c76 3 177-17 177 60 0 33-19 50-47 57zm-97-11c50-1 110 9 110-42 0-47-63-36-110-37v79zm0 115c55-2 124 14 124-45 0-56-70-42-124-44v89" id="ac"/><path d="M96-169c-40 0-48 33-48 73s9 75 48 75c24 0 41-14 43-38l32 2c-6 37-31 61-74 61-59 0-76-41-82-99-10-93 101-131 147-64 4 7 5 14 7 22l-32 3c-4-21-16-35-41-35" id="ad"/><path d="M143 0L79-87 56-68V0H24v-261h32v163l83-92h37l-77 82L181 0h-38" id="ae"/><path d="M117-194c89-4 53 116 60 194h-32v-121c0-31-8-49-39-48C34-167 62-67 57 0H25l-1-190h30c1 10-1 24 2 32 11-22 29-35 61-36" id="af"/><path d="M85-194c31 0 48 13 60 33l-1-100h32l1 261h-30c-2-10 0-23-3-31C134-8 116 4 85 4 32 4 16-35 15-94c0-66 23-100 70-100zm9 24c-40 0-46 34-46 75 0 40 6 74 45 74 42 0 51-32 51-76 0-42-9-74-50-73" id="ag"/><g id="c"><use transform="matrix(0.06172839506172839,0,0,0.06172839506172839,0,0)" xlink:href="#ac"/><use transform="matrix(0.06172839506172839,0,0,0.06172839506172839,14.814814814814813,0)" xlink:href="#X"/><use transform="matrix(0.06172839506172839,0,0,0.06172839506172839,27.160493827160494,0)" xlink:href="#ad"/><use transform="matrix(0.06172839506172839,0,0,0.06172839506172839,38.27160493827161,0)" xlink:href="#ae"/><use transform="matrix(0.06172839506172839,0,0,0.06172839506172839,49.38271604938272,0)" xlink:href="#ab"/><use transform="matrix(0.06172839506172839,0,0,0.06172839506172839,61.7283950617284,0)" xlink:href="#af"/><use transform="matrix(0.06172839506172839,0,0,0.06172839506172839,74.07407407407408,0)" xlink:href="#ag"/></g><linearGradient gradientUnits="userSpaceOnUse" id="d" x1="544.55" y1="540" x2="544.55" y2="480"><stop offset="19.2%" stop-color="#ced4db"/><stop offset="26.45%" stop-color="#fff"/><stop offset="45.29%" stop-color="#fff"/><stop offset="52.54%" stop-color="#cfe4ff"/><stop offset="73.91%" stop-color="#cfe4ff"/><stop offset="82.97%" stop-color="#c3f7c8"/></linearGradient><path d="M185-189c-5-48-123-54-124 2 14 75 158 14 163 119 3 78-121 87-175 55-17-10-28-26-33-46l33-7c5 56 141 63 141-1 0-78-155-14-162-118-5-82 145-84 179-34 5 7 8 16 11 25" id="ah"/><path d="M106-169C34-169 62-67 57 0H25v-261h32l-1 103c12-21 28-36 61-36 89 0 53 116 60 194h-32v-121c2-32-8-49-39-48" id="ai"/><path d="M114-163C36-179 61-72 57 0H25l-1-190h30c1 12-1 29 2 39 6-27 23-49 58-41v29" id="aj"/><g id="e"><use transform="matrix(0.06172839506172839,0,0,0.06172839506172839,0,0)" xlink:href="#ah"/><use transform="matrix(0.06172839506172839,0,0,0.06172839506172839,14.814814814814813,0)" xlink:href="#ai"/><use transform="matrix(0.06172839506172839,0,0,0.06172839506172839,27.160493827160494,0)" xlink:href="#X"/><use transform="matrix(0.06172839506172839,0,0,0.06172839506172839,39.50617283950617,0)" xlink:href="#aj"/><use transform="matrix(0.06172839506172839,0,0,0.06172839506172839,46.85185185185185,0)" xlink:href="#ag"/></g><path d="M27 0v-27h64v-190l-56 39v-29l58-41h29v221h61V0H27" id="ak"/><use transform="matrix(0.06172839506172839,0,0,0.06172839506172839,0,0)" xlink:href="#ak" id="f"/><path d="M212-179c-10-28-35-45-73-45-59 0-87 40-87 99 0 60 29 101 89 101 43 0 62-24 78-52l27 14C228-24 195 4 139 4 59 4 22-46 18-125c-6-104 99-153 187-111 19 9 31 26 39 46" id="al"/><path d="M24 0v-261h32V0H24" id="am"/><path d="M24-231v-30h32v30H24zM24 0v-190h32V0H24" id="an"/><g id="g"><use transform="matrix(0.06172839506172839,0,0,0.06172839506172839,0,0)" xlink:href="#al"/><use transform="matrix(0.06172839506172839,0,0,0.06172839506172839,15.987654320987653,0)" xlink:href="#am"/><use transform="matrix(0.06172839506172839,0,0,0.06172839506172839,20.864197530864196,0)" xlink:href="#an"/><use transform="matrix(0.06172839506172839,0,0,0.06172839506172839,25.74074074074074,0)" xlink:href="#ab"/><use transform="matrix(0.06172839506172839,0,0,0.06172839506172839,38.08641975308642,0)" xlink:href="#af"/><use transform="matrix(0.06172839506172839,0,0,0.06172839506172839,50.432098765432094,0)" xlink:href="#Y"/></g><linearGradient gradientUnits="userSpaceOnUse" id="h" x1="504.55" y1="560" x2="504.55" y2="500"><stop offset="19.2%" stop-color="#ced4db"/><stop offset="26.45%" stop-color="#fff"/><stop offset="45.29%" stop-color="#fff"/><stop offset="52.54%" stop-color="#cfe4ff"/><stop offset="73.91%" stop-color="#cfe4ff"/><stop offset="82.97%" stop-color="#c3f7c8"/></linearGradient><path d="M33 0v-248h34V0H33" id="ao"/><g id="i"><use transform="matrix(0.06172839506172839,0,0,0.06172839506172839,0,0)" xlink:href="#ao"/><use transform="matrix(0.06172839506172839,0,0,0.06172839506172839,6.172839506172839,0)" xlink:href="#af"/><use transform="matrix(0.06172839506172839,0,0,0.06172839506172839,18.51851851851852,0)" xlink:href="#aa"/><use transform="matrix(0.06172839506172839,0,0,0.06172839506172839,29.62962962962963,0)" xlink:href="#Y"/><use transform="matrix(0.06172839506172839,0,0,0.06172839506172839,35.80246913580247,0)" xlink:href="#X"/><use transform="matrix(0.06172839506172839,0,0,0.06172839506172839,48.148148148148145,0)" xlink:href="#af"/><use transform="matrix(0.06172839506172839,0,0,0.06172839506172839,60.49382716049382,0)" xlink:href="#ad"/><use transform="matrix(0.06172839506172839,0,0,0.06172839506172839,71.60493827160494,0)" xlink:href="#ab"/></g><path d="M101-251c82-7 93 87 43 132L82-64C71-53 59-42 53-27h129V0H18c2-99 128-94 128-182 0-28-16-43-45-43s-46 15-49 41l-32-3c6-41 34-60 81-64" id="ap"/><use transform="matrix(0.06172839506172839,0,0,0.06172839506172839,0,0)" xlink:href="#ap" id="j"/><path d="M126-127c33 6 58 20 58 59 0 88-139 92-164 29-3-8-5-16-6-25l32-3c6 27 21 44 54 44 32 0 52-15 52-46 0-38-36-46-79-43v-28c39 1 72-4 72-42 0-27-17-43-46-43-28 0-47 15-49 41l-32-3c6-42 35-63 81-64 48-1 79 21 79 65 0 36-21 52-52 59" id="aq"/><use transform="matrix(0.06172839506172839,0,0,0.06172839506172839,0,0)" xlink:href="#aq" id="k"/><path d="M205 0l-28-72H64L36 0H1l101-248h38L239 0h-34zm-38-99l-47-123c-12 45-31 82-46 123h93" id="ar"/><use transform="matrix(0.06172839506172839,0,0,0.06172839506172839,0,0)" xlink:href="#ar" id="l"/><path d="M206 0h-36l-40-164L89 0H53L-1-190h32L70-26l43-164h34l41 164 42-164h31" id="as"/><g id="m"><use transform="matrix(0.06172839506172839,0,0,0.06172839506172839,0,0)" xlink:href="#af"/><use transform="matrix(0.06172839506172839,0,0,0.06172839506172839,12.345679012345679,0)" xlink:href="#ab"/><use transform="matrix(0.06172839506172839,0,0,0.06172839506172839,24.691358024691358,0)" xlink:href="#as"/></g><g id="n"><use transform="matrix(0.06172839506172839,0,0,0.06172839506172839,0,0)" xlink:href="#ad"/><use transform="matrix(0.06172839506172839,0,0,0.06172839506172839,11.11111111111111,0)" xlink:href="#am"/><use transform="matrix(0.06172839506172839,0,0,0.06172839506172839,15.987654320987653,0)" xlink:href="#an"/><use transform="matrix(0.06172839506172839,0,0,0.06172839506172839,20.864197530864196,0)" xlink:href="#ab"/><use transform="matrix(0.06172839506172839,0,0,0.06172839506172839,33.20987654320987,0)" xlink:href="#af"/><use transform="matrix(0.06172839506172839,0,0,0.06172839506172839,45.55555555555555,0)" xlink:href="#Y"/></g><g id="o"><use transform="matrix(0.06172839506172839,0,0,0.06172839506172839,0,0)" xlink:href="#aa"/><use transform="matrix(0.06172839506172839,0,0,0.06172839506172839,11.11111111111111,0)" xlink:href="#Y"/><use transform="matrix(0.06172839506172839,0,0,0.06172839506172839,17.28395061728395,0)" xlink:href="#X"/><use transform="matrix(0.06172839506172839,0,0,0.06172839506172839,29.629629629629626,0)" xlink:href="#aj"/><use transform="matrix(0.06172839506172839,0,0,0.06172839506172839,36.9753086419753,0)" xlink:href="#Y"/><use transform="matrix(0.06172839506172839,0,0,0.06172839506172839,43.148148148148145,0)" xlink:href="#aa"/></g><use transform="matrix(0.06172839506172839,0,0,0.06172839506172839,0,0)" xlink:href="#X" id="p"/><path d="M100-194c62-1 85 37 85 99 1 63-27 99-86 99S16-35 15-95c0-66 28-99 85-99zM99-20c44 1 53-31 53-75 0-43-8-75-51-75s-53 32-53 75 10 74 51 75" id="at"/><g id="q"><use transform="matrix(0.06172839506172839,0,0,0.06172839506172839,0,0)" xlink:href="#aa"/><use transform="matrix(0.06172839506172839,0,0,0.06172839506172839,11.11111111111111,0)" xlink:href="#ab"/><use transform="matrix(0.06172839506172839,0,0,0.06172839506172839,23.45679012345679,0)" xlink:href="#aa"/><use transform="matrix(0.06172839506172839,0,0,0.06172839506172839,34.5679012345679,0)" xlink:href="#aa"/><use transform="matrix(0.06172839506172839,0,0,0.06172839506172839,45.67901234567901,0)" xlink:href="#an"/><use transform="matrix(0.06172839506172839,0,0,0.06172839506172839,50.55555555555556,0)" xlink:href="#at"/><use transform="matrix(0.06172839506172839,0,0,0.06172839506172839,62.901234567901234,0)" xlink:href="#af"/></g><path d="M33 0v-38h34V0H33" id="au"/><g id="r"><use transform="matrix(0.06172839506172839,0,0,0.06172839506172839,0,0)" xlink:href="#au"/><use transform="matrix(0.06172839506172839,0,0,0.06172839506172839,6.172839506172839,0)" xlink:href="#au"/><use transform="matrix(0.06172839506172839,0,0,0.06172839506172839,12.345679012345679,0)" xlink:href="#au"/></g><path d="M30 0v-248h187v28H63v79h144v27H63v87h162V0H30" id="av"/><g id="s"><use transform="matrix(0.06172839506172839,0,0,0.06172839506172839,0,0)" xlink:href="#av"/><use transform="matrix(0.06172839506172839,0,0,0.06172839506172839,14.814814814814813,0)" xlink:href="#X"/><use transform="matrix(0.06172839506172839,0,0,0.06172839506172839,27.160493827160494,0)" xlink:href="#ad"/><use transform="matrix(0.06172839506172839,0,0,0.06172839506172839,38.27160493827161,0)" xlink:href="#ai"/></g><g id="t"><use transform="matrix(0.06172839506172839,0,0,0.06172839506172839,0,0)" xlink:href="#ad"/><use transform="matrix(0.06172839506172839,0,0,0.06172839506172839,11.11111111111111,0)" xlink:href="#am"/><use transform="matrix(0.06172839506172839,0,0,0.06172839506172839,15.987654320987653,0)" xlink:href="#an"/><use transform="matrix(0.06172839506172839,0,0,0.06172839506172839,20.864197530864196,0)" xlink:href="#ab"/><use transform="matrix(0.06172839506172839,0,0,0.06172839506172839,33.20987654320987,0)" xlink:href="#af"/><use transform="matrix(0.06172839506172839,0,0,0.06172839506172839,45.55555555555555,0)" xlink:href="#Y"/></g><g id="u"><use transform="matrix(0.06172839506172839,0,0,0.06172839506172839,0,0)" xlink:href="#ai"/><use transform="matrix(0.06172839506172839,0,0,0.06172839506172839,12.345679012345679,0)" xlink:href="#X"/><use transform="matrix(0.06172839506172839,0,0,0.06172839506172839,24.691358024691358,0)" xlink:href="#aa"/></g><g id="v"><use transform="matrix(0.06172839506172839,0,0,0.06172839506172839,0,0)" xlink:href="#X"/><use transform="matrix(0.06172839506172839,0,0,0.06172839506172839,12.345679012345679,0)" xlink:href="#af"/></g><g id="w"><use transform="matrix(0.06172839506172839,0,0,0.06172839506172839,0,0)" xlink:href="#an"/><use transform="matrix(0.06172839506172839,0,0,0.06172839506172839,4.876543209876543,0)" xlink:href="#af"/><use transform="matrix(0.06172839506172839,0,0,0.06172839506172839,17.22222222222222,0)" xlink:href="#aa"/><use transform="matrix(0.06172839506172839,0,0,0.06172839506172839,28.333333333333332,0)" xlink:href="#Y"/><use transform="matrix(0.06172839506172839,0,0,0.06172839506172839,34.50617283950617,0)" xlink:href="#X"/><use transform="matrix(0.06172839506172839,0,0,0.06172839506172839,46.85185185185185,0)" xlink:href="#af"/><use transform="matrix(0.06172839506172839,0,0,0.06172839506172839,59.197530864197525,0)" xlink:href="#ad"/><use transform="matrix(0.06172839506172839,0,0,0.06172839506172839,70.30864197530863,0)" xlink:href="#ab"/></g><g id="x"><use transform="matrix(0.06172839506172839,0,0,0.06172839506172839,0,0)" xlink:href="#Y"/><use transform="matrix(0.06172839506172839,0,0,0.06172839506172839,6.172839506172839,0)" xlink:href="#at"/></g><path d="M210-169c-67 3-38 105-44 169h-31v-121c0-29-5-50-35-48C34-165 62-65 56 0H25l-1-190h30c1 10-1 24 2 32 10-44 99-50 107 0 11-21 27-35 58-36 85-2 47 119 55 194h-31v-121c0-29-5-49-35-48" id="aw"/><path d="M84 4C-5 8 30-112 23-190h32v120c0 31 7 50 39 49 72-2 45-101 50-169h31l1 190h-30c-1-10 1-25-2-33-11 22-28 36-60 37" id="ax"/><g id="y"><use transform="matrix(0.06172839506172839,0,0,0.06172839506172839,0,0)" xlink:href="#ad"/><use transform="matrix(0.06172839506172839,0,0,0.06172839506172839,11.11111111111111,0)" xlink:href="#at"/><use transform="matrix(0.06172839506172839,0,0,0.06172839506172839,23.45679012345679,0)" xlink:href="#aw"/><use transform="matrix(0.06172839506172839,0,0,0.06172839506172839,41.91358024691358,0)" xlink:href="#aw"/><use transform="matrix(0.06172839506172839,0,0,0.06172839506172839,60.37037037037037,0)" xlink:href="#ax"/><use transform="matrix(0.06172839506172839,0,0,0.06172839506172839,72.71604938271605,0)" xlink:href="#af"/><use transform="matrix(0.06172839506172839,0,0,0.06172839506172839,85.06172839506173,0)" xlink:href="#an"/><use transform="matrix(0.06172839506172839,0,0,0.06172839506172839,89.93827160493828,0)" xlink:href="#ad"/><use transform="matrix(0.06172839506172839,0,0,0.06172839506172839,101.0493827160494,0)" xlink:href="#X"/><use transform="matrix(0.06172839506172839,0,0,0.06172839506172839,113.39506172839508,0)" xlink:href="#Y"/><use transform="matrix(0.06172839506172839,0,0,0.06172839506172839,119.56790123456791,0)" xlink:href="#ab"/></g><g id="z"><use transform="matrix(0.06172839506172839,0,0,0.06172839506172839,0,0)" xlink:href="#as"/><use transform="matrix(0.06172839506172839,0,0,0.06172839506172839,15.987654320987653,0)" xlink:href="#an"/><use transform="matrix(0.06172839506172839,0,0,0.06172839506172839,20.864197530864196,0)" xlink:href="#Y"/><use transform="matrix(0.06172839506172839,0,0,0.06172839506172839,27.037037037037035,0)" xlink:href="#ai"/></g><linearGradient gradientUnits="userSpaceOnUse" id="A" x1="924.55" y1="700" x2="924.55" y2="640"><stop offset="22.83%" stop-color="#fff"/><stop offset="39.49%" stop-color="#c3f7c8"/></linearGradient><linearGradient gradientUnits="userSpaceOnUse" id="B" x1="1020" y1="540" x2="1020" y2="480"><stop offset="19.2%" stop-color="#ced4db"/><stop offset="26.45%" stop-color="#fff"/><stop offset="45.29%" stop-color="#fff"/><stop offset="52.54%" stop-color="#cfe4ff"/><stop offset="73.91%" stop-color="#cfe4ff"/><stop offset="82.97%" stop-color="#c3f7c8"/></linearGradient><linearGradient gradientUnits="userSpaceOnUse" id="C" x1="980" y1="560" x2="980" y2="500"><stop offset="19.2%" stop-color="#ced4db"/><stop offset="26.45%" stop-color="#fff"/><stop offset="45.29%" stop-color="#fff"/><stop offset="52.54%" stop-color="#cfe4ff"/><stop offset="73.91%" stop-color="#cfe4ff"/><stop offset="82.97%" stop-color="#c3f7c8"/></linearGradient><linearGradient gradientUnits="userSpaceOnUse" id="D" x1="940" y1="580" x2="940" y2="520"><stop offset="19.2%" stop-color="#ced4db"/><stop offset="26.45%" stop-color="#fff"/><stop offset="45.29%" stop-color="#fff"/><stop offset="52.54%" stop-color="#cfe4ff"/><stop offset="73.91%" stop-color="#cfe4ff"/><stop offset="82.97%" stop-color="#c3f7c8"/></linearGradient><g id="E"><use transform="matrix(0.06172839506172839,0,0,0.06172839506172839,0,0)" xlink:href="#au"/><use transform="matrix(0.06172839506172839,0,0,0.06172839506172839,6.172839506172839,0)" xlink:href="#au"/><use transform="matrix(0.06172839506172839,0,0,0.06172839506172839,12.345679012345679,0)" xlink:href="#au"/></g><g id="F"><use transform="matrix(0.06172839506172839,0,0,0.06172839506172839,0,0)" xlink:href="#X"/><use transform="matrix(0.06172839506172839,0,0,0.06172839506172839,12.345679012345679,0)" xlink:href="#af"/><use transform="matrix(0.06172839506172839,0,0,0.06172839506172839,24.691358024691358,0)" xlink:href="#ag"/></g><path d="M177-190C167-65 218 103 67 71c-23-6-38-20-44-43l32-5c15 47 100 32 89-28v-30C133-14 115 1 83 1 29 1 15-40 15-95c0-56 16-97 71-98 29-1 48 16 59 35 1-10 0-23 2-32h30zM94-22c36 0 50-32 50-73 0-42-14-75-50-75-39 0-46 34-46 75s6 73 46 73" id="ay"/><g id="G"><use transform="matrix(0.06172839506172839,0,0,0.06172839506172839,0,0)" xlink:href="#ay"/><use transform="matrix(0.06172839506172839,0,0,0.06172839506172839,12.345679012345679,0)" xlink:href="#ab"/><use transform="matrix(0.06172839506172839,0,0,0.06172839506172839,24.691358024691358,0)" xlink:href="#Y"/><use transform="matrix(0.06172839506172839,0,0,0.06172839506172839,30.864197530864196,0)" xlink:href="#aa"/></g><g id="H"><use transform="matrix(0.06172839506172839,0,0,0.06172839506172839,0,0)" xlink:href="#ag"/><use transform="matrix(0.06172839506172839,0,0,0.06172839506172839,12.345679012345679,0)" xlink:href="#ab"/><use transform="matrix(0.06172839506172839,0,0,0.06172839506172839,24.691358024691358,0)" xlink:href="#ag"/><use transform="matrix(0.06172839506172839,0,0,0.06172839506172839,37.03703703703704,0)" xlink:href="#an"/><use transform="matrix(0.06172839506172839,0,0,0.06172839506172839,41.91358024691358,0)" xlink:href="#ad"/><use transform="matrix(0.06172839506172839,0,0,0.06172839506172839,53.0246913580247,0)" xlink:href="#X"/><use transform="matrix(0.06172839506172839,0,0,0.06172839506172839,65.37037037037038,0)" xlink:href="#Y"/><use transform="matrix(0.06172839506172839,0,0,0.06172839506172839,71.54320987654322,0)" xlink:href="#ab"/><use transform="matrix(0.06172839506172839,0,0,0.06172839506172839,83.8888888888889,0)" xlink:href="#ag"/></g><g id="I"><use transform="matrix(0.06172839506172839,0,0,0.06172839506172839,0,0)" xlink:href="#as"/><use transform="matrix(0.06172839506172839,0,0,0.06172839506172839,15.987654320987653,0)" xlink:href="#an"/><use transform="matrix(0.06172839506172839,0,0,0.06172839506172839,20.864197530864196,0)" xlink:href="#Y"/><use transform="matrix(0.06172839506172839,0,0,0.06172839506172839,27.037037037037035,0)" xlink:href="#ai"/></g><g id="J"><use transform="matrix(0.06172839506172839,0,0,0.06172839506172839,0,0)" xlink:href="#an"/><use transform="matrix(0.06172839506172839,0,0,0.06172839506172839,4.876543209876543,0)" xlink:href="#Y"/><use transform="matrix(0.06172839506172839,0,0,0.06172839506172839,11.049382716049383,0)" xlink:href="#aa"/></g><g id="K"><use transform="matrix(0.06172839506172839,0,0,0.06172839506172839,0,0)" xlink:href="#aa"/><use transform="matrix(0.06172839506172839,0,0,0.06172839506172839,11.11111111111111,0)" xlink:href="#Y"/><use transform="matrix(0.06172839506172839,0,0,0.06172839506172839,17.28395061728395,0)" xlink:href="#X"/><use transform="matrix(0.06172839506172839,0,0,0.06172839506172839,29.629629629629626,0)" xlink:href="#Y"/><use transform="matrix(0.06172839506172839,0,0,0.06172839506172839,35.80246913580247,0)" xlink:href="#ab"/></g><g id="L"><use transform="matrix(0.06172839506172839,0,0,0.06172839506172839,0,0)" xlink:href="#aj"/><use transform="matrix(0.06172839506172839,0,0,0.06172839506172839,7.345679012345679,0)" xlink:href="#ab"/><use transform="matrix(0.06172839506172839,0,0,0.06172839506172839,19.691358024691358,0)" xlink:href="#X"/><use transform="matrix(0.06172839506172839,0,0,0.06172839506172839,32.03703703703704,0)" xlink:href="#ag"/></g><path d="M101-234c-31-9-42 10-38 44h38v23H63V0H32v-167H5v-23h27c-7-52 17-82 69-68v24" id="az"/><g id="M"><use transform="matrix(0.06172839506172839,0,0,0.06172839506172839,0,0)" xlink:href="#az"/><use transform="matrix(0.06172839506172839,0,0,0.06172839506172839,6.172839506172839,0)" xlink:href="#aj"/><use transform="matrix(0.06172839506172839,0,0,0.06172839506172839,13.518518518518519,0)" xlink:href="#at"/><use transform="matrix(0.06172839506172839,0,0,0.06172839506172839,25.864197530864196,0)" xlink:href="#aw"/></g><g id="N"><use transform="matrix(0.06172839506172839,0,0,0.06172839506172839,0,0)" xlink:href="#Y"/><use transform="matrix(0.06172839506172839,0,0,0.06172839506172839,6.172839506172839,0)" xlink:href="#ai"/><use transform="matrix(0.06172839506172839,0,0,0.06172839506172839,18.51851851851852,0)" xlink:href="#ab"/></g><g id="O"><use transform="matrix(0.06172839506172839,0,0,0.06172839506172839,0,0)" xlink:href="#ag"/><use transform="matrix(0.06172839506172839,0,0,0.06172839506172839,12.345679012345679,0)" xlink:href="#X"/><use transform="matrix(0.06172839506172839,0,0,0.06172839506172839,24.691358024691358,0)" xlink:href="#Y"/><use transform="matrix(0.06172839506172839,0,0,0.06172839506172839,30.864197530864196,0)" xlink:href="#X"/><use transform="matrix(0.06172839506172839,0,0,0.06172839506172839,43.20987654320987,0)" xlink:href="#Z"/><use transform="matrix(0.06172839506172839,0,0,0.06172839506172839,55.55555555555555,0)" xlink:href="#X"/><use transform="matrix(0.06172839506172839,0,0,0.06172839506172839,67.90123456790123,0)" xlink:href="#aa"/><use transform="matrix(0.06172839506172839,0,0,0.06172839506172839,79.01234567901234,0)" xlink:href="#ab"/></g><path d="M127-220V0H93v-220H8v-28h204v28h-85" id="aA"/><g id="P"><use transform="matrix(0.06172839506172839,0,0,0.06172839506172839,0,0)" xlink:href="#aA"/><use transform="matrix(0.06172839506172839,0,0,0.06172839506172839,13.518518518518517,0)" xlink:href="#ai"/><use transform="matrix(0.06172839506172839,0,0,0.06172839506172839,25.864197530864196,0)" xlink:href="#ab"/></g><g id="Q"><use transform="matrix(0.06172839506172839,0,0,0.06172839506172839,0,0)" xlink:href="#ag"/><use transform="matrix(0.06172839506172839,0,0,0.06172839506172839,12.345679012345679,0)" xlink:href="#X"/><use transform="matrix(0.06172839506172839,0,0,0.06172839506172839,24.691358024691358,0)" xlink:href="#Y"/><use transform="matrix(0.06172839506172839,0,0,0.06172839506172839,30.864197530864196,0)" xlink:href="#X"/><use transform="matrix(0.06172839506172839,0,0,0.06172839506172839,43.20987654320987,0)" xlink:href="#Z"/><use transform="matrix(0.06172839506172839,0,0,0.06172839506172839,55.55555555555555,0)" xlink:href="#X"/><use transform="matrix(0.06172839506172839,0,0,0.06172839506172839,67.90123456790123,0)" xlink:href="#aa"/><use transform="matrix(0.06172839506172839,0,0,0.06172839506172839,79.01234567901234,0)" xlink:href="#ab"/></g><g id="R"><use transform="matrix(0.06172839506172839,0,0,0.06172839506172839,0,0)" xlink:href="#aa"/><use transform="matrix(0.06172839506172839,0,0,0.06172839506172839,11.11111111111111,0)" xlink:href="#Y"/><use transform="matrix(0.06172839506172839,0,0,0.06172839506172839,17.28395061728395,0)" xlink:href="#at"/><use transform="matrix(0.06172839506172839,0,0,0.06172839506172839,29.629629629629626,0)" xlink:href="#aj"/><use transform="matrix(0.06172839506172839,0,0,0.06172839506172839,36.9753086419753,0)" xlink:href="#ab"/><use transform="matrix(0.06172839506172839,0,0,0.06172839506172839,49.32098765432098,0)" xlink:href="#aa"/></g><g id="S"><use transform="matrix(0.06172839506172839,0,0,0.06172839506172839,0,0)" xlink:href="#Y"/><use transform="matrix(0.06172839506172839,0,0,0.06172839506172839,6.172839506172839,0)" xlink:href="#ai"/><use transform="matrix(0.06172839506172839,0,0,0.06172839506172839,18.51851851851852,0)" xlink:href="#ab"/></g><g id="T"><use transform="matrix(0.06172839506172839,0,0,0.06172839506172839,0,0)" xlink:href="#az"/><use transform="matrix(0.06172839506172839,0,0,0.06172839506172839,6.172839506172839,0)" xlink:href="#at"/><use transform="matrix(0.06172839506172839,0,0,0.06172839506172839,18.51851851851852,0)" xlink:href="#aj"/></g><g id="U"><use transform="matrix(0.06172839506172839,0,0,0.06172839506172839,0,0)" xlink:href="#ab"/><use transform="matrix(0.06172839506172839,0,0,0.06172839506172839,12.345679012345679,0)" xlink:href="#af"/><use transform="matrix(0.06172839506172839,0,0,0.06172839506172839,24.691358024691358,0)" xlink:href="#Y"/><use transform="matrix(0.06172839506172839,0,0,0.06172839506172839,30.864197530864196,0)" xlink:href="#an"/><use transform="matrix(0.06172839506172839,0,0,0.06172839506172839,35.74074074074074,0)" xlink:href="#aj"/><use transform="matrix(0.06172839506172839,0,0,0.06172839506172839,43.08641975308642,0)" xlink:href="#ab"/></g><path d="M179-190L93 31C79 59 56 82 12 73V49c39 6 53-20 64-50L1-190h34L92-34l54-156h33" id="aB"/><g id="V"><use transform="matrix(0.06172839506172839,0,0,0.06172839506172839,0,0)" xlink:href="#aa"/><use transform="matrix(0.06172839506172839,0,0,0.06172839506172839,11.11111111111111,0)" xlink:href="#aB"/><use transform="matrix(0.06172839506172839,0,0,0.06172839506172839,22.22222222222222,0)" xlink:href="#aa"/><use transform="matrix(0.06172839506172839,0,0,0.06172839506172839,33.33333333333333,0)" xlink:href="#Y"/><use transform="matrix(0.06172839506172839,0,0,0.06172839506172839,39.50617283950617,0)" xlink:href="#ab"/><use transform="matrix(0.06172839506172839,0,0,0.06172839506172839,51.85185185185185,0)" xlink:href="#aw"/></g></defs></g></svg>