<svg xmlns="http://www.w3.org/2000/svg" xmlns:xlink="http://www.w3.org/1999/xlink" xmlns:lucid="lucid" width="760.25" height="394.67"><g transform="translate(-198.5 -450.16666666666663)" lucid:page-tab-id="0_0"><path d="M568 584.34v-48.68M572 584.34v-48.68M580 579.18l-10 17.32-10-17.32m10 17.32V588M560 540.82l10-17.32 10 17.32m-10-17.32v8.5M588 584.34v-68.68M592 584.34v-68.68M600 579.18l-10 17.32-10-17.32m10 17.32V588M580 520.82l10-17.32 10 17.32m-10-17.32v8.5M570 740v-37.5" stroke="#000" stroke-width="2" fill="none"/><path d="M570 755.26L565.37 741h9.26z" stroke="#000" stroke-width="2"/><path d="M570.98 702.53H569v-1.03H571z" stroke="#000" stroke-width=".05"/><path d="M440 780a20 20 0 0 1 20-20h200a20 20 0 0 1 20 20 20 20 0 0 1-20 20H460a20 20 0 0 1-20-20z" stroke="#000" stroke-width="3" fill="#ced4db"/><use xlink:href="#a" transform="matrix(1,0,0,1,445,765) translate(89.23648148148148 21.430555555555557)"/><path d="M550 740v-17.5" stroke="#000" stroke-width="2" fill="none"/><path d="M550 755.26L545.37 741h9.26z" stroke="#000" stroke-width="2"/><path d="M550.98 722.53H549v-1.03H551z" stroke="#000" stroke-width=".05"/><path d="M757.25 457.67a6 6 0 0 1 6-6h188a6 6 0 0 1 6 6v104.66a6 6 0 0 1-6 6h-188a6 6 0 0 1-6-6z" stroke="#000" stroke-opacity="0" stroke-width="3" fill="#fff" fill-opacity="0"/><use xlink:href="#b" transform="matrix(1,0,0,1,762.2545345830961,456.66666666666663) translate(32.0679012345679 21.12152777777778)"/><use xlink:href="#c" transform="matrix(1,0,0,1,762.2545345830961,456.66666666666663) translate(90.03086419753086 21.12152777777778)"/><use xlink:href="#d" transform="matrix(1,0,0,1,762.2545345830961,456.66666666666663) translate(120.89506172839506 21.12152777777778)"/><use xlink:href="#e" transform="matrix(1,0,0,1,762.2545345830961,456.66666666666663) translate(21.975308641975317 47.78819444444444)"/><use xlink:href="#f" transform="matrix(1,0,0,1,762.2545345830961,456.66666666666663) translate(86.60493827160494 47.78819444444444)"/><use xlink:href="#g" transform="matrix(1,0,0,1,762.2545345830961,456.66666666666663) translate(4.96913580246914 74.45486111111111)"/><use xlink:href="#h" transform="matrix(1,0,0,1,762.2545345830961,456.66666666666663) translate(77.74691358024691 74.45486111111111)"/><use xlink:href="#i" transform="matrix(1,0,0,1,762.2545345830961,456.66666666666663) translate(109.78395061728395 74.45486111111111)"/><use xlink:href="#j" transform="matrix(1,0,0,1,762.2545345830961,456.66666666666663) translate(154.16666666666666 74.45486111111111)"/><use xlink:href="#k" transform="matrix(1,0,0,1,762.2545345830961,456.66666666666663) translate(29.012345679012356 101.12152777777777)"/><use xlink:href="#l" transform="matrix(1,0,0,1,762.2545345830961,456.66666666666663) translate(51.17283950617285 101.12152777777777)"/><use xlink:href="#m" transform="matrix(1,0,0,1,762.2545345830961,456.66666666666663) translate(88.20987654320989 101.12152777777777)"/><path d="M757.25 607.42a6 6 0 0 1 6-6h188a6 6 0 0 1 6 6v108a6 6 0 0 1-6 6h-188a6 6 0 0 1-6-6z" stroke="#000" stroke-opacity="0" stroke-width="3" fill="#fff" fill-opacity="0"/><use xlink:href="#b" transform="matrix(1,0,0,1,762.2545345830961,606.4173228346456) translate(8.611111111111114 31.52777777777778)"/><use xlink:href="#c" transform="matrix(1,0,0,1,762.2545345830961,606.4173228346456) translate(66.57407407407408 31.52777777777778)"/><use xlink:href="#n" transform="matrix(1,0,0,1,762.2545345830961,606.4173228346456) translate(97.43827160493828 31.52777777777778)"/><use xlink:href="#o" transform="matrix(1,0,0,1,762.2545345830961,606.4173228346456) translate(6.820987654320987 58.19444444444445)"/><use xlink:href="#g" transform="matrix(1,0,0,1,762.2545345830961,606.4173228346456) translate(91.88271604938271 58.19444444444445)"/><use xlink:href="#p" transform="matrix(1,0,0,1,762.2545345830961,606.4173228346456) translate(164.66049382716048 58.19444444444445)"/><use xlink:href="#q" transform="matrix(1,0,0,1,762.2545345830961,606.4173228346456) translate(30.21604938271605 84.86111111111111)"/><use xlink:href="#r" transform="matrix(1,0,0,1,762.2545345830961,606.4173228346456) translate(83.30246913580248 84.86111111111111)"/><path d="M757.25 732.67a6 6 0 0 1 6-6h188a6 6 0 0 1 6 6v104.66a6 6 0 0 1-6 6h-188a6 6 0 0 1-6-6z" stroke="#000" stroke-opacity="0" stroke-width="3" fill="#fff" fill-opacity="0"/><use xlink:href="#b" transform="matrix(1,0,0,1,762.2545345830961,731.6666666666666) translate(21.604938271604937 31.15277777777778)"/><use xlink:href="#c" transform="matrix(1,0,0,1,762.2545345830961,731.6666666666666) translate(79.5679012345679 31.15277777777778)"/><use xlink:href="#s" transform="matrix(1,0,0,1,762.2545345830961,731.6666666666666) translate(110.4320987654321 31.15277777777778)"/><use xlink:href="#t" transform="matrix(1,0,0,1,762.2545345830961,731.6666666666666) translate(16.728395061728392 57.81944444444445)"/><use xlink:href="#u" transform="matrix(1,0,0,1,762.2545345830961,731.6666666666666) translate(121.48148148148148 57.81944444444445)"/><use xlink:href="#l" transform="matrix(1,0,0,1,762.2545345830961,731.6666666666666) translate(6.172839506172835 84.48611111111111)"/><use xlink:href="#v" transform="matrix(1,0,0,1,762.2545345830961,731.6666666666666) translate(43.20987654320987 84.48611111111111)"/><use xlink:href="#r" transform="matrix(1,0,0,1,762.2545345830961,731.6666666666666) translate(107.34567901234567 84.48611111111111)"/><path d="M200 466a6 6 0 0 1 6-6h148a6 6 0 0 1 6 6v88a6 6 0 0 1-6 6H206a6 6 0 0 1-6-6z" stroke="#000" stroke-opacity="0" stroke-width="3" fill="#fff" fill-opacity="0"/><use xlink:href="#w" transform="matrix(1,0,0,1,205,465) translate(5.9876543209876445 37.68402777777778)"/><use xlink:href="#x" transform="matrix(1,0,0,1,205,465) translate(58.950617283950606 37.68402777777778)"/><use xlink:href="#y" transform="matrix(1,0,0,1,205,465) translate(26.944444444444436 64.35069444444446)"/><path d="M200 606a6 6 0 0 1 6-6h148a6 6 0 0 1 6 6v108a6 6 0 0 1-6 6H206a6 6 0 0 1-6-6z" stroke="#000" stroke-opacity="0" stroke-width="3" fill="#fff" fill-opacity="0"/><g><use xlink:href="#z" transform="matrix(1,0,0,1,205,605) translate(4.1049382716049365 31.52777777777778)"/><use xlink:href="#A" transform="matrix(1,0,0,1,205,605) translate(100.3395061728395 31.52777777777778)"/><use xlink:href="#B" transform="matrix(1,0,0,1,205,605) translate(7.129629629629633 58.19444444444445)"/><use xlink:href="#C" transform="matrix(1,0,0,1,205,605) translate(51.51234567901235 58.19444444444445)"/><use xlink:href="#D" transform="matrix(1,0,0,1,205,605) translate(105.83333333333333 58.19444444444445)"/><use xlink:href="#E" transform="matrix(1,0,0,1,205,605) translate(2.253086419753089 84.86111111111111)"/><use xlink:href="#F" transform="matrix(1,0,0,1,205,605) translate(73.79629629629629 84.86111111111111)"/></g><path d="M202.75 741a6 6 0 0 1 6-6h148a6 6 0 0 1 6 6v78a6 6 0 0 1-6 6h-148a6 6 0 0 1-6-6z" stroke="#000" stroke-opacity="0" stroke-width="3" fill="#fff" fill-opacity="0"/><g><use xlink:href="#G" transform="matrix(1,0,0,1,207.74546541690393,740) translate(27.5 20.27777777777778)"/><use xlink:href="#H" transform="matrix(1,0,0,1,207.74546541690393,740) translate(7.222222222222214 46.94444444444444)"/><use xlink:href="#I" transform="matrix(1,0,0,1,207.74546541690393,740) translate(126.79012345679013 46.94444444444444)"/><use xlink:href="#J" transform="matrix(1,0,0,1,207.74546541690393,740) translate(41.141975308641975 73.61111111111111)"/></g><path d="M500 480a20 20 0 0 1 20-20h140a20 20 0 0 1 20 20 20 20 0 0 1-20 20H520a20 20 0 0 1-20-20z" stroke="#000" stroke-width="3" fill="url(#K)"/><g><use xlink:href="#L" transform="matrix(1,0,0,1,505,465) translate(16.492654320987647 21.430555555555557)"/></g><path d="M480 500a20 20 0 0 1 20-20h140a20 20 0 0 1 20 20 20 20 0 0 1-20 20H500a20 20 0 0 1-20-20z" stroke="#000" stroke-width="3" fill="url(#M)"/><g><use xlink:href="#L" transform="matrix(1,0,0,1,485,485) translate(16.492654320987647 21.430555555555557)"/></g><path d="M460 520a20 20 0 0 1 20-20h140a20 20 0 0 1 20 20 20 20 0 0 1-20 20H480a20 20 0 0 1-20-20z" stroke="#000" stroke-width="3" fill="url(#N)"/><g><use xlink:href="#L" transform="matrix(1,0,0,1,465,505) translate(16.492654320987647 21.430555555555557)"/></g><path d="M460 620a20 20 0 0 1 20-20h180a20 20 0 0 1 20 20v60a20 20 0 0 1-20 20H480a20 20 0 0 1-20-20z" stroke="#000" stroke-width="3" fill="url(#O)"/><g><use xlink:href="#P" transform="matrix(1,0,0,1,465,605) translate(75.83641975308642 50.49305555555556)"/></g><path d="M440 640a20 20 0 0 1 20-20h180a20 20 0 0 1 20 20v60a20 20 0 0 1-20 20H460a20 20 0 0 1-20-20z" stroke="#000" stroke-width="3" fill="url(#Q)"/><g><use xlink:href="#P" transform="matrix(1,0,0,1,445,625) translate(75.83641975308642 50.49305555555556)"/></g><path d="M528 604.34v-28.68M532 604.34v-28.68M540 599.18l-10 17.32-10-17.32m10 17.32V608M520 580.82l10-17.32 10 17.32m-10-17.32v8.5M548 604.34v-48.68M552 604.34v-48.68M560 599.18l-10 17.32-10-17.32m10 17.32V608M540 560.82l10-17.32 10 17.32m-10-17.32v8.5" stroke="#000" stroke-width="2" fill="none"/><path d="M440 540a20 20 0 0 1 20-20h140a20 20 0 0 1 20 20 20 20 0 0 1-20 20H460a20 20 0 0 1-20-20z" stroke="#000" stroke-width="3" fill="url(#R)"/><g><use xlink:href="#L" transform="matrix(1,0,0,1,445,525) translate(16.492654320987647 21.430555555555557)"/></g><defs><path d="M30-248c118-7 216 8 213 122C240-48 200 0 122 0H30v-248zM63-27c89 8 146-16 146-99s-60-101-146-95v194" id="S"/><path d="M141-36C126-15 110 5 73 4 37 3 15-17 15-53c-1-64 63-63 125-63 3-35-9-54-41-54-24 1-41 7-42 31l-33-3c5-37 33-52 76-52 45 0 72 20 72 64v82c-1 20 7 32 28 27v20c-31 9-61-2-59-35zM48-53c0 20 12 33 32 33 41-3 63-29 60-74-43 2-92-5-92 41" id="T"/><path d="M59-47c-2 24 18 29 38 22v24C64 9 27 4 27-40v-127H5v-23h24l9-43h21v43h35v23H59v120" id="U"/><g id="a"><use transform="matrix(0.06790123456790124,0,0,0.06790123456790124,0,0)" xlink:href="#S"/><use transform="matrix(0.06790123456790124,0,0,0.06790123456790124,17.58641975308642,0)" xlink:href="#T"/><use transform="matrix(0.06790123456790124,0,0,0.06790123456790124,31.16666666666667,0)" xlink:href="#U"/><use transform="matrix(0.06790123456790124,0,0,0.06790123456790124,37.9567901234568,0)" xlink:href="#T"/></g><path d="M233-177c-1 41-23 64-60 70L243 0h-38l-65-103H63V0H30v-248c88 3 205-21 203 71zM63-129c60-2 137 13 137-47 0-61-80-42-137-45v92" id="V"/><path d="M84 4C-5 8 30-112 23-190h32v120c0 31 7 50 39 49 72-2 45-101 50-169h31l1 190h-30c-1-10 1-25-2-33-11 22-28 36-60 37" id="W"/><path d="M117-194c89-4 53 116 60 194h-32v-121c0-31-8-49-39-48C34-167 62-67 57 0H25l-1-190h30c1 10-1 24 2 32 11-22 29-35 61-36" id="X"/><path d="M135-143c-3-34-86-38-87 0 15 53 115 12 119 90S17 21 10-45l28-5c4 36 97 45 98 0-10-56-113-15-118-90-4-57 82-63 122-42 12 7 21 19 24 35" id="Y"/><g id="b"><use transform="matrix(0.06172839506172839,0,0,0.06172839506172839,0,0)" xlink:href="#V"/><use transform="matrix(0.06172839506172839,0,0,0.06172839506172839,15.987654320987653,0)" xlink:href="#W"/><use transform="matrix(0.06172839506172839,0,0,0.06172839506172839,28.333333333333332,0)" xlink:href="#X"/><use transform="matrix(0.06172839506172839,0,0,0.06172839506172839,40.67901234567901,0)" xlink:href="#Y"/></g><path d="M100-194c62-1 85 37 85 99 1 63-27 99-86 99S16-35 15-95c0-66 28-99 85-99zM99-20c44 1 53-31 53-75 0-43-8-75-51-75s-53 32-53 75 10 74 51 75" id="Z"/><g id="c"><use transform="matrix(0.06172839506172839,0,0,0.06172839506172839,0,0)" xlink:href="#Z"/><use transform="matrix(0.06172839506172839,0,0,0.06172839506172839,12.345679012345679,0)" xlink:href="#X"/></g><path d="M100-194c63 0 86 42 84 106H49c0 40 14 67 53 68 26 1 43-12 49-29l28 8c-11 28-37 45-77 45C44 4 14-33 15-96c1-61 26-98 85-98zm52 81c6-60-76-77-97-28-3 7-6 17-6 28h103" id="aa"/><path d="M85-194c31 0 48 13 60 33l-1-100h32l1 261h-30c-2-10 0-23-3-31C134-8 116 4 85 4 32 4 16-35 15-94c0-66 23-100 70-100zm9 24c-40 0-46 34-46 75 0 40 6 74 45 74 42 0 51-32 51-76 0-42-9-74-50-73" id="ab"/><g id="d"><use transform="matrix(0.06172839506172839,0,0,0.06172839506172839,0,0)" xlink:href="#aa"/><use transform="matrix(0.06172839506172839,0,0,0.06172839506172839,12.345679012345679,0)" xlink:href="#X"/><use transform="matrix(0.06172839506172839,0,0,0.06172839506172839,24.691358024691358,0)" xlink:href="#ab"/></g><path d="M114-163C36-179 61-72 57 0H25l-1-190h30c1 12-1 29 2 39 6-27 23-49 58-41v29" id="ac"/><path d="M47-170H22l-4-78h33" id="ad"/><g id="e"><use transform="matrix(0.06172839506172839,0,0,0.06172839506172839,0,0)" xlink:href="#W"/><use transform="matrix(0.06172839506172839,0,0,0.06172839506172839,12.345679012345679,0)" xlink:href="#Y"/><use transform="matrix(0.06172839506172839,0,0,0.06172839506172839,23.45679012345679,0)" xlink:href="#aa"/><use transform="matrix(0.06172839506172839,0,0,0.06172839506172839,35.80246913580247,0)" xlink:href="#ac"/><use transform="matrix(0.06172839506172839,0,0,0.06172839506172839,43.148148148148145,0)" xlink:href="#Y"/><use transform="matrix(0.06172839506172839,0,0,0.06172839506172839,54.25925925925925,0)" xlink:href="#ad"/></g><path d="M108 0H70L1-190h34L89-25l56-165h34" id="ae"/><path d="M24-231v-30h32v30H24zM24 0v-190h32V0H24" id="af"/><path d="M96-169c-40 0-48 33-48 73s9 75 48 75c24 0 41-14 43-38l32 2c-6 37-31 61-74 61-59 0-76-41-82-99-10-93 101-131 147-64 4 7 5 14 7 22l-32 3c-4-21-16-35-41-35" id="ag"/><path d="M33 0v-38h34V0H33" id="ah"/><g id="f"><use transform="matrix(0.06172839506172839,0,0,0.06172839506172839,0,0)" xlink:href="#ab"/><use transform="matrix(0.06172839506172839,0,0,0.06172839506172839,12.345679012345679,0)" xlink:href="#aa"/><use transform="matrix(0.06172839506172839,0,0,0.06172839506172839,24.691358024691358,0)" xlink:href="#ae"/><use transform="matrix(0.06172839506172839,0,0,0.06172839506172839,35.80246913580247,0)" xlink:href="#af"/><use transform="matrix(0.06172839506172839,0,0,0.06172839506172839,40.67901234567901,0)" xlink:href="#ag"/><use transform="matrix(0.06172839506172839,0,0,0.06172839506172839,51.79012345679013,0)" xlink:href="#aa"/><use transform="matrix(0.06172839506172839,0,0,0.06172839506172839,64.13580246913581,0)" xlink:href="#Y"/><use transform="matrix(0.06172839506172839,0,0,0.06172839506172839,75.24691358024693,0)" xlink:href="#ah"/></g><path d="M185-189c-5-48-123-54-124 2 14 75 158 14 163 119 3 78-121 87-175 55-17-10-28-26-33-46l33-7c5 56 141 63 141-1 0-78-155-14-162-118-5-82 145-84 179-34 5 7 8 16 11 25" id="ai"/><path d="M24 0v-261h32V0H24" id="aj"/><g id="g"><use transform="matrix(0.06172839506172839,0,0,0.06172839506172839,0,0)" xlink:href="#ai"/><use transform="matrix(0.06172839506172839,0,0,0.06172839506172839,14.814814814814813,0)" xlink:href="#ag"/><use transform="matrix(0.06172839506172839,0,0,0.06172839506172839,25.925925925925924,0)" xlink:href="#T"/><use transform="matrix(0.06172839506172839,0,0,0.06172839506172839,38.2716049382716,0)" xlink:href="#aj"/><use transform="matrix(0.06172839506172839,0,0,0.06172839506172839,43.148148148148145,0)" xlink:href="#aa"/><use transform="matrix(0.06172839506172839,0,0,0.06172839506172839,55.49382716049382,0)" xlink:href="#Y"/></g><path d="M101-234c-31-9-42 10-38 44h38v23H63V0H32v-167H5v-23h27c-7-52 17-82 69-68v24" id="ak"/><g id="h"><use transform="matrix(0.06172839506172839,0,0,0.06172839506172839,0,0)" xlink:href="#ak"/><use transform="matrix(0.06172839506172839,0,0,0.06172839506172839,6.172839506172839,0)" xlink:href="#Z"/><use transform="matrix(0.06172839506172839,0,0,0.06172839506172839,18.51851851851852,0)" xlink:href="#ac"/></g><g id="i"><use transform="matrix(0.06172839506172839,0,0,0.06172839506172839,0,0)" xlink:href="#ak"/><use transform="matrix(0.06172839506172839,0,0,0.06172839506172839,6.172839506172839,0)" xlink:href="#ac"/><use transform="matrix(0.06172839506172839,0,0,0.06172839506172839,13.518518518518519,0)" xlink:href="#aa"/><use transform="matrix(0.06172839506172839,0,0,0.06172839506172839,25.864197530864196,0)" xlink:href="#aa"/></g><path d="M115-194c53 0 69 39 70 98 0 66-23 100-70 100C84 3 66-7 56-30L54 0H23l1-261h32v101c10-23 28-34 59-34zm-8 174c40 0 45-34 45-75 0-40-5-75-45-74-42 0-51 32-51 76 0 43 10 73 51 73" id="al"/><g id="j"><use transform="matrix(0.06172839506172839,0,0,0.06172839506172839,0,0)" xlink:href="#al"/><use transform="matrix(0.06172839506172839,0,0,0.06172839506172839,12.345679012345679,0)" xlink:href="#W"/><use transform="matrix(0.06172839506172839,0,0,0.06172839506172839,24.691358024691358,0)" xlink:href="#U"/></g><g id="k"><use transform="matrix(0.06172839506172839,0,0,0.06172839506172839,0,0)" xlink:href="#af"/><use transform="matrix(0.06172839506172839,0,0,0.06172839506172839,4.876543209876543,0)" xlink:href="#Y"/></g><g id="l"><use transform="matrix(0.06172839506172839,0,0,0.06172839506172839,0,0)" xlink:href="#X"/><use transform="matrix(0.06172839506172839,0,0,0.06172839506172839,12.345679012345679,0)" xlink:href="#Z"/><use transform="matrix(0.06172839506172839,0,0,0.06172839506172839,24.691358024691358,0)" xlink:href="#U"/></g><g id="m"><use transform="matrix(0.06172839506172839,0,0,0.06172839506172839,0,0)" xlink:href="#Y"/><use transform="matrix(0.06172839506172839,0,0,0.06172839506172839,11.11111111111111,0)" xlink:href="#aa"/><use transform="matrix(0.06172839506172839,0,0,0.06172839506172839,23.45679012345679,0)" xlink:href="#ag"/><use transform="matrix(0.06172839506172839,0,0,0.06172839506172839,34.5679012345679,0)" xlink:href="#W"/><use transform="matrix(0.06172839506172839,0,0,0.06172839506172839,46.913580246913575,0)" xlink:href="#ac"/><use transform="matrix(0.06172839506172839,0,0,0.06172839506172839,54.25925925925925,0)" xlink:href="#aa"/><use transform="matrix(0.06172839506172839,0,0,0.06172839506172839,66.60493827160494,0)" xlink:href="#ah"/></g><path d="M143 0L79-87 56-68V0H24v-261h32v163l83-92h37l-77 82L181 0h-38" id="am"/><g id="n"><use transform="matrix(0.06172839506172839,0,0,0.06172839506172839,0,0)" xlink:href="#al"/><use transform="matrix(0.06172839506172839,0,0,0.06172839506172839,12.345679012345679,0)" xlink:href="#T"/><use transform="matrix(0.06172839506172839,0,0,0.06172839506172839,24.691358024691358,0)" xlink:href="#ag"/><use transform="matrix(0.06172839506172839,0,0,0.06172839506172839,35.80246913580247,0)" xlink:href="#am"/><use transform="matrix(0.06172839506172839,0,0,0.06172839506172839,46.91358024691358,0)" xlink:href="#aa"/><use transform="matrix(0.06172839506172839,0,0,0.06172839506172839,59.25925925925926,0)" xlink:href="#X"/><use transform="matrix(0.06172839506172839,0,0,0.06172839506172839,71.60493827160494,0)" xlink:href="#ab"/></g><g id="o"><use transform="matrix(0.06172839506172839,0,0,0.06172839506172839,0,0)" xlink:href="#Y"/><use transform="matrix(0.06172839506172839,0,0,0.06172839506172839,11.11111111111111,0)" xlink:href="#aa"/><use transform="matrix(0.06172839506172839,0,0,0.06172839506172839,23.45679012345679,0)" xlink:href="#ac"/><use transform="matrix(0.06172839506172839,0,0,0.06172839506172839,30.80246913580247,0)" xlink:href="#ae"/><use transform="matrix(0.06172839506172839,0,0,0.06172839506172839,41.91358024691358,0)" xlink:href="#aa"/><use transform="matrix(0.06172839506172839,0,0,0.06172839506172839,54.25925925925926,0)" xlink:href="#ac"/><use transform="matrix(0.06172839506172839,0,0,0.06172839506172839,61.60493827160494,0)" xlink:href="#Y"/><use transform="matrix(0.06172839506172839,0,0,0.06172839506172839,72.71604938271605,0)" xlink:href="#ah"/></g><g id="p"><use transform="matrix(0.06172839506172839,0,0,0.06172839506172839,0,0)" xlink:href="#T"/><use transform="matrix(0.06172839506172839,0,0,0.06172839506172839,12.345679012345679,0)" xlink:href="#U"/></g><g id="q"><use transform="matrix(0.06172839506172839,0,0,0.06172839506172839,0,0)" xlink:href="#ag"/><use transform="matrix(0.06172839506172839,0,0,0.06172839506172839,11.11111111111111,0)" xlink:href="#Z"/><use transform="matrix(0.06172839506172839,0,0,0.06172839506172839,23.45679012345679,0)" xlink:href="#Y"/><use transform="matrix(0.06172839506172839,0,0,0.06172839506172839,34.5679012345679,0)" xlink:href="#U"/><use transform="matrix(0.06172839506172839,0,0,0.06172839506172839,40.74074074074074,0)" xlink:href="#ah"/></g><g id="r"><use transform="matrix(0.06172839506172839,0,0,0.06172839506172839,0,0)" xlink:href="#ai"/><use transform="matrix(0.06172839506172839,0,0,0.06172839506172839,14.814814814814813,0)" xlink:href="#aa"/><use transform="matrix(0.06172839506172839,0,0,0.06172839506172839,27.160493827160494,0)" xlink:href="#ag"/><use transform="matrix(0.06172839506172839,0,0,0.06172839506172839,38.27160493827161,0)" xlink:href="#W"/><use transform="matrix(0.06172839506172839,0,0,0.06172839506172839,50.617283950617285,0)" xlink:href="#ac"/><use transform="matrix(0.06172839506172839,0,0,0.06172839506172839,57.96296296296296,0)" xlink:href="#aa"/><use transform="matrix(0.06172839506172839,0,0,0.06172839506172839,70.30864197530865,0)" xlink:href="#ah"/></g><g id="s"><use transform="matrix(0.06172839506172839,0,0,0.06172839506172839,0,0)" xlink:href="#Y"/><use transform="matrix(0.06172839506172839,0,0,0.06172839506172839,11.11111111111111,0)" xlink:href="#aa"/><use transform="matrix(0.06172839506172839,0,0,0.06172839506172839,23.45679012345679,0)" xlink:href="#aj"/><use transform="matrix(0.06172839506172839,0,0,0.06172839506172839,28.333333333333336,0)" xlink:href="#aa"/><use transform="matrix(0.06172839506172839,0,0,0.06172839506172839,40.67901234567901,0)" xlink:href="#ag"/><use transform="matrix(0.06172839506172839,0,0,0.06172839506172839,51.79012345679013,0)" xlink:href="#U"/></g><path d="M106-169C34-169 62-67 57 0H25v-261h32l-1 103c12-21 28-36 61-36 89 0 53 116 60 194h-32v-121c2-32-8-49-39-48" id="an"/><path d="M206 0h-36l-40-164L89 0H53L-1-190h32L70-26l43-164h34l41 164 42-164h31" id="ao"/><g id="t"><use transform="matrix(0.06172839506172839,0,0,0.06172839506172839,0,0)" xlink:href="#an"/><use transform="matrix(0.06172839506172839,0,0,0.06172839506172839,12.345679012345679,0)" xlink:href="#T"/><use transform="matrix(0.06172839506172839,0,0,0.06172839506172839,24.691358024691358,0)" xlink:href="#ac"/><use transform="matrix(0.06172839506172839,0,0,0.06172839506172839,32.03703703703704,0)" xlink:href="#ab"/><use transform="matrix(0.06172839506172839,0,0,0.06172839506172839,44.382716049382715,0)" xlink:href="#ao"/><use transform="matrix(0.06172839506172839,0,0,0.06172839506172839,60.37037037037037,0)" xlink:href="#T"/><use transform="matrix(0.06172839506172839,0,0,0.06172839506172839,72.71604938271605,0)" xlink:href="#ac"/><use transform="matrix(0.06172839506172839,0,0,0.06172839506172839,80.06172839506173,0)" xlink:href="#aa"/><use transform="matrix(0.06172839506172839,0,0,0.06172839506172839,92.40740740740742,0)" xlink:href="#ah"/></g><g id="u"><use transform="matrix(0.06172839506172839,0,0,0.06172839506172839,0,0)" xlink:href="#S"/><use transform="matrix(0.06172839506172839,0,0,0.06172839506172839,15.987654320987653,0)" xlink:href="#Z"/><use transform="matrix(0.06172839506172839,0,0,0.06172839506172839,28.333333333333332,0)" xlink:href="#aa"/><use transform="matrix(0.06172839506172839,0,0,0.06172839506172839,40.67901234567901,0)" xlink:href="#Y"/></g><g id="v"><use transform="matrix(0.06172839506172839,0,0,0.06172839506172839,0,0)" xlink:href="#Y"/><use transform="matrix(0.06172839506172839,0,0,0.06172839506172839,11.11111111111111,0)" xlink:href="#ag"/><use transform="matrix(0.06172839506172839,0,0,0.06172839506172839,22.22222222222222,0)" xlink:href="#T"/><use transform="matrix(0.06172839506172839,0,0,0.06172839506172839,34.5679012345679,0)" xlink:href="#aj"/><use transform="matrix(0.06172839506172839,0,0,0.06172839506172839,39.44444444444444,0)" xlink:href="#aa"/><use transform="matrix(0.06172839506172839,0,0,0.06172839506172839,51.79012345679012,0)" xlink:href="#ah"/></g><path d="M232-93c-1 65-40 97-104 97C67 4 28-28 28-90v-158h33c8 89-33 224 67 224 102 0 64-133 71-224h33v155" id="ap"/><g id="w"><use transform="matrix(0.06172839506172839,0,0,0.06172839506172839,0,0)" xlink:href="#ap"/><use transform="matrix(0.06172839506172839,0,0,0.06172839506172839,15.987654320987653,0)" xlink:href="#Y"/><use transform="matrix(0.06172839506172839,0,0,0.06172839506172839,27.098765432098766,0)" xlink:href="#aa"/><use transform="matrix(0.06172839506172839,0,0,0.06172839506172839,39.44444444444444,0)" xlink:href="#ac"/></g><g id="x"><use transform="matrix(0.06172839506172839,0,0,0.06172839506172839,0,0)" xlink:href="#af"/><use transform="matrix(0.06172839506172839,0,0,0.06172839506172839,4.876543209876543,0)" xlink:href="#X"/><use transform="matrix(0.06172839506172839,0,0,0.06172839506172839,17.22222222222222,0)" xlink:href="#U"/><use transform="matrix(0.06172839506172839,0,0,0.06172839506172839,23.39506172839506,0)" xlink:href="#aa"/><use transform="matrix(0.06172839506172839,0,0,0.06172839506172839,35.74074074074074,0)" xlink:href="#ac"/><use transform="matrix(0.06172839506172839,0,0,0.06172839506172839,43.08641975308642,0)" xlink:href="#ak"/><use transform="matrix(0.06172839506172839,0,0,0.06172839506172839,49.25925925925926,0)" xlink:href="#T"/><use transform="matrix(0.06172839506172839,0,0,0.06172839506172839,61.60493827160494,0)" xlink:href="#ag"/><use transform="matrix(0.06172839506172839,0,0,0.06172839506172839,72.71604938271605,0)" xlink:href="#aa"/></g><path d="M87 75C49 33 22-17 22-94c0-76 28-126 65-167h31c-38 41-64 92-64 168S80 34 118 75H87" id="aq"/><path d="M33-261c38 41 65 92 65 168S71 34 33 75H2C39 34 66-17 66-93S39-220 2-261h31" id="ar"/><g id="y"><use transform="matrix(0.06172839506172839,0,0,0.06172839506172839,0,0)" xlink:href="#aq"/><use transform="matrix(0.06172839506172839,0,0,0.06172839506172839,7.345679012345679,0)" xlink:href="#ak"/><use transform="matrix(0.06172839506172839,0,0,0.06172839506172839,13.518518518518519,0)" xlink:href="#ac"/><use transform="matrix(0.06172839506172839,0,0,0.06172839506172839,20.864197530864196,0)" xlink:href="#Z"/><use transform="matrix(0.06172839506172839,0,0,0.06172839506172839,33.20987654320987,0)" xlink:href="#X"/><use transform="matrix(0.06172839506172839,0,0,0.06172839506172839,45.55555555555555,0)" xlink:href="#U"/><use transform="matrix(0.06172839506172839,0,0,0.06172839506172839,51.72839506172839,0)" xlink:href="#aa"/><use transform="matrix(0.06172839506172839,0,0,0.06172839506172839,64.07407407407408,0)" xlink:href="#X"/><use transform="matrix(0.06172839506172839,0,0,0.06172839506172839,76.41975308641976,0)" xlink:href="#ab"/><use transform="matrix(0.06172839506172839,0,0,0.06172839506172839,88.76543209876544,0)" xlink:href="#ar"/></g><path d="M160-131c35 5 61 23 61 61C221 17 115-2 30 0v-248c76 3 177-17 177 60 0 33-19 50-47 57zm-97-11c50-1 110 9 110-42 0-47-63-36-110-37v79zm0 115c55-2 124 14 124-45 0-56-70-42-124-44v89" id="as"/><g id="z"><use transform="matrix(0.06172839506172839,0,0,0.06172839506172839,0,0)" xlink:href="#as"/><use transform="matrix(0.06172839506172839,0,0,0.06172839506172839,14.814814814814813,0)" xlink:href="#W"/><use transform="matrix(0.06172839506172839,0,0,0.06172839506172839,27.160493827160494,0)" xlink:href="#Y"/><use transform="matrix(0.06172839506172839,0,0,0.06172839506172839,38.27160493827161,0)" xlink:href="#af"/><use transform="matrix(0.06172839506172839,0,0,0.06172839506172839,43.14814814814815,0)" xlink:href="#X"/><use transform="matrix(0.06172839506172839,0,0,0.06172839506172839,55.49382716049383,0)" xlink:href="#aa"/><use transform="matrix(0.06172839506172839,0,0,0.06172839506172839,67.8395061728395,0)" xlink:href="#Y"/><use transform="matrix(0.06172839506172839,0,0,0.06172839506172839,78.95061728395062,0)" xlink:href="#Y"/></g><path d="M177-190C167-65 218 103 67 71c-23-6-38-20-44-43l32-5c15 47 100 32 89-28v-30C133-14 115 1 83 1 29 1 15-40 15-95c0-56 16-97 71-98 29-1 48 16 59 35 1-10 0-23 2-32h30zM94-22c36 0 50-32 50-73 0-42-14-75-50-75-39 0-46 34-46 75s6 73 46 73" id="at"/><g id="A"><use transform="matrix(0.06172839506172839,0,0,0.06172839506172839,0,0)" xlink:href="#aj"/><use transform="matrix(0.06172839506172839,0,0,0.06172839506172839,4.876543209876543,0)" xlink:href="#Z"/><use transform="matrix(0.06172839506172839,0,0,0.06172839506172839,17.22222222222222,0)" xlink:href="#at"/><use transform="matrix(0.06172839506172839,0,0,0.06172839506172839,29.5679012345679,0)" xlink:href="#af"/><use transform="matrix(0.06172839506172839,0,0,0.06172839506172839,34.44444444444444,0)" xlink:href="#ag"/></g><g id="B"><use transform="matrix(0.06172839506172839,0,0,0.06172839506172839,0,0)" xlink:href="#aq"/><use transform="matrix(0.06172839506172839,0,0,0.06172839506172839,7.345679012345679,0)" xlink:href="#U"/><use transform="matrix(0.06172839506172839,0,0,0.06172839506172839,13.518518518518519,0)" xlink:href="#an"/><use transform="matrix(0.06172839506172839,0,0,0.06172839506172839,25.864197530864196,0)" xlink:href="#aa"/></g><g id="C"><use transform="matrix(0.06172839506172839,0,0,0.06172839506172839,0,0)" xlink:href="#ag"/><use transform="matrix(0.06172839506172839,0,0,0.06172839506172839,11.11111111111111,0)" xlink:href="#Z"/><use transform="matrix(0.06172839506172839,0,0,0.06172839506172839,23.45679012345679,0)" xlink:href="#ab"/><use transform="matrix(0.06172839506172839,0,0,0.06172839506172839,35.80246913580247,0)" xlink:href="#aa"/></g><g id="D"><use transform="matrix(0.06172839506172839,0,0,0.06172839506172839,0,0)" xlink:href="#U"/><use transform="matrix(0.06172839506172839,0,0,0.06172839506172839,6.172839506172839,0)" xlink:href="#an"/><use transform="matrix(0.06172839506172839,0,0,0.06172839506172839,18.51851851851852,0)" xlink:href="#T"/><use transform="matrix(0.06172839506172839,0,0,0.06172839506172839,30.864197530864196,0)" xlink:href="#U"/></g><path d="M210-169c-67 3-38 105-44 169h-31v-121c0-29-5-50-35-48C34-165 62-65 56 0H25l-1-190h30c1 10-1 24 2 32 10-44 99-50 107 0 11-21 27-35 58-36 85-2 47 119 55 194h-31v-121c0-29-5-49-35-48" id="au"/><g id="E"><use transform="matrix(0.06172839506172839,0,0,0.06172839506172839,0,0)" xlink:href="#au"/><use transform="matrix(0.06172839506172839,0,0,0.06172839506172839,18.456790123456788,0)" xlink:href="#T"/><use transform="matrix(0.06172839506172839,0,0,0.06172839506172839,30.80246913580247,0)" xlink:href="#am"/><use transform="matrix(0.06172839506172839,0,0,0.06172839506172839,41.91358024691358,0)" xlink:href="#aa"/><use transform="matrix(0.06172839506172839,0,0,0.06172839506172839,54.25925925925926,0)" xlink:href="#Y"/></g><path d="M179-190L93 31C79 59 56 82 12 73V49c39 6 53-20 64-50L1-190h34L92-34l54-156h33" id="av"/><g id="F"><use transform="matrix(0.06172839506172839,0,0,0.06172839506172839,0,0)" xlink:href="#au"/><use transform="matrix(0.06172839506172839,0,0,0.06172839506172839,18.456790123456788,0)" xlink:href="#Z"/><use transform="matrix(0.06172839506172839,0,0,0.06172839506172839,30.80246913580247,0)" xlink:href="#X"/><use transform="matrix(0.06172839506172839,0,0,0.06172839506172839,43.148148148148145,0)" xlink:href="#aa"/><use transform="matrix(0.06172839506172839,0,0,0.06172839506172839,55.49382716049382,0)" xlink:href="#av"/><use transform="matrix(0.06172839506172839,0,0,0.06172839506172839,66.60493827160494,0)" xlink:href="#ar"/></g><g id="G"><use transform="matrix(0.06172839506172839,0,0,0.06172839506172839,0,0)" xlink:href="#S"/><use transform="matrix(0.06172839506172839,0,0,0.06172839506172839,15.987654320987653,0)" xlink:href="#T"/><use transform="matrix(0.06172839506172839,0,0,0.06172839506172839,28.333333333333332,0)" xlink:href="#U"/><use transform="matrix(0.06172839506172839,0,0,0.06172839506172839,34.50617283950617,0)" xlink:href="#T"/><use transform="matrix(0.06172839506172839,0,0,0.06172839506172839,46.85185185185185,0)" xlink:href="#al"/><use transform="matrix(0.06172839506172839,0,0,0.06172839506172839,59.197530864197525,0)" xlink:href="#T"/><use transform="matrix(0.06172839506172839,0,0,0.06172839506172839,71.5432098765432,0)" xlink:href="#Y"/><use transform="matrix(0.06172839506172839,0,0,0.06172839506172839,82.65432098765432,0)" xlink:href="#aa"/></g><g id="H"><use transform="matrix(0.06172839506172839,0,0,0.06172839506172839,0,0)" xlink:href="#aq"/><use transform="matrix(0.06172839506172839,0,0,0.06172839506172839,7.345679012345679,0)" xlink:href="#am"/><use transform="matrix(0.06172839506172839,0,0,0.06172839506172839,18.45679012345679,0)" xlink:href="#X"/><use transform="matrix(0.06172839506172839,0,0,0.06172839506172839,30.80246913580247,0)" xlink:href="#Z"/><use transform="matrix(0.06172839506172839,0,0,0.06172839506172839,43.148148148148145,0)" xlink:href="#ao"/><use transform="matrix(0.06172839506172839,0,0,0.06172839506172839,59.1358024691358,0)" xlink:href="#aj"/><use transform="matrix(0.06172839506172839,0,0,0.06172839506172839,64.01234567901234,0)" xlink:href="#aa"/><use transform="matrix(0.06172839506172839,0,0,0.06172839506172839,76.35802469135803,0)" xlink:href="#ab"/><use transform="matrix(0.06172839506172839,0,0,0.06172839506172839,88.70370370370371,0)" xlink:href="#at"/><use transform="matrix(0.06172839506172839,0,0,0.06172839506172839,101.0493827160494,0)" xlink:href="#aa"/></g><g id="I"><use transform="matrix(0.06172839506172839,0,0,0.06172839506172839,0,0)" xlink:href="#af"/><use transform="matrix(0.06172839506172839,0,0,0.06172839506172839,4.876543209876543,0)" xlink:href="#Y"/></g><path d="M115-194c55 1 70 41 70 98S169 2 115 4C84 4 66-9 55-30l1 105H24l-1-265h31l2 30c10-21 28-34 59-34zm-8 174c40 0 45-34 45-75s-6-73-45-74c-42 0-51 32-51 76 0 43 10 73 51 73" id="aw"/><g id="J"><use transform="matrix(0.06172839506172839,0,0,0.06172839506172839,0,0)" xlink:href="#aw"/><use transform="matrix(0.06172839506172839,0,0,0.06172839506172839,12.345679012345679,0)" xlink:href="#Z"/><use transform="matrix(0.06172839506172839,0,0,0.06172839506172839,24.691358024691358,0)" xlink:href="#ao"/><use transform="matrix(0.06172839506172839,0,0,0.06172839506172839,40.67901234567901,0)" xlink:href="#aa"/><use transform="matrix(0.06172839506172839,0,0,0.06172839506172839,53.02469135802469,0)" xlink:href="#ac"/><use transform="matrix(0.06172839506172839,0,0,0.06172839506172839,60.37037037037037,0)" xlink:href="#ar"/></g><linearGradient gradientUnits="userSpaceOnUse" id="K" x1="500" y1="460" x2="500" y2="500"><stop offset="68.12%" stop-color="#fff"/><stop offset="89.49%" stop-color="#c3f7c8"/></linearGradient><path d="M30-248c87 1 191-15 191 75 0 78-77 80-158 76V0H30v-248zm33 125c57 0 124 11 124-50 0-59-68-47-124-48v98" id="ax"/><g id="L"><use transform="matrix(0.06790123456790124,0,0,0.06790123456790124,0,0)" xlink:href="#ax"/><use transform="matrix(0.06790123456790124,0,0,0.06790123456790124,16.296296296296298,0)" xlink:href="#ac"/><use transform="matrix(0.06790123456790124,0,0,0.06790123456790124,24.376543209876544,0)" xlink:href="#aa"/><use transform="matrix(0.06790123456790124,0,0,0.06790123456790124,37.95679012345679,0)" xlink:href="#Y"/><use transform="matrix(0.06790123456790124,0,0,0.06790123456790124,50.17901234567901,0)" xlink:href="#aa"/><use transform="matrix(0.06790123456790124,0,0,0.06790123456790124,63.75925925925926,0)" xlink:href="#X"/><use transform="matrix(0.06790123456790124,0,0,0.06790123456790124,77.3395061728395,0)" xlink:href="#U"/><use transform="matrix(0.06790123456790124,0,0,0.06790123456790124,84.12962962962963,0)" xlink:href="#T"/><use transform="matrix(0.06790123456790124,0,0,0.06790123456790124,97.70987654320989,0)" xlink:href="#U"/><use transform="matrix(0.06790123456790124,0,0,0.06790123456790124,104.50000000000001,0)" xlink:href="#af"/><use transform="matrix(0.06790123456790124,0,0,0.06790123456790124,109.86419753086422,0)" xlink:href="#Z"/><use transform="matrix(0.06790123456790124,0,0,0.06790123456790124,123.44444444444447,0)" xlink:href="#X"/></g><linearGradient gradientUnits="userSpaceOnUse" id="M" x1="480" y1="480" x2="480" y2="520"><stop offset="68.12%" stop-color="#fff"/><stop offset="89.49%" stop-color="#c3f7c8"/></linearGradient><linearGradient gradientUnits="userSpaceOnUse" id="N" x1="460" y1="500" x2="460" y2="540"><stop offset="68.12%" stop-color="#fff"/><stop offset="89.49%" stop-color="#c3f7c8"/></linearGradient><linearGradient gradientUnits="userSpaceOnUse" id="O" x1="460" y1="700" x2="460" y2="600"><stop offset="19.93%" stop-color="#fff"/><stop offset="27.17%" stop-color="#cfe4ff"/><stop offset="68.12%" stop-color="#cfe4ff"/><stop offset="77.17%" stop-color="#c3f7c8"/></linearGradient><path d="M30 0v-248h33v221h125V0H30" id="ay"/><g id="P"><use transform="matrix(0.06790123456790124,0,0,0.06790123456790124,0,0)" xlink:href="#ay"/><use transform="matrix(0.06790123456790124,0,0,0.06790123456790124,13.580246913580249,0)" xlink:href="#Z"/><use transform="matrix(0.06790123456790124,0,0,0.06790123456790124,27.160493827160497,0)" xlink:href="#at"/><use transform="matrix(0.06790123456790124,0,0,0.06790123456790124,40.74074074074075,0)" xlink:href="#af"/><use transform="matrix(0.06790123456790124,0,0,0.06790123456790124,46.104938271604944,0)" xlink:href="#ag"/></g><linearGradient gradientUnits="userSpaceOnUse" id="Q" x1="440" y1="720" x2="440" y2="620"><stop offset="19.93%" stop-color="#fff"/><stop offset="27.17%" stop-color="#cfe4ff"/><stop offset="68.12%" stop-color="#cfe4ff"/><stop offset="77.17%" stop-color="#c3f7c8"/></linearGradient><linearGradient gradientUnits="userSpaceOnUse" id="R" x1="440" y1="520" x2="440" y2="560"><stop offset="68.12%" stop-color="#fff"/><stop offset="89.49%" stop-color="#c3f7c8"/></linearGradient></defs></g></svg>