<svg xmlns="http://www.w3.org/2000/svg" xmlns:xlink="http://www.w3.org/1999/xlink" xmlns:lucid="lucid" width="1051.5" height="264"><g transform="translate(-279.99998333333383 -557.0000249999998)" lucid:page-tab-id="0_0"><path d="M380.75 740.33v17.5" stroke="#000" stroke-width="2" fill="none"/><path d="M381.73 740.36h-1.96v-1.03h1.96z" stroke="#000" stroke-width=".05"/><path d="M380.75 773.1l-4.63-14.27h9.26z" stroke="#000" stroke-width="2"/><path d="M400.33 720.33l.57 37.5" stroke="#000" stroke-width="2" fill="none"/><path d="M401.3 720.34l-1.94.03v-1.04h1.94z" stroke="#000" stroke-width=".05"/><path d="M401.13 773.1l-4.85-14.2 9.27-.14z" stroke="#000" stroke-width="2"/><path d="M419.25 701.83v56" stroke="#000" stroke-width="2" fill="none"/><path d="M420.23 701.86h-1.96v-1.03h1.96z" stroke="#000" stroke-width=".05"/><path d="M419.25 773.1l-4.63-14.27h9.26z" stroke="#000" stroke-width="2"/><path d="M320 580a20 20 0 0 1 20-20h158.5a20 20 0 0 1 20 20v99.33a20 20 0 0 1-20 20H340a20 20 0 0 1-20-20z" stroke="#000" stroke-width="3" fill="url(#a)"/><use xlink:href="#b" transform="matrix(1,0,0,1,325,565) translate(29.425925925925924 70.08333333333334)"/><path d="M600 666a6 6 0 0 1 6-6h42a6 6 0 0 0 6-6v-8a2.3 2.3 0 0 1 4-1.54l28 31.08a6.67 6.67 0 0 1 0 8.92l-28 31.08a2.3 2.3 0 0 1-4-1.54v-8a6 6 0 0 0-6-6h-42a6 6 0 0 1-6-6z" fill="#fc9432"/><path d="M1090 726a6 6 0 0 1 6-6h228a6 6 0 0 1 6 6v87.5a6 6 0 0 1-6 6h-228a6 6 0 0 1-6-6z" stroke="#000" stroke-opacity="0" stroke-width="3" fill="#fff" fill-opacity="0"/><use xlink:href="#c" transform="matrix(1,0,0,1,1095,725) translate(2.481481481481495 24.145833333333332)"/><use xlink:href="#d" transform="matrix(1,0,0,1,1095,725) translate(55.74074074074075 24.145833333333332)"/><use xlink:href="#e" transform="matrix(1,0,0,1,1095,725) translate(115 24.145833333333332)"/><use xlink:href="#f" transform="matrix(1,0,0,1,1095,725) translate(141.59259259259258 24.145833333333332)"/><use xlink:href="#g" transform="matrix(1,0,0,1,1095,725) translate(1.7407407407407618 56.14583333333333)"/><use xlink:href="#h" transform="matrix(1,0,0,1,1095,725) translate(38.77777777777779 56.14583333333333)"/><use xlink:href="#i" transform="matrix(1,0,0,1,1095,725) translate(68.40740740740742 56.14583333333333)"/><use xlink:href="#j" transform="matrix(1,0,0,1,1095,725) translate(112.85185185185186 56.14583333333333)"/><use xlink:href="#k" transform="matrix(1,0,0,1,1095,725) translate(60.1851851851852 88.14583333333333)"/><path d="M1002.7 798.2l2.87-.95m3.84-1.25l5.77-1.87m3.83-1.25l5.76-1.88m3.84-1.25l5.76-1.87m3.83-1.25l5.75-1.88m3.84-1.25l5.75-1.88m3.84-1.25l5.74-1.87m3.84-1.25l5.76-1.88m3.84-1.25l5.75-1.87m3.84-1.25l2.88-.94" stroke="#3a414a" stroke-width="2" fill="none"/><path d="M1003.02 799.1l-1.28.42v-2.04l.67-.23zM1090 770.77l-.67.23-.6-1.86 1.27-.4z" stroke="#3a414a" stroke-width=".05" fill="#3a414a"/><path d="M1100 566a6 6 0 0 1 6-6h208a6 6 0 0 1 6 6v126.83a6 6 0 0 1-6 6h-208a6 6 0 0 1-6-6z" stroke="#000" stroke-opacity="0" stroke-width="3" fill="#fff" fill-opacity="0"/><use xlink:href="#l" transform="matrix(1,0,0,1,1105,565) translate(8.148148148148167 25.364583333333332)"/><use xlink:href="#m" transform="matrix(1,0,0,1,1105,565) translate(61.40740740740742 25.364583333333332)"/><use xlink:href="#n" transform="matrix(1,0,0,1,1105,565) translate(125.03703703703704 25.364583333333332)"/><use xlink:href="#o" transform="matrix(1,0,0,1,1105,565) translate(182.66666666666663 25.364583333333332)"/><use xlink:href="#p" transform="matrix(1,0,0,1,1105,565) translate(5.925925925925952 57.36458333333333)"/><use xlink:href="#q" transform="matrix(1,0,0,1,1105,565) translate(28.148148148148174 57.36458333333333)"/><use xlink:href="#r" transform="matrix(1,0,0,1,1105,565) translate(42.222222222222236 89.36458333333333)"/><use xlink:href="#k" transform="matrix(1,0,0,1,1105,565) translate(50.1851851851852 121.36458333333333)"/><path d="M858.05 761.84l-.03-27.34M862.05 761.84l-.03-27.35M870.04 756.67L860.07 774l-10.03-17.3m10.03 17.3l-.02-8.5M850.02 739.67l9.98-17.34 10.02 17.3M860 722.34v8.5M878.24 761.84V714.5M882.24 761.84V714.5M890.24 756.68l-10 17.32-10-17.32m10 17.32v-8.5M870.24 719.65l10-17.32 10 17.32m-10-17.32v8.5M898.18 761.84l.05-67.35M902.18 761.84l.05-67.35" stroke="#000" stroke-width="2" fill="none"/><path d="M910.2 756.7L900.17 774l-10-17.33m10 17.33v-8.5M890.23 699.65l10-17.32 10 17.33m-10-17.33v8.5" stroke="#000" stroke-width="2" fill="none"/><path d="M800.24 656.83a20 20 0 0 1 20-20h160a20 20 0 0 1 20 20v2a20 20 0 0 1-20 20h-160a20 20 0 0 1-20-20z" stroke="#000" stroke-width="3" fill="#ced4db"/><use xlink:href="#s" transform="matrix(1,0,0,1,805.240954307178,641.8333583333333) translate(38.07907407407408 23.333333333333332)"/><use xlink:href="#t" transform="matrix(1,0,0,1,805.240954307178,641.8333583333333) translate(101.7087037037037 23.333333333333332)"/><path d="M780.24 676.83a20 20 0 0 1 20-20h160a20 20 0 0 1 20 20v2a20 20 0 0 1-20 20h-160a20 20 0 0 1-20-20z" stroke="#000" stroke-width="3" fill="#ced4db"/><use xlink:href="#s" transform="matrix(1,0,0,1,785.240954307178,661.8333583333333) translate(38.07907407407408 23.333333333333332)"/><use xlink:href="#t" transform="matrix(1,0,0,1,785.240954307178,661.8333583333333) translate(101.7087037037037 23.333333333333332)"/><path d="M800.24 578.5a20 20 0 0 1 20-20h160a20 20 0 0 1 20 20v39.33a20 20 0 0 1-20 20h-160a20 20 0 0 1-20-20z" stroke="#000" stroke-width="3" fill="url(#u)"/><use xlink:href="#b" transform="matrix(1,0,0,1,805.240954307178,563.5000249999998) translate(29.925925925925924 41.020833333333336)"/><path d="M760 696.83a20 20 0 0 1 20-20h160a20 20 0 0 1 20 20v2a20 20 0 0 1-20 20H780a20 20 0 0 1-20-20z" stroke="#000" stroke-width="3" fill="#ced4db"/><use xlink:href="#s" transform="matrix(1,0,0,1,765,681.8333583333334) translate(38.07907407407408 23.333333333333332)"/><use xlink:href="#t" transform="matrix(1,0,0,1,765,681.8333583333334) translate(101.7087037037037 23.333333333333332)"/><path d="M780 598.5a20 20 0 0 1 20-20h160a20 20 0 0 1 20 20v39.33a20 20 0 0 1-20 20H800a20 20 0 0 1-20-20z" stroke="#000" stroke-width="3" fill="url(#v)"/><use xlink:href="#b" transform="matrix(1,0,0,1,785,583.5000249999998) translate(29.925925925925924 41.020833333333336)"/><path d="M760 618.5a20 20 0 0 1 20-20h160a20 20 0 0 1 20 20v39.33a20 20 0 0 1-20 20H780a20 20 0 0 1-20-20z" stroke="#000" stroke-width="3" fill="url(#w)"/><use xlink:href="#b" transform="matrix(1,0,0,1,765,603.5000249999999) translate(29.925925925925924 41.020833333333336)"/><path d="M760.24 797.5a20 20 0 0 1 20-20h200a20 20 0 0 1 20 20v2a20 20 0 0 1-20 20h-200a20 20 0 0 1-20-20z" stroke="#000" stroke-width="3" fill="#ced4db"/><use xlink:href="#x" transform="matrix(1,0,0,1,765.240954307178,782.5000249999999) translate(45.44944444444446 23.333333333333332)"/><path d="M1015.9 655.83h19.84a8 8 0 0 1 8 8v8a8 8 0 0 1-8 8H995.9" stroke="#000" stroke-width="2" fill="none"/><path d="M1015.9 659.83h19.84a4 4 0 0 1 4 4v8a4 4 0 0 1-4 4H995.9" stroke="#000" stroke-width="2" fill="none"/><path d="M1021.06 667.83l-17.32-10 17.32-10m-17.32 10h8.5M1001.06 687.83l-17.32-10 17.32-10m-17.32 10h8.5" stroke="#000" stroke-width="2" fill="none"/><path d="M1015.9 655.6h19.84a8 8 0 0 1 8 8v28.23a8 8 0 0 1-8 8h-60.08" stroke="#000" stroke-width="2" fill="none"/><path d="M1015.9 659.6h19.84a4 4 0 0 1 4 4v28.23a4 4 0 0 1-4 4h-60.08" stroke="#000" stroke-width="2" fill="none"/><path d="M1021.06 667.6l-17.32-10 17.32-10m-17.32 10h8.5M980.82 707.83l-17.32-10 17.32-10m-17.32 10h8.5" stroke="#000" stroke-width="2" fill="none"/><path d="M995.9 675.6h19.84a8 8 0 0 1 8 8v8.23a8 8 0 0 1-8 8h-40.08" stroke="#000" stroke-width="2" fill="none"/><path d="M995.9 679.6h19.84a4 4 0 0 1 4 4v8.23a4 4 0 0 1-4 4h-40.08" stroke="#000" stroke-width="2" fill="none"/><path d="M1001.06 687.6l-17.32-10 17.32-10m-17.32 10h8.5M980.82 707.83l-17.32-10 17.32-10m-17.32 10h8.5" stroke="#000" stroke-width="2" fill="none"/><path d="M1002.7 657.56l2.9-.84m3.85-1.12l5.78-1.67m3.85-1.1l5.78-1.68m3.85-1.12l5.8-1.67m3.85-1.1l5.78-1.68m3.85-1.12l5.78-1.67m3.85-1.13l5.8-1.67m3.85-1.1l5.78-1.68m3.85-1.12l5.78-1.67m3.86-1.1l5.78-1.7m3.85-1.1l2.9-.84" stroke="#3a414a" stroke-width="2" fill="none"/><path d="M1003 658.5l-1.26.35v-2.03l.72-.2zM1100 630.43l-.7.2-.56-1.87 1.26-.36z" stroke="#3a414a" stroke-width=".05" fill="#3a414a"/><path d="M300 598.5a20 20 0 0 1 20-20h158.5a20 20 0 0 1 20 20v99.33a20 20 0 0 1-20 20H320a20 20 0 0 1-20-20z" stroke="#000" stroke-width="3" fill="url(#y)"/><g><use xlink:href="#b" transform="matrix(1,0,0,1,305,583.5000249999998) translate(29.425925925925924 70.08333333333334)"/></g><path d="M281.5 797.83a20 20 0 0 1 20-20h200a20 20 0 0 1 20 20 20 20 0 0 1-20 20h-200a20 20 0 0 1-20-20z" stroke="#000" stroke-width="3" fill="#ced4db"/><g><use xlink:href="#z" transform="matrix(1,0,0,1,286.49998333333383,782.8333583333334) translate(58.00500000000001 23.208333333333332)"/></g><path d="M281.5 618.5a20 20 0 0 1 20-20H460a20 20 0 0 1 20 20v99.33a20 20 0 0 1-20 20H301.5a20 20 0 0 1-20-20z" stroke="#000" stroke-width="3" fill="url(#A)"/><g><use xlink:href="#b" transform="matrix(1,0,0,1,286.49998333333383,603.5000249999999) translate(29.425925925925924 70.08333333333334)"/></g><defs><linearGradient gradientUnits="userSpaceOnUse" id="a" x1="320" y1="699.33" x2="320" y2="560"><stop offset="19.93%" stop-color="#fff"/><stop offset="27.17%" stop-color="#cfe4ff"/><stop offset="63.41%" stop-color="#cfe4ff"/><stop offset="79.71%" stop-color="#c3f7c8"/></linearGradient><path d="M205 0l-28-72H64L36 0H1l101-248h38L239 0h-34zm-38-99l-47-123c-12 45-31 82-46 123h93" id="B"/><path d="M115-194c55 1 70 41 70 98S169 2 115 4C84 4 66-9 55-30l1 105H24l-1-265h31l2 30c10-21 28-34 59-34zm-8 174c40 0 45-34 45-75s-6-73-45-74c-42 0-51 32-51 76 0 43 10 73 51 73" id="C"/><path d="M24 0v-261h32V0H24" id="D"/><path d="M24-231v-30h32v30H24zM24 0v-190h32V0H24" id="E"/><path d="M96-169c-40 0-48 33-48 73s9 75 48 75c24 0 41-14 43-38l32 2c-6 37-31 61-74 61-59 0-76-41-82-99-10-93 101-131 147-64 4 7 5 14 7 22l-32 3c-4-21-16-35-41-35" id="F"/><path d="M141-36C126-15 110 5 73 4 37 3 15-17 15-53c-1-64 63-63 125-63 3-35-9-54-41-54-24 1-41 7-42 31l-33-3c5-37 33-52 76-52 45 0 72 20 72 64v82c-1 20 7 32 28 27v20c-31 9-61-2-59-35zM48-53c0 20 12 33 32 33 41-3 63-29 60-74-43 2-92-5-92 41" id="G"/><path d="M59-47c-2 24 18 29 38 22v24C64 9 27 4 27-40v-127H5v-23h24l9-43h21v43h35v23H59v120" id="H"/><path d="M100-194c62-1 85 37 85 99 1 63-27 99-86 99S16-35 15-95c0-66 28-99 85-99zM99-20c44 1 53-31 53-75 0-43-8-75-51-75s-53 32-53 75 10 74 51 75" id="I"/><path d="M117-194c89-4 53 116 60 194h-32v-121c0-31-8-49-39-48C34-167 62-67 57 0H25l-1-190h30c1 10-1 24 2 32 11-22 29-35 61-36" id="J"/><g id="b"><use transform="matrix(0.07407407407407408,0,0,0.07407407407407408,0,0)" xlink:href="#B"/><use transform="matrix(0.07407407407407408,0,0,0.07407407407407408,17.77777777777778,0)" xlink:href="#C"/><use transform="matrix(0.07407407407407408,0,0,0.07407407407407408,32.592592592592595,0)" xlink:href="#C"/><use transform="matrix(0.07407407407407408,0,0,0.07407407407407408,47.40740740740741,0)" xlink:href="#D"/><use transform="matrix(0.07407407407407408,0,0,0.07407407407407408,53.25925925925927,0)" xlink:href="#E"/><use transform="matrix(0.07407407407407408,0,0,0.07407407407407408,59.11111111111112,0)" xlink:href="#F"/><use transform="matrix(0.07407407407407408,0,0,0.07407407407407408,72.44444444444446,0)" xlink:href="#G"/><use transform="matrix(0.07407407407407408,0,0,0.07407407407407408,87.25925925925927,0)" xlink:href="#H"/><use transform="matrix(0.07407407407407408,0,0,0.07407407407407408,94.66666666666669,0)" xlink:href="#E"/><use transform="matrix(0.07407407407407408,0,0,0.07407407407407408,100.51851851851852,0)" xlink:href="#I"/><use transform="matrix(0.07407407407407408,0,0,0.07407407407407408,115.33333333333334,0)" xlink:href="#J"/></g><path d="M127-220V0H93v-220H8v-28h204v28h-85" id="K"/><path d="M106-169C34-169 62-67 57 0H25v-261h32l-1 103c12-21 28-36 61-36 89 0 53 116 60 194h-32v-121c2-32-8-49-39-48" id="L"/><path d="M100-194c63 0 86 42 84 106H49c0 40 14 67 53 68 26 1 43-12 49-29l28 8c-11 28-37 45-77 45C44 4 14-33 15-96c1-61 26-98 85-98zm52 81c6-60-76-77-97-28-3 7-6 17-6 28h103" id="M"/><g id="c"><use transform="matrix(0.07407407407407407,0,0,0.07407407407407407,0,0)" xlink:href="#K"/><use transform="matrix(0.07407407407407407,0,0,0.07407407407407407,16.22222222222222,0)" xlink:href="#L"/><use transform="matrix(0.07407407407407407,0,0,0.07407407407407407,31.037037037037035,0)" xlink:href="#M"/></g><path d="M85-194c31 0 48 13 60 33l-1-100h32l1 261h-30c-2-10 0-23-3-31C134-8 116 4 85 4 32 4 16-35 15-94c0-66 23-100 70-100zm9 24c-40 0-46 34-46 75 0 40 6 74 45 74 42 0 51-32 51-76 0-42-9-74-50-73" id="N"/><g id="d"><use transform="matrix(0.07407407407407407,0,0,0.07407407407407407,0,0)" xlink:href="#N"/><use transform="matrix(0.07407407407407407,0,0,0.07407407407407407,14.814814814814813,0)" xlink:href="#G"/><use transform="matrix(0.07407407407407407,0,0,0.07407407407407407,29.629629629629626,0)" xlink:href="#H"/><use transform="matrix(0.07407407407407407,0,0,0.07407407407407407,37.03703703703703,0)" xlink:href="#G"/></g><path d="M135-143c-3-34-86-38-87 0 15 53 115 12 119 90S17 21 10-45l28-5c4 36 97 45 98 0-10-56-113-15-118-90-4-57 82-63 122-42 12 7 21 19 24 35" id="O"/><g id="e"><use transform="matrix(0.07407407407407407,0,0,0.07407407407407407,0,0)" xlink:href="#E"/><use transform="matrix(0.07407407407407407,0,0,0.07407407407407407,5.851851851851851,0)" xlink:href="#O"/></g><path d="M115-194c53 0 69 39 70 98 0 66-23 100-70 100C84 3 66-7 56-30L54 0H23l1-261h32v101c10-23 28-34 59-34zm-8 174c40 0 45-34 45-75 0-40-5-75-45-74-42 0-51 32-51 76 0 43 10 73 51 73" id="P"/><path d="M143 0L79-87 56-68V0H24v-261h32v163l83-92h37l-77 82L181 0h-38" id="Q"/><g id="f"><use transform="matrix(0.07407407407407407,0,0,0.07407407407407407,0,0)" xlink:href="#P"/><use transform="matrix(0.07407407407407407,0,0,0.07407407407407407,14.814814814814813,0)" xlink:href="#G"/><use transform="matrix(0.07407407407407407,0,0,0.07407407407407407,29.629629629629626,0)" xlink:href="#F"/><use transform="matrix(0.07407407407407407,0,0,0.07407407407407407,42.96296296296296,0)" xlink:href="#Q"/><use transform="matrix(0.07407407407407407,0,0,0.07407407407407407,56.29629629629629,0)" xlink:href="#M"/><use transform="matrix(0.07407407407407407,0,0,0.07407407407407407,71.1111111111111,0)" xlink:href="#N"/></g><path d="M84 4C-5 8 30-112 23-190h32v120c0 31 7 50 39 49 72-2 45-101 50-169h31l1 190h-30c-1-10 1-25-2-33-11 22-28 36-60 37" id="R"/><g id="g"><use transform="matrix(0.07407407407407407,0,0,0.07407407407407407,0,0)" xlink:href="#R"/><use transform="matrix(0.07407407407407407,0,0,0.07407407407407407,14.814814814814813,0)" xlink:href="#C"/></g><g id="h"><use transform="matrix(0.07407407407407407,0,0,0.07407407407407407,0,0)" xlink:href="#H"/><use transform="matrix(0.07407407407407407,0,0,0.07407407407407407,7.4074074074074066,0)" xlink:href="#I"/></g><g id="i"><use transform="matrix(0.07407407407407407,0,0,0.07407407407407407,0,0)" xlink:href="#H"/><use transform="matrix(0.07407407407407407,0,0,0.07407407407407407,7.4074074074074066,0)" xlink:href="#L"/><use transform="matrix(0.07407407407407407,0,0,0.07407407407407407,22.22222222222222,0)" xlink:href="#M"/></g><path d="M114-163C36-179 61-72 57 0H25l-1-190h30c1 12-1 29 2 39 6-27 23-49 58-41v29" id="S"/><g id="j"><use transform="matrix(0.07407407407407407,0,0,0.07407407407407407,0,0)" xlink:href="#C"/><use transform="matrix(0.07407407407407407,0,0,0.07407407407407407,14.814814814814813,0)" xlink:href="#M"/><use transform="matrix(0.07407407407407407,0,0,0.07407407407407407,29.629629629629626,0)" xlink:href="#S"/><use transform="matrix(0.07407407407407407,0,0,0.07407407407407407,38.44444444444444,0)" xlink:href="#O"/><use transform="matrix(0.07407407407407407,0,0,0.07407407407407407,51.77777777777777,0)" xlink:href="#E"/><use transform="matrix(0.07407407407407407,0,0,0.07407407407407407,57.62962962962962,0)" xlink:href="#O"/><use transform="matrix(0.07407407407407407,0,0,0.07407407407407407,70.96296296296295,0)" xlink:href="#H"/><use transform="matrix(0.07407407407407407,0,0,0.07407407407407407,78.37037037037035,0)" xlink:href="#M"/><use transform="matrix(0.07407407407407407,0,0,0.07407407407407407,93.18518518518516,0)" xlink:href="#J"/><use transform="matrix(0.07407407407407407,0,0,0.07407407407407407,107.99999999999997,0)" xlink:href="#H"/></g><g id="k"><use transform="matrix(0.07407407407407407,0,0,0.07407407407407407,0,0)" xlink:href="#N"/><use transform="matrix(0.07407407407407407,0,0,0.07407407407407407,14.814814814814813,0)" xlink:href="#G"/><use transform="matrix(0.07407407407407407,0,0,0.07407407407407407,29.629629629629626,0)" xlink:href="#H"/><use transform="matrix(0.07407407407407407,0,0,0.07407407407407407,37.03703703703703,0)" xlink:href="#G"/><use transform="matrix(0.07407407407407407,0,0,0.07407407407407407,51.85185185185185,0)" xlink:href="#P"/><use transform="matrix(0.07407407407407407,0,0,0.07407407407407407,66.66666666666666,0)" xlink:href="#G"/><use transform="matrix(0.07407407407407407,0,0,0.07407407407407407,81.48148148148147,0)" xlink:href="#O"/><use transform="matrix(0.07407407407407407,0,0,0.07407407407407407,94.8148148148148,0)" xlink:href="#M"/></g><g id="l"><use transform="matrix(0.07407407407407407,0,0,0.07407407407407407,0,0)" xlink:href="#K"/><use transform="matrix(0.07407407407407407,0,0,0.07407407407407407,16.22222222222222,0)" xlink:href="#L"/><use transform="matrix(0.07407407407407407,0,0,0.07407407407407407,31.037037037037035,0)" xlink:href="#M"/></g><path d="M248-139C247-14 144 9 11 0l48-248c105-6 190 8 189 109zm-34 0c1-70-52-87-126-82L50-27c98 7 163-21 164-112" id="T"/><path d="M165-48c-4 18 1 34 23 27l-3 20c-29 8-62 0-52-35h-2C116-14 99 4 63 4 30 4 8-16 8-49c0-68 71-67 138-67 10-26 0-56-31-54-26 1-42 9-47 31l-32-5c8-67 160-71 144 15-5 28-9 54-15 81zM42-50c3 52 80 24 89-6 7-12 7-24 11-38-47 1-103-4-100 44" id="U"/><path d="M51-54c-9 22 5 41 31 30L79-1C43 14 10-4 19-52l22-115H19l5-23h22l19-43h21l-9 43h35l-4 23H73" id="V"/><g id="m"><use transform="matrix(0.07407407407407407,0,0,0.07407407407407407,0,0)" xlink:href="#T"/><use transform="matrix(0.07407407407407407,0,0,0.07407407407407407,19.185185185185183,0)" xlink:href="#U"/><use transform="matrix(0.07407407407407407,0,0,0.07407407407407407,34,0)" xlink:href="#V"/><use transform="matrix(0.07407407407407407,0,0,0.07407407407407407,41.407407407407405,0)" xlink:href="#U"/></g><path d="M52-101C46-14 166-7 216-51l9-45h-74l6-28h105l-18 87C217-12 181 4 130 4 60 4 18-31 18-101c0-106 78-167 188-146 30 6 48 27 59 54l-34 9c-10-26-31-41-67-40-75 1-107 50-112 123" id="W"/><path d="M66-151c12-25 30-51 66-40l-6 26C45-176 58-65 38 0H6l36-190h30" id="X"/><path d="M50-231l6-30h32l-6 30H50zM6 0l37-190h31L37 0H6" id="Y"/><path d="M133-28C103 26-5 8 13-77c13-62 24-115 90-117 29-1 46 15 56 35l19-102h32L160 0h-30zM45-64c-2 27 10 43 35 43 54-1 69-50 69-103 0-29-15-46-42-46-53-1-58 58-62 106" id="Z"/><g id="n"><use transform="matrix(0.07407407407407407,0,0,0.07407407407407407,0,0)" xlink:href="#W"/><use transform="matrix(0.07407407407407407,0,0,0.07407407407407407,20.74074074074074,0)" xlink:href="#X"/><use transform="matrix(0.07407407407407407,0,0,0.07407407407407407,29.555555555555557,0)" xlink:href="#Y"/><use transform="matrix(0.07407407407407407,0,0,0.07407407407407407,35.407407407407405,0)" xlink:href="#Z"/></g><g id="o"><use transform="matrix(0.07407407407407407,0,0,0.07407407407407407,0,0)" xlink:href="#E"/><use transform="matrix(0.07407407407407407,0,0,0.07407407407407407,5.851851851851851,0)" xlink:href="#O"/></g><use transform="matrix(0.07407407407407407,0,0,0.07407407407407407,0,0)" xlink:href="#G" id="p"/><path d="M177-190C167-65 218 103 67 71c-23-6-38-20-44-43l32-5c15 47 100 32 89-28v-30C133-14 115 1 83 1 29 1 15-40 15-95c0-56 16-97 71-98 29-1 48 16 59 35 1-10 0-23 2-32h30zM94-22c36 0 50-32 50-73 0-42-14-75-50-75-39 0-46 34-46 75s6 73 46 73" id="aa"/><path d="M179-190L93 31C79 59 56 82 12 73V49c39 6 53-20 64-50L1-190h34L92-34l54-156h33" id="ab"/><path d="M16-82v-28h88v28H16" id="ac"/><g id="q"><use transform="matrix(0.07407407407407407,0,0,0.07407407407407407,0,0)" xlink:href="#L"/><use transform="matrix(0.07407407407407407,0,0,0.07407407407407407,14.814814814814813,0)" xlink:href="#E"/><use transform="matrix(0.07407407407407407,0,0,0.07407407407407407,20.666666666666664,0)" xlink:href="#aa"/><use transform="matrix(0.07407407407407407,0,0,0.07407407407407407,35.48148148148148,0)" xlink:href="#L"/><use transform="matrix(0.07407407407407407,0,0,0.07407407407407407,50.29629629629629,0)" xlink:href="#D"/><use transform="matrix(0.07407407407407407,0,0,0.07407407407407407,56.14814814814814,0)" xlink:href="#ab"/><use transform="matrix(0.07407407407407407,0,0,0.07407407407407407,69.48148148148147,0)" xlink:href="#ac"/><use transform="matrix(0.07407407407407407,0,0,0.07407407407407407,78.29629629629628,0)" xlink:href="#O"/><use transform="matrix(0.07407407407407407,0,0,0.07407407407407407,91.6296296296296,0)" xlink:href="#F"/><use transform="matrix(0.07407407407407407,0,0,0.07407407407407407,104.96296296296293,0)" xlink:href="#G"/><use transform="matrix(0.07407407407407407,0,0,0.07407407407407407,119.77777777777774,0)" xlink:href="#D"/><use transform="matrix(0.07407407407407407,0,0,0.07407407407407407,125.62962962962959,0)" xlink:href="#G"/><use transform="matrix(0.07407407407407407,0,0,0.07407407407407407,140.4444444444444,0)" xlink:href="#P"/><use transform="matrix(0.07407407407407407,0,0,0.07407407407407407,155.2592592592592,0)" xlink:href="#D"/><use transform="matrix(0.07407407407407407,0,0,0.07407407407407407,161.11111111111106,0)" xlink:href="#M"/></g><path d="M210-169c-67 3-38 105-44 169h-31v-121c0-29-5-50-35-48C34-165 62-65 56 0H25l-1-190h30c1 10-1 24 2 32 10-44 99-50 107 0 11-21 27-35 58-36 85-2 47 119 55 194h-31v-121c0-29-5-49-35-48" id="ad"/><g id="r"><use transform="matrix(0.07407407407407407,0,0,0.07407407407407407,0,0)" xlink:href="#E"/><use transform="matrix(0.07407407407407407,0,0,0.07407407407407407,5.851851851851851,0)" xlink:href="#J"/><use transform="matrix(0.07407407407407407,0,0,0.07407407407407407,20.666666666666664,0)" xlink:href="#ac"/><use transform="matrix(0.07407407407407407,0,0,0.07407407407407407,29.48148148148148,0)" xlink:href="#ad"/><use transform="matrix(0.07407407407407407,0,0,0.07407407407407407,51.629629629629626,0)" xlink:href="#M"/><use transform="matrix(0.07407407407407407,0,0,0.07407407407407407,66.44444444444444,0)" xlink:href="#ad"/><use transform="matrix(0.07407407407407407,0,0,0.07407407407407407,88.59259259259258,0)" xlink:href="#I"/><use transform="matrix(0.07407407407407407,0,0,0.07407407407407407,103.40740740740739,0)" xlink:href="#S"/><use transform="matrix(0.07407407407407407,0,0,0.07407407407407407,112.2222222222222,0)" xlink:href="#ab"/></g><path d="M30-248c118-7 216 8 213 122C240-48 200 0 122 0H30v-248zM63-27c89 8 146-16 146-99s-60-101-146-95v194" id="ae"/><g id="s"><use transform="matrix(0.07407407407407407,0,0,0.07407407407407407,0,0)" xlink:href="#ae"/><use transform="matrix(0.07407407407407407,0,0,0.07407407407407407,19.185185185185183,0)" xlink:href="#G"/><use transform="matrix(0.07407407407407407,0,0,0.07407407407407407,34,0)" xlink:href="#H"/><use transform="matrix(0.07407407407407407,0,0,0.07407407407407407,41.407407407407405,0)" xlink:href="#G"/></g><path d="M143 4C61 4 22-44 18-125c-5-107 100-154 193-111 17 8 29 25 37 43l-32 9c-13-25-37-40-76-40-61 0-88 39-88 99 0 61 29 100 91 101 35 0 62-11 79-27v-45h-74v-28h105v86C228-13 192 4 143 4" id="af"/><g id="t"><use transform="matrix(0.07407407407407407,0,0,0.07407407407407407,0,0)" xlink:href="#af"/><use transform="matrix(0.07407407407407407,0,0,0.07407407407407407,20.74074074074074,0)" xlink:href="#S"/><use transform="matrix(0.07407407407407407,0,0,0.07407407407407407,29.555555555555557,0)" xlink:href="#E"/><use transform="matrix(0.07407407407407407,0,0,0.07407407407407407,35.407407407407405,0)" xlink:href="#N"/></g><linearGradient gradientUnits="userSpaceOnUse" id="u" x1="800.24" y1="637.83" x2="800.24" y2="558.5"><stop offset="19.93%" stop-color="#fff"/><stop offset="27.17%" stop-color="#cfe4ff"/><stop offset="63.41%" stop-color="#cfe4ff"/><stop offset="79.71%" stop-color="#c3f7c8"/></linearGradient><linearGradient gradientUnits="userSpaceOnUse" id="v" x1="780" y1="657.83" x2="780" y2="578.5"><stop offset="19.93%" stop-color="#fff"/><stop offset="27.17%" stop-color="#cfe4ff"/><stop offset="63.41%" stop-color="#cfe4ff"/><stop offset="79.71%" stop-color="#c3f7c8"/></linearGradient><linearGradient gradientUnits="userSpaceOnUse" id="w" x1="760" y1="677.83" x2="760" y2="598.5"><stop offset="19.93%" stop-color="#fff"/><stop offset="27.17%" stop-color="#cfe4ff"/><stop offset="63.41%" stop-color="#cfe4ff"/><stop offset="79.71%" stop-color="#c3f7c8"/></linearGradient><path d="M30-248c87 1 191-15 191 75 0 78-77 80-158 76V0H30v-248zm33 125c57 0 124 11 124-50 0-59-68-47-124-48v98" id="ag"/><g id="x"><use transform="matrix(0.07407407407407407,0,0,0.07407407407407407,0,0)" xlink:href="#ag"/><use transform="matrix(0.07407407407407407,0,0,0.07407407407407407,17.77777777777778,0)" xlink:href="#M"/><use transform="matrix(0.07407407407407407,0,0,0.07407407407407407,32.592592592592595,0)" xlink:href="#S"/><use transform="matrix(0.07407407407407407,0,0,0.07407407407407407,41.40740740740741,0)" xlink:href="#O"/><use transform="matrix(0.07407407407407407,0,0,0.07407407407407407,54.74074074074075,0)" xlink:href="#E"/><use transform="matrix(0.07407407407407407,0,0,0.07407407407407407,60.592592592592595,0)" xlink:href="#O"/><use transform="matrix(0.07407407407407407,0,0,0.07407407407407407,73.92592592592592,0)" xlink:href="#H"/><use transform="matrix(0.07407407407407407,0,0,0.07407407407407407,81.33333333333333,0)" xlink:href="#M"/><use transform="matrix(0.07407407407407407,0,0,0.07407407407407407,96.14814814814814,0)" xlink:href="#J"/><use transform="matrix(0.07407407407407407,0,0,0.07407407407407407,110.96296296296293,0)" xlink:href="#F"/><use transform="matrix(0.07407407407407407,0,0,0.07407407407407407,124.29629629629628,0)" xlink:href="#M"/></g><linearGradient gradientUnits="userSpaceOnUse" id="y" x1="300" y1="717.83" x2="300" y2="578.5"><stop offset="19.93%" stop-color="#fff"/><stop offset="27.17%" stop-color="#cfe4ff"/><stop offset="63.41%" stop-color="#cfe4ff"/><stop offset="79.71%" stop-color="#c3f7c8"/></linearGradient><g id="z"><use transform="matrix(0.07407407407407407,0,0,0.07407407407407407,0,0)" xlink:href="#ae"/><use transform="matrix(0.07407407407407407,0,0,0.07407407407407407,19.185185185185183,0)" xlink:href="#G"/><use transform="matrix(0.07407407407407407,0,0,0.07407407407407407,34,0)" xlink:href="#H"/><use transform="matrix(0.07407407407407407,0,0,0.07407407407407407,41.407407407407405,0)" xlink:href="#G"/><use transform="matrix(0.07407407407407407,0,0,0.07407407407407407,56.22222222222221,0)" xlink:href="#P"/><use transform="matrix(0.07407407407407407,0,0,0.07407407407407407,71.03703703703702,0)" xlink:href="#G"/><use transform="matrix(0.07407407407407407,0,0,0.07407407407407407,85.85185185185183,0)" xlink:href="#O"/><use transform="matrix(0.07407407407407407,0,0,0.07407407407407407,99.18518518518516,0)" xlink:href="#M"/></g><linearGradient gradientUnits="userSpaceOnUse" id="A" x1="281.5" y1="737.83" x2="281.5" y2="598.5"><stop offset="19.93%" stop-color="#fff"/><stop offset="27.17%" stop-color="#cfe4ff"/><stop offset="63.41%" stop-color="#cfe4ff"/><stop offset="79.71%" stop-color="#c3f7c8"/></linearGradient></defs></g></svg>