<svg xmlns="http://www.w3.org/2000/svg" xmlns:xlink="http://www.w3.org/1999/xlink" xmlns:lucid="lucid" width="823" height="425.5"><g transform="translate(-98.5 -615.9999500000047)" lucid:page-tab-id="0_0"><path d="M520 641a20 20 0 0 1 20-20h20a20 20 0 0 1 20 20v80a20 20 0 0 1-20 20h-20a20 20 0 0 1-20-20z" stroke="#008a0e" stroke-width="3" fill="url(#a)"/><use xlink:href="#b" transform="matrix(-1.8369701987210297e-16,-1,1,-1.8369701987210297e-16,525,736.0000999999908) translate(2.7839506172839563 28.930555555555557)"/><use xlink:href="#c" transform="matrix(-1.8369701987210297e-16,-1,1,-1.8369701987210297e-16,525,736.0000999999908) translate(90.91975308641975 28.930555555555557)"/><path d="M640 640a20 20 0 0 1 20-20h20a20 20 0 0 1 20 20v80a20 20 0 0 1-20 20h-20a20 20 0 0 1-20-20z" stroke="#82755b" stroke-width="3" fill="url(#d)"/><use xlink:href="#b" transform="matrix(-1.8369701987210297e-16,-1,1,-1.8369701987210297e-16,645.0000500000001,735.0000000000001) translate(2.7839506172839563 28.930555555555557)"/><use xlink:href="#e" transform="matrix(-1.8369701987210297e-16,-1,1,-1.8369701987210297e-16,645.0000500000001,735.0000000000001) translate(90.91975308641975 28.930555555555557)"/><path d="M760 640.5a20 20 0 0 1 20-20h20a20 20 0 0 1 20 20v80a20 20 0 0 1-20 20h-20a20 20 0 0 1-20-20z" stroke="#1071e5" stroke-width="3" fill="url(#f)"/><use xlink:href="#b" transform="matrix(-1.8369701987210297e-16,-1,1,-1.8369701987210297e-16,765.0001000000002,735.5000499999954) translate(2.138888888888893 28.930555555555557)"/><use xlink:href="#g" transform="matrix(-1.8369701987210297e-16,-1,1,-1.8369701987210297e-16,765.0001000000002,735.5000499999954) translate(90.27469135802468 28.930555555555557)"/><path d="M462.5 680.25l37.5.17" stroke="#008a0e" stroke-width="2" fill="none"/><path d="M462.53 679.28v1.95h-1.03v-1.96z" stroke="#008a0e" stroke-width=".05" fill="#008a0e"/><path d="M515.26 680.5l-14.28 4.56.04-9.27z" stroke="#008a0e" stroke-width="2" fill="#fff"/><path d="M582.5 680.98l37.5-.65" stroke="#82755b" stroke-width="2" fill="none"/><path d="M582.54 681.96h-1.04v-1.94h1z" stroke="#82755b" stroke-width=".05" fill="#82755b"/><path d="M635.26 680.06l-14.18 4.88-.16-9.27z" stroke="#82755b" stroke-width="2" fill="#fff"/><path d="M702.5 679.5l37.5.34" stroke="#1071e5" stroke-width="2" fill="none"/><path d="M702.53 678.53v1.95h-1.03v-1.96z" stroke="#1071e5" stroke-width=".05" fill="#1071e5"/><path d="M755.26 679.97l-14.3 4.5.08-9.26z" stroke="#1071e5" stroke-width="2" fill="#fff"/><path d="M100 666a6 6 0 0 1 6-6h228a6 6 0 0 1 6 6v225.5a6 6 0 0 1-6 6H106a6 6 0 0 1-6-6z" stroke="#000" stroke-opacity="0" stroke-width="3" fill="#fff" fill-opacity="0"/><use xlink:href="#h" transform="matrix(1,0,0,1,105,665) translate(21.432098765432187 48.05555555555554)"/><use xlink:href="#i" transform="matrix(1,0,0,1,105,665) translate(32.975308641975374 77.38888888888886)"/><use xlink:href="#j" transform="matrix(1,0,0,1,105,665) translate(7.138888888888971 106.72222222222217)"/><use xlink:href="#k" transform="matrix(1,0,0,1,105,665) translate(85.83641975308645 106.72222222222217)"/><use xlink:href="#l" transform="matrix(1,0,0,1,105,665) translate(145.5895061728395 106.72222222222217)"/><use xlink:href="#m" transform="matrix(1,0,0,1,105,665) translate(36.91358024691364 136.0555555555555)"/><use xlink:href="#n" transform="matrix(1,0,0,1,105,665) translate(125.18518518518518 136.0555555555555)"/><use xlink:href="#o" transform="matrix(1,0,0,1,105,665) translate(159.13580246913577 136.0555555555555)"/><use xlink:href="#p" transform="matrix(1,0,0,1,105,665) translate(16.71296296296302 165.3888888888888)"/><use xlink:href="#q" transform="matrix(1,0,0,1,105,665) translate(129.1574074074074 165.3888888888888)"/><use xlink:href="#r" transform="matrix(1,0,0,1,105,665) translate(148.10185185185182 165.3888888888888)"/><use xlink:href="#s" transform="matrix(1,0,0,1,105,665) translate(41.73456790123461 194.72222222222211)"/><use xlink:href="#t" transform="matrix(1,0,0,1,105,665) translate(167.89506172839504 194.72222222222211)"/><path d="M661.67 945.67a6 6 0 0 1 6-6h188a6 6 0 0 1 6 6V1033a6 6 0 0 1-6 6h-188a6 6 0 0 1-6-6z" stroke="#000" stroke-opacity="0" stroke-width="3" fill="#fff" fill-opacity="0"/><use xlink:href="#u" transform="matrix(1,0,0,1,666.666791666667,944.6666666666665) translate(21.768518518518576 22.368055555555543)"/><use xlink:href="#j" transform="matrix(1,0,0,1,666.666791666667,944.6666666666665) translate(77.37962962962965 22.368055555555543)"/><use xlink:href="#v" transform="matrix(1,0,0,1,666.666791666667,944.6666666666665) translate(156.07716049382714 22.368055555555543)"/><use xlink:href="#w" transform="matrix(1,0,0,1,666.666791666667,944.6666666666665) translate(6.0833333333334 51.70138888888886)"/><use xlink:href="#x" transform="matrix(1,0,0,1,666.666791666667,944.6666666666665) translate(64.47839506172843 51.70138888888886)"/><use xlink:href="#y" transform="matrix(1,0,0,1,666.666791666667,944.6666666666665) translate(91.6388888888889 51.70138888888886)"/><use xlink:href="#z" transform="matrix(1,0,0,1,666.666791666667,944.6666666666665) translate(139.16975308641972 51.70138888888886)"/><use xlink:href="#A" transform="matrix(1,0,0,1,666.666791666667,944.6666666666665) translate(22.413580246913625 81.03472222222217)"/><use xlink:href="#B" transform="matrix(1,0,0,1,666.666791666667,944.6666666666665) translate(82.09876543209877 81.03472222222217)"/><path d="M520 624v113M520 624.1v-3.6M520 736.9v3.6" stroke="#008a0e" stroke-width="7" fill="none"/><path d="M640 623v113M640 623.1v-3.6M640 735.9v3.6" stroke="#82755b" stroke-width="7" fill="none"/><path d="M760 623.5v113M760 623.6V620M760 736.4v3.6" stroke="#1071e5" stroke-width="7" fill="none"/><path d="M582.14 1007.02l2.95-.65m3.92-.88l5.9-1.32m3.9-.87l5.9-1.3m3.93-.87l5.9-1.3m3.92-.9l5.9-1.3m3.92-.87l5.88-1.3m3.93-.9l5.9-1.3m3.93-.87l5.9-1.32m3.9-.87l2.96-.65" stroke="#3a414a" stroke-width="2" fill="none"/><path d="M582.38 1007.97l-1.2.27v-2l.78-.17zM661.67 990.33l-.8.18-.42-1.9 1.22-.26z" stroke="#3a414a" stroke-width=".05" fill="#3a414a"/><path d="M420 640.5a20 20 0 0 1 20-20 20 20 0 0 1 20 20V720a20 20 0 0 1-20 20 20 20 0 0 1-20-20z" stroke="#000" stroke-width="3" fill="#fff"/><use xlink:href="#C" transform="matrix(-1.8369701987210297e-16,-1,1,-1.8369701987210297e-16,424.99999999999994,735) translate(27.34450617283951 21.430555555555557)"/><path d="M880 640.5a20 20 0 0 1 20-20 20 20 0 0 1 20 20V720a20 20 0 0 1-20 20 20 20 0 0 1-20-20z" stroke="#000" stroke-width="3" fill="#fff"/><use xlink:href="#D" transform="matrix(-1.8369701987210297e-16,-1,1,-1.8369701987210297e-16,885,735) translate(17.838333333333324 21.430555555555557)"/><path d="M880 623.5v113M880 623.6V620M880 736.4v3.6" stroke="#000" stroke-width="7" fill="none"/><path d="M822.5 680.5l37.5.34" stroke="#000" stroke-width="2" fill="none"/><path d="M822.53 679.53v1.95h-1.03v-1.96z" stroke="#000" stroke-width=".05"/><path d="M875.26 680.97l-14.3 4.5.08-9.26z" stroke="#000" stroke-width="2" fill="#fff"/><path d="M340.9 819.08l2.7-1.26m3.6-1.7l5.4-2.5m3.6-1.7l5.38-2.5m3.6-1.7l5.4-2.5m3.6-1.7l5.38-2.5m3.6-1.7l5.4-2.5m3.6-1.7l5.4-2.5m3.58-1.7l5.4-2.5m3.6-1.7l5.4-2.52m3.58-1.68l5.4-2.52m3.6-1.68l5.4-2.52m3.6-1.68l5.38-2.52m3.6-1.68l5.4-2.52m3.6-1.68l5.38-2.52m3.6-1.7l5.4-2.5m3.6-1.7l5.38-2.5m3.6-1.7l5.4-2.5m3.6-1.7l5.38-2.5m3.6-1.7l5.4-2.5m3.6-1.7l5.38-2.5m3.6-1.7l5.4-2.52m3.6-1.68l5.38-2.52m3.6-1.68l5.4-2.52m3.6-1.68l5.4-2.52m3.58-1.68l5.4-2.52m3.6-1.68l5.4-2.52m3.58-1.68l5.4-2.53m3.6-1.68l5.4-2.53m3.58-1.68l5.4-2.53m3.6-1.68l5.4-2.53m3.58-1.68l5.4-2.53m3.6-1.68l5.4-2.53m3.6-1.7l5.38-2.5m3.6-1.7l2.7-1.25" stroke="#3a414a" stroke-width="2" fill="none"/><path d="M341.34 819.95l-1.34.63v-2.16l.52-.24zM638.5 681.08l-.52.24-.82-1.77 1.34-.63z" stroke="#3a414a" stroke-width=".05" fill="#3a414a"/><path d="M340.95 819.18l2.84-.94m3.78-1.26l5.68-1.88m3.8-1.26l5.67-1.9m3.78-1.25l5.7-1.9m3.78-1.25l5.68-1.9m3.8-1.25l5.67-1.88m3.8-1.26l5.67-1.9m3.8-1.25l5.67-1.87m3.78-1.26l5.7-1.9m3.77-1.25l5.68-1.88m3.8-1.26l5.67-1.9m3.8-1.24l5.67-1.9m3.8-1.25l5.67-1.9m3.8-1.25l5.68-1.9m3.78-1.25l5.7-1.88m3.77-1.26l5.68-1.9m3.8-1.25l5.68-1.88m3.8-1.25l5.67-1.9m3.8-1.25l5.67-1.88m3.78-1.26l5.7-1.9m3.77-1.25l5.68-1.88m3.8-1.26l5.67-1.9m3.8-1.26l5.67-1.88m3.78-1.26l5.68-1.9m3.8-1.25l5.67-1.88m3.78-1.26l5.7-1.88m3.78-1.26l5.68-1.88m3.8-1.26l5.67-1.9m3.8-1.25l5.67-1.88m3.8-1.27l5.67-1.9m3.78-1.25l5.7-1.88m3.77-1.26l5.68-1.9m3.8-1.24l5.67-1.9m3.8-1.25l5.67-1.9m3.8-1.24l5.67-1.88m3.8-1.26l5.68-1.88m3.8-1.26l5.67-1.9m3.78-1.25l5.68-1.88m3.8-1.27l5.68-1.9m3.8-1.25l5.67-1.88m3.8-1.26l5.67-1.9m3.8-1.25l5.67-1.9m3.77-1.25l5.7-1.9m3.77-1.25l5.68-1.88m3.8-1.26l2.83-.94" stroke="#3a414a" stroke-width="2" fill="none"/><path d="M341.28 820.1l-1.28.43v-2.06l.67-.22zM758.5 681.53l-.67.22-.6-1.85 1.27-.43z" stroke="#3a414a" stroke-width=".05" fill="#3a414a"/><path d="M519.67 959.24a20 20 0 0 1 20-20h20a20 20 0 0 1 20 20v60a20 20 0 0 1-20 20h-20a20 20 0 0 1-20-20z" stroke="#54c45e" stroke-width="3" fill="url(#E)"/><use xlink:href="#F" transform="matrix(-1.8369701987210297e-16,-1,1,-1.8369701987210297e-16,524.6667166666668,1034.2405582835017) translate(9.580246913580254 28.930555555555557)"/><use xlink:href="#c" transform="matrix(-1.8369701987210297e-16,-1,1,-1.8369701987210297e-16,524.6667166666668,1034.2405582835017) translate(65.12345679012346 28.930555555555557)"/><path d="M463.17 987.57h34.2M463.17 991.57h34.2" stroke="#fc9432" stroke-width="2" fill="none"/><path d="M463.2 988.55h-1.03v-1.95h1.02zM463.2 992.55h-1.03v-1.95h1.02z" stroke="#fc9432" stroke-width=".05" fill="#fc9432"/><path d="M492.2 979.57l17.33 10-17.32 10m17.33-10h-8.5" stroke="#fc9432" stroke-width="2" fill="none"/><path d="M420 960a20 20 0 0 1 20-20h.67a20 20 0 0 1 20 20v60a20 20 0 0 1-20 20H440a20 20 0 0 1-20-20z" stroke="#000" stroke-width="3" fill="#fff"/><use xlink:href="#F" transform="matrix(-1.8369701987210297e-16,-1,1,-1.8369701987210297e-16,425,1035.0000000000002) translate(7.048209876543213 21.493055555555557)"/><use xlink:href="#G" transform="matrix(-1.8369701987210297e-16,-1,1,-1.8369701987210297e-16,425,1035.0000000000002) translate(62.59141975308641 21.493055555555557)"/><path d="M518 839a20 20 0 0 1 20-20h20a20 20 0 0 1 20 20v40a20 20 0 0 1-20 20h-20a20 20 0 0 1-20-20z" stroke="#008a0e" stroke-width="3" fill="url(#H)"/><use xlink:href="#I" transform="matrix(-1.8369701987210297e-16,-1,1,-1.8369701987210297e-16,523.0000499999999,894.0000000000001) translate(26.851851851851855 28.930555555555557)"/><path d="M639.33 839a20 20 0 0 1 20-20h20a20 20 0 0 1 20 20v40a20 20 0 0 1-20 20h-20a20 20 0 0 1-20-20z" stroke="#82755b" stroke-width="3" fill="url(#J)"/><use xlink:href="#K" transform="matrix(-1.8369701987210297e-16,-1,1,-1.8369701987210297e-16,644.3334333333336,894.0000000000002) translate(26.851851851851855 28.930555555555557)"/><path d="M759 839a20 20 0 0 1 20-20h20a20 20 0 0 1 20 20v42a20 20 0 0 1-20 20h-20a20 20 0 0 1-20-20z" stroke="#1071e5" stroke-width="3" fill="url(#L)"/><use xlink:href="#M" transform="matrix(-1.8369701987210297e-16,-1,1,-1.8369701987210297e-16,764.0001500000003,896.0000000000002) translate(27.70679012345679 28.930555555555557)"/><path d="M473.13 856.67h19.24M473.13 860.67h19.24" stroke="#000" stroke-width="2" fill="none"/><path d="M473.16 857.64h-1.07l-.27-1.95h1.33zM473.16 861.64h-1.5l.3-1.95h1.2z" stroke="#000" stroke-width=".05"/><path d="M487.2 848.67l17.33 10-17.32 10m17.33-10h-8.5M587.75 859h30.58M587.75 863h30.58" stroke="#000" stroke-width="2" fill="none"/><path d="M587.77 859.98h-.97l-.26-1.96h1.23zM587.77 863.98h-1.5l.3-1.96h1.2z" stroke="#000" stroke-width=".05"/><path d="M613.17 851l17.32 10-17.33 10m17.32-10H622M701.83 857.66h34.25M701.83 861.66h34.25" stroke="#000" stroke-width="2" fill="none"/><path d="M701.86 858.63h-1.03v-1.95h1.03zM701.86 862.63h-1.03v-1.95h1.03z" stroke="#000" stroke-width=".05"/><path d="M730.92 849.66l17.32 10-17.32 10m17.32-10h-8.5" stroke="#000" stroke-width="2" fill="none"/><path d="M420 840a20 20 0 0 1 20-20 20 20 0 0 1 20 20v40a20 20 0 0 1-20 20 20 20 0 0 1-20-20z" stroke="#000" stroke-width="3" fill="#fff"/><g><use xlink:href="#N" transform="matrix(-1.8369701987210297e-16,-1,1,-1.8369701987210297e-16,424.99999999999994,895) translate(24.819814814814812 21.430555555555557)"/></g><path d="M880 840a20 20 0 0 1 20-20 20 20 0 0 1 20 20v40a20 20 0 0 1-20 20 20 20 0 0 1-20-20z" stroke="#000" stroke-width="3" fill="#fff"/><g><use xlink:href="#O" transform="matrix(-1.8369701987210297e-16,-1,1,-1.8369701987210297e-16,885,895.0000000000001) translate(15.31364197530864 21.430555555555557)"/></g><path d="M821.54 857.52l32.94.7M821.46 861.52l32.94.7" stroke="#000" stroke-width="2" fill="none"/><path d="M821.6 856.55l-.05 1.95-1.05-.02v-1.96zM821.5 860.55l-.04 1.95-.96-.02v-1.96z" stroke="#000" stroke-width=".05"/><path d="M849.5 850.1l17.1 10.36-17.53 9.64m17.53-9.64l-8.5-.18" stroke="#000" stroke-width="2" fill="none"/><path d="M579.8 981.23l48.2-100.3M583.4 982.97l48.22-100.3" stroke="#fc9432" stroke-width="2" fill="none"/><path stroke="#fc9432" stroke-width=".05" fill="#fc9432"/><path d="M584.3 983.37l-1.75 3.62-1.38-.67v-.96l1.37-2.85z" stroke="#fc9432" stroke-width=".05" fill="#fc9432"/><path d="M618.57 882.13l16.5-11.28 1.52 19.94m-1.5-19.95l-3.7 7.66" stroke="#fc9432" stroke-width="2" fill="none"/><path d="M470.67 858.33c0 5.53-4.48 10-10 10-5.53 0-10-4.47-10-10 0-5.52 4.47-10 10-10 5.52 0 10 4.48 10 10zM528 858.33c0 5.53-4.48 10-10 10s-10-4.47-10-10c0-5.52 4.48-10 10-10s10 4.48 10 10z" stroke="#fcce14" stroke-width="3" fill="#008a0e"/><path d="M585.33 860.33c0 5.53-4.47 10-10 10-5.52 0-10-4.47-10-10 0-5.52 4.48-10 10-10 5.53 0 10 4.48 10 10zM654 861c0 5.52-4.48 10-10 10s-10-4.48-10-10 4.48-10 10-10 10 4.48 10 10z" stroke="#fcce14" stroke-width="3" fill="#82755b"/><path d="M771.67 860.33c0 5.53-4.48 10-10 10-5.53 0-10-4.47-10-10 0-5.52 4.47-10 10-10 5.52 0 10 4.48 10 10zM706 859.67c0 5.52-4.48 10-10 10s-10-4.48-10-10c0-5.53 4.48-10 10-10s10 4.47 10 10z" stroke="#fcce14" stroke-width="3" fill="#1071e5"/><path d="M828.33 861c0 5.52-4.47 10-10 10-5.52 0-10-4.48-10-10s4.48-10 10-10c5.53 0 10 4.48 10 10zM890 861.33c0 5.53-4.48 10-10 10s-10-4.47-10-10c0-5.52 4.48-10 10-10s10 4.48 10 10z" stroke="#fcce14" stroke-width="3"/><path d="M587 989.24c0 5.52-4.48 10-10 10s-10-4.48-10-10 4.48-10 10-10 10 4.48 10 10z" stroke="#fcce14" stroke-width="3" fill="#82755b"/><path d="M533 989.9c0 5.53-4.48 10-10 10s-10-4.47-10-10c0-5.52 4.48-10 10-10s10 4.48 10 10zM470.67 989.33c0 5.53-4.48 10-10 10-5.53 0-10-4.47-10-10 0-5.52 4.47-10 10-10 5.52 0 10 4.48 10 10z" stroke="#fcce14" stroke-width="3" fill="#54c45e"/><defs><linearGradient gradientUnits="userSpaceOnUse" id="a" x1="520" y1="741" x2="520" y2="621"><stop offset="19.2%" stop-color="#ced4db"/><stop offset="26.45%" stop-color="#fff"/><stop offset="45.29%" stop-color="#fff"/><stop offset="52.54%" stop-color="#cfe4ff"/></linearGradient><path d="M185-189c-5-48-123-54-124 2 14 75 158 14 163 119 3 78-121 87-175 55-17-10-28-26-33-46l33-7c5 56 141 63 141-1 0-78-155-14-162-118-5-82 145-84 179-34 5 7 8 16 11 25" id="P"/><path d="M100-194c63 0 86 42 84 106H49c0 40 14 67 53 68 26 1 43-12 49-29l28 8c-11 28-37 45-77 45C44 4 14-33 15-96c1-61 26-98 85-98zm52 81c6-60-76-77-97-28-3 7-6 17-6 28h103" id="Q"/><path d="M114-163C36-179 61-72 57 0H25l-1-190h30c1 12-1 29 2 39 6-27 23-49 58-41v29" id="R"/><path d="M108 0H70L1-190h34L89-25l56-165h34" id="S"/><path d="M24-231v-30h32v30H24zM24 0v-190h32V0H24" id="T"/><path d="M96-169c-40 0-48 33-48 73s9 75 48 75c24 0 41-14 43-38l32 2c-6 37-31 61-74 61-59 0-76-41-82-99-10-93 101-131 147-64 4 7 5 14 7 22l-32 3c-4-21-16-35-41-35" id="U"/><g id="b"><use transform="matrix(0.06790123456790123,0,0,0.06790123456790123,0,0)" xlink:href="#P"/><use transform="matrix(0.06790123456790123,0,0,0.06790123456790123,16.296296296296294,0)" xlink:href="#Q"/><use transform="matrix(0.06790123456790123,0,0,0.06790123456790123,29.87654320987654,0)" xlink:href="#R"/><use transform="matrix(0.06790123456790123,0,0,0.06790123456790123,37.95679012345679,0)" xlink:href="#S"/><use transform="matrix(0.06790123456790123,0,0,0.06790123456790123,50.179012345679,0)" xlink:href="#T"/><use transform="matrix(0.06790123456790123,0,0,0.06790123456790123,55.5432098765432,0)" xlink:href="#U"/><use transform="matrix(0.06790123456790123,0,0,0.06790123456790123,67.76543209876542,0)" xlink:href="#Q"/></g><path d="M205 0l-28-72H64L36 0H1l101-248h38L239 0h-34zm-38-99l-47-123c-12 45-31 82-46 123h93" id="V"/><use transform="matrix(0.06790123456790123,0,0,0.06790123456790123,0,0)" xlink:href="#V" id="c"/><linearGradient gradientUnits="userSpaceOnUse" id="d" x1="640" y1="740" x2="640" y2="620"><stop offset="19.2%" stop-color="#ced4db"/><stop offset="26.45%" stop-color="#fff"/><stop offset="45.29%" stop-color="#fff"/><stop offset="52.54%" stop-color="#cfe4ff"/></linearGradient><path d="M160-131c35 5 61 23 61 61C221 17 115-2 30 0v-248c76 3 177-17 177 60 0 33-19 50-47 57zm-97-11c50-1 110 9 110-42 0-47-63-36-110-37v79zm0 115c55-2 124 14 124-45 0-56-70-42-124-44v89" id="W"/><use transform="matrix(0.06790123456790123,0,0,0.06790123456790123,0,0)" xlink:href="#W" id="e"/><linearGradient gradientUnits="userSpaceOnUse" id="f" x1="760" y1="740.5" x2="760" y2="620.5"><stop offset="19.2%" stop-color="#ced4db"/><stop offset="26.45%" stop-color="#fff"/><stop offset="45.29%" stop-color="#fff"/><stop offset="52.54%" stop-color="#cfe4ff"/></linearGradient><path d="M212-179c-10-28-35-45-73-45-59 0-87 40-87 99 0 60 29 101 89 101 43 0 62-24 78-52l27 14C228-24 195 4 139 4 59 4 22-46 18-125c-6-104 99-153 187-111 19 9 31 26 39 46" id="X"/><use transform="matrix(0.06790123456790123,0,0,0.06790123456790123,0,0)" xlink:href="#X" id="g"/><path d="M100-194c62-1 85 37 85 99 1 63-27 99-86 99S16-35 15-95c0-66 28-99 85-99zM99-20c44 1 53-31 53-75 0-43-8-75-51-75s-53 32-53 75 10 74 51 75" id="Y"/><path d="M210-169c-67 3-38 105-44 169h-31v-121c0-29-5-50-35-48C34-165 62-65 56 0H25l-1-190h30c1 10-1 24 2 32 10-44 99-50 107 0 11-21 27-35 58-36 85-2 47 119 55 194h-31v-121c0-29-5-49-35-48" id="Z"/><path d="M141-36C126-15 110 5 73 4 37 3 15-17 15-53c-1-64 63-63 125-63 3-35-9-54-41-54-24 1-41 7-42 31l-33-3c5-37 33-52 76-52 45 0 72 20 72 64v82c-1 20 7 32 28 27v20c-31 9-61-2-59-35zM48-53c0 20 12 33 32 33 41-3 63-29 60-74-43 2-92-5-92 41" id="aa"/><path d="M117-194c89-4 53 116 60 194h-32v-121c0-31-8-49-39-48C34-167 62-67 57 0H25l-1-190h30c1 10-1 24 2 32 11-22 29-35 61-36" id="ab"/><path d="M85-194c31 0 48 13 60 33l-1-100h32l1 261h-30c-2-10 0-23-3-31C134-8 116 4 85 4 32 4 16-35 15-94c0-66 23-100 70-100zm9 24c-40 0-46 34-46 75 0 40 6 74 45 74 42 0 51-32 51-76 0-42-9-74-50-73" id="ac"/><path d="M16-82v-28h88v28H16" id="ad"/><path d="M115-194c53 0 69 39 70 98 0 66-23 100-70 100C84 3 66-7 56-30L54 0H23l1-261h32v101c10-23 28-34 59-34zm-8 174c40 0 45-34 45-75 0-40-5-75-45-74-42 0-51 32-51 76 0 43 10 73 51 73" id="ae"/><path d="M135-143c-3-34-86-38-87 0 15 53 115 12 119 90S17 21 10-45l28-5c4 36 97 45 98 0-10-56-113-15-118-90-4-57 82-63 122-42 12 7 21 19 24 35" id="af"/><g id="h"><use transform="matrix(0.06790123456790119,0,0,0.06790123456790119,0,0)" xlink:href="#X"/><use transform="matrix(0.06790123456790119,0,0,0.06790123456790119,17.586419753086407,0)" xlink:href="#Y"/><use transform="matrix(0.06790123456790119,0,0,0.06790123456790119,31.166666666666643,0)" xlink:href="#Z"/><use transform="matrix(0.06790123456790119,0,0,0.06790123456790119,51.4691358024691,0)" xlink:href="#Z"/><use transform="matrix(0.06790123456790119,0,0,0.06790123456790119,71.77160493827155,0)" xlink:href="#aa"/><use transform="matrix(0.06790123456790119,0,0,0.06790123456790119,85.35185185185179,0)" xlink:href="#ab"/><use transform="matrix(0.06790123456790119,0,0,0.06790123456790119,98.93209876543203,0)" xlink:href="#ac"/><use transform="matrix(0.06790123456790119,0,0,0.06790123456790119,112.51234567901227,0)" xlink:href="#ad"/><use transform="matrix(0.06790123456790119,0,0,0.06790123456790119,120.59259259259251,0)" xlink:href="#ae"/><use transform="matrix(0.06790123456790119,0,0,0.06790123456790119,134.17283950617275,0)" xlink:href="#aa"/><use transform="matrix(0.06790123456790119,0,0,0.06790123456790119,147.75308641975298,0)" xlink:href="#af"/><use transform="matrix(0.06790123456790119,0,0,0.06790123456790119,159.97530864197518,0)" xlink:href="#Q"/><use transform="matrix(0.06790123456790119,0,0,0.06790123456790119,173.5555555555554,0)" xlink:href="#ac"/></g><path d="M84 4C-5 8 30-112 23-190h32v120c0 31 7 50 39 49 72-2 45-101 50-169h31l1 190h-30c-1-10 1-25-2-33-11 22-28 36-60 37" id="ag"/><path d="M59-47c-2 24 18 29 38 22v24C64 9 27 4 27-40v-127H5v-23h24l9-43h21v43h35v23H59v120" id="ah"/><g id="i"><use transform="matrix(0.06790123456790119,0,0,0.06790123456790119,0,0)" xlink:href="#U"/><use transform="matrix(0.06790123456790119,0,0,0.06790123456790119,12.222222222222214,0)" xlink:href="#Y"/><use transform="matrix(0.06790123456790119,0,0,0.06790123456790119,25.802469135802454,0)" xlink:href="#Z"/><use transform="matrix(0.06790123456790119,0,0,0.06790123456790119,46.10493827160491,0)" xlink:href="#Z"/><use transform="matrix(0.06790123456790119,0,0,0.06790123456790119,66.40740740740736,0)" xlink:href="#ag"/><use transform="matrix(0.06790123456790119,0,0,0.06790123456790119,79.9876543209876,0)" xlink:href="#ab"/><use transform="matrix(0.06790123456790119,0,0,0.06790123456790119,93.56790123456784,0)" xlink:href="#T"/><use transform="matrix(0.06790123456790119,0,0,0.06790123456790119,98.93209876543203,0)" xlink:href="#U"/><use transform="matrix(0.06790123456790119,0,0,0.06790123456790119,111.15432098765424,0)" xlink:href="#aa"/><use transform="matrix(0.06790123456790119,0,0,0.06790123456790119,124.73456790123448,0)" xlink:href="#ah"/><use transform="matrix(0.06790123456790119,0,0,0.06790123456790119,131.5246913580246,0)" xlink:href="#T"/><use transform="matrix(0.06790123456790119,0,0,0.06790123456790119,136.8888888888888,0)" xlink:href="#Y"/><use transform="matrix(0.06790123456790119,0,0,0.06790123456790119,150.46913580246903,0)" xlink:href="#ab"/></g><path d="M143 0L79-87 56-68V0H24v-261h32v163l83-92h37l-77 82L181 0h-38" id="ai"/><g id="j"><use transform="matrix(0.06790123456790119,0,0,0.06790123456790119,0,0)" xlink:href="#Z"/><use transform="matrix(0.06790123456790119,0,0,0.06790123456790119,20.302469135802454,0)" xlink:href="#aa"/><use transform="matrix(0.06790123456790119,0,0,0.06790123456790119,33.882716049382694,0)" xlink:href="#ai"/><use transform="matrix(0.06790123456790119,0,0,0.06790123456790119,46.10493827160491,0)" xlink:href="#Q"/><use transform="matrix(0.06790123456790119,0,0,0.06790123456790119,59.68518518518515,0)" xlink:href="#af"/></g><path d="M106-169C34-169 62-67 57 0H25v-261h32l-1 103c12-21 28-36 61-36 89 0 53 116 60 194h-32v-121c2-32-8-49-39-48" id="aj"/><g id="k"><use transform="matrix(0.06790123456790119,0,0,0.06790123456790119,0,0)" xlink:href="#Q"/><use transform="matrix(0.06790123456790119,0,0,0.06790123456790119,13.580246913580238,0)" xlink:href="#aa"/><use transform="matrix(0.06790123456790119,0,0,0.06790123456790119,27.160493827160476,0)" xlink:href="#U"/><use transform="matrix(0.06790123456790119,0,0,0.06790123456790119,39.3827160493827,0)" xlink:href="#aj"/></g><g id="l"><use transform="matrix(0.06790123456790119,0,0,0.06790123456790119,0,0)" xlink:href="#af"/><use transform="matrix(0.06790123456790119,0,0,0.06790123456790119,12.222222222222214,0)" xlink:href="#Q"/><use transform="matrix(0.06790123456790119,0,0,0.06790123456790119,25.802469135802454,0)" xlink:href="#R"/><use transform="matrix(0.06790123456790119,0,0,0.06790123456790119,33.882716049382694,0)" xlink:href="#S"/><use transform="matrix(0.06790123456790119,0,0,0.06790123456790119,46.10493827160491,0)" xlink:href="#T"/><use transform="matrix(0.06790123456790119,0,0,0.06790123456790119,51.469135802469104,0)" xlink:href="#U"/><use transform="matrix(0.06790123456790119,0,0,0.06790123456790119,63.69135802469132,0)" xlink:href="#Q"/></g><path d="M115-194c55 1 70 41 70 98S169 2 115 4C84 4 66-9 55-30l1 105H24l-1-265h31l2 30c10-21 28-34 59-34zm-8 174c40 0 45-34 45-75s-6-73-45-74c-42 0-51 32-51 76 0 43 10 73 51 73" id="ak"/><g id="m"><use transform="matrix(0.06790123456790119,0,0,0.06790123456790119,0,0)" xlink:href="#ac"/><use transform="matrix(0.06790123456790119,0,0,0.06790123456790119,13.580246913580238,0)" xlink:href="#Q"/><use transform="matrix(0.06790123456790119,0,0,0.06790123456790119,27.160493827160476,0)" xlink:href="#ak"/><use transform="matrix(0.06790123456790119,0,0,0.06790123456790119,40.74074074074071,0)" xlink:href="#Q"/><use transform="matrix(0.06790123456790119,0,0,0.06790123456790119,54.32098765432095,0)" xlink:href="#ab"/><use transform="matrix(0.06790123456790119,0,0,0.06790123456790119,67.90123456790118,0)" xlink:href="#ac"/></g><g id="n"><use transform="matrix(0.06790123456790119,0,0,0.06790123456790119,0,0)" xlink:href="#Y"/><use transform="matrix(0.06790123456790119,0,0,0.06790123456790119,13.580246913580238,0)" xlink:href="#ab"/></g><g id="o"><use transform="matrix(0.06790123456790119,0,0,0.06790123456790119,0,0)" xlink:href="#ah"/><use transform="matrix(0.06790123456790119,0,0,0.06790123456790119,6.790123456790119,0)" xlink:href="#aj"/><use transform="matrix(0.06790123456790119,0,0,0.06790123456790119,20.370370370370356,0)" xlink:href="#Q"/></g><path d="M87 75C49 33 22-17 22-94c0-76 28-126 65-167h31c-38 41-64 92-64 168S80 34 118 75H87" id="al"/><path d="M33-261c38 41 65 92 65 168S71 34 33 75H2C39 34 66-17 66-93S39-220 2-261h31" id="am"/><g id="p"><use transform="matrix(0.06790123456790119,0,0,0.06790123456790119,0,0)" xlink:href="#af"/><use transform="matrix(0.06790123456790119,0,0,0.06790123456790119,12.222222222222214,0)" xlink:href="#Q"/><use transform="matrix(0.06790123456790119,0,0,0.06790123456790119,25.802469135802454,0)" xlink:href="#R"/><use transform="matrix(0.06790123456790119,0,0,0.06790123456790119,33.882716049382694,0)" xlink:href="#S"/><use transform="matrix(0.06790123456790119,0,0,0.06790123456790119,46.10493827160491,0)" xlink:href="#T"/><use transform="matrix(0.06790123456790119,0,0,0.06790123456790119,51.469135802469104,0)" xlink:href="#U"/><use transform="matrix(0.06790123456790119,0,0,0.06790123456790119,63.69135802469132,0)" xlink:href="#Q"/><use transform="matrix(0.06790123456790119,0,0,0.06790123456790119,77.27160493827155,0)" xlink:href="#al"/><use transform="matrix(0.06790123456790119,0,0,0.06790123456790119,85.35185185185179,0)" xlink:href="#af"/><use transform="matrix(0.06790123456790119,0,0,0.06790123456790119,97.574074074074,0)" xlink:href="#am"/></g><g id="q"><use transform="matrix(0.06790123456790119,0,0,0.06790123456790119,0,0)" xlink:href="#T"/><use transform="matrix(0.06790123456790119,0,0,0.06790123456790119,5.364197530864194,0)" xlink:href="#ah"/></g><g id="r"><use transform="matrix(0.06790123456790119,0,0,0.06790123456790119,0,0)" xlink:href="#af"/><use transform="matrix(0.06790123456790119,0,0,0.06790123456790119,12.222222222222214,0)" xlink:href="#Q"/><use transform="matrix(0.06790123456790119,0,0,0.06790123456790119,25.802469135802454,0)" xlink:href="#ab"/><use transform="matrix(0.06790123456790119,0,0,0.06790123456790119,39.3827160493827,0)" xlink:href="#ac"/><use transform="matrix(0.06790123456790119,0,0,0.06790123456790119,52.96296296296293,0)" xlink:href="#af"/></g><g id="s"><use transform="matrix(0.06790123456790119,0,0,0.06790123456790119,0,0)" xlink:href="#U"/><use transform="matrix(0.06790123456790119,0,0,0.06790123456790119,12.222222222222214,0)" xlink:href="#Y"/><use transform="matrix(0.06790123456790119,0,0,0.06790123456790119,25.802469135802454,0)" xlink:href="#Z"/><use transform="matrix(0.06790123456790119,0,0,0.06790123456790119,46.10493827160491,0)" xlink:href="#Z"/><use transform="matrix(0.06790123456790119,0,0,0.06790123456790119,66.40740740740736,0)" xlink:href="#aa"/><use transform="matrix(0.06790123456790119,0,0,0.06790123456790119,79.9876543209876,0)" xlink:href="#ab"/><use transform="matrix(0.06790123456790119,0,0,0.06790123456790119,93.56790123456784,0)" xlink:href="#ac"/><use transform="matrix(0.06790123456790119,0,0,0.06790123456790119,107.14814814814808,0)" xlink:href="#af"/></g><g id="t"><use transform="matrix(0.06790123456790119,0,0,0.06790123456790119,0,0)" xlink:href="#ah"/><use transform="matrix(0.06790123456790119,0,0,0.06790123456790119,6.790123456790119,0)" xlink:href="#Y"/></g><path d="M127-220V0H93v-220H8v-28h204v28h-85" id="an"/><g id="u"><use transform="matrix(0.06790123456790119,0,0,0.06790123456790119,0,0)" xlink:href="#an"/><use transform="matrix(0.06790123456790119,0,0,0.06790123456790119,14.87037037037036,0)" xlink:href="#aj"/><use transform="matrix(0.06790123456790119,0,0,0.06790123456790119,28.4506172839506,0)" xlink:href="#aa"/><use transform="matrix(0.06790123456790119,0,0,0.06790123456790119,42.03086419753084,0)" xlink:href="#ah"/></g><g id="v"><use transform="matrix(0.06790123456790119,0,0,0.06790123456790119,0,0)" xlink:href="#T"/><use transform="matrix(0.06790123456790119,0,0,0.06790123456790119,5.364197530864194,0)" xlink:href="#ah"/></g><path d="M179-190L93 31C79 59 56 82 12 73V49c39 6 53-20 64-50L1-190h34L92-34l54-156h33" id="ao"/><g id="w"><use transform="matrix(0.06790123456790119,0,0,0.06790123456790119,0,0)" xlink:href="#Q"/><use transform="matrix(0.06790123456790119,0,0,0.06790123456790119,13.580246913580238,0)" xlink:href="#aa"/><use transform="matrix(0.06790123456790119,0,0,0.06790123456790119,27.160493827160476,0)" xlink:href="#af"/><use transform="matrix(0.06790123456790119,0,0,0.06790123456790119,39.3827160493827,0)" xlink:href="#ao"/></g><g id="x"><use transform="matrix(0.06790123456790119,0,0,0.06790123456790119,0,0)" xlink:href="#ah"/><use transform="matrix(0.06790123456790119,0,0,0.06790123456790119,6.790123456790119,0)" xlink:href="#Y"/></g><g id="y"><use transform="matrix(0.06790123456790119,0,0,0.06790123456790119,0,0)" xlink:href="#aa"/><use transform="matrix(0.06790123456790119,0,0,0.06790123456790119,13.580246913580238,0)" xlink:href="#ac"/><use transform="matrix(0.06790123456790119,0,0,0.06790123456790119,27.160493827160476,0)" xlink:href="#ac"/></g><path d="M206 0h-36l-40-164L89 0H53L-1-190h32L70-26l43-164h34l41 164 42-164h31" id="ap"/><g id="z"><use transform="matrix(0.06790123456790119,0,0,0.06790123456790119,0,0)" xlink:href="#ab"/><use transform="matrix(0.06790123456790119,0,0,0.06790123456790119,13.580246913580238,0)" xlink:href="#Q"/><use transform="matrix(0.06790123456790119,0,0,0.06790123456790119,27.160493827160476,0)" xlink:href="#ap"/></g><g id="A"><use transform="matrix(0.06790123456790119,0,0,0.06790123456790119,0,0)" xlink:href="#T"/><use transform="matrix(0.06790123456790119,0,0,0.06790123456790119,5.364197530864194,0)" xlink:href="#ab"/><use transform="matrix(0.06790123456790119,0,0,0.06790123456790119,18.944444444444432,0)" xlink:href="#ak"/><use transform="matrix(0.06790123456790119,0,0,0.06790123456790119,32.52469135802467,0)" xlink:href="#ag"/><use transform="matrix(0.06790123456790119,0,0,0.06790123456790119,46.10493827160491,0)" xlink:href="#ah"/></g><g id="B"><use transform="matrix(0.06790123456790119,0,0,0.06790123456790119,0,0)" xlink:href="#af"/><use transform="matrix(0.06790123456790119,0,0,0.06790123456790119,12.222222222222214,0)" xlink:href="#Y"/><use transform="matrix(0.06790123456790119,0,0,0.06790123456790119,25.802469135802454,0)" xlink:href="#ag"/><use transform="matrix(0.06790123456790119,0,0,0.06790123456790119,39.3827160493827,0)" xlink:href="#R"/><use transform="matrix(0.06790123456790119,0,0,0.06790123456790119,47.46296296296293,0)" xlink:href="#U"/><use transform="matrix(0.06790123456790119,0,0,0.06790123456790119,59.68518518518515,0)" xlink:href="#Q"/><use transform="matrix(0.06790123456790119,0,0,0.06790123456790119,73.26543209876539,0)" xlink:href="#af"/></g><path d="M33 0v-248h34V0H33" id="aq"/><g id="C"><use transform="matrix(0.06790123456790123,0,0,0.06790123456790123,0,0)" xlink:href="#aq"/><use transform="matrix(0.06790123456790123,0,0,0.06790123456790123,6.790123456790123,0)" xlink:href="#ab"/><use transform="matrix(0.06790123456790123,0,0,0.06790123456790123,20.37037037037037,0)" xlink:href="#ak"/><use transform="matrix(0.06790123456790123,0,0,0.06790123456790123,33.95061728395062,0)" xlink:href="#ag"/><use transform="matrix(0.06790123456790123,0,0,0.06790123456790123,47.53086419753087,0)" xlink:href="#ah"/></g><path d="M140-251c81 0 123 46 123 126C263-46 219 4 140 4 59 4 17-45 17-125s42-126 123-126zm0 227c63 0 89-41 89-101s-29-99-89-99c-61 0-89 39-89 99S79-25 140-24" id="ar"/><g id="D"><use transform="matrix(0.06790123456790123,0,0,0.06790123456790123,0,0)" xlink:href="#ar"/><use transform="matrix(0.06790123456790123,0,0,0.06790123456790123,19.012345679012345,0)" xlink:href="#ag"/><use transform="matrix(0.06790123456790123,0,0,0.06790123456790123,32.592592592592595,0)" xlink:href="#ah"/><use transform="matrix(0.06790123456790123,0,0,0.06790123456790123,39.38271604938272,0)" xlink:href="#ak"/><use transform="matrix(0.06790123456790123,0,0,0.06790123456790123,52.96296296296297,0)" xlink:href="#ag"/><use transform="matrix(0.06790123456790123,0,0,0.06790123456790123,66.54320987654322,0)" xlink:href="#ah"/></g><linearGradient gradientUnits="userSpaceOnUse" id="E" x1="519.67" y1="1039.24" x2="519.67" y2="939.24"><stop offset="19.2%" stop-color="#ced4db"/><stop offset="26.45%" stop-color="#fff"/><stop offset="45.29%" stop-color="#fff"/><stop offset="52.54%" stop-color="#cfe4ff"/></linearGradient><path d="M190 0L58-211 59 0H30v-248h39L202-35l-2-213h31V0h-41" id="as"/><g id="F"><use transform="matrix(0.06790123456790123,0,0,0.06790123456790123,0,0)" xlink:href="#as"/><use transform="matrix(0.06790123456790123,0,0,0.06790123456790123,17.586419753086417,0)" xlink:href="#Q"/><use transform="matrix(0.06790123456790123,0,0,0.06790123456790123,31.166666666666664,0)" xlink:href="#ap"/></g><g id="G"><use transform="matrix(0.06790123456790123,0,0,0.06790123456790123,0,0)" xlink:href="#aq"/><use transform="matrix(0.06790123456790123,0,0,0.06790123456790123,6.790123456790123,0)" xlink:href="#ab"/></g><linearGradient gradientUnits="userSpaceOnUse" id="H" x1="518" y1="899" x2="518" y2="819"><stop offset="19.2%" stop-color="#ced4db"/><stop offset="26.45%" stop-color="#fff"/><stop offset="45.29%" stop-color="#fff"/><stop offset="52.54%" stop-color="#cfe4ff"/></linearGradient><use transform="matrix(0.06790123456790123,0,0,0.06790123456790123,0,0)" xlink:href="#V" id="I"/><linearGradient gradientUnits="userSpaceOnUse" id="J" x1="639.33" y1="899" x2="639.33" y2="819"><stop offset="19.2%" stop-color="#ced4db"/><stop offset="26.45%" stop-color="#fff"/><stop offset="45.29%" stop-color="#fff"/><stop offset="52.54%" stop-color="#cfe4ff"/></linearGradient><use transform="matrix(0.06790123456790123,0,0,0.06790123456790123,0,0)" xlink:href="#W" id="K"/><linearGradient gradientUnits="userSpaceOnUse" id="L" x1="759" y1="901" x2="759" y2="819"><stop offset="19.2%" stop-color="#ced4db"/><stop offset="26.45%" stop-color="#fff"/><stop offset="45.29%" stop-color="#fff"/><stop offset="52.54%" stop-color="#cfe4ff"/></linearGradient><use transform="matrix(0.06790123456790123,0,0,0.06790123456790123,0,0)" xlink:href="#X" id="M"/><g id="N"><use transform="matrix(0.06790123456790123,0,0,0.06790123456790123,0,0)" xlink:href="#aq"/><use transform="matrix(0.06790123456790123,0,0,0.06790123456790123,6.790123456790123,0)" xlink:href="#ab"/></g><g id="O"><use transform="matrix(0.06790123456790123,0,0,0.06790123456790123,0,0)" xlink:href="#ar"/><use transform="matrix(0.06790123456790123,0,0,0.06790123456790123,19.012345679012345,0)" xlink:href="#ag"/><use transform="matrix(0.06790123456790123,0,0,0.06790123456790123,32.592592592592595,0)" xlink:href="#ah"/></g></defs></g></svg>