<svg xmlns="http://www.w3.org/2000/svg" xmlns:xlink="http://www.w3.org/1999/xlink" xmlns:lucid="lucid" width="783" height="303.5"><g transform="translate(-218.5 -438.5)" lucid:page-tab-id="0_0"><path d="M220 446a6 6 0 0 1 6-6h168a6 6 0 0 1 6 6v148a6 6 0 0 1-6 6H226a6 6 0 0 1-6-6z" stroke="#000" stroke-opacity="0" stroke-width="3" fill="#fff" fill-opacity="0"/><use xlink:href="#a" transform="matrix(1,0,0,1,225,445) translate(14.46296296296299 21.333333333333325)"/><use xlink:href="#b" transform="matrix(1,0,0,1,225,445) translate(67.72222222222223 21.333333333333325)"/><use xlink:href="#c" transform="matrix(1,0,0,1,225,445) translate(12.203703703703738 53.333333333333314)"/><use xlink:href="#d" transform="matrix(1,0,0,1,225,445) translate(62.57407407407408 53.333333333333314)"/><use xlink:href="#e" transform="matrix(1,0,0,1,225,445) translate(121.75925925925924 53.333333333333314)"/><use xlink:href="#f" transform="matrix(1,0,0,1,225,445) translate(12.944444444444485 85.3333333333333)"/><use xlink:href="#g" transform="matrix(1,0,0,1,225,445) translate(-2.499999999999943 117.33333333333329)"/><use xlink:href="#h" transform="matrix(1,0,0,1,225,445) translate(74.3888888888889 149.33333333333326)"/><path d="M500 640.5a20 20 0 0 1 20-20h20a20 20 0 0 1 20 20v80a20 20 0 0 1-20 20h-20a20 20 0 0 1-20-20z" stroke="#008a0e" stroke-width="3" fill="url(#i)"/><use xlink:href="#j" transform="matrix(-1.8369701987210297e-16,-1,1,-1.8369701987210297e-16,505.00005,735.5000499999953) translate(2.7839506172839563 28.930555555555557)"/><use xlink:href="#k" transform="matrix(-1.8369701987210297e-16,-1,1,-1.8369701987210297e-16,505.00005,735.5000499999953) translate(90.91975308641975 28.930555555555557)"/><path d="M600 640.5a20 20 0 0 1 20-20h20a20 20 0 0 1 20 20v80a20 20 0 0 1-20 20h-20a20 20 0 0 1-20-20z" stroke="#82755b" stroke-width="3" fill="url(#l)"/><use xlink:href="#j" transform="matrix(-1.8369701987210297e-16,-1,1,-1.8369701987210297e-16,605.0000500000001,735.5000499999954) translate(2.7839506172839563 28.930555555555557)"/><use xlink:href="#m" transform="matrix(-1.8369701987210297e-16,-1,1,-1.8369701987210297e-16,605.0000500000001,735.5000499999954) translate(90.91975308641975 28.930555555555557)"/><path d="M700 640.5a20 20 0 0 1 20-20h20a20 20 0 0 1 20 20v80a20 20 0 0 1-20 20h-20a20 20 0 0 1-20-20z" stroke="#1071e5" stroke-width="3" fill="url(#n)"/><use xlink:href="#o" transform="matrix(-1.8369701987210297e-16,-1,1,-1.8369701987210297e-16,705.0000500000001,735.5000499999954) translate(2.138888888888893 28.930555555555557)"/><use xlink:href="#p" transform="matrix(-1.8369701987210297e-16,-1,1,-1.8369701987210297e-16,705.0000500000001,735.5000499999954) translate(90.27469135802468 28.930555555555557)"/><path d="M500 460a20 20 0 0 1 20-20h220a20 20 0 0 1 20 20 20 20 0 0 1-20 20H520a20 20 0 0 1-20-20z" stroke="#000" stroke-width="3" fill="#e8e2c8"/><use xlink:href="#q" transform="matrix(1,0,0,1,505.0000500000001,445) translate(93.87228395061729 21.430555555555557)"/><path d="M500 560a20 20 0 0 1 20-20h220a20 20 0 0 1 20 20 20 20 0 0 1-20 20H520a20 20 0 0 1-20-20z" stroke="#000" stroke-width="3" fill="#c3f7c8"/><use xlink:href="#r" transform="matrix(1,0,0,1,505.0000500000001,545) translate(84.29820987654323 21.430555555555557)"/><path d="M522.67 482.5v41.84M518.67 482.5v41.84" stroke="#ba23f6" stroke-width="2" fill="none"/><path d="M523.64 482.53h-1.95v-1.03h1.94zM519.64 481.48v1.05h-1.95v-1.2z" stroke="#ba23f6" stroke-width=".05" fill="#ba23f6"/><path d="M530.67 519.18l-10 17.32-10-17.32m10 17.32V528M738.73 537.55V495.6M742.73 537.55V495.6" stroke="#ba23f6" stroke-width="2" fill="none"/><path d="M739.7 537.53v.97h-1.95v-.97zM743.7 537.53v1.3l-.34-.07-1.6-.13v-1.1z" stroke="#ba23f6" stroke-width=".05" fill="#ba23f6"/><path d="M730.73 500.77l10-17.32 10 17.32m-10-17.32v8.5" stroke="#ba23f6" stroke-width="2" fill="none"/><path d="M522 581v23.84M518 581v23.84M522 581.03V580M518 581.03V580M530 599.68L520 617l-10-17.32M520 617v-8.5M538 618v-22.34M542 618v-22.34" stroke="#008a0e" stroke-width="2" fill="none"/><path d="M538.98 619H537v-1.03H539zM542.98 619.23l-1.96-.15v-1.1H543z" stroke="#008a0e" stroke-width=".05" fill="#008a0e"/><path d="M530 600.82l10-17.32 10 17.32m-10-17.32v8.5" stroke="#008a0e" stroke-width="2" fill="none"/><path d="M622 582.5v22.34M618 582.5v22.34" stroke="#82755b" stroke-width="2" fill="none"/><path d="M622.98 582.53H621v-1.03H623zM618.98 582.53H617v-1.03H619z" stroke="#82755b" stroke-width=".05" fill="#82755b"/><path d="M630 599.68L620 617l-10-17.32M620 617v-8.5M638 618v-22.34M642 618v-22.34" stroke="#82755b" stroke-width="2" fill="none"/><path d="M638.98 617.97V619H637v-1.03zM642.98 617.97v1.26l-1.96-.15v-1.1z" stroke="#82755b" stroke-width=".05" fill="#82755b"/><path d="M630 600.82l10-17.32 10 17.32m-10-17.32v8.5" stroke="#82755b" stroke-width="2" fill="none"/><path d="M722 582.5v22.34M718 582.5v22.34" stroke="#1071e5" stroke-width="2" fill="none"/><path d="M722.98 582.53H721v-1.03H723zM718.98 582.53H717v-1.03H719z" stroke="#1071e5" stroke-width=".05" fill="#1071e5"/><path d="M730 599.68L720 617l-10-17.32M720 617v-8.5M738 618v-22.34M742 618v-22.34" stroke="#1071e5" stroke-width="2" fill="none"/><path d="M738.98 617.97V619H737v-1.03zM742.98 617.97v1.26l-1.96-.15v-1.1z" stroke="#1071e5" stroke-width=".05" fill="#1071e5"/><path d="M730 600.82l10-17.32 10 17.32m-10-17.32v8.5" stroke="#1071e5" stroke-width="2" fill="none"/><path d="M537.5 640.6a1.5 1.5 0 0 1 1.5-1.5 1.5 1.5 0 0 1 1.5 1.5 1.5 1.5 0 0 1-1.5 1.5 1.5 1.5 0 0 1-1.5-1.5v-.02m-.28 5.95a1.5 1.5 0 0 1 1.5-1.5 1.5 1.5 0 0 1 1.5 1.5 1.5 1.5 0 0 1-1.5 1.5 1.5 1.5 0 0 1-1.5-1.5v-.02m-.3 5.96v-.02a1.5 1.5 0 0 1 1.5-1.5 1.5 1.5 0 0 1 1.5 1.5 1.5 1.5 0 0 1-1.5 1.5 1.5 1.5 0 0 1-1.5-1.5m-.28 5.94v-.02a1.5 1.5 0 0 1 1.5-1.5 1.5 1.5 0 0 1 1.5 1.5 1.5 1.5 0 0 1-1.5 1.5 1.5 1.5 0 0 1-1.5-1.5m-.28 5.94a1.5 1.5 0 0 1 1.5-1.5 1.5 1.5 0 0 1 1.5 1.5 1.5 1.5 0 0 1-1.5 1.5 1.5 1.5 0 0 1-1.5-1.5v-.03m-.3 5.95a1.5 1.5 0 0 1 1.5-1.5 1.5 1.5 0 0 1 1.5 1.5 1.5 1.5 0 0 1-1.5 1.5 1.5 1.5 0 0 1-1.5-1.5v-.03m-.28 5.94a1.5 1.5 0 0 1 1.5-1.5 1.5 1.5 0 0 1 1.5 1.5 1.5 1.5 0 0 1-1.5 1.5 1.5 1.5 0 0 1-1.5-1.5v-.03m-1 5.84v-.02a1.5 1.5 0 0 1 1.5-1.5 1.5 1.5 0 0 1 1.5 1.5 1.5 1.5 0 0 1-1.5 1.5 1.5 1.5 0 0 1-1.5-1.5M533 687.6v-.02a1.5 1.5 0 0 1 1.5-1.5 1.5 1.5 0 0 1 1.5 1.5 1.5 1.5 0 0 1-1.5 1.5 1.5 1.5 0 0 1-1.5-1.5m-2.97 5.04v-.02a1.5 1.5 0 0 1 1.5-1.5 1.5 1.5 0 0 1 1.5 1.5 1.5 1.5 0 0 1-1.5 1.5 1.5 1.5 0 0 1-1.5-1.5m-4.75-1.75v-.02a1.5 1.5 0 0 1 1.5-1.5 1.5 1.5 0 0 1 1.5 1.5 1.5 1.5 0 0 1-1.5 1.5 1.5 1.5 0 0 1-1.5-1.5m-2.13-5.46v-.02a1.5 1.5 0 0 1 1.5-1.5 1.5 1.5 0 0 1 1.5 1.5 1.5 1.5 0 0 1-1.5 1.5 1.5 1.5 0 0 1-1.5-1.5m-1.62-5.7a1.5 1.5 0 0 1 1.5-1.5 1.5 1.5 0 0 1 1.5 1.5 1.5 1.5 0 0 1-1.5 1.5 1.5 1.5 0 0 1-1.5-1.5m-.77-5.82v-.02a1.5 1.5 0 0 1 1.5-1.5 1.5 1.5 0 0 1 1.5 1.5 1.5 1.5 0 0 1-1.5 1.5 1.5 1.5 0 0 1-1.5-1.5m-.25-5.9a1.5 1.5 0 0 1 1.5-1.5 1.5 1.5 0 0 1 1.5 1.5 1.5 1.5 0 0 1-1.5 1.5 1.5 1.5 0 0 1-1.5-1.5v-.03m-.23-5.9a1.5 1.5 0 0 1 1.5-1.5 1.5 1.5 0 0 1 1.5 1.5 1.5 1.5 0 0 1-1.5 1.5 1.5 1.5 0 0 1-1.5-1.5v-.02m-.25-5.9a1.5 1.5 0 0 1 1.5-1.5 1.5 1.5 0 0 1 1.5 1.5 1.5 1.5 0 0 1-1.5 1.5 1.5 1.5 0 0 1-1.5-1.5v-.02m-.24-5.9a1.5 1.5 0 0 1 1.5-1.5 1.5 1.5 0 0 1 1.5 1.5 1.5 1.5 0 0 1-1.5 1.5 1.5 1.5 0 0 1-1.5-1.5v-.03m-.24-5.9a1.5 1.5 0 0 1 1.5-1.5 1.5 1.5 0 0 1 1.5 1.5 1.5 1.5 0 0 1-1.5 1.5 1.5 1.5 0 0 1-1.5-1.5v-.02m-.25-5.9a1.5 1.5 0 0 1 1.5-1.5 1.5 1.5 0 0 1 1.5 1.5 1.5 1.5 0 0 1-1.5 1.5 1.5 1.5 0 0 1-1.5-1.5v-.03m-.25-5.9a1.5 1.5 0 0 1 1.5-1.5 1.5 1.5 0 0 1 1.5 1.5 1.5 1.5 0 0 1-1.5 1.5 1.5 1.5 0 0 1-1.5-1.5v-.02m-.24-5.9a1.5 1.5 0 0 1 1.5-1.5 1.5 1.5 0 0 1 1.5 1.5 1.5 1.5 0 0 1-1.5 1.5 1.5 1.5 0 0 1-1.5-1.5v-.02m-.24-5.9a1.5 1.5 0 0 1 1.5-1.5 1.5 1.5 0 0 1 1.5 1.5 1.5 1.5 0 0 1-1.5 1.5 1.5 1.5 0 0 1-1.5-1.5v-.02" fill="#008a0e"/><path d="M539.76 624.85l3.95 14.48-9.25-.45z" stroke="#008a0e" stroke-width="3" fill="#fff"/><path d="M521.54 620.48l-2.95.12-.07-1.5 1.4-.1h1.55z" stroke="#008a0e" stroke-width=".05" fill="#008a0e"/><path d="M637.56 639.6a1.5 1.5 0 0 1 1.5-1.5 1.5 1.5 0 0 1 1.5 1.5 1.5 1.5 0 0 1-1.5 1.5 1.5 1.5 0 0 1-1.5-1.5v-.02m-.3 5.96v-.02a1.5 1.5 0 0 1 1.5-1.5 1.5 1.5 0 0 1 1.5 1.5 1.5 1.5 0 0 1-1.5 1.5 1.5 1.5 0 0 1-1.5-1.5m-.28 5.94v-.02a1.5 1.5 0 0 1 1.5-1.5 1.5 1.5 0 0 1 1.5 1.5 1.5 1.5 0 0 1-1.5 1.5 1.5 1.5 0 0 1-1.5-1.5m-.28 5.94a1.5 1.5 0 0 1 1.5-1.5 1.5 1.5 0 0 1 1.5 1.5 1.5 1.5 0 0 1-1.5 1.5 1.5 1.5 0 0 1-1.5-1.5v-.03m-.3 5.95a1.5 1.5 0 0 1 1.5-1.5 1.5 1.5 0 0 1 1.5 1.5 1.5 1.5 0 0 1-1.5 1.5 1.5 1.5 0 0 1-1.5-1.5v-.02m-.28 5.95v-.02a1.5 1.5 0 0 1 1.5-1.5 1.5 1.5 0 0 1 1.5 1.5 1.5 1.5 0 0 1-1.5 1.5 1.5 1.5 0 0 1-1.5-1.5m-.3 5.95a1.5 1.5 0 0 1 1.5-1.5 1.5 1.5 0 0 1 1.5 1.5 1.5 1.5 0 0 1-1.5 1.5 1.5 1.5 0 0 1-1.5-1.5v-.03m-.94 5.84v-.02a1.5 1.5 0 0 1 1.5-1.5 1.5 1.5 0 0 1 1.5 1.5 1.5 1.5 0 0 1-1.5 1.5 1.5 1.5 0 0 1-1.5-1.5m-1.76 5.68v-.02a1.5 1.5 0 0 1 1.5-1.5 1.5 1.5 0 0 1 1.5 1.5 1.5 1.5 0 0 1-1.5 1.5 1.5 1.5 0 0 1-1.5-1.5m-2.76 5.17a1.5 1.5 0 0 1 1.5-1.5 1.5 1.5 0 0 1 1.5 1.5 1.5 1.5 0 0 1-1.5 1.5 1.5 1.5 0 0 1-1.5-1.5v-.03m-4.87-.94a1.5 1.5 0 0 1 1.5-1.5 1.5 1.5 0 0 1 1.5 1.5 1.5 1.5 0 0 1-1.5 1.5 1.5 1.5 0 0 1-1.5-1.5v-.03m-2.28-5.4a1.5 1.5 0 0 1 1.5-1.5 1.5 1.5 0 0 1 1.5 1.5 1.5 1.5 0 0 1-1.5 1.5 1.5 1.5 0 0 1-1.5-1.5v-.02m-1.67-5.66v-.03a1.5 1.5 0 0 1 1.5-1.5 1.5 1.5 0 0 1 1.5 1.5 1.5 1.5 0 0 1-1.5 1.5 1.5 1.5 0 0 1-1.5-1.5m-.7-5.84a1.5 1.5 0 0 1 1.5-1.5 1.5 1.5 0 0 1 1.5 1.5 1.5 1.5 0 0 1-1.5 1.5 1.5 1.5 0 0 1-1.5-1.5v-.03m-.24-5.9a1.5 1.5 0 0 1 1.5-1.5 1.5 1.5 0 0 1 1.5 1.5 1.5 1.5 0 0 1-1.5 1.5 1.5 1.5 0 0 1-1.5-1.5v-.02m-.25-5.9a1.5 1.5 0 0 1 1.5-1.5 1.5 1.5 0 0 1 1.5 1.5 1.5 1.5 0 0 1-1.5 1.5 1.5 1.5 0 0 1-1.5-1.5v-.03m-.25-5.9a1.5 1.5 0 0 1 1.5-1.5 1.5 1.5 0 0 1 1.5 1.5 1.5 1.5 0 0 1-1.5 1.5 1.5 1.5 0 0 1-1.5-1.5v-.02m-.26-5.9a1.5 1.5 0 0 1 1.5-1.5 1.5 1.5 0 0 1 1.5 1.5 1.5 1.5 0 0 1-1.5 1.5 1.5 1.5 0 0 1-1.5-1.5v-.02m-.25-5.9a1.5 1.5 0 0 1 1.5-1.5 1.5 1.5 0 0 1 1.5 1.5 1.5 1.5 0 0 1-1.5 1.5 1.5 1.5 0 0 1-1.5-1.5v-.02m-.27-5.9a1.5 1.5 0 0 1 1.5-1.5 1.5 1.5 0 0 1 1.5 1.5 1.5 1.5 0 0 1-1.5 1.5 1.5 1.5 0 0 1-1.5-1.5v-.02m-.25-5.9a1.5 1.5 0 0 1 1.5-1.5 1.5 1.5 0 0 1 1.5 1.5 1.5 1.5 0 0 1-1.5 1.5 1.5 1.5 0 0 1-1.5-1.5v-.03m-.26-5.9a1.5 1.5 0 0 1 1.5-1.5 1.5 1.5 0 0 1 1.5 1.5 1.5 1.5 0 0 1-1.5 1.5 1.5 1.5 0 0 1-1.5-1.5v-.02m-.25-5.9a1.5 1.5 0 0 1 1.5-1.5 1.5 1.5 0 0 1 1.5 1.5 1.5 1.5 0 0 1-1.5 1.5 1.5 1.5 0 0 1-1.5-1.5v-.02" fill="#82755b"/><path d="M639.83 623.85l3.93 14.48-9.26-.46z" stroke="#82755b" stroke-width="3" fill="#fff"/><path d="M621.54 620.47l-2.95.13-.07-1.5 1.4-.1h1.55z" stroke="#82755b" stroke-width=".05" fill="#82755b"/><path d="M737.56 639.6a1.5 1.5 0 0 1 1.5-1.5 1.5 1.5 0 0 1 1.5 1.5 1.5 1.5 0 0 1-1.5 1.5 1.5 1.5 0 0 1-1.5-1.5v-.02m-.3 5.96v-.02a1.5 1.5 0 0 1 1.5-1.5 1.5 1.5 0 0 1 1.5 1.5 1.5 1.5 0 0 1-1.5 1.5 1.5 1.5 0 0 1-1.5-1.5m-.28 5.94v-.02a1.5 1.5 0 0 1 1.5-1.5 1.5 1.5 0 0 1 1.5 1.5 1.5 1.5 0 0 1-1.5 1.5 1.5 1.5 0 0 1-1.5-1.5m-.28 5.94a1.5 1.5 0 0 1 1.5-1.5 1.5 1.5 0 0 1 1.5 1.5 1.5 1.5 0 0 1-1.5 1.5 1.5 1.5 0 0 1-1.5-1.5v-.03m-.3 5.95a1.5 1.5 0 0 1 1.5-1.5 1.5 1.5 0 0 1 1.5 1.5 1.5 1.5 0 0 1-1.5 1.5 1.5 1.5 0 0 1-1.5-1.5v-.02m-.28 5.95v-.02a1.5 1.5 0 0 1 1.5-1.5 1.5 1.5 0 0 1 1.5 1.5 1.5 1.5 0 0 1-1.5 1.5 1.5 1.5 0 0 1-1.5-1.5m-.3 5.95a1.5 1.5 0 0 1 1.5-1.5 1.5 1.5 0 0 1 1.5 1.5 1.5 1.5 0 0 1-1.5 1.5 1.5 1.5 0 0 1-1.5-1.5v-.03m-.94 5.84v-.02a1.5 1.5 0 0 1 1.5-1.5 1.5 1.5 0 0 1 1.5 1.5 1.5 1.5 0 0 1-1.5 1.5 1.5 1.5 0 0 1-1.5-1.5m-1.76 5.68v-.02a1.5 1.5 0 0 1 1.5-1.5 1.5 1.5 0 0 1 1.5 1.5 1.5 1.5 0 0 1-1.5 1.5 1.5 1.5 0 0 1-1.5-1.5m-2.76 5.17a1.5 1.5 0 0 1 1.5-1.5 1.5 1.5 0 0 1 1.5 1.5 1.5 1.5 0 0 1-1.5 1.5 1.5 1.5 0 0 1-1.5-1.5v-.03m-4.87-.94a1.5 1.5 0 0 1 1.5-1.5 1.5 1.5 0 0 1 1.5 1.5 1.5 1.5 0 0 1-1.5 1.5 1.5 1.5 0 0 1-1.5-1.5v-.03m-2.28-5.4a1.5 1.5 0 0 1 1.5-1.5 1.5 1.5 0 0 1 1.5 1.5 1.5 1.5 0 0 1-1.5 1.5 1.5 1.5 0 0 1-1.5-1.5v-.02m-1.67-5.66v-.03a1.5 1.5 0 0 1 1.5-1.5 1.5 1.5 0 0 1 1.5 1.5 1.5 1.5 0 0 1-1.5 1.5 1.5 1.5 0 0 1-1.5-1.5m-.7-5.84a1.5 1.5 0 0 1 1.5-1.5 1.5 1.5 0 0 1 1.5 1.5 1.5 1.5 0 0 1-1.5 1.5 1.5 1.5 0 0 1-1.5-1.5v-.03m-.24-5.9a1.5 1.5 0 0 1 1.5-1.5 1.5 1.5 0 0 1 1.5 1.5 1.5 1.5 0 0 1-1.5 1.5 1.5 1.5 0 0 1-1.5-1.5v-.02m-.25-5.9a1.5 1.5 0 0 1 1.5-1.5 1.5 1.5 0 0 1 1.5 1.5 1.5 1.5 0 0 1-1.5 1.5 1.5 1.5 0 0 1-1.5-1.5v-.03m-.25-5.9a1.5 1.5 0 0 1 1.5-1.5 1.5 1.5 0 0 1 1.5 1.5 1.5 1.5 0 0 1-1.5 1.5 1.5 1.5 0 0 1-1.5-1.5v-.02m-.26-5.9a1.5 1.5 0 0 1 1.5-1.5 1.5 1.5 0 0 1 1.5 1.5 1.5 1.5 0 0 1-1.5 1.5 1.5 1.5 0 0 1-1.5-1.5v-.02m-.25-5.9a1.5 1.5 0 0 1 1.5-1.5 1.5 1.5 0 0 1 1.5 1.5 1.5 1.5 0 0 1-1.5 1.5 1.5 1.5 0 0 1-1.5-1.5v-.02m-.27-5.9a1.5 1.5 0 0 1 1.5-1.5 1.5 1.5 0 0 1 1.5 1.5 1.5 1.5 0 0 1-1.5 1.5 1.5 1.5 0 0 1-1.5-1.5v-.02m-.25-5.9a1.5 1.5 0 0 1 1.5-1.5 1.5 1.5 0 0 1 1.5 1.5 1.5 1.5 0 0 1-1.5 1.5 1.5 1.5 0 0 1-1.5-1.5v-.03m-.26-5.9a1.5 1.5 0 0 1 1.5-1.5 1.5 1.5 0 0 1 1.5 1.5 1.5 1.5 0 0 1-1.5 1.5 1.5 1.5 0 0 1-1.5-1.5v-.02" fill="#1071e5"/><path d="M739.83 623.85l3.93 14.48-9.26-.46z" stroke="#1071e5" stroke-width="3" fill="#fff"/><path d="M721.54 620.47l-2.95.13-.07-1.5 1.4-.1h1.55z" stroke="#1071e5" stroke-width=".05" fill="#1071e5"/><path d="M738.5 559.13a1.5 1.5 0 0 1 1.5-1.5 1.5 1.5 0 0 1 1.5 1.5 1.5 1.5 0 0 1-1.5 1.5 1.5 1.5 0 0 1-1.5-1.5v-.02m0 7v-.02a1.5 1.5 0 0 1 1.5-1.5 1.5 1.5 0 0 1 1.5 1.5 1.5 1.5 0 0 1-1.5 1.5 1.5 1.5 0 0 1-1.5-1.5m0 6.97a1.5 1.5 0 0 1 1.5-1.5 1.5 1.5 0 0 1 1.5 1.5 1.5 1.5 0 0 1-1.5 1.5 1.5 1.5 0 0 1-1.5-1.5v-.02" fill="#1071e5"/><path d="M740 543.35l4.64 14.27h-9.27z" stroke="#1071e5" stroke-width="3" fill="#fff"/><path d="M741.48 581.4l-1.42.1h-1.53v-1.54h2.95z" stroke="#1071e5" stroke-width=".05" fill="#1071e5"/><path d="M518.5 560.9v-.02a1.5 1.5 0 0 1 1.5-1.5 1.5 1.5 0 0 1 1.5 1.5 1.5 1.5 0 0 1-1.5 1.5 1.5 1.5 0 0 1-1.5-1.5m0-6.95a1.5 1.5 0 0 1 1.5-1.5 1.5 1.5 0 0 1 1.5 1.5 1.5 1.5 0 0 1-1.5 1.5 1.5 1.5 0 0 1-1.5-1.5v-.02m0-6.92v-.02a1.5 1.5 0 0 1 1.5-1.5 1.5 1.5 0 0 1 1.5 1.5 1.5 1.5 0 0 1-1.5 1.5 1.5 1.5 0 0 1-1.5-1.5" fill="#008a0e"/><path d="M520 576.65l-4.63-14.27h9.26z" stroke="#008a0e" stroke-width="3" fill="#fff"/><path d="M521.48 540.04h-2.96v-1.43l1.42-.1h1.53z" stroke="#008a0e" stroke-width=".05" fill="#008a0e"/><path d="M401 520.15l2.96.46m3.95.6l5.95.92m3.95.6l5.94.92m3.95.6l5.93.92m3.95.6l5.94.9m3.96.62l5.93.9m3.97.62l5.93.9m3.96.6l5.93.92m3.95.6l5.93.92m3.96.6l5.93.9m3.96.62l5.93.9m3.96.62l5.93.9m3.96.6l2.98.47" stroke="#3a414a" stroke-width="2" fill="none"/><path d="M401.16 519.2l-.3 1.92-.86-.13v-2zM523.78 538l-.08.5h-3.76l-.32.02.18-1.14z" stroke="#3a414a" stroke-width=".05" fill="#3a414a"/><path d="M860 466a6 6 0 0 1 6-6h128a6 6 0 0 1 6 6v88a6 6 0 0 1-6 6H866a6 6 0 0 1-6-6z" stroke="#000" stroke-opacity="0" stroke-width="3" fill="#fff" fill-opacity="0"/><use xlink:href="#s" transform="matrix(1,0,0,1,865,465) translate(27.962962962962983 24.177083333333325)"/><use xlink:href="#t" transform="matrix(1,0,0,1,865,465) translate(57.592592592592595 24.177083333333325)"/><use xlink:href="#u" transform="matrix(1,0,0,1,865,465) translate(5.0370370370370665 56.177083333333314)"/><use xlink:href="#v" transform="matrix(1,0,0,1,865,465) translate(3.5925925925926236 88.1770833333333)"/><use xlink:href="#w" transform="matrix(1,0,0,1,865,465) translate(48.037037037037045 88.1770833333333)"/><path d="M599.6 573.28v-.02a1.5 1.5 0 0 1 1.5-1.5 1.5 1.5 0 0 1 1.5 1.5 1.5 1.5 0 0 1-1.5 1.5 1.5 1.5 0 0 1-1.5-1.5m-5.6-2.42v-.02a1.5 1.5 0 0 1 1.5-1.5 1.5 1.5 0 0 1 1.5 1.5 1.5 1.5 0 0 1-1.5 1.5 1.5 1.5 0 0 1-1.5-1.5m-5.6-2.42v-.02a1.5 1.5 0 0 1 1.5-1.5 1.5 1.5 0 0 1 1.5 1.5 1.5 1.5 0 0 1-1.5 1.5 1.5 1.5 0 0 1-1.5-1.5m-5.6-2.42v-.02a1.5 1.5 0 0 1 1.5-1.5 1.5 1.5 0 0 1 1.5 1.5 1.5 1.5 0 0 1-1.5 1.5 1.5 1.5 0 0 1-1.5-1.5m-5.6-2.42v-.02a1.5 1.5 0 0 1 1.5-1.5 1.5 1.5 0 0 1 1.5 1.5 1.5 1.5 0 0 1-1.5 1.5 1.5 1.5 0 0 1-1.5-1.5m-5.6-2.42v-.02a1.5 1.5 0 0 1 1.5-1.5 1.5 1.5 0 0 1 1.5 1.5 1.5 1.5 0 0 1-1.5 1.5 1.5 1.5 0 0 1-1.5-1.5m-5.6-2.42v-.02a1.5 1.5 0 0 1 1.5-1.5 1.5 1.5 0 0 1 1.5 1.5 1.5 1.5 0 0 1-1.5 1.5 1.5 1.5 0 0 1-1.5-1.5m-5.6-2.42v-.02a1.5 1.5 0 0 1 1.5-1.5 1.5 1.5 0 0 1 1.5 1.5 1.5 1.5 0 0 1-1.5 1.5 1.5 1.5 0 0 1-1.5-1.5m-5.6-2.42v-.02a1.5 1.5 0 0 1 1.5-1.5 1.5 1.5 0 0 1 1.5 1.5 1.5 1.5 0 0 1-1.5 1.5 1.5 1.5 0 0 1-1.5-1.5m-5.6-2.42v-.02a1.5 1.5 0 0 1 1.5-1.5 1.5 1.5 0 0 1 1.5 1.5 1.5 1.5 0 0 1-1.5 1.5 1.5 1.5 0 0 1-1.5-1.5m-5.6-2.42v-.02a1.5 1.5 0 0 1 1.5-1.5 1.5 1.5 0 0 1 1.5 1.5 1.5 1.5 0 0 1-1.5 1.5 1.5 1.5 0 0 1-1.5-1.5m-5.6-2.43a1.5 1.5 0 0 1 1.5-1.5 1.5 1.5 0 0 1 1.5 1.5 1.5 1.5 0 0 1-1.5 1.5 1.5 1.5 0 0 1-1.5-1.5v-.02m-5.6-2.4v-.02a1.5 1.5 0 0 1 1.5-1.5 1.5 1.5 0 0 1 1.5 1.5 1.5 1.5 0 0 1-1.5 1.5 1.5 1.5 0 0 1-1.5-1.5m-5.6-2.43a1.5 1.5 0 0 1 1.5-1.5 1.5 1.5 0 0 1 1.5 1.5 1.5 1.5 0 0 1-1.5 1.5 1.5 1.5 0 0 1-1.5-1.5v-.03" fill="#82755b"/><path d="M615.55 579.56l-14.93-1.45 3.7-8.5z" stroke="#82755b" stroke-width="3" fill="#fff"/><path d="M523.33 537.76l-.32.74h-3.06l-1.95.15 1.17-2.7z" stroke="#82755b" stroke-width=".05" fill="#82755b"/><path d="M698.35 577.13v-.02a1.5 1.5 0 0 1 1.5-1.5 1.5 1.5 0 0 1 1.5 1.5 1.5 1.5 0 0 1-1.5 1.5 1.5 1.5 0 0 1-1.5-1.5m-5.85-1.25v-.02a1.5 1.5 0 0 1 1.5-1.5 1.5 1.5 0 0 1 1.5 1.5 1.5 1.5 0 0 1-1.5 1.5 1.5 1.5 0 0 1-1.5-1.5m-5.86-1.26a1.5 1.5 0 0 1 1.5-1.5 1.5 1.5 0 0 1 1.5 1.5 1.5 1.5 0 0 1-1.5 1.5 1.5 1.5 0 0 1-1.5-1.5v-.03m-5.86-1.24v-.02a1.5 1.5 0 0 1 1.5-1.5 1.5 1.5 0 0 1 1.5 1.5 1.5 1.5 0 0 1-1.5 1.5 1.5 1.5 0 0 1-1.5-1.5m-5.86-1.26V572a1.5 1.5 0 0 1 1.5-1.5 1.5 1.5 0 0 1 1.5 1.5 1.5 1.5 0 0 1-1.5 1.5 1.5 1.5 0 0 1-1.5-1.5m-5.85-1.26a1.5 1.5 0 0 1 1.5-1.5 1.5 1.5 0 0 1 1.5 1.5 1.5 1.5 0 0 1-1.5 1.5 1.5 1.5 0 0 1-1.5-1.5v-.03m-5.86-1.23v-.02a1.5 1.5 0 0 1 1.5-1.5 1.5 1.5 0 0 1 1.5 1.5 1.5 1.5 0 0 1-1.5 1.5 1.5 1.5 0 0 1-1.5-1.5m-5.85-1.26v-.03a1.5 1.5 0 0 1 1.5-1.5 1.5 1.5 0 0 1 1.5 1.5 1.5 1.5 0 0 1-1.5 1.5 1.5 1.5 0 0 1-1.5-1.5m-5.86-1.26a1.5 1.5 0 0 1 1.5-1.5 1.5 1.5 0 0 1 1.5 1.5 1.5 1.5 0 0 1-1.5 1.5 1.5 1.5 0 0 1-1.5-1.5v-.02m-5.86-1.24v-.02a1.5 1.5 0 0 1 1.5-1.5 1.5 1.5 0 0 1 1.5 1.5 1.5 1.5 0 0 1-1.5 1.5 1.5 1.5 0 0 1-1.5-1.5m-5.86-1.26a1.5 1.5 0 0 1 1.5-1.5 1.5 1.5 0 0 1 1.5 1.5 1.5 1.5 0 0 1-1.5 1.5 1.5 1.5 0 0 1-1.5-1.5v-.03m-5.86-1.25a1.5 1.5 0 0 1 1.5-1.5 1.5 1.5 0 0 1 1.5 1.5 1.5 1.5 0 0 1-1.5 1.5 1.5 1.5 0 0 1-1.5-1.5v-.03m-5.85-1.24a1.5 1.5 0 0 1 1.5-1.5 1.5 1.5 0 0 1 1.5 1.5 1.5 1.5 0 0 1-1.5 1.5 1.5 1.5 0 0 1-1.5-1.5v-.02m-5.86-1.25a1.5 1.5 0 0 1 1.5-1.5 1.5 1.5 0 0 1 1.5 1.5 1.5 1.5 0 0 1-1.5 1.5 1.5 1.5 0 0 1-1.5-1.5v-.03m-5.85-1.24v-.02a1.5 1.5 0 0 1 1.5-1.5 1.5 1.5 0 0 1 1.5 1.5 1.5 1.5 0 0 1-1.5 1.5 1.5 1.5 0 0 1-1.5-1.5m-5.86-1.26a1.5 1.5 0 0 1 1.5-1.5 1.5 1.5 0 0 1 1.5 1.5 1.5 1.5 0 0 1-1.5 1.5 1.5 1.5 0 0 1-1.5-1.5v-.03m-5.87-1.25a1.5 1.5 0 0 1 1.5-1.5 1.5 1.5 0 0 1 1.5 1.5 1.5 1.5 0 0 1-1.5 1.5 1.5 1.5 0 0 1-1.5-1.5v-.03m-5.85-1.24v-.02a1.5 1.5 0 0 1 1.5-1.5 1.5 1.5 0 0 1 1.5 1.5 1.5 1.5 0 0 1-1.5 1.5 1.5 1.5 0 0 1-1.5-1.5m-5.86-1.25a1.5 1.5 0 0 1 1.5-1.5 1.5 1.5 0 0 1 1.5 1.5 1.5 1.5 0 0 1-1.5 1.5 1.5 1.5 0 0 1-1.5-1.5v-.03m-5.86-1.25a1.5 1.5 0 0 1 1.5-1.5 1.5 1.5 0 0 1 1.5 1.5 1.5 1.5 0 0 1-1.5 1.5 1.5 1.5 0 0 1-1.5-1.5v-.03m-5.85-1.24v-.02a1.5 1.5 0 0 1 1.5-1.5 1.5 1.5 0 0 1 1.5 1.5 1.5 1.5 0 0 1-1.5 1.5 1.5 1.5 0 0 1-1.5-1.5m-5.85-1.26a1.5 1.5 0 0 1 1.5-1.5 1.5 1.5 0 0 1 1.5 1.5 1.5 1.5 0 0 1-1.5 1.5 1.5 1.5 0 0 1-1.5-1.5v-.03m-5.86-1.25v-.02a1.5 1.5 0 0 1 1.5-1.5 1.5 1.5 0 0 1 1.5 1.5 1.5 1.5 0 0 1-1.5 1.5 1.5 1.5 0 0 1-1.5-1.5m-5.87-1.26v-.02a1.5 1.5 0 0 1 1.5-1.5 1.5 1.5 0 0 1 1.5 1.5 1.5 1.5 0 0 1-1.5 1.5 1.5 1.5 0 0 1-1.5-1.5m-5.85-1.26v-.02a1.5 1.5 0 0 1 1.5-1.5 1.5 1.5 0 0 1 1.5 1.5 1.5 1.5 0 0 1-1.5 1.5 1.5 1.5 0 0 1-1.5-1.5v-.02m-5.86-1.24v-.02a1.5 1.5 0 0 1 1.5-1.5 1.5 1.5 0 0 1 1.5 1.5 1.5 1.5 0 0 1-1.5 1.5 1.5 1.5 0 0 1-1.5-1.5m-5.86-1.26v-.02a1.5 1.5 0 0 1 1.5-1.5 1.5 1.5 0 0 1 1.5 1.5 1.5 1.5 0 0 1-1.5 1.5 1.5 1.5 0 0 1-1.5-1.5m-5.86-1.26a1.5 1.5 0 0 1 1.5-1.5 1.5 1.5 0 0 1 1.5 1.5 1.5 1.5 0 0 1-1.5 1.5 1.5 1.5 0 0 1-1.5-1.5v-.03m-5.85-1.24v-.03a1.5 1.5 0 0 1 1.5-1.5 1.5 1.5 0 0 1 1.5 1.5 1.5 1.5 0 0 1-1.5 1.5 1.5 1.5 0 0 1-1.5-1.5m-5.86-1.26a1.5 1.5 0 0 1 1.5-1.5 1.5 1.5 0 0 1 1.5 1.5 1.5 1.5 0 0 1-1.5 1.5 1.5 1.5 0 0 1-1.5-1.5v-.02m-5.87-1.25a1.5 1.5 0 0 1 1.5-1.5 1.5 1.5 0 0 1 1.5 1.5 1.5 1.5 0 0 1-1.5 1.5 1.5 1.5 0 0 1-1.5-1.5v-.03" fill="#1071e5"/><path d="M715.26 580.47l-14.93 1.5 1.98-9.07z" stroke="#1071e5" stroke-width="3" fill="#fff"/><path d="M524.48 537.4l-.24 1.1h-4.3l-.35.03.45-2.1z" stroke="#1071e5" stroke-width=".05" fill="#1071e5"/><path d="M719.46 547.92v-.02a1.5 1.5 0 0 1 1.5-1.5 1.5 1.5 0 0 1 1.5 1.5 1.5 1.5 0 0 1-1.5 1.5 1.5 1.5 0 0 1-1.5-1.5m-5.7 2.38v-.02a1.5 1.5 0 0 1 1.5-1.5 1.5 1.5 0 0 1 1.5 1.5 1.5 1.5 0 0 1-1.5 1.5 1.5 1.5 0 0 1-1.5-1.5m-5.67 2.38v-.02a1.5 1.5 0 0 1 1.5-1.5 1.5 1.5 0 0 1 1.5 1.5 1.5 1.5 0 0 1-1.5 1.5 1.5 1.5 0 0 1-1.5-1.5m-5.7 2.38v-.02a1.5 1.5 0 0 1 1.5-1.5 1.5 1.5 0 0 1 1.5 1.5 1.5 1.5 0 0 1-1.5 1.5 1.5 1.5 0 0 1-1.5-1.5m-5.68 2.37a1.5 1.5 0 0 1 1.5-1.5 1.5 1.5 0 0 1 1.5 1.5 1.5 1.5 0 0 1-1.5 1.5 1.5 1.5 0 0 1-1.5-1.5v-.03m-5.68 2.4v-.02a1.5 1.5 0 0 1 1.5-1.5 1.5 1.5 0 0 1 1.5 1.5 1.5 1.5 0 0 1-1.5 1.5 1.5 1.5 0 0 1-1.5-1.5v-.02m-5.7 2.4v-.02a1.5 1.5 0 0 1 1.5-1.5 1.5 1.5 0 0 1 1.5 1.5 1.5 1.5 0 0 1-1.5 1.5 1.5 1.5 0 0 1-1.5-1.5v-.02m-5.67 2.4v-.03a1.5 1.5 0 0 1 1.5-1.5 1.5 1.5 0 0 1 1.5 1.5 1.5 1.5 0 0 1-1.5 1.5 1.5 1.5 0 0 1-1.5-1.5m-5.68 2.4v-.03a1.5 1.5 0 0 1 1.5-1.5 1.5 1.5 0 0 1 1.5 1.5 1.5 1.5 0 0 1-1.5 1.5 1.5 1.5 0 0 1-1.5-1.5m-5.7 2.38v-.02a1.5 1.5 0 0 1 1.5-1.5 1.5 1.5 0 0 1 1.5 1.5 1.5 1.5 0 0 1-1.5 1.5 1.5 1.5 0 0 1-1.5-1.5m-5.68 2.38a1.5 1.5 0 0 1 1.5-1.5 1.5 1.5 0 0 1 1.5 1.5 1.5 1.5 0 0 1-1.5 1.5 1.5 1.5 0 0 1-1.5-1.5v-.02m-5.68 2.38a1.5 1.5 0 0 1 1.5-1.5 1.5 1.5 0 0 1 1.5 1.5 1.5 1.5 0 0 1-1.5 1.5 1.5 1.5 0 0 1-1.5-1.5v-.03m-5.7 2.4v-.02a1.5 1.5 0 0 1 1.5-1.5 1.5 1.5 0 0 1 1.5 1.5 1.5 1.5 0 0 1-1.5 1.5 1.5 1.5 0 0 1-1.5-1.5m-5.67 2.38a1.5 1.5 0 0 1 1.5-1.5 1.5 1.5 0 0 1 1.5 1.5 1.5 1.5 0 0 1-1.5 1.5 1.5 1.5 0 0 1-1.5-1.5v-.03" fill="#82755b"/><path d="M735.52 541.86l-11.4 9.75-3.56-8.55z" stroke="#82755b" stroke-width="3" fill="#fff"/><path d="M642 582.27l-4.2 1.74-1.05-2.5h4.92z" stroke="#82755b" stroke-width=".05" fill="#82755b"/><path d="M718.3 544.2a1.5 1.5 0 0 1 1.5-1.5 1.5 1.5 0 0 1 1.5 1.5 1.5 1.5 0 0 1-1.5 1.5 1.5 1.5 0 0 1-1.5-1.5v-.03m-5.93 1.27v-.02a1.5 1.5 0 0 1 1.5-1.5 1.5 1.5 0 0 1 1.5 1.5 1.5 1.5 0 0 1-1.5 1.5 1.5 1.5 0 0 1-1.5-1.5m-5.95 1.25a1.5 1.5 0 0 1 1.5-1.5 1.5 1.5 0 0 1 1.5 1.5 1.5 1.5 0 0 1-1.5 1.5 1.5 1.5 0 0 1-1.5-1.5v-.03m-5.94 1.26a1.5 1.5 0 0 1 1.5-1.5 1.5 1.5 0 0 1 1.5 1.5 1.5 1.5 0 0 1-1.5 1.5 1.5 1.5 0 0 1-1.5-1.5v-.02m-5.95 1.26v-.02a1.5 1.5 0 0 1 1.5-1.5 1.5 1.5 0 0 1 1.5 1.5 1.5 1.5 0 0 1-1.5 1.5 1.5 1.5 0 0 1-1.5-1.5m-5.94 1.25a1.5 1.5 0 0 1 1.5-1.5 1.5 1.5 0 0 1 1.5 1.5 1.5 1.5 0 0 1-1.5 1.5 1.5 1.5 0 0 1-1.5-1.5v-.03m-5.96 1.27a1.5 1.5 0 0 1 1.5-1.5 1.5 1.5 0 0 1 1.5 1.5 1.5 1.5 0 0 1-1.5 1.5 1.5 1.5 0 0 1-1.5-1.5v-.02m-5.94 1.26v-.02a1.5 1.5 0 0 1 1.5-1.5 1.5 1.5 0 0 1 1.5 1.5 1.5 1.5 0 0 1-1.5 1.5 1.5 1.5 0 0 1-1.5-1.5m-5.95 1.25a1.5 1.5 0 0 1 1.5-1.5 1.5 1.5 0 0 1 1.5 1.5 1.5 1.5 0 0 1-1.5 1.5 1.5 1.5 0 0 1-1.5-1.5v-.03m-5.94 1.27a1.5 1.5 0 0 1 1.5-1.5 1.5 1.5 0 0 1 1.5 1.5 1.5 1.5 0 0 1-1.5 1.5 1.5 1.5 0 0 1-1.5-1.5v-.02m-5.94 1.26a1.5 1.5 0 0 1 1.5-1.5 1.5 1.5 0 0 1 1.5 1.5 1.5 1.5 0 0 1-1.5 1.5 1.5 1.5 0 0 1-1.5-1.5v-.03m-5.94 1.27a1.5 1.5 0 0 1 1.5-1.5 1.5 1.5 0 0 1 1.5 1.5 1.5 1.5 0 0 1-1.5 1.5 1.5 1.5 0 0 1-1.5-1.5v-.03m-5.95 1.27a1.5 1.5 0 0 1 1.5-1.5 1.5 1.5 0 0 1 1.5 1.5 1.5 1.5 0 0 1-1.5 1.5 1.5 1.5 0 0 1-1.5-1.5v-.02m-5.94 1.26a1.5 1.5 0 0 1 1.5-1.5 1.5 1.5 0 0 1 1.5 1.5 1.5 1.5 0 0 1-1.5 1.5 1.5 1.5 0 0 1-1.5-1.5v-.03m-5.95 1.27a1.5 1.5 0 0 1 1.5-1.5 1.5 1.5 0 0 1 1.5 1.5 1.5 1.5 0 0 1-1.5 1.5 1.5 1.5 0 0 1-1.5-1.5v-.03m-5.94 1.27a1.5 1.5 0 0 1 1.5-1.5 1.5 1.5 0 0 1 1.5 1.5 1.5 1.5 0 0 1-1.5 1.5 1.5 1.5 0 0 1-1.5-1.5v-.02m-5.94 1.26a1.5 1.5 0 0 1 1.5-1.5 1.5 1.5 0 0 1 1.5 1.5 1.5 1.5 0 0 1-1.5 1.5 1.5 1.5 0 0 1-1.5-1.5v-.03m-5.95 1.27a1.5 1.5 0 0 1 1.5-1.5 1.5 1.5 0 0 1 1.5 1.5 1.5 1.5 0 0 1-1.5 1.5 1.5 1.5 0 0 1-1.5-1.5v-.03m-5.95 1.27a1.5 1.5 0 0 1 1.5-1.5 1.5 1.5 0 0 1 1.5 1.5 1.5 1.5 0 0 1-1.5 1.5 1.5 1.5 0 0 1-1.5-1.5v-.02m-5.94 1.26a1.5 1.5 0 0 1 1.5-1.5 1.5 1.5 0 0 1 1.5 1.5 1.5 1.5 0 0 1-1.5 1.5 1.5 1.5 0 0 1-1.5-1.5v-.03m-5.94 1.27a1.5 1.5 0 0 1 1.5-1.5 1.5 1.5 0 0 1 1.5 1.5 1.5 1.5 0 0 1-1.5 1.5 1.5 1.5 0 0 1-1.5-1.5v-.02m-5.95 1.26a1.5 1.5 0 0 1 1.5-1.5 1.5 1.5 0 0 1 1.5 1.5 1.5 1.5 0 0 1-1.5 1.5 1.5 1.5 0 0 1-1.5-1.5v-.02m-5.94 1.26a1.5 1.5 0 0 1 1.5-1.5 1.5 1.5 0 0 1 1.5 1.5 1.5 1.5 0 0 1-1.5 1.5 1.5 1.5 0 0 1-1.5-1.5v-.03m-5.95 1.28v-.02a1.5 1.5 0 0 1 1.5-1.5 1.5 1.5 0 0 1 1.5 1.5 1.5 1.5 0 0 1-1.5 1.5 1.5 1.5 0 0 1-1.5-1.5m-5.94 1.25a1.5 1.5 0 0 1 1.5-1.5 1.5 1.5 0 0 1 1.5 1.5 1.5 1.5 0 0 1-1.5 1.5 1.5 1.5 0 0 1-1.5-1.5v-.02m-5.95 1.26a1.5 1.5 0 0 1 1.5-1.5 1.5 1.5 0 0 1 1.5 1.5 1.5 1.5 0 0 1-1.5 1.5 1.5 1.5 0 0 1-1.5-1.5V575m-5.95 1.28v-.02a1.5 1.5 0 0 1 1.5-1.5 1.5 1.5 0 0 1 1.5 1.5 1.5 1.5 0 0 1-1.5 1.5 1.5 1.5 0 0 1-1.5-1.5m-5.95 1.25a1.5 1.5 0 0 1 1.5-1.5 1.5 1.5 0 0 1 1.5 1.5 1.5 1.5 0 0 1-1.5 1.5 1.5 1.5 0 0 1-1.5-1.5v-.02m-5.94 1.26a1.5 1.5 0 0 1 1.5-1.5 1.5 1.5 0 0 1 1.5 1.5 1.5 1.5 0 0 1-1.5 1.5 1.5 1.5 0 0 1-1.5-1.5v-.03M545.9 580v-.02a1.5 1.5 0 0 1 1.5-1.5 1.5 1.5 0 0 1 1.5 1.5 1.5 1.5 0 0 1-1.5 1.5 1.5 1.5 0 0 1-1.5-1.5m-5.93 1.25a1.5 1.5 0 0 1 1.5-1.5 1.5 1.5 0 0 1 1.5 1.5 1.5 1.5 0 0 1-1.5 1.5 1.5 1.5 0 0 1-1.5-1.5v-.02" fill="#008a0e"/><path d="M735.25 541l-13.03 7.42-1.88-9.07z" stroke="#008a0e" stroke-width="3" fill="#fff"/><path d="M541.8 582.63l-4.44.92-.42-2.05h4.63z" stroke="#008a0e" stroke-width=".05" fill="#008a0e"/><path d="M741.7 538.32l2.93-.7m3.9-.94l5.88-1.4m3.92-.94l5.87-1.4m3.9-.94l5.87-1.4m3.9-.94l5.87-1.4m3.9-.94l5.88-1.4m3.9-.94l5.88-1.4m3.9-.94l5.88-1.4m3.9-.94l5.87-1.4m3.9-.94l5.88-1.4m3.9-.94l5.88-1.4m3.92-.94l5.86-1.4m3.9-.94l2.95-.7" stroke="#3a414a" stroke-width="2" fill="none"/><path d="M741.8 538.64l-1.74-.14h-2.43l-.05-.2 3.92-.93zM860 511l-.77.2-.45-1.9 1.22-.3z" stroke="#3a414a" stroke-width=".05" fill="#3a414a"/><path d="M860 626a6 6 0 0 1 6-6h128a6 6 0 0 1 6 6v108a6 6 0 0 1-6 6H866a6 6 0 0 1-6-6z" stroke="#000" stroke-opacity="0" stroke-width="3" fill="#fff" fill-opacity="0"/><g><use xlink:href="#x" transform="matrix(1,0,0,1,865,625) translate(39.8888888888889 28.208333333333325)"/><use xlink:href="#y" transform="matrix(1,0,0,1,865,625) translate(17.629629629629648 60.208333333333314)"/><use xlink:href="#z" transform="matrix(1,0,0,1,865,625) translate(22.81481481481483 92.2083333333333)"/></g><defs><path d="M127-220V0H93v-220H8v-28h204v28h-85" id="A"/><path d="M106-169C34-169 62-67 57 0H25v-261h32l-1 103c12-21 28-36 61-36 89 0 53 116 60 194h-32v-121c2-32-8-49-39-48" id="B"/><path d="M100-194c63 0 86 42 84 106H49c0 40 14 67 53 68 26 1 43-12 49-29l28 8c-11 28-37 45-77 45C44 4 14-33 15-96c1-61 26-98 85-98zm52 81c6-60-76-77-97-28-3 7-6 17-6 28h103" id="C"/><g id="a"><use transform="matrix(0.07407407407407404,0,0,0.07407407407407404,0,0)" xlink:href="#A"/><use transform="matrix(0.07407407407407404,0,0,0.07407407407407404,16.222222222222214,0)" xlink:href="#B"/><use transform="matrix(0.07407407407407404,0,0,0.07407407407407404,31.037037037037024,0)" xlink:href="#C"/></g><path d="M87-220l-18 92h140l-5 28H64L45 0H11l48-248h178l-5 28H87" id="D"/><path d="M165-48c-4 18 1 34 23 27l-3 20c-29 8-62 0-52-35h-2C116-14 99 4 63 4 30 4 8-16 8-49c0-68 71-67 138-67 10-26 0-56-31-54-26 1-42 9-47 31l-32-5c8-67 160-71 144 15-5 28-9 54-15 81zM42-50c3 52 80 24 89-6 7-12 7-24 11-38-47 1-103-4-100 44" id="E"/><path d="M44-68c0 29 11 47 38 47 30 0 42-19 51-41l28 9C148-21 126 4 82 4 31 4 10-29 12-85c3-77 74-140 146-93 12 8 15 23 18 40l-31 5c-1-22-13-36-36-36-52 0-65 49-65 101" id="F"/><path d="M133-28C103 26-5 8 13-77c13-62 24-115 90-117 29-1 46 15 56 35l19-102h32L160 0h-30zM45-64c-2 27 10 43 35 43 54-1 69-50 69-103 0-29-15-46-42-46-53-1-58 58-62 106" id="G"/><path d="M111-194c62-3 86 47 72 106H45c-7 38 6 69 45 68 27-1 43-14 53-32l24 11C152-15 129 4 87 4 38 3 12-23 12-71c0-70 32-119 99-123zm44 81c14-66-71-72-95-28-4 8-8 17-11 28h106" id="H"/><g id="b"><use transform="matrix(0.07407407407407404,0,0,0.07407407407407404,0,0)" xlink:href="#D"/><use transform="matrix(0.07407407407407404,0,0,0.07407407407407404,16.222222222222214,0)" xlink:href="#E"/><use transform="matrix(0.07407407407407404,0,0,0.07407407407407404,31.037037037037024,0)" xlink:href="#F"/><use transform="matrix(0.07407407407407404,0,0,0.07407407407407404,44.37037037037035,0)" xlink:href="#E"/><use transform="matrix(0.07407407407407404,0,0,0.07407407407407404,59.18518518518516,0)" xlink:href="#G"/><use transform="matrix(0.07407407407407404,0,0,0.07407407407407404,73.99999999999997,0)" xlink:href="#H"/></g><path d="M96-169c-40 0-48 33-48 73s9 75 48 75c24 0 41-14 43-38l32 2c-6 37-31 61-74 61-59 0-76-41-82-99-10-93 101-131 147-64 4 7 5 14 7 22l-32 3c-4-21-16-35-41-35" id="I"/><path d="M141-36C126-15 110 5 73 4 37 3 15-17 15-53c-1-64 63-63 125-63 3-35-9-54-41-54-24 1-41 7-42 31l-33-3c5-37 33-52 76-52 45 0 72 20 72 64v82c-1 20 7 32 28 27v20c-31 9-61-2-59-35zM48-53c0 20 12 33 32 33 41-3 63-29 60-74-43 2-92-5-92 41" id="J"/><path d="M117-194c89-4 53 116 60 194h-32v-121c0-31-8-49-39-48C34-167 62-67 57 0H25l-1-190h30c1 10-1 24 2 32 11-22 29-35 61-36" id="K"/><g id="c"><use transform="matrix(0.07407407407407404,0,0,0.07407407407407404,0,0)" xlink:href="#I"/><use transform="matrix(0.07407407407407404,0,0,0.07407407407407404,13.333333333333327,0)" xlink:href="#J"/><use transform="matrix(0.07407407407407404,0,0,0.07407407407407404,28.148148148148135,0)" xlink:href="#K"/></g><path d="M135-143c-3-34-86-38-87 0 15 53 115 12 119 90S17 21 10-45l28-5c4 36 97 45 98 0-10-56-113-15-118-90-4-57 82-63 122-42 12 7 21 19 24 35" id="L"/><path d="M59-47c-2 24 18 29 38 22v24C64 9 27 4 27-40v-127H5v-23h24l9-43h21v43h35v23H59v120" id="M"/><path d="M114-163C36-179 61-72 57 0H25l-1-190h30c1 12-1 29 2 39 6-27 23-49 58-41v29" id="N"/><g id="d"><use transform="matrix(0.07407407407407404,0,0,0.07407407407407404,0,0)" xlink:href="#L"/><use transform="matrix(0.07407407407407404,0,0,0.07407407407407404,13.333333333333327,0)" xlink:href="#M"/><use transform="matrix(0.07407407407407404,0,0,0.07407407407407404,20.740740740740733,0)" xlink:href="#J"/><use transform="matrix(0.07407407407407404,0,0,0.07407407407407404,35.555555555555536,0)" xlink:href="#N"/><use transform="matrix(0.07407407407407404,0,0,0.07407407407407404,44.370370370370345,0)" xlink:href="#M"/></g><g id="e"><use transform="matrix(0.07407407407407404,0,0,0.07407407407407404,0,0)" xlink:href="#M"/><use transform="matrix(0.07407407407407404,0,0,0.07407407407407404,7.407407407407404,0)" xlink:href="#B"/><use transform="matrix(0.07407407407407404,0,0,0.07407407407407404,22.222222222222214,0)" xlink:href="#C"/></g><path d="M84 4C-5 8 30-112 23-190h32v120c0 31 7 50 39 49 72-2 45-101 50-169h31l1 190h-30c-1-10 1-25-2-33-11 22-28 36-60 37" id="O"/><path d="M115-194c53 0 69 39 70 98 0 66-23 100-70 100C84 3 66-7 56-30L54 0H23l1-261h32v101c10-23 28-34 59-34zm-8 174c40 0 45-34 45-75 0-40-5-75-45-74-42 0-51 32-51 76 0 43 10 73 51 73" id="P"/><path d="M145-31C134-9 116 4 85 4 32 4 16-35 15-94c0-59 17-99 70-100 32-1 48 14 60 33 0-11-1-24 2-32h30l-1 268h-32zM93-21c41 0 51-33 51-76s-8-73-50-73c-40 0-46 35-46 75s5 74 45 74" id="Q"/><g id="f"><use transform="matrix(0.07407407407407404,0,0,0.07407407407407404,0,0)" xlink:href="#L"/><use transform="matrix(0.07407407407407404,0,0,0.07407407407407404,13.333333333333327,0)" xlink:href="#O"/><use transform="matrix(0.07407407407407404,0,0,0.07407407407407404,28.148148148148135,0)" xlink:href="#P"/><use transform="matrix(0.07407407407407404,0,0,0.07407407407407404,42.96296296296295,0)" xlink:href="#N"/><use transform="matrix(0.07407407407407404,0,0,0.07407407407407404,51.77777777777775,0)" xlink:href="#C"/><use transform="matrix(0.07407407407407404,0,0,0.07407407407407404,66.59259259259255,0)" xlink:href="#Q"/><use transform="matrix(0.07407407407407404,0,0,0.07407407407407404,81.40740740740736,0)" xlink:href="#O"/><use transform="matrix(0.07407407407407404,0,0,0.07407407407407404,96.22222222222216,0)" xlink:href="#C"/><use transform="matrix(0.07407407407407404,0,0,0.07407407407407404,111.037037037037,0)" xlink:href="#L"/><use transform="matrix(0.07407407407407404,0,0,0.07407407407407404,124.37037037037031,0)" xlink:href="#M"/><use transform="matrix(0.07407407407407404,0,0,0.07407407407407404,131.77777777777771,0)" xlink:href="#L"/></g><path d="M24-231v-30h32v30H24zM24 0v-190h32V0H24" id="R"/><path d="M210-169c-67 3-38 105-44 169h-31v-121c0-29-5-50-35-48C34-165 62-65 56 0H25l-1-190h30c1 10-1 24 2 32 10-44 99-50 107 0 11-21 27-35 58-36 85-2 47 119 55 194h-31v-121c0-29-5-49-35-48" id="S"/><path d="M24 0v-261h32V0H24" id="T"/><path d="M100-194c62-1 85 37 85 99 1 63-27 99-86 99S16-35 15-95c0-66 28-99 85-99zM99-20c44 1 53-31 53-75 0-43-8-75-51-75s-53 32-53 75 10 74 51 75" id="U"/><path d="M179-190L93 31C79 59 56 82 12 73V49c39 6 53-20 64-50L1-190h34L92-34l54-156h33" id="V"/><g id="g"><use transform="matrix(0.07407407407407404,0,0,0.07407407407407404,0,0)" xlink:href="#L"/><use transform="matrix(0.07407407407407404,0,0,0.07407407407407404,13.333333333333327,0)" xlink:href="#R"/><use transform="matrix(0.07407407407407404,0,0,0.07407407407407404,19.185185185185176,0)" xlink:href="#S"/><use transform="matrix(0.07407407407407404,0,0,0.07407407407407404,41.333333333333314,0)" xlink:href="#O"/><use transform="matrix(0.07407407407407404,0,0,0.07407407407407404,56.148148148148124,0)" xlink:href="#T"/><use transform="matrix(0.07407407407407404,0,0,0.07407407407407404,61.99999999999997,0)" xlink:href="#M"/><use transform="matrix(0.07407407407407404,0,0,0.07407407407407404,69.40740740740738,0)" xlink:href="#J"/><use transform="matrix(0.07407407407407404,0,0,0.07407407407407404,84.22222222222219,0)" xlink:href="#K"/><use transform="matrix(0.07407407407407404,0,0,0.07407407407407404,99.037037037037,0)" xlink:href="#C"/><use transform="matrix(0.07407407407407404,0,0,0.07407407407407404,113.8518518518518,0)" xlink:href="#U"/><use transform="matrix(0.07407407407407404,0,0,0.07407407407407404,128.6666666666666,0)" xlink:href="#O"/><use transform="matrix(0.07407407407407404,0,0,0.07407407407407404,143.4814814814814,0)" xlink:href="#L"/><use transform="matrix(0.07407407407407404,0,0,0.07407407407407404,156.81481481481472,0)" xlink:href="#T"/><use transform="matrix(0.07407407407407404,0,0,0.07407407407407404,162.66666666666657,0)" xlink:href="#V"/></g><path d="M33 0v-38h34V0H33" id="W"/><g id="h"><use transform="matrix(0.07407407407407404,0,0,0.07407407407407404,0,0)" xlink:href="#W"/><use transform="matrix(0.07407407407407404,0,0,0.07407407407407404,7.407407407407404,0)" xlink:href="#W"/><use transform="matrix(0.07407407407407404,0,0,0.07407407407407404,14.814814814814808,0)" xlink:href="#W"/></g><linearGradient gradientUnits="userSpaceOnUse" id="i" x1="500" y1="740.5" x2="500" y2="620.5"><stop offset="19.2%" stop-color="#ced4db"/><stop offset="26.45%" stop-color="#fff"/><stop offset="45.29%" stop-color="#fff"/><stop offset="52.54%" stop-color="#cfe4ff"/></linearGradient><path d="M185-189c-5-48-123-54-124 2 14 75 158 14 163 119 3 78-121 87-175 55-17-10-28-26-33-46l33-7c5 56 141 63 141-1 0-78-155-14-162-118-5-82 145-84 179-34 5 7 8 16 11 25" id="X"/><path d="M108 0H70L1-190h34L89-25l56-165h34" id="Y"/><g id="j"><use transform="matrix(0.06790123456790123,0,0,0.06790123456790123,0,0)" xlink:href="#X"/><use transform="matrix(0.06790123456790123,0,0,0.06790123456790123,16.296296296296294,0)" xlink:href="#C"/><use transform="matrix(0.06790123456790123,0,0,0.06790123456790123,29.87654320987654,0)" xlink:href="#N"/><use transform="matrix(0.06790123456790123,0,0,0.06790123456790123,37.95679012345679,0)" xlink:href="#Y"/><use transform="matrix(0.06790123456790123,0,0,0.06790123456790123,50.179012345679,0)" xlink:href="#R"/><use transform="matrix(0.06790123456790123,0,0,0.06790123456790123,55.5432098765432,0)" xlink:href="#I"/><use transform="matrix(0.06790123456790123,0,0,0.06790123456790123,67.76543209876542,0)" xlink:href="#C"/></g><path d="M205 0l-28-72H64L36 0H1l101-248h38L239 0h-34zm-38-99l-47-123c-12 45-31 82-46 123h93" id="Z"/><use transform="matrix(0.06790123456790123,0,0,0.06790123456790123,0,0)" xlink:href="#Z" id="k"/><linearGradient gradientUnits="userSpaceOnUse" id="l" x1="600" y1="740.5" x2="600" y2="620.5"><stop offset="19.2%" stop-color="#ced4db"/><stop offset="26.45%" stop-color="#fff"/><stop offset="45.29%" stop-color="#fff"/><stop offset="52.54%" stop-color="#cfe4ff"/></linearGradient><path d="M160-131c35 5 61 23 61 61C221 17 115-2 30 0v-248c76 3 177-17 177 60 0 33-19 50-47 57zm-97-11c50-1 110 9 110-42 0-47-63-36-110-37v79zm0 115c55-2 124 14 124-45 0-56-70-42-124-44v89" id="aa"/><use transform="matrix(0.06790123456790123,0,0,0.06790123456790123,0,0)" xlink:href="#aa" id="m"/><linearGradient gradientUnits="userSpaceOnUse" id="n" x1="700" y1="740.5" x2="700" y2="620.5"><stop offset="19.2%" stop-color="#ced4db"/><stop offset="26.45%" stop-color="#fff"/><stop offset="45.29%" stop-color="#fff"/><stop offset="52.54%" stop-color="#cfe4ff"/></linearGradient><g id="o"><use transform="matrix(0.06790123456790123,0,0,0.06790123456790123,0,0)" xlink:href="#X"/><use transform="matrix(0.06790123456790123,0,0,0.06790123456790123,16.296296296296294,0)" xlink:href="#C"/><use transform="matrix(0.06790123456790123,0,0,0.06790123456790123,29.87654320987654,0)" xlink:href="#N"/><use transform="matrix(0.06790123456790123,0,0,0.06790123456790123,37.95679012345679,0)" xlink:href="#Y"/><use transform="matrix(0.06790123456790123,0,0,0.06790123456790123,50.179012345679,0)" xlink:href="#R"/><use transform="matrix(0.06790123456790123,0,0,0.06790123456790123,55.5432098765432,0)" xlink:href="#I"/><use transform="matrix(0.06790123456790123,0,0,0.06790123456790123,67.76543209876542,0)" xlink:href="#C"/></g><path d="M212-179c-10-28-35-45-73-45-59 0-87 40-87 99 0 60 29 101 89 101 43 0 62-24 78-52l27 14C228-24 195 4 139 4 59 4 22-46 18-125c-6-104 99-153 187-111 19 9 31 26 39 46" id="ab"/><use transform="matrix(0.06790123456790123,0,0,0.06790123456790123,0,0)" xlink:href="#ab" id="p"/><g id="q"><use transform="matrix(0.06790123456790123,0,0,0.06790123456790123,0,0)" xlink:href="#ab"/><use transform="matrix(0.06790123456790123,0,0,0.06790123456790123,17.586419753086417,0)" xlink:href="#T"/><use transform="matrix(0.06790123456790123,0,0,0.06790123456790123,22.950617283950614,0)" xlink:href="#R"/><use transform="matrix(0.06790123456790123,0,0,0.06790123456790123,28.31481481481481,0)" xlink:href="#C"/><use transform="matrix(0.06790123456790123,0,0,0.06790123456790123,41.895061728395056,0)" xlink:href="#K"/><use transform="matrix(0.06790123456790123,0,0,0.06790123456790123,55.4753086419753,0)" xlink:href="#M"/></g><path d="M63-220v92h138v28H63V0H30v-248h175v28H63" id="ac"/><path d="M85-194c31 0 48 13 60 33l-1-100h32l1 261h-30c-2-10 0-23-3-31C134-8 116 4 85 4 32 4 16-35 15-94c0-66 23-100 70-100zm9 24c-40 0-46 34-46 75 0 40 6 74 45 74 42 0 51-32 51-76 0-42-9-74-50-73" id="ad"/><g id="r"><use transform="matrix(0.06790123456790123,0,0,0.06790123456790123,0,0)" xlink:href="#ac"/><use transform="matrix(0.06790123456790123,0,0,0.06790123456790123,14.87037037037037,0)" xlink:href="#J"/><use transform="matrix(0.06790123456790123,0,0,0.06790123456790123,28.450617283950617,0)" xlink:href="#I"/><use transform="matrix(0.06790123456790123,0,0,0.06790123456790123,40.672839506172835,0)" xlink:href="#J"/><use transform="matrix(0.06790123456790123,0,0,0.06790123456790123,54.25308641975308,0)" xlink:href="#ad"/><use transform="matrix(0.06790123456790123,0,0,0.06790123456790123,67.83333333333333,0)" xlink:href="#C"/></g><g id="s"><use transform="matrix(0.07407407407407404,0,0,0.07407407407407404,0,0)" xlink:href="#W"/><use transform="matrix(0.07407407407407404,0,0,0.07407407407407404,7.407407407407404,0)" xlink:href="#W"/><use transform="matrix(0.07407407407407404,0,0,0.07407407407407404,14.814814814814808,0)" xlink:href="#W"/></g><g id="t"><use transform="matrix(0.07407407407407404,0,0,0.07407407407407404,0,0)" xlink:href="#J"/><use transform="matrix(0.07407407407407404,0,0,0.07407407407407404,14.814814814814808,0)" xlink:href="#K"/><use transform="matrix(0.07407407407407404,0,0,0.07407407407407404,29.629629629629616,0)" xlink:href="#ad"/></g><path d="M177-190C167-65 218 103 67 71c-23-6-38-20-44-43l32-5c15 47 100 32 89-28v-30C133-14 115 1 83 1 29 1 15-40 15-95c0-56 16-97 71-98 29-1 48 16 59 35 1-10 0-23 2-32h30zM94-22c36 0 50-32 50-73 0-42-14-75-50-75-39 0-46 34-46 75s6 73 46 73" id="ae"/><g id="u"><use transform="matrix(0.07407407407407404,0,0,0.07407407407407404,0,0)" xlink:href="#J"/><use transform="matrix(0.07407407407407404,0,0,0.07407407407407404,14.814814814814808,0)" xlink:href="#ae"/><use transform="matrix(0.07407407407407404,0,0,0.07407407407407404,29.629629629629616,0)" xlink:href="#ae"/><use transform="matrix(0.07407407407407404,0,0,0.07407407407407404,44.44444444444443,0)" xlink:href="#N"/><use transform="matrix(0.07407407407407404,0,0,0.07407407407407404,53.25925925925923,0)" xlink:href="#C"/><use transform="matrix(0.07407407407407404,0,0,0.07407407407407404,68.07407407407403,0)" xlink:href="#ae"/><use transform="matrix(0.07407407407407404,0,0,0.07407407407407404,82.88888888888884,0)" xlink:href="#J"/><use transform="matrix(0.07407407407407404,0,0,0.07407407407407404,97.70370370370364,0)" xlink:href="#M"/><use transform="matrix(0.07407407407407404,0,0,0.07407407407407404,105.11111111111104,0)" xlink:href="#C"/></g><g id="v"><use transform="matrix(0.07407407407407404,0,0,0.07407407407407404,0,0)" xlink:href="#M"/><use transform="matrix(0.07407407407407404,0,0,0.07407407407407404,7.407407407407404,0)" xlink:href="#B"/><use transform="matrix(0.07407407407407404,0,0,0.07407407407407404,22.222222222222214,0)" xlink:href="#C"/></g><g id="w"><use transform="matrix(0.07407407407407404,0,0,0.07407407407407404,0,0)" xlink:href="#N"/><use transform="matrix(0.07407407407407404,0,0,0.07407407407407404,8.814814814814811,0)" xlink:href="#C"/><use transform="matrix(0.07407407407407404,0,0,0.07407407407407404,23.62962962962962,0)" xlink:href="#L"/><use transform="matrix(0.07407407407407404,0,0,0.07407407407407404,36.96296296296295,0)" xlink:href="#O"/><use transform="matrix(0.07407407407407404,0,0,0.07407407407407404,51.77777777777776,0)" xlink:href="#T"/><use transform="matrix(0.07407407407407404,0,0,0.07407407407407404,57.629629629629605,0)" xlink:href="#M"/><use transform="matrix(0.07407407407407404,0,0,0.07407407407407404,65.03703703703701,0)" xlink:href="#L"/></g><g id="x"><use transform="matrix(0.07407407407407404,0,0,0.07407407407407404,0,0)" xlink:href="#A"/><use transform="matrix(0.07407407407407404,0,0,0.07407407407407404,16.222222222222214,0)" xlink:href="#B"/><use transform="matrix(0.07407407407407404,0,0,0.07407407407407404,31.037037037037024,0)" xlink:href="#R"/><use transform="matrix(0.07407407407407404,0,0,0.07407407407407404,36.88888888888887,0)" xlink:href="#L"/></g><g id="y"><use transform="matrix(0.07407407407407404,0,0,0.07407407407407404,0,0)" xlink:href="#N"/><use transform="matrix(0.07407407407407404,0,0,0.07407407407407404,8.814814814814811,0)" xlink:href="#C"/><use transform="matrix(0.07407407407407404,0,0,0.07407407407407404,23.62962962962962,0)" xlink:href="#ad"/><use transform="matrix(0.07407407407407404,0,0,0.07407407407407404,38.44444444444443,0)" xlink:href="#O"/><use transform="matrix(0.07407407407407404,0,0,0.07407407407407404,53.25925925925924,0)" xlink:href="#I"/><use transform="matrix(0.07407407407407404,0,0,0.07407407407407404,66.59259259259257,0)" xlink:href="#C"/><use transform="matrix(0.07407407407407404,0,0,0.07407407407407404,81.40740740740738,0)" xlink:href="#L"/></g><g id="z"><use transform="matrix(0.07407407407407404,0,0,0.07407407407407404,0,0)" xlink:href="#T"/><use transform="matrix(0.07407407407407404,0,0,0.07407407407407404,5.851851851851849,0)" xlink:href="#J"/><use transform="matrix(0.07407407407407404,0,0,0.07407407407407404,20.666666666666657,0)" xlink:href="#M"/><use transform="matrix(0.07407407407407404,0,0,0.07407407407407404,28.074074074074062,0)" xlink:href="#C"/><use transform="matrix(0.07407407407407404,0,0,0.07407407407407404,42.88888888888887,0)" xlink:href="#K"/><use transform="matrix(0.07407407407407404,0,0,0.07407407407407404,57.70370370370368,0)" xlink:href="#I"/><use transform="matrix(0.07407407407407404,0,0,0.07407407407407404,71.03703703703701,0)" xlink:href="#V"/></g></defs></g></svg>