<svg xmlns="http://www.w3.org/2000/svg" xmlns:xlink="http://www.w3.org/1999/xlink" xmlns:lucid="lucid" width="943" height="223.5"><g transform="translate(-518.5 -558.5)" lucid:page-tab-id="0_0"><path d="M760 680.5a20 20 0 0 1 20-20h20a20 20 0 0 1 20 20v80a20 20 0 0 1-20 20h-20a20 20 0 0 1-20-20z" stroke="#000" stroke-width="3" fill="url(#a)"/><path d="M860 680.5a20 20 0 0 1 20-20h20a20 20 0 0 1 20 20v80a20 20 0 0 1-20 20h-20a20 20 0 0 1-20-20z" stroke="#000" stroke-width="3" fill="url(#b)"/><path d="M960 680.5a20 20 0 0 1 20-20h20a20 20 0 0 1 20 20v80a20 20 0 0 1-20 20h-20a20 20 0 0 1-20-20z" stroke="#000" stroke-width="3" fill="url(#c)"/><path d="M760 580a20 20 0 0 1 20-20h320a20 20 0 0 1 20 20 20 20 0 0 1-20 20H780a20 20 0 0 1-20-20z" stroke="#000" stroke-width="3" fill="#e8e2c8"/><use xlink:href="#d" transform="matrix(1,0,0,1,765,565) translate(143.87228395061726 21.430555555555557)"/><path d="M782.67 602.5v41.84M778.67 602.5v41.84" stroke="#ba23f6" stroke-width="2" fill="none"/><path d="M783.64 602.53h-1.95v-1.03h1.94zM779.64 601.48v1.05h-1.95v-1.2z" stroke="#ba23f6" stroke-width=".05" fill="#ba23f6"/><path d="M790.67 639.18l-10 17.32-10-17.32m10 17.32V648M998.73 658.05v-42.4M1002.73 658.05v-42.4" stroke="#ba23f6" stroke-width="2" fill="none"/><path d="M999.7 658.03v.97h-1.95v-.97zM1003.7 658.03v1.3l-.34-.07-1.6-.13v-1.1z" stroke="#ba23f6" stroke-width=".05" fill="#ba23f6"/><path d="M990.73 620.82l10-17.32 10 17.32m-10-17.32v8.5M822.5 719.33h21.84M822.5 723.33h21.84" stroke="#ba23f6" stroke-width="2" fill="none"/><path d="M822.53 720.3h-1.03v-1.94h1.03zM822.53 724.3h-1.03v-1.94h1.03z" stroke="#ba23f6" stroke-width=".05" fill="#ba23f6"/><path d="M839.18 711.33l17.32 10-17.32 10m17.32-10H848M922.5 718.5h21.84M922.5 722.5h21.84" stroke="#ba23f6" stroke-width="2" fill="none"/><path d="M922.53 719.48h-1.03v-1.96h1.03zM922.53 723.48h-1.03v-1.96h1.03z" stroke="#ba23f6" stroke-width=".05" fill="#ba23f6"/><path d="M939.18 710.5l17.32 10-17.32 10m17.32-10H948" stroke="#ba23f6" stroke-width="2" fill="none"/><path d="M1200 566a6 6 0 0 1 6-6h248a6 6 0 0 1 6 6v88.5a6 6 0 0 1-6 6h-248a6 6 0 0 1-6-6z" stroke="#000" stroke-opacity="0" stroke-width="3" fill="#fff" fill-opacity="0"/><use xlink:href="#e" transform="matrix(1,0,0,1,1205,565) translate(8.345679012345741 22.399305555555546)"/><use xlink:href="#f" transform="matrix(1,0,0,1,1205,565) translate(70.81481481481484 22.399305555555546)"/><use xlink:href="#g" transform="matrix(1,0,0,1,1205,565) translate(161.59876543209873 22.399305555555546)"/><use xlink:href="#h" transform="matrix(1,0,0,1,1205,565) translate(48.98456790123461 51.73263888888887)"/><use xlink:href="#i" transform="matrix(1,0,0,1,1205,565) translate(30.719135802469197 81.06597222222219)"/><use xlink:href="#j" transform="matrix(1,0,0,1,1205,565) translate(129.78703703703704 81.06597222222219)"/><path d="M520 626a6 6 0 0 1 6-6h148a6 6 0 0 1 6 6v128a6 6 0 0 1-6 6H526a6 6 0 0 1-6-6z" stroke="#000" stroke-opacity="0" stroke-width="3" fill="#fff" fill-opacity="0"/><use xlink:href="#k" transform="matrix(1,0,0,1,525,625) translate(25.50000000000003 27.680555555555546)"/><use xlink:href="#l" transform="matrix(1,0,0,1,525,625) translate(47.22839506172841 27.680555555555546)"/><use xlink:href="#m" transform="matrix(1,0,0,1,525,625) translate(1.0555555555555998 57.01388888888887)"/><use xlink:href="#n" transform="matrix(1,0,0,1,525,625) translate(53.950617283950635 57.01388888888887)"/><use xlink:href="#o" transform="matrix(1,0,0,1,525,625) translate(106.91358024691357 57.01388888888887)"/><use xlink:href="#p" transform="matrix(1,0,0,1,525,625) translate(20.16975308641978 86.34722222222219)"/><use xlink:href="#q" transform="matrix(1,0,0,1,525,625) translate(45.90432098765434 86.34722222222219)"/><use xlink:href="#r" transform="matrix(1,0,0,1,525,625) translate(26.891975308642003 115.68055555555551)"/><path d="M890.2 720.66l-2.98-.44m-3.98-.58l-5.98-.87m-4-.58l-5.96-.9m-4-.57l-5.97-.87m-3.98-.58l-5.98-.87m-4-.57l-5.96-.88m-3.98-.58l-5.98-.87m-3.98-.58l-5.98-.87m-3.98-.58l-5.98-.87m-4-.6l-5.97-.86m-3.98-.58l-5.98-.87m-4-.6l-5.97-.86m-4-.58l-5.96-.88m-4-.58l-5.97-.87m-3.98-.58l-5.98-.87m-3.98-.58l-5.98-.87m-4-.58l-5.96-.88m-4-.58l-5.97-.88m-3.98-.58l-5.98-.87m-4-.58l-5.97-.9m-4-.57l-5.97-.87m-3.98-.58l-3-.44M890.18 720.65l1.02.15" stroke="#3a414a" stroke-width="2" fill="none"/><path d="M681.16 689.18l-.3 1.93-.86-.12V689z" stroke="#3a414a" stroke-width=".05" fill="#3a414a"/><path d="M1060 680.5a20 20 0 0 1 20-20h20a20 20 0 0 1 20 20v80a20 20 0 0 1-20 20h-20a20 20 0 0 1-20-20z" stroke="#000" stroke-width="3" fill="url(#s)"/><path d="M1103.04 602.42v42.5M1099.04 602.42v42.5" stroke="#635dff" stroke-width="2" fill="none"/><path d="M1104 602.45h-1.94v-1.1l1.3-.1.65-.17zM1100 602.45h-1.94v-.95h1.95z" stroke="#635dff" stroke-width=".05" fill="#635dff"/><path d="M1111.04 639.76l-10 17.32-10-17.32m10 17.32v-8.5M1059 742h-24.84M1059 738h-24.84M1058.97 742h1.03M1058.97 738h1.03M1039.32 750L1022 740l17.32-10M1022 740h8.5M959.03 742l-23.35.32M958.97 738l-23.34.32M959 742h1.03M958.95 738h1.02M940.95 750.25l-17.45-9.78 17.2-10.22m-17.2 10.22l8.5-.1M877.5 659v-43.34M881.5 659v-43.34M877.5 658.97V660M881.5 658.97V660M869.5 620.82l10-17.32 10 17.32m-10-17.32v8.5" stroke="#635dff" stroke-width="2" fill="none"/><path d="M903.5 602.5v42.45M899.5 602.5v42.45" stroke="#54c45e" stroke-width="2" fill="none"/><path d="M904.48 602.53h-1.96v-1.03h1.96zM900.48 602.53h-1.96v-1.03h1.96z" stroke="#54c45e" stroke-width=".05" fill="#54c45e"/><path d="M911.5 639.8l-10 17.3-10-17.3m10 17.3v-8.5M922.5 698.5h21.84M922.5 702.5h21.84" stroke="#54c45e" stroke-width="2" fill="none"/><path d="M922.53 697.52v1.96h-1.03v-1.96zM922.53 701.52v1.96h-1.03v-1.96z" stroke="#54c45e" stroke-width=".05" fill="#54c45e"/><path d="M939.18 690.5l17.32 10-17.32 10m17.32-10H948M857.5 702h-21.84M857.5 698h-21.84" stroke="#54c45e" stroke-width="2" fill="none"/><path d="M858.5 701.02V703h-1.03V701zM858.5 697.02V699h-1.03V697z" stroke="#54c45e" stroke-width=".05" fill="#54c45e"/><path d="M840.82 710l-17.32-10 17.32-10m-17.32 10h8.5" stroke="#54c45e" stroke-width="2" fill="none"/><path d="M1022.3 738.6l2.42-1.73m3.22-2.32l4.82-3.5m3.22-2.3l4.82-3.5m3.22-2.32l4.82-3.48m3.22-2.33l4.82-3.48m3.22-2.32l4.82-3.5m3.22-2.3l4.82-3.5m3.22-2.32l4.82-3.5m3.22-2.3l4.82-3.5m3.22-2.32l4.82-3.48m3.22-2.32l4.82-3.5m3.22-2.3l4.82-3.5m3.22-2.32l4.82-3.5m3.22-2.3l4.82-3.5m3.22-2.32l4.82-3.48m3.22-2.32l4.82-3.5m3.22-2.3l4.82-3.5m3.22-2.32l4.82-3.5m3.22-2.3l4.82-3.5m3.22-2.32l4.82-3.48m3.22-2.33l4.82-3.5m3.22-2.3l4.82-3.5m3.22-2.32l2.4-1.74" stroke="#3a414a" stroke-width="2" fill="none"/><path d="M1022.9 739.4l-1.4 1V738l.26-.2zM1200 611.45l-.26.2-1.14-1.6 1.4-1z" stroke="#3a414a" stroke-width=".05" fill="#3a414a"/><path d="M959.44 700.15l2.76-1.03m3.7-1.38l5.52-2.07m3.7-1.38l5.5-2.07m3.7-1.38l5.53-2.07m3.7-1.37l5.52-2.06m3.68-1.38l5.53-2.06m3.7-1.38l5.52-2.07m3.7-1.38l5.52-2.06m3.68-1.37l5.53-2.07m3.7-1.38l5.52-2.06m3.7-1.38l5.52-2.07m3.68-1.37l5.53-2.07m3.7-1.38l5.52-2.06m3.68-1.4l5.54-2.06m3.68-1.38l5.53-2.06m3.7-1.38l5.52-2.07m3.68-1.37l5.53-2.07m3.7-1.37l5.52-2.06m3.7-1.38l5.52-2.08m3.68-1.38l5.53-2.06m3.7-1.38l5.53-2.07m3.7-1.38l5.52-2.06m3.68-1.4l5.53-2.06m3.7-1.37l5.52-2.07m3.7-1.38l5.5-2.06m3.7-1.38l5.53-2.07m3.7-1.37l2.76-1.03" stroke="#3a414a" stroke-width="2" fill="none"/><path d="M959.8 701.05l-1.3.5v-2.1l.62-.22zM1200 611.3l-.62.22-.68-1.82 1.3-.5z" stroke="#3a414a" stroke-width=".05" fill="#3a414a"/><path d="M1200 691a6 6 0 0 1 6-6h228a6 6 0 0 1 6 6v83a6 6 0 0 1-6 6h-228a6 6 0 0 1-6-6z" stroke="#000" stroke-opacity="0" stroke-width="3" fill="#fff" fill-opacity="0"/><g><use xlink:href="#t" transform="matrix(1,0,0,1,1205,690) translate(3.09876543209883 22.211805555555546)"/><use xlink:href="#u" transform="matrix(1,0,0,1,1205,690) translate(107.59876543209877 22.211805555555546)"/><use xlink:href="#v" transform="matrix(1,0,0,1,1205,690) translate(206.53086419753083 22.211805555555546)"/><use xlink:href="#w" transform="matrix(1,0,0,1,1205,690) translate(7.206790123456841 51.54513888888887)"/><use xlink:href="#x" transform="matrix(1,0,0,1,1205,690) translate(110.21296296296296 51.54513888888887)"/><use xlink:href="#y" transform="matrix(1,0,0,1,1205,690) translate(5.780864197530917 80.87847222222219)"/><use xlink:href="#z" transform="matrix(1,0,0,1,1205,690) translate(72.1882716049383 80.87847222222219)"/></g><path d="M941 732.5h2.98m3.97 0h5.95m3.97 0h5.95m3.97 0h5.95m3.97 0h5.95m3.97 0h5.95m3.96 0h5.96m3.97 0h5.94m3.97 0h5.96m3.97 0h5.96m3.95 0h5.96m3.98 0h5.95m3.97 0h5.95m3.97 0h5.96m3.97 0h5.95m3.97 0h5.95m3.97 0h5.95m3.96 0h5.97m3.97 0h5.95m3.96 0h5.96m3.96 0h5.96m3.97 0h5.96m3.97 0h5.96m3.95 0h5.96m3.98 0h5.95m3.97 0h5.95m3.97 0h2.98M941.03 732.5H940" stroke="#3a414a" stroke-width="2" fill="none"/><path d="M1200 733.48h-1.03v-1.96h1.03z" stroke="#3a414a" stroke-width=".05" fill="#3a414a"/><defs><linearGradient gradientUnits="userSpaceOnUse" id="a" x1="760" y1="780.5" x2="760" y2="660.5"><stop offset="19.2%" stop-color="#ced4db"/><stop offset="26.45%" stop-color="#fff"/><stop offset="45.29%" stop-color="#fff"/><stop offset="52.54%" stop-color="#cfe4ff"/></linearGradient><linearGradient gradientUnits="userSpaceOnUse" id="b" x1="860" y1="780.5" x2="860" y2="660.5"><stop offset="19.2%" stop-color="#ced4db"/><stop offset="26.45%" stop-color="#fff"/><stop offset="45.29%" stop-color="#fff"/><stop offset="52.54%" stop-color="#cfe4ff"/></linearGradient><linearGradient gradientUnits="userSpaceOnUse" id="c" x1="960" y1="780.5" x2="960" y2="660.5"><stop offset="19.2%" stop-color="#ced4db"/><stop offset="26.45%" stop-color="#fff"/><stop offset="45.29%" stop-color="#fff"/><stop offset="52.54%" stop-color="#cfe4ff"/></linearGradient><path d="M212-179c-10-28-35-45-73-45-59 0-87 40-87 99 0 60 29 101 89 101 43 0 62-24 78-52l27 14C228-24 195 4 139 4 59 4 22-46 18-125c-6-104 99-153 187-111 19 9 31 26 39 46" id="A"/><path d="M24 0v-261h32V0H24" id="B"/><path d="M24-231v-30h32v30H24zM24 0v-190h32V0H24" id="C"/><path d="M100-194c63 0 86 42 84 106H49c0 40 14 67 53 68 26 1 43-12 49-29l28 8c-11 28-37 45-77 45C44 4 14-33 15-96c1-61 26-98 85-98zm52 81c6-60-76-77-97-28-3 7-6 17-6 28h103" id="D"/><path d="M117-194c89-4 53 116 60 194h-32v-121c0-31-8-49-39-48C34-167 62-67 57 0H25l-1-190h30c1 10-1 24 2 32 11-22 29-35 61-36" id="E"/><path d="M59-47c-2 24 18 29 38 22v24C64 9 27 4 27-40v-127H5v-23h24l9-43h21v43h35v23H59v120" id="F"/><g id="d"><use transform="matrix(0.06790123456790123,0,0,0.06790123456790123,0,0)" xlink:href="#A"/><use transform="matrix(0.06790123456790123,0,0,0.06790123456790123,17.586419753086417,0)" xlink:href="#B"/><use transform="matrix(0.06790123456790123,0,0,0.06790123456790123,22.950617283950614,0)" xlink:href="#C"/><use transform="matrix(0.06790123456790123,0,0,0.06790123456790123,28.31481481481481,0)" xlink:href="#D"/><use transform="matrix(0.06790123456790123,0,0,0.06790123456790123,41.895061728395056,0)" xlink:href="#E"/><use transform="matrix(0.06790123456790123,0,0,0.06790123456790123,55.4753086419753,0)" xlink:href="#F"/></g><path d="M30 0v-248h187v28H63v79h144v27H63v87h162V0H30" id="G"/><path d="M141-36C126-15 110 5 73 4 37 3 15-17 15-53c-1-64 63-63 125-63 3-35-9-54-41-54-24 1-41 7-42 31l-33-3c5-37 33-52 76-52 45 0 72 20 72 64v82c-1 20 7 32 28 27v20c-31 9-61-2-59-35zM48-53c0 20 12 33 32 33 41-3 63-29 60-74-43 2-92-5-92 41" id="H"/><path d="M96-169c-40 0-48 33-48 73s9 75 48 75c24 0 41-14 43-38l32 2c-6 37-31 61-74 61-59 0-76-41-82-99-10-93 101-131 147-64 4 7 5 14 7 22l-32 3c-4-21-16-35-41-35" id="I"/><path d="M106-169C34-169 62-67 57 0H25v-261h32l-1 103c12-21 28-36 61-36 89 0 53 116 60 194h-32v-121c2-32-8-49-39-48" id="J"/><g id="e"><use transform="matrix(0.0679012345679012,0,0,0.0679012345679012,0,0)" xlink:href="#G"/><use transform="matrix(0.0679012345679012,0,0,0.0679012345679012,16.29629629629629,0)" xlink:href="#H"/><use transform="matrix(0.0679012345679012,0,0,0.0679012345679012,29.87654320987653,0)" xlink:href="#I"/><use transform="matrix(0.0679012345679012,0,0,0.0679012345679012,42.098765432098745,0)" xlink:href="#J"/></g><path d="M115-194c55 1 70 41 70 98S169 2 115 4C84 4 66-9 55-30l1 105H24l-1-265h31l2 30c10-21 28-34 59-34zm-8 174c40 0 45-34 45-75s-6-73-45-74c-42 0-51 32-51 76 0 43 10 73 51 73" id="K"/><g id="f"><use transform="matrix(0.0679012345679012,0,0,0.0679012345679012,0,0)" xlink:href="#K"/><use transform="matrix(0.0679012345679012,0,0,0.0679012345679012,13.58024691358024,0)" xlink:href="#C"/><use transform="matrix(0.0679012345679012,0,0,0.0679012345679012,18.944444444444436,0)" xlink:href="#K"/><use transform="matrix(0.0679012345679012,0,0,0.0679012345679012,32.524691358024675,0)" xlink:href="#D"/><use transform="matrix(0.0679012345679012,0,0,0.0679012345679012,46.104938271604915,0)" xlink:href="#B"/><use transform="matrix(0.0679012345679012,0,0,0.0679012345679012,51.46913580246911,0)" xlink:href="#C"/><use transform="matrix(0.0679012345679012,0,0,0.0679012345679012,56.83333333333331,0)" xlink:href="#E"/><use transform="matrix(0.0679012345679012,0,0,0.0679012345679012,70.41358024691355,0)" xlink:href="#D"/></g><path d="M114-163C36-179 61-72 57 0H25l-1-190h30c1 12-1 29 2 39 6-27 23-49 58-41v29" id="L"/><path d="M135-143c-3-34-86-38-87 0 15 53 115 12 119 90S17 21 10-45l28-5c4 36 97 45 98 0-10-56-113-15-118-90-4-57 82-63 122-42 12 7 21 19 24 35" id="M"/><g id="g"><use transform="matrix(0.0679012345679012,0,0,0.0679012345679012,0,0)" xlink:href="#I"/><use transform="matrix(0.0679012345679012,0,0,0.0679012345679012,12.222222222222216,0)" xlink:href="#L"/><use transform="matrix(0.0679012345679012,0,0,0.0679012345679012,20.30246913580246,0)" xlink:href="#D"/><use transform="matrix(0.0679012345679012,0,0,0.0679012345679012,33.8827160493827,0)" xlink:href="#H"/><use transform="matrix(0.0679012345679012,0,0,0.0679012345679012,47.46296296296294,0)" xlink:href="#F"/><use transform="matrix(0.0679012345679012,0,0,0.0679012345679012,54.25308641975306,0)" xlink:href="#D"/><use transform="matrix(0.0679012345679012,0,0,0.0679012345679012,67.8333333333333,0)" xlink:href="#M"/></g><path d="M85-194c31 0 48 13 60 33l-1-100h32l1 261h-30c-2-10 0-23-3-31C134-8 116 4 85 4 32 4 16-35 15-94c0-66 23-100 70-100zm9 24c-40 0-46 34-46 75 0 40 6 74 45 74 42 0 51-32 51-76 0-42-9-74-50-73" id="N"/><g id="h"><use transform="matrix(0.0679012345679012,0,0,0.0679012345679012,0,0)" xlink:href="#N"/><use transform="matrix(0.0679012345679012,0,0,0.0679012345679012,13.58024691358024,0)" xlink:href="#D"/><use transform="matrix(0.0679012345679012,0,0,0.0679012345679012,27.16049382716048,0)" xlink:href="#K"/><use transform="matrix(0.0679012345679012,0,0,0.0679012345679012,40.74074074074072,0)" xlink:href="#D"/><use transform="matrix(0.0679012345679012,0,0,0.0679012345679012,54.32098765432096,0)" xlink:href="#E"/><use transform="matrix(0.0679012345679012,0,0,0.0679012345679012,67.9012345679012,0)" xlink:href="#N"/><use transform="matrix(0.0679012345679012,0,0,0.0679012345679012,81.48148148148144,0)" xlink:href="#D"/><use transform="matrix(0.0679012345679012,0,0,0.0679012345679012,95.06172839506168,0)" xlink:href="#E"/><use transform="matrix(0.0679012345679012,0,0,0.0679012345679012,108.64197530864192,0)" xlink:href="#I"/><use transform="matrix(0.0679012345679012,0,0,0.0679012345679012,120.86419753086413,0)" xlink:href="#C"/><use transform="matrix(0.0679012345679012,0,0,0.0679012345679012,126.22839506172832,0)" xlink:href="#D"/><use transform="matrix(0.0679012345679012,0,0,0.0679012345679012,139.80864197530855,0)" xlink:href="#M"/></g><path d="M115-194c53 0 69 39 70 98 0 66-23 100-70 100C84 3 66-7 56-30L54 0H23l1-261h32v101c10-23 28-34 59-34zm-8 174c40 0 45-34 45-75 0-40-5-75-45-74-42 0-51 32-51 76 0 43 10 73 51 73" id="O"/><path d="M206 0h-36l-40-164L89 0H53L-1-190h32L70-26l43-164h34l41 164 42-164h31" id="P"/><g id="i"><use transform="matrix(0.0679012345679012,0,0,0.0679012345679012,0,0)" xlink:href="#O"/><use transform="matrix(0.0679012345679012,0,0,0.0679012345679012,13.58024691358024,0)" xlink:href="#D"/><use transform="matrix(0.0679012345679012,0,0,0.0679012345679012,27.16049382716048,0)" xlink:href="#F"/><use transform="matrix(0.0679012345679012,0,0,0.0679012345679012,33.9506172839506,0)" xlink:href="#P"/><use transform="matrix(0.0679012345679012,0,0,0.0679012345679012,51.53703703703701,0)" xlink:href="#D"/><use transform="matrix(0.0679012345679012,0,0,0.0679012345679012,65.11728395061725,0)" xlink:href="#D"/><use transform="matrix(0.0679012345679012,0,0,0.0679012345679012,78.69753086419749,0)" xlink:href="#E"/></g><path d="M108 0H70L1-190h34L89-25l56-165h34" id="Q"/><g id="j"><use transform="matrix(0.0679012345679012,0,0,0.0679012345679012,0,0)" xlink:href="#M"/><use transform="matrix(0.0679012345679012,0,0,0.0679012345679012,12.222222222222216,0)" xlink:href="#D"/><use transform="matrix(0.0679012345679012,0,0,0.0679012345679012,25.802469135802454,0)" xlink:href="#L"/><use transform="matrix(0.0679012345679012,0,0,0.0679012345679012,33.882716049382694,0)" xlink:href="#Q"/><use transform="matrix(0.0679012345679012,0,0,0.0679012345679012,46.10493827160491,0)" xlink:href="#C"/><use transform="matrix(0.0679012345679012,0,0,0.0679012345679012,51.469135802469104,0)" xlink:href="#I"/><use transform="matrix(0.0679012345679012,0,0,0.0679012345679012,63.69135802469132,0)" xlink:href="#D"/><use transform="matrix(0.0679012345679012,0,0,0.0679012345679012,77.27160493827157,0)" xlink:href="#M"/></g><path d="M205 0l-28-72H64L36 0H1l101-248h38L239 0h-34zm-38-99l-47-123c-12 45-31 82-46 123h93" id="R"/><use transform="matrix(0.0679012345679012,0,0,0.0679012345679012,0,0)" xlink:href="#R" id="k"/><g id="l"><use transform="matrix(0.0679012345679012,0,0,0.0679012345679012,0,0)" xlink:href="#M"/><use transform="matrix(0.0679012345679012,0,0,0.0679012345679012,12.222222222222216,0)" xlink:href="#D"/><use transform="matrix(0.0679012345679012,0,0,0.0679012345679012,25.802469135802454,0)" xlink:href="#L"/><use transform="matrix(0.0679012345679012,0,0,0.0679012345679012,33.882716049382694,0)" xlink:href="#Q"/><use transform="matrix(0.0679012345679012,0,0,0.0679012345679012,46.10493827160491,0)" xlink:href="#C"/><use transform="matrix(0.0679012345679012,0,0,0.0679012345679012,51.469135802469104,0)" xlink:href="#I"/><use transform="matrix(0.0679012345679012,0,0,0.0679012345679012,63.69135802469132,0)" xlink:href="#D"/></g><path d="M210-169c-67 3-38 105-44 169h-31v-121c0-29-5-50-35-48C34-165 62-65 56 0H25l-1-190h30c1 10-1 24 2 32 10-44 99-50 107 0 11-21 27-35 58-36 85-2 47 119 55 194h-31v-121c0-29-5-49-35-48" id="S"/><path d="M179-190L93 31C79 59 56 82 12 73V49c39 6 53-20 64-50L1-190h34L92-34l54-156h33" id="T"/><g id="m"><use transform="matrix(0.0679012345679012,0,0,0.0679012345679012,0,0)" xlink:href="#S"/><use transform="matrix(0.0679012345679012,0,0,0.0679012345679012,20.30246913580246,0)" xlink:href="#H"/><use transform="matrix(0.0679012345679012,0,0,0.0679012345679012,33.8827160493827,0)" xlink:href="#T"/></g><path d="M143 0L79-87 56-68V0H24v-261h32v163l83-92h37l-77 82L181 0h-38" id="U"/><g id="n"><use transform="matrix(0.0679012345679012,0,0,0.0679012345679012,0,0)" xlink:href="#F"/><use transform="matrix(0.0679012345679012,0,0,0.0679012345679012,6.79012345679012,0)" xlink:href="#H"/><use transform="matrix(0.0679012345679012,0,0,0.0679012345679012,20.37037037037036,0)" xlink:href="#U"/><use transform="matrix(0.0679012345679012,0,0,0.0679012345679012,32.592592592592574,0)" xlink:href="#D"/></g><g id="o"><use transform="matrix(0.0679012345679012,0,0,0.0679012345679012,0,0)" xlink:href="#K"/><use transform="matrix(0.0679012345679012,0,0,0.0679012345679012,13.58024691358024,0)" xlink:href="#H"/><use transform="matrix(0.0679012345679012,0,0,0.0679012345679012,27.16049382716048,0)" xlink:href="#L"/><use transform="matrix(0.0679012345679012,0,0,0.0679012345679012,35.24074074074072,0)" xlink:href="#F"/></g><g id="p"><use transform="matrix(0.0679012345679012,0,0,0.0679012345679012,0,0)" xlink:href="#C"/><use transform="matrix(0.0679012345679012,0,0,0.0679012345679012,5.364197530864195,0)" xlink:href="#E"/></g><path d="M84 4C-5 8 30-112 23-190h32v120c0 31 7 50 39 49 72-2 45-101 50-169h31l1 190h-30c-1-10 1-25-2-33-11 22-28 36-60 37" id="V"/><g id="q"><use transform="matrix(0.0679012345679012,0,0,0.0679012345679012,0,0)" xlink:href="#S"/><use transform="matrix(0.0679012345679012,0,0,0.0679012345679012,20.30246913580246,0)" xlink:href="#V"/><use transform="matrix(0.0679012345679012,0,0,0.0679012345679012,33.8827160493827,0)" xlink:href="#B"/><use transform="matrix(0.0679012345679012,0,0,0.0679012345679012,39.2469135802469,0)" xlink:href="#F"/><use transform="matrix(0.0679012345679012,0,0,0.0679012345679012,46.03703703703702,0)" xlink:href="#C"/><use transform="matrix(0.0679012345679012,0,0,0.0679012345679012,51.40123456790121,0)" xlink:href="#K"/><use transform="matrix(0.0679012345679012,0,0,0.0679012345679012,64.98148148148145,0)" xlink:href="#B"/><use transform="matrix(0.0679012345679012,0,0,0.0679012345679012,70.34567901234564,0)" xlink:href="#D"/></g><g id="r"><use transform="matrix(0.0679012345679012,0,0,0.0679012345679012,0,0)" xlink:href="#K"/><use transform="matrix(0.0679012345679012,0,0,0.0679012345679012,13.58024691358024,0)" xlink:href="#C"/><use transform="matrix(0.0679012345679012,0,0,0.0679012345679012,18.944444444444436,0)" xlink:href="#K"/><use transform="matrix(0.0679012345679012,0,0,0.0679012345679012,32.524691358024675,0)" xlink:href="#D"/><use transform="matrix(0.0679012345679012,0,0,0.0679012345679012,46.104938271604915,0)" xlink:href="#B"/><use transform="matrix(0.0679012345679012,0,0,0.0679012345679012,51.46913580246911,0)" xlink:href="#C"/><use transform="matrix(0.0679012345679012,0,0,0.0679012345679012,56.83333333333331,0)" xlink:href="#E"/><use transform="matrix(0.0679012345679012,0,0,0.0679012345679012,70.41358024691355,0)" xlink:href="#D"/><use transform="matrix(0.0679012345679012,0,0,0.0679012345679012,83.99382716049378,0)" xlink:href="#M"/></g><linearGradient gradientUnits="userSpaceOnUse" id="s" x1="1060" y1="780.5" x2="1060" y2="660.5"><stop offset="19.2%" stop-color="#ced4db"/><stop offset="26.45%" stop-color="#fff"/><stop offset="45.29%" stop-color="#fff"/><stop offset="52.54%" stop-color="#cfe4ff"/></linearGradient><path d="M140-251c81 0 123 46 123 126C263-46 219 4 140 4 59 4 17-45 17-125s42-126 123-126zm0 227c63 0 89-41 89-101s-29-99-89-99c-61 0-89 39-89 99S79-25 140-24" id="W"/><path d="M100-194c62-1 85 37 85 99 1 63-27 99-86 99S16-35 15-95c0-66 28-99 85-99zM99-20c44 1 53-31 53-75 0-43-8-75-51-75s-53 32-53 75 10 74 51 75" id="X"/><g id="t"><use transform="matrix(0.0679012345679012,0,0,0.0679012345679012,0,0)" xlink:href="#W"/><use transform="matrix(0.0679012345679012,0,0,0.0679012345679012,19.012345679012338,0)" xlink:href="#K"/><use transform="matrix(0.0679012345679012,0,0,0.0679012345679012,32.59259259259258,0)" xlink:href="#K"/><use transform="matrix(0.0679012345679012,0,0,0.0679012345679012,46.17283950617282,0)" xlink:href="#X"/><use transform="matrix(0.0679012345679012,0,0,0.0679012345679012,59.75308641975306,0)" xlink:href="#M"/><use transform="matrix(0.0679012345679012,0,0,0.0679012345679012,71.97530864197527,0)" xlink:href="#C"/><use transform="matrix(0.0679012345679012,0,0,0.0679012345679012,77.33950617283946,0)" xlink:href="#F"/><use transform="matrix(0.0679012345679012,0,0,0.0679012345679012,84.12962962962959,0)" xlink:href="#D"/></g><g id="u"><use transform="matrix(0.0679012345679012,0,0,0.0679012345679012,0,0)" xlink:href="#N"/><use transform="matrix(0.0679012345679012,0,0,0.0679012345679012,13.58024691358024,0)" xlink:href="#C"/><use transform="matrix(0.0679012345679012,0,0,0.0679012345679012,18.944444444444436,0)" xlink:href="#L"/><use transform="matrix(0.0679012345679012,0,0,0.0679012345679012,27.02469135802468,0)" xlink:href="#D"/><use transform="matrix(0.0679012345679012,0,0,0.0679012345679012,40.60493827160492,0)" xlink:href="#I"/><use transform="matrix(0.0679012345679012,0,0,0.0679012345679012,52.82716049382714,0)" xlink:href="#F"/><use transform="matrix(0.0679012345679012,0,0,0.0679012345679012,59.61728395061726,0)" xlink:href="#C"/><use transform="matrix(0.0679012345679012,0,0,0.0679012345679012,64.98148148148145,0)" xlink:href="#X"/><use transform="matrix(0.0679012345679012,0,0,0.0679012345679012,78.56172839506169,0)" xlink:href="#E"/></g><path d="M101-234c-31-9-42 10-38 44h38v23H63V0H32v-167H5v-23h27c-7-52 17-82 69-68v24" id="Y"/><g id="v"><use transform="matrix(0.0679012345679012,0,0,0.0679012345679012,0,0)" xlink:href="#X"/><use transform="matrix(0.0679012345679012,0,0,0.0679012345679012,13.58024691358024,0)" xlink:href="#Y"/></g><g id="w"><use transform="matrix(0.0679012345679012,0,0,0.0679012345679012,0,0)" xlink:href="#K"/><use transform="matrix(0.0679012345679012,0,0,0.0679012345679012,13.58024691358024,0)" xlink:href="#C"/><use transform="matrix(0.0679012345679012,0,0,0.0679012345679012,18.944444444444436,0)" xlink:href="#K"/><use transform="matrix(0.0679012345679012,0,0,0.0679012345679012,32.524691358024675,0)" xlink:href="#D"/><use transform="matrix(0.0679012345679012,0,0,0.0679012345679012,46.104938271604915,0)" xlink:href="#B"/><use transform="matrix(0.0679012345679012,0,0,0.0679012345679012,51.46913580246911,0)" xlink:href="#C"/><use transform="matrix(0.0679012345679012,0,0,0.0679012345679012,56.83333333333331,0)" xlink:href="#E"/><use transform="matrix(0.0679012345679012,0,0,0.0679012345679012,70.41358024691355,0)" xlink:href="#D"/><use transform="matrix(0.0679012345679012,0,0,0.0679012345679012,83.99382716049378,0)" xlink:href="#M"/></g><g id="x"><use transform="matrix(0.0679012345679012,0,0,0.0679012345679012,0,0)" xlink:href="#C"/><use transform="matrix(0.0679012345679012,0,0,0.0679012345679012,5.364197530864195,0)" xlink:href="#E"/><use transform="matrix(0.0679012345679012,0,0,0.0679012345679012,18.944444444444436,0)" xlink:href="#F"/><use transform="matrix(0.0679012345679012,0,0,0.0679012345679012,25.734567901234556,0)" xlink:href="#L"/><use transform="matrix(0.0679012345679012,0,0,0.0679012345679012,33.814814814814795,0)" xlink:href="#X"/><use transform="matrix(0.0679012345679012,0,0,0.0679012345679012,47.395061728395035,0)" xlink:href="#N"/><use transform="matrix(0.0679012345679012,0,0,0.0679012345679012,60.975308641975275,0)" xlink:href="#V"/><use transform="matrix(0.0679012345679012,0,0,0.0679012345679012,74.55555555555551,0)" xlink:href="#I"/><use transform="matrix(0.0679012345679012,0,0,0.0679012345679012,86.77777777777773,0)" xlink:href="#D"/><use transform="matrix(0.0679012345679012,0,0,0.0679012345679012,100.35802469135797,0)" xlink:href="#M"/></g><g id="y"><use transform="matrix(0.0679012345679012,0,0,0.0679012345679012,0,0)" xlink:href="#I"/><use transform="matrix(0.0679012345679012,0,0,0.0679012345679012,12.222222222222216,0)" xlink:href="#T"/><use transform="matrix(0.0679012345679012,0,0,0.0679012345679012,24.444444444444432,0)" xlink:href="#I"/><use transform="matrix(0.0679012345679012,0,0,0.0679012345679012,36.66666666666665,0)" xlink:href="#B"/><use transform="matrix(0.0679012345679012,0,0,0.0679012345679012,42.030864197530846,0)" xlink:href="#C"/><use transform="matrix(0.0679012345679012,0,0,0.0679012345679012,47.39506172839504,0)" xlink:href="#I"/></g><g id="z"><use transform="matrix(0.0679012345679012,0,0,0.0679012345679012,0,0)" xlink:href="#N"/><use transform="matrix(0.0679012345679012,0,0,0.0679012345679012,13.58024691358024,0)" xlink:href="#D"/><use transform="matrix(0.0679012345679012,0,0,0.0679012345679012,27.16049382716048,0)" xlink:href="#K"/><use transform="matrix(0.0679012345679012,0,0,0.0679012345679012,40.74074074074072,0)" xlink:href="#D"/><use transform="matrix(0.0679012345679012,0,0,0.0679012345679012,54.32098765432096,0)" xlink:href="#E"/><use transform="matrix(0.0679012345679012,0,0,0.0679012345679012,67.9012345679012,0)" xlink:href="#N"/><use transform="matrix(0.0679012345679012,0,0,0.0679012345679012,81.48148148148144,0)" xlink:href="#D"/><use transform="matrix(0.0679012345679012,0,0,0.0679012345679012,95.06172839506168,0)" xlink:href="#E"/><use transform="matrix(0.0679012345679012,0,0,0.0679012345679012,108.64197530864192,0)" xlink:href="#I"/><use transform="matrix(0.0679012345679012,0,0,0.0679012345679012,120.86419753086413,0)" xlink:href="#C"/><use transform="matrix(0.0679012345679012,0,0,0.0679012345679012,126.22839506172832,0)" xlink:href="#D"/><use transform="matrix(0.0679012345679012,0,0,0.0679012345679012,139.80864197530855,0)" xlink:href="#M"/></g></defs></g></svg>