<svg xmlns="http://www.w3.org/2000/svg" xmlns:xlink="http://www.w3.org/1999/xlink" xmlns:lucid="lucid" width="883" height="185.59"><g transform="translate(-678.5 -555.9078510630276)" lucid:page-tab-id="0_0"><path d="M940 600a20 20 0 0 1 20-20h40a20 20 0 0 1 20 20v120a20 20 0 0 1-20 20h-40a20 20 0 0 1-20-20z" stroke="#1071e5" stroke-width="3" fill="url(#a)"/><use xlink:href="#b" transform="matrix(1,0,0,1,945,585) translate(28.092592592592595 79.12152777777777)"/><path d="M1080 600a20 20 0 0 1 20-20h38.5a20 20 0 0 1 20 20v120a20 20 0 0 1-20 20H1100a20 20 0 0 1-20-20z" stroke="#ba23f6" stroke-width="3" fill="url(#c)"/><use xlink:href="#d" transform="matrix(1,0,0,1,1085.0000499999996,585) translate(27.092592592592595 78.71527777777777)"/><path d="M1220 600a20 20 0 0 1 20-20h38.5a20 20 0 0 1 20 20v120a20 20 0 0 1-20 20H1240a20 20 0 0 1-20-20z" stroke="#008573" stroke-width="3" fill="url(#e)"/><use xlink:href="#f" transform="matrix(1,0,0,1,1225,585) translate(26.506172839506174 79.12152777777777)"/><path d="M1016.5 580h-73M1016.4 580h3.6M943.6 580H940" stroke="#1071e5" stroke-width="7" fill="none"/><path d="M1156.5 580h-73M1156.4 580h3.6M1083.6 580h-3.6" stroke="#ba23f6" stroke-width="7" fill="none"/><path d="M1296.5 580h-73M1296.4 580h3.6M1223.6 580h-3.6" stroke="#008573" stroke-width="7" fill="none"/><path d="M993.84 567.73l1.53-1.2 3.4-2.36 2.9-1.8 2.5-1.4 2.18-1.06 1.95-.83 1.75-.65 1.6-.5 1.44-.37 1.34-.28 1.25-.2 1.17-.1 1.12-.06h1.05l1 .06 1 .1.94.15.9.2.9.24.9.28.9.33.87.38.88.43.88.5.9.56.9.64.95.73.96.82 1 .96 1.05 1.1 1.1 1.3 1.15 1.5 1.25 1.8 1.35 2.2 1.5 2.7 1.66 3.46 1.95 4.57 2.4 6.58 3.6 11.75 9.68 34.55 1.95 5.33 1.5 3.57 1.26 2.6 1.1 1.96.95 1.57.86 1.26.8 1.04.74.87.7.74.65.63.63.54.6.47.58.4.56.36.55.3.54.27.55.24.53.2.53.17.55.14.54.12.54.1.57.05h.1" stroke="#1071e5" stroke-width="2" stroke-linejoin="round" fill="none"/><path d="M982.42 577.85l7.6-12.93 6.15 6.93z" stroke="#1071e5" stroke-width="2" fill="#fff"/><path d="M1078.5 656.73v1.94h-1.03v-1.95z" stroke="#1071e5" stroke-width=".05" fill="#1071e5"/><path d="M1247.33 567.92l-3.14-2.17-2.73-1.7-2.37-1.3-2.08-1.03-1.87-.8-1.7-.63-1.52-.5-1.4-.38-1.32-.28-1.22-.2-1.15-.12-1.1-.07h-1.03l-1 .02-.96.1-.93.12-.9.16-.9.2-.88.27-.87.3-.86.35-.88.4-.88.46-.88.5-.9.6-.92.67-.95.78-.98.87-1.03 1-1.08 1.17-1.13 1.37-1.23 1.6-1.3 1.94-1.45 2.36-1.6 2.96-1.84 3.84-2.2 5.26-2.97 8.2-13.75 43.43-1.93 4.6-1.58 3.28-1.34 2.5-1.2 1.94-1.06 1.58-.98 1.3-.9 1.1-.85.9-.8.8-.76.68-.73.6-.7.5-.68.46-.67.4-.65.33-.65.3-.65.26-.64.23-.65.2-.64.14-.67.13-.68.1-.7.05h-.32" stroke="#008573" stroke-width="2" stroke-linejoin="round" fill="none"/><path d="M1258.88 577.88l-13.83-5.8 6.06-7.02z" stroke="#008573" stroke-width="2" fill="#fff"/><path d="M1161.03 659.13v1.95H1160v-1.96z" stroke="#008573" stroke-width=".05" fill="#008573"/><path d="M1106.7 567.9l-.7-.53-3.27-2.24-2.78-1.72-2.42-1.3-2.13-1.03-1.9-.8-1.7-.62-1.54-.48-1.43-.36-1.3-.25-1.24-.18-1.17-.12-1.1-.05H1083l-1 .06-.96.1-.93.15-.9.2-.9.23-.87.28-.87.34-.87.37-.88.44-.88.5-.88.55-.9.62-.93.72-.95.82-1 .94-1.03 1.1-1.1 1.26-1.14 1.5-1.23 1.78-1.35 2.16-1.48 2.67-1.67 3.4-1.95 4.55-2.43 6.56-3.78 12.1-9.54 32.96-2.07 5.6-1.6 3.75-1.34 2.73-1.17 2.1-1.05 1.68-.94 1.36-.86 1.12-.8.94-.76.8-.72.68-.68.6-.66.5-.63.45-.63.38-.6.34-.6.3-.6.25-.6.23-.58.18-.6.16-.6.12-.62.1-.63.06-.65.03h-.1" stroke="#ba23f6" stroke-width="2" stroke-linejoin="round" fill="none"/><path d="M1118.22 577.88l-13.82-5.84 6.07-7z" stroke="#ba23f6" stroke-width="2" fill="#fff"/><path d="M1022.56 658.06l-.07 1.95-1-.02v-1.96z" stroke="#ba23f6" stroke-width=".05" fill="#ba23f6"/><path d="M1133.38 567.98l1.3-.98 3.45-2.33 2.96-1.78 2.56-1.4 2.27-1.07 2.02-.83 1.82-.65 1.66-.5 1.53-.37 1.4-.27 1.33-.17 1.23-.1 1.18-.06 1.13.02 1.07.05 1.04.12 1 .17.98.2.96.27.95.32.94.36.93.4.94.48.94.54.95.6.98.7 1 .78 1.03.9 1.06 1.03 1.1 1.2 1.16 1.38 1.24 1.63 1.32 1.94 1.43 2.34 1.57 2.88 1.76 3.66 2.04 4.85 2.5 6.92 3.74 12.35 9.6 34.43 1.9 5.25 1.44 3.47 1.2 2.5 1.04 1.9.9 1.5.83 1.2.75.97.7.82.63.68.6.6.6.5.54.43.52.38.5.33.5.3.5.24.5.22.47.18.47.16.47.13.5.1.46.08" stroke="#ba23f6" stroke-width="2" stroke-linejoin="round" fill="none"/><path d="M1121.8 577.9l7.82-12.8 6.03 7.04z" stroke="#ba23f6" stroke-width="2" fill="#fff"/><path d="M1218.5 659.02v1.96l-1.1-.07.14-1.94z" stroke="#ba23f6" stroke-width=".05" fill="#ba23f6"/><path d="M680 586a6 6 0 0 1 6-6h168a6 6 0 0 1 6 6v108a6 6 0 0 1-6 6H686a6 6 0 0 1-6-6z" stroke="#000" stroke-opacity="0" stroke-width="3" fill="#fff" fill-opacity="0"/><use xlink:href="#g" transform="matrix(1,0,0,1,685,585) translate(5.1111111111111285 28.20833333333333)"/><use xlink:href="#h" transform="matrix(1,0,0,1,685,585) translate(114.59259259259258 28.20833333333333)"/><use xlink:href="#i" transform="matrix(1,0,0,1,685,585) translate(18.40740740740742 60.20833333333332)"/><use xlink:href="#j" transform="matrix(1,0,0,1,685,585) translate(22.074074074074083 92.20833333333331)"/><use xlink:href="#k" transform="matrix(1,0,0,1,685,585) translate(87.25925925925927 92.20833333333331)"/><path d="M1380 626a6 6 0 0 1 6-6h168a6 6 0 0 1 6 6v108a6 6 0 0 1-6 6h-168a6 6 0 0 1-6-6z" stroke="#000" stroke-opacity="0" stroke-width="3" fill="#fff" fill-opacity="0"/><g><use xlink:href="#l" transform="matrix(1,0,0,1,1385,625) translate(15.444444444444457 28.333333333333343)"/><use xlink:href="#m" transform="matrix(1,0,0,1,1385,625) translate(76.11111111111111 28.333333333333343)"/><use xlink:href="#n" transform="matrix(1,0,0,1,1385,625) translate(55.40740740740741 60.333333333333336)"/><use xlink:href="#o" transform="matrix(1,0,0,1,1385,625) translate(-3.8148148148147953 92.33333333333333)"/></g><defs><linearGradient gradientUnits="userSpaceOnUse" id="a" x1="940" y1="740" x2="940" y2="580"><stop offset="19.2%" stop-color="#ced4db"/><stop offset="26.45%" stop-color="#fff"/><stop offset="45.29%" stop-color="#fff"/><stop offset="52.54%" stop-color="#cfe4ff"/><stop offset="73.91%" stop-color="#cfe4ff"/><stop offset="82.97%" stop-color="#c3f7c8"/></linearGradient><path d="M205 0l-28-72H64L36 0H1l101-248h38L239 0h-34zm-38-99l-47-123c-12 45-31 82-46 123h93" id="p"/><use transform="matrix(0.06172839506172839,0,0,0.06172839506172839,0,0)" xlink:href="#p" id="b"/><linearGradient gradientUnits="userSpaceOnUse" id="c" x1="1080" y1="740" x2="1080" y2="580"><stop offset="19.2%" stop-color="#ced4db"/><stop offset="26.45%" stop-color="#fff"/><stop offset="45.29%" stop-color="#fff"/><stop offset="52.54%" stop-color="#cfe4ff"/><stop offset="73.91%" stop-color="#cfe4ff"/><stop offset="82.97%" stop-color="#c3f7c8"/></linearGradient><path d="M160-131c35 5 61 23 61 61C221 17 115-2 30 0v-248c76 3 177-17 177 60 0 33-19 50-47 57zm-97-11c50-1 110 9 110-42 0-47-63-36-110-37v79zm0 115c55-2 124 14 124-45 0-56-70-42-124-44v89" id="q"/><use transform="matrix(0.06172839506172839,0,0,0.06172839506172839,0,0)" xlink:href="#q" id="d"/><linearGradient gradientUnits="userSpaceOnUse" id="e" x1="1220" y1="740" x2="1220" y2="580"><stop offset="19.2%" stop-color="#ced4db"/><stop offset="26.45%" stop-color="#fff"/><stop offset="45.29%" stop-color="#fff"/><stop offset="52.54%" stop-color="#cfe4ff"/><stop offset="73.91%" stop-color="#cfe4ff"/><stop offset="82.97%" stop-color="#c3f7c8"/></linearGradient><path d="M212-179c-10-28-35-45-73-45-59 0-87 40-87 99 0 60 29 101 89 101 43 0 62-24 78-52l27 14C228-24 195 4 139 4 59 4 22-46 18-125c-6-104 99-153 187-111 19 9 31 26 39 46" id="r"/><use transform="matrix(0.06172839506172839,0,0,0.06172839506172839,0,0)" xlink:href="#r" id="f"/><path fill="#4c535d" d="M185-189c-5-48-123-54-124 2 14 75 158 14 163 119 3 78-121 87-175 55-17-10-28-26-33-46l33-7c5 56 141 63 141-1 0-78-155-14-162-118-5-82 145-84 179-34 5 7 8 16 11 25" id="s"/><path fill="#4c535d" d="M100-194c63 0 86 42 84 106H49c0 40 14 67 53 68 26 1 43-12 49-29l28 8c-11 28-37 45-77 45C44 4 14-33 15-96c1-61 26-98 85-98zm52 81c6-60-76-77-97-28-3 7-6 17-6 28h103" id="t"/><path fill="#4c535d" d="M114-163C36-179 61-72 57 0H25l-1-190h30c1 12-1 29 2 39 6-27 23-49 58-41v29" id="u"/><path fill="#4c535d" d="M108 0H70L1-190h34L89-25l56-165h34" id="v"/><path fill="#4c535d" d="M24-231v-30h32v30H24zM24 0v-190h32V0H24" id="w"/><path fill="#4c535d" d="M96-169c-40 0-48 33-48 73s9 75 48 75c24 0 41-14 43-38l32 2c-6 37-31 61-74 61-59 0-76-41-82-99-10-93 101-131 147-64 4 7 5 14 7 22l-32 3c-4-21-16-35-41-35" id="x"/><path fill="#4c535d" d="M135-143c-3-34-86-38-87 0 15 53 115 12 119 90S17 21 10-45l28-5c4 36 97 45 98 0-10-56-113-15-118-90-4-57 82-63 122-42 12 7 21 19 24 35" id="y"/><g id="g"><use transform="matrix(0.07407407407407406,0,0,0.07407407407407406,0,0)" xlink:href="#s"/><use transform="matrix(0.07407407407407406,0,0,0.07407407407407406,17.777777777777775,0)" xlink:href="#t"/><use transform="matrix(0.07407407407407406,0,0,0.07407407407407406,32.59259259259259,0)" xlink:href="#u"/><use transform="matrix(0.07407407407407406,0,0,0.07407407407407406,41.407407407407405,0)" xlink:href="#v"/><use transform="matrix(0.07407407407407406,0,0,0.07407407407407406,54.74074074074073,0)" xlink:href="#w"/><use transform="matrix(0.07407407407407406,0,0,0.07407407407407406,60.59259259259258,0)" xlink:href="#x"/><use transform="matrix(0.07407407407407406,0,0,0.07407407407407406,73.92592592592591,0)" xlink:href="#t"/><use transform="matrix(0.07407407407407406,0,0,0.07407407407407406,88.74074074074072,0)" xlink:href="#y"/></g><path fill="#4c535d" d="M210-169c-67 3-38 105-44 169h-31v-121c0-29-5-50-35-48C34-165 62-65 56 0H25l-1-190h30c1 10-1 24 2 32 10-44 99-50 107 0 11-21 27-35 58-36 85-2 47 119 55 194h-31v-121c0-29-5-49-35-48" id="z"/><path fill="#4c535d" d="M141-36C126-15 110 5 73 4 37 3 15-17 15-53c-1-64 63-63 125-63 3-35-9-54-41-54-24 1-41 7-42 31l-33-3c5-37 33-52 76-52 45 0 72 20 72 64v82c-1 20 7 32 28 27v20c-31 9-61-2-59-35zM48-53c0 20 12 33 32 33 41-3 63-29 60-74-43 2-92-5-92 41" id="A"/><path fill="#4c535d" d="M179-190L93 31C79 59 56 82 12 73V49c39 6 53-20 64-50L1-190h34L92-34l54-156h33" id="B"/><g id="h"><use transform="matrix(0.07407407407407406,0,0,0.07407407407407406,0,0)" xlink:href="#z"/><use transform="matrix(0.07407407407407406,0,0,0.07407407407407406,22.14814814814814,0)" xlink:href="#A"/><use transform="matrix(0.07407407407407406,0,0,0.07407407407407406,36.962962962962955,0)" xlink:href="#B"/></g><path fill="#4c535d" d="M100-194c62-1 85 37 85 99 1 63-27 99-86 99S16-35 15-95c0-66 28-99 85-99zM99-20c44 1 53-31 53-75 0-43-8-75-51-75s-53 32-53 75 10 74 51 75" id="C"/><path fill="#4c535d" d="M106-169C34-169 62-67 57 0H25v-261h32l-1 103c12-21 28-36 61-36 89 0 53 116 60 194h-32v-121c2-32-8-49-39-48" id="D"/><path fill="#4c535d" d="M59-47c-2 24 18 29 38 22v24C64 9 27 4 27-40v-127H5v-23h24l9-43h21v43h35v23H59v120" id="E"/><g id="i"><use transform="matrix(0.07407407407407406,0,0,0.07407407407407406,0,0)" xlink:href="#C"/><use transform="matrix(0.07407407407407406,0,0,0.07407407407407406,14.814814814814811,0)" xlink:href="#u"/><use transform="matrix(0.07407407407407406,0,0,0.07407407407407406,23.62962962962963,0)" xlink:href="#x"/><use transform="matrix(0.07407407407407406,0,0,0.07407407407407406,36.962962962962955,0)" xlink:href="#D"/><use transform="matrix(0.07407407407407406,0,0,0.07407407407407406,51.777777777777764,0)" xlink:href="#t"/><use transform="matrix(0.07407407407407406,0,0,0.07407407407407406,66.59259259259258,0)" xlink:href="#y"/><use transform="matrix(0.07407407407407406,0,0,0.07407407407407406,79.92592592592591,0)" xlink:href="#E"/><use transform="matrix(0.07407407407407406,0,0,0.07407407407407406,87.33333333333331,0)" xlink:href="#u"/><use transform="matrix(0.07407407407407406,0,0,0.07407407407407406,96.14814814814812,0)" xlink:href="#A"/><use transform="matrix(0.07407407407407406,0,0,0.07407407407407406,110.96296296296293,0)" xlink:href="#E"/><use transform="matrix(0.07407407407407406,0,0,0.07407407407407406,118.37037037037034,0)" xlink:href="#t"/></g><g id="j"><use transform="matrix(0.07407407407407406,0,0,0.07407407407407406,0,0)" xlink:href="#t"/><use transform="matrix(0.07407407407407406,0,0,0.07407407407407406,14.814814814814811,0)" xlink:href="#A"/><use transform="matrix(0.07407407407407406,0,0,0.07407407407407406,29.629629629629623,0)" xlink:href="#x"/><use transform="matrix(0.07407407407407406,0,0,0.07407407407407406,42.962962962962955,0)" xlink:href="#D"/></g><g id="k"><use transform="matrix(0.07407407407407406,0,0,0.07407407407407406,0,0)" xlink:href="#C"/><use transform="matrix(0.07407407407407406,0,0,0.07407407407407406,14.814814814814811,0)" xlink:href="#E"/><use transform="matrix(0.07407407407407406,0,0,0.07407407407407406,22.222222222222218,0)" xlink:href="#D"/><use transform="matrix(0.07407407407407406,0,0,0.07407407407407406,37.03703703703703,0)" xlink:href="#t"/><use transform="matrix(0.07407407407407406,0,0,0.07407407407407406,51.85185185185184,0)" xlink:href="#u"/></g><path d="M127-220V0H93v-220H8v-28h204v28h-85" id="F"/><path d="M106-169C34-169 62-67 57 0H25v-261h32l-1 103c12-21 28-36 61-36 89 0 53 116 60 194h-32v-121c2-32-8-49-39-48" id="G"/><path d="M141-36C126-15 110 5 73 4 37 3 15-17 15-53c-1-64 63-63 125-63 3-35-9-54-41-54-24 1-41 7-42 31l-33-3c5-37 33-52 76-52 45 0 72 20 72 64v82c-1 20 7 32 28 27v20c-31 9-61-2-59-35zM48-53c0 20 12 33 32 33 41-3 63-29 60-74-43 2-92-5-92 41" id="H"/><path d="M59-47c-2 24 18 29 38 22v24C64 9 27 4 27-40v-127H5v-23h24l9-43h21v43h35v23H59v120" id="I"/><g id="l"><use transform="matrix(0.07407407407407406,0,0,0.07407407407407406,0,0)" xlink:href="#F"/><use transform="matrix(0.07407407407407406,0,0,0.07407407407407406,16.222222222222218,0)" xlink:href="#G"/><use transform="matrix(0.07407407407407406,0,0,0.07407407407407406,31.03703703703703,0)" xlink:href="#H"/><use transform="matrix(0.07407407407407406,0,0,0.07407407407407406,45.85185185185184,0)" xlink:href="#I"/></g><path d="M210-169c-67 3-38 105-44 169h-31v-121c0-29-5-50-35-48C34-165 62-65 56 0H25l-1-190h30c1 10-1 24 2 32 10-44 99-50 107 0 11-21 27-35 58-36 85-2 47 119 55 194h-31v-121c0-29-5-49-35-48" id="J"/><path d="M143 0L79-87 56-68V0H24v-261h32v163l83-92h37l-77 82L181 0h-38" id="K"/><path d="M100-194c63 0 86 42 84 106H49c0 40 14 67 53 68 26 1 43-12 49-29l28 8c-11 28-37 45-77 45C44 4 14-33 15-96c1-61 26-98 85-98zm52 81c6-60-76-77-97-28-3 7-6 17-6 28h103" id="L"/><path d="M135-143c-3-34-86-38-87 0 15 53 115 12 119 90S17 21 10-45l28-5c4 36 97 45 98 0-10-56-113-15-118-90-4-57 82-63 122-42 12 7 21 19 24 35" id="M"/><g id="m"><use transform="matrix(0.07407407407407406,0,0,0.07407407407407406,0,0)" xlink:href="#J"/><use transform="matrix(0.07407407407407406,0,0,0.07407407407407406,22.14814814814814,0)" xlink:href="#H"/><use transform="matrix(0.07407407407407406,0,0,0.07407407407407406,36.962962962962955,0)" xlink:href="#K"/><use transform="matrix(0.07407407407407406,0,0,0.07407407407407406,50.29629629629628,0)" xlink:href="#L"/><use transform="matrix(0.07407407407407406,0,0,0.07407407407407406,65.1111111111111,0)" xlink:href="#M"/></g><g id="n"><use transform="matrix(0.07407407407407406,0,0,0.07407407407407406,0,0)" xlink:href="#I"/><use transform="matrix(0.07407407407407406,0,0,0.07407407407407406,7.407407407407406,0)" xlink:href="#G"/><use transform="matrix(0.07407407407407406,0,0,0.07407407407407406,22.222222222222218,0)" xlink:href="#L"/><use transform="matrix(0.07407407407407406,0,0,0.07407407407407406,37.03703703703703,0)" xlink:href="#J"/></g><path d="M24-231v-30h32v30H24zM24 0v-190h32V0H24" id="N"/><path d="M117-194c89-4 53 116 60 194h-32v-121c0-31-8-49-39-48C34-167 62-67 57 0H25l-1-190h30c1 10-1 24 2 32 11-22 29-35 61-36" id="O"/><path d="M114-163C36-179 61-72 57 0H25l-1-190h30c1 12-1 29 2 39 6-27 23-49 58-41v29" id="P"/><path d="M85-194c31 0 48 13 60 33l-1-100h32l1 261h-30c-2-10 0-23-3-31C134-8 116 4 85 4 32 4 16-35 15-94c0-66 23-100 70-100zm9 24c-40 0-46 34-46 75 0 40 6 74 45 74 42 0 51-32 51-76 0-42-9-74-50-73" id="Q"/><path d="M115-194c55 1 70 41 70 98S169 2 115 4C84 4 66-9 55-30l1 105H24l-1-265h31l2 30c10-21 28-34 59-34zm-8 174c40 0 45-34 45-75s-6-73-45-74c-42 0-51 32-51 76 0 43 10 73 51 73" id="R"/><g id="o"><use transform="matrix(0.07407407407407406,0,0,0.07407407407407406,0,0)" xlink:href="#N"/><use transform="matrix(0.07407407407407406,0,0,0.07407407407407406,5.85185185185185,0)" xlink:href="#O"/><use transform="matrix(0.07407407407407406,0,0,0.07407407407407406,20.66666666666666,0)" xlink:href="#I"/><use transform="matrix(0.07407407407407406,0,0,0.07407407407407406,28.074074074074066,0)" xlink:href="#L"/><use transform="matrix(0.07407407407407406,0,0,0.07407407407407406,42.88888888888888,0)" xlink:href="#P"/><use transform="matrix(0.07407407407407406,0,0,0.07407407407407406,51.70370370370369,0)" xlink:href="#Q"/><use transform="matrix(0.07407407407407406,0,0,0.07407407407407406,66.5185185185185,0)" xlink:href="#L"/><use transform="matrix(0.07407407407407406,0,0,0.07407407407407406,81.33333333333331,0)" xlink:href="#R"/><use transform="matrix(0.07407407407407406,0,0,0.07407407407407406,96.14814814814812,0)" xlink:href="#L"/><use transform="matrix(0.07407407407407406,0,0,0.07407407407407406,110.96296296296293,0)" xlink:href="#O"/><use transform="matrix(0.07407407407407406,0,0,0.07407407407407406,125.77777777777774,0)" xlink:href="#Q"/><use transform="matrix(0.07407407407407406,0,0,0.07407407407407406,140.59259259259255,0)" xlink:href="#L"/><use transform="matrix(0.07407407407407406,0,0,0.07407407407407406,155.40740740740736,0)" xlink:href="#O"/><use transform="matrix(0.07407407407407406,0,0,0.07407407407407406,170.22222222222217,0)" xlink:href="#I"/></g></defs></g></svg>