<svg xmlns="http://www.w3.org/2000/svg" xmlns:xlink="http://www.w3.org/1999/xlink" xmlns:lucid="lucid" width="1023" height="363"><g transform="translate(-598.5 -478.5)" lucid:page-tab-id="0_0"><path d="M940 600a20 20 0 0 1 20-20h40a20 20 0 0 1 20 20 20 20 0 0 1-20 20h-40a20 20 0 0 1-20-20z" stroke="#1071e5" stroke-width="3" fill="#c3f7c8"/><use xlink:href="#a" transform="matrix(1,0,0,1,945,585.0000162578175) translate(4.758086419753086 19.65277777777778)"/><use xlink:href="#b" transform="matrix(1,0,0,1,945,585.0000162578175) translate(50.4370987654321 19.65277777777778)"/><path d="M1080 600a20 20 0 0 1 20-20h38.5a20 20 0 0 1 20 20 20 20 0 0 1-20 20H1100a20 20 0 0 1-20-20z" stroke="#ba23f6" stroke-width="3" fill="#c3f7c8"/><use xlink:href="#a" transform="matrix(1,0,0,1,1085.0000499999996,585) translate(4.258086419753086 19.65277777777778)"/><use xlink:href="#c" transform="matrix(1,0,0,1,1085.0000499999996,585) translate(49.9370987654321 19.65277777777778)"/><path d="M1220 600a20 20 0 0 1 20-20h38.5a20 20 0 0 1 20 20 20 20 0 0 1-20 20H1240a20 20 0 0 1-20-20z" stroke="#008573" stroke-width="3" fill="#c3f7c8"/><use xlink:href="#a" transform="matrix(1,0,0,1,1225,585) translate(3.6716666666666686 19.65277777777778)"/><use xlink:href="#d" transform="matrix(1,0,0,1,1225,585) translate(49.35067901234568 19.65277777777778)"/><path d="M600 486a6 6 0 0 1 6-6h228a6 6 0 0 1 6 6v188a6 6 0 0 1-6 6H606a6 6 0 0 1-6-6z" stroke="#000" stroke-opacity="0" stroke-width="3" fill="#fff" fill-opacity="0"/><use xlink:href="#e" transform="matrix(1,0,0,1,605,485) translate(24.7777777777778 27.27083333333333)"/><use xlink:href="#f" transform="matrix(1,0,0,1,605,485) translate(78.03703703703704 27.27083333333333)"/><use xlink:href="#g" transform="matrix(1,0,0,1,605,485) translate(1.1111111111111427 59.27083333333332)"/><use xlink:href="#h" transform="matrix(1,0,0,1,605,485) translate(66.14814814814817 59.27083333333332)"/><use xlink:href="#i" transform="matrix(1,0,0,1,605,485) translate(126.74074074074073 59.27083333333332)"/><use xlink:href="#j" transform="matrix(1,0,0,1,605,485) translate(177.037037037037 59.27083333333332)"/><use xlink:href="#k" transform="matrix(1,0,0,1,605,485) translate(16.629629629629648 91.27083333333331)"/><use xlink:href="#l" transform="matrix(1,0,0,1,605,485) translate(61.07407407407408 91.27083333333331)"/><use xlink:href="#m" transform="matrix(1,0,0,1,605,485) translate(155.74074074074073 91.27083333333331)"/><use xlink:href="#n" transform="matrix(1,0,0,1,605,485) translate(15.111111111111128 123.2708333333333)"/><use xlink:href="#o" transform="matrix(1,0,0,1,605,485) translate(44.74074074074075 123.2708333333333)"/><use xlink:href="#p" transform="matrix(1,0,0,1,605,485) translate(78.74074074074075 123.2708333333333)"/><use xlink:href="#q" transform="matrix(1,0,0,1,605,485) translate(170.44444444444446 123.2708333333333)"/><use xlink:href="#r" transform="matrix(1,0,0,1,605,485) translate(22.518518518518547 155.27083333333331)"/><use xlink:href="#s" transform="matrix(1,0,0,1,605,485) translate(66.96296296296299 155.27083333333331)"/><use xlink:href="#n" transform="matrix(1,0,0,1,605,485) translate(17.333333333333357 187.27083333333331)"/><use xlink:href="#t" transform="matrix(1,0,0,1,605,485) translate(46.962962962962976 187.27083333333331)"/><use xlink:href="#u" transform="matrix(1,0,0,1,605,485) translate(115.03703703703704 187.27083333333331)"/><path d="M1400 506a6 6 0 0 1 6-6h208a6 6 0 0 1 6 6v108a6 6 0 0 1-6 6h-208a6 6 0 0 1-6-6z" stroke="#000" stroke-opacity="0" stroke-width="3" fill="#fff" fill-opacity="0"/><use xlink:href="#v" transform="matrix(1,0,0,1,1405,505) translate(7.333333333333357 28.20833333333333)"/><use xlink:href="#w" transform="matrix(1,0,0,1,1405,505) translate(68 28.20833333333333)"/><use xlink:href="#x" transform="matrix(1,0,0,1,1405,505) translate(153.85185185185185 28.20833333333333)"/><use xlink:href="#k" transform="matrix(1,0,0,1,1405,505) translate(12.518518518518547 60.20833333333332)"/><use xlink:href="#y" transform="matrix(1,0,0,1,1405,505) translate(56.96296296296298 60.20833333333332)"/><use xlink:href="#z" transform="matrix(1,0,0,1,1405,505) translate(16.185185185185205 92.20833333333331)"/><path d="M940 680a20 20 0 0 1 20-20h40a20 20 0 0 1 20 20v60a20 20 0 0 1-20 20h-40a20 20 0 0 1-20-20z" stroke="#1071e5" stroke-width="3" fill="url(#A)"/><use xlink:href="#B" transform="matrix(1,0,0,1,945,665) translate(-2.6790123456790127 36.111111111111114)"/><use xlink:href="#b" transform="matrix(1,0,0,1,945,665) translate(28.092592592592595 62.77777777777778)"/><path d="M940 820a20 20 0 0 1 20-20h40a20 20 0 0 1 20 20 20 20 0 0 1-20 20h-40a20 20 0 0 1-20-20z" stroke="#1071e5" stroke-width="3" fill="#ced4db"/><use xlink:href="#C" transform="matrix(1,0,0,1,945,805) translate(9.10993827160494 19.65277777777778)"/><use xlink:href="#b" transform="matrix(1,0,0,1,945,805) translate(46.08524691358025 19.65277777777778)"/><path d="M980 780v-17.5" stroke="#1071e5" stroke-width="2" fill="none"/><path d="M980 795.26L975.37 781h9.26z" stroke="#1071e5" stroke-width="2" fill="#1071e5"/><path d="M980.98 762.53H979v-1.03H981z" stroke="#1071e5" stroke-width=".05" fill="#1071e5"/><path d="M980 640v-17.5" stroke="#1071e5" stroke-width="2" fill="none"/><path d="M980 655.26L975.37 641h9.26z" stroke="#1071e5" stroke-width="2" fill="#1071e5"/><path d="M980.98 622.53H979v-1.03H981z" stroke="#1071e5" stroke-width=".05" fill="#1071e5"/><path d="M1080 678.5a20 20 0 0 1 20-20h40a20 20 0 0 1 20 20v60a20 20 0 0 1-20 20h-40a20 20 0 0 1-20-20z" stroke="#ba23f6" stroke-width="3" fill="url(#D)"/><use xlink:href="#B" transform="matrix(1,0,0,1,1085,663.5000496233517) translate(-2.6790123456790127 36.111111111111114)"/><use xlink:href="#c" transform="matrix(1,0,0,1,1085,663.5000496233517) translate(28.092592592592595 62.77777777777778)"/><path d="M1080 818.5a20 20 0 0 1 20-20h40a20 20 0 0 1 20 20 20 20 0 0 1-20 20h-40a20 20 0 0 1-20-20z" stroke="#ba23f6" stroke-width="3" fill="#ced4db"/><use xlink:href="#C" transform="matrix(1,0,0,1,1085,803.5000496233517) translate(9.10993827160494 19.65277777777778)"/><use xlink:href="#c" transform="matrix(1,0,0,1,1085,803.5000496233517) translate(46.08524691358025 19.65277777777778)"/><path d="M1120 778.5V761" stroke="#ba23f6" stroke-width="2" fill="none"/><path d="M1120 793.76l-4.63-14.26h9.27z" stroke="#ba23f6" stroke-width="2" fill="#ba23f6"/><path d="M1120.97 761.03h-1.94V760h1.94z" stroke="#ba23f6" stroke-width=".05" fill="#ba23f6"/><path d="M1119.96 638.5V621" stroke="#ba23f6" stroke-width="2" fill="none"/><path d="M1119.97 653.76l-4.64-14.26h9.27z" stroke="#ba23f6" stroke-width="2" fill="#ba23f6"/><path d="M1119.95 621.03V620" stroke="#ba23f6" stroke-width="2" fill="none"/><path d="M1220 678.5a20 20 0 0 1 20-20h40a20 20 0 0 1 20 20v60a20 20 0 0 1-20 20h-40a20 20 0 0 1-20-20z" stroke="#008573" stroke-width="3" fill="url(#E)"/><use xlink:href="#B" transform="matrix(1,0,0,1,1225,663.5000496233517) translate(-2.6790123456790127 36.111111111111114)"/><use xlink:href="#d" transform="matrix(1,0,0,1,1225,663.5000496233517) translate(27.506172839506174 62.77777777777778)"/><path d="M1220 818.5a20 20 0 0 1 20-20h40a20 20 0 0 1 20 20 20 20 0 0 1-20 20h-40a20 20 0 0 1-20-20z" stroke="#008573" stroke-width="3" fill="#ced4db"/><use xlink:href="#C" transform="matrix(1,0,0,1,1225,803.5000496233517) translate(8.52351851851852 19.65277777777778)"/><use xlink:href="#d" transform="matrix(1,0,0,1,1225,803.5000496233517) translate(45.49882716049383 19.65277777777778)"/><path d="M1260 778.5V761" stroke="#008573" stroke-width="2" fill="none"/><path d="M1260 793.76l-4.63-14.26h9.27z" stroke="#008573" stroke-width="2" fill="#008573"/><path d="M1260.97 761.03h-1.94V760h1.94z" stroke="#008573" stroke-width=".05" fill="#008573"/><path d="M1259.96 638.5V621" stroke="#008573" stroke-width="2" fill="none"/><path d="M1259.97 653.76l-4.64-14.26h9.27z" stroke="#008573" stroke-width="2" fill="#008573"/><path d="M1259.95 621.03V620" stroke="#008573" stroke-width="2" fill="none"/><path d="M841 579.92l2.97-.22m3.96-.3l5.94-.44m3.96-.3l5.94-.44m3.96-.3l5.94-.44m3.96-.3l5.94-.45m3.96-.3l5.94-.44m3.96-.3l5.94-.45m3.96-.3l5.94-.45m3.96-.3l5.94-.44m3.96-.3l5.94-.44m3.96-.3l5.94-.44m3.96-.3l5.94-.45m3.96-.3l5.94-.44m3.96-.3l5.94-.45m3.96-.3l5.94-.44m3.96-.3l5.94-.43m3.96-.3l5.94-.45m3.96-.3l5.94-.44m3.96-.3l5.94-.44m3.96-.3l5.94-.44m3.96-.3l2.97-.22" stroke="#3a414a" stroke-width="2" fill="none"/><path d="M841.1 580.9l-1.1.08v-1.96l.95-.07z" stroke="#3a414a" stroke-width=".05" fill="#3a414a"/><path d="M1038.98 565.08l1.02-.08M1399 560.12l-2.94.34m-3.92.45l-5.9.7m-3.92.46l-5.88.68m-3.93.46l-5.88.68m-3.92.46l-5.9.68m-3.92.46l-5.88.7m-3.93.44l-5.9.7m-3.9.45l-5.9.68m-3.93.46l-5.88.7m-3.93.45l-5.9.68m-3.9.46l-5.9.68m-3.93.45l-5.88.7m-3.93.45l-5.9.68m-3.92.46l-5.9.68m-3.92.46l-5.88.68m-3.93.46l-5.9.7m-3.9.44l-2.96.34" stroke="#3a414a" stroke-width="2" fill="none"/><path d="M1400 560.98l-.9.1-.23-1.93 1.13-.13zM1242.03 578.5h-2.1l-1.93.15-.1-.77 4-.47z" stroke="#3a414a" stroke-width=".05" fill="#3a414a"/><path d="M1080 500a20 20 0 0 1 20-20h40a20 20 0 0 1 20 20v20a20 20 0 0 1-20 20h-40a20 20 0 0 1-20-20z" stroke="#ba23f6" stroke-width="3" fill="#e8e2c8"/><use xlink:href="#F" transform="matrix(1,0,0,1,1085,485) translate(6.697530864197553 20.902777777777768)"/><use xlink:href="#G" transform="matrix(1,0,0,1,1085,485) translate(27.597592592592598 47.569444444444414)"/><path d="M940 501.67a20 20 0 0 1 20-20h40a20 20 0 0 1 20 20V520a20 20 0 0 1-20 20h-40a20 20 0 0 1-20-20z" stroke="#1071e5" stroke-width="3" fill="#e8e2c8"/><g><use xlink:href="#F" transform="matrix(1,0,0,1,945,486.66666666666663) translate(6.697530864197553 20.840277777777768)"/><use xlink:href="#H" transform="matrix(1,0,0,1,945,486.66666666666663) translate(27.597592592592598 47.506944444444414)"/></g><path d="M1220 500a20 20 0 0 1 20-20h40a20 20 0 0 1 20 20v20a20 20 0 0 1-20 20h-40a20 20 0 0 1-20-20z" stroke="#008573" stroke-width="3" fill="#e8e2c8"/><g><use xlink:href="#F" transform="matrix(1,0,0,1,1225,485) translate(6.697530864197553 20.965277777777768)"/><use xlink:href="#I" transform="matrix(1,0,0,1,1225,485) translate(27.01117283950618 47.631944444444414)"/></g><path d="M980 560v-17.5" stroke="#1071e5" stroke-width="2" fill="none"/><path d="M980 575.26L975.37 561h9.26z" stroke="#1071e5" stroke-width="2" fill="#1071e5"/><path d="M980.98 542.53H979v-1.03H981z" stroke="#1071e5" stroke-width=".05" fill="#1071e5"/><path d="M1119.58 560l.15-17.5" stroke="#ba23f6" stroke-width="2" fill="none"/><path d="M1119.46 575.26l-4.52-14.3 9.27.08z" stroke="#ba23f6" stroke-width="2" fill="#ba23f6"/><path d="M1120.7 542.53h-1.95v-1.03h1.96z" stroke="#ba23f6" stroke-width=".05" fill="#ba23f6"/><path d="M1259.25 560v-17.5" stroke="#008573" stroke-width="2" fill="none"/><path d="M1259.25 575.26l-4.63-14.26h9.27z" stroke="#008573" stroke-width="2" fill="#008573"/><path d="M1260.22 542.53h-1.94v-1.03h1.94z" stroke="#008573" stroke-width=".05" fill="#008573"/><path d="M1099.88 560H1046a6 6 0 0 0-6 6v28a6 6 0 0 1-6 6h-11.5" stroke="#1071e5" stroke-width="2" fill="none"/><path d="M1099.88 575.27l-4.63-14.27h9.27z" stroke="#1071e5" stroke-width="2" fill="#1071e5"/><path d="M1022.53 600.98h-1.1l.08-.98-.07-.98h1.1z" stroke="#1071e5" stroke-width=".05" fill="#1071e5"/><path d="M1241 560v-4a6 6 0 0 0-6-6h-47a6 6 0 0 0-6 6v38a6 6 0 0 1-6 6h-15" stroke="#ba23f6" stroke-width="2" fill="none"/><path d="M1241 575.26l-4.63-14.26h9.27z" stroke="#ba23f6" stroke-width="2" fill="#ba23f6"/><path d="M1161.03 600.98h-1.1l.08-.98-.07-.98h1.1z" stroke="#ba23f6" stroke-width=".05" fill="#ba23f6"/><path d="M1001.95 560.15V556a6 6 0 0 1 6-6H1054a6 6 0 0 1 6 6v38a6 6 0 0 0 6 6h11.5" stroke="#ba23f6" stroke-width="2" fill="none"/><path d="M1001.95 575.4l-4.64-14.25h9.28z" stroke="#ba23f6" stroke-width="2" fill="#ba23f6"/><path d="M1078.5 600l.07.98h-1.1V599h1.1z" stroke="#ba23f6" stroke-width=".05" fill="#ba23f6"/><path d="M1141.02 560.2a.2.2 0 0 1 .2-.2H1194a6 6 0 0 1 6 6v28a6 6 0 0 0 6 6h11.5" stroke="#008573" stroke-width="2" fill="none"/><path d="M1141.02 575.46l-4.63-14.27h9.26z" stroke="#008573" stroke-width="2" fill="#008573"/><path d="M1218.5 600l.07.98h-1.1V599h1.1z" stroke="#008573" stroke-width=".05" fill="#008573"/><path d="M840.92 580.4l2.76 1.2m3.68 1.6l5.53 2.42m3.68 1.6l5.52 2.4m3.7 1.62l5.5 2.4m3.7 1.6l5.52 2.42m3.7 1.6l5.52 2.4m3.68 1.62l5.53 2.4m3.68 1.6l5.53 2.42m3.68 1.6l5.53 2.4m3.68 1.62l5.53 2.4m3.68 1.6l5.53 2.42m3.68 1.6l5.52 2.4m3.7 1.62l5.5 2.4m3.7 1.6l5.52 2.42m3.7 1.6l5.5 2.4m3.7 1.62l2.76 1.2" stroke="#3a414a" stroke-width="2" fill="none"/><path d="M841.33 579.52l-.78 1.78-.55-.24v-2.12z" stroke="#3a414a" stroke-width=".05" fill="#3a414a"/><path d="M979.06 640.6l.94.4M1399 560.07l-2.96.22m-3.96.27l-5.93.43m-3.95.28l-5.93.43m-3.95.3l-5.93.43m-3.97.28l-5.93.44m-3.95.28l-5.93.43m-3.96.3l-5.93.42m-3.95.28l-5.93.43m-3.95.3l-5.93.4m-3.96.3l-5.92.43m-3.95.3l-5.93.42m-3.96.3l-5.92.4m-3.96.3l-5.93.43m-3.95.28l-5.93.43m-3.96.3l-5.94.4m-3.95.3l-5.92.43m-3.95.27l-5.93.43m-3.96.3l-5.93.4m-3.94.3l-5.93.43m-3.96.28l-5.93.44m-3.95.3l-5.94.4m-3.95.3l-5.92.43m-3.96.28l-5.93.43m-3.96.3l-5.93.42m-3.95.28l-5.93.43m-3.95.3l-5.93.42m-3.95.3l-2.98.2" stroke="#3a414a" stroke-width="2" fill="none"/><path d="M1400 560.98l-.95.07-.14-1.95 1.1-.08zM1142.06 578.8l-.2-.04-3.3-.26h-.56l-.04-.56 4.02-.3z" stroke="#3a414a" stroke-width=".05" fill="#3a414a"/><defs><path d="M205 0l-28-72H64L36 0H1l101-248h38L239 0h-34zm-38-99l-47-123c-12 45-31 82-46 123h93" id="J"/><path d="M115-194c55 1 70 41 70 98S169 2 115 4C84 4 66-9 55-30l1 105H24l-1-265h31l2 30c10-21 28-34 59-34zm-8 174c40 0 45-34 45-75s-6-73-45-74c-42 0-51 32-51 76 0 43 10 73 51 73" id="K"/><g id="a"><use transform="matrix(0.06172839506172839,0,0,0.06172839506172839,0,0)" xlink:href="#J"/><use transform="matrix(0.06172839506172839,0,0,0.06172839506172839,14.814814814814813,0)" xlink:href="#K"/><use transform="matrix(0.06172839506172839,0,0,0.06172839506172839,27.160493827160494,0)" xlink:href="#K"/></g><use transform="matrix(0.06172839506172839,0,0,0.06172839506172839,0,0)" xlink:href="#J" id="b"/><path d="M160-131c35 5 61 23 61 61C221 17 115-2 30 0v-248c76 3 177-17 177 60 0 33-19 50-47 57zm-97-11c50-1 110 9 110-42 0-47-63-36-110-37v79zm0 115c55-2 124 14 124-45 0-56-70-42-124-44v89" id="L"/><use transform="matrix(0.06172839506172839,0,0,0.06172839506172839,0,0)" xlink:href="#L" id="c"/><path d="M212-179c-10-28-35-45-73-45-59 0-87 40-87 99 0 60 29 101 89 101 43 0 62-24 78-52l27 14C228-24 195 4 139 4 59 4 22-46 18-125c-6-104 99-153 187-111 19 9 31 26 39 46" id="M"/><use transform="matrix(0.06172839506172839,0,0,0.06172839506172839,0,0)" xlink:href="#M" id="d"/><path d="M127-220V0H93v-220H8v-28h204v28h-85" id="N"/><path d="M106-169C34-169 62-67 57 0H25v-261h32l-1 103c12-21 28-36 61-36 89 0 53 116 60 194h-32v-121c2-32-8-49-39-48" id="O"/><path d="M100-194c63 0 86 42 84 106H49c0 40 14 67 53 68 26 1 43-12 49-29l28 8c-11 28-37 45-77 45C44 4 14-33 15-96c1-61 26-98 85-98zm52 81c6-60-76-77-97-28-3 7-6 17-6 28h103" id="P"/><g id="e"><use transform="matrix(0.07407407407407406,0,0,0.07407407407407406,0,0)" xlink:href="#N"/><use transform="matrix(0.07407407407407406,0,0,0.07407407407407406,16.222222222222218,0)" xlink:href="#O"/><use transform="matrix(0.07407407407407406,0,0,0.07407407407407406,31.03703703703703,0)" xlink:href="#P"/></g><path d="M141-36C126-15 110 5 73 4 37 3 15-17 15-53c-1-64 63-63 125-63 3-35-9-54-41-54-24 1-41 7-42 31l-33-3c5-37 33-52 76-52 45 0 72 20 72 64v82c-1 20 7 32 28 27v20c-31 9-61-2-59-35zM48-53c0 20 12 33 32 33 41-3 63-29 60-74-43 2-92-5-92 41" id="Q"/><path d="M24 0v-261h32V0H24" id="R"/><path d="M24-231v-30h32v30H24zM24 0v-190h32V0H24" id="S"/><path d="M96-169c-40 0-48 33-48 73s9 75 48 75c24 0 41-14 43-38l32 2c-6 37-31 61-74 61-59 0-76-41-82-99-10-93 101-131 147-64 4 7 5 14 7 22l-32 3c-4-21-16-35-41-35" id="T"/><path d="M59-47c-2 24 18 29 38 22v24C64 9 27 4 27-40v-127H5v-23h24l9-43h21v43h35v23H59v120" id="U"/><path d="M100-194c62-1 85 37 85 99 1 63-27 99-86 99S16-35 15-95c0-66 28-99 85-99zM99-20c44 1 53-31 53-75 0-43-8-75-51-75s-53 32-53 75 10 74 51 75" id="V"/><path d="M117-194c89-4 53 116 60 194h-32v-121c0-31-8-49-39-48C34-167 62-67 57 0H25l-1-190h30c1 10-1 24 2 32 11-22 29-35 61-36" id="W"/><g id="f"><use transform="matrix(0.07407407407407406,0,0,0.07407407407407406,0,0)" xlink:href="#Q"/><use transform="matrix(0.07407407407407406,0,0,0.07407407407407406,14.814814814814811,0)" xlink:href="#K"/><use transform="matrix(0.07407407407407406,0,0,0.07407407407407406,29.629629629629623,0)" xlink:href="#K"/><use transform="matrix(0.07407407407407406,0,0,0.07407407407407406,44.444444444444436,0)" xlink:href="#R"/><use transform="matrix(0.07407407407407406,0,0,0.07407407407407406,50.29629629629628,0)" xlink:href="#S"/><use transform="matrix(0.07407407407407406,0,0,0.07407407407407406,56.14814814814813,0)" xlink:href="#T"/><use transform="matrix(0.07407407407407406,0,0,0.07407407407407406,69.48148148148147,0)" xlink:href="#Q"/><use transform="matrix(0.07407407407407406,0,0,0.07407407407407406,84.29629629629628,0)" xlink:href="#U"/><use transform="matrix(0.07407407407407406,0,0,0.07407407407407406,91.70370370370368,0)" xlink:href="#S"/><use transform="matrix(0.07407407407407406,0,0,0.07407407407407406,97.55555555555553,0)" xlink:href="#V"/><use transform="matrix(0.07407407407407406,0,0,0.07407407407407406,112.37037037037034,0)" xlink:href="#W"/></g><path d="M179-190L93 31C79 59 56 82 12 73V49c39 6 53-20 64-50L1-190h34L92-34l54-156h33" id="X"/><path d="M114-163C36-179 61-72 57 0H25l-1-190h30c1 12-1 29 2 39 6-27 23-49 58-41v29" id="Y"/><g id="g"><use transform="matrix(0.07407407407407406,0,0,0.07407407407407406,0,0)" xlink:href="#R"/><use transform="matrix(0.07407407407407406,0,0,0.07407407407407406,5.85185185185185,0)" xlink:href="#Q"/><use transform="matrix(0.07407407407407406,0,0,0.07407407407407406,20.66666666666666,0)" xlink:href="#X"/><use transform="matrix(0.07407407407407406,0,0,0.07407407407407406,33.99999999999999,0)" xlink:href="#P"/><use transform="matrix(0.07407407407407406,0,0,0.07407407407407406,48.8148148148148,0)" xlink:href="#Y"/></g><path d="M135-143c-3-34-86-38-87 0 15 53 115 12 119 90S17 21 10-45l28-5c4 36 97 45 98 0-10-56-113-15-118-90-4-57 82-63 122-42 12 7 21 19 24 35" id="Z"/><g id="h"><use transform="matrix(0.07407407407407406,0,0,0.07407407407407406,0,0)" xlink:href="#T"/><use transform="matrix(0.07407407407407406,0,0,0.07407407407407406,13.33333333333333,0)" xlink:href="#Q"/><use transform="matrix(0.07407407407407406,0,0,0.07407407407407406,28.14814814814814,0)" xlink:href="#R"/><use transform="matrix(0.07407407407407406,0,0,0.07407407407407406,33.99999999999999,0)" xlink:href="#R"/><use transform="matrix(0.07407407407407406,0,0,0.07407407407407406,39.85185185185184,0)" xlink:href="#Z"/></g><g id="i"><use transform="matrix(0.07407407407407406,0,0,0.07407407407407406,0,0)" xlink:href="#S"/><use transform="matrix(0.07407407407407406,0,0,0.07407407407407406,5.85185185185185,0)" xlink:href="#W"/><use transform="matrix(0.07407407407407406,0,0,0.07407407407407406,20.66666666666666,0)" xlink:href="#U"/><use transform="matrix(0.07407407407407406,0,0,0.07407407407407406,28.074074074074066,0)" xlink:href="#V"/></g><path d="M115-194c53 0 69 39 70 98 0 66-23 100-70 100C84 3 66-7 56-30L54 0H23l1-261h32v101c10-23 28-34 59-34zm-8 174c40 0 45-34 45-75 0-40-5-75-45-74-42 0-51 32-51 76 0 43 10 73 51 73" id="aa"/><g id="j"><use transform="matrix(0.07407407407407406,0,0,0.07407407407407406,0,0)" xlink:href="#aa"/><use transform="matrix(0.07407407407407406,0,0,0.07407407407407406,14.814814814814811,0)" xlink:href="#V"/><use transform="matrix(0.07407407407407406,0,0,0.07407407407407406,29.629629629629623,0)" xlink:href="#U"/><use transform="matrix(0.07407407407407406,0,0,0.07407407407407406,37.03703703703703,0)" xlink:href="#O"/></g><g id="k"><use transform="matrix(0.07407407407407406,0,0,0.07407407407407406,0,0)" xlink:href="#U"/><use transform="matrix(0.07407407407407406,0,0,0.07407407407407406,7.407407407407406,0)" xlink:href="#O"/><use transform="matrix(0.07407407407407406,0,0,0.07407407407407406,22.222222222222218,0)" xlink:href="#P"/></g><path d="M85-194c31 0 48 13 60 33l-1-100h32l1 261h-30c-2-10 0-23-3-31C134-8 116 4 85 4 32 4 16-35 15-94c0-66 23-100 70-100zm9 24c-40 0-46 34-46 75 0 40 6 74 45 74 42 0 51-32 51-76 0-42-9-74-50-73" id="ab"/><path d="M210-169c-67 3-38 105-44 169h-31v-121c0-29-5-50-35-48C34-165 62-65 56 0H25l-1-190h30c1 10-1 24 2 32 10-44 99-50 107 0 11-21 27-35 58-36 85-2 47 119 55 194h-31v-121c0-29-5-49-35-48" id="ac"/><g id="l"><use transform="matrix(0.07407407407407406,0,0,0.07407407407407406,0,0)" xlink:href="#ab"/><use transform="matrix(0.07407407407407406,0,0,0.07407407407407406,14.814814814814811,0)" xlink:href="#V"/><use transform="matrix(0.07407407407407406,0,0,0.07407407407407406,29.629629629629623,0)" xlink:href="#ac"/><use transform="matrix(0.07407407407407406,0,0,0.07407407407407406,51.777777777777764,0)" xlink:href="#Q"/><use transform="matrix(0.07407407407407406,0,0,0.07407407407407406,66.59259259259258,0)" xlink:href="#S"/><use transform="matrix(0.07407407407407406,0,0,0.07407407407407406,72.44444444444443,0)" xlink:href="#W"/></g><g id="m"><use transform="matrix(0.07407407407407406,0,0,0.07407407407407406,0,0)" xlink:href="#R"/><use transform="matrix(0.07407407407407406,0,0,0.07407407407407406,5.85185185185185,0)" xlink:href="#Q"/><use transform="matrix(0.07407407407407406,0,0,0.07407407407407406,20.66666666666666,0)" xlink:href="#X"/><use transform="matrix(0.07407407407407406,0,0,0.07407407407407406,33.99999999999999,0)" xlink:href="#P"/><use transform="matrix(0.07407407407407406,0,0,0.07407407407407406,48.8148148148148,0)" xlink:href="#Y"/></g><path d="M101-234c-31-9-42 10-38 44h38v23H63V0H32v-167H5v-23h27c-7-52 17-82 69-68v24" id="ad"/><g id="n"><use transform="matrix(0.07407407407407406,0,0,0.07407407407407406,0,0)" xlink:href="#V"/><use transform="matrix(0.07407407407407406,0,0,0.07407407407407406,14.814814814814811,0)" xlink:href="#ad"/></g><g id="o"><use transform="matrix(0.07407407407407406,0,0,0.07407407407407406,0,0)" xlink:href="#S"/><use transform="matrix(0.07407407407407406,0,0,0.07407407407407406,5.85185185185185,0)" xlink:href="#U"/><use transform="matrix(0.07407407407407406,0,0,0.07407407407407406,13.259259259259256,0)" xlink:href="#Z"/></g><path d="M108 0H70L1-190h34L89-25l56-165h34" id="ae"/><g id="p"><use transform="matrix(0.07407407407407406,0,0,0.07407407407407406,0,0)" xlink:href="#Z"/><use transform="matrix(0.07407407407407406,0,0,0.07407407407407406,13.33333333333333,0)" xlink:href="#P"/><use transform="matrix(0.07407407407407406,0,0,0.07407407407407406,28.14814814814814,0)" xlink:href="#Y"/><use transform="matrix(0.07407407407407406,0,0,0.07407407407407406,36.962962962962955,0)" xlink:href="#ae"/><use transform="matrix(0.07407407407407406,0,0,0.07407407407407406,50.29629629629628,0)" xlink:href="#S"/><use transform="matrix(0.07407407407407406,0,0,0.07407407407407406,56.14814814814813,0)" xlink:href="#T"/><use transform="matrix(0.07407407407407406,0,0,0.07407407407407406,69.48148148148147,0)" xlink:href="#P"/></g><g id="q"><use transform="matrix(0.07407407407407406,0,0,0.07407407407407406,0,0)" xlink:href="#Q"/><use transform="matrix(0.07407407407407406,0,0,0.07407407407407406,14.814814814814811,0)" xlink:href="#W"/><use transform="matrix(0.07407407407407406,0,0,0.07407407407407406,29.629629629629623,0)" xlink:href="#ab"/></g><g id="r"><use transform="matrix(0.07407407407407406,0,0,0.07407407407407406,0,0)" xlink:href="#U"/><use transform="matrix(0.07407407407407406,0,0,0.07407407407407406,7.407407407407406,0)" xlink:href="#O"/><use transform="matrix(0.07407407407407406,0,0,0.07407407407407406,22.222222222222218,0)" xlink:href="#P"/></g><g id="s"><use transform="matrix(0.07407407407407406,0,0,0.07407407407407406,0,0)" xlink:href="#Q"/><use transform="matrix(0.07407407407407406,0,0,0.07407407407407406,14.814814814814811,0)" xlink:href="#K"/><use transform="matrix(0.07407407407407406,0,0,0.07407407407407406,29.629629629629623,0)" xlink:href="#K"/><use transform="matrix(0.07407407407407406,0,0,0.07407407407407406,44.444444444444436,0)" xlink:href="#R"/><use transform="matrix(0.07407407407407406,0,0,0.07407407407407406,50.29629629629628,0)" xlink:href="#S"/><use transform="matrix(0.07407407407407406,0,0,0.07407407407407406,56.14814814814813,0)" xlink:href="#T"/><use transform="matrix(0.07407407407407406,0,0,0.07407407407407406,69.48148148148147,0)" xlink:href="#Q"/><use transform="matrix(0.07407407407407406,0,0,0.07407407407407406,84.29629629629628,0)" xlink:href="#U"/><use transform="matrix(0.07407407407407406,0,0,0.07407407407407406,91.70370370370368,0)" xlink:href="#S"/><use transform="matrix(0.07407407407407406,0,0,0.07407407407407406,97.55555555555553,0)" xlink:href="#V"/><use transform="matrix(0.07407407407407406,0,0,0.07407407407407406,112.37037037037034,0)" xlink:href="#W"/><use transform="matrix(0.07407407407407406,0,0,0.07407407407407406,127.18518518518515,0)" xlink:href="#Z"/></g><g id="t"><use transform="matrix(0.07407407407407406,0,0,0.07407407407407406,0,0)" xlink:href="#V"/><use transform="matrix(0.07407407407407406,0,0,0.07407407407407406,14.814814814814811,0)" xlink:href="#U"/><use transform="matrix(0.07407407407407406,0,0,0.07407407407407406,22.222222222222218,0)" xlink:href="#O"/><use transform="matrix(0.07407407407407406,0,0,0.07407407407407406,37.03703703703703,0)" xlink:href="#P"/><use transform="matrix(0.07407407407407406,0,0,0.07407407407407406,51.85185185185184,0)" xlink:href="#Y"/></g><g id="u"><use transform="matrix(0.07407407407407406,0,0,0.07407407407407406,0,0)" xlink:href="#Z"/><use transform="matrix(0.07407407407407406,0,0,0.07407407407407406,13.33333333333333,0)" xlink:href="#P"/><use transform="matrix(0.07407407407407406,0,0,0.07407407407407406,28.14814814814814,0)" xlink:href="#Y"/><use transform="matrix(0.07407407407407406,0,0,0.07407407407407406,36.962962962962955,0)" xlink:href="#ae"/><use transform="matrix(0.07407407407407406,0,0,0.07407407407407406,50.29629629629628,0)" xlink:href="#S"/><use transform="matrix(0.07407407407407406,0,0,0.07407407407407406,56.14814814814813,0)" xlink:href="#T"/><use transform="matrix(0.07407407407407406,0,0,0.07407407407407406,69.48148148148147,0)" xlink:href="#P"/><use transform="matrix(0.07407407407407406,0,0,0.07407407407407406,84.29629629629628,0)" xlink:href="#Z"/></g><g id="v"><use transform="matrix(0.07407407407407406,0,0,0.07407407407407406,0,0)" xlink:href="#N"/><use transform="matrix(0.07407407407407406,0,0,0.07407407407407406,16.222222222222218,0)" xlink:href="#O"/><use transform="matrix(0.07407407407407406,0,0,0.07407407407407406,31.03703703703703,0)" xlink:href="#Q"/><use transform="matrix(0.07407407407407406,0,0,0.07407407407407406,45.85185185185184,0)" xlink:href="#U"/></g><path d="M143 0L79-87 56-68V0H24v-261h32v163l83-92h37l-77 82L181 0h-38" id="af"/><g id="w"><use transform="matrix(0.07407407407407406,0,0,0.07407407407407406,0,0)" xlink:href="#ac"/><use transform="matrix(0.07407407407407406,0,0,0.07407407407407406,22.14814814814814,0)" xlink:href="#Q"/><use transform="matrix(0.07407407407407406,0,0,0.07407407407407406,36.962962962962955,0)" xlink:href="#af"/><use transform="matrix(0.07407407407407406,0,0,0.07407407407407406,50.29629629629628,0)" xlink:href="#P"/><use transform="matrix(0.07407407407407406,0,0,0.07407407407407406,65.1111111111111,0)" xlink:href="#Z"/></g><g id="x"><use transform="matrix(0.07407407407407406,0,0,0.07407407407407406,0,0)" xlink:href="#V"/><use transform="matrix(0.07407407407407406,0,0,0.07407407407407406,14.814814814814811,0)" xlink:href="#W"/><use transform="matrix(0.07407407407407406,0,0,0.07407407407407406,29.629629629629623,0)" xlink:href="#R"/><use transform="matrix(0.07407407407407406,0,0,0.07407407407407406,35.481481481481474,0)" xlink:href="#X"/></g><g id="y"><use transform="matrix(0.07407407407407406,0,0,0.07407407407407406,0,0)" xlink:href="#Q"/><use transform="matrix(0.07407407407407406,0,0,0.07407407407407406,14.814814814814811,0)" xlink:href="#K"/><use transform="matrix(0.07407407407407406,0,0,0.07407407407407406,29.629629629629623,0)" xlink:href="#K"/><use transform="matrix(0.07407407407407406,0,0,0.07407407407407406,44.444444444444436,0)" xlink:href="#R"/><use transform="matrix(0.07407407407407406,0,0,0.07407407407407406,50.29629629629628,0)" xlink:href="#S"/><use transform="matrix(0.07407407407407406,0,0,0.07407407407407406,56.14814814814813,0)" xlink:href="#T"/><use transform="matrix(0.07407407407407406,0,0,0.07407407407407406,69.48148148148147,0)" xlink:href="#Q"/><use transform="matrix(0.07407407407407406,0,0,0.07407407407407406,84.29629629629628,0)" xlink:href="#U"/><use transform="matrix(0.07407407407407406,0,0,0.07407407407407406,91.70370370370368,0)" xlink:href="#S"/><use transform="matrix(0.07407407407407406,0,0,0.07407407407407406,97.55555555555553,0)" xlink:href="#V"/><use transform="matrix(0.07407407407407406,0,0,0.07407407407407406,112.37037037037034,0)" xlink:href="#W"/><use transform="matrix(0.07407407407407406,0,0,0.07407407407407406,127.18518518518515,0)" xlink:href="#Z"/></g><g id="z"><use transform="matrix(0.07407407407407406,0,0,0.07407407407407406,0,0)" xlink:href="#S"/><use transform="matrix(0.07407407407407406,0,0,0.07407407407407406,5.85185185185185,0)" xlink:href="#W"/><use transform="matrix(0.07407407407407406,0,0,0.07407407407407406,20.66666666666666,0)" xlink:href="#U"/><use transform="matrix(0.07407407407407406,0,0,0.07407407407407406,28.074074074074066,0)" xlink:href="#P"/><use transform="matrix(0.07407407407407406,0,0,0.07407407407407406,42.88888888888888,0)" xlink:href="#Y"/><use transform="matrix(0.07407407407407406,0,0,0.07407407407407406,51.70370370370369,0)" xlink:href="#ab"/><use transform="matrix(0.07407407407407406,0,0,0.07407407407407406,66.5185185185185,0)" xlink:href="#P"/><use transform="matrix(0.07407407407407406,0,0,0.07407407407407406,81.33333333333331,0)" xlink:href="#K"/><use transform="matrix(0.07407407407407406,0,0,0.07407407407407406,96.14814814814812,0)" xlink:href="#P"/><use transform="matrix(0.07407407407407406,0,0,0.07407407407407406,110.96296296296293,0)" xlink:href="#W"/><use transform="matrix(0.07407407407407406,0,0,0.07407407407407406,125.77777777777774,0)" xlink:href="#ab"/><use transform="matrix(0.07407407407407406,0,0,0.07407407407407406,140.59259259259255,0)" xlink:href="#P"/><use transform="matrix(0.07407407407407406,0,0,0.07407407407407406,155.40740740740736,0)" xlink:href="#W"/><use transform="matrix(0.07407407407407406,0,0,0.07407407407407406,170.22222222222217,0)" xlink:href="#U"/></g><linearGradient gradientUnits="userSpaceOnUse" id="A" x1="940" y1="760" x2="940" y2="660"><stop offset="36.43%" stop-color="#fff"/><stop offset="47.14%" stop-color="#cfe4ff"/></linearGradient><path d="M30-248c118-7 216 8 213 122C240-48 200 0 122 0H30v-248zM63-27c89 8 146-16 146-99s-60-101-146-95v194" id="ag"/><g id="B"><use transform="matrix(0.06172839506172839,0,0,0.06172839506172839,0,0)" xlink:href="#ag"/><use transform="matrix(0.06172839506172839,0,0,0.06172839506172839,15.987654320987653,0)" xlink:href="#V"/><use transform="matrix(0.06172839506172839,0,0,0.06172839506172839,28.333333333333332,0)" xlink:href="#ac"/><use transform="matrix(0.06172839506172839,0,0,0.06172839506172839,46.79012345679012,0)" xlink:href="#Q"/><use transform="matrix(0.06172839506172839,0,0,0.06172839506172839,59.1358024691358,0)" xlink:href="#S"/><use transform="matrix(0.06172839506172839,0,0,0.06172839506172839,64.01234567901234,0)" xlink:href="#W"/></g><g id="C"><use transform="matrix(0.06172839506172839,0,0,0.06172839506172839,0,0)" xlink:href="#ag"/><use transform="matrix(0.06172839506172839,0,0,0.06172839506172839,15.987654320987653,0)" xlink:href="#L"/></g><linearGradient gradientUnits="userSpaceOnUse" id="D" x1="1080" y1="758.5" x2="1080" y2="658.5"><stop offset="36.43%" stop-color="#fff"/><stop offset="47.14%" stop-color="#cfe4ff"/></linearGradient><linearGradient gradientUnits="userSpaceOnUse" id="E" x1="1220" y1="758.5" x2="1220" y2="658.5"><stop offset="36.43%" stop-color="#fff"/><stop offset="47.14%" stop-color="#cfe4ff"/></linearGradient><g id="F"><use transform="matrix(0.06172839506172835,0,0,0.06172839506172835,0,0)" xlink:href="#M"/><use transform="matrix(0.06172839506172835,0,0,0.06172839506172835,15.987654320987643,0)" xlink:href="#R"/><use transform="matrix(0.06172839506172835,0,0,0.06172839506172835,20.864197530864182,0)" xlink:href="#S"/><use transform="matrix(0.06172839506172835,0,0,0.06172839506172835,25.740740740740723,0)" xlink:href="#P"/><use transform="matrix(0.06172839506172835,0,0,0.06172839506172835,38.08641975308639,0)" xlink:href="#W"/><use transform="matrix(0.06172839506172835,0,0,0.06172839506172835,50.43209876543206,0)" xlink:href="#U"/></g><use transform="matrix(0.06172839506172835,0,0,0.06172839506172835,0,0)" xlink:href="#L" id="G"/><use transform="matrix(0.06172839506172835,0,0,0.06172839506172835,0,0)" xlink:href="#J" id="H"/><use transform="matrix(0.06172839506172835,0,0,0.06172839506172835,0,0)" xlink:href="#M" id="I"/></defs></g></svg>