<svg xmlns="http://www.w3.org/2000/svg" xmlns:xlink="http://www.w3.org/1999/xlink" xmlns:lucid="lucid" width="1023" height="294.11"><g transform="translate(-598.5 -547.3933494510761)" lucid:page-tab-id="0_0"><path d="M940 600a20 20 0 0 1 20-20h40a20 20 0 0 1 20 20 20 20 0 0 1-20 20h-40a20 20 0 0 1-20-20z" stroke="#1071e5" stroke-width="3" fill="#c3f7c8"/><use xlink:href="#a" transform="matrix(1,0,0,1,945,585.0000162578175) translate(4.758086419753086 19.65277777777778)"/><use xlink:href="#b" transform="matrix(1,0,0,1,945,585.0000162578175) translate(50.4370987654321 19.65277777777778)"/><path d="M1080 600a20 20 0 0 1 20-20h38.5a20 20 0 0 1 20 20 20 20 0 0 1-20 20H1100a20 20 0 0 1-20-20z" stroke="#ba23f6" stroke-width="3" fill="#c3f7c8"/><use xlink:href="#a" transform="matrix(1,0,0,1,1085.0000499999996,585) translate(4.258086419753086 19.65277777777778)"/><use xlink:href="#c" transform="matrix(1,0,0,1,1085.0000499999996,585) translate(49.9370987654321 19.65277777777778)"/><path d="M1220 600a20 20 0 0 1 20-20h38.5a20 20 0 0 1 20 20 20 20 0 0 1-20 20H1240a20 20 0 0 1-20-20z" stroke="#008573" stroke-width="3" fill="#c3f7c8"/><use xlink:href="#a" transform="matrix(1,0,0,1,1225,585) translate(3.6716666666666686 19.65277777777778)"/><use xlink:href="#d" transform="matrix(1,0,0,1,1225,585) translate(49.35067901234568 19.65277777777778)"/><path d="M1016.5 580h-73M1016.4 580h3.6M943.6 580H940" stroke="#1071e5" stroke-width="7" fill="none"/><path d="M1156.5 580h-73M1156.4 580h3.6M1083.6 580h-3.6" stroke="#ba23f6" stroke-width="7" fill="none"/><path d="M1296.5 580h-73M1296.4 580h3.6M1223.6 580h-3.6" stroke="#008573" stroke-width="7" fill="none"/><path d="M993.54 567.4l3.96-3.4 5.55-4.32 4.37-3.04 3.54-2.2 2.94-1.64 2.5-1.23 2.14-.92 1.9-.7 1.66-.53 1.5-.38 1.37-.28 1.25-.2 1.16-.1 1.1-.07h1l.97.04.92.1.88.13.85.18.83.22.82.25.8.3.8.34.78.4.8.44.8.5.82.57.83.65.87.75.9.87.97 1 1.03 1.22 1.12 1.46 1.26 1.83 1.5 2.4 1.94 3.56 10.22 20.76 1.44 2.34 1.22 1.77 1.1 1.4.97 1.16.92.97.86.83.84.7.8.63.77.54.76.47.75.42.76.36.74.32.75.28.76.24.78.2.8.16.82.13.85.08.7.03" stroke="#1071e5" stroke-width="2" stroke-linejoin="round" fill="none"/><path d="M982.37 577.8l7.3-13.12 6.3 6.8z" stroke="#1071e5" stroke-width="2" fill="#fff"/><path d="M1078.62 598.45l-.13 1.55.03.4h-1.02l.02-1.95z" stroke="#1071e5" stroke-width=".05" fill="#1071e5"/><path d="M1247.65 567.55l-2.5-2.14-5.26-4.02-4.2-2.9-3.4-2.1-2.86-1.6-2.44-1.2-2.1-.9-1.88-.7-1.66-.53-1.5-.4-1.37-.3-1.27-.2-1.16-.12-1.1-.07h-1.02l-.98.02-.93.1-.9.1-.88.17-.84.2-.84.25-.8.28-.83.33-.8.38-.83.43-.83.5-.86.55-.86.63-.9.73-.95.86-1 1-1.1 1.16-1.18 1.44-1.36 1.8-1.65 2.43-2.26 3.72-10.17 18.2-1.72 2.53-1.43 1.92-1.27 1.53-1.17 1.27-1.08 1.06-1.03.92-1 .8-.94.7-.93.6-.92.54-.9.47-.9.4-.92.38-.92.32-.93.27-.96.23-1 .2-1.03.13-1.07.1-1.1.03" stroke="#008573" stroke-width="2" stroke-linejoin="round" fill="none"/><path d="M1258.94 577.82l-13.67-6.18 6.24-6.85z" stroke="#008573" stroke-width="2" fill="#fff"/><path d="M1161.04 599.06l-.02 1.95h-1.1l.1-1-.1-.95z" stroke="#008573" stroke-width=".05" fill="#008573"/><path d="M1107 567.53l-3.2-2.7-5.4-4.12-4.23-2.9-3.45-2.13-2.87-1.57-2.44-1.18-2.1-.9-1.85-.66-1.65-.5-1.48-.38-1.35-.27-1.23-.18-1.15-.1-1.08-.06h-1l-.96.06-.9.1-.9.13-.84.18-.82.22-.8.25-.8.3-.8.34-.8.4-.8.44-.8.5-.8.58-.86.65-.87.76-.92.88-.98 1.03-1.05 1.23-1.16 1.5-1.33 1.9-1.6 2.58-2.27 4.1-8.96 17.48-1.63 2.6-1.34 1.95-1.2 1.54-1.06 1.25-1 1.04-.94.9-.9.76-.86.68-.84.6-.83.5-.82.46-.8.4-.83.36-.82.3-.84.27-.86.22-.88.17-.9.15-.96.1-1 .05h-.72" stroke="#ba23f6" stroke-width="2" stroke-linejoin="round" fill="none"/><path d="M1118.27 577.82l-13.66-6.2 6.26-6.84z" stroke="#ba23f6" stroke-width="2" fill="#fff"/><path d="M1022.55 598.8l-.08 1.96-1.02-.04.05-.72-.1-1.23z" stroke="#ba23f6" stroke-width=".05" fill="#ba23f6"/><path d="M1133.1 567.62l3.9-3.26 5.7-4.3 4.53-3.03 3.68-2.23 3.08-1.64 2.6-1.24 2.28-.94 1.98-.7 1.77-.53 1.6-.4 1.44-.26 1.33-.2 1.23-.1 1.14-.05h1.08l1.02.07.98.1.94.17.9.2.88.23.87.28.86.33.84.37.83.42.84.48.85.54.87.62.87.7.92.8.94.92 1 1.08 1.1 1.28 1.17 1.56 1.34 1.94 1.57 2.56 2.08 3.82 9.8 19.96 1.44 2.36 1.2 1.75 1.06 1.38.95 1.13.88.96.84.8.8.7.75.6.72.5.72.47.7.4.7.35.7.3.7.27.7.23.72.2.73.16.74.12.56.06" stroke="#ba23f6" stroke-width="2" stroke-linejoin="round" fill="none"/><path d="M1121.74 577.83l7.5-13 6.2 6.9z" stroke="#ba23f6" stroke-width="2" fill="#fff"/><path d="M1218.57 599.03l-.08.97.07.98-1.16-.07.13-1.94z" stroke="#ba23f6" stroke-width=".05" fill="#ba23f6"/><path d="M600 586a6 6 0 0 1 6-6h228a6 6 0 0 1 6 6v128a6 6 0 0 1-6 6H606a6 6 0 0 1-6-6z" stroke="#000" stroke-opacity="0" stroke-width="3" fill="#fff" fill-opacity="0"/><use xlink:href="#e" transform="matrix(1,0,0,1,605,585) translate(7.814814814814838 22.333333333333343)"/><use xlink:href="#f" transform="matrix(1,0,0,1,605,585) translate(117.29629629629629 22.333333333333343)"/><use xlink:href="#g" transform="matrix(1,0,0,1,605,585) translate(185.14814814814812 22.333333333333343)"/><use xlink:href="#h" transform="matrix(1,0,0,1,605,585) translate(-4.148148148148124 54.333333333333336)"/><use xlink:href="#i" transform="matrix(1,0,0,1,605,585) translate(35.14814814814817 86.33333333333333)"/><use xlink:href="#j" transform="matrix(1,0,0,1,605,585) translate(64.77777777777779 86.33333333333333)"/><use xlink:href="#k" transform="matrix(1,0,0,1,605,585) translate(109.22222222222223 86.33333333333333)"/><use xlink:href="#l" transform="matrix(1,0,0,1,605,585) translate(24.7777777777778 118.33333333333331)"/><use xlink:href="#m" transform="matrix(1,0,0,1,605,585) translate(159.37037037037035 118.33333333333331)"/><path d="M1400 646a6 6 0 0 1 6-6h208a6 6 0 0 1 6 6v128a6 6 0 0 1-6 6h-208a6 6 0 0 1-6-6z" stroke="#000" stroke-opacity="0" stroke-width="3" fill="#fff" fill-opacity="0"/><use xlink:href="#n" transform="matrix(1,0,0,1,1405,645) translate(44.40740740740742 25.39583333333333)"/><use xlink:href="#o" transform="matrix(1,0,0,1,1405,645) translate(97.66666666666666 25.39583333333333)"/><use xlink:href="#p" transform="matrix(1,0,0,1,1405,645) translate(8.851851851851876 57.39583333333332)"/><use xlink:href="#q" transform="matrix(1,0,0,1,1405,645) translate(103.51851851851852 57.39583333333332)"/><use xlink:href="#r" transform="matrix(1,0,0,1,1405,645) translate(1.296296296296319 89.39583333333331)"/><use xlink:href="#s" transform="matrix(1,0,0,1,1405,645) translate(38.33333333333335 89.39583333333331)"/><use xlink:href="#t" transform="matrix(1,0,0,1,1405,645) translate(82.77777777777779 89.39583333333331)"/><use xlink:href="#u" transform="matrix(1,0,0,1,1405,645) translate(179.07407407407408 89.39583333333331)"/><use xlink:href="#v" transform="matrix(1,0,0,1,1405,645) translate(42.07407407407408 121.3958333333333)"/><use xlink:href="#w" transform="matrix(1,0,0,1,1405,645) translate(107.25925925925927 121.3958333333333)"/><path d="M940 680a20 20 0 0 1 20-20h40a20 20 0 0 1 20 20v60a20 20 0 0 1-20 20h-40a20 20 0 0 1-20-20z" stroke="#1071e5" stroke-width="3" fill="url(#x)"/><use xlink:href="#y" transform="matrix(1,0,0,1,945,665) translate(-2.6790123456790127 36.111111111111114)"/><use xlink:href="#b" transform="matrix(1,0,0,1,945,665) translate(28.092592592592595 62.77777777777778)"/><path d="M940 820a20 20 0 0 1 20-20h40a20 20 0 0 1 20 20 20 20 0 0 1-20 20h-40a20 20 0 0 1-20-20z" stroke="#1071e5" stroke-width="3" fill="#ced4db"/><use xlink:href="#z" transform="matrix(1,0,0,1,945,805) translate(9.10993827160494 19.65277777777778)"/><use xlink:href="#b" transform="matrix(1,0,0,1,945,805) translate(46.08524691358025 19.65277777777778)"/><path d="M980 780v-17.5" stroke="#1071e5" stroke-width="2" fill="none"/><path d="M980 795.26L975.37 781h9.26z" stroke="#1071e5" stroke-width="2" fill="#fff"/><path d="M980.98 762.53H979v-1.03H981z" stroke="#1071e5" stroke-width=".05" fill="#1071e5"/><path d="M980 640v-17.5" stroke="#1071e5" stroke-width="2" fill="none"/><path d="M980 655.26L975.37 641h9.26z" stroke="#1071e5" stroke-width="2" fill="#fff"/><path d="M980.98 622.53H979v-1.03H981z" stroke="#1071e5" stroke-width=".05" fill="#1071e5"/><path d="M1080 678.5a20 20 0 0 1 20-20h40a20 20 0 0 1 20 20v60a20 20 0 0 1-20 20h-40a20 20 0 0 1-20-20z" stroke="#ba23f6" stroke-width="3" fill="url(#A)"/><use xlink:href="#y" transform="matrix(1,0,0,1,1085,663.5000496233517) translate(-2.6790123456790127 36.111111111111114)"/><use xlink:href="#c" transform="matrix(1,0,0,1,1085,663.5000496233517) translate(28.092592592592595 62.77777777777778)"/><path d="M1080 818.5a20 20 0 0 1 20-20h40a20 20 0 0 1 20 20 20 20 0 0 1-20 20h-40a20 20 0 0 1-20-20z" stroke="#ba23f6" stroke-width="3" fill="#ced4db"/><use xlink:href="#z" transform="matrix(1,0,0,1,1085,803.5000496233517) translate(9.10993827160494 19.65277777777778)"/><use xlink:href="#c" transform="matrix(1,0,0,1,1085,803.5000496233517) translate(46.08524691358025 19.65277777777778)"/><path d="M1120 778.5V761" stroke="#ba23f6" stroke-width="2" fill="none"/><path d="M1120 793.76l-4.63-14.26h9.27z" stroke="#ba23f6" stroke-width="2" fill="#fff"/><path d="M1120.97 761.03h-1.94V760h1.94z" stroke="#ba23f6" stroke-width=".05" fill="#ba23f6"/><path d="M1119.96 638.5V621" stroke="#ba23f6" stroke-width="2" fill="none"/><path d="M1119.97 653.76l-4.64-14.26h9.27z" stroke="#ba23f6" stroke-width="2" fill="#fff"/><path d="M1119.95 621.03V620" stroke="#ba23f6" stroke-width="2" fill="none"/><path d="M1220 678.5a20 20 0 0 1 20-20h40a20 20 0 0 1 20 20v60a20 20 0 0 1-20 20h-40a20 20 0 0 1-20-20z" stroke="#008573" stroke-width="3" fill="url(#B)"/><g><use xlink:href="#y" transform="matrix(1,0,0,1,1225,663.5000496233517) translate(-2.6790123456790127 36.111111111111114)"/><use xlink:href="#d" transform="matrix(1,0,0,1,1225,663.5000496233517) translate(27.506172839506174 62.77777777777778)"/></g><path d="M1220 818.5a20 20 0 0 1 20-20h40a20 20 0 0 1 20 20 20 20 0 0 1-20 20h-40a20 20 0 0 1-20-20z" stroke="#008573" stroke-width="3" fill="#ced4db"/><g><use xlink:href="#z" transform="matrix(1,0,0,1,1225,803.5000496233517) translate(8.52351851851852 19.65277777777778)"/><use xlink:href="#d" transform="matrix(1,0,0,1,1225,803.5000496233517) translate(45.49882716049383 19.65277777777778)"/></g><path d="M1260 778.5V761" stroke="#008573" stroke-width="2" fill="none"/><path d="M1260 793.76l-4.63-14.26h9.27z" stroke="#008573" stroke-width="2" fill="#fff"/><path d="M1260.97 761.03h-1.94V760h1.94z" stroke="#008573" stroke-width=".05" fill="#008573"/><path d="M1259.96 638.5V621" stroke="#008573" stroke-width="2" fill="none"/><path d="M1259.97 653.76l-4.64-14.26h9.27z" stroke="#008573" stroke-width="2" fill="#fff"/><path d="M1259.95 621.03V620" stroke="#008573" stroke-width="2" fill="none"/><path d="M840.95 632.35l2.9-.96m3.86-1.3l5.8-1.9m3.87-1.3l5.8-1.92m3.86-1.28l5.8-1.92m3.86-1.28l5.8-1.92m3.85-1.3l5.8-1.9m3.86-1.3l5.8-1.9m3.87-1.3l5.8-1.9m3.86-1.3l5.8-1.92m3.86-1.28l5.78-1.92m3.87-1.28l2.9-.96" stroke="#3a414a" stroke-width="2" fill="none"/><path d="M841.28 633.27l-1.28.42v-2.06l.67-.22zM938.5 600l.07 1-.74.25-.62-1.85 1.38-.45z" stroke="#3a414a" stroke-width=".05" fill="#3a414a"/><path d="M1399 710h-2.9m-3.86 0h-5.8m-3.85 0h-5.8m-3.86 0h-5.8m-3.85 0h-5.8m-3.86 0h-5.8m-3.85 0h-5.8m-3.86 0h-5.78m-3.87 0h-5.8m-3.86 0h-5.78m-3.87 0h-2.9" stroke="#3a414a" stroke-width="2" fill="none"/><path d="M1400 710.98h-1.03V709h1.03zM1302.53 710.98h-1.03V709h1.03z" stroke="#3a414a" stroke-width=".05" fill="#3a414a"/><defs><path d="M205 0l-28-72H64L36 0H1l101-248h38L239 0h-34zm-38-99l-47-123c-12 45-31 82-46 123h93" id="C"/><path d="M115-194c55 1 70 41 70 98S169 2 115 4C84 4 66-9 55-30l1 105H24l-1-265h31l2 30c10-21 28-34 59-34zm-8 174c40 0 45-34 45-75s-6-73-45-74c-42 0-51 32-51 76 0 43 10 73 51 73" id="D"/><g id="a"><use transform="matrix(0.06172839506172839,0,0,0.06172839506172839,0,0)" xlink:href="#C"/><use transform="matrix(0.06172839506172839,0,0,0.06172839506172839,14.814814814814813,0)" xlink:href="#D"/><use transform="matrix(0.06172839506172839,0,0,0.06172839506172839,27.160493827160494,0)" xlink:href="#D"/></g><use transform="matrix(0.06172839506172839,0,0,0.06172839506172839,0,0)" xlink:href="#C" id="b"/><path d="M160-131c35 5 61 23 61 61C221 17 115-2 30 0v-248c76 3 177-17 177 60 0 33-19 50-47 57zm-97-11c50-1 110 9 110-42 0-47-63-36-110-37v79zm0 115c55-2 124 14 124-45 0-56-70-42-124-44v89" id="E"/><use transform="matrix(0.06172839506172839,0,0,0.06172839506172839,0,0)" xlink:href="#E" id="c"/><path d="M212-179c-10-28-35-45-73-45-59 0-87 40-87 99 0 60 29 101 89 101 43 0 62-24 78-52l27 14C228-24 195 4 139 4 59 4 22-46 18-125c-6-104 99-153 187-111 19 9 31 26 39 46" id="F"/><use transform="matrix(0.06172839506172839,0,0,0.06172839506172839,0,0)" xlink:href="#F" id="d"/><path d="M30 0v-248h33v221h125V0H30" id="G"/><path d="M141-36C126-15 110 5 73 4 37 3 15-17 15-53c-1-64 63-63 125-63 3-35-9-54-41-54-24 1-41 7-42 31l-33-3c5-37 33-52 76-52 45 0 72 20 72 64v82c-1 20 7 32 28 27v20c-31 9-61-2-59-35zM48-53c0 20 12 33 32 33 41-3 63-29 60-74-43 2-92-5-92 41" id="H"/><path d="M179-190L93 31C79 59 56 82 12 73V49c39 6 53-20 64-50L1-190h34L92-34l54-156h33" id="I"/><path d="M100-194c63 0 86 42 84 106H49c0 40 14 67 53 68 26 1 43-12 49-29l28 8c-11 28-37 45-77 45C44 4 14-33 15-96c1-61 26-98 85-98zm52 81c6-60-76-77-97-28-3 7-6 17-6 28h103" id="J"/><path d="M114-163C36-179 61-72 57 0H25l-1-190h30c1 12-1 29 2 39 6-27 23-49 58-41v29" id="K"/><path d="M24-231v-30h32v30H24zM24 0v-190h32V0H24" id="L"/><path d="M117-194c89-4 53 116 60 194h-32v-121c0-31-8-49-39-48C34-167 62-67 57 0H25l-1-190h30c1 10-1 24 2 32 11-22 29-35 61-36" id="M"/><path d="M177-190C167-65 218 103 67 71c-23-6-38-20-44-43l32-5c15 47 100 32 89-28v-30C133-14 115 1 83 1 29 1 15-40 15-95c0-56 16-97 71-98 29-1 48 16 59 35 1-10 0-23 2-32h30zM94-22c36 0 50-32 50-73 0-42-14-75-50-75-39 0-46 34-46 75s6 73 46 73" id="N"/><g id="e"><use transform="matrix(0.07407407407407406,0,0,0.07407407407407406,0,0)" xlink:href="#G"/><use transform="matrix(0.07407407407407406,0,0,0.07407407407407406,14.814814814814811,0)" xlink:href="#H"/><use transform="matrix(0.07407407407407406,0,0,0.07407407407407406,29.629629629629623,0)" xlink:href="#I"/><use transform="matrix(0.07407407407407406,0,0,0.07407407407407406,42.962962962962955,0)" xlink:href="#J"/><use transform="matrix(0.07407407407407406,0,0,0.07407407407407406,57.777777777777764,0)" xlink:href="#K"/><use transform="matrix(0.07407407407407406,0,0,0.07407407407407406,66.59259259259258,0)" xlink:href="#L"/><use transform="matrix(0.07407407407407406,0,0,0.07407407407407406,72.44444444444443,0)" xlink:href="#M"/><use transform="matrix(0.07407407407407406,0,0,0.07407407407407406,87.25925925925924,0)" xlink:href="#N"/></g><path d="M24 0v-261h32V0H24" id="O"/><path d="M210-169c-67 3-38 105-44 169h-31v-121c0-29-5-50-35-48C34-165 62-65 56 0H25l-1-190h30c1 10-1 24 2 32 10-44 99-50 107 0 11-21 27-35 58-36 85-2 47 119 55 194h-31v-121c0-29-5-49-35-48" id="P"/><path d="M59-47c-2 24 18 29 38 22v24C64 9 27 4 27-40v-127H5v-23h24l9-43h21v43h35v23H59v120" id="Q"/><path d="M135-143c-3-34-86-38-87 0 15 53 115 12 119 90S17 21 10-45l28-5c4 36 97 45 98 0-10-56-113-15-118-90-4-57 82-63 122-42 12 7 21 19 24 35" id="R"/><g id="f"><use transform="matrix(0.07407407407407406,0,0,0.07407407407407406,0,0)" xlink:href="#O"/><use transform="matrix(0.07407407407407406,0,0,0.07407407407407406,5.85185185185185,0)" xlink:href="#L"/><use transform="matrix(0.07407407407407406,0,0,0.07407407407407406,11.7037037037037,0)" xlink:href="#P"/><use transform="matrix(0.07407407407407406,0,0,0.07407407407407406,33.85185185185184,0)" xlink:href="#L"/><use transform="matrix(0.07407407407407406,0,0,0.07407407407407406,39.70370370370369,0)" xlink:href="#Q"/><use transform="matrix(0.07407407407407406,0,0,0.07407407407407406,47.11111111111109,0)" xlink:href="#R"/></g><path d="M106-169C34-169 62-67 57 0H25v-261h32l-1 103c12-21 28-36 61-36 89 0 53 116 60 194h-32v-121c2-32-8-49-39-48" id="S"/><g id="g"><use transform="matrix(0.07407407407407406,0,0,0.07407407407407406,0,0)" xlink:href="#Q"/><use transform="matrix(0.07407407407407406,0,0,0.07407407407407406,7.407407407407406,0)" xlink:href="#S"/><use transform="matrix(0.07407407407407406,0,0,0.07407407407407406,22.222222222222218,0)" xlink:href="#J"/></g><path d="M96-169c-40 0-48 33-48 73s9 75 48 75c24 0 41-14 43-38l32 2c-6 37-31 61-74 61-59 0-76-41-82-99-10-93 101-131 147-64 4 7 5 14 7 22l-32 3c-4-21-16-35-41-35" id="T"/><path d="M100-194c62-1 85 37 85 99 1 63-27 99-86 99S16-35 15-95c0-66 28-99 85-99zM99-20c44 1 53-31 53-75 0-43-8-75-51-75s-53 32-53 75 10 74 51 75" id="U"/><path d="M16-82v-28h88v28H16" id="V"/><path d="M85-194c31 0 48 13 60 33l-1-100h32l1 261h-30c-2-10 0-23-3-31C134-8 116 4 85 4 32 4 16-35 15-94c0-66 23-100 70-100zm9 24c-40 0-46 34-46 75 0 40 6 74 45 74 42 0 51-32 51-76 0-42-9-74-50-73" id="W"/><g id="h"><use transform="matrix(0.07407407407407406,0,0,0.07407407407407406,0,0)" xlink:href="#T"/><use transform="matrix(0.07407407407407406,0,0,0.07407407407407406,13.33333333333333,0)" xlink:href="#K"/><use transform="matrix(0.07407407407407406,0,0,0.07407407407407406,22.148148148148145,0)" xlink:href="#U"/><use transform="matrix(0.07407407407407406,0,0,0.07407407407407406,36.962962962962955,0)" xlink:href="#R"/><use transform="matrix(0.07407407407407406,0,0,0.07407407407407406,50.29629629629628,0)" xlink:href="#R"/><use transform="matrix(0.07407407407407406,0,0,0.07407407407407406,63.62962962962961,0)" xlink:href="#V"/><use transform="matrix(0.07407407407407406,0,0,0.07407407407407406,72.44444444444443,0)" xlink:href="#W"/><use transform="matrix(0.07407407407407406,0,0,0.07407407407407406,87.25925925925924,0)" xlink:href="#J"/><use transform="matrix(0.07407407407407406,0,0,0.07407407407407406,102.07407407407405,0)" xlink:href="#D"/><use transform="matrix(0.07407407407407406,0,0,0.07407407407407406,116.88888888888886,0)" xlink:href="#J"/><use transform="matrix(0.07407407407407406,0,0,0.07407407407407406,131.70370370370367,0)" xlink:href="#M"/><use transform="matrix(0.07407407407407406,0,0,0.07407407407407406,146.51851851851848,0)" xlink:href="#W"/><use transform="matrix(0.07407407407407406,0,0,0.07407407407407406,161.3333333333333,0)" xlink:href="#J"/><use transform="matrix(0.07407407407407406,0,0,0.07407407407407406,176.1481481481481,0)" xlink:href="#M"/><use transform="matrix(0.07407407407407406,0,0,0.07407407407407406,190.9629629629629,0)" xlink:href="#T"/><use transform="matrix(0.07407407407407406,0,0,0.07407407407407406,204.29629629629625,0)" xlink:href="#L"/><use transform="matrix(0.07407407407407406,0,0,0.07407407407407406,210.1481481481481,0)" xlink:href="#J"/><use transform="matrix(0.07407407407407406,0,0,0.07407407407407406,224.9629629629629,0)" xlink:href="#R"/></g><g id="i"><use transform="matrix(0.07407407407407406,0,0,0.07407407407407406,0,0)" xlink:href="#Q"/><use transform="matrix(0.07407407407407406,0,0,0.07407407407407406,7.407407407407406,0)" xlink:href="#U"/></g><g id="j"><use transform="matrix(0.07407407407407406,0,0,0.07407407407407406,0,0)" xlink:href="#Q"/><use transform="matrix(0.07407407407407406,0,0,0.07407407407407406,7.407407407407406,0)" xlink:href="#S"/><use transform="matrix(0.07407407407407406,0,0,0.07407407407407406,22.222222222222218,0)" xlink:href="#J"/></g><g id="k"><use transform="matrix(0.07407407407407406,0,0,0.07407407407407406,0,0)" xlink:href="#R"/><use transform="matrix(0.07407407407407406,0,0,0.07407407407407406,13.33333333333333,0)" xlink:href="#P"/><use transform="matrix(0.07407407407407406,0,0,0.07407407407407406,35.481481481481474,0)" xlink:href="#H"/><use transform="matrix(0.07407407407407406,0,0,0.07407407407407406,50.29629629629628,0)" xlink:href="#O"/><use transform="matrix(0.07407407407407406,0,0,0.07407407407407406,56.14814814814813,0)" xlink:href="#O"/><use transform="matrix(0.07407407407407406,0,0,0.07407407407407406,61.99999999999998,0)" xlink:href="#J"/><use transform="matrix(0.07407407407407406,0,0,0.07407407407407406,76.8148148148148,0)" xlink:href="#K"/></g><g id="l"><use transform="matrix(0.07407407407407406,0,0,0.07407407407407406,0,0)" xlink:href="#H"/><use transform="matrix(0.07407407407407406,0,0,0.07407407407407406,14.814814814814811,0)" xlink:href="#D"/><use transform="matrix(0.07407407407407406,0,0,0.07407407407407406,29.629629629629623,0)" xlink:href="#D"/><use transform="matrix(0.07407407407407406,0,0,0.07407407407407406,44.444444444444436,0)" xlink:href="#O"/><use transform="matrix(0.07407407407407406,0,0,0.07407407407407406,50.29629629629628,0)" xlink:href="#L"/><use transform="matrix(0.07407407407407406,0,0,0.07407407407407406,56.14814814814813,0)" xlink:href="#T"/><use transform="matrix(0.07407407407407406,0,0,0.07407407407407406,69.48148148148147,0)" xlink:href="#H"/><use transform="matrix(0.07407407407407406,0,0,0.07407407407407406,84.29629629629628,0)" xlink:href="#Q"/><use transform="matrix(0.07407407407407406,0,0,0.07407407407407406,91.70370370370368,0)" xlink:href="#L"/><use transform="matrix(0.07407407407407406,0,0,0.07407407407407406,97.55555555555553,0)" xlink:href="#U"/><use transform="matrix(0.07407407407407406,0,0,0.07407407407407406,112.37037037037034,0)" xlink:href="#M"/></g><g id="m"><use transform="matrix(0.07407407407407406,0,0,0.07407407407407406,0,0)" xlink:href="#D"/><use transform="matrix(0.07407407407407406,0,0,0.07407407407407406,14.814814814814811,0)" xlink:href="#H"/><use transform="matrix(0.07407407407407406,0,0,0.07407407407407406,29.629629629629623,0)" xlink:href="#K"/><use transform="matrix(0.07407407407407406,0,0,0.07407407407407406,38.444444444444436,0)" xlink:href="#Q"/></g><path d="M127-220V0H93v-220H8v-28h204v28h-85" id="X"/><g id="n"><use transform="matrix(0.07407407407407406,0,0,0.07407407407407406,0,0)" xlink:href="#X"/><use transform="matrix(0.07407407407407406,0,0,0.07407407407407406,16.222222222222218,0)" xlink:href="#S"/><use transform="matrix(0.07407407407407406,0,0,0.07407407407407406,31.03703703703703,0)" xlink:href="#J"/></g><g id="o"><use transform="matrix(0.07407407407407406,0,0,0.07407407407407406,0,0)" xlink:href="#O"/><use transform="matrix(0.07407407407407406,0,0,0.07407407407407406,5.85185185185185,0)" xlink:href="#H"/><use transform="matrix(0.07407407407407406,0,0,0.07407407407407406,20.66666666666666,0)" xlink:href="#K"/><use transform="matrix(0.07407407407407406,0,0,0.07407407407407406,29.481481481481474,0)" xlink:href="#N"/><use transform="matrix(0.07407407407407406,0,0,0.07407407407407406,44.29629629629628,0)" xlink:href="#J"/><use transform="matrix(0.07407407407407406,0,0,0.07407407407407406,59.1111111111111,0)" xlink:href="#K"/></g><g id="p"><use transform="matrix(0.07407407407407406,0,0,0.07407407407407406,0,0)" xlink:href="#W"/><use transform="matrix(0.07407407407407406,0,0,0.07407407407407406,14.814814814814811,0)" xlink:href="#U"/><use transform="matrix(0.07407407407407406,0,0,0.07407407407407406,29.629629629629623,0)" xlink:href="#P"/><use transform="matrix(0.07407407407407406,0,0,0.07407407407407406,51.777777777777764,0)" xlink:href="#H"/><use transform="matrix(0.07407407407407406,0,0,0.07407407407407406,66.59259259259258,0)" xlink:href="#L"/><use transform="matrix(0.07407407407407406,0,0,0.07407407407407406,72.44444444444443,0)" xlink:href="#M"/></g><path d="M108 0H70L1-190h34L89-25l56-165h34" id="Y"/><g id="q"><use transform="matrix(0.07407407407407406,0,0,0.07407407407407406,0,0)" xlink:href="#R"/><use transform="matrix(0.07407407407407406,0,0,0.07407407407407406,13.33333333333333,0)" xlink:href="#J"/><use transform="matrix(0.07407407407407406,0,0,0.07407407407407406,28.14814814814814,0)" xlink:href="#K"/><use transform="matrix(0.07407407407407406,0,0,0.07407407407407406,36.962962962962955,0)" xlink:href="#Y"/><use transform="matrix(0.07407407407407406,0,0,0.07407407407407406,50.29629629629628,0)" xlink:href="#L"/><use transform="matrix(0.07407407407407406,0,0,0.07407407407407406,56.14814814814813,0)" xlink:href="#T"/><use transform="matrix(0.07407407407407406,0,0,0.07407407407407406,69.48148148148147,0)" xlink:href="#J"/><use transform="matrix(0.07407407407407406,0,0,0.07407407407407406,84.29629629629628,0)" xlink:href="#R"/></g><g id="r"><use transform="matrix(0.07407407407407406,0,0,0.07407407407407406,0,0)" xlink:href="#W"/><use transform="matrix(0.07407407407407406,0,0,0.07407407407407406,14.814814814814811,0)" xlink:href="#U"/></g><g id="s"><use transform="matrix(0.07407407407407406,0,0,0.07407407407407406,0,0)" xlink:href="#M"/><use transform="matrix(0.07407407407407406,0,0,0.07407407407407406,14.814814814814811,0)" xlink:href="#U"/><use transform="matrix(0.07407407407407406,0,0,0.07407407407407406,29.629629629629623,0)" xlink:href="#Q"/></g><g id="t"><use transform="matrix(0.07407407407407406,0,0,0.07407407407407406,0,0)" xlink:href="#W"/><use transform="matrix(0.07407407407407406,0,0,0.07407407407407406,14.814814814814811,0)" xlink:href="#J"/><use transform="matrix(0.07407407407407406,0,0,0.07407407407407406,29.629629629629623,0)" xlink:href="#D"/><use transform="matrix(0.07407407407407406,0,0,0.07407407407407406,44.444444444444436,0)" xlink:href="#J"/><use transform="matrix(0.07407407407407406,0,0,0.07407407407407406,59.259259259259245,0)" xlink:href="#M"/><use transform="matrix(0.07407407407407406,0,0,0.07407407407407406,74.07407407407406,0)" xlink:href="#W"/></g><g id="u"><use transform="matrix(0.07407407407407406,0,0,0.07407407407407406,0,0)" xlink:href="#U"/><use transform="matrix(0.07407407407407406,0,0,0.07407407407407406,14.814814814814811,0)" xlink:href="#M"/></g><g id="v"><use transform="matrix(0.07407407407407406,0,0,0.07407407407407406,0,0)" xlink:href="#J"/><use transform="matrix(0.07407407407407406,0,0,0.07407407407407406,14.814814814814811,0)" xlink:href="#H"/><use transform="matrix(0.07407407407407406,0,0,0.07407407407407406,29.629629629629623,0)" xlink:href="#T"/><use transform="matrix(0.07407407407407406,0,0,0.07407407407407406,42.962962962962955,0)" xlink:href="#S"/></g><g id="w"><use transform="matrix(0.07407407407407406,0,0,0.07407407407407406,0,0)" xlink:href="#U"/><use transform="matrix(0.07407407407407406,0,0,0.07407407407407406,14.814814814814811,0)" xlink:href="#Q"/><use transform="matrix(0.07407407407407406,0,0,0.07407407407407406,22.222222222222218,0)" xlink:href="#S"/><use transform="matrix(0.07407407407407406,0,0,0.07407407407407406,37.03703703703703,0)" xlink:href="#J"/><use transform="matrix(0.07407407407407406,0,0,0.07407407407407406,51.85185185185184,0)" xlink:href="#K"/></g><linearGradient gradientUnits="userSpaceOnUse" id="x" x1="940" y1="760" x2="940" y2="660"><stop offset="36.43%" stop-color="#fff"/><stop offset="47.14%" stop-color="#cfe4ff"/></linearGradient><path d="M30-248c118-7 216 8 213 122C240-48 200 0 122 0H30v-248zM63-27c89 8 146-16 146-99s-60-101-146-95v194" id="Z"/><g id="y"><use transform="matrix(0.06172839506172839,0,0,0.06172839506172839,0,0)" xlink:href="#Z"/><use transform="matrix(0.06172839506172839,0,0,0.06172839506172839,15.987654320987653,0)" xlink:href="#U"/><use transform="matrix(0.06172839506172839,0,0,0.06172839506172839,28.333333333333332,0)" xlink:href="#P"/><use transform="matrix(0.06172839506172839,0,0,0.06172839506172839,46.79012345679012,0)" xlink:href="#H"/><use transform="matrix(0.06172839506172839,0,0,0.06172839506172839,59.1358024691358,0)" xlink:href="#L"/><use transform="matrix(0.06172839506172839,0,0,0.06172839506172839,64.01234567901234,0)" xlink:href="#M"/></g><g id="z"><use transform="matrix(0.06172839506172839,0,0,0.06172839506172839,0,0)" xlink:href="#Z"/><use transform="matrix(0.06172839506172839,0,0,0.06172839506172839,15.987654320987653,0)" xlink:href="#E"/></g><linearGradient gradientUnits="userSpaceOnUse" id="A" x1="1080" y1="758.5" x2="1080" y2="658.5"><stop offset="36.43%" stop-color="#fff"/><stop offset="47.14%" stop-color="#cfe4ff"/></linearGradient><linearGradient gradientUnits="userSpaceOnUse" id="B" x1="1220" y1="758.5" x2="1220" y2="658.5"><stop offset="36.43%" stop-color="#fff"/><stop offset="47.14%" stop-color="#cfe4ff"/></linearGradient></defs></g></svg>