<svg xmlns="http://www.w3.org/2000/svg" xmlns:xlink="http://www.w3.org/1999/xlink" xmlns:lucid="lucid" width="923" height="323"><g transform="translate(-398.5 -538.5)" lucid:page-tab-id="0_0"><path d="M760 660.5a20 20 0 0 1 20-20h40a20 20 0 0 1 20 20V740a20 20 0 0 1-20 20h-40a20 20 0 0 1-20-20z" stroke="#000" stroke-width="3" fill="url(#a)"/><use xlink:href="#b" transform="matrix(-1.8369701987210297e-16,-1,1,-1.8369701987210297e-16,765,755.0000000000002) translate(22.91666666666667 26.118055555555557)"/><use xlink:href="#c" transform="matrix(-1.8369701987210297e-16,-1,1,-1.8369701987210297e-16,765,755.0000000000002) translate(3.4290123456790127 55.45138888888889)"/><path d="M900 660.5a20 20 0 0 1 20-20h40a20 20 0 0 1 20 20V740a20 20 0 0 1-20 20h-40a20 20 0 0 1-20-20z" stroke="#000" stroke-width="3" fill="url(#d)"/><use xlink:href="#b" transform="matrix(-1.8369701987210297e-16,-1,1,-1.8369701987210297e-16,905.0000000000001,755.0000000000002) translate(22.91666666666667 26.118055555555557)"/><use xlink:href="#e" transform="matrix(-1.8369701987210297e-16,-1,1,-1.8369701987210297e-16,905.0000000000001,755.0000000000002) translate(15.651234567901241 55.45138888888889)"/><path d="M760 560a20 20 0 0 1 20-20h40a20 20 0 0 1 20 20 20 20 0 0 1-20 20h-40a20 20 0 0 1-20-20z" stroke="#008a0e" stroke-width="3" fill="#e8e2c8"/><use xlink:href="#f" transform="matrix(1,0,0,1,764.9999999999999,545) translate(3.872283950617282 21.430555555555557)"/><path d="M760.05 821.5a20 20 0 0 1 20-20H960a20 20 0 0 1 20 20V840a20 20 0 0 1-20 20H780.05a20 20 0 0 1-20-20z" stroke="#000" stroke-width="3" fill="#ced4db"/><path d="M800 620.5v-38" stroke="#ba23f6" stroke-width="2" fill="none"/><path d="M800 635.76l-4.63-14.26h9.26z" stroke="#ba23f6" stroke-width="2" fill="#ba23f6"/><path d="M800.98 582.53H799v-1.03H801z" stroke="#ba23f6" stroke-width=".05" fill="#ba23f6"/><path d="M1080 546a6 6 0 0 1 6-6h228a6 6 0 0 1 6 6v148a6 6 0 0 1-6 6h-228a6 6 0 0 1-6-6z" stroke="#000" stroke-opacity="0" stroke-width="3" fill="#fff" fill-opacity="0"/><use xlink:href="#g" transform="matrix(1,0,0,1,1085,545) translate(4.777777777777828 21.33333333333333)"/><use xlink:href="#h" transform="matrix(1,0,0,1,1085,545) translate(58.03703703703707 21.33333333333333)"/><use xlink:href="#i" transform="matrix(1,0,0,1,1085,545) translate(140.92592592592592 21.33333333333333)"/><use xlink:href="#j" transform="matrix(1,0,0,1,1085,545) translate(13.555555555555614 53.33333333333332)"/><use xlink:href="#k" transform="matrix(1,0,0,1,1085,545) translate(77.18518518518522 53.33333333333332)"/><use xlink:href="#l" transform="matrix(1,0,0,1,1085,545) translate(121.62962962962963 53.33333333333332)"/><use xlink:href="#m" transform="matrix(1,0,0,1,1085,545) translate(179.4074074074074 53.33333333333332)"/><use xlink:href="#n" transform="matrix(1,0,0,1,1085,545) translate(19.481481481481524 85.33333333333331)"/><use xlink:href="#o" transform="matrix(1,0,0,1,1085,545) translate(78.66666666666669 85.33333333333331)"/><use xlink:href="#p" transform="matrix(1,0,0,1,1085,545) translate(129.037037037037 85.33333333333331)"/><use xlink:href="#q" transform="matrix(1,0,0,1,1085,545) translate(9.148148148148195 117.3333333333333)"/><use xlink:href="#r" transform="matrix(1,0,0,1,1085,545) translate(61.00000000000002 117.3333333333333)"/><use xlink:href="#s" transform="matrix(1,0,0,1,1085,545) translate(140.92592592592592 117.3333333333333)"/><use xlink:href="#t" transform="matrix(1,0,0,1,1085,545) translate(161.59259259259255 117.3333333333333)"/><use xlink:href="#u" transform="matrix(1,0,0,1,1085,545) translate(191.22222222222217 117.3333333333333)"/><use xlink:href="#v" transform="matrix(1,0,0,1,1085,545) translate(46.14814814814818 149.33333333333331)"/><use xlink:href="#w" transform="matrix(1,0,0,1,1085,545) translate(126.07407407407408 149.33333333333331)"/><path d="M1079.22 620.63l-2.23 1.82m-3 2.43l-4.47 3.65m-2.98 2.43l-4.48 3.65m-2.98 2.44l-4.48 3.64m-3 2.43l-4.46 3.66m-3 2.43l-4.46 3.63m-2.98 2.43l-4.48 3.65m-2.98 2.44l-4.48 3.65m-2.98 2.42l-4.47 3.64m-3 2.43l-4.46 3.64m-2.98 2.43l-4.5 3.64m-2.97 2.44l-4.48 3.65m-2.98 2.42l-4.47 3.64m-3 2.44l-2.23 1.82" stroke="#3a414a" stroke-width="2" fill="none"/><path d="M1080 621.26l-.18.14-1.23-1.5 1.4-1.16zM982.9 700.36l-1.4 1.15V699l.18-.15z" stroke="#3a414a" stroke-width=".05" fill="#3a414a"/><path d="M900 560a20 20 0 0 1 20-20h40a20 20 0 0 1 20 20 20 20 0 0 1-20 20h-40a20 20 0 0 1-20-20z" stroke="#635dff" stroke-width="3" fill="#e8e2c8"/><use xlink:href="#f" transform="matrix(1,0,0,1,905,545) translate(3.872283950617282 21.430555555555557)"/><path d="M940 620.5v-38" stroke="#ba23f6" stroke-width="2" fill="none"/><path d="M940 635.76l-4.63-14.26h9.26z" stroke="#ba23f6" stroke-width="2" fill="#ba23f6"/><path d="M940.98 582.53H939v-1.03H941z" stroke="#ba23f6" stroke-width=".05" fill="#ba23f6"/><path d="M850.02 820.75c0 5.52-4.47 10-10 10-5.52 0-10-4.48-10-10s4.48-10 10-10c5.53 0 10 4.48 10 10z" stroke="#4c535d" stroke-width="3" fill="url(#x)"/><path d="M850.02 840.75c0 5.52-4.47 10-10 10-5.52 0-10-4.48-10-10s4.48-10 10-10c5.53 0 10 4.48 10 10z" stroke="#4c535d" stroke-width="3" fill-opacity="0"/><path d="M830.02 840.75c0 5.52-4.47 10-10 10-5.52 0-10-4.48-10-10s4.48-10 10-10c5.53 0 10 4.48 10 10z" stroke="#4c535d" stroke-width="3" fill="#9391ff"/><path d="M830.02 820.75c0 5.52-4.47 10-10 10-5.52 0-10-4.48-10-10s4.48-10 10-10c5.53 0 10 4.48 10 10z" stroke="#4c535d" stroke-width="3" fill-opacity="0"/><path d="M890.02 820.75c0 5.52-4.47 10-10 10-5.52 0-10-4.48-10-10s4.48-10 10-10c5.53 0 10 4.48 10 10z" stroke="#4c535d" stroke-width="3" fill="#ffe342"/><path d="M890.02 840.75c0 5.52-4.47 10-10 10-5.52 0-10-4.48-10-10s4.48-10 10-10c5.53 0 10 4.48 10 10z" stroke="#4c535d" stroke-width="3" fill="#54c45e"/><path d="M870.02 840.75c0 5.52-4.47 10-10 10-5.52 0-10-4.48-10-10s4.48-10 10-10c5.53 0 10 4.48 10 10zM870.02 820.75c0 5.52-4.47 10-10 10-5.52 0-10-4.48-10-10s4.48-10 10-10c5.53 0 10 4.48 10 10z" stroke="#4c535d" stroke-width="3" fill-opacity="0"/><path d="M930.02 820.75c0 5.52-4.47 10-10 10-5.52 0-10-4.48-10-10s4.48-10 10-10c5.53 0 10 4.48 10 10z" stroke="#4c535d" stroke-width="3" fill="url(#y)"/><path d="M930.02 840.75c0 5.52-4.47 10-10 10-5.52 0-10-4.48-10-10s4.48-10 10-10c5.53 0 10 4.48 10 10zM910.02 840.75c0 5.52-4.47 10-10 10-5.52 0-10-4.48-10-10s4.48-10 10-10c5.53 0 10 4.48 10 10zM910.02 820.75c0 5.52-4.47 10-10 10-5.52 0-10-4.48-10-10s4.48-10 10-10c5.53 0 10 4.48 10 10z" stroke="#4c535d" stroke-width="3" fill-opacity="0"/><path d="M823.32 795.9l-22.76-33.57" stroke="#ba23f6" stroke-width="2" fill="none"/><path d="M831.9 808.53l-11.85-9.2 7.67-5.2z" stroke="#ba23f6" stroke-width="2" fill="#ba23f6"/><path d="M801.38 761.8l-1.6 1.1-.96-1.4h2.36z" stroke="#ba23f6" stroke-width=".05" fill="#ba23f6"/><path d="M822.97 761.5a6 6 0 0 1 8.38 1.38l16.3 22.77a6 6 0 0 1-1.4 8.37l-6.5 4.66a6 6 0 0 1-8.38-1.4l-16.3-22.76a6 6 0 0 1 1.4-8.38z" stroke="#000" stroke-opacity="0" stroke-width="2" fill="#fff" fill-opacity="0"/><use xlink:href="#z" transform="matrix(0.5818622761234394,0.8132873364466278,-0.8132873364466278,0.5818622761234394,826.6969599169342,764.974661906017) translate(-5.716049382716044 14.222222222222221)"/><path d="M818.45 581.37a6 6 0 0 1 6 6v28a6 6 0 0 1-6 6h-8a6 6 0 0 1-6-6v-28a6 6 0 0 1 6-6z" stroke="#000" stroke-opacity="0" stroke-width="2" fill="#fff" fill-opacity="0"/><use xlink:href="#A" transform="matrix(6.123233995736766e-17,1,-1,6.123233995736766e-17,819.4475502632623,586.3647330920616) translate(-0.7530864197530835 14.222222222222221)"/><path d="M959.56 590a6 6 0 0 1 6 6v28a6 6 0 0 1-6 6h-8a6 6 0 0 1-6-6v-28a6 6 0 0 1 6-6z" stroke="#000" stroke-opacity="0" stroke-width="2" fill="#fff" fill-opacity="0"/><use xlink:href="#B" transform="matrix(6.123233995736766e-17,1,-1,6.123233995736766e-17,960.5571084649648,594.9999999999998) translate(-12.55555555555555 14.222222222222221)"/><path d="M931.58 793.74l8.17-31.27" stroke="#ba23f6" stroke-width="2" fill="none"/><path d="M927.72 808.5l-.88-14.97 8.97 2.35z" stroke="#ba23f6" stroke-width="2" fill="#ba23f6"/><path d="M940.68 762.74l-1.88-.5.2-.74h2z" stroke="#ba23f6" stroke-width=".05" fill="#ba23f6"/><g><path d="M959.02 771.47a6 6 0 0 1 4.17 7.4l-7.5 26.97a6 6 0 0 1-7.4 4.17l-7.7-2.13a6 6 0 0 1-4.17-7.38l7.5-27a6 6 0 0 1 7.38-4.17z" stroke="#000" stroke-opacity="0" stroke-width="2" fill="#fff" fill-opacity="0"/></g><g><use xlink:href="#C" transform="matrix(-0.2676468505793435,0.9635170799601627,-0.9635170799601627,-0.2676468505793435,958.6426568872103,776.5585795966592) translate(-8.209876543209873 14.222222222222221)"/></g><path d="M1110 764a6 6 0 0 1 6-6h168a6 6 0 0 1 6 6v88.75a6 6 0 0 1-6 6h-168a6 6 0 0 1-6-6z" stroke="#000" stroke-opacity="0" stroke-width="3" fill="#fff" fill-opacity="0"/><g><use xlink:href="#D" transform="matrix(1,0,0,1,1115,762.9989138431665) translate(8.7777777777778 24.17708333333333)"/><use xlink:href="#i" transform="matrix(1,0,0,1,1115,762.9989138431665) translate(76.92592592592592 24.17708333333333)"/><use xlink:href="#E" transform="matrix(1,0,0,1,1115,762.9989138431665) translate(17.6666666666667 56.17708333333332)"/><use xlink:href="#F" transform="matrix(1,0,0,1,1115,762.9989138431665) translate(81.37037037037038 56.17708333333332)"/><use xlink:href="#m" transform="matrix(1,0,0,1,1115,762.9989138431665) translate(115.29629629629629 56.17708333333332)"/><use xlink:href="#G" transform="matrix(1,0,0,1,1115,762.9989138431665) translate(53.14814814814817 88.17708333333331)"/></g><path d="M932.52 840.57l2.94-.53m3.93-.7l5.87-1.08m3.92-.7l5.87-1.08m3.93-.7l5.88-1.08m3.92-.7l5.88-1.08m3.93-.7l5.9-1.08m3.9-.7l5.9-1.08m3.92-.7l5.88-1.07m3.92-.73l5.88-1.06m3.93-.7l5.88-1.07m3.93-.7l5.9-1.08m3.9-.7l5.9-1.08m3.9-.7l5.9-1.08m3.92-.72l5.88-1.07m3.92-.7l5.9-1.07m3.9-.7l5.9-1.07m3.9-.72l5.9-1.06m3.92-.72l5.88-1.06m3.92-.7l2.95-.55" stroke="#3a414a" stroke-width="2" fill="none"/><path d="M932.72 841.53l-1.34.24.16-1-.13-1 .97-.16zM1110 809.36l-.84.16-.34-1.92 1.18-.22z" stroke="#3a414a" stroke-width=".05" fill="#3a414a"/><path d="M400 546a6 6 0 0 1 6-6h248a6 6 0 0 1 6 6v185a6 6 0 0 1-6 6H406a6 6 0 0 1-6-6z" stroke="#000" stroke-opacity="0" stroke-width="3" fill="#fff" fill-opacity="0"/><g><use xlink:href="#g" transform="matrix(1,0,0,1,405,545) translate(43.592592592592624 21.33333333333333)"/><use xlink:href="#H" transform="matrix(1,0,0,1,405,545) translate(96.85185185185186 21.33333333333333)"/><use xlink:href="#I" transform="matrix(1,0,0,1,405,545) translate(5.888888888888943 53.33333333333332)"/><use xlink:href="#J" transform="matrix(1,0,0,1,405,545) translate(97.59259259259261 53.33333333333332)"/><use xlink:href="#K" transform="matrix(1,0,0,1,405,545) translate(171.59259259259258 53.33333333333332)"/><use xlink:href="#L" transform="matrix(1,0,0,1,405,545) translate(14.703703703703752 85.33333333333331)"/><use xlink:href="#M" transform="matrix(1,0,0,1,405,545) translate(93.22222222222223 85.33333333333331)"/><use xlink:href="#N" transform="matrix(1,0,0,1,405,545) translate(176.1111111111111 85.33333333333331)"/><use xlink:href="#t" transform="matrix(1,0,0,1,405,545) translate(13.296296296296362 117.3333333333333)"/><use xlink:href="#k" transform="matrix(1,0,0,1,405,545) translate(42.92592592592598 117.3333333333333)"/><use xlink:href="#n" transform="matrix(1,0,0,1,405,545) translate(87.3703703703704 117.3333333333333)"/><use xlink:href="#q" transform="matrix(1,0,0,1,405,545) translate(146.55555555555554 117.3333333333333)"/><use xlink:href="#O" transform="matrix(1,0,0,1,405,545) translate(198.40740740740736 117.3333333333333)"/><use xlink:href="#k" transform="matrix(1,0,0,1,405,545) translate(0.40740740740747583 149.33333333333331)"/><use xlink:href="#P" transform="matrix(1,0,0,1,405,545) translate(44.8518518518519 149.33333333333331)"/><use xlink:href="#Q" transform="matrix(1,0,0,1,405,545) translate(122.40740740740742 149.33333333333331)"/><use xlink:href="#R" transform="matrix(1,0,0,1,405,545) translate(206.70370370370367 149.33333333333331)"/><use xlink:href="#k" transform="matrix(1,0,0,1,405,545) translate(30.925925925925966 181.33333333333331)"/><use xlink:href="#S" transform="matrix(1,0,0,1,405,545) translate(75.37037037037038 181.33333333333331)"/><use xlink:href="#T" transform="matrix(1,0,0,1,405,545) translate(168.7037037037037 181.33333333333331)"/></g><path d="M757.65 699.72l-2.64-1.66m-3.5-2.2l-5.3-3.3m-3.5-2.22l-5.3-3.3m-3.5-2.22l-5.3-3.3m-3.5-2.2l-5.3-3.33m-3.5-2.2l-5.3-3.32m-3.5-2.2l-5.3-3.32m-3.5-2.2l-5.3-3.32m-3.5-2.2l-5.3-3.3m-3.5-2.22l-5.3-3.3m-3.5-2.22l-5.3-3.3m-3.5-2.2l-2.65-1.67" stroke="#3a414a" stroke-width="2" fill="none"/><path d="M758.5 699.1v2.3l-1.4-.87 1.05-1.65zM661.4 638.22l-1.05 1.65-.35-.22v-2.3z" stroke="#3a414a" stroke-width=".05" fill="#3a414a"/><path d="M810 650.5c0 5.52-4.48 10-10 10s-10-4.48-10-10 4.48-10 10-10 10 4.48 10 10z" stroke="#fcce14" stroke-width="3" fill="#008a0e"/><path d="M950 650c0 5.52-4.48 10-10 10s-10-4.48-10-10 4.48-10 10-10 10 4.48 10 10z" stroke="#fcce14" stroke-width="3" fill="#635dff"/><defs><linearGradient gradientUnits="userSpaceOnUse" id="a" x1="760" y1="760" x2="760" y2="640.5"><stop offset="31.43%" stop-color="#fff"/><stop offset="39.29%" stop-color="#cfe4ff"/></linearGradient><path d="M127-220V0H93v-220H8v-28h204v28h-85" id="U"/><path d="M24-231v-30h32v30H24zM24 0v-190h32V0H24" id="V"/><path d="M96-169c-40 0-48 33-48 73s9 75 48 75c24 0 41-14 43-38l32 2c-6 37-31 61-74 61-59 0-76-41-82-99-10-93 101-131 147-64 4 7 5 14 7 22l-32 3c-4-21-16-35-41-35" id="W"/><path d="M143 0L79-87 56-68V0H24v-261h32v163l83-92h37l-77 82L181 0h-38" id="X"/><path d="M100-194c63 0 86 42 84 106H49c0 40 14 67 53 68 26 1 43-12 49-29l28 8c-11 28-37 45-77 45C44 4 14-33 15-96c1-61 26-98 85-98zm52 81c6-60-76-77-97-28-3 7-6 17-6 28h103" id="Y"/><path d="M59-47c-2 24 18 29 38 22v24C64 9 27 4 27-40v-127H5v-23h24l9-43h21v43h35v23H59v120" id="Z"/><g id="b"><use transform="matrix(0.06790123456790123,0,0,0.06790123456790123,0,0)" xlink:href="#U"/><use transform="matrix(0.06790123456790123,0,0,0.06790123456790123,13.987654320987655,0)" xlink:href="#V"/><use transform="matrix(0.06790123456790123,0,0,0.06790123456790123,19.35185185185185,0)" xlink:href="#W"/><use transform="matrix(0.06790123456790123,0,0,0.06790123456790123,31.574074074074073,0)" xlink:href="#X"/><use transform="matrix(0.06790123456790123,0,0,0.06790123456790123,43.79629629629629,0)" xlink:href="#Y"/><use transform="matrix(0.06790123456790123,0,0,0.06790123456790123,57.37654320987654,0)" xlink:href="#Z"/></g><path d="M30-248c87 1 191-15 191 75 0 78-77 80-158 76V0H30v-248zm33 125c57 0 124 11 124-50 0-59-68-47-124-48v98" id="aa"/><path d="M84 4C-5 8 30-112 23-190h32v120c0 31 7 50 39 49 72-2 45-101 50-169h31l1 190h-30c-1-10 1-25-2-33-11 22-28 36-60 37" id="ab"/><path d="M114-163C36-179 61-72 57 0H25l-1-190h30c1 12-1 29 2 39 6-27 23-49 58-41v29" id="ac"/><path d="M106-169C34-169 62-67 57 0H25v-261h32l-1 103c12-21 28-36 61-36 89 0 53 116 60 194h-32v-121c2-32-8-49-39-48" id="ad"/><path d="M141-36C126-15 110 5 73 4 37 3 15-17 15-53c-1-64 63-63 125-63 3-35-9-54-41-54-24 1-41 7-42 31l-33-3c5-37 33-52 76-52 45 0 72 20 72 64v82c-1 20 7 32 28 27v20c-31 9-61-2-59-35zM48-53c0 20 12 33 32 33 41-3 63-29 60-74-43 2-92-5-92 41" id="ae"/><path d="M135-143c-3-34-86-38-87 0 15 53 115 12 119 90S17 21 10-45l28-5c4 36 97 45 98 0-10-56-113-15-118-90-4-57 82-63 122-42 12 7 21 19 24 35" id="af"/><g id="c"><use transform="matrix(0.06790123456790123,0,0,0.06790123456790123,0,0)" xlink:href="#aa"/><use transform="matrix(0.06790123456790123,0,0,0.06790123456790123,16.296296296296294,0)" xlink:href="#ab"/><use transform="matrix(0.06790123456790123,0,0,0.06790123456790123,29.87654320987654,0)" xlink:href="#ac"/><use transform="matrix(0.06790123456790123,0,0,0.06790123456790123,37.95679012345679,0)" xlink:href="#W"/><use transform="matrix(0.06790123456790123,0,0,0.06790123456790123,50.179012345679,0)" xlink:href="#ad"/><use transform="matrix(0.06790123456790123,0,0,0.06790123456790123,63.75925925925925,0)" xlink:href="#ae"/><use transform="matrix(0.06790123456790123,0,0,0.06790123456790123,77.33950617283949,0)" xlink:href="#af"/><use transform="matrix(0.06790123456790123,0,0,0.06790123456790123,89.56172839506172,0)" xlink:href="#Y"/></g><linearGradient gradientUnits="userSpaceOnUse" id="d" x1="900" y1="760" x2="900" y2="640.5"><stop offset="31.43%" stop-color="#fff"/><stop offset="39.29%" stop-color="#cfe4ff"/></linearGradient><path d="M233-177c-1 41-23 64-60 70L243 0h-38l-65-103H63V0H30v-248c88 3 205-21 203 71zM63-129c60-2 137 13 137-47 0-61-80-42-137-45v92" id="ag"/><path d="M101-234c-31-9-42 10-38 44h38v23H63V0H32v-167H5v-23h27c-7-52 17-82 69-68v24" id="ah"/><path d="M117-194c89-4 53 116 60 194h-32v-121c0-31-8-49-39-48C34-167 62-67 57 0H25l-1-190h30c1 10-1 24 2 32 11-22 29-35 61-36" id="ai"/><path d="M85-194c31 0 48 13 60 33l-1-100h32l1 261h-30c-2-10 0-23-3-31C134-8 116 4 85 4 32 4 16-35 15-94c0-66 23-100 70-100zm9 24c-40 0-46 34-46 75 0 40 6 74 45 74 42 0 51-32 51-76 0-42-9-74-50-73" id="aj"/><g id="e"><use transform="matrix(0.06790123456790123,0,0,0.06790123456790123,0,0)" xlink:href="#ag"/><use transform="matrix(0.06790123456790123,0,0,0.06790123456790123,17.586419753086417,0)" xlink:href="#Y"/><use transform="matrix(0.06790123456790123,0,0,0.06790123456790123,31.166666666666664,0)" xlink:href="#ah"/><use transform="matrix(0.06790123456790123,0,0,0.06790123456790123,37.95679012345679,0)" xlink:href="#ab"/><use transform="matrix(0.06790123456790123,0,0,0.06790123456790123,51.53703703703703,0)" xlink:href="#ai"/><use transform="matrix(0.06790123456790123,0,0,0.06790123456790123,65.11728395061728,0)" xlink:href="#aj"/></g><path d="M212-179c-10-28-35-45-73-45-59 0-87 40-87 99 0 60 29 101 89 101 43 0 62-24 78-52l27 14C228-24 195 4 139 4 59 4 22-46 18-125c-6-104 99-153 187-111 19 9 31 26 39 46" id="ak"/><path d="M24 0v-261h32V0H24" id="al"/><g id="f"><use transform="matrix(0.06790123456790123,0,0,0.06790123456790123,0,0)" xlink:href="#ak"/><use transform="matrix(0.06790123456790123,0,0,0.06790123456790123,17.586419753086417,0)" xlink:href="#al"/><use transform="matrix(0.06790123456790123,0,0,0.06790123456790123,22.950617283950614,0)" xlink:href="#V"/><use transform="matrix(0.06790123456790123,0,0,0.06790123456790123,28.31481481481481,0)" xlink:href="#Y"/><use transform="matrix(0.06790123456790123,0,0,0.06790123456790123,41.895061728395056,0)" xlink:href="#ai"/><use transform="matrix(0.06790123456790123,0,0,0.06790123456790123,55.4753086419753,0)" xlink:href="#Z"/></g><g id="g"><use transform="matrix(0.07407407407407404,0,0,0.07407407407407404,0,0)" xlink:href="#U"/><use transform="matrix(0.07407407407407404,0,0,0.07407407407407404,16.222222222222214,0)" xlink:href="#ad"/><use transform="matrix(0.07407407407407404,0,0,0.07407407407407404,31.037037037037024,0)" xlink:href="#Y"/></g><g id="h"><use transform="matrix(0.07407407407407404,0,0,0.07407407407407404,0,0)" xlink:href="#ac"/><use transform="matrix(0.07407407407407404,0,0,0.07407407407407404,8.814814814814811,0)" xlink:href="#Y"/><use transform="matrix(0.07407407407407404,0,0,0.07407407407407404,23.62962962962962,0)" xlink:href="#ah"/><use transform="matrix(0.07407407407407404,0,0,0.07407407407407404,31.037037037037024,0)" xlink:href="#ab"/><use transform="matrix(0.07407407407407404,0,0,0.07407407407407404,45.85185185185183,0)" xlink:href="#ai"/><use transform="matrix(0.07407407407407404,0,0,0.07407407407407404,60.66666666666664,0)" xlink:href="#aj"/></g><path d="M108 0H70L1-190h34L89-25l56-165h34" id="am"/><g id="i"><use transform="matrix(0.07407407407407404,0,0,0.07407407407407404,0,0)" xlink:href="#af"/><use transform="matrix(0.07407407407407404,0,0,0.07407407407407404,13.333333333333327,0)" xlink:href="#Y"/><use transform="matrix(0.07407407407407404,0,0,0.07407407407407404,28.148148148148135,0)" xlink:href="#ac"/><use transform="matrix(0.07407407407407404,0,0,0.07407407407407404,36.96296296296295,0)" xlink:href="#am"/><use transform="matrix(0.07407407407407404,0,0,0.07407407407407404,50.296296296296276,0)" xlink:href="#V"/><use transform="matrix(0.07407407407407404,0,0,0.07407407407407404,56.148148148148124,0)" xlink:href="#W"/><use transform="matrix(0.07407407407407404,0,0,0.07407407407407404,69.48148148148145,0)" xlink:href="#Y"/></g><g id="j"><use transform="matrix(0.07407407407407404,0,0,0.07407407407407404,0,0)" xlink:href="#ah"/><use transform="matrix(0.07407407407407404,0,0,0.07407407407407404,7.407407407407404,0)" xlink:href="#V"/><use transform="matrix(0.07407407407407404,0,0,0.07407407407407404,13.25925925925925,0)" xlink:href="#ai"/><use transform="matrix(0.07407407407407404,0,0,0.07407407407407404,28.074074074074062,0)" xlink:href="#aj"/><use transform="matrix(0.07407407407407404,0,0,0.07407407407407404,42.88888888888887,0)" xlink:href="#af"/></g><g id="k"><use transform="matrix(0.07407407407407404,0,0,0.07407407407407404,0,0)" xlink:href="#Z"/><use transform="matrix(0.07407407407407404,0,0,0.07407407407407404,7.407407407407404,0)" xlink:href="#ad"/><use transform="matrix(0.07407407407407404,0,0,0.07407407407407404,22.222222222222214,0)" xlink:href="#Y"/></g><g id="l"><use transform="matrix(0.07407407407407404,0,0,0.07407407407407404,0,0)" xlink:href="#af"/><use transform="matrix(0.07407407407407404,0,0,0.07407407407407404,13.333333333333327,0)" xlink:href="#Y"/><use transform="matrix(0.07407407407407404,0,0,0.07407407407407404,28.148148148148135,0)" xlink:href="#ae"/><use transform="matrix(0.07407407407407404,0,0,0.07407407407407404,42.96296296296295,0)" xlink:href="#Z"/></g><g id="m"><use transform="matrix(0.07407407407407404,0,0,0.07407407407407404,0,0)" xlink:href="#Z"/><use transform="matrix(0.07407407407407404,0,0,0.07407407407407404,7.407407407407404,0)" xlink:href="#ad"/><use transform="matrix(0.07407407407407404,0,0,0.07407407407407404,22.222222222222214,0)" xlink:href="#Y"/></g><g id="n"><use transform="matrix(0.07407407407407404,0,0,0.07407407407407404,0,0)" xlink:href="#ab"/><use transform="matrix(0.07407407407407404,0,0,0.07407407407407404,14.814814814814808,0)" xlink:href="#af"/><use transform="matrix(0.07407407407407404,0,0,0.07407407407407404,28.148148148148135,0)" xlink:href="#Y"/><use transform="matrix(0.07407407407407404,0,0,0.07407407407407404,42.96296296296295,0)" xlink:href="#ac"/></g><g id="o"><use transform="matrix(0.07407407407407404,0,0,0.07407407407407404,0,0)" xlink:href="#ad"/><use transform="matrix(0.07407407407407404,0,0,0.07407407407407404,14.814814814814808,0)" xlink:href="#ae"/><use transform="matrix(0.07407407407407404,0,0,0.07407407407407404,29.629629629629616,0)" xlink:href="#af"/></g><path d="M115-194c53 0 69 39 70 98 0 66-23 100-70 100C84 3 66-7 56-30L54 0H23l1-261h32v101c10-23 28-34 59-34zm-8 174c40 0 45-34 45-75 0-40-5-75-45-74-42 0-51 32-51 76 0 43 10 73 51 73" id="an"/><path d="M100-194c62-1 85 37 85 99 1 63-27 99-86 99S16-35 15-95c0-66 28-99 85-99zM99-20c44 1 53-31 53-75 0-43-8-75-51-75s-53 32-53 75 10 74 51 75" id="ao"/><path d="M177-190C167-65 218 103 67 71c-23-6-38-20-44-43l32-5c15 47 100 32 89-28v-30C133-14 115 1 83 1 29 1 15-40 15-95c0-56 16-97 71-98 29-1 48 16 59 35 1-10 0-23 2-32h30zM94-22c36 0 50-32 50-73 0-42-14-75-50-75-39 0-46 34-46 75s6 73 46 73" id="ap"/><g id="p"><use transform="matrix(0.07407407407407404,0,0,0.07407407407407404,0,0)" xlink:href="#an"/><use transform="matrix(0.07407407407407404,0,0,0.07407407407407404,14.814814814814808,0)" xlink:href="#ao"/><use transform="matrix(0.07407407407407404,0,0,0.07407407407407404,29.629629629629616,0)" xlink:href="#ab"/><use transform="matrix(0.07407407407407404,0,0,0.07407407407407404,44.44444444444443,0)" xlink:href="#ap"/><use transform="matrix(0.07407407407407404,0,0,0.07407407407407404,59.25925925925923,0)" xlink:href="#ad"/><use transform="matrix(0.07407407407407404,0,0,0.07407407407407404,74.07407407407403,0)" xlink:href="#Z"/></g><g id="q"><use transform="matrix(0.07407407407407404,0,0,0.07407407407407404,0,0)" xlink:href="#ae"/><use transform="matrix(0.07407407407407404,0,0,0.07407407407407404,14.814814814814808,0)" xlink:href="#ai"/><use transform="matrix(0.07407407407407404,0,0,0.07407407407407404,29.629629629629616,0)" xlink:href="#aj"/></g><g id="r"><use transform="matrix(0.07407407407407404,0,0,0.07407407407407404,0,0)" xlink:href="#ac"/><use transform="matrix(0.07407407407407404,0,0,0.07407407407407404,8.814814814814811,0)" xlink:href="#Y"/><use transform="matrix(0.07407407407407404,0,0,0.07407407407407404,23.62962962962962,0)" xlink:href="#af"/><use transform="matrix(0.07407407407407404,0,0,0.07407407407407404,36.96296296296295,0)" xlink:href="#Y"/><use transform="matrix(0.07407407407407404,0,0,0.07407407407407404,51.77777777777776,0)" xlink:href="#Z"/><use transform="matrix(0.07407407407407404,0,0,0.07407407407407404,59.18518518518516,0)" xlink:href="#af"/></g><g id="s"><use transform="matrix(0.07407407407407404,0,0,0.07407407407407404,0,0)" xlink:href="#V"/><use transform="matrix(0.07407407407407404,0,0,0.07407407407407404,5.851851851851849,0)" xlink:href="#Z"/></g><g id="t"><use transform="matrix(0.07407407407407404,0,0,0.07407407407407404,0,0)" xlink:href="#Z"/><use transform="matrix(0.07407407407407404,0,0,0.07407407407407404,7.407407407407404,0)" xlink:href="#ao"/></g><g id="u"><use transform="matrix(0.07407407407407404,0,0,0.07407407407407404,0,0)" xlink:href="#ae"/><use transform="matrix(0.07407407407407404,0,0,0.07407407407407404,14.814814814814808,0)" xlink:href="#ai"/></g><path d="M210-169c-67 3-38 105-44 169h-31v-121c0-29-5-50-35-48C34-165 62-65 56 0H25l-1-190h30c1 10-1 24 2 32 10-44 99-50 107 0 11-21 27-35 58-36 85-2 47 119 55 194h-31v-121c0-29-5-49-35-48" id="aq"/><path d="M115-194c55 1 70 41 70 98S169 2 115 4C84 4 66-9 55-30l1 105H24l-1-265h31l2 30c10-21 28-34 59-34zm-8 174c40 0 45-34 45-75s-6-73-45-74c-42 0-51 32-51 76 0 43 10 73 51 73" id="ar"/><path d="M179-190L93 31C79 59 56 82 12 73V49c39 6 53-20 64-50L1-190h34L92-34l54-156h33" id="as"/><g id="v"><use transform="matrix(0.07407407407407404,0,0,0.07407407407407404,0,0)" xlink:href="#Y"/><use transform="matrix(0.07407407407407404,0,0,0.07407407407407404,14.814814814814808,0)" xlink:href="#aq"/><use transform="matrix(0.07407407407407404,0,0,0.07407407407407404,36.96296296296295,0)" xlink:href="#ar"/><use transform="matrix(0.07407407407407404,0,0,0.07407407407407404,51.77777777777776,0)" xlink:href="#Z"/><use transform="matrix(0.07407407407407404,0,0,0.07407407407407404,59.18518518518516,0)" xlink:href="#as"/></g><g id="w"><use transform="matrix(0.07407407407407404,0,0,0.07407407407407404,0,0)" xlink:href="#af"/><use transform="matrix(0.07407407407407404,0,0,0.07407407407407404,13.333333333333327,0)" xlink:href="#Z"/><use transform="matrix(0.07407407407407404,0,0,0.07407407407407404,20.740740740740733,0)" xlink:href="#ae"/><use transform="matrix(0.07407407407407404,0,0,0.07407407407407404,35.555555555555536,0)" xlink:href="#Z"/><use transform="matrix(0.07407407407407404,0,0,0.07407407407407404,42.96296296296295,0)" xlink:href="#Y"/></g><linearGradient gradientUnits="userSpaceOnUse" id="x" x1="830.03" y1="810.75" x2="830.03" y2="830.75"><stop offset="41.07%" stop-color="#008a0e"/><stop offset="67.14%" stop-opacity="0"/></linearGradient><linearGradient gradientUnits="userSpaceOnUse" id="y" x1="910.03" y1="810.75" x2="910.03" y2="830.75"><stop offset="50.71%" stop-opacity="0"/><stop offset="72.86%" stop-color="#635dff"/></linearGradient><path fill="#ba23f6" d="M231 0h-52l-39-155L100 0H48L-1-190h46L77-45c9-52 24-97 36-145h53l37 145 32-145h46" id="at"/><path fill="#ba23f6" d="M135-150c-39-12-60 13-60 57V0H25l-1-190h47c2 13-1 29 3 40 6-28 27-53 61-41v41" id="au"/><path fill="#ba23f6" d="M25-224v-37h50v37H25zM25 0v-190h50V0H25" id="av"/><path fill="#ba23f6" d="M115-3C79 11 28 4 28-45v-112H4v-33h27l15-45h31v45h36v33H77v99c-1 23 16 31 38 25v30" id="aw"/><path fill="#ba23f6" d="M185-48c-13 30-37 53-82 52C43 2 14-33 14-96s30-98 90-98c62 0 83 45 84 108H66c0 31 8 55 39 56 18 0 30-7 34-22zm-45-69c5-46-57-63-70-21-2 6-4 13-4 21h74" id="ax"/><g id="z"><use transform="matrix(0.049382716049382706,0,0,0.049382716049382706,0,0)" xlink:href="#at"/><use transform="matrix(0.049382716049382706,0,0,0.049382716049382706,13.827160493827158,0)" xlink:href="#au"/><use transform="matrix(0.049382716049382706,0,0,0.049382716049382706,20.740740740740737,0)" xlink:href="#av"/><use transform="matrix(0.049382716049382706,0,0,0.049382716049382706,25.679012345679006,0)" xlink:href="#aw"/><use transform="matrix(0.049382716049382706,0,0,0.049382716049382706,31.555555555555543,0)" xlink:href="#ax"/></g><path fill="#ba23f6" d="M135-194c52 0 70 43 70 98 0 56-19 99-73 100-30 1-46-15-58-35L72 0H24l1-261h50v104c11-23 29-37 60-37zM114-30c31 0 40-27 40-66 0-37-7-63-39-63s-41 28-41 65c0 36 8 64 40 64" id="ay"/><path fill="#ba23f6" d="M85 4C-2 5 27-109 22-190h50c7 57-23 150 33 157 60-5 35-97 40-157h50l1 190h-47c-2-12 1-28-3-38-12 25-28 42-61 42" id="az"/><path fill="#ba23f6" d="M123 10C108 53 80 86 19 72V37c35 8 53-11 59-39L3-190h52l48 148c12-52 28-100 44-148h51" id="aA"/><g id="A"><use transform="matrix(0.049382716049382706,0,0,0.049382716049382706,0,0)" xlink:href="#ay"/><use transform="matrix(0.049382716049382706,0,0,0.049382716049382706,10.814814814814813,0)" xlink:href="#az"/><use transform="matrix(0.049382716049382706,0,0,0.049382716049382706,21.629629629629626,0)" xlink:href="#aA"/></g><path fill="#ba23f6" d="M121-226c-27-7-43 5-38 36h38v33H83V0H34v-157H6v-33h28c-9-59 32-81 87-68v32" id="aB"/><path fill="#ba23f6" d="M135-194c87-1 58 113 63 194h-50c-7-57 23-157-34-157-59 0-34 97-39 157H25l-1-190h47c2 12-1 28 3 38 12-26 28-41 61-42" id="aC"/><path fill="#ba23f6" d="M88-194c31-1 46 15 58 34l-1-101h50l1 261h-48c-2-10 0-23-3-31C134-8 116 4 84 4 32 4 16-41 15-95c0-56 19-97 73-99zm17 164c33 0 40-30 41-66 1-37-9-64-41-64s-38 30-39 65c0 43 13 65 39 65" id="aD"/><g id="B"><use transform="matrix(0.049382716049382706,0,0,0.049382716049382706,0,0)" xlink:href="#au"/><use transform="matrix(0.049382716049382706,0,0,0.049382716049382706,6.913580246913579,0)" xlink:href="#ax"/><use transform="matrix(0.049382716049382706,0,0,0.049382716049382706,16.79012345679012,0)" xlink:href="#aB"/><use transform="matrix(0.049382716049382706,0,0,0.049382716049382706,22.66666666666666,0)" xlink:href="#az"/><use transform="matrix(0.049382716049382706,0,0,0.049382716049382706,33.481481481481474,0)" xlink:href="#aC"/><use transform="matrix(0.049382716049382706,0,0,0.049382716049382706,44.29629629629629,0)" xlink:href="#aD"/></g><path fill="#ba23f6" d="M133-34C117-15 103 5 69 4 32 3 11-16 11-54c-1-60 55-63 116-61 1-26-3-47-28-47-18 1-26 9-28 27l-52-2c7-38 36-58 82-57s74 22 75 68l1 82c-1 14 12 18 25 15v27c-30 8-71 5-69-32zm-48 3c29 0 43-24 42-57-32 0-66-3-65 30 0 17 8 27 23 27" id="aE"/><path fill="#ba23f6" d="M137-138c1-29-70-34-71-4 15 46 118 7 119 86 1 83-164 76-172 9l43-7c4 19 20 25 44 25 33 8 57-30 24-41C81-84 22-81 20-136c-2-80 154-74 161-7" id="aF"/><g id="C"><use transform="matrix(0.049382716049382706,0,0,0.049382716049382706,0,0)" xlink:href="#ax"/><use transform="matrix(0.049382716049382706,0,0,0.049382716049382706,9.87654320987654,0)" xlink:href="#au"/><use transform="matrix(0.049382716049382706,0,0,0.049382716049382706,16.79012345679012,0)" xlink:href="#aE"/><use transform="matrix(0.049382716049382706,0,0,0.049382716049382706,26.66666666666666,0)" xlink:href="#aF"/><use transform="matrix(0.049382716049382706,0,0,0.049382716049382706,36.5432098765432,0)" xlink:href="#ax"/></g><path d="M30 0v-248h187v28H63v79h144v27H63v87h162V0H30" id="aG"/><g id="D"><use transform="matrix(0.07407407407407404,0,0,0.07407407407407404,0,0)" xlink:href="#aG"/><use transform="matrix(0.07407407407407404,0,0,0.07407407407407404,17.77777777777777,0)" xlink:href="#ae"/><use transform="matrix(0.07407407407407404,0,0,0.07407407407407404,32.59259259259258,0)" xlink:href="#W"/><use transform="matrix(0.07407407407407404,0,0,0.07407407407407404,45.92592592592591,0)" xlink:href="#ad"/></g><g id="E"><use transform="matrix(0.07407407407407404,0,0,0.07407407407407404,0,0)" xlink:href="#af"/><use transform="matrix(0.07407407407407404,0,0,0.07407407407407404,13.333333333333327,0)" xlink:href="#Y"/><use transform="matrix(0.07407407407407404,0,0,0.07407407407407404,28.148148148148135,0)" xlink:href="#Y"/><use transform="matrix(0.07407407407407404,0,0,0.07407407407407404,42.96296296296295,0)" xlink:href="#af"/></g><g id="F"><use transform="matrix(0.07407407407407404,0,0,0.07407407407407404,0,0)" xlink:href="#ae"/><use transform="matrix(0.07407407407407404,0,0,0.07407407407407404,14.814814814814808,0)" xlink:href="#al"/><use transform="matrix(0.07407407407407404,0,0,0.07407407407407404,20.666666666666657,0)" xlink:href="#al"/></g><g id="G"><use transform="matrix(0.07407407407407404,0,0,0.07407407407407404,0,0)" xlink:href="#af"/><use transform="matrix(0.07407407407407404,0,0,0.07407407407407404,13.333333333333327,0)" xlink:href="#Y"/><use transform="matrix(0.07407407407407404,0,0,0.07407407407407404,28.148148148148135,0)" xlink:href="#ae"/><use transform="matrix(0.07407407407407404,0,0,0.07407407407407404,42.96296296296295,0)" xlink:href="#Z"/><use transform="matrix(0.07407407407407404,0,0,0.07407407407407404,50.370370370370345,0)" xlink:href="#af"/></g><g id="H"><use transform="matrix(0.07407407407407404,0,0,0.07407407407407404,0,0)" xlink:href="#ar"/><use transform="matrix(0.07407407407407404,0,0,0.07407407407407404,14.814814814814808,0)" xlink:href="#ab"/><use transform="matrix(0.07407407407407404,0,0,0.07407407407407404,29.629629629629616,0)" xlink:href="#ac"/><use transform="matrix(0.07407407407407404,0,0,0.07407407407407404,38.44444444444443,0)" xlink:href="#W"/><use transform="matrix(0.07407407407407404,0,0,0.07407407407407404,51.77777777777776,0)" xlink:href="#ad"/><use transform="matrix(0.07407407407407404,0,0,0.07407407407407404,66.59259259259257,0)" xlink:href="#ae"/><use transform="matrix(0.07407407407407404,0,0,0.07407407407407404,81.40740740740738,0)" xlink:href="#af"/><use transform="matrix(0.07407407407407404,0,0,0.07407407407407404,94.7407407407407,0)" xlink:href="#Y"/></g><g id="I"><use transform="matrix(0.07407407407407404,0,0,0.07407407407407404,0,0)" xlink:href="#af"/><use transform="matrix(0.07407407407407404,0,0,0.07407407407407404,13.333333333333327,0)" xlink:href="#Y"/><use transform="matrix(0.07407407407407404,0,0,0.07407407407407404,28.148148148148135,0)" xlink:href="#ac"/><use transform="matrix(0.07407407407407404,0,0,0.07407407407407404,36.96296296296295,0)" xlink:href="#am"/><use transform="matrix(0.07407407407407404,0,0,0.07407407407407404,50.296296296296276,0)" xlink:href="#V"/><use transform="matrix(0.07407407407407404,0,0,0.07407407407407404,56.148148148148124,0)" xlink:href="#W"/><use transform="matrix(0.07407407407407404,0,0,0.07407407407407404,69.48148148148145,0)" xlink:href="#Y"/></g><g id="J"><use transform="matrix(0.07407407407407404,0,0,0.07407407407407404,0,0)" xlink:href="#ac"/><use transform="matrix(0.07407407407407404,0,0,0.07407407407407404,8.814814814814811,0)" xlink:href="#Y"/><use transform="matrix(0.07407407407407404,0,0,0.07407407407407404,23.62962962962962,0)" xlink:href="#ae"/><use transform="matrix(0.07407407407407404,0,0,0.07407407407407404,38.44444444444443,0)" xlink:href="#aj"/><use transform="matrix(0.07407407407407404,0,0,0.07407407407407404,53.25925925925924,0)" xlink:href="#af"/></g><g id="K"><use transform="matrix(0.07407407407407404,0,0,0.07407407407407404,0,0)" xlink:href="#Y"/><use transform="matrix(0.07407407407407404,0,0,0.07407407407407404,14.814814814814808,0)" xlink:href="#aq"/><use transform="matrix(0.07407407407407404,0,0,0.07407407407407404,36.96296296296295,0)" xlink:href="#ar"/><use transform="matrix(0.07407407407407404,0,0,0.07407407407407404,51.77777777777776,0)" xlink:href="#Z"/><use transform="matrix(0.07407407407407404,0,0,0.07407407407407404,59.18518518518516,0)" xlink:href="#as"/></g><path d="M68-38c1 34 0 65-14 84H32c9-13 17-26 17-46H33v-38h35" id="aH"/><g id="L"><use transform="matrix(0.07407407407407404,0,0,0.07407407407407404,0,0)" xlink:href="#af"/><use transform="matrix(0.07407407407407404,0,0,0.07407407407407404,13.333333333333327,0)" xlink:href="#Y"/><use transform="matrix(0.07407407407407404,0,0,0.07407407407407404,28.148148148148135,0)" xlink:href="#ae"/><use transform="matrix(0.07407407407407404,0,0,0.07407407407407404,42.96296296296295,0)" xlink:href="#Z"/><use transform="matrix(0.07407407407407404,0,0,0.07407407407407404,50.370370370370345,0)" xlink:href="#af"/><use transform="matrix(0.07407407407407404,0,0,0.07407407407407404,63.703703703703674,0)" xlink:href="#aH"/></g><path d="M206 0h-36l-40-164L89 0H53L-1-190h32L70-26l43-164h34l41 164 42-164h31" id="aI"/><g id="M"><use transform="matrix(0.07407407407407404,0,0,0.07407407407407404,0,0)" xlink:href="#af"/><use transform="matrix(0.07407407407407404,0,0,0.07407407407407404,13.333333333333327,0)" xlink:href="#ad"/><use transform="matrix(0.07407407407407404,0,0,0.07407407407407404,28.148148148148135,0)" xlink:href="#ao"/><use transform="matrix(0.07407407407407404,0,0,0.07407407407407404,42.96296296296295,0)" xlink:href="#aI"/><use transform="matrix(0.07407407407407404,0,0,0.07407407407407404,62.14814814814811,0)" xlink:href="#af"/></g><g id="N"><use transform="matrix(0.07407407407407404,0,0,0.07407407407407404,0,0)" xlink:href="#Z"/><use transform="matrix(0.07407407407407404,0,0,0.07407407407407404,7.407407407407404,0)" xlink:href="#ad"/><use transform="matrix(0.07407407407407404,0,0,0.07407407407407404,22.222222222222214,0)" xlink:href="#Y"/><use transform="matrix(0.07407407407407404,0,0,0.07407407407407404,37.03703703703702,0)" xlink:href="#aq"/></g><g id="O"><use transform="matrix(0.07407407407407404,0,0,0.07407407407407404,0,0)" xlink:href="#ah"/><use transform="matrix(0.07407407407407404,0,0,0.07407407407407404,7.407407407407404,0)" xlink:href="#V"/><use transform="matrix(0.07407407407407404,0,0,0.07407407407407404,13.25925925925925,0)" xlink:href="#al"/><use transform="matrix(0.07407407407407404,0,0,0.07407407407407404,19.1111111111111,0)" xlink:href="#al"/><use transform="matrix(0.07407407407407404,0,0,0.07407407407407404,24.962962962962948,0)" xlink:href="#af"/></g><path d="M47-170H22l-4-78h33" id="aJ"/><g id="P"><use transform="matrix(0.07407407407407404,0,0,0.07407407407407404,0,0)" xlink:href="#ab"/><use transform="matrix(0.07407407407407404,0,0,0.07407407407407404,14.814814814814808,0)" xlink:href="#af"/><use transform="matrix(0.07407407407407404,0,0,0.07407407407407404,28.148148148148135,0)" xlink:href="#Y"/><use transform="matrix(0.07407407407407404,0,0,0.07407407407407404,42.96296296296295,0)" xlink:href="#ac"/><use transform="matrix(0.07407407407407404,0,0,0.07407407407407404,51.77777777777775,0)" xlink:href="#aJ"/><use transform="matrix(0.07407407407407404,0,0,0.07407407407407404,56.81481481481478,0)" xlink:href="#af"/></g><g id="Q"><use transform="matrix(0.07407407407407404,0,0,0.07407407407407404,0,0)" xlink:href="#aj"/><use transform="matrix(0.07407407407407404,0,0,0.07407407407407404,14.814814814814808,0)" xlink:href="#Y"/><use transform="matrix(0.07407407407407404,0,0,0.07407407407407404,29.629629629629616,0)" xlink:href="#Z"/><use transform="matrix(0.07407407407407404,0,0,0.07407407407407404,37.03703703703702,0)" xlink:href="#ae"/><use transform="matrix(0.07407407407407404,0,0,0.07407407407407404,51.851851851851826,0)" xlink:href="#V"/><use transform="matrix(0.07407407407407404,0,0,0.07407407407407404,57.703703703703674,0)" xlink:href="#al"/><use transform="matrix(0.07407407407407404,0,0,0.07407407407407404,63.55555555555552,0)" xlink:href="#af"/></g><g id="R"><use transform="matrix(0.07407407407407404,0,0,0.07407407407407404,0,0)" xlink:href="#V"/><use transform="matrix(0.07407407407407404,0,0,0.07407407407407404,5.851851851851849,0)" xlink:href="#ai"/><use transform="matrix(0.07407407407407404,0,0,0.07407407407407404,20.666666666666657,0)" xlink:href="#Z"/><use transform="matrix(0.07407407407407404,0,0,0.07407407407407404,28.074074074074062,0)" xlink:href="#ao"/></g><g id="S"><use transform="matrix(0.07407407407407404,0,0,0.07407407407407404,0,0)" xlink:href="#W"/><use transform="matrix(0.07407407407407404,0,0,0.07407407407407404,13.333333333333327,0)" xlink:href="#ad"/><use transform="matrix(0.07407407407407404,0,0,0.07407407407407404,28.148148148148135,0)" xlink:href="#ao"/><use transform="matrix(0.07407407407407404,0,0,0.07407407407407404,42.96296296296295,0)" xlink:href="#af"/><use transform="matrix(0.07407407407407404,0,0,0.07407407407407404,56.29629629629627,0)" xlink:href="#Y"/><use transform="matrix(0.07407407407407404,0,0,0.07407407407407404,71.11111111111107,0)" xlink:href="#ai"/></g><g id="T"><use transform="matrix(0.07407407407407404,0,0,0.07407407407407404,0,0)" xlink:href="#af"/><use transform="matrix(0.07407407407407404,0,0,0.07407407407407404,13.333333333333327,0)" xlink:href="#Y"/><use transform="matrix(0.07407407407407404,0,0,0.07407407407407404,28.148148148148135,0)" xlink:href="#ae"/><use transform="matrix(0.07407407407407404,0,0,0.07407407407407404,42.96296296296295,0)" xlink:href="#Z"/></g></defs></g></svg>