<svg xmlns="http://www.w3.org/2000/svg" xmlns:xlink="http://www.w3.org/1999/xlink" xmlns:lucid="lucid" width="983.04" height="461.5"><g transform="translate(-198.4621209746374 -179.99995000000018)" lucid:page-tab-id="0_0"><path d="M931 221.5a20 20 0 0 1 20-20h38a20 20 0 0 1 20 20 20 20 0 0 1-20 20h-38a20 20 0 0 1-20-20z" stroke="#1071e5" stroke-width="3" fill="url(#a)" transform="matrix(-1,1.2246467991473532e-16,-1.2246467991473532e-16,-1,1940,442.99990000000025)"/><path d="M1070 221.5a20 20 0 0 1 20-20h38a20 20 0 0 1 20 20 20 20 0 0 1-20 20h-38a20 20 0 0 1-20-20z" stroke="#1071e5" stroke-width="3" fill="url(#b)" transform="matrix(-1,1.2246467991473532e-16,-1.2246467991473532e-16,-1,2218,442.99990000000025)"/><path d="M930 501.5a20 20 0 0 1 20-20h60a20 20 0 0 1 20 20 20 20 0 0 1-20 20h-60a20 20 0 0 1-20-20z" stroke="#1071e5" stroke-width="3" fill="url(#c)"/><path d="M1070 501.5a20 20 0 0 1 20-20h40a20 20 0 0 1 20 20 20 20 0 0 1-20 20h-40a20 20 0 0 1-20-20z" stroke="#1071e5" stroke-width="3" fill="url(#d)"/><path d="M199.96 546a6 6 0 0 1 6-6h228a6 6 0 0 1 6 6v88a6 6 0 0 1-6 6h-228a6 6 0 0 1-6-6z" stroke="#000" stroke-opacity="0" stroke-width="3" fill="#fff" fill-opacity="0"/><use xlink:href="#e" transform="matrix(1,0,0,1,204.9621209746374,545) translate(41.7777777777778 35.39583333333333)"/><use xlink:href="#f" transform="matrix(1,0,0,1,204.9621209746374,545) translate(135.037037037037 35.39583333333333)"/><use xlink:href="#g" transform="matrix(1,0,0,1,204.9621209746374,545) translate(66.96296296296299 67.39583333333331)"/><path d="M200 500a20 20 0 0 1 20-20h200a20 20 0 0 1 20 20 20 20 0 0 1-20 20H220a20 20 0 0 1-20-20z" stroke="#000" stroke-width="3" fill="#ced4db"/><use xlink:href="#h" transform="matrix(1,0,0,1,205,485) translate(67.50500000000001 19.65277777777778)"/><path d="M199.96 303a20 20 0 0 1 20-20h200a20 20 0 0 1 20 20v40a20 20 0 0 1-20 20h-200a20 20 0 0 1-20-20z" stroke="#000" stroke-width="3" fill="url(#i)"/><use xlink:href="#j" transform="matrix(1,0,0,1,204.9621209746374,287.99990000000037) translate(76.82098765432099 39.65277777777778)"/><path d="M199.96 221.5a20 20 0 0 1 20-20h200a20 20 0 0 1 20 20 20 20 0 0 1-20 20h-200a20 20 0 0 1-20-20z" stroke="#000" stroke-width="3" fill="#c3f7c8"/><use xlink:href="#k" transform="matrix(1,0,0,1,204.9621209746374,206.49995000000018) translate(60.776604938271596 19.65277777777778)"/><path d="M319.96 244v18.92" stroke="#000" stroke-width="2" fill="none"/><path d="M320.94 244.03H319V243h1.94z" stroke="#000" stroke-width=".05"/><path d="M319.96 278.18l-4.63-14.26h9.27z" stroke="#000" stroke-width="2"/><path d="M319.96 365.5L320 460" stroke="#000" stroke-width="2" fill="none"/><path d="M320.94 365.52H319v-1.02h1.94z" stroke="#000" stroke-width=".05"/><path d="M320 475.26L315.36 461h9.27z" stroke="#000" stroke-width="2"/><path d="M199.96 423a20 20 0 0 1 20-20h60a20 20 0 0 1 20 20 20 20 0 0 1-20 20h-60a20 20 0 0 1-20-20z" stroke="#000" stroke-width="3" fill="#cfe4ff"/><use xlink:href="#l" transform="matrix(1,0,0,1,204.9621209746374,407.99990000000037) translate(8.029691358024694 19.65277777777778)"/><path d="M339.96 423a20 20 0 0 1 20-20h60a20 20 0 0 1 20 20 20 20 0 0 1-20 20h-60a20 20 0 0 1-20-20z" stroke="#000" stroke-width="3" fill="#cfe4ff"/><use xlink:href="#m" transform="matrix(1,0,0,1,344.9621209746374,407.99990000000037) translate(8.029691358024694 19.65277777777778)"/><path d="M249.96 365.5V383" stroke="#000" stroke-width="2" fill="none"/><path d="M250.94 365.53H249v-1.03h1.94z" stroke="#000" stroke-width=".05"/><path d="M249.96 398.26L245.33 384h9.27z" stroke="#000" stroke-width="2"/><path d="M389.96 365.5V383" stroke="#000" stroke-width="2" fill="none"/><path d="M390.94 365.53H389v-1.03h1.94z" stroke="#000" stroke-width=".05"/><path d="M389.96 398.26L385.33 384h9.27z" stroke="#000" stroke-width="2"/><path d="M900 547.5a6 6 0 0 1 6-6h268a6 6 0 0 1 6 6V634a6 6 0 0 1-6 6H906a6 6 0 0 1-6-6z" stroke="#000" stroke-opacity="0" stroke-width="3" fill="#fff" fill-opacity="0"/><use xlink:href="#n" transform="matrix(1,0,0,1,905,546.4999500000001) translate(13.000000000000057 32.45833333333333)"/><use xlink:href="#o" transform="matrix(1,0,0,1,905,546.4999500000001) translate(122.4814814814815 32.45833333333333)"/><use xlink:href="#p" transform="matrix(1,0,0,1,905,546.4999500000001) translate(56.6666666666667 64.45833333333331)"/><path d="M920 521.5a20 20 0 0 1 20-20h80a20 20 0 0 1 20 20 20 20 0 0 1-20 20h-80a20 20 0 0 1-20-20z" stroke="#000" stroke-width="3" fill="#ced4db"/><use xlink:href="#h" transform="matrix(1,0,0,1,925,506.4999500000001) translate(7.504999999999997 19.65277777777778)"/><path d="M920 381.5a20 20 0 0 1 20-20h200a20 20 0 0 1 20 20v40a20 20 0 0 1-20 20H940a20 20 0 0 1-20-20z" stroke="#1071e5" stroke-width="3" fill="#cfe4ff"/><use xlink:href="#j" transform="matrix(1,0,0,1,925,366.4999500000002) translate(76.82098765432099 39.65277777777778)"/><path d="M920 301.5a20 20 0 0 1 20-20h200a20 20 0 0 1 20 20 20 20 0 0 1-20 20H940a20 20 0 0 1-20-20z" stroke="#1071e5" stroke-width="3" fill="#c3f7c8"/><use xlink:href="#k" transform="matrix(1,0,0,1,925,286.4999500000002) translate(60.776604938271596 19.65277777777778)"/><path d="M1040 324l-.02 17.5" stroke="#1071e5" stroke-width="2" fill="none"/><path d="M1040.97 324.03h-1.95V323h1.95z" stroke="#1071e5" stroke-width=".05" fill="#1071e5"/><path d="M1039.97 356.76l-4.63-14.27h9.28z" stroke="#1071e5" stroke-width="2" fill="#1071e5"/><path d="M980 444v17.5" stroke="#1071e5" stroke-width="2" fill="none"/><path d="M980.98 444.03H979V443H981z" stroke="#1071e5" stroke-width=".05" fill="#1071e5"/><path d="M980 476.76l-4.63-14.26h9.26z" stroke="#1071e5" stroke-width="2" fill="#1071e5"/><path d="M1060 521.5a20 20 0 0 1 20-20h60a20 20 0 0 1 20 20 20 20 0 0 1-20 20h-60a20 20 0 0 1-20-20z" stroke="#000" stroke-width="3" fill="#fff"/><use xlink:href="#q" transform="matrix(1,0,0,1,1065,506.4999500000001) translate(11.146975308641979 19.65277777777778)"/><path d="M1110 444v17.5" stroke="#1071e5" stroke-width="2" fill="none"/><path d="M1110.97 444.03h-1.94V443h1.94z" stroke="#1071e5" stroke-width=".05" fill="#1071e5"/><path d="M1110 476.76l-4.63-14.26h9.27z" stroke="#1071e5" stroke-width="2" fill="#1071e5"/><path d="M920 201.5a20 20 0 0 1 20-20h60a20 20 0 0 1 20 20 20 20 0 0 1-20 20h-60a20 20 0 0 1-20-20z" stroke="#000" stroke-width="3" fill="#fff"/><use xlink:href="#r" transform="matrix(1,0,0,1,925,186.49995000000018) translate(-2.9938271604938365 19.444444444444443)"/><path d="M1060 203a20 20 0 0 1 20-20h60a20 20 0 0 1 20 20 20 20 0 0 1-20 20h-60a20 20 0 0 1-20-20z" stroke="#000" stroke-width="3" fill="#fff"/><use xlink:href="#s" transform="matrix(1,0,0,1,1065,187.99990000000037) translate(21.20870370370371 19.65277777777778)"/><path d="M972 244v21.84M968 244v21.84" stroke="#1071e5" stroke-width="2" fill="none"/><path d="M972.98 244.03H971V243H973zM968.98 244.03H967V243H969z" stroke="#1071e5" stroke-width=".05" fill="#1071e5"/><path d="M980 260.68L970 278l-10-17.32M970 278v-8.5M1106 279v-21.84M1110 279v-21.84" stroke="#1071e5" stroke-width="2" fill="none"/><path d="M1106.97 280h-1.94v-1.03h1.94zM1110.97 280h-1.94v-1.03h1.94z" stroke="#1071e5" stroke-width=".05" fill="#1071e5"/><path d="M1098 262.32l10-17.32 10 17.32M1108 245v8.5" stroke="#1071e5" stroke-width="2" fill="none"/><path d="M560 546a6 6 0 0 1 6-6h228a6 6 0 0 1 6 6v88a6 6 0 0 1-6 6H566a6 6 0 0 1-6-6z" stroke="#000" stroke-opacity="0" stroke-width="3" fill="#fff" fill-opacity="0"/><use xlink:href="#e" transform="matrix(1,0,0,1,565,545) translate(41.7777777777778 35.39583333333333)"/><use xlink:href="#f" transform="matrix(1,0,0,1,565,545) translate(135.037037037037 35.39583333333333)"/><use xlink:href="#t" transform="matrix(1,0,0,1,565,545) translate(69.88888888888891 67.39583333333331)"/><path d="M560 500a20 20 0 0 1 20-20h200a20 20 0 0 1 20 20 20 20 0 0 1-20 20H580a20 20 0 0 1-20-20z" stroke="#000" stroke-width="3" fill="#ced4db"/><use xlink:href="#h" transform="matrix(1,0,0,1,565,485) translate(67.50500000000001 19.65277777777778)"/><path d="M560.04 381.5a20 20 0 0 1 20-20h200a20 20 0 0 1 20 20v40a20 20 0 0 1-20 20h-200a20 20 0 0 1-20-20z" stroke="#000" stroke-width="3" fill="url(#u)"/><use xlink:href="#j" transform="matrix(1,0,0,1,565.0378790253626,366.4999500000002) translate(76.82098765432099 39.65277777777778)"/><path d="M560.04 300a20 20 0 0 1 20-20h200a20 20 0 0 1 20 20 20 20 0 0 1-20 20h-200a20 20 0 0 1-20-20z" stroke="#000" stroke-width="3" fill="#fff"/><use xlink:href="#v" transform="matrix(1,0,0,1,565.0378790253626,285) translate(63.863024691358014 19.65277777777778)"/><path d="M680.04 322.5v18.92" stroke="#000" stroke-width="2" fill="none"/><path d="M681 322.53h-1.94v-1.03H681z" stroke="#000" stroke-width=".05"/><path d="M680.04 356.68l-4.64-14.26h9.27z" stroke="#000" stroke-width="2"/><path d="M680.04 444l-.02 16" stroke="#000" stroke-width="2" fill="none"/><path d="M681 444.03h-1.94V443H681z" stroke="#000" stroke-width=".05"/><path d="M680 475.26L675.38 461h9.27z" stroke="#000" stroke-width="2"/><path d="M560 218.5a20 20 0 0 1 20-20h60a20 20 0 0 1 20 20 20 20 0 0 1-20 20h-60a20 20 0 0 1-20-20z" stroke="#000" stroke-width="3" fill="#c3f7c8"/><use xlink:href="#w" transform="matrix(1,0,0,1,565,203.50004999999982) translate(10.498827160493827 19.65277777777778)"/><path d="M700 218.5a20 20 0 0 1 20-20h60a20 20 0 0 1 20 20 20 20 0 0 1-20 20h-60a20 20 0 0 1-20-20z" stroke="#000" stroke-width="3" fill="#c3f7c8"/><use xlink:href="#x" transform="matrix(1,0,0,1,705,203.50004999999982) translate(10.498827160493827 19.65277777777778)"/><path d="M610 241v19" stroke="#000" stroke-width="2" fill="none"/><path d="M610.98 241.03H609V240H611z" stroke="#000" stroke-width=".05"/><path d="M610 275.26L605.37 261h9.26z" stroke="#000" stroke-width="2"/><path d="M750 241v19" stroke="#000" stroke-width="2" fill="none"/><path d="M750.98 241.03H749V240H751z" stroke="#000" stroke-width=".05"/><path d="M750 275.26L745.37 261h9.26z" stroke="#000" stroke-width="2"/><defs><linearGradient gradientUnits="userSpaceOnUse" id="a" x1="931" y1="201.5" x2="931" y2="241.5"><stop offset="0%" stop-color="#fff"/><stop offset="0%" stop-color="#6db1ff"/><stop offset="29.64%" stop-color="#fff"/></linearGradient><linearGradient gradientUnits="userSpaceOnUse" id="b" x1="1070" y1="201.5" x2="1070" y2="241.5"><stop offset="0%" stop-color="#fff"/><stop offset="0%" stop-color="#6db1ff"/><stop offset="29.64%" stop-color="#fff"/></linearGradient><linearGradient gradientUnits="userSpaceOnUse" id="c" x1="930" y1="481.5" x2="930" y2="521.5"><stop offset="0%" stop-color="#fff"/><stop offset="0%" stop-color="#6db1ff"/><stop offset="29.64%" stop-color="#fff"/></linearGradient><linearGradient gradientUnits="userSpaceOnUse" id="d" x1="1070" y1="481.5" x2="1070" y2="521.5"><stop offset="0%" stop-color="#fff"/><stop offset="0%" stop-color="#6db1ff"/><stop offset="29.64%" stop-color="#fff"/></linearGradient><path d="M6 0l48-248h52L66-40h133l-8 40H6" id="y"/><path d="M166-52c-4 17 5 29 24 23l-3 27c-30 11-74 1-67-34C105-15 91 4 56 4 23 4 3-15 2-49c0-64 63-67 128-67 10-22 3-53-29-45-13 3-22 10-25 24l-46-5c5-64 156-77 153 0-1 33-11 60-17 90zM97-88c-44-9-64 57-19 57 31 0 42-28 47-57H97" id="z"/><path d="M100 10C77 47 50 87-15 72l7-35c37 9 51-18 65-41L20-190h51L89-44l73-146h53" id="A"/><path d="M114-194c63-2 87 48 72 110H63c-3 28 1 55 31 54 21-1 32-13 37-29l44 13C160-14 137 4 91 4 41 4 11-22 11-73c0-71 33-119 103-121zm30 77c14-47-50-61-67-22-3 6-6 13-8 22h75" id="B"/><path d="M84-151c13-25 34-51 72-40l-8 41C67-170 71-64 56 0H6l36-190h47" id="C"/><path d="M144-137c-1-29-70-35-71-2 16 41 103 10 103 80C176 9 79 16 32-9 18-17 9-31 4-48l44-6c3 32 80 36 82 1-15-42-103-11-103-82 0-77 157-79 161-8" id="D"/><g id="e"><use transform="matrix(0.07407407407407404,0,0,0.07407407407407404,0,0)" xlink:href="#y"/><use transform="matrix(0.07407407407407404,0,0,0.07407407407407404,16.222222222222214,0)" xlink:href="#z"/><use transform="matrix(0.07407407407407404,0,0,0.07407407407407404,31.037037037037024,0)" xlink:href="#A"/><use transform="matrix(0.07407407407407404,0,0,0.07407407407407404,45.85185185185183,0)" xlink:href="#B"/><use transform="matrix(0.07407407407407404,0,0,0.07407407407407404,60.66666666666664,0)" xlink:href="#C"/><use transform="matrix(0.07407407407407404,0,0,0.07407407407407404,71.03703703703701,0)" xlink:href="#D"/></g><path d="M212 0h-52l-8-156L82 0H30L17-190h46l2 145 66-145h53l8 145 60-145h47" id="E"/><path d="M50-224l7-37h49l-7 37H50zM6 0l37-190h49L55 0H6" id="F"/><path d="M72-63c-8 23 5 39 32 30L98-1C54 14 12-6 23-64l18-93H15l7-33h28l24-45h31l-8 45h35l-6 33H90" id="G"/><path d="M150-105c8-23 8-54-22-51-68 7-54 98-72 156H6l50-261h50L85-158c15-20 33-36 66-36 95 0 34 128 28 194h-49" id="H"/><g id="f"><use transform="matrix(0.07407407407407404,0,0,0.07407407407407404,0,0)" xlink:href="#E"/><use transform="matrix(0.07407407407407404,0,0,0.07407407407407404,20.740740740740733,0)" xlink:href="#F"/><use transform="matrix(0.07407407407407404,0,0,0.07407407407407404,28.14814814814814,0)" xlink:href="#G"/><use transform="matrix(0.07407407407407404,0,0,0.07407407407407404,36.96296296296295,0)" xlink:href="#H"/></g><path d="M241-173c-1 82-78 91-166 86L58 0H6l48-248c87 0 188-12 187 75zm-53 2c0-43-48-36-90-36l-15 80c50 0 105 7 105-44" id="I"/><path d="M6 0l51-261h49L55 0H6" id="J"/><path d="M69 3c-96 0-34-126-28-193h49L65-57c6 42 62 18 71-6 14-38 17-86 28-127h50L178 0h-47c0-11 4-26 3-33-14 20-30 37-65 36" id="K"/><path d="M45-171c29-32 103-29 114 14 2-11 5-23 8-33h47L176-2c-3 70-92 96-155 64C9 56 1 42-1 25l50-5c2 28 48 27 63 11 13-13 20-45 21-66-13 20-30 35-62 36-87 3-60-134-26-172zM94-35c41-3 55-43 55-86 0-24-12-39-35-39-43 0-51 48-51 90 0 22 9 37 31 35" id="L"/><path d="M151-194c95 0 34 128 28 194h-49l25-134c0-29-45-25-59-9C67-111 69-48 56 0H6l36-190h47l-4 32c15-20 33-36 66-36" id="M"/><g id="g"><use transform="matrix(0.07407407407407404,0,0,0.07407407407407404,0,0)" xlink:href="#I"/><use transform="matrix(0.07407407407407404,0,0,0.07407407407407404,17.77777777777777,0)" xlink:href="#J"/><use transform="matrix(0.07407407407407404,0,0,0.07407407407407404,25.185185185185173,0)" xlink:href="#K"/><use transform="matrix(0.07407407407407404,0,0,0.07407407407407404,41.40740740740739,0)" xlink:href="#L"/><use transform="matrix(0.07407407407407404,0,0,0.07407407407407404,57.629629629629605,0)" xlink:href="#F"/><use transform="matrix(0.07407407407407404,0,0,0.07407407407407404,65.03703703703701,0)" xlink:href="#M"/><use transform="matrix(0.07407407407407404,0,0,0.07407407407407404,81.25925925925922,0)" xlink:href="#D"/></g><path d="M30-248c118-7 216 8 213 122C240-48 200 0 122 0H30v-248zM63-27c89 8 146-16 146-99s-60-101-146-95v194" id="N"/><path d="M141-36C126-15 110 5 73 4 37 3 15-17 15-53c-1-64 63-63 125-63 3-35-9-54-41-54-24 1-41 7-42 31l-33-3c5-37 33-52 76-52 45 0 72 20 72 64v82c-1 20 7 32 28 27v20c-31 9-61-2-59-35zM48-53c0 20 12 33 32 33 41-3 63-29 60-74-43 2-92-5-92 41" id="O"/><path d="M59-47c-2 24 18 29 38 22v24C64 9 27 4 27-40v-127H5v-23h24l9-43h21v43h35v23H59v120" id="P"/><path d="M115-194c53 0 69 39 70 98 0 66-23 100-70 100C84 3 66-7 56-30L54 0H23l1-261h32v101c10-23 28-34 59-34zm-8 174c40 0 45-34 45-75 0-40-5-75-45-74-42 0-51 32-51 76 0 43 10 73 51 73" id="Q"/><path d="M135-143c-3-34-86-38-87 0 15 53 115 12 119 90S17 21 10-45l28-5c4 36 97 45 98 0-10-56-113-15-118-90-4-57 82-63 122-42 12 7 21 19 24 35" id="R"/><path d="M100-194c63 0 86 42 84 106H49c0 40 14 67 53 68 26 1 43-12 49-29l28 8c-11 28-37 45-77 45C44 4 14-33 15-96c1-61 26-98 85-98zm52 81c6-60-76-77-97-28-3 7-6 17-6 28h103" id="S"/><g id="h"><use transform="matrix(0.06172839506172839,0,0,0.06172839506172839,0,0)" xlink:href="#N"/><use transform="matrix(0.06172839506172839,0,0,0.06172839506172839,15.987654320987653,0)" xlink:href="#O"/><use transform="matrix(0.06172839506172839,0,0,0.06172839506172839,28.333333333333332,0)" xlink:href="#P"/><use transform="matrix(0.06172839506172839,0,0,0.06172839506172839,34.50617283950617,0)" xlink:href="#O"/><use transform="matrix(0.06172839506172839,0,0,0.06172839506172839,46.85185185185185,0)" xlink:href="#Q"/><use transform="matrix(0.06172839506172839,0,0,0.06172839506172839,59.197530864197525,0)" xlink:href="#O"/><use transform="matrix(0.06172839506172839,0,0,0.06172839506172839,71.5432098765432,0)" xlink:href="#R"/><use transform="matrix(0.06172839506172839,0,0,0.06172839506172839,82.65432098765432,0)" xlink:href="#S"/></g><linearGradient gradientUnits="userSpaceOnUse" id="i" x1="199.96" y1="363" x2="199.96" y2="283"><stop offset="18.48%" stop-color="#fff"/><stop offset="24.28%" stop-color="#cfe4ff"/></linearGradient><path d="M100-194c62-1 85 37 85 99 1 63-27 99-86 99S16-35 15-95c0-66 28-99 85-99zM99-20c44 1 53-31 53-75 0-43-8-75-51-75s-53 32-53 75 10 74 51 75" id="T"/><path d="M210-169c-67 3-38 105-44 169h-31v-121c0-29-5-50-35-48C34-165 62-65 56 0H25l-1-190h30c1 10-1 24 2 32 10-44 99-50 107 0 11-21 27-35 58-36 85-2 47 119 55 194h-31v-121c0-29-5-49-35-48" id="U"/><path d="M24-231v-30h32v30H24zM24 0v-190h32V0H24" id="V"/><path d="M117-194c89-4 53 116 60 194h-32v-121c0-31-8-49-39-48C34-167 62-67 57 0H25l-1-190h30c1 10-1 24 2 32 11-22 29-35 61-36" id="W"/><g id="j"><use transform="matrix(0.06172839506172839,0,0,0.06172839506172839,0,0)" xlink:href="#N"/><use transform="matrix(0.06172839506172839,0,0,0.06172839506172839,15.987654320987653,0)" xlink:href="#T"/><use transform="matrix(0.06172839506172839,0,0,0.06172839506172839,28.333333333333332,0)" xlink:href="#U"/><use transform="matrix(0.06172839506172839,0,0,0.06172839506172839,46.79012345679012,0)" xlink:href="#O"/><use transform="matrix(0.06172839506172839,0,0,0.06172839506172839,59.1358024691358,0)" xlink:href="#V"/><use transform="matrix(0.06172839506172839,0,0,0.06172839506172839,64.01234567901234,0)" xlink:href="#W"/></g><path d="M205 0l-28-72H64L36 0H1l101-248h38L239 0h-34zm-38-99l-47-123c-12 45-31 82-46 123h93" id="X"/><path d="M115-194c55 1 70 41 70 98S169 2 115 4C84 4 66-9 55-30l1 105H24l-1-265h31l2 30c10-21 28-34 59-34zm-8 174c40 0 45-34 45-75s-6-73-45-74c-42 0-51 32-51 76 0 43 10 73 51 73" id="Y"/><path d="M24 0v-261h32V0H24" id="Z"/><path d="M96-169c-40 0-48 33-48 73s9 75 48 75c24 0 41-14 43-38l32 2c-6 37-31 61-74 61-59 0-76-41-82-99-10-93 101-131 147-64 4 7 5 14 7 22l-32 3c-4-21-16-35-41-35" id="aa"/><g id="k"><use transform="matrix(0.06172839506172839,0,0,0.06172839506172839,0,0)" xlink:href="#X"/><use transform="matrix(0.06172839506172839,0,0,0.06172839506172839,14.814814814814813,0)" xlink:href="#Y"/><use transform="matrix(0.06172839506172839,0,0,0.06172839506172839,27.160493827160494,0)" xlink:href="#Y"/><use transform="matrix(0.06172839506172839,0,0,0.06172839506172839,39.50617283950617,0)" xlink:href="#Z"/><use transform="matrix(0.06172839506172839,0,0,0.06172839506172839,44.382716049382715,0)" xlink:href="#V"/><use transform="matrix(0.06172839506172839,0,0,0.06172839506172839,49.25925925925926,0)" xlink:href="#aa"/><use transform="matrix(0.06172839506172839,0,0,0.06172839506172839,60.37037037037037,0)" xlink:href="#O"/><use transform="matrix(0.06172839506172839,0,0,0.06172839506172839,72.71604938271605,0)" xlink:href="#P"/><use transform="matrix(0.06172839506172839,0,0,0.06172839506172839,78.88888888888889,0)" xlink:href="#V"/><use transform="matrix(0.06172839506172839,0,0,0.06172839506172839,83.76543209876543,0)" xlink:href="#T"/><use transform="matrix(0.06172839506172839,0,0,0.06172839506172839,96.11111111111111,0)" xlink:href="#W"/></g><path d="M30-248c87 1 191-15 191 75 0 78-77 80-158 76V0H30v-248zm33 125c57 0 124 11 124-50 0-59-68-47-124-48v98" id="ab"/><path d="M84 4C-5 8 30-112 23-190h32v120c0 31 7 50 39 49 72-2 45-101 50-169h31l1 190h-30c-1-10 1-25-2-33-11 22-28 36-60 37" id="ac"/><path d="M177-190C167-65 218 103 67 71c-23-6-38-20-44-43l32-5c15 47 100 32 89-28v-30C133-14 115 1 83 1 29 1 15-40 15-95c0-56 16-97 71-98 29-1 48 16 59 35 1-10 0-23 2-32h30zM94-22c36 0 50-32 50-73 0-42-14-75-50-75-39 0-46 34-46 75s6 73 46 73" id="ad"/><path d="M27 0v-27h64v-190l-56 39v-29l58-41h29v221h61V0H27" id="ae"/><g id="l"><use transform="matrix(0.06172839506172839,0,0,0.06172839506172839,0,0)" xlink:href="#ab"/><use transform="matrix(0.06172839506172839,0,0,0.06172839506172839,14.814814814814813,0)" xlink:href="#Z"/><use transform="matrix(0.06172839506172839,0,0,0.06172839506172839,19.691358024691354,0)" xlink:href="#ac"/><use transform="matrix(0.06172839506172839,0,0,0.06172839506172839,32.03703703703703,0)" xlink:href="#ad"/><use transform="matrix(0.06172839506172839,0,0,0.06172839506172839,44.38271604938271,0)" xlink:href="#V"/><use transform="matrix(0.06172839506172839,0,0,0.06172839506172839,49.25925925925925,0)" xlink:href="#W"/><use transform="matrix(0.06172839506172839,0,0,0.06172839506172839,61.60493827160493,0)" xlink:href="#ae"/></g><path d="M101-251c82-7 93 87 43 132L82-64C71-53 59-42 53-27h129V0H18c2-99 128-94 128-182 0-28-16-43-45-43s-46 15-49 41l-32-3c6-41 34-60 81-64" id="af"/><g id="m"><use transform="matrix(0.06172839506172839,0,0,0.06172839506172839,0,0)" xlink:href="#ab"/><use transform="matrix(0.06172839506172839,0,0,0.06172839506172839,14.814814814814813,0)" xlink:href="#Z"/><use transform="matrix(0.06172839506172839,0,0,0.06172839506172839,19.691358024691354,0)" xlink:href="#ac"/><use transform="matrix(0.06172839506172839,0,0,0.06172839506172839,32.03703703703703,0)" xlink:href="#ad"/><use transform="matrix(0.06172839506172839,0,0,0.06172839506172839,44.38271604938271,0)" xlink:href="#V"/><use transform="matrix(0.06172839506172839,0,0,0.06172839506172839,49.25925925925925,0)" xlink:href="#W"/><use transform="matrix(0.06172839506172839,0,0,0.06172839506172839,61.60493827160493,0)" xlink:href="#af"/></g><path d="M132-28C118-9 101 4 69 4 30 4 10-23 10-62c0-70 24-129 92-132 31-1 47 14 56 35l19-102h49L179 0h-49zM62-69c0 22 7 39 29 39 45-2 54-45 57-90 2-27-10-40-33-40-44 0-53 48-53 91" id="ag"/><g id="n"><use transform="matrix(0.07407407407407404,0,0,0.07407407407407404,0,0)" xlink:href="#y"/><use transform="matrix(0.07407407407407404,0,0,0.07407407407407404,16.222222222222214,0)" xlink:href="#z"/><use transform="matrix(0.07407407407407404,0,0,0.07407407407407404,31.037037037037024,0)" xlink:href="#A"/><use transform="matrix(0.07407407407407404,0,0,0.07407407407407404,45.85185185185183,0)" xlink:href="#B"/><use transform="matrix(0.07407407407407404,0,0,0.07407407407407404,60.66666666666664,0)" xlink:href="#C"/><use transform="matrix(0.07407407407407404,0,0,0.07407407407407404,71.03703703703701,0)" xlink:href="#B"/><use transform="matrix(0.07407407407407404,0,0,0.07407407407407404,85.85185185185182,0)" xlink:href="#ag"/></g><path d="M168 0l21-106H79L58 0H6l48-248h52l-19 99h110l19-99h50L218 0h-50" id="ah"/><path d="M127 0L95-67 37 0h-53l89-99-49-91h52l30 61 52-61h54l-85 92 52 98h-52" id="ai"/><path d="M124-194c51 0 84 22 84 74C207-44 167 4 94 4 43 4 11-23 11-74c0-74 41-120 113-120zM99-30c46 0 58-42 58-86 0-27-11-44-37-44-44 0-55 40-57 84-1 27 10 45 36 46" id="aj"/><g id="o"><use transform="matrix(0.07407407407407404,0,0,0.07407407407407404,0,0)" xlink:href="#ah"/><use transform="matrix(0.07407407407407404,0,0,0.07407407407407404,19.185185185185176,0)" xlink:href="#B"/><use transform="matrix(0.07407407407407404,0,0,0.07407407407407404,33.999999999999986,0)" xlink:href="#ai"/><use transform="matrix(0.07407407407407404,0,0,0.07407407407407404,48.814814814814795,0)" xlink:href="#z"/><use transform="matrix(0.07407407407407404,0,0,0.07407407407407404,63.629629629629605,0)" xlink:href="#L"/><use transform="matrix(0.07407407407407404,0,0,0.07407407407407404,79.85185185185182,0)" xlink:href="#aj"/><use transform="matrix(0.07407407407407404,0,0,0.07407407407407404,96.07407407407403,0)" xlink:href="#M"/><use transform="matrix(0.07407407407407404,0,0,0.07407407407407404,112.29629629629625,0)" xlink:href="#z"/><use transform="matrix(0.07407407407407404,0,0,0.07407407407407404,127.11111111111106,0)" xlink:href="#J"/></g><path d="M183 0l-10-63H79L44 0H-7l138-248h61L234 0h-51zm-14-102l-15-108c-16 38-36 73-55 108h70" id="ak"/><path d="M67-101c-8 29-7 73 27 71 23-2 32-16 39-37l48 9C170-19 141 4 91 4 36 4 7-28 12-86c6-75 61-124 140-103 26 7 40 29 43 59l-50 4c-1-20-9-34-29-34-35 0-41 29-49 59" id="al"/><g id="p"><use transform="matrix(0.07407407407407404,0,0,0.07407407407407404,0,0)" xlink:href="#ak"/><use transform="matrix(0.07407407407407404,0,0,0.07407407407407404,19.185185185185176,0)" xlink:href="#C"/><use transform="matrix(0.07407407407407404,0,0,0.07407407407407404,29.555555555555543,0)" xlink:href="#al"/><use transform="matrix(0.07407407407407404,0,0,0.07407407407407404,44.37037037037035,0)" xlink:href="#H"/><use transform="matrix(0.07407407407407404,0,0,0.07407407407407404,60.59259259259257,0)" xlink:href="#F"/><use transform="matrix(0.07407407407407404,0,0,0.07407407407407404,67.99999999999997,0)" xlink:href="#G"/><use transform="matrix(0.07407407407407404,0,0,0.07407407407407404,76.81481481481478,0)" xlink:href="#B"/><use transform="matrix(0.07407407407407404,0,0,0.07407407407407404,91.62962962962959,0)" xlink:href="#al"/><use transform="matrix(0.07407407407407404,0,0,0.07407407407407404,106.4444444444444,0)" xlink:href="#G"/><use transform="matrix(0.07407407407407404,0,0,0.07407407407407404,115.25925925925921,0)" xlink:href="#K"/><use transform="matrix(0.07407407407407404,0,0,0.07407407407407404,131.4814814814814,0)" xlink:href="#C"/><use transform="matrix(0.07407407407407404,0,0,0.07407407407407404,141.8518518518518,0)" xlink:href="#B"/></g><path d="M30 0v-248h33v221h125V0H30" id="am"/><path d="M114-163C36-179 61-72 57 0H25l-1-190h30c1 12-1 29 2 39 6-27 23-49 58-41v29" id="an"/><path d="M179-190L93 31C79 59 56 82 12 73V49c39 6 53-20 64-50L1-190h34L92-34l54-156h33" id="ao"/><g id="q"><use transform="matrix(0.06172839506172839,0,0,0.06172839506172839,0,0)" xlink:href="#am"/><use transform="matrix(0.06172839506172839,0,0,0.06172839506172839,12.345679012345679,0)" xlink:href="#V"/><use transform="matrix(0.06172839506172839,0,0,0.06172839506172839,17.22222222222222,0)" xlink:href="#Q"/><use transform="matrix(0.06172839506172839,0,0,0.06172839506172839,29.5679012345679,0)" xlink:href="#an"/><use transform="matrix(0.06172839506172839,0,0,0.06172839506172839,36.913580246913575,0)" xlink:href="#O"/><use transform="matrix(0.06172839506172839,0,0,0.06172839506172839,49.25925925925925,0)" xlink:href="#an"/><use transform="matrix(0.06172839506172839,0,0,0.06172839506172839,56.60493827160493,0)" xlink:href="#ao"/></g><path d="M212-179c-10-28-35-45-73-45-59 0-87 40-87 99 0 60 29 101 89 101 43 0 62-24 78-52l27 14C228-24 195 4 139 4 59 4 22-46 18-125c-6-104 99-153 187-111 19 9 31 26 39 46" id="ap"/><g id="r"><use transform="matrix(0.06172839506172839,0,0,0.06172839506172839,0,0)" xlink:href="#ap"/><use transform="matrix(0.06172839506172839,0,0,0.06172839506172839,15.987654320987653,0)" xlink:href="#T"/><use transform="matrix(0.06172839506172839,0,0,0.06172839506172839,28.333333333333332,0)" xlink:href="#W"/><use transform="matrix(0.06172839506172839,0,0,0.06172839506172839,40.67901234567901,0)" xlink:href="#P"/><use transform="matrix(0.06172839506172839,0,0,0.06172839506172839,46.851851851851855,0)" xlink:href="#an"/><use transform="matrix(0.06172839506172839,0,0,0.06172839506172839,54.19753086419753,0)" xlink:href="#T"/><use transform="matrix(0.06172839506172839,0,0,0.06172839506172839,66.54320987654322,0)" xlink:href="#Z"/><use transform="matrix(0.06172839506172839,0,0,0.06172839506172839,71.41975308641976,0)" xlink:href="#Z"/><use transform="matrix(0.06172839506172839,0,0,0.06172839506172839,76.2962962962963,0)" xlink:href="#S"/><use transform="matrix(0.06172839506172839,0,0,0.06172839506172839,88.64197530864199,0)" xlink:href="#an"/></g><path d="M137 0h-34L2-248h35l83 218 83-218h36" id="aq"/><path d="M206 0h-36l-40-164L89 0H53L-1-190h32L70-26l43-164h34l41 164 42-164h31" id="ar"/><g id="s"><use transform="matrix(0.06172839506172839,0,0,0.06172839506172839,0,0)" xlink:href="#aq"/><use transform="matrix(0.06172839506172839,0,0,0.06172839506172839,14.382716049382715,0)" xlink:href="#V"/><use transform="matrix(0.06172839506172839,0,0,0.06172839506172839,19.25925925925926,0)" xlink:href="#S"/><use transform="matrix(0.06172839506172839,0,0,0.06172839506172839,31.604938271604937,0)" xlink:href="#ar"/></g><path d="M178-136c88 48 22 151-73 140C49-3 12-15 4-64l51-9c1 50 111 53 115 3-16-63-132-20-133-112 0-93 190-91 199-10l-50 12c-4-41-93-50-97-4 7 38 59 32 89 48" id="as"/><path d="M156-122c2-23-7-37-28-37-47 0-58 44-58 89 0 24 12 40 36 40 43 0 47-49 50-92zM-8 75l50-265h48c0 10-3 24-3 30 22-50 127-45 121 29-6 73-21 135-92 135-29 0-46-14-55-35L41 75H-8" id="at"/><g id="t"><use transform="matrix(0.07407407407407404,0,0,0.07407407407407404,0,0)" xlink:href="#as"/><use transform="matrix(0.07407407407407404,0,0,0.07407407407407404,17.77777777777777,0)" xlink:href="#al"/><use transform="matrix(0.07407407407407404,0,0,0.07407407407407404,32.59259259259258,0)" xlink:href="#C"/><use transform="matrix(0.07407407407407404,0,0,0.07407407407407404,42.96296296296295,0)" xlink:href="#F"/><use transform="matrix(0.07407407407407404,0,0,0.07407407407407404,50.370370370370345,0)" xlink:href="#at"/><use transform="matrix(0.07407407407407404,0,0,0.07407407407407404,66.59259259259257,0)" xlink:href="#G"/><use transform="matrix(0.07407407407407404,0,0,0.07407407407407404,75.40740740740738,0)" xlink:href="#D"/></g><linearGradient gradientUnits="userSpaceOnUse" id="u" x1="560.04" y1="441.5" x2="560.04" y2="361.5"><stop offset="18.48%" stop-color="#fff"/><stop offset="24.28%" stop-color="#cfe4ff"/></linearGradient><path d="M33 0v-248h34V0H33" id="au"/><g id="v"><use transform="matrix(0.06172839506172839,0,0,0.06172839506172839,0,0)" xlink:href="#au"/><use transform="matrix(0.06172839506172839,0,0,0.06172839506172839,6.172839506172839,0)" xlink:href="#W"/><use transform="matrix(0.06172839506172839,0,0,0.06172839506172839,18.51851851851852,0)" xlink:href="#P"/><use transform="matrix(0.06172839506172839,0,0,0.06172839506172839,24.691358024691358,0)" xlink:href="#S"/><use transform="matrix(0.06172839506172839,0,0,0.06172839506172839,37.03703703703704,0)" xlink:href="#an"/><use transform="matrix(0.06172839506172839,0,0,0.06172839506172839,44.382716049382715,0)" xlink:href="#Y"/><use transform="matrix(0.06172839506172839,0,0,0.06172839506172839,56.72839506172839,0)" xlink:href="#an"/><use transform="matrix(0.06172839506172839,0,0,0.06172839506172839,64.07407407407408,0)" xlink:href="#S"/><use transform="matrix(0.06172839506172839,0,0,0.06172839506172839,76.41975308641976,0)" xlink:href="#P"/><use transform="matrix(0.06172839506172839,0,0,0.06172839506172839,82.5925925925926,0)" xlink:href="#S"/><use transform="matrix(0.06172839506172839,0,0,0.06172839506172839,94.93827160493828,0)" xlink:href="#an"/></g><path d="M185-189c-5-48-123-54-124 2 14 75 158 14 163 119 3 78-121 87-175 55-17-10-28-26-33-46l33-7c5 56 141 63 141-1 0-78-155-14-162-118-5-82 145-84 179-34 5 7 8 16 11 25" id="av"/><g id="w"><use transform="matrix(0.06172839506172839,0,0,0.06172839506172839,0,0)" xlink:href="#av"/><use transform="matrix(0.06172839506172839,0,0,0.06172839506172839,14.814814814814813,0)" xlink:href="#aa"/><use transform="matrix(0.06172839506172839,0,0,0.06172839506172839,25.925925925925924,0)" xlink:href="#an"/><use transform="matrix(0.06172839506172839,0,0,0.06172839506172839,33.2716049382716,0)" xlink:href="#V"/><use transform="matrix(0.06172839506172839,0,0,0.06172839506172839,38.148148148148145,0)" xlink:href="#Y"/><use transform="matrix(0.06172839506172839,0,0,0.06172839506172839,50.49382716049382,0)" xlink:href="#P"/><use transform="matrix(0.06172839506172839,0,0,0.06172839506172839,56.666666666666664,0)" xlink:href="#ae"/></g><g id="x"><use transform="matrix(0.06172839506172839,0,0,0.06172839506172839,0,0)" xlink:href="#av"/><use transform="matrix(0.06172839506172839,0,0,0.06172839506172839,14.814814814814813,0)" xlink:href="#aa"/><use transform="matrix(0.06172839506172839,0,0,0.06172839506172839,25.925925925925924,0)" xlink:href="#an"/><use transform="matrix(0.06172839506172839,0,0,0.06172839506172839,33.2716049382716,0)" xlink:href="#V"/><use transform="matrix(0.06172839506172839,0,0,0.06172839506172839,38.148148148148145,0)" xlink:href="#Y"/><use transform="matrix(0.06172839506172839,0,0,0.06172839506172839,50.49382716049382,0)" xlink:href="#P"/><use transform="matrix(0.06172839506172839,0,0,0.06172839506172839,56.666666666666664,0)" xlink:href="#af"/></g></defs></g></svg>