<svg xmlns="http://www.w3.org/2000/svg" xmlns:xlink="http://www.w3.org/1999/xlink" xmlns:lucid="lucid" width="1244.5" height="363"><g transform="translate(-298.5 -498.5)" lucid:page-tab-id="0_0"><path d="M1200 520a20 20 0 0 1 20-20h21.5a20 20 0 0 1 20 20v120a20 20 0 0 1-20 20H1220a20 20 0 0 1-20-20z" stroke="#000" stroke-width="3" fill="#cfe4ff"/><use xlink:href="#a" transform="matrix(-1.8369701987210297e-16,-1,1,-1.8369701987210297e-16,1205,655) translate(37.79012345679013 29.305555555555557)"/><use xlink:href="#b" transform="matrix(-1.8369701987210297e-16,-1,1,-1.8369701987210297e-16,1205,655) translate(98.62962962962963 29.305555555555557)"/><path d="M1300 520a20 20 0 0 1 20-20h21.5a20 20 0 0 1 20 20v120a20 20 0 0 1-20 20H1320a20 20 0 0 1-20-20z" stroke="#000" stroke-width="3" fill="#cfe4ff"/><use xlink:href="#a" transform="matrix(-1.8369701987210297e-16,-1,1,-1.8369701987210297e-16,1305,655) translate(37.79012345679013 29.305555555555557)"/><use xlink:href="#c" transform="matrix(-1.8369701987210297e-16,-1,1,-1.8369701987210297e-16,1305,655) translate(98.62962962962963 29.305555555555557)"/><path d="M1400 520a20 20 0 0 1 20-20h20a20 20 0 0 1 20 20v120a20 20 0 0 1-20 20h-20a20 20 0 0 1-20-20z" stroke="#000" stroke-width="3" fill="#cfe4ff"/><use xlink:href="#a" transform="matrix(-1.8369701987210297e-16,-1,1,-1.8369701987210297e-16,1405,655) translate(37.79012345679013 28.930555555555557)"/><use xlink:href="#d" transform="matrix(-1.8369701987210297e-16,-1,1,-1.8369701987210297e-16,1405,655) translate(98.62962962962963 28.930555555555557)"/><path d="M1281.5 582a1 1 0 0 1 1-1 1 1 0 0 1 1 1 1 1 0 0 1-1 1 1 1 0 0 1-1-1m-3.7 0a1 1 0 0 1 1-1 1 1 0 0 1 1 1 1 1 0 0 1-1 1 1 1 0 0 1-1-1m-3.7 0a1 1 0 0 1 1-1 1 1 0 0 1 1 1 1 1 0 0 1-1 1 1 1 0 0 1-1-1m-3.7 0a1 1 0 0 1 1-1 1 1 0 0 1 1 1 1 1 0 0 1-1 1 1 1 0 0 1-1-1m-3.7 0a1 1 0 0 1 1-1 1 1 0 0 1 1 1 1 1 0 0 1-1 1 1 1 0 0 1-1-1M1281.5 578a1 1 0 0 1 1-1 1 1 0 0 1 1 1 1 1 0 0 1-1 1 1 1 0 0 1-1-1m-3.7 0a1 1 0 0 1 1-1 1 1 0 0 1 1 1 1 1 0 0 1-1 1 1 1 0 0 1-1-1m-3.7 0a1 1 0 0 1 1-1 1 1 0 0 1 1 1 1 1 0 0 1-1 1 1 1 0 0 1-1-1m-3.7 0a1 1 0 0 1 1-1 1 1 0 0 1 1 1 1 1 0 0 1-1 1 1 1 0 0 1-1-1m-3.7 0a1 1 0 0 1 1-1 1 1 0 0 1 1 1 1 1 0 0 1-1 1 1 1 0 0 1-1-1" fill="#008a0e"/><path d="M1296.5 580l-13 7.5v-15z" stroke="#008a0e" stroke-width="2" fill="#fff"/><path d="M1264.03 582.98H1263V581h1.03zM1264.03 578.98H1263V577h1.03z" stroke="#008a0e" stroke-width=".05" fill="#008a0e"/><path d="M1381.5 582a1 1 0 0 1 1-1 1 1 0 0 1 1 1 1 1 0 0 1-1 1 1 1 0 0 1-1-1m-3.7 0a1 1 0 0 1 1-1 1 1 0 0 1 1 1 1 1 0 0 1-1 1 1 1 0 0 1-1-1m-3.7 0a1 1 0 0 1 1-1 1 1 0 0 1 1 1 1 1 0 0 1-1 1 1 1 0 0 1-1-1m-3.7 0a1 1 0 0 1 1-1 1 1 0 0 1 1 1 1 1 0 0 1-1 1 1 1 0 0 1-1-1m-3.7 0a1 1 0 0 1 1-1 1 1 0 0 1 1 1 1 1 0 0 1-1 1 1 1 0 0 1-1-1M1381.5 578a1 1 0 0 1 1-1 1 1 0 0 1 1 1 1 1 0 0 1-1 1 1 1 0 0 1-1-1m-3.7 0a1 1 0 0 1 1-1 1 1 0 0 1 1 1 1 1 0 0 1-1 1 1 1 0 0 1-1-1m-3.7 0a1 1 0 0 1 1-1 1 1 0 0 1 1 1 1 1 0 0 1-1 1 1 1 0 0 1-1-1m-3.7 0a1 1 0 0 1 1-1 1 1 0 0 1 1 1 1 1 0 0 1-1 1 1 1 0 0 1-1-1m-3.7 0a1 1 0 0 1 1-1 1 1 0 0 1 1 1 1 1 0 0 1-1 1 1 1 0 0 1-1-1" fill="#008a0e"/><path d="M1396.5 580l-13 7.5v-15z" stroke="#008a0e" stroke-width="2" fill="#fff"/><path d="M1364.03 582.98H1363V581h1.03zM1364.03 578.98H1363V577h1.03z" stroke="#008a0e" stroke-width=".05" fill="#008a0e"/><path d="M1120 680a20 20 0 0 1 20-20h1.5a20 20 0 0 1 20 20v80a20 20 0 0 1-20 20h-1.5a20 20 0 0 1-20-20z" stroke="#000" stroke-width="3" fill="#fff"/><use xlink:href="#e" transform="matrix(-1.8369701987210297e-16,-1,1,-1.8369701987210297e-16,1125,775) translate(16.335246913580253 21.555555555555557)"/><path d="M1190.54 644.7a1 1 0 0 1 1-1 1 1 0 0 1 1 1 1 1 0 0 1-1 1 1 1 0 0 1-1-1m-2.2 3.42a1 1 0 0 1 1-1 1 1 0 0 1 1 1 1 1 0 0 1-1 1 1 1 0 0 1-1-1v-.02m-2.2 3.43a1 1 0 0 1 1-1 1 1 0 0 1 1 1 1 1 0 0 1-1 1 1 1 0 0 1-1-1v-.02m-2.18 3.44a1 1 0 0 1 1-1 1 1 0 0 1 1 1 1 1 0 0 1-1 1 1 1 0 0 1-1-1v-.02m-2.2 3.43a1 1 0 0 1 1-1 1 1 0 0 1 1 1 1 1 0 0 1-1 1 1 1 0 0 1-1-1v-.02m-2.2 3.43a1 1 0 0 1 1-1 1 1 0 0 1 1 1 1 1 0 0 1-1 1 1 1 0 0 1-1-1v-.02m-2.18 3.43a1 1 0 0 1 1-1 1 1 0 0 1 1 1 1 1 0 0 1-1 1 1 1 0 0 1-1-1v-.02m-2.2 3.44v-.02a1 1 0 0 1 1-1 1 1 0 0 1 1 1 1 1 0 0 1-1 1 1 1 0 0 1-1-1M1173 672a1 1 0 0 1 1-1 1 1 0 0 1 1 1 1 1 0 0 1-1 1 1 1 0 0 1-1-1v-.02m-2.18 3.43a1 1 0 0 1 1-1 1 1 0 0 1 1 1 1 1 0 0 1-1 1 1 1 0 0 1-1-1m-2.2 3.42a1 1 0 0 1 1-1 1 1 0 0 1 1 1 1 1 0 0 1-1 1 1 1 0 0 1-1-1v-.02m-2.18 3.43a1 1 0 0 1 1-1 1 1 0 0 1 1 1 1 1 0 0 1-1 1 1 1 0 0 1-1-1v-.02M1187.17 642.55a1 1 0 0 1 1-1 1 1 0 0 1 1 1 1 1 0 0 1-1 1 1 1 0 0 1-1-1v-.02m-2.2 3.43a1 1 0 0 1 1-1 1 1 0 0 1 1 1 1 1 0 0 1-1 1 1 1 0 0 1-1-1v-.02m-2.18 3.43a1 1 0 0 1 1-1 1 1 0 0 1 1 1 1 1 0 0 1-1 1 1 1 0 0 1-1-1v-.02m-2.2 3.43a1 1 0 0 1 1-1 1 1 0 0 1 1 1 1 1 0 0 1-1 1 1 1 0 0 1-1-1v-.02m-2.2 3.43v-.02a1 1 0 0 1 1-1 1 1 0 0 1 1 1 1 1 0 0 1-1 1 1 1 0 0 1-1-1m-2.2 3.42a1 1 0 0 1 1-1 1 1 0 0 1 1 1 1 1 0 0 1-1 1 1 1 0 0 1-1-1v-.02m-2.18 3.43a1 1 0 0 1 1-1 1 1 0 0 1 1 1 1 1 0 0 1-1 1 1 1 0 0 1-1-1m-2.2 3.42a1 1 0 0 1 1-1 1 1 0 0 1 1 1 1 1 0 0 1-1 1 1 1 0 0 1-1-1v-.02m-2.2 3.43a1 1 0 0 1 1-1 1 1 0 0 1 1 1 1 1 0 0 1-1 1 1 1 0 0 1-1-1v-.02m-2.18 3.44a1 1 0 0 1 1-1 1 1 0 0 1 1 1 1 1 0 0 1-1 1 1 1 0 0 1-1-1v-.02m-2.2 3.43a1 1 0 0 1 1-1 1 1 0 0 1 1 1 1 1 0 0 1-1 1 1 1 0 0 1-1-1m-2.2 3.42v-.02a1 1 0 0 1 1-1 1 1 0 0 1 1 1 1 1 0 0 1-1 1 1 1 0 0 1-1-1" fill="#008a0e"/><path d="M1197.42 631.85l-.72 14.98-12.62-8.1z" stroke="#008a0e" stroke-width="2" fill="#fff"/><path d="M1166.06 686.13l-2.18 3.4-.88-.57v-1.68l1.42-2.2z" stroke="#008a0e" stroke-width=".05" fill="#008a0e"/><path stroke="#008a0e" stroke-width=".05" fill="#008a0e"/><path d="M1500 680a20 20 0 0 1 20-20h1.5a20 20 0 0 1 20 20v80a20 20 0 0 1-20 20h-1.5a20 20 0 0 1-20-20z" stroke="#000" stroke-width="3" fill="#fff"/><use xlink:href="#f" transform="matrix(-1.8369701987210297e-16,-1,1,-1.8369701987210297e-16,1505,774.9999999999998) translate(31.273518518518525 21.555555555555557)"/><path d="M1487.12 673.36a1 1 0 0 1 1-1 1 1 0 0 1 1 1 1 1 0 0 1-1 1 1 1 0 0 1-1-1v-.02m-2.13-3.28a1 1 0 0 1 1-1 1 1 0 0 1 1 1 1 1 0 0 1-1 1 1 1 0 0 1-1-1v-.02m-2.15-3.27a1 1 0 0 1 1-1 1 1 0 0 1 1 1 1 1 0 0 1-1 1 1 1 0 0 1-1-1v-.02m-2.13-3.28a1 1 0 0 1 1-1 1 1 0 0 1 1 1 1 1 0 0 1-1 1 1 1 0 0 1-1-1v-.02m-2.14-3.27a1 1 0 0 1 1-1 1 1 0 0 1 1 1 1 1 0 0 1-1 1 1 1 0 0 1-1-1v-.02m-2.13-3.27v-.02a1 1 0 0 1 1-1 1 1 0 0 1 1 1 1 1 0 0 1-1 1 1 1 0 0 1-1-1m-2.14-3.3a1 1 0 0 1 1-1 1 1 0 0 1 1 1 1 1 0 0 1-1 1 1 1 0 0 1-1-1m-2.12-3.28a1 1 0 0 1 1-1 1 1 0 0 1 1 1 1 1 0 0 1-1 1 1 1 0 0 1-1-1v-.02m-2.14-3.28a1 1 0 0 1 1-1 1 1 0 0 1 1 1 1 1 0 0 1-1 1 1 1 0 0 1-1-1v-.02m-2.13-3.27a1 1 0 0 1 1-1 1 1 0 0 1 1 1 1 1 0 0 1-1 1 1 1 0 0 1-1-1m-2.13-3.3a1 1 0 0 1 1-1 1 1 0 0 1 1 1 1 1 0 0 1-1 1 1 1 0 0 1-1-1m-2.13-3.28a1 1 0 0 1 1-1 1 1 0 0 1 1 1 1 1 0 0 1-1 1 1 1 0 0 1-1-1v-.02m-2.14-3.27a1 1 0 0 1 1-1 1 1 0 0 1 1 1 1 1 0 0 1-1 1 1 1 0 0 1-1-1v-.02M1490.48 671.18a1 1 0 0 1 1-1 1 1 0 0 1 1 1 1 1 0 0 1-1 1 1 1 0 0 1-1-1v-.02m-2.13-3.27v-.02a1 1 0 0 1 1-1 1 1 0 0 1 1 1 1 1 0 0 1-1 1 1 1 0 0 1-1-1m-2.14-3.3a1 1 0 0 1 1-1 1 1 0 0 1 1 1 1 1 0 0 1-1 1 1 1 0 0 1-1-1m-2.13-3.28a1 1 0 0 1 1-1 1 1 0 0 1 1 1 1 1 0 0 1-1 1 1 1 0 0 1-1-1v-.02m-2.13-3.28a1 1 0 0 1 1-1 1 1 0 0 1 1 1 1 1 0 0 1-1 1 1 1 0 0 1-1-1v-.02m-2.14-3.27a1 1 0 0 1 1-1 1 1 0 0 1 1 1 1 1 0 0 1-1 1 1 1 0 0 1-1-1m-2.13-3.3a1 1 0 0 1 1-1 1 1 0 0 1 1 1 1 1 0 0 1-1 1 1 1 0 0 1-1-1m-2.14-3.28a1 1 0 0 1 1-1 1 1 0 0 1 1 1 1 1 0 0 1-1 1 1 1 0 0 1-1-1v-.02m-2.13-3.27a1 1 0 0 1 1-1 1 1 0 0 1 1 1 1 1 0 0 1-1 1 1 1 0 0 1-1-1v-.02m-2.14-3.27a1 1 0 0 1 1-1 1 1 0 0 1 1 1 1 1 0 0 1-1 1 1 1 0 0 1-1-1v-.02m-2.13-3.26a1 1 0 0 1 1-1 1 1 0 0 1 1 1 1 1 0 0 1-1 1 1 1 0 0 1-1-1v-.02m-2.14-3.28a1 1 0 0 1 1-1 1 1 0 0 1 1 1 1 1 0 0 1-1 1 1 1 0 0 1-1-1v-.02m-2.14-3.27a1 1 0 0 1 1-1 1 1 0 0 1 1 1 1 1 0 0 1-1 1 1 1 0 0 1-1-1v-.02" fill="#008a0e"/><path d="M1497.4 684l-13.35-6.82 12.6-8.16z" stroke="#008a0e" stroke-width="2" fill="#fff"/><path stroke="#008a0e" stroke-width=".05" fill="#008a0e"/><path d="M1464.55 627.84l-1.63 1.06-1.42-2.2v-1.68l.87-.56z" stroke="#008a0e" stroke-width=".05" fill="#008a0e"/><path d="M962 695.66v48.68M958 695.66v48.68M950 700.82l10-17.32 10 17.32m-10-17.32v8.5M970 739.18l-10 17.32-10-17.32m10 17.32V748M822 715.66v28.68M818 715.66v28.68M810 720.82l10-17.32 10 17.32m-10-17.32v8.5M830 739.18l-10 17.32-10-17.32m10 17.32V748M672 715.66v28.68M668 715.66v28.68M660 720.82l10-17.32 10 17.32m-10-17.32v8.5M680 739.18l-10 17.32-10-17.32m10 17.32V748M692 695.66v48.68M688 695.66v48.68M680 700.82l10-17.32 10 17.32m-10-17.32v8.5M700 739.18l-10 17.32-10-17.32m10 17.32V748M712 675.66v68.68M708 675.66v68.68M700 680.82l10-17.32 10 17.32m-10-17.32v8.5M720 739.18l-10 17.32-10-17.32m10 17.32V748M942 715.66v28.68M938 715.66v28.68M930 720.82l10-17.32 10 17.32m-10-17.32v8.5M950 739.18l-10 17.32-10-17.32m10 17.32V748M430.18 620.66L430 562.5" stroke="#000" stroke-width="2" fill="none"/><path d="M430.23 635.93l-4.68-14.25 9.27-.03z" stroke="#000" stroke-width="2"/><path d="M430.98 562.52h-1.95v-1.02h1.95z" stroke="#000" stroke-width=".05"/><path d="M450.4 620.66l-.4-78.16" stroke="#000" stroke-width="2" fill="none"/><path d="M450.48 635.93l-4.7-14.24 9.26-.06z" stroke="#000" stroke-width="2"/><path d="M450.98 542.52h-1.95v-1.02h1.95z" stroke="#000" stroke-width=".05"/><path d="M300.24 780a20 20 0 0 1 20-20h200a20 20 0 0 1 20 20 20 20 0 0 1-20 20h-200a20 20 0 0 1-20-20z" stroke="#000" stroke-width="3" fill="#ced4db"/><use xlink:href="#g" transform="matrix(1,0,0,1,305.24095430717796,765) translate(62.754999999999995 21.430555555555557)"/><path d="M320.24 660.67a20 20 0 0 1 20-20h180a20 20 0 0 1 20 20V680a20 20 0 0 1-20 20h-180a20 20 0 0 1-20-20z" stroke="#000" stroke-width="3" fill="url(#h)"/><use xlink:href="#i" transform="matrix(1,0,0,1,325.24095430717796,645.6666666666665) translate(63.00308641975309 28.930555555555557)"/><path d="M360 520a20 20 0 0 1 20-20h140a20 20 0 0 1 20 20 20 20 0 0 1-20 20H380a20 20 0 0 1-20-20z" stroke="#000" stroke-width="3" fill="#c3f7c8"/><use xlink:href="#j" transform="matrix(1,0,0,1,365,505) translate(25.353765432098754 21.430555555555557)"/><path d="M430.24 740v-37.5" stroke="#000" stroke-width="2" fill="none"/><path d="M430.24 755.26L425.6 741h9.28z" stroke="#000" stroke-width="2"/><path d="M431.22 702.53h-1.95v-1.03h1.95z" stroke="#000" stroke-width=".05"/><path d="M300.24 806a6 6 0 0 1 6-6h228a6 6 0 0 1 6 6v48a6 6 0 0 1-6 6h-228a6 6 0 0 1-6-6z" stroke="#000" stroke-opacity="0" stroke-width="3" fill="#fff" fill-opacity="0"/><use xlink:href="#k" transform="matrix(1,0,0,1,305.24095430717796,805) translate(64.91975308641977 31.26388888888888)"/><path d="M300.24 680a20 20 0 0 1 20-20h180a20 20 0 0 1 20 20v20a20 20 0 0 1-20 20h-180a20 20 0 0 1-20-20z" stroke="#000" stroke-width="3" fill="url(#l)"/><use xlink:href="#i" transform="matrix(1,0,0,1,305.24095430717796,665) translate(63.00308641975309 28.930555555555557)"/><path d="M410.24 740v-17.5" stroke="#000" stroke-width="2" fill="none"/><path d="M410.24 755.26L405.6 741h9.28z" stroke="#000" stroke-width="2"/><path d="M411.22 722.53h-1.95v-1.03h1.95z" stroke="#000" stroke-width=".05"/><path d="M340 540a20 20 0 0 1 20-20h140a20 20 0 0 1 20 20 20 20 0 0 1-20 20H360a20 20 0 0 1-20-20z" stroke="#000" stroke-width="3" fill="#c3f7c8"/><use xlink:href="#j" transform="matrix(1,0,0,1,345,525) translate(25.353765432098754 21.430555555555557)"/><path d="M320 560a20 20 0 0 1 20-20h140a20 20 0 0 1 20 20 20 20 0 0 1-20 20H340a20 20 0 0 1-20-20z" stroke="#000" stroke-width="3" fill="#c3f7c8"/><use xlink:href="#j" transform="matrix(1,0,0,1,325,545) translate(25.353765432098754 21.430555555555557)"/><path d="M390 640v-37.5" stroke="#000" stroke-width="2" fill="none"/><path d="M390 655.26L385.37 641h9.26z" stroke="#000" stroke-width="2"/><path d="M390.98 602.53h-1.96v-1.03h1.96z" stroke="#000" stroke-width=".05"/><path d="M410.18 640l-.18-57.5" stroke="#000" stroke-width="2" fill="none"/><path d="M410.23 655.26L405.55 641l9.27-.02z" stroke="#000" stroke-width="2"/><path d="M410.98 582.52h-1.95v-1.02h1.95z" stroke="#000" stroke-width=".05"/><path d="M300 580a20 20 0 0 1 20-20h140a20 20 0 0 1 20 20 20 20 0 0 1-20 20H320a20 20 0 0 1-20-20z" stroke="#000" stroke-width="3" fill="#c3f7c8"/><use xlink:href="#j" transform="matrix(1,0,0,1,305,565) translate(25.353765432098754 21.430555555555557)"/><path d="M680 520a20 20 0 0 1 20-20h20a20 20 0 0 1 20 20v120a20 20 0 0 1-20 20h-20a20 20 0 0 1-20-20z" stroke="#000" stroke-width="3" fill="url(#m)"/><path d="M780 520a20 20 0 0 1 20-20h40a20 20 0 0 1 20 20v160a20 20 0 0 1-20 20h-40a20 20 0 0 1-20-20z" stroke="#000" stroke-width="3" fill="url(#n)"/><use xlink:href="#o" transform="matrix(-1.8369701987210297e-16,-1,1,-1.8369701987210297e-16,785,694.9999999999999) translate(42.78395061728395 39.24305555555556)"/><use xlink:href="#p" transform="matrix(-1.8369701987210297e-16,-1,1,-1.8369701987210297e-16,785,694.9999999999999) translate(130.91975308641975 39.24305555555556)"/><path d="M920 520a20 20 0 0 1 20-20h40a20 20 0 0 1 20 20v140a20 20 0 0 1-20 20h-40a20 20 0 0 1-20-20z" stroke="#000" stroke-width="3" fill="url(#q)"/><path d="M640 780a20 20 0 0 1 20-20h320a20 20 0 0 1 20 20 20 20 0 0 1-20 20H660a20 20 0 0 1-20-20z" stroke="#000" stroke-width="3" fill="#fff"/><use xlink:href="#r" transform="matrix(1,0,0,1,645,765) translate(112.70561728395062 21.430555555555557)"/><path d="M660 540a20 20 0 0 1 20-20h20a20 20 0 0 1 20 20v120a20 20 0 0 1-20 20h-20a20 20 0 0 1-20-20z" stroke="#000" stroke-width="3" fill="url(#s)"/><use xlink:href="#o" transform="matrix(-1.8369701987210297e-16,-1,1,-1.8369701987210297e-16,665,674.9999999999999) translate(22.78395061728395 28.930555555555557)"/><use xlink:href="#t" transform="matrix(-1.8369701987210297e-16,-1,1,-1.8369701987210297e-16,665,674.9999999999999) translate(110.91975308641976 28.930555555555557)"/><path d="M640 560a20 20 0 0 1 20-20h20a20 20 0 0 1 20 20v120a20 20 0 0 1-20 20h-20a20 20 0 0 1-20-20z" stroke="#000" stroke-width="3" fill="url(#u)"/><use xlink:href="#o" transform="matrix(-1.8369701987210297e-16,-1,1,-1.8369701987210297e-16,645,695.0000000000001) translate(22.78395061728395 28.930555555555557)"/><use xlink:href="#t" transform="matrix(-1.8369701987210297e-16,-1,1,-1.8369701987210297e-16,645,695.0000000000001) translate(110.91975308641976 28.930555555555557)"/><path d="M900 540a20 20 0 0 1 20-20h40a20 20 0 0 1 20 20v140a20 20 0 0 1-20 20h-40a20 20 0 0 1-20-20z" stroke="#000" stroke-width="3" fill="url(#v)"/><use xlink:href="#o" transform="matrix(-1.8369701987210297e-16,-1,1,-1.8369701987210297e-16,905.0000000000001,694.9999999999999) translate(32.138888888888886 39.24305555555556)"/><use xlink:href="#w" transform="matrix(-1.8369701987210297e-16,-1,1,-1.8369701987210297e-16,905.0000000000001,694.9999999999999) translate(120.2746913580247 39.24305555555556)"/><path d="M600 806a6 6 0 0 1 6-6h428a6 6 0 0 1 6 6v48a6 6 0 0 1-6 6H606a6 6 0 0 1-6-6z" stroke="#000" stroke-opacity="0" stroke-width="3" fill="#fff" fill-opacity="0"/><use xlink:href="#x" transform="matrix(1,0,0,1,605,805) translate(13.85802469135811 31.26388888888888)"/><use xlink:href="#y" transform="matrix(1,0,0,1,605,805) translate(150.40123456790127 31.26388888888888)"/><use xlink:href="#z" transform="matrix(1,0,0,1,605,805) translate(221.09259259259258 31.26388888888888)"/><use xlink:href="#A" transform="matrix(1,0,0,1,605,805) translate(247.0185185185185 31.26388888888888)"/><path d="M1180 540a20 20 0 0 1 20-20h21.5a20 20 0 0 1 20 20v120a20 20 0 0 1-20 20H1200a20 20 0 0 1-20-20z" stroke="#000" stroke-width="3" fill="#cfe4ff"/><use xlink:href="#a" transform="matrix(-1.8369701987210297e-16,-1,1,-1.8369701987210297e-16,1185,675) translate(37.79012345679013 29.305555555555557)"/><use xlink:href="#b" transform="matrix(-1.8369701987210297e-16,-1,1,-1.8369701987210297e-16,1185,675) translate(98.62962962962963 29.305555555555557)"/><path d="M1280 540a20 20 0 0 1 20-20h21.5a20 20 0 0 1 20 20v120a20 20 0 0 1-20 20H1300a20 20 0 0 1-20-20z" stroke="#000" stroke-width="3" fill="#cfe4ff"/><use xlink:href="#a" transform="matrix(-1.8369701987210297e-16,-1,1,-1.8369701987210297e-16,1285,675) translate(37.79012345679013 29.305555555555557)"/><use xlink:href="#c" transform="matrix(-1.8369701987210297e-16,-1,1,-1.8369701987210297e-16,1285,675) translate(98.62962962962963 29.305555555555557)"/><path d="M1380 540a20 20 0 0 1 20-20h20a20 20 0 0 1 20 20v120a20 20 0 0 1-20 20h-20a20 20 0 0 1-20-20z" stroke="#000" stroke-width="3" fill="#cfe4ff"/><use xlink:href="#a" transform="matrix(-1.8369701987210297e-16,-1,1,-1.8369701987210297e-16,1385,675) translate(37.79012345679013 28.930555555555557)"/><use xlink:href="#d" transform="matrix(-1.8369701987210297e-16,-1,1,-1.8369701987210297e-16,1385,675) translate(98.62962962962963 28.930555555555557)"/><path d="M1261.5 602a1 1 0 0 1 1-1 1 1 0 0 1 1 1 1 1 0 0 1-1 1 1 1 0 0 1-1-1m-3.7 0a1 1 0 0 1 1-1 1 1 0 0 1 1 1 1 1 0 0 1-1 1 1 1 0 0 1-1-1m-3.7 0a1 1 0 0 1 1-1 1 1 0 0 1 1 1 1 1 0 0 1-1 1 1 1 0 0 1-1-1m-3.7 0a1 1 0 0 1 1-1 1 1 0 0 1 1 1 1 1 0 0 1-1 1 1 1 0 0 1-1-1m-3.7 0a1 1 0 0 1 1-1 1 1 0 0 1 1 1 1 1 0 0 1-1 1 1 1 0 0 1-1-1M1261.5 598a1 1 0 0 1 1-1 1 1 0 0 1 1 1 1 1 0 0 1-1 1 1 1 0 0 1-1-1m-3.7 0a1 1 0 0 1 1-1 1 1 0 0 1 1 1 1 1 0 0 1-1 1 1 1 0 0 1-1-1m-3.7 0a1 1 0 0 1 1-1 1 1 0 0 1 1 1 1 1 0 0 1-1 1 1 1 0 0 1-1-1m-3.7 0a1 1 0 0 1 1-1 1 1 0 0 1 1 1 1 1 0 0 1-1 1 1 1 0 0 1-1-1m-3.7 0a1 1 0 0 1 1-1 1 1 0 0 1 1 1 1 1 0 0 1-1 1 1 1 0 0 1-1-1" fill="#008a0e"/><path d="M1276.5 600l-13 7.5v-15z" stroke="#008a0e" stroke-width="2" fill="#fff"/><path d="M1244.03 602.98H1243V601h1.03zM1244.03 598.98H1243V597h1.03z" stroke="#008a0e" stroke-width=".05" fill="#008a0e"/><path d="M1361.5 602a1 1 0 0 1 1-1 1 1 0 0 1 1 1 1 1 0 0 1-1 1 1 1 0 0 1-1-1m-3.7 0a1 1 0 0 1 1-1 1 1 0 0 1 1 1 1 1 0 0 1-1 1 1 1 0 0 1-1-1m-3.7 0a1 1 0 0 1 1-1 1 1 0 0 1 1 1 1 1 0 0 1-1 1 1 1 0 0 1-1-1m-3.7 0a1 1 0 0 1 1-1 1 1 0 0 1 1 1 1 1 0 0 1-1 1 1 1 0 0 1-1-1m-3.7 0a1 1 0 0 1 1-1 1 1 0 0 1 1 1 1 1 0 0 1-1 1 1 1 0 0 1-1-1M1361.5 598a1 1 0 0 1 1-1 1 1 0 0 1 1 1 1 1 0 0 1-1 1 1 1 0 0 1-1-1m-3.7 0a1 1 0 0 1 1-1 1 1 0 0 1 1 1 1 1 0 0 1-1 1 1 1 0 0 1-1-1m-3.7 0a1 1 0 0 1 1-1 1 1 0 0 1 1 1 1 1 0 0 1-1 1 1 1 0 0 1-1-1m-3.7 0a1 1 0 0 1 1-1 1 1 0 0 1 1 1 1 1 0 0 1-1 1 1 1 0 0 1-1-1m-3.7 0a1 1 0 0 1 1-1 1 1 0 0 1 1 1 1 1 0 0 1-1 1 1 1 0 0 1-1-1" fill="#008a0e"/><path d="M1376.5 600l-13 7.5v-15z" stroke="#008a0e" stroke-width="2" fill="#fff"/><path d="M1344.03 602.98H1343V601h1.03zM1344.03 598.98H1343V597h1.03z" stroke="#008a0e" stroke-width=".05" fill="#008a0e"/><path d="M1100 700a20 20 0 0 1 20-20h1.5a20 20 0 0 1 20 20v80a20 20 0 0 1-20 20h-1.5a20 20 0 0 1-20-20z" stroke="#000" stroke-width="3" fill="#fff"/><use xlink:href="#e" transform="matrix(-1.8369701987210297e-16,-1,1,-1.8369701987210297e-16,1105,795) translate(16.335246913580253 21.555555555555557)"/><path d="M1170.54 664.7a1 1 0 0 1 1-1 1 1 0 0 1 1 1 1 1 0 0 1-1 1 1 1 0 0 1-1-1m-2.2 3.42a1 1 0 0 1 1-1 1 1 0 0 1 1 1 1 1 0 0 1-1 1 1 1 0 0 1-1-1v-.02m-2.2 3.43a1 1 0 0 1 1-1 1 1 0 0 1 1 1 1 1 0 0 1-1 1 1 1 0 0 1-1-1v-.02m-2.18 3.44a1 1 0 0 1 1-1 1 1 0 0 1 1 1 1 1 0 0 1-1 1 1 1 0 0 1-1-1v-.02m-2.2 3.43a1 1 0 0 1 1-1 1 1 0 0 1 1 1 1 1 0 0 1-1 1 1 1 0 0 1-1-1v-.02m-2.2 3.43a1 1 0 0 1 1-1 1 1 0 0 1 1 1 1 1 0 0 1-1 1 1 1 0 0 1-1-1v-.02m-2.18 3.43a1 1 0 0 1 1-1 1 1 0 0 1 1 1 1 1 0 0 1-1 1 1 1 0 0 1-1-1v-.02m-2.2 3.44v-.02a1 1 0 0 1 1-1 1 1 0 0 1 1 1 1 1 0 0 1-1 1 1 1 0 0 1-1-1M1153 692a1 1 0 0 1 1-1 1 1 0 0 1 1 1 1 1 0 0 1-1 1 1 1 0 0 1-1-1v-.02m-2.18 3.43a1 1 0 0 1 1-1 1 1 0 0 1 1 1 1 1 0 0 1-1 1 1 1 0 0 1-1-1m-2.2 3.42a1 1 0 0 1 1-1 1 1 0 0 1 1 1 1 1 0 0 1-1 1 1 1 0 0 1-1-1v-.02m-2.18 3.43a1 1 0 0 1 1-1 1 1 0 0 1 1 1 1 1 0 0 1-1 1 1 1 0 0 1-1-1v-.02M1167.17 662.55a1 1 0 0 1 1-1 1 1 0 0 1 1 1 1 1 0 0 1-1 1 1 1 0 0 1-1-1v-.02m-2.2 3.43a1 1 0 0 1 1-1 1 1 0 0 1 1 1 1 1 0 0 1-1 1 1 1 0 0 1-1-1v-.02m-2.18 3.43a1 1 0 0 1 1-1 1 1 0 0 1 1 1 1 1 0 0 1-1 1 1 1 0 0 1-1-1v-.02m-2.2 3.43a1 1 0 0 1 1-1 1 1 0 0 1 1 1 1 1 0 0 1-1 1 1 1 0 0 1-1-1v-.02m-2.2 3.43v-.02a1 1 0 0 1 1-1 1 1 0 0 1 1 1 1 1 0 0 1-1 1 1 1 0 0 1-1-1m-2.2 3.42a1 1 0 0 1 1-1 1 1 0 0 1 1 1 1 1 0 0 1-1 1 1 1 0 0 1-1-1v-.02m-2.18 3.43a1 1 0 0 1 1-1 1 1 0 0 1 1 1 1 1 0 0 1-1 1 1 1 0 0 1-1-1m-2.2 3.42a1 1 0 0 1 1-1 1 1 0 0 1 1 1 1 1 0 0 1-1 1 1 1 0 0 1-1-1v-.02m-2.2 3.43a1 1 0 0 1 1-1 1 1 0 0 1 1 1 1 1 0 0 1-1 1 1 1 0 0 1-1-1v-.02m-2.18 3.44a1 1 0 0 1 1-1 1 1 0 0 1 1 1 1 1 0 0 1-1 1 1 1 0 0 1-1-1v-.02m-2.2 3.43a1 1 0 0 1 1-1 1 1 0 0 1 1 1 1 1 0 0 1-1 1 1 1 0 0 1-1-1m-2.2 3.42v-.02a1 1 0 0 1 1-1 1 1 0 0 1 1 1 1 1 0 0 1-1 1 1 1 0 0 1-1-1" fill="#008a0e"/><path d="M1177.42 651.85l-.72 14.98-12.62-8.1z" stroke="#008a0e" stroke-width="2" fill="#fff"/><path d="M1146.06 706.13l-2.18 3.4-.88-.57v-1.68l1.42-2.2z" stroke="#008a0e" stroke-width=".05" fill="#008a0e"/><path stroke="#008a0e" stroke-width=".05" fill="#008a0e"/><path d="M1480 700a20 20 0 0 1 20-20h1.5a20 20 0 0 1 20 20v80a20 20 0 0 1-20 20h-1.5a20 20 0 0 1-20-20z" stroke="#000" stroke-width="3" fill="#fff"/><g><use xlink:href="#f" transform="matrix(-1.8369701987210297e-16,-1,1,-1.8369701987210297e-16,1485,794.9999999999998) translate(31.273518518518525 21.555555555555557)"/></g><path d="M1467.12 693.36a1 1 0 0 1 1-1 1 1 0 0 1 1 1 1 1 0 0 1-1 1 1 1 0 0 1-1-1v-.02m-2.13-3.28a1 1 0 0 1 1-1 1 1 0 0 1 1 1 1 1 0 0 1-1 1 1 1 0 0 1-1-1v-.02m-2.15-3.27a1 1 0 0 1 1-1 1 1 0 0 1 1 1 1 1 0 0 1-1 1 1 1 0 0 1-1-1v-.02m-2.13-3.28a1 1 0 0 1 1-1 1 1 0 0 1 1 1 1 1 0 0 1-1 1 1 1 0 0 1-1-1v-.02m-2.14-3.27a1 1 0 0 1 1-1 1 1 0 0 1 1 1 1 1 0 0 1-1 1 1 1 0 0 1-1-1v-.02m-2.13-3.27v-.02a1 1 0 0 1 1-1 1 1 0 0 1 1 1 1 1 0 0 1-1 1 1 1 0 0 1-1-1m-2.14-3.3a1 1 0 0 1 1-1 1 1 0 0 1 1 1 1 1 0 0 1-1 1 1 1 0 0 1-1-1m-2.12-3.28a1 1 0 0 1 1-1 1 1 0 0 1 1 1 1 1 0 0 1-1 1 1 1 0 0 1-1-1v-.02m-2.14-3.28a1 1 0 0 1 1-1 1 1 0 0 1 1 1 1 1 0 0 1-1 1 1 1 0 0 1-1-1v-.02m-2.13-3.27a1 1 0 0 1 1-1 1 1 0 0 1 1 1 1 1 0 0 1-1 1 1 1 0 0 1-1-1m-2.13-3.3a1 1 0 0 1 1-1 1 1 0 0 1 1 1 1 1 0 0 1-1 1 1 1 0 0 1-1-1m-2.13-3.28a1 1 0 0 1 1-1 1 1 0 0 1 1 1 1 1 0 0 1-1 1 1 1 0 0 1-1-1v-.02m-2.14-3.27a1 1 0 0 1 1-1 1 1 0 0 1 1 1 1 1 0 0 1-1 1 1 1 0 0 1-1-1v-.02M1470.48 691.18a1 1 0 0 1 1-1 1 1 0 0 1 1 1 1 1 0 0 1-1 1 1 1 0 0 1-1-1v-.02m-2.13-3.27v-.02a1 1 0 0 1 1-1 1 1 0 0 1 1 1 1 1 0 0 1-1 1 1 1 0 0 1-1-1m-2.14-3.3a1 1 0 0 1 1-1 1 1 0 0 1 1 1 1 1 0 0 1-1 1 1 1 0 0 1-1-1m-2.13-3.28a1 1 0 0 1 1-1 1 1 0 0 1 1 1 1 1 0 0 1-1 1 1 1 0 0 1-1-1v-.02m-2.13-3.28a1 1 0 0 1 1-1 1 1 0 0 1 1 1 1 1 0 0 1-1 1 1 1 0 0 1-1-1v-.02m-2.14-3.27a1 1 0 0 1 1-1 1 1 0 0 1 1 1 1 1 0 0 1-1 1 1 1 0 0 1-1-1m-2.13-3.3a1 1 0 0 1 1-1 1 1 0 0 1 1 1 1 1 0 0 1-1 1 1 1 0 0 1-1-1m-2.14-3.28a1 1 0 0 1 1-1 1 1 0 0 1 1 1 1 1 0 0 1-1 1 1 1 0 0 1-1-1v-.02m-2.13-3.27a1 1 0 0 1 1-1 1 1 0 0 1 1 1 1 1 0 0 1-1 1 1 1 0 0 1-1-1v-.02m-2.14-3.27a1 1 0 0 1 1-1 1 1 0 0 1 1 1 1 1 0 0 1-1 1 1 1 0 0 1-1-1v-.02m-2.13-3.26a1 1 0 0 1 1-1 1 1 0 0 1 1 1 1 1 0 0 1-1 1 1 1 0 0 1-1-1v-.02m-2.14-3.28a1 1 0 0 1 1-1 1 1 0 0 1 1 1 1 1 0 0 1-1 1 1 1 0 0 1-1-1v-.02m-2.14-3.27a1 1 0 0 1 1-1 1 1 0 0 1 1 1 1 1 0 0 1-1 1 1 1 0 0 1-1-1v-.02" fill="#008a0e"/><path d="M1477.4 704l-13.35-6.82 12.6-8.16z" stroke="#008a0e" stroke-width="2" fill="#fff"/><path stroke="#008a0e" stroke-width=".05" fill="#008a0e"/><path d="M1444.55 647.84l-1.63 1.06-1.42-2.2v-1.68l.87-.56z" stroke="#008a0e" stroke-width=".05" fill="#008a0e"/><path d="M1100 806a6 6 0 0 1 6-6h429.5a6 6 0 0 1 6 6v48a6 6 0 0 1-6 6H1106a6 6 0 0 1-6-6z" stroke="#000" stroke-opacity="0" stroke-width="3" fill="#fff" fill-opacity="0"/><g><use xlink:href="#B" transform="matrix(1,0,0,1,1105,805) translate(156.4567901234568 31.13888888888888)"/></g><defs><path d="M63-220v92h138v28H63V0H30v-248h175v28H63" id="C"/><path d="M24-231v-30h32v30H24zM24 0v-190h32V0H24" id="D"/><path d="M24 0v-261h32V0H24" id="E"/><path d="M59-47c-2 24 18 29 38 22v24C64 9 27 4 27-40v-127H5v-23h24l9-43h21v43h35v23H59v120" id="F"/><path d="M100-194c63 0 86 42 84 106H49c0 40 14 67 53 68 26 1 43-12 49-29l28 8c-11 28-37 45-77 45C44 4 14-33 15-96c1-61 26-98 85-98zm52 81c6-60-76-77-97-28-3 7-6 17-6 28h103" id="G"/><path d="M114-163C36-179 61-72 57 0H25l-1-190h30c1 12-1 29 2 39 6-27 23-49 58-41v29" id="H"/><g id="a"><use transform="matrix(0.06790123456790123,0,0,0.06790123456790123,0,0)" xlink:href="#C"/><use transform="matrix(0.06790123456790123,0,0,0.06790123456790123,14.87037037037037,0)" xlink:href="#D"/><use transform="matrix(0.06790123456790123,0,0,0.06790123456790123,20.234567901234566,0)" xlink:href="#E"/><use transform="matrix(0.06790123456790123,0,0,0.06790123456790123,25.598765432098762,0)" xlink:href="#F"/><use transform="matrix(0.06790123456790123,0,0,0.06790123456790123,32.388888888888886,0)" xlink:href="#G"/><use transform="matrix(0.06790123456790123,0,0,0.06790123456790123,45.96913580246913,0)" xlink:href="#H"/></g><path d="M27 0v-27h64v-190l-56 39v-29l58-41h29v221h61V0H27" id="I"/><use transform="matrix(0.06790123456790123,0,0,0.06790123456790123,0,0)" xlink:href="#I" id="b"/><path d="M101-251c82-7 93 87 43 132L82-64C71-53 59-42 53-27h129V0H18c2-99 128-94 128-182 0-28-16-43-45-43s-46 15-49 41l-32-3c6-41 34-60 81-64" id="J"/><use transform="matrix(0.06790123456790123,0,0,0.06790123456790123,0,0)" xlink:href="#J" id="c"/><path d="M126-127c33 6 58 20 58 59 0 88-139 92-164 29-3-8-5-16-6-25l32-3c6 27 21 44 54 44 32 0 52-15 52-46 0-38-36-46-79-43v-28c39 1 72-4 72-42 0-27-17-43-46-43-28 0-47 15-49 41l-32-3c6-42 35-63 81-64 48-1 79 21 79 65 0 36-21 52-52 59" id="K"/><use transform="matrix(0.06790123456790123,0,0,0.06790123456790123,0,0)" xlink:href="#K" id="d"/><path d="M185-189c-5-48-123-54-124 2 14 75 158 14 163 119 3 78-121 87-175 55-17-10-28-26-33-46l33-7c5 56 141 63 141-1 0-78-155-14-162-118-5-82 145-84 179-34 5 7 8 16 11 25" id="L"/><path d="M100-194c62-1 85 37 85 99 1 63-27 99-86 99S16-35 15-95c0-66 28-99 85-99zM99-20c44 1 53-31 53-75 0-43-8-75-51-75s-53 32-53 75 10 74 51 75" id="M"/><path d="M84 4C-5 8 30-112 23-190h32v120c0 31 7 50 39 49 72-2 45-101 50-169h31l1 190h-30c-1-10 1-25-2-33-11 22-28 36-60 37" id="N"/><path d="M96-169c-40 0-48 33-48 73s9 75 48 75c24 0 41-14 43-38l32 2c-6 37-31 61-74 61-59 0-76-41-82-99-10-93 101-131 147-64 4 7 5 14 7 22l-32 3c-4-21-16-35-41-35" id="O"/><g id="e"><use transform="matrix(0.06790123456790123,0,0,0.06790123456790123,0,0)" xlink:href="#L"/><use transform="matrix(0.06790123456790123,0,0,0.06790123456790123,16.296296296296294,0)" xlink:href="#M"/><use transform="matrix(0.06790123456790123,0,0,0.06790123456790123,29.87654320987654,0)" xlink:href="#N"/><use transform="matrix(0.06790123456790123,0,0,0.06790123456790123,43.456790123456784,0)" xlink:href="#H"/><use transform="matrix(0.06790123456790123,0,0,0.06790123456790123,51.53703703703703,0)" xlink:href="#O"/><use transform="matrix(0.06790123456790123,0,0,0.06790123456790123,63.75925925925925,0)" xlink:href="#G"/></g><path d="M117-194c89-4 53 116 60 194h-32v-121c0-31-8-49-39-48C34-167 62-67 57 0H25l-1-190h30c1 10-1 24 2 32 11-22 29-35 61-36" id="P"/><path d="M143 0L79-87 56-68V0H24v-261h32v163l83-92h37l-77 82L181 0h-38" id="Q"/><g id="f"><use transform="matrix(0.06790123456790123,0,0,0.06790123456790123,0,0)" xlink:href="#L"/><use transform="matrix(0.06790123456790123,0,0,0.06790123456790123,16.296296296296294,0)" xlink:href="#D"/><use transform="matrix(0.06790123456790123,0,0,0.06790123456790123,21.66049382716049,0)" xlink:href="#P"/><use transform="matrix(0.06790123456790123,0,0,0.06790123456790123,35.24074074074073,0)" xlink:href="#Q"/></g><path d="M30-248c118-7 216 8 213 122C240-48 200 0 122 0H30v-248zM63-27c89 8 146-16 146-99s-60-101-146-95v194" id="R"/><path d="M141-36C126-15 110 5 73 4 37 3 15-17 15-53c-1-64 63-63 125-63 3-35-9-54-41-54-24 1-41 7-42 31l-33-3c5-37 33-52 76-52 45 0 72 20 72 64v82c-1 20 7 32 28 27v20c-31 9-61-2-59-35zM48-53c0 20 12 33 32 33 41-3 63-29 60-74-43 2-92-5-92 41" id="S"/><path d="M115-194c53 0 69 39 70 98 0 66-23 100-70 100C84 3 66-7 56-30L54 0H23l1-261h32v101c10-23 28-34 59-34zm-8 174c40 0 45-34 45-75 0-40-5-75-45-74-42 0-51 32-51 76 0 43 10 73 51 73" id="T"/><path d="M135-143c-3-34-86-38-87 0 15 53 115 12 119 90S17 21 10-45l28-5c4 36 97 45 98 0-10-56-113-15-118-90-4-57 82-63 122-42 12 7 21 19 24 35" id="U"/><g id="g"><use transform="matrix(0.06790123456790123,0,0,0.06790123456790123,0,0)" xlink:href="#R"/><use transform="matrix(0.06790123456790123,0,0,0.06790123456790123,17.586419753086417,0)" xlink:href="#S"/><use transform="matrix(0.06790123456790123,0,0,0.06790123456790123,31.166666666666664,0)" xlink:href="#F"/><use transform="matrix(0.06790123456790123,0,0,0.06790123456790123,37.95679012345679,0)" xlink:href="#S"/><use transform="matrix(0.06790123456790123,0,0,0.06790123456790123,51.53703703703703,0)" xlink:href="#T"/><use transform="matrix(0.06790123456790123,0,0,0.06790123456790123,65.11728395061728,0)" xlink:href="#S"/><use transform="matrix(0.06790123456790123,0,0,0.06790123456790123,78.69753086419752,0)" xlink:href="#U"/><use transform="matrix(0.06790123456790123,0,0,0.06790123456790123,90.91975308641975,0)" xlink:href="#G"/></g><linearGradient gradientUnits="userSpaceOnUse" id="h" x1="320.24" y1="700" x2="320.24" y2="640.67"><stop offset="18.48%" stop-color="#fff"/><stop offset="24.28%" stop-color="#cfe4ff"/></linearGradient><path d="M210-169c-67 3-38 105-44 169h-31v-121c0-29-5-50-35-48C34-165 62-65 56 0H25l-1-190h30c1 10-1 24 2 32 10-44 99-50 107 0 11-21 27-35 58-36 85-2 47 119 55 194h-31v-121c0-29-5-49-35-48" id="V"/><g id="i"><use transform="matrix(0.06790123456790123,0,0,0.06790123456790123,0,0)" xlink:href="#R"/><use transform="matrix(0.06790123456790123,0,0,0.06790123456790123,17.586419753086417,0)" xlink:href="#M"/><use transform="matrix(0.06790123456790123,0,0,0.06790123456790123,31.166666666666664,0)" xlink:href="#V"/><use transform="matrix(0.06790123456790123,0,0,0.06790123456790123,51.46913580246913,0)" xlink:href="#S"/><use transform="matrix(0.06790123456790123,0,0,0.06790123456790123,65.04938271604938,0)" xlink:href="#D"/><use transform="matrix(0.06790123456790123,0,0,0.06790123456790123,70.41358024691358,0)" xlink:href="#P"/></g><path d="M205 0l-28-72H64L36 0H1l101-248h38L239 0h-34zm-38-99l-47-123c-12 45-31 82-46 123h93" id="W"/><path d="M115-194c55 1 70 41 70 98S169 2 115 4C84 4 66-9 55-30l1 105H24l-1-265h31l2 30c10-21 28-34 59-34zm-8 174c40 0 45-34 45-75s-6-73-45-74c-42 0-51 32-51 76 0 43 10 73 51 73" id="X"/><g id="j"><use transform="matrix(0.06790123456790123,0,0,0.06790123456790123,0,0)" xlink:href="#W"/><use transform="matrix(0.06790123456790123,0,0,0.06790123456790123,16.296296296296294,0)" xlink:href="#X"/><use transform="matrix(0.06790123456790123,0,0,0.06790123456790123,29.87654320987654,0)" xlink:href="#X"/><use transform="matrix(0.06790123456790123,0,0,0.06790123456790123,43.456790123456784,0)" xlink:href="#E"/><use transform="matrix(0.06790123456790123,0,0,0.06790123456790123,48.82098765432098,0)" xlink:href="#D"/><use transform="matrix(0.06790123456790123,0,0,0.06790123456790123,54.185185185185176,0)" xlink:href="#O"/><use transform="matrix(0.06790123456790123,0,0,0.06790123456790123,66.40740740740739,0)" xlink:href="#S"/><use transform="matrix(0.06790123456790123,0,0,0.06790123456790123,79.98765432098764,0)" xlink:href="#F"/><use transform="matrix(0.06790123456790123,0,0,0.06790123456790123,86.77777777777777,0)" xlink:href="#D"/><use transform="matrix(0.06790123456790123,0,0,0.06790123456790123,92.14197530864197,0)" xlink:href="#M"/><use transform="matrix(0.06790123456790123,0,0,0.06790123456790123,105.72222222222223,0)" xlink:href="#P"/></g><path d="M6 0l48-248h52L66-40h133l-8 40H6" id="Y"/><path d="M166-52c-4 17 5 29 24 23l-3 27c-30 11-74 1-67-34C105-15 91 4 56 4 23 4 3-15 2-49c0-64 63-67 128-67 10-22 3-53-29-45-13 3-22 10-25 24l-46-5c5-64 156-77 153 0-1 33-11 60-17 90zM97-88c-44-9-64 57-19 57 31 0 42-28 47-57H97" id="Z"/><path d="M100 10C77 47 50 87-15 72l7-35c37 9 51-18 65-41L20-190h51L89-44l73-146h53" id="aa"/><path d="M114-194c63-2 87 48 72 110H63c-3 28 1 55 31 54 21-1 32-13 37-29l44 13C160-14 137 4 91 4 41 4 11-22 11-73c0-71 33-119 103-121zm30 77c14-47-50-61-67-22-3 6-6 13-8 22h75" id="ab"/><path d="M84-151c13-25 34-51 72-40l-8 41C67-170 71-64 56 0H6l36-190h47" id="ac"/><path d="M144-137c-1-29-70-35-71-2 16 41 103 10 103 80C176 9 79 16 32-9 18-17 9-31 4-48l44-6c3 32 80 36 82 1-15-42-103-11-103-82 0-77 157-79 161-8" id="ad"/><g id="k"><use transform="matrix(0.0864197530864197,0,0,0.0864197530864197,0,0)" xlink:href="#Y"/><use transform="matrix(0.0864197530864197,0,0,0.0864197530864197,18.925925925925917,0)" xlink:href="#Z"/><use transform="matrix(0.0864197530864197,0,0,0.0864197530864197,36.20987654320986,0)" xlink:href="#aa"/><use transform="matrix(0.0864197530864197,0,0,0.0864197530864197,53.4938271604938,0)" xlink:href="#ab"/><use transform="matrix(0.0864197530864197,0,0,0.0864197530864197,70.77777777777774,0)" xlink:href="#ac"/><use transform="matrix(0.0864197530864197,0,0,0.0864197530864197,82.8765432098765,0)" xlink:href="#ad"/></g><linearGradient gradientUnits="userSpaceOnUse" id="l" x1="300.24" y1="720" x2="300.24" y2="660"><stop offset="18.48%" stop-color="#fff"/><stop offset="24.28%" stop-color="#cfe4ff"/></linearGradient><linearGradient gradientUnits="userSpaceOnUse" id="m" x1="680" y1="660" x2="680" y2="500"><stop offset="19.2%" stop-color="#ced4db"/><stop offset="26.45%" stop-color="#fff"/><stop offset="34.06%" stop-color="#fff"/><stop offset="42.03%" stop-color="#cfe4ff"/><stop offset="68.84%" stop-color="#cfe4ff"/><stop offset="78.62%" stop-color="#c3f7c8"/></linearGradient><linearGradient gradientUnits="userSpaceOnUse" id="n" x1="780" y1="700" x2="780" y2="500"><stop offset="19.2%" stop-color="#ced4db"/><stop offset="26.45%" stop-color="#fff"/><stop offset="34.06%" stop-color="#fff"/><stop offset="42.03%" stop-color="#cfe4ff"/><stop offset="68.84%" stop-color="#cfe4ff"/><stop offset="78.62%" stop-color="#c3f7c8"/></linearGradient><path d="M108 0H70L1-190h34L89-25l56-165h34" id="ae"/><g id="o"><use transform="matrix(0.06790123456790124,0,0,0.06790123456790124,0,0)" xlink:href="#L"/><use transform="matrix(0.06790123456790124,0,0,0.06790123456790124,16.296296296296298,0)" xlink:href="#G"/><use transform="matrix(0.06790123456790124,0,0,0.06790123456790124,29.876543209876544,0)" xlink:href="#H"/><use transform="matrix(0.06790123456790124,0,0,0.06790123456790124,37.95679012345679,0)" xlink:href="#ae"/><use transform="matrix(0.06790123456790124,0,0,0.06790123456790124,50.17901234567901,0)" xlink:href="#D"/><use transform="matrix(0.06790123456790124,0,0,0.06790123456790124,55.54320987654321,0)" xlink:href="#O"/><use transform="matrix(0.06790123456790124,0,0,0.06790123456790124,67.76543209876543,0)" xlink:href="#G"/></g><path d="M160-131c35 5 61 23 61 61C221 17 115-2 30 0v-248c76 3 177-17 177 60 0 33-19 50-47 57zm-97-11c50-1 110 9 110-42 0-47-63-36-110-37v79zm0 115c55-2 124 14 124-45 0-56-70-42-124-44v89" id="af"/><use transform="matrix(0.06790123456790124,0,0,0.06790123456790124,0,0)" xlink:href="#af" id="p"/><linearGradient gradientUnits="userSpaceOnUse" id="q" x1="920" y1="680" x2="920" y2="500"><stop offset="19.2%" stop-color="#ced4db"/><stop offset="26.45%" stop-color="#fff"/><stop offset="34.06%" stop-color="#fff"/><stop offset="42.03%" stop-color="#cfe4ff"/><stop offset="68.84%" stop-color="#cfe4ff"/><stop offset="78.62%" stop-color="#c3f7c8"/></linearGradient><path d="M240 0l2-218c-23 76-54 145-80 218h-23L58-218 59 0H30v-248h44l77 211c21-75 51-140 76-211h43V0h-30" id="ag"/><path d="M85-194c31 0 48 13 60 33l-1-100h32l1 261h-30c-2-10 0-23-3-31C134-8 116 4 85 4 32 4 16-35 15-94c0-66 23-100 70-100zm9 24c-40 0-46 34-46 75 0 40 6 74 45 74 42 0 51-32 51-76 0-42-9-74-50-73" id="ah"/><path d="M206 0h-36l-40-164L89 0H53L-1-190h32L70-26l43-164h34l41 164 42-164h31" id="ai"/><g id="r"><use transform="matrix(0.06790123456790123,0,0,0.06790123456790123,0,0)" xlink:href="#ag"/><use transform="matrix(0.06790123456790123,0,0,0.06790123456790123,20.30246913580247,0)" xlink:href="#D"/><use transform="matrix(0.06790123456790123,0,0,0.06790123456790123,25.666666666666664,0)" xlink:href="#ah"/><use transform="matrix(0.06790123456790123,0,0,0.06790123456790123,39.24691358024691,0)" xlink:href="#ah"/><use transform="matrix(0.06790123456790123,0,0,0.06790123456790123,52.82716049382716,0)" xlink:href="#E"/><use transform="matrix(0.06790123456790123,0,0,0.06790123456790123,58.191358024691354,0)" xlink:href="#G"/><use transform="matrix(0.06790123456790123,0,0,0.06790123456790123,71.77160493827161,0)" xlink:href="#ai"/><use transform="matrix(0.06790123456790123,0,0,0.06790123456790123,89.35802469135801,0)" xlink:href="#S"/><use transform="matrix(0.06790123456790123,0,0,0.06790123456790123,102.93827160493825,0)" xlink:href="#H"/><use transform="matrix(0.06790123456790123,0,0,0.06790123456790123,111.01851851851852,0)" xlink:href="#G"/></g><linearGradient gradientUnits="userSpaceOnUse" id="s" x1="660" y1="680" x2="660" y2="520"><stop offset="19.2%" stop-color="#ced4db"/><stop offset="26.45%" stop-color="#fff"/><stop offset="34.06%" stop-color="#fff"/><stop offset="42.03%" stop-color="#cfe4ff"/><stop offset="68.84%" stop-color="#cfe4ff"/><stop offset="78.62%" stop-color="#c3f7c8"/></linearGradient><use transform="matrix(0.06790123456790124,0,0,0.06790123456790124,0,0)" xlink:href="#W" id="t"/><linearGradient gradientUnits="userSpaceOnUse" id="u" x1="640" y1="700" x2="640" y2="540"><stop offset="19.2%" stop-color="#ced4db"/><stop offset="26.45%" stop-color="#fff"/><stop offset="34.06%" stop-color="#fff"/><stop offset="42.03%" stop-color="#cfe4ff"/><stop offset="68.84%" stop-color="#cfe4ff"/><stop offset="78.62%" stop-color="#c3f7c8"/></linearGradient><linearGradient gradientUnits="userSpaceOnUse" id="v" x1="900" y1="700" x2="900" y2="520"><stop offset="19.2%" stop-color="#ced4db"/><stop offset="26.45%" stop-color="#fff"/><stop offset="34.06%" stop-color="#fff"/><stop offset="42.03%" stop-color="#cfe4ff"/><stop offset="68.84%" stop-color="#cfe4ff"/><stop offset="78.62%" stop-color="#c3f7c8"/></linearGradient><path d="M212-179c-10-28-35-45-73-45-59 0-87 40-87 99 0 60 29 101 89 101 43 0 62-24 78-52l27 14C228-24 195 4 139 4 59 4 22-46 18-125c-6-104 99-153 187-111 19 9 31 26 39 46" id="aj"/><use transform="matrix(0.06790123456790124,0,0,0.06790123456790124,0,0)" xlink:href="#aj" id="w"/><path d="M178-136c88 48 22 151-73 140C49-3 12-15 4-64l51-9c1 50 111 53 115 3-16-63-132-20-133-112 0-93 190-91 199-10l-50 12c-4-41-93-50-97-4 7 38 59 32 89 48" id="ak"/><path d="M109 0H50L19-190h51L86-37l77-153h54" id="al"/><path d="M50-224l7-37h49l-7 37H50zM6 0l37-190h49L55 0H6" id="am"/><path d="M67-101c-8 29-7 73 27 71 23-2 32-16 39-37l48 9C170-19 141 4 91 4 36 4 7-28 12-86c6-75 61-124 140-103 26 7 40 29 43 59l-50 4c-1-20-9-34-29-34-35 0-41 29-49 59" id="an"/><g id="x"><use transform="matrix(0.0864197530864197,0,0,0.0864197530864197,0,0)" xlink:href="#ak"/><use transform="matrix(0.0864197530864197,0,0,0.0864197530864197,20.74074074074073,0)" xlink:href="#ab"/><use transform="matrix(0.0864197530864197,0,0,0.0864197530864197,38.02469135802467,0)" xlink:href="#ac"/><use transform="matrix(0.0864197530864197,0,0,0.0864197530864197,50.12345679012343,0)" xlink:href="#al"/><use transform="matrix(0.0864197530864197,0,0,0.0864197530864197,67.40740740740736,0)" xlink:href="#am"/><use transform="matrix(0.0864197530864197,0,0,0.0864197530864197,76.04938271604934,0)" xlink:href="#an"/><use transform="matrix(0.0864197530864197,0,0,0.0864197530864197,93.33333333333329,0)" xlink:href="#ab"/><use transform="matrix(0.0864197530864197,0,0,0.0864197530864197,110.61728395061725,0)" xlink:href="#ad"/></g><path d="M212 0h-52l-8-156L82 0H30L17-190h46l2 145 66-145h53l8 145 60-145h47" id="ao"/><path d="M72-63c-8 23 5 39 32 30L98-1C54 14 12-6 23-64l18-93H15l7-33h28l24-45h31l-8 45h35l-6 33H90" id="ap"/><path d="M150-105c8-23 8-54-22-51-68 7-54 98-72 156H6l50-261h50L85-158c15-20 33-36 66-36 95 0 34 128 28 194h-49" id="aq"/><g id="y"><use transform="matrix(0.0864197530864197,0,0,0.0864197530864197,0,0)" xlink:href="#ao"/><use transform="matrix(0.0864197530864197,0,0,0.0864197530864197,24.197530864197518,0)" xlink:href="#am"/><use transform="matrix(0.0864197530864197,0,0,0.0864197530864197,32.83950617283949,0)" xlink:href="#ap"/><use transform="matrix(0.0864197530864197,0,0,0.0864197530864197,43.12345679012344,0)" xlink:href="#aq"/></g><use transform="matrix(0.0864197530864197,0,0,0.0864197530864197,0,0)" xlink:href="#Z" id="z"/><path d="M212 0l43-212L151 0h-37L90-212C82-137 65-70 52 0H6l48-248h70l20 187 93-187h69L258 0h-46" id="ar"/><path d="M132-28C118-9 101 4 69 4 30 4 10-23 10-62c0-70 24-129 92-132 31-1 47 14 56 35l19-102h49L179 0h-49zM62-69c0 22 7 39 29 39 45-2 54-45 57-90 2-27-10-40-33-40-44 0-53 48-53 91" id="as"/><path d="M6 0l51-261h49L55 0H6" id="at"/><g id="A"><use transform="matrix(0.0864197530864197,0,0,0.0864197530864197,0,0)" xlink:href="#ar"/><use transform="matrix(0.0864197530864197,0,0,0.0864197530864197,25.839506172839492,0)" xlink:href="#am"/><use transform="matrix(0.0864197530864197,0,0,0.0864197530864197,34.48148148148147,0)" xlink:href="#as"/><use transform="matrix(0.0864197530864197,0,0,0.0864197530864197,53.407407407407376,0)" xlink:href="#as"/><use transform="matrix(0.0864197530864197,0,0,0.0864197530864197,72.3333333333333,0)" xlink:href="#at"/><use transform="matrix(0.0864197530864197,0,0,0.0864197530864197,80.97530864197527,0)" xlink:href="#ab"/><use transform="matrix(0.0864197530864197,0,0,0.0864197530864197,98.25925925925921,0)" xlink:href="#ao"/><use transform="matrix(0.0864197530864197,0,0,0.0864197530864197,122.45679012345673,0)" xlink:href="#Z"/><use transform="matrix(0.0864197530864197,0,0,0.0864197530864197,139.74074074074068,0)" xlink:href="#ac"/><use transform="matrix(0.0864197530864197,0,0,0.0864197530864197,151.83950617283944,0)" xlink:href="#ab"/></g><path d="M241-173c-1 82-78 91-166 86L58 0H6l48-248c87 0 188-12 187 75zm-53 2c0-43-48-36-90-36l-15 80c50 0 105 7 105-44" id="au"/><path d="M156-122c2-23-7-37-28-37-47 0-58 44-58 89 0 24 12 40 36 40 43 0 47-49 50-92zM-8 75l50-265h48c0 10-3 24-3 30 22-50 127-45 121 29-6 73-21 135-92 135-29 0-46-14-55-35L41 75H-8" id="av"/><path d="M151-194c95 0 34 128 28 194h-49l25-134c0-29-45-25-59-9C67-111 69-48 56 0H6l36-190h47l-4 32c15-20 33-36 66-36" id="aw"/><g id="B"><use transform="matrix(0.0864197530864197,0,0,0.0864197530864197,0,0)" xlink:href="#au"/><use transform="matrix(0.0864197530864197,0,0,0.0864197530864197,20.74074074074073,0)" xlink:href="#am"/><use transform="matrix(0.0864197530864197,0,0,0.0864197530864197,29.3827160493827,0)" xlink:href="#av"/><use transform="matrix(0.0864197530864197,0,0,0.0864197530864197,48.30864197530862,0)" xlink:href="#ab"/><use transform="matrix(0.0864197530864197,0,0,0.0864197530864197,65.59259259259255,0)" xlink:href="#at"/><use transform="matrix(0.0864197530864197,0,0,0.0864197530864197,74.23456790123453,0)" xlink:href="#am"/><use transform="matrix(0.0864197530864197,0,0,0.0864197530864197,82.8765432098765,0)" xlink:href="#aw"/><use transform="matrix(0.0864197530864197,0,0,0.0864197530864197,101.80246913580244,0)" xlink:href="#ab"/></g></defs></g></svg>