<svg xmlns="http://www.w3.org/2000/svg" xmlns:xlink="http://www.w3.org/1999/xlink" xmlns:lucid="lucid" width="1243" height="346"><g transform="translate(-78.5 -537.8333333333333)" lucid:page-tab-id="0_0"><path d="M478.05 743.34l-.03-27.34M482.05 743.34l-.03-27.35M490.04 738.17l-9.98 17.33-10.02-17.3m10.02 17.3V747M470.02 721.17l9.98-17.34 10.02 17.3M480 703.84v8.5" stroke="#008a0e" stroke-width="2" fill="none"/><path d="M498.24 743.34V696M502.24 743.34V696M510.24 738.18l-10 17.32-10-17.32m10 17.32V747M490.24 701.15l10-17.32 10 17.32m-10-17.32v8.5" stroke="#82755b" stroke-width="2" fill="none"/><path d="M518.18 743.34l.05-67.35M522.18 743.34l.05-67.35M530.2 738.2l-10.02 17.3-10-17.33m10 17.33V747M510.23 681.15l10-17.32 10 17.33m-10-17.33v8.5" stroke="#1071e5" stroke-width="2" fill="none"/><path d="M420.24 638.33a20 20 0 0 1 20-20h160a20 20 0 0 1 20 20v2a20 20 0 0 1-20 20h-160a20 20 0 0 1-20-20z" stroke="#1071e5" stroke-width="3" fill="#ced4db"/><use xlink:href="#a" transform="matrix(1,0,0,1,425.24095430717796,623.3333333333334) translate(38.07907407407408 23.333333333333332)"/><use xlink:href="#b" transform="matrix(1,0,0,1,425.24095430717796,623.3333333333334) translate(101.7087037037037 23.333333333333332)"/><path d="M400.24 658.33a20 20 0 0 1 20-20h160a20 20 0 0 1 20 20v2a20 20 0 0 1-20 20h-160a20 20 0 0 1-20-20z" stroke="#82755b" stroke-width="3" fill="#ced4db"/><use xlink:href="#a" transform="matrix(1,0,0,1,405.24095430717796,643.3333333333334) translate(38.07907407407408 23.333333333333332)"/><use xlink:href="#b" transform="matrix(1,0,0,1,405.24095430717796,643.3333333333334) translate(101.7087037037037 23.333333333333332)"/><path d="M420.24 560a20 20 0 0 1 20-20h160a20 20 0 0 1 20 20v39.33a20 20 0 0 1-20 20h-160a20 20 0 0 1-20-20z" stroke="#1071e5" stroke-width="3" fill="url(#c)"/><use xlink:href="#d" transform="matrix(1,0,0,1,425.24095430717796,545) translate(29.925925925925924 41.020833333333336)"/><path d="M380 678.33a20 20 0 0 1 20-20h160a20 20 0 0 1 20 20v2a20 20 0 0 1-20 20H400a20 20 0 0 1-20-20z" stroke="#008a0e" stroke-width="3" fill="#ced4db"/><use xlink:href="#a" transform="matrix(1,0,0,1,385,663.3333333333335) translate(38.07907407407408 23.333333333333332)"/><use xlink:href="#b" transform="matrix(1,0,0,1,385,663.3333333333335) translate(101.7087037037037 23.333333333333332)"/><path d="M400 580a20 20 0 0 1 20-20h160a20 20 0 0 1 20 20v39.33a20 20 0 0 1-20 20H420a20 20 0 0 1-20-20z" stroke="#82755b" stroke-width="3" fill="url(#e)"/><use xlink:href="#d" transform="matrix(1,0,0,1,405,565) translate(29.925925925925924 41.020833333333336)"/><path d="M380.24 803.67a6 6 0 0 1 6-6h228a6 6 0 0 1 6 6v72.66a6 6 0 0 1-6 6h-228a6 6 0 0 1-6-6z" stroke="#000" stroke-opacity="0" stroke-width="3" fill="#fff" fill-opacity="0"/><use xlink:href="#f" transform="matrix(1,0,0,1,385.24095430717796,802.6666666666666) translate(17.518518518518547 27.23263888888888)"/><use xlink:href="#g" transform="matrix(1,0,0,1,385.24095430717796,802.6666666666666) translate(23.611111111111143 64.5659722222222)"/><path d="M380 600a20 20 0 0 1 20-20h160a20 20 0 0 1 20 20v39.33a20 20 0 0 1-20 20H400a20 20 0 0 1-20-20z" stroke="#008a0e" stroke-width="3" fill="url(#h)"/><use xlink:href="#d" transform="matrix(1,0,0,1,385,585) translate(29.925925925925924 41.020833333333336)"/><path d="M380.24 779a20 20 0 0 1 20-20h200a20 20 0 0 1 20 20v2a20 20 0 0 1-20 20h-200a20 20 0 0 1-20-20z" stroke="#000" stroke-width="3" fill="#ced4db"/><use xlink:href="#i" transform="matrix(1,0,0,1,385.24095430717796,764) translate(45.44944444444446 23.333333333333332)"/><path d="M635.9 637.33h19.84a8 8 0 0 1 8 8v8a8 8 0 0 1-8 8H615.9" stroke="#000" stroke-width="2" fill="none"/><path d="M635.9 641.33h19.84a4 4 0 0 1 4 4v8a4 4 0 0 1-4 4H615.9" stroke="#000" stroke-width="2" fill="none"/><path d="M641.06 649.33l-17.32-10 17.32-10m-17.32 10h8.5M621.06 669.33l-17.32-10 17.32-10m-17.32 10h8.5" stroke="#000" stroke-width="2" fill="none"/><path d="M635.9 637.1h19.84a8 8 0 0 1 8 8v28.23a8 8 0 0 1-8 8h-60.08" stroke="#000" stroke-width="2" fill="none"/><path d="M635.9 641.1h19.84a4 4 0 0 1 4 4v28.23a4 4 0 0 1-4 4h-60.08" stroke="#000" stroke-width="2" fill="none"/><path d="M641.06 649.1l-17.32-10 17.32-10m-17.32 10h8.5M600.82 689.33l-17.32-10 17.32-10m-17.32 10h8.5" stroke="#000" stroke-width="2" fill="none"/><path d="M615.9 657.1h19.84a8 8 0 0 1 8 8v8.23a8 8 0 0 1-8 8h-40.08" stroke="#000" stroke-width="2" fill="none"/><path d="M615.9 661.1h19.84a4 4 0 0 1 4 4v8.23a4 4 0 0 1-4 4h-40.08" stroke="#000" stroke-width="2" fill="none"/><path d="M621.06 669.1l-17.32-10 17.32-10m-17.32 10h8.5M600.82 689.33l-17.32-10 17.32-10m-17.32 10h8.5" stroke="#000" stroke-width="2" fill="none"/><path d="M820 660a20 20 0 0 1 20-20h160a20 20 0 0 1 20 20v80a20 20 0 0 1-20 20H840a20 20 0 0 1-20-20z" stroke="#1071e5" stroke-width="3" fill="url(#j)"/><path d="M800 680a20 20 0 0 1 20-20h160a20 20 0 0 1 20 20v80a20 20 0 0 1-20 20H820a20 20 0 0 1-20-20z" stroke="#82755b" stroke-width="3" fill="url(#k)"/><path d="M780 700a20 20 0 0 1 20-20h160a20 20 0 0 1 20 20v80a20 20 0 0 1-20 20H800a20 20 0 0 1-20-20z" stroke="#008a0e" stroke-width="3" fill="url(#l)"/><use xlink:href="#m" transform="matrix(1,0,0,1,785,685) translate(35.14814814814816 59.14583333333333)"/><use xlink:href="#n" transform="matrix(1,0,0,1,785,685) translate(112.03703703703704 59.14583333333333)"/><path d="M840 559.33a20 20 0 0 1 20-20h140a20 20 0 0 1 20 20v2a20 20 0 0 1-20 20H860a20 20 0 0 1-20-20z" stroke="#000" stroke-width="3" fill="#c3f7c8"/><use xlink:href="#o" transform="matrix(1,0,0,1,845,544.3333333333333) translate(11.042037037037057 23.33333333333333)"/><path d="M870.13 604.5l7.42 55.66" stroke="#008a0e" stroke-width="2" fill="none"/><path d="M871.1 604.4l-1.93.25-.15-1.15h1.96z" stroke="#008a0e" stroke-width=".05" fill="#008a0e"/><path d="M879.57 675.3l-6.48-13.54 9.18-1.22z" stroke="#008a0e" stroke-width="2" fill="#008a0e"/><path d="M870.48 604.38l20.66 37.88" stroke="#82755b" stroke-width="2" fill="none"/><path d="M871.35 603.93l-1.72.94-.74-1.37h2.2z" stroke="#82755b" stroke-width=".05" fill="#82755b"/><path d="M898.45 655.66l-10.9-10.3 8.14-4.44z" stroke="#82755b" stroke-width="2" fill="#82755b"/><path d="M870.82 604.07l34.02 23.82" stroke="#1071e5" stroke-width="2" fill="none"/><path d="M870.28 604.9l-1.98-1.4h2.95z" stroke="#1071e5" stroke-width=".05" fill="#1071e5"/><path d="M917.35 636.64L903 632.26l5.32-7.6z" stroke="#1071e5" stroke-width="2" fill="#1071e5"/><path d="M929.54 583.72l-40.97 78.38" stroke="#008a0e" stroke-width="2" fill="none"/><path d="M930.4 584.2l-1.74-.9.24-.47h2.2z" stroke="#008a0e" stroke-width=".05" fill="#008a0e"/><path d="M881.5 675.63l2.5-14.8 8.22 4.3z" stroke="#008a0e" stroke-width="2" fill="#008a0e"/><path d="M929.63 583.76l-22.8 57.54" stroke="#82755b" stroke-width="2" fill="none"/><path d="M930.53 584.15l-1.8-.72.22-.6h2.1z" stroke="#82755b" stroke-width=".05" fill="#82755b"/><path d="M901.2 655.5l.94-14.98 8.62 3.42z" stroke="#82755b" stroke-width="2" fill="#82755b"/><path d="M929.82 583.82l-6.55 36.47" stroke="#1071e5" stroke-width="2" fill="none"/><path d="M930.78 584l-1.92-.33.15-.84h2z" stroke="#1071e5" stroke-width=".05" fill="#1071e5"/><path d="M920.57 635.32l-2.04-14.87 9.13 1.64z" stroke="#1071e5" stroke-width="2" fill="#1071e5"/><path d="M780 580a20 20 0 0 1 20-20h140a20 20 0 0 1 20 20v2a20 20 0 0 1-20 20H800a20 20 0 0 1-20-20z" stroke="#000" stroke-width="3" fill="#c3f7c8"/><use xlink:href="#o" transform="matrix(1,0,0,1,785,564.9999999999998) translate(11.042037037037057 23.33333333333333)"/><path d="M780 803.67a6 6 0 0 1 6-6h228a6 6 0 0 1 6 6v72.66a6 6 0 0 1-6 6H786a6 6 0 0 1-6-6z" stroke="#000" stroke-opacity="0" stroke-width="3" fill="#fff" fill-opacity="0"/><use xlink:href="#p" transform="matrix(1,0,0,1,785,802.6666666666666) translate(27.024691358024725 27.23263888888888)"/><use xlink:href="#q" transform="matrix(1,0,0,1,785,802.6666666666666) translate(140.92592592592592 27.23263888888888)"/><use xlink:href="#r" transform="matrix(1,0,0,1,785,802.6666666666666) translate(12.333333333333371 64.5659722222222)"/><path d="M1120 566a6 6 0 0 1 6-6h188a6 6 0 0 1 6 6v208a6 6 0 0 1-6 6h-188a6 6 0 0 1-6-6z" stroke="#000" stroke-opacity="0" stroke-width="3" fill="#fff" fill-opacity="0"/><use xlink:href="#s" transform="matrix(1,0,0,1,1125,565) translate(62.09876543209877 29.673611111111104)"/><use xlink:href="#t" transform="matrix(1,0,0,1,1125,565) translate(14.873456790123498 64.34027777777776)"/><use xlink:href="#u" transform="matrix(1,0,0,1,1125,565) translate(16.438271604938294 99.00694444444441)"/><use xlink:href="#v" transform="matrix(1,0,0,1,1125,565) translate(144.83333333333331 99.00694444444441)"/><use xlink:href="#w" transform="matrix(1,0,0,1,1125,565) translate(27.632716049382736 133.6736111111111)"/><use xlink:href="#x" transform="matrix(1,0,0,1,1125,565) translate(75.78086419753086 133.6736111111111)"/><use xlink:href="#y" transform="matrix(1,0,0,1,1125,565) translate(3.5987654320988014 168.34027777777774)"/><use xlink:href="#z" transform="matrix(1,0,0,1,1125,565) translate(59.771604938271615 168.34027777777774)"/><use xlink:href="#A" transform="matrix(1,0,0,1,1125,565) translate(34.895061728395085 203.0069444444444)"/><use xlink:href="#B" transform="matrix(1,0,0,1,1125,565) translate(98.9320987654321 203.0069444444444)"/><path d="M1022.3 560.92l2.43 1.77m3.23 2.34l4.84 3.54m3.23 2.35l4.85 3.54m3.23 2.35l4.85 3.54m3.23 2.35l4.85 3.55m3.22 2.35l4.85 3.54m3.23 2.35l4.84 3.52m3.23 2.36l4.85 3.53m3.22 2.37l4.85 3.53m3.23 2.36l4.84 3.53m3.22 2.35l4.85 3.53m3.23 2.36l4.84 3.53m3.23 2.36l2.42 1.76" stroke="#3a414a" stroke-width="2" fill="none"/><path d="M1022.9 560.15l-1.15 1.58-.26-.2v-2.42zM1120 630.98v2.4l-1.4-1 1.15-1.6z" stroke="#3a414a" stroke-width=".05" fill="#3a414a"/><path d="M80 566a6 6 0 0 1 6-6h188a6 6 0 0 1 6 6v225.67a6 6 0 0 1-6 6H86a6 6 0 0 1-6-6z" stroke="#000" stroke-opacity="0" stroke-width="3" fill="#fff" fill-opacity="0"/><g><use xlink:href="#C" transform="matrix(1,0,0,1,85,565) translate(4.481481481481524 30.236111111111104)"/><use xlink:href="#D" transform="matrix(1,0,0,1,85,565) translate(62.179012345679034 30.236111111111104)"/><use xlink:href="#E" transform="matrix(1,0,0,1,85,565) translate(131.1111111111111 30.236111111111104)"/><use xlink:href="#F" transform="matrix(1,0,0,1,85,565) translate(34.05246913580249 64.90277777777776)"/><use xlink:href="#G" transform="matrix(1,0,0,1,85,565) translate(16.358024691358054 99.56944444444441)"/><use xlink:href="#H" transform="matrix(1,0,0,1,85,565) translate(117.46913580246913 99.56944444444441)"/><use xlink:href="#I" transform="matrix(1,0,0,1,85,565) translate(30.120370370370395 134.2361111111111)"/><use xlink:href="#J" transform="matrix(1,0,0,1,85,565) translate(89.34259259259258 134.2361111111111)"/><use xlink:href="#K" transform="matrix(1,0,0,1,85,565) translate(26.108024691358054 168.90277777777774)"/><use xlink:href="#L" transform="matrix(1,0,0,1,85,565) translate(41.27469135802471 203.5694444444444)"/></g><path d="M281 678.84h2.9m3.86.03l5.8.03m3.84.02l5.8.03m3.86.02l5.8.03m3.84.02l5.8.03m3.86.02l5.78.03m3.87.02l5.8.03m3.85.02l5.8.03m3.86.02l5.8.02m3.85.02l5.8.03m3.86 0l2.9.03" stroke="#3a414a" stroke-width="2" fill="none"/><path d="M281.03 677.86v1.95H280v-1.94zM378.5 678.36v1.95h-1.03v-1.95z" stroke="#3a414a" stroke-width=".05" fill="#3a414a"/><defs><path d="M30-248c118-7 216 8 213 122C240-48 200 0 122 0H30v-248zM63-27c89 8 146-16 146-99s-60-101-146-95v194" id="M"/><path d="M141-36C126-15 110 5 73 4 37 3 15-17 15-53c-1-64 63-63 125-63 3-35-9-54-41-54-24 1-41 7-42 31l-33-3c5-37 33-52 76-52 45 0 72 20 72 64v82c-1 20 7 32 28 27v20c-31 9-61-2-59-35zM48-53c0 20 12 33 32 33 41-3 63-29 60-74-43 2-92-5-92 41" id="N"/><path d="M59-47c-2 24 18 29 38 22v24C64 9 27 4 27-40v-127H5v-23h24l9-43h21v43h35v23H59v120" id="O"/><g id="a"><use transform="matrix(0.07407407407407407,0,0,0.07407407407407407,0,0)" xlink:href="#M"/><use transform="matrix(0.07407407407407407,0,0,0.07407407407407407,19.185185185185183,0)" xlink:href="#N"/><use transform="matrix(0.07407407407407407,0,0,0.07407407407407407,34,0)" xlink:href="#O"/><use transform="matrix(0.07407407407407407,0,0,0.07407407407407407,41.407407407407405,0)" xlink:href="#N"/></g><path d="M143 4C61 4 22-44 18-125c-5-107 100-154 193-111 17 8 29 25 37 43l-32 9c-13-25-37-40-76-40-61 0-88 39-88 99 0 61 29 100 91 101 35 0 62-11 79-27v-45h-74v-28h105v86C228-13 192 4 143 4" id="P"/><path d="M114-163C36-179 61-72 57 0H25l-1-190h30c1 12-1 29 2 39 6-27 23-49 58-41v29" id="Q"/><path d="M24-231v-30h32v30H24zM24 0v-190h32V0H24" id="R"/><path d="M85-194c31 0 48 13 60 33l-1-100h32l1 261h-30c-2-10 0-23-3-31C134-8 116 4 85 4 32 4 16-35 15-94c0-66 23-100 70-100zm9 24c-40 0-46 34-46 75 0 40 6 74 45 74 42 0 51-32 51-76 0-42-9-74-50-73" id="S"/><g id="b"><use transform="matrix(0.07407407407407407,0,0,0.07407407407407407,0,0)" xlink:href="#P"/><use transform="matrix(0.07407407407407407,0,0,0.07407407407407407,20.74074074074074,0)" xlink:href="#Q"/><use transform="matrix(0.07407407407407407,0,0,0.07407407407407407,29.555555555555557,0)" xlink:href="#R"/><use transform="matrix(0.07407407407407407,0,0,0.07407407407407407,35.407407407407405,0)" xlink:href="#S"/></g><linearGradient gradientUnits="userSpaceOnUse" id="c" x1="420.24" y1="619.33" x2="420.24" y2="540"><stop offset="19.93%" stop-color="#fff"/><stop offset="27.17%" stop-color="#cfe4ff"/><stop offset="68.12%" stop-color="#cfe4ff"/><stop offset="75%" stop-color="#c3f7c8"/></linearGradient><path d="M205 0l-28-72H64L36 0H1l101-248h38L239 0h-34zm-38-99l-47-123c-12 45-31 82-46 123h93" id="T"/><path d="M115-194c55 1 70 41 70 98S169 2 115 4C84 4 66-9 55-30l1 105H24l-1-265h31l2 30c10-21 28-34 59-34zm-8 174c40 0 45-34 45-75s-6-73-45-74c-42 0-51 32-51 76 0 43 10 73 51 73" id="U"/><path d="M24 0v-261h32V0H24" id="V"/><path d="M96-169c-40 0-48 33-48 73s9 75 48 75c24 0 41-14 43-38l32 2c-6 37-31 61-74 61-59 0-76-41-82-99-10-93 101-131 147-64 4 7 5 14 7 22l-32 3c-4-21-16-35-41-35" id="W"/><path d="M100-194c62-1 85 37 85 99 1 63-27 99-86 99S16-35 15-95c0-66 28-99 85-99zM99-20c44 1 53-31 53-75 0-43-8-75-51-75s-53 32-53 75 10 74 51 75" id="X"/><path d="M117-194c89-4 53 116 60 194h-32v-121c0-31-8-49-39-48C34-167 62-67 57 0H25l-1-190h30c1 10-1 24 2 32 11-22 29-35 61-36" id="Y"/><g id="d"><use transform="matrix(0.07407407407407408,0,0,0.07407407407407408,0,0)" xlink:href="#T"/><use transform="matrix(0.07407407407407408,0,0,0.07407407407407408,17.77777777777778,0)" xlink:href="#U"/><use transform="matrix(0.07407407407407408,0,0,0.07407407407407408,32.592592592592595,0)" xlink:href="#U"/><use transform="matrix(0.07407407407407408,0,0,0.07407407407407408,47.40740740740741,0)" xlink:href="#V"/><use transform="matrix(0.07407407407407408,0,0,0.07407407407407408,53.25925925925927,0)" xlink:href="#R"/><use transform="matrix(0.07407407407407408,0,0,0.07407407407407408,59.11111111111112,0)" xlink:href="#W"/><use transform="matrix(0.07407407407407408,0,0,0.07407407407407408,72.44444444444446,0)" xlink:href="#N"/><use transform="matrix(0.07407407407407408,0,0,0.07407407407407408,87.25925925925927,0)" xlink:href="#O"/><use transform="matrix(0.07407407407407408,0,0,0.07407407407407408,94.66666666666669,0)" xlink:href="#R"/><use transform="matrix(0.07407407407407408,0,0,0.07407407407407408,100.51851851851852,0)" xlink:href="#X"/><use transform="matrix(0.07407407407407408,0,0,0.07407407407407408,115.33333333333334,0)" xlink:href="#Y"/></g><linearGradient gradientUnits="userSpaceOnUse" id="e" x1="400" y1="639.33" x2="400" y2="560"><stop offset="19.93%" stop-color="#fff"/><stop offset="27.17%" stop-color="#cfe4ff"/><stop offset="68.12%" stop-color="#cfe4ff"/><stop offset="75%" stop-color="#c3f7c8"/></linearGradient><path d="M178-136c88 48 22 151-73 140C49-3 12-15 4-64l51-9c1 50 111 53 115 3-16-63-132-20-133-112 0-93 190-91 199-10l-50 12c-4-41-93-50-97-4 7 38 59 32 89 48" id="Z"/><path d="M156-122c2-23-7-37-28-37-47 0-58 44-58 89 0 24 12 40 36 40 43 0 47-49 50-92zM-8 75l50-265h48c0 10-3 24-3 30 22-50 127-45 121 29-6 73-21 135-92 135-29 0-46-14-55-35L41 75H-8" id="aa"/><path d="M166-52c-4 17 5 29 24 23l-3 27c-30 11-74 1-67-34C105-15 91 4 56 4 23 4 3-15 2-49c0-64 63-67 128-67 10-22 3-53-29-45-13 3-22 10-25 24l-46-5c5-64 156-77 153 0-1 33-11 60-17 90zM97-88c-44-9-64 57-19 57 31 0 42-28 47-57H97" id="ab"/><path d="M67-101c-8 29-7 73 27 71 23-2 32-16 39-37l48 9C170-19 141 4 91 4 36 4 7-28 12-86c6-75 61-124 140-103 26 7 40 29 43 59l-50 4c-1-20-9-34-29-34-35 0-41 29-49 59" id="ac"/><path d="M114-194c63-2 87 48 72 110H63c-3 28 1 55 31 54 21-1 32-13 37-29l44 13C160-14 137 4 91 4 41 4 11-22 11-73c0-71 33-119 103-121zm30 77c14-47-50-61-67-22-3 6-6 13-8 22h75" id="ad"/><path d="M10-72l8-43h92l-9 43H10" id="ae"/><path d="M240-76C239 26 104-5 6 0l48-248c79 4 193-21 193 58 0 38-25 53-57 60 29 5 49 21 50 54zm-45-106c0-40-58-24-96-27l-12 61c45-3 108 12 108-34zm-7 105c0-44-65-31-109-33L66-38c51-3 122 14 122-39" id="af"/><path d="M144-137c-1-29-70-35-71-2 16 41 103 10 103 80C176 9 79 16 32-9 18-17 9-31 4-48l44-6c3 32 80 36 82 1-15-42-103-11-103-82 0-77 157-79 161-8" id="ag"/><path d="M132-28C118-9 101 4 69 4 30 4 10-23 10-62c0-70 24-129 92-132 31-1 47 14 56 35l19-102h49L179 0h-49zM62-69c0 22 7 39 29 39 45-2 54-45 57-90 2-27-10-40-33-40-44 0-53 48-53 91" id="ah"/><g id="f"><use transform="matrix(0.0864197530864197,0,0,0.0864197530864197,0,0)" xlink:href="#Z"/><use transform="matrix(0.0864197530864197,0,0,0.0864197530864197,20.74074074074073,0)" xlink:href="#aa"/><use transform="matrix(0.0864197530864197,0,0,0.0864197530864197,39.66666666666664,0)" xlink:href="#ab"/><use transform="matrix(0.0864197530864197,0,0,0.0864197530864197,56.950617283950585,0)" xlink:href="#ac"/><use transform="matrix(0.0864197530864197,0,0,0.0864197530864197,74.23456790123453,0)" xlink:href="#ad"/><use transform="matrix(0.0864197530864197,0,0,0.0864197530864197,91.51851851851848,0)" xlink:href="#ae"/><use transform="matrix(0.0864197530864197,0,0,0.0864197530864197,101.80246913580244,0)" xlink:href="#af"/><use transform="matrix(0.0864197530864197,0,0,0.0864197530864197,124.18518518518513,0)" xlink:href="#ab"/><use transform="matrix(0.0864197530864197,0,0,0.0864197530864197,141.46913580246908,0)" xlink:href="#ag"/><use transform="matrix(0.0864197530864197,0,0,0.0864197530864197,158.75308641975303,0)" xlink:href="#ad"/><use transform="matrix(0.0864197530864197,0,0,0.0864197530864197,176.03703703703698,0)" xlink:href="#ah"/></g><path d="M183 0l-10-63H79L44 0H-7l138-248h61L234 0h-51zm-14-102l-15-108c-16 38-36 73-55 108h70" id="ai"/><path d="M84-151c13-25 34-51 72-40l-8 41C67-170 71-64 56 0H6l36-190h47" id="aj"/><path d="M150-105c8-23 8-54-22-51-68 7-54 98-72 156H6l50-261h50L85-158c15-20 33-36 66-36 95 0 34 128 28 194h-49" id="ak"/><path d="M50-224l7-37h49l-7 37H50zM6 0l37-190h49L55 0H6" id="al"/><path d="M72-63c-8 23 5 39 32 30L98-1C54 14 12-6 23-64l18-93H15l7-33h28l24-45h31l-8 45h35l-6 33H90" id="am"/><path d="M69 3c-96 0-34-126-28-193h49L65-57c6 42 62 18 71-6 14-38 17-86 28-127h50L178 0h-47c0-11 4-26 3-33-14 20-30 37-65 36" id="an"/><g id="g"><use transform="matrix(0.0864197530864197,0,0,0.0864197530864197,0,0)" xlink:href="#ai"/><use transform="matrix(0.0864197530864197,0,0,0.0864197530864197,22.382716049382704,0)" xlink:href="#aj"/><use transform="matrix(0.0864197530864197,0,0,0.0864197530864197,34.48148148148147,0)" xlink:href="#ac"/><use transform="matrix(0.0864197530864197,0,0,0.0864197530864197,51.7654320987654,0)" xlink:href="#ak"/><use transform="matrix(0.0864197530864197,0,0,0.0864197530864197,70.69135802469133,0)" xlink:href="#al"/><use transform="matrix(0.0864197530864197,0,0,0.0864197530864197,79.3333333333333,0)" xlink:href="#am"/><use transform="matrix(0.0864197530864197,0,0,0.0864197530864197,89.61728395061725,0)" xlink:href="#ad"/><use transform="matrix(0.0864197530864197,0,0,0.0864197530864197,106.90123456790117,0)" xlink:href="#ac"/><use transform="matrix(0.0864197530864197,0,0,0.0864197530864197,124.18518518518513,0)" xlink:href="#am"/><use transform="matrix(0.0864197530864197,0,0,0.0864197530864197,134.46913580246908,0)" xlink:href="#an"/><use transform="matrix(0.0864197530864197,0,0,0.0864197530864197,153.395061728395,0)" xlink:href="#aj"/><use transform="matrix(0.0864197530864197,0,0,0.0864197530864197,165.49382716049377,0)" xlink:href="#ad"/></g><linearGradient gradientUnits="userSpaceOnUse" id="h" x1="380" y1="659.33" x2="380" y2="580"><stop offset="19.93%" stop-color="#fff"/><stop offset="27.17%" stop-color="#cfe4ff"/><stop offset="68.12%" stop-color="#cfe4ff"/><stop offset="75%" stop-color="#c3f7c8"/></linearGradient><path d="M30-248c87 1 191-15 191 75 0 78-77 80-158 76V0H30v-248zm33 125c57 0 124 11 124-50 0-59-68-47-124-48v98" id="ao"/><path d="M100-194c63 0 86 42 84 106H49c0 40 14 67 53 68 26 1 43-12 49-29l28 8c-11 28-37 45-77 45C44 4 14-33 15-96c1-61 26-98 85-98zm52 81c6-60-76-77-97-28-3 7-6 17-6 28h103" id="ap"/><path d="M135-143c-3-34-86-38-87 0 15 53 115 12 119 90S17 21 10-45l28-5c4 36 97 45 98 0-10-56-113-15-118-90-4-57 82-63 122-42 12 7 21 19 24 35" id="aq"/><g id="i"><use transform="matrix(0.07407407407407407,0,0,0.07407407407407407,0,0)" xlink:href="#ao"/><use transform="matrix(0.07407407407407407,0,0,0.07407407407407407,17.77777777777778,0)" xlink:href="#ap"/><use transform="matrix(0.07407407407407407,0,0,0.07407407407407407,32.592592592592595,0)" xlink:href="#Q"/><use transform="matrix(0.07407407407407407,0,0,0.07407407407407407,41.40740740740741,0)" xlink:href="#aq"/><use transform="matrix(0.07407407407407407,0,0,0.07407407407407407,54.74074074074075,0)" xlink:href="#R"/><use transform="matrix(0.07407407407407407,0,0,0.07407407407407407,60.592592592592595,0)" xlink:href="#aq"/><use transform="matrix(0.07407407407407407,0,0,0.07407407407407407,73.92592592592592,0)" xlink:href="#O"/><use transform="matrix(0.07407407407407407,0,0,0.07407407407407407,81.33333333333333,0)" xlink:href="#ap"/><use transform="matrix(0.07407407407407407,0,0,0.07407407407407407,96.14814814814814,0)" xlink:href="#Y"/><use transform="matrix(0.07407407407407407,0,0,0.07407407407407407,110.96296296296293,0)" xlink:href="#W"/><use transform="matrix(0.07407407407407407,0,0,0.07407407407407407,124.29629629629628,0)" xlink:href="#ap"/></g><linearGradient gradientUnits="userSpaceOnUse" id="j" x1="820" y1="760" x2="820" y2="640"><stop offset="19.2%" stop-color="#ced4db"/><stop offset="26.45%" stop-color="#fff"/><stop offset="45.29%" stop-color="#fff"/><stop offset="52.54%" stop-color="#cfe4ff"/></linearGradient><linearGradient gradientUnits="userSpaceOnUse" id="k" x1="800" y1="780" x2="800" y2="660"><stop offset="19.2%" stop-color="#ced4db"/><stop offset="26.45%" stop-color="#fff"/><stop offset="45.29%" stop-color="#fff"/><stop offset="52.54%" stop-color="#cfe4ff"/></linearGradient><linearGradient gradientUnits="userSpaceOnUse" id="l" x1="780" y1="800" x2="780" y2="680"><stop offset="19.2%" stop-color="#ced4db"/><stop offset="26.45%" stop-color="#fff"/><stop offset="45.29%" stop-color="#fff"/><stop offset="52.54%" stop-color="#cfe4ff"/></linearGradient><path d="M232-93c-1 65-40 97-104 97C67 4 28-28 28-90v-158h33c8 89-33 224 67 224 102 0 64-133 71-224h33v155" id="ar"/><g id="m"><use transform="matrix(0.07407407407407406,0,0,0.07407407407407406,0,0)" xlink:href="#ar"/><use transform="matrix(0.07407407407407406,0,0,0.07407407407407406,19.18518518518518,0)" xlink:href="#aq"/><use transform="matrix(0.07407407407407406,0,0,0.07407407407407406,32.51851851851851,0)" xlink:href="#ap"/><use transform="matrix(0.07407407407407406,0,0,0.07407407407407406,47.33333333333332,0)" xlink:href="#Q"/><use transform="matrix(0.07407407407407406,0,0,0.07407407407407406,56.14814814814813,0)" xlink:href="#aq"/></g><path d="M16-82v-28h88v28H16" id="as"/><path d="M63-220v92h138v28H63V0H30v-248h175v28H63" id="at"/><g id="n"><use transform="matrix(0.07407407407407406,0,0,0.07407407407407406,0,0)" xlink:href="#T"/><use transform="matrix(0.07407407407407406,0,0,0.07407407407407406,17.777777777777775,0)" xlink:href="#as"/><use transform="matrix(0.07407407407407406,0,0,0.07407407407407406,26.592592592592585,0)" xlink:href="#at"/></g><path d="M140-251c81 0 123 46 123 126C263-46 219 4 140 4 59 4 17-45 17-125s42-126 123-126zm0 227c63 0 89-41 89-101s-29-99-89-99c-61 0-89 39-89 99S79-25 140-24" id="au"/><path d="M106-169C34-169 62-67 57 0H25v-261h32l-1 103c12-21 28-36 61-36 89 0 53 116 60 194h-32v-121c2-32-8-49-39-48" id="av"/><g id="o"><use transform="matrix(0.07407407407407406,0,0,0.07407407407407406,0,0)" xlink:href="#au"/><use transform="matrix(0.07407407407407406,0,0,0.07407407407407406,20.740740740740737,0)" xlink:href="#Q"/><use transform="matrix(0.07407407407407406,0,0,0.07407407407407406,29.55555555555555,0)" xlink:href="#W"/><use transform="matrix(0.07407407407407406,0,0,0.07407407407407406,42.88888888888888,0)" xlink:href="#av"/><use transform="matrix(0.07407407407407406,0,0,0.07407407407407406,57.70370370370369,0)" xlink:href="#ap"/><use transform="matrix(0.07407407407407406,0,0,0.07407407407407406,72.5185185185185,0)" xlink:href="#aq"/><use transform="matrix(0.07407407407407406,0,0,0.07407407407407406,85.85185185185183,0)" xlink:href="#O"/><use transform="matrix(0.07407407407407406,0,0,0.07407407407407406,93.25925925925924,0)" xlink:href="#Q"/><use transform="matrix(0.07407407407407406,0,0,0.07407407407407406,102.07407407407405,0)" xlink:href="#N"/><use transform="matrix(0.07407407407407406,0,0,0.07407407407407406,116.88888888888886,0)" xlink:href="#O"/><use transform="matrix(0.07407407407407406,0,0,0.07407407407407406,124.29629629629626,0)" xlink:href="#X"/><use transform="matrix(0.07407407407407406,0,0,0.07407407407407406,139.1111111111111,0)" xlink:href="#Q"/></g><g id="p"><use transform="matrix(0.0864197530864197,0,0,0.0864197530864197,0,0)" xlink:href="#Z"/><use transform="matrix(0.0864197530864197,0,0,0.0864197530864197,20.74074074074073,0)" xlink:href="#ak"/><use transform="matrix(0.0864197530864197,0,0,0.0864197530864197,39.66666666666664,0)" xlink:href="#ab"/><use transform="matrix(0.0864197530864197,0,0,0.0864197530864197,56.950617283950585,0)" xlink:href="#aj"/><use transform="matrix(0.0864197530864197,0,0,0.0864197530864197,69.04938271604934,0)" xlink:href="#ah"/><use transform="matrix(0.0864197530864197,0,0,0.0864197530864197,87.97530864197526,0)" xlink:href="#ag"/></g><path d="M212 0h-52l-8-156L82 0H30L17-190h46l2 145 66-145h53l8 145 60-145h47" id="aw"/><g id="q"><use transform="matrix(0.0864197530864197,0,0,0.0864197530864197,0,0)" xlink:href="#aw"/><use transform="matrix(0.0864197530864197,0,0,0.0864197530864197,24.197530864197518,0)" xlink:href="#al"/><use transform="matrix(0.0864197530864197,0,0,0.0864197530864197,32.83950617283949,0)" xlink:href="#am"/><use transform="matrix(0.0864197530864197,0,0,0.0864197530864197,43.12345679012344,0)" xlink:href="#ak"/></g><path d="M18-101c0-91 52-150 145-150 68 0 111 34 111 101C274-54 221 4 128 4 59 4 18-33 18-101zm202-32c4-46-15-77-59-77-65 0-88 46-91 108-2 41 22 65 60 65 60 0 84-40 90-96" id="ax"/><path d="M124-194c51 0 84 22 84 74C207-44 167 4 94 4 43 4 11-23 11-74c0-74 41-120 113-120zM99-30c46 0 58-42 58-86 0-27-11-44-37-44-44 0-55 40-57 84-1 27 10 45 36 46" id="ay"/><g id="r"><use transform="matrix(0.0864197530864197,0,0,0.0864197530864197,0,0)" xlink:href="#ax"/><use transform="matrix(0.0864197530864197,0,0,0.0864197530864197,24.197530864197518,0)" xlink:href="#aj"/><use transform="matrix(0.0864197530864197,0,0,0.0864197530864197,36.296296296296276,0)" xlink:href="#ac"/><use transform="matrix(0.0864197530864197,0,0,0.0864197530864197,53.58024691358022,0)" xlink:href="#ak"/><use transform="matrix(0.0864197530864197,0,0,0.0864197530864197,72.50617283950614,0)" xlink:href="#ad"/><use transform="matrix(0.0864197530864197,0,0,0.0864197530864197,89.79012345679007,0)" xlink:href="#ag"/><use transform="matrix(0.0864197530864197,0,0,0.0864197530864197,107.07407407407402,0)" xlink:href="#am"/><use transform="matrix(0.0864197530864197,0,0,0.0864197530864197,117.35802469135797,0)" xlink:href="#aj"/><use transform="matrix(0.0864197530864197,0,0,0.0864197530864197,129.45679012345673,0)" xlink:href="#ab"/><use transform="matrix(0.0864197530864197,0,0,0.0864197530864197,146.74074074074068,0)" xlink:href="#am"/><use transform="matrix(0.0864197530864197,0,0,0.0864197530864197,157.02469135802463,0)" xlink:href="#ay"/><use transform="matrix(0.0864197530864197,0,0,0.0864197530864197,175.95061728395055,0)" xlink:href="#aj"/><use transform="matrix(0.0864197530864197,0,0,0.0864197530864197,188.0493827160493,0)" xlink:href="#ag"/></g><path d="M30 0v-248h187v28H63v79h144v27H63v87h162V0H30" id="az"/><g id="s"><use transform="matrix(0.08024691358024688,0,0,0.08024691358024688,0,0)" xlink:href="#az"/><use transform="matrix(0.08024691358024688,0,0,0.08024691358024688,19.259259259259252,0)" xlink:href="#N"/><use transform="matrix(0.08024691358024688,0,0,0.08024691358024688,35.30864197530863,0)" xlink:href="#W"/><use transform="matrix(0.08024691358024688,0,0,0.08024691358024688,49.753086419753075,0)" xlink:href="#av"/></g><path d="M20-101c0-91 52-143 145-150 126-9 127 168 53 223-23 17-55 32-93 32C57 4 20-33 20-101zm216-33c5-57-18-91-73-90-77 1-110 51-110 125 0 49 23 75 73 75 72-1 104-45 110-110" id="aA"/><path d="M66-151c12-25 30-51 66-40l-6 26C45-176 58-65 38 0H6l36-190h30" id="aB"/><path d="M44-68c0 29 11 47 38 47 30 0 42-19 51-41l28 9C148-21 126 4 82 4 31 4 10-29 12-85c3-77 74-140 146-93 12 8 15 23 18 40l-31 5c-1-22-13-36-36-36-52 0-65 49-65 101" id="aC"/><path d="M67-158c15-20 31-36 64-36 94 0 33 127 27 194h-32l25-140c3-38-53-32-70-12C52-117 51-51 37 0H6l51-261h31" id="aD"/><path d="M111-194c62-3 86 47 72 106H45c-7 38 6 69 45 68 27-1 43-14 53-32l24 11C152-15 129 4 87 4 38 3 12-23 12-71c0-70 32-119 99-123zm44 81c14-66-71-72-95-28-4 8-8 17-11 28h106" id="aE"/><path d="M55-144c13 50 104 24 104 88C159 21 15 23 1-39l26-10c6 40 102 42 102-4-13-50-104-23-104-87 0-71 143-71 148-8l-29 4c-5-35-85-37-89 0" id="aF"/><path d="M51-54c-9 22 5 41 31 30L79-1C43 14 10-4 19-52l22-115H19l5-23h22l19-43h21l-9 43h35l-4 23H73" id="aG"/><path d="M165-48c-4 18 1 34 23 27l-3 20c-29 8-62 0-52-35h-2C116-14 99 4 63 4 30 4 8-16 8-49c0-68 71-67 138-67 10-26 0-56-31-54-26 1-42 9-47 31l-32-5c8-67 160-71 144 15-5 28-9 54-15 81zM42-50c3 52 80 24 89-6 7-12 7-24 11-38-47 1-103-4-100 44" id="aH"/><path d="M30-147c31-64 166-65 159 27C183-49 158 1 86 4 9 8 1-88 30-147zM88-20c53 0 68-48 68-100 0-31-11-51-44-50-52 1-68 46-68 97 0 32 13 53 44 53" id="aI"/><g id="t"><use transform="matrix(0.08024691358024688,0,0,0.08024691358024688,0,0)" xlink:href="#aA"/><use transform="matrix(0.08024691358024688,0,0,0.08024691358024688,22.469135802469125,0)" xlink:href="#aB"/><use transform="matrix(0.08024691358024688,0,0,0.08024691358024688,32.018518518518505,0)" xlink:href="#aC"/><use transform="matrix(0.08024691358024688,0,0,0.08024691358024688,46.46296296296295,0)" xlink:href="#aD"/><use transform="matrix(0.08024691358024688,0,0,0.08024691358024688,62.51234567901233,0)" xlink:href="#aE"/><use transform="matrix(0.08024691358024688,0,0,0.08024691358024688,78.5617283950617,0)" xlink:href="#aF"/><use transform="matrix(0.08024691358024688,0,0,0.08024691358024688,93.00617283950615,0)" xlink:href="#aG"/><use transform="matrix(0.08024691358024688,0,0,0.08024691358024688,101.03086419753082,0)" xlink:href="#aB"/><use transform="matrix(0.08024691358024688,0,0,0.08024691358024688,110.5802469135802,0)" xlink:href="#aH"/><use transform="matrix(0.08024691358024688,0,0,0.08024691358024688,126.62962962962959,0)" xlink:href="#aG"/><use transform="matrix(0.08024691358024688,0,0,0.08024691358024688,134.65432098765427,0)" xlink:href="#aI"/><use transform="matrix(0.08024691358024688,0,0,0.08024691358024688,150.70370370370364,0)" xlink:href="#aB"/></g><g id="u"><use transform="matrix(0.08024691358024688,0,0,0.08024691358024688,0,0)" xlink:href="#N"/><use transform="matrix(0.08024691358024688,0,0,0.08024691358024688,16.049382716049376,0)" xlink:href="#W"/><use transform="matrix(0.08024691358024688,0,0,0.08024691358024688,30.493827160493815,0)" xlink:href="#W"/><use transform="matrix(0.08024691358024688,0,0,0.08024691358024688,44.93827160493825,0)" xlink:href="#ap"/><use transform="matrix(0.08024691358024688,0,0,0.08024691358024688,60.98765432098763,0)" xlink:href="#aq"/><use transform="matrix(0.08024691358024688,0,0,0.08024691358024688,75.43209876543207,0)" xlink:href="#aq"/><use transform="matrix(0.08024691358024688,0,0,0.08024691358024688,89.8765432098765,0)" xlink:href="#ap"/><use transform="matrix(0.08024691358024688,0,0,0.08024691358024688,105.9259259259259,0)" xlink:href="#aq"/></g><g id="v"><use transform="matrix(0.08024691358024688,0,0,0.08024691358024688,0,0)" xlink:href="#N"/><use transform="matrix(0.08024691358024688,0,0,0.08024691358024688,16.049382716049376,0)" xlink:href="#V"/><use transform="matrix(0.08024691358024688,0,0,0.08024691358024688,22.38888888888888,0)" xlink:href="#V"/></g><g id="w"><use transform="matrix(0.08024691358024688,0,0,0.08024691358024688,0,0)" xlink:href="#O"/><use transform="matrix(0.08024691358024688,0,0,0.08024691358024688,8.024691358024688,0)" xlink:href="#av"/><use transform="matrix(0.08024691358024688,0,0,0.08024691358024688,24.07407407407406,0)" xlink:href="#ap"/></g><g id="x"><use transform="matrix(0.08024691358024688,0,0,0.08024691358024688,0,0)" xlink:href="#aq"/><use transform="matrix(0.08024691358024688,0,0,0.08024691358024688,14.44444444444444,0)" xlink:href="#av"/><use transform="matrix(0.08024691358024688,0,0,0.08024691358024688,30.493827160493815,0)" xlink:href="#N"/><use transform="matrix(0.08024691358024688,0,0,0.08024691358024688,46.543209876543195,0)" xlink:href="#Q"/><use transform="matrix(0.08024691358024688,0,0,0.08024691358024688,56.09259259259257,0)" xlink:href="#S"/><use transform="matrix(0.08024691358024688,0,0,0.08024691358024688,72.14197530864195,0)" xlink:href="#aq"/></g><g id="y"><use transform="matrix(0.08024691358024688,0,0,0.08024691358024688,0,0)" xlink:href="#N"/><use transform="matrix(0.08024691358024688,0,0,0.08024691358024688,16.049382716049376,0)" xlink:href="#Y"/><use transform="matrix(0.08024691358024688,0,0,0.08024691358024688,32.09876543209875,0)" xlink:href="#S"/></g><path d="M177-190C167-65 218 103 67 71c-23-6-38-20-44-43l32-5c15 47 100 32 89-28v-30C133-14 115 1 83 1 29 1 15-40 15-95c0-56 16-97 71-98 29-1 48 16 59 35 1-10 0-23 2-32h30zM94-22c36 0 50-32 50-73 0-42-14-75-50-75-39 0-46 34-46 75s6 73 46 73" id="aJ"/><g id="z"><use transform="matrix(0.08024691358024688,0,0,0.08024691358024688,0,0)" xlink:href="#R"/><use transform="matrix(0.08024691358024688,0,0,0.08024691358024688,6.339506172839504,0)" xlink:href="#Y"/><use transform="matrix(0.08024691358024688,0,0,0.08024691358024688,22.38888888888888,0)" xlink:href="#O"/><use transform="matrix(0.08024691358024688,0,0,0.08024691358024688,30.41358024691357,0)" xlink:href="#ap"/><use transform="matrix(0.08024691358024688,0,0,0.08024691358024688,46.46296296296295,0)" xlink:href="#aJ"/><use transform="matrix(0.08024691358024688,0,0,0.08024691358024688,62.51234567901233,0)" xlink:href="#Q"/><use transform="matrix(0.08024691358024688,0,0,0.08024691358024688,72.0617283950617,0)" xlink:href="#N"/><use transform="matrix(0.08024691358024688,0,0,0.08024691358024688,88.1111111111111,0)" xlink:href="#O"/><use transform="matrix(0.08024691358024688,0,0,0.08024691358024688,96.13580246913577,0)" xlink:href="#ap"/><use transform="matrix(0.08024691358024688,0,0,0.08024691358024688,112.18518518518513,0)" xlink:href="#aq"/></g><g id="A"><use transform="matrix(0.08024691358024688,0,0,0.08024691358024688,0,0)" xlink:href="#O"/><use transform="matrix(0.08024691358024688,0,0,0.08024691358024688,8.024691358024688,0)" xlink:href="#av"/><use transform="matrix(0.08024691358024688,0,0,0.08024691358024688,24.07407407407406,0)" xlink:href="#ap"/><use transform="matrix(0.08024691358024688,0,0,0.08024691358024688,40.12345679012344,0)" xlink:href="#R"/><use transform="matrix(0.08024691358024688,0,0,0.08024691358024688,46.46296296296295,0)" xlink:href="#Q"/></g><g id="B"><use transform="matrix(0.08024691358024688,0,0,0.08024691358024688,0,0)" xlink:href="#S"/><use transform="matrix(0.08024691358024688,0,0,0.08024691358024688,16.049382716049376,0)" xlink:href="#N"/><use transform="matrix(0.08024691358024688,0,0,0.08024691358024688,32.09876543209875,0)" xlink:href="#O"/><use transform="matrix(0.08024691358024688,0,0,0.08024691358024688,40.12345679012344,0)" xlink:href="#N"/></g><path d="M127-220V0H93v-220H8v-28h204v28h-85" id="aK"/><g id="C"><use transform="matrix(0.08024691358024688,0,0,0.08024691358024688,0,0)" xlink:href="#aK"/><use transform="matrix(0.08024691358024688,0,0,0.08024691358024688,17.574074074074066,0)" xlink:href="#av"/><use transform="matrix(0.08024691358024688,0,0,0.08024691358024688,33.62345679012344,0)" xlink:href="#ap"/></g><path d="M248-139C247-14 144 9 11 0l48-248c105-6 190 8 189 109zm-34 0c1-70-52-87-126-82L50-27c98 7 163-21 164-112" id="aL"/><g id="D"><use transform="matrix(0.08024691358024688,0,0,0.08024691358024688,0,0)" xlink:href="#aL"/><use transform="matrix(0.08024691358024688,0,0,0.08024691358024688,20.783950617283942,0)" xlink:href="#aH"/><use transform="matrix(0.08024691358024688,0,0,0.08024691358024688,36.833333333333314,0)" xlink:href="#aG"/><use transform="matrix(0.08024691358024688,0,0,0.08024691358024688,44.858024691358004,0)" xlink:href="#aH"/></g><path d="M52-101C46-14 166-7 216-51l9-45h-74l6-28h105l-18 87C217-12 181 4 130 4 60 4 18-31 18-101c0-106 78-167 188-146 30 6 48 27 59 54l-34 9c-10-26-31-41-67-40-75 1-107 50-112 123" id="aM"/><path d="M50-231l6-30h32l-6 30H50zM6 0l37-190h31L37 0H6" id="aN"/><path d="M133-28C103 26-5 8 13-77c13-62 24-115 90-117 29-1 46 15 56 35l19-102h32L160 0h-30zM45-64c-2 27 10 43 35 43 54-1 69-50 69-103 0-29-15-46-42-46-53-1-58 58-62 106" id="aO"/><g id="E"><use transform="matrix(0.08024691358024688,0,0,0.08024691358024688,0,0)" xlink:href="#aM"/><use transform="matrix(0.08024691358024688,0,0,0.08024691358024688,22.469135802469125,0)" xlink:href="#aB"/><use transform="matrix(0.08024691358024688,0,0,0.08024691358024688,32.018518518518505,0)" xlink:href="#aN"/><use transform="matrix(0.08024691358024688,0,0,0.08024691358024688,38.35802469135801,0)" xlink:href="#aO"/></g><g id="F"><use transform="matrix(0.08024691358024688,0,0,0.08024691358024688,0,0)" xlink:href="#W"/><use transform="matrix(0.08024691358024688,0,0,0.08024691358024688,14.44444444444444,0)" xlink:href="#X"/><use transform="matrix(0.08024691358024688,0,0,0.08024691358024688,30.493827160493815,0)" xlink:href="#V"/><use transform="matrix(0.08024691358024688,0,0,0.08024691358024688,36.83333333333332,0)" xlink:href="#X"/><use transform="matrix(0.08024691358024688,0,0,0.08024691358024688,52.882716049382694,0)" xlink:href="#W"/><use transform="matrix(0.08024691358024688,0,0,0.08024691358024688,67.32716049382714,0)" xlink:href="#N"/><use transform="matrix(0.08024691358024688,0,0,0.08024691358024688,83.37654320987652,0)" xlink:href="#O"/><use transform="matrix(0.08024691358024688,0,0,0.08024691358024688,91.4012345679012,0)" xlink:href="#ap"/><use transform="matrix(0.08024691358024688,0,0,0.08024691358024688,107.45061728395058,0)" xlink:href="#aq"/></g><g id="G"><use transform="matrix(0.08024691358024688,0,0,0.08024691358024688,0,0)" xlink:href="#W"/><use transform="matrix(0.08024691358024688,0,0,0.08024691358024688,14.44444444444444,0)" xlink:href="#N"/><use transform="matrix(0.08024691358024688,0,0,0.08024691358024688,30.493827160493815,0)" xlink:href="#W"/><use transform="matrix(0.08024691358024688,0,0,0.08024691358024688,44.93827160493825,0)" xlink:href="#av"/><use transform="matrix(0.08024691358024688,0,0,0.08024691358024688,60.98765432098763,0)" xlink:href="#ap"/><use transform="matrix(0.08024691358024688,0,0,0.08024691358024688,77.03703703703701,0)" xlink:href="#S"/></g><g id="H"><use transform="matrix(0.08024691358024688,0,0,0.08024691358024688,0,0)" xlink:href="#S"/><use transform="matrix(0.08024691358024688,0,0,0.08024691358024688,16.049382716049376,0)" xlink:href="#N"/><use transform="matrix(0.08024691358024688,0,0,0.08024691358024688,32.09876543209875,0)" xlink:href="#O"/><use transform="matrix(0.08024691358024688,0,0,0.08024691358024688,40.12345679012344,0)" xlink:href="#N"/></g><path d="M206 0h-36l-40-164L89 0H53L-1-190h32L70-26l43-164h34l41 164 42-164h31" id="aP"/><g id="I"><use transform="matrix(0.08024691358024688,0,0,0.08024691358024688,0,0)" xlink:href="#aP"/><use transform="matrix(0.08024691358024688,0,0,0.08024691358024688,20.783950617283942,0)" xlink:href="#R"/><use transform="matrix(0.08024691358024688,0,0,0.08024691358024688,27.123456790123445,0)" xlink:href="#O"/><use transform="matrix(0.08024691358024688,0,0,0.08024691358024688,35.14814814814813,0)" xlink:href="#av"/></g><path d="M108 0H70L1-190h34L89-25l56-165h34" id="aQ"/><path d="M179-190L93 31C79 59 56 82 12 73V49c39 6 53-20 64-50L1-190h34L92-34l54-156h33" id="aR"/><g id="J"><use transform="matrix(0.08024691358024688,0,0,0.08024691358024688,0,0)" xlink:href="#ap"/><use transform="matrix(0.08024691358024688,0,0,0.08024691358024688,16.049382716049376,0)" xlink:href="#aQ"/><use transform="matrix(0.08024691358024688,0,0,0.08024691358024688,30.493827160493815,0)" xlink:href="#ap"/><use transform="matrix(0.08024691358024688,0,0,0.08024691358024688,46.543209876543195,0)" xlink:href="#Q"/><use transform="matrix(0.08024691358024688,0,0,0.08024691358024688,56.09259259259257,0)" xlink:href="#aR"/></g><g id="K"><use transform="matrix(0.08024691358024688,0,0,0.08024691358024688,0,0)" xlink:href="#N"/><use transform="matrix(0.08024691358024688,0,0,0.08024691358024688,16.049382716049376,0)" xlink:href="#U"/><use transform="matrix(0.08024691358024688,0,0,0.08024691358024688,32.09876543209875,0)" xlink:href="#U"/><use transform="matrix(0.08024691358024688,0,0,0.08024691358024688,48.14814814814812,0)" xlink:href="#V"/><use transform="matrix(0.08024691358024688,0,0,0.08024691358024688,54.48765432098763,0)" xlink:href="#R"/><use transform="matrix(0.08024691358024688,0,0,0.08024691358024688,60.82716049382714,0)" xlink:href="#W"/><use transform="matrix(0.08024691358024688,0,0,0.08024691358024688,75.27160493827158,0)" xlink:href="#N"/><use transform="matrix(0.08024691358024688,0,0,0.08024691358024688,91.32098765432094,0)" xlink:href="#O"/><use transform="matrix(0.08024691358024688,0,0,0.08024691358024688,99.34567901234564,0)" xlink:href="#R"/><use transform="matrix(0.08024691358024688,0,0,0.08024691358024688,105.68518518518515,0)" xlink:href="#X"/><use transform="matrix(0.08024691358024688,0,0,0.08024691358024688,121.73456790123451,0)" xlink:href="#Y"/></g><g id="L"><use transform="matrix(0.08024691358024688,0,0,0.08024691358024688,0,0)" xlink:href="#R"/><use transform="matrix(0.08024691358024688,0,0,0.08024691358024688,6.339506172839504,0)" xlink:href="#Y"/><use transform="matrix(0.08024691358024688,0,0,0.08024691358024688,22.38888888888888,0)" xlink:href="#aq"/><use transform="matrix(0.08024691358024688,0,0,0.08024691358024688,36.833333333333314,0)" xlink:href="#O"/><use transform="matrix(0.08024691358024688,0,0,0.08024691358024688,44.858024691358004,0)" xlink:href="#N"/><use transform="matrix(0.08024691358024688,0,0,0.08024691358024688,60.907407407407376,0)" xlink:href="#Y"/><use transform="matrix(0.08024691358024688,0,0,0.08024691358024688,76.95679012345676,0)" xlink:href="#W"/><use transform="matrix(0.08024691358024688,0,0,0.08024691358024688,91.4012345679012,0)" xlink:href="#ap"/></g></defs></g></svg>