<svg xmlns="http://www.w3.org/2000/svg" xmlns:xlink="http://www.w3.org/1999/xlink" xmlns:lucid="lucid" width="1007" height="323"><g transform="translate(-274.5 -518.5)" lucid:page-tab-id="0_0"><path d="M280 580a20 20 0 0 1 20-20h200a20 20 0 0 1 20 20v200a20 20 0 0 1-20 20H300a20 20 0 0 1-20-20z" stroke="#000" stroke-width="3" fill="url(#a)"/><path d="M600 666a6 6 0 0 1 6-6h42a6 6 0 0 0 6-6v-8a2.3 2.3 0 0 1 4-1.54l28 31.08a6.67 6.67 0 0 1 0 8.92l-28 31.08a2.3 2.3 0 0 1-4-1.54v-8a6 6 0 0 0-6-6h-42a6 6 0 0 1-6-6z" fill="#fc9432"/><path d="M1080 566a6 6 0 0 1 6-6h188a6 6 0 0 1 6 6v228a6 6 0 0 1-6 6h-188a6 6 0 0 1-6-6z" stroke="#000" stroke-opacity="0" stroke-width="3" fill="#fff" fill-opacity="0"/><use xlink:href="#b" transform="matrix(1,0,0,1,1085,565) translate(7 71.64583333333333)"/><use xlink:href="#c" transform="matrix(1,0,0,1,1085,565) translate(43.888888888888886 71.64583333333333)"/><use xlink:href="#d" transform="matrix(1,0,0,1,1085,565) translate(88.33333333333333 71.64583333333333)"/><use xlink:href="#e" transform="matrix(1,0,0,1,1085,565) translate(12.07407407407409 103.64583333333333)"/><use xlink:href="#f" transform="matrix(1,0,0,1,1085,565) translate(26.22222222222223 135.64583333333334)"/><use xlink:href="#g" transform="matrix(1,0,0,1,1085,565) translate(72.07407407407408 135.64583333333334)"/><use xlink:href="#h" transform="matrix(1,0,0,1,1085,565) translate(15.851851851851876 167.64583333333334)"/><use xlink:href="#i" transform="matrix(1,0,0,1,1085,565) translate(70.51851851851853 167.64583333333334)"/><path d="M987.15 785.55l2.5-1.44m3.35-1.9l5.02-2.9m3.34-1.92l5.02-2.88m3.35-1.93l5-2.88m3.36-1.93l5-2.9m3.35-1.9l5.02-2.9m3.34-1.92l5.03-2.88m3.35-1.93l5-2.88m3.36-1.92l5.02-2.9m3.34-1.9l5.02-2.9m3.34-1.92l5.02-2.88m3.34-1.93l2.5-1.43" stroke="#3a414a" stroke-width="2" fill="none"/><path d="M987.66 786.4l-.74.4-1.28-1.5 1.04-.6zM1080 733.3l-.4.23-.97-1.7 1.37-.78z" stroke="#3a414a" stroke-width=".05" fill="#3a414a"/><path d="M979.66 570.86l2.5 1.7m3.3 2.3l4.98 3.42m3.32 2.3l4.98 3.42m3.3 2.3l5 3.4m3.3 2.3l4.98 3.43m3.32 2.3l4.97 3.4m3.33 2.3l4.98 3.43m3.32 2.28l4.98 3.43m3.32 2.3l4.97 3.42m3.3 2.27l5 3.43m3.3 2.3l4.98 3.42m3.32 2.28l4.97 3.43m3.32 2.3l2.48 1.7" stroke="#3a414a" stroke-width="2" fill="none"/><path d="M980.24 570.07l-1.1 1.6-.8-.55.82-1.36.14-.34zM1080 638.82v2.36l-1.4-.96 1.1-1.6z" stroke="#3a414a" stroke-width=".05" fill="#3a414a"/><path d="M780 560a20 20 0 0 1 20-20h160a20 20 0 0 1 20 20 20 20 0 0 1-20 20H800a20 20 0 0 1-20-20z" stroke="#1071e5" stroke-width="3" fill="url(#j)" transform="matrix(-1,1.2246467991473532e-16,-1.2246467991473532e-16,-1,1760,1120)"/><path d="M770 800a20 20 0 0 1 20-20h60a20 20 0 0 1 20 20 20 20 0 0 1-20 20h-60a20 20 0 0 1-20-20z" stroke="#1071e5" stroke-width="3" fill="url(#k)"/><path d="M910 800a20 20 0 0 1 20-20h40a20 20 0 0 1 20 20 20 20 0 0 1-20 20h-40a20 20 0 0 1-20-20z" stroke="#1071e5" stroke-width="3" fill="url(#l)"/><path d="M760 820a20 20 0 0 1 20-20h80a20 20 0 0 1 20 20 20 20 0 0 1-20 20h-80a20 20 0 0 1-20-20z" stroke="#000" stroke-width="3" fill="#ced4db"/><use xlink:href="#m" transform="matrix(1,0,0,1,765,805) translate(7.504999999999997 19.65277777777778)"/><path d="M760 641.5a20 20 0 0 1 20-20h200a20 20 0 0 1 20 20V720a20 20 0 0 1-20 20H780a20 20 0 0 1-20-20z" stroke="#1071e5" stroke-width="3" fill="url(#n)"/><use xlink:href="#o" transform="matrix(1,0,0,1,765,626.4999500000001) translate(90.98765432098766 58.65277777777778)"/><path d="M820.7 742.5l-.35 17.5" stroke="#1071e5" stroke-width="2" fill="none"/><path d="M821.66 742.54l-1.95-.03.03-1h1.95z" stroke="#1071e5" stroke-width=".05" fill="#1071e5"/><path d="M820.06 775.26l-4.36-14.35 9.27.2z" stroke="#1071e5" stroke-width="2" fill="#1071e5"/><path d="M900 820a20 20 0 0 1 20-20h60a20 20 0 0 1 20 20 20 20 0 0 1-20 20h-60a20 20 0 0 1-20-20z" stroke="#000" stroke-width="3" fill="#fff"/><use xlink:href="#p" transform="matrix(1,0,0,1,905,805) translate(11.146975308641979 19.65277777777778)"/><path d="M949.2 742.5l.4 17.5" stroke="#1071e5" stroke-width="2" fill="none"/><path d="M950.18 742.5l-1.95.05-.03-1.05h1.95z" stroke="#1071e5" stroke-width=".05" fill="#1071e5"/><path d="M949.93 775.26l-4.95-14.15 9.26-.2z" stroke="#1071e5" stroke-width="2" fill="#1071e5"/><path d="M760 540a20 20 0 0 1 20-20h200a20 20 0 0 1 20 20 20 20 0 0 1-20 20H780a20 20 0 0 1-20-20z" stroke="#000" stroke-width="3" fill="#fff"/><use xlink:href="#q" transform="matrix(1,0,0,1,765,525) translate(74.325987654321 19.65277777777778)"/><path d="M880 582.5v19" stroke="#1071e5" stroke-width="2" fill="none"/><path d="M880.98 582.53H879v-1.03H881z" stroke="#1071e5" stroke-width=".05" fill="#1071e5"/><path d="M880 616.76l-4.63-14.26h9.26z" stroke="#1071e5" stroke-width="2" fill="#1071e5"/><path d="M1002.15 540.76l1.93 2.3m2.57 3.06l3.86 4.6m2.6 3.05l3.85 4.6m2.57 3.05l3.86 4.6m2.57 3.05l3.87 4.6m2.57 3.05l3.85 4.6m2.57 3.05l3.86 4.6m2.58 3.05l3.86 4.6m2.57 3.05l3.85 4.6m2.57 3.05l3.87 4.6m2.56 3.05l3.86 4.6m2.57 3.05l3.85 4.6m2.58 3.05l1.93 2.3" stroke="#3a414a" stroke-width="2" fill="none"/><path d="M1002.9 540.16l-1.48 1.25h-.02l.1-1.4-.13-1.67zM1080 634.85l-1.4-1.67 1.4-1.2z" stroke="#3a414a" stroke-width=".05" fill="#3a414a"/><path d="M1079.3 741.58l-2.1 2.12m-2.8 2.82l-4.2 4.24m-2.82 2.83l-4.2 4.23m-2.8 2.82l-4.2 4.24m-2.8 2.82l-4.22 4.24m-2.8 2.82l-4.2 4.24m-2.8 2.83l-4.2 4.24m-2.82 2.8l-4.2 4.25m-2.8 2.83l-4.2 4.24m-2.8 2.82l-4.22 4.24m-2.8 2.83l-4.2 4.25m-2.8 2.82l-2.1 2.12" stroke="#3a414a" stroke-width="2" fill="none"/><path d="M1080 742.25l-.03.03-1.38-1.37 1.4-1.4zM1002.92 819.96l-1.53 1.54.1-1.5-.1-1.28.13-.13z" stroke="#3a414a" stroke-width=".05" fill="#3a414a"/><path d="M279.5 741h10.04m10.04 0h20.1m10.03 0h20.1m10.03 0h20.1m10.03 0h20.08m10.04 0h20.1m10.03 0h20.1m10.03 0h20.1m10.03 0h10.04" stroke="#fc9432" stroke-width="2" fill="none"/><path d="M279.53 741.98h-1.03V740h1.03zM521.5 741.98h-1.03V740h1.03z" stroke="#fc9432" stroke-width=".05" fill="#fc9432"/><path d="M279.5 680h10.04m10.04 0h20.1m10.03 0h20.1m10.03 0h20.1m10.03 0h20.08m10.04 0h20.1m10.03 0h20.1m10.03 0h20.1m10.03 0h10.04" stroke="#fc9432" stroke-width="2" fill="none"/><path d="M279.53 680.98h-1.03V679h1.03zM521.5 680.98h-1.03V679h1.03z" stroke="#fc9432" stroke-width=".05" fill="#fc9432"/><path d="M279.5 719h10.04m10.04 0h20.1m10.03 0h20.1m10.03 0h20.1m10.03 0h20.08m10.04 0h20.1m10.03 0h20.1m10.03 0h20.1m10.03 0h10.04" stroke="#fc9432" stroke-width="2" fill="none"/><path d="M279.53 719.98h-1.03V718h1.03zM521.5 719.98h-1.03V718h1.03z" stroke="#fc9432" stroke-width=".05" fill="#fc9432"/><defs><linearGradient gradientUnits="userSpaceOnUse" id="a" x1="280" y1="800" x2="280" y2="560"><stop offset="19.2%" stop-color="#ced4db"/><stop offset="26.45%" stop-color="#fff"/><stop offset="45.29%" stop-color="#fff"/><stop offset="52.54%" stop-color="#cfe4ff"/><stop offset="73.91%" stop-color="#cfe4ff"/><stop offset="82.97%" stop-color="#c3f7c8"/></linearGradient><path d="M205 0l-28-72H64L36 0H1l101-248h38L239 0h-34zm-38-99l-47-123c-12 45-31 82-46 123h93" id="r"/><path d="M24 0v-261h32V0H24" id="s"/><g id="b"><use transform="matrix(0.07407407407407407,0,0,0.07407407407407407,0,0)" xlink:href="#r"/><use transform="matrix(0.07407407407407407,0,0,0.07407407407407407,17.77777777777778,0)" xlink:href="#s"/><use transform="matrix(0.07407407407407407,0,0,0.07407407407407407,23.62962962962963,0)" xlink:href="#s"/></g><path d="M59-47c-2 24 18 29 38 22v24C64 9 27 4 27-40v-127H5v-23h24l9-43h21v43h35v23H59v120" id="t"/><path d="M106-169C34-169 62-67 57 0H25v-261h32l-1 103c12-21 28-36 61-36 89 0 53 116 60 194h-32v-121c2-32-8-49-39-48" id="u"/><path d="M100-194c63 0 86 42 84 106H49c0 40 14 67 53 68 26 1 43-12 49-29l28 8c-11 28-37 45-77 45C44 4 14-33 15-96c1-61 26-98 85-98zm52 81c6-60-76-77-97-28-3 7-6 17-6 28h103" id="v"/><g id="c"><use transform="matrix(0.07407407407407407,0,0,0.07407407407407407,0,0)" xlink:href="#t"/><use transform="matrix(0.07407407407407407,0,0,0.07407407407407407,7.4074074074074066,0)" xlink:href="#u"/><use transform="matrix(0.07407407407407407,0,0,0.07407407407407407,22.22222222222222,0)" xlink:href="#v"/></g><path d="M141 0L90-78 38 0H4l68-98-65-92h35l48 74 47-74h35l-64 92 68 98h-35" id="w"/><path d="M114-163C36-179 61-72 57 0H25l-1-190h30c1 12-1 29 2 39 6-27 23-49 58-41v29" id="x"/><path d="M117-194c89-4 53 116 60 194h-32v-121c0-31-8-49-39-48C34-167 62-67 57 0H25l-1-190h30c1 10-1 24 2 32 11-22 29-35 61-36" id="y"/><path d="M141-36C126-15 110 5 73 4 37 3 15-17 15-53c-1-64 63-63 125-63 3-35-9-54-41-54-24 1-41 7-42 31l-33-3c5-37 33-52 76-52 45 0 72 20 72 64v82c-1 20 7 32 28 27v20c-31 9-61-2-59-35zM48-53c0 20 12 33 32 33 41-3 63-29 60-74-43 2-92-5-92 41" id="z"/><g id="d"><use transform="matrix(0.07407407407407407,0,0,0.07407407407407407,0,0)" xlink:href="#v"/><use transform="matrix(0.07407407407407407,0,0,0.07407407407407407,14.814814814814813,0)" xlink:href="#w"/><use transform="matrix(0.07407407407407407,0,0,0.07407407407407407,28.148148148148145,0)" xlink:href="#t"/><use transform="matrix(0.07407407407407407,0,0,0.07407407407407407,35.55555555555555,0)" xlink:href="#v"/><use transform="matrix(0.07407407407407407,0,0,0.07407407407407407,50.37037037037037,0)" xlink:href="#x"/><use transform="matrix(0.07407407407407407,0,0,0.07407407407407407,59.18518518518518,0)" xlink:href="#y"/><use transform="matrix(0.07407407407407407,0,0,0.07407407407407407,74,0)" xlink:href="#z"/><use transform="matrix(0.07407407407407407,0,0,0.07407407407407407,88.81481481481481,0)" xlink:href="#s"/></g><path d="M85-194c31 0 48 13 60 33l-1-100h32l1 261h-30c-2-10 0-23-3-31C134-8 116 4 85 4 32 4 16-35 15-94c0-66 23-100 70-100zm9 24c-40 0-46 34-46 75 0 40 6 74 45 74 42 0 51-32 51-76 0-42-9-74-50-73" id="A"/><path d="M115-194c55 1 70 41 70 98S169 2 115 4C84 4 66-9 55-30l1 105H24l-1-265h31l2 30c10-21 28-34 59-34zm-8 174c40 0 45-34 45-75s-6-73-45-74c-42 0-51 32-51 76 0 43 10 73 51 73" id="B"/><path d="M96-169c-40 0-48 33-48 73s9 75 48 75c24 0 41-14 43-38l32 2c-6 37-31 61-74 61-59 0-76-41-82-99-10-93 101-131 147-64 4 7 5 14 7 22l-32 3c-4-21-16-35-41-35" id="C"/><path d="M24-231v-30h32v30H24zM24 0v-190h32V0H24" id="D"/><path d="M135-143c-3-34-86-38-87 0 15 53 115 12 119 90S17 21 10-45l28-5c4 36 97 45 98 0-10-56-113-15-118-90-4-57 82-63 122-42 12 7 21 19 24 35" id="E"/><g id="e"><use transform="matrix(0.07407407407407407,0,0,0.07407407407407407,0,0)" xlink:href="#A"/><use transform="matrix(0.07407407407407407,0,0,0.07407407407407407,14.814814814814813,0)" xlink:href="#v"/><use transform="matrix(0.07407407407407407,0,0,0.07407407407407407,29.629629629629626,0)" xlink:href="#B"/><use transform="matrix(0.07407407407407407,0,0,0.07407407407407407,44.44444444444444,0)" xlink:href="#v"/><use transform="matrix(0.07407407407407407,0,0,0.07407407407407407,59.25925925925925,0)" xlink:href="#y"/><use transform="matrix(0.07407407407407407,0,0,0.07407407407407407,74.07407407407406,0)" xlink:href="#A"/><use transform="matrix(0.07407407407407407,0,0,0.07407407407407407,88.88888888888887,0)" xlink:href="#v"/><use transform="matrix(0.07407407407407407,0,0,0.07407407407407407,103.70370370370368,0)" xlink:href="#y"/><use transform="matrix(0.07407407407407407,0,0,0.07407407407407407,118.51851851851849,0)" xlink:href="#C"/><use transform="matrix(0.07407407407407407,0,0,0.07407407407407407,131.85185185185182,0)" xlink:href="#D"/><use transform="matrix(0.07407407407407407,0,0,0.07407407407407407,137.70370370370367,0)" xlink:href="#v"/><use transform="matrix(0.07407407407407407,0,0,0.07407407407407407,152.51851851851848,0)" xlink:href="#E"/></g><g id="f"><use transform="matrix(0.07407407407407407,0,0,0.07407407407407407,0,0)" xlink:href="#z"/><use transform="matrix(0.07407407407407407,0,0,0.07407407407407407,14.814814814814813,0)" xlink:href="#x"/><use transform="matrix(0.07407407407407407,0,0,0.07407407407407407,23.629629629629623,0)" xlink:href="#v"/></g><path d="M100-194c62-1 85 37 85 99 1 63-27 99-86 99S16-35 15-95c0-66 28-99 85-99zM99-20c44 1 53-31 53-75 0-43-8-75-51-75s-53 32-53 75 10 74 51 75" id="F"/><g id="g"><use transform="matrix(0.07407407407407407,0,0,0.07407407407407407,0,0)" xlink:href="#D"/><use transform="matrix(0.07407407407407407,0,0,0.07407407407407407,5.851851851851851,0)" xlink:href="#E"/><use transform="matrix(0.07407407407407407,0,0,0.07407407407407407,19.185185185185183,0)" xlink:href="#F"/><use transform="matrix(0.07407407407407407,0,0,0.07407407407407407,34,0)" xlink:href="#s"/><use transform="matrix(0.07407407407407407,0,0,0.07407407407407407,39.85185185185185,0)" xlink:href="#z"/><use transform="matrix(0.07407407407407407,0,0,0.07407407407407407,54.66666666666666,0)" xlink:href="#t"/><use transform="matrix(0.07407407407407407,0,0,0.07407407407407407,62.07407407407406,0)" xlink:href="#v"/><use transform="matrix(0.07407407407407407,0,0,0.07407407407407407,76.88888888888887,0)" xlink:href="#A"/></g><path d="M206 0h-36l-40-164L89 0H53L-1-190h32L70-26l43-164h34l41 164 42-164h31" id="G"/><g id="h"><use transform="matrix(0.07407407407407407,0,0,0.07407407407407407,0,0)" xlink:href="#G"/><use transform="matrix(0.07407407407407407,0,0,0.07407407407407407,19.185185185185183,0)" xlink:href="#D"/><use transform="matrix(0.07407407407407407,0,0,0.07407407407407407,25.037037037037035,0)" xlink:href="#t"/><use transform="matrix(0.07407407407407407,0,0,0.07407407407407407,32.44444444444444,0)" xlink:href="#u"/></g><g id="i"><use transform="matrix(0.07407407407407407,0,0,0.07407407407407407,0,0)" xlink:href="#z"/><use transform="matrix(0.07407407407407407,0,0,0.07407407407407407,14.814814814814813,0)" xlink:href="#A"/><use transform="matrix(0.07407407407407407,0,0,0.07407407407407407,29.629629629629626,0)" xlink:href="#z"/><use transform="matrix(0.07407407407407407,0,0,0.07407407407407407,44.44444444444444,0)" xlink:href="#B"/><use transform="matrix(0.07407407407407407,0,0,0.07407407407407407,59.25925925925925,0)" xlink:href="#t"/><use transform="matrix(0.07407407407407407,0,0,0.07407407407407407,66.66666666666666,0)" xlink:href="#v"/><use transform="matrix(0.07407407407407407,0,0,0.07407407407407407,81.48148148148147,0)" xlink:href="#x"/><use transform="matrix(0.07407407407407407,0,0,0.07407407407407407,90.29629629629628,0)" xlink:href="#E"/></g><linearGradient gradientUnits="userSpaceOnUse" id="j" x1="780" y1="540" x2="780" y2="580"><stop offset="0%" stop-color="#fff"/><stop offset="0%" stop-color="#6db1ff"/><stop offset="29.64%" stop-color="#fff"/></linearGradient><linearGradient gradientUnits="userSpaceOnUse" id="k" x1="770" y1="780" x2="770" y2="820"><stop offset="0%" stop-color="#fff"/><stop offset="0%" stop-color="#6db1ff"/><stop offset="29.64%" stop-color="#fff"/></linearGradient><linearGradient gradientUnits="userSpaceOnUse" id="l" x1="910" y1="780" x2="910" y2="820"><stop offset="0%" stop-color="#fff"/><stop offset="0%" stop-color="#6db1ff"/><stop offset="29.64%" stop-color="#fff"/></linearGradient><path d="M30-248c118-7 216 8 213 122C240-48 200 0 122 0H30v-248zM63-27c89 8 146-16 146-99s-60-101-146-95v194" id="H"/><path d="M115-194c53 0 69 39 70 98 0 66-23 100-70 100C84 3 66-7 56-30L54 0H23l1-261h32v101c10-23 28-34 59-34zm-8 174c40 0 45-34 45-75 0-40-5-75-45-74-42 0-51 32-51 76 0 43 10 73 51 73" id="I"/><g id="m"><use transform="matrix(0.06172839506172839,0,0,0.06172839506172839,0,0)" xlink:href="#H"/><use transform="matrix(0.06172839506172839,0,0,0.06172839506172839,15.987654320987653,0)" xlink:href="#z"/><use transform="matrix(0.06172839506172839,0,0,0.06172839506172839,28.333333333333332,0)" xlink:href="#t"/><use transform="matrix(0.06172839506172839,0,0,0.06172839506172839,34.50617283950617,0)" xlink:href="#z"/><use transform="matrix(0.06172839506172839,0,0,0.06172839506172839,46.85185185185185,0)" xlink:href="#I"/><use transform="matrix(0.06172839506172839,0,0,0.06172839506172839,59.197530864197525,0)" xlink:href="#z"/><use transform="matrix(0.06172839506172839,0,0,0.06172839506172839,71.5432098765432,0)" xlink:href="#E"/><use transform="matrix(0.06172839506172839,0,0,0.06172839506172839,82.65432098765432,0)" xlink:href="#v"/></g><linearGradient gradientUnits="userSpaceOnUse" id="n" x1="760" y1="621.5" x2="760" y2="740"><stop offset="31.16%" stop-color="#c3f7c8"/><stop offset="46.38%" stop-color="#cfe4ff"/></linearGradient><path d="M212-179c-10-28-35-45-73-45-59 0-87 40-87 99 0 60 29 101 89 101 43 0 62-24 78-52l27 14C228-24 195 4 139 4 59 4 22-46 18-125c-6-104 99-153 187-111 19 9 31 26 39 46" id="J"/><g id="o"><use transform="matrix(0.06172839506172839,0,0,0.06172839506172839,0,0)" xlink:href="#J"/><use transform="matrix(0.06172839506172839,0,0,0.06172839506172839,15.987654320987653,0)" xlink:href="#F"/><use transform="matrix(0.06172839506172839,0,0,0.06172839506172839,28.333333333333332,0)" xlink:href="#x"/><use transform="matrix(0.06172839506172839,0,0,0.06172839506172839,35.67901234567901,0)" xlink:href="#v"/></g><path d="M30 0v-248h33v221h125V0H30" id="K"/><path d="M179-190L93 31C79 59 56 82 12 73V49c39 6 53-20 64-50L1-190h34L92-34l54-156h33" id="L"/><g id="p"><use transform="matrix(0.06172839506172839,0,0,0.06172839506172839,0,0)" xlink:href="#K"/><use transform="matrix(0.06172839506172839,0,0,0.06172839506172839,12.345679012345679,0)" xlink:href="#D"/><use transform="matrix(0.06172839506172839,0,0,0.06172839506172839,17.22222222222222,0)" xlink:href="#I"/><use transform="matrix(0.06172839506172839,0,0,0.06172839506172839,29.5679012345679,0)" xlink:href="#x"/><use transform="matrix(0.06172839506172839,0,0,0.06172839506172839,36.913580246913575,0)" xlink:href="#z"/><use transform="matrix(0.06172839506172839,0,0,0.06172839506172839,49.25925925925925,0)" xlink:href="#x"/><use transform="matrix(0.06172839506172839,0,0,0.06172839506172839,56.60493827160493,0)" xlink:href="#L"/></g><path d="M30-248c87 1 191-15 191 75 0 78-77 80-158 76V0H30v-248zm33 125c57 0 124 11 124-50 0-59-68-47-124-48v98" id="M"/><g id="q"><use transform="matrix(0.06172839506172839,0,0,0.06172839506172839,0,0)" xlink:href="#M"/><use transform="matrix(0.06172839506172839,0,0,0.06172839506172839,14.814814814814813,0)" xlink:href="#x"/><use transform="matrix(0.06172839506172839,0,0,0.06172839506172839,22.160493827160494,0)" xlink:href="#F"/><use transform="matrix(0.06172839506172839,0,0,0.06172839506172839,34.50617283950617,0)" xlink:href="#t"/><use transform="matrix(0.06172839506172839,0,0,0.06172839506172839,40.67901234567901,0)" xlink:href="#F"/><use transform="matrix(0.06172839506172839,0,0,0.06172839506172839,53.02469135802469,0)" xlink:href="#C"/><use transform="matrix(0.06172839506172839,0,0,0.06172839506172839,64.1358024691358,0)" xlink:href="#F"/><use transform="matrix(0.06172839506172839,0,0,0.06172839506172839,76.48148148148148,0)" xlink:href="#s"/></g></defs></g></svg>