<svg xmlns="http://www.w3.org/2000/svg" xmlns:xlink="http://www.w3.org/1999/xlink" xmlns:lucid="lucid" width="1543" height="844"><g transform="translate(-178.5 -339)" lucid:page-tab-id="0_0"><path d="M580 1049.17a6 6 0 0 1 6-6h290a6 6 0 0 1 6 6v126.33a6 6 0 0 1-6 6H586a6 6 0 0 1-6-6z" stroke="#000" stroke-opacity="0" stroke-width="3" fill="#fff" fill-opacity="0"/><use xlink:href="#a" transform="matrix(1,0,0,1,585,1048.166666666667) translate(4.648148148148238 47.64930555555554)"/><use xlink:href="#b" transform="matrix(1,0,0,1,585,1048.166666666667) translate(199.70987654320984 47.64930555555554)"/><use xlink:href="#c" transform="matrix(1,0,0,1,585,1048.166666666667) translate(7.179012345679098 100.98263888888886)"/><use xlink:href="#d" transform="matrix(1,0,0,1,585,1048.166666666667) translate(44.21604938271612 100.98263888888886)"/><path d="M580 820a20 20 0 0 1 20-20h20a20 20 0 0 1 20 20v101.5a20 20 0 0 1-20 20h-20a20 20 0 0 1-20-20z" stroke="#000" stroke-width="3" fill="url(#e)"/><path d="M700 820a20 20 0 0 1 20-20h20a20 20 0 0 1 20 20v101.5a20 20 0 0 1-20 20h-20a20 20 0 0 1-20-20z" stroke="#000" stroke-width="3" fill="url(#f)"/><path d="M822 820a20 20 0 0 1 20-20h20a20 20 0 0 1 20 20v101.5a20 20 0 0 1-20 20h-20a20 20 0 0 1-20-20z" stroke="#000" stroke-width="3" fill="url(#g)"/><path d="M853.76 957.2l-.43 25M849.76 957.12l-.43 25.02M841.67 962.15l10.3-17.15 9.7 17.5m-9.7-17.5l-.15 8.5M861.4 977.2l-10.28 17.13-9.7-17.5m9.7 17.5l.14-8.5" stroke="#000" stroke-width="2" fill="none"/><path d="M580 1017.83a20 20 0 0 1 20-20h260a20 20 0 0 1 20 20v7.34a20 20 0 0 1-20 20H600a20 20 0 0 1-20-20z" stroke="#000" stroke-width="3" fill="#fff"/><use xlink:href="#h" transform="matrix(1,0,0,1,585,1002.8333333333334) translate(65.71487654320988 27.263888888888893)"/><path d="M732 957.16v25M728 957.16v25M720 962.32L730 945l10 17.32M730 945v8.5M740 977l-10 17.33L720 977m10 17.33v-8.5M612.24 957.13l.42 25M608.24 957.2l.42 25M600.33 962.5l9.7-17.5 10.3 17.15M610.03 945l.15 8.5M620.57 976.85l-9.7 17.48-10.3-17.15m10.3 17.15l-.15-8.5" stroke="#000" stroke-width="2" fill="none"/><path d="M580 500a20 20 0 0 1 20-20h20a20 20 0 0 1 20 20v100a20 20 0 0 1-20 20h-20a20 20 0 0 1-20-20z" stroke="#000" stroke-width="3" fill="url(#i)"/><path d="M702 500a20 20 0 0 1 20-20h18a20 20 0 0 1 20 20v100a20 20 0 0 1-20 20h-18a20 20 0 0 1-20-20z" stroke="#000" stroke-width="3" fill="url(#j)"/><path d="M822 500a20 20 0 0 1 20-20h18a20 20 0 0 1 20 20v100a20 20 0 0 1-20 20h-18a20 20 0 0 1-20-20z" stroke="#000" stroke-width="3" fill="url(#k)"/><path d="M686.34 552h-30.68M686.34 548h-30.68M681.18 540l17.32 10-17.32 10m17.32-10H690M660.82 560l-17.32-10 17.32-10m-17.32 10h8.5M806.34 552h-30.68M806.34 548h-30.68M801.18 540l17.32 10-17.32 10m17.32-10H810M780.82 560l-17.32-10 17.32-10m-17.32 10h8.5" stroke="#000" stroke-width="2" fill="none"/><path d="M580 395.17a20 20 0 0 1 20-20h260a20 20 0 0 1 20 20v7.33a20 20 0 0 1-20 20H600a20 20 0 0 1-20-20z" stroke="#000" stroke-width="3" fill="#fff"/><use xlink:href="#l" transform="matrix(1,0,0,1,585,380.1666670588876) translate(105.29512345679012 27.263888888888893)"/><path d="M610.9 425l-.6 35" stroke="#000" stroke-width="2" fill="none"/><path d="M611.86 425.04l-1.95-.03.03-1h1.95z" stroke="#000" stroke-width=".05"/><path d="M610.05 475.26l-4.4-14.34 9.27.16z" stroke="#000" stroke-width="2"/><path d="M850.1 425l.6 35" stroke="#000" stroke-width="2" fill="none"/><path d="M851.08 425l-1.95.04V424h1.94z" stroke="#000" stroke-width=".05"/><path d="M850.95 475.26l-4.88-14.18 9.27-.16z" stroke="#000" stroke-width="2"/><path d="M731 425v35" stroke="#000" stroke-width="2" fill="none"/><path d="M731.97 425.03h-1.95V424h1.95z" stroke="#000" stroke-width=".05"/><path d="M731 475.26L726.36 461h9.27z" stroke="#000" stroke-width="2"/><path d="M730 341v14.17M730 341.03V340" stroke="#000" stroke-width="2" fill="none"/><path d="M730 370.43l-4.63-14.26h9.26z" stroke="#000" stroke-width="2"/><path d="M979 820a20 20 0 0 1 20-20h20a20 20 0 0 1 20 20v101.5a20 20 0 0 1-20 20h-20a20 20 0 0 1-20-20z" stroke="#000" stroke-width="3" fill="url(#m)"/><path d="M1099 820a20 20 0 0 1 20-20h20a20 20 0 0 1 20 20v101.5a20 20 0 0 1-20 20h-20a20 20 0 0 1-20-20z" stroke="#000" stroke-width="3" fill="url(#n)"/><path d="M1219 820a20 20 0 0 1 20-20h20a20 20 0 0 1 20 20v101.5a20 20 0 0 1-20 20h-20a20 20 0 0 1-20-20z" stroke="#000" stroke-width="3" fill="url(#o)"/><path d="M1248.98 944l-.57 33.83" stroke="#000" stroke-width="2" fill="none"/><path d="M1249.96 944.04L1248 944l.03-1h1.94z" stroke="#000" stroke-width=".05"/><path d="M1248.15 993.1l-4.4-14.34 9.28.15z" stroke="#000" stroke-width="2"/><path d="M979 1017.83a20 20 0 0 1 20-20h260a20 20 0 0 1 20 20v7.34a20 20 0 0 1-20 20H999a20 20 0 0 1-20-20z" stroke="#000" stroke-width="3" fill="#dfe3e8"/><use xlink:href="#p" transform="matrix(1,0,0,1,983.9999999852791,1002.8333333333336) translate(24.10376543209876 27.263888888888893)"/><use xlink:href="#q" transform="matrix(1,0,0,1,983.9999999852791,1002.8333333333336) translate(132.90623456790124 27.263888888888893)"/><path d="M1129 944v33.83" stroke="#000" stroke-width="2" fill="none"/><path d="M1129.97 944.03h-1.94V943h1.94z" stroke="#000" stroke-width=".05"/><path d="M1129 993.1l-4.63-14.27h9.27z" stroke="#000" stroke-width="2"/><path d="M1009.02 944l.57 33.83" stroke="#000" stroke-width="2" fill="none"/><path d="M1010 944l-1.96.04V943h1.94z" stroke="#000" stroke-width=".05"/><path d="M1009.85 993.1l-4.88-14.2 9.27-.14z" stroke="#000" stroke-width="2"/><path d="M1054.66 868.75h9.56m9.56 0h9.56M1054.66 872.75h9.56m9.56 0h9.56M1059.82 880.75l-17.32-10 17.32-10m-17.32 10h8.5M1078.18 860.75l17.32 10-17.32 10m17.32-10h-8.5M1174.66 868.75h9.56m9.56 0h9.56M1174.66 872.75h9.56m9.56 0h9.56M1179.82 880.75l-17.32-10 17.32-10m-17.32 10h8.5M1198.18 860.75l17.32 10-17.32 10m17.32-10h-8.5" stroke="#000" stroke-width="2" fill="none"/><path d="M979 500a20 20 0 0 1 20-20h20a20 20 0 0 1 20 20v100a20 20 0 0 1-20 20h-20a20 20 0 0 1-20-20z" stroke="#000" stroke-width="3" fill="url(#r)"/><path d="M1099 500a20 20 0 0 1 20-20h20a20 20 0 0 1 20 20v100a20 20 0 0 1-20 20h-20a20 20 0 0 1-20-20z" stroke="#000" stroke-width="3" fill="url(#s)"/><path d="M1219 500a20 20 0 0 1 20-20h20a20 20 0 0 1 20 20v100a20 20 0 0 1-20 20h-20a20 20 0 0 1-20-20z" stroke="#000" stroke-width="3" fill="url(#t)"/><path d="M979 395.17a20 20 0 0 1 20-20h260a20 20 0 0 1 20 20v7.33a20 20 0 0 1-20 20H999a20 20 0 0 1-20-20z" stroke="#000" stroke-width="3" fill="#c3f7c8"/><use xlink:href="#u" transform="matrix(1,0,0,1,983.9999999852791,380.1666666666668) translate(58.714876543209876 27.263888888888893)"/><path d="M1011.67 438.2l-.44 26.18M1007.67 438.13l-.44 26.18M999.58 443.15l10.3-17.15 9.7 17.48m-9.7-17.48l-.15 8.5M1019.32 459.35l-10.3 17.15-9.7-17.48m9.7 17.48l.15-8.5M1250.33 438.13l.44 26.18M1246.33 438.2l.44 26.18M1238.42 443.48l9.7-17.48 10.3 17.15m-10.3-17.15l.15 8.5M1258.68 459.02l-9.7 17.48-10.3-17.15m10.3 17.15l-.15-8.5M1131 438.16v26.18M1127 438.16v26.18M1119 443.32l10-17.32 10 17.32M1129 426v8.5M1139 459.18l-10 17.32-10-17.32m10 17.32V468" stroke="#000" stroke-width="2" fill="none"/><path d="M941 1049.17a6 6 0 0 1 6-6h366a6 6 0 0 1 6 6v126.33a6 6 0 0 1-6 6H947a6 6 0 0 1-6-6z" stroke="#000" stroke-opacity="0" stroke-width="3" fill="#fff" fill-opacity="0"/><use xlink:href="#a" transform="matrix(1,0,0,1,946.0000000098138,1048.166666666667) translate(23.629629629629733 47.64930555555554)"/><use xlink:href="#v" transform="matrix(1,0,0,1,946.0000000098138,1048.166666666667) translate(218.69135802469134 47.64930555555554)"/><use xlink:href="#w" transform="matrix(1,0,0,1,946.0000000098138,1048.166666666667) translate(319.6790123456789 47.64930555555554)"/><use xlink:href="#x" transform="matrix(1,0,0,1,946.0000000098138,1048.166666666667) translate(4.061728395061806 100.98263888888886)"/><use xlink:href="#y" transform="matrix(1,0,0,1,946.0000000098138,1048.166666666667) translate(166.7777777777778 100.98263888888886)"/><path d="M581 626a6 6 0 0 1 6-6h288a6 6 0 0 1 6 6v128a6 6 0 0 1-6 6H587a6 6 0 0 1-6-6z" stroke="#000" stroke-opacity="0" stroke-width="3" fill="#fff" fill-opacity="0"/><use xlink:href="#a" transform="matrix(1,0,0,1,586.0000000073604,625) translate(3.1481481481482376 47.74305555555554)"/><use xlink:href="#b" transform="matrix(1,0,0,1,586.0000000073604,625) translate(198.20987654320984 47.74305555555554)"/><use xlink:href="#c" transform="matrix(1,0,0,1,586.0000000073604,625) translate(64.81481481481484 101.07638888888886)"/><use xlink:href="#z" transform="matrix(1,0,0,1,586.0000000073604,625) translate(101.85185185185186 101.07638888888886)"/><path d="M940 626a6 6 0 0 1 6-6h366a6 6 0 0 1 6 6v128a6 6 0 0 1-6 6H946a6 6 0 0 1-6-6z" stroke="#000" stroke-opacity="0" stroke-width="3" fill="#fff" fill-opacity="0"/><use xlink:href="#a" transform="matrix(1,0,0,1,945,625.0000000000002) translate(10.1111111111112 47.74305555555554)"/><use xlink:href="#v" transform="matrix(1,0,0,1,945,625.0000000000002) translate(205.1728395061728 47.74305555555554)"/><use xlink:href="#A" transform="matrix(1,0,0,1,945,625.0000000000002) translate(306.1604938271604 47.74305555555554)"/><use xlink:href="#B" transform="matrix(1,0,0,1,945,625.0000000000002) translate(49.6790123456791 101.07638888888886)"/><path d="M1360 366a6 6 0 0 1 6-6h348a6 6 0 0 1 6 6v188a6 6 0 0 1-6 6h-348a6 6 0 0 1-6-6z" stroke="#000" stroke-opacity="0" stroke-width="3" fill="#fff" fill-opacity="0"/><use xlink:href="#C" transform="matrix(1,0,0,1,1365,365.0000000000002) translate(34.05555555555557 37.937499999999986)"/><use xlink:href="#D" transform="matrix(1,0,0,1,1365,365.0000000000002) translate(94.05555555555554 37.937499999999986)"/><use xlink:href="#E" transform="matrix(1,0,0,1,1365,365.0000000000002) translate(1.8333333333333997 85.93749999999997)"/><use xlink:href="#F" transform="matrix(1,0,0,1,1365,365.0000000000002) translate(97.38888888888894 85.93749999999997)"/><use xlink:href="#G" transform="matrix(1,0,0,1,1365,365.0000000000002) translate(164.05555555555557 85.93749999999997)"/><use xlink:href="#H" transform="matrix(1,0,0,1,1365,365.0000000000002) translate(4.000000000000057 133.93749999999997)"/><use xlink:href="#I" transform="matrix(1,0,0,1,1365,365.0000000000002) translate(161.55555555555557 133.93749999999997)"/><use xlink:href="#J" transform="matrix(1,0,0,1,1365,365.0000000000002) translate(206 133.93749999999997)"/><use xlink:href="#K" transform="matrix(1,0,0,1,1365,365.0000000000002) translate(46.27777777777783 181.93749999999994)"/><use xlink:href="#L" transform="matrix(1,0,0,1,1365,365.0000000000002) translate(150.50000000000003 181.93749999999994)"/><path d="M1281.5 398.83h2.9m3.88 0h5.8m3.9 0h5.8m3.88 0h5.8m3.88 0h5.82m3.87 0h5.8m3.9 0h5.8m3.88 0h5.82m3.87 0h2.9" stroke="#3a414a" stroke-width="2" fill="none"/><path d="M1281.53 399.8h-1.03v-1.94h1.03zM1360 399.8h-1.03v-1.94h1.03z" stroke="#3a414a" stroke-width=".05" fill="#3a414a"/><path d="M192 363.63a6 6 0 0 1 6-6h286a6 6 0 0 1 6 6v286a6 6 0 0 1-6 6H198a6 6 0 0 1-6-6z" stroke="#000" stroke-opacity="0" stroke-width="3" fill="#fff" fill-opacity="0"/><g><use xlink:href="#M" transform="matrix(1,0,0,1,197.00000002698823,362.6262119592632) translate(10.722222222222257 36.499999999999986)"/><use xlink:href="#N" transform="matrix(1,0,0,1,197.00000002698823,362.6262119592632) translate(46.2777777777778 36.499999999999986)"/><use xlink:href="#O" transform="matrix(1,0,0,1,197.00000002698823,362.6262119592632) translate(159.5 36.499999999999986)"/><use xlink:href="#P" transform="matrix(1,0,0,1,197.00000002698823,362.6262119592632) translate(35.1666666666667 84.49999999999997)"/><use xlink:href="#Q" transform="matrix(1,0,0,1,197.00000002698823,362.6262119592632) translate(197.27777777777777 84.49999999999997)"/><use xlink:href="#R" transform="matrix(1,0,0,1,197.00000002698823,362.6262119592632) translate(16.33333333333337 132.49999999999997)"/><use xlink:href="#S" transform="matrix(1,0,0,1,197.00000002698823,362.6262119592632) translate(154 132.49999999999997)"/><use xlink:href="#T" transform="matrix(1,0,0,1,197.00000002698823,362.6262119592632) translate(231.77777777777774 132.49999999999997)"/><use xlink:href="#U" transform="matrix(1,0,0,1,197.00000002698823,362.6262119592632) translate(6.333333333333371 180.49999999999994)"/><use xlink:href="#S" transform="matrix(1,0,0,1,197.00000002698823,362.6262119592632) translate(130.55555555555557 180.49999999999994)"/><use xlink:href="#V" transform="matrix(1,0,0,1,197.00000002698823,362.6262119592632) translate(208.33333333333331 180.49999999999994)"/><use xlink:href="#W" transform="matrix(1,0,0,1,197.00000002698823,362.6262119592632) translate(6.277777777777828 228.49999999999994)"/><use xlink:href="#X" transform="matrix(1,0,0,1,197.00000002698823,362.6262119592632) translate(61.833333333333364 228.49999999999994)"/><use xlink:href="#Y" transform="matrix(1,0,0,1,197.00000002698823,362.6262119592632) translate(181.72222222222223 228.49999999999994)"/><use xlink:href="#Q" transform="matrix(1,0,0,1,197.00000002698823,362.6262119592632) translate(226.16666666666666 228.49999999999994)"/><use xlink:href="#Z" transform="matrix(1,0,0,1,197.00000002698823,362.6262119592632) translate(80.72222222222224 276.49999999999994)"/></g><path d="M491 398.83h2.88m3.85 0h5.76m3.84 0h5.77m3.85 0h5.77m3.84 0h5.77m3.84 0h5.77m3.84 0h5.77m3.84 0h5.76m3.85 0h5.77m3.85 0h2.88" stroke="#3a414a" stroke-width="2" fill="none"/><path d="M491.03 399.8H490v-1.94h1.03zM578.5 399.8h-1.03v-1.94h1.03z" stroke="#3a414a" stroke-width=".05" fill="#3a414a"/><path d="M1129 341v14.17M1129 341.03V340" stroke="#000" stroke-width="2" fill="none"/><path d="M1129 370.43l-4.63-14.26h9.27z" stroke="#000" stroke-width="2"/><path d="M180 826.33a6 6 0 0 1 6-6h310a6 6 0 0 1 6 6v228a6 6 0 0 1-6 6H186a6 6 0 0 1-6-6z" stroke="#000" stroke-opacity="0" stroke-width="3" fill="#fff" fill-opacity="0"/><g><use xlink:href="#M" transform="matrix(1,0,0,1,185,825.3333333333336) translate(36.7777777777778 31.99999999999999)"/><use xlink:href="#aa" transform="matrix(1,0,0,1,185,825.3333333333336) translate(72.33333333333334 31.99999999999999)"/><use xlink:href="#ab" transform="matrix(1,0,0,1,185,825.3333333333336) translate(81.05555555555559 79.99999999999997)"/><use xlink:href="#ac" transform="matrix(1,0,0,1,185,825.3333333333336) translate(0.05555555555559977 127.99999999999996)"/><use xlink:href="#ad" transform="matrix(1,0,0,1,185,825.3333333333336) translate(279.6111111111111 127.99999999999996)"/><use xlink:href="#S" transform="matrix(1,0,0,1,185,825.3333333333336) translate(2.111111111111171 175.99999999999994)"/><use xlink:href="#ae" transform="matrix(1,0,0,1,185,825.3333333333336) translate(79.88888888888891 175.99999999999994)"/><use xlink:href="#Q" transform="matrix(1,0,0,1,185,825.3333333333336) translate(255.33333333333331 175.99999999999994)"/><use xlink:href="#af" transform="matrix(1,0,0,1,185,825.3333333333336) translate(3.3333333333333712 223.99999999999994)"/><use xlink:href="#ag" transform="matrix(1,0,0,1,185,825.3333333333336) translate(140.88888888888889 223.99999999999994)"/></g><path d="M503 1021.5h3.2m4.25 0h6.4m4.24 0h6.38m4.26 0h6.38m4.26 0h6.38m4.26 0h6.4m4.24 0h6.4m4.25 0h3.2" stroke="#3a414a" stroke-width="2" fill="none"/><path d="M503.03 1022.48H502v-1.96h1.03zM578.5 1022.48h-1.03v-1.96h1.03z" stroke="#3a414a" stroke-width=".05" fill="#3a414a"/><path d="M1360 847.5a6 6 0 0 1 6-6h348a6 6 0 0 1 6 6v185.67a6 6 0 0 1-6 6h-348a6 6 0 0 1-6-6z" stroke="#000" stroke-opacity="0" stroke-width="3" fill="#fff" fill-opacity="0"/><g><use xlink:href="#M" transform="matrix(1,0,0,1,1365,846.5000000000002) translate(1.7777777777778283 37.874999999999986)"/><use xlink:href="#ah" transform="matrix(1,0,0,1,1365,846.5000000000002) translate(37.33333333333337 37.874999999999986)"/><use xlink:href="#ai" transform="matrix(1,0,0,1,1365,846.5000000000002) translate(177.2222222222222 37.874999999999986)"/><use xlink:href="#aj" transform="matrix(1,0,0,1,1365,846.5000000000002) translate(7.500000000000057 85.87499999999997)"/><use xlink:href="#F" transform="matrix(1,0,0,1,1365,846.5000000000002) translate(47.38888888888893 85.87499999999997)"/><use xlink:href="#ak" transform="matrix(1,0,0,1,1365,846.5000000000002) translate(114.05555555555557 85.87499999999997)"/><use xlink:href="#al" transform="matrix(1,0,0,1,1365,846.5000000000002) translate(271.49999999999994 85.87499999999997)"/><use xlink:href="#am" transform="matrix(1,0,0,1,1365,846.5000000000002) translate(17.388888888888943 133.87499999999997)"/><use xlink:href="#F" transform="matrix(1,0,0,1,1365,846.5000000000002) translate(75.0555555555556 133.87499999999997)"/><use xlink:href="#H" transform="matrix(1,0,0,1,1365,846.5000000000002) translate(141.72222222222223 133.87499999999997)"/><use xlink:href="#ad" transform="matrix(1,0,0,1,1365,846.5000000000002) translate(299.2777777777777 133.87499999999997)"/><use xlink:href="#an" transform="matrix(1,0,0,1,1365,846.5000000000002) translate(71.77777777777781 181.87499999999994)"/><use xlink:href="#ao" transform="matrix(1,0,0,1,1365,846.5000000000002) translate(200.44444444444446 181.87499999999994)"/></g><path d="M1281.5 1021.5h2.9m3.88 0h5.8m3.9 0h5.8m3.88 0h5.8m3.88 0h5.82m3.87 0h5.8m3.9 0h5.8m3.88 0h5.82m3.87 0h2.9" stroke="#3a414a" stroke-width="2" fill="none"/><path d="M1281.53 1022.48h-1.03v-1.96h1.03zM1360 1022.48h-1.03v-1.96h1.03z" stroke="#3a414a" stroke-width=".05" fill="#3a414a"/><defs><path d="M178-136c88 48 22 151-73 140C49-3 12-15 4-64l51-9c1 50 111 53 115 3-16-63-132-20-133-112 0-93 190-91 199-10l-50 12c-4-41-93-50-97-4 7 38 59 32 89 48" id="ap"/><path d="M114-194c63-2 87 48 72 110H63c-3 28 1 55 31 54 21-1 32-13 37-29l44 13C160-14 137 4 91 4 41 4 11-22 11-73c0-71 33-119 103-121zm30 77c14-47-50-61-67-22-3 6-6 13-8 22h75" id="aq"/><path d="M84-151c13-25 34-51 72-40l-8 41C67-170 71-64 56 0H6l36-190h47" id="ar"/><path d="M109 0H50L19-190h51L86-37l77-153h54" id="as"/><path d="M50-224l7-37h49l-7 37H50zM6 0l37-190h49L55 0H6" id="at"/><path d="M67-101c-8 29-7 73 27 71 23-2 32-16 39-37l48 9C170-19 141 4 91 4 36 4 7-28 12-86c6-75 61-124 140-103 26 7 40 29 43 59l-50 4c-1-20-9-34-29-34-35 0-41 29-49 59" id="au"/><path d="M144-137c-1-29-70-35-71-2 16 41 103 10 103 80C176 9 79 16 32-9 18-17 9-31 4-48l44-6c3 32 80 36 82 1-15-42-103-11-103-82 0-77 157-79 161-8" id="av"/><g id="a"><use transform="matrix(0.12345679012345674,0,0,0.12345679012345674,0,0)" xlink:href="#ap"/><use transform="matrix(0.12345679012345674,0,0,0.12345679012345674,29.62962962962962,0)" xlink:href="#aq"/><use transform="matrix(0.12345679012345674,0,0,0.12345679012345674,54.320987654320966,0)" xlink:href="#ar"/><use transform="matrix(0.12345679012345674,0,0,0.12345679012345674,71.60493827160491,0)" xlink:href="#as"/><use transform="matrix(0.12345679012345674,0,0,0.12345679012345674,96.29629629629625,0)" xlink:href="#at"/><use transform="matrix(0.12345679012345674,0,0,0.12345679012345674,108.64197530864192,0)" xlink:href="#au"/><use transform="matrix(0.12345679012345674,0,0,0.12345679012345674,133.33333333333326,0)" xlink:href="#aq"/><use transform="matrix(0.12345679012345674,0,0,0.12345679012345674,158.0246913580246,0)" xlink:href="#av"/></g><path d="M212 0h-52l-8-156L82 0H30L17-190h46l2 145 66-145h53l8 145 60-145h47" id="aw"/><path d="M72-63c-8 23 5 39 32 30L98-1C54 14 12-6 23-64l18-93H15l7-33h28l24-45h31l-8 45h35l-6 33H90" id="ax"/><path d="M150-105c8-23 8-54-22-51-68 7-54 98-72 156H6l50-261h50L85-158c15-20 33-36 66-36 95 0 34 128 28 194h-49" id="ay"/><g id="b"><use transform="matrix(0.12345679012345674,0,0,0.12345679012345674,0,0)" xlink:href="#aw"/><use transform="matrix(0.12345679012345674,0,0,0.12345679012345674,34.567901234567884,0)" xlink:href="#at"/><use transform="matrix(0.12345679012345674,0,0,0.12345679012345674,46.913580246913554,0)" xlink:href="#ax"/><use transform="matrix(0.12345679012345674,0,0,0.12345679012345674,61.60493827160491,0)" xlink:href="#ay"/></g><path d="M166-52c-4 17 5 29 24 23l-3 27c-30 11-74 1-67-34C105-15 91 4 56 4 23 4 3-15 2-49c0-64 63-67 128-67 10-22 3-53-29-45-13 3-22 10-25 24l-46-5c5-64 156-77 153 0-1 33-11 60-17 90zM97-88c-44-9-64 57-19 57 31 0 42-28 47-57H97" id="az"/><use transform="matrix(0.12345679012345674,0,0,0.12345679012345674,0,0)" xlink:href="#az" id="c"/><path d="M212 0l43-212L151 0h-37L90-212C82-137 65-70 52 0H6l48-248h70l20 187 93-187h69L258 0h-46" id="aA"/><path d="M132-28C118-9 101 4 69 4 30 4 10-23 10-62c0-70 24-129 92-132 31-1 47 14 56 35l19-102h49L179 0h-49zM62-69c0 22 7 39 29 39 45-2 54-45 57-90 2-27-10-40-33-40-44 0-53 48-53 91" id="aB"/><path d="M6 0l51-261h49L55 0H6" id="aC"/><g id="d"><use transform="matrix(0.12345679012345674,0,0,0.12345679012345674,0,0)" xlink:href="#aA"/><use transform="matrix(0.12345679012345674,0,0,0.12345679012345674,36.91358024691357,0)" xlink:href="#at"/><use transform="matrix(0.12345679012345674,0,0,0.12345679012345674,49.25925925925924,0)" xlink:href="#aB"/><use transform="matrix(0.12345679012345674,0,0,0.12345679012345674,76.29629629629626,0)" xlink:href="#aB"/><use transform="matrix(0.12345679012345674,0,0,0.12345679012345674,103.33333333333329,0)" xlink:href="#aC"/><use transform="matrix(0.12345679012345674,0,0,0.12345679012345674,115.67901234567896,0)" xlink:href="#aq"/><use transform="matrix(0.12345679012345674,0,0,0.12345679012345674,140.3703703703703,0)" xlink:href="#aw"/><use transform="matrix(0.12345679012345674,0,0,0.12345679012345674,174.93827160493817,0)" xlink:href="#az"/><use transform="matrix(0.12345679012345674,0,0,0.12345679012345674,199.6296296296295,0)" xlink:href="#ar"/><use transform="matrix(0.12345679012345674,0,0,0.12345679012345674,216.91358024691345,0)" xlink:href="#aq"/></g><linearGradient gradientUnits="userSpaceOnUse" id="e" x1="580" y1="941.5" x2="580" y2="800"><stop offset="19.2%" stop-color="#ced4db"/><stop offset="26.45%" stop-color="#fff"/><stop offset="34.06%" stop-color="#fff"/><stop offset="42.03%" stop-color="#cfe4ff"/><stop offset="68.84%" stop-color="#cfe4ff"/><stop offset="78.62%" stop-color="#c3f7c8"/></linearGradient><linearGradient gradientUnits="userSpaceOnUse" id="f" x1="700" y1="941.5" x2="700" y2="800"><stop offset="19.2%" stop-color="#ced4db"/><stop offset="26.45%" stop-color="#fff"/><stop offset="34.06%" stop-color="#fff"/><stop offset="42.03%" stop-color="#cfe4ff"/><stop offset="68.84%" stop-color="#cfe4ff"/><stop offset="78.62%" stop-color="#c3f7c8"/></linearGradient><linearGradient gradientUnits="userSpaceOnUse" id="g" x1="822" y1="941.5" x2="822" y2="800"><stop offset="19.2%" stop-color="#ced4db"/><stop offset="26.45%" stop-color="#fff"/><stop offset="34.06%" stop-color="#fff"/><stop offset="42.03%" stop-color="#cfe4ff"/><stop offset="68.84%" stop-color="#cfe4ff"/><stop offset="78.62%" stop-color="#c3f7c8"/></linearGradient><path d="M240 0l2-218c-23 76-54 145-80 218h-23L58-218 59 0H30v-248h44l77 211c21-75 51-140 76-211h43V0h-30" id="aD"/><path d="M24-231v-30h32v30H24zM24 0v-190h32V0H24" id="aE"/><path d="M85-194c31 0 48 13 60 33l-1-100h32l1 261h-30c-2-10 0-23-3-31C134-8 116 4 85 4 32 4 16-35 15-94c0-66 23-100 70-100zm9 24c-40 0-46 34-46 75 0 40 6 74 45 74 42 0 51-32 51-76 0-42-9-74-50-73" id="aF"/><path d="M24 0v-261h32V0H24" id="aG"/><path d="M100-194c63 0 86 42 84 106H49c0 40 14 67 53 68 26 1 43-12 49-29l28 8c-11 28-37 45-77 45C44 4 14-33 15-96c1-61 26-98 85-98zm52 81c6-60-76-77-97-28-3 7-6 17-6 28h103" id="aH"/><path d="M206 0h-36l-40-164L89 0H53L-1-190h32L70-26l43-164h34l41 164 42-164h31" id="aI"/><path d="M141-36C126-15 110 5 73 4 37 3 15-17 15-53c-1-64 63-63 125-63 3-35-9-54-41-54-24 1-41 7-42 31l-33-3c5-37 33-52 76-52 45 0 72 20 72 64v82c-1 20 7 32 28 27v20c-31 9-61-2-59-35zM48-53c0 20 12 33 32 33 41-3 63-29 60-74-43 2-92-5-92 41" id="aJ"/><path d="M114-163C36-179 61-72 57 0H25l-1-190h30c1 12-1 29 2 39 6-27 23-49 58-41v29" id="aK"/><g id="h"><use transform="matrix(0.08641975308641976,0,0,0.08641975308641976,0,0)" xlink:href="#aD"/><use transform="matrix(0.08641975308641976,0,0,0.08641975308641976,25.83950617283951,0)" xlink:href="#aE"/><use transform="matrix(0.08641975308641976,0,0,0.08641975308641976,32.66666666666667,0)" xlink:href="#aF"/><use transform="matrix(0.08641975308641976,0,0,0.08641975308641976,49.95061728395062,0)" xlink:href="#aF"/><use transform="matrix(0.08641975308641976,0,0,0.08641975308641976,67.23456790123457,0)" xlink:href="#aG"/><use transform="matrix(0.08641975308641976,0,0,0.08641975308641976,74.06172839506173,0)" xlink:href="#aH"/><use transform="matrix(0.08641975308641976,0,0,0.08641975308641976,91.34567901234568,0)" xlink:href="#aI"/><use transform="matrix(0.08641975308641976,0,0,0.08641975308641976,113.7283950617284,0)" xlink:href="#aJ"/><use transform="matrix(0.08641975308641976,0,0,0.08641975308641976,131.01234567901236,0)" xlink:href="#aK"/><use transform="matrix(0.08641975308641976,0,0,0.08641975308641976,141.2962962962963,0)" xlink:href="#aH"/></g><linearGradient gradientUnits="userSpaceOnUse" id="i" x1="580" y1="620" x2="580" y2="480"><stop offset="19.2%" stop-color="#ced4db"/><stop offset="26.45%" stop-color="#fff"/><stop offset="45.29%" stop-color="#fff"/><stop offset="52.54%" stop-color="#cfe4ff"/><stop offset="73.91%" stop-color="#cfe4ff"/><stop offset="82.97%" stop-color="#c3f7c8"/></linearGradient><linearGradient gradientUnits="userSpaceOnUse" id="j" x1="702" y1="620" x2="702" y2="480"><stop offset="19.2%" stop-color="#ced4db"/><stop offset="26.45%" stop-color="#fff"/><stop offset="45.29%" stop-color="#fff"/><stop offset="52.54%" stop-color="#cfe4ff"/><stop offset="73.91%" stop-color="#cfe4ff"/><stop offset="82.97%" stop-color="#c3f7c8"/></linearGradient><linearGradient gradientUnits="userSpaceOnUse" id="k" x1="822" y1="620" x2="822" y2="480"><stop offset="19.2%" stop-color="#ced4db"/><stop offset="26.45%" stop-color="#fff"/><stop offset="45.29%" stop-color="#fff"/><stop offset="52.54%" stop-color="#cfe4ff"/><stop offset="73.91%" stop-color="#cfe4ff"/><stop offset="82.97%" stop-color="#c3f7c8"/></linearGradient><path d="M30-248c87 1 191-15 191 75 0 78-77 80-158 76V0H30v-248zm33 125c57 0 124 11 124-50 0-59-68-47-124-48v98" id="aL"/><path d="M100-194c62-1 85 37 85 99 1 63-27 99-86 99S16-35 15-95c0-66 28-99 85-99zM99-20c44 1 53-31 53-75 0-43-8-75-51-75s-53 32-53 75 10 74 51 75" id="aM"/><path d="M141 0L90-78 38 0H4l68-98-65-92h35l48 74 47-74h35l-64 92 68 98h-35" id="aN"/><path d="M179-190L93 31C79 59 56 82 12 73V49c39 6 53-20 64-50L1-190h34L92-34l54-156h33" id="aO"/><g id="l"><use transform="matrix(0.08641975308641976,0,0,0.08641975308641976,0,0)" xlink:href="#aL"/><use transform="matrix(0.08641975308641976,0,0,0.08641975308641976,20.740740740740744,0)" xlink:href="#aK"/><use transform="matrix(0.08641975308641976,0,0,0.08641975308641976,31.024691358024693,0)" xlink:href="#aM"/><use transform="matrix(0.08641975308641976,0,0,0.08641975308641976,48.308641975308646,0)" xlink:href="#aN"/><use transform="matrix(0.08641975308641976,0,0,0.08641975308641976,63.8641975308642,0)" xlink:href="#aO"/></g><linearGradient gradientUnits="userSpaceOnUse" id="m" x1="979" y1="941.5" x2="979" y2="800"><stop offset="19.93%" stop-color="#fff"/><stop offset="27.17%" stop-color="#cfe4ff"/><stop offset="68.12%" stop-color="#cfe4ff"/><stop offset="75%" stop-color="#c3f7c8"/></linearGradient><linearGradient gradientUnits="userSpaceOnUse" id="n" x1="1099" y1="941.5" x2="1099" y2="800"><stop offset="19.93%" stop-color="#fff"/><stop offset="27.17%" stop-color="#cfe4ff"/><stop offset="68.12%" stop-color="#cfe4ff"/><stop offset="75%" stop-color="#c3f7c8"/></linearGradient><linearGradient gradientUnits="userSpaceOnUse" id="o" x1="1219" y1="941.5" x2="1219" y2="800"><stop offset="19.93%" stop-color="#fff"/><stop offset="27.17%" stop-color="#cfe4ff"/><stop offset="68.12%" stop-color="#cfe4ff"/><stop offset="75%" stop-color="#c3f7c8"/></linearGradient><path d="M185-189c-5-48-123-54-124 2 14 75 158 14 163 119 3 78-121 87-175 55-17-10-28-26-33-46l33-7c5 56 141 63 141-1 0-78-155-14-162-118-5-82 145-84 179-34 5 7 8 16 11 25" id="aP"/><path d="M106-169C34-169 62-67 57 0H25v-261h32l-1 103c12-21 28-36 61-36 89 0 53 116 60 194h-32v-121c2-32-8-49-39-48" id="aQ"/><g id="p"><use transform="matrix(0.08641975308641976,0,0,0.08641975308641976,0,0)" xlink:href="#aP"/><use transform="matrix(0.08641975308641976,0,0,0.08641975308641976,20.740740740740744,0)" xlink:href="#aQ"/><use transform="matrix(0.08641975308641976,0,0,0.08641975308641976,38.0246913580247,0)" xlink:href="#aJ"/><use transform="matrix(0.08641975308641976,0,0,0.08641975308641976,55.308641975308646,0)" xlink:href="#aK"/><use transform="matrix(0.08641975308641976,0,0,0.08641975308641976,65.5925925925926,0)" xlink:href="#aH"/><use transform="matrix(0.08641975308641976,0,0,0.08641975308641976,82.87654320987654,0)" xlink:href="#aF"/></g><path d="M30-248c118-7 216 8 213 122C240-48 200 0 122 0H30v-248zM63-27c89 8 146-16 146-99s-60-101-146-95v194" id="aR"/><path d="M59-47c-2 24 18 29 38 22v24C64 9 27 4 27-40v-127H5v-23h24l9-43h21v43h35v23H59v120" id="aS"/><path d="M115-194c53 0 69 39 70 98 0 66-23 100-70 100C84 3 66-7 56-30L54 0H23l1-261h32v101c10-23 28-34 59-34zm-8 174c40 0 45-34 45-75 0-40-5-75-45-74-42 0-51 32-51 76 0 43 10 73 51 73" id="aT"/><path d="M135-143c-3-34-86-38-87 0 15 53 115 12 119 90S17 21 10-45l28-5c4 36 97 45 98 0-10-56-113-15-118-90-4-57 82-63 122-42 12 7 21 19 24 35" id="aU"/><g id="q"><use transform="matrix(0.08641975308641976,0,0,0.08641975308641976,0,0)" xlink:href="#aR"/><use transform="matrix(0.08641975308641976,0,0,0.08641975308641976,22.38271604938272,0)" xlink:href="#aJ"/><use transform="matrix(0.08641975308641976,0,0,0.08641975308641976,39.66666666666667,0)" xlink:href="#aS"/><use transform="matrix(0.08641975308641976,0,0,0.08641975308641976,48.308641975308646,0)" xlink:href="#aJ"/><use transform="matrix(0.08641975308641976,0,0,0.08641975308641976,65.5925925925926,0)" xlink:href="#aT"/><use transform="matrix(0.08641975308641976,0,0,0.08641975308641976,82.87654320987654,0)" xlink:href="#aJ"/><use transform="matrix(0.08641975308641976,0,0,0.08641975308641976,100.16049382716048,0)" xlink:href="#aU"/><use transform="matrix(0.08641975308641976,0,0,0.08641975308641976,115.71604938271604,0)" xlink:href="#aH"/></g><linearGradient gradientUnits="userSpaceOnUse" id="r" x1="979" y1="620" x2="979" y2="480"><stop offset="27.9%" stop-color="#ced4db"/><stop offset="35.87%" stop-color="#fff"/><stop offset="61.23%" stop-color="#fff"/><stop offset="68.12%" stop-color="#cfe4ff"/></linearGradient><linearGradient gradientUnits="userSpaceOnUse" id="s" x1="1099" y1="620" x2="1099" y2="480"><stop offset="27.9%" stop-color="#ced4db"/><stop offset="35.87%" stop-color="#fff"/><stop offset="61.23%" stop-color="#fff"/><stop offset="68.12%" stop-color="#cfe4ff"/></linearGradient><linearGradient gradientUnits="userSpaceOnUse" id="t" x1="1219" y1="620" x2="1219" y2="480"><stop offset="27.9%" stop-color="#ced4db"/><stop offset="35.87%" stop-color="#fff"/><stop offset="61.23%" stop-color="#fff"/><stop offset="68.12%" stop-color="#cfe4ff"/></linearGradient><path d="M140-251c81 0 123 46 123 126C263-46 219 4 140 4 59 4 17-45 17-125s42-126 123-126zm0 227c63 0 89-41 89-101s-29-99-89-99c-61 0-89 39-89 99S79-25 140-24" id="aV"/><path d="M96-169c-40 0-48 33-48 73s9 75 48 75c24 0 41-14 43-38l32 2c-6 37-31 61-74 61-59 0-76-41-82-99-10-93 101-131 147-64 4 7 5 14 7 22l-32 3c-4-21-16-35-41-35" id="aW"/><g id="u"><use transform="matrix(0.08641975308641976,0,0,0.08641975308641976,0,0)" xlink:href="#aV"/><use transform="matrix(0.08641975308641976,0,0,0.08641975308641976,24.19753086419753,0)" xlink:href="#aK"/><use transform="matrix(0.08641975308641976,0,0,0.08641975308641976,34.48148148148148,0)" xlink:href="#aW"/><use transform="matrix(0.08641975308641976,0,0,0.08641975308641976,50.037037037037045,0)" xlink:href="#aQ"/><use transform="matrix(0.08641975308641976,0,0,0.08641975308641976,67.32098765432099,0)" xlink:href="#aH"/><use transform="matrix(0.08641975308641976,0,0,0.08641975308641976,84.60493827160494,0)" xlink:href="#aU"/><use transform="matrix(0.08641975308641976,0,0,0.08641975308641976,100.16049382716048,0)" xlink:href="#aS"/><use transform="matrix(0.08641975308641976,0,0,0.08641975308641976,108.80246913580245,0)" xlink:href="#aK"/><use transform="matrix(0.08641975308641976,0,0,0.08641975308641976,119.08641975308642,0)" xlink:href="#aJ"/><use transform="matrix(0.08641975308641976,0,0,0.08641975308641976,136.37037037037038,0)" xlink:href="#aS"/><use transform="matrix(0.08641975308641976,0,0,0.08641975308641976,145.01234567901236,0)" xlink:href="#aM"/><use transform="matrix(0.08641975308641976,0,0,0.08641975308641976,162.2962962962963,0)" xlink:href="#aK"/></g><g id="v"><use transform="matrix(0.12345679012345674,0,0,0.12345679012345674,0,0)" xlink:href="#aw"/><use transform="matrix(0.12345679012345674,0,0,0.12345679012345674,34.567901234567884,0)" xlink:href="#at"/><use transform="matrix(0.12345679012345674,0,0,0.12345679012345674,46.913580246913554,0)" xlink:href="#ax"/><use transform="matrix(0.12345679012345674,0,0,0.12345679012345674,61.60493827160491,0)" xlink:href="#ay"/></g><use transform="matrix(0.12345679012345674,0,0,0.12345679012345674,0,0)" xlink:href="#az" id="w"/><g id="x"><use transform="matrix(0.12345679012345674,0,0,0.12345679012345674,0,0)" xlink:href="#ap"/><use transform="matrix(0.12345679012345674,0,0,0.12345679012345674,29.62962962962962,0)" xlink:href="#ay"/><use transform="matrix(0.12345679012345674,0,0,0.12345679012345674,56.66666666666664,0)" xlink:href="#az"/><use transform="matrix(0.12345679012345674,0,0,0.12345679012345674,81.358024691358,0)" xlink:href="#ar"/><use transform="matrix(0.12345679012345674,0,0,0.12345679012345674,98.64197530864195,0)" xlink:href="#aq"/><use transform="matrix(0.12345679012345674,0,0,0.12345679012345674,123.33333333333329,0)" xlink:href="#aB"/></g><path d="M250-142C247-53 197 0 108 0H6l48-248c105-5 200 3 196 106zm-49 2c1-57-42-72-103-68L66-40c84 6 135-22 135-100" id="aX"/><path d="M87-160c15-17 32-34 63-34 99 1 59 172-1 192-36 12-78 0-87-29L54 0H6l52-261h49zm71 38c0-24-5-37-29-37-46 0-55 46-57 89-1 25 12 40 35 40 44 0 51-50 51-92" id="aY"/><g id="y"><use transform="matrix(0.12345679012345674,0,0,0.12345679012345674,0,0)" xlink:href="#aX"/><use transform="matrix(0.12345679012345674,0,0,0.12345679012345674,31.975308641975296,0)" xlink:href="#az"/><use transform="matrix(0.12345679012345674,0,0,0.12345679012345674,56.66666666666664,0)" xlink:href="#ax"/><use transform="matrix(0.12345679012345674,0,0,0.12345679012345674,71.358024691358,0)" xlink:href="#az"/><use transform="matrix(0.12345679012345674,0,0,0.12345679012345674,96.04938271604934,0)" xlink:href="#aY"/><use transform="matrix(0.12345679012345674,0,0,0.12345679012345674,123.08641975308636,0)" xlink:href="#az"/><use transform="matrix(0.12345679012345674,0,0,0.12345679012345674,147.77777777777771,0)" xlink:href="#av"/><use transform="matrix(0.12345679012345674,0,0,0.12345679012345674,172.46913580246905,0)" xlink:href="#aq"/></g><path d="M241-173c-1 82-78 91-166 86L58 0H6l48-248c87 0 188-12 187 75zm-53 2c0-43-48-36-90-36l-15 80c50 0 105 7 105-44" id="aZ"/><path d="M124-194c51 0 84 22 84 74C207-44 167 4 94 4 43 4 11-23 11-74c0-74 41-120 113-120zM99-30c46 0 58-42 58-86 0-27-11-44-37-44-44 0-55 40-57 84-1 27 10 45 36 46" id="ba"/><path d="M127 0L95-67 37 0h-53l89-99-49-91h52l30 61 52-61h54l-85 92 52 98h-52" id="bb"/><path d="M100 10C77 47 50 87-15 72l7-35c37 9 51-18 65-41L20-190h51L89-44l73-146h53" id="bc"/><g id="z"><use transform="matrix(0.12345679012345674,0,0,0.12345679012345674,0,0)" xlink:href="#aZ"/><use transform="matrix(0.12345679012345674,0,0,0.12345679012345674,29.62962962962962,0)" xlink:href="#ar"/><use transform="matrix(0.12345679012345674,0,0,0.12345679012345674,46.91358024691356,0)" xlink:href="#ba"/><use transform="matrix(0.12345679012345674,0,0,0.12345679012345674,73.95061728395059,0)" xlink:href="#bb"/><use transform="matrix(0.12345679012345674,0,0,0.12345679012345674,98.64197530864195,0)" xlink:href="#bc"/></g><path d="M151-194c95 0 34 128 28 194h-49l25-134c0-29-45-25-59-9C67-111 69-48 56 0H6l36-190h47l-4 32c15-20 33-36 66-36" id="bd"/><g id="A"><use transform="matrix(0.12345679012345674,0,0,0.12345679012345674,0,0)" xlink:href="#az"/><use transform="matrix(0.12345679012345674,0,0,0.12345679012345674,24.691358024691347,0)" xlink:href="#bd"/></g><path d="M18-101c0-91 52-150 145-150 68 0 111 34 111 101C274-54 221 4 128 4 59 4 18-33 18-101zm202-32c4-46-15-77-59-77-65 0-88 46-91 108-2 41 22 65 60 65 60 0 84-40 90-96" id="be"/><g id="B"><use transform="matrix(0.12345679012345674,0,0,0.12345679012345674,0,0)" xlink:href="#be"/><use transform="matrix(0.12345679012345674,0,0,0.12345679012345674,34.567901234567884,0)" xlink:href="#ar"/><use transform="matrix(0.12345679012345674,0,0,0.12345679012345674,51.851851851851826,0)" xlink:href="#au"/><use transform="matrix(0.12345679012345674,0,0,0.12345679012345674,76.54320987654317,0)" xlink:href="#ay"/><use transform="matrix(0.12345679012345674,0,0,0.12345679012345674,103.5802469135802,0)" xlink:href="#aq"/><use transform="matrix(0.12345679012345674,0,0,0.12345679012345674,128.27160493827154,0)" xlink:href="#av"/><use transform="matrix(0.12345679012345674,0,0,0.12345679012345674,152.96296296296288,0)" xlink:href="#ax"/><use transform="matrix(0.12345679012345674,0,0,0.12345679012345674,167.65432098765422,0)" xlink:href="#ar"/><use transform="matrix(0.12345679012345674,0,0,0.12345679012345674,184.93827160493817,0)" xlink:href="#az"/><use transform="matrix(0.12345679012345674,0,0,0.12345679012345674,209.6296296296295,0)" xlink:href="#ax"/><use transform="matrix(0.12345679012345674,0,0,0.12345679012345674,224.32098765432085,0)" xlink:href="#ba"/><use transform="matrix(0.12345679012345674,0,0,0.12345679012345674,251.35802469135788,0)" xlink:href="#ar"/></g><path d="M205 0l-28-72H64L36 0H1l101-248h38L239 0h-34zm-38-99l-47-123c-12 45-31 82-46 123h93" id="bf"/><path d="M117-194c89-4 53 116 60 194h-32v-121c0-31-8-49-39-48C34-167 62-67 57 0H25l-1-190h30c1 10-1 24 2 32 11-22 29-35 61-36" id="bg"/><g id="C"><use transform="matrix(0.11111111111111108,0,0,0.11111111111111108,0,0)" xlink:href="#bf"/><use transform="matrix(0.11111111111111108,0,0,0.11111111111111108,26.666666666666657,0)" xlink:href="#bg"/></g><path d="M20-101c0-91 52-143 145-150 126-9 127 168 53 223-23 17-55 32-93 32C57 4 20-33 20-101zm216-33c5-57-18-91-73-90-77 1-110 51-110 125 0 49 23 75 73 75 72-1 104-45 110-110" id="bh"/><path d="M66-151c12-25 30-51 66-40l-6 26C45-176 58-65 38 0H6l36-190h30" id="bi"/><path d="M44-68c0 29 11 47 38 47 30 0 42-19 51-41l28 9C148-21 126 4 82 4 31 4 10-29 12-85c3-77 74-140 146-93 12 8 15 23 18 40l-31 5c-1-22-13-36-36-36-52 0-65 49-65 101" id="bj"/><path d="M67-158c15-20 31-36 64-36 94 0 33 127 27 194h-32l25-140c3-38-53-32-70-12C52-117 51-51 37 0H6l51-261h31" id="bk"/><path d="M111-194c62-3 86 47 72 106H45c-7 38 6 69 45 68 27-1 43-14 53-32l24 11C152-15 129 4 87 4 38 3 12-23 12-71c0-70 32-119 99-123zm44 81c14-66-71-72-95-28-4 8-8 17-11 28h106" id="bl"/><path d="M55-144c13 50 104 24 104 88C159 21 15 23 1-39l26-10c6 40 102 42 102-4-13-50-104-23-104-87 0-71 143-71 148-8l-29 4c-5-35-85-37-89 0" id="bm"/><path d="M51-54c-9 22 5 41 31 30L79-1C43 14 10-4 19-52l22-115H19l5-23h22l19-43h21l-9 43h35l-4 23H73" id="bn"/><path d="M165-48c-4 18 1 34 23 27l-3 20c-29 8-62 0-52-35h-2C116-14 99 4 63 4 30 4 8-16 8-49c0-68 71-67 138-67 10-26 0-56-31-54-26 1-42 9-47 31l-32-5c8-67 160-71 144 15-5 28-9 54-15 81zM42-50c3 52 80 24 89-6 7-12 7-24 11-38-47 1-103-4-100 44" id="bo"/><path d="M30-147c31-64 166-65 159 27C183-49 158 1 86 4 9 8 1-88 30-147zM88-20c53 0 68-48 68-100 0-31-11-51-44-50-52 1-68 46-68 97 0 32 13 53 44 53" id="bp"/><g id="D"><use transform="matrix(0.11111111111111108,0,0,0.11111111111111108,0,0)" xlink:href="#bh"/><use transform="matrix(0.11111111111111108,0,0,0.11111111111111108,31.1111111111111,0)" xlink:href="#bi"/><use transform="matrix(0.11111111111111108,0,0,0.11111111111111108,44.333333333333314,0)" xlink:href="#bj"/><use transform="matrix(0.11111111111111108,0,0,0.11111111111111108,64.33333333333331,0)" xlink:href="#bk"/><use transform="matrix(0.11111111111111108,0,0,0.11111111111111108,86.55555555555553,0)" xlink:href="#bl"/><use transform="matrix(0.11111111111111108,0,0,0.11111111111111108,108.77777777777774,0)" xlink:href="#bm"/><use transform="matrix(0.11111111111111108,0,0,0.11111111111111108,128.77777777777774,0)" xlink:href="#bn"/><use transform="matrix(0.11111111111111108,0,0,0.11111111111111108,139.88888888888886,0)" xlink:href="#bi"/><use transform="matrix(0.11111111111111108,0,0,0.11111111111111108,153.1111111111111,0)" xlink:href="#bo"/><use transform="matrix(0.11111111111111108,0,0,0.11111111111111108,175.33333333333331,0)" xlink:href="#bn"/><use transform="matrix(0.11111111111111108,0,0,0.11111111111111108,186.44444444444443,0)" xlink:href="#bp"/><use transform="matrix(0.11111111111111108,0,0,0.11111111111111108,208.66666666666663,0)" xlink:href="#bi"/></g><path d="M84 4C-5 8 30-112 23-190h32v120c0 31 7 50 39 49 72-2 45-101 50-169h31l1 190h-30c-1-10 1-25-2-33-11 22-28 36-60 37" id="bq"/><g id="E"><use transform="matrix(0.11111111111111108,0,0,0.11111111111111108,0,0)" xlink:href="#bq"/><use transform="matrix(0.11111111111111108,0,0,0.11111111111111108,22.222222222222214,0)" xlink:href="#aU"/><use transform="matrix(0.11111111111111108,0,0,0.11111111111111108,42.22222222222221,0)" xlink:href="#aH"/><use transform="matrix(0.11111111111111108,0,0,0.11111111111111108,64.44444444444443,0)" xlink:href="#aU"/></g><g id="F"><use transform="matrix(0.11111111111111108,0,0,0.11111111111111108,0,0)" xlink:href="#aS"/><use transform="matrix(0.11111111111111108,0,0,0.11111111111111108,11.111111111111107,0)" xlink:href="#aQ"/><use transform="matrix(0.11111111111111108,0,0,0.11111111111111108,33.33333333333332,0)" xlink:href="#aH"/></g><path d="M177-190C167-65 218 103 67 71c-23-6-38-20-44-43l32-5c15 47 100 32 89-28v-30C133-14 115 1 83 1 29 1 15-40 15-95c0-56 16-97 71-98 29-1 48 16 59 35 1-10 0-23 2-32h30zM94-22c36 0 50-32 50-73 0-42-14-75-50-75-39 0-46 34-46 75s6 73 46 73" id="br"/><g id="G"><use transform="matrix(0.11111111111111108,0,0,0.11111111111111108,0,0)" xlink:href="#bq"/><use transform="matrix(0.11111111111111108,0,0,0.11111111111111108,22.222222222222214,0)" xlink:href="#bg"/><use transform="matrix(0.11111111111111108,0,0,0.11111111111111108,44.44444444444443,0)" xlink:href="#aF"/><use transform="matrix(0.11111111111111108,0,0,0.11111111111111108,66.66666666666664,0)" xlink:href="#aH"/><use transform="matrix(0.11111111111111108,0,0,0.11111111111111108,88.88888888888886,0)" xlink:href="#aK"/><use transform="matrix(0.11111111111111108,0,0,0.11111111111111108,102.11111111111107,0)" xlink:href="#aG"/><use transform="matrix(0.11111111111111108,0,0,0.11111111111111108,110.88888888888884,0)" xlink:href="#aO"/><use transform="matrix(0.11111111111111108,0,0,0.11111111111111108,130.88888888888883,0)" xlink:href="#aE"/><use transform="matrix(0.11111111111111108,0,0,0.11111111111111108,139.6666666666666,0)" xlink:href="#bg"/><use transform="matrix(0.11111111111111108,0,0,0.11111111111111108,161.8888888888888,0)" xlink:href="#br"/></g><path d="M108 0H70L1-190h34L89-25l56-165h34" id="bs"/><g id="H"><use transform="matrix(0.11111111111111108,0,0,0.11111111111111108,0,0)" xlink:href="#aU"/><use transform="matrix(0.11111111111111108,0,0,0.11111111111111108,19.999999999999993,0)" xlink:href="#aH"/><use transform="matrix(0.11111111111111108,0,0,0.11111111111111108,42.22222222222221,0)" xlink:href="#aK"/><use transform="matrix(0.11111111111111108,0,0,0.11111111111111108,55.44444444444443,0)" xlink:href="#bs"/><use transform="matrix(0.11111111111111108,0,0,0.11111111111111108,75.44444444444443,0)" xlink:href="#aE"/><use transform="matrix(0.11111111111111108,0,0,0.11111111111111108,84.2222222222222,0)" xlink:href="#aW"/><use transform="matrix(0.11111111111111108,0,0,0.11111111111111108,104.2222222222222,0)" xlink:href="#aH"/><use transform="matrix(0.11111111111111108,0,0,0.11111111111111108,126.4444444444444,0)" xlink:href="#aU"/></g><g id="I"><use transform="matrix(0.11111111111111108,0,0,0.11111111111111108,0,0)" xlink:href="#aS"/><use transform="matrix(0.11111111111111108,0,0,0.11111111111111108,11.111111111111107,0)" xlink:href="#aM"/></g><g id="J"><use transform="matrix(0.11111111111111108,0,0,0.11111111111111108,0,0)" xlink:href="#aH"/><use transform="matrix(0.11111111111111108,0,0,0.11111111111111108,22.222222222222214,0)" xlink:href="#aN"/><use transform="matrix(0.11111111111111108,0,0,0.11111111111111108,42.22222222222221,0)" xlink:href="#aH"/><use transform="matrix(0.11111111111111108,0,0,0.11111111111111108,64.44444444444443,0)" xlink:href="#aW"/><use transform="matrix(0.11111111111111108,0,0,0.11111111111111108,84.44444444444443,0)" xlink:href="#bq"/><use transform="matrix(0.11111111111111108,0,0,0.11111111111111108,106.66666666666664,0)" xlink:href="#aS"/><use transform="matrix(0.11111111111111108,0,0,0.11111111111111108,117.77777777777774,0)" xlink:href="#aH"/></g><g id="K"><use transform="matrix(0.11111111111111108,0,0,0.11111111111111108,0,0)" xlink:href="#aW"/><use transform="matrix(0.11111111111111108,0,0,0.11111111111111108,19.999999999999993,0)" xlink:href="#aG"/><use transform="matrix(0.11111111111111108,0,0,0.11111111111111108,28.777777777777768,0)" xlink:href="#aE"/><use transform="matrix(0.11111111111111108,0,0,0.11111111111111108,37.55555555555554,0)" xlink:href="#aH"/><use transform="matrix(0.11111111111111108,0,0,0.11111111111111108,59.77777777777776,0)" xlink:href="#bg"/><use transform="matrix(0.11111111111111108,0,0,0.11111111111111108,81.99999999999997,0)" xlink:href="#aS"/></g><path d="M145-31C134-9 116 4 85 4 32 4 16-35 15-94c0-59 17-99 70-100 32-1 48 14 60 33 0-11-1-24 2-32h30l-1 268h-32zM93-21c41 0 51-33 51-76s-8-73-50-73c-40 0-46 35-46 75s5 74 45 74" id="bt"/><g id="L"><use transform="matrix(0.11111111111111108,0,0,0.11111111111111108,0,0)" xlink:href="#aK"/><use transform="matrix(0.11111111111111108,0,0,0.11111111111111108,13.222222222222218,0)" xlink:href="#aH"/><use transform="matrix(0.11111111111111108,0,0,0.11111111111111108,35.44444444444443,0)" xlink:href="#bt"/><use transform="matrix(0.11111111111111108,0,0,0.11111111111111108,57.66666666666665,0)" xlink:href="#bq"/><use transform="matrix(0.11111111111111108,0,0,0.11111111111111108,79.88888888888886,0)" xlink:href="#aH"/><use transform="matrix(0.11111111111111108,0,0,0.11111111111111108,102.11111111111107,0)" xlink:href="#aU"/><use transform="matrix(0.11111111111111108,0,0,0.11111111111111108,122.11111111111104,0)" xlink:href="#aS"/><use transform="matrix(0.11111111111111108,0,0,0.11111111111111108,133.22222222222217,0)" xlink:href="#aU"/></g><use transform="matrix(0.11111111111111108,0,0,0.11111111111111108,0,0)" xlink:href="#bf" id="M"/><path d="M238-179c0 84-86 86-175 82L45 0H11l48-248c82 0 179-12 179 69zm-34 1c0-53-64-42-116-43l-19 98c63 0 135 9 135-55" id="bu"/><path d="M124 0L87-78 21 0h-35l86-98-46-92h33l34 74 61-74h37l-83 92 50 98h-34" id="bv"/><path d="M198-190L69 30C53 58 25 83-20 72c4-11-1-27 19-22 33-1 43-29 59-52L20-190h32L79-34l84-156h35" id="bw"/><g id="N"><use transform="matrix(0.11111111111111108,0,0,0.11111111111111108,0,0)" xlink:href="#bu"/><use transform="matrix(0.11111111111111108,0,0,0.11111111111111108,26.666666666666657,0)" xlink:href="#bi"/><use transform="matrix(0.11111111111111108,0,0,0.11111111111111108,39.88888888888887,0)" xlink:href="#bp"/><use transform="matrix(0.11111111111111108,0,0,0.11111111111111108,62.11111111111109,0)" xlink:href="#bv"/><use transform="matrix(0.11111111111111108,0,0,0.11111111111111108,82.11111111111109,0)" xlink:href="#bw"/></g><g id="O"><use transform="matrix(0.11111111111111108,0,0,0.11111111111111108,0,0)" xlink:href="#aU"/><use transform="matrix(0.11111111111111108,0,0,0.11111111111111108,19.999999999999993,0)" xlink:href="#aS"/><use transform="matrix(0.11111111111111108,0,0,0.11111111111111108,31.1111111111111,0)" xlink:href="#aJ"/><use transform="matrix(0.11111111111111108,0,0,0.11111111111111108,53.333333333333314,0)" xlink:href="#bg"/><use transform="matrix(0.11111111111111108,0,0,0.11111111111111108,75.55555555555553,0)" xlink:href="#aF"/><use transform="matrix(0.11111111111111108,0,0,0.11111111111111108,97.77777777777774,0)" xlink:href="#aU"/></g><g id="P"><use transform="matrix(0.11111111111111108,0,0,0.11111111111111108,0,0)" xlink:href="#aT"/><use transform="matrix(0.11111111111111108,0,0,0.11111111111111108,22.222222222222214,0)" xlink:href="#aH"/><use transform="matrix(0.11111111111111108,0,0,0.11111111111111108,44.44444444444443,0)" xlink:href="#aS"/><use transform="matrix(0.11111111111111108,0,0,0.11111111111111108,55.555555555555536,0)" xlink:href="#aI"/><use transform="matrix(0.11111111111111108,0,0,0.11111111111111108,84.3333333333333,0)" xlink:href="#aH"/><use transform="matrix(0.11111111111111108,0,0,0.11111111111111108,106.55555555555551,0)" xlink:href="#aH"/><use transform="matrix(0.11111111111111108,0,0,0.11111111111111108,128.77777777777771,0)" xlink:href="#bg"/></g><g id="Q"><use transform="matrix(0.11111111111111108,0,0,0.11111111111111108,0,0)" xlink:href="#aS"/><use transform="matrix(0.11111111111111108,0,0,0.11111111111111108,11.111111111111107,0)" xlink:href="#aQ"/><use transform="matrix(0.11111111111111108,0,0,0.11111111111111108,33.33333333333332,0)" xlink:href="#aH"/></g><path d="M210-169c-67 3-38 105-44 169h-31v-121c0-29-5-50-35-48C34-165 62-65 56 0H25l-1-190h30c1 10-1 24 2 32 10-44 99-50 107 0 11-21 27-35 58-36 85-2 47 119 55 194h-31v-121c0-29-5-49-35-48" id="bx"/><g id="R"><use transform="matrix(0.11111111111111108,0,0,0.11111111111111108,0,0)" xlink:href="#aU"/><use transform="matrix(0.11111111111111108,0,0,0.11111111111111108,19.999999999999993,0)" xlink:href="#aO"/><use transform="matrix(0.11111111111111108,0,0,0.11111111111111108,39.999999999999986,0)" xlink:href="#aU"/><use transform="matrix(0.11111111111111108,0,0,0.11111111111111108,59.99999999999998,0)" xlink:href="#aS"/><use transform="matrix(0.11111111111111108,0,0,0.11111111111111108,71.11111111111109,0)" xlink:href="#aH"/><use transform="matrix(0.11111111111111108,0,0,0.11111111111111108,93.3333333333333,0)" xlink:href="#bx"/></g><g id="S"><use transform="matrix(0.11111111111111108,0,0,0.11111111111111108,0,0)" xlink:href="#aJ"/><use transform="matrix(0.11111111111111108,0,0,0.11111111111111108,22.222222222222214,0)" xlink:href="#bg"/><use transform="matrix(0.11111111111111108,0,0,0.11111111111111108,44.44444444444443,0)" xlink:href="#aF"/></g><g id="T"><use transform="matrix(0.11111111111111108,0,0,0.11111111111111108,0,0)" xlink:href="#aE"/><use transform="matrix(0.11111111111111108,0,0,0.11111111111111108,8.777777777777775,0)" xlink:href="#aS"/><use transform="matrix(0.11111111111111108,0,0,0.11111111111111108,19.888888888888882,0)" xlink:href="#aU"/></g><g id="U"><use transform="matrix(0.11111111111111108,0,0,0.11111111111111108,0,0)" xlink:href="#aW"/><use transform="matrix(0.11111111111111108,0,0,0.11111111111111108,19.999999999999993,0)" xlink:href="#aG"/><use transform="matrix(0.11111111111111108,0,0,0.11111111111111108,28.777777777777768,0)" xlink:href="#aE"/><use transform="matrix(0.11111111111111108,0,0,0.11111111111111108,37.55555555555554,0)" xlink:href="#aH"/><use transform="matrix(0.11111111111111108,0,0,0.11111111111111108,59.77777777777776,0)" xlink:href="#bg"/><use transform="matrix(0.11111111111111108,0,0,0.11111111111111108,81.99999999999997,0)" xlink:href="#aS"/><use transform="matrix(0.11111111111111108,0,0,0.11111111111111108,93.11111111111109,0)" xlink:href="#aU"/></g><g id="V"><use transform="matrix(0.11111111111111108,0,0,0.11111111111111108,0,0)" xlink:href="#aJ"/><use transform="matrix(0.11111111111111108,0,0,0.11111111111111108,22.222222222222214,0)" xlink:href="#aW"/><use transform="matrix(0.11111111111111108,0,0,0.11111111111111108,42.22222222222221,0)" xlink:href="#aS"/><use transform="matrix(0.11111111111111108,0,0,0.11111111111111108,53.333333333333314,0)" xlink:href="#aU"/></g><g id="W"><use transform="matrix(0.11111111111111108,0,0,0.11111111111111108,0,0)" xlink:href="#aM"/><use transform="matrix(0.11111111111111108,0,0,0.11111111111111108,22.222222222222214,0)" xlink:href="#bg"/></g><path d="M101-234c-31-9-42 10-38 44h38v23H63V0H32v-167H5v-23h27c-7-52 17-82 69-68v24" id="by"/><g id="X"><use transform="matrix(0.11111111111111108,0,0,0.11111111111111108,0,0)" xlink:href="#aT"/><use transform="matrix(0.11111111111111108,0,0,0.11111111111111108,22.222222222222214,0)" xlink:href="#aH"/><use transform="matrix(0.11111111111111108,0,0,0.11111111111111108,44.44444444444443,0)" xlink:href="#aQ"/><use transform="matrix(0.11111111111111108,0,0,0.11111111111111108,66.66666666666664,0)" xlink:href="#aJ"/><use transform="matrix(0.11111111111111108,0,0,0.11111111111111108,88.88888888888886,0)" xlink:href="#aG"/><use transform="matrix(0.11111111111111108,0,0,0.11111111111111108,97.66666666666663,0)" xlink:href="#by"/></g><g id="Y"><use transform="matrix(0.11111111111111108,0,0,0.11111111111111108,0,0)" xlink:href="#aM"/><use transform="matrix(0.11111111111111108,0,0,0.11111111111111108,22.222222222222214,0)" xlink:href="#by"/></g><g id="Z"><use transform="matrix(0.11111111111111108,0,0,0.11111111111111108,0,0)" xlink:href="#aU"/><use transform="matrix(0.11111111111111108,0,0,0.11111111111111108,19.999999999999993,0)" xlink:href="#aO"/><use transform="matrix(0.11111111111111108,0,0,0.11111111111111108,39.999999999999986,0)" xlink:href="#aU"/><use transform="matrix(0.11111111111111108,0,0,0.11111111111111108,59.99999999999998,0)" xlink:href="#aS"/><use transform="matrix(0.11111111111111108,0,0,0.11111111111111108,71.11111111111109,0)" xlink:href="#aH"/><use transform="matrix(0.11111111111111108,0,0,0.11111111111111108,93.3333333333333,0)" xlink:href="#bx"/></g><path d="M222 0l43-216c-8 16-17 34-26 49L143 0h-22L81-216 41 0H11l48-248h42l38 208 116-208h45L252 0h-30" id="bz"/><path d="M50-231l6-30h32l-6 30H50zM6 0l37-190h31L37 0H6" id="bA"/><path d="M133-28C103 26-5 8 13-77c13-62 24-115 90-117 29-1 46 15 56 35l19-102h32L160 0h-30zM45-64c-2 27 10 43 35 43 54-1 69-50 69-103 0-29-15-46-42-46-53-1-58 58-62 106" id="bB"/><path d="M6 0l50-261h32L37 0H6" id="bC"/><path d="M188 0h-37l-8-164L71 0H34L18-190h31l8 164 75-164h34l8 164 74-164h31" id="bD"/><g id="aa"><use transform="matrix(0.11111111111111108,0,0,0.11111111111111108,0,0)" xlink:href="#bz"/><use transform="matrix(0.11111111111111108,0,0,0.11111111111111108,33.222222222222214,0)" xlink:href="#bA"/><use transform="matrix(0.11111111111111108,0,0,0.11111111111111108,41.999999999999986,0)" xlink:href="#bB"/><use transform="matrix(0.11111111111111108,0,0,0.11111111111111108,64.2222222222222,0)" xlink:href="#bB"/><use transform="matrix(0.11111111111111108,0,0,0.11111111111111108,86.44444444444441,0)" xlink:href="#bC"/><use transform="matrix(0.11111111111111108,0,0,0.11111111111111108,95.22222222222219,0)" xlink:href="#bl"/><use transform="matrix(0.11111111111111108,0,0,0.11111111111111108,117.44444444444441,0)" xlink:href="#bD"/><use transform="matrix(0.11111111111111108,0,0,0.11111111111111108,146.22222222222217,0)" xlink:href="#bo"/><use transform="matrix(0.11111111111111108,0,0,0.11111111111111108,168.4444444444444,0)" xlink:href="#bi"/><use transform="matrix(0.11111111111111108,0,0,0.11111111111111108,181.66666666666663,0)" xlink:href="#bl"/></g><path d="M115-194c55 1 70 41 70 98S169 2 115 4C84 4 66-9 55-30l1 105H24l-1-265h31l2 30c10-21 28-34 59-34zm-8 174c40 0 45-34 45-75s-6-73-45-74c-42 0-51 32-51 76 0 43 10 73 51 73" id="bE"/><g id="ab"><use transform="matrix(0.11111111111111108,0,0,0.11111111111111108,0,0)" xlink:href="#bE"/><use transform="matrix(0.11111111111111108,0,0,0.11111111111111108,22.222222222222214,0)" xlink:href="#aK"/><use transform="matrix(0.11111111111111108,0,0,0.11111111111111108,35.44444444444443,0)" xlink:href="#aM"/><use transform="matrix(0.11111111111111108,0,0,0.11111111111111108,57.66666666666665,0)" xlink:href="#bs"/><use transform="matrix(0.11111111111111108,0,0,0.11111111111111108,77.66666666666663,0)" xlink:href="#aE"/><use transform="matrix(0.11111111111111108,0,0,0.11111111111111108,86.4444444444444,0)" xlink:href="#aF"/><use transform="matrix(0.11111111111111108,0,0,0.11111111111111108,108.66666666666661,0)" xlink:href="#aH"/><use transform="matrix(0.11111111111111108,0,0,0.11111111111111108,130.88888888888883,0)" xlink:href="#aU"/></g><g id="ac"><use transform="matrix(0.11111111111111108,0,0,0.11111111111111108,0,0)" xlink:href="#aW"/><use transform="matrix(0.11111111111111108,0,0,0.11111111111111108,19.999999999999993,0)" xlink:href="#aM"/><use transform="matrix(0.11111111111111108,0,0,0.11111111111111108,42.22222222222221,0)" xlink:href="#bx"/><use transform="matrix(0.11111111111111108,0,0,0.11111111111111108,75.44444444444443,0)" xlink:href="#bx"/><use transform="matrix(0.11111111111111108,0,0,0.11111111111111108,108.66666666666664,0)" xlink:href="#bq"/><use transform="matrix(0.11111111111111108,0,0,0.11111111111111108,130.88888888888886,0)" xlink:href="#bg"/><use transform="matrix(0.11111111111111108,0,0,0.11111111111111108,153.1111111111111,0)" xlink:href="#aE"/><use transform="matrix(0.11111111111111108,0,0,0.11111111111111108,161.88888888888886,0)" xlink:href="#aW"/><use transform="matrix(0.11111111111111108,0,0,0.11111111111111108,181.88888888888886,0)" xlink:href="#aJ"/><use transform="matrix(0.11111111111111108,0,0,0.11111111111111108,204.1111111111111,0)" xlink:href="#aS"/><use transform="matrix(0.11111111111111108,0,0,0.11111111111111108,215.2222222222222,0)" xlink:href="#aE"/><use transform="matrix(0.11111111111111108,0,0,0.11111111111111108,223.99999999999997,0)" xlink:href="#aM"/><use transform="matrix(0.11111111111111108,0,0,0.11111111111111108,246.22222222222214,0)" xlink:href="#bg"/></g><g id="ad"><use transform="matrix(0.11111111111111108,0,0,0.11111111111111108,0,0)" xlink:href="#aS"/><use transform="matrix(0.11111111111111108,0,0,0.11111111111111108,11.111111111111107,0)" xlink:href="#aM"/></g><g id="ae"><use transform="matrix(0.11111111111111108,0,0,0.11111111111111108,0,0)" xlink:href="#bx"/><use transform="matrix(0.11111111111111108,0,0,0.11111111111111108,33.222222222222214,0)" xlink:href="#aJ"/><use transform="matrix(0.11111111111111108,0,0,0.11111111111111108,55.44444444444443,0)" xlink:href="#bg"/><use transform="matrix(0.11111111111111108,0,0,0.11111111111111108,77.66666666666664,0)" xlink:href="#aJ"/><use transform="matrix(0.11111111111111108,0,0,0.11111111111111108,99.88888888888886,0)" xlink:href="#br"/><use transform="matrix(0.11111111111111108,0,0,0.11111111111111108,122.11111111111107,0)" xlink:href="#aH"/><use transform="matrix(0.11111111111111108,0,0,0.11111111111111108,144.3333333333333,0)" xlink:href="#aU"/></g><g id="af"><use transform="matrix(0.11111111111111108,0,0,0.11111111111111108,0,0)" xlink:href="#aU"/><use transform="matrix(0.11111111111111108,0,0,0.11111111111111108,19.999999999999993,0)" xlink:href="#aH"/><use transform="matrix(0.11111111111111108,0,0,0.11111111111111108,42.22222222222221,0)" xlink:href="#aK"/><use transform="matrix(0.11111111111111108,0,0,0.11111111111111108,55.44444444444443,0)" xlink:href="#bs"/><use transform="matrix(0.11111111111111108,0,0,0.11111111111111108,75.44444444444443,0)" xlink:href="#aE"/><use transform="matrix(0.11111111111111108,0,0,0.11111111111111108,84.2222222222222,0)" xlink:href="#aW"/><use transform="matrix(0.11111111111111108,0,0,0.11111111111111108,104.2222222222222,0)" xlink:href="#aH"/></g><g id="ag"><use transform="matrix(0.11111111111111108,0,0,0.11111111111111108,0,0)" xlink:href="#aE"/><use transform="matrix(0.11111111111111108,0,0,0.11111111111111108,8.777777777777775,0)" xlink:href="#bg"/><use transform="matrix(0.11111111111111108,0,0,0.11111111111111108,30.99999999999999,0)" xlink:href="#aU"/><use transform="matrix(0.11111111111111108,0,0,0.11111111111111108,50.999999999999986,0)" xlink:href="#aS"/><use transform="matrix(0.11111111111111108,0,0,0.11111111111111108,62.11111111111109,0)" xlink:href="#aJ"/><use transform="matrix(0.11111111111111108,0,0,0.11111111111111108,84.33333333333331,0)" xlink:href="#bg"/><use transform="matrix(0.11111111111111108,0,0,0.11111111111111108,106.55555555555553,0)" xlink:href="#aW"/><use transform="matrix(0.11111111111111108,0,0,0.11111111111111108,126.55555555555551,0)" xlink:href="#aH"/><use transform="matrix(0.11111111111111108,0,0,0.11111111111111108,148.77777777777771,0)" xlink:href="#aU"/></g><path d="M194-120c59 52 2 134-86 124-53-6-90-18-98-63l31-7c8 30 29 43 70 43 46 0 84-17 71-62-32-43-135-20-137-98-3-89 178-90 191-16l-30 9c-8-48-127-53-127 5 0 53 81 35 115 65" id="bF"/><g id="ah"><use transform="matrix(0.11111111111111108,0,0,0.11111111111111108,0,0)" xlink:href="#bF"/><use transform="matrix(0.11111111111111108,0,0,0.11111111111111108,26.666666666666657,0)" xlink:href="#bk"/><use transform="matrix(0.11111111111111108,0,0,0.11111111111111108,48.88888888888887,0)" xlink:href="#bo"/><use transform="matrix(0.11111111111111108,0,0,0.11111111111111108,71.11111111111109,0)" xlink:href="#bi"/><use transform="matrix(0.11111111111111108,0,0,0.11111111111111108,84.3333333333333,0)" xlink:href="#bl"/><use transform="matrix(0.11111111111111108,0,0,0.11111111111111108,106.55555555555551,0)" xlink:href="#bB"/></g><path d="M248-139C247-14 144 9 11 0l48-248c105-6 190 8 189 109zm-34 0c1-70-52-87-126-82L50-27c98 7 163-21 164-112" id="bG"/><path d="M68-162c25-46 127-43 121 31C183-60 169 1 98 4 69 5 53-11 43-31L36 0H5l52-261h31zm88 36c2-27-9-43-34-43-55 0-70 51-70 103 0 29 15 45 43 46 52 0 58-58 61-106" id="bH"/><g id="ai"><use transform="matrix(0.11111111111111108,0,0,0.11111111111111108,0,0)" xlink:href="#bG"/><use transform="matrix(0.11111111111111108,0,0,0.11111111111111108,28.777777777777768,0)" xlink:href="#bo"/><use transform="matrix(0.11111111111111108,0,0,0.11111111111111108,50.999999999999986,0)" xlink:href="#bn"/><use transform="matrix(0.11111111111111108,0,0,0.11111111111111108,62.11111111111109,0)" xlink:href="#bo"/><use transform="matrix(0.11111111111111108,0,0,0.11111111111111108,84.33333333333331,0)" xlink:href="#bH"/><use transform="matrix(0.11111111111111108,0,0,0.11111111111111108,106.55555555555553,0)" xlink:href="#bo"/><use transform="matrix(0.11111111111111108,0,0,0.11111111111111108,128.77777777777774,0)" xlink:href="#bm"/><use transform="matrix(0.11111111111111108,0,0,0.11111111111111108,148.77777777777774,0)" xlink:href="#bl"/></g><g id="aj"><use transform="matrix(0.11111111111111108,0,0,0.11111111111111108,0,0)" xlink:href="#aE"/><use transform="matrix(0.11111111111111108,0,0,0.11111111111111108,8.777777777777775,0)" xlink:href="#aU"/></g><g id="ak"><use transform="matrix(0.11111111111111108,0,0,0.11111111111111108,0,0)" xlink:href="#aU"/><use transform="matrix(0.11111111111111108,0,0,0.11111111111111108,19.999999999999993,0)" xlink:href="#aE"/><use transform="matrix(0.11111111111111108,0,0,0.11111111111111108,28.777777777777768,0)" xlink:href="#bx"/><use transform="matrix(0.11111111111111108,0,0,0.11111111111111108,61.99999999999998,0)" xlink:href="#bE"/><use transform="matrix(0.11111111111111108,0,0,0.11111111111111108,84.2222222222222,0)" xlink:href="#aG"/><use transform="matrix(0.11111111111111108,0,0,0.11111111111111108,92.99999999999997,0)" xlink:href="#aH"/><use transform="matrix(0.11111111111111108,0,0,0.11111111111111108,115.22222222222219,0)" xlink:href="#aU"/><use transform="matrix(0.11111111111111108,0,0,0.11111111111111108,135.22222222222217,0)" xlink:href="#aS"/></g><g id="al"><use transform="matrix(0.11111111111111108,0,0,0.11111111111111108,0,0)" xlink:href="#aI"/><use transform="matrix(0.11111111111111108,0,0,0.11111111111111108,28.777777777777768,0)" xlink:href="#aJ"/><use transform="matrix(0.11111111111111108,0,0,0.11111111111111108,50.999999999999986,0)" xlink:href="#aO"/></g><g id="am"><use transform="matrix(0.11111111111111108,0,0,0.11111111111111108,0,0)" xlink:href="#by"/><use transform="matrix(0.11111111111111108,0,0,0.11111111111111108,11.111111111111107,0)" xlink:href="#aM"/><use transform="matrix(0.11111111111111108,0,0,0.11111111111111108,33.33333333333332,0)" xlink:href="#aK"/></g><g id="an"><use transform="matrix(0.11111111111111108,0,0,0.11111111111111108,0,0)" xlink:href="#bE"/><use transform="matrix(0.11111111111111108,0,0,0.11111111111111108,22.222222222222214,0)" xlink:href="#aH"/><use transform="matrix(0.11111111111111108,0,0,0.11111111111111108,44.44444444444443,0)" xlink:href="#aK"/><use transform="matrix(0.11111111111111108,0,0,0.11111111111111108,57.66666666666665,0)" xlink:href="#aU"/><use transform="matrix(0.11111111111111108,0,0,0.11111111111111108,77.66666666666663,0)" xlink:href="#aE"/><use transform="matrix(0.11111111111111108,0,0,0.11111111111111108,86.4444444444444,0)" xlink:href="#aU"/><use transform="matrix(0.11111111111111108,0,0,0.11111111111111108,106.4444444444444,0)" xlink:href="#aS"/></g><g id="ao"><use transform="matrix(0.11111111111111108,0,0,0.11111111111111108,0,0)" xlink:href="#aF"/><use transform="matrix(0.11111111111111108,0,0,0.11111111111111108,22.222222222222214,0)" xlink:href="#aJ"/><use transform="matrix(0.11111111111111108,0,0,0.11111111111111108,44.44444444444443,0)" xlink:href="#aS"/><use transform="matrix(0.11111111111111108,0,0,0.11111111111111108,55.555555555555536,0)" xlink:href="#aJ"/></g></defs></g></svg>