<svg xmlns="http://www.w3.org/2000/svg" xmlns:xlink="http://www.w3.org/1999/xlink" xmlns:lucid="lucid" width="980.49" height="363"><g transform="translate(-121.00882991847357 -358.5)" lucid:page-tab-id="0_0"><path d="M500.48 480a20 20 0 0 1 20-20h237.5a20 20 0 0 1 20 20v120a20 20 0 0 1-20 20h-237.5a20 20 0 0 1-20-20z" stroke="#1071e5" stroke-width="3" fill="url(#a)"/><path d="M570.5 422.5v21.84M566.5 422.5v21.84" stroke="#1071e5" stroke-width="2" fill="none"/><path d="M571.48 422.53h-1.95v-1.03h1.95zM567.48 422.53h-1.95v-1.03h1.95z" stroke="#1071e5" stroke-width=".05" fill="#1071e5"/><path d="M578.5 439.18l-10 17.32-10-17.32m10 17.32V448M706.6 457.5v-21.84M710.6 457.5v-21.84" stroke="#1071e5" stroke-width="2" fill="none"/><path d="M707.57 458.5h-1.95v-1.03h1.95zM711.57 458.5h-1.95v-1.03h1.95z" stroke="#1071e5" stroke-width=".05" fill="#1071e5"/><path d="M698.6 440.82l10-17.32 10 17.32m-10-17.32v8.5M639.22 622.5l-.12 17.5" stroke="#1071e5" stroke-width="2" fill="none"/><path d="M640.2 622.53h-1.96v-1.03h1.96z" stroke="#1071e5" stroke-width=".05" fill="#1071e5"/><path d="M639 655.26l-4.54-14.3 9.27.07z" stroke="#1071e5" stroke-width="2" fill="#1071e5"/><path d="M739.46 622.5V640" stroke="#1071e5" stroke-width="2" fill="none"/><path d="M740.44 622.53h-1.95v-1.03h1.94z" stroke="#1071e5" stroke-width=".05" fill="#1071e5"/><path d="M739.46 655.26L734.83 641h9.27z" stroke="#1071e5" stroke-width="2" fill="#1071e5"/><path d="M540.64 622.5V640" stroke="#1071e5" stroke-width="2" fill="none"/><path d="M541.6 622.53h-1.94v-1.03h1.95z" stroke="#1071e5" stroke-width=".05" fill="#1071e5"/><path d="M540.64 655.26L536 641h9.27z" stroke="#1071e5" stroke-width="2" fill="#1071e5"/><path d="M510.64 680a20 20 0 0 1 20-20h20a20 20 0 0 1 20 20 20 20 0 0 1-20 20h-20a20 20 0 0 1-20-20z" stroke="#1071e5" stroke-width="3" fill="url(#b)" transform="matrix(-1,1.2246467991473532e-16,-1.2246467991473532e-16,-1,1081.2772541436511,1360)"/><path d="M609 680a20 20 0 0 1 20-20h20a20 20 0 0 1 20 20 20 20 0 0 1-20 20h-20a20 20 0 0 1-20-20z" stroke="#1071e5" stroke-width="3" fill="url(#c)" transform="matrix(-1,1.2246467991473532e-16,-1.2246467991473532e-16,-1,1277.9691547313307,1360)"/><path d="M709.46 680a20 20 0 0 1 20-20h20a20 20 0 0 1 20 20 20 20 0 0 1-20 20h-20a20 20 0 0 1-20-20z" stroke="#1071e5" stroke-width="3" fill="url(#d)" transform="matrix(-1,1.2246467991473532e-16,-1.2246467991473532e-16,-1,1478.9251240309388,1360)"/><path d="M577 700a20 20 0 0 1-20 20h-37a20 20 0 0 1-20-20 20 20 0 0 1 20-20h37a20 20 0 0 1 20 20z" stroke="#000" stroke-width="3" fill="#dfe3e8"/><use xlink:href="#e" transform="matrix(1,-2.4492935982947064e-16,2.4492935982947064e-16,1,504.99999999999994,685.0000000000001) translate(13.168580246913583 21.430555555555557)"/><use xlink:href="#f" transform="matrix(1,-2.4492935982947064e-16,2.4492935982947064e-16,1,504.99999999999994,685.0000000000001) translate(19.958703703703705 21.430555555555557)"/><path d="M677.5 700a20 20 0 0 1-20 20h-37.02a20 20 0 0 1-20-20 20 20 0 0 1 20-20h37a20 20 0 0 1 20 20z" stroke="#000" stroke-width="3" fill="#fff"/><use xlink:href="#g" transform="matrix(1,-2.4492935982947064e-16,2.4492935982947064e-16,1,605.4779846498042,685.0000000000001) translate(9.094506172839507 21.430555555555557)"/><path d="M777.97 700a20 20 0 0 1-20 20h-37a20 20 0 0 1-20-20 20 20 0 0 1 20-20h37a20 20 0 0 1 20 20z" stroke="#000" stroke-width="3" fill="#fff"/><use xlink:href="#h" transform="matrix(1,-2.4492935982947064e-16,2.4492935982947064e-16,1,705.9559692996083,685) translate(9.094506172839507 21.430555555555557)"/><path d="M538.5 400a20 20 0 0 1 20-20h20a20 20 0 0 1 20 20 20 20 0 0 1-20 20h-20a20 20 0 0 1-20-20z" stroke="#1071e5" stroke-width="3" fill="url(#i)"/><path d="M677.52 400a20 20 0 0 1 20-20h20a20 20 0 0 1 20 20 20 20 0 0 1-20 20h-20a20 20 0 0 1-20-20z" stroke="#1071e5" stroke-width="3" fill="url(#j)"/><path d="M520.48 380a20 20 0 0 1 20-20h58.03a20 20 0 0 1 20 20 20 20 0 0 1-20 20H540.5a20 20 0 0 1-20-20z" stroke="#000" stroke-width="3" fill="#fff"/><use xlink:href="#k" transform="matrix(1,0,0,1,525.4779846498042,365) translate(16.84450617283951 21.430555555555557)"/><path d="M658.5 380a20 20 0 0 1 20-20h58.03a20 20 0 0 1 20 20 20 20 0 0 1-20 20H678.5a20 20 0 0 1-20-20z" stroke="#000" stroke-width="3" fill="#fff"/><use xlink:href="#l" transform="matrix(1,0,0,1,663.5065927158613,365) translate(7.338333333333326 21.430555555555557)"/><path d="M122.5 366a6 6 0 0 1 6-6H394a6 6 0 0 1 6 6v348a6 6 0 0 1-6 6H128.5a6 6 0 0 1-6-6z" stroke="#000" stroke-opacity="0" stroke-width="3" fill="#fff" fill-opacity="0"/><use xlink:href="#m" transform="matrix(1,0,0,1,127.50882991847357,365) translate(59.765432098765444 106.92013888888889)"/><use xlink:href="#n" transform="matrix(1,0,0,1,127.50882991847357,365) translate(51.16666666666667 144.25347222222223)"/><use xlink:href="#o" transform="matrix(1,0,0,1,127.50882991847357,365) translate(2.7283950617284347 181.58680555555554)"/><use xlink:href="#p" transform="matrix(1,0,0,1,127.50882991847357,365) translate(116.71604938271606 181.58680555555554)"/><use xlink:href="#q" transform="matrix(1,0,0,1,127.50882991847357,365) translate(159.92592592592592 181.58680555555554)"/><use xlink:href="#r" transform="matrix(1,0,0,1,127.50882991847357,365) translate(23.469135802469154 218.92013888888889)"/><use xlink:href="#s" transform="matrix(1,0,0,1,127.50882991847357,365) translate(58.037037037037045 218.92013888888889)"/><use xlink:href="#t" transform="matrix(1,0,0,1,127.50882991847357,365) translate(134.08641975308643 218.92013888888889)"/><use xlink:href="#u" transform="matrix(1,0,0,1,127.50882991847357,365) translate(57.12962962962965 256.2534722222222)"/><path d="M400.9 476.37l2.8-1.27m3.7-1.7l5.58-2.53m3.7-1.7l5.58-2.53m3.7-1.7l5.58-2.53m3.7-1.68l5.58-2.54m3.7-1.7l5.58-2.53m3.7-1.7l5.58-2.53m3.7-1.7l5.58-2.52m3.7-1.7l5.58-2.53m3.7-1.7l5.58-2.53m3.7-1.7l5.58-2.53m3.72-1.68l5.56-2.54m3.72-1.7l5.57-2.53m3.7-1.7l5.58-2.53m3.7-1.7l5.58-2.53m3.7-1.7l2.8-1.27" stroke="#3a414a" stroke-width="2" fill="none"/><path d="M401.34 477.24l-1.34.6v-2.13l.53-.23zM541.1 412.64l.57.66-1.16.53-.8-1.77.82-.38z" stroke="#3a414a" stroke-width=".05" fill="#3a414a"/><path d="M400.9 609.97l2.58 1.3m3.45 1.73l5.17 2.6m3.45 1.72l5.18 2.6m3.45 1.72l5.17 2.6m3.45 1.72l5.18 2.6m3.44 1.72l5.18 2.6m3.45 1.73l5.17 2.6m3.45 1.73l5.18 2.6m3.44 1.72l5.17 2.6m3.45 1.72l5.17 2.6m3.44 1.72l5.17 2.58m3.46 1.73l5.18 2.6m3.45 1.73l5.16 2.6m3.45 1.72l2.6 1.3" stroke="#3a414a" stroke-width="2" fill="none"/><path d="M401.35 609.1l-.87 1.76-.48-.24v-2.2zM514.54 665.83l-1.3 1.53-.7-.35.87-1.73z" stroke="#3a414a" stroke-width=".05" fill="#3a414a"/><path d="M878.45 366a6 6 0 0 1 6-6H1094a6 6 0 0 1 6 6v348a6 6 0 0 1-6 6H884.45a6 6 0 0 1-6-6z" stroke="#000" stroke-opacity="0" stroke-width="3" fill="#fff" fill-opacity="0"/><g><use xlink:href="#v" transform="matrix(1,0,0,1,883.447139381135,365) translate(12.796296296296319 123.32638888888889)"/><use xlink:href="#w" transform="matrix(1,0,0,1,883.447139381135,365) translate(74.9320987654321 123.32638888888889)"/><use xlink:href="#x" transform="matrix(1,0,0,1,883.447139381135,365) translate(142.25308641975306 123.32638888888889)"/><use xlink:href="#y" transform="matrix(1,0,0,1,883.447139381135,365) translate(173.27777777777777 123.32638888888889)"/><use xlink:href="#z" transform="matrix(1,0,0,1,883.447139381135,365) translate(42.09259259259262 160.6597222222222)"/><use xlink:href="#A" transform="matrix(1,0,0,1,883.447139381135,365) translate(126.69753086419752 160.6597222222222)"/><use xlink:href="#B" transform="matrix(1,0,0,1,883.447139381135,365) translate(8.475308641975346 197.99305555555551)"/><use xlink:href="#C" transform="matrix(1,0,0,1,883.447139381135,365) translate(139.7469135802469 197.99305555555551)"/><use xlink:href="#D" transform="matrix(1,0,0,1,883.447139381135,365) translate(20.487654320987673 235.32638888888883)"/></g><path d="M780.47 540h2.9m3.9 0h5.8m3.88 0h5.82m3.88 0h5.82m3.88 0h5.82m3.88 0h5.82m3.88 0h5.82m3.87 0h5.82m3.88 0h5.82m3.88 0h5.82m3.88 0h2.9" stroke="#3a414a" stroke-width="2" fill="none"/><path d="M780.5 540.98h-1.03V539h1.02zM878.45 540.98h-1.03V539h1.03z" stroke="#3a414a" stroke-width=".05" fill="#3a414a"/><defs><linearGradient gradientUnits="userSpaceOnUse" id="a" x1="500.48" y1="460" x2="500.48" y2="620"><stop offset="23.91%" stop-color="#c3f7c8"/><stop offset="39.49%" stop-color="#cfe4ff"/></linearGradient><linearGradient gradientUnits="userSpaceOnUse" id="b" x1="510.64" y1="660" x2="510.64" y2="700"><stop offset="73.57%" stop-color="#fff"/><stop offset="89.29%" stop-color="#6db1ff"/></linearGradient><linearGradient gradientUnits="userSpaceOnUse" id="c" x1="608.98" y1="660" x2="608.98" y2="700"><stop offset="73.57%" stop-color="#fff"/><stop offset="89.29%" stop-color="#6db1ff"/></linearGradient><linearGradient gradientUnits="userSpaceOnUse" id="d" x1="709.46" y1="660" x2="709.46" y2="700"><stop offset="73.57%" stop-color="#fff"/><stop offset="89.29%" stop-color="#6db1ff"/></linearGradient><path d="M30-248c118-7 216 8 213 122C240-48 200 0 122 0H30v-248zM63-27c89 8 146-16 146-99s-60-101-146-95v194" id="E"/><path d="M160-131c35 5 61 23 61 61C221 17 115-2 30 0v-248c76 3 177-17 177 60 0 33-19 50-47 57zm-97-11c50-1 110 9 110-42 0-47-63-36-110-37v79zm0 115c55-2 124 14 124-45 0-56-70-42-124-44v89" id="F"/><g id="f"><use transform="matrix(0.06790123456790123,0,0,0.06790123456790123,0,0)" xlink:href="#E"/><use transform="matrix(0.06790123456790123,0,0,0.06790123456790123,17.586419753086417,0)" xlink:href="#F"/></g><path d="M30 0v-248h33v221h125V0H30" id="G"/><path d="M24-231v-30h32v30H24zM24 0v-190h32V0H24" id="H"/><path d="M115-194c53 0 69 39 70 98 0 66-23 100-70 100C84 3 66-7 56-30L54 0H23l1-261h32v101c10-23 28-34 59-34zm-8 174c40 0 45-34 45-75 0-40-5-75-45-74-42 0-51 32-51 76 0 43 10 73 51 73" id="I"/><path d="M195 0l-74-108L45 0H8l94-129-87-119h37l69 98 67-98h37l-84 118L233 0h-38" id="J"/><g id="g"><use transform="matrix(0.06790123456790123,0,0,0.06790123456790123,0,0)" xlink:href="#G"/><use transform="matrix(0.06790123456790123,0,0,0.06790123456790123,13.580246913580247,0)" xlink:href="#H"/><use transform="matrix(0.06790123456790123,0,0,0.06790123456790123,18.944444444444443,0)" xlink:href="#I"/><use transform="matrix(0.06790123456790123,0,0,0.06790123456790123,32.52469135802469,0)" xlink:href="#J"/></g><path d="M137-103V0h-34v-103L8-248h37l75 118 75-118h37" id="K"/><g id="h"><use transform="matrix(0.06790123456790123,0,0,0.06790123456790123,0,0)" xlink:href="#G"/><use transform="matrix(0.06790123456790123,0,0,0.06790123456790123,13.580246913580247,0)" xlink:href="#H"/><use transform="matrix(0.06790123456790123,0,0,0.06790123456790123,18.944444444444443,0)" xlink:href="#I"/><use transform="matrix(0.06790123456790123,0,0,0.06790123456790123,32.52469135802469,0)" xlink:href="#K"/></g><linearGradient gradientUnits="userSpaceOnUse" id="i" x1="538.51" y1="380" x2="538.51" y2="420"><stop offset="73.57%" stop-color="#fff"/><stop offset="89.29%" stop-color="#6db1ff"/></linearGradient><linearGradient gradientUnits="userSpaceOnUse" id="j" x1="677.52" y1="380" x2="677.52" y2="420"><stop offset="73.57%" stop-color="#fff"/><stop offset="89.29%" stop-color="#6db1ff"/></linearGradient><path d="M33 0v-248h34V0H33" id="L"/><path d="M117-194c89-4 53 116 60 194h-32v-121c0-31-8-49-39-48C34-167 62-67 57 0H25l-1-190h30c1 10-1 24 2 32 11-22 29-35 61-36" id="M"/><path d="M115-194c55 1 70 41 70 98S169 2 115 4C84 4 66-9 55-30l1 105H24l-1-265h31l2 30c10-21 28-34 59-34zm-8 174c40 0 45-34 45-75s-6-73-45-74c-42 0-51 32-51 76 0 43 10 73 51 73" id="N"/><path d="M84 4C-5 8 30-112 23-190h32v120c0 31 7 50 39 49 72-2 45-101 50-169h31l1 190h-30c-1-10 1-25-2-33-11 22-28 36-60 37" id="O"/><path d="M59-47c-2 24 18 29 38 22v24C64 9 27 4 27-40v-127H5v-23h24l9-43h21v43h35v23H59v120" id="P"/><g id="k"><use transform="matrix(0.06790123456790123,0,0,0.06790123456790123,0,0)" xlink:href="#L"/><use transform="matrix(0.06790123456790123,0,0,0.06790123456790123,6.790123456790123,0)" xlink:href="#M"/><use transform="matrix(0.06790123456790123,0,0,0.06790123456790123,20.37037037037037,0)" xlink:href="#N"/><use transform="matrix(0.06790123456790123,0,0,0.06790123456790123,33.95061728395062,0)" xlink:href="#O"/><use transform="matrix(0.06790123456790123,0,0,0.06790123456790123,47.53086419753087,0)" xlink:href="#P"/></g><path d="M140-251c81 0 123 46 123 126C263-46 219 4 140 4 59 4 17-45 17-125s42-126 123-126zm0 227c63 0 89-41 89-101s-29-99-89-99c-61 0-89 39-89 99S79-25 140-24" id="Q"/><g id="l"><use transform="matrix(0.06790123456790123,0,0,0.06790123456790123,0,0)" xlink:href="#Q"/><use transform="matrix(0.06790123456790123,0,0,0.06790123456790123,19.012345679012345,0)" xlink:href="#O"/><use transform="matrix(0.06790123456790123,0,0,0.06790123456790123,32.592592592592595,0)" xlink:href="#P"/><use transform="matrix(0.06790123456790123,0,0,0.06790123456790123,39.38271604938272,0)" xlink:href="#N"/><use transform="matrix(0.06790123456790123,0,0,0.06790123456790123,52.96296296296297,0)" xlink:href="#O"/><use transform="matrix(0.06790123456790123,0,0,0.06790123456790123,66.54320987654322,0)" xlink:href="#P"/></g><path d="M179 0l23-115H67L45 0H11l48-248h34L72-143h135l21-105h32L212 0h-33" id="R"/><path d="M111-194c62-3 86 47 72 106H45c-7 38 6 69 45 68 27-1 43-14 53-32l24 11C152-15 129 4 87 4 38 3 12-23 12-71c0-70 32-119 99-123zm44 81c14-66-71-72-95-28-4 8-8 17-11 28h106" id="S"/><path d="M124 0L87-78 21 0h-35l86-98-46-92h33l34 74 61-74h37l-83 92 50 98h-34" id="T"/><path d="M165-48c-4 18 1 34 23 27l-3 20c-29 8-62 0-52-35h-2C116-14 99 4 63 4 30 4 8-16 8-49c0-68 71-67 138-67 10-26 0-56-31-54-26 1-42 9-47 31l-32-5c8-67 160-71 144 15-5 28-9 54-15 81zM42-50c3 52 80 24 89-6 7-12 7-24 11-38-47 1-103-4-100 44" id="U"/><path d="M103-194c29 0 47 14 56 36 2-11 5-23 8-32h30L160-5C157 61 82 97 21 62 9 55 4 45 1 30l28-7c7 42 83 31 92-3 4-16 9-38 13-55-13 20-29 36-62 36-40 0-60-25-60-64 0-71 23-131 91-131zm4 24c-53 0-58 54-61 104-2 27 10 44 36 44 49 0 65-50 67-102 1-29-15-46-42-46" id="V"/><path d="M30-147c31-64 166-65 159 27C183-49 158 1 86 4 9 8 1-88 30-147zM88-20c53 0 68-48 68-100 0-31-11-51-44-50-52 1-68 46-68 97 0 32 13 53 44 53" id="W"/><path d="M67-158c22-48 132-52 116 29L158 0h-32l25-140c3-38-53-32-70-12C52-117 51-52 38 0H6l36-190h30" id="X"/><path d="M6 0l50-261h32L37 0H6" id="Y"/><g id="m"><use transform="matrix(0.08641975308641973,0,0,0.08641975308641973,0,0)" xlink:href="#R"/><use transform="matrix(0.08641975308641973,0,0,0.08641975308641973,22.38271604938271,0)" xlink:href="#S"/><use transform="matrix(0.08641975308641973,0,0,0.08641975308641973,39.66666666666666,0)" xlink:href="#T"/><use transform="matrix(0.08641975308641973,0,0,0.08641975308641973,55.22222222222221,0)" xlink:href="#U"/><use transform="matrix(0.08641975308641973,0,0,0.08641975308641973,72.50617283950615,0)" xlink:href="#V"/><use transform="matrix(0.08641975308641973,0,0,0.08641975308641973,89.7901234567901,0)" xlink:href="#W"/><use transform="matrix(0.08641975308641973,0,0,0.08641975308641973,107.07407407407405,0)" xlink:href="#X"/><use transform="matrix(0.08641975308641973,0,0,0.08641975308641973,124.358024691358,0)" xlink:href="#U"/><use transform="matrix(0.08641975308641973,0,0,0.08641975308641973,141.64197530864195,0)" xlink:href="#Y"/></g><path d="M187 0l-14-72H61L19 0h-37l149-248h38L221 0h-34zm-19-99l-22-123L76-99h92" id="Z"/><path d="M66-151c12-25 30-51 66-40l-6 26C45-176 58-65 38 0H6l36-190h30" id="aa"/><path d="M44-68c0 29 11 47 38 47 30 0 42-19 51-41l28 9C148-21 126 4 82 4 31 4 10-29 12-85c3-77 74-140 146-93 12 8 15 23 18 40l-31 5c-1-22-13-36-36-36-52 0-65 49-65 101" id="ab"/><path d="M67-158c15-20 31-36 64-36 94 0 33 127 27 194h-32l25-140c3-38-53-32-70-12C52-117 51-51 37 0H6l51-261h31" id="ac"/><path d="M50-231l6-30h32l-6 30H50zM6 0l37-190h31L37 0H6" id="ad"/><path d="M51-54c-9 22 5 41 31 30L79-1C43 14 10-4 19-52l22-115H19l5-23h22l19-43h21l-9 43h35l-4 23H73" id="ae"/><path d="M67 3c-93-2-31-127-26-193h32L48-50c-3 39 53 32 70 12 30-34 30-101 43-152h32L157 0h-30c1-10 6-24 4-33-14 20-29 37-64 36" id="af"/><g id="n"><use transform="matrix(0.08641975308641973,0,0,0.08641975308641973,0,0)" xlink:href="#Z"/><use transform="matrix(0.08641975308641973,0,0,0.08641975308641973,20.740740740740737,0)" xlink:href="#aa"/><use transform="matrix(0.08641975308641973,0,0,0.08641975308641973,31.024691358024686,0)" xlink:href="#ab"/><use transform="matrix(0.08641975308641973,0,0,0.08641975308641973,46.58024691358024,0)" xlink:href="#ac"/><use transform="matrix(0.08641975308641973,0,0,0.08641975308641973,63.864197530864196,0)" xlink:href="#ad"/><use transform="matrix(0.08641975308641973,0,0,0.08641975308641973,70.69135802469135,0)" xlink:href="#ae"/><use transform="matrix(0.08641975308641973,0,0,0.08641975308641973,79.33333333333333,0)" xlink:href="#S"/><use transform="matrix(0.08641975308641973,0,0,0.08641975308641973,96.61728395061728,0)" xlink:href="#ab"/><use transform="matrix(0.08641975308641973,0,0,0.08641975308641973,112.17283950617283,0)" xlink:href="#ae"/><use transform="matrix(0.08641975308641973,0,0,0.08641975308641973,120.81481481481481,0)" xlink:href="#af"/><use transform="matrix(0.08641975308641973,0,0,0.08641975308641973,138.09876543209876,0)" xlink:href="#aa"/><use transform="matrix(0.08641975308641973,0,0,0.08641975308641973,148.3827160493827,0)" xlink:href="#S"/></g><path d="M141-36C126-15 110 5 73 4 37 3 15-17 15-53c-1-64 63-63 125-63 3-35-9-54-41-54-24 1-41 7-42 31l-33-3c5-37 33-52 76-52 45 0 72 20 72 64v82c-1 20 7 32 28 27v20c-31 9-61-2-59-35zM48-53c0 20 12 33 32 33 41-3 63-29 60-74-43 2-92-5-92 41" id="ag"/><path d="M135-143c-3-34-86-38-87 0 15 53 115 12 119 90S17 21 10-45l28-5c4 36 97 45 98 0-10-56-113-15-118-90-4-57 82-63 122-42 12 7 21 19 24 35" id="ah"/><path d="M177-190C167-65 218 103 67 71c-23-6-38-20-44-43l32-5c15 47 100 32 89-28v-30C133-14 115 1 83 1 29 1 15-40 15-95c0-56 16-97 71-98 29-1 48 16 59 35 1-10 0-23 2-32h30zM94-22c36 0 50-32 50-73 0-42-14-75-50-75-39 0-46 34-46 75s6 73 46 73" id="ai"/><g id="o"><use transform="matrix(0.08641975308641973,0,0,0.08641975308641973,0,0)" xlink:href="#ag"/><use transform="matrix(0.08641975308641973,0,0,0.08641975308641973,17.283950617283946,0)" xlink:href="#ah"/><use transform="matrix(0.08641975308641973,0,0,0.08641975308641973,32.8395061728395,0)" xlink:href="#ah"/><use transform="matrix(0.08641975308641973,0,0,0.08641975308641973,48.39506172839505,0)" xlink:href="#H"/><use transform="matrix(0.08641975308641973,0,0,0.08641975308641973,55.22222222222221,0)" xlink:href="#ai"/><use transform="matrix(0.08641975308641973,0,0,0.08641975308641973,72.50617283950615,0)" xlink:href="#M"/><use transform="matrix(0.08641975308641973,0,0,0.08641975308641973,89.7901234567901,0)" xlink:href="#ah"/></g><g id="p"><use transform="matrix(0.08641975308641973,0,0,0.08641975308641973,0,0)" xlink:href="#ag"/><use transform="matrix(0.08641975308641973,0,0,0.08641975308641973,17.283950617283946,0)" xlink:href="#M"/></g><path d="M85-194c31 0 48 13 60 33l-1-100h32l1 261h-30c-2-10 0-23-3-31C134-8 116 4 85 4 32 4 16-35 15-94c0-66 23-100 70-100zm9 24c-40 0-46 34-46 75 0 40 6 74 45 74 42 0 51-32 51-76 0-42-9-74-50-73" id="aj"/><path d="M100-194c63 0 86 42 84 106H49c0 40 14 67 53 68 26 1 43-12 49-29l28 8c-11 28-37 45-77 45C44 4 14-33 15-96c1-61 26-98 85-98zm52 81c6-60-76-77-97-28-3 7-6 17-6 28h103" id="ak"/><path d="M114-163C36-179 61-72 57 0H25l-1-190h30c1 12-1 29 2 39 6-27 23-49 58-41v29" id="al"/><g id="q"><use transform="matrix(0.08641975308641973,0,0,0.08641975308641973,0,0)" xlink:href="#ag"/><use transform="matrix(0.08641975308641973,0,0,0.08641975308641973,17.283950617283946,0)" xlink:href="#aj"/><use transform="matrix(0.08641975308641973,0,0,0.08641975308641973,34.56790123456789,0)" xlink:href="#ag"/><use transform="matrix(0.08641975308641973,0,0,0.08641975308641973,51.85185185185183,0)" xlink:href="#N"/><use transform="matrix(0.08641975308641973,0,0,0.08641975308641973,69.13580246913578,0)" xlink:href="#P"/><use transform="matrix(0.08641975308641973,0,0,0.08641975308641973,77.77777777777776,0)" xlink:href="#ak"/><use transform="matrix(0.08641975308641973,0,0,0.08641975308641973,95.0617283950617,0)" xlink:href="#al"/></g><path d="M100-194c62-1 85 37 85 99 1 63-27 99-86 99S16-35 15-95c0-66 28-99 85-99zM99-20c44 1 53-31 53-75 0-43-8-75-51-75s-53 32-53 75 10 74 51 75" id="am"/><g id="r"><use transform="matrix(0.08641975308641973,0,0,0.08641975308641973,0,0)" xlink:href="#P"/><use transform="matrix(0.08641975308641973,0,0,0.08641975308641973,8.641975308641973,0)" xlink:href="#am"/></g><path d="M96-169c-40 0-48 33-48 73s9 75 48 75c24 0 41-14 43-38l32 2c-6 37-31 61-74 61-59 0-76-41-82-99-10-93 101-131 147-64 4 7 5 14 7 22l-32 3c-4-21-16-35-41-35" id="an"/><path d="M106-169C34-169 62-67 57 0H25v-261h32l-1 103c12-21 28-36 61-36 89 0 53 116 60 194h-32v-121c2-32-8-49-39-48" id="ao"/><g id="s"><use transform="matrix(0.08641975308641973,0,0,0.08641975308641973,0,0)" xlink:href="#ak"/><use transform="matrix(0.08641975308641973,0,0,0.08641975308641973,17.283950617283946,0)" xlink:href="#ag"/><use transform="matrix(0.08641975308641973,0,0,0.08641975308641973,34.56790123456789,0)" xlink:href="#an"/><use transform="matrix(0.08641975308641973,0,0,0.08641975308641973,50.12345679012345,0)" xlink:href="#ao"/></g><path d="M141 0L90-78 38 0H4l68-98-65-92h35l48 74 47-74h35l-64 92 68 98h-35" id="ap"/><path d="M24 0v-261h32V0H24" id="aq"/><g id="t"><use transform="matrix(0.08641975308641973,0,0,0.08641975308641973,0,0)" xlink:href="#ak"/><use transform="matrix(0.08641975308641973,0,0,0.08641975308641973,17.283950617283946,0)" xlink:href="#ap"/><use transform="matrix(0.08641975308641973,0,0,0.08641975308641973,32.8395061728395,0)" xlink:href="#P"/><use transform="matrix(0.08641975308641973,0,0,0.08641975308641973,41.481481481481474,0)" xlink:href="#ak"/><use transform="matrix(0.08641975308641973,0,0,0.08641975308641973,58.765432098765416,0)" xlink:href="#al"/><use transform="matrix(0.08641975308641973,0,0,0.08641975308641973,69.04938271604937,0)" xlink:href="#M"/><use transform="matrix(0.08641975308641973,0,0,0.08641975308641973,86.33333333333331,0)" xlink:href="#ag"/><use transform="matrix(0.08641975308641973,0,0,0.08641975308641973,103.61728395061726,0)" xlink:href="#aq"/></g><path d="M210-169c-67 3-38 105-44 169h-31v-121c0-29-5-50-35-48C34-165 62-65 56 0H25l-1-190h30c1 10-1 24 2 32 10-44 99-50 107 0 11-21 27-35 58-36 85-2 47 119 55 194h-31v-121c0-29-5-49-35-48" id="ar"/><g id="u"><use transform="matrix(0.08641975308641973,0,0,0.08641975308641973,0,0)" xlink:href="#an"/><use transform="matrix(0.08641975308641973,0,0,0.08641975308641973,15.555555555555552,0)" xlink:href="#am"/><use transform="matrix(0.08641975308641973,0,0,0.08641975308641973,32.8395061728395,0)" xlink:href="#ar"/><use transform="matrix(0.08641975308641973,0,0,0.08641975308641973,58.679012345679,0)" xlink:href="#N"/><use transform="matrix(0.08641975308641973,0,0,0.08641975308641973,75.96296296296295,0)" xlink:href="#am"/><use transform="matrix(0.08641975308641973,0,0,0.08641975308641973,93.2469135802469,0)" xlink:href="#M"/><use transform="matrix(0.08641975308641973,0,0,0.08641975308641973,110.53086419753085,0)" xlink:href="#ak"/><use transform="matrix(0.08641975308641973,0,0,0.08641975308641973,127.81481481481478,0)" xlink:href="#M"/><use transform="matrix(0.08641975308641973,0,0,0.08641975308641973,145.09876543209873,0)" xlink:href="#P"/></g><path d="M127-220V0H93v-220H8v-28h204v28h-85" id="as"/><g id="v"><use transform="matrix(0.08641975308641973,0,0,0.08641975308641973,0,0)" xlink:href="#as"/><use transform="matrix(0.08641975308641973,0,0,0.08641975308641973,18.92592592592592,0)" xlink:href="#ao"/><use transform="matrix(0.08641975308641973,0,0,0.08641975308641973,36.209876543209866,0)" xlink:href="#ak"/></g><g id="w"><use transform="matrix(0.08641975308641973,0,0,0.08641975308641973,0,0)" xlink:href="#ai"/><use transform="matrix(0.08641975308641973,0,0,0.08641975308641973,17.283950617283946,0)" xlink:href="#am"/><use transform="matrix(0.08641975308641973,0,0,0.08641975308641973,34.56790123456789,0)" xlink:href="#ag"/><use transform="matrix(0.08641975308641973,0,0,0.08641975308641973,51.85185185185183,0)" xlink:href="#aq"/></g><g id="x"><use transform="matrix(0.08641975308641973,0,0,0.08641975308641973,0,0)" xlink:href="#H"/><use transform="matrix(0.08641975308641973,0,0,0.08641975308641973,6.827160493827159,0)" xlink:href="#ah"/></g><g id="y"><use transform="matrix(0.08641975308641973,0,0,0.08641975308641973,0,0)" xlink:href="#P"/><use transform="matrix(0.08641975308641973,0,0,0.08641975308641973,8.641975308641973,0)" xlink:href="#am"/></g><path d="M143 0L79-87 56-68V0H24v-261h32v163l83-92h37l-77 82L181 0h-38" id="at"/><g id="z"><use transform="matrix(0.08641975308641973,0,0,0.08641975308641973,0,0)" xlink:href="#ar"/><use transform="matrix(0.08641975308641973,0,0,0.08641975308641973,25.8395061728395,0)" xlink:href="#ag"/><use transform="matrix(0.08641975308641973,0,0,0.08641975308641973,43.12345679012344,0)" xlink:href="#at"/><use transform="matrix(0.08641975308641973,0,0,0.08641975308641973,58.67901234567899,0)" xlink:href="#ak"/></g><g id="A"><use transform="matrix(0.08641975308641973,0,0,0.08641975308641973,0,0)" xlink:href="#P"/><use transform="matrix(0.08641975308641973,0,0,0.08641975308641973,8.641975308641973,0)" xlink:href="#ao"/><use transform="matrix(0.08641975308641973,0,0,0.08641975308641973,25.925925925925917,0)" xlink:href="#ak"/></g><g id="B"><use transform="matrix(0.08641975308641973,0,0,0.08641975308641973,0,0)" xlink:href="#I"/><use transform="matrix(0.08641975308641973,0,0,0.08641975308641973,17.283950617283946,0)" xlink:href="#O"/><use transform="matrix(0.08641975308641973,0,0,0.08641975308641973,34.56790123456789,0)" xlink:href="#ah"/><use transform="matrix(0.08641975308641973,0,0,0.08641975308641973,50.12345679012345,0)" xlink:href="#H"/><use transform="matrix(0.08641975308641973,0,0,0.08641975308641973,56.95061728395059,0)" xlink:href="#M"/><use transform="matrix(0.08641975308641973,0,0,0.08641975308641973,74.23456790123454,0)" xlink:href="#ak"/><use transform="matrix(0.08641975308641973,0,0,0.08641975308641973,91.5185185185185,0)" xlink:href="#ah"/><use transform="matrix(0.08641975308641973,0,0,0.08641975308641973,107.07407407407405,0)" xlink:href="#ah"/></g><g id="C"><use transform="matrix(0.08641975308641973,0,0,0.08641975308641973,0,0)" xlink:href="#aq"/><use transform="matrix(0.08641975308641973,0,0,0.08641975308641973,6.827160493827159,0)" xlink:href="#am"/><use transform="matrix(0.08641975308641973,0,0,0.08641975308641973,24.111111111111107,0)" xlink:href="#ai"/><use transform="matrix(0.08641975308641973,0,0,0.08641975308641973,41.39506172839505,0)" xlink:href="#H"/><use transform="matrix(0.08641975308641973,0,0,0.08641975308641973,48.222222222222214,0)" xlink:href="#an"/></g><g id="D"><use transform="matrix(0.08641975308641973,0,0,0.08641975308641973,0,0)" xlink:href="#H"/><use transform="matrix(0.08641975308641973,0,0,0.08641975308641973,6.827160493827159,0)" xlink:href="#M"/><use transform="matrix(0.08641975308641973,0,0,0.08641975308641973,24.111111111111107,0)" xlink:href="#aj"/><use transform="matrix(0.08641975308641973,0,0,0.08641975308641973,41.39506172839505,0)" xlink:href="#ak"/><use transform="matrix(0.08641975308641973,0,0,0.08641975308641973,58.679012345679,0)" xlink:href="#N"/><use transform="matrix(0.08641975308641973,0,0,0.08641975308641973,75.96296296296295,0)" xlink:href="#ak"/><use transform="matrix(0.08641975308641973,0,0,0.08641975308641973,93.2469135802469,0)" xlink:href="#M"/><use transform="matrix(0.08641975308641973,0,0,0.08641975308641973,110.53086419753085,0)" xlink:href="#aj"/><use transform="matrix(0.08641975308641973,0,0,0.08641975308641973,127.81481481481478,0)" xlink:href="#ak"/><use transform="matrix(0.08641975308641973,0,0,0.08641975308641973,145.09876543209873,0)" xlink:href="#M"/><use transform="matrix(0.08641975308641973,0,0,0.08641975308641973,162.38271604938268,0)" xlink:href="#P"/></g></defs></g></svg>