<svg xmlns="http://www.w3.org/2000/svg" xmlns:xlink="http://www.w3.org/1999/xlink" xmlns:lucid="lucid" width="783" height="243"><g transform="translate(-398.5 -518.5)" lucid:page-tab-id="0_0"><path d="M680 740a20 20 0 0 1 20-20h200a20 20 0 0 1 20 20 20 20 0 0 1-20 20H700a20 20 0 0 1-20-20z" stroke="#000" stroke-width="3" fill="#ced4db"/><use xlink:href="#a" transform="matrix(1,0,0,1,685,725) translate(62.75499999999998 21.430555555555557)"/><path d="M680 620a20 20 0 0 1 20-20h200a20 20 0 0 1 20 20v40a20 20 0 0 1-20 20H700a20 20 0 0 1-20-20z" stroke="#000" stroke-width="3" fill="url(#b)"/><use xlink:href="#c" transform="matrix(1,0,0,1,685,605) translate(39.0864197530864 39.24305555555556)"/><use xlink:href="#d" transform="matrix(1,0,0,1,685,605) translate(129.87037037037038 39.24305555555556)"/><path d="M680 540a20 20 0 0 1 20-20h200a20 20 0 0 1 20 20 20 20 0 0 1-20 20H700a20 20 0 0 1-20-20z" stroke="#000" stroke-width="3" fill="#c3f7c8"/><use xlink:href="#e" transform="matrix(1,0,0,1,685,525) translate(55.35376543209875 21.430555555555557)"/><path d="M800 700v-17.5" stroke="#000" stroke-width="2" fill="none"/><path d="M800 715.26L795.37 701h9.26z" stroke="#000" stroke-width="2"/><path d="M800.98 682.53H799v-1.03H801z" stroke="#000" stroke-width=".05"/><path d="M400 526a6 6 0 0 1 6-6h168a6 6 0 0 1 6 6v228a6 6 0 0 1-6 6H406a6 6 0 0 1-6-6z" stroke="#000" stroke-opacity="0" stroke-width="3" fill="#fff" fill-opacity="0"/><use xlink:href="#f" transform="matrix(1,0,0,1,405,525) translate(13.12654320987653 77.05555555555556)"/><use xlink:href="#g" transform="matrix(1,0,0,1,405,525) translate(93.1820987654321 77.05555555555556)"/><use xlink:href="#h" transform="matrix(1,0,0,1,405,525) translate(9.663580246913568 106.3888888888889)"/><use xlink:href="#i" transform="matrix(1,0,0,1,405,525) translate(50.404320987654316 106.3888888888889)"/><use xlink:href="#j" transform="matrix(1,0,0,1,405,525) translate(134.53395061728395 106.3888888888889)"/><use xlink:href="#h" transform="matrix(1,0,0,1,405,525) translate(25.993827160493822 135.72222222222223)"/><use xlink:href="#k" transform="matrix(1,0,0,1,405,525) translate(66.73456790123457 135.72222222222223)"/><use xlink:href="#l" transform="matrix(1,0,0,1,405,525) translate(123.63580246913581 135.72222222222223)"/><use xlink:href="#m" transform="matrix(1,0,0,1,405,525) translate(15.774691358024668 165.0555555555556)"/><path d="M800 580v-17.5" stroke="#000" stroke-width="2" fill="none"/><path d="M800 595.26L795.37 581h9.26z" stroke="#000" stroke-width="2"/><path d="M800.98 562.53H799v-1.03H801z" stroke="#000" stroke-width=".05"/><path d="M1040 526a6 6 0 0 1 6-6h108a6 6 0 0 1 6 6v68a6 6 0 0 1-6 6h-108a6 6 0 0 1-6-6z" stroke="#000" stroke-opacity="0" stroke-width="3" fill="#fff" fill-opacity="0"/><use xlink:href="#n" transform="matrix(1,0,0,1,1045,525) translate(0.8487654320987517 26.211805555555557)"/><use xlink:href="#o" transform="matrix(1,0,0,1,1045,525) translate(2.783950617283935 55.54513888888889)"/><path d="M1040 626a6 6 0 0 1 6-6h108a6 6 0 0 1 6 6v68a6 6 0 0 1-6 6h-108a6 6 0 0 1-6-6z" stroke="#000" stroke-opacity="0" stroke-width="3" fill="#fff" fill-opacity="0"/><use xlink:href="#p" transform="matrix(1,0,0,1,1045,625) translate(5.466049382716044 26.118055555555557)"/><use xlink:href="#q" transform="matrix(1,0,0,1,1045,625) translate(28.586419753086417 55.45138888888889)"/><path d="M1020 726a6 6 0 0 1 6-6h148a6 6 0 0 1 6 6v28a6 6 0 0 1-6 6h-148a6 6 0 0 1-6-6z" stroke="#000" stroke-opacity="0" stroke-width="3" fill="#fff" fill-opacity="0"/><g><use xlink:href="#r" transform="matrix(1,0,0,1,1025,725) translate(3.126543209876516 21.430555555555557)"/></g><path d="M922.5 540.17l2.9.5m3.9.64l5.8 1m3.9.65l5.82 1m3.9.64l5.8.98m3.9.65l5.83.98m3.88.67l5.83.98m3.88.66l5.82 1m3.9.65l5.82.98m3.88.66l5.83.97m3.87.65l5.83 1m3.88.64l5.83 1m3.9.64l5.82 1m3.88.64l2.9.5" stroke="#3a414a" stroke-width="2" fill="none"/><path d="M922.68 539.2l-.33 1.93-.92-.15.08-.98-.07-1zM1040 559v2l-1.17-.2.32-1.93z" stroke="#3a414a" stroke-width=".05" fill="#3a414a"/><path d="M922.5 640.17l2.9.5m3.88.64l5.83 1m3.9.65l5.82 1m3.88.64l5.83.98m3.9.65l5.8.98m3.9.67l5.82.98m3.9.66l5.8 1m3.9.65l5.82.98m3.9.66l5.82.97m3.87.65l5.82 1m3.88.64l5.83 1m3.9.64l5.82 1m3.88.64l2.9.5" stroke="#3a414a" stroke-width="2" fill="none"/><path d="M922.67 639.2l-.32 1.93-.85-.14v-2zM1040 659v2l-1.17-.2.32-1.93z" stroke="#3a414a" stroke-width=".05" fill="#3a414a"/><path d="M922.5 740h2.9m3.86 0h5.8m3.85 0h5.8m3.86 0h5.8m3.85 0h5.8m3.86 0h5.8m3.85 0h5.8m3.86 0h5.8m3.85 0h5.8m3.86 0h5.78m3.87 0h2.9" stroke="#3a414a" stroke-width="2" fill="none"/><path d="M922.53 740.98h-1.1l.08-.98-.07-.98h1.1zM1020 740.98h-1.03V739h1.03z" stroke="#3a414a" stroke-width=".05" fill="#3a414a"/><defs><path d="M30-248c118-7 216 8 213 122C240-48 200 0 122 0H30v-248zM63-27c89 8 146-16 146-99s-60-101-146-95v194" id="s"/><path d="M141-36C126-15 110 5 73 4 37 3 15-17 15-53c-1-64 63-63 125-63 3-35-9-54-41-54-24 1-41 7-42 31l-33-3c5-37 33-52 76-52 45 0 72 20 72 64v82c-1 20 7 32 28 27v20c-31 9-61-2-59-35zM48-53c0 20 12 33 32 33 41-3 63-29 60-74-43 2-92-5-92 41" id="t"/><path d="M59-47c-2 24 18 29 38 22v24C64 9 27 4 27-40v-127H5v-23h24l9-43h21v43h35v23H59v120" id="u"/><path d="M115-194c53 0 69 39 70 98 0 66-23 100-70 100C84 3 66-7 56-30L54 0H23l1-261h32v101c10-23 28-34 59-34zm-8 174c40 0 45-34 45-75 0-40-5-75-45-74-42 0-51 32-51 76 0 43 10 73 51 73" id="v"/><path d="M135-143c-3-34-86-38-87 0 15 53 115 12 119 90S17 21 10-45l28-5c4 36 97 45 98 0-10-56-113-15-118-90-4-57 82-63 122-42 12 7 21 19 24 35" id="w"/><path d="M100-194c63 0 86 42 84 106H49c0 40 14 67 53 68 26 1 43-12 49-29l28 8c-11 28-37 45-77 45C44 4 14-33 15-96c1-61 26-98 85-98zm52 81c6-60-76-77-97-28-3 7-6 17-6 28h103" id="x"/><g id="a"><use transform="matrix(0.06790123456790124,0,0,0.06790123456790124,0,0)" xlink:href="#s"/><use transform="matrix(0.06790123456790124,0,0,0.06790123456790124,17.58641975308642,0)" xlink:href="#t"/><use transform="matrix(0.06790123456790124,0,0,0.06790123456790124,31.16666666666667,0)" xlink:href="#u"/><use transform="matrix(0.06790123456790124,0,0,0.06790123456790124,37.9567901234568,0)" xlink:href="#t"/><use transform="matrix(0.06790123456790124,0,0,0.06790123456790124,51.537037037037045,0)" xlink:href="#v"/><use transform="matrix(0.06790123456790124,0,0,0.06790123456790124,65.11728395061729,0)" xlink:href="#t"/><use transform="matrix(0.06790123456790124,0,0,0.06790123456790124,78.69753086419755,0)" xlink:href="#w"/><use transform="matrix(0.06790123456790124,0,0,0.06790123456790124,90.91975308641979,0)" xlink:href="#x"/></g><linearGradient gradientUnits="userSpaceOnUse" id="b" x1="680" y1="680" x2="680" y2="600"><stop offset="18.48%" stop-color="#fff"/><stop offset="24.28%" stop-color="#cfe4ff"/></linearGradient><path d="M100-194c62-1 85 37 85 99 1 63-27 99-86 99S16-35 15-95c0-66 28-99 85-99zM99-20c44 1 53-31 53-75 0-43-8-75-51-75s-53 32-53 75 10 74 51 75" id="y"/><path d="M210-169c-67 3-38 105-44 169h-31v-121c0-29-5-50-35-48C34-165 62-65 56 0H25l-1-190h30c1 10-1 24 2 32 10-44 99-50 107 0 11-21 27-35 58-36 85-2 47 119 55 194h-31v-121c0-29-5-49-35-48" id="z"/><path d="M24-231v-30h32v30H24zM24 0v-190h32V0H24" id="A"/><path d="M117-194c89-4 53 116 60 194h-32v-121c0-31-8-49-39-48C34-167 62-67 57 0H25l-1-190h30c1 10-1 24 2 32 11-22 29-35 61-36" id="B"/><g id="c"><use transform="matrix(0.06790123456790124,0,0,0.06790123456790124,0,0)" xlink:href="#s"/><use transform="matrix(0.06790123456790124,0,0,0.06790123456790124,17.58641975308642,0)" xlink:href="#y"/><use transform="matrix(0.06790123456790124,0,0,0.06790123456790124,31.16666666666667,0)" xlink:href="#z"/><use transform="matrix(0.06790123456790124,0,0,0.06790123456790124,51.46913580246915,0)" xlink:href="#t"/><use transform="matrix(0.06790123456790124,0,0,0.06790123456790124,65.0493827160494,0)" xlink:href="#A"/><use transform="matrix(0.06790123456790124,0,0,0.06790123456790124,70.4135802469136,0)" xlink:href="#B"/></g><path d="M30 0v-248h33v221h125V0H30" id="C"/><path d="M179-190L93 31C79 59 56 82 12 73V49c39 6 53-20 64-50L1-190h34L92-34l54-156h33" id="D"/><path d="M114-163C36-179 61-72 57 0H25l-1-190h30c1 12-1 29 2 39 6-27 23-49 58-41v29" id="E"/><g id="d"><use transform="matrix(0.06790123456790124,0,0,0.06790123456790124,0,0)" xlink:href="#C"/><use transform="matrix(0.06790123456790124,0,0,0.06790123456790124,13.580246913580249,0)" xlink:href="#t"/><use transform="matrix(0.06790123456790124,0,0,0.06790123456790124,27.160493827160497,0)" xlink:href="#D"/><use transform="matrix(0.06790123456790124,0,0,0.06790123456790124,39.38271604938272,0)" xlink:href="#x"/><use transform="matrix(0.06790123456790124,0,0,0.06790123456790124,52.96296296296297,0)" xlink:href="#E"/></g><path d="M205 0l-28-72H64L36 0H1l101-248h38L239 0h-34zm-38-99l-47-123c-12 45-31 82-46 123h93" id="F"/><path d="M115-194c55 1 70 41 70 98S169 2 115 4C84 4 66-9 55-30l1 105H24l-1-265h31l2 30c10-21 28-34 59-34zm-8 174c40 0 45-34 45-75s-6-73-45-74c-42 0-51 32-51 76 0 43 10 73 51 73" id="G"/><path d="M24 0v-261h32V0H24" id="H"/><path d="M96-169c-40 0-48 33-48 73s9 75 48 75c24 0 41-14 43-38l32 2c-6 37-31 61-74 61-59 0-76-41-82-99-10-93 101-131 147-64 4 7 5 14 7 22l-32 3c-4-21-16-35-41-35" id="I"/><g id="e"><use transform="matrix(0.06790123456790124,0,0,0.06790123456790124,0,0)" xlink:href="#F"/><use transform="matrix(0.06790123456790124,0,0,0.06790123456790124,16.296296296296298,0)" xlink:href="#G"/><use transform="matrix(0.06790123456790124,0,0,0.06790123456790124,29.876543209876544,0)" xlink:href="#G"/><use transform="matrix(0.06790123456790124,0,0,0.06790123456790124,43.45679012345679,0)" xlink:href="#H"/><use transform="matrix(0.06790123456790124,0,0,0.06790123456790124,48.82098765432099,0)" xlink:href="#A"/><use transform="matrix(0.06790123456790124,0,0,0.06790123456790124,54.18518518518518,0)" xlink:href="#I"/><use transform="matrix(0.06790123456790124,0,0,0.06790123456790124,66.4074074074074,0)" xlink:href="#t"/><use transform="matrix(0.06790123456790124,0,0,0.06790123456790124,79.98765432098767,0)" xlink:href="#u"/><use transform="matrix(0.06790123456790124,0,0,0.06790123456790124,86.77777777777779,0)" xlink:href="#A"/><use transform="matrix(0.06790123456790124,0,0,0.06790123456790124,92.14197530864199,0)" xlink:href="#y"/><use transform="matrix(0.06790123456790124,0,0,0.06790123456790124,105.72222222222224,0)" xlink:href="#B"/></g><path d="M11 0l48-248h34L50-27h125l-5 27H11" id="J"/><path d="M165-48c-4 18 1 34 23 27l-3 20c-29 8-62 0-52-35h-2C116-14 99 4 63 4 30 4 8-16 8-49c0-68 71-67 138-67 10-26 0-56-31-54-26 1-42 9-47 31l-32-5c8-67 160-71 144 15-5 28-9 54-15 81zM42-50c3 52 80 24 89-6 7-12 7-24 11-38-47 1-103-4-100 44" id="K"/><path d="M198-190L69 30C53 58 25 83-20 72c4-11-1-27 19-22 33-1 43-29 59-52L20-190h32L79-34l84-156h35" id="L"/><path d="M111-194c62-3 86 47 72 106H45c-7 38 6 69 45 68 27-1 43-14 53-32l24 11C152-15 129 4 87 4 38 3 12-23 12-71c0-70 32-119 99-123zm44 81c14-66-71-72-95-28-4 8-8 17-11 28h106" id="M"/><path d="M66-151c12-25 30-51 66-40l-6 26C45-176 58-65 38 0H6l36-190h30" id="N"/><path d="M55-144c13 50 104 24 104 88C159 21 15 23 1-39l26-10c6 40 102 42 102-4-13-50-104-23-104-87 0-71 143-71 148-8l-29 4c-5-35-85-37-89 0" id="O"/><g id="f"><use transform="matrix(0.06790123456790124,0,0,0.06790123456790124,0,0)" xlink:href="#J"/><use transform="matrix(0.06790123456790124,0,0,0.06790123456790124,13.580246913580249,0)" xlink:href="#K"/><use transform="matrix(0.06790123456790124,0,0,0.06790123456790124,27.160493827160497,0)" xlink:href="#L"/><use transform="matrix(0.06790123456790124,0,0,0.06790123456790124,39.38271604938272,0)" xlink:href="#M"/><use transform="matrix(0.06790123456790124,0,0,0.06790123456790124,52.96296296296297,0)" xlink:href="#N"/><use transform="matrix(0.06790123456790124,0,0,0.06790123456790124,61.043209876543216,0)" xlink:href="#O"/></g><path d="M85-194c31 0 48 13 60 33l-1-100h32l1 261h-30c-2-10 0-23-3-31C134-8 116 4 85 4 32 4 16-35 15-94c0-66 23-100 70-100zm9 24c-40 0-46 34-46 75 0 40 6 74 45 74 42 0 51-32 51-76 0-42-9-74-50-73" id="P"/><path d="M108 0H70L1-190h34L89-25l56-165h34" id="Q"/><g id="g"><use transform="matrix(0.06790123456790124,0,0,0.06790123456790124,0,0)" xlink:href="#P"/><use transform="matrix(0.06790123456790124,0,0,0.06790123456790124,13.580246913580249,0)" xlink:href="#A"/><use transform="matrix(0.06790123456790124,0,0,0.06790123456790124,18.944444444444446,0)" xlink:href="#Q"/><use transform="matrix(0.06790123456790124,0,0,0.06790123456790124,31.16666666666667,0)" xlink:href="#A"/><use transform="matrix(0.06790123456790124,0,0,0.06790123456790124,36.53086419753087,0)" xlink:href="#P"/><use transform="matrix(0.06790123456790124,0,0,0.06790123456790124,50.111111111111114,0)" xlink:href="#x"/></g><path d="M106-169C34-169 62-67 57 0H25v-261h32l-1 103c12-21 28-36 61-36 89 0 53 116 60 194h-32v-121c2-32-8-49-39-48" id="R"/><g id="h"><use transform="matrix(0.06790123456790124,0,0,0.06790123456790124,0,0)" xlink:href="#u"/><use transform="matrix(0.06790123456790124,0,0,0.06790123456790124,6.790123456790124,0)" xlink:href="#R"/><use transform="matrix(0.06790123456790124,0,0,0.06790123456790124,20.370370370370374,0)" xlink:href="#x"/></g><g id="i"><use transform="matrix(0.06790123456790124,0,0,0.06790123456790124,0,0)" xlink:href="#w"/><use transform="matrix(0.06790123456790124,0,0,0.06790123456790124,12.222222222222223,0)" xlink:href="#D"/><use transform="matrix(0.06790123456790124,0,0,0.06790123456790124,24.444444444444446,0)" xlink:href="#w"/><use transform="matrix(0.06790123456790124,0,0,0.06790123456790124,36.66666666666667,0)" xlink:href="#u"/><use transform="matrix(0.06790123456790124,0,0,0.06790123456790124,43.4567901234568,0)" xlink:href="#x"/><use transform="matrix(0.06790123456790124,0,0,0.06790123456790124,57.037037037037045,0)" xlink:href="#z"/></g><g id="j"><use transform="matrix(0.06790123456790124,0,0,0.06790123456790124,0,0)" xlink:href="#v"/><use transform="matrix(0.06790123456790124,0,0,0.06790123456790124,13.580246913580249,0)" xlink:href="#D"/></g><g id="k"><use transform="matrix(0.06790123456790124,0,0,0.06790123456790124,0,0)" xlink:href="#H"/><use transform="matrix(0.06790123456790124,0,0,0.06790123456790124,5.364197530864199,0)" xlink:href="#x"/><use transform="matrix(0.06790123456790124,0,0,0.06790123456790124,18.944444444444446,0)" xlink:href="#Q"/><use transform="matrix(0.06790123456790124,0,0,0.06790123456790124,31.16666666666667,0)" xlink:href="#x"/><use transform="matrix(0.06790123456790124,0,0,0.06790123456790124,44.74691358024692,0)" xlink:href="#H"/></g><path d="M101-234c-31-9-42 10-38 44h38v23H63V0H32v-167H5v-23h27c-7-52 17-82 69-68v24" id="S"/><g id="l"><use transform="matrix(0.06790123456790124,0,0,0.06790123456790124,0,0)" xlink:href="#y"/><use transform="matrix(0.06790123456790124,0,0,0.06790123456790124,13.580246913580249,0)" xlink:href="#S"/></g><g id="m"><use transform="matrix(0.06790123456790124,0,0,0.06790123456790124,0,0)" xlink:href="#t"/><use transform="matrix(0.06790123456790124,0,0,0.06790123456790124,13.580246913580249,0)" xlink:href="#v"/><use transform="matrix(0.06790123456790124,0,0,0.06790123456790124,27.160493827160497,0)" xlink:href="#w"/><use transform="matrix(0.06790123456790124,0,0,0.06790123456790124,39.38271604938272,0)" xlink:href="#u"/><use transform="matrix(0.06790123456790124,0,0,0.06790123456790124,46.17283950617285,0)" xlink:href="#E"/><use transform="matrix(0.06790123456790124,0,0,0.06790123456790124,54.253086419753096,0)" xlink:href="#t"/><use transform="matrix(0.06790123456790124,0,0,0.06790123456790124,67.83333333333334,0)" xlink:href="#I"/><use transform="matrix(0.06790123456790124,0,0,0.06790123456790124,80.05555555555557,0)" xlink:href="#u"/><use transform="matrix(0.06790123456790124,0,0,0.06790123456790124,86.8456790123457,0)" xlink:href="#B"/><use transform="matrix(0.06790123456790124,0,0,0.06790123456790124,100.42592592592595,0)" xlink:href="#x"/><use transform="matrix(0.06790123456790124,0,0,0.06790123456790124,114.0061728395062,0)" xlink:href="#w"/><use transform="matrix(0.06790123456790124,0,0,0.06790123456790124,126.22839506172843,0)" xlink:href="#w"/></g><path d="M197 0v-115H63V0H30v-248h33v105h134v-105h34V0h-34" id="T"/><path d="M177-190C167-65 218 103 67 71c-23-6-38-20-44-43l32-5c15 47 100 32 89-28v-30C133-14 115 1 83 1 29 1 15-40 15-95c0-56 16-97 71-98 29-1 48 16 59 35 1-10 0-23 2-32h30zM94-22c36 0 50-32 50-73 0-42-14-75-50-75-39 0-46 34-46 75s6 73 46 73" id="U"/><path d="M16-82v-28h88v28H16" id="V"/><g id="n"><use transform="matrix(0.06790123456790124,0,0,0.06790123456790124,0,0)" xlink:href="#T"/><use transform="matrix(0.06790123456790124,0,0,0.06790123456790124,17.58641975308642,0)" xlink:href="#A"/><use transform="matrix(0.06790123456790124,0,0,0.06790123456790124,22.95061728395062,0)" xlink:href="#U"/><use transform="matrix(0.06790123456790124,0,0,0.06790123456790124,36.53086419753087,0)" xlink:href="#R"/><use transform="matrix(0.06790123456790124,0,0,0.06790123456790124,50.111111111111114,0)" xlink:href="#V"/><use transform="matrix(0.06790123456790124,0,0,0.06790123456790124,58.19135802469136,0)" xlink:href="#H"/><use transform="matrix(0.06790123456790124,0,0,0.06790123456790124,63.55555555555556,0)" xlink:href="#x"/><use transform="matrix(0.06790123456790124,0,0,0.06790123456790124,77.13580246913581,0)" xlink:href="#Q"/><use transform="matrix(0.06790123456790124,0,0,0.06790123456790124,89.35802469135804,0)" xlink:href="#x"/><use transform="matrix(0.06790123456790124,0,0,0.06790123456790124,102.9382716049383,0)" xlink:href="#H"/></g><g id="o"><use transform="matrix(0.06790123456790124,0,0,0.06790123456790124,0,0)" xlink:href="#w"/><use transform="matrix(0.06790123456790124,0,0,0.06790123456790124,12.222222222222223,0)" xlink:href="#I"/><use transform="matrix(0.06790123456790124,0,0,0.06790123456790124,24.444444444444446,0)" xlink:href="#x"/><use transform="matrix(0.06790123456790124,0,0,0.06790123456790124,38.0246913580247,0)" xlink:href="#B"/><use transform="matrix(0.06790123456790124,0,0,0.06790123456790124,51.604938271604944,0)" xlink:href="#t"/><use transform="matrix(0.06790123456790124,0,0,0.06790123456790124,65.18518518518519,0)" xlink:href="#E"/><use transform="matrix(0.06790123456790124,0,0,0.06790123456790124,73.26543209876544,0)" xlink:href="#A"/><use transform="matrix(0.06790123456790124,0,0,0.06790123456790124,78.62962962962965,0)" xlink:href="#y"/><use transform="matrix(0.06790123456790124,0,0,0.06790123456790124,92.2098765432099,0)" xlink:href="#w"/></g><path d="M160-131c35 5 61 23 61 61C221 17 115-2 30 0v-248c76 3 177-17 177 60 0 33-19 50-47 57zm-97-11c50-1 110 9 110-42 0-47-63-36-110-37v79zm0 115c55-2 124 14 124-45 0-56-70-42-124-44v89" id="W"/><path d="M84 4C-5 8 30-112 23-190h32v120c0 31 7 50 39 49 72-2 45-101 50-169h31l1 190h-30c-1-10 1-25-2-33-11 22-28 36-60 37" id="X"/><g id="p"><use transform="matrix(0.06790123456790124,0,0,0.06790123456790124,0,0)" xlink:href="#W"/><use transform="matrix(0.06790123456790124,0,0,0.06790123456790124,16.296296296296298,0)" xlink:href="#X"/><use transform="matrix(0.06790123456790124,0,0,0.06790123456790124,29.876543209876544,0)" xlink:href="#w"/><use transform="matrix(0.06790123456790124,0,0,0.06790123456790124,42.098765432098766,0)" xlink:href="#A"/><use transform="matrix(0.06790123456790124,0,0,0.06790123456790124,47.46296296296296,0)" xlink:href="#B"/><use transform="matrix(0.06790123456790124,0,0,0.06790123456790124,61.04320987654321,0)" xlink:href="#x"/><use transform="matrix(0.06790123456790124,0,0,0.06790123456790124,74.62345679012346,0)" xlink:href="#w"/><use transform="matrix(0.06790123456790124,0,0,0.06790123456790124,86.84567901234567,0)" xlink:href="#w"/></g><g id="q"><use transform="matrix(0.06790123456790124,0,0,0.06790123456790124,0,0)" xlink:href="#E"/><use transform="matrix(0.06790123456790124,0,0,0.06790123456790124,8.080246913580249,0)" xlink:href="#X"/><use transform="matrix(0.06790123456790124,0,0,0.06790123456790124,21.660493827160497,0)" xlink:href="#H"/><use transform="matrix(0.06790123456790124,0,0,0.06790123456790124,27.024691358024697,0)" xlink:href="#x"/><use transform="matrix(0.06790123456790124,0,0,0.06790123456790124,40.604938271604944,0)" xlink:href="#w"/></g><path d="M33 0v-248h34V0H33" id="Y"/><g id="r"><use transform="matrix(0.06790123456790124,0,0,0.06790123456790124,0,0)" xlink:href="#Y"/><use transform="matrix(0.06790123456790124,0,0,0.06790123456790124,6.790123456790124,0)" xlink:href="#B"/><use transform="matrix(0.06790123456790124,0,0,0.06790123456790124,20.370370370370374,0)" xlink:href="#S"/><use transform="matrix(0.06790123456790124,0,0,0.06790123456790124,27.160493827160497,0)" xlink:href="#E"/><use transform="matrix(0.06790123456790124,0,0,0.06790123456790124,35.24074074074075,0)" xlink:href="#t"/><use transform="matrix(0.06790123456790124,0,0,0.06790123456790124,48.820987654320994,0)" xlink:href="#w"/><use transform="matrix(0.06790123456790124,0,0,0.06790123456790124,61.043209876543216,0)" xlink:href="#u"/><use transform="matrix(0.06790123456790124,0,0,0.06790123456790124,67.83333333333334,0)" xlink:href="#E"/><use transform="matrix(0.06790123456790124,0,0,0.06790123456790124,75.9135802469136,0)" xlink:href="#X"/><use transform="matrix(0.06790123456790124,0,0,0.06790123456790124,89.49382716049385,0)" xlink:href="#I"/><use transform="matrix(0.06790123456790124,0,0,0.06790123456790124,101.71604938271608,0)" xlink:href="#u"/><use transform="matrix(0.06790123456790124,0,0,0.06790123456790124,108.5061728395062,0)" xlink:href="#X"/><use transform="matrix(0.06790123456790124,0,0,0.06790123456790124,122.08641975308646,0)" xlink:href="#E"/><use transform="matrix(0.06790123456790124,0,0,0.06790123456790124,130.1666666666667,0)" xlink:href="#x"/></g></defs></g></svg>