<svg xmlns="http://www.w3.org/2000/svg" xmlns:xlink="http://www.w3.org/1999/xlink" xmlns:lucid="lucid" width="983" height="401.5"><g transform="translate(-298.49971104560086 -358.5)" lucid:page-tab-id="0_0"><path d="M601 460l3.98-.02m7.96-.03l7.96-.02m7.96-.03l7.96-.03m7.96-.03l7.96-.03m7.96 0l7.96-.04m7.96-.03l7.96-.03m7.96-.03l7.96-.02m7.96-.03l7.96-.03m7.96-.04l7.96-.03m7.96-.02l7.96-.02m7.96-.03l7.96-.03m7.96-.03l7.96-.03m7.96-.03l7.96-.03m7.96-.02l7.96-.03m7.96-.02l7.96-.03m7.96-.03l7.96-.03m7.96-.03h7.96m7.96-.04l7.96-.03m7.96-.03l7.96-.03m7.96-.02l7.96-.03m7.96-.03l7.96-.04m7.96-.03l7.96-.02m7.96-.02l7.96-.03m7.96-.03l7.96-.03m7.96-.03l7.96-.03m7.96-.03H999M601.03 460H600M998.98 458.6h1.02M601 638.5h3.98m7.96 0h7.96m7.96 0h7.96m7.96 0h7.96m7.96 0h7.96m7.96 0h7.96m7.96 0h7.96m7.96 0h7.96m7.96 0h7.96m7.96 0h7.96m7.96 0h7.96m7.96 0h7.96m7.96 0h7.96m7.96 0h7.96m7.96 0h7.96m7.96 0h7.96m7.96 0h7.96m7.96 0h7.96m7.96 0h7.96m7.96 0h7.96m7.96 0h7.96m7.96 0h7.96m7.96 0h7.96m7.96 0h7.96m7.96 0h7.96m7.96 0H999M601.03 638.5H600M998.97 638.5h1.03" stroke="#ba23f6" stroke-width="2" fill="none"/><path d="M600 678.5a20 20 0 0 1 20-20h360a20 20 0 0 1 20 20v60a20 20 0 0 1-20 20H620a20 20 0 0 1-20-20z" fill-opacity="0"/><path d="M598.5 678.5a1.5 1.5 0 0 1 1.5-1.5 1.5 1.5 0 0 1 1.5 1.5 1.5 1.5 0 0 1-1.5 1.5 1.5 1.5 0 0 1-1.5-1.5m2.73-9.96a1.5 1.5 0 0 1 1.5-1.5 1.5 1.5 0 0 1 1.5 1.5 1.5 1.5 0 0 1-1.5 1.5 1.5 1.5 0 0 1-1.5-1.5v-.03m7.3-7.26a1.5 1.5 0 0 1 1.5-1.5 1.5 1.5 0 0 1 1.5 1.5 1.5 1.5 0 0 1-1.5 1.5 1.5 1.5 0 0 1-1.5-1.5v-.03m9.97-2.7a1.5 1.5 0 0 1 1.5-1.5 1.5 1.5 0 0 1 1.5 1.5 1.5 1.5 0 0 1-1.5 1.5 1.5 1.5 0 0 1-1.5-1.5m12 0a1.5 1.5 0 0 1 1.5-1.5 1.5 1.5 0 0 1 1.5 1.5 1.5 1.5 0 0 1-1.5 1.5 1.5 1.5 0 0 1-1.5-1.5m12 0a1.5 1.5 0 0 1 1.5-1.5 1.5 1.5 0 0 1 1.5 1.5 1.5 1.5 0 0 1-1.5 1.5 1.5 1.5 0 0 1-1.5-1.5m12 0a1.5 1.5 0 0 1 1.5-1.5 1.5 1.5 0 0 1 1.5 1.5 1.5 1.5 0 0 1-1.5 1.5 1.5 1.5 0 0 1-1.5-1.5m12 0a1.5 1.5 0 0 1 1.5-1.5 1.5 1.5 0 0 1 1.5 1.5 1.5 1.5 0 0 1-1.5 1.5 1.5 1.5 0 0 1-1.5-1.5m12 0a1.5 1.5 0 0 1 1.5-1.5 1.5 1.5 0 0 1 1.5 1.5 1.5 1.5 0 0 1-1.5 1.5 1.5 1.5 0 0 1-1.5-1.5m12 0a1.5 1.5 0 0 1 1.5-1.5 1.5 1.5 0 0 1 1.5 1.5 1.5 1.5 0 0 1-1.5 1.5 1.5 1.5 0 0 1-1.5-1.5m12 0a1.5 1.5 0 0 1 1.5-1.5 1.5 1.5 0 0 1 1.5 1.5 1.5 1.5 0 0 1-1.5 1.5 1.5 1.5 0 0 1-1.5-1.5m12 0a1.5 1.5 0 0 1 1.5-1.5 1.5 1.5 0 0 1 1.5 1.5 1.5 1.5 0 0 1-1.5 1.5 1.5 1.5 0 0 1-1.5-1.5m12 0a1.5 1.5 0 0 1 1.5-1.5 1.5 1.5 0 0 1 1.5 1.5 1.5 1.5 0 0 1-1.5 1.5 1.5 1.5 0 0 1-1.5-1.5m12 0a1.5 1.5 0 0 1 1.5-1.5 1.5 1.5 0 0 1 1.5 1.5 1.5 1.5 0 0 1-1.5 1.5 1.5 1.5 0 0 1-1.5-1.5m12 0a1.5 1.5 0 0 1 1.5-1.5 1.5 1.5 0 0 1 1.5 1.5 1.5 1.5 0 0 1-1.5 1.5 1.5 1.5 0 0 1-1.5-1.5m12 0a1.5 1.5 0 0 1 1.5-1.5 1.5 1.5 0 0 1 1.5 1.5 1.5 1.5 0 0 1-1.5 1.5 1.5 1.5 0 0 1-1.5-1.5m12 0a1.5 1.5 0 0 1 1.5-1.5 1.5 1.5 0 0 1 1.5 1.5 1.5 1.5 0 0 1-1.5 1.5 1.5 1.5 0 0 1-1.5-1.5m12 0a1.5 1.5 0 0 1 1.5-1.5 1.5 1.5 0 0 1 1.5 1.5 1.5 1.5 0 0 1-1.5 1.5 1.5 1.5 0 0 1-1.5-1.5m12 0a1.5 1.5 0 0 1 1.5-1.5 1.5 1.5 0 0 1 1.5 1.5 1.5 1.5 0 0 1-1.5 1.5 1.5 1.5 0 0 1-1.5-1.5m12 0a1.5 1.5 0 0 1 1.5-1.5 1.5 1.5 0 0 1 1.5 1.5 1.5 1.5 0 0 1-1.5 1.5 1.5 1.5 0 0 1-1.5-1.5m12 0a1.5 1.5 0 0 1 1.5-1.5 1.5 1.5 0 0 1 1.5 1.5 1.5 1.5 0 0 1-1.5 1.5 1.5 1.5 0 0 1-1.5-1.5m12 0a1.5 1.5 0 0 1 1.5-1.5 1.5 1.5 0 0 1 1.5 1.5 1.5 1.5 0 0 1-1.5 1.5 1.5 1.5 0 0 1-1.5-1.5m12 0a1.5 1.5 0 0 1 1.5-1.5 1.5 1.5 0 0 1 1.5 1.5 1.5 1.5 0 0 1-1.5 1.5 1.5 1.5 0 0 1-1.5-1.5m12 0a1.5 1.5 0 0 1 1.5-1.5 1.5 1.5 0 0 1 1.5 1.5 1.5 1.5 0 0 1-1.5 1.5 1.5 1.5 0 0 1-1.5-1.5m12 0a1.5 1.5 0 0 1 1.5-1.5 1.5 1.5 0 0 1 1.5 1.5 1.5 1.5 0 0 1-1.5 1.5 1.5 1.5 0 0 1-1.5-1.5m12 0a1.5 1.5 0 0 1 1.5-1.5 1.5 1.5 0 0 1 1.5 1.5 1.5 1.5 0 0 1-1.5 1.5 1.5 1.5 0 0 1-1.5-1.5m12 0a1.5 1.5 0 0 1 1.5-1.5 1.5 1.5 0 0 1 1.5 1.5 1.5 1.5 0 0 1-1.5 1.5 1.5 1.5 0 0 1-1.5-1.5m12 0a1.5 1.5 0 0 1 1.5-1.5 1.5 1.5 0 0 1 1.5 1.5 1.5 1.5 0 0 1-1.5 1.5 1.5 1.5 0 0 1-1.5-1.5m12 0a1.5 1.5 0 0 1 1.5-1.5 1.5 1.5 0 0 1 1.5 1.5 1.5 1.5 0 0 1-1.5 1.5 1.5 1.5 0 0 1-1.5-1.5m12 0a1.5 1.5 0 0 1 1.5-1.5 1.5 1.5 0 0 1 1.5 1.5 1.5 1.5 0 0 1-1.5 1.5 1.5 1.5 0 0 1-1.5-1.5m12 0a1.5 1.5 0 0 1 1.5-1.5 1.5 1.5 0 0 1 1.5 1.5 1.5 1.5 0 0 1-1.5 1.5 1.5 1.5 0 0 1-1.5-1.5m12 0a1.5 1.5 0 0 1 1.5-1.5 1.5 1.5 0 0 1 1.5 1.5 1.5 1.5 0 0 1-1.5 1.5 1.5 1.5 0 0 1-1.5-1.5m12 0a1.5 1.5 0 0 1 1.5-1.5 1.5 1.5 0 0 1 1.5 1.5 1.5 1.5 0 0 1-1.5 1.5 1.5 1.5 0 0 1-1.5-1.5m12 0a1.5 1.5 0 0 1 1.5-1.5 1.5 1.5 0 0 1 1.5 1.5 1.5 1.5 0 0 1-1.5 1.5 1.5 1.5 0 0 1-1.5-1.5m9.97 2.74a1.5 1.5 0 0 1 1.5-1.5 1.5 1.5 0 0 1 1.5 1.5 1.5 1.5 0 0 1-1.5 1.5 1.5 1.5 0 0 1-1.5-1.5v-.03m7.3 7.34a1.5 1.5 0 0 1 1.5-1.5 1.5 1.5 0 0 1 1.5 1.5 1.5 1.5 0 0 1-1.5 1.5 1.5 1.5 0 0 1-1.5-1.5v-.03m2.73 10a1.5 1.5 0 0 1 1.5-1.5 1.5 1.5 0 0 1 1.5 1.5 1.5 1.5 0 0 1-1.5 1.5 1.5 1.5 0 0 1-1.5-1.5m0 12a1.5 1.5 0 0 1 1.5-1.5 1.5 1.5 0 0 1 1.5 1.5 1.5 1.5 0 0 1-1.5 1.5 1.5 1.5 0 0 1-1.5-1.5m0 12a1.5 1.5 0 0 1 1.5-1.5 1.5 1.5 0 0 1 1.5 1.5 1.5 1.5 0 0 1-1.5 1.5 1.5 1.5 0 0 1-1.5-1.5m0 12a1.5 1.5 0 0 1 1.5-1.5 1.5 1.5 0 0 1 1.5 1.5 1.5 1.5 0 0 1-1.5 1.5 1.5 1.5 0 0 1-1.5-1.5m0 12a1.5 1.5 0 0 1 1.5-1.5 1.5 1.5 0 0 1 1.5 1.5 1.5 1.5 0 0 1-1.5 1.5 1.5 1.5 0 0 1-1.5-1.5m0 12a1.5 1.5 0 0 1 1.5-1.5 1.5 1.5 0 0 1 1.5 1.5 1.5 1.5 0 0 1-1.5 1.5 1.5 1.5 0 0 1-1.5-1.5m-2.73 10v-.03a1.5 1.5 0 0 1 1.5-1.5 1.5 1.5 0 0 1 1.5 1.5 1.5 1.5 0 0 1-1.5 1.5 1.5 1.5 0 0 1-1.5-1.5m-7.3 7.32v-.03a1.5 1.5 0 0 1 1.5-1.5 1.5 1.5 0 0 1 1.5 1.5 1.5 1.5 0 0 1-1.5 1.5 1.5 1.5 0 0 1-1.5-1.5m-9.97 2.75v-.02a1.5 1.5 0 0 1 1.5-1.5 1.5 1.5 0 0 1 1.5 1.5 1.5 1.5 0 0 1-1.5 1.5 1.5 1.5 0 0 1-1.5-1.5m-12 0a1.5 1.5 0 0 1 1.5-1.5 1.5 1.5 0 0 1 1.5 1.5 1.5 1.5 0 0 1-1.5 1.5 1.5 1.5 0 0 1-1.5-1.5m-12 0a1.5 1.5 0 0 1 1.5-1.5 1.5 1.5 0 0 1 1.5 1.5 1.5 1.5 0 0 1-1.5 1.5 1.5 1.5 0 0 1-1.5-1.5m-12 0a1.5 1.5 0 0 1 1.5-1.5 1.5 1.5 0 0 1 1.5 1.5 1.5 1.5 0 0 1-1.5 1.5 1.5 1.5 0 0 1-1.5-1.5m-12 0a1.5 1.5 0 0 1 1.5-1.5 1.5 1.5 0 0 1 1.5 1.5 1.5 1.5 0 0 1-1.5 1.5 1.5 1.5 0 0 1-1.5-1.5m-12 0a1.5 1.5 0 0 1 1.5-1.5 1.5 1.5 0 0 1 1.5 1.5 1.5 1.5 0 0 1-1.5 1.5 1.5 1.5 0 0 1-1.5-1.5m-12 0a1.5 1.5 0 0 1 1.5-1.5 1.5 1.5 0 0 1 1.5 1.5 1.5 1.5 0 0 1-1.5 1.5 1.5 1.5 0 0 1-1.5-1.5m-12 0a1.5 1.5 0 0 1 1.5-1.5 1.5 1.5 0 0 1 1.5 1.5 1.5 1.5 0 0 1-1.5 1.5 1.5 1.5 0 0 1-1.5-1.5m-12 0a1.5 1.5 0 0 1 1.5-1.5 1.5 1.5 0 0 1 1.5 1.5 1.5 1.5 0 0 1-1.5 1.5 1.5 1.5 0 0 1-1.5-1.5m-12 0a1.5 1.5 0 0 1 1.5-1.5 1.5 1.5 0 0 1 1.5 1.5 1.5 1.5 0 0 1-1.5 1.5 1.5 1.5 0 0 1-1.5-1.5m-12 0a1.5 1.5 0 0 1 1.5-1.5 1.5 1.5 0 0 1 1.5 1.5 1.5 1.5 0 0 1-1.5 1.5 1.5 1.5 0 0 1-1.5-1.5m-12 0a1.5 1.5 0 0 1 1.5-1.5 1.5 1.5 0 0 1 1.5 1.5 1.5 1.5 0 0 1-1.5 1.5 1.5 1.5 0 0 1-1.5-1.5m-12 0a1.5 1.5 0 0 1 1.5-1.5 1.5 1.5 0 0 1 1.5 1.5 1.5 1.5 0 0 1-1.5 1.5 1.5 1.5 0 0 1-1.5-1.5m-12 0a1.5 1.5 0 0 1 1.5-1.5 1.5 1.5 0 0 1 1.5 1.5 1.5 1.5 0 0 1-1.5 1.5 1.5 1.5 0 0 1-1.5-1.5m-12 0a1.5 1.5 0 0 1 1.5-1.5 1.5 1.5 0 0 1 1.5 1.5 1.5 1.5 0 0 1-1.5 1.5 1.5 1.5 0 0 1-1.5-1.5m-12 0a1.5 1.5 0 0 1 1.5-1.5 1.5 1.5 0 0 1 1.5 1.5 1.5 1.5 0 0 1-1.5 1.5 1.5 1.5 0 0 1-1.5-1.5m-12 0a1.5 1.5 0 0 1 1.5-1.5 1.5 1.5 0 0 1 1.5 1.5 1.5 1.5 0 0 1-1.5 1.5 1.5 1.5 0 0 1-1.5-1.5m-12 0a1.5 1.5 0 0 1 1.5-1.5 1.5 1.5 0 0 1 1.5 1.5 1.5 1.5 0 0 1-1.5 1.5 1.5 1.5 0 0 1-1.5-1.5m-12 0a1.5 1.5 0 0 1 1.5-1.5 1.5 1.5 0 0 1 1.5 1.5 1.5 1.5 0 0 1-1.5 1.5 1.5 1.5 0 0 1-1.5-1.5m-12 0a1.5 1.5 0 0 1 1.5-1.5 1.5 1.5 0 0 1 1.5 1.5 1.5 1.5 0 0 1-1.5 1.5 1.5 1.5 0 0 1-1.5-1.5m-12 0a1.5 1.5 0 0 1 1.5-1.5 1.5 1.5 0 0 1 1.5 1.5 1.5 1.5 0 0 1-1.5 1.5 1.5 1.5 0 0 1-1.5-1.5m-12 0a1.5 1.5 0 0 1 1.5-1.5 1.5 1.5 0 0 1 1.5 1.5 1.5 1.5 0 0 1-1.5 1.5 1.5 1.5 0 0 1-1.5-1.5m-12 0a1.5 1.5 0 0 1 1.5-1.5 1.5 1.5 0 0 1 1.5 1.5 1.5 1.5 0 0 1-1.5 1.5 1.5 1.5 0 0 1-1.5-1.5m-12 0a1.5 1.5 0 0 1 1.5-1.5 1.5 1.5 0 0 1 1.5 1.5 1.5 1.5 0 0 1-1.5 1.5 1.5 1.5 0 0 1-1.5-1.5m-12 0a1.5 1.5 0 0 1 1.5-1.5 1.5 1.5 0 0 1 1.5 1.5 1.5 1.5 0 0 1-1.5 1.5 1.5 1.5 0 0 1-1.5-1.5m-12 0a1.5 1.5 0 0 1 1.5-1.5 1.5 1.5 0 0 1 1.5 1.5 1.5 1.5 0 0 1-1.5 1.5 1.5 1.5 0 0 1-1.5-1.5m-12 0a1.5 1.5 0 0 1 1.5-1.5 1.5 1.5 0 0 1 1.5 1.5 1.5 1.5 0 0 1-1.5 1.5 1.5 1.5 0 0 1-1.5-1.5m-12 0a1.5 1.5 0 0 1 1.5-1.5 1.5 1.5 0 0 1 1.5 1.5 1.5 1.5 0 0 1-1.5 1.5 1.5 1.5 0 0 1-1.5-1.5m-12 0a1.5 1.5 0 0 1 1.5-1.5 1.5 1.5 0 0 1 1.5 1.5 1.5 1.5 0 0 1-1.5 1.5 1.5 1.5 0 0 1-1.5-1.5m-12 0a1.5 1.5 0 0 1 1.5-1.5 1.5 1.5 0 0 1 1.5 1.5 1.5 1.5 0 0 1-1.5 1.5 1.5 1.5 0 0 1-1.5-1.5m-12 0a1.5 1.5 0 0 1 1.5-1.5 1.5 1.5 0 0 1 1.5 1.5 1.5 1.5 0 0 1-1.5 1.5 1.5 1.5 0 0 1-1.5-1.5m-9.97-2.7v-.03a1.5 1.5 0 0 1 1.5-1.5 1.5 1.5 0 0 1 1.5 1.5 1.5 1.5 0 0 1-1.5 1.5 1.5 1.5 0 0 1-1.5-1.5m-7.3-7.28v-.03a1.5 1.5 0 0 1 1.5-1.5 1.5 1.5 0 0 1 1.5 1.5 1.5 1.5 0 0 1-1.5 1.5 1.5 1.5 0 0 1-1.5-1.5m-2.73-9.96a1.5 1.5 0 0 1 1.5-1.5 1.5 1.5 0 0 1 1.5 1.5 1.5 1.5 0 0 1-1.5 1.5 1.5 1.5 0 0 1-1.5-1.5m0-12a1.5 1.5 0 0 1 1.5-1.5 1.5 1.5 0 0 1 1.5 1.5 1.5 1.5 0 0 1-1.5 1.5 1.5 1.5 0 0 1-1.5-1.5m0-12a1.5 1.5 0 0 1 1.5-1.5 1.5 1.5 0 0 1 1.5 1.5 1.5 1.5 0 0 1-1.5 1.5 1.5 1.5 0 0 1-1.5-1.5m0-12a1.5 1.5 0 0 1 1.5-1.5 1.5 1.5 0 0 1 1.5 1.5 1.5 1.5 0 0 1-1.5 1.5 1.5 1.5 0 0 1-1.5-1.5m0-12a1.5 1.5 0 0 1 1.5-1.5 1.5 1.5 0 0 1 1.5 1.5 1.5 1.5 0 0 1-1.5 1.5 1.5 1.5 0 0 1-1.5-1.5"/><path d="M600 500a20 20 0 0 1 20-20h360a20 20 0 0 1 20 20v100a20 20 0 0 1-20 20H620a20 20 0 0 1-20-20z" fill-opacity="0"/><path d="M598.5 500a1.5 1.5 0 0 1 1.5-1.5 1.5 1.5 0 0 1 1.5 1.5 1.5 1.5 0 0 1-1.5 1.5 1.5 1.5 0 0 1-1.5-1.5m2.73-9.96a1.5 1.5 0 0 1 1.5-1.5 1.5 1.5 0 0 1 1.5 1.5 1.5 1.5 0 0 1-1.5 1.5 1.5 1.5 0 0 1-1.5-1.5V490m7.3-7.26a1.5 1.5 0 0 1 1.5-1.5 1.5 1.5 0 0 1 1.5 1.5 1.5 1.5 0 0 1-1.5 1.5 1.5 1.5 0 0 1-1.5-1.5v-.03m9.97-2.7a1.5 1.5 0 0 1 1.5-1.5 1.5 1.5 0 0 1 1.5 1.5 1.5 1.5 0 0 1-1.5 1.5 1.5 1.5 0 0 1-1.5-1.5m12 0a1.5 1.5 0 0 1 1.5-1.5 1.5 1.5 0 0 1 1.5 1.5 1.5 1.5 0 0 1-1.5 1.5 1.5 1.5 0 0 1-1.5-1.5m12 0a1.5 1.5 0 0 1 1.5-1.5 1.5 1.5 0 0 1 1.5 1.5 1.5 1.5 0 0 1-1.5 1.5 1.5 1.5 0 0 1-1.5-1.5m12 0a1.5 1.5 0 0 1 1.5-1.5 1.5 1.5 0 0 1 1.5 1.5 1.5 1.5 0 0 1-1.5 1.5 1.5 1.5 0 0 1-1.5-1.5m12 0a1.5 1.5 0 0 1 1.5-1.5 1.5 1.5 0 0 1 1.5 1.5 1.5 1.5 0 0 1-1.5 1.5 1.5 1.5 0 0 1-1.5-1.5m12 0a1.5 1.5 0 0 1 1.5-1.5 1.5 1.5 0 0 1 1.5 1.5 1.5 1.5 0 0 1-1.5 1.5 1.5 1.5 0 0 1-1.5-1.5m12 0a1.5 1.5 0 0 1 1.5-1.5 1.5 1.5 0 0 1 1.5 1.5 1.5 1.5 0 0 1-1.5 1.5 1.5 1.5 0 0 1-1.5-1.5m12 0a1.5 1.5 0 0 1 1.5-1.5 1.5 1.5 0 0 1 1.5 1.5 1.5 1.5 0 0 1-1.5 1.5 1.5 1.5 0 0 1-1.5-1.5m12 0a1.5 1.5 0 0 1 1.5-1.5 1.5 1.5 0 0 1 1.5 1.5 1.5 1.5 0 0 1-1.5 1.5 1.5 1.5 0 0 1-1.5-1.5m12 0a1.5 1.5 0 0 1 1.5-1.5 1.5 1.5 0 0 1 1.5 1.5 1.5 1.5 0 0 1-1.5 1.5 1.5 1.5 0 0 1-1.5-1.5m12 0a1.5 1.5 0 0 1 1.5-1.5 1.5 1.5 0 0 1 1.5 1.5 1.5 1.5 0 0 1-1.5 1.5 1.5 1.5 0 0 1-1.5-1.5m12 0a1.5 1.5 0 0 1 1.5-1.5 1.5 1.5 0 0 1 1.5 1.5 1.5 1.5 0 0 1-1.5 1.5 1.5 1.5 0 0 1-1.5-1.5m12 0a1.5 1.5 0 0 1 1.5-1.5 1.5 1.5 0 0 1 1.5 1.5 1.5 1.5 0 0 1-1.5 1.5 1.5 1.5 0 0 1-1.5-1.5m12 0a1.5 1.5 0 0 1 1.5-1.5 1.5 1.5 0 0 1 1.5 1.5 1.5 1.5 0 0 1-1.5 1.5 1.5 1.5 0 0 1-1.5-1.5m12 0a1.5 1.5 0 0 1 1.5-1.5 1.5 1.5 0 0 1 1.5 1.5 1.5 1.5 0 0 1-1.5 1.5 1.5 1.5 0 0 1-1.5-1.5m12 0a1.5 1.5 0 0 1 1.5-1.5 1.5 1.5 0 0 1 1.5 1.5 1.5 1.5 0 0 1-1.5 1.5 1.5 1.5 0 0 1-1.5-1.5m12 0a1.5 1.5 0 0 1 1.5-1.5 1.5 1.5 0 0 1 1.5 1.5 1.5 1.5 0 0 1-1.5 1.5 1.5 1.5 0 0 1-1.5-1.5m12 0a1.5 1.5 0 0 1 1.5-1.5 1.5 1.5 0 0 1 1.5 1.5 1.5 1.5 0 0 1-1.5 1.5 1.5 1.5 0 0 1-1.5-1.5m12 0a1.5 1.5 0 0 1 1.5-1.5 1.5 1.5 0 0 1 1.5 1.5 1.5 1.5 0 0 1-1.5 1.5 1.5 1.5 0 0 1-1.5-1.5m12 0a1.5 1.5 0 0 1 1.5-1.5 1.5 1.5 0 0 1 1.5 1.5 1.5 1.5 0 0 1-1.5 1.5 1.5 1.5 0 0 1-1.5-1.5m12 0a1.5 1.5 0 0 1 1.5-1.5 1.5 1.5 0 0 1 1.5 1.5 1.5 1.5 0 0 1-1.5 1.5 1.5 1.5 0 0 1-1.5-1.5m12 0a1.5 1.5 0 0 1 1.5-1.5 1.5 1.5 0 0 1 1.5 1.5 1.5 1.5 0 0 1-1.5 1.5 1.5 1.5 0 0 1-1.5-1.5m12 0a1.5 1.5 0 0 1 1.5-1.5 1.5 1.5 0 0 1 1.5 1.5 1.5 1.5 0 0 1-1.5 1.5 1.5 1.5 0 0 1-1.5-1.5m12 0a1.5 1.5 0 0 1 1.5-1.5 1.5 1.5 0 0 1 1.5 1.5 1.5 1.5 0 0 1-1.5 1.5 1.5 1.5 0 0 1-1.5-1.5m12 0a1.5 1.5 0 0 1 1.5-1.5 1.5 1.5 0 0 1 1.5 1.5 1.5 1.5 0 0 1-1.5 1.5 1.5 1.5 0 0 1-1.5-1.5m12 0a1.5 1.5 0 0 1 1.5-1.5 1.5 1.5 0 0 1 1.5 1.5 1.5 1.5 0 0 1-1.5 1.5 1.5 1.5 0 0 1-1.5-1.5m12 0a1.5 1.5 0 0 1 1.5-1.5 1.5 1.5 0 0 1 1.5 1.5 1.5 1.5 0 0 1-1.5 1.5 1.5 1.5 0 0 1-1.5-1.5m12 0a1.5 1.5 0 0 1 1.5-1.5 1.5 1.5 0 0 1 1.5 1.5 1.5 1.5 0 0 1-1.5 1.5 1.5 1.5 0 0 1-1.5-1.5m12 0a1.5 1.5 0 0 1 1.5-1.5 1.5 1.5 0 0 1 1.5 1.5 1.5 1.5 0 0 1-1.5 1.5 1.5 1.5 0 0 1-1.5-1.5m12 0a1.5 1.5 0 0 1 1.5-1.5 1.5 1.5 0 0 1 1.5 1.5 1.5 1.5 0 0 1-1.5 1.5 1.5 1.5 0 0 1-1.5-1.5m12 0a1.5 1.5 0 0 1 1.5-1.5 1.5 1.5 0 0 1 1.5 1.5 1.5 1.5 0 0 1-1.5 1.5 1.5 1.5 0 0 1-1.5-1.5m9.97 2.74a1.5 1.5 0 0 1 1.5-1.5 1.5 1.5 0 0 1 1.5 1.5 1.5 1.5 0 0 1-1.5 1.5 1.5 1.5 0 0 1-1.5-1.5v-.03m7.3 7.34a1.5 1.5 0 0 1 1.5-1.5 1.5 1.5 0 0 1 1.5 1.5 1.5 1.5 0 0 1-1.5 1.5 1.5 1.5 0 0 1-1.5-1.5V490m2.73 10a1.5 1.5 0 0 1 1.5-1.5 1.5 1.5 0 0 1 1.5 1.5 1.5 1.5 0 0 1-1.5 1.5 1.5 1.5 0 0 1-1.5-1.5m0 12.5a1.5 1.5 0 0 1 1.5-1.5 1.5 1.5 0 0 1 1.5 1.5 1.5 1.5 0 0 1-1.5 1.5 1.5 1.5 0 0 1-1.5-1.5m0 12.5a1.5 1.5 0 0 1 1.5-1.5 1.5 1.5 0 0 1 1.5 1.5 1.5 1.5 0 0 1-1.5 1.5 1.5 1.5 0 0 1-1.5-1.5m0 12.5a1.5 1.5 0 0 1 1.5-1.5 1.5 1.5 0 0 1 1.5 1.5 1.5 1.5 0 0 1-1.5 1.5 1.5 1.5 0 0 1-1.5-1.5m0 12.5a1.5 1.5 0 0 1 1.5-1.5 1.5 1.5 0 0 1 1.5 1.5 1.5 1.5 0 0 1-1.5 1.5 1.5 1.5 0 0 1-1.5-1.5m0 12.5a1.5 1.5 0 0 1 1.5-1.5 1.5 1.5 0 0 1 1.5 1.5 1.5 1.5 0 0 1-1.5 1.5 1.5 1.5 0 0 1-1.5-1.5m0 12.5a1.5 1.5 0 0 1 1.5-1.5 1.5 1.5 0 0 1 1.5 1.5 1.5 1.5 0 0 1-1.5 1.5 1.5 1.5 0 0 1-1.5-1.5m0 12.5a1.5 1.5 0 0 1 1.5-1.5 1.5 1.5 0 0 1 1.5 1.5 1.5 1.5 0 0 1-1.5 1.5 1.5 1.5 0 0 1-1.5-1.5m0 12.5a1.5 1.5 0 0 1 1.5-1.5 1.5 1.5 0 0 1 1.5 1.5 1.5 1.5 0 0 1-1.5 1.5 1.5 1.5 0 0 1-1.5-1.5m-2.73 10v-.03a1.5 1.5 0 0 1 1.5-1.5 1.5 1.5 0 0 1 1.5 1.5 1.5 1.5 0 0 1-1.5 1.5 1.5 1.5 0 0 1-1.5-1.5m-7.3 7.32v-.03a1.5 1.5 0 0 1 1.5-1.5 1.5 1.5 0 0 1 1.5 1.5 1.5 1.5 0 0 1-1.5 1.5 1.5 1.5 0 0 1-1.5-1.5M978.5 620V620a1.5 1.5 0 0 1 1.5-1.5 1.5 1.5 0 0 1 1.5 1.5 1.5 1.5 0 0 1-1.5 1.5 1.5 1.5 0 0 1-1.5-1.5m-12 0a1.5 1.5 0 0 1 1.5-1.5 1.5 1.5 0 0 1 1.5 1.5 1.5 1.5 0 0 1-1.5 1.5 1.5 1.5 0 0 1-1.5-1.5m-12 0a1.5 1.5 0 0 1 1.5-1.5 1.5 1.5 0 0 1 1.5 1.5 1.5 1.5 0 0 1-1.5 1.5 1.5 1.5 0 0 1-1.5-1.5m-12 0a1.5 1.5 0 0 1 1.5-1.5 1.5 1.5 0 0 1 1.5 1.5 1.5 1.5 0 0 1-1.5 1.5 1.5 1.5 0 0 1-1.5-1.5m-12 0a1.5 1.5 0 0 1 1.5-1.5 1.5 1.5 0 0 1 1.5 1.5 1.5 1.5 0 0 1-1.5 1.5 1.5 1.5 0 0 1-1.5-1.5m-12 0a1.5 1.5 0 0 1 1.5-1.5 1.5 1.5 0 0 1 1.5 1.5 1.5 1.5 0 0 1-1.5 1.5 1.5 1.5 0 0 1-1.5-1.5m-12 0a1.5 1.5 0 0 1 1.5-1.5 1.5 1.5 0 0 1 1.5 1.5 1.5 1.5 0 0 1-1.5 1.5 1.5 1.5 0 0 1-1.5-1.5m-12 0a1.5 1.5 0 0 1 1.5-1.5 1.5 1.5 0 0 1 1.5 1.5 1.5 1.5 0 0 1-1.5 1.5 1.5 1.5 0 0 1-1.5-1.5m-12 0a1.5 1.5 0 0 1 1.5-1.5 1.5 1.5 0 0 1 1.5 1.5 1.5 1.5 0 0 1-1.5 1.5 1.5 1.5 0 0 1-1.5-1.5m-12 0a1.5 1.5 0 0 1 1.5-1.5 1.5 1.5 0 0 1 1.5 1.5 1.5 1.5 0 0 1-1.5 1.5 1.5 1.5 0 0 1-1.5-1.5m-12 0a1.5 1.5 0 0 1 1.5-1.5 1.5 1.5 0 0 1 1.5 1.5 1.5 1.5 0 0 1-1.5 1.5 1.5 1.5 0 0 1-1.5-1.5m-12 0a1.5 1.5 0 0 1 1.5-1.5 1.5 1.5 0 0 1 1.5 1.5 1.5 1.5 0 0 1-1.5 1.5 1.5 1.5 0 0 1-1.5-1.5m-12 0a1.5 1.5 0 0 1 1.5-1.5 1.5 1.5 0 0 1 1.5 1.5 1.5 1.5 0 0 1-1.5 1.5 1.5 1.5 0 0 1-1.5-1.5m-12 0a1.5 1.5 0 0 1 1.5-1.5 1.5 1.5 0 0 1 1.5 1.5 1.5 1.5 0 0 1-1.5 1.5 1.5 1.5 0 0 1-1.5-1.5m-12 0a1.5 1.5 0 0 1 1.5-1.5 1.5 1.5 0 0 1 1.5 1.5 1.5 1.5 0 0 1-1.5 1.5 1.5 1.5 0 0 1-1.5-1.5m-12 0a1.5 1.5 0 0 1 1.5-1.5 1.5 1.5 0 0 1 1.5 1.5 1.5 1.5 0 0 1-1.5 1.5 1.5 1.5 0 0 1-1.5-1.5m-12 0a1.5 1.5 0 0 1 1.5-1.5 1.5 1.5 0 0 1 1.5 1.5 1.5 1.5 0 0 1-1.5 1.5 1.5 1.5 0 0 1-1.5-1.5m-12 0a1.5 1.5 0 0 1 1.5-1.5 1.5 1.5 0 0 1 1.5 1.5 1.5 1.5 0 0 1-1.5 1.5 1.5 1.5 0 0 1-1.5-1.5m-12 0a1.5 1.5 0 0 1 1.5-1.5 1.5 1.5 0 0 1 1.5 1.5 1.5 1.5 0 0 1-1.5 1.5 1.5 1.5 0 0 1-1.5-1.5m-12 0a1.5 1.5 0 0 1 1.5-1.5 1.5 1.5 0 0 1 1.5 1.5 1.5 1.5 0 0 1-1.5 1.5 1.5 1.5 0 0 1-1.5-1.5m-12 0a1.5 1.5 0 0 1 1.5-1.5 1.5 1.5 0 0 1 1.5 1.5 1.5 1.5 0 0 1-1.5 1.5 1.5 1.5 0 0 1-1.5-1.5m-12 0a1.5 1.5 0 0 1 1.5-1.5 1.5 1.5 0 0 1 1.5 1.5 1.5 1.5 0 0 1-1.5 1.5 1.5 1.5 0 0 1-1.5-1.5m-12 0a1.5 1.5 0 0 1 1.5-1.5 1.5 1.5 0 0 1 1.5 1.5 1.5 1.5 0 0 1-1.5 1.5 1.5 1.5 0 0 1-1.5-1.5m-12 0a1.5 1.5 0 0 1 1.5-1.5 1.5 1.5 0 0 1 1.5 1.5 1.5 1.5 0 0 1-1.5 1.5 1.5 1.5 0 0 1-1.5-1.5m-12 0a1.5 1.5 0 0 1 1.5-1.5 1.5 1.5 0 0 1 1.5 1.5 1.5 1.5 0 0 1-1.5 1.5 1.5 1.5 0 0 1-1.5-1.5m-12 0a1.5 1.5 0 0 1 1.5-1.5 1.5 1.5 0 0 1 1.5 1.5 1.5 1.5 0 0 1-1.5 1.5 1.5 1.5 0 0 1-1.5-1.5m-12 0a1.5 1.5 0 0 1 1.5-1.5 1.5 1.5 0 0 1 1.5 1.5 1.5 1.5 0 0 1-1.5 1.5 1.5 1.5 0 0 1-1.5-1.5m-12 0a1.5 1.5 0 0 1 1.5-1.5 1.5 1.5 0 0 1 1.5 1.5 1.5 1.5 0 0 1-1.5 1.5 1.5 1.5 0 0 1-1.5-1.5m-12 0a1.5 1.5 0 0 1 1.5-1.5 1.5 1.5 0 0 1 1.5 1.5 1.5 1.5 0 0 1-1.5 1.5 1.5 1.5 0 0 1-1.5-1.5m-12 0a1.5 1.5 0 0 1 1.5-1.5 1.5 1.5 0 0 1 1.5 1.5 1.5 1.5 0 0 1-1.5 1.5 1.5 1.5 0 0 1-1.5-1.5m-12 0a1.5 1.5 0 0 1 1.5-1.5 1.5 1.5 0 0 1 1.5 1.5 1.5 1.5 0 0 1-1.5 1.5 1.5 1.5 0 0 1-1.5-1.5m-9.97-2.7v-.03a1.5 1.5 0 0 1 1.5-1.5 1.5 1.5 0 0 1 1.5 1.5 1.5 1.5 0 0 1-1.5 1.5 1.5 1.5 0 0 1-1.5-1.5m-7.3-7.28v-.03a1.5 1.5 0 0 1 1.5-1.5 1.5 1.5 0 0 1 1.5 1.5 1.5 1.5 0 0 1-1.5 1.5 1.5 1.5 0 0 1-1.5-1.5M598.5 600a1.5 1.5 0 0 1 1.5-1.5 1.5 1.5 0 0 1 1.5 1.5 1.5 1.5 0 0 1-1.5 1.5 1.5 1.5 0 0 1-1.5-1.5m0-12.5a1.5 1.5 0 0 1 1.5-1.5 1.5 1.5 0 0 1 1.5 1.5 1.5 1.5 0 0 1-1.5 1.5 1.5 1.5 0 0 1-1.5-1.5m0-12.5a1.5 1.5 0 0 1 1.5-1.5 1.5 1.5 0 0 1 1.5 1.5 1.5 1.5 0 0 1-1.5 1.5 1.5 1.5 0 0 1-1.5-1.5m0-12.5a1.5 1.5 0 0 1 1.5-1.5 1.5 1.5 0 0 1 1.5 1.5 1.5 1.5 0 0 1-1.5 1.5 1.5 1.5 0 0 1-1.5-1.5m0-12.5a1.5 1.5 0 0 1 1.5-1.5 1.5 1.5 0 0 1 1.5 1.5 1.5 1.5 0 0 1-1.5 1.5 1.5 1.5 0 0 1-1.5-1.5m0-12.5a1.5 1.5 0 0 1 1.5-1.5 1.5 1.5 0 0 1 1.5 1.5 1.5 1.5 0 0 1-1.5 1.5 1.5 1.5 0 0 1-1.5-1.5m0-12.5a1.5 1.5 0 0 1 1.5-1.5 1.5 1.5 0 0 1 1.5 1.5 1.5 1.5 0 0 1-1.5 1.5 1.5 1.5 0 0 1-1.5-1.5m0-12.5a1.5 1.5 0 0 1 1.5-1.5 1.5 1.5 0 0 1 1.5 1.5 1.5 1.5 0 0 1-1.5 1.5 1.5 1.5 0 0 1-1.5-1.5"/><path d="M600 380a20 20 0 0 1 20-20h360a20 20 0 0 1 20 20v40a20 20 0 0 1-20 20H620a20 20 0 0 1-20-20z" fill-opacity="0"/><path d="M598.5 380a1.5 1.5 0 0 1 1.5-1.5 1.5 1.5 0 0 1 1.5 1.5 1.5 1.5 0 0 1-1.5 1.5 1.5 1.5 0 0 1-1.5-1.5m2.73-9.96a1.5 1.5 0 0 1 1.5-1.5 1.5 1.5 0 0 1 1.5 1.5 1.5 1.5 0 0 1-1.5 1.5 1.5 1.5 0 0 1-1.5-1.5V370m7.3-7.26a1.5 1.5 0 0 1 1.5-1.5 1.5 1.5 0 0 1 1.5 1.5 1.5 1.5 0 0 1-1.5 1.5 1.5 1.5 0 0 1-1.5-1.5v-.03m9.97-2.7a1.5 1.5 0 0 1 1.5-1.5 1.5 1.5 0 0 1 1.5 1.5 1.5 1.5 0 0 1-1.5 1.5 1.5 1.5 0 0 1-1.5-1.5m12 0a1.5 1.5 0 0 1 1.5-1.5 1.5 1.5 0 0 1 1.5 1.5 1.5 1.5 0 0 1-1.5 1.5 1.5 1.5 0 0 1-1.5-1.5m12 0a1.5 1.5 0 0 1 1.5-1.5 1.5 1.5 0 0 1 1.5 1.5 1.5 1.5 0 0 1-1.5 1.5 1.5 1.5 0 0 1-1.5-1.5m12 0a1.5 1.5 0 0 1 1.5-1.5 1.5 1.5 0 0 1 1.5 1.5 1.5 1.5 0 0 1-1.5 1.5 1.5 1.5 0 0 1-1.5-1.5m12 0a1.5 1.5 0 0 1 1.5-1.5 1.5 1.5 0 0 1 1.5 1.5 1.5 1.5 0 0 1-1.5 1.5 1.5 1.5 0 0 1-1.5-1.5m12 0a1.5 1.5 0 0 1 1.5-1.5 1.5 1.5 0 0 1 1.5 1.5 1.5 1.5 0 0 1-1.5 1.5 1.5 1.5 0 0 1-1.5-1.5m12 0a1.5 1.5 0 0 1 1.5-1.5 1.5 1.5 0 0 1 1.5 1.5 1.5 1.5 0 0 1-1.5 1.5 1.5 1.5 0 0 1-1.5-1.5m12 0a1.5 1.5 0 0 1 1.5-1.5 1.5 1.5 0 0 1 1.5 1.5 1.5 1.5 0 0 1-1.5 1.5 1.5 1.5 0 0 1-1.5-1.5m12 0a1.5 1.5 0 0 1 1.5-1.5 1.5 1.5 0 0 1 1.5 1.5 1.5 1.5 0 0 1-1.5 1.5 1.5 1.5 0 0 1-1.5-1.5m12 0a1.5 1.5 0 0 1 1.5-1.5 1.5 1.5 0 0 1 1.5 1.5 1.5 1.5 0 0 1-1.5 1.5 1.5 1.5 0 0 1-1.5-1.5m12 0a1.5 1.5 0 0 1 1.5-1.5 1.5 1.5 0 0 1 1.5 1.5 1.5 1.5 0 0 1-1.5 1.5 1.5 1.5 0 0 1-1.5-1.5m12 0a1.5 1.5 0 0 1 1.5-1.5 1.5 1.5 0 0 1 1.5 1.5 1.5 1.5 0 0 1-1.5 1.5 1.5 1.5 0 0 1-1.5-1.5m12 0a1.5 1.5 0 0 1 1.5-1.5 1.5 1.5 0 0 1 1.5 1.5 1.5 1.5 0 0 1-1.5 1.5 1.5 1.5 0 0 1-1.5-1.5m12 0a1.5 1.5 0 0 1 1.5-1.5 1.5 1.5 0 0 1 1.5 1.5 1.5 1.5 0 0 1-1.5 1.5 1.5 1.5 0 0 1-1.5-1.5m12 0a1.5 1.5 0 0 1 1.5-1.5 1.5 1.5 0 0 1 1.5 1.5 1.5 1.5 0 0 1-1.5 1.5 1.5 1.5 0 0 1-1.5-1.5m12 0a1.5 1.5 0 0 1 1.5-1.5 1.5 1.5 0 0 1 1.5 1.5 1.5 1.5 0 0 1-1.5 1.5 1.5 1.5 0 0 1-1.5-1.5m12 0a1.5 1.5 0 0 1 1.5-1.5 1.5 1.5 0 0 1 1.5 1.5 1.5 1.5 0 0 1-1.5 1.5 1.5 1.5 0 0 1-1.5-1.5m12 0a1.5 1.5 0 0 1 1.5-1.5 1.5 1.5 0 0 1 1.5 1.5 1.5 1.5 0 0 1-1.5 1.5 1.5 1.5 0 0 1-1.5-1.5m12 0a1.5 1.5 0 0 1 1.5-1.5 1.5 1.5 0 0 1 1.5 1.5 1.5 1.5 0 0 1-1.5 1.5 1.5 1.5 0 0 1-1.5-1.5m12 0a1.5 1.5 0 0 1 1.5-1.5 1.5 1.5 0 0 1 1.5 1.5 1.5 1.5 0 0 1-1.5 1.5 1.5 1.5 0 0 1-1.5-1.5m12 0a1.5 1.5 0 0 1 1.5-1.5 1.5 1.5 0 0 1 1.5 1.5 1.5 1.5 0 0 1-1.5 1.5 1.5 1.5 0 0 1-1.5-1.5m12 0a1.5 1.5 0 0 1 1.5-1.5 1.5 1.5 0 0 1 1.5 1.5 1.5 1.5 0 0 1-1.5 1.5 1.5 1.5 0 0 1-1.5-1.5m12 0a1.5 1.5 0 0 1 1.5-1.5 1.5 1.5 0 0 1 1.5 1.5 1.5 1.5 0 0 1-1.5 1.5 1.5 1.5 0 0 1-1.5-1.5m12 0a1.5 1.5 0 0 1 1.5-1.5 1.5 1.5 0 0 1 1.5 1.5 1.5 1.5 0 0 1-1.5 1.5 1.5 1.5 0 0 1-1.5-1.5m12 0a1.5 1.5 0 0 1 1.5-1.5 1.5 1.5 0 0 1 1.5 1.5 1.5 1.5 0 0 1-1.5 1.5 1.5 1.5 0 0 1-1.5-1.5m12 0a1.5 1.5 0 0 1 1.5-1.5 1.5 1.5 0 0 1 1.5 1.5 1.5 1.5 0 0 1-1.5 1.5 1.5 1.5 0 0 1-1.5-1.5m12 0a1.5 1.5 0 0 1 1.5-1.5 1.5 1.5 0 0 1 1.5 1.5 1.5 1.5 0 0 1-1.5 1.5 1.5 1.5 0 0 1-1.5-1.5m12 0a1.5 1.5 0 0 1 1.5-1.5 1.5 1.5 0 0 1 1.5 1.5 1.5 1.5 0 0 1-1.5 1.5 1.5 1.5 0 0 1-1.5-1.5m12 0a1.5 1.5 0 0 1 1.5-1.5 1.5 1.5 0 0 1 1.5 1.5 1.5 1.5 0 0 1-1.5 1.5 1.5 1.5 0 0 1-1.5-1.5m12 0a1.5 1.5 0 0 1 1.5-1.5 1.5 1.5 0 0 1 1.5 1.5 1.5 1.5 0 0 1-1.5 1.5 1.5 1.5 0 0 1-1.5-1.5m12 0a1.5 1.5 0 0 1 1.5-1.5 1.5 1.5 0 0 1 1.5 1.5 1.5 1.5 0 0 1-1.5 1.5 1.5 1.5 0 0 1-1.5-1.5m9.97 2.74a1.5 1.5 0 0 1 1.5-1.5 1.5 1.5 0 0 1 1.5 1.5 1.5 1.5 0 0 1-1.5 1.5 1.5 1.5 0 0 1-1.5-1.5v-.03m7.3 7.34a1.5 1.5 0 0 1 1.5-1.5 1.5 1.5 0 0 1 1.5 1.5 1.5 1.5 0 0 1-1.5 1.5 1.5 1.5 0 0 1-1.5-1.5V370m2.73 10a1.5 1.5 0 0 1 1.5-1.5 1.5 1.5 0 0 1 1.5 1.5 1.5 1.5 0 0 1-1.5 1.5 1.5 1.5 0 0 1-1.5-1.5m0 13.35v-.02a1.5 1.5 0 0 1 1.5-1.5 1.5 1.5 0 0 1 1.5 1.5 1.5 1.5 0 0 1-1.5 1.5 1.5 1.5 0 0 1-1.5-1.5m0 13.35a1.5 1.5 0 0 1 1.5-1.5 1.5 1.5 0 0 1 1.5 1.5 1.5 1.5 0 0 1-1.5 1.5 1.5 1.5 0 0 1-1.5-1.5v-.03m0 13.37V420a1.5 1.5 0 0 1 1.5-1.5 1.5 1.5 0 0 1 1.5 1.5 1.5 1.5 0 0 1-1.5 1.5 1.5 1.5 0 0 1-1.5-1.5m-2.73 10v-.03a1.5 1.5 0 0 1 1.5-1.5 1.5 1.5 0 0 1 1.5 1.5 1.5 1.5 0 0 1-1.5 1.5 1.5 1.5 0 0 1-1.5-1.5m-7.3 7.32v-.03a1.5 1.5 0 0 1 1.5-1.5 1.5 1.5 0 0 1 1.5 1.5 1.5 1.5 0 0 1-1.5 1.5 1.5 1.5 0 0 1-1.5-1.5M978.5 440V440a1.5 1.5 0 0 1 1.5-1.5 1.5 1.5 0 0 1 1.5 1.5 1.5 1.5 0 0 1-1.5 1.5 1.5 1.5 0 0 1-1.5-1.5m-12 0a1.5 1.5 0 0 1 1.5-1.5 1.5 1.5 0 0 1 1.5 1.5 1.5 1.5 0 0 1-1.5 1.5 1.5 1.5 0 0 1-1.5-1.5m-12 0a1.5 1.5 0 0 1 1.5-1.5 1.5 1.5 0 0 1 1.5 1.5 1.5 1.5 0 0 1-1.5 1.5 1.5 1.5 0 0 1-1.5-1.5m-12 0a1.5 1.5 0 0 1 1.5-1.5 1.5 1.5 0 0 1 1.5 1.5 1.5 1.5 0 0 1-1.5 1.5 1.5 1.5 0 0 1-1.5-1.5m-12 0a1.5 1.5 0 0 1 1.5-1.5 1.5 1.5 0 0 1 1.5 1.5 1.5 1.5 0 0 1-1.5 1.5 1.5 1.5 0 0 1-1.5-1.5m-12 0a1.5 1.5 0 0 1 1.5-1.5 1.5 1.5 0 0 1 1.5 1.5 1.5 1.5 0 0 1-1.5 1.5 1.5 1.5 0 0 1-1.5-1.5m-12 0a1.5 1.5 0 0 1 1.5-1.5 1.5 1.5 0 0 1 1.5 1.5 1.5 1.5 0 0 1-1.5 1.5 1.5 1.5 0 0 1-1.5-1.5m-12 0a1.5 1.5 0 0 1 1.5-1.5 1.5 1.5 0 0 1 1.5 1.5 1.5 1.5 0 0 1-1.5 1.5 1.5 1.5 0 0 1-1.5-1.5m-12 0a1.5 1.5 0 0 1 1.5-1.5 1.5 1.5 0 0 1 1.5 1.5 1.5 1.5 0 0 1-1.5 1.5 1.5 1.5 0 0 1-1.5-1.5m-12 0a1.5 1.5 0 0 1 1.5-1.5 1.5 1.5 0 0 1 1.5 1.5 1.5 1.5 0 0 1-1.5 1.5 1.5 1.5 0 0 1-1.5-1.5m-12 0a1.5 1.5 0 0 1 1.5-1.5 1.5 1.5 0 0 1 1.5 1.5 1.5 1.5 0 0 1-1.5 1.5 1.5 1.5 0 0 1-1.5-1.5m-12 0a1.5 1.5 0 0 1 1.5-1.5 1.5 1.5 0 0 1 1.5 1.5 1.5 1.5 0 0 1-1.5 1.5 1.5 1.5 0 0 1-1.5-1.5m-12 0a1.5 1.5 0 0 1 1.5-1.5 1.5 1.5 0 0 1 1.5 1.5 1.5 1.5 0 0 1-1.5 1.5 1.5 1.5 0 0 1-1.5-1.5m-12 0a1.5 1.5 0 0 1 1.5-1.5 1.5 1.5 0 0 1 1.5 1.5 1.5 1.5 0 0 1-1.5 1.5 1.5 1.5 0 0 1-1.5-1.5m-12 0a1.5 1.5 0 0 1 1.5-1.5 1.5 1.5 0 0 1 1.5 1.5 1.5 1.5 0 0 1-1.5 1.5 1.5 1.5 0 0 1-1.5-1.5m-12 0a1.5 1.5 0 0 1 1.5-1.5 1.5 1.5 0 0 1 1.5 1.5 1.5 1.5 0 0 1-1.5 1.5 1.5 1.5 0 0 1-1.5-1.5m-12 0a1.5 1.5 0 0 1 1.5-1.5 1.5 1.5 0 0 1 1.5 1.5 1.5 1.5 0 0 1-1.5 1.5 1.5 1.5 0 0 1-1.5-1.5m-12 0a1.5 1.5 0 0 1 1.5-1.5 1.5 1.5 0 0 1 1.5 1.5 1.5 1.5 0 0 1-1.5 1.5 1.5 1.5 0 0 1-1.5-1.5m-12 0a1.5 1.5 0 0 1 1.5-1.5 1.5 1.5 0 0 1 1.5 1.5 1.5 1.5 0 0 1-1.5 1.5 1.5 1.5 0 0 1-1.5-1.5m-12 0a1.5 1.5 0 0 1 1.5-1.5 1.5 1.5 0 0 1 1.5 1.5 1.5 1.5 0 0 1-1.5 1.5 1.5 1.5 0 0 1-1.5-1.5m-12 0a1.5 1.5 0 0 1 1.5-1.5 1.5 1.5 0 0 1 1.5 1.5 1.5 1.5 0 0 1-1.5 1.5 1.5 1.5 0 0 1-1.5-1.5m-12 0a1.5 1.5 0 0 1 1.5-1.5 1.5 1.5 0 0 1 1.5 1.5 1.5 1.5 0 0 1-1.5 1.5 1.5 1.5 0 0 1-1.5-1.5m-12 0a1.5 1.5 0 0 1 1.5-1.5 1.5 1.5 0 0 1 1.5 1.5 1.5 1.5 0 0 1-1.5 1.5 1.5 1.5 0 0 1-1.5-1.5m-12 0a1.5 1.5 0 0 1 1.5-1.5 1.5 1.5 0 0 1 1.5 1.5 1.5 1.5 0 0 1-1.5 1.5 1.5 1.5 0 0 1-1.5-1.5m-12 0a1.5 1.5 0 0 1 1.5-1.5 1.5 1.5 0 0 1 1.5 1.5 1.5 1.5 0 0 1-1.5 1.5 1.5 1.5 0 0 1-1.5-1.5m-12 0a1.5 1.5 0 0 1 1.5-1.5 1.5 1.5 0 0 1 1.5 1.5 1.5 1.5 0 0 1-1.5 1.5 1.5 1.5 0 0 1-1.5-1.5m-12 0a1.5 1.5 0 0 1 1.5-1.5 1.5 1.5 0 0 1 1.5 1.5 1.5 1.5 0 0 1-1.5 1.5 1.5 1.5 0 0 1-1.5-1.5m-12 0a1.5 1.5 0 0 1 1.5-1.5 1.5 1.5 0 0 1 1.5 1.5 1.5 1.5 0 0 1-1.5 1.5 1.5 1.5 0 0 1-1.5-1.5m-12 0a1.5 1.5 0 0 1 1.5-1.5 1.5 1.5 0 0 1 1.5 1.5 1.5 1.5 0 0 1-1.5 1.5 1.5 1.5 0 0 1-1.5-1.5m-12 0a1.5 1.5 0 0 1 1.5-1.5 1.5 1.5 0 0 1 1.5 1.5 1.5 1.5 0 0 1-1.5 1.5 1.5 1.5 0 0 1-1.5-1.5m-12 0a1.5 1.5 0 0 1 1.5-1.5 1.5 1.5 0 0 1 1.5 1.5 1.5 1.5 0 0 1-1.5 1.5 1.5 1.5 0 0 1-1.5-1.5m-9.97-2.7v-.03a1.5 1.5 0 0 1 1.5-1.5 1.5 1.5 0 0 1 1.5 1.5 1.5 1.5 0 0 1-1.5 1.5 1.5 1.5 0 0 1-1.5-1.5m-7.3-7.28v-.03a1.5 1.5 0 0 1 1.5-1.5 1.5 1.5 0 0 1 1.5 1.5 1.5 1.5 0 0 1-1.5 1.5 1.5 1.5 0 0 1-1.5-1.5M598.5 420a1.5 1.5 0 0 1 1.5-1.5 1.5 1.5 0 0 1 1.5 1.5 1.5 1.5 0 0 1-1.5 1.5 1.5 1.5 0 0 1-1.5-1.5m0-13.32a1.5 1.5 0 0 1 1.5-1.5 1.5 1.5 0 0 1 1.5 1.5 1.5 1.5 0 0 1-1.5 1.5 1.5 1.5 0 0 1-1.5-1.5v-.03m0-13.3v-.02a1.5 1.5 0 0 1 1.5-1.5 1.5 1.5 0 0 1 1.5 1.5 1.5 1.5 0 0 1-1.5 1.5 1.5 1.5 0 0 1-1.5-1.5"/><path d="M620 520a20 20 0 0 1 20-20h40a20 20 0 0 1 20 20v60a20 20 0 0 1-20 20h-40a20 20 0 0 1-20-20z" stroke="#000" stroke-width="3" fill="url(#a)"/><use xlink:href="#b" transform="matrix(-1.8369701987210297e-16,-1,1,-1.8369701987210297e-16,625.0001444771996,595) translate(2.9351851851851904 39.24305555555556)"/><use xlink:href="#c" transform="matrix(-1.8369701987210297e-16,-1,1,-1.8369701987210297e-16,625.0001444771996,595) translate(70.76851851851852 39.24305555555556)"/><path d="M760 520a20 20 0 0 1 20-20h40a20 20 0 0 1 20 20v60a20 20 0 0 1-20 20h-40a20 20 0 0 1-20-20z" stroke="#000" stroke-width="3" fill="url(#d)"/><use xlink:href="#e" transform="matrix(-1.8369701987210297e-16,-1,1,-1.8369701987210297e-16,765.0001444771996,595) translate(2.9351851851851904 39.24305555555556)"/><use xlink:href="#f" transform="matrix(-1.8369701987210297e-16,-1,1,-1.8369701987210297e-16,765.0001444771996,595) translate(70.76851851851852 39.24305555555556)"/><path d="M900 520a20 20 0 0 1 20-20h40a20 20 0 0 1 20 20v60a20 20 0 0 1-20 20h-40a20 20 0 0 1-20-20z" stroke="#000" stroke-width="3" fill="url(#g)"/><use xlink:href="#e" transform="matrix(-1.8369701987210297e-16,-1,1,-1.8369701987210297e-16,905.0001444771997,595) translate(2.290123456790127 39.24305555555556)"/><use xlink:href="#h" transform="matrix(-1.8369701987210297e-16,-1,1,-1.8369701987210297e-16,905.0001444771997,595) translate(70.12345679012346 39.24305555555556)"/><path d="M620 400a20 20 0 0 1 20-20h120a20 20 0 0 1 20 20 20 20 0 0 1-20 20H640a20 20 0 0 1-20-20z" stroke="#000" stroke-width="3" fill="url(#i)"/><use xlink:href="#j" transform="matrix(1,0,0,1,625.0002889543991,385) translate(38.37228395061728 21.430555555555557)"/><use xlink:href="#k" transform="matrix(1,0,0,1,625.0002889543991,385) translate(95.34141975308643 21.430555555555557)"/><path d="M699.38 422.3l-48.2 61.64" stroke="#000" stroke-width="2" fill="none"/><path d="M700.14 422.9l-1.54-1.2.16-.2h2.48z" stroke="#000" stroke-width=".05"/><path d="M641.78 495.96l5.13-14.1 7.32 5.72z" stroke="#000" stroke-width="2"/><path d="M700.95 421.83l203.37 70.6" stroke="#000" stroke-width="2" fill="none"/><path d="M700.65 422.76l-3.62-1.26h4.06z" stroke="#000" stroke-width=".05"/><path d="M918.74 497.44l-15-.3 3.05-8.76z" stroke="#000" stroke-width="2"/><path d="M700.74 422.18l69.46 63.8" stroke="#000" stroke-width="2" fill="none"/><path d="M700.1 422.9l-1.54-1.4h2.83z" stroke="#000" stroke-width=".05"/><path d="M781.44 496.3l-13.64-6.23 6.27-6.82z" stroke="#000" stroke-width="2"/><path d="M820 400a20 20 0 0 1 20-20h120a20 20 0 0 1 20 20 20 20 0 0 1-20 20H840a20 20 0 0 1-20-20z" stroke="#000" stroke-width="3" fill="url(#l)"/><use xlink:href="#j" transform="matrix(1,0,0,1,825.0002889543991,385) translate(38.37228395061728 21.430555555555557)"/><use xlink:href="#m" transform="matrix(1,0,0,1,825.0002889543991,385) translate(95.34141975308643 21.430555555555557)"/><path d="M899.06 421.83l-200.67 70.6" stroke="#000" stroke-width="2" fill="none"/><path d="M899.36 422.76l-.45-1.26h4.04z" stroke="#000" stroke-width=".05"/><path d="M684 497.5l11.9-9.1 3.08 8.73z" stroke="#000" stroke-width="2"/><path d="M900.63 422.27l51.18 62.24" stroke="#000" stroke-width="2" fill="none"/><path d="M901.4 421.67l-1.5 1.24-1.16-1.4h2.52z" stroke="#000" stroke-width=".05"/><path d="M961.5 496.3l-12.64-8.07 7.16-5.9z" stroke="#000" stroke-width="2"/><path d="M899.27 422.2l-67.6 63.62" stroke="#000" stroke-width="2" fill="none"/><path d="M899.92 422.9l-1.33-1.4h2.82z" stroke="#000" stroke-width=".05"/><path d="M820.55 496.28l7.22-13.15 6.35 6.75z" stroke="#000" stroke-width="2"/><path d="M620 699.5a20 20 0 0 1 20-20h20a20 20 0 0 1 20 20v19a20 20 0 0 1-20 20h-20a20 20 0 0 1-20-20z" stroke="#000" stroke-width="3" fill="#cfe4ff"/><use xlink:href="#n" transform="matrix(1,0,0,1,625,684.5000499999953) translate(0.6574074074074083 28.743055555555557)"/><path d="M720 699.5a20 20 0 0 1 20-20h20a20 20 0 0 1 20 20v19a20 20 0 0 1-20 20h-20a20 20 0 0 1-20-20z" stroke="#000" stroke-width="3" fill="#cfe4ff"/><use xlink:href="#o" transform="matrix(1,0,0,1,725,684.5000499999953) translate(1.1574074074074083 28.743055555555557)"/><path d="M822 699.5a20 20 0 0 1 20-20h20a20 20 0 0 1 20 20v19a20 20 0 0 1-20 20h-20a20 20 0 0 1-20-20z" stroke="#000" stroke-width="3" fill="#fff"/><use xlink:href="#p" transform="matrix(1,0,0,1,827.0000938596488,684.5000499999953) translate(2.4475308641975317 28.743055555555557)"/><path d="M920 699.5a20 20 0 0 1 20-20h23a20 20 0 0 1 20 20v19a20 20 0 0 1-20 20h-23a20 20 0 0 1-20-20z" stroke="#000" stroke-width="3" fill="#fff"/><use xlink:href="#q" transform="matrix(1,0,0,1,925,684.5000499999953) translate(3.9475308641975317 28.743055555555557)"/><path d="M659.75 602.47l-15.07 57.63" stroke="#000" stroke-width="2" fill="none"/><path d="M660.68 602.74l-1.88-.5.2-.74h2z" stroke="#000" stroke-width=".05"/><path d="M640.82 674.87l-.88-14.98 8.97 2.34z" stroke="#000" stroke-width="2"/><path d="M660.72 602.2l65.9 63" stroke="#000" stroke-width="2" fill="none"/><path d="M661.4 601.5l-1.33 1.4-1.48-1.4h2.8z" stroke="#000" stroke-width=".05"/><path d="M737.66 675.76l-13.5-6.5 6.4-6.7z" stroke="#000" stroke-width="2"/><path d="M660.96 601.78l251 73.67" stroke="#000" stroke-width="2" fill="none"/><path d="M660.7 602.72l-3.85-1.13.02-.1h4.2z" stroke="#000" stroke-width=".05"/><path d="M926.6 679.75l-15 .43 2.62-8.9z" stroke="#000" stroke-width="2"/><path d="M800.56 602.33l41.04 60.37" stroke="#000" stroke-width="2" fill="none"/><path d="M801.38 601.8l-1.6 1.1-.96-1.4h2.36z" stroke="#000" stroke-width=".05"/><path d="M850.18 675.32l-11.85-9.2 7.66-5.2z" stroke="#000" stroke-width="2"/><path d="M800.9 601.95l134.08 67.7" stroke="#000" stroke-width="2" fill="none"/><path d="M800.48 602.83l-2.64-1.33h3.3z" stroke="#000" stroke-width=".05"/><path d="M948.6 676.54l-14.8-2.3 4.17-8.27z" stroke="#000" stroke-width="2"/><path d="M799.45 602.34l-39.33 60.17" stroke="#000" stroke-width="2" fill="none"/><path d="M800.25 602.9l-1.63-1.07.22-.33h2.32z" stroke="#000" stroke-width=".05"/><path d="M751.77 675.3l3.93-14.5 7.75 5.1z" stroke="#000" stroke-width="2"/><path d="M940.33 602.45l20.2 58.37" stroke="#000" stroke-width="2" fill="none"/><path d="M941.26 602.15l-1.85.64-.43-1.3h2.06z" stroke="#000" stroke-width=".05"/><path d="M965.5 675.25l-9.04-11.97 8.77-3.03z" stroke="#000" stroke-width="2"/><path d="M939.3 602.2l-63.43 62.83" stroke="#000" stroke-width="2" fill="none"/><path d="M939.96 602.9l-1.38-1.37.03-.03h2.8z" stroke="#000" stroke-width=".05"/><path d="M865.02 675.77l6.88-13.33 6.52 6.6z" stroke="#000" stroke-width="2"/><path d="M939.08 601.9l-161.5 68.88" stroke="#000" stroke-width="2" fill="none"/><path d="M939.44 602.8l-.56-1.3h3.6z" stroke="#000" stroke-width=".05"/><path d="M763.53 676.77l11.3-9.86 3.64 8.54z" stroke="#000" stroke-width="2"/><path d="M939.04 601.76l-261.2 71.36" stroke="#000" stroke-width="2" fill="none"/><path d="M943.15 601.65l-3.88 1.06-.33-1.2h4.17z" stroke="#000" stroke-width=".05"/><path d="M663.12 677.15l12.54-8.23 2.45 8.94z" stroke="#000" stroke-width="2"/><path d="M300 485.33a6 6 0 0 1 6-6h188a6 6 0 0 1 6 6v127.6a6 6 0 0 1-6 6H306a6 6 0 0 1-6-6z" stroke="#000" stroke-opacity="0" stroke-width="3" fill="#fff" fill-opacity="0"/><use xlink:href="#r" transform="matrix(1,0,0,1,304.99971104560086,484.3332833324955) translate(2.6172839506173062 33.013888888888886)"/><use xlink:href="#s" transform="matrix(1,0,0,1,304.99971104560086,484.3332833324955) translate(76.93827160493828 33.013888888888886)"/><use xlink:href="#t" transform="matrix(1,0,0,1,304.99971104560086,484.3332833324955) translate(107.96296296296296 33.013888888888886)"/><use xlink:href="#u" transform="matrix(1,0,0,1,304.99971104560086,484.3332833324955) translate(133.88888888888886 33.013888888888886)"/><use xlink:href="#v" transform="matrix(1,0,0,1,304.99971104560086,484.3332833324955) translate(170.09876543209873 33.013888888888886)"/><use xlink:href="#w" transform="matrix(1,0,0,1,304.99971104560086,484.3332833324955) translate(36.320987654321 70.34722222222221)"/><use xlink:href="#x" transform="matrix(1,0,0,1,304.99971104560086,484.3332833324955) translate(127.75308641975309 70.34722222222221)"/><use xlink:href="#y" transform="matrix(1,0,0,1,304.99971104560086,484.3332833324955) translate(38.04938271604939 107.68055555555554)"/><path d="M1100 386.42a6 6 0 0 1 6-6h168a6 6 0 0 1 6 6V494a6 6 0 0 1-6 6h-168a6 6 0 0 1-6-6z" stroke="#000" stroke-opacity="0" stroke-width="3" fill="#fff" fill-opacity="0"/><g><use xlink:href="#z" transform="matrix(1,0,0,1,1105.0005779087983,385.4166166662501) translate(16.72839506172842 24.888888888888886)"/><use xlink:href="#A" transform="matrix(1,0,0,1,1105.0005779087983,385.4166166662501) translate(96.23456790123457 24.888888888888886)"/><use xlink:href="#B" transform="matrix(1,0,0,1,1105.0005779087983,385.4166166662501) translate(-0.46913580246911124 62.222222222222214)"/><use xlink:href="#C" transform="matrix(1,0,0,1,1105.0005779087983,385.4166166662501) translate(35.827160493827165 99.55555555555554)"/></g><path d="M1100 624.92a6 6 0 0 1 6-6h168a6 6 0 0 1 6 6V732.5a6 6 0 0 1-6 6h-168a6 6 0 0 1-6-6z" stroke="#000" stroke-opacity="0" stroke-width="3" fill="#fff" fill-opacity="0"/><g><use xlink:href="#D" transform="matrix(1,0,0,1,1105.0008668631974,623.9166666662454) translate(4.716049382716065 28.326388888888886)"/><use xlink:href="#E" transform="matrix(1,0,0,1,1105.0008668631974,623.9166666662454) translate(115.1604938271605 28.326388888888886)"/><use xlink:href="#F" transform="matrix(1,0,0,1,1105.0008668631974,623.9166666662454) translate(0.524691358024711 65.65972222222221)"/><use xlink:href="#G" transform="matrix(1,0,0,1,1105.0008668631974,623.9166666662454) translate(117.62345679012347 65.65972222222221)"/><use xlink:href="#H" transform="matrix(1,0,0,1,1105.0008668631974,623.9166666662454) translate(37.64197530864199 102.99305555555554)"/></g><defs><linearGradient gradientUnits="userSpaceOnUse" id="a" x1="620" y1="500" x2="620" y2="600"><stop offset="66.07%" stop-color="#cfe4ff"/><stop offset="80%" stop-color="#ced4db"/></linearGradient><path d="M30 0v-248h187v28H63v79h144v27H63v87h162V0H30" id="I"/><path d="M117-194c89-4 53 116 60 194h-32v-121c0-31-8-49-39-48C34-167 62-67 57 0H25l-1-190h30c1 10-1 24 2 32 11-22 29-35 61-36" id="J"/><path d="M59-47c-2 24 18 29 38 22v24C64 9 27 4 27-40v-127H5v-23h24l9-43h21v43h35v23H59v120" id="K"/><path d="M24-231v-30h32v30H24zM24 0v-190h32V0H24" id="L"/><path d="M179-190L93 31C79 59 56 82 12 73V49c39 6 53-20 64-50L1-190h34L92-34l54-156h33" id="M"/><g id="b"><use transform="matrix(0.06790123456790123,0,0,0.06790123456790123,0,0)" xlink:href="#I"/><use transform="matrix(0.06790123456790123,0,0,0.06790123456790123,16.296296296296294,0)" xlink:href="#J"/><use transform="matrix(0.06790123456790123,0,0,0.06790123456790123,29.87654320987654,0)" xlink:href="#K"/><use transform="matrix(0.06790123456790123,0,0,0.06790123456790123,36.666666666666664,0)" xlink:href="#L"/><use transform="matrix(0.06790123456790123,0,0,0.06790123456790123,42.03086419753086,0)" xlink:href="#K"/><use transform="matrix(0.06790123456790123,0,0,0.06790123456790123,48.82098765432099,0)" xlink:href="#M"/></g><path d="M205 0l-28-72H64L36 0H1l101-248h38L239 0h-34zm-38-99l-47-123c-12 45-31 82-46 123h93" id="N"/><use transform="matrix(0.06790123456790123,0,0,0.06790123456790123,0,0)" xlink:href="#N" id="c"/><linearGradient gradientUnits="userSpaceOnUse" id="d" x1="760" y1="500" x2="760" y2="600"><stop offset="66.07%" stop-color="#cfe4ff"/><stop offset="80%" stop-color="#ced4db"/></linearGradient><g id="e"><use transform="matrix(0.06790123456790123,0,0,0.06790123456790123,0,0)" xlink:href="#I"/><use transform="matrix(0.06790123456790123,0,0,0.06790123456790123,16.296296296296294,0)" xlink:href="#J"/><use transform="matrix(0.06790123456790123,0,0,0.06790123456790123,29.87654320987654,0)" xlink:href="#K"/><use transform="matrix(0.06790123456790123,0,0,0.06790123456790123,36.666666666666664,0)" xlink:href="#L"/><use transform="matrix(0.06790123456790123,0,0,0.06790123456790123,42.03086419753086,0)" xlink:href="#K"/><use transform="matrix(0.06790123456790123,0,0,0.06790123456790123,48.82098765432099,0)" xlink:href="#M"/></g><path d="M160-131c35 5 61 23 61 61C221 17 115-2 30 0v-248c76 3 177-17 177 60 0 33-19 50-47 57zm-97-11c50-1 110 9 110-42 0-47-63-36-110-37v79zm0 115c55-2 124 14 124-45 0-56-70-42-124-44v89" id="O"/><use transform="matrix(0.06790123456790123,0,0,0.06790123456790123,0,0)" xlink:href="#O" id="f"/><linearGradient gradientUnits="userSpaceOnUse" id="g" x1="900" y1="500" x2="900" y2="600"><stop offset="66.07%" stop-color="#cfe4ff"/><stop offset="80%" stop-color="#ced4db"/></linearGradient><path d="M212-179c-10-28-35-45-73-45-59 0-87 40-87 99 0 60 29 101 89 101 43 0 62-24 78-52l27 14C228-24 195 4 139 4 59 4 22-46 18-125c-6-104 99-153 187-111 19 9 31 26 39 46" id="P"/><use transform="matrix(0.06790123456790123,0,0,0.06790123456790123,0,0)" xlink:href="#P" id="h"/><linearGradient gradientUnits="userSpaceOnUse" id="i" x1="620" y1="380" x2="620" y2="420"><stop offset="25.36%" stop-color="#fff"/><stop offset="45.29%" stop-color="#c3f7c8"/></linearGradient><path d="M127-220V0H93v-220H8v-28h204v28h-85" id="Q"/><path d="M141-36C126-15 110 5 73 4 37 3 15-17 15-53c-1-64 63-63 125-63 3-35-9-54-41-54-24 1-41 7-42 31l-33-3c5-37 33-52 76-52 45 0 72 20 72 64v82c-1 20 7 32 28 27v20c-31 9-61-2-59-35zM48-53c0 20 12 33 32 33 41-3 63-29 60-74-43 2-92-5-92 41" id="R"/><path d="M135-143c-3-34-86-38-87 0 15 53 115 12 119 90S17 21 10-45l28-5c4 36 97 45 98 0-10-56-113-15-118-90-4-57 82-63 122-42 12 7 21 19 24 35" id="S"/><path d="M143 0L79-87 56-68V0H24v-261h32v163l83-92h37l-77 82L181 0h-38" id="T"/><g id="j"><use transform="matrix(0.06790123456790123,0,0,0.06790123456790123,0,0)" xlink:href="#Q"/><use transform="matrix(0.06790123456790123,0,0,0.06790123456790123,12.15432098765432,0)" xlink:href="#R"/><use transform="matrix(0.06790123456790123,0,0,0.06790123456790123,25.73456790123457,0)" xlink:href="#S"/><use transform="matrix(0.06790123456790123,0,0,0.06790123456790123,37.95679012345679,0)" xlink:href="#T"/></g><path d="M195 0l-74-108L45 0H8l94-129-87-119h37l69 98 67-98h37l-84 118L233 0h-38" id="U"/><use transform="matrix(0.06790123456790123,0,0,0.06790123456790123,0,0)" xlink:href="#U" id="k"/><linearGradient gradientUnits="userSpaceOnUse" id="l" x1="820" y1="380" x2="820" y2="420"><stop offset="25.36%" stop-color="#fff"/><stop offset="45.29%" stop-color="#c3f7c8"/></linearGradient><path d="M137-103V0h-34v-103L8-248h37l75 118 75-118h37" id="V"/><use transform="matrix(0.06790123456790123,0,0,0.06790123456790123,0,0)" xlink:href="#V" id="m"/><path d="M232-93c-1 65-40 97-104 97C67 4 28-28 28-90v-158h33c8 89-33 224 67 224 102 0 64-133 71-224h33v155" id="W"/><path d="M24 0v-261h32V0H24" id="X"/><path d="M27 0v-27h64v-190l-56 39v-29l58-41h29v221h61V0H27" id="Y"/><g id="n"><use transform="matrix(0.06790123456790123,0,0,0.06790123456790123,0,0)" xlink:href="#W"/><use transform="matrix(0.06790123456790123,0,0,0.06790123456790123,17.586419753086417,0)" xlink:href="#K"/><use transform="matrix(0.06790123456790123,0,0,0.06790123456790123,24.37654320987654,0)" xlink:href="#L"/><use transform="matrix(0.06790123456790123,0,0,0.06790123456790123,29.740740740740737,0)" xlink:href="#X"/><use transform="matrix(0.06790123456790123,0,0,0.06790123456790123,35.10493827160494,0)" xlink:href="#Y"/></g><path d="M101-251c82-7 93 87 43 132L82-64C71-53 59-42 53-27h129V0H18c2-99 128-94 128-182 0-28-16-43-45-43s-46 15-49 41l-32-3c6-41 34-60 81-64" id="Z"/><g id="o"><use transform="matrix(0.06790123456790123,0,0,0.06790123456790123,0,0)" xlink:href="#W"/><use transform="matrix(0.06790123456790123,0,0,0.06790123456790123,17.586419753086417,0)" xlink:href="#K"/><use transform="matrix(0.06790123456790123,0,0,0.06790123456790123,24.37654320987654,0)" xlink:href="#L"/><use transform="matrix(0.06790123456790123,0,0,0.06790123456790123,29.740740740740737,0)" xlink:href="#X"/><use transform="matrix(0.06790123456790123,0,0,0.06790123456790123,35.10493827160494,0)" xlink:href="#Z"/></g><path d="M30 0v-248h33v221h125V0H30" id="aa"/><path d="M115-194c53 0 69 39 70 98 0 66-23 100-70 100C84 3 66-7 56-30L54 0H23l1-261h32v101c10-23 28-34 59-34zm-8 174c40 0 45-34 45-75 0-40-5-75-45-74-42 0-51 32-51 76 0 43 10 73 51 73" id="ab"/><path d="M126-127c33 6 58 20 58 59 0 88-139 92-164 29-3-8-5-16-6-25l32-3c6 27 21 44 54 44 32 0 52-15 52-46 0-38-36-46-79-43v-28c39 1 72-4 72-42 0-27-17-43-46-43-28 0-47 15-49 41l-32-3c6-42 35-63 81-64 48-1 79 21 79 65 0 36-21 52-52 59" id="ac"/><g id="p"><use transform="matrix(0.06790123456790123,0,0,0.06790123456790123,0,0)" xlink:href="#aa"/><use transform="matrix(0.06790123456790123,0,0,0.06790123456790123,13.580246913580247,0)" xlink:href="#L"/><use transform="matrix(0.06790123456790123,0,0,0.06790123456790123,18.944444444444443,0)" xlink:href="#ab"/><use transform="matrix(0.06790123456790123,0,0,0.06790123456790123,32.52469135802469,0)" xlink:href="#ac"/></g><path d="M155-56V0h-30v-56H8v-25l114-167h33v167h35v25h-35zm-30-156c-27 46-58 90-88 131h88v-131" id="ad"/><g id="q"><use transform="matrix(0.06790123456790123,0,0,0.06790123456790123,0,0)" xlink:href="#aa"/><use transform="matrix(0.06790123456790123,0,0,0.06790123456790123,13.580246913580247,0)" xlink:href="#L"/><use transform="matrix(0.06790123456790123,0,0,0.06790123456790123,18.944444444444443,0)" xlink:href="#ab"/><use transform="matrix(0.06790123456790123,0,0,0.06790123456790123,32.52469135802469,0)" xlink:href="#ad"/></g><path d="M194-120c59 52 2 134-86 124-53-6-90-18-98-63l31-7c8 30 29 43 70 43 46 0 84-17 71-62-32-43-135-20-137-98-3-89 178-90 191-16l-30 9c-8-48-127-53-127 5 0 53 81 35 115 65" id="ae"/><path d="M20-101c0-91 52-143 145-150 126-9 127 168 53 223-23 17-55 32-93 32C57 4 20-33 20-101zm216-33c5-57-18-91-73-90-77 1-110 51-110 125 0 49 23 75 73 75 72-1 104-45 110-110" id="af"/><path d="M187 0l-14-72H61L19 0h-37l149-248h38L221 0h-34zm-19-99l-22-123L76-99h92" id="ag"/><g id="r"><use transform="matrix(0.08641975308641973,0,0,0.08641975308641973,0,0)" xlink:href="#ae"/><use transform="matrix(0.08641975308641973,0,0,0.08641975308641973,20.740740740740737,0)" xlink:href="#af"/><use transform="matrix(0.08641975308641973,0,0,0.08641975308641973,44.938271604938265,0)" xlink:href="#ag"/></g><g id="s"><use transform="matrix(0.08641975308641973,0,0,0.08641975308641973,0,0)" xlink:href="#L"/><use transform="matrix(0.08641975308641973,0,0,0.08641975308641973,6.827160493827159,0)" xlink:href="#S"/></g><use transform="matrix(0.08641975308641973,0,0,0.08641975308641973,0,0)" xlink:href="#ac" id="t"/><path d="M100-194c62-1 85 37 85 99 1 63-27 99-86 99S16-35 15-95c0-66 28-99 85-99zM99-20c44 1 53-31 53-75 0-43-8-75-51-75s-53 32-53 75 10 74 51 75" id="ah"/><path d="M114-163C36-179 61-72 57 0H25l-1-190h30c1 12-1 29 2 39 6-27 23-49 58-41v29" id="ai"/><g id="u"><use transform="matrix(0.08641975308641973,0,0,0.08641975308641973,0,0)" xlink:href="#ah"/><use transform="matrix(0.08641975308641973,0,0,0.08641975308641973,17.283950617283946,0)" xlink:href="#ai"/></g><use transform="matrix(0.08641975308641973,0,0,0.08641975308641973,0,0)" xlink:href="#ad" id="v"/><path d="M100-194c63 0 86 42 84 106H49c0 40 14 67 53 68 26 1 43-12 49-29l28 8c-11 28-37 45-77 45C44 4 14-33 15-96c1-61 26-98 85-98zm52 81c6-60-76-77-97-28-3 7-6 17-6 28h103" id="aj"/><g id="w"><use transform="matrix(0.08641975308641973,0,0,0.08641975308641973,0,0)" xlink:href="#X"/><use transform="matrix(0.08641975308641973,0,0,0.08641975308641973,6.827160493827159,0)" xlink:href="#R"/><use transform="matrix(0.08641975308641973,0,0,0.08641975308641973,24.111111111111107,0)" xlink:href="#M"/><use transform="matrix(0.08641975308641973,0,0,0.08641975308641973,39.66666666666666,0)" xlink:href="#aj"/><use transform="matrix(0.08641975308641973,0,0,0.08641975308641973,56.950617283950606,0)" xlink:href="#ai"/><use transform="matrix(0.08641975308641973,0,0,0.08641975308641973,67.23456790123456,0)" xlink:href="#S"/></g><path d="M101-234c-31-9-42 10-38 44h38v23H63V0H32v-167H5v-23h27c-7-52 17-82 69-68v24" id="ak"/><g id="x"><use transform="matrix(0.08641975308641973,0,0,0.08641975308641973,0,0)" xlink:href="#ah"/><use transform="matrix(0.08641975308641973,0,0,0.08641975308641973,17.283950617283946,0)" xlink:href="#ak"/></g><path d="M108 0H70L1-190h34L89-25l56-165h34" id="al"/><path d="M96-169c-40 0-48 33-48 73s9 75 48 75c24 0 41-14 43-38l32 2c-6 37-31 61-74 61-59 0-76-41-82-99-10-93 101-131 147-64 4 7 5 14 7 22l-32 3c-4-21-16-35-41-35" id="am"/><g id="y"><use transform="matrix(0.08641975308641973,0,0,0.08641975308641973,0,0)" xlink:href="#S"/><use transform="matrix(0.08641975308641973,0,0,0.08641975308641973,15.555555555555552,0)" xlink:href="#aj"/><use transform="matrix(0.08641975308641973,0,0,0.08641975308641973,32.8395061728395,0)" xlink:href="#ai"/><use transform="matrix(0.08641975308641973,0,0,0.08641975308641973,43.12345679012345,0)" xlink:href="#al"/><use transform="matrix(0.08641975308641973,0,0,0.08641975308641973,58.679012345679,0)" xlink:href="#L"/><use transform="matrix(0.08641975308641973,0,0,0.08641975308641973,65.50617283950616,0)" xlink:href="#am"/><use transform="matrix(0.08641975308641973,0,0,0.08641975308641973,81.06172839506172,0)" xlink:href="#aj"/><use transform="matrix(0.08641975308641973,0,0,0.08641975308641973,98.34567901234568,0)" xlink:href="#S"/></g><path d="M106-169C34-169 62-67 57 0H25v-261h32l-1 103c12-21 28-36 61-36 89 0 53 116 60 194h-32v-121c2-32-8-49-39-48" id="an"/><g id="z"><use transform="matrix(0.08641975308641973,0,0,0.08641975308641973,0,0)" xlink:href="#I"/><use transform="matrix(0.08641975308641973,0,0,0.08641975308641973,20.740740740740737,0)" xlink:href="#R"/><use transform="matrix(0.08641975308641973,0,0,0.08641975308641973,38.02469135802468,0)" xlink:href="#am"/><use transform="matrix(0.08641975308641973,0,0,0.08641975308641973,53.58024691358023,0)" xlink:href="#an"/></g><g id="A"><use transform="matrix(0.08641975308641973,0,0,0.08641975308641973,0,0)" xlink:href="#K"/><use transform="matrix(0.08641975308641973,0,0,0.08641975308641973,8.641975308641973,0)" xlink:href="#R"/><use transform="matrix(0.08641975308641973,0,0,0.08641975308641973,25.925925925925917,0)" xlink:href="#S"/><use transform="matrix(0.08641975308641973,0,0,0.08641975308641973,41.48148148148147,0)" xlink:href="#T"/></g><g id="B"><use transform="matrix(0.08641975308641973,0,0,0.08641975308641973,0,0)" xlink:href="#ah"/><use transform="matrix(0.08641975308641973,0,0,0.08641975308641973,17.283950617283946,0)" xlink:href="#ai"/><use transform="matrix(0.08641975308641973,0,0,0.08641975308641973,27.567901234567895,0)" xlink:href="#am"/><use transform="matrix(0.08641975308641973,0,0,0.08641975308641973,43.12345679012345,0)" xlink:href="#an"/><use transform="matrix(0.08641975308641973,0,0,0.08641975308641973,60.4074074074074,0)" xlink:href="#aj"/><use transform="matrix(0.08641975308641973,0,0,0.08641975308641973,77.69135802469134,0)" xlink:href="#S"/><use transform="matrix(0.08641975308641973,0,0,0.08641975308641973,93.2469135802469,0)" xlink:href="#K"/><use transform="matrix(0.08641975308641973,0,0,0.08641975308641973,101.88888888888887,0)" xlink:href="#ai"/><use transform="matrix(0.08641975308641973,0,0,0.08641975308641973,112.17283950617282,0)" xlink:href="#R"/><use transform="matrix(0.08641975308641973,0,0,0.08641975308641973,129.45679012345676,0)" xlink:href="#K"/><use transform="matrix(0.08641975308641973,0,0,0.08641975308641973,138.09876543209873,0)" xlink:href="#aj"/><use transform="matrix(0.08641975308641973,0,0,0.08641975308641973,155.38271604938268,0)" xlink:href="#S"/></g><g id="C"><use transform="matrix(0.08641975308641973,0,0,0.08641975308641973,0,0)" xlink:href="#aj"/><use transform="matrix(0.08641975308641973,0,0,0.08641975308641973,17.283950617283946,0)" xlink:href="#J"/><use transform="matrix(0.08641975308641973,0,0,0.08641975308641973,34.56790123456789,0)" xlink:href="#K"/><use transform="matrix(0.08641975308641973,0,0,0.08641975308641973,43.209876543209866,0)" xlink:href="#L"/><use transform="matrix(0.08641975308641973,0,0,0.08641975308641973,50.037037037037024,0)" xlink:href="#K"/><use transform="matrix(0.08641975308641973,0,0,0.08641975308641973,58.679012345679,0)" xlink:href="#L"/><use transform="matrix(0.08641975308641973,0,0,0.08641975308641973,65.50617283950616,0)" xlink:href="#aj"/><use transform="matrix(0.08641975308641973,0,0,0.08641975308641973,82.79012345679011,0)" xlink:href="#S"/></g><g id="D"><use transform="matrix(0.08641975308641973,0,0,0.08641975308641973,0,0)" xlink:href="#I"/><use transform="matrix(0.08641975308641973,0,0,0.08641975308641973,20.740740740740737,0)" xlink:href="#J"/><use transform="matrix(0.08641975308641973,0,0,0.08641975308641973,38.02469135802468,0)" xlink:href="#K"/><use transform="matrix(0.08641975308641973,0,0,0.08641975308641973,46.66666666666666,0)" xlink:href="#L"/><use transform="matrix(0.08641975308641973,0,0,0.08641975308641973,53.493827160493815,0)" xlink:href="#K"/><use transform="matrix(0.08641975308641973,0,0,0.08641975308641973,62.13580246913579,0)" xlink:href="#L"/><use transform="matrix(0.08641975308641973,0,0,0.08641975308641973,68.96296296296295,0)" xlink:href="#aj"/><use transform="matrix(0.08641975308641973,0,0,0.08641975308641973,86.2469135802469,0)" xlink:href="#S"/></g><path d="M84 4C-5 8 30-112 23-190h32v120c0 31 7 50 39 49 72-2 45-101 50-169h31l1 190h-30c-1-10 1-25-2-33-11 22-28 36-60 37" id="ao"/><g id="E"><use transform="matrix(0.08641975308641973,0,0,0.08641975308641973,0,0)" xlink:href="#ao"/><use transform="matrix(0.08641975308641973,0,0,0.08641975308641973,17.283950617283946,0)" xlink:href="#S"/><use transform="matrix(0.08641975308641973,0,0,0.08641975308641973,32.8395061728395,0)" xlink:href="#aj"/></g><g id="F"><use transform="matrix(0.08641975308641973,0,0,0.08641975308641973,0,0)" xlink:href="#X"/><use transform="matrix(0.08641975308641973,0,0,0.08641975308641973,6.827160493827159,0)" xlink:href="#L"/><use transform="matrix(0.08641975308641973,0,0,0.08641975308641973,13.654320987654318,0)" xlink:href="#ab"/><use transform="matrix(0.08641975308641973,0,0,0.08641975308641973,30.938271604938265,0)" xlink:href="#ai"/><use transform="matrix(0.08641975308641973,0,0,0.08641975308641973,41.222222222222214,0)" xlink:href="#R"/><use transform="matrix(0.08641975308641973,0,0,0.08641975308641973,58.50617283950616,0)" xlink:href="#ai"/><use transform="matrix(0.08641975308641973,0,0,0.08641975308641973,68.79012345679011,0)" xlink:href="#L"/><use transform="matrix(0.08641975308641973,0,0,0.08641975308641973,75.61728395061728,0)" xlink:href="#aj"/><use transform="matrix(0.08641975308641973,0,0,0.08641975308641973,92.90123456790124,0)" xlink:href="#S"/></g><path d="M85-194c31 0 48 13 60 33l-1-100h32l1 261h-30c-2-10 0-23-3-31C134-8 116 4 85 4 32 4 16-35 15-94c0-66 23-100 70-100zm9 24c-40 0-46 34-46 75 0 40 6 74 45 74 42 0 51-32 51-76 0-42-9-74-50-73" id="ap"/><g id="G"><use transform="matrix(0.08641975308641973,0,0,0.08641975308641973,0,0)" xlink:href="#R"/><use transform="matrix(0.08641975308641973,0,0,0.08641975308641973,17.283950617283946,0)" xlink:href="#J"/><use transform="matrix(0.08641975308641973,0,0,0.08641975308641973,34.56790123456789,0)" xlink:href="#ap"/></g><g id="H"><use transform="matrix(0.08641975308641973,0,0,0.08641975308641973,0,0)" xlink:href="#ao"/><use transform="matrix(0.08641975308641973,0,0,0.08641975308641973,17.283950617283946,0)" xlink:href="#K"/><use transform="matrix(0.08641975308641973,0,0,0.08641975308641973,25.925925925925917,0)" xlink:href="#L"/><use transform="matrix(0.08641975308641973,0,0,0.08641975308641973,32.753086419753075,0)" xlink:href="#X"/><use transform="matrix(0.08641975308641973,0,0,0.08641975308641973,39.58024691358023,0)" xlink:href="#L"/><use transform="matrix(0.08641975308641973,0,0,0.08641975308641973,46.40740740740739,0)" xlink:href="#K"/><use transform="matrix(0.08641975308641973,0,0,0.08641975308641973,55.04938271604936,0)" xlink:href="#L"/><use transform="matrix(0.08641975308641973,0,0,0.08641975308641973,61.87654320987652,0)" xlink:href="#aj"/><use transform="matrix(0.08641975308641973,0,0,0.08641975308641973,79.16049382716047,0)" xlink:href="#S"/></g></defs></g></svg>