<svg xmlns="http://www.w3.org/2000/svg" xmlns:xlink="http://www.w3.org/1999/xlink" xmlns:lucid="lucid" width="1283" height="273.79"><g transform="translate(-578.5 -958.208341374269)" lucid:page-tab-id="0_0"><path d="M580 980a20 20 0 0 1 20-20h520a20 20 0 0 1 20 20v140a20 20 0 0 1-20 20H600a20 20 0 0 1-20-20z" stroke="#000" stroke-width="3" fill-opacity="0"/><use xlink:href="#a" transform="matrix(1,0,0,1,585,965) translate(223.23956790123455 24.888888888888893)"/><path d="M600 1020a20 20 0 0 1 20-20h120a20 20 0 0 1 20 20v80a20 20 0 0 1-20 20H620a20 20 0 0 1-20-20z" stroke="#000" stroke-width="2" fill="url(#b)"/><use xlink:href="#c" transform="matrix(1,0,0,1,605,1005) translate(32.97413580246913 19.555555555555557)"/><use xlink:href="#d" transform="matrix(1,0,0,1,605,1005) translate(100.73956790123457 19.555555555555557)"/><path d="M609.67 1060a20 20 0 0 1 20-20 20 20 0 0 1 20 20v20a20 20 0 0 1-20 20 20 20 0 0 1-20-20z" stroke="#000" fill="#cfe4ff"/><use xlink:href="#e" transform="matrix(1,0,0,1,614.6666666666666,1045) translate(1.6315432098765401 12.444444444444446)"/><path d="M620.17 1080.5h19M620.17 1060.5h19M620.17 1070.5h19M620.17 1090.5h19M620.17 1093.5h19M620.17 1063.5h19M620.17 1067h19M620.17 1073.5h19M620.17 1077.5h19M620.17 1084h19M620.17 1087.5h19" stroke="#3a414a" stroke-linecap="round" fill="none"/><path d="M660 1060a20 20 0 0 1 20-20 20 20 0 0 1 20 20v20a20 20 0 0 1-20 20 20 20 0 0 1-20-20z" stroke="#000" fill="#cfe4ff"/><use xlink:href="#f" transform="matrix(1,0,0,1,665,1045) translate(2.9278395061728375 12.444444444444446)"/><path d="M670.5 1080.5h19M670.5 1060.5h19M670.5 1070.5h19M670.5 1090.5h19M670.5 1093.5h19M670.5 1063.5h19M670.5 1067h19M670.5 1073.5h19M670.5 1077.5h19M670.5 1084h19M670.5 1087.5h19" stroke="#3a414a" stroke-linecap="round" fill="none"/><path d="M710.33 1060a20 20 0 0 1 20-20 20 20 0 0 1 20 20v20a20 20 0 0 1-20 20 20 20 0 0 1-20-20z" stroke="#000" fill="#cfe4ff"/><use xlink:href="#g" transform="matrix(1,0,0,1,715.3333333333334,1045) translate(1.6099382716049357 12.444444444444446)"/><path d="M720.83 1080.5h19M720.83 1060.5h19M720.83 1070.5h19M720.83 1090.5h19M720.83 1093.5h19M720.83 1063.5h19M720.83 1067h19M720.83 1073.5h19M720.83 1077.5h19M720.83 1084h19M720.83 1087.5h19" stroke="#3a414a" stroke-linecap="round" fill="none"/><path d="M960 1020a20 20 0 0 1 20-20h120a20 20 0 0 1 20 20v80a20 20 0 0 1-20 20H980a20 20 0 0 1-20-20z" stroke="#000" stroke-width="2" fill="url(#h)"/><use xlink:href="#c" transform="matrix(1,0,0,1,965,1005) translate(32.32907407407407 19.555555555555557)"/><use xlink:href="#i" transform="matrix(1,0,0,1,965,1005) translate(100.09450617283952 19.555555555555557)"/><path d="M969.67 1060a20 20 0 0 1 20-20 20 20 0 0 1 20 20v20a20 20 0 0 1-20 20 20 20 0 0 1-20-20z" stroke="#000" fill="#cfe4ff"/><use xlink:href="#j" transform="matrix(1,0,0,1,974.6666666666666,1045) translate(-2.716049382716051 12.444444444444446)"/><path d="M980.17 1080.5h19M980.17 1060.5h19M980.17 1070.5h19M980.17 1090.5h19M980.17 1093.5h19M980.17 1063.5h19M980.17 1067h19M980.17 1073.5h19M980.17 1077.5h19M980.17 1084h19M980.17 1087.5h19" stroke="#3a414a" stroke-linecap="round" fill="none"/><path d="M1020 1060a20 20 0 0 1 20-20 20 20 0 0 1 20 20v20a20 20 0 0 1-20 20 20 20 0 0 1-20-20z" stroke="#000" fill="#cfe4ff"/><use xlink:href="#k" transform="matrix(1,0,0,1,1025,1045) translate(2.0852469135802423 12.444444444444446)"/><path d="M1030.5 1080.5h19M1030.5 1060.5h19M1030.5 1070.5h19M1030.5 1090.5h19M1030.5 1093.5h19M1030.5 1063.5h19M1030.5 1067h19M1030.5 1073.5h19M1030.5 1077.5h19M1030.5 1084h19M1030.5 1087.5h19" stroke="#3a414a" stroke-linecap="round" fill="none"/><path d="M1070.33 1060a20 20 0 0 1 20-20 20 20 0 0 1 20 20v20a20 20 0 0 1-20 20 20 20 0 0 1-20-20z" stroke="#000" fill="#cfe4ff"/><use xlink:href="#l" transform="matrix(1,0,0,1,1075.3333333333335,1045) translate(-1.8086419753086425 12.444444444444446)"/><path d="M1080.83 1080.5h19M1080.83 1060.5h19M1080.83 1070.5h19M1080.83 1090.5h19M1080.83 1093.5h19M1080.83 1063.5h19M1080.83 1067h19M1080.83 1073.5h19M1080.83 1077.5h19M1080.83 1084h19M1080.83 1087.5h19" stroke="#3a414a" stroke-linecap="round" fill="none"/><path d="M780 1020.5a20 20 0 0 1 20-20h120a20 20 0 0 1 20 20v80a20 20 0 0 1-20 20H800a20 20 0 0 1-20-20z" stroke="#000" stroke-width="2" fill="#fcfcca"/><use xlink:href="#m" transform="matrix(1,0,0,1,785,1005.5000160818713) translate(32.97413580246913 19.555555555555557)"/><use xlink:href="#n" transform="matrix(1,0,0,1,785,1005.5000160818713) translate(100.73956790123457 19.555555555555557)"/><path d="M789.67 1060.5a20 20 0 0 1 20-20 20 20 0 0 1 20 20v20a20 20 0 0 1-20 20 20 20 0 0 1-20-20z" stroke="#000" fill="#cfe4ff"/><use xlink:href="#o" transform="matrix(1,0,0,1,794.6666666666666,1045.5000160818713) translate(3.338333333333331 12.444444444444446)"/><path d="M800.17 1081h19M800.17 1061h19M800.17 1071h19M800.17 1091h19M800.17 1094h19M800.17 1064h19M800.17 1067.5h19M800.17 1074h19M800.17 1078h19M800.17 1084.5h19M800.17 1088h19" stroke="#3a414a" stroke-linecap="round" fill="none"/><path d="M840 1060.5a20 20 0 0 1 20-20 20 20 0 0 1 20 20v20a20 20 0 0 1-20 20 20 20 0 0 1-20-20z" stroke="#000" fill="#cfe4ff"/><use xlink:href="#p" transform="matrix(1,0,0,1,845,1045.5000160818713) translate(1.1778395061728377 12.444444444444446)"/><path d="M850.5 1081h19M850.5 1061h19M850.5 1071h19M850.5 1091h19M850.5 1094h19M850.5 1064h19M850.5 1067.5h19M850.5 1074h19M850.5 1078h19M850.5 1084.5h19M850.5 1088h19" stroke="#3a414a" stroke-linecap="round" fill="none"/><path d="M890.33 1060.5a20 20 0 0 1 20-20 20 20 0 0 1 20 20v20a20 20 0 0 1-20 20 20 20 0 0 1-20-20z" stroke="#000" fill="#cfe4ff"/><use xlink:href="#q" transform="matrix(1,0,0,1,895.3333333333334,1045.5000160818713) translate(3.38154320987654 12.444444444444446)"/><path d="M900.83 1081h19M900.83 1061h19M900.83 1071h19M900.83 1091h19M900.83 1094h19M900.83 1064h19M900.83 1067.5h19M900.83 1074h19M900.83 1078h19M900.83 1084.5h19M900.83 1088h19" stroke="#3a414a" stroke-linecap="round" fill="none"/><path d="M580 1176.5a6 6 0 0 1 6-6h548a6 6 0 0 1 6 6v48a6 6 0 0 1-6 6H586a6 6 0 0 1-6-6z" stroke="#000" stroke-opacity="0" stroke-width="3" fill="#fff" fill-opacity="0"/><use xlink:href="#r" transform="matrix(1,0,0,1,585,1175.500024122807) translate(86.953125 41.875)"/><use xlink:href="#s" transform="matrix(1,0,0,1,585,1175.500024122807) translate(169.921875 41.875)"/><use xlink:href="#t" transform="matrix(1,0,0,1,585,1175.500024122807) translate(241.34765625 41.875)"/><use xlink:href="#u" transform="matrix(1,0,0,1,585,1175.500024122807) translate(395.5078125 41.875)"/><path d="M882.36 1102.28l-.95 2.9m-1.25 3.83l-1.9 5.78m-1.25 3.84l-1.9 5.77m-1.25 3.83l-1.9 5.76m-1.25 3.84l-1.9 5.76m-1.25 3.85l-1.88 5.76m-1.26 3.86l-1.88 5.76m-1.26 3.85l-.95 2.88M882.35 1102.3l.32-.97" stroke="#3a414a" stroke-width="2" fill="none"/><path d="M861.25 1169.83l-.22.67h-2.06l.42-1.28z" stroke="#3a414a" stroke-width=".05" fill="#3a414a"/><path d="M1260 1100.5h40v39.5h-40z" stroke="#000" stroke-width="2" fill="#fff"/><use xlink:href="#v" transform="matrix(1,0,0,1,1265,1105.5000160818713) translate(8.223741319444445 23.40277777777778)"/><path d="M1300 1100.5h40v39.5h-40z" stroke="#000" stroke-width="2" fill="#fff"/><use xlink:href="#w" transform="matrix(1,0,0,1,1305,1105.5000160818713) translate(8.712022569444445 23.40277777777778)"/><path d="M1360 1100.5h40v39.5h-40z" stroke="#000" stroke-width="2" fill="#fff"/><use xlink:href="#x" transform="matrix(1,0,0,1,1365,1105.5000160818713) translate(3.6176215277777786 23.40277777777778)"/><path d="M1400 1100.5h40v39.5h-40z" stroke="#000" stroke-width="2" fill="#fff"/><use xlink:href="#y" transform="matrix(1,0,0,1,1405,1105.5000160818713) translate(1.3498263888888893 23.40277777777778)"/><path d="M1460 1100.5h40v39.5h-40z" stroke="#000" stroke-width="2" fill="#fff"/><use xlink:href="#z" transform="matrix(1,0,0,1,1465,1105.5000160818713) translate(3.5199652777777786 23.40277777777778)"/><path d="M1500 1100.5h40v39.5h-40z" stroke="#000" stroke-width="2" fill="#fff"/><use xlink:href="#A" transform="matrix(1,0,0,1,1505,1105.5000160818713) translate(0.9483506944444446 23.40277777777778)"/><path d="M1360 1030.25h40v39.5h-40z" stroke="#000" stroke-width="2" fill="#fff"/><use xlink:href="#B" transform="matrix(1,0,0,1,1365,1035.2500080409357) translate(3.4711371527777786 23.40277777777778)"/><path d="M1400 1030.25h40v39.5h-40z" stroke="#000" stroke-width="2" fill="#fff"/><use xlink:href="#C" transform="matrix(1,0,0,1,1405,1035.2500080409357) translate(0.8127170138888893 23.40277777777778)"/><path d="M1580 1100.5h40v39.5h-40z" stroke="#000" stroke-width="2" fill="#fcfcca"/><use xlink:href="#D" transform="matrix(1,0,0,1,1585,1105.5000160818713) translate(1.4908854166666679 23.40277777777778)"/><path d="M1620 1100.5h40v39.5h-40z" stroke="#000" stroke-width="2" fill="#fcfcca"/><use xlink:href="#E" transform="matrix(1,0,0,1,1625,1105.5000160818713) translate(1.3552517361111107 23.40277777777778)"/><path d="M1680 1100.5h40v39.5h-40z" stroke="#000" stroke-width="2" fill="#fff"/><use xlink:href="#F" transform="matrix(1,0,0,1,1685,1105.5000160818713) translate(1.8218315972222214 23.40277777777778)"/><path d="M1720 1100.5h40v39.5h-40z" stroke="#000" stroke-width="2" fill="#fff"/><use xlink:href="#G" transform="matrix(1,0,0,1,1725,1105.5000160818713) translate(1.2196180555555554 23.40277777777778)"/><path d="M1780 1100.5h40v39.5h-40z" stroke="#000" stroke-width="2" fill="#fff"/><use xlink:href="#H" transform="matrix(1,0,0,1,1785,1105.5000160818713) translate(1.2521701388888893 23.40277777777778)"/><path d="M1820 1100.5h40v39.5h-40z" stroke="#000" stroke-width="2" fill="#fff"/><use xlink:href="#I" transform="matrix(1,0,0,1,1825,1105.5000160818713) translate(1.2196180555555554 23.40277777777778)"/><path d="M1680 1030.5h40v39.5h-40z" stroke="#000" stroke-width="2" fill="#fff"/><use xlink:href="#J" transform="matrix(1,0,0,1,1685,1035.5000080409357) translate(1.1002604166666679 23.40277777777778)"/><path d="M1720 1030.5h40v39.5h-40z" stroke="#000" stroke-width="2" fill="#fff"/><use xlink:href="#K" transform="matrix(1,0,0,1,1725,1035.5000080409357) translate(1.116536458333334 23.40277777777778)"/><path d="M1518 959.2h40v39.5h-40z" stroke="#000" stroke-width="2" fill="#fff"/><use xlink:href="#L" transform="matrix(1,0,0,1,1523,964.208341374269) translate(1.2358940972222232 23.40277777777778)"/><path d="M1558 959.2h40v39.5h-40z" stroke="#000" stroke-width="2" fill="#fff"/><path d="M1377.2 1025.85L1516 999.9" stroke="#3a414a" stroke-width="2" fill="none"/><path d="M1362.18 1028.65l13.17-7.17 1.7 9.1z" stroke="#3a414a" stroke-width="2" fill="#fff"/><path d="M1517 999.7h3.05l.08.4-3.96.75-.36-1.9 1.2-.23z" stroke="#3a414a" stroke-width=".05" fill="#3a414a"/><path d="M1661.04 1025.08l-102.07-25.13" stroke="#cc4e00" stroke-width="2" fill="none"/><path d="M1675.86 1028.73l-14.96 1.1 2.2-9z" stroke="#cc4e00" stroke-width="2" fill="#fff"/><path d="M1557 998.46v1.25h2.06l-.3 1.2-3.9-.96.46-1.9z" stroke="#cc4e00" stroke-width=".05" fill="#cc4e00"/><path d="M1277.74 1094.76l80.3-23.73" stroke="#3a414a" stroke-width="2" fill="none"/><path d="M1263.1 1099.08l12.37-8.48 2.63 8.9z" stroke="#3a414a" stroke-width="2" fill="#fff"/><path d="M1359 1070.75h3.13l.02.1-3.86 1.13-.56-1.87 1.26-.37z" stroke="#3a414a" stroke-width=".05" fill="#3a414a"/><path d="M1375.46 1088.6l23.73-17.26" stroke="#3a414a" stroke-width="2" fill="none"/><path d="M1363.12 1097.6l8.8-12.15 5.46 7.5z" stroke="#3a414a" stroke-width="2" fill="#fff"/><path d="M1403 1069.77l-3.26 2.37-1-1.4h2.26v-1.92l.85-.62z" stroke="#3a414a" stroke-width=".05" fill="#3a414a"/><path d="M1449.92 1084.48l-8.38-12.9" stroke="#3a414a" stroke-width="2" fill="none"/><path d="M1458.24 1097.3l-11.66-9.45 7.77-5.05z" stroke="#3a414a" stroke-width="2" fill="#fff"/><path d="M1442.38 1071.08l-1.64 1.06-.9-1.4h1.16v-1.78z" stroke="#3a414a" stroke-width=".05" fill="#3a414a"/><path d="M1596.78 1094.4l81.26-23.33" stroke="#cc4e00" stroke-width="2" fill="none"/><path d="M1582.1 1098.6l12.44-8.38 2.56 8.9z" stroke="#cc4e00" stroke-width="2" fill="#fff"/><path d="M1679 1071h2.8l-3.52 1-.54-1.86 1.26-.36z" stroke="#cc4e00" stroke-width=".05" fill="#cc4e00"/><path d="M1694.2 1088.94l24.98-17.37" stroke="#3a414a" stroke-width="2" fill="none"/><path d="M1681.66 1097.65l9.06-11.95 5.3 7.62z" stroke="#3a414a" stroke-width="2" fill="#fff"/><path d="M1719 1071h2.7l-2 1.4-1.1-1.62.4-.27z" stroke="#3a414a" stroke-width=".05" fill="#3a414a"/><path d="M1769.12 1083.86l-7.6-12" stroke="#3a414a" stroke-width="2" fill="none"/><path d="M1777.27 1096.76l-11.54-9.58 7.84-4.95z" stroke="#3a414a" stroke-width="2" fill="#fff"/><path d="M1762.37 1071.35l-1.65 1.04-.87-1.4h1.15v-1.83z" stroke="#3a414a" stroke-width=".05" fill="#3a414a"/><path d="M1260 1176.5a6 6 0 0 1 6-6h588a6 6 0 0 1 6 6v48a6 6 0 0 1-6 6h-588a6 6 0 0 1-6-6z" stroke="#000" stroke-opacity="0" stroke-width="3" fill="#fff" fill-opacity="0"/><g><use xlink:href="#M" transform="matrix(1,0,0,1,1265,1175.500024122807) translate(35.478515625 41.875)"/><use xlink:href="#N" transform="matrix(1,0,0,1,1265,1175.500024122807) translate(119.521484375 41.875)"/><use xlink:href="#O" transform="matrix(1,0,0,1,1265,1175.500024122807) translate(305.244140625 41.875)"/><use xlink:href="#P" transform="matrix(1,0,0,1,1265,1175.500024122807) translate(347.294921875 41.875)"/><use xlink:href="#u" transform="matrix(1,0,0,1,1265,1175.500024122807) translate(486.982421875 41.875)"/></g><path d="M1575.78 1169.94l2.52-1.7m3.35-2.27l5.02-3.4m3.35-2.28l5.03-3.4m3.35-2.3l5.03-3.4m3.35-2.26l5.03-3.4m3.36-2.28l2.5-1.7" stroke="#3a414a" stroke-width="2" fill="none"/><path d="M1576.2 1170.5h-3l2.06-1.38zM1618.2 1142.38l-.94-1.38h2.98zm3.33-2.26l-.53.36v-1.14z" stroke="#3a414a" stroke-width=".05" fill="#3a414a"/><defs><path d="M185-189c-5-48-123-54-124 2 14 75 158 14 163 119 3 78-121 87-175 55-17-10-28-26-33-46l33-7c5 56 141 63 141-1 0-78-155-14-162-118-5-82 145-84 179-34 5 7 8 16 11 25" id="Q"/><path d="M100-194c63 0 86 42 84 106H49c0 40 14 67 53 68 26 1 43-12 49-29l28 8c-11 28-37 45-77 45C44 4 14-33 15-96c1-61 26-98 85-98zm52 81c6-60-76-77-97-28-3 7-6 17-6 28h103" id="R"/><path d="M114-163C36-179 61-72 57 0H25l-1-190h30c1 12-1 29 2 39 6-27 23-49 58-41v29" id="S"/><path d="M108 0H70L1-190h34L89-25l56-165h34" id="T"/><path d="M24-231v-30h32v30H24zM24 0v-190h32V0H24" id="U"/><path d="M96-169c-40 0-48 33-48 73s9 75 48 75c24 0 41-14 43-38l32 2c-6 37-31 61-74 61-59 0-76-41-82-99-10-93 101-131 147-64 4 7 5 14 7 22l-32 3c-4-21-16-35-41-35" id="V"/><g id="a"><use transform="matrix(0.08641975308641976,0,0,0.08641975308641976,0,0)" xlink:href="#Q"/><use transform="matrix(0.08641975308641976,0,0,0.08641975308641976,20.740740740740744,0)" xlink:href="#R"/><use transform="matrix(0.08641975308641976,0,0,0.08641975308641976,38.0246913580247,0)" xlink:href="#S"/><use transform="matrix(0.08641975308641976,0,0,0.08641975308641976,48.308641975308646,0)" xlink:href="#T"/><use transform="matrix(0.08641975308641976,0,0,0.08641975308641976,63.8641975308642,0)" xlink:href="#U"/><use transform="matrix(0.08641975308641976,0,0,0.08641975308641976,70.69135802469137,0)" xlink:href="#V"/><use transform="matrix(0.08641975308641976,0,0,0.08641975308641976,86.24691358024693,0)" xlink:href="#R"/></g><linearGradient gradientUnits="userSpaceOnUse" id="b" x1="600" y1="1000" x2="600" y2="1120"><stop offset="75.36%" stop-color="#fff"/><stop offset="86.96%" stop-color="#ced4db"/></linearGradient><path d="M212-179c-10-28-35-45-73-45-59 0-87 40-87 99 0 60 29 101 89 101 43 0 62-24 78-52l27 14C228-24 195 4 139 4 59 4 22-46 18-125c-6-104 99-153 187-111 19 9 31 26 39 46" id="W"/><path d="M24 0v-261h32V0H24" id="X"/><path d="M141-36C126-15 110 5 73 4 37 3 15-17 15-53c-1-64 63-63 125-63 3-35-9-54-41-54-24 1-41 7-42 31l-33-3c5-37 33-52 76-52 45 0 72 20 72 64v82c-1 20 7 32 28 27v20c-31 9-61-2-59-35zM48-53c0 20 12 33 32 33 41-3 63-29 60-74-43 2-92-5-92 41" id="Y"/><path d="M135-143c-3-34-86-38-87 0 15 53 115 12 119 90S17 21 10-45l28-5c4 36 97 45 98 0-10-56-113-15-118-90-4-57 82-63 122-42 12 7 21 19 24 35" id="Z"/><g id="c"><use transform="matrix(0.06790123456790124,0,0,0.06790123456790124,0,0)" xlink:href="#W"/><use transform="matrix(0.06790123456790124,0,0,0.06790123456790124,17.58641975308642,0)" xlink:href="#X"/><use transform="matrix(0.06790123456790124,0,0,0.06790123456790124,22.95061728395062,0)" xlink:href="#Y"/><use transform="matrix(0.06790123456790124,0,0,0.06790123456790124,36.53086419753087,0)" xlink:href="#Z"/><use transform="matrix(0.06790123456790124,0,0,0.06790123456790124,48.75308641975309,0)" xlink:href="#Z"/></g><path d="M205 0l-28-72H64L36 0H1l101-248h38L239 0h-34zm-38-99l-47-123c-12 45-31 82-46 123h93" id="aa"/><use transform="matrix(0.06790123456790124,0,0,0.06790123456790124,0,0)" xlink:href="#aa" id="d"/><path d="M63-220v92h138v28H63V0H30v-248h175v28H63" id="ab"/><path d="M100-194c62-1 85 37 85 99 1 63-27 99-86 99S16-35 15-95c0-66 28-99 85-99zM99-20c44 1 53-31 53-75 0-43-8-75-51-75s-53 32-53 75 10 74 51 75" id="ac"/><g id="e"><use transform="matrix(0.04320987654320988,0,0,0.04320987654320988,0,0)" xlink:href="#ab"/><use transform="matrix(0.04320987654320988,0,0,0.04320987654320988,9.462962962962964,0)" xlink:href="#ac"/><use transform="matrix(0.04320987654320988,0,0,0.04320987654320988,18.10493827160494,0)" xlink:href="#ac"/></g><path d="M160-131c35 5 61 23 61 61C221 17 115-2 30 0v-248c76 3 177-17 177 60 0 33-19 50-47 57zm-97-11c50-1 110 9 110-42 0-47-63-36-110-37v79zm0 115c55-2 124 14 124-45 0-56-70-42-124-44v89" id="ad"/><g id="f"><use transform="matrix(0.04320987654320988,0,0,0.04320987654320988,0,0)" xlink:href="#ad"/><use transform="matrix(0.04320987654320988,0,0,0.04320987654320988,10.370370370370372,0)" xlink:href="#Y"/><use transform="matrix(0.04320987654320988,0,0,0.04320987654320988,19.01234567901235,0)" xlink:href="#S"/></g><path d="M9 0v-24l116-142H16v-24h144v24L44-24h123V0H9" id="ae"/><g id="g"><use transform="matrix(0.04320987654320988,0,0,0.04320987654320988,0,0)" xlink:href="#ad"/><use transform="matrix(0.04320987654320988,0,0,0.04320987654320988,10.370370370370372,0)" xlink:href="#Y"/><use transform="matrix(0.04320987654320988,0,0,0.04320987654320988,19.01234567901235,0)" xlink:href="#ae"/></g><linearGradient gradientUnits="userSpaceOnUse" id="h" x1="960" y1="1000" x2="960" y2="1120"><stop offset="75.36%" stop-color="#fff"/><stop offset="86.96%" stop-color="#ced4db"/></linearGradient><use transform="matrix(0.06790123456790124,0,0,0.06790123456790124,0,0)" xlink:href="#W" id="i"/><path d="M30-248c87 1 191-15 191 75 0 78-77 80-158 76V0H30v-248zm33 125c57 0 124 11 124-50 0-59-68-47-124-48v98" id="af"/><path d="M84 4C-5 8 30-112 23-190h32v120c0 31 7 50 39 49 72-2 45-101 50-169h31l1 190h-30c-1-10 1-25-2-33-11 22-28 36-60 37" id="ag"/><path d="M106-169C34-169 62-67 57 0H25v-261h32l-1 103c12-21 28-36 61-36 89 0 53 116 60 194h-32v-121c2-32-8-49-39-48" id="ah"/><g id="j"><use transform="matrix(0.04320987654320988,0,0,0.04320987654320988,0,0)" xlink:href="#af"/><use transform="matrix(0.04320987654320988,0,0,0.04320987654320988,10.370370370370372,0)" xlink:href="#ag"/><use transform="matrix(0.04320987654320988,0,0,0.04320987654320988,19.01234567901235,0)" xlink:href="#Z"/><use transform="matrix(0.04320987654320988,0,0,0.04320987654320988,26.790123456790127,0)" xlink:href="#ah"/></g><g id="k"><use transform="matrix(0.04320987654320988,0,0,0.04320987654320988,0,0)" xlink:href="#af"/><use transform="matrix(0.04320987654320988,0,0,0.04320987654320988,10.370370370370372,0)" xlink:href="#ag"/><use transform="matrix(0.04320987654320988,0,0,0.04320987654320988,19.01234567901235,0)" xlink:href="#X"/><use transform="matrix(0.04320987654320988,0,0,0.04320987654320988,22.425925925925934,0)" xlink:href="#X"/></g><path d="M30-248c118-7 216 8 213 122C240-48 200 0 122 0H30v-248zM63-27c89 8 146-16 146-99s-60-101-146-95v194" id="ai"/><path d="M115-194c55 1 70 41 70 98S169 2 115 4C84 4 66-9 55-30l1 105H24l-1-265h31l2 30c10-21 28-34 59-34zm-8 174c40 0 45-34 45-75s-6-73-45-74c-42 0-51 32-51 76 0 43 10 73 51 73" id="aj"/><g id="l"><use transform="matrix(0.04320987654320988,0,0,0.04320987654320988,0,0)" xlink:href="#ai"/><use transform="matrix(0.04320987654320988,0,0,0.04320987654320988,11.19135802469136,0)" xlink:href="#S"/><use transform="matrix(0.04320987654320988,0,0,0.04320987654320988,16.333333333333336,0)" xlink:href="#ac"/><use transform="matrix(0.04320987654320988,0,0,0.04320987654320988,24.97530864197531,0)" xlink:href="#aj"/></g><path fill="#cc4e00" d="M212-179c-10-28-35-45-73-45-59 0-87 40-87 99 0 60 29 101 89 101 43 0 62-24 78-52l27 14C228-24 195 4 139 4 59 4 22-46 18-125c-6-104 99-153 187-111 19 9 31 26 39 46" id="ak"/><path fill="#cc4e00" d="M24 0v-261h32V0H24" id="al"/><path fill="#cc4e00" d="M141-36C126-15 110 5 73 4 37 3 15-17 15-53c-1-64 63-63 125-63 3-35-9-54-41-54-24 1-41 7-42 31l-33-3c5-37 33-52 76-52 45 0 72 20 72 64v82c-1 20 7 32 28 27v20c-31 9-61-2-59-35zM48-53c0 20 12 33 32 33 41-3 63-29 60-74-43 2-92-5-92 41" id="am"/><path fill="#cc4e00" d="M135-143c-3-34-86-38-87 0 15 53 115 12 119 90S17 21 10-45l28-5c4 36 97 45 98 0-10-56-113-15-118-90-4-57 82-63 122-42 12 7 21 19 24 35" id="an"/><g id="m"><use transform="matrix(0.06790123456790124,0,0,0.06790123456790124,0,0)" xlink:href="#ak"/><use transform="matrix(0.06790123456790124,0,0,0.06790123456790124,17.58641975308642,0)" xlink:href="#al"/><use transform="matrix(0.06790123456790124,0,0,0.06790123456790124,22.95061728395062,0)" xlink:href="#am"/><use transform="matrix(0.06790123456790124,0,0,0.06790123456790124,36.53086419753087,0)" xlink:href="#an"/><use transform="matrix(0.06790123456790124,0,0,0.06790123456790124,48.75308641975309,0)" xlink:href="#an"/></g><path fill="#cc4e00" d="M160-131c35 5 61 23 61 61C221 17 115-2 30 0v-248c76 3 177-17 177 60 0 33-19 50-47 57zm-97-11c50-1 110 9 110-42 0-47-63-36-110-37v79zm0 115c55-2 124 14 124-45 0-56-70-42-124-44v89" id="ao"/><use transform="matrix(0.06790123456790124,0,0,0.06790123456790124,0,0)" xlink:href="#ao" id="n"/><path d="M59-47c-2 24 18 29 38 22v24C64 9 27 4 27-40v-127H5v-23h24l9-43h21v43h35v23H59v120" id="ap"/><g id="o"><use transform="matrix(0.04320987654320988,0,0,0.04320987654320988,0,0)" xlink:href="#Q"/><use transform="matrix(0.04320987654320988,0,0,0.04320987654320988,10.370370370370372,0)" xlink:href="#R"/><use transform="matrix(0.04320987654320988,0,0,0.04320987654320988,19.01234567901235,0)" xlink:href="#ap"/></g><path d="M85-194c31 0 48 13 60 33l-1-100h32l1 261h-30c-2-10 0-23-3-31C134-8 116 4 85 4 32 4 16-35 15-94c0-66 23-100 70-100zm9 24c-40 0-46 34-46 75 0 40 6 74 45 74 42 0 51-32 51-76 0-42-9-74-50-73" id="aq"/><g id="p"><use transform="matrix(0.04320987654320988,0,0,0.04320987654320988,0,0)" xlink:href="#aa"/><use transform="matrix(0.04320987654320988,0,0,0.04320987654320988,10.370370370370372,0)" xlink:href="#aq"/><use transform="matrix(0.04320987654320988,0,0,0.04320987654320988,19.01234567901235,0)" xlink:href="#aq"/></g><g id="q"><use transform="matrix(0.04320987654320988,0,0,0.04320987654320988,0,0)" xlink:href="#ai"/><use transform="matrix(0.04320987654320988,0,0,0.04320987654320988,11.19135802469136,0)" xlink:href="#R"/><use transform="matrix(0.04320987654320988,0,0,0.04320987654320988,19.833333333333336,0)" xlink:href="#X"/></g><path d="M600 0v-610L52-1490h220l295 481c50 82 90 150 130 243 40-96 80-164 128-243l294-481h219L790-610V0H600" id="ar"/><path d="M613 24c-304 0-509-231-509-576 0-350 205-580 509-580 305 0 511 230 511 580 0 345-206 576-511 576zm0-161c226 0 329-195 329-415 0-222-103-419-329-419-223 0-326 196-326 419 0 220 103 415 326 415" id="as"/><path d="M537 14c-226 0-379-139-379-422v-710h180v695c0 172 97 275 253 275 160 0 281-109 281-300v-670h181V0H879v-209C806-46 684 14 537 14" id="at"/><g id="r"><use transform="matrix(0.01953125,0,0,0.01953125,0,0)" xlink:href="#ar"/><use transform="matrix(0.01953125,0,0,0.01953125,24.08203125,0)" xlink:href="#as"/><use transform="matrix(0.01953125,0,0,0.01953125,48.06640625,0)" xlink:href="#at"/></g><path d="M471 26C259 26 90-98 90-318c0-256 228-303 435-329 202-27 287-16 287-108 0-139-79-219-234-219-161 0-248 86-283 164l-173-57c86-203 278-265 451-265 150 0 419 46 419 395V0H815v-152h-12C765-73 660 26 471 26zm31-159c199 0 310-134 310-271v-155c-30 35-226 55-295 64-131 17-246 59-246 186 0 116 97 176 231 176" id="au"/><path d="M158 0v-1118h174v172h12c41-113 157-188 290-188 26 0 70 2 91 3v181c-11-2-60-10-108-10-161 0-279 109-279 260V0H158" id="av"/><path d="M628 24c-324 0-524-230-524-574 0-343 198-582 503-582 237 0 487 146 487 559v75H286c9 234 145 362 343 362 132 0 231-58 273-172l174 48C1024-91 857 24 628 24zM287-650h624c-17-190-120-322-304-322-192 0-309 151-320 322" id="aw"/><g id="s"><use transform="matrix(0.01953125,0,0,0.01953125,0,0)" xlink:href="#au"/><use transform="matrix(0.01953125,0,0,0.01953125,22.4609375,0)" xlink:href="#av"/><use transform="matrix(0.01953125,0,0,0.01953125,36.85546875,0)" xlink:href="#aw"/></g><path d="M577 24c-279 0-473-224-473-580 0-354 195-576 474-576 218 0 287 134 324 193h14v-551h180V0H922v-173h-20C865-111 790 24 577 24zm27-161c203 0 314-172 314-421 0-247-108-413-314-413-212 0-317 181-317 413 0 235 108 421 317 421" id="ax"/><path d="M158 0v-1118h180V0H158zm91-1301c-68 0-125-53-125-119s57-119 125-119c69 0 126 53 126 119s-57 119-126 119" id="ay"/><path d="M338-670V0H158v-1118h173l1 207c72-158 192-221 342-221 226 0 378 139 378 422V0H872v-695c0-172-96-275-252-275-161 0-282 109-282 300" id="az"/><path d="M611 442c-248 0-391-105-460-228l146-94c47 65 117 165 314 165 178 0 307-82 307-266v-224h-17C863-141 792-18 576-18c-268 0-472-195-472-546 0-346 197-568 476-568 216 0 288 133 326 193h17v-179h175V29c0 289-215 413-487 413zm-5-620c203 0 314-146 314-390 0-237-108-403-314-403-213 0-319 180-319 403 0 230 109 390 319 390" id="aA"/><g id="t"><use transform="matrix(0.01953125,0,0,0.01953125,0,0)" xlink:href="#av"/><use transform="matrix(0.01953125,0,0,0.01953125,14.39453125,0)" xlink:href="#aw"/><use transform="matrix(0.01953125,0,0,0.01953125,38.10546875,0)" xlink:href="#au"/><use transform="matrix(0.01953125,0,0,0.01953125,60.56640625,0)" xlink:href="#ax"/><use transform="matrix(0.01953125,0,0,0.01953125,85.05859375,0)" xlink:href="#ay"/><use transform="matrix(0.01953125,0,0,0.01953125,94.74609375,0)" xlink:href="#az"/><use transform="matrix(0.01953125,0,0,0.01953125,118.37890625,0)" xlink:href="#aA"/></g><path d="M598-1118v154H368v674c0 100 37 144 132 144 23 0 62-6 92-12L629-6c-37 13-88 20-134 20-193 0-307-107-307-290v-688H20v-154h168v-266h180v266h230" id="aB"/><path d="M338-670V0H158v-1490h180v566c73-149 190-208 336-208 226 0 379 139 379 422V0H872v-695c0-172-96-275-252-275-161 0-282 109-282 300" id="aC"/><path d="M538 24C308 24 148-78 108-271l171-41c32 123 123 178 257 178 156 0 256-77 256-169 0-77-54-128-164-154l-186-44c-203-48-300-148-300-305 0-192 176-326 414-326 230 0 351 112 402 269l-163 42c-31-80-94-158-238-158-133 0-233 69-233 162 0 83 57 129 188 160l169 40c203 48 298 149 298 302 0 196-179 339-441 339" id="aD"/><g id="u"><use transform="matrix(0.01953125,0,0,0.01953125,0,0)" xlink:href="#aB"/><use transform="matrix(0.01953125,0,0,0.01953125,13.0859375,0)" xlink:href="#aC"/><use transform="matrix(0.01953125,0,0,0.01953125,36.73828125,0)" xlink:href="#ay"/><use transform="matrix(0.01953125,0,0,0.01953125,46.42578125,0)" xlink:href="#aD"/></g><path d="M154 0v-137l495-537c165-179 249-281 249-418 0-156-121-253-280-253-170 0-278 110-278 278H158c0-264 200-443 465-443 266 0 455 183 455 416 0 161-73 288-336 568L416-179v12h687V0H154" id="aE"/><use transform="matrix(0.010850694444444444,0,0,0.010850694444444444,0,0)" xlink:href="#aE" id="v"/><path d="M200 0l662-1311v-12H98v-167h963v177L400 0H200" id="aF"/><use transform="matrix(0.010850694444444444,0,0,0.010850694444444444,0,0)" xlink:href="#aF" id="w"/><path d="M653-1490V0H466v-1314h-10L96-1047v-204l324-239h233" id="aG"/><path d="M635 20c-292 0-500-160-510-396h192c11 142 145 229 315 229 187 0 323-105 323-260 0-161-125-274-346-274H488v-165h121c174 0 294-100 294-254 0-148-104-245-266-245-152 0-291 85-297 230H157c8-234 222-395 484-395 278 0 448 188 448 400 0 168-95 291-247 336v12c190 31 301 169 301 357 0 244-216 425-508 425" id="aH"/><g id="x"><use transform="matrix(0.010850694444444444,0,0,0.010850694444444444,0,0)" xlink:href="#aG"/><use transform="matrix(0.010850694444444444,0,0,0.010850694444444444,9.038628472222221,0)" xlink:href="#aH"/></g><path d="M633 20c-303 0-511-173-511-416 0-188 124-348 291-378v-8c-145-37-237-174-237-332 0-227 192-396 457-396 261 0 456 169 456 396 0 158-94 295-235 332v8c162 30 291 190 291 378 0 243-212 416-512 416zm0-165c197 0 322-103 322-261 0-165-138-283-322-283-188 0-324 118-324 283 0 158 123 261 324 261zm0-703c157 0 272-101 272-252 0-149-110-246-272-246-165 0-273 97-273 246 0 151 112 252 273 252" id="aI"/><g id="y"><use transform="matrix(0.010850694444444444,0,0,0.010850694444444444,0,0)" xlink:href="#aE"/><use transform="matrix(0.010850694444444444,0,0,0.010850694444444444,13.55251736111111,0)" xlink:href="#aI"/></g><path d="M120-303v-155l652-1032h231v1020h202v167h-202V0H821v-303H120zm702-167v-782h-12L323-482v12h499" id="aJ"/><g id="z"><use transform="matrix(0.010850694444444444,0,0,0.010850694444444444,0,0)" xlink:href="#aJ"/><use transform="matrix(0.010850694444444444,0,0,0.010850694444444444,13.921440972222221,0)" xlink:href="#aG"/></g><g id="A"><use transform="matrix(0.010850694444444444,0,0,0.010850694444444444,0,0)" xlink:href="#aJ"/><use transform="matrix(0.010850694444444444,0,0,0.010850694444444444,14.35546875,0)" xlink:href="#aI"/></g><path d="M646 20c-332 0-524-278-524-764 0-483 194-766 524-766s524 283 524 766c0 485-191 764-524 764zm0-166c218 0 341-220 341-598 0-380-123-601-341-601s-341 222-341 601c0 378 123 598 341 598" id="aK"/><g id="B"><use transform="matrix(0.010850694444444444,0,0,0.010850694444444444,0,0)" xlink:href="#aG"/><use transform="matrix(0.010850694444444444,0,0,0.010850694444444444,9.038628472222221,0)" xlink:href="#aK"/></g><g id="C"><use transform="matrix(0.010850694444444444,0,0,0.010850694444444444,0,0)" xlink:href="#aJ"/><use transform="matrix(0.010850694444444444,0,0,0.010850694444444444,14.35546875,0)" xlink:href="#aK"/></g><path fill="#cc4e00" d="M626 20c-262 0-458-168-468-396h184c12 133 134 229 284 229 180 0 311-137 311-326 0-192-136-335-323-335-92 0-196 33-255 78l-178-22 88-738h784v167H429l-51 435h8c61-51 160-87 263-87 273 0 474 211 474 499 0 286-210 496-497 496" id="aL"/><g id="D"><use transform="matrix(0.010850694444444444,0,0,0.010850694444444444,0,0)" xlink:href="#aL"/><use transform="matrix(0.010850694444444444,0,0,0.010850694444444444,13.509114583333332,0)" xlink:href="#aL"/></g><path d="M626 20c-262 0-458-168-468-396h184c12 133 134 229 284 229 180 0 311-137 311-326 0-192-136-335-323-335-92 0-196 33-255 78l-178-22 88-738h784v167H429l-51 435h8c61-51 160-87 263-87 273 0 474 211 474 499 0 286-210 496-497 496" id="aM"/><path d="M603 20c-253 0-434-161-469-399h188c31 132 124 231 281 231 227 0 367-207 367-568h-12c-80 122-211 199-367 199-257 0-469-206-469-493 0-278 200-505 506-500 245 4 520 158 520 706 0 527-208 824-545 824zm16-703c181 0 324-157 324-332 0-171-135-328-318-328-180 0-317 148-317 332 0 183 131 328 311 328" id="aN"/><g id="E"><use transform="matrix(0.010850694444444444,0,0,0.010850694444444444,0,0)" xlink:href="#aM"/><use transform="matrix(0.010850694444444444,0,0,0.010850694444444444,13.509114583333332,0)" xlink:href="#aN"/></g><path d="M646 20c-249 0-524-159-524-708 0-524 209-822 547-822 250 0 431 161 467 395H950c-33-129-126-227-281-227-229 0-367 208-367 566h12c80-124 212-198 367-198 255 0 467 205 467 493 0 278-198 501-502 501zm0-167c179 0 318-148 318-334 0-182-133-328-313-328-181 0-322 156-322 330 0 176 134 332 317 332" id="aO"/><g id="F"><use transform="matrix(0.010850694444444444,0,0,0.010850694444444444,0,0)" xlink:href="#aO"/><use transform="matrix(0.010850694444444444,0,0,0.010850694444444444,13.780381944444445,0)" xlink:href="#aF"/></g><g id="G"><use transform="matrix(0.010850694444444444,0,0,0.010850694444444444,0,0)" xlink:href="#aO"/><use transform="matrix(0.010850694444444444,0,0,0.010850694444444444,13.780381944444445,0)" xlink:href="#aN"/></g><g id="H"><use transform="matrix(0.010850694444444444,0,0,0.010850694444444444,0,0)" xlink:href="#aI"/><use transform="matrix(0.010850694444444444,0,0,0.010850694444444444,13.74782986111111,0)" xlink:href="#aI"/></g><g id="I"><use transform="matrix(0.010850694444444444,0,0,0.010850694444444444,0,0)" xlink:href="#aN"/><use transform="matrix(0.010850694444444444,0,0,0.010850694444444444,13.780381944444445,0)" xlink:href="#aO"/></g><path fill="#cc4e00" d="M646 20c-249 0-524-159-524-708 0-524 209-822 547-822 250 0 431 161 467 395H950c-33-129-126-227-281-227-229 0-367 208-367 566h12c80-124 212-198 367-198 255 0 467 205 467 493 0 278-198 501-502 501zm0-167c179 0 318-148 318-334 0-182-133-328-313-328-181 0-322 156-322 330 0 176 134 332 317 332" id="aP"/><path fill="#cc4e00" d="M646 20c-332 0-524-278-524-764 0-483 194-766 524-766s524 283 524 766c0 485-191 764-524 764zm0-166c218 0 341-220 341-598 0-380-123-601-341-601s-341 222-341 601c0 378 123 598 341 598" id="aQ"/><g id="J"><use transform="matrix(0.010850694444444444,0,0,0.010850694444444444,0,0)" xlink:href="#aP"/><use transform="matrix(0.010850694444444444,0,0,0.010850694444444444,13.780381944444445,0)" xlink:href="#aQ"/></g><g id="K"><use transform="matrix(0.010850694444444444,0,0,0.010850694444444444,0,0)" xlink:href="#aI"/><use transform="matrix(0.010850694444444444,0,0,0.010850694444444444,13.74782986111111,0)" xlink:href="#aK"/></g><g id="L"><use transform="matrix(0.010850694444444444,0,0,0.010850694444444444,0,0)" xlink:href="#aL"/><use transform="matrix(0.010850694444444444,0,0,0.010850694444444444,13.509114583333332,0)" xlink:href="#aQ"/></g><path d="M98-1322v-168h1126v168H757V0H567v-1322H98" id="aR"/><g id="M"><use transform="matrix(0.01953125,0,0,0.01953125,0,0)" xlink:href="#aR"/><use transform="matrix(0.01953125,0,0,0.01953125,25.8203125,0)" xlink:href="#aC"/><use transform="matrix(0.01953125,0,0,0.01953125,49.47265625,0)" xlink:href="#aw"/></g><path d="M677 24c-213 0-288-135-325-197h-20V0H158v-1490h180v551h14c37-59 106-193 324-193 279 0 474 222 474 576 0 356-194 580-473 580zm-27-161c209 0 317-186 317-421 0-232-105-413-317-413-206 0-314 166-314 413 0 249 111 421 314 421" id="aS"/><g id="N"><use transform="matrix(0.01953125,0,0,0.01953125,0,0)" xlink:href="#ax"/><use transform="matrix(0.01953125,0,0,0.01953125,24.4921875,0)" xlink:href="#au"/><use transform="matrix(0.01953125,0,0,0.01953125,46.953125,0)" xlink:href="#aB"/><use transform="matrix(0.01953125,0,0,0.01953125,60.234375,0)" xlink:href="#au"/><use transform="matrix(0.01953125,0,0,0.01953125,82.6953125,0)" xlink:href="#aS"/><use transform="matrix(0.01953125,0,0,0.01953125,107.578125,0)" xlink:href="#au"/><use transform="matrix(0.01953125,0,0,0.01953125,130.0390625,0)" xlink:href="#aD"/><use transform="matrix(0.01953125,0,0,0.01953125,151.15234375,0)" xlink:href="#aw"/></g><g id="O"><use transform="matrix(0.01953125,0,0,0.01953125,0,0)" xlink:href="#ay"/><use transform="matrix(0.01953125,0,0,0.01953125,9.6875,0)" xlink:href="#aD"/></g><g id="P"><use transform="matrix(0.01953125,0,0,0.01953125,0,0)" xlink:href="#aw"/><use transform="matrix(0.01953125,0,0,0.01953125,23.3203125,0)" xlink:href="#ax"/><use transform="matrix(0.01953125,0,0,0.01953125,47.8125,0)" xlink:href="#ay"/><use transform="matrix(0.01953125,0,0,0.01953125,57.5,0)" xlink:href="#aB"/><use transform="matrix(0.01953125,0,0,0.01953125,70.5859375,0)" xlink:href="#ay"/><use transform="matrix(0.01953125,0,0,0.01953125,80.2734375,0)" xlink:href="#az"/><use transform="matrix(0.01953125,0,0,0.01953125,103.90625,0)" xlink:href="#aA"/></g></defs></g></svg>