<svg xmlns="http://www.w3.org/2000/svg" xmlns:xlink="http://www.w3.org/1999/xlink" xmlns:lucid="lucid" width="1128" height="424.5"><g transform="translate(-616.5 -438.5)" lucid:page-tab-id="0_0"><path d="M658 561a20 20 0 0 1 20-20h40a20 20 0 0 1 20 20v160a20 20 0 0 1-20 20h-40a20 20 0 0 1-20-20z" stroke="#1071e5" stroke-width="3" fill="url(#a)"/><path d="M778 561a20 20 0 0 1 20-20h40a20 20 0 0 1 20 20v160a20 20 0 0 1-20 20h-40a20 20 0 0 1-20-20z" stroke="#1071e5" stroke-width="3" fill="url(#b)"/><path d="M658 460a20 20 0 0 1 20-20h280a20 20 0 0 1 20 20v2a20 20 0 0 1-20 20H678a20 20 0 0 1-20-20z" stroke="#1071e5" stroke-width="3" fill="url(#c)"/><use xlink:href="#d" transform="matrix(1,0,0,1,663,445) translate(77.26425925925926 23.333333333333336)"/><use xlink:href="#e" transform="matrix(1,0,0,1,663,445) translate(127.63462962962961 23.333333333333336)"/><path d="M696.1 525.33l.2-27.68M700.1 525.35l.2-27.68M708.14 520.25L698 537.5l-9.86-17.4m9.87 17.4l.08-8.5M688.26 502.75l10.12-17.25 9.88 17.4m-9.88-17.4l-.06 8.5M816 525.34v-27.68M820 525.34v-27.68M828 520.18l-10 17.32-10-17.32m10 17.32V529M808 502.82l10-17.32 10 17.32m-10-17.32v8.5" stroke="#1071e5" stroke-width="2" fill="none"/><path d="M898 561a20 20 0 0 1 20-20h40a20 20 0 0 1 20 20v160a20 20 0 0 1-20 20h-40a20 20 0 0 1-20-20z" stroke="#1071e5" stroke-width="3" fill="url(#f)"/><path d="M936 525.34v-27.68M940 525.34v-27.68M948 520.18l-10 17.32-10-17.32m10 17.32V529M928 502.82l10-17.32 10 17.32m-10-17.32v8.5" stroke="#1071e5" stroke-width="2" fill="none"/><path d="M638 580a20 20 0 0 1 20-20h40a20 20 0 0 1 20 20v160a20 20 0 0 1-20 20h-40a20 20 0 0 1-20-20z" stroke="#82755b" stroke-width="3" fill="url(#g)"/><path d="M758 580a20 20 0 0 1 20-20h40a20 20 0 0 1 20 20v160a20 20 0 0 1-20 20h-40a20 20 0 0 1-20-20z" stroke="#82755b" stroke-width="3" fill="url(#h)"/><path d="M638 479a20 20 0 0 1 20-20h280a20 20 0 0 1 20 20v2a20 20 0 0 1-20 20H658a20 20 0 0 1-20-20z" stroke="#82755b" stroke-width="3" fill="url(#i)"/><use xlink:href="#d" transform="matrix(1,0,0,1,643,464) translate(77.26425925925926 23.333333333333336)"/><use xlink:href="#e" transform="matrix(1,0,0,1,643,464) translate(127.63462962962961 23.333333333333336)"/><path d="M676.1 544.33l.2-27.68M680.1 544.35l.2-27.68M688.14 539.25L678 556.5l-9.86-17.4m9.87 17.4l.08-8.5M668.26 521.75l10.12-17.25 9.88 17.4m-9.88-17.4l-.06 8.5M796 544.34v-27.68M800 544.34v-27.68M808 539.18l-10 17.32-10-17.32m10 17.32V548M788 521.82l10-17.32 10 17.32m-10-17.32v8.5" stroke="#82755b" stroke-width="2" fill="none"/><path d="M878 580a20 20 0 0 1 20-20h40a20 20 0 0 1 20 20v160a20 20 0 0 1-20 20h-40a20 20 0 0 1-20-20z" stroke="#82755b" stroke-width="3" fill="url(#j)"/><path d="M916 544.34v-27.68M920 544.34v-27.68M928 539.18l-10 17.32-10-17.32m10 17.32V548M908 521.82l10-17.32 10 17.32m-10-17.32v8.5" stroke="#82755b" stroke-width="2" fill="none"/><path d="M618 599a20 20 0 0 1 20-20h40a20 20 0 0 1 20 20v160a20 20 0 0 1-20 20h-40a20 20 0 0 1-20-20z" stroke="#008a0e" stroke-width="3" fill="url(#k)"/><path d="M738 599a20 20 0 0 1 20-20h40a20 20 0 0 1 20 20v160a20 20 0 0 1-20 20h-40a20 20 0 0 1-20-20z" stroke="#008a0e" stroke-width="3" fill="url(#l)"/><path d="M618 498a20 20 0 0 1 20-20h280a20 20 0 0 1 20 20v2a20 20 0 0 1-20 20H638a20 20 0 0 1-20-20z" stroke="#008a0e" stroke-width="3" fill="url(#m)"/><use xlink:href="#d" transform="matrix(1,0,0,1,623,483) translate(77.26425925925926 23.333333333333336)"/><use xlink:href="#e" transform="matrix(1,0,0,1,623,483) translate(127.63462962962961 23.333333333333336)"/><path d="M656.1 563.33l.2-27.68M660.1 563.35l.2-27.68M668.14 558.25L658 575.5l-9.86-17.4m9.87 17.4l.08-8.5M648.26 540.75l10.12-17.25 9.88 17.4m-9.88-17.4l-.06 8.5M776 563.34v-27.68M780 563.34v-27.68M788 558.18l-10 17.32-10-17.32m10 17.32V567M768 540.82l10-17.32 10 17.32m-10-17.32v8.5" stroke="#008a0e" stroke-width="2" fill="none"/><path d="M858 599a20 20 0 0 1 20-20h40a20 20 0 0 1 20 20v160a20 20 0 0 1-20 20h-40a20 20 0 0 1-20-20z" stroke="#008a0e" stroke-width="3" fill="url(#n)"/><path d="M896 563.34v-27.68M900 563.34v-27.68M908 558.18l-10 17.32-10-17.32m10 17.32V567M888 540.82l10-17.32 10 17.32m-10-17.32v8.5" stroke="#008a0e" stroke-width="2" fill="none"/><path d="M618 785a6 6 0 0 1 6-6h348a6 6 0 0 1 6 6v69a6 6 0 0 1-6 6H624a6 6 0 0 1-6-6z" stroke="#000" stroke-opacity="0" stroke-width="3" fill="#fff" fill-opacity="0"/><use xlink:href="#o" transform="matrix(1,0,0,1,623,784) translate(1.191358024691425 42.88888888888888)"/><use xlink:href="#p" transform="matrix(1,0,0,1,623,784) translate(102.90740740740745 42.88888888888888)"/><use xlink:href="#q" transform="matrix(1,0,0,1,623,784) translate(222.08024691358023 42.88888888888888)"/><path d="M1155.27 615.13l109.04-14.7M1155.8 619.1l109.05-14.72M1162 626.33l-18.5-7.6 15.82-12.22m-15.83 12.23l8.4-1.13M1258.13 593.18l18.5 7.6L1260.8 613m15.83-12.23l-8.42 1.14" stroke="#008a0e" stroke-width="2" fill="none"/><path d="M1280 599a20 20 0 0 1 20-20 20 20 0 0 1 20 20 20 20 0 0 1-20 20 20 20 0 0 1-20-20z" stroke="#000" stroke-width="3" fill="url(#r)"/><path d="M1260 619a20 20 0 0 1 20-20 20 20 0 0 1 20 20 20 20 0 0 1-20 20 20 20 0 0 1-20-20z" stroke="#000" stroke-width="3" fill="url(#s)"/><path d="M1140 579a20 20 0 0 1 20-20 20 20 0 0 1 20 20 20 20 0 0 1-20 20 20 20 0 0 1-20-20z" stroke="#000" stroke-width="3" fill="url(#t)"/><path d="M1120 599a20 20 0 0 1 20-20 20 20 0 0 1 20 20 20 20 0 0 1-20 20 20 20 0 0 1-20-20z" stroke="#000" stroke-width="3" fill="url(#u)"/><path d="M1100 619a20 20 0 0 1 20-20 20 20 0 0 1 20 20 20 20 0 0 1-20 20 20 20 0 0 1-20-20z" stroke="#000" stroke-width="3" fill="url(#v)"/><path d="M1080 739a20 20 0 0 1 20-20h200a20 20 0 0 1 20 20v20a20 20 0 0 1-20 20h-200a20 20 0 0 1-20-20z" stroke="#000" stroke-width="3" fill="url(#w)"/><use xlink:href="#x" transform="matrix(1,0,0,1,1085,724) translate(7.074074074074048 30.708333333333336)"/><use xlink:href="#y" transform="matrix(1,0,0,1,1085,724) translate(89.96296296296295 30.708333333333336)"/><path d="M1195.78 579.9l69.25 14.28M1194.97 583.82l69.25 14.28M1198.4 592.7l-14.94-13.3 19-6.3m-19 6.3l8.33 1.72M1261.6 585.3l14.94 13.3-19 6.3m19-6.3l-8.33-1.72" stroke="#008a0e" stroke-width="2" fill="none"/><path d="M1080 639a20 20 0 0 1 20-20 20 20 0 0 1 20 20 20 20 0 0 1-20 20 20 20 0 0 1-20-20z" stroke="#000" stroke-width="3" fill="url(#z)"/><path d="M1100 699v-37.5" stroke="#000" stroke-width="2" fill="none"/><path d="M1100 714.26l-4.63-14.26h9.27z" stroke="#000" stroke-width="2"/><path d="M1100.97 661.53h-1.94v-1.1l.97.08.97-.07z" stroke="#000" stroke-width=".05"/><path d="M1121.5 699v-59" stroke="#000" stroke-width="2" fill="none"/><path d="M1121.5 714.26l-4.63-14.26h9.27z" stroke="#000" stroke-width="2"/><path d="M1122.48 636v4.03h-1.06l.1-1.03-.25-3z" stroke="#000" stroke-width=".05"/><path d="M1140 699v-77.5" stroke="#000" stroke-width="2" fill="none"/><path d="M1140 714.26l-4.63-14.26h9.27z" stroke="#000" stroke-width="2"/><path d="M1140 620.5l.97-.07v1.1h-1.94v-1.1z" stroke="#000" stroke-width=".05"/><path d="M1160 699v-97.5" stroke="#000" stroke-width="2" fill="none"/><path d="M1160 714.26l-4.63-14.26h9.27z" stroke="#000" stroke-width="2"/><path d="M1160 600.5l.97-.07v1.1h-1.94v-1.1z" stroke="#000" stroke-width=".05"/><path d="M1240 639a20 20 0 0 1 20-20 20 20 0 0 1 20 20 20 20 0 0 1-20 20 20 20 0 0 1-20-20z" stroke="#000" stroke-width="3" fill="url(#A)"/><path d="M1154.3 621.15l70.65 13.27M1153.55 625.08l70.66 13.27M1157.14 633.9l-15.17-13.03 18.86-6.63m-18.86 6.63l8.35 1.57M1221.35 625.6l15.18 13.03-18.87 6.63m18.87-6.63l-8.35-1.57M1134.16 638.5h90.3M1134.16 642.5h90.3M1139.32 650.5l-17.32-10 17.32-10m-17.32 10h8.5" stroke="#008a0e" stroke-width="2" fill="none"/><path d="M1219.3 630.5l17.3 10-17.3 10m17.3-10h-8.5M1174.3 601.15l70.65 13.27M1173.55 605.08l70.66 13.27M1177.14 613.9l-15.17-13.03 18.86-6.63m-18.86 6.63l8.35 1.57M1241.35 605.6l15.18 13.03-18.87 6.63m18.87-6.63l-8.35-1.57" stroke="#008a0e" stroke-width="2" fill="none"/><path d="M1080 786a6 6 0 0 1 6-6h228a6 6 0 0 1 6 6v69a6 6 0 0 1-6 6h-228a6 6 0 0 1-6-6z" stroke="#000" stroke-opacity="0" stroke-width="3" fill="#fff" fill-opacity="0"/><use xlink:href="#B" transform="matrix(1,0,0,1,1085,785) translate(66.3703703703704 42.88888888888888)"/><path d="M1660 604v72.38" stroke="#1071e5" stroke-width="3" fill="none"/><path d="M1661.47 604.04h-2.94v-1.54h2.94z" stroke="#1071e5" stroke-width=".05" fill="#1071e5"/><path d="M1660 692.15l-4.63-14.27h9.27z" stroke="#1071e5" stroke-width="3" fill="#1071e5"/><path d="M1620 561a20 20 0 0 1 20-20h40a20 20 0 0 1 20 20v20a20 20 0 0 1-20 20h-40a20 20 0 0 1-20-20z" stroke="#1071e5" stroke-width="3" fill="url(#C)"/><use xlink:href="#D" transform="matrix(1,0,0,1,1625.0000638734741,546) translate(11.296296296296294 30.708333333333336)"/><path d="M1620 718.5a20 20 0 0 1 20-20h40a20 20 0 0 1 20 20v2a20 20 0 0 1-20 20h-40a20 20 0 0 1-20-20z" stroke="#1071e5" stroke-width="3" fill="#fff"/><use xlink:href="#E" transform="matrix(1,0,0,1,1625.0000638734741,703.5000499999953) translate(3.1901851851851806 23.333333333333336)"/><path d="M1600 738.5a20 20 0 0 1 20-20h40a20 20 0 0 1 20 20v2a20 20 0 0 1-20 20h-40a20 20 0 0 1-20-20z" stroke="#82755b" stroke-width="3" fill="#fff"/><use xlink:href="#E" transform="matrix(1,0,0,1,1605.0000638734741,723.5000499999953) translate(3.1901851851851806 23.333333333333336)"/><path d="M1580 758.5a20 20 0 0 1 20-20h40a20 20 0 0 1 20 20v2a20 20 0 0 1-20 20h-40a20 20 0 0 1-20-20z" stroke="#008a0e" stroke-width="3" fill="#fff"/><use xlink:href="#E" transform="matrix(1,0,0,1,1585.0000638734741,743.5000499999953) translate(3.1901851851851806 23.333333333333336)"/><path d="M1715.66 717.5h19.84a8 8 0 0 1 8 8v28a8 8 0 0 1-8 8h-59.84" stroke="#000" stroke-width="2" fill="none"/><path d="M1715.66 721.5h19.84a4 4 0 0 1 4 4v28a4 4 0 0 1-4 4h-59.84" stroke="#000" stroke-width="2" fill="none"/><path d="M1720.82 729.5l-17.32-10 17.32-10m-17.32 10h8.5M1680.82 769.5l-17.32-10 17.32-10m-17.32 10h8.5" stroke="#000" stroke-width="2" fill="none"/><path d="M1715.66 717.5h19.84a8 8 0 0 1 8 8v8a8 8 0 0 1-8 8h-39.84" stroke="#000" stroke-width="2" fill="none"/><path d="M1715.66 721.5h19.84a4 4 0 0 1 4 4v8a4 4 0 0 1-4 4h-39.84" stroke="#000" stroke-width="2" fill="none"/><path d="M1720.82 729.5l-17.32-10 17.32-10m-17.32 10h8.5M1700.82 749.5l-17.32-10 17.32-10m-17.32 10h8.5" stroke="#000" stroke-width="2" fill="none"/><path d="M1695.66 737.5h16.7a8 8 0 0 1 8 8v8a8 8 0 0 1-8 8h-36.7" stroke="#000" stroke-width="2" fill="none"/><path d="M1695.66 741.5h16.7a4 4 0 0 1 4 4v8a4 4 0 0 1-4 4h-36.7" stroke="#000" stroke-width="2" fill="none"/><path d="M1700.82 749.5l-17.32-10 17.32-10m-17.32 10h8.5M1680.82 769.5l-17.32-10 17.32-10m-17.32 10h8.5" stroke="#000" stroke-width="2" fill="none"/><path d="M1598.48 581a20 20 0 0 1 20-20h40a20 20 0 0 1 20 20v20a20 20 0 0 1-20 20h-40a20 20 0 0 1-20-20z" stroke="#82755b" stroke-width="3" fill="url(#F)"/><use xlink:href="#D" transform="matrix(1,0,0,1,1603.4832040538945,566) translate(11.296296296296294 30.708333333333336)"/><path d="M1620 644v72.38" stroke="#008a0e" stroke-width="3" fill="none"/><path d="M1621.47 644.04h-2.94v-1.54h2.94z" stroke="#008a0e" stroke-width=".05" fill="#008a0e"/><path d="M1620 732.15l-4.63-14.27h9.27z" stroke="#008a0e" stroke-width="3" fill="#008a0e"/><path d="M1640 624v72.38" stroke="#82755b" stroke-width="3" fill="none"/><path d="M1641.47 624.04h-2.94v-1.54h2.94z" stroke="#82755b" stroke-width=".05" fill="#82755b"/><path d="M1640 712.15l-4.63-14.27h9.27z" stroke="#82755b" stroke-width="3" fill="#82755b"/><path d="M1580 601a20 20 0 0 1 20-20h40a20 20 0 0 1 20 20v20a20 20 0 0 1-20 20h-40a20 20 0 0 1-20-20z" stroke="#008a0e" stroke-width="3" fill="url(#G)"/><use xlink:href="#D" transform="matrix(1,0,0,1,1585.0000638734741,586.0000000139463) translate(11.296296296296294 30.708333333333336)"/><path d="M1400 698.5a20 20 0 0 1 20-20h80a20 20 0 0 1 20 20v2a20 20 0 0 1-20 20h-80a20 20 0 0 1-20-20z" stroke="#000" stroke-width="3" fill="#fff"/><use xlink:href="#H" transform="matrix(1,0,0,1,1405,683.5000499999953) translate(6.227222222222212 23.333333333333336)"/><path d="M1581.9 745.22l-53.3-20" stroke="#008a0e" stroke-width="2" fill="none"/><path d="M1583.52 744.78l-.92 1.08-.32.53-.73-.28.68-1.82z" stroke="#008a0e" stroke-width=".05" fill="#008a0e"/><path d="M1514.3 719.87l15 .67-3.26 8.68z" stroke="#008a0e" stroke-width="2" fill="#008a0e"/><path d="M1599.08 730.4l-63.14-14.02" stroke="#82755b" stroke-width="2" fill="none"/><path d="M1600.44 729.7l-.76 1.84-.84-.2.43-1.9z" stroke="#82755b" stroke-width=".05" fill="#82755b"/><path d="M1521.03 713.06l14.94-1.43-2.02 9.05z" stroke="#82755b" stroke-width="2" fill="#82755b"/><path d="M1617.75 715.27l-78.5-7.85" stroke="#1071e5" stroke-width="2" fill="none"/><path d="M1618.93 714.4l-.17.74-.1 1.2-1.04-.1.2-1.94z" stroke="#1071e5" stroke-width=".05" fill="#1071e5"/><path d="M1524.05 705.9l14.65-3.2-.92 9.24z" stroke="#1071e5" stroke-width="2" fill="#1071e5"/><path d="M1400 786.5a6 6 0 0 1 6-6h328a6 6 0 0 1 6 6v69a6 6 0 0 1-6 6h-328a6 6 0 0 1-6-6z" stroke="#000" stroke-opacity="0" stroke-width="3" fill="#fff" fill-opacity="0"/><g><use xlink:href="#I" transform="matrix(1,0,0,1,1405,785.5000499999953) translate(29.216049382716108 42.88888888888888)"/><use xlink:href="#J" transform="matrix(1,0,0,1,1405,785.5000499999953) translate(222.4506172839506 42.88888888888888)"/></g><defs><linearGradient gradientUnits="userSpaceOnUse" id="a" x1="658" y1="741" x2="658" y2="541"><stop offset="20.29%" stop-color="#ced4db"/><stop offset="25.72%" stop-color="#fff"/><stop offset="32.97%" stop-color="#fff"/><stop offset="39.86%" stop-color="#cfe4ff"/></linearGradient><linearGradient gradientUnits="userSpaceOnUse" id="b" x1="778" y1="741" x2="778" y2="541"><stop offset="20.29%" stop-color="#ced4db"/><stop offset="25.72%" stop-color="#fff"/><stop offset="32.97%" stop-color="#fff"/><stop offset="39.86%" stop-color="#cfe4ff"/></linearGradient><linearGradient gradientUnits="userSpaceOnUse" id="c" x1="658" y1="440" x2="658" y2="482"><stop offset="38.93%" stop-color="#fff"/><stop offset="55.36%" stop-color="#c3f7c8"/></linearGradient><path d="M205 0l-28-72H64L36 0H1l101-248h38L239 0h-34zm-38-99l-47-123c-12 45-31 82-46 123h93" id="K"/><path d="M30-248c87 1 191-15 191 75 0 78-77 80-158 76V0H30v-248zm33 125c57 0 124 11 124-50 0-59-68-47-124-48v98" id="L"/><path d="M33 0v-248h34V0H33" id="M"/><g id="d"><use transform="matrix(0.07407407407407408,0,0,0.07407407407407408,0,0)" xlink:href="#K"/><use transform="matrix(0.07407407407407408,0,0,0.07407407407407408,17.77777777777778,0)" xlink:href="#L"/><use transform="matrix(0.07407407407407408,0,0,0.07407407407407408,35.55555555555556,0)" xlink:href="#M"/></g><path d="M143 4C61 4 22-44 18-125c-5-107 100-154 193-111 17 8 29 25 37 43l-32 9c-13-25-37-40-76-40-61 0-88 39-88 99 0 61 29 100 91 101 35 0 62-11 79-27v-45h-74v-28h105v86C228-13 192 4 143 4" id="N"/><path d="M141-36C126-15 110 5 73 4 37 3 15-17 15-53c-1-64 63-63 125-63 3-35-9-54-41-54-24 1-41 7-42 31l-33-3c5-37 33-52 76-52 45 0 72 20 72 64v82c-1 20 7 32 28 27v20c-31 9-61-2-59-35zM48-53c0 20 12 33 32 33 41-3 63-29 60-74-43 2-92-5-92 41" id="O"/><path d="M59-47c-2 24 18 29 38 22v24C64 9 27 4 27-40v-127H5v-23h24l9-43h21v43h35v23H59v120" id="P"/><path d="M100-194c63 0 86 42 84 106H49c0 40 14 67 53 68 26 1 43-12 49-29l28 8c-11 28-37 45-77 45C44 4 14-33 15-96c1-61 26-98 85-98zm52 81c6-60-76-77-97-28-3 7-6 17-6 28h103" id="Q"/><path d="M206 0h-36l-40-164L89 0H53L-1-190h32L70-26l43-164h34l41 164 42-164h31" id="R"/><path d="M179-190L93 31C79 59 56 82 12 73V49c39 6 53-20 64-50L1-190h34L92-34l54-156h33" id="S"/><g id="e"><use transform="matrix(0.07407407407407408,0,0,0.07407407407407408,0,0)" xlink:href="#N"/><use transform="matrix(0.07407407407407408,0,0,0.07407407407407408,20.740740740740744,0)" xlink:href="#O"/><use transform="matrix(0.07407407407407408,0,0,0.07407407407407408,35.55555555555556,0)" xlink:href="#P"/><use transform="matrix(0.07407407407407408,0,0,0.07407407407407408,42.96296296296296,0)" xlink:href="#Q"/><use transform="matrix(0.07407407407407408,0,0,0.07407407407407408,57.77777777777778,0)" xlink:href="#R"/><use transform="matrix(0.07407407407407408,0,0,0.07407407407407408,76.96296296296296,0)" xlink:href="#O"/><use transform="matrix(0.07407407407407408,0,0,0.07407407407407408,91.77777777777777,0)" xlink:href="#S"/></g><linearGradient gradientUnits="userSpaceOnUse" id="f" x1="898" y1="741" x2="898" y2="541"><stop offset="20.29%" stop-color="#ced4db"/><stop offset="25.72%" stop-color="#fff"/><stop offset="32.97%" stop-color="#fff"/><stop offset="39.86%" stop-color="#cfe4ff"/></linearGradient><linearGradient gradientUnits="userSpaceOnUse" id="g" x1="638" y1="760" x2="638" y2="560"><stop offset="20.29%" stop-color="#ced4db"/><stop offset="25.72%" stop-color="#fff"/><stop offset="32.97%" stop-color="#fff"/><stop offset="39.86%" stop-color="#cfe4ff"/></linearGradient><linearGradient gradientUnits="userSpaceOnUse" id="h" x1="758" y1="760" x2="758" y2="560"><stop offset="20.29%" stop-color="#ced4db"/><stop offset="25.72%" stop-color="#fff"/><stop offset="32.97%" stop-color="#fff"/><stop offset="39.86%" stop-color="#cfe4ff"/></linearGradient><linearGradient gradientUnits="userSpaceOnUse" id="i" x1="638" y1="459" x2="638" y2="501"><stop offset="38.93%" stop-color="#fff"/><stop offset="55.36%" stop-color="#c3f7c8"/></linearGradient><linearGradient gradientUnits="userSpaceOnUse" id="j" x1="878" y1="760" x2="878" y2="560"><stop offset="20.29%" stop-color="#ced4db"/><stop offset="25.72%" stop-color="#fff"/><stop offset="32.97%" stop-color="#fff"/><stop offset="39.86%" stop-color="#cfe4ff"/></linearGradient><linearGradient gradientUnits="userSpaceOnUse" id="k" x1="618" y1="779" x2="618" y2="579"><stop offset="20.29%" stop-color="#ced4db"/><stop offset="25.72%" stop-color="#fff"/><stop offset="32.97%" stop-color="#fff"/><stop offset="39.86%" stop-color="#cfe4ff"/></linearGradient><linearGradient gradientUnits="userSpaceOnUse" id="l" x1="738" y1="779" x2="738" y2="579"><stop offset="20.29%" stop-color="#ced4db"/><stop offset="25.72%" stop-color="#fff"/><stop offset="32.97%" stop-color="#fff"/><stop offset="39.86%" stop-color="#cfe4ff"/></linearGradient><linearGradient gradientUnits="userSpaceOnUse" id="m" x1="618" y1="478" x2="618" y2="520"><stop offset="38.93%" stop-color="#fff"/><stop offset="55.36%" stop-color="#c3f7c8"/></linearGradient><linearGradient gradientUnits="userSpaceOnUse" id="n" x1="858" y1="779" x2="858" y2="579"><stop offset="20.29%" stop-color="#ced4db"/><stop offset="25.72%" stop-color="#fff"/><stop offset="32.97%" stop-color="#fff"/><stop offset="39.86%" stop-color="#cfe4ff"/></linearGradient><path d="M253 0h-61l-6-196c-25 68-54 131-82 196H42L26-248h50l7 204 86-204h55l8 204 82-204h51" id="T"/><path d="M150-105c8-23 8-54-22-51-68 7-54 98-72 156H6l50-261h50L85-158c15-20 33-36 66-36 95 0 34 128 28 194h-49" id="U"/><path d="M124-194c51 0 84 22 84 74C207-44 167 4 94 4 43 4 11-23 11-74c0-74 41-120 113-120zM99-30c46 0 58-42 58-86 0-27-11-44-37-44-44 0-55 40-57 84-1 27 10 45 36 46" id="V"/><path d="M6 0l51-261h49L55 0H6" id="W"/><path d="M114-194c63-2 87 48 72 110H63c-3 28 1 55 31 54 21-1 32-13 37-29l44 13C160-14 137 4 91 4 41 4 11-22 11-73c0-71 33-119 103-121zm30 77c14-47-50-61-67-22-3 6-6 13-8 22h75" id="X"/><g id="o"><use transform="matrix(0.0864197530864197,0,0,0.0864197530864197,0,0)" xlink:href="#T"/><use transform="matrix(0.0864197530864197,0,0,0.0864197530864197,29.29629629629628,0)" xlink:href="#U"/><use transform="matrix(0.0864197530864197,0,0,0.0864197530864197,48.22222222222219,0)" xlink:href="#V"/><use transform="matrix(0.0864197530864197,0,0,0.0864197530864197,67.14814814814812,0)" xlink:href="#W"/><use transform="matrix(0.0864197530864197,0,0,0.0864197530864197,75.7901234567901,0)" xlink:href="#X"/></g><path d="M178-136c88 48 22 151-73 140C49-3 12-15 4-64l51-9c1 50 111 53 115 3-16-63-132-20-133-112 0-93 190-91 199-10l-50 12c-4-41-93-50-97-4 7 38 59 32 89 48" id="Y"/><path d="M100 10C77 47 50 87-15 72l7-35c37 9 51-18 65-41L20-190h51L89-44l73-146h53" id="Z"/><path d="M144-137c-1-29-70-35-71-2 16 41 103 10 103 80C176 9 79 16 32-9 18-17 9-31 4-48l44-6c3 32 80 36 82 1-15-42-103-11-103-82 0-77 157-79 161-8" id="aa"/><path d="M72-63c-8 23 5 39 32 30L98-1C54 14 12-6 23-64l18-93H15l7-33h28l24-45h31l-8 45h35l-6 33H90" id="ab"/><path d="M255-194c90 0 29 129 24 194h-49l25-136c-7-39-53-14-60 9-12 38-18 85-28 127h-49l25-136c2-29-39-23-50-7C69-108 68-47 56 0H6l36-190h48c-1 10-6 24-4 32 12-20 27-36 57-36s46 15 50 41c14-21 29-41 62-41" id="ac"/><g id="p"><use transform="matrix(0.0864197530864197,0,0,0.0864197530864197,0,0)" xlink:href="#Y"/><use transform="matrix(0.0864197530864197,0,0,0.0864197530864197,20.74074074074073,0)" xlink:href="#Z"/><use transform="matrix(0.0864197530864197,0,0,0.0864197530864197,38.02469135802467,0)" xlink:href="#aa"/><use transform="matrix(0.0864197530864197,0,0,0.0864197530864197,55.30864197530861,0)" xlink:href="#ab"/><use transform="matrix(0.0864197530864197,0,0,0.0864197530864197,65.59259259259255,0)" xlink:href="#X"/><use transform="matrix(0.0864197530864197,0,0,0.0864197530864197,82.8765432098765,0)" xlink:href="#ac"/></g><path d="M258-177c0 46-32 67-71 75L235 0h-57l-41-94H76L58 0H6l48-248c89 2 204-19 204 71zm-53 3c0-46-63-30-107-33l-14 73c51-2 120 13 121-40" id="ad"/><path d="M156-122c2-23-7-37-28-37-47 0-58 44-58 89 0 24 12 40 36 40 43 0 47-49 50-92zM-8 75l50-265h48c0 10-3 24-3 30 22-50 127-45 121 29-6 73-21 135-92 135-29 0-46-14-55-35L41 75H-8" id="ae"/><path d="M50-224l7-37h49l-7 37H50zM6 0l37-190h49L55 0H6" id="af"/><path d="M67-101c-8 29-7 73 27 71 23-2 32-16 39-37l48 9C170-19 141 4 91 4 36 4 7-28 12-86c6-75 61-124 140-103 26 7 40 29 43 59l-50 4c-1-20-9-34-29-34-35 0-41 29-49 59" id="ag"/><path d="M166-52c-4 17 5 29 24 23l-3 27c-30 11-74 1-67-34C105-15 91 4 56 4 23 4 3-15 2-49c0-64 63-67 128-67 10-22 3-53-29-45-13 3-22 10-25 24l-46-5c5-64 156-77 153 0-1 33-11 60-17 90zM97-88c-44-9-64 57-19 57 31 0 42-28 47-57H97" id="ah"/><g id="q"><use transform="matrix(0.0864197530864197,0,0,0.0864197530864197,0,0)" xlink:href="#ad"/><use transform="matrix(0.0864197530864197,0,0,0.0864197530864197,22.382716049382704,0)" xlink:href="#X"/><use transform="matrix(0.0864197530864197,0,0,0.0864197530864197,39.66666666666664,0)" xlink:href="#ae"/><use transform="matrix(0.0864197530864197,0,0,0.0864197530864197,58.59259259259256,0)" xlink:href="#W"/><use transform="matrix(0.0864197530864197,0,0,0.0864197530864197,67.23456790123453,0)" xlink:href="#af"/><use transform="matrix(0.0864197530864197,0,0,0.0864197530864197,75.8765432098765,0)" xlink:href="#ag"/><use transform="matrix(0.0864197530864197,0,0,0.0864197530864197,93.16049382716044,0)" xlink:href="#ah"/><use transform="matrix(0.0864197530864197,0,0,0.0864197530864197,110.4444444444444,0)" xlink:href="#aa"/></g><linearGradient gradientUnits="userSpaceOnUse" id="r" x1="1280" y1="579" x2="1280" y2="619"><stop offset="52.14%" stop-color="#cfe4ff"/><stop offset="65.36%" stop-color="#ced4db"/></linearGradient><linearGradient gradientUnits="userSpaceOnUse" id="s" x1="1260" y1="599" x2="1260" y2="639"><stop offset="52.14%" stop-color="#cfe4ff"/><stop offset="65.36%" stop-color="#ced4db"/></linearGradient><linearGradient gradientUnits="userSpaceOnUse" id="t" x1="1140" y1="559" x2="1140" y2="599"><stop offset="52.14%" stop-color="#cfe4ff"/><stop offset="65.36%" stop-color="#ced4db"/></linearGradient><linearGradient gradientUnits="userSpaceOnUse" id="u" x1="1120" y1="579" x2="1120" y2="619"><stop offset="52.14%" stop-color="#cfe4ff"/><stop offset="65.36%" stop-color="#ced4db"/></linearGradient><linearGradient gradientUnits="userSpaceOnUse" id="v" x1="1100" y1="599" x2="1100" y2="639"><stop offset="52.14%" stop-color="#cfe4ff"/><stop offset="65.36%" stop-color="#ced4db"/></linearGradient><linearGradient gradientUnits="userSpaceOnUse" id="w" x1="1080" y1="719" x2="1080" y2="779"><stop offset="55.07%" stop-color="#fff"/><stop offset="71.74%" stop-color="#ced4db"/></linearGradient><path d="M96-169c-40 0-48 33-48 73s9 75 48 75c24 0 41-14 43-38l32 2c-6 37-31 61-74 61-59 0-76-41-82-99-10-93 101-131 147-64 4 7 5 14 7 22l-32 3c-4-21-16-35-41-35" id="ai"/><path d="M100-194c62-1 85 37 85 99 1 63-27 99-86 99S16-35 15-95c0-66 28-99 85-99zM99-20c44 1 53-31 53-75 0-43-8-75-51-75s-53 32-53 75 10 74 51 75" id="aj"/><path d="M114-163C36-179 61-72 57 0H25l-1-190h30c1 12-1 29 2 39 6-27 23-49 58-41v29" id="ak"/><path d="M135-143c-3-34-86-38-87 0 15 53 115 12 119 90S17 21 10-45l28-5c4 36 97 45 98 0-10-56-113-15-118-90-4-57 82-63 122-42 12 7 21 19 24 35" id="al"/><g id="x"><use transform="matrix(0.07407407407407408,0,0,0.07407407407407408,0,0)" xlink:href="#K"/><use transform="matrix(0.07407407407407408,0,0,0.07407407407407408,17.77777777777778,0)" xlink:href="#ai"/><use transform="matrix(0.07407407407407408,0,0,0.07407407407407408,31.111111111111114,0)" xlink:href="#P"/><use transform="matrix(0.07407407407407408,0,0,0.07407407407407408,38.51851851851851,0)" xlink:href="#aj"/><use transform="matrix(0.07407407407407408,0,0,0.07407407407407408,53.33333333333333,0)" xlink:href="#ak"/><use transform="matrix(0.07407407407407408,0,0,0.07407407407407408,62.14814814814816,0)" xlink:href="#al"/></g><path d="M63-220v92h138v28H63V0H30v-248h175v28H63" id="am"/><path d="M210-169c-67 3-38 105-44 169h-31v-121c0-29-5-50-35-48C34-165 62-65 56 0H25l-1-190h30c1 10-1 24 2 32 10-44 99-50 107 0 11-21 27-35 58-36 85-2 47 119 55 194h-31v-121c0-29-5-49-35-48" id="an"/><path d="M143 0L79-87 56-68V0H24v-261h32v163l83-92h37l-77 82L181 0h-38" id="ao"/><g id="y"><use transform="matrix(0.07407407407407408,0,0,0.07407407407407408,0,0)" xlink:href="#am"/><use transform="matrix(0.07407407407407408,0,0,0.07407407407407408,16.222222222222225,0)" xlink:href="#ak"/><use transform="matrix(0.07407407407407408,0,0,0.07407407407407408,25.03703703703704,0)" xlink:href="#O"/><use transform="matrix(0.07407407407407408,0,0,0.07407407407407408,39.85185185185187,0)" xlink:href="#an"/><use transform="matrix(0.07407407407407408,0,0,0.07407407407407408,62.000000000000014,0)" xlink:href="#Q"/><use transform="matrix(0.07407407407407408,0,0,0.07407407407407408,76.81481481481484,0)" xlink:href="#R"/><use transform="matrix(0.07407407407407408,0,0,0.07407407407407408,96.00000000000003,0)" xlink:href="#aj"/><use transform="matrix(0.07407407407407408,0,0,0.07407407407407408,110.81481481481485,0)" xlink:href="#ak"/><use transform="matrix(0.07407407407407408,0,0,0.07407407407407408,119.62962962962965,0)" xlink:href="#ao"/></g><linearGradient gradientUnits="userSpaceOnUse" id="z" x1="1080" y1="619" x2="1080" y2="659"><stop offset="52.14%" stop-color="#cfe4ff"/><stop offset="65.36%" stop-color="#ced4db"/></linearGradient><linearGradient gradientUnits="userSpaceOnUse" id="A" x1="1240" y1="619" x2="1240" y2="659"><stop offset="52.14%" stop-color="#cfe4ff"/><stop offset="65.36%" stop-color="#ced4db"/></linearGradient><path d="M183 0l-10-63H79L44 0H-7l138-248h61L234 0h-51zm-14-102l-15-108c-16 38-36 73-55 108h70" id="ap"/><path d="M84-151c13-25 34-51 72-40l-8 41C67-170 71-64 56 0H6l36-190h47" id="aq"/><g id="B"><use transform="matrix(0.0864197530864197,0,0,0.0864197530864197,0,0)" xlink:href="#ap"/><use transform="matrix(0.0864197530864197,0,0,0.0864197530864197,22.382716049382704,0)" xlink:href="#ag"/><use transform="matrix(0.0864197530864197,0,0,0.0864197530864197,39.66666666666664,0)" xlink:href="#ab"/><use transform="matrix(0.0864197530864197,0,0,0.0864197530864197,49.95061728395059,0)" xlink:href="#V"/><use transform="matrix(0.0864197530864197,0,0,0.0864197530864197,68.8765432098765,0)" xlink:href="#aq"/><use transform="matrix(0.0864197530864197,0,0,0.0864197530864197,80.97530864197526,0)" xlink:href="#aa"/></g><linearGradient gradientUnits="userSpaceOnUse" id="C" x1="1620" y1="541" x2="1620" y2="601"><stop offset="23.55%" stop-color="#c3f7c8"/><stop offset="33.7%" stop-color="#cfe4ff"/><stop offset="59.29%" stop-color="#cfe4ff"/><stop offset="70.71%" stop-color="#ced4db"/></linearGradient><path d="M115-194c55 1 70 41 70 98S169 2 115 4C84 4 66-9 55-30l1 105H24l-1-265h31l2 30c10-21 28-34 59-34zm-8 174c40 0 45-34 45-75s-6-73-45-74c-42 0-51 32-51 76 0 43 10 73 51 73" id="ar"/><g id="D"><use transform="matrix(0.07407407407407408,0,0,0.07407407407407408,0,0)" xlink:href="#K"/><use transform="matrix(0.07407407407407408,0,0,0.07407407407407408,17.77777777777778,0)" xlink:href="#ar"/><use transform="matrix(0.07407407407407408,0,0,0.07407407407407408,32.592592592592595,0)" xlink:href="#ar"/></g><path d="M190 0L58-211 59 0H30v-248h39L202-35l-2-213h31V0h-41" id="as"/><path d="M85-194c31 0 48 13 60 33l-1-100h32l1 261h-30c-2-10 0-23-3-31C134-8 116 4 85 4 32 4 16-35 15-94c0-66 23-100 70-100zm9 24c-40 0-46 34-46 75 0 40 6 74 45 74 42 0 51-32 51-76 0-42-9-74-50-73" id="at"/><g id="E"><use transform="matrix(0.07407407407407408,0,0,0.07407407407407408,0,0)" xlink:href="#as"/><use transform="matrix(0.07407407407407408,0,0,0.07407407407407408,19.185185185185187,0)" xlink:href="#aj"/><use transform="matrix(0.07407407407407408,0,0,0.07407407407407408,34,0)" xlink:href="#at"/><use transform="matrix(0.07407407407407408,0,0,0.07407407407407408,48.81481481481481,0)" xlink:href="#Q"/></g><linearGradient gradientUnits="userSpaceOnUse" id="F" x1="1598.48" y1="561" x2="1598.48" y2="621"><stop offset="23.55%" stop-color="#c3f7c8"/><stop offset="33.7%" stop-color="#cfe4ff"/><stop offset="59.29%" stop-color="#cfe4ff"/><stop offset="70.71%" stop-color="#ced4db"/></linearGradient><linearGradient gradientUnits="userSpaceOnUse" id="G" x1="1580" y1="581" x2="1580" y2="641"><stop offset="23.55%" stop-color="#c3f7c8"/><stop offset="33.7%" stop-color="#cfe4ff"/><stop offset="59.29%" stop-color="#cfe4ff"/><stop offset="70.71%" stop-color="#ced4db"/></linearGradient><path d="M233-177c-1 41-23 64-60 70L243 0h-38l-65-103H63V0H30v-248c88 3 205-21 203 71zM63-129c60-2 137 13 137-47 0-61-80-42-137-45v92" id="au"/><path d="M177-190C167-65 218 103 67 71c-23-6-38-20-44-43l32-5c15 47 100 32 89-28v-30C133-14 115 1 83 1 29 1 15-40 15-95c0-56 16-97 71-98 29-1 48 16 59 35 1-10 0-23 2-32h30zM94-22c36 0 50-32 50-73 0-42-14-75-50-75-39 0-46 34-46 75s6 73 46 73" id="av"/><path d="M24-231v-30h32v30H24zM24 0v-190h32V0H24" id="aw"/><g id="H"><use transform="matrix(0.07407407407407408,0,0,0.07407407407407408,0,0)" xlink:href="#au"/><use transform="matrix(0.07407407407407408,0,0,0.07407407407407408,19.185185185185187,0)" xlink:href="#Q"/><use transform="matrix(0.07407407407407408,0,0,0.07407407407407408,34,0)" xlink:href="#av"/><use transform="matrix(0.07407407407407408,0,0,0.07407407407407408,48.81481481481481,0)" xlink:href="#aw"/><use transform="matrix(0.07407407407407408,0,0,0.07407407407407408,54.66666666666667,0)" xlink:href="#al"/><use transform="matrix(0.07407407407407408,0,0,0.07407407407407408,68,0)" xlink:href="#P"/><use transform="matrix(0.07407407407407408,0,0,0.07407407407407408,75.4074074074074,0)" xlink:href="#ak"/><use transform="matrix(0.07407407407407408,0,0,0.07407407407407408,84.22222222222223,0)" xlink:href="#S"/></g><path d="M241-173c-1 82-78 91-166 86L58 0H6l48-248c87 0 188-12 187 75zm-53 2c0-43-48-36-90-36l-15 80c50 0 105 7 105-44" id="ax"/><path d="M10-72l8-43h92l-9 43H10" id="ay"/><g id="I"><use transform="matrix(0.0864197530864197,0,0,0.0864197530864197,0,0)" xlink:href="#ax"/><use transform="matrix(0.0864197530864197,0,0,0.0864197530864197,20.74074074074073,0)" xlink:href="#X"/><use transform="matrix(0.0864197530864197,0,0,0.0864197530864197,38.02469135802467,0)" xlink:href="#X"/><use transform="matrix(0.0864197530864197,0,0,0.0864197530864197,55.30864197530861,0)" xlink:href="#aq"/><use transform="matrix(0.0864197530864197,0,0,0.0864197530864197,67.40740740740736,0)" xlink:href="#ay"/><use transform="matrix(0.0864197530864197,0,0,0.0864197530864197,77.69135802469131,0)" xlink:href="#ab"/><use transform="matrix(0.0864197530864197,0,0,0.0864197530864197,87.97530864197526,0)" xlink:href="#V"/><use transform="matrix(0.0864197530864197,0,0,0.0864197530864197,106.90123456790117,0)" xlink:href="#ay"/><use transform="matrix(0.0864197530864197,0,0,0.0864197530864197,117.18518518518515,0)" xlink:href="#ax"/><use transform="matrix(0.0864197530864197,0,0,0.0864197530864197,137.92592592592587,0)" xlink:href="#X"/><use transform="matrix(0.0864197530864197,0,0,0.0864197530864197,155.20987654320982,0)" xlink:href="#X"/><use transform="matrix(0.0864197530864197,0,0,0.0864197530864197,172.49382716049377,0)" xlink:href="#aq"/></g><path d="M212 0l43-212L151 0h-37L90-212C82-137 65-70 52 0H6l48-248h70l20 187 93-187h69L258 0h-46" id="az"/><g id="J"><use transform="matrix(0.0864197530864197,0,0,0.0864197530864197,0,0)" xlink:href="#az"/><use transform="matrix(0.0864197530864197,0,0,0.0864197530864197,25.839506172839492,0)" xlink:href="#X"/><use transform="matrix(0.0864197530864197,0,0,0.0864197530864197,43.123456790123434,0)" xlink:href="#aa"/><use transform="matrix(0.0864197530864197,0,0,0.0864197530864197,60.407407407407376,0)" xlink:href="#U"/></g></defs></g></svg>