<svg xmlns="http://www.w3.org/2000/svg" xmlns:xlink="http://www.w3.org/1999/xlink" xmlns:lucid="lucid" width="1263" height="244.42"><g transform="translate(-18.5 -578.5)" lucid:page-tab-id="0_0"><path d="M300 600a20 20 0 0 1 20-20h20a20 20 0 0 1 20 20v100a20 20 0 0 1-20 20h-20a20 20 0 0 1-20-20z" stroke="#000" stroke-width="3" fill="url(#a)"/><path d="M420 600a20 20 0 0 1 20-20h20a20 20 0 0 1 20 20v100a20 20 0 0 1-20 20h-20a20 20 0 0 1-20-20z" stroke="#000" stroke-width="3" fill="url(#b)"/><path d="M540 600a20 20 0 0 1 20-20h20a20 20 0 0 1 20 20v100a20 20 0 0 1-20 20h-20a20 20 0 0 1-20-20z" stroke="#000" stroke-width="3" fill="url(#c)"/><path d="M572 735.66v28.68M568 735.66v28.68M560 740.82l10-17.32 10 17.32m-10-17.32v8.5M580 759.18l-10 17.32-10-17.32m10 17.32V768M452 735.66v28.68M448 735.66v28.68M440 740.82l10-17.32 10 17.32m-10-17.32v8.5M460 759.18l-10 17.32-10-17.32m10 17.32V768M332 735.66v28.68M328 735.66v28.68M320 740.82l10-17.32 10 17.32m-10-17.32v8.5M340 759.18l-10 17.32-10-17.32m10 17.32V768" stroke="#000" stroke-width="2" fill="none"/><path d="M700 600a20 20 0 0 1 20-20h20a20 20 0 0 1 20 20v80a20 20 0 0 1-20 20h-20a20 20 0 0 1-20-20z" stroke="#000" stroke-width="3" fill="url(#d)"/><path d="M820 600a20 20 0 0 1 20-20h20a20 20 0 0 1 20 20v80a20 20 0 0 1-20 20h-20a20 20 0 0 1-20-20z" stroke="#000" stroke-width="3" fill="url(#e)"/><path d="M940 600a20 20 0 0 1 20-20h20a20 20 0 0 1 20 20v80a20 20 0 0 1-20 20h-20a20 20 0 0 1-20-20z" stroke="#000" stroke-width="3" fill="url(#f)"/><path d="M972 715.66v27.26M968 715.66v27.26M960 720.82l10-17.32 10 17.32m-10-17.32v8.5M980 737.76l-10 17.32-10-17.32m10 17.32v-8.5" stroke="#000" stroke-width="2" fill="none"/><path d="M700 778.58a20 20 0 0 1 20-20h260a20 20 0 0 1 20 20V800a20 20 0 0 1-20 20H720a20 20 0 0 1-20-20z" stroke="#000" stroke-width="3" fill="url(#g)"/><use xlink:href="#h" transform="matrix(1,0,0,1,705,763.5826771653544) translate(38.46296296296295 29.305555555555557)"/><use xlink:href="#i" transform="matrix(1,0,0,1,705,763.5826771653544) translate(123.95061728395062 29.305555555555557)"/><use xlink:href="#j" transform="matrix(1,0,0,1,705,763.5826771653544) translate(193.20987654320987 29.305555555555557)"/><path d="M852 715.66v27.26M848 715.66v27.26M840 720.82l10-17.32 10 17.32m-10-17.32v8.5M860 737.76l-10 17.32-10-17.32m10 17.32v-8.5M732 715.66v27.26M728 715.66v27.26M720 720.82l10-17.32 10 17.32m-10-17.32v8.5M740 737.76l-10 17.32-10-17.32m10 17.32v-8.5" stroke="#000" stroke-width="2" fill="none"/><path d="M300 800a20 20 0 0 1 20-20h260a20 20 0 0 1 20 20 20 20 0 0 1-20 20H320a20 20 0 0 1-20-20z" stroke="#000" stroke-width="3" fill="url(#k)"/><use xlink:href="#l" transform="matrix(1,0,0,1,305,785) translate(32.35685185185182 21.430555555555557)"/><use xlink:href="#i" transform="matrix(1,0,0,1,305,785) translate(147.65314814814815 21.430555555555557)"/><use xlink:href="#m" transform="matrix(1,0,0,1,305,785) translate(216.91240740740741 21.430555555555557)"/><path d="M20 586a6 6 0 0 1 6-6h188a6 6 0 0 1 6 6v128a6 6 0 0 1-6 6H26a6 6 0 0 1-6-6z" stroke="#000" stroke-opacity="0" stroke-width="3" fill="#fff" fill-opacity="0"/><use xlink:href="#n" transform="matrix(1,0,0,1,25,585) translate(2.382716049382708 33.01388888888889)"/><use xlink:href="#o" transform="matrix(1,0,0,1,25,585) translate(30.03703703703703 33.01388888888889)"/><use xlink:href="#p" transform="matrix(1,0,0,1,25,585) translate(16.12345679012344 70.34722222222223)"/><use xlink:href="#q" transform="matrix(1,0,0,1,25,585) translate(83.44444444444444 70.34722222222223)"/><use xlink:href="#r" transform="matrix(1,0,0,1,25,585) translate(7.3950617283950635 107.68055555555557)"/><use xlink:href="#s" transform="matrix(1,0,0,1,25,585) translate(157.679012345679 107.68055555555557)"/><path d="M220.6 696l1.78 2.38m2.38 3.18l3.57 4.76m2.38 3.18l3.58 4.76m2.37 3.17l3.57 4.77m2.38 3.17l3.57 4.77m2.38 3.17l3.56 4.77m2.4 3.18l3.56 4.76m2.38 3.2l3.56 4.75m2.38 3.18l3.57 4.76m2.38 3.16l3.57 4.77m2.37 3.17l3.57 4.77m2.38 3.17l3.57 4.76m2.37 3.18l3.56 4.76m2.38 3.18l1.8 2.38" stroke="#3a414a" stroke-width="2" fill="none"/><path d="M221.4 695.44l-1.4 1.04v-2.9zM298.5 800l.14 1.82-1.54-2.06 1.5-1.12z" stroke="#3a414a" stroke-width=".05" fill="#3a414a"/><path d="M1080 646a6 6 0 0 1 6-6h188a6 6 0 0 1 6 6v168a6 6 0 0 1-6 6h-188a6 6 0 0 1-6-6z" stroke="#000" stroke-opacity="0" stroke-width="3" fill="#fff" fill-opacity="0"/><use xlink:href="#t" transform="matrix(1,0,0,1,1085,645) translate(18.216049382716037 24.888888888888893)"/><use xlink:href="#u" transform="matrix(1,0,0,1,1085,645) translate(52.78395061728394 24.888888888888893)"/><use xlink:href="#v" transform="matrix(1,0,0,1,1085,645) translate(88.99382716049382 24.888888888888893)"/><use xlink:href="#w" transform="matrix(1,0,0,1,1085,645) translate(113.10493827160494 24.888888888888893)"/><use xlink:href="#x" transform="matrix(1,0,0,1,1085,645) translate(1.7530864197530889 62.222222222222236)"/><use xlink:href="#y" transform="matrix(1,0,0,1,1085,645) translate(67.34567901234568 62.222222222222236)"/><use xlink:href="#z" transform="matrix(1,0,0,1,1085,645) translate(145.03703703703704 62.222222222222236)"/><use xlink:href="#A" transform="matrix(1,0,0,1,1085,645) translate(6.074074074074076 99.55555555555557)"/><use xlink:href="#B" transform="matrix(1,0,0,1,1085,645) translate(106.14814814814815 99.55555555555557)"/><use xlink:href="#z" transform="matrix(1,0,0,1,1085,645) translate(140.71604938271605 99.55555555555557)"/><use xlink:href="#C" transform="matrix(1,0,0,1,1085,645) translate(35.11111111111111 136.8888888888889)"/><use xlink:href="#D" transform="matrix(1,0,0,1,1085,645) translate(53.51851851851852 174.22222222222226)"/><path d="M1079.03 729.75l-2.94-.76m-3.94-1.03l-5.9-1.53m-3.93-1.02l-5.9-1.52m-3.92-1.02l-5.9-1.53m-3.92-1.02l-5.9-1.53m-3.92-1l-5.9-1.54m-3.93-1.02l-5.9-1.53m-3.92-1l-5.88-1.53m-3.93-1.02l-5.9-1.53m-3.94-1l-5.9-1.54m-3.92-1.02l-5.9-1.53m-3.93-1.02l-2.93-.75" stroke="#3a414a" stroke-width="2" fill="none"/><path d="M1080 729v2l-1.24-.3.5-1.9zM970.75 702.7l-3.9-1 .05-.2h4.16z" stroke="#3a414a" stroke-width=".05" fill="#3a414a"/><path d="M20 746a6 6 0 0 1 6-6h188a6 6 0 0 1 6 6v69.42a6 6 0 0 1-6 6H26a6 6 0 0 1-6-6z" stroke="#000" stroke-opacity="0" stroke-width="3" fill="#fff" fill-opacity="0"/><g><use xlink:href="#E" transform="matrix(1,0,0,1,25.00000000000003,745) translate(6.074074074074076 27.138888888888893)"/><use xlink:href="#F" transform="matrix(1,0,0,1,25.00000000000003,745) translate(85.58024691358025 27.138888888888893)"/><use xlink:href="#G" transform="matrix(1,0,0,1,25.00000000000003,745) translate(0.8888888888888857 64.47222222222223)"/><use xlink:href="#H" transform="matrix(1,0,0,1,25.00000000000003,745) translate(82.03703703703704 64.47222222222223)"/><use xlink:href="#I" transform="matrix(1,0,0,1,25.00000000000003,745) translate(121.70370370370371 64.47222222222223)"/></g><path d="M220.83 780.15l2.5-1.67m3.3-2.23l5-3.34m3.32-2.22l4.98-3.34m3.32-2.22l4.98-3.35m3.32-2.22l4.98-3.34m3.33-2.22l4.98-3.34m3.32-2.23l4.98-3.33m3.32-2.23l4.98-3.34m3.32-2.23l5-3.34m3.3-2.23l5-3.34m3.3-2.23l5-3.34m3.3-2.23l5-3.35m3.32-2.22l4.98-3.35m3.32-2.22l2.5-1.67" stroke="#3a414a" stroke-width="2" fill="none"/><path d="M221.4 780.95l-1.4.93v-2.35l.3-.2z" stroke="#3a414a" stroke-width=".05" fill="#3a414a"/><path d="M328.75 707.77l.85-.57M1079.2 730.6l-2.3 1.75m-3.08 2.32l-4.62 3.48m-3.07 2.33l-4.62 3.48m-3.06 2.33l-4.62 3.47m-3.07 2.32l-4.62 3.48m-3.07 2.32l-4.62 3.5m-3.07 2.3l-4.62 3.5m-3.07 2.32l-4.62 3.5m-3.07 2.3l-4.63 3.5m-3.08 2.32l-4.62 3.48m-3.07 2.33l-2.3 1.74" stroke="#3a414a" stroke-width="2" fill="none"/><path d="M1080 731.22l-.23.18-1.18-1.56 1.4-1.06zM1002.9 789.45l-1.4 1.06v-2.43l.23-.18z" stroke="#3a414a" stroke-width=".05" fill="#3a414a"/><defs><linearGradient gradientUnits="userSpaceOnUse" id="a" x1="300" y1="720" x2="300" y2="580"><stop offset="19.2%" stop-color="#ced4db"/><stop offset="26.45%" stop-color="#fff"/><stop offset="34.06%" stop-color="#fff"/><stop offset="42.03%" stop-color="#cfe4ff"/><stop offset="68.84%" stop-color="#cfe4ff"/><stop offset="78.62%" stop-color="#c3f7c8"/></linearGradient><linearGradient gradientUnits="userSpaceOnUse" id="b" x1="420" y1="720" x2="420" y2="580"><stop offset="19.2%" stop-color="#ced4db"/><stop offset="26.45%" stop-color="#fff"/><stop offset="34.06%" stop-color="#fff"/><stop offset="42.03%" stop-color="#cfe4ff"/><stop offset="68.84%" stop-color="#cfe4ff"/><stop offset="78.62%" stop-color="#c3f7c8"/></linearGradient><linearGradient gradientUnits="userSpaceOnUse" id="c" x1="540" y1="720" x2="540" y2="580"><stop offset="19.2%" stop-color="#ced4db"/><stop offset="26.45%" stop-color="#fff"/><stop offset="34.06%" stop-color="#fff"/><stop offset="42.03%" stop-color="#cfe4ff"/><stop offset="68.84%" stop-color="#cfe4ff"/><stop offset="78.62%" stop-color="#c3f7c8"/></linearGradient><linearGradient gradientUnits="userSpaceOnUse" id="d" x1="700" y1="700" x2="700" y2="580"><stop offset="9.42%" stop-color="#fff"/><stop offset="17.75%" stop-color="#cfe4ff"/><stop offset="56.88%" stop-color="#cfe4ff"/><stop offset="71.74%" stop-color="#c3f7c8"/></linearGradient><linearGradient gradientUnits="userSpaceOnUse" id="e" x1="820" y1="700" x2="820" y2="580"><stop offset="9.42%" stop-color="#fff"/><stop offset="17.75%" stop-color="#cfe4ff"/><stop offset="56.88%" stop-color="#cfe4ff"/><stop offset="71.74%" stop-color="#c3f7c8"/></linearGradient><linearGradient gradientUnits="userSpaceOnUse" id="f" x1="940" y1="700" x2="940" y2="580"><stop offset="9.42%" stop-color="#fff"/><stop offset="17.75%" stop-color="#cfe4ff"/><stop offset="56.88%" stop-color="#cfe4ff"/><stop offset="71.74%" stop-color="#c3f7c8"/></linearGradient><linearGradient gradientUnits="userSpaceOnUse" id="g" x1="700" y1="758.58" x2="700" y2="820"><stop offset="26.09%" stop-color="#fff"/><stop offset="36.96%" stop-color="#ced4db"/></linearGradient><path d="M185-189c-5-48-123-54-124 2 14 75 158 14 163 119 3 78-121 87-175 55-17-10-28-26-33-46l33-7c5 56 141 63 141-1 0-78-155-14-162-118-5-82 145-84 179-34 5 7 8 16 11 25" id="J"/><path d="M106-169C34-169 62-67 57 0H25v-261h32l-1 103c12-21 28-36 61-36 89 0 53 116 60 194h-32v-121c2-32-8-49-39-48" id="K"/><path d="M141-36C126-15 110 5 73 4 37 3 15-17 15-53c-1-64 63-63 125-63 3-35-9-54-41-54-24 1-41 7-42 31l-33-3c5-37 33-52 76-52 45 0 72 20 72 64v82c-1 20 7 32 28 27v20c-31 9-61-2-59-35zM48-53c0 20 12 33 32 33 41-3 63-29 60-74-43 2-92-5-92 41" id="L"/><path d="M114-163C36-179 61-72 57 0H25l-1-190h30c1 12-1 29 2 39 6-27 23-49 58-41v29" id="M"/><path d="M100-194c63 0 86 42 84 106H49c0 40 14 67 53 68 26 1 43-12 49-29l28 8c-11 28-37 45-77 45C44 4 14-33 15-96c1-61 26-98 85-98zm52 81c6-60-76-77-97-28-3 7-6 17-6 28h103" id="N"/><path d="M85-194c31 0 48 13 60 33l-1-100h32l1 261h-30c-2-10 0-23-3-31C134-8 116 4 85 4 32 4 16-35 15-94c0-66 23-100 70-100zm9 24c-40 0-46 34-46 75 0 40 6 74 45 74 42 0 51-32 51-76 0-42-9-74-50-73" id="O"/><g id="h"><use transform="matrix(0.06790123456790124,0,0,0.06790123456790124,0,0)" xlink:href="#J"/><use transform="matrix(0.06790123456790124,0,0,0.06790123456790124,16.296296296296298,0)" xlink:href="#K"/><use transform="matrix(0.06790123456790124,0,0,0.06790123456790124,29.876543209876544,0)" xlink:href="#L"/><use transform="matrix(0.06790123456790124,0,0,0.06790123456790124,43.45679012345679,0)" xlink:href="#M"/><use transform="matrix(0.06790123456790124,0,0,0.06790123456790124,51.53703703703704,0)" xlink:href="#N"/><use transform="matrix(0.06790123456790124,0,0,0.06790123456790124,65.11728395061729,0)" xlink:href="#O"/></g><path d="M30 0v-248h187v28H63v79h144v27H63v87h162V0H30" id="P"/><path d="M108 0H70L1-190h34L89-25l56-165h34" id="Q"/><path d="M117-194c89-4 53 116 60 194h-32v-121c0-31-8-49-39-48C34-167 62-67 57 0H25l-1-190h30c1 10-1 24 2 32 11-22 29-35 61-36" id="R"/><path d="M59-47c-2 24 18 29 38 22v24C64 9 27 4 27-40v-127H5v-23h24l9-43h21v43h35v23H59v120" id="S"/><g id="i"><use transform="matrix(0.06790123456790124,0,0,0.06790123456790124,0,0)" xlink:href="#P"/><use transform="matrix(0.06790123456790124,0,0,0.06790123456790124,16.296296296296298,0)" xlink:href="#Q"/><use transform="matrix(0.06790123456790124,0,0,0.06790123456790124,28.51851851851852,0)" xlink:href="#N"/><use transform="matrix(0.06790123456790124,0,0,0.06790123456790124,42.098765432098766,0)" xlink:href="#R"/><use transform="matrix(0.06790123456790124,0,0,0.06790123456790124,55.67901234567901,0)" xlink:href="#S"/></g><path d="M100-194c62-1 85 37 85 99 1 63-27 99-86 99S16-35 15-95c0-66 28-99 85-99zM99-20c44 1 53-31 53-75 0-43-8-75-51-75s-53 32-53 75 10 74 51 75" id="T"/><g id="j"><use transform="matrix(0.06790123456790124,0,0,0.06790123456790124,0,0)" xlink:href="#J"/><use transform="matrix(0.06790123456790124,0,0,0.06790123456790124,16.296296296296298,0)" xlink:href="#S"/><use transform="matrix(0.06790123456790124,0,0,0.06790123456790124,23.08641975308642,0)" xlink:href="#T"/><use transform="matrix(0.06790123456790124,0,0,0.06790123456790124,36.66666666666667,0)" xlink:href="#M"/><use transform="matrix(0.06790123456790124,0,0,0.06790123456790124,44.74691358024692,0)" xlink:href="#N"/></g><linearGradient gradientUnits="userSpaceOnUse" id="k" x1="300" y1="780" x2="300" y2="820"><stop offset="39.13%" stop-color="#fff"/><stop offset="56.16%" stop-color="#ced4db"/></linearGradient><path d="M30-248c87 1 191-15 191 75 0 78-77 80-158 76V0H30v-248zm33 125c57 0 124 11 124-50 0-59-68-47-124-48v98" id="U"/><path d="M135-143c-3-34-86-38-87 0 15 53 115 12 119 90S17 21 10-45l28-5c4 36 97 45 98 0-10-56-113-15-118-90-4-57 82-63 122-42 12 7 21 19 24 35" id="V"/><path d="M24-231v-30h32v30H24zM24 0v-190h32V0H24" id="W"/><g id="l"><use transform="matrix(0.06790123456790124,0,0,0.06790123456790124,0,0)" xlink:href="#U"/><use transform="matrix(0.06790123456790124,0,0,0.06790123456790124,16.296296296296298,0)" xlink:href="#N"/><use transform="matrix(0.06790123456790124,0,0,0.06790123456790124,29.876543209876544,0)" xlink:href="#M"/><use transform="matrix(0.06790123456790124,0,0,0.06790123456790124,37.95679012345679,0)" xlink:href="#V"/><use transform="matrix(0.06790123456790124,0,0,0.06790123456790124,50.17901234567901,0)" xlink:href="#W"/><use transform="matrix(0.06790123456790124,0,0,0.06790123456790124,55.54320987654321,0)" xlink:href="#V"/><use transform="matrix(0.06790123456790124,0,0,0.06790123456790124,67.76543209876543,0)" xlink:href="#S"/><use transform="matrix(0.06790123456790124,0,0,0.06790123456790124,74.55555555555556,0)" xlink:href="#N"/><use transform="matrix(0.06790123456790124,0,0,0.06790123456790124,88.13580246913581,0)" xlink:href="#R"/><use transform="matrix(0.06790123456790124,0,0,0.06790123456790124,101.71604938271606,0)" xlink:href="#S"/></g><path d="M30 0v-248h33v221h125V0H30" id="X"/><path d="M177-190C167-65 218 103 67 71c-23-6-38-20-44-43l32-5c15 47 100 32 89-28v-30C133-14 115 1 83 1 29 1 15-40 15-95c0-56 16-97 71-98 29-1 48 16 59 35 1-10 0-23 2-32h30zM94-22c36 0 50-32 50-73 0-42-14-75-50-75-39 0-46 34-46 75s6 73 46 73" id="Y"/><g id="m"><use transform="matrix(0.06790123456790124,0,0,0.06790123456790124,0,0)" xlink:href="#X"/><use transform="matrix(0.06790123456790124,0,0,0.06790123456790124,13.580246913580249,0)" xlink:href="#T"/><use transform="matrix(0.06790123456790124,0,0,0.06790123456790124,27.160493827160497,0)" xlink:href="#Y"/></g><path d="M205 0l-28-72H64L36 0H1l101-248h38L239 0h-34zm-38-99l-47-123c-12 45-31 82-46 123h93" id="Z"/><use transform="matrix(0.08641975308641976,0,0,0.08641975308641976,0,0)" xlink:href="#Z" id="n"/><path d="M222 0l43-216c-8 16-17 34-26 49L143 0h-22L81-216 41 0H11l48-248h42l38 208 116-208h45L252 0h-30" id="aa"/><path d="M50-231l6-30h32l-6 30H50zM6 0l37-190h31L37 0H6" id="ab"/><path d="M133-28C103 26-5 8 13-77c13-62 24-115 90-117 29-1 46 15 56 35l19-102h32L160 0h-30zM45-64c-2 27 10 43 35 43 54-1 69-50 69-103 0-29-15-46-42-46-53-1-58 58-62 106" id="ac"/><path d="M6 0l50-261h32L37 0H6" id="ad"/><path d="M111-194c62-3 86 47 72 106H45c-7 38 6 69 45 68 27-1 43-14 53-32l24 11C152-15 129 4 87 4 38 3 12-23 12-71c0-70 32-119 99-123zm44 81c14-66-71-72-95-28-4 8-8 17-11 28h106" id="ae"/><path d="M188 0h-37l-8-164L71 0H34L18-190h31l8 164 75-164h34l8 164 74-164h31" id="af"/><path d="M165-48c-4 18 1 34 23 27l-3 20c-29 8-62 0-52-35h-2C116-14 99 4 63 4 30 4 8-16 8-49c0-68 71-67 138-67 10-26 0-56-31-54-26 1-42 9-47 31l-32-5c8-67 160-71 144 15-5 28-9 54-15 81zM42-50c3 52 80 24 89-6 7-12 7-24 11-38-47 1-103-4-100 44" id="ag"/><path d="M66-151c12-25 30-51 66-40l-6 26C45-176 58-65 38 0H6l36-190h30" id="ah"/><g id="o"><use transform="matrix(0.08641975308641976,0,0,0.08641975308641976,0,0)" xlink:href="#aa"/><use transform="matrix(0.08641975308641976,0,0,0.08641975308641976,25.83950617283951,0)" xlink:href="#ab"/><use transform="matrix(0.08641975308641976,0,0,0.08641975308641976,32.66666666666667,0)" xlink:href="#ac"/><use transform="matrix(0.08641975308641976,0,0,0.08641975308641976,49.95061728395062,0)" xlink:href="#ac"/><use transform="matrix(0.08641975308641976,0,0,0.08641975308641976,67.23456790123457,0)" xlink:href="#ad"/><use transform="matrix(0.08641975308641976,0,0,0.08641975308641976,74.06172839506173,0)" xlink:href="#ae"/><use transform="matrix(0.08641975308641976,0,0,0.08641975308641976,91.34567901234568,0)" xlink:href="#af"/><use transform="matrix(0.08641975308641976,0,0,0.08641975308641976,113.7283950617284,0)" xlink:href="#ag"/><use transform="matrix(0.08641975308641976,0,0,0.08641975308641976,131.01234567901236,0)" xlink:href="#ah"/><use transform="matrix(0.08641975308641976,0,0,0.08641975308641976,141.2962962962963,0)" xlink:href="#ae"/></g><path d="M210-169c-67 3-38 105-44 169h-31v-121c0-29-5-50-35-48C34-165 62-65 56 0H25l-1-190h30c1 10-1 24 2 32 10-44 99-50 107 0 11-21 27-35 58-36 85-2 47 119 55 194h-31v-121c0-29-5-49-35-48" id="ai"/><path d="M179-190L93 31C79 59 56 82 12 73V49c39 6 53-20 64-50L1-190h34L92-34l54-156h33" id="aj"/><g id="p"><use transform="matrix(0.08641975308641976,0,0,0.08641975308641976,0,0)" xlink:href="#ai"/><use transform="matrix(0.08641975308641976,0,0,0.08641975308641976,25.83950617283951,0)" xlink:href="#L"/><use transform="matrix(0.08641975308641976,0,0,0.08641975308641976,43.12345679012346,0)" xlink:href="#aj"/></g><path d="M115-194c55 1 70 41 70 98S169 2 115 4C84 4 66-9 55-30l1 105H24l-1-265h31l2 30c10-21 28-34 59-34zm-8 174c40 0 45-34 45-75s-6-73-45-74c-42 0-51 32-51 76 0 43 10 73 51 73" id="ak"/><g id="q"><use transform="matrix(0.08641975308641976,0,0,0.08641975308641976,0,0)" xlink:href="#ak"/><use transform="matrix(0.08641975308641976,0,0,0.08641975308641976,17.283950617283953,0)" xlink:href="#N"/><use transform="matrix(0.08641975308641976,0,0,0.08641975308641976,34.567901234567906,0)" xlink:href="#M"/><use transform="matrix(0.08641975308641976,0,0,0.08641975308641976,44.851851851851855,0)" xlink:href="#V"/><use transform="matrix(0.08641975308641976,0,0,0.08641975308641976,60.40740740740741,0)" xlink:href="#W"/><use transform="matrix(0.08641975308641976,0,0,0.08641975308641976,67.23456790123457,0)" xlink:href="#V"/><use transform="matrix(0.08641975308641976,0,0,0.08641975308641976,82.79012345679013,0)" xlink:href="#S"/></g><g id="r"><use transform="matrix(0.08641975308641976,0,0,0.08641975308641976,0,0)" xlink:href="#ai"/><use transform="matrix(0.08641975308641976,0,0,0.08641975308641976,25.83950617283951,0)" xlink:href="#N"/><use transform="matrix(0.08641975308641976,0,0,0.08641975308641976,43.12345679012346,0)" xlink:href="#V"/><use transform="matrix(0.08641975308641976,0,0,0.08641975308641976,58.67901234567902,0)" xlink:href="#V"/><use transform="matrix(0.08641975308641976,0,0,0.08641975308641976,74.23456790123458,0)" xlink:href="#L"/><use transform="matrix(0.08641975308641976,0,0,0.08641975308641976,91.51851851851853,0)" xlink:href="#Y"/><use transform="matrix(0.08641975308641976,0,0,0.08641975308641976,108.80246913580248,0)" xlink:href="#N"/><use transform="matrix(0.08641975308641976,0,0,0.08641975308641976,126.08641975308643,0)" xlink:href="#V"/></g><path d="M33 0v-38h34V0H33" id="al"/><g id="s"><use transform="matrix(0.08641975308641976,0,0,0.08641975308641976,0,0)" xlink:href="#al"/><use transform="matrix(0.08641975308641976,0,0,0.08641975308641976,8.641975308641976,0)" xlink:href="#al"/><use transform="matrix(0.08641975308641976,0,0,0.08641975308641976,17.283950617283953,0)" xlink:href="#al"/></g><g id="t"><use transform="matrix(0.08641975308641976,0,0,0.08641975308641976,0,0)" xlink:href="#al"/><use transform="matrix(0.08641975308641976,0,0,0.08641975308641976,8.641975308641976,0)" xlink:href="#al"/><use transform="matrix(0.08641975308641976,0,0,0.08641975308641976,17.283950617283953,0)" xlink:href="#al"/></g><g id="u"><use transform="matrix(0.08641975308641976,0,0,0.08641975308641976,0,0)" xlink:href="#T"/><use transform="matrix(0.08641975308641976,0,0,0.08641975308641976,17.283950617283953,0)" xlink:href="#M"/></g><g id="v"><use transform="matrix(0.08641975308641976,0,0,0.08641975308641976,0,0)" xlink:href="#W"/><use transform="matrix(0.08641975308641976,0,0,0.08641975308641976,6.8271604938271615,0)" xlink:href="#S"/></g><g id="w"><use transform="matrix(0.08641975308641976,0,0,0.08641975308641976,0,0)" xlink:href="#ai"/><use transform="matrix(0.08641975308641976,0,0,0.08641975308641976,25.83950617283951,0)" xlink:href="#L"/><use transform="matrix(0.08641975308641976,0,0,0.08641975308641976,43.12345679012346,0)" xlink:href="#aj"/></g><path d="M24 0v-261h32V0H24" id="am"/><g id="x"><use transform="matrix(0.08641975308641976,0,0,0.08641975308641976,0,0)" xlink:href="#L"/><use transform="matrix(0.08641975308641976,0,0,0.08641975308641976,17.283950617283953,0)" xlink:href="#am"/><use transform="matrix(0.08641975308641976,0,0,0.08641975308641976,24.111111111111114,0)" xlink:href="#V"/><use transform="matrix(0.08641975308641976,0,0,0.08641975308641976,39.66666666666667,0)" xlink:href="#T"/></g><g id="y"><use transform="matrix(0.08641975308641976,0,0,0.08641975308641976,0,0)" xlink:href="#V"/><use transform="matrix(0.08641975308641976,0,0,0.08641975308641976,15.555555555555557,0)" xlink:href="#S"/><use transform="matrix(0.08641975308641976,0,0,0.08641975308641976,24.19753086419753,0)" xlink:href="#T"/><use transform="matrix(0.08641975308641976,0,0,0.08641975308641976,41.48148148148148,0)" xlink:href="#M"/><use transform="matrix(0.08641975308641976,0,0,0.08641975308641976,51.76543209876543,0)" xlink:href="#N"/></g><g id="z"><use transform="matrix(0.08641975308641976,0,0,0.08641975308641976,0,0)" xlink:href="#S"/><use transform="matrix(0.08641975308641976,0,0,0.08641975308641976,8.641975308641976,0)" xlink:href="#K"/><use transform="matrix(0.08641975308641976,0,0,0.08641975308641976,25.925925925925927,0)" xlink:href="#N"/></g><g id="A"><use transform="matrix(0.08641975308641976,0,0,0.08641975308641976,0,0)" xlink:href="#K"/><use transform="matrix(0.08641975308641976,0,0,0.08641975308641976,17.283950617283953,0)" xlink:href="#W"/><use transform="matrix(0.08641975308641976,0,0,0.08641975308641976,24.111111111111114,0)" xlink:href="#V"/><use transform="matrix(0.08641975308641976,0,0,0.08641975308641976,39.66666666666667,0)" xlink:href="#S"/><use transform="matrix(0.08641975308641976,0,0,0.08641975308641976,48.308641975308646,0)" xlink:href="#T"/><use transform="matrix(0.08641975308641976,0,0,0.08641975308641976,65.5925925925926,0)" xlink:href="#M"/><use transform="matrix(0.08641975308641976,0,0,0.08641975308641976,75.87654320987654,0)" xlink:href="#aj"/></g><path d="M101-234c-31-9-42 10-38 44h38v23H63V0H32v-167H5v-23h27c-7-52 17-82 69-68v24" id="an"/><g id="B"><use transform="matrix(0.08641975308641976,0,0,0.08641975308641976,0,0)" xlink:href="#T"/><use transform="matrix(0.08641975308641976,0,0,0.08641975308641976,17.283950617283953,0)" xlink:href="#an"/></g><path d="M96-169c-40 0-48 33-48 73s9 75 48 75c24 0 41-14 43-38l32 2c-6 37-31 61-74 61-59 0-76-41-82-99-10-93 101-131 147-64 4 7 5 14 7 22l-32 3c-4-21-16-35-41-35" id="ao"/><path d="M47-170H22l-4-78h33" id="ap"/><g id="C"><use transform="matrix(0.08641975308641976,0,0,0.08641975308641976,0,0)" xlink:href="#V"/><use transform="matrix(0.08641975308641976,0,0,0.08641975308641976,15.555555555555557,0)" xlink:href="#N"/><use transform="matrix(0.08641975308641976,0,0,0.08641975308641976,32.839506172839506,0)" xlink:href="#M"/><use transform="matrix(0.08641975308641976,0,0,0.08641975308641976,43.123456790123456,0)" xlink:href="#Q"/><use transform="matrix(0.08641975308641976,0,0,0.08641975308641976,58.679012345679006,0)" xlink:href="#W"/><use transform="matrix(0.08641975308641976,0,0,0.08641975308641976,65.50617283950618,0)" xlink:href="#ao"/><use transform="matrix(0.08641975308641976,0,0,0.08641975308641976,81.06172839506173,0)" xlink:href="#N"/><use transform="matrix(0.08641975308641976,0,0,0.08641975308641976,98.34567901234568,0)" xlink:href="#V"/><use transform="matrix(0.08641975308641976,0,0,0.08641975308641976,113.90123456790124,0)" xlink:href="#ap"/></g><g id="D"><use transform="matrix(0.08641975308641976,0,0,0.08641975308641976,0,0)" xlink:href="#V"/><use transform="matrix(0.08641975308641976,0,0,0.08641975308641976,15.555555555555557,0)" xlink:href="#S"/><use transform="matrix(0.08641975308641976,0,0,0.08641975308641976,24.19753086419753,0)" xlink:href="#L"/><use transform="matrix(0.08641975308641976,0,0,0.08641975308641976,41.48148148148148,0)" xlink:href="#S"/><use transform="matrix(0.08641975308641976,0,0,0.08641975308641976,50.123456790123456,0)" xlink:href="#N"/><use transform="matrix(0.08641975308641976,0,0,0.08641975308641976,67.4074074074074,0)" xlink:href="#V"/></g><g id="E"><use transform="matrix(0.08641975308641976,0,0,0.08641975308641976,0,0)" xlink:href="#P"/><use transform="matrix(0.08641975308641976,0,0,0.08641975308641976,20.740740740740744,0)" xlink:href="#L"/><use transform="matrix(0.08641975308641976,0,0,0.08641975308641976,38.0246913580247,0)" xlink:href="#ao"/><use transform="matrix(0.08641975308641976,0,0,0.08641975308641976,53.580246913580254,0)" xlink:href="#K"/></g><g id="F"><use transform="matrix(0.08641975308641976,0,0,0.08641975308641976,0,0)" xlink:href="#V"/><use transform="matrix(0.08641975308641976,0,0,0.08641975308641976,15.555555555555557,0)" xlink:href="#N"/><use transform="matrix(0.08641975308641976,0,0,0.08641975308641976,32.839506172839506,0)" xlink:href="#M"/><use transform="matrix(0.08641975308641976,0,0,0.08641975308641976,43.123456790123456,0)" xlink:href="#Q"/><use transform="matrix(0.08641975308641976,0,0,0.08641975308641976,58.679012345679006,0)" xlink:href="#W"/><use transform="matrix(0.08641975308641976,0,0,0.08641975308641976,65.50617283950618,0)" xlink:href="#ao"/><use transform="matrix(0.08641975308641976,0,0,0.08641975308641976,81.06172839506173,0)" xlink:href="#N"/></g><path d="M206 0h-36l-40-164L89 0H53L-1-190h32L70-26l43-164h34l41 164 42-164h31" id="aq"/><g id="G"><use transform="matrix(0.08641975308641976,0,0,0.08641975308641976,0,0)" xlink:href="#T"/><use transform="matrix(0.08641975308641976,0,0,0.08641975308641976,17.283950617283953,0)" xlink:href="#aq"/><use transform="matrix(0.08641975308641976,0,0,0.08641975308641976,39.66666666666667,0)" xlink:href="#R"/><use transform="matrix(0.08641975308641976,0,0,0.08641975308641976,56.95061728395062,0)" xlink:href="#V"/></g><g id="H"><use transform="matrix(0.08641975308641976,0,0,0.08641975308641976,0,0)" xlink:href="#W"/><use transform="matrix(0.08641975308641976,0,0,0.08641975308641976,6.8271604938271615,0)" xlink:href="#S"/><use transform="matrix(0.08641975308641976,0,0,0.08641975308641976,15.469135802469138,0)" xlink:href="#V"/></g><g id="I"><use transform="matrix(0.08641975308641976,0,0,0.08641975308641976,0,0)" xlink:href="#V"/><use transform="matrix(0.08641975308641976,0,0,0.08641975308641976,15.555555555555557,0)" xlink:href="#S"/><use transform="matrix(0.08641975308641976,0,0,0.08641975308641976,24.19753086419753,0)" xlink:href="#L"/><use transform="matrix(0.08641975308641976,0,0,0.08641975308641976,41.48148148148148,0)" xlink:href="#S"/><use transform="matrix(0.08641975308641976,0,0,0.08641975308641976,50.123456790123456,0)" xlink:href="#N"/></g></defs></g></svg>