<svg xmlns="http://www.w3.org/2000/svg" xmlns:xlink="http://www.w3.org/1999/xlink" xmlns:lucid="lucid" width="1303" height="252.21"><g transform="translate(-338.5 -558.5)" lucid:page-tab-id="0_0"><path d="M340 580a20 20 0 0 1 20-20h20a20 20 0 0 1 20 20v100a20 20 0 0 1-20 20h-20a20 20 0 0 1-20-20z" stroke="#000" stroke-width="3" fill="url(#a)"/><path d="M460 580a20 20 0 0 1 20-20h20a20 20 0 0 1 20 20v100a20 20 0 0 1-20 20h-20a20 20 0 0 1-20-20z" stroke="#000" stroke-width="3" fill="url(#b)"/><path d="M580 580a20 20 0 0 1 20-20h20a20 20 0 0 1 20 20v100a20 20 0 0 1-20 20h-20a20 20 0 0 1-20-20z" stroke="#000" stroke-width="3" fill="url(#c)"/><path d="M612 715.66v27.26M608 715.66v27.26M600 720.82l10-17.32 10 17.32m-10-17.32v8.5M620 737.76l-10 17.32-10-17.32m10 17.32v-8.5" stroke="#000" stroke-width="2" fill="none"/><path d="M340 778.58a20 20 0 0 1 20-20h260a20 20 0 0 1 20 20 20 20 0 0 1-20 20H360a20 20 0 0 1-20-20z" stroke="#000" stroke-width="3" fill="#fff"/><use xlink:href="#d" transform="matrix(1,0,0,1,345,763.5826771653544) translate(90.005 21.430555555555557)"/><use xlink:href="#e" transform="matrix(1,0,0,1,345,763.5826771653544) translate(159.26425925925926 21.430555555555557)"/><path d="M492 715.66v27.26M488 715.66v27.26M480 720.82l10-17.32 10 17.32m-10-17.32v8.5M500 737.76l-10 17.32-10-17.32m10 17.32v-8.5M372 715.66v27.26M368 715.66v27.26M360 720.82l10-17.32 10 17.32m-10-17.32v8.5M380 737.76l-10 17.32-10-17.32m10 17.32v-8.5" stroke="#000" stroke-width="2" fill="none"/><path d="M1340 580a20 20 0 0 1 20-20h20a20 20 0 0 1 20 20v100a20 20 0 0 1-20 20h-20a20 20 0 0 1-20-20z" stroke="#000" stroke-width="3" fill="url(#f)"/><path d="M1460 580a20 20 0 0 1 20-20h20a20 20 0 0 1 20 20v100a20 20 0 0 1-20 20h-20a20 20 0 0 1-20-20z" stroke="#000" stroke-width="3" fill="url(#g)"/><path d="M1580 580a20 20 0 0 1 20-20h20a20 20 0 0 1 20 20v100a20 20 0 0 1-20 20h-20a20 20 0 0 1-20-20z" stroke="#000" stroke-width="3" fill="url(#h)"/><path d="M1610 702.5v36.08" stroke="#000" stroke-width="2" fill="none"/><path d="M1610.97 702.53h-1.94v-1.03h1.94z" stroke="#000" stroke-width=".05"/><path d="M1610 753.85l-4.63-14.27h9.27z" stroke="#000" stroke-width="2"/><path d="M1340 778.58a20 20 0 0 1 20-20h260a20 20 0 0 1 20 20 20 20 0 0 1-20 20h-260a20 20 0 0 1-20-20z" stroke="#000" stroke-width="3" fill="#ced4db"/><use xlink:href="#d" transform="matrix(1,0,0,1,1345.0000000052567,763.5826771653544) translate(81.2117901234568 21.430555555555557)"/><use xlink:href="#i" transform="matrix(1,0,0,1,1345.0000000052567,763.5826771653544) translate(150.47104938271605 21.430555555555557)"/><path d="M1490 702.5v36.08" stroke="#000" stroke-width="2" fill="none"/><path d="M1490.97 702.53h-1.94v-1.03h1.94z" stroke="#000" stroke-width=".05"/><path d="M1490 753.85l-4.63-14.27h9.27z" stroke="#000" stroke-width="2"/><path d="M1370 702.5v36.08" stroke="#000" stroke-width="2" fill="none"/><path d="M1370.97 702.53h-1.94v-1.03h1.94z" stroke="#000" stroke-width=".05"/><path d="M1370 753.85l-4.64-14.27h9.28z" stroke="#000" stroke-width="2"/><path d="M1415.66 628h28.68M1415.66 632h28.68M1420.82 640l-17.32-10 17.32-10m-17.32 10h8.5M1439.18 620l17.32 10-17.32 10m17.32-10h-8.5M1535.66 628h28.68M1535.66 632h28.68M1540.82 640l-17.32-10 17.32-10m-17.32 10h8.5M1559.18 620l17.32 10-17.32 10m17.32-10h-8.5" stroke="#000" stroke-width="2" fill="none"/><path d="M700 756.7a6 6 0 0 1 6-6h32a6 6 0 0 0 6-6v-8a2.3 2.3 0 0 1 4-1.53l28 31.08a6.67 6.67 0 0 1 0 8.92l-28 31.08a2.3 2.3 0 0 1-4-1.54v-8a6 6 0 0 0-6-6h-32a6 6 0 0 1-6-6z" fill="#fc9432"/><path d="M840 580a20 20 0 0 1 20-20h20a20 20 0 0 1 20 20v80a20 20 0 0 1-20 20h-20a20 20 0 0 1-20-20z" stroke="#000" stroke-width="3" fill="url(#j)"/><path d="M960 580a20 20 0 0 1 20-20h20a20 20 0 0 1 20 20v80a20 20 0 0 1-20 20h-20a20 20 0 0 1-20-20z" stroke="#000" stroke-width="3" fill="url(#k)"/><path d="M1080 580a20 20 0 0 1 20-20h20a20 20 0 0 1 20 20v80a20 20 0 0 1-20 20h-20a20 20 0 0 1-20-20z" stroke="#000" stroke-width="3" fill="url(#l)"/><path d="M1112 695.66v28.68M1108 695.66v28.68M1100 700.82l10-17.32 10 17.32m-10-17.32v8.5M1120 719.18l-10 17.32-10-17.32m10 17.32V728" stroke="#000" stroke-width="2" fill="none"/><path d="M840 760a20 20 0 0 1 20-20h260a20 20 0 0 1 20 20v21.42a20 20 0 0 1-20 20H860a20 20 0 0 1-20-20z" stroke="#000" stroke-width="3" fill="url(#m)"/><use xlink:href="#n" transform="matrix(1,0,0,1,845,745) translate(10.962962962962933 29.305555555555557)"/><use xlink:href="#o" transform="matrix(1,0,0,1,845,745) translate(96.4506172839506 29.305555555555557)"/><use xlink:href="#p" transform="matrix(1,0,0,1,845,745) translate(165.70987654320987 29.305555555555557)"/><path d="M992 695.66v28.68M988 695.66v28.68M980 700.82l10-17.32 10 17.32m-10-17.32v8.5M1000 719.18l-10 17.32-10-17.32m10 17.32V728M872 695.66v28.68M868 695.66v28.68M860 700.82l10-17.32 10 17.32m-10-17.32v8.5M880 719.18l-10 17.32-10-17.32m10 17.32V728" stroke="#000" stroke-width="2" fill="none"/><path d="M1280 756.7a6 6 0 0 0-6-6h-32a6 6 0 0 1-6-6v-8a2.3 2.3 0 0 0-4-1.53l-28 31.08a6.67 6.67 0 0 0 0 8.92l28 31.08a2.3 2.3 0 0 0 4-1.54v-8a6 6 0 0 1 6-6h32a6 6 0 0 0 6-6z" fill="#fc9432"/><defs><linearGradient gradientUnits="userSpaceOnUse" id="a" x1="340" y1="700" x2="340" y2="560"><stop offset="19.2%" stop-color="#ced4db"/><stop offset="26.45%" stop-color="#fff"/><stop offset="34.06%" stop-color="#fff"/><stop offset="42.03%" stop-color="#cfe4ff"/><stop offset="68.84%" stop-color="#cfe4ff"/><stop offset="78.62%" stop-color="#c3f7c8"/></linearGradient><linearGradient gradientUnits="userSpaceOnUse" id="b" x1="460" y1="700" x2="460" y2="560"><stop offset="19.2%" stop-color="#ced4db"/><stop offset="26.45%" stop-color="#fff"/><stop offset="34.06%" stop-color="#fff"/><stop offset="42.03%" stop-color="#cfe4ff"/><stop offset="68.84%" stop-color="#cfe4ff"/><stop offset="78.62%" stop-color="#c3f7c8"/></linearGradient><linearGradient gradientUnits="userSpaceOnUse" id="c" x1="580" y1="700" x2="580" y2="560"><stop offset="19.2%" stop-color="#ced4db"/><stop offset="26.45%" stop-color="#fff"/><stop offset="34.06%" stop-color="#fff"/><stop offset="42.03%" stop-color="#cfe4ff"/><stop offset="68.84%" stop-color="#cfe4ff"/><stop offset="78.62%" stop-color="#c3f7c8"/></linearGradient><path d="M30 0v-248h187v28H63v79h144v27H63v87h162V0H30" id="q"/><path d="M108 0H70L1-190h34L89-25l56-165h34" id="r"/><path d="M100-194c63 0 86 42 84 106H49c0 40 14 67 53 68 26 1 43-12 49-29l28 8c-11 28-37 45-77 45C44 4 14-33 15-96c1-61 26-98 85-98zm52 81c6-60-76-77-97-28-3 7-6 17-6 28h103" id="s"/><path d="M117-194c89-4 53 116 60 194h-32v-121c0-31-8-49-39-48C34-167 62-67 57 0H25l-1-190h30c1 10-1 24 2 32 11-22 29-35 61-36" id="t"/><path d="M59-47c-2 24 18 29 38 22v24C64 9 27 4 27-40v-127H5v-23h24l9-43h21v43h35v23H59v120" id="u"/><g id="d"><use transform="matrix(0.06790123456790124,0,0,0.06790123456790124,0,0)" xlink:href="#q"/><use transform="matrix(0.06790123456790124,0,0,0.06790123456790124,16.296296296296298,0)" xlink:href="#r"/><use transform="matrix(0.06790123456790124,0,0,0.06790123456790124,28.51851851851852,0)" xlink:href="#s"/><use transform="matrix(0.06790123456790124,0,0,0.06790123456790124,42.098765432098766,0)" xlink:href="#t"/><use transform="matrix(0.06790123456790124,0,0,0.06790123456790124,55.67901234567901,0)" xlink:href="#u"/></g><path d="M30 0v-248h33v221h125V0H30" id="v"/><path d="M100-194c62-1 85 37 85 99 1 63-27 99-86 99S16-35 15-95c0-66 28-99 85-99zM99-20c44 1 53-31 53-75 0-43-8-75-51-75s-53 32-53 75 10 74 51 75" id="w"/><path d="M177-190C167-65 218 103 67 71c-23-6-38-20-44-43l32-5c15 47 100 32 89-28v-30C133-14 115 1 83 1 29 1 15-40 15-95c0-56 16-97 71-98 29-1 48 16 59 35 1-10 0-23 2-32h30zM94-22c36 0 50-32 50-73 0-42-14-75-50-75-39 0-46 34-46 75s6 73 46 73" id="x"/><g id="e"><use transform="matrix(0.06790123456790124,0,0,0.06790123456790124,0,0)" xlink:href="#v"/><use transform="matrix(0.06790123456790124,0,0,0.06790123456790124,13.580246913580249,0)" xlink:href="#w"/><use transform="matrix(0.06790123456790124,0,0,0.06790123456790124,27.160493827160497,0)" xlink:href="#x"/></g><linearGradient gradientUnits="userSpaceOnUse" id="f" x1="1340" y1="700" x2="1340" y2="560"><stop offset="19.93%" stop-color="#fff"/><stop offset="27.17%" stop-color="#cfe4ff"/><stop offset="68.12%" stop-color="#cfe4ff"/><stop offset="75%" stop-color="#c3f7c8"/></linearGradient><linearGradient gradientUnits="userSpaceOnUse" id="g" x1="1460" y1="700" x2="1460" y2="560"><stop offset="19.93%" stop-color="#fff"/><stop offset="27.17%" stop-color="#cfe4ff"/><stop offset="68.12%" stop-color="#cfe4ff"/><stop offset="75%" stop-color="#c3f7c8"/></linearGradient><linearGradient gradientUnits="userSpaceOnUse" id="h" x1="1580" y1="700" x2="1580" y2="560"><stop offset="19.93%" stop-color="#fff"/><stop offset="27.17%" stop-color="#cfe4ff"/><stop offset="68.12%" stop-color="#cfe4ff"/><stop offset="75%" stop-color="#c3f7c8"/></linearGradient><path d="M185-189c-5-48-123-54-124 2 14 75 158 14 163 119 3 78-121 87-175 55-17-10-28-26-33-46l33-7c5 56 141 63 141-1 0-78-155-14-162-118-5-82 145-84 179-34 5 7 8 16 11 25" id="y"/><path d="M114-163C36-179 61-72 57 0H25l-1-190h30c1 12-1 29 2 39 6-27 23-49 58-41v29" id="z"/><g id="i"><use transform="matrix(0.06790123456790124,0,0,0.06790123456790124,0,0)" xlink:href="#y"/><use transform="matrix(0.06790123456790124,0,0,0.06790123456790124,16.296296296296298,0)" xlink:href="#u"/><use transform="matrix(0.06790123456790124,0,0,0.06790123456790124,23.08641975308642,0)" xlink:href="#w"/><use transform="matrix(0.06790123456790124,0,0,0.06790123456790124,36.66666666666667,0)" xlink:href="#z"/><use transform="matrix(0.06790123456790124,0,0,0.06790123456790124,44.74691358024692,0)" xlink:href="#s"/></g><linearGradient gradientUnits="userSpaceOnUse" id="j" x1="840" y1="680" x2="840" y2="560"><stop offset="6.52%" stop-color="#fff"/><stop offset="15.58%" stop-color="#cfe4ff"/><stop offset="57.61%" stop-color="#cfe4ff"/><stop offset="67.03%" stop-color="#c3f7c8"/></linearGradient><linearGradient gradientUnits="userSpaceOnUse" id="k" x1="960" y1="680" x2="960" y2="560"><stop offset="6.52%" stop-color="#fff"/><stop offset="15.58%" stop-color="#cfe4ff"/><stop offset="57.61%" stop-color="#cfe4ff"/><stop offset="67.03%" stop-color="#c3f7c8"/></linearGradient><linearGradient gradientUnits="userSpaceOnUse" id="l" x1="1080" y1="680" x2="1080" y2="560"><stop offset="6.52%" stop-color="#fff"/><stop offset="15.58%" stop-color="#cfe4ff"/><stop offset="57.61%" stop-color="#cfe4ff"/><stop offset="67.03%" stop-color="#c3f7c8"/></linearGradient><linearGradient gradientUnits="userSpaceOnUse" id="m" x1="840" y1="740" x2="840" y2="801.42"><stop offset="39.13%" stop-color="#fff"/><stop offset="56.16%" stop-color="#ced4db"/></linearGradient><path d="M106-169C34-169 62-67 57 0H25v-261h32l-1 103c12-21 28-36 61-36 89 0 53 116 60 194h-32v-121c2-32-8-49-39-48" id="A"/><path d="M141-36C126-15 110 5 73 4 37 3 15-17 15-53c-1-64 63-63 125-63 3-35-9-54-41-54-24 1-41 7-42 31l-33-3c5-37 33-52 76-52 45 0 72 20 72 64v82c-1 20 7 32 28 27v20c-31 9-61-2-59-35zM48-53c0 20 12 33 32 33 41-3 63-29 60-74-43 2-92-5-92 41" id="B"/><path d="M85-194c31 0 48 13 60 33l-1-100h32l1 261h-30c-2-10 0-23-3-31C134-8 116 4 85 4 32 4 16-35 15-94c0-66 23-100 70-100zm9 24c-40 0-46 34-46 75 0 40 6 74 45 74 42 0 51-32 51-76 0-42-9-74-50-73" id="C"/><g id="n"><use transform="matrix(0.06790123456790124,0,0,0.06790123456790124,0,0)" xlink:href="#y"/><use transform="matrix(0.06790123456790124,0,0,0.06790123456790124,16.296296296296298,0)" xlink:href="#A"/><use transform="matrix(0.06790123456790124,0,0,0.06790123456790124,29.876543209876544,0)" xlink:href="#B"/><use transform="matrix(0.06790123456790124,0,0,0.06790123456790124,43.45679012345679,0)" xlink:href="#z"/><use transform="matrix(0.06790123456790124,0,0,0.06790123456790124,51.53703703703704,0)" xlink:href="#s"/><use transform="matrix(0.06790123456790124,0,0,0.06790123456790124,65.11728395061729,0)" xlink:href="#C"/></g><g id="o"><use transform="matrix(0.06790123456790124,0,0,0.06790123456790124,0,0)" xlink:href="#q"/><use transform="matrix(0.06790123456790124,0,0,0.06790123456790124,16.296296296296298,0)" xlink:href="#r"/><use transform="matrix(0.06790123456790124,0,0,0.06790123456790124,28.51851851851852,0)" xlink:href="#s"/><use transform="matrix(0.06790123456790124,0,0,0.06790123456790124,42.098765432098766,0)" xlink:href="#t"/><use transform="matrix(0.06790123456790124,0,0,0.06790123456790124,55.67901234567901,0)" xlink:href="#u"/></g><path d="M118-107v75H92v-75H18v-26h74v-75h26v75h74v26h-74" id="D"/><g id="p"><use transform="matrix(0.06790123456790124,0,0,0.06790123456790124,0,0)" xlink:href="#v"/><use transform="matrix(0.06790123456790124,0,0,0.06790123456790124,13.580246913580249,0)" xlink:href="#w"/><use transform="matrix(0.06790123456790124,0,0,0.06790123456790124,27.160493827160497,0)" xlink:href="#x"/><use transform="matrix(0.06790123456790124,0,0,0.06790123456790124,40.74074074074075,0)" xlink:href="#D"/><use transform="matrix(0.06790123456790124,0,0,0.06790123456790124,55.00000000000001,0)" xlink:href="#y"/><use transform="matrix(0.06790123456790124,0,0,0.06790123456790124,71.2962962962963,0)" xlink:href="#u"/><use transform="matrix(0.06790123456790124,0,0,0.06790123456790124,78.08641975308643,0)" xlink:href="#w"/><use transform="matrix(0.06790123456790124,0,0,0.06790123456790124,91.66666666666669,0)" xlink:href="#z"/><use transform="matrix(0.06790123456790124,0,0,0.06790123456790124,99.74691358024694,0)" xlink:href="#s"/></g></defs></g></svg>