<svg xmlns="http://www.w3.org/2000/svg" xmlns:xlink="http://www.w3.org/1999/xlink" xmlns:lucid="lucid" width="843" height="223.5"><g transform="translate(-458.5 -558.5)" lucid:page-tab-id="0_0"><path d="M760 680.5a20 20 0 0 1 20-20h20a20 20 0 0 1 20 20v80a20 20 0 0 1-20 20h-20a20 20 0 0 1-20-20z" stroke="#008a0e" stroke-width="3" fill="url(#a)"/><path d="M860 680.5a20 20 0 0 1 20-20h20a20 20 0 0 1 20 20v80a20 20 0 0 1-20 20h-20a20 20 0 0 1-20-20z" stroke="#82755b" stroke-width="3" fill="url(#b)"/><path d="M960 680.5a20 20 0 0 1 20-20h20a20 20 0 0 1 20 20v80a20 20 0 0 1-20 20h-20a20 20 0 0 1-20-20z" stroke="#1071e5" stroke-width="3" fill="url(#c)"/><path d="M760 580a20 20 0 0 1 20-20h220a20 20 0 0 1 20 20 20 20 0 0 1-20 20H780a20 20 0 0 1-20-20z" stroke="#000" stroke-width="3" fill="#e8e2c8"/><use xlink:href="#d" transform="matrix(1,0,0,1,765,565) translate(93.87228395061729 21.430555555555557)"/><path d="M782.67 602.5v41.84M778.67 602.5v41.84" stroke="#ba23f6" stroke-width="2" fill="none"/><path d="M783.64 602.53h-1.95v-1.03h1.94zM779.64 601.48v1.05h-1.95v-1.2z" stroke="#ba23f6" stroke-width=".05" fill="#ba23f6"/><path d="M790.67 639.18l-10 17.32-10-17.32m10 17.32V648M998.73 658.05V615.6M1002.73 658.05V615.6" stroke="#ba23f6" stroke-width="2" fill="none"/><path d="M999.7 658.03v.97h-1.95v-.97zM1003.7 658.03v1.3l-.34-.07-1.6-.13v-1.1z" stroke="#ba23f6" stroke-width=".05" fill="#ba23f6"/><path d="M990.73 620.77l10-17.32 10 17.32m-10-17.32v8.5M822.5 719.33h21.84M822.5 723.33h21.84" stroke="#ba23f6" stroke-width="2" fill="none"/><path d="M822.53 720.3h-1.03v-1.94h1.03zM822.53 724.3h-1.03v-1.94h1.03z" stroke="#ba23f6" stroke-width=".05" fill="#ba23f6"/><path d="M839.18 711.33l17.32 10-17.32 10m17.32-10H848M922.5 718.5h21.84M922.5 722.5h21.84" stroke="#ba23f6" stroke-width="2" fill="none"/><path d="M922.53 719.48h-1.03v-1.96h1.03zM922.53 723.48h-1.03v-1.96h1.03z" stroke="#ba23f6" stroke-width=".05" fill="#ba23f6"/><path d="M939.18 710.5l17.32 10-17.32 10m17.32-10H948" stroke="#ba23f6" stroke-width="2" fill="none"/><path d="M862.44 720.5a1.5 1.5 0 0 1 1.5-1.5 1.5 1.5 0 0 1 1.5 1.5 1.5 1.5 0 0 1-1.5 1.5 1.5 1.5 0 0 1-1.5-1.5" fill="#82755b"/><path d="M879.7 720.5l-14.26 4.63v-9.26z" stroke="#82755b" stroke-width="3" fill="#fff"/><path d="M860.04 721.98h-1.54V719h1.54z" stroke="#82755b" stroke-width=".05" fill="#82755b"/><path d="M460 566a6 6 0 0 1 6-6h208a6 6 0 0 1 6 6v128.5a6 6 0 0 1-6 6H466a6 6 0 0 1-6-6z" stroke="#000" stroke-opacity="0" stroke-width="3" fill="#fff" fill-opacity="0"/><use xlink:href="#e" transform="matrix(1,0,0,1,465,565) translate(39.11111111111114 25.42708333333333)"/><use xlink:href="#f" transform="matrix(1,0,0,1,465,565) translate(62.81481481481484 25.42708333333333)"/><use xlink:href="#g" transform="matrix(1,0,0,1,465,565) translate(0.7037037037037521 57.42708333333332)"/><use xlink:href="#h" transform="matrix(1,0,0,1,465,565) translate(96.85185185185186 57.42708333333332)"/><use xlink:href="#i" transform="matrix(1,0,0,1,465,565) translate(156.1111111111111 57.42708333333332)"/><use xlink:href="#j" transform="matrix(1,0,0,1,465,565) translate(23.629629629629676 89.42708333333331)"/><use xlink:href="#k" transform="matrix(1,0,0,1,465,565) translate(68.0740740740741 89.42708333333331)"/><use xlink:href="#l" transform="matrix(1,0,0,1,465,565) translate(173.1111111111111 89.42708333333331)"/><use xlink:href="#m" transform="matrix(1,0,0,1,465,565) translate(62.7777777777778 121.4270833333333)"/><path d="M776.7 709.37l-2.38-1.97m-3.2-2.6l-4.8-3.94m-3.2-2.6l-4.8-3.94m-3.2-2.6l-4.8-3.94m-3.2-2.6l-4.78-3.94m-3.2-2.6l-4.8-3.94m-3.2-2.6l-4.8-3.94m-3.2-2.6l-4.8-3.94m-3.2-2.6l-4.78-3.94m-3.2-2.6l-4.8-3.94m-3.2-2.6l-4.8-3.94m-3.2-2.6l-4.8-3.94m-3.2-2.62l-2.4-1.96" stroke="#3a414a" stroke-width="2" fill="none"/><path d="M777.64 708.86l-.16 1.16.23 1.43-1.62-1.35 1.23-1.5zM681.4 630.14l-1.22 1.5-.18-.13V629z" stroke="#3a414a" stroke-width=".05" fill="#3a414a"/><path d="M800 570c0 5.52-4.48 10-10 10s-10-4.48-10-10 4.48-10 10-10 10 4.48 10 10z" stroke="#fcce14" stroke-width="3" fill="#ba23f6"/><path d="M800 590c0 5.52-4.48 10-10 10s-10-4.48-10-10 4.48-10 10-10 10 4.48 10 10zM780 590c0 5.52-4.48 10-10 10s-10-4.48-10-10 4.48-10 10-10 10 4.48 10 10zM780 570c0 5.52-4.48 10-10 10s-10-4.48-10-10 4.48-10 10-10 10 4.48 10 10z" stroke="#fcce14" stroke-width="3" fill-opacity="0"/><path d="M819 710c0 5.52-4.48 10-10 10s-10-4.48-10-10 4.48-10 10-10 10 4.48 10 10z" stroke="#fcce14" stroke-width="3" fill="#ba23f6"/><path d="M819 730c0 5.52-4.48 10-10 10s-10-4.48-10-10 4.48-10 10-10 10 4.48 10 10zM799 730c0 5.52-4.48 10-10 10s-10-4.48-10-10 4.48-10 10-10 10 4.48 10 10z" stroke="#fcce14" stroke-width="3" fill-opacity="0"/><path d="M799 710c0 5.52-4.48 10-10 10s-10-4.48-10-10 4.48-10 10-10 10 4.48 10 10z" stroke="#fcce14" stroke-width="3" fill="#008a0e"/><path d="M791.32 690.88a1.5 1.5 0 0 1 1.5-1.5 1.5 1.5 0 0 1 1.5 1.5 1.5 1.5 0 0 1-1.5 1.5 1.5 1.5 0 0 1-1.5-1.5v-.03m-2.45-6.06v-.03a1.5 1.5 0 0 1 1.5-1.5 1.5 1.5 0 0 1 1.5 1.5 1.5 1.5 0 0 1-1.5 1.5 1.5 1.5 0 0 1-1.5-1.5m-2.46-6.08v-.02a1.5 1.5 0 0 1 1.5-1.5 1.5 1.5 0 0 1 1.5 1.5 1.5 1.5 0 0 1-1.5 1.5 1.5 1.5 0 0 1-1.5-1.5v-.02m-2.44-6.06v-.02a1.5 1.5 0 0 1 1.5-1.5 1.5 1.5 0 0 1 1.5 1.5 1.5 1.5 0 0 1-1.5 1.5 1.5 1.5 0 0 1-1.5-1.5m-2.45-6.08a1.5 1.5 0 0 1 1.5-1.5 1.5 1.5 0 0 1 1.5 1.5 1.5 1.5 0 0 1-1.5 1.5 1.5 1.5 0 0 1-1.5-1.5v-.03" fill="#008a0e"/><path d="M798.7 705.5l-9.62-11.5 8.6-3.47z" stroke="#008a0e" stroke-width="3" fill="#fff"/><path d="M781.94 659.88l-2.73 1.1-.74-1.86 1.48-.12h1.65z" stroke="#008a0e" stroke-width=".05" fill="#008a0e"/><path d="M920 710.5c0 5.52-4.48 10-10 10s-10-4.48-10-10 4.48-10 10-10 10 4.48 10 10z" stroke="#fcce14" stroke-width="3" fill="#ba23f6"/><path d="M920 730.5c0 5.52-4.48 10-10 10s-10-4.48-10-10 4.48-10 10-10 10 4.48 10 10z" stroke="#fcce14" stroke-width="3" fill-opacity="0"/><path d="M900 730.5c0 5.52-4.48 10-10 10s-10-4.48-10-10 4.48-10 10-10 10 4.48 10 10z" stroke="#fcce14" stroke-width="3" fill="#82755b"/><path d="M900 710.5c0 5.52-4.48 10-10 10s-10-4.48-10-10 4.48-10 10-10 10 4.48 10 10z" stroke="#fcce14" stroke-width="3" fill="#008a0e"/><path d="M1020 670.5c0 5.52-4.48 10-10 10s-10-4.48-10-10 4.48-10 10-10 10 4.48 10 10z" stroke="#fcce14" stroke-width="3" fill="#ba23f6"/><path d="M1020 690.5c0 5.52-4.48 10-10 10s-10-4.48-10-10 4.48-10 10-10 10 4.48 10 10z" stroke="#fcce14" stroke-width="3" fill="#1071e5"/><path d="M1000 690.5c0 5.52-4.48 10-10 10s-10-4.48-10-10 4.48-10 10-10 10 4.48 10 10z" stroke="#fcce14" stroke-width="3" fill="#82755b"/><path d="M1000 670.5c0 5.52-4.48 10-10 10s-10-4.48-10-10 4.48-10 10-10 10 4.48 10 10z" stroke="#fcce14" stroke-width="3" fill="#008a0e"/><path d="M1020 570c0 5.52-4.48 10-10 10s-10-4.48-10-10 4.48-10 10-10 10 4.48 10 10z" stroke="#fcce14" stroke-width="3" fill="#ba23f6"/><path d="M1020 590c0 5.52-4.48 10-10 10s-10-4.48-10-10 4.48-10 10-10 10 4.48 10 10z" stroke="#fcce14" stroke-width="3" fill="#1071e5"/><path d="M1000 590c0 5.52-4.48 10-10 10s-10-4.48-10-10 4.48-10 10-10 10 4.48 10 10z" stroke="#fcce14" stroke-width="3" fill="#82755b"/><path d="M1000 570c0 5.52-4.48 10-10 10s-10-4.48-10-10 4.48-10 10-10 10 4.48 10 10z" stroke="#fcce14" stroke-width="3" fill="#008a0e"/><path d="M982.36 708.07v-.02a1.5 1.5 0 0 1 1.5-1.5 1.5 1.5 0 0 1 1.5 1.5 1.5 1.5 0 0 1-1.5 1.5 1.5 1.5 0 0 1-1.5-1.5m-6 2.96a1.5 1.5 0 0 1 1.5-1.5 1.5 1.5 0 0 1 1.5 1.5 1.5 1.5 0 0 1-1.5 1.5 1.5 1.5 0 0 1-1.5-1.5v-.02m-6 2.98a1.5 1.5 0 0 1 1.5-1.5 1.5 1.5 0 0 1 1.5 1.5 1.5 1.5 0 0 1-1.5 1.5 1.5 1.5 0 0 1-1.5-1.5v-.03m-6 2.98a1.5 1.5 0 0 1 1.5-1.5 1.5 1.5 0 0 1 1.5 1.5 1.5 1.5 0 0 1-1.5 1.5 1.5 1.5 0 0 1-1.5-1.5v-.02m-6 2.97a1.5 1.5 0 0 1 1.5-1.5 1.5 1.5 0 0 1 1.5 1.5 1.5 1.5 0 0 1-1.5 1.5 1.5 1.5 0 0 1-1.5-1.5v-.03" fill="#1071e5"/><path d="M998 701.1l-10.75 10.45-4.1-8.32z" stroke="#1071e5" stroke-width="3" fill="#fff"/><path d="M960.53 721.15l-2.03 1v-3.3l.73-.35z" stroke="#1071e5" stroke-width=".05" fill="#1071e5"/><path d="M877.6 730.05l-2.7-1.36m-3.56-1.8l-5.37-2.72m-3.58-1.8l-5.37-2.72m-3.58-1.8l-5.36-2.7m-3.6-1.82l-5.35-2.7m-3.58-1.8l-5.36-2.73m-3.57-1.8l-5.36-2.7m-3.58-1.8l-5.38-2.72m-3.57-1.8l-5.37-2.7m-3.57-1.82l-5.36-2.7m-3.57-1.8l-5.37-2.72m-3.57-1.8l-5.37-2.72m-3.57-1.8l-5.38-2.72m-3.58-1.8l-5.36-2.7m-3.58-1.82l-5.36-2.7m-3.58-1.8l-5.36-2.72m-3.58-1.8l-5.36-2.72m-3.58-1.8l-5.37-2.72m-3.56-1.8l-5.37-2.7m-3.57-1.82l-5.37-2.7m-3.57-1.8l-5.37-2.72m-3.58-1.8l-5.37-2.72m-3.57-1.8l-2.7-1.36" stroke="#3a414a" stroke-width="2" fill="none"/><path d="M878.62 729.48l-.14 1.04.2 1.17-1.55-.8.88-1.73zM681.36 629.84l-.88 1.74-.48-.24v-2.18z" stroke="#3a414a" stroke-width=".05" fill="#3a414a"/><path d="M997.5 690.3l-2.96-.55m-3.96-.75l-5.93-1.12m-3.96-.75l-5.95-1.12m-3.95-.74l-5.94-1.12m-3.95-.75l-5.93-1.13m-3.96-.75l-5.92-1.12m-3.96-.75l-5.93-1.12m-3.97-.75l-5.93-1.13m-3.96-.74l-5.93-1.12m-3.95-.75l-5.94-1.12m-3.94-.74l-5.94-1.12m-3.95-.75l-5.94-1.13m-3.95-.75l-5.94-1.12m-3.96-.75l-5.93-1.12m-3.96-.75l-5.94-1.12m-3.96-.75l-5.93-1.12m-3.96-.74l-5.92-1.13m-3.96-.73l-5.94-1.13m-3.95-.75l-5.94-1.13m-3.96-.75l-5.94-1.12m-3.95-.75l-5.94-1.12m-3.95-.75l-5.93-1.12m-3.96-.75l-5.93-1.1m-3.96-.76l-5.93-1.13m-3.96-.73l-5.93-1.13m-3.96-.74l-5.95-1.13m-3.95-.75l-5.94-1.12m-3.95-.75l-5.93-1.12m-3.96-.75l-5.92-1.12m-3.96-.75l-5.93-1.1m-3.97-.76l-5.93-1.12m-3.96-.75l-5.93-1.12m-3.95-.75l-2.97-.56" stroke="#3a414a" stroke-width="2" fill="none"/><path d="M998.6 689.53l-.12 1 .16 1-1.34-.26.36-1.92zM681.2 629.48l-.37 1.92-.83-.16v-1.98z" stroke="#3a414a" stroke-width=".05" fill="#3a414a"/><path d="M1100 645.75a6 6 0 0 1 6-6h188a6 6 0 0 1 6 6v128.5a6 6 0 0 1-6 6h-188a6 6 0 0 1-6-6z" stroke="#000" stroke-opacity="0" stroke-width="3" fill="#fff" fill-opacity="0"/><g><use xlink:href="#n" transform="matrix(1,0,0,1,1105,644.7499750000023) translate(7.000000000000028 25.42708333333333)"/><use xlink:href="#o" transform="matrix(1,0,0,1,1105,644.7499750000023) translate(64.62962962962963 25.42708333333333)"/><use xlink:href="#p" transform="matrix(1,0,0,1,1105,644.7499750000023) translate(134.18518518518516 25.42708333333333)"/><use xlink:href="#q" transform="matrix(1,0,0,1,1105,644.7499750000023) translate(169.7407407407407 25.42708333333333)"/><use xlink:href="#r" transform="matrix(1,0,0,1,1105,644.7499750000023) translate(23.96296296296299 57.42708333333332)"/><use xlink:href="#s" transform="matrix(1,0,0,1,1105,644.7499750000023) translate(68.40740740740742 57.42708333333332)"/><use xlink:href="#t" transform="matrix(1,0,0,1,1105,644.7499750000023) translate(9.296296296296347 89.42708333333331)"/><use xlink:href="#u" transform="matrix(1,0,0,1,1105,644.7499750000023) translate(74.33333333333336 89.42708333333331)"/><use xlink:href="#v" transform="matrix(1,0,0,1,1105,644.7499750000023) translate(158.48148148148147 89.42708333333331)"/><use xlink:href="#w" transform="matrix(1,0,0,1,1105,644.7499750000023) translate(3.9629629629630045 121.4270833333333)"/><use xlink:href="#x" transform="matrix(1,0,0,1,1105,644.7499750000023) translate(26.185185185185215 121.4270833333333)"/><use xlink:href="#y" transform="matrix(1,0,0,1,1105,644.7499750000023) translate(114.99999999999999 121.4270833333333)"/></g><defs><linearGradient gradientUnits="userSpaceOnUse" id="a" x1="760" y1="780.5" x2="760" y2="660.5"><stop offset="19.2%" stop-color="#ced4db"/><stop offset="26.45%" stop-color="#fff"/><stop offset="45.29%" stop-color="#fff"/><stop offset="52.54%" stop-color="#cfe4ff"/></linearGradient><linearGradient gradientUnits="userSpaceOnUse" id="b" x1="860" y1="780.5" x2="860" y2="660.5"><stop offset="19.2%" stop-color="#ced4db"/><stop offset="26.45%" stop-color="#fff"/><stop offset="45.29%" stop-color="#fff"/><stop offset="52.54%" stop-color="#cfe4ff"/></linearGradient><linearGradient gradientUnits="userSpaceOnUse" id="c" x1="960" y1="780.5" x2="960" y2="660.5"><stop offset="19.2%" stop-color="#ced4db"/><stop offset="26.45%" stop-color="#fff"/><stop offset="45.29%" stop-color="#fff"/><stop offset="52.54%" stop-color="#cfe4ff"/></linearGradient><path d="M212-179c-10-28-35-45-73-45-59 0-87 40-87 99 0 60 29 101 89 101 43 0 62-24 78-52l27 14C228-24 195 4 139 4 59 4 22-46 18-125c-6-104 99-153 187-111 19 9 31 26 39 46" id="z"/><path d="M24 0v-261h32V0H24" id="A"/><path d="M24-231v-30h32v30H24zM24 0v-190h32V0H24" id="B"/><path d="M100-194c63 0 86 42 84 106H49c0 40 14 67 53 68 26 1 43-12 49-29l28 8c-11 28-37 45-77 45C44 4 14-33 15-96c1-61 26-98 85-98zm52 81c6-60-76-77-97-28-3 7-6 17-6 28h103" id="C"/><path d="M117-194c89-4 53 116 60 194h-32v-121c0-31-8-49-39-48C34-167 62-67 57 0H25l-1-190h30c1 10-1 24 2 32 11-22 29-35 61-36" id="D"/><path d="M59-47c-2 24 18 29 38 22v24C64 9 27 4 27-40v-127H5v-23h24l9-43h21v43h35v23H59v120" id="E"/><g id="d"><use transform="matrix(0.06790123456790123,0,0,0.06790123456790123,0,0)" xlink:href="#z"/><use transform="matrix(0.06790123456790123,0,0,0.06790123456790123,17.586419753086417,0)" xlink:href="#A"/><use transform="matrix(0.06790123456790123,0,0,0.06790123456790123,22.950617283950614,0)" xlink:href="#B"/><use transform="matrix(0.06790123456790123,0,0,0.06790123456790123,28.31481481481481,0)" xlink:href="#C"/><use transform="matrix(0.06790123456790123,0,0,0.06790123456790123,41.895061728395056,0)" xlink:href="#D"/><use transform="matrix(0.06790123456790123,0,0,0.06790123456790123,55.4753086419753,0)" xlink:href="#E"/></g><path d="M205 0l-28-72H64L36 0H1l101-248h38L239 0h-34zm-38-99l-47-123c-12 45-31 82-46 123h93" id="F"/><use transform="matrix(0.07407407407407404,0,0,0.07407407407407404,0,0)" xlink:href="#F" id="e"/><path d="M210-169c-67 3-38 105-44 169h-31v-121c0-29-5-50-35-48C34-165 62-65 56 0H25l-1-190h30c1 10-1 24 2 32 10-44 99-50 107 0 11-21 27-35 58-36 85-2 47 119 55 194h-31v-121c0-29-5-49-35-48" id="G"/><path d="M135-143c-3-34-86-38-87 0 15 53 115 12 119 90S17 21 10-45l28-5c4 36 97 45 98 0-10-56-113-15-118-90-4-57 82-63 122-42 12 7 21 19 24 35" id="H"/><path d="M141-36C126-15 110 5 73 4 37 3 15-17 15-53c-1-64 63-63 125-63 3-35-9-54-41-54-24 1-41 7-42 31l-33-3c5-37 33-52 76-52 45 0 72 20 72 64v82c-1 20 7 32 28 27v20c-31 9-61-2-59-35zM48-53c0 20 12 33 32 33 41-3 63-29 60-74-43 2-92-5-92 41" id="I"/><path d="M177-190C167-65 218 103 67 71c-23-6-38-20-44-43l32-5c15 47 100 32 89-28v-30C133-14 115 1 83 1 29 1 15-40 15-95c0-56 16-97 71-98 29-1 48 16 59 35 1-10 0-23 2-32h30zM94-22c36 0 50-32 50-73 0-42-14-75-50-75-39 0-46 34-46 75s6 73 46 73" id="J"/><g id="f"><use transform="matrix(0.07407407407407404,0,0,0.07407407407407404,0,0)" xlink:href="#G"/><use transform="matrix(0.07407407407407404,0,0,0.07407407407407404,22.148148148148138,0)" xlink:href="#C"/><use transform="matrix(0.07407407407407404,0,0,0.07407407407407404,36.96296296296295,0)" xlink:href="#H"/><use transform="matrix(0.07407407407407404,0,0,0.07407407407407404,50.296296296296276,0)" xlink:href="#H"/><use transform="matrix(0.07407407407407404,0,0,0.07407407407407404,63.629629629629605,0)" xlink:href="#I"/><use transform="matrix(0.07407407407407404,0,0,0.07407407407407404,78.44444444444441,0)" xlink:href="#J"/><use transform="matrix(0.07407407407407404,0,0,0.07407407407407404,93.25925925925922,0)" xlink:href="#C"/></g><path d="M96-169c-40 0-48 33-48 73s9 75 48 75c24 0 41-14 43-38l32 2c-6 37-31 61-74 61-59 0-76-41-82-99-10-93 101-131 147-64 4 7 5 14 7 22l-32 3c-4-21-16-35-41-35" id="K"/><path d="M100-194c62-1 85 37 85 99 1 63-27 99-86 99S16-35 15-95c0-66 28-99 85-99zM99-20c44 1 53-31 53-75 0-43-8-75-51-75s-53 32-53 75 10 74 51 75" id="L"/><g id="g"><use transform="matrix(0.07407407407407404,0,0,0.07407407407407404,0,0)" xlink:href="#K"/><use transform="matrix(0.07407407407407404,0,0,0.07407407407407404,13.333333333333327,0)" xlink:href="#L"/><use transform="matrix(0.07407407407407404,0,0,0.07407407407407404,28.148148148148135,0)" xlink:href="#A"/><use transform="matrix(0.07407407407407404,0,0,0.07407407407407404,33.999999999999986,0)" xlink:href="#A"/><use transform="matrix(0.07407407407407404,0,0,0.07407407407407404,39.85185185185183,0)" xlink:href="#C"/><use transform="matrix(0.07407407407407404,0,0,0.07407407407407404,54.66666666666664,0)" xlink:href="#K"/><use transform="matrix(0.07407407407407404,0,0,0.07407407407407404,67.99999999999997,0)" xlink:href="#E"/><use transform="matrix(0.07407407407407404,0,0,0.07407407407407404,75.40740740740738,0)" xlink:href="#H"/></g><path d="M85-194c31 0 48 13 60 33l-1-100h32l1 261h-30c-2-10 0-23-3-31C134-8 116 4 85 4 32 4 16-35 15-94c0-66 23-100 70-100zm9 24c-40 0-46 34-46 75 0 40 6 74 45 74 42 0 51-32 51-76 0-42-9-74-50-73" id="M"/><g id="h"><use transform="matrix(0.07407407407407404,0,0,0.07407407407407404,0,0)" xlink:href="#M"/><use transform="matrix(0.07407407407407404,0,0,0.07407407407407404,14.814814814814808,0)" xlink:href="#I"/><use transform="matrix(0.07407407407407404,0,0,0.07407407407407404,29.629629629629616,0)" xlink:href="#E"/><use transform="matrix(0.07407407407407404,0,0,0.07407407407407404,37.03703703703702,0)" xlink:href="#I"/></g><path d="M101-234c-31-9-42 10-38 44h38v23H63V0H32v-167H5v-23h27c-7-52 17-82 69-68v24" id="N"/><path d="M114-163C36-179 61-72 57 0H25l-1-190h30c1 12-1 29 2 39 6-27 23-49 58-41v29" id="O"/><g id="i"><use transform="matrix(0.07407407407407404,0,0,0.07407407407407404,0,0)" xlink:href="#N"/><use transform="matrix(0.07407407407407404,0,0,0.07407407407407404,7.407407407407404,0)" xlink:href="#O"/><use transform="matrix(0.07407407407407404,0,0,0.07407407407407404,16.222222222222214,0)" xlink:href="#L"/><use transform="matrix(0.07407407407407404,0,0,0.07407407407407404,31.037037037037024,0)" xlink:href="#G"/></g><path d="M106-169C34-169 62-67 57 0H25v-261h32l-1 103c12-21 28-36 61-36 89 0 53 116 60 194h-32v-121c2-32-8-49-39-48" id="P"/><g id="j"><use transform="matrix(0.07407407407407404,0,0,0.07407407407407404,0,0)" xlink:href="#E"/><use transform="matrix(0.07407407407407404,0,0,0.07407407407407404,7.407407407407404,0)" xlink:href="#P"/><use transform="matrix(0.07407407407407404,0,0,0.07407407407407404,22.222222222222214,0)" xlink:href="#C"/></g><path d="M108 0H70L1-190h34L89-25l56-165h34" id="Q"/><g id="k"><use transform="matrix(0.07407407407407404,0,0,0.07407407407407404,0,0)" xlink:href="#H"/><use transform="matrix(0.07407407407407404,0,0,0.07407407407407404,13.333333333333327,0)" xlink:href="#C"/><use transform="matrix(0.07407407407407404,0,0,0.07407407407407404,28.148148148148135,0)" xlink:href="#O"/><use transform="matrix(0.07407407407407404,0,0,0.07407407407407404,36.96296296296295,0)" xlink:href="#Q"/><use transform="matrix(0.07407407407407404,0,0,0.07407407407407404,50.296296296296276,0)" xlink:href="#B"/><use transform="matrix(0.07407407407407404,0,0,0.07407407407407404,56.148148148148124,0)" xlink:href="#K"/><use transform="matrix(0.07407407407407404,0,0,0.07407407407407404,69.48148148148145,0)" xlink:href="#C"/><use transform="matrix(0.07407407407407404,0,0,0.07407407407407404,84.29629629629626,0)" xlink:href="#H"/></g><g id="l"><use transform="matrix(0.07407407407407404,0,0,0.07407407407407404,0,0)" xlink:href="#B"/><use transform="matrix(0.07407407407407404,0,0,0.07407407407407404,5.851851851851849,0)" xlink:href="#E"/></g><path d="M115-194c55 1 70 41 70 98S169 2 115 4C84 4 66-9 55-30l1 105H24l-1-265h31l2 30c10-21 28-34 59-34zm-8 174c40 0 45-34 45-75s-6-73-45-74c-42 0-51 32-51 76 0 43 10 73 51 73" id="R"/><g id="m"><use transform="matrix(0.07407407407407404,0,0,0.07407407407407404,0,0)" xlink:href="#R"/><use transform="matrix(0.07407407407407404,0,0,0.07407407407407404,14.814814814814808,0)" xlink:href="#I"/><use transform="matrix(0.07407407407407404,0,0,0.07407407407407404,29.629629629629616,0)" xlink:href="#H"/><use transform="matrix(0.07407407407407404,0,0,0.07407407407407404,42.96296296296295,0)" xlink:href="#H"/><use transform="matrix(0.07407407407407404,0,0,0.07407407407407404,56.29629629629627,0)" xlink:href="#C"/><use transform="matrix(0.07407407407407404,0,0,0.07407407407407404,71.11111111111107,0)" xlink:href="#H"/></g><path d="M127-220V0H93v-220H8v-28h204v28h-85" id="S"/><g id="n"><use transform="matrix(0.07407407407407404,0,0,0.07407407407407404,0,0)" xlink:href="#S"/><use transform="matrix(0.07407407407407404,0,0,0.07407407407407404,16.222222222222214,0)" xlink:href="#P"/><use transform="matrix(0.07407407407407404,0,0,0.07407407407407404,31.037037037037024,0)" xlink:href="#B"/><use transform="matrix(0.07407407407407404,0,0,0.07407407407407404,36.88888888888887,0)" xlink:href="#H"/></g><path d="M143 0L79-87 56-68V0H24v-261h32v163l83-92h37l-77 82L181 0h-38" id="T"/><g id="o"><use transform="matrix(0.07407407407407404,0,0,0.07407407407407404,0,0)" xlink:href="#A"/><use transform="matrix(0.07407407407407404,0,0,0.07407407407407404,5.851851851851849,0)" xlink:href="#L"/><use transform="matrix(0.07407407407407404,0,0,0.07407407407407404,20.666666666666657,0)" xlink:href="#L"/><use transform="matrix(0.07407407407407404,0,0,0.07407407407407404,35.48148148148147,0)" xlink:href="#T"/><use transform="matrix(0.07407407407407404,0,0,0.07407407407407404,48.814814814814795,0)" xlink:href="#H"/></g><g id="p"><use transform="matrix(0.07407407407407404,0,0,0.07407407407407404,0,0)" xlink:href="#I"/><use transform="matrix(0.07407407407407404,0,0,0.07407407407407404,14.814814814814808,0)" xlink:href="#H"/></g><g id="q"><use transform="matrix(0.07407407407407404,0,0,0.07407407407407404,0,0)" xlink:href="#B"/><use transform="matrix(0.07407407407407404,0,0,0.07407407407407404,5.851851851851849,0)" xlink:href="#N"/></g><g id="r"><use transform="matrix(0.07407407407407404,0,0,0.07407407407407404,0,0)" xlink:href="#E"/><use transform="matrix(0.07407407407407404,0,0,0.07407407407407404,7.407407407407404,0)" xlink:href="#P"/><use transform="matrix(0.07407407407407404,0,0,0.07407407407407404,22.222222222222214,0)" xlink:href="#C"/></g><g id="s"><use transform="matrix(0.07407407407407404,0,0,0.07407407407407404,0,0)" xlink:href="#H"/><use transform="matrix(0.07407407407407404,0,0,0.07407407407407404,13.333333333333327,0)" xlink:href="#C"/><use transform="matrix(0.07407407407407404,0,0,0.07407407407407404,28.148148148148135,0)" xlink:href="#O"/><use transform="matrix(0.07407407407407404,0,0,0.07407407407407404,36.96296296296295,0)" xlink:href="#Q"/><use transform="matrix(0.07407407407407404,0,0,0.07407407407407404,50.296296296296276,0)" xlink:href="#B"/><use transform="matrix(0.07407407407407404,0,0,0.07407407407407404,56.148148148148124,0)" xlink:href="#K"/><use transform="matrix(0.07407407407407404,0,0,0.07407407407407404,69.48148148148145,0)" xlink:href="#C"/><use transform="matrix(0.07407407407407404,0,0,0.07407407407407404,84.29629629629626,0)" xlink:href="#H"/></g><path d="M206 0h-36l-40-164L89 0H53L-1-190h32L70-26l43-164h34l41 164 42-164h31" id="U"/><g id="t"><use transform="matrix(0.07407407407407404,0,0,0.07407407407407404,0,0)" xlink:href="#U"/><use transform="matrix(0.07407407407407404,0,0,0.07407407407407404,19.185185185185176,0)" xlink:href="#C"/><use transform="matrix(0.07407407407407404,0,0,0.07407407407407404,33.999999999999986,0)" xlink:href="#O"/><use transform="matrix(0.07407407407407404,0,0,0.07407407407407404,42.814814814814795,0)" xlink:href="#C"/></g><g id="u"><use transform="matrix(0.07407407407407404,0,0,0.07407407407407404,0,0)" xlink:href="#U"/><use transform="matrix(0.07407407407407404,0,0,0.07407407407407404,19.185185185185176,0)" xlink:href="#O"/><use transform="matrix(0.07407407407407404,0,0,0.07407407407407404,27.999999999999982,0)" xlink:href="#B"/><use transform="matrix(0.07407407407407404,0,0,0.07407407407407404,33.85185185185183,0)" xlink:href="#E"/><use transform="matrix(0.07407407407407404,0,0,0.07407407407407404,41.25925925925924,0)" xlink:href="#B"/><use transform="matrix(0.07407407407407404,0,0,0.07407407407407404,47.111111111111086,0)" xlink:href="#D"/><use transform="matrix(0.07407407407407404,0,0,0.07407407407407404,61.9259259259259,0)" xlink:href="#J"/></g><g id="v"><use transform="matrix(0.07407407407407404,0,0,0.07407407407407404,0,0)" xlink:href="#E"/><use transform="matrix(0.07407407407407404,0,0,0.07407407407407404,7.407407407407404,0)" xlink:href="#L"/></g><use transform="matrix(0.07407407407407404,0,0,0.07407407407407404,0,0)" xlink:href="#I" id="w"/><g id="x"><use transform="matrix(0.07407407407407404,0,0,0.07407407407407404,0,0)" xlink:href="#H"/><use transform="matrix(0.07407407407407404,0,0,0.07407407407407404,13.333333333333327,0)" xlink:href="#P"/><use transform="matrix(0.07407407407407404,0,0,0.07407407407407404,28.148148148148135,0)" xlink:href="#I"/><use transform="matrix(0.07407407407407404,0,0,0.07407407407407404,42.96296296296295,0)" xlink:href="#O"/><use transform="matrix(0.07407407407407404,0,0,0.07407407407407404,51.77777777777775,0)" xlink:href="#C"/><use transform="matrix(0.07407407407407404,0,0,0.07407407407407404,66.59259259259255,0)" xlink:href="#M"/></g><path d="M115-194c53 0 69 39 70 98 0 66-23 100-70 100C84 3 66-7 56-30L54 0H23l1-261h32v101c10-23 28-34 59-34zm-8 174c40 0 45-34 45-75 0-40-5-75-45-74-42 0-51 32-51 76 0 43 10 73 51 73" id="V"/><path d="M24-231v-30h32v30H24zM-9 49c24 4 33-6 33-30v-209h32V24c2 40-23 58-65 49V49" id="W"/><g id="y"><use transform="matrix(0.07407407407407404,0,0,0.07407407407407404,0,0)" xlink:href="#L"/><use transform="matrix(0.07407407407407404,0,0,0.07407407407407404,14.814814814814808,0)" xlink:href="#V"/><use transform="matrix(0.07407407407407404,0,0,0.07407407407407404,29.629629629629616,0)" xlink:href="#W"/><use transform="matrix(0.07407407407407404,0,0,0.07407407407407404,35.48148148148147,0)" xlink:href="#C"/><use transform="matrix(0.07407407407407404,0,0,0.07407407407407404,50.296296296296276,0)" xlink:href="#K"/><use transform="matrix(0.07407407407407404,0,0,0.07407407407407404,63.629629629629605,0)" xlink:href="#E"/></g></defs></g></svg>