<svg xmlns="http://www.w3.org/2000/svg" xmlns:xlink="http://www.w3.org/1999/xlink" xmlns:lucid="lucid" width="1003" height="323"><g transform="translate(-358.5 -558.5)" lucid:page-tab-id="0_0"><path d="M560 660a20 20 0 0 1 20-20h120a20 20 0 0 1 20 20v200a20 20 0 0 1-20 20H580a20 20 0 0 1-20-20z" fill-opacity="0"/><path d="M558.5 660a1.5 1.5 0 0 1 1.5-1.5 1.5 1.5 0 0 1 1.5 1.5 1.5 1.5 0 0 1-1.5 1.5 1.5 1.5 0 0 1-1.5-1.5m2.73-9.96a1.5 1.5 0 0 1 1.5-1.5 1.5 1.5 0 0 1 1.5 1.5 1.5 1.5 0 0 1-1.5 1.5 1.5 1.5 0 0 1-1.5-1.5V650m7.3-7.26a1.5 1.5 0 0 1 1.5-1.5 1.5 1.5 0 0 1 1.5 1.5 1.5 1.5 0 0 1-1.5 1.5 1.5 1.5 0 0 1-1.5-1.5v-.03m9.97-2.7a1.5 1.5 0 0 1 1.5-1.5 1.5 1.5 0 0 1 1.5 1.5 1.5 1.5 0 0 1-1.5 1.5 1.5 1.5 0 0 1-1.5-1.5m12 0a1.5 1.5 0 0 1 1.5-1.5 1.5 1.5 0 0 1 1.5 1.5 1.5 1.5 0 0 1-1.5 1.5 1.5 1.5 0 0 1-1.5-1.5m12 0a1.5 1.5 0 0 1 1.5-1.5 1.5 1.5 0 0 1 1.5 1.5 1.5 1.5 0 0 1-1.5 1.5 1.5 1.5 0 0 1-1.5-1.5m12 0a1.5 1.5 0 0 1 1.5-1.5 1.5 1.5 0 0 1 1.5 1.5 1.5 1.5 0 0 1-1.5 1.5 1.5 1.5 0 0 1-1.5-1.5m12 0a1.5 1.5 0 0 1 1.5-1.5 1.5 1.5 0 0 1 1.5 1.5 1.5 1.5 0 0 1-1.5 1.5 1.5 1.5 0 0 1-1.5-1.5m12 0a1.5 1.5 0 0 1 1.5-1.5 1.5 1.5 0 0 1 1.5 1.5 1.5 1.5 0 0 1-1.5 1.5 1.5 1.5 0 0 1-1.5-1.5m12 0a1.5 1.5 0 0 1 1.5-1.5 1.5 1.5 0 0 1 1.5 1.5 1.5 1.5 0 0 1-1.5 1.5 1.5 1.5 0 0 1-1.5-1.5m12 0a1.5 1.5 0 0 1 1.5-1.5 1.5 1.5 0 0 1 1.5 1.5 1.5 1.5 0 0 1-1.5 1.5 1.5 1.5 0 0 1-1.5-1.5m12 0a1.5 1.5 0 0 1 1.5-1.5 1.5 1.5 0 0 1 1.5 1.5 1.5 1.5 0 0 1-1.5 1.5 1.5 1.5 0 0 1-1.5-1.5m12 0a1.5 1.5 0 0 1 1.5-1.5 1.5 1.5 0 0 1 1.5 1.5 1.5 1.5 0 0 1-1.5 1.5 1.5 1.5 0 0 1-1.5-1.5m12 0a1.5 1.5 0 0 1 1.5-1.5 1.5 1.5 0 0 1 1.5 1.5 1.5 1.5 0 0 1-1.5 1.5 1.5 1.5 0 0 1-1.5-1.5m9.97 2.74a1.5 1.5 0 0 1 1.5-1.5 1.5 1.5 0 0 1 1.5 1.5 1.5 1.5 0 0 1-1.5 1.5 1.5 1.5 0 0 1-1.5-1.5v-.03m7.3 7.34a1.5 1.5 0 0 1 1.5-1.5 1.5 1.5 0 0 1 1.5 1.5 1.5 1.5 0 0 1-1.5 1.5 1.5 1.5 0 0 1-1.5-1.5V650m2.73 10a1.5 1.5 0 0 1 1.5-1.5 1.5 1.5 0 0 1 1.5 1.5 1.5 1.5 0 0 1-1.5 1.5 1.5 1.5 0 0 1-1.5-1.5m0 11.78a1.5 1.5 0 0 1 1.5-1.5 1.5 1.5 0 0 1 1.5 1.5 1.5 1.5 0 0 1-1.5 1.5 1.5 1.5 0 0 1-1.5-1.5v-.03m0 11.8v-.02a1.5 1.5 0 0 1 1.5-1.5 1.5 1.5 0 0 1 1.5 1.5 1.5 1.5 0 0 1-1.5 1.5 1.5 1.5 0 0 1-1.5-1.5v-.02m0 11.8a1.5 1.5 0 0 1 1.5-1.5 1.5 1.5 0 0 1 1.5 1.5 1.5 1.5 0 0 1-1.5 1.5 1.5 1.5 0 0 1-1.5-1.5v-.02m0 11.8v-.02a1.5 1.5 0 0 1 1.5-1.5 1.5 1.5 0 0 1 1.5 1.5 1.5 1.5 0 0 1-1.5 1.5 1.5 1.5 0 0 1-1.5-1.5v-.02m0 11.8v-.02a1.5 1.5 0 0 1 1.5-1.5 1.5 1.5 0 0 1 1.5 1.5 1.5 1.5 0 0 1-1.5 1.5 1.5 1.5 0 0 1-1.5-1.5m0 11.78a1.5 1.5 0 0 1 1.5-1.5 1.5 1.5 0 0 1 1.5 1.5 1.5 1.5 0 0 1-1.5 1.5 1.5 1.5 0 0 1-1.5-1.5v-.03m0 11.8v-.02a1.5 1.5 0 0 1 1.5-1.5 1.5 1.5 0 0 1 1.5 1.5 1.5 1.5 0 0 1-1.5 1.5 1.5 1.5 0 0 1-1.5-1.5m0 11.78a1.5 1.5 0 0 1 1.5-1.5 1.5 1.5 0 0 1 1.5 1.5 1.5 1.5 0 0 1-1.5 1.5 1.5 1.5 0 0 1-1.5-1.5v-.03m0 11.8v-.02a1.5 1.5 0 0 1 1.5-1.5 1.5 1.5 0 0 1 1.5 1.5 1.5 1.5 0 0 1-1.5 1.5 1.5 1.5 0 0 1-1.5-1.5m0 11.78a1.5 1.5 0 0 1 1.5-1.5 1.5 1.5 0 0 1 1.5 1.5 1.5 1.5 0 0 1-1.5 1.5 1.5 1.5 0 0 1-1.5-1.5v-.03m0 11.8v-.02a1.5 1.5 0 0 1 1.5-1.5 1.5 1.5 0 0 1 1.5 1.5 1.5 1.5 0 0 1-1.5 1.5 1.5 1.5 0 0 1-1.5-1.5m0 11.8v-.02a1.5 1.5 0 0 1 1.5-1.5 1.5 1.5 0 0 1 1.5 1.5 1.5 1.5 0 0 1-1.5 1.5 1.5 1.5 0 0 1-1.5-1.5v-.02m0 11.8v-.02a1.5 1.5 0 0 1 1.5-1.5 1.5 1.5 0 0 1 1.5 1.5 1.5 1.5 0 0 1-1.5 1.5 1.5 1.5 0 0 1-1.5-1.5m0 11.78a1.5 1.5 0 0 1 1.5-1.5 1.5 1.5 0 0 1 1.5 1.5 1.5 1.5 0 0 1-1.5 1.5 1.5 1.5 0 0 1-1.5-1.5v-.03m0 11.8v-.03a1.5 1.5 0 0 1 1.5-1.5 1.5 1.5 0 0 1 1.5 1.5 1.5 1.5 0 0 1-1.5 1.5 1.5 1.5 0 0 1-1.5-1.5m0 11.78a1.5 1.5 0 0 1 1.5-1.5 1.5 1.5 0 0 1 1.5 1.5 1.5 1.5 0 0 1-1.5 1.5 1.5 1.5 0 0 1-1.5-1.5v-.03m0 11.8V860a1.5 1.5 0 0 1 1.5-1.5 1.5 1.5 0 0 1 1.5 1.5 1.5 1.5 0 0 1-1.5 1.5 1.5 1.5 0 0 1-1.5-1.5m-2.73 10v-.03a1.5 1.5 0 0 1 1.5-1.5 1.5 1.5 0 0 1 1.5 1.5 1.5 1.5 0 0 1-1.5 1.5 1.5 1.5 0 0 1-1.5-1.5m-7.3 7.32v-.03a1.5 1.5 0 0 1 1.5-1.5 1.5 1.5 0 0 1 1.5 1.5 1.5 1.5 0 0 1-1.5 1.5 1.5 1.5 0 0 1-1.5-1.5M698.5 880V880a1.5 1.5 0 0 1 1.5-1.5 1.5 1.5 0 0 1 1.5 1.5 1.5 1.5 0 0 1-1.5 1.5 1.5 1.5 0 0 1-1.5-1.5m-12 0a1.5 1.5 0 0 1 1.5-1.5 1.5 1.5 0 0 1 1.5 1.5 1.5 1.5 0 0 1-1.5 1.5 1.5 1.5 0 0 1-1.5-1.5m-12 0a1.5 1.5 0 0 1 1.5-1.5 1.5 1.5 0 0 1 1.5 1.5 1.5 1.5 0 0 1-1.5 1.5 1.5 1.5 0 0 1-1.5-1.5m-12 0a1.5 1.5 0 0 1 1.5-1.5 1.5 1.5 0 0 1 1.5 1.5 1.5 1.5 0 0 1-1.5 1.5 1.5 1.5 0 0 1-1.5-1.5m-12 0a1.5 1.5 0 0 1 1.5-1.5 1.5 1.5 0 0 1 1.5 1.5 1.5 1.5 0 0 1-1.5 1.5 1.5 1.5 0 0 1-1.5-1.5m-12 0a1.5 1.5 0 0 1 1.5-1.5 1.5 1.5 0 0 1 1.5 1.5 1.5 1.5 0 0 1-1.5 1.5 1.5 1.5 0 0 1-1.5-1.5m-12 0a1.5 1.5 0 0 1 1.5-1.5 1.5 1.5 0 0 1 1.5 1.5 1.5 1.5 0 0 1-1.5 1.5 1.5 1.5 0 0 1-1.5-1.5m-12 0a1.5 1.5 0 0 1 1.5-1.5 1.5 1.5 0 0 1 1.5 1.5 1.5 1.5 0 0 1-1.5 1.5 1.5 1.5 0 0 1-1.5-1.5m-12 0a1.5 1.5 0 0 1 1.5-1.5 1.5 1.5 0 0 1 1.5 1.5 1.5 1.5 0 0 1-1.5 1.5 1.5 1.5 0 0 1-1.5-1.5m-12 0a1.5 1.5 0 0 1 1.5-1.5 1.5 1.5 0 0 1 1.5 1.5 1.5 1.5 0 0 1-1.5 1.5 1.5 1.5 0 0 1-1.5-1.5m-12 0a1.5 1.5 0 0 1 1.5-1.5 1.5 1.5 0 0 1 1.5 1.5 1.5 1.5 0 0 1-1.5 1.5 1.5 1.5 0 0 1-1.5-1.5m-9.97-2.7v-.03a1.5 1.5 0 0 1 1.5-1.5 1.5 1.5 0 0 1 1.5 1.5 1.5 1.5 0 0 1-1.5 1.5 1.5 1.5 0 0 1-1.5-1.5m-7.3-7.28v-.03a1.5 1.5 0 0 1 1.5-1.5 1.5 1.5 0 0 1 1.5 1.5 1.5 1.5 0 0 1-1.5 1.5 1.5 1.5 0 0 1-1.5-1.5M558.5 860a1.5 1.5 0 0 1 1.5-1.5 1.5 1.5 0 0 1 1.5 1.5 1.5 1.5 0 0 1-1.5 1.5 1.5 1.5 0 0 1-1.5-1.5m0-11.75a1.5 1.5 0 0 1 1.5-1.5 1.5 1.5 0 0 1 1.5 1.5 1.5 1.5 0 0 1-1.5 1.5 1.5 1.5 0 0 1-1.5-1.5v-.03m0-11.73v-.03a1.5 1.5 0 0 1 1.5-1.5 1.5 1.5 0 0 1 1.5 1.5 1.5 1.5 0 0 1-1.5 1.5 1.5 1.5 0 0 1-1.5-1.5m0-11.75a1.5 1.5 0 0 1 1.5-1.5 1.5 1.5 0 0 1 1.5 1.5 1.5 1.5 0 0 1-1.5 1.5 1.5 1.5 0 0 1-1.5-1.5v-.03m0-11.74v-.02a1.5 1.5 0 0 1 1.5-1.5 1.5 1.5 0 0 1 1.5 1.5 1.5 1.5 0 0 1-1.5 1.5 1.5 1.5 0 0 1-1.5-1.5m0-11.75v-.02a1.5 1.5 0 0 1 1.5-1.5 1.5 1.5 0 0 1 1.5 1.5 1.5 1.5 0 0 1-1.5 1.5 1.5 1.5 0 0 1-1.5-1.5v-.02m0-11.73v-.02a1.5 1.5 0 0 1 1.5-1.5 1.5 1.5 0 0 1 1.5 1.5 1.5 1.5 0 0 1-1.5 1.5 1.5 1.5 0 0 1-1.5-1.5m0-11.74a1.5 1.5 0 0 1 1.5-1.5 1.5 1.5 0 0 1 1.5 1.5 1.5 1.5 0 0 1-1.5 1.5 1.5 1.5 0 0 1-1.5-1.5v-.03m0-11.73v-.02a1.5 1.5 0 0 1 1.5-1.5 1.5 1.5 0 0 1 1.5 1.5 1.5 1.5 0 0 1-1.5 1.5 1.5 1.5 0 0 1-1.5-1.5m0-11.75a1.5 1.5 0 0 1 1.5-1.5 1.5 1.5 0 0 1 1.5 1.5 1.5 1.5 0 0 1-1.5 1.5 1.5 1.5 0 0 1-1.5-1.5v-.03m0-11.73v-.02a1.5 1.5 0 0 1 1.5-1.5 1.5 1.5 0 0 1 1.5 1.5 1.5 1.5 0 0 1-1.5 1.5 1.5 1.5 0 0 1-1.5-1.5m0-11.75a1.5 1.5 0 0 1 1.5-1.5 1.5 1.5 0 0 1 1.5 1.5 1.5 1.5 0 0 1-1.5 1.5 1.5 1.5 0 0 1-1.5-1.5v-.03m0-11.73v-.02a1.5 1.5 0 0 1 1.5-1.5 1.5 1.5 0 0 1 1.5 1.5 1.5 1.5 0 0 1-1.5 1.5 1.5 1.5 0 0 1-1.5-1.5m0-11.75a1.5 1.5 0 0 1 1.5-1.5 1.5 1.5 0 0 1 1.5 1.5 1.5 1.5 0 0 1-1.5 1.5 1.5 1.5 0 0 1-1.5-1.5v-.03m0-11.73a1.5 1.5 0 0 1 1.5-1.5 1.5 1.5 0 0 1 1.5 1.5 1.5 1.5 0 0 1-1.5 1.5 1.5 1.5 0 0 1-1.5-1.5v-.02m0-11.74a1.5 1.5 0 0 1 1.5-1.5 1.5 1.5 0 0 1 1.5 1.5 1.5 1.5 0 0 1-1.5 1.5 1.5 1.5 0 0 1-1.5-1.5v-.03m0-11.72a1.5 1.5 0 0 1 1.5-1.5 1.5 1.5 0 0 1 1.5 1.5 1.5 1.5 0 0 1-1.5 1.5 1.5 1.5 0 0 1-1.5-1.5v-.03m0-11.74a1.5 1.5 0 0 1 1.5-1.5 1.5 1.5 0 0 1 1.5 1.5 1.5 1.5 0 0 1-1.5 1.5 1.5 1.5 0 0 1-1.5-1.5" fill="#008573"/><path d="M640 800v-37.5" stroke="#008573" stroke-width="2" fill="none"/><path d="M640 815.26L635.37 801h9.26z" stroke="#008573" stroke-width="2" fill="#008573"/><path d="M640.98 762.53H639v-1.03H641z" stroke="#008573" stroke-width=".05" fill="#008573"/><path d="M360 660a20 20 0 0 1 20-20h120a20 20 0 0 1 20 20v200a20 20 0 0 1-20 20H380a20 20 0 0 1-20-20z" fill-opacity="0"/><path d="M358.5 660a1.5 1.5 0 0 1 1.5-1.5 1.5 1.5 0 0 1 1.5 1.5 1.5 1.5 0 0 1-1.5 1.5 1.5 1.5 0 0 1-1.5-1.5m2.73-9.96a1.5 1.5 0 0 1 1.5-1.5 1.5 1.5 0 0 1 1.5 1.5 1.5 1.5 0 0 1-1.5 1.5 1.5 1.5 0 0 1-1.5-1.5V650m7.3-7.26a1.5 1.5 0 0 1 1.5-1.5 1.5 1.5 0 0 1 1.5 1.5 1.5 1.5 0 0 1-1.5 1.5 1.5 1.5 0 0 1-1.5-1.5v-.03m9.97-2.7a1.5 1.5 0 0 1 1.5-1.5 1.5 1.5 0 0 1 1.5 1.5 1.5 1.5 0 0 1-1.5 1.5 1.5 1.5 0 0 1-1.5-1.5m12 0a1.5 1.5 0 0 1 1.5-1.5 1.5 1.5 0 0 1 1.5 1.5 1.5 1.5 0 0 1-1.5 1.5 1.5 1.5 0 0 1-1.5-1.5m12 0a1.5 1.5 0 0 1 1.5-1.5 1.5 1.5 0 0 1 1.5 1.5 1.5 1.5 0 0 1-1.5 1.5 1.5 1.5 0 0 1-1.5-1.5m12 0a1.5 1.5 0 0 1 1.5-1.5 1.5 1.5 0 0 1 1.5 1.5 1.5 1.5 0 0 1-1.5 1.5 1.5 1.5 0 0 1-1.5-1.5m12 0a1.5 1.5 0 0 1 1.5-1.5 1.5 1.5 0 0 1 1.5 1.5 1.5 1.5 0 0 1-1.5 1.5 1.5 1.5 0 0 1-1.5-1.5m12 0a1.5 1.5 0 0 1 1.5-1.5 1.5 1.5 0 0 1 1.5 1.5 1.5 1.5 0 0 1-1.5 1.5 1.5 1.5 0 0 1-1.5-1.5m12 0a1.5 1.5 0 0 1 1.5-1.5 1.5 1.5 0 0 1 1.5 1.5 1.5 1.5 0 0 1-1.5 1.5 1.5 1.5 0 0 1-1.5-1.5m12 0a1.5 1.5 0 0 1 1.5-1.5 1.5 1.5 0 0 1 1.5 1.5 1.5 1.5 0 0 1-1.5 1.5 1.5 1.5 0 0 1-1.5-1.5m12 0a1.5 1.5 0 0 1 1.5-1.5 1.5 1.5 0 0 1 1.5 1.5 1.5 1.5 0 0 1-1.5 1.5 1.5 1.5 0 0 1-1.5-1.5m12 0a1.5 1.5 0 0 1 1.5-1.5 1.5 1.5 0 0 1 1.5 1.5 1.5 1.5 0 0 1-1.5 1.5 1.5 1.5 0 0 1-1.5-1.5m12 0a1.5 1.5 0 0 1 1.5-1.5 1.5 1.5 0 0 1 1.5 1.5 1.5 1.5 0 0 1-1.5 1.5 1.5 1.5 0 0 1-1.5-1.5m9.97 2.74a1.5 1.5 0 0 1 1.5-1.5 1.5 1.5 0 0 1 1.5 1.5 1.5 1.5 0 0 1-1.5 1.5 1.5 1.5 0 0 1-1.5-1.5v-.03m7.3 7.34a1.5 1.5 0 0 1 1.5-1.5 1.5 1.5 0 0 1 1.5 1.5 1.5 1.5 0 0 1-1.5 1.5 1.5 1.5 0 0 1-1.5-1.5V650m2.73 10a1.5 1.5 0 0 1 1.5-1.5 1.5 1.5 0 0 1 1.5 1.5 1.5 1.5 0 0 1-1.5 1.5 1.5 1.5 0 0 1-1.5-1.5m0 11.78a1.5 1.5 0 0 1 1.5-1.5 1.5 1.5 0 0 1 1.5 1.5 1.5 1.5 0 0 1-1.5 1.5 1.5 1.5 0 0 1-1.5-1.5v-.03m0 11.8v-.02a1.5 1.5 0 0 1 1.5-1.5 1.5 1.5 0 0 1 1.5 1.5 1.5 1.5 0 0 1-1.5 1.5 1.5 1.5 0 0 1-1.5-1.5v-.02m0 11.8a1.5 1.5 0 0 1 1.5-1.5 1.5 1.5 0 0 1 1.5 1.5 1.5 1.5 0 0 1-1.5 1.5 1.5 1.5 0 0 1-1.5-1.5v-.02m0 11.8v-.02a1.5 1.5 0 0 1 1.5-1.5 1.5 1.5 0 0 1 1.5 1.5 1.5 1.5 0 0 1-1.5 1.5 1.5 1.5 0 0 1-1.5-1.5v-.02m0 11.8v-.02a1.5 1.5 0 0 1 1.5-1.5 1.5 1.5 0 0 1 1.5 1.5 1.5 1.5 0 0 1-1.5 1.5 1.5 1.5 0 0 1-1.5-1.5m0 11.78a1.5 1.5 0 0 1 1.5-1.5 1.5 1.5 0 0 1 1.5 1.5 1.5 1.5 0 0 1-1.5 1.5 1.5 1.5 0 0 1-1.5-1.5v-.03m0 11.8v-.02a1.5 1.5 0 0 1 1.5-1.5 1.5 1.5 0 0 1 1.5 1.5 1.5 1.5 0 0 1-1.5 1.5 1.5 1.5 0 0 1-1.5-1.5m0 11.78a1.5 1.5 0 0 1 1.5-1.5 1.5 1.5 0 0 1 1.5 1.5 1.5 1.5 0 0 1-1.5 1.5 1.5 1.5 0 0 1-1.5-1.5v-.03m0 11.8v-.02a1.5 1.5 0 0 1 1.5-1.5 1.5 1.5 0 0 1 1.5 1.5 1.5 1.5 0 0 1-1.5 1.5 1.5 1.5 0 0 1-1.5-1.5m0 11.78a1.5 1.5 0 0 1 1.5-1.5 1.5 1.5 0 0 1 1.5 1.5 1.5 1.5 0 0 1-1.5 1.5 1.5 1.5 0 0 1-1.5-1.5v-.03m0 11.8v-.02a1.5 1.5 0 0 1 1.5-1.5 1.5 1.5 0 0 1 1.5 1.5 1.5 1.5 0 0 1-1.5 1.5 1.5 1.5 0 0 1-1.5-1.5m0 11.8v-.02a1.5 1.5 0 0 1 1.5-1.5 1.5 1.5 0 0 1 1.5 1.5 1.5 1.5 0 0 1-1.5 1.5 1.5 1.5 0 0 1-1.5-1.5v-.02m0 11.8v-.02a1.5 1.5 0 0 1 1.5-1.5 1.5 1.5 0 0 1 1.5 1.5 1.5 1.5 0 0 1-1.5 1.5 1.5 1.5 0 0 1-1.5-1.5m0 11.78a1.5 1.5 0 0 1 1.5-1.5 1.5 1.5 0 0 1 1.5 1.5 1.5 1.5 0 0 1-1.5 1.5 1.5 1.5 0 0 1-1.5-1.5v-.03m0 11.8v-.03a1.5 1.5 0 0 1 1.5-1.5 1.5 1.5 0 0 1 1.5 1.5 1.5 1.5 0 0 1-1.5 1.5 1.5 1.5 0 0 1-1.5-1.5m0 11.78a1.5 1.5 0 0 1 1.5-1.5 1.5 1.5 0 0 1 1.5 1.5 1.5 1.5 0 0 1-1.5 1.5 1.5 1.5 0 0 1-1.5-1.5v-.03m0 11.8V860a1.5 1.5 0 0 1 1.5-1.5 1.5 1.5 0 0 1 1.5 1.5 1.5 1.5 0 0 1-1.5 1.5 1.5 1.5 0 0 1-1.5-1.5m-2.73 10v-.03a1.5 1.5 0 0 1 1.5-1.5 1.5 1.5 0 0 1 1.5 1.5 1.5 1.5 0 0 1-1.5 1.5 1.5 1.5 0 0 1-1.5-1.5m-7.3 7.32v-.03a1.5 1.5 0 0 1 1.5-1.5 1.5 1.5 0 0 1 1.5 1.5 1.5 1.5 0 0 1-1.5 1.5 1.5 1.5 0 0 1-1.5-1.5M498.5 880V880a1.5 1.5 0 0 1 1.5-1.5 1.5 1.5 0 0 1 1.5 1.5 1.5 1.5 0 0 1-1.5 1.5 1.5 1.5 0 0 1-1.5-1.5m-12 0a1.5 1.5 0 0 1 1.5-1.5 1.5 1.5 0 0 1 1.5 1.5 1.5 1.5 0 0 1-1.5 1.5 1.5 1.5 0 0 1-1.5-1.5m-12 0a1.5 1.5 0 0 1 1.5-1.5 1.5 1.5 0 0 1 1.5 1.5 1.5 1.5 0 0 1-1.5 1.5 1.5 1.5 0 0 1-1.5-1.5m-12 0a1.5 1.5 0 0 1 1.5-1.5 1.5 1.5 0 0 1 1.5 1.5 1.5 1.5 0 0 1-1.5 1.5 1.5 1.5 0 0 1-1.5-1.5m-12 0a1.5 1.5 0 0 1 1.5-1.5 1.5 1.5 0 0 1 1.5 1.5 1.5 1.5 0 0 1-1.5 1.5 1.5 1.5 0 0 1-1.5-1.5m-12 0a1.5 1.5 0 0 1 1.5-1.5 1.5 1.5 0 0 1 1.5 1.5 1.5 1.5 0 0 1-1.5 1.5 1.5 1.5 0 0 1-1.5-1.5m-12 0a1.5 1.5 0 0 1 1.5-1.5 1.5 1.5 0 0 1 1.5 1.5 1.5 1.5 0 0 1-1.5 1.5 1.5 1.5 0 0 1-1.5-1.5m-12 0a1.5 1.5 0 0 1 1.5-1.5 1.5 1.5 0 0 1 1.5 1.5 1.5 1.5 0 0 1-1.5 1.5 1.5 1.5 0 0 1-1.5-1.5m-12 0a1.5 1.5 0 0 1 1.5-1.5 1.5 1.5 0 0 1 1.5 1.5 1.5 1.5 0 0 1-1.5 1.5 1.5 1.5 0 0 1-1.5-1.5m-12 0a1.5 1.5 0 0 1 1.5-1.5 1.5 1.5 0 0 1 1.5 1.5 1.5 1.5 0 0 1-1.5 1.5 1.5 1.5 0 0 1-1.5-1.5m-12 0a1.5 1.5 0 0 1 1.5-1.5 1.5 1.5 0 0 1 1.5 1.5 1.5 1.5 0 0 1-1.5 1.5 1.5 1.5 0 0 1-1.5-1.5m-9.97-2.7v-.03a1.5 1.5 0 0 1 1.5-1.5 1.5 1.5 0 0 1 1.5 1.5 1.5 1.5 0 0 1-1.5 1.5 1.5 1.5 0 0 1-1.5-1.5m-7.3-7.28v-.03a1.5 1.5 0 0 1 1.5-1.5 1.5 1.5 0 0 1 1.5 1.5 1.5 1.5 0 0 1-1.5 1.5 1.5 1.5 0 0 1-1.5-1.5M358.5 860a1.5 1.5 0 0 1 1.5-1.5 1.5 1.5 0 0 1 1.5 1.5 1.5 1.5 0 0 1-1.5 1.5 1.5 1.5 0 0 1-1.5-1.5m0-11.75a1.5 1.5 0 0 1 1.5-1.5 1.5 1.5 0 0 1 1.5 1.5 1.5 1.5 0 0 1-1.5 1.5 1.5 1.5 0 0 1-1.5-1.5v-.03m0-11.73v-.03a1.5 1.5 0 0 1 1.5-1.5 1.5 1.5 0 0 1 1.5 1.5 1.5 1.5 0 0 1-1.5 1.5 1.5 1.5 0 0 1-1.5-1.5m0-11.75a1.5 1.5 0 0 1 1.5-1.5 1.5 1.5 0 0 1 1.5 1.5 1.5 1.5 0 0 1-1.5 1.5 1.5 1.5 0 0 1-1.5-1.5v-.03m0-11.74v-.02a1.5 1.5 0 0 1 1.5-1.5 1.5 1.5 0 0 1 1.5 1.5 1.5 1.5 0 0 1-1.5 1.5 1.5 1.5 0 0 1-1.5-1.5m0-11.75v-.02a1.5 1.5 0 0 1 1.5-1.5 1.5 1.5 0 0 1 1.5 1.5 1.5 1.5 0 0 1-1.5 1.5 1.5 1.5 0 0 1-1.5-1.5v-.02m0-11.73v-.02a1.5 1.5 0 0 1 1.5-1.5 1.5 1.5 0 0 1 1.5 1.5 1.5 1.5 0 0 1-1.5 1.5 1.5 1.5 0 0 1-1.5-1.5m0-11.74a1.5 1.5 0 0 1 1.5-1.5 1.5 1.5 0 0 1 1.5 1.5 1.5 1.5 0 0 1-1.5 1.5 1.5 1.5 0 0 1-1.5-1.5v-.03m0-11.73v-.02a1.5 1.5 0 0 1 1.5-1.5 1.5 1.5 0 0 1 1.5 1.5 1.5 1.5 0 0 1-1.5 1.5 1.5 1.5 0 0 1-1.5-1.5m0-11.75a1.5 1.5 0 0 1 1.5-1.5 1.5 1.5 0 0 1 1.5 1.5 1.5 1.5 0 0 1-1.5 1.5 1.5 1.5 0 0 1-1.5-1.5v-.03m0-11.73v-.02a1.5 1.5 0 0 1 1.5-1.5 1.5 1.5 0 0 1 1.5 1.5 1.5 1.5 0 0 1-1.5 1.5 1.5 1.5 0 0 1-1.5-1.5m0-11.75a1.5 1.5 0 0 1 1.5-1.5 1.5 1.5 0 0 1 1.5 1.5 1.5 1.5 0 0 1-1.5 1.5 1.5 1.5 0 0 1-1.5-1.5v-.03m0-11.73v-.02a1.5 1.5 0 0 1 1.5-1.5 1.5 1.5 0 0 1 1.5 1.5 1.5 1.5 0 0 1-1.5 1.5 1.5 1.5 0 0 1-1.5-1.5m0-11.75a1.5 1.5 0 0 1 1.5-1.5 1.5 1.5 0 0 1 1.5 1.5 1.5 1.5 0 0 1-1.5 1.5 1.5 1.5 0 0 1-1.5-1.5v-.03m0-11.73a1.5 1.5 0 0 1 1.5-1.5 1.5 1.5 0 0 1 1.5 1.5 1.5 1.5 0 0 1-1.5 1.5 1.5 1.5 0 0 1-1.5-1.5v-.02m0-11.74a1.5 1.5 0 0 1 1.5-1.5 1.5 1.5 0 0 1 1.5 1.5 1.5 1.5 0 0 1-1.5 1.5 1.5 1.5 0 0 1-1.5-1.5v-.03m0-11.72a1.5 1.5 0 0 1 1.5-1.5 1.5 1.5 0 0 1 1.5 1.5 1.5 1.5 0 0 1-1.5 1.5 1.5 1.5 0 0 1-1.5-1.5v-.03m0-11.74a1.5 1.5 0 0 1 1.5-1.5 1.5 1.5 0 0 1 1.5 1.5 1.5 1.5 0 0 1-1.5 1.5 1.5 1.5 0 0 1-1.5-1.5" fill="#cc4e00"/><path d="M380 820a20 20 0 0 1 20-20h80a20 20 0 0 1 20 20v20a20 20 0 0 1-20 20h-80a20 20 0 0 1-20-20z" stroke="#cc4e00" stroke-width="3" fill="#ced4db"/><use xlink:href="#a" transform="matrix(1,0,0,1,385,805) translate(3.938271604938265 28.930555555555557)"/><use xlink:href="#b" transform="matrix(1,0,0,1,385,805) translate(72.17901234567901 28.930555555555557)"/><path d="M501.5 838a1 1 0 0 1 1-1 1 1 0 0 1 1 1 1 1 0 0 1-1 1 1 1 0 0 1-1-1m4 0a1 1 0 0 1 1-1 1 1 0 0 1 1 1 1 1 0 0 1-1 1 1 1 0 0 1-1-1m4 0a1 1 0 0 1 1-1 1 1 0 0 1 1 1 1 1 0 0 1-1 1 1 1 0 0 1-1-1m4 0a1 1 0 0 1 1-1 1 1 0 0 1 1 1 1 1 0 0 1-1 1 1 1 0 0 1-1-1m4 0a1 1 0 0 1 1-1 1 1 0 0 1 1 1 1 1 0 0 1-1 1 1 1 0 0 1-1-1m4 0a1 1 0 0 1 1-1 1 1 0 0 1 1 1 1 1 0 0 1-1 1 1 1 0 0 1-1-1m4 0a1 1 0 0 1 1-1 1 1 0 0 1 1 1 1 1 0 0 1-1 1 1 1 0 0 1-1-1m4 0a1 1 0 0 1 1-1 1 1 0 0 1 1 1 1 1 0 0 1-1 1 1 1 0 0 1-1-1m4 0a1 1 0 0 1 1-1 1 1 0 0 1 1 1 1 1 0 0 1-1 1 1 1 0 0 1-1-1m4 0a1 1 0 0 1 1-1 1 1 0 0 1 1 1 1 1 0 0 1-1 1 1 1 0 0 1-1-1m4 0a1 1 0 0 1 1-1 1 1 0 0 1 1 1 1 1 0 0 1-1 1 1 1 0 0 1-1-1m4 0a1 1 0 0 1 1-1 1 1 0 0 1 1 1 1 1 0 0 1-1 1 1 1 0 0 1-1-1m4 0a1 1 0 0 1 1-1 1 1 0 0 1 1 1 1 1 0 0 1-1 1 1 1 0 0 1-1-1m4 0a1 1 0 0 1 1-1 1 1 0 0 1 1 1 1 1 0 0 1-1 1 1 1 0 0 1-1-1m4 0a1 1 0 0 1 1-1 1 1 0 0 1 1 1 1 1 0 0 1-1 1 1 1 0 0 1-1-1m4 0a1 1 0 0 1 1-1 1 1 0 0 1 1 1 1 1 0 0 1-1 1 1 1 0 0 1-1-1M501.5 842a1 1 0 0 1 1-1 1 1 0 0 1 1 1 1 1 0 0 1-1 1 1 1 0 0 1-1-1m4 0a1 1 0 0 1 1-1 1 1 0 0 1 1 1 1 1 0 0 1-1 1 1 1 0 0 1-1-1m4 0a1 1 0 0 1 1-1 1 1 0 0 1 1 1 1 1 0 0 1-1 1 1 1 0 0 1-1-1m4 0a1 1 0 0 1 1-1 1 1 0 0 1 1 1 1 1 0 0 1-1 1 1 1 0 0 1-1-1m4 0a1 1 0 0 1 1-1 1 1 0 0 1 1 1 1 1 0 0 1-1 1 1 1 0 0 1-1-1m4 0a1 1 0 0 1 1-1 1 1 0 0 1 1 1 1 1 0 0 1-1 1 1 1 0 0 1-1-1m4 0a1 1 0 0 1 1-1 1 1 0 0 1 1 1 1 1 0 0 1-1 1 1 1 0 0 1-1-1m4 0a1 1 0 0 1 1-1 1 1 0 0 1 1 1 1 1 0 0 1-1 1 1 1 0 0 1-1-1m4 0a1 1 0 0 1 1-1 1 1 0 0 1 1 1 1 1 0 0 1-1 1 1 1 0 0 1-1-1m4 0a1 1 0 0 1 1-1 1 1 0 0 1 1 1 1 1 0 0 1-1 1 1 1 0 0 1-1-1m4 0a1 1 0 0 1 1-1 1 1 0 0 1 1 1 1 1 0 0 1-1 1 1 1 0 0 1-1-1m4 0a1 1 0 0 1 1-1 1 1 0 0 1 1 1 1 1 0 0 1-1 1 1 1 0 0 1-1-1m4 0a1 1 0 0 1 1-1 1 1 0 0 1 1 1 1 1 0 0 1-1 1 1 1 0 0 1-1-1m4 0a1 1 0 0 1 1-1 1 1 0 0 1 1 1 1 1 0 0 1-1 1 1 1 0 0 1-1-1m4 0a1 1 0 0 1 1-1 1 1 0 0 1 1 1 1 1 0 0 1-1 1 1 1 0 0 1-1-1m4 0a1 1 0 0 1 1-1 1 1 0 0 1 1 1 1 1 0 0 1-1 1 1 1 0 0 1-1-1" fill="#cc4e00"/><path d="M502.53 838.98h-1.03V837h1.03zM502.53 842.98h-1.26l.15-1.96h1.1z" stroke="#cc4e00" stroke-width=".05" fill="#cc4e00"/><path d="M576.5 840l-13 7.5v-15z" stroke="#cc4e00" stroke-width="2" fill="#fff"/><path d="M380 680a20 20 0 0 1 20-20h80a20 20 0 0 1 20 20v60a20 20 0 0 1-20 20h-80a20 20 0 0 1-20-20z" stroke="#cc4e00" stroke-width="3" fill="url(#c)"/><use xlink:href="#d" transform="matrix(1,0,0,1,385,665) translate(26.820987654320984 36.43055555555556)"/><use xlink:href="#e" transform="matrix(1,0,0,1,385,665) translate(7.4691358024691255 65.76388888888889)"/><path d="M380 580a20 20 0 0 1 20-20h280a20 20 0 0 1 20 20 20 20 0 0 1-20 20H400a20 20 0 0 1-20-20z" stroke="#000" stroke-width="3" fill="#e8e2c8"/><use xlink:href="#f" transform="matrix(1,0,0,1,385,565) translate(123.87228395061727 21.430555555555557)"/><path d="M440 780v-17.5" stroke="#cc4e00" stroke-width="2" fill="none"/><path d="M440 795.26L435.37 781h9.26z" stroke="#cc4e00" stroke-width="2" fill="#cc4e00"/><path d="M440.98 762.53h-1.96v-1.03h1.96z" stroke="#cc4e00" stroke-width=".05" fill="#cc4e00"/><path d="M440 640v-37.5" stroke="#cc4e00" stroke-width="2" fill="none"/><path d="M440 655.26L435.37 641h9.26z" stroke="#cc4e00" stroke-width="2" fill="#cc4e00"/><path d="M440.98 602.53h-1.96v-1.03h1.96z" stroke="#cc4e00" stroke-width=".05" fill="#cc4e00"/><path d="M580 700a20 20 0 0 1 20-20h80a20 20 0 0 1 20 20v40a20 20 0 0 1-20 20h-80a20 20 0 0 1-20-20z" stroke="#008573" stroke-width="3" fill="url(#g)"/><use xlink:href="#h" transform="matrix(1,0,0,1,585,685) translate(25.836419753086417 26.118055555555557)"/><use xlink:href="#e" transform="matrix(1,0,0,1,585,685) translate(7.4691358024691255 55.45138888888889)"/><path d="M640 660v-57.5" stroke="#008573" stroke-width="2" fill="none"/><path d="M640 675.26L635.37 661h9.26z" stroke="#008573" stroke-width="2" fill="#008573"/><path d="M640.98 602.53H639v-1.03H641z" stroke="#008573" stroke-width=".05" fill="#008573"/><path d="M580 840a20 20 0 0 1 20-20h80a20 20 0 0 1 20 20 20 20 0 0 1-20 20h-80a20 20 0 0 1-20-20z" stroke="#008573" stroke-width="3" fill="#ced4db"/><use xlink:href="#i" transform="matrix(1,0,0,1,585,825) translate(2.313641975308636 19.555555555555557)"/><use xlink:href="#b" transform="matrix(1,0,0,1,585,825) translate(73.81364197530864 19.555555555555557)"/><path d="M1200 660a20 20 0 0 1 20-20h120a20 20 0 0 1 20 20v200a20 20 0 0 1-20 20h-120a20 20 0 0 1-20-20z" fill-opacity="0"/><path d="M1198.5 660a1.5 1.5 0 0 1 1.5-1.5 1.5 1.5 0 0 1 1.5 1.5 1.5 1.5 0 0 1-1.5 1.5 1.5 1.5 0 0 1-1.5-1.5m2.73-9.96a1.5 1.5 0 0 1 1.5-1.5 1.5 1.5 0 0 1 1.5 1.5 1.5 1.5 0 0 1-1.5 1.5 1.5 1.5 0 0 1-1.5-1.5V650m7.3-7.26a1.5 1.5 0 0 1 1.5-1.5 1.5 1.5 0 0 1 1.5 1.5 1.5 1.5 0 0 1-1.5 1.5 1.5 1.5 0 0 1-1.5-1.5v-.03m9.97-2.7a1.5 1.5 0 0 1 1.5-1.5 1.5 1.5 0 0 1 1.5 1.5 1.5 1.5 0 0 1-1.5 1.5 1.5 1.5 0 0 1-1.5-1.5m12 0a1.5 1.5 0 0 1 1.5-1.5 1.5 1.5 0 0 1 1.5 1.5 1.5 1.5 0 0 1-1.5 1.5 1.5 1.5 0 0 1-1.5-1.5m12 0a1.5 1.5 0 0 1 1.5-1.5 1.5 1.5 0 0 1 1.5 1.5 1.5 1.5 0 0 1-1.5 1.5 1.5 1.5 0 0 1-1.5-1.5m12 0a1.5 1.5 0 0 1 1.5-1.5 1.5 1.5 0 0 1 1.5 1.5 1.5 1.5 0 0 1-1.5 1.5 1.5 1.5 0 0 1-1.5-1.5m12 0a1.5 1.5 0 0 1 1.5-1.5 1.5 1.5 0 0 1 1.5 1.5 1.5 1.5 0 0 1-1.5 1.5 1.5 1.5 0 0 1-1.5-1.5m12 0a1.5 1.5 0 0 1 1.5-1.5 1.5 1.5 0 0 1 1.5 1.5 1.5 1.5 0 0 1-1.5 1.5 1.5 1.5 0 0 1-1.5-1.5m12 0a1.5 1.5 0 0 1 1.5-1.5 1.5 1.5 0 0 1 1.5 1.5 1.5 1.5 0 0 1-1.5 1.5 1.5 1.5 0 0 1-1.5-1.5m12 0a1.5 1.5 0 0 1 1.5-1.5 1.5 1.5 0 0 1 1.5 1.5 1.5 1.5 0 0 1-1.5 1.5 1.5 1.5 0 0 1-1.5-1.5m12 0a1.5 1.5 0 0 1 1.5-1.5 1.5 1.5 0 0 1 1.5 1.5 1.5 1.5 0 0 1-1.5 1.5 1.5 1.5 0 0 1-1.5-1.5m12 0a1.5 1.5 0 0 1 1.5-1.5 1.5 1.5 0 0 1 1.5 1.5 1.5 1.5 0 0 1-1.5 1.5 1.5 1.5 0 0 1-1.5-1.5m12 0a1.5 1.5 0 0 1 1.5-1.5 1.5 1.5 0 0 1 1.5 1.5 1.5 1.5 0 0 1-1.5 1.5 1.5 1.5 0 0 1-1.5-1.5m9.97 2.74a1.5 1.5 0 0 1 1.5-1.5 1.5 1.5 0 0 1 1.5 1.5 1.5 1.5 0 0 1-1.5 1.5 1.5 1.5 0 0 1-1.5-1.5v-.03m7.3 7.34a1.5 1.5 0 0 1 1.5-1.5 1.5 1.5 0 0 1 1.5 1.5 1.5 1.5 0 0 1-1.5 1.5 1.5 1.5 0 0 1-1.5-1.5V650m2.73 10a1.5 1.5 0 0 1 1.5-1.5 1.5 1.5 0 0 1 1.5 1.5 1.5 1.5 0 0 1-1.5 1.5 1.5 1.5 0 0 1-1.5-1.5m0 11.78a1.5 1.5 0 0 1 1.5-1.5 1.5 1.5 0 0 1 1.5 1.5 1.5 1.5 0 0 1-1.5 1.5 1.5 1.5 0 0 1-1.5-1.5v-.03m0 11.8v-.02a1.5 1.5 0 0 1 1.5-1.5 1.5 1.5 0 0 1 1.5 1.5 1.5 1.5 0 0 1-1.5 1.5 1.5 1.5 0 0 1-1.5-1.5v-.02m0 11.8a1.5 1.5 0 0 1 1.5-1.5 1.5 1.5 0 0 1 1.5 1.5 1.5 1.5 0 0 1-1.5 1.5 1.5 1.5 0 0 1-1.5-1.5v-.02m0 11.8v-.02a1.5 1.5 0 0 1 1.5-1.5 1.5 1.5 0 0 1 1.5 1.5 1.5 1.5 0 0 1-1.5 1.5 1.5 1.5 0 0 1-1.5-1.5v-.02m0 11.8v-.02a1.5 1.5 0 0 1 1.5-1.5 1.5 1.5 0 0 1 1.5 1.5 1.5 1.5 0 0 1-1.5 1.5 1.5 1.5 0 0 1-1.5-1.5m0 11.78a1.5 1.5 0 0 1 1.5-1.5 1.5 1.5 0 0 1 1.5 1.5 1.5 1.5 0 0 1-1.5 1.5 1.5 1.5 0 0 1-1.5-1.5v-.03m0 11.8v-.02a1.5 1.5 0 0 1 1.5-1.5 1.5 1.5 0 0 1 1.5 1.5 1.5 1.5 0 0 1-1.5 1.5 1.5 1.5 0 0 1-1.5-1.5m0 11.78a1.5 1.5 0 0 1 1.5-1.5 1.5 1.5 0 0 1 1.5 1.5 1.5 1.5 0 0 1-1.5 1.5 1.5 1.5 0 0 1-1.5-1.5v-.03m0 11.8v-.02a1.5 1.5 0 0 1 1.5-1.5 1.5 1.5 0 0 1 1.5 1.5 1.5 1.5 0 0 1-1.5 1.5 1.5 1.5 0 0 1-1.5-1.5m0 11.78a1.5 1.5 0 0 1 1.5-1.5 1.5 1.5 0 0 1 1.5 1.5 1.5 1.5 0 0 1-1.5 1.5 1.5 1.5 0 0 1-1.5-1.5v-.03m0 11.8v-.02a1.5 1.5 0 0 1 1.5-1.5 1.5 1.5 0 0 1 1.5 1.5 1.5 1.5 0 0 1-1.5 1.5 1.5 1.5 0 0 1-1.5-1.5m0 11.8v-.02a1.5 1.5 0 0 1 1.5-1.5 1.5 1.5 0 0 1 1.5 1.5 1.5 1.5 0 0 1-1.5 1.5 1.5 1.5 0 0 1-1.5-1.5v-.02m0 11.8v-.02a1.5 1.5 0 0 1 1.5-1.5 1.5 1.5 0 0 1 1.5 1.5 1.5 1.5 0 0 1-1.5 1.5 1.5 1.5 0 0 1-1.5-1.5m0 11.78a1.5 1.5 0 0 1 1.5-1.5 1.5 1.5 0 0 1 1.5 1.5 1.5 1.5 0 0 1-1.5 1.5 1.5 1.5 0 0 1-1.5-1.5v-.03m0 11.8v-.03a1.5 1.5 0 0 1 1.5-1.5 1.5 1.5 0 0 1 1.5 1.5 1.5 1.5 0 0 1-1.5 1.5 1.5 1.5 0 0 1-1.5-1.5m0 11.78a1.5 1.5 0 0 1 1.5-1.5 1.5 1.5 0 0 1 1.5 1.5 1.5 1.5 0 0 1-1.5 1.5 1.5 1.5 0 0 1-1.5-1.5v-.03m0 11.8V860a1.5 1.5 0 0 1 1.5-1.5 1.5 1.5 0 0 1 1.5 1.5 1.5 1.5 0 0 1-1.5 1.5 1.5 1.5 0 0 1-1.5-1.5m-2.73 10v-.03a1.5 1.5 0 0 1 1.5-1.5 1.5 1.5 0 0 1 1.5 1.5 1.5 1.5 0 0 1-1.5 1.5 1.5 1.5 0 0 1-1.5-1.5m-7.3 7.32v-.03a1.5 1.5 0 0 1 1.5-1.5 1.5 1.5 0 0 1 1.5 1.5 1.5 1.5 0 0 1-1.5 1.5 1.5 1.5 0 0 1-1.5-1.5m-9.97 2.75V880a1.5 1.5 0 0 1 1.5-1.5 1.5 1.5 0 0 1 1.5 1.5 1.5 1.5 0 0 1-1.5 1.5 1.5 1.5 0 0 1-1.5-1.5m-12 0a1.5 1.5 0 0 1 1.5-1.5 1.5 1.5 0 0 1 1.5 1.5 1.5 1.5 0 0 1-1.5 1.5 1.5 1.5 0 0 1-1.5-1.5m-12 0a1.5 1.5 0 0 1 1.5-1.5 1.5 1.5 0 0 1 1.5 1.5 1.5 1.5 0 0 1-1.5 1.5 1.5 1.5 0 0 1-1.5-1.5m-12 0a1.5 1.5 0 0 1 1.5-1.5 1.5 1.5 0 0 1 1.5 1.5 1.5 1.5 0 0 1-1.5 1.5 1.5 1.5 0 0 1-1.5-1.5m-12 0a1.5 1.5 0 0 1 1.5-1.5 1.5 1.5 0 0 1 1.5 1.5 1.5 1.5 0 0 1-1.5 1.5 1.5 1.5 0 0 1-1.5-1.5m-12 0a1.5 1.5 0 0 1 1.5-1.5 1.5 1.5 0 0 1 1.5 1.5 1.5 1.5 0 0 1-1.5 1.5 1.5 1.5 0 0 1-1.5-1.5m-12 0a1.5 1.5 0 0 1 1.5-1.5 1.5 1.5 0 0 1 1.5 1.5 1.5 1.5 0 0 1-1.5 1.5 1.5 1.5 0 0 1-1.5-1.5m-12 0a1.5 1.5 0 0 1 1.5-1.5 1.5 1.5 0 0 1 1.5 1.5 1.5 1.5 0 0 1-1.5 1.5 1.5 1.5 0 0 1-1.5-1.5m-12 0a1.5 1.5 0 0 1 1.5-1.5 1.5 1.5 0 0 1 1.5 1.5 1.5 1.5 0 0 1-1.5 1.5 1.5 1.5 0 0 1-1.5-1.5m-12 0a1.5 1.5 0 0 1 1.5-1.5 1.5 1.5 0 0 1 1.5 1.5 1.5 1.5 0 0 1-1.5 1.5 1.5 1.5 0 0 1-1.5-1.5m-12 0a1.5 1.5 0 0 1 1.5-1.5 1.5 1.5 0 0 1 1.5 1.5 1.5 1.5 0 0 1-1.5 1.5 1.5 1.5 0 0 1-1.5-1.5m-9.97-2.7v-.03a1.5 1.5 0 0 1 1.5-1.5 1.5 1.5 0 0 1 1.5 1.5 1.5 1.5 0 0 1-1.5 1.5 1.5 1.5 0 0 1-1.5-1.5m-7.3-7.28v-.03a1.5 1.5 0 0 1 1.5-1.5 1.5 1.5 0 0 1 1.5 1.5 1.5 1.5 0 0 1-1.5 1.5 1.5 1.5 0 0 1-1.5-1.5m-2.73-9.96a1.5 1.5 0 0 1 1.5-1.5 1.5 1.5 0 0 1 1.5 1.5 1.5 1.5 0 0 1-1.5 1.5 1.5 1.5 0 0 1-1.5-1.5m0-11.75a1.5 1.5 0 0 1 1.5-1.5 1.5 1.5 0 0 1 1.5 1.5 1.5 1.5 0 0 1-1.5 1.5 1.5 1.5 0 0 1-1.5-1.5v-.03m0-11.73v-.03a1.5 1.5 0 0 1 1.5-1.5 1.5 1.5 0 0 1 1.5 1.5 1.5 1.5 0 0 1-1.5 1.5 1.5 1.5 0 0 1-1.5-1.5m0-11.75a1.5 1.5 0 0 1 1.5-1.5 1.5 1.5 0 0 1 1.5 1.5 1.5 1.5 0 0 1-1.5 1.5 1.5 1.5 0 0 1-1.5-1.5v-.03m0-11.74v-.02a1.5 1.5 0 0 1 1.5-1.5 1.5 1.5 0 0 1 1.5 1.5 1.5 1.5 0 0 1-1.5 1.5 1.5 1.5 0 0 1-1.5-1.5m0-11.75v-.02a1.5 1.5 0 0 1 1.5-1.5 1.5 1.5 0 0 1 1.5 1.5 1.5 1.5 0 0 1-1.5 1.5 1.5 1.5 0 0 1-1.5-1.5v-.02m0-11.73v-.02a1.5 1.5 0 0 1 1.5-1.5 1.5 1.5 0 0 1 1.5 1.5 1.5 1.5 0 0 1-1.5 1.5 1.5 1.5 0 0 1-1.5-1.5m0-11.74a1.5 1.5 0 0 1 1.5-1.5 1.5 1.5 0 0 1 1.5 1.5 1.5 1.5 0 0 1-1.5 1.5 1.5 1.5 0 0 1-1.5-1.5v-.03m0-11.73v-.02a1.5 1.5 0 0 1 1.5-1.5 1.5 1.5 0 0 1 1.5 1.5 1.5 1.5 0 0 1-1.5 1.5 1.5 1.5 0 0 1-1.5-1.5m0-11.75a1.5 1.5 0 0 1 1.5-1.5 1.5 1.5 0 0 1 1.5 1.5 1.5 1.5 0 0 1-1.5 1.5 1.5 1.5 0 0 1-1.5-1.5v-.03m0-11.73v-.02a1.5 1.5 0 0 1 1.5-1.5 1.5 1.5 0 0 1 1.5 1.5 1.5 1.5 0 0 1-1.5 1.5 1.5 1.5 0 0 1-1.5-1.5m0-11.75a1.5 1.5 0 0 1 1.5-1.5 1.5 1.5 0 0 1 1.5 1.5 1.5 1.5 0 0 1-1.5 1.5 1.5 1.5 0 0 1-1.5-1.5v-.03m0-11.73v-.02a1.5 1.5 0 0 1 1.5-1.5 1.5 1.5 0 0 1 1.5 1.5 1.5 1.5 0 0 1-1.5 1.5 1.5 1.5 0 0 1-1.5-1.5m0-11.75a1.5 1.5 0 0 1 1.5-1.5 1.5 1.5 0 0 1 1.5 1.5 1.5 1.5 0 0 1-1.5 1.5 1.5 1.5 0 0 1-1.5-1.5v-.03m0-11.73a1.5 1.5 0 0 1 1.5-1.5 1.5 1.5 0 0 1 1.5 1.5 1.5 1.5 0 0 1-1.5 1.5 1.5 1.5 0 0 1-1.5-1.5v-.02m0-11.74a1.5 1.5 0 0 1 1.5-1.5 1.5 1.5 0 0 1 1.5 1.5 1.5 1.5 0 0 1-1.5 1.5 1.5 1.5 0 0 1-1.5-1.5v-.03m0-11.72a1.5 1.5 0 0 1 1.5-1.5 1.5 1.5 0 0 1 1.5 1.5 1.5 1.5 0 0 1-1.5 1.5 1.5 1.5 0 0 1-1.5-1.5v-.03m0-11.74a1.5 1.5 0 0 1 1.5-1.5 1.5 1.5 0 0 1 1.5 1.5 1.5 1.5 0 0 1-1.5 1.5 1.5 1.5 0 0 1-1.5-1.5M1277 817.5a1 1 0 0 1 1-1 1 1 0 0 1 1 1 1 1 0 0 1-1 1 1 1 0 0 1-1-1m0-4a1 1 0 0 1 1-1 1 1 0 0 1 1 1 1 1 0 0 1-1 1 1 1 0 0 1-1-1m0-4a1 1 0 0 1 1-1 1 1 0 0 1 1 1 1 1 0 0 1-1 1 1 1 0 0 1-1-1m0-4a1 1 0 0 1 1-1 1 1 0 0 1 1 1 1 1 0 0 1-1 1 1 1 0 0 1-1-1m0-4a1 1 0 0 1 1-1 1 1 0 0 1 1 1 1 1 0 0 1-1 1 1 1 0 0 1-1-1m0-4a1 1 0 0 1 1-1 1 1 0 0 1 1 1 1 1 0 0 1-1 1 1 1 0 0 1-1-1m0-4a1 1 0 0 1 1-1 1 1 0 0 1 1 1 1 1 0 0 1-1 1 1 1 0 0 1-1-1v-.02m0-3.98a1 1 0 0 1 1-1 1 1 0 0 1 1 1 1 1 0 0 1-1 1 1 1 0 0 1-1-1v-.02m0-3.98a1 1 0 0 1 1-1 1 1 0 0 1 1 1 1 1 0 0 1-1 1 1 1 0 0 1-1-1v-.02m0-3.98a1 1 0 0 1 1-1 1 1 0 0 1 1 1 1 1 0 0 1-1 1 1 1 0 0 1-1-1v-.02M1281 817.5a1 1 0 0 1 1-1 1 1 0 0 1 1 1 1 1 0 0 1-1 1 1 1 0 0 1-1-1m0-4a1 1 0 0 1 1-1 1 1 0 0 1 1 1 1 1 0 0 1-1 1 1 1 0 0 1-1-1m0-4a1 1 0 0 1 1-1 1 1 0 0 1 1 1 1 1 0 0 1-1 1 1 1 0 0 1-1-1m0-4a1 1 0 0 1 1-1 1 1 0 0 1 1 1 1 1 0 0 1-1 1 1 1 0 0 1-1-1m0-4a1 1 0 0 1 1-1 1 1 0 0 1 1 1 1 1 0 0 1-1 1 1 1 0 0 1-1-1m0-4a1 1 0 0 1 1-1 1 1 0 0 1 1 1 1 1 0 0 1-1 1 1 1 0 0 1-1-1m0-4a1 1 0 0 1 1-1 1 1 0 0 1 1 1 1 1 0 0 1-1 1 1 1 0 0 1-1-1v-.02m0-3.98a1 1 0 0 1 1-1 1 1 0 0 1 1 1 1 1 0 0 1-1 1 1 1 0 0 1-1-1v-.02m0-3.98a1 1 0 0 1 1-1 1 1 0 0 1 1 1 1 1 0 0 1-1 1 1 1 0 0 1-1-1v-.02m0-3.98a1 1 0 0 1 1-1 1 1 0 0 1 1 1 1 1 0 0 1-1 1 1 1 0 0 1-1-1v-.02" fill="#008573"/><path d="M1278.97 818.5h-1.94v-1.03h1.94zM1282.97 818.5h-1.94v-1.03h1.94z" stroke="#008573" stroke-width=".05" fill="#008573"/><path d="M1280 763.5l7.5 13h-15z" stroke="#008573" stroke-width="2" fill="#fff"/><path d="M1000 660a20 20 0 0 1 20-20h120a20 20 0 0 1 20 20v200a20 20 0 0 1-20 20h-120a20 20 0 0 1-20-20z" fill-opacity="0"/><path d="M998.5 660a1.5 1.5 0 0 1 1.5-1.5 1.5 1.5 0 0 1 1.5 1.5 1.5 1.5 0 0 1-1.5 1.5 1.5 1.5 0 0 1-1.5-1.5m2.73-9.96a1.5 1.5 0 0 1 1.5-1.5 1.5 1.5 0 0 1 1.5 1.5 1.5 1.5 0 0 1-1.5 1.5 1.5 1.5 0 0 1-1.5-1.5V650m7.3-7.26a1.5 1.5 0 0 1 1.5-1.5 1.5 1.5 0 0 1 1.5 1.5 1.5 1.5 0 0 1-1.5 1.5 1.5 1.5 0 0 1-1.5-1.5v-.03m9.97-2.7a1.5 1.5 0 0 1 1.5-1.5 1.5 1.5 0 0 1 1.5 1.5 1.5 1.5 0 0 1-1.5 1.5 1.5 1.5 0 0 1-1.5-1.5m12 0a1.5 1.5 0 0 1 1.5-1.5 1.5 1.5 0 0 1 1.5 1.5 1.5 1.5 0 0 1-1.5 1.5 1.5 1.5 0 0 1-1.5-1.5m12 0a1.5 1.5 0 0 1 1.5-1.5 1.5 1.5 0 0 1 1.5 1.5 1.5 1.5 0 0 1-1.5 1.5 1.5 1.5 0 0 1-1.5-1.5m12 0a1.5 1.5 0 0 1 1.5-1.5 1.5 1.5 0 0 1 1.5 1.5 1.5 1.5 0 0 1-1.5 1.5 1.5 1.5 0 0 1-1.5-1.5m12 0a1.5 1.5 0 0 1 1.5-1.5 1.5 1.5 0 0 1 1.5 1.5 1.5 1.5 0 0 1-1.5 1.5 1.5 1.5 0 0 1-1.5-1.5m12 0a1.5 1.5 0 0 1 1.5-1.5 1.5 1.5 0 0 1 1.5 1.5 1.5 1.5 0 0 1-1.5 1.5 1.5 1.5 0 0 1-1.5-1.5m12 0a1.5 1.5 0 0 1 1.5-1.5 1.5 1.5 0 0 1 1.5 1.5 1.5 1.5 0 0 1-1.5 1.5 1.5 1.5 0 0 1-1.5-1.5m12 0a1.5 1.5 0 0 1 1.5-1.5 1.5 1.5 0 0 1 1.5 1.5 1.5 1.5 0 0 1-1.5 1.5 1.5 1.5 0 0 1-1.5-1.5m12 0a1.5 1.5 0 0 1 1.5-1.5 1.5 1.5 0 0 1 1.5 1.5 1.5 1.5 0 0 1-1.5 1.5 1.5 1.5 0 0 1-1.5-1.5m12 0a1.5 1.5 0 0 1 1.5-1.5 1.5 1.5 0 0 1 1.5 1.5 1.5 1.5 0 0 1-1.5 1.5 1.5 1.5 0 0 1-1.5-1.5m12 0a1.5 1.5 0 0 1 1.5-1.5 1.5 1.5 0 0 1 1.5 1.5 1.5 1.5 0 0 1-1.5 1.5 1.5 1.5 0 0 1-1.5-1.5m9.97 2.74a1.5 1.5 0 0 1 1.5-1.5 1.5 1.5 0 0 1 1.5 1.5 1.5 1.5 0 0 1-1.5 1.5 1.5 1.5 0 0 1-1.5-1.5v-.03m7.3 7.34a1.5 1.5 0 0 1 1.5-1.5 1.5 1.5 0 0 1 1.5 1.5 1.5 1.5 0 0 1-1.5 1.5 1.5 1.5 0 0 1-1.5-1.5V650m2.73 10a1.5 1.5 0 0 1 1.5-1.5 1.5 1.5 0 0 1 1.5 1.5 1.5 1.5 0 0 1-1.5 1.5 1.5 1.5 0 0 1-1.5-1.5m0 11.78a1.5 1.5 0 0 1 1.5-1.5 1.5 1.5 0 0 1 1.5 1.5 1.5 1.5 0 0 1-1.5 1.5 1.5 1.5 0 0 1-1.5-1.5v-.03m0 11.8v-.02a1.5 1.5 0 0 1 1.5-1.5 1.5 1.5 0 0 1 1.5 1.5 1.5 1.5 0 0 1-1.5 1.5 1.5 1.5 0 0 1-1.5-1.5v-.02m0 11.8a1.5 1.5 0 0 1 1.5-1.5 1.5 1.5 0 0 1 1.5 1.5 1.5 1.5 0 0 1-1.5 1.5 1.5 1.5 0 0 1-1.5-1.5v-.02m0 11.8v-.02a1.5 1.5 0 0 1 1.5-1.5 1.5 1.5 0 0 1 1.5 1.5 1.5 1.5 0 0 1-1.5 1.5 1.5 1.5 0 0 1-1.5-1.5v-.02m0 11.8v-.02a1.5 1.5 0 0 1 1.5-1.5 1.5 1.5 0 0 1 1.5 1.5 1.5 1.5 0 0 1-1.5 1.5 1.5 1.5 0 0 1-1.5-1.5m0 11.78a1.5 1.5 0 0 1 1.5-1.5 1.5 1.5 0 0 1 1.5 1.5 1.5 1.5 0 0 1-1.5 1.5 1.5 1.5 0 0 1-1.5-1.5v-.03m0 11.8v-.02a1.5 1.5 0 0 1 1.5-1.5 1.5 1.5 0 0 1 1.5 1.5 1.5 1.5 0 0 1-1.5 1.5 1.5 1.5 0 0 1-1.5-1.5m0 11.78a1.5 1.5 0 0 1 1.5-1.5 1.5 1.5 0 0 1 1.5 1.5 1.5 1.5 0 0 1-1.5 1.5 1.5 1.5 0 0 1-1.5-1.5v-.03m0 11.8v-.02a1.5 1.5 0 0 1 1.5-1.5 1.5 1.5 0 0 1 1.5 1.5 1.5 1.5 0 0 1-1.5 1.5 1.5 1.5 0 0 1-1.5-1.5m0 11.78a1.5 1.5 0 0 1 1.5-1.5 1.5 1.5 0 0 1 1.5 1.5 1.5 1.5 0 0 1-1.5 1.5 1.5 1.5 0 0 1-1.5-1.5v-.03m0 11.8v-.02a1.5 1.5 0 0 1 1.5-1.5 1.5 1.5 0 0 1 1.5 1.5 1.5 1.5 0 0 1-1.5 1.5 1.5 1.5 0 0 1-1.5-1.5m0 11.8v-.02a1.5 1.5 0 0 1 1.5-1.5 1.5 1.5 0 0 1 1.5 1.5 1.5 1.5 0 0 1-1.5 1.5 1.5 1.5 0 0 1-1.5-1.5v-.02m0 11.8v-.02a1.5 1.5 0 0 1 1.5-1.5 1.5 1.5 0 0 1 1.5 1.5 1.5 1.5 0 0 1-1.5 1.5 1.5 1.5 0 0 1-1.5-1.5m0 11.78a1.5 1.5 0 0 1 1.5-1.5 1.5 1.5 0 0 1 1.5 1.5 1.5 1.5 0 0 1-1.5 1.5 1.5 1.5 0 0 1-1.5-1.5v-.03m0 11.8v-.03a1.5 1.5 0 0 1 1.5-1.5 1.5 1.5 0 0 1 1.5 1.5 1.5 1.5 0 0 1-1.5 1.5 1.5 1.5 0 0 1-1.5-1.5m0 11.78a1.5 1.5 0 0 1 1.5-1.5 1.5 1.5 0 0 1 1.5 1.5 1.5 1.5 0 0 1-1.5 1.5 1.5 1.5 0 0 1-1.5-1.5v-.03m0 11.8V860a1.5 1.5 0 0 1 1.5-1.5 1.5 1.5 0 0 1 1.5 1.5 1.5 1.5 0 0 1-1.5 1.5 1.5 1.5 0 0 1-1.5-1.5m-2.73 10v-.03a1.5 1.5 0 0 1 1.5-1.5 1.5 1.5 0 0 1 1.5 1.5 1.5 1.5 0 0 1-1.5 1.5 1.5 1.5 0 0 1-1.5-1.5m-7.3 7.32v-.03a1.5 1.5 0 0 1 1.5-1.5 1.5 1.5 0 0 1 1.5 1.5 1.5 1.5 0 0 1-1.5 1.5 1.5 1.5 0 0 1-1.5-1.5m-9.97 2.75V880a1.5 1.5 0 0 1 1.5-1.5 1.5 1.5 0 0 1 1.5 1.5 1.5 1.5 0 0 1-1.5 1.5 1.5 1.5 0 0 1-1.5-1.5m-12 0a1.5 1.5 0 0 1 1.5-1.5 1.5 1.5 0 0 1 1.5 1.5 1.5 1.5 0 0 1-1.5 1.5 1.5 1.5 0 0 1-1.5-1.5m-12 0a1.5 1.5 0 0 1 1.5-1.5 1.5 1.5 0 0 1 1.5 1.5 1.5 1.5 0 0 1-1.5 1.5 1.5 1.5 0 0 1-1.5-1.5m-12 0a1.5 1.5 0 0 1 1.5-1.5 1.5 1.5 0 0 1 1.5 1.5 1.5 1.5 0 0 1-1.5 1.5 1.5 1.5 0 0 1-1.5-1.5m-12 0a1.5 1.5 0 0 1 1.5-1.5 1.5 1.5 0 0 1 1.5 1.5 1.5 1.5 0 0 1-1.5 1.5 1.5 1.5 0 0 1-1.5-1.5m-12 0a1.5 1.5 0 0 1 1.5-1.5 1.5 1.5 0 0 1 1.5 1.5 1.5 1.5 0 0 1-1.5 1.5 1.5 1.5 0 0 1-1.5-1.5m-12 0a1.5 1.5 0 0 1 1.5-1.5 1.5 1.5 0 0 1 1.5 1.5 1.5 1.5 0 0 1-1.5 1.5 1.5 1.5 0 0 1-1.5-1.5m-12 0a1.5 1.5 0 0 1 1.5-1.5 1.5 1.5 0 0 1 1.5 1.5 1.5 1.5 0 0 1-1.5 1.5 1.5 1.5 0 0 1-1.5-1.5m-12 0a1.5 1.5 0 0 1 1.5-1.5 1.5 1.5 0 0 1 1.5 1.5 1.5 1.5 0 0 1-1.5 1.5 1.5 1.5 0 0 1-1.5-1.5m-12 0a1.5 1.5 0 0 1 1.5-1.5 1.5 1.5 0 0 1 1.5 1.5 1.5 1.5 0 0 1-1.5 1.5 1.5 1.5 0 0 1-1.5-1.5m-12 0a1.5 1.5 0 0 1 1.5-1.5 1.5 1.5 0 0 1 1.5 1.5 1.5 1.5 0 0 1-1.5 1.5 1.5 1.5 0 0 1-1.5-1.5m-9.97-2.7v-.03a1.5 1.5 0 0 1 1.5-1.5 1.5 1.5 0 0 1 1.5 1.5 1.5 1.5 0 0 1-1.5 1.5 1.5 1.5 0 0 1-1.5-1.5m-7.3-7.28v-.03a1.5 1.5 0 0 1 1.5-1.5 1.5 1.5 0 0 1 1.5 1.5 1.5 1.5 0 0 1-1.5 1.5 1.5 1.5 0 0 1-1.5-1.5M998.5 860a1.5 1.5 0 0 1 1.5-1.5 1.5 1.5 0 0 1 1.5 1.5 1.5 1.5 0 0 1-1.5 1.5 1.5 1.5 0 0 1-1.5-1.5m0-11.75a1.5 1.5 0 0 1 1.5-1.5 1.5 1.5 0 0 1 1.5 1.5 1.5 1.5 0 0 1-1.5 1.5 1.5 1.5 0 0 1-1.5-1.5v-.03m0-11.73v-.03a1.5 1.5 0 0 1 1.5-1.5 1.5 1.5 0 0 1 1.5 1.5 1.5 1.5 0 0 1-1.5 1.5 1.5 1.5 0 0 1-1.5-1.5m0-11.75a1.5 1.5 0 0 1 1.5-1.5 1.5 1.5 0 0 1 1.5 1.5 1.5 1.5 0 0 1-1.5 1.5 1.5 1.5 0 0 1-1.5-1.5v-.03m0-11.74v-.02a1.5 1.5 0 0 1 1.5-1.5 1.5 1.5 0 0 1 1.5 1.5 1.5 1.5 0 0 1-1.5 1.5 1.5 1.5 0 0 1-1.5-1.5m0-11.75v-.02a1.5 1.5 0 0 1 1.5-1.5 1.5 1.5 0 0 1 1.5 1.5 1.5 1.5 0 0 1-1.5 1.5 1.5 1.5 0 0 1-1.5-1.5v-.02m0-11.73v-.02a1.5 1.5 0 0 1 1.5-1.5 1.5 1.5 0 0 1 1.5 1.5 1.5 1.5 0 0 1-1.5 1.5 1.5 1.5 0 0 1-1.5-1.5m0-11.74a1.5 1.5 0 0 1 1.5-1.5 1.5 1.5 0 0 1 1.5 1.5 1.5 1.5 0 0 1-1.5 1.5 1.5 1.5 0 0 1-1.5-1.5v-.03m0-11.73v-.02a1.5 1.5 0 0 1 1.5-1.5 1.5 1.5 0 0 1 1.5 1.5 1.5 1.5 0 0 1-1.5 1.5 1.5 1.5 0 0 1-1.5-1.5m0-11.75a1.5 1.5 0 0 1 1.5-1.5 1.5 1.5 0 0 1 1.5 1.5 1.5 1.5 0 0 1-1.5 1.5 1.5 1.5 0 0 1-1.5-1.5v-.03m0-11.73v-.02a1.5 1.5 0 0 1 1.5-1.5 1.5 1.5 0 0 1 1.5 1.5 1.5 1.5 0 0 1-1.5 1.5 1.5 1.5 0 0 1-1.5-1.5m0-11.75a1.5 1.5 0 0 1 1.5-1.5 1.5 1.5 0 0 1 1.5 1.5 1.5 1.5 0 0 1-1.5 1.5 1.5 1.5 0 0 1-1.5-1.5v-.03m0-11.73v-.02a1.5 1.5 0 0 1 1.5-1.5 1.5 1.5 0 0 1 1.5 1.5 1.5 1.5 0 0 1-1.5 1.5 1.5 1.5 0 0 1-1.5-1.5m0-11.75a1.5 1.5 0 0 1 1.5-1.5 1.5 1.5 0 0 1 1.5 1.5 1.5 1.5 0 0 1-1.5 1.5 1.5 1.5 0 0 1-1.5-1.5v-.03m0-11.73a1.5 1.5 0 0 1 1.5-1.5 1.5 1.5 0 0 1 1.5 1.5 1.5 1.5 0 0 1-1.5 1.5 1.5 1.5 0 0 1-1.5-1.5v-.02m0-11.74a1.5 1.5 0 0 1 1.5-1.5 1.5 1.5 0 0 1 1.5 1.5 1.5 1.5 0 0 1-1.5 1.5 1.5 1.5 0 0 1-1.5-1.5v-.03m0-11.72a1.5 1.5 0 0 1 1.5-1.5 1.5 1.5 0 0 1 1.5 1.5 1.5 1.5 0 0 1-1.5 1.5 1.5 1.5 0 0 1-1.5-1.5v-.03m0-11.74a1.5 1.5 0 0 1 1.5-1.5 1.5 1.5 0 0 1 1.5 1.5 1.5 1.5 0 0 1-1.5 1.5 1.5 1.5 0 0 1-1.5-1.5" fill="#cc4e00"/><path d="M1020 820a20 20 0 0 1 20-20h80a20 20 0 0 1 20 20v20a20 20 0 0 1-20 20h-80a20 20 0 0 1-20-20z" stroke="#cc4e00" stroke-width="3" fill="#ced4db"/><use xlink:href="#a" transform="matrix(1,0,0,1,1025,805) translate(3.938271604938265 28.930555555555557)"/><use xlink:href="#b" transform="matrix(1,0,0,1,1025,805) translate(72.17901234567901 28.930555555555557)"/><path d="M1141.5 838a1 1 0 0 1 1-1 1 1 0 0 1 1 1 1 1 0 0 1-1 1 1 1 0 0 1-1-1m4 0a1 1 0 0 1 1-1 1 1 0 0 1 1 1 1 1 0 0 1-1 1 1 1 0 0 1-1-1m4 0a1 1 0 0 1 1-1 1 1 0 0 1 1 1 1 1 0 0 1-1 1 1 1 0 0 1-1-1m4 0a1 1 0 0 1 1-1 1 1 0 0 1 1 1 1 1 0 0 1-1 1 1 1 0 0 1-1-1m4 0a1 1 0 0 1 1-1 1 1 0 0 1 1 1 1 1 0 0 1-1 1 1 1 0 0 1-1-1m4 0a1 1 0 0 1 1-1 1 1 0 0 1 1 1 1 1 0 0 1-1 1 1 1 0 0 1-1-1m4 0a1 1 0 0 1 1-1 1 1 0 0 1 1 1 1 1 0 0 1-1 1 1 1 0 0 1-1-1m4 0a1 1 0 0 1 1-1 1 1 0 0 1 1 1 1 1 0 0 1-1 1 1 1 0 0 1-1-1m4 0a1 1 0 0 1 1-1 1 1 0 0 1 1 1 1 1 0 0 1-1 1 1 1 0 0 1-1-1m4 0a1 1 0 0 1 1-1 1 1 0 0 1 1 1 1 1 0 0 1-1 1 1 1 0 0 1-1-1m4 0a1 1 0 0 1 1-1 1 1 0 0 1 1 1 1 1 0 0 1-1 1 1 1 0 0 1-1-1m4 0a1 1 0 0 1 1-1 1 1 0 0 1 1 1 1 1 0 0 1-1 1 1 1 0 0 1-1-1m4 0a1 1 0 0 1 1-1 1 1 0 0 1 1 1 1 1 0 0 1-1 1 1 1 0 0 1-1-1m4 0a1 1 0 0 1 1-1 1 1 0 0 1 1 1 1 1 0 0 1-1 1 1 1 0 0 1-1-1m4 0a1 1 0 0 1 1-1 1 1 0 0 1 1 1 1 1 0 0 1-1 1 1 1 0 0 1-1-1M1141.5 842a1 1 0 0 1 1-1 1 1 0 0 1 1 1 1 1 0 0 1-1 1 1 1 0 0 1-1-1m4 0a1 1 0 0 1 1-1 1 1 0 0 1 1 1 1 1 0 0 1-1 1 1 1 0 0 1-1-1m4 0a1 1 0 0 1 1-1 1 1 0 0 1 1 1 1 1 0 0 1-1 1 1 1 0 0 1-1-1m4 0a1 1 0 0 1 1-1 1 1 0 0 1 1 1 1 1 0 0 1-1 1 1 1 0 0 1-1-1m4 0a1 1 0 0 1 1-1 1 1 0 0 1 1 1 1 1 0 0 1-1 1 1 1 0 0 1-1-1m4 0a1 1 0 0 1 1-1 1 1 0 0 1 1 1 1 1 0 0 1-1 1 1 1 0 0 1-1-1m4 0a1 1 0 0 1 1-1 1 1 0 0 1 1 1 1 1 0 0 1-1 1 1 1 0 0 1-1-1m4 0a1 1 0 0 1 1-1 1 1 0 0 1 1 1 1 1 0 0 1-1 1 1 1 0 0 1-1-1m4 0a1 1 0 0 1 1-1 1 1 0 0 1 1 1 1 1 0 0 1-1 1 1 1 0 0 1-1-1m4 0a1 1 0 0 1 1-1 1 1 0 0 1 1 1 1 1 0 0 1-1 1 1 1 0 0 1-1-1m4 0a1 1 0 0 1 1-1 1 1 0 0 1 1 1 1 1 0 0 1-1 1 1 1 0 0 1-1-1m4 0a1 1 0 0 1 1-1 1 1 0 0 1 1 1 1 1 0 0 1-1 1 1 1 0 0 1-1-1m4 0a1 1 0 0 1 1-1 1 1 0 0 1 1 1 1 1 0 0 1-1 1 1 1 0 0 1-1-1m4 0a1 1 0 0 1 1-1 1 1 0 0 1 1 1 1 1 0 0 1-1 1 1 1 0 0 1-1-1m4 0a1 1 0 0 1 1-1 1 1 0 0 1 1 1 1 1 0 0 1-1 1 1 1 0 0 1-1-1" fill="#cc4e00"/><path d="M1142.53 838.98h-1.03V837h1.03zM1142.53 842.98h-1.26l.15-1.96h1.1z" stroke="#cc4e00" stroke-width=".05" fill="#cc4e00"/><path d="M1216.5 840l-13 7.5v-15z" stroke="#cc4e00" stroke-width="2" fill="#fff"/><path d="M1020 680a20 20 0 0 1 20-20h80a20 20 0 0 1 20 20v60a20 20 0 0 1-20 20h-80a20 20 0 0 1-20-20z" stroke="#cc4e00" stroke-width="3" fill="url(#j)"/><use xlink:href="#d" transform="matrix(1,0,0,1,1025,665) translate(26.820987654320984 36.43055555555556)"/><use xlink:href="#e" transform="matrix(1,0,0,1,1025,665) translate(7.4691358024691255 65.76388888888889)"/><path d="M1020 580a20 20 0 0 1 20-20h280a20 20 0 0 1 20 20 20 20 0 0 1-20 20h-280a20 20 0 0 1-20-20z" stroke="#000" stroke-width="3" fill="#e8e2c8"/><use xlink:href="#f" transform="matrix(1,0,0,1,1025,565) translate(123.87228395061727 21.430555555555557)"/><path d="M1077 782.52a1 1 0 0 1 1-1 1 1 0 0 1 1 1 1 1 0 0 1-1 1 1 1 0 0 1-1-1v-.02m0-3.98a1 1 0 0 1 1-1 1 1 0 0 1 1 1 1 1 0 0 1-1 1 1 1 0 0 1-1-1v-.02m0-3.98a1 1 0 0 1 1-1 1 1 0 0 1 1 1 1 1 0 0 1-1 1 1 1 0 0 1-1-1v-.02m0-4a1 1 0 0 1 1-1 1 1 0 0 1 1 1 1 1 0 0 1-1 1 1 1 0 0 1-1-1m0-4a1 1 0 0 1 1-1 1 1 0 0 1 1 1 1 1 0 0 1-1 1 1 1 0 0 1-1-1M1081 782.52a1 1 0 0 1 1-1 1 1 0 0 1 1 1 1 1 0 0 1-1 1 1 1 0 0 1-1-1v-.02m0-3.98a1 1 0 0 1 1-1 1 1 0 0 1 1 1 1 1 0 0 1-1 1 1 1 0 0 1-1-1v-.02m0-3.98a1 1 0 0 1 1-1 1 1 0 0 1 1 1 1 1 0 0 1-1 1 1 1 0 0 1-1-1v-.02m0-4a1 1 0 0 1 1-1 1 1 0 0 1 1 1 1 1 0 0 1-1 1 1 1 0 0 1-1-1m0-4a1 1 0 0 1 1-1 1 1 0 0 1 1 1 1 1 0 0 1-1 1 1 1 0 0 1-1-1" fill="#cc4e00"/><path d="M1080 796.5l-7.5-13h15z" stroke="#cc4e00" stroke-width="2" fill="#fff"/><path d="M1078.97 762.53h-1.94v-1.03h1.94zM1082.97 762.53h-1.94v-1.03h1.94z" stroke="#cc4e00" stroke-width=".05" fill="#cc4e00"/><path d="M1077 642.52a1 1 0 0 1 1-1 1 1 0 0 1 1 1 1 1 0 0 1-1 1 1 1 0 0 1-1-1v-.02m0-3.98a1 1 0 0 1 1-1 1 1 0 0 1 1 1 1 1 0 0 1-1 1 1 1 0 0 1-1-1v-.02m0-3.98a1 1 0 0 1 1-1 1 1 0 0 1 1 1 1 1 0 0 1-1 1 1 1 0 0 1-1-1v-.02m0-3.98a1 1 0 0 1 1-1 1 1 0 0 1 1 1 1 1 0 0 1-1 1 1 1 0 0 1-1-1v-.02m0-3.98a1 1 0 0 1 1-1 1 1 0 0 1 1 1 1 1 0 0 1-1 1 1 1 0 0 1-1-1v-.02m0-4a1 1 0 0 1 1-1 1 1 0 0 1 1 1 1 1 0 0 1-1 1 1 1 0 0 1-1-1m0-4a1 1 0 0 1 1-1 1 1 0 0 1 1 1 1 1 0 0 1-1 1 1 1 0 0 1-1-1m0-4a1 1 0 0 1 1-1 1 1 0 0 1 1 1 1 1 0 0 1-1 1 1 1 0 0 1-1-1m0-4a1 1 0 0 1 1-1 1 1 0 0 1 1 1 1 1 0 0 1-1 1 1 1 0 0 1-1-1m0-4a1 1 0 0 1 1-1 1 1 0 0 1 1 1 1 1 0 0 1-1 1 1 1 0 0 1-1-1m0-4a1 1 0 0 1 1-1 1 1 0 0 1 1 1 1 1 0 0 1-1 1 1 1 0 0 1-1-1M1081 642.52a1 1 0 0 1 1-1 1 1 0 0 1 1 1 1 1 0 0 1-1 1 1 1 0 0 1-1-1v-.02m0-3.98a1 1 0 0 1 1-1 1 1 0 0 1 1 1 1 1 0 0 1-1 1 1 1 0 0 1-1-1v-.02m0-3.98a1 1 0 0 1 1-1 1 1 0 0 1 1 1 1 1 0 0 1-1 1 1 1 0 0 1-1-1v-.02m0-3.98a1 1 0 0 1 1-1 1 1 0 0 1 1 1 1 1 0 0 1-1 1 1 1 0 0 1-1-1v-.02m0-3.98a1 1 0 0 1 1-1 1 1 0 0 1 1 1 1 1 0 0 1-1 1 1 1 0 0 1-1-1v-.02m0-4a1 1 0 0 1 1-1 1 1 0 0 1 1 1 1 1 0 0 1-1 1 1 1 0 0 1-1-1m0-4a1 1 0 0 1 1-1 1 1 0 0 1 1 1 1 1 0 0 1-1 1 1 1 0 0 1-1-1m0-4a1 1 0 0 1 1-1 1 1 0 0 1 1 1 1 1 0 0 1-1 1 1 1 0 0 1-1-1m0-4a1 1 0 0 1 1-1 1 1 0 0 1 1 1 1 1 0 0 1-1 1 1 1 0 0 1-1-1m0-4a1 1 0 0 1 1-1 1 1 0 0 1 1 1 1 1 0 0 1-1 1 1 1 0 0 1-1-1m0-4a1 1 0 0 1 1-1 1 1 0 0 1 1 1 1 1 0 0 1-1 1 1 1 0 0 1-1-1" fill="#cc4e00"/><path d="M1080 656.5l-7.5-13h15z" stroke="#cc4e00" stroke-width="2" fill="#fff"/><path d="M1078.97 602.53h-1.94v-1.03h1.94zM1082.97 602.53h-1.94v-1.03h1.94z" stroke="#cc4e00" stroke-width=".05" fill="#cc4e00"/><path d="M1220 700a20 20 0 0 1 20-20h80a20 20 0 0 1 20 20v40a20 20 0 0 1-20 20h-80a20 20 0 0 1-20-20z" stroke="#008573" stroke-width="3" fill="url(#k)"/><use xlink:href="#h" transform="matrix(1,0,0,1,1225,685) translate(25.836419753086417 26.118055555555557)"/><use xlink:href="#e" transform="matrix(1,0,0,1,1225,685) translate(7.4691358024691255 55.45138888888889)"/><path d="M1277 677.5a1 1 0 0 1 1-1 1 1 0 0 1 1 1 1 1 0 0 1-1 1 1 1 0 0 1-1-1m0-4a1 1 0 0 1 1-1 1 1 0 0 1 1 1 1 1 0 0 1-1 1 1 1 0 0 1-1-1m0-4a1 1 0 0 1 1-1 1 1 0 0 1 1 1 1 1 0 0 1-1 1 1 1 0 0 1-1-1m0-4a1 1 0 0 1 1-1 1 1 0 0 1 1 1 1 1 0 0 1-1 1 1 1 0 0 1-1-1m0-4a1 1 0 0 1 1-1 1 1 0 0 1 1 1 1 1 0 0 1-1 1 1 1 0 0 1-1-1m0-4a1 1 0 0 1 1-1 1 1 0 0 1 1 1 1 1 0 0 1-1 1 1 1 0 0 1-1-1m0-4a1 1 0 0 1 1-1 1 1 0 0 1 1 1 1 1 0 0 1-1 1 1 1 0 0 1-1-1m0-4a1 1 0 0 1 1-1 1 1 0 0 1 1 1 1 1 0 0 1-1 1 1 1 0 0 1-1-1m0-4a1 1 0 0 1 1-1 1 1 0 0 1 1 1 1 1 0 0 1-1 1 1 1 0 0 1-1-1m0-4a1 1 0 0 1 1-1 1 1 0 0 1 1 1 1 1 0 0 1-1 1 1 1 0 0 1-1-1v-.02m0-3.98a1 1 0 0 1 1-1 1 1 0 0 1 1 1 1 1 0 0 1-1 1 1 1 0 0 1-1-1v-.02m0-3.98a1 1 0 0 1 1-1 1 1 0 0 1 1 1 1 1 0 0 1-1 1 1 1 0 0 1-1-1v-.02m0-3.98a1 1 0 0 1 1-1 1 1 0 0 1 1 1 1 1 0 0 1-1 1 1 1 0 0 1-1-1v-.02m0-3.98a1 1 0 0 1 1-1 1 1 0 0 1 1 1 1 1 0 0 1-1 1 1 1 0 0 1-1-1v-.02m0-3.98a1 1 0 0 1 1-1 1 1 0 0 1 1 1 1 1 0 0 1-1 1 1 1 0 0 1-1-1v-.02m0-3.98a1 1 0 0 1 1-1 1 1 0 0 1 1 1 1 1 0 0 1-1 1 1 1 0 0 1-1-1v-.02M1281 677.5a1 1 0 0 1 1-1 1 1 0 0 1 1 1 1 1 0 0 1-1 1 1 1 0 0 1-1-1m0-4a1 1 0 0 1 1-1 1 1 0 0 1 1 1 1 1 0 0 1-1 1 1 1 0 0 1-1-1m0-4a1 1 0 0 1 1-1 1 1 0 0 1 1 1 1 1 0 0 1-1 1 1 1 0 0 1-1-1m0-4a1 1 0 0 1 1-1 1 1 0 0 1 1 1 1 1 0 0 1-1 1 1 1 0 0 1-1-1m0-4a1 1 0 0 1 1-1 1 1 0 0 1 1 1 1 1 0 0 1-1 1 1 1 0 0 1-1-1m0-4a1 1 0 0 1 1-1 1 1 0 0 1 1 1 1 1 0 0 1-1 1 1 1 0 0 1-1-1m0-4a1 1 0 0 1 1-1 1 1 0 0 1 1 1 1 1 0 0 1-1 1 1 1 0 0 1-1-1m0-4a1 1 0 0 1 1-1 1 1 0 0 1 1 1 1 1 0 0 1-1 1 1 1 0 0 1-1-1m0-4a1 1 0 0 1 1-1 1 1 0 0 1 1 1 1 1 0 0 1-1 1 1 1 0 0 1-1-1m0-4a1 1 0 0 1 1-1 1 1 0 0 1 1 1 1 1 0 0 1-1 1 1 1 0 0 1-1-1v-.02m0-3.98a1 1 0 0 1 1-1 1 1 0 0 1 1 1 1 1 0 0 1-1 1 1 1 0 0 1-1-1v-.02m0-3.98a1 1 0 0 1 1-1 1 1 0 0 1 1 1 1 1 0 0 1-1 1 1 1 0 0 1-1-1v-.02m0-3.98a1 1 0 0 1 1-1 1 1 0 0 1 1 1 1 1 0 0 1-1 1 1 1 0 0 1-1-1v-.02m0-3.98a1 1 0 0 1 1-1 1 1 0 0 1 1 1 1 1 0 0 1-1 1 1 1 0 0 1-1-1v-.02m0-3.98a1 1 0 0 1 1-1 1 1 0 0 1 1 1 1 1 0 0 1-1 1 1 1 0 0 1-1-1v-.02m0-3.98a1 1 0 0 1 1-1 1 1 0 0 1 1 1 1 1 0 0 1-1 1 1 1 0 0 1-1-1v-.02" fill="#008573"/><path d="M1278.97 677.47v1.03h-1.94v-1.03zM1282.97 677.47v1.03h-1.94v-1.03z" stroke="#008573" stroke-width=".05" fill="#008573"/><path d="M1280 603.5l7.5 13h-15z" stroke="#008573" stroke-width="2" fill="#fff"/><path d="M1220 840a20 20 0 0 1 20-20h80a20 20 0 0 1 20 20 20 20 0 0 1-20 20h-80a20 20 0 0 1-20-20z" stroke="#008573" stroke-width="3" fill="#ced4db"/><g><use xlink:href="#i" transform="matrix(1,0,0,1,1225,825) translate(2.313641975308636 19.555555555555557)"/><use xlink:href="#b" transform="matrix(1,0,0,1,1225,825) translate(73.81364197530864 19.555555555555557)"/></g><path d="M820 766a6 6 0 0 1 6-6h42a6 6 0 0 0 6-6v-8a2.3 2.3 0 0 1 4-1.54l28 31.08a6.67 6.67 0 0 1 0 8.92l-28 31.08a2.3 2.3 0 0 1-4-1.54v-8a6 6 0 0 0-6-6h-42a6 6 0 0 1-6-6z" fill="#fc9432"/><path d="M780 586a6 6 0 0 1 6-6h148a6 6 0 0 1 6 6v148a6 6 0 0 1-6 6H786a6 6 0 0 1-6-6z" stroke="#000" stroke-opacity="0" stroke-width="3" fill="#fff" fill-opacity="0"/><g><use xlink:href="#l" transform="matrix(1,0,0,1,785,585) translate(12.148148148148152 30.708333333333336)"/><use xlink:href="#m" transform="matrix(1,0,0,1,785,585) translate(96.44444444444444 30.708333333333336)"/><use xlink:href="#n" transform="matrix(1,0,0,1,785,585) translate(123.03703703703704 30.708333333333336)"/><use xlink:href="#o" transform="matrix(1,0,0,1,785,585) translate(8.481481481481467 62.708333333333336)"/><use xlink:href="#p" transform="matrix(1,0,0,1,785,585) translate(110.48148148148148 62.708333333333336)"/><use xlink:href="#q" transform="matrix(1,0,0,1,785,585) translate(10.592592592592581 94.70833333333334)"/><use xlink:href="#r" transform="matrix(1,0,0,1,785,585) translate(118.74074074074075 94.70833333333334)"/><use xlink:href="#s" transform="matrix(1,0,0,1,785,585) translate(26.851851851851848 126.70833333333334)"/><use xlink:href="#t" transform="matrix(1,0,0,1,785,585) translate(71.29629629629629 126.70833333333334)"/></g><defs><path d="M140-251c81 0 123 46 123 126C263-46 219 4 140 4 59 4 17-45 17-125s42-126 123-126zm0 227c63 0 89-41 89-101s-29-99-89-99c-61 0-89 39-89 99S79-25 140-24" id="u"/><path d="M30 0v-248h33v221h125V0H30" id="v"/><path d="M127-220V0H93v-220H8v-28h204v28h-85" id="w"/><path d="M30-248c87 1 191-15 191 75 0 78-77 80-158 76V0H30v-248zm33 125c57 0 124 11 124-50 0-59-68-47-124-48v98" id="x"/><g id="a"><use transform="matrix(0.06790123456790124,0,0,0.06790123456790124,0,0)" xlink:href="#u"/><use transform="matrix(0.06790123456790124,0,0,0.06790123456790124,19.01234567901235,0)" xlink:href="#v"/><use transform="matrix(0.06790123456790124,0,0,0.06790123456790124,30.759259259259267,0)" xlink:href="#w"/><use transform="matrix(0.06790123456790124,0,0,0.06790123456790124,45.62962962962965,0)" xlink:href="#x"/></g><path d="M30-248c118-7 216 8 213 122C240-48 200 0 122 0H30v-248zM63-27c89 8 146-16 146-99s-60-101-146-95v194" id="y"/><path d="M160-131c35 5 61 23 61 61C221 17 115-2 30 0v-248c76 3 177-17 177 60 0 33-19 50-47 57zm-97-11c50-1 110 9 110-42 0-47-63-36-110-37v79zm0 115c55-2 124 14 124-45 0-56-70-42-124-44v89" id="z"/><g id="b"><use transform="matrix(0.06790123456790124,0,0,0.06790123456790124,0,0)" xlink:href="#y"/><use transform="matrix(0.06790123456790124,0,0,0.06790123456790124,17.58641975308642,0)" xlink:href="#z"/></g><linearGradient gradientUnits="userSpaceOnUse" id="c" x1="380" y1="760" x2="380" y2="660"><stop offset="19.93%" stop-color="#fff"/><stop offset="27.17%" stop-color="#cfe4ff"/><stop offset="68.12%" stop-color="#cfe4ff"/><stop offset="75%" stop-color="#c3f7c8"/></linearGradient><path d="M266 0h-40l-56-210L115 0H75L2-248h35L96-30l15-64 43-154h32l59 218 59-218h35" id="A"/><path d="M114-163C36-179 61-72 57 0H25l-1-190h30c1 12-1 29 2 39 6-27 23-49 58-41v29" id="B"/><path d="M24-231v-30h32v30H24zM24 0v-190h32V0H24" id="C"/><path d="M59-47c-2 24 18 29 38 22v24C64 9 27 4 27-40v-127H5v-23h24l9-43h21v43h35v23H59v120" id="D"/><path d="M100-194c63 0 86 42 84 106H49c0 40 14 67 53 68 26 1 43-12 49-29l28 8c-11 28-37 45-77 45C44 4 14-33 15-96c1-61 26-98 85-98zm52 81c6-60-76-77-97-28-3 7-6 17-6 28h103" id="E"/><g id="d"><use transform="matrix(0.06790123456790124,0,0,0.06790123456790124,0,0)" xlink:href="#A"/><use transform="matrix(0.06790123456790124,0,0,0.06790123456790124,22.543209876543212,0)" xlink:href="#B"/><use transform="matrix(0.06790123456790124,0,0,0.06790123456790124,30.623456790123463,0)" xlink:href="#C"/><use transform="matrix(0.06790123456790124,0,0,0.06790123456790124,35.98765432098766,0)" xlink:href="#D"/><use transform="matrix(0.06790123456790124,0,0,0.06790123456790124,42.777777777777786,0)" xlink:href="#E"/></g><path d="M141-36C126-15 110 5 73 4 37 3 15-17 15-53c-1-64 63-63 125-63 3-35-9-54-41-54-24 1-41 7-42 31l-33-3c5-37 33-52 76-52 45 0 72 20 72 64v82c-1 20 7 32 28 27v20c-31 9-61-2-59-35zM48-53c0 20 12 33 32 33 41-3 63-29 60-74-43 2-92-5-92 41" id="F"/><path d="M96-169c-40 0-48 33-48 73s9 75 48 75c24 0 41-14 43-38l32 2c-6 37-31 61-74 61-59 0-76-41-82-99-10-93 101-131 147-64 4 7 5 14 7 22l-32 3c-4-21-16-35-41-35" id="G"/><path d="M143 0L79-87 56-68V0H24v-261h32v163l83-92h37l-77 82L181 0h-38" id="H"/><path d="M117-194c89-4 53 116 60 194h-32v-121c0-31-8-49-39-48C34-167 62-67 57 0H25l-1-190h30c1 10-1 24 2 32 11-22 29-35 61-36" id="I"/><path d="M85-194c31 0 48 13 60 33l-1-100h32l1 261h-30c-2-10 0-23-3-31C134-8 116 4 85 4 32 4 16-35 15-94c0-66 23-100 70-100zm9 24c-40 0-46 34-46 75 0 40 6 74 45 74 42 0 51-32 51-76 0-42-9-74-50-73" id="J"/><g id="e"><use transform="matrix(0.06790123456790124,0,0,0.06790123456790124,0,0)" xlink:href="#z"/><use transform="matrix(0.06790123456790124,0,0,0.06790123456790124,16.296296296296298,0)" xlink:href="#F"/><use transform="matrix(0.06790123456790124,0,0,0.06790123456790124,29.876543209876544,0)" xlink:href="#G"/><use transform="matrix(0.06790123456790124,0,0,0.06790123456790124,42.098765432098766,0)" xlink:href="#H"/><use transform="matrix(0.06790123456790124,0,0,0.06790123456790124,54.32098765432099,0)" xlink:href="#E"/><use transform="matrix(0.06790123456790124,0,0,0.06790123456790124,67.90123456790124,0)" xlink:href="#I"/><use transform="matrix(0.06790123456790124,0,0,0.06790123456790124,81.4814814814815,0)" xlink:href="#J"/></g><path d="M212-179c-10-28-35-45-73-45-59 0-87 40-87 99 0 60 29 101 89 101 43 0 62-24 78-52l27 14C228-24 195 4 139 4 59 4 22-46 18-125c-6-104 99-153 187-111 19 9 31 26 39 46" id="K"/><path d="M24 0v-261h32V0H24" id="L"/><g id="f"><use transform="matrix(0.06790123456790124,0,0,0.06790123456790124,0,0)" xlink:href="#K"/><use transform="matrix(0.06790123456790124,0,0,0.06790123456790124,17.58641975308642,0)" xlink:href="#L"/><use transform="matrix(0.06790123456790124,0,0,0.06790123456790124,22.95061728395062,0)" xlink:href="#C"/><use transform="matrix(0.06790123456790124,0,0,0.06790123456790124,28.31481481481482,0)" xlink:href="#E"/><use transform="matrix(0.06790123456790124,0,0,0.06790123456790124,41.89506172839507,0)" xlink:href="#I"/><use transform="matrix(0.06790123456790124,0,0,0.06790123456790124,55.47530864197532,0)" xlink:href="#D"/></g><linearGradient gradientUnits="userSpaceOnUse" id="g" x1="580" y1="760" x2="580" y2="680"><stop offset="19.93%" stop-color="#fff"/><stop offset="27.17%" stop-color="#cfe4ff"/><stop offset="68.12%" stop-color="#cfe4ff"/><stop offset="75%" stop-color="#c3f7c8"/></linearGradient><path d="M233-177c-1 41-23 64-60 70L243 0h-38l-65-103H63V0H30v-248c88 3 205-21 203 71zM63-129c60-2 137 13 137-47 0-61-80-42-137-45v92" id="M"/><g id="h"><use transform="matrix(0.06790123456790124,0,0,0.06790123456790124,0,0)" xlink:href="#M"/><use transform="matrix(0.06790123456790124,0,0,0.06790123456790124,17.58641975308642,0)" xlink:href="#E"/><use transform="matrix(0.06790123456790124,0,0,0.06790123456790124,31.16666666666667,0)" xlink:href="#F"/><use transform="matrix(0.06790123456790124,0,0,0.06790123456790124,44.74691358024692,0)" xlink:href="#J"/></g><path d="M205 0l-28-72H64L36 0H1l101-248h38L239 0h-34zm-38-99l-47-123c-12 45-31 82-46 123h93" id="N"/><g id="i"><use transform="matrix(0.06790123456790124,0,0,0.06790123456790124,0,0)" xlink:href="#u"/><use transform="matrix(0.06790123456790124,0,0,0.06790123456790124,19.01234567901235,0)" xlink:href="#v"/><use transform="matrix(0.06790123456790124,0,0,0.06790123456790124,32.592592592592595,0)" xlink:href="#N"/><use transform="matrix(0.06790123456790124,0,0,0.06790123456790124,48.88888888888889,0)" xlink:href="#x"/></g><linearGradient gradientUnits="userSpaceOnUse" id="j" x1="1020" y1="760" x2="1020" y2="660"><stop offset="19.93%" stop-color="#fff"/><stop offset="27.17%" stop-color="#cfe4ff"/><stop offset="68.12%" stop-color="#cfe4ff"/><stop offset="75%" stop-color="#c3f7c8"/></linearGradient><linearGradient gradientUnits="userSpaceOnUse" id="k" x1="1220" y1="760" x2="1220" y2="680"><stop offset="19.93%" stop-color="#fff"/><stop offset="27.17%" stop-color="#cfe4ff"/><stop offset="68.12%" stop-color="#cfe4ff"/><stop offset="75%" stop-color="#c3f7c8"/></linearGradient><path d="M125-24c46 0 70-25 89-51l25 16C214-24 183 4 123 4 8 4-5-146 60-208c32-50 158-61 191-5 5 7 9 14 11 22l-32 10c-9-28-33-43-69-43-74 0-108 51-108 125 0 46 24 75 72 75" id="O"/><path d="M24-61C-1-165 59-251 163-251c67 1 105 36 105 101 0 88-46 140-124 152 2 33 24 47 60 39l-3 23c-50 15-89-11-89-61-46-3-79-26-88-64zm210-73c6-55-18-91-72-90-77 1-111 51-111 125 0 49 24 75 73 75 72 0 103-45 110-110" id="P"/><path d="M249-183c0 48-29 72-75 77L221 0h-36l-43-103H65L45 0H11l48-248c83 2 190-17 190 65zm-34 3c0-55-74-39-127-41l-18 92c63-1 145 13 145-51" id="Q"/><path d="M194-120c59 52 2 134-86 124-53-6-90-18-98-63l31-7c8 30 29 43 70 43 46 0 84-17 71-62-32-43-135-20-137-98-3-89 178-90 191-16l-30 9c-8-48-127-53-127 5 0 53 81 35 115 65" id="R"/><g id="l"><use transform="matrix(0.07407407407407408,0,0,0.07407407407407408,0,0)" xlink:href="#O"/><use transform="matrix(0.07407407407407408,0,0,0.07407407407407408,19.185185185185187,0)" xlink:href="#P"/><use transform="matrix(0.07407407407407408,0,0,0.07407407407407408,39.92592592592593,0)" xlink:href="#Q"/><use transform="matrix(0.07407407407407408,0,0,0.07407407407407408,59.11111111111111,0)" xlink:href="#R"/></g><path d="M135-143c-3-34-86-38-87 0 15 53 115 12 119 90S17 21 10-45l28-5c4 36 97 45 98 0-10-56-113-15-118-90-4-57 82-63 122-42 12 7 21 19 24 35" id="S"/><g id="m"><use transform="matrix(0.07407407407407408,0,0,0.07407407407407408,0,0)" xlink:href="#C"/><use transform="matrix(0.07407407407407408,0,0,0.07407407407407408,5.851851851851853,0)" xlink:href="#S"/></g><use transform="matrix(0.07407407407407408,0,0,0.07407407407407408,0,0)" xlink:href="#F" id="n"/><path d="M238-179c0 84-86 86-175 82L45 0H11l48-248c82 0 179-12 179 69zm-34 1c0-53-64-42-116-43l-19 98c63 0 135 9 135-55" id="T"/><path d="M50-231l6-30h32l-6 30H50zM6 0l37-190h31L37 0H6" id="U"/><path d="M67-162c32-53 139-36 121 50C175-51 163 2 97 4 68 4 52-11 42-31 38 6 28 39 22 75H-9l50-265h29c-1 10 0 20-3 28zm89 36c0-26-10-43-35-43-54 0-67 50-69 103-1 29 14 45 42 46 53 0 62-58 62-106" id="V"/><path d="M111-194c62-3 86 47 72 106H45c-7 38 6 69 45 68 27-1 43-14 53-32l24 11C152-15 129 4 87 4 38 3 12-23 12-71c0-70 32-119 99-123zm44 81c14-66-71-72-95-28-4 8-8 17-11 28h106" id="W"/><path d="M6 0l50-261h32L37 0H6" id="X"/><path d="M67-158c22-48 132-52 116 29L158 0h-32l25-140c3-38-53-32-70-12C52-117 51-52 38 0H6l36-190h30" id="Y"/><g id="o"><use transform="matrix(0.07407407407407408,0,0,0.07407407407407408,0,0)" xlink:href="#T"/><use transform="matrix(0.07407407407407408,0,0,0.07407407407407408,17.77777777777778,0)" xlink:href="#U"/><use transform="matrix(0.07407407407407408,0,0,0.07407407407407408,23.629629629629633,0)" xlink:href="#V"/><use transform="matrix(0.07407407407407408,0,0,0.07407407407407408,38.44444444444445,0)" xlink:href="#W"/><use transform="matrix(0.07407407407407408,0,0,0.07407407407407408,53.25925925925927,0)" xlink:href="#X"/><use transform="matrix(0.07407407407407408,0,0,0.07407407407407408,59.11111111111112,0)" xlink:href="#U"/><use transform="matrix(0.07407407407407408,0,0,0.07407407407407408,64.96296296296298,0)" xlink:href="#Y"/><use transform="matrix(0.07407407407407408,0,0,0.07407407407407408,79.7777777777778,0)" xlink:href="#W"/></g><path d="M101-234c-31-9-42 10-38 44h38v23H63V0H32v-167H5v-23h27c-7-52 17-82 69-68v24" id="Z"/><path d="M100-194c62-1 85 37 85 99 1 63-27 99-86 99S16-35 15-95c0-66 28-99 85-99zM99-20c44 1 53-31 53-75 0-43-8-75-51-75s-53 32-53 75 10 74 51 75" id="aa"/><g id="p"><use transform="matrix(0.07407407407407408,0,0,0.07407407407407408,0,0)" xlink:href="#Z"/><use transform="matrix(0.07407407407407408,0,0,0.07407407407407408,7.407407407407408,0)" xlink:href="#aa"/><use transform="matrix(0.07407407407407408,0,0,0.07407407407407408,22.222222222222225,0)" xlink:href="#B"/></g><path d="M106-169C34-169 62-67 57 0H25v-261h32l-1 103c12-21 28-36 61-36 89 0 53 116 60 194h-32v-121c2-32-8-49-39-48" id="ab"/><path d="M177-190C167-65 218 103 67 71c-23-6-38-20-44-43l32-5c15 47 100 32 89-28v-30C133-14 115 1 83 1 29 1 15-40 15-95c0-56 16-97 71-98 29-1 48 16 59 35 1-10 0-23 2-32h30zM94-22c36 0 50-32 50-73 0-42-14-75-50-75-39 0-46 34-46 75s6 73 46 73" id="ac"/><g id="q"><use transform="matrix(0.07407407407407408,0,0,0.07407407407407408,0,0)" xlink:href="#G"/><use transform="matrix(0.07407407407407408,0,0,0.07407407407407408,13.333333333333336,0)" xlink:href="#ab"/><use transform="matrix(0.07407407407407408,0,0,0.07407407407407408,28.148148148148152,0)" xlink:href="#F"/><use transform="matrix(0.07407407407407408,0,0,0.07407407407407408,42.96296296296297,0)" xlink:href="#I"/><use transform="matrix(0.07407407407407408,0,0,0.07407407407407408,57.777777777777786,0)" xlink:href="#ac"/><use transform="matrix(0.07407407407407408,0,0,0.07407407407407408,72.59259259259261,0)" xlink:href="#E"/><use transform="matrix(0.07407407407407408,0,0,0.07407407407407408,87.40740740740742,0)" xlink:href="#S"/></g><g id="r"><use transform="matrix(0.07407407407407408,0,0,0.07407407407407408,0,0)" xlink:href="#C"/><use transform="matrix(0.07407407407407408,0,0,0.07407407407407408,5.851851851851853,0)" xlink:href="#I"/></g><g id="s"><use transform="matrix(0.07407407407407408,0,0,0.07407407407407408,0,0)" xlink:href="#D"/><use transform="matrix(0.07407407407407408,0,0,0.07407407407407408,7.407407407407408,0)" xlink:href="#ab"/><use transform="matrix(0.07407407407407408,0,0,0.07407407407407408,22.222222222222225,0)" xlink:href="#E"/></g><g id="t"><use transform="matrix(0.07407407407407408,0,0,0.07407407407407408,0,0)" xlink:href="#J"/><use transform="matrix(0.07407407407407408,0,0,0.07407407407407408,14.814814814814817,0)" xlink:href="#F"/><use transform="matrix(0.07407407407407408,0,0,0.07407407407407408,29.629629629629633,0)" xlink:href="#D"/><use transform="matrix(0.07407407407407408,0,0,0.07407407407407408,37.03703703703704,0)" xlink:href="#F"/></g></defs></g></svg>