<svg xmlns="http://www.w3.org/2000/svg" xmlns:xlink="http://www.w3.org/1999/xlink" xmlns:lucid="lucid" width="994.53" height="809.75"><g transform="translate(-47.499183754353226 -229.7499750000023)" lucid:page-tab-id="0_0"><path d="M341 420h3.97m7.93 0h7.93m7.93 0h7.93m7.93 0h7.93m7.93 0h7.92m7.93 0h7.93m7.94 0h7.93m7.93 0H456m7.94 0h7.94m7.93 0h7.94m7.93 0h7.93m7.93 0h7.94m7.93 0h7.93m7.93 0h7.93m7.92 0h7.94m7.93 0h7.92m7.93 0h7.93m7.94 0h7.93m7.93 0h7.93m7.94 0h7.93m7.94 0h7.94m7.93 0h7.93m7.93 0h7.94m7.93 0h7.93m7.93 0h7.93m7.92 0h7.94m7.93 0h7.92m7.93 0h7.93m7.94 0h7.93m7.93 0H805m7.94 0h7.93m7.94 0h7.94m7.93 0h7.93m7.93 0h7.94m7.93 0h7.93m7.93 0h7.93m7.92 0h7.94m7.93 0h7.92m7.93 0h7.93m7.94 0h7.93m7.93 0h7.93m7.94 0h7.93m7.94 0h7.94m7.93 0h7.93m7.93 0h3.97M341.03 420H340M1038.97 420h1.03M341 720h3.97m7.93 0h7.93m7.93 0h7.93m7.93 0h7.93m7.93 0h7.92m7.93 0h7.93m7.94 0h7.93m7.93 0H456m7.94 0h7.94m7.93 0h7.94m7.93 0h7.93m7.93 0h7.94m7.93 0h7.93m7.93 0h7.93m7.92 0h7.94m7.93 0h7.92m7.93 0h7.93m7.94 0h7.93m7.93 0h7.93m7.94 0h7.93m7.94 0h7.94m7.93 0h7.93m7.93 0h7.94m7.93 0h7.93m7.93 0h7.93m7.92 0h7.94m7.93 0h7.92m7.93 0h7.93m7.94 0h7.93m7.93 0H805m7.94 0h7.93m7.94 0h7.94m7.93 0h7.93m7.93 0h7.94m7.93 0h7.93m7.93 0h7.93m7.92 0h7.94m7.93 0h7.92m7.93 0h7.93m7.94 0h7.93m7.93 0h7.93m7.94 0h7.93m7.94 0h7.94m7.93 0h7.93m7.93 0h3.97M341.03 720H340M1038.97 720h1.03" stroke="#ba23f6" stroke-width="2" fill="none"/><path d="M358 340a20 20 0 0 1 20-20h122a20 20 0 0 1 20 20v20a20 20 0 0 1-20 20H378a20 20 0 0 1-20-20z" stroke="#000" stroke-width="3" fill="url(#a)"/><use xlink:href="#b" transform="matrix(1,0,0,1,363.0006791438998,325) translate(9.558641975308632 28.930555555555557)"/><use xlink:href="#c" transform="matrix(1,0,0,1,363.0006791438998,325) translate(88.12037037037037 28.930555555555557)"/><path d="M660 340a20 20 0 0 1 20-20h118a20 20 0 0 1 20 20v20a20 20 0 0 1-20 20H680a20 20 0 0 1-20-20z" stroke="#000" stroke-width="3" fill="url(#d)"/><use xlink:href="#e" transform="matrix(1,0,0,1,665.0011558175969,325) translate(18.592592592592588 28.930555555555557)"/><use xlink:href="#c" transform="matrix(1,0,0,1,665.0011558175969,325) translate(75.08641975308643 28.930555555555557)"/><path d="M439 282.5V300" stroke="#000" stroke-width="2" fill="none"/><path d="M439.96 282.52H438v-1.02h1.96z" stroke="#000" stroke-width=".05"/><path d="M439 315.26L434.36 301h9.27z" stroke="#000" stroke-width="2"/><path d="M739 282.5V300" stroke="#000" stroke-width="2" fill="none"/><path d="M739.98 282.53h-1.95v-1.03h1.95z" stroke="#000" stroke-width=".05"/><path d="M739 315.26L734.37 301h9.27z" stroke="#000" stroke-width="2"/><path d="M700 500a20 20 0 0 1 20-20h98a20 20 0 0 1 20 20v140a20 20 0 0 1-20 20h-98a20 20 0 0 1-20-20z" fill-opacity="0"/><path d="M698.5 500a1.5 1.5 0 0 1 1.5-1.5 1.5 1.5 0 0 1 1.5 1.5 1.5 1.5 0 0 1-1.5 1.5 1.5 1.5 0 0 1-1.5-1.5m2.73-9.96a1.5 1.5 0 0 1 1.5-1.5 1.5 1.5 0 0 1 1.5 1.5 1.5 1.5 0 0 1-1.5 1.5 1.5 1.5 0 0 1-1.5-1.5V490m7.3-7.26a1.5 1.5 0 0 1 1.5-1.5 1.5 1.5 0 0 1 1.5 1.5 1.5 1.5 0 0 1-1.5 1.5 1.5 1.5 0 0 1-1.5-1.5v-.03m9.97-2.7a1.5 1.5 0 0 1 1.5-1.5 1.5 1.5 0 0 1 1.5 1.5 1.5 1.5 0 0 1-1.5 1.5 1.5 1.5 0 0 1-1.5-1.5m12.25 0a1.5 1.5 0 0 1 1.5-1.5 1.5 1.5 0 0 1 1.5 1.5 1.5 1.5 0 0 1-1.5 1.5 1.5 1.5 0 0 1-1.5-1.5m12.25 0a1.5 1.5 0 0 1 1.5-1.5 1.5 1.5 0 0 1 1.5 1.5 1.5 1.5 0 0 1-1.5 1.5 1.5 1.5 0 0 1-1.5-1.5m12.25 0a1.5 1.5 0 0 1 1.5-1.5 1.5 1.5 0 0 1 1.5 1.5 1.5 1.5 0 0 1-1.5 1.5 1.5 1.5 0 0 1-1.5-1.5m12.25 0a1.5 1.5 0 0 1 1.5-1.5 1.5 1.5 0 0 1 1.5 1.5 1.5 1.5 0 0 1-1.5 1.5 1.5 1.5 0 0 1-1.5-1.5m12.25 0a1.5 1.5 0 0 1 1.5-1.5 1.5 1.5 0 0 1 1.5 1.5 1.5 1.5 0 0 1-1.5 1.5 1.5 1.5 0 0 1-1.5-1.5m12.25 0a1.5 1.5 0 0 1 1.5-1.5 1.5 1.5 0 0 1 1.5 1.5 1.5 1.5 0 0 1-1.5 1.5 1.5 1.5 0 0 1-1.5-1.5m12.25 0a1.5 1.5 0 0 1 1.5-1.5 1.5 1.5 0 0 1 1.5 1.5 1.5 1.5 0 0 1-1.5 1.5 1.5 1.5 0 0 1-1.5-1.5m12.25 0a1.5 1.5 0 0 1 1.5-1.5 1.5 1.5 0 0 1 1.5 1.5 1.5 1.5 0 0 1-1.5 1.5 1.5 1.5 0 0 1-1.5-1.5m9.97 2.74a1.5 1.5 0 0 1 1.5-1.5 1.5 1.5 0 0 1 1.5 1.5 1.5 1.5 0 0 1-1.5 1.5 1.5 1.5 0 0 1-1.5-1.5v-.03m7.3 7.34a1.5 1.5 0 0 1 1.5-1.5 1.5 1.5 0 0 1 1.5 1.5 1.5 1.5 0 0 1-1.5 1.5 1.5 1.5 0 0 1-1.5-1.5V490m2.73 10a1.5 1.5 0 0 1 1.5-1.5 1.5 1.5 0 0 1 1.5 1.5 1.5 1.5 0 0 1-1.5 1.5 1.5 1.5 0 0 1-1.5-1.5m0 11.68a1.5 1.5 0 0 1 1.5-1.5 1.5 1.5 0 0 1 1.5 1.5 1.5 1.5 0 0 1-1.5 1.5 1.5 1.5 0 0 1-1.5-1.5v-.03m0 11.7v-.02a1.5 1.5 0 0 1 1.5-1.5 1.5 1.5 0 0 1 1.5 1.5 1.5 1.5 0 0 1-1.5 1.5 1.5 1.5 0 0 1-1.5-1.5m0 11.68a1.5 1.5 0 0 1 1.5-1.5 1.5 1.5 0 0 1 1.5 1.5 1.5 1.5 0 0 1-1.5 1.5 1.5 1.5 0 0 1-1.5-1.5m0 11.68a1.5 1.5 0 0 1 1.5-1.5 1.5 1.5 0 0 1 1.5 1.5 1.5 1.5 0 0 1-1.5 1.5 1.5 1.5 0 0 1-1.5-1.5v-.03m0 11.7v-.02a1.5 1.5 0 0 1 1.5-1.5 1.5 1.5 0 0 1 1.5 1.5 1.5 1.5 0 0 1-1.5 1.5 1.5 1.5 0 0 1-1.5-1.5m0 11.68a1.5 1.5 0 0 1 1.5-1.5 1.5 1.5 0 0 1 1.5 1.5 1.5 1.5 0 0 1-1.5 1.5 1.5 1.5 0 0 1-1.5-1.5m0 11.68a1.5 1.5 0 0 1 1.5-1.5 1.5 1.5 0 0 1 1.5 1.5 1.5 1.5 0 0 1-1.5 1.5 1.5 1.5 0 0 1-1.5-1.5v-.03m0 11.7v-.02a1.5 1.5 0 0 1 1.5-1.5 1.5 1.5 0 0 1 1.5 1.5 1.5 1.5 0 0 1-1.5 1.5 1.5 1.5 0 0 1-1.5-1.5m0 11.68a1.5 1.5 0 0 1 1.5-1.5 1.5 1.5 0 0 1 1.5 1.5 1.5 1.5 0 0 1-1.5 1.5 1.5 1.5 0 0 1-1.5-1.5m0 11.68a1.5 1.5 0 0 1 1.5-1.5 1.5 1.5 0 0 1 1.5 1.5 1.5 1.5 0 0 1-1.5 1.5 1.5 1.5 0 0 1-1.5-1.5v-.03m0 11.7v-.02a1.5 1.5 0 0 1 1.5-1.5 1.5 1.5 0 0 1 1.5 1.5 1.5 1.5 0 0 1-1.5 1.5 1.5 1.5 0 0 1-1.5-1.5m0 11.68a1.5 1.5 0 0 1 1.5-1.5 1.5 1.5 0 0 1 1.5 1.5 1.5 1.5 0 0 1-1.5 1.5 1.5 1.5 0 0 1-1.5-1.5m-2.73 10v-.03a1.5 1.5 0 0 1 1.5-1.5 1.5 1.5 0 0 1 1.5 1.5 1.5 1.5 0 0 1-1.5 1.5 1.5 1.5 0 0 1-1.5-1.5m-7.3 7.32v-.03a1.5 1.5 0 0 1 1.5-1.5 1.5 1.5 0 0 1 1.5 1.5 1.5 1.5 0 0 1-1.5 1.5 1.5 1.5 0 0 1-1.5-1.5M816.5 660V660a1.5 1.5 0 0 1 1.5-1.5 1.5 1.5 0 0 1 1.5 1.5 1.5 1.5 0 0 1-1.5 1.5 1.5 1.5 0 0 1-1.5-1.5m-12.25 0a1.5 1.5 0 0 1 1.5-1.5 1.5 1.5 0 0 1 1.5 1.5 1.5 1.5 0 0 1-1.5 1.5 1.5 1.5 0 0 1-1.5-1.5M792 660a1.5 1.5 0 0 1 1.5-1.5 1.5 1.5 0 0 1 1.5 1.5 1.5 1.5 0 0 1-1.5 1.5 1.5 1.5 0 0 1-1.5-1.5m-12.25 0a1.5 1.5 0 0 1 1.5-1.5 1.5 1.5 0 0 1 1.5 1.5 1.5 1.5 0 0 1-1.5 1.5 1.5 1.5 0 0 1-1.5-1.5m-12.25 0a1.5 1.5 0 0 1 1.5-1.5 1.5 1.5 0 0 1 1.5 1.5 1.5 1.5 0 0 1-1.5 1.5 1.5 1.5 0 0 1-1.5-1.5m-12.25 0a1.5 1.5 0 0 1 1.5-1.5 1.5 1.5 0 0 1 1.5 1.5 1.5 1.5 0 0 1-1.5 1.5 1.5 1.5 0 0 1-1.5-1.5M743 660a1.5 1.5 0 0 1 1.5-1.5 1.5 1.5 0 0 1 1.5 1.5 1.5 1.5 0 0 1-1.5 1.5 1.5 1.5 0 0 1-1.5-1.5m-12.25 0a1.5 1.5 0 0 1 1.5-1.5 1.5 1.5 0 0 1 1.5 1.5 1.5 1.5 0 0 1-1.5 1.5 1.5 1.5 0 0 1-1.5-1.5m-12.25 0a1.5 1.5 0 0 1 1.5-1.5 1.5 1.5 0 0 1 1.5 1.5 1.5 1.5 0 0 1-1.5 1.5 1.5 1.5 0 0 1-1.5-1.5m-9.97-2.7v-.03a1.5 1.5 0 0 1 1.5-1.5 1.5 1.5 0 0 1 1.5 1.5 1.5 1.5 0 0 1-1.5 1.5 1.5 1.5 0 0 1-1.5-1.5m-7.3-7.28v-.03a1.5 1.5 0 0 1 1.5-1.5 1.5 1.5 0 0 1 1.5 1.5 1.5 1.5 0 0 1-1.5 1.5 1.5 1.5 0 0 1-1.5-1.5M698.5 640a1.5 1.5 0 0 1 1.5-1.5 1.5 1.5 0 0 1 1.5 1.5 1.5 1.5 0 0 1-1.5 1.5 1.5 1.5 0 0 1-1.5-1.5m0-11.65v-.02a1.5 1.5 0 0 1 1.5-1.5 1.5 1.5 0 0 1 1.5 1.5 1.5 1.5 0 0 1-1.5 1.5 1.5 1.5 0 0 1-1.5-1.5m0-11.65a1.5 1.5 0 0 1 1.5-1.5 1.5 1.5 0 0 1 1.5 1.5 1.5 1.5 0 0 1-1.5 1.5 1.5 1.5 0 0 1-1.5-1.5v-.03m0-11.63V605a1.5 1.5 0 0 1 1.5-1.5 1.5 1.5 0 0 1 1.5 1.5 1.5 1.5 0 0 1-1.5 1.5 1.5 1.5 0 0 1-1.5-1.5m0-11.65v-.02a1.5 1.5 0 0 1 1.5-1.5 1.5 1.5 0 0 1 1.5 1.5 1.5 1.5 0 0 1-1.5 1.5 1.5 1.5 0 0 1-1.5-1.5m0-11.65a1.5 1.5 0 0 1 1.5-1.5 1.5 1.5 0 0 1 1.5 1.5 1.5 1.5 0 0 1-1.5 1.5 1.5 1.5 0 0 1-1.5-1.5v-.03m0-11.63V570a1.5 1.5 0 0 1 1.5-1.5 1.5 1.5 0 0 1 1.5 1.5 1.5 1.5 0 0 1-1.5 1.5 1.5 1.5 0 0 1-1.5-1.5m0-11.65v-.02a1.5 1.5 0 0 1 1.5-1.5 1.5 1.5 0 0 1 1.5 1.5 1.5 1.5 0 0 1-1.5 1.5 1.5 1.5 0 0 1-1.5-1.5m0-11.65a1.5 1.5 0 0 1 1.5-1.5 1.5 1.5 0 0 1 1.5 1.5 1.5 1.5 0 0 1-1.5 1.5 1.5 1.5 0 0 1-1.5-1.5v-.03m0-11.63V535a1.5 1.5 0 0 1 1.5-1.5 1.5 1.5 0 0 1 1.5 1.5 1.5 1.5 0 0 1-1.5 1.5 1.5 1.5 0 0 1-1.5-1.5m0-11.65v-.02a1.5 1.5 0 0 1 1.5-1.5 1.5 1.5 0 0 1 1.5 1.5 1.5 1.5 0 0 1-1.5 1.5 1.5 1.5 0 0 1-1.5-1.5m0-11.65a1.5 1.5 0 0 1 1.5-1.5 1.5 1.5 0 0 1 1.5 1.5 1.5 1.5 0 0 1-1.5 1.5 1.5 1.5 0 0 1-1.5-1.5v-.03"/><path d="M718 480a20 20 0 0 1 20-20h60a20 20 0 0 1 20 20 20 20 0 0 1-20 20h-60a20 20 0 0 1-20-20z" stroke="#000" stroke-width="3" fill="url(#f)"/><use xlink:href="#g" transform="matrix(1,0,0,1,722.9999567579018,465) translate(11.088333333333333 21.430555555555557)"/><use xlink:href="#h" transform="matrix(1,0,0,1,722.9999567579018,465) translate(61.33524691358025 21.430555555555557)"/><path d="M718 560a20 20 0 0 1 20-20 20 20 0 0 1 20 20v20a20 20 0 0 1-20 20 20 20 0 0 1-20-20z" stroke="#000" stroke-width="3" fill="url(#i)"/><path d="M778 560a20 20 0 0 1 20-20 20 20 0 0 1 20 20v20a20 20 0 0 1-20 20 20 20 0 0 1-20-20z" stroke="#000" stroke-width="3" fill="url(#j)"/><path d="M718 660a20 20 0 0 1 20-20h60a20 20 0 0 1 20 20 20 20 0 0 1-20 20h-60a20 20 0 0 1-20-20z" stroke="#000" stroke-width="3" fill="#fff"/><path d="M738 502.5V520" stroke="#000" stroke-width="2" fill="none"/><path d="M737.94 501.5h1.03v1.03h-1.95v-1.1z" stroke="#000" stroke-width=".05"/><path d="M738 535.26L733.36 521h9.27z" stroke="#000" stroke-width="2"/><path d="M798 502.5V520" stroke="#000" stroke-width="2" fill="none"/><path d="M798.98 502.53H797v-1.03h1.04l.92-.07z" stroke="#000" stroke-width=".05"/><path d="M798 535.26L793.36 521h9.27z" stroke="#000" stroke-width="2"/><path d="M738 602.5V620" stroke="#000" stroke-width="2" fill="none"/><path d="M738 601.5l.98-.07v1.1H737v-1.1z" stroke="#000" stroke-width=".05"/><path d="M738 635.26L733.36 621h9.27z" stroke="#000" stroke-width="2"/><path d="M798 602.5V620" stroke="#000" stroke-width="2" fill="none"/><path d="M798 601.5l.98-.07v1.1H797v-1.1z" stroke="#000" stroke-width=".05"/><path d="M798 635.26L793.36 621h9.27z" stroke="#000" stroke-width="2"/><path d="M522 500.5a20 20 0 0 1 20-20h98a20 20 0 0 1 20 20v140a20 20 0 0 1-20 20h-98a20 20 0 0 1-20-20z" fill-opacity="0"/><path d="M520.5 500.5a1.5 1.5 0 0 1 1.5-1.5 1.5 1.5 0 0 1 1.5 1.5 1.5 1.5 0 0 1-1.5 1.5 1.5 1.5 0 0 1-1.5-1.5m2.73-9.96a1.5 1.5 0 0 1 1.5-1.5 1.5 1.5 0 0 1 1.5 1.5 1.5 1.5 0 0 1-1.5 1.5 1.5 1.5 0 0 1-1.5-1.5v-.03m7.3-7.26a1.5 1.5 0 0 1 1.5-1.5 1.5 1.5 0 0 1 1.5 1.5 1.5 1.5 0 0 1-1.5 1.5 1.5 1.5 0 0 1-1.5-1.5v-.03m9.97-2.7a1.5 1.5 0 0 1 1.5-1.5 1.5 1.5 0 0 1 1.5 1.5 1.5 1.5 0 0 1-1.5 1.5 1.5 1.5 0 0 1-1.5-1.5m12.25 0a1.5 1.5 0 0 1 1.5-1.5 1.5 1.5 0 0 1 1.5 1.5 1.5 1.5 0 0 1-1.5 1.5 1.5 1.5 0 0 1-1.5-1.5m12.25 0a1.5 1.5 0 0 1 1.5-1.5 1.5 1.5 0 0 1 1.5 1.5 1.5 1.5 0 0 1-1.5 1.5 1.5 1.5 0 0 1-1.5-1.5m12.25 0a1.5 1.5 0 0 1 1.5-1.5 1.5 1.5 0 0 1 1.5 1.5 1.5 1.5 0 0 1-1.5 1.5 1.5 1.5 0 0 1-1.5-1.5m12.25 0a1.5 1.5 0 0 1 1.5-1.5 1.5 1.5 0 0 1 1.5 1.5 1.5 1.5 0 0 1-1.5 1.5 1.5 1.5 0 0 1-1.5-1.5m12.25 0a1.5 1.5 0 0 1 1.5-1.5 1.5 1.5 0 0 1 1.5 1.5 1.5 1.5 0 0 1-1.5 1.5 1.5 1.5 0 0 1-1.5-1.5m12.25 0a1.5 1.5 0 0 1 1.5-1.5 1.5 1.5 0 0 1 1.5 1.5 1.5 1.5 0 0 1-1.5 1.5 1.5 1.5 0 0 1-1.5-1.5m12.25 0a1.5 1.5 0 0 1 1.5-1.5 1.5 1.5 0 0 1 1.5 1.5 1.5 1.5 0 0 1-1.5 1.5 1.5 1.5 0 0 1-1.5-1.5m12.25 0a1.5 1.5 0 0 1 1.5-1.5 1.5 1.5 0 0 1 1.5 1.5 1.5 1.5 0 0 1-1.5 1.5 1.5 1.5 0 0 1-1.5-1.5m9.97 2.74a1.5 1.5 0 0 1 1.5-1.5 1.5 1.5 0 0 1 1.5 1.5 1.5 1.5 0 0 1-1.5 1.5 1.5 1.5 0 0 1-1.5-1.5v-.03m7.3 7.34a1.5 1.5 0 0 1 1.5-1.5 1.5 1.5 0 0 1 1.5 1.5 1.5 1.5 0 0 1-1.5 1.5 1.5 1.5 0 0 1-1.5-1.5v-.03m2.73 10a1.5 1.5 0 0 1 1.5-1.5 1.5 1.5 0 0 1 1.5 1.5 1.5 1.5 0 0 1-1.5 1.5 1.5 1.5 0 0 1-1.5-1.5m0 11.68a1.5 1.5 0 0 1 1.5-1.5 1.5 1.5 0 0 1 1.5 1.5 1.5 1.5 0 0 1-1.5 1.5 1.5 1.5 0 0 1-1.5-1.5v-.03m0 11.7v-.02a1.5 1.5 0 0 1 1.5-1.5 1.5 1.5 0 0 1 1.5 1.5 1.5 1.5 0 0 1-1.5 1.5 1.5 1.5 0 0 1-1.5-1.5m0 11.68a1.5 1.5 0 0 1 1.5-1.5 1.5 1.5 0 0 1 1.5 1.5 1.5 1.5 0 0 1-1.5 1.5 1.5 1.5 0 0 1-1.5-1.5m0 11.68a1.5 1.5 0 0 1 1.5-1.5 1.5 1.5 0 0 1 1.5 1.5 1.5 1.5 0 0 1-1.5 1.5 1.5 1.5 0 0 1-1.5-1.5v-.03m0 11.7v-.02a1.5 1.5 0 0 1 1.5-1.5 1.5 1.5 0 0 1 1.5 1.5 1.5 1.5 0 0 1-1.5 1.5 1.5 1.5 0 0 1-1.5-1.5m0 11.68a1.5 1.5 0 0 1 1.5-1.5 1.5 1.5 0 0 1 1.5 1.5 1.5 1.5 0 0 1-1.5 1.5 1.5 1.5 0 0 1-1.5-1.5m0 11.68a1.5 1.5 0 0 1 1.5-1.5 1.5 1.5 0 0 1 1.5 1.5 1.5 1.5 0 0 1-1.5 1.5 1.5 1.5 0 0 1-1.5-1.5v-.03m0 11.7v-.02a1.5 1.5 0 0 1 1.5-1.5 1.5 1.5 0 0 1 1.5 1.5 1.5 1.5 0 0 1-1.5 1.5 1.5 1.5 0 0 1-1.5-1.5m0 11.68a1.5 1.5 0 0 1 1.5-1.5 1.5 1.5 0 0 1 1.5 1.5 1.5 1.5 0 0 1-1.5 1.5 1.5 1.5 0 0 1-1.5-1.5m0 11.68a1.5 1.5 0 0 1 1.5-1.5 1.5 1.5 0 0 1 1.5 1.5 1.5 1.5 0 0 1-1.5 1.5 1.5 1.5 0 0 1-1.5-1.5v-.03m0 11.7v-.02a1.5 1.5 0 0 1 1.5-1.5 1.5 1.5 0 0 1 1.5 1.5 1.5 1.5 0 0 1-1.5 1.5 1.5 1.5 0 0 1-1.5-1.5m0 11.68a1.5 1.5 0 0 1 1.5-1.5 1.5 1.5 0 0 1 1.5 1.5 1.5 1.5 0 0 1-1.5 1.5 1.5 1.5 0 0 1-1.5-1.5m-2.73 10v-.03a1.5 1.5 0 0 1 1.5-1.5 1.5 1.5 0 0 1 1.5 1.5 1.5 1.5 0 0 1-1.5 1.5 1.5 1.5 0 0 1-1.5-1.5m-7.3 7.32v-.03a1.5 1.5 0 0 1 1.5-1.5 1.5 1.5 0 0 1 1.5 1.5 1.5 1.5 0 0 1-1.5 1.5 1.5 1.5 0 0 1-1.5-1.5m-9.97 2.75v-.02a1.5 1.5 0 0 1 1.5-1.5 1.5 1.5 0 0 1 1.5 1.5 1.5 1.5 0 0 1-1.5 1.5 1.5 1.5 0 0 1-1.5-1.5m-12.25 0a1.5 1.5 0 0 1 1.5-1.5 1.5 1.5 0 0 1 1.5 1.5 1.5 1.5 0 0 1-1.5 1.5 1.5 1.5 0 0 1-1.5-1.5m-12.25 0a1.5 1.5 0 0 1 1.5-1.5 1.5 1.5 0 0 1 1.5 1.5 1.5 1.5 0 0 1-1.5 1.5 1.5 1.5 0 0 1-1.5-1.5m-12.25 0a1.5 1.5 0 0 1 1.5-1.5 1.5 1.5 0 0 1 1.5 1.5 1.5 1.5 0 0 1-1.5 1.5 1.5 1.5 0 0 1-1.5-1.5m-12.25 0a1.5 1.5 0 0 1 1.5-1.5 1.5 1.5 0 0 1 1.5 1.5 1.5 1.5 0 0 1-1.5 1.5 1.5 1.5 0 0 1-1.5-1.5m-12.25 0a1.5 1.5 0 0 1 1.5-1.5 1.5 1.5 0 0 1 1.5 1.5 1.5 1.5 0 0 1-1.5 1.5 1.5 1.5 0 0 1-1.5-1.5m-12.25 0a1.5 1.5 0 0 1 1.5-1.5 1.5 1.5 0 0 1 1.5 1.5 1.5 1.5 0 0 1-1.5 1.5 1.5 1.5 0 0 1-1.5-1.5m-12.25 0a1.5 1.5 0 0 1 1.5-1.5 1.5 1.5 0 0 1 1.5 1.5 1.5 1.5 0 0 1-1.5 1.5 1.5 1.5 0 0 1-1.5-1.5m-12.25 0a1.5 1.5 0 0 1 1.5-1.5 1.5 1.5 0 0 1 1.5 1.5 1.5 1.5 0 0 1-1.5 1.5 1.5 1.5 0 0 1-1.5-1.5m-9.97-2.7v-.03a1.5 1.5 0 0 1 1.5-1.5 1.5 1.5 0 0 1 1.5 1.5 1.5 1.5 0 0 1-1.5 1.5 1.5 1.5 0 0 1-1.5-1.5m-7.3-7.28v-.03a1.5 1.5 0 0 1 1.5-1.5 1.5 1.5 0 0 1 1.5 1.5 1.5 1.5 0 0 1-1.5 1.5 1.5 1.5 0 0 1-1.5-1.5m-2.73-9.96a1.5 1.5 0 0 1 1.5-1.5 1.5 1.5 0 0 1 1.5 1.5 1.5 1.5 0 0 1-1.5 1.5 1.5 1.5 0 0 1-1.5-1.5m0-11.65v-.02a1.5 1.5 0 0 1 1.5-1.5 1.5 1.5 0 0 1 1.5 1.5 1.5 1.5 0 0 1-1.5 1.5 1.5 1.5 0 0 1-1.5-1.5m0-11.65a1.5 1.5 0 0 1 1.5-1.5 1.5 1.5 0 0 1 1.5 1.5 1.5 1.5 0 0 1-1.5 1.5 1.5 1.5 0 0 1-1.5-1.5v-.03m0-11.63v-.02a1.5 1.5 0 0 1 1.5-1.5 1.5 1.5 0 0 1 1.5 1.5 1.5 1.5 0 0 1-1.5 1.5 1.5 1.5 0 0 1-1.5-1.5m0-11.65v-.02a1.5 1.5 0 0 1 1.5-1.5 1.5 1.5 0 0 1 1.5 1.5 1.5 1.5 0 0 1-1.5 1.5 1.5 1.5 0 0 1-1.5-1.5m0-11.65a1.5 1.5 0 0 1 1.5-1.5 1.5 1.5 0 0 1 1.5 1.5 1.5 1.5 0 0 1-1.5 1.5 1.5 1.5 0 0 1-1.5-1.5v-.03m0-11.63v-.02a1.5 1.5 0 0 1 1.5-1.5 1.5 1.5 0 0 1 1.5 1.5 1.5 1.5 0 0 1-1.5 1.5 1.5 1.5 0 0 1-1.5-1.5m0-11.65v-.02a1.5 1.5 0 0 1 1.5-1.5 1.5 1.5 0 0 1 1.5 1.5 1.5 1.5 0 0 1-1.5 1.5 1.5 1.5 0 0 1-1.5-1.5m0-11.65a1.5 1.5 0 0 1 1.5-1.5 1.5 1.5 0 0 1 1.5 1.5 1.5 1.5 0 0 1-1.5 1.5 1.5 1.5 0 0 1-1.5-1.5v-.03m0-11.63v-.02a1.5 1.5 0 0 1 1.5-1.5 1.5 1.5 0 0 1 1.5 1.5 1.5 1.5 0 0 1-1.5 1.5 1.5 1.5 0 0 1-1.5-1.5m0-11.65v-.02a1.5 1.5 0 0 1 1.5-1.5 1.5 1.5 0 0 1 1.5 1.5 1.5 1.5 0 0 1-1.5 1.5 1.5 1.5 0 0 1-1.5-1.5m0-11.65a1.5 1.5 0 0 1 1.5-1.5 1.5 1.5 0 0 1 1.5 1.5 1.5 1.5 0 0 1-1.5 1.5 1.5 1.5 0 0 1-1.5-1.5v-.03"/><path d="M540 480.5a20 20 0 0 1 20-20h60a20 20 0 0 1 20 20 20 20 0 0 1-20 20h-60a20 20 0 0 1-20-20z" stroke="#000" stroke-width="3" fill="url(#k)"/><use xlink:href="#g" transform="matrix(1,0,0,1,545.0015892491955,465.5) translate(11.733395061728396 21.430555555555557)"/><use xlink:href="#l" transform="matrix(1,0,0,1,545.0015892491955,465.5) translate(61.98030864197531 21.430555555555557)"/><path d="M540 560.5a20 20 0 0 1 20-20 20 20 0 0 1 20 20v20a20 20 0 0 1-20 20 20 20 0 0 1-20-20z" stroke="#000" stroke-width="3" fill="url(#m)"/><path d="M600 560.5a20 20 0 0 1 20-20 20 20 0 0 1 20 20v20a20 20 0 0 1-20 20 20 20 0 0 1-20-20z" stroke="#000" stroke-width="3" fill="url(#n)"/><path d="M540 660.5a20 20 0 0 1 20-20h60a20 20 0 0 1 20 20 20 20 0 0 1-20 20h-60a20 20 0 0 1-20-20z" stroke="#000" stroke-width="3" fill="#fff"/><path d="M560 503v17.5" stroke="#000" stroke-width="2" fill="none"/><path d="M559.94 502h1.04v1.03h-1.95v-1.1z" stroke="#000" stroke-width=".05"/><path d="M560 535.76l-4.63-14.27h9.27z" stroke="#000" stroke-width="2"/><path d="M620 503v17.5" stroke="#000" stroke-width="2" fill="none"/><path d="M620.98 503.03h-1.95V502h1.03l.92-.07z" stroke="#000" stroke-width=".05"/><path d="M620 535.76l-4.63-14.27h9.27z" stroke="#000" stroke-width="2"/><path d="M560 603v17.5" stroke="#000" stroke-width="2" fill="none"/><path d="M560 602l.98-.07v1.1h-1.95v-1.1z" stroke="#000" stroke-width=".05"/><path d="M560 635.76l-4.63-14.26h9.27z" stroke="#000" stroke-width="2"/><path d="M620 603v17.5" stroke="#000" stroke-width="2" fill="none"/><path d="M620 602l.98-.07v1.1h-1.95v-1.1z" stroke="#000" stroke-width=".05"/><path d="M620 635.76l-4.63-14.26h9.27z" stroke="#000" stroke-width="2"/><path d="M344 500.5a20 20 0 0 1 20-20h98a20 20 0 0 1 20 20v140a20 20 0 0 1-20 20h-98a20 20 0 0 1-20-20z" fill-opacity="0"/><path d="M342.5 500.5a1.5 1.5 0 0 1 1.5-1.5 1.5 1.5 0 0 1 1.5 1.5 1.5 1.5 0 0 1-1.5 1.5 1.5 1.5 0 0 1-1.5-1.5m2.73-9.96a1.5 1.5 0 0 1 1.5-1.5 1.5 1.5 0 0 1 1.5 1.5 1.5 1.5 0 0 1-1.5 1.5 1.5 1.5 0 0 1-1.5-1.5v-.03m7.3-7.26a1.5 1.5 0 0 1 1.5-1.5 1.5 1.5 0 0 1 1.5 1.5 1.5 1.5 0 0 1-1.5 1.5 1.5 1.5 0 0 1-1.5-1.5v-.03m9.97-2.7a1.5 1.5 0 0 1 1.5-1.5 1.5 1.5 0 0 1 1.5 1.5 1.5 1.5 0 0 1-1.5 1.5 1.5 1.5 0 0 1-1.5-1.5m12.25 0a1.5 1.5 0 0 1 1.5-1.5 1.5 1.5 0 0 1 1.5 1.5 1.5 1.5 0 0 1-1.5 1.5 1.5 1.5 0 0 1-1.5-1.5m12.25 0a1.5 1.5 0 0 1 1.5-1.5 1.5 1.5 0 0 1 1.5 1.5 1.5 1.5 0 0 1-1.5 1.5 1.5 1.5 0 0 1-1.5-1.5m12.25 0a1.5 1.5 0 0 1 1.5-1.5 1.5 1.5 0 0 1 1.5 1.5 1.5 1.5 0 0 1-1.5 1.5 1.5 1.5 0 0 1-1.5-1.5m12.25 0a1.5 1.5 0 0 1 1.5-1.5 1.5 1.5 0 0 1 1.5 1.5 1.5 1.5 0 0 1-1.5 1.5 1.5 1.5 0 0 1-1.5-1.5m12.25 0a1.5 1.5 0 0 1 1.5-1.5 1.5 1.5 0 0 1 1.5 1.5 1.5 1.5 0 0 1-1.5 1.5 1.5 1.5 0 0 1-1.5-1.5m12.25 0a1.5 1.5 0 0 1 1.5-1.5 1.5 1.5 0 0 1 1.5 1.5 1.5 1.5 0 0 1-1.5 1.5 1.5 1.5 0 0 1-1.5-1.5m12.25 0a1.5 1.5 0 0 1 1.5-1.5 1.5 1.5 0 0 1 1.5 1.5 1.5 1.5 0 0 1-1.5 1.5 1.5 1.5 0 0 1-1.5-1.5m12.25 0a1.5 1.5 0 0 1 1.5-1.5 1.5 1.5 0 0 1 1.5 1.5 1.5 1.5 0 0 1-1.5 1.5 1.5 1.5 0 0 1-1.5-1.5m9.98 2.74a1.5 1.5 0 0 1 1.5-1.5 1.5 1.5 0 0 1 1.5 1.5 1.5 1.5 0 0 1-1.5 1.5 1.5 1.5 0 0 1-1.5-1.5v-.03m7.3 7.34a1.5 1.5 0 0 1 1.5-1.5 1.5 1.5 0 0 1 1.5 1.5 1.5 1.5 0 0 1-1.5 1.5 1.5 1.5 0 0 1-1.5-1.5v-.03m2.72 10a1.5 1.5 0 0 1 1.5-1.5 1.5 1.5 0 0 1 1.5 1.5 1.5 1.5 0 0 1-1.5 1.5 1.5 1.5 0 0 1-1.5-1.5m0 11.68a1.5 1.5 0 0 1 1.5-1.5 1.5 1.5 0 0 1 1.5 1.5 1.5 1.5 0 0 1-1.5 1.5 1.5 1.5 0 0 1-1.5-1.5v-.03m0 11.7v-.02a1.5 1.5 0 0 1 1.5-1.5 1.5 1.5 0 0 1 1.5 1.5 1.5 1.5 0 0 1-1.5 1.5 1.5 1.5 0 0 1-1.5-1.5m0 11.68a1.5 1.5 0 0 1 1.5-1.5 1.5 1.5 0 0 1 1.5 1.5 1.5 1.5 0 0 1-1.5 1.5 1.5 1.5 0 0 1-1.5-1.5m0 11.68a1.5 1.5 0 0 1 1.5-1.5 1.5 1.5 0 0 1 1.5 1.5 1.5 1.5 0 0 1-1.5 1.5 1.5 1.5 0 0 1-1.5-1.5v-.03m0 11.7v-.02a1.5 1.5 0 0 1 1.5-1.5 1.5 1.5 0 0 1 1.5 1.5 1.5 1.5 0 0 1-1.5 1.5 1.5 1.5 0 0 1-1.5-1.5m0 11.68a1.5 1.5 0 0 1 1.5-1.5 1.5 1.5 0 0 1 1.5 1.5 1.5 1.5 0 0 1-1.5 1.5 1.5 1.5 0 0 1-1.5-1.5m0 11.68a1.5 1.5 0 0 1 1.5-1.5 1.5 1.5 0 0 1 1.5 1.5 1.5 1.5 0 0 1-1.5 1.5 1.5 1.5 0 0 1-1.5-1.5v-.03m0 11.7v-.02a1.5 1.5 0 0 1 1.5-1.5 1.5 1.5 0 0 1 1.5 1.5 1.5 1.5 0 0 1-1.5 1.5 1.5 1.5 0 0 1-1.5-1.5m0 11.68a1.5 1.5 0 0 1 1.5-1.5 1.5 1.5 0 0 1 1.5 1.5 1.5 1.5 0 0 1-1.5 1.5 1.5 1.5 0 0 1-1.5-1.5m0 11.68a1.5 1.5 0 0 1 1.5-1.5 1.5 1.5 0 0 1 1.5 1.5 1.5 1.5 0 0 1-1.5 1.5 1.5 1.5 0 0 1-1.5-1.5v-.03m0 11.7v-.02a1.5 1.5 0 0 1 1.5-1.5 1.5 1.5 0 0 1 1.5 1.5 1.5 1.5 0 0 1-1.5 1.5 1.5 1.5 0 0 1-1.5-1.5m0 11.68a1.5 1.5 0 0 1 1.5-1.5 1.5 1.5 0 0 1 1.5 1.5 1.5 1.5 0 0 1-1.5 1.5 1.5 1.5 0 0 1-1.5-1.5m-2.72 10v-.03a1.5 1.5 0 0 1 1.5-1.5 1.5 1.5 0 0 1 1.5 1.5 1.5 1.5 0 0 1-1.5 1.5 1.5 1.5 0 0 1-1.5-1.5m-7.3 7.32v-.03a1.5 1.5 0 0 1 1.5-1.5 1.5 1.5 0 0 1 1.5 1.5 1.5 1.5 0 0 1-1.5 1.5 1.5 1.5 0 0 1-1.5-1.5m-9.98 2.75v-.02a1.5 1.5 0 0 1 1.5-1.5 1.5 1.5 0 0 1 1.5 1.5 1.5 1.5 0 0 1-1.5 1.5 1.5 1.5 0 0 1-1.5-1.5m-12.25 0a1.5 1.5 0 0 1 1.5-1.5 1.5 1.5 0 0 1 1.5 1.5 1.5 1.5 0 0 1-1.5 1.5 1.5 1.5 0 0 1-1.5-1.5m-12.25 0a1.5 1.5 0 0 1 1.5-1.5 1.5 1.5 0 0 1 1.5 1.5 1.5 1.5 0 0 1-1.5 1.5 1.5 1.5 0 0 1-1.5-1.5m-12.25 0a1.5 1.5 0 0 1 1.5-1.5 1.5 1.5 0 0 1 1.5 1.5 1.5 1.5 0 0 1-1.5 1.5 1.5 1.5 0 0 1-1.5-1.5m-12.25 0a1.5 1.5 0 0 1 1.5-1.5 1.5 1.5 0 0 1 1.5 1.5 1.5 1.5 0 0 1-1.5 1.5 1.5 1.5 0 0 1-1.5-1.5m-12.25 0a1.5 1.5 0 0 1 1.5-1.5 1.5 1.5 0 0 1 1.5 1.5 1.5 1.5 0 0 1-1.5 1.5 1.5 1.5 0 0 1-1.5-1.5m-12.25 0a1.5 1.5 0 0 1 1.5-1.5 1.5 1.5 0 0 1 1.5 1.5 1.5 1.5 0 0 1-1.5 1.5 1.5 1.5 0 0 1-1.5-1.5m-12.25 0a1.5 1.5 0 0 1 1.5-1.5 1.5 1.5 0 0 1 1.5 1.5 1.5 1.5 0 0 1-1.5 1.5 1.5 1.5 0 0 1-1.5-1.5m-12.25 0a1.5 1.5 0 0 1 1.5-1.5 1.5 1.5 0 0 1 1.5 1.5 1.5 1.5 0 0 1-1.5 1.5 1.5 1.5 0 0 1-1.5-1.5m-9.97-2.7v-.03a1.5 1.5 0 0 1 1.5-1.5 1.5 1.5 0 0 1 1.5 1.5 1.5 1.5 0 0 1-1.5 1.5 1.5 1.5 0 0 1-1.5-1.5m-7.3-7.28v-.03a1.5 1.5 0 0 1 1.5-1.5 1.5 1.5 0 0 1 1.5 1.5 1.5 1.5 0 0 1-1.5 1.5 1.5 1.5 0 0 1-1.5-1.5m-2.73-9.96a1.5 1.5 0 0 1 1.5-1.5 1.5 1.5 0 0 1 1.5 1.5 1.5 1.5 0 0 1-1.5 1.5 1.5 1.5 0 0 1-1.5-1.5m0-11.65v-.02a1.5 1.5 0 0 1 1.5-1.5 1.5 1.5 0 0 1 1.5 1.5 1.5 1.5 0 0 1-1.5 1.5 1.5 1.5 0 0 1-1.5-1.5m0-11.65a1.5 1.5 0 0 1 1.5-1.5 1.5 1.5 0 0 1 1.5 1.5 1.5 1.5 0 0 1-1.5 1.5 1.5 1.5 0 0 1-1.5-1.5v-.03m0-11.63v-.02a1.5 1.5 0 0 1 1.5-1.5 1.5 1.5 0 0 1 1.5 1.5 1.5 1.5 0 0 1-1.5 1.5 1.5 1.5 0 0 1-1.5-1.5m0-11.65v-.02a1.5 1.5 0 0 1 1.5-1.5 1.5 1.5 0 0 1 1.5 1.5 1.5 1.5 0 0 1-1.5 1.5 1.5 1.5 0 0 1-1.5-1.5m0-11.65a1.5 1.5 0 0 1 1.5-1.5 1.5 1.5 0 0 1 1.5 1.5 1.5 1.5 0 0 1-1.5 1.5 1.5 1.5 0 0 1-1.5-1.5v-.03m0-11.63v-.02a1.5 1.5 0 0 1 1.5-1.5 1.5 1.5 0 0 1 1.5 1.5 1.5 1.5 0 0 1-1.5 1.5 1.5 1.5 0 0 1-1.5-1.5m0-11.65v-.02a1.5 1.5 0 0 1 1.5-1.5 1.5 1.5 0 0 1 1.5 1.5 1.5 1.5 0 0 1-1.5 1.5 1.5 1.5 0 0 1-1.5-1.5m0-11.65a1.5 1.5 0 0 1 1.5-1.5 1.5 1.5 0 0 1 1.5 1.5 1.5 1.5 0 0 1-1.5 1.5 1.5 1.5 0 0 1-1.5-1.5v-.03m0-11.63v-.02a1.5 1.5 0 0 1 1.5-1.5 1.5 1.5 0 0 1 1.5 1.5 1.5 1.5 0 0 1-1.5 1.5 1.5 1.5 0 0 1-1.5-1.5m0-11.65v-.02a1.5 1.5 0 0 1 1.5-1.5 1.5 1.5 0 0 1 1.5 1.5 1.5 1.5 0 0 1-1.5 1.5 1.5 1.5 0 0 1-1.5-1.5m0-11.65a1.5 1.5 0 0 1 1.5-1.5 1.5 1.5 0 0 1 1.5 1.5 1.5 1.5 0 0 1-1.5 1.5 1.5 1.5 0 0 1-1.5-1.5v-.03"/><path d="M362 480.5a20 20 0 0 1 20-20h60a20 20 0 0 1 20 20 20 20 0 0 1-20 20h-60a20 20 0 0 1-20-20z" stroke="#000" stroke-width="3" fill="url(#o)"/><use xlink:href="#g" transform="matrix(1,0,0,1,367.00322174048915,465.5) translate(11.733395061728396 21.430555555555557)"/><use xlink:href="#p" transform="matrix(1,0,0,1,367.00322174048915,465.5) translate(61.98030864197531 21.430555555555557)"/><path d="M362 560.5a20 20 0 0 1 20-20 20 20 0 0 1 20 20v20a20 20 0 0 1-20 20 20 20 0 0 1-20-20z" stroke="#000" stroke-width="3" fill="url(#q)"/><path d="M422 560.5a20 20 0 0 1 20-20 20 20 0 0 1 20 20v20a20 20 0 0 1-20 20 20 20 0 0 1-20-20z" stroke="#000" stroke-width="3" fill="url(#r)"/><path d="M362 660.5a20 20 0 0 1 20-20h60a20 20 0 0 1 20 20 20 20 0 0 1-20 20h-60a20 20 0 0 1-20-20z" stroke="#000" stroke-width="3" fill="#fff"/><path d="M382 503v17.5" stroke="#000" stroke-width="2" fill="none"/><path d="M381.94 502h1.04v1.03h-1.95v-1.1z" stroke="#000" stroke-width=".05"/><path d="M382 535.76l-4.63-14.27h9.27z" stroke="#000" stroke-width="2"/><path d="M442 503v17.5" stroke="#000" stroke-width="2" fill="none"/><path d="M442.98 503.03h-1.95V502h1.03l.92-.07z" stroke="#000" stroke-width=".05"/><path d="M442 535.76l-4.63-14.27h9.27z" stroke="#000" stroke-width="2"/><path d="M382 603v17.5" stroke="#000" stroke-width="2" fill="none"/><path d="M382 602l.98-.07v1.1h-1.95v-1.1z" stroke="#000" stroke-width=".05"/><path d="M382 635.76l-4.63-14.26h9.27z" stroke="#000" stroke-width="2"/><path d="M442 603v17.5" stroke="#000" stroke-width="2" fill="none"/><path d="M442 602l.98-.07v1.1h-1.95v-1.1z" stroke="#000" stroke-width=".05"/><path d="M442 635.76l-4.63-14.26h9.27z" stroke="#000" stroke-width="2"/><path d="M767.63 682.43l-22.5 57.35" stroke="#000" stroke-width="2" fill="none"/><path d="M768.53 682.8l-1.8-.7.22-.6h2.1z" stroke="#000" stroke-width=".05"/><path d="M739.57 754l.9-15 8.62 3.4z" stroke="#000" stroke-width="2"/><path d="M590.9 682.45l130.97 66.2" stroke="#000" stroke-width="2" fill="none"/><path d="M590.48 683.33l-2.64-1.33h3.3z" stroke="#000" stroke-width=".05"/><path d="M735.5 755.54l-14.83-2.3 4.2-8.27z" stroke="#000" stroke-width="2"/><path d="M589.1 682.45L456.94 748.7" stroke="#000" stroke-width="2" fill="none"/><path d="M589.52 683.33l-.67-1.33h3.33z" stroke="#000" stroke-width=".05"/><path d="M443.28 755.55L453.96 745l4.15 8.3z" stroke="#000" stroke-width="2"/><path d="M767.03 681.73l-308.6 71.12" stroke="#000" stroke-width="2" fill="none"/><path d="M771.14 681.78l-3.92.9-.27-1.18h4.13z" stroke="#000" stroke-width=".05"/><path d="M443.54 756.27l12.86-7.72 2.08 9.04z" stroke="#000" stroke-width="2"/><path d="M412.98 682.22l307.37 70.64" stroke="#000" stroke-width="2" fill="none"/><path d="M412.8 683.18l-3.94-.9.06-.28h4.14z" stroke="#000" stroke-width=".05"/><path d="M735.23 756.27l-14.94 1.33 2.06-9.04z" stroke="#000" stroke-width="2"/><path d="M412.36 682.93l21.48 56.77" stroke="#000" stroke-width="2" fill="none"/><path d="M413.28 682.6l-1.83.7-.5-1.3h2.1z" stroke="#000" stroke-width=".05"/><path d="M439.24 753.97l-9.38-11.7 8.67-3.28z" stroke="#000" stroke-width="2"/><path d="M438.67 382.44l-20.58 59.1" stroke="#000" stroke-width="2" fill="none"/><path d="M439.58 382.8l-1.84-.65.23-.65h2.06z" stroke="#000" stroke-width=".05"/><path d="M413.07 455.94l.3-15 8.77 3.06z" stroke="#000" stroke-width="2"/><path d="M739.35 382.44l22.13 58.75" stroke="#000" stroke-width="2" fill="none"/><path d="M740.27 382.12l-1.82.68-.5-1.3h2.1z" stroke="#000" stroke-width=".05"/><path d="M766.86 455.47l-9.37-11.72 8.67-3.26z" stroke="#000" stroke-width="2"/><path d="M439.9 381.96l133.64 68.6" stroke="#000" stroke-width="2" fill="none"/><path d="M439.47 382.84l-2.6-1.34h3.28z" stroke="#000" stroke-width=".05"/><path d="M587.12 457.52l-14.8-2.4 4.23-8.24z" stroke="#000" stroke-width="2"/><path d="M439.97 381.73l310 72.55" stroke="#000" stroke-width="2" fill="none"/><path d="M439.78 382.68l-3.92-.9.06-.28h4.13z" stroke="#000" stroke-width=".05"/><path d="M764.85 457.76l-14.95 1.26 2.12-9.02z" stroke="#000" stroke-width="2"/><path d="M738.1 381.96l-131.68 68.5" stroke="#000" stroke-width="2" fill="none"/><path d="M738.54 382.84l-.7-1.34h3.27z" stroke="#000" stroke-width=".05"/><path d="M592.87 457.5l10.52-10.7 4.27 8.24z" stroke="#000" stroke-width="2"/><path d="M738.03 381.73l-308.02 73" stroke="#000" stroke-width="2" fill="none"/><path d="M742.14 381.76l-3.9.93-.3-1.2h4.14z" stroke="#000" stroke-width=".05"/><path d="M415.15 458.25l12.8-7.8 2.15 9.02z" stroke="#000" stroke-width="2"/><path d="M341 300h3.97m7.93 0h7.93m7.93 0h7.93m7.93 0h7.93m7.93 0h7.92m7.93 0h7.93m7.94 0h7.93m7.93 0H456m7.94 0h7.94m7.93 0h7.94m7.93 0h7.93m7.93 0h7.94m7.93 0h7.93m7.93 0h7.93m7.92 0h7.94m7.93 0h7.92m7.93 0h7.93m7.94 0h7.93m7.93 0h7.93m7.94 0h7.93m7.94 0h7.94m7.93 0h7.93m7.93 0h7.94m7.93 0h7.93m7.93 0h7.93m7.92 0h7.94m7.93 0h7.92m7.93 0h7.93m7.94 0h7.93m7.93 0H805m7.94 0h7.93m7.94 0h7.94m7.93 0h7.93m7.93 0h7.94m7.93 0h7.93m7.93 0h7.93m7.92 0h7.94m7.93 0h7.92m7.93 0h7.93m7.94 0h7.93m7.93 0h7.93m7.94 0h7.93m7.94 0h7.94m7.93 0h7.93m7.93 0h3.97M341.03 300H340M1038.97 300h1.03" stroke="#ba23f6" stroke-width="2" fill="none"/><path d="M342 259.5a20 20 0 0 1 20-20h158a20 20 0 0 1 20 20v.5a20 20 0 0 1-20 20H362a20 20 0 0 1-20-20z" stroke="#000" stroke-width="3" fill="#fff"/><use xlink:href="#b" transform="matrix(1,0,0,1,347.00177696849323,244.5) translate(6.548209876543192 21.493055555555557)"/><use xlink:href="#s" transform="matrix(1,0,0,1,347.00177696849323,244.5) translate(85.10993827160493 21.493055555555557)"/><path d="M640 259.5a20 20 0 0 1 20-20h158a20 20 0 0 1 20 20v.5a20 20 0 0 1-20 20H660a20 20 0 0 1-20-20z" stroke="#000" stroke-width="3" fill="#fff"/><use xlink:href="#e" transform="matrix(1,0,0,1,645.0017337263952,244.5) translate(17.58216049382714 21.493055555555557)"/><use xlink:href="#s" transform="matrix(1,0,0,1,645.0017337263952,244.5) translate(74.07598765432098 21.493055555555557)"/><path d="M640 798.5a20 20 0 0 1 20-20h158a20 20 0 0 1 20 20V920a20 20 0 0 1-20 20H660a20 20 0 0 1-20-20z" fill-opacity="0"/><path d="M638.5 798.5a1.5 1.5 0 0 1 1.5-1.5 1.5 1.5 0 0 1 1.5 1.5 1.5 1.5 0 0 1-1.5 1.5 1.5 1.5 0 0 1-1.5-1.5m2.73-9.96a1.5 1.5 0 0 1 1.5-1.5 1.5 1.5 0 0 1 1.5 1.5 1.5 1.5 0 0 1-1.5 1.5 1.5 1.5 0 0 1-1.5-1.5v-.03m7.3-7.26a1.5 1.5 0 0 1 1.5-1.5 1.5 1.5 0 0 1 1.5 1.5 1.5 1.5 0 0 1-1.5 1.5 1.5 1.5 0 0 1-1.5-1.5v-.03m9.97-2.7a1.5 1.5 0 0 1 1.5-1.5 1.5 1.5 0 0 1 1.5 1.5 1.5 1.5 0 0 1-1.5 1.5 1.5 1.5 0 0 1-1.5-1.5m12.15 0a1.5 1.5 0 0 1 1.5-1.5 1.5 1.5 0 0 1 1.5 1.5 1.5 1.5 0 0 1-1.5 1.5 1.5 1.5 0 0 1-1.5-1.5m12.16 0a1.5 1.5 0 0 1 1.5-1.5 1.5 1.5 0 0 1 1.5 1.5 1.5 1.5 0 0 1-1.5 1.5 1.5 1.5 0 0 1-1.5-1.5m12.16 0a1.5 1.5 0 0 1 1.5-1.5 1.5 1.5 0 0 1 1.5 1.5 1.5 1.5 0 0 1-1.5 1.5 1.5 1.5 0 0 1-1.5-1.5m12.15 0a1.5 1.5 0 0 1 1.5-1.5 1.5 1.5 0 0 1 1.5 1.5 1.5 1.5 0 0 1-1.5 1.5 1.5 1.5 0 0 1-1.5-1.5m12.17 0a1.5 1.5 0 0 1 1.5-1.5 1.5 1.5 0 0 1 1.5 1.5 1.5 1.5 0 0 1-1.5 1.5 1.5 1.5 0 0 1-1.5-1.5m12.15 0a1.5 1.5 0 0 1 1.5-1.5 1.5 1.5 0 0 1 1.5 1.5 1.5 1.5 0 0 1-1.5 1.5 1.5 1.5 0 0 1-1.5-1.5m12.16 0a1.5 1.5 0 0 1 1.5-1.5 1.5 1.5 0 0 1 1.5 1.5 1.5 1.5 0 0 1-1.5 1.5 1.5 1.5 0 0 1-1.5-1.5m12.15 0a1.5 1.5 0 0 1 1.5-1.5 1.5 1.5 0 0 1 1.5 1.5 1.5 1.5 0 0 1-1.5 1.5 1.5 1.5 0 0 1-1.5-1.5m12.15 0a1.5 1.5 0 0 1 1.5-1.5 1.5 1.5 0 0 1 1.5 1.5 1.5 1.5 0 0 1-1.5 1.5 1.5 1.5 0 0 1-1.5-1.5m12.16 0a1.5 1.5 0 0 1 1.5-1.5 1.5 1.5 0 0 1 1.5 1.5 1.5 1.5 0 0 1-1.5 1.5 1.5 1.5 0 0 1-1.5-1.5m12.15 0a1.5 1.5 0 0 1 1.5-1.5 1.5 1.5 0 0 1 1.5 1.5 1.5 1.5 0 0 1-1.5 1.5 1.5 1.5 0 0 1-1.5-1.5m12.15 0a1.5 1.5 0 0 1 1.5-1.5 1.5 1.5 0 0 1 1.5 1.5 1.5 1.5 0 0 1-1.5 1.5 1.5 1.5 0 0 1-1.5-1.5m12.15 0a1.5 1.5 0 0 1 1.5-1.5 1.5 1.5 0 0 1 1.5 1.5 1.5 1.5 0 0 1-1.5 1.5 1.5 1.5 0 0 1-1.5-1.5m9.97 2.74a1.5 1.5 0 0 1 1.5-1.5 1.5 1.5 0 0 1 1.5 1.5 1.5 1.5 0 0 1-1.5 1.5 1.5 1.5 0 0 1-1.5-1.5v-.03m7.3 7.34a1.5 1.5 0 0 1 1.5-1.5 1.5 1.5 0 0 1 1.5 1.5 1.5 1.5 0 0 1-1.5 1.5 1.5 1.5 0 0 1-1.5-1.5v-.03m2.73 10a1.5 1.5 0 0 1 1.5-1.5 1.5 1.5 0 0 1 1.5 1.5 1.5 1.5 0 0 1-1.5 1.5 1.5 1.5 0 0 1-1.5-1.5m0 12.16a1.5 1.5 0 0 1 1.5-1.5 1.5 1.5 0 0 1 1.5 1.5 1.5 1.5 0 0 1-1.5 1.5 1.5 1.5 0 0 1-1.5-1.5v-.02m0 12.18v-.02a1.5 1.5 0 0 1 1.5-1.5 1.5 1.5 0 0 1 1.5 1.5 1.5 1.5 0 0 1-1.5 1.5 1.5 1.5 0 0 1-1.5-1.5m0 12.17v-.02a1.5 1.5 0 0 1 1.5-1.5 1.5 1.5 0 0 1 1.5 1.5 1.5 1.5 0 0 1-1.5 1.5 1.5 1.5 0 0 1-1.5-1.5v-.02m0 12.2v-.03a1.5 1.5 0 0 1 1.5-1.5 1.5 1.5 0 0 1 1.5 1.5 1.5 1.5 0 0 1-1.5 1.5 1.5 1.5 0 0 1-1.5-1.5m0 12.16a1.5 1.5 0 0 1 1.5-1.5 1.5 1.5 0 0 1 1.5 1.5 1.5 1.5 0 0 1-1.5 1.5 1.5 1.5 0 0 1-1.5-1.5v-.02m0 12.17a1.5 1.5 0 0 1 1.5-1.5 1.5 1.5 0 0 1 1.5 1.5 1.5 1.5 0 0 1-1.5 1.5 1.5 1.5 0 0 1-1.5-1.5m0 12.17v-.02a1.5 1.5 0 0 1 1.5-1.5 1.5 1.5 0 0 1 1.5 1.5 1.5 1.5 0 0 1-1.5 1.5 1.5 1.5 0 0 1-1.5-1.5m0 12.17v-.02a1.5 1.5 0 0 1 1.5-1.5 1.5 1.5 0 0 1 1.5 1.5 1.5 1.5 0 0 1-1.5 1.5 1.5 1.5 0 0 1-1.5-1.5v-.02m0 12.2v-.03a1.5 1.5 0 0 1 1.5-1.5 1.5 1.5 0 0 1 1.5 1.5 1.5 1.5 0 0 1-1.5 1.5 1.5 1.5 0 0 1-1.5-1.5m0 12.16a1.5 1.5 0 0 1 1.5-1.5 1.5 1.5 0 0 1 1.5 1.5 1.5 1.5 0 0 1-1.5 1.5 1.5 1.5 0 0 1-1.5-1.5m-2.73 10v-.03a1.5 1.5 0 0 1 1.5-1.5 1.5 1.5 0 0 1 1.5 1.5 1.5 1.5 0 0 1-1.5 1.5 1.5 1.5 0 0 1-1.5-1.5m-7.3 7.32v-.03a1.5 1.5 0 0 1 1.5-1.5 1.5 1.5 0 0 1 1.5 1.5 1.5 1.5 0 0 1-1.5 1.5 1.5 1.5 0 0 1-1.5-1.5M816.5 940V940a1.5 1.5 0 0 1 1.5-1.5 1.5 1.5 0 0 1 1.5 1.5 1.5 1.5 0 0 1-1.5 1.5 1.5 1.5 0 0 1-1.5-1.5m-12.15 0a1.5 1.5 0 0 1 1.5-1.5 1.5 1.5 0 0 1 1.5 1.5 1.5 1.5 0 0 1-1.5 1.5 1.5 1.5 0 0 1-1.5-1.5m-12.16 0a1.5 1.5 0 0 1 1.5-1.5 1.5 1.5 0 0 1 1.5 1.5 1.5 1.5 0 0 1-1.5 1.5 1.5 1.5 0 0 1-1.5-1.5m-12.16 0a1.5 1.5 0 0 1 1.5-1.5 1.5 1.5 0 0 1 1.5 1.5 1.5 1.5 0 0 1-1.5 1.5 1.5 1.5 0 0 1-1.5-1.5m-12.16 0a1.5 1.5 0 0 1 1.5-1.5 1.5 1.5 0 0 1 1.5 1.5 1.5 1.5 0 0 1-1.5 1.5 1.5 1.5 0 0 1-1.5-1.5m-12.15 0a1.5 1.5 0 0 1 1.5-1.5 1.5 1.5 0 0 1 1.5 1.5 1.5 1.5 0 0 1-1.5 1.5 1.5 1.5 0 0 1-1.5-1.5m-12.15 0a1.5 1.5 0 0 1 1.5-1.5 1.5 1.5 0 0 1 1.5 1.5 1.5 1.5 0 0 1-1.5 1.5 1.5 1.5 0 0 1-1.5-1.5m-12.16 0a1.5 1.5 0 0 1 1.5-1.5 1.5 1.5 0 0 1 1.5 1.5 1.5 1.5 0 0 1-1.5 1.5 1.5 1.5 0 0 1-1.5-1.5m-12.15 0a1.5 1.5 0 0 1 1.5-1.5 1.5 1.5 0 0 1 1.5 1.5 1.5 1.5 0 0 1-1.5 1.5 1.5 1.5 0 0 1-1.5-1.5m-12.15 0a1.5 1.5 0 0 1 1.5-1.5 1.5 1.5 0 0 1 1.5 1.5 1.5 1.5 0 0 1-1.5 1.5 1.5 1.5 0 0 1-1.5-1.5m-12.16 0a1.5 1.5 0 0 1 1.5-1.5 1.5 1.5 0 0 1 1.5 1.5 1.5 1.5 0 0 1-1.5 1.5 1.5 1.5 0 0 1-1.5-1.5m-12.15 0a1.5 1.5 0 0 1 1.5-1.5 1.5 1.5 0 0 1 1.5 1.5 1.5 1.5 0 0 1-1.5 1.5 1.5 1.5 0 0 1-1.5-1.5m-12.15 0a1.5 1.5 0 0 1 1.5-1.5 1.5 1.5 0 0 1 1.5 1.5 1.5 1.5 0 0 1-1.5 1.5 1.5 1.5 0 0 1-1.5-1.5m-12.15 0a1.5 1.5 0 0 1 1.5-1.5 1.5 1.5 0 0 1 1.5 1.5 1.5 1.5 0 0 1-1.5 1.5 1.5 1.5 0 0 1-1.5-1.5m-9.97-2.7v-.03a1.5 1.5 0 0 1 1.5-1.5 1.5 1.5 0 0 1 1.5 1.5 1.5 1.5 0 0 1-1.5 1.5 1.5 1.5 0 0 1-1.5-1.5m-7.3-7.28v-.03a1.5 1.5 0 0 1 1.5-1.5 1.5 1.5 0 0 1 1.5 1.5 1.5 1.5 0 0 1-1.5 1.5 1.5 1.5 0 0 1-1.5-1.5M638.5 920a1.5 1.5 0 0 1 1.5-1.5 1.5 1.5 0 0 1 1.5 1.5 1.5 1.5 0 0 1-1.5 1.5 1.5 1.5 0 0 1-1.5-1.5m0-12.13v-.02a1.5 1.5 0 0 1 1.5-1.5 1.5 1.5 0 0 1 1.5 1.5 1.5 1.5 0 0 1-1.5 1.5 1.5 1.5 0 0 1-1.5-1.5m0-12.13v-.02a1.5 1.5 0 0 1 1.5-1.5 1.5 1.5 0 0 1 1.5 1.5 1.5 1.5 0 0 1-1.5 1.5 1.5 1.5 0 0 1-1.5-1.5v-.02m0-12.1v-.03a1.5 1.5 0 0 1 1.5-1.5 1.5 1.5 0 0 1 1.5 1.5 1.5 1.5 0 0 1-1.5 1.5 1.5 1.5 0 0 1-1.5-1.5m0-12.13v-.02a1.5 1.5 0 0 1 1.5-1.5 1.5 1.5 0 0 1 1.5 1.5 1.5 1.5 0 0 1-1.5 1.5 1.5 1.5 0 0 1-1.5-1.5m0-12.13v-.02a1.5 1.5 0 0 1 1.5-1.5 1.5 1.5 0 0 1 1.5 1.5 1.5 1.5 0 0 1-1.5 1.5 1.5 1.5 0 0 1-1.5-1.5m0-12.13v-.02a1.5 1.5 0 0 1 1.5-1.5 1.5 1.5 0 0 1 1.5 1.5 1.5 1.5 0 0 1-1.5 1.5 1.5 1.5 0 0 1-1.5-1.5m0-12.13v-.02a1.5 1.5 0 0 1 1.5-1.5 1.5 1.5 0 0 1 1.5 1.5 1.5 1.5 0 0 1-1.5 1.5 1.5 1.5 0 0 1-1.5-1.5v-.02m0-12.1v-.03a1.5 1.5 0 0 1 1.5-1.5 1.5 1.5 0 0 1 1.5 1.5 1.5 1.5 0 0 1-1.5 1.5 1.5 1.5 0 0 1-1.5-1.5m0-12.13v-.02a1.5 1.5 0 0 1 1.5-1.5 1.5 1.5 0 0 1 1.5 1.5 1.5 1.5 0 0 1-1.5 1.5 1.5 1.5 0 0 1-1.5-1.5"/><path d="M658 858.5a20 20 0 0 1 20-20 20 20 0 0 1 20 20v40a20 20 0 0 1-20 20 20 20 0 0 1-20-20z" stroke="#000" stroke-width="3" fill="url(#t)"/><path d="M658.77 778.5a20 20 0 0 1 20-20H798a20 20 0 0 1 20 20 20 20 0 0 1-20 20H678.77a20 20 0 0 1-20-20z" stroke="#000" stroke-width="3" fill="url(#u)"/><use xlink:href="#v" transform="matrix(1,0,0,1,663.7670634610881,763.5000499999953) translate(27.04203703703702 21.430555555555557)"/><path d="M718 858.5a20 20 0 0 1 20-20 20 20 0 0 1 20 20v40a20 20 0 0 1-20 20 20 20 0 0 1-20-20z" stroke="#000" stroke-width="3" fill="url(#w)"/><path d="M778 858.5a20 20 0 0 1 20-20 20 20 0 0 1 20 20v40a20 20 0 0 1-20 20 20 20 0 0 1-20-20z" stroke="#000" stroke-width="3" fill="url(#x)"/><path d="M678 800.94v17.55" stroke="#000" stroke-width="2" fill="none"/><path d="M678.7 800h.27v.97h-1.95v-1.1z" stroke="#000" stroke-width=".05"/><path d="M678 833.76l-4.64-14.27h9.27z" stroke="#000" stroke-width="2"/><path d="M738 801v17.5" stroke="#000" stroke-width="2" fill="none"/><path d="M738.98 801.03H737V800H739z" stroke="#000" stroke-width=".05"/><path d="M738 833.76l-4.64-14.27h9.27z" stroke="#000" stroke-width="2"/><path d="M798 801v17.5" stroke="#000" stroke-width="2" fill="none"/><path d="M798.98 801.03H797V800h1.04l.92-.07z" stroke="#000" stroke-width=".05"/><path d="M798 833.76l-4.64-14.27h9.27z" stroke="#000" stroke-width="2"/><path d="M342 798.5a20 20 0 0 1 20-20h158a20 20 0 0 1 20 20V920a20 20 0 0 1-20 20H362a20 20 0 0 1-20-20z" fill-opacity="0"/><path d="M340.5 798.5a1.5 1.5 0 0 1 1.5-1.5 1.5 1.5 0 0 1 1.5 1.5 1.5 1.5 0 0 1-1.5 1.5 1.5 1.5 0 0 1-1.5-1.5m2.73-9.96a1.5 1.5 0 0 1 1.5-1.5 1.5 1.5 0 0 1 1.5 1.5 1.5 1.5 0 0 1-1.5 1.5 1.5 1.5 0 0 1-1.5-1.5v-.03m7.3-7.26a1.5 1.5 0 0 1 1.5-1.5 1.5 1.5 0 0 1 1.5 1.5 1.5 1.5 0 0 1-1.5 1.5 1.5 1.5 0 0 1-1.5-1.5v-.03m9.97-2.7a1.5 1.5 0 0 1 1.5-1.5 1.5 1.5 0 0 1 1.5 1.5 1.5 1.5 0 0 1-1.5 1.5 1.5 1.5 0 0 1-1.5-1.5m12.16 0a1.5 1.5 0 0 1 1.5-1.5 1.5 1.5 0 0 1 1.5 1.5 1.5 1.5 0 0 1-1.5 1.5 1.5 1.5 0 0 1-1.5-1.5m12.15 0a1.5 1.5 0 0 1 1.5-1.5 1.5 1.5 0 0 1 1.5 1.5 1.5 1.5 0 0 1-1.5 1.5 1.5 1.5 0 0 1-1.5-1.5m12.16 0a1.5 1.5 0 0 1 1.5-1.5 1.5 1.5 0 0 1 1.5 1.5 1.5 1.5 0 0 1-1.5 1.5 1.5 1.5 0 0 1-1.5-1.5m12.16 0a1.5 1.5 0 0 1 1.5-1.5 1.5 1.5 0 0 1 1.5 1.5 1.5 1.5 0 0 1-1.5 1.5 1.5 1.5 0 0 1-1.5-1.5m12.15 0a1.5 1.5 0 0 1 1.5-1.5 1.5 1.5 0 0 1 1.5 1.5 1.5 1.5 0 0 1-1.5 1.5 1.5 1.5 0 0 1-1.5-1.5m12.16 0a1.5 1.5 0 0 1 1.5-1.5 1.5 1.5 0 0 1 1.5 1.5 1.5 1.5 0 0 1-1.5 1.5 1.5 1.5 0 0 1-1.5-1.5m12.15 0a1.5 1.5 0 0 1 1.5-1.5 1.5 1.5 0 0 1 1.5 1.5 1.5 1.5 0 0 1-1.5 1.5 1.5 1.5 0 0 1-1.5-1.5m12.15 0a1.5 1.5 0 0 1 1.5-1.5 1.5 1.5 0 0 1 1.5 1.5 1.5 1.5 0 0 1-1.5 1.5 1.5 1.5 0 0 1-1.5-1.5m12.16 0a1.5 1.5 0 0 1 1.5-1.5 1.5 1.5 0 0 1 1.5 1.5 1.5 1.5 0 0 1-1.5 1.5 1.5 1.5 0 0 1-1.5-1.5m12.14 0a1.5 1.5 0 0 1 1.5-1.5 1.5 1.5 0 0 1 1.5 1.5 1.5 1.5 0 0 1-1.5 1.5 1.5 1.5 0 0 1-1.5-1.5m12.15 0a1.5 1.5 0 0 1 1.5-1.5 1.5 1.5 0 0 1 1.5 1.5 1.5 1.5 0 0 1-1.5 1.5 1.5 1.5 0 0 1-1.5-1.5m12.15 0a1.5 1.5 0 0 1 1.5-1.5 1.5 1.5 0 0 1 1.5 1.5 1.5 1.5 0 0 1-1.5 1.5 1.5 1.5 0 0 1-1.5-1.5m12.15 0a1.5 1.5 0 0 1 1.5-1.5 1.5 1.5 0 0 1 1.5 1.5 1.5 1.5 0 0 1-1.5 1.5 1.5 1.5 0 0 1-1.5-1.5m9.97 2.74a1.5 1.5 0 0 1 1.5-1.5 1.5 1.5 0 0 1 1.5 1.5 1.5 1.5 0 0 1-1.5 1.5 1.5 1.5 0 0 1-1.5-1.5v-.03m7.3 7.34a1.5 1.5 0 0 1 1.5-1.5 1.5 1.5 0 0 1 1.5 1.5 1.5 1.5 0 0 1-1.5 1.5 1.5 1.5 0 0 1-1.5-1.5v-.03m2.73 10a1.5 1.5 0 0 1 1.5-1.5 1.5 1.5 0 0 1 1.5 1.5 1.5 1.5 0 0 1-1.5 1.5 1.5 1.5 0 0 1-1.5-1.5m0 12.16a1.5 1.5 0 0 1 1.5-1.5 1.5 1.5 0 0 1 1.5 1.5 1.5 1.5 0 0 1-1.5 1.5 1.5 1.5 0 0 1-1.5-1.5v-.02m0 12.18v-.02a1.5 1.5 0 0 1 1.5-1.5 1.5 1.5 0 0 1 1.5 1.5 1.5 1.5 0 0 1-1.5 1.5 1.5 1.5 0 0 1-1.5-1.5m0 12.17v-.02a1.5 1.5 0 0 1 1.5-1.5 1.5 1.5 0 0 1 1.5 1.5 1.5 1.5 0 0 1-1.5 1.5 1.5 1.5 0 0 1-1.5-1.5v-.02m0 12.2v-.03a1.5 1.5 0 0 1 1.5-1.5 1.5 1.5 0 0 1 1.5 1.5 1.5 1.5 0 0 1-1.5 1.5 1.5 1.5 0 0 1-1.5-1.5m0 12.16a1.5 1.5 0 0 1 1.5-1.5 1.5 1.5 0 0 1 1.5 1.5 1.5 1.5 0 0 1-1.5 1.5 1.5 1.5 0 0 1-1.5-1.5v-.02m0 12.17a1.5 1.5 0 0 1 1.5-1.5 1.5 1.5 0 0 1 1.5 1.5 1.5 1.5 0 0 1-1.5 1.5 1.5 1.5 0 0 1-1.5-1.5m0 12.17v-.02a1.5 1.5 0 0 1 1.5-1.5 1.5 1.5 0 0 1 1.5 1.5 1.5 1.5 0 0 1-1.5 1.5 1.5 1.5 0 0 1-1.5-1.5m0 12.17v-.02a1.5 1.5 0 0 1 1.5-1.5 1.5 1.5 0 0 1 1.5 1.5 1.5 1.5 0 0 1-1.5 1.5 1.5 1.5 0 0 1-1.5-1.5v-.02m0 12.2v-.03a1.5 1.5 0 0 1 1.5-1.5 1.5 1.5 0 0 1 1.5 1.5 1.5 1.5 0 0 1-1.5 1.5 1.5 1.5 0 0 1-1.5-1.5m0 12.16a1.5 1.5 0 0 1 1.5-1.5 1.5 1.5 0 0 1 1.5 1.5 1.5 1.5 0 0 1-1.5 1.5 1.5 1.5 0 0 1-1.5-1.5m-2.73 10v-.03a1.5 1.5 0 0 1 1.5-1.5 1.5 1.5 0 0 1 1.5 1.5 1.5 1.5 0 0 1-1.5 1.5 1.5 1.5 0 0 1-1.5-1.5m-7.3 7.32v-.03a1.5 1.5 0 0 1 1.5-1.5 1.5 1.5 0 0 1 1.5 1.5 1.5 1.5 0 0 1-1.5 1.5 1.5 1.5 0 0 1-1.5-1.5M518.5 940V940a1.5 1.5 0 0 1 1.5-1.5 1.5 1.5 0 0 1 1.5 1.5 1.5 1.5 0 0 1-1.5 1.5 1.5 1.5 0 0 1-1.5-1.5m-12.15 0a1.5 1.5 0 0 1 1.5-1.5 1.5 1.5 0 0 1 1.5 1.5 1.5 1.5 0 0 1-1.5 1.5 1.5 1.5 0 0 1-1.5-1.5m-12.16 0a1.5 1.5 0 0 1 1.5-1.5 1.5 1.5 0 0 1 1.5 1.5 1.5 1.5 0 0 1-1.5 1.5 1.5 1.5 0 0 1-1.5-1.5m-12.16 0a1.5 1.5 0 0 1 1.5-1.5 1.5 1.5 0 0 1 1.5 1.5 1.5 1.5 0 0 1-1.5 1.5 1.5 1.5 0 0 1-1.5-1.5m-12.15 0a1.5 1.5 0 0 1 1.5-1.5 1.5 1.5 0 0 1 1.5 1.5 1.5 1.5 0 0 1-1.5 1.5 1.5 1.5 0 0 1-1.5-1.5m-12.17 0a1.5 1.5 0 0 1 1.5-1.5 1.5 1.5 0 0 1 1.5 1.5 1.5 1.5 0 0 1-1.5 1.5 1.5 1.5 0 0 1-1.5-1.5m-12.15 0a1.5 1.5 0 0 1 1.5-1.5 1.5 1.5 0 0 1 1.5 1.5 1.5 1.5 0 0 1-1.5 1.5 1.5 1.5 0 0 1-1.5-1.5m-12.15 0a1.5 1.5 0 0 1 1.5-1.5 1.5 1.5 0 0 1 1.5 1.5 1.5 1.5 0 0 1-1.5 1.5 1.5 1.5 0 0 1-1.5-1.5m-12.16 0a1.5 1.5 0 0 1 1.5-1.5 1.5 1.5 0 0 1 1.5 1.5 1.5 1.5 0 0 1-1.5 1.5 1.5 1.5 0 0 1-1.5-1.5m-12.15 0a1.5 1.5 0 0 1 1.5-1.5 1.5 1.5 0 0 1 1.5 1.5 1.5 1.5 0 0 1-1.5 1.5 1.5 1.5 0 0 1-1.5-1.5m-12.16 0a1.5 1.5 0 0 1 1.5-1.5 1.5 1.5 0 0 1 1.5 1.5 1.5 1.5 0 0 1-1.5 1.5 1.5 1.5 0 0 1-1.5-1.5m-12.15 0a1.5 1.5 0 0 1 1.5-1.5 1.5 1.5 0 0 1 1.5 1.5 1.5 1.5 0 0 1-1.5 1.5 1.5 1.5 0 0 1-1.5-1.5m-12.14 0a1.5 1.5 0 0 1 1.5-1.5 1.5 1.5 0 0 1 1.5 1.5 1.5 1.5 0 0 1-1.5 1.5 1.5 1.5 0 0 1-1.5-1.5m-12.16 0a1.5 1.5 0 0 1 1.5-1.5 1.5 1.5 0 0 1 1.5 1.5 1.5 1.5 0 0 1-1.5 1.5 1.5 1.5 0 0 1-1.5-1.5m-9.97-2.7v-.03a1.5 1.5 0 0 1 1.5-1.5 1.5 1.5 0 0 1 1.5 1.5 1.5 1.5 0 0 1-1.5 1.5 1.5 1.5 0 0 1-1.5-1.5m-7.3-7.28v-.03a1.5 1.5 0 0 1 1.5-1.5 1.5 1.5 0 0 1 1.5 1.5 1.5 1.5 0 0 1-1.5 1.5 1.5 1.5 0 0 1-1.5-1.5M340.5 920a1.5 1.5 0 0 1 1.5-1.5 1.5 1.5 0 0 1 1.5 1.5 1.5 1.5 0 0 1-1.5 1.5 1.5 1.5 0 0 1-1.5-1.5m0-12.13v-.02a1.5 1.5 0 0 1 1.5-1.5 1.5 1.5 0 0 1 1.5 1.5 1.5 1.5 0 0 1-1.5 1.5 1.5 1.5 0 0 1-1.5-1.5m0-12.13v-.02a1.5 1.5 0 0 1 1.5-1.5 1.5 1.5 0 0 1 1.5 1.5 1.5 1.5 0 0 1-1.5 1.5 1.5 1.5 0 0 1-1.5-1.5v-.02m0-12.1v-.03a1.5 1.5 0 0 1 1.5-1.5 1.5 1.5 0 0 1 1.5 1.5 1.5 1.5 0 0 1-1.5 1.5 1.5 1.5 0 0 1-1.5-1.5m0-12.13v-.02a1.5 1.5 0 0 1 1.5-1.5 1.5 1.5 0 0 1 1.5 1.5 1.5 1.5 0 0 1-1.5 1.5 1.5 1.5 0 0 1-1.5-1.5m0-12.13v-.02a1.5 1.5 0 0 1 1.5-1.5 1.5 1.5 0 0 1 1.5 1.5 1.5 1.5 0 0 1-1.5 1.5 1.5 1.5 0 0 1-1.5-1.5m0-12.13v-.02a1.5 1.5 0 0 1 1.5-1.5 1.5 1.5 0 0 1 1.5 1.5 1.5 1.5 0 0 1-1.5 1.5 1.5 1.5 0 0 1-1.5-1.5m0-12.13v-.02a1.5 1.5 0 0 1 1.5-1.5 1.5 1.5 0 0 1 1.5 1.5 1.5 1.5 0 0 1-1.5 1.5 1.5 1.5 0 0 1-1.5-1.5v-.02m0-12.1v-.03a1.5 1.5 0 0 1 1.5-1.5 1.5 1.5 0 0 1 1.5 1.5 1.5 1.5 0 0 1-1.5 1.5 1.5 1.5 0 0 1-1.5-1.5m0-12.13v-.02a1.5 1.5 0 0 1 1.5-1.5 1.5 1.5 0 0 1 1.5 1.5 1.5 1.5 0 0 1-1.5 1.5 1.5 1.5 0 0 1-1.5-1.5"/><path d="M360 858.5a20 20 0 0 1 20-20 20 20 0 0 1 20 20v40a20 20 0 0 1-20 20 20 20 0 0 1-20-20z" stroke="#000" stroke-width="3" fill="url(#y)"/><path d="M360.77 778.5a20 20 0 0 1 20-20H500a20 20 0 0 1 20 20 20 20 0 0 1-20 20H380.77a20 20 0 0 1-20-20z" stroke="#000" stroke-width="3" fill="url(#z)"/><use xlink:href="#A" transform="matrix(1,0,0,1,365.7691293839805,763.5000499999953) translate(25.00499999999999 21.430555555555557)"/><path d="M420 858.5a20 20 0 0 1 20-20 20 20 0 0 1 20 20v40a20 20 0 0 1-20 20 20 20 0 0 1-20-20z" stroke="#000" stroke-width="3" fill="url(#B)"/><path d="M480 858.5a20 20 0 0 1 20-20 20 20 0 0 1 20 20v40a20 20 0 0 1-20 20 20 20 0 0 1-20-20z" stroke="#000" stroke-width="3" fill="url(#C)"/><path d="M380 800.94v17.55" stroke="#000" stroke-width="2" fill="none"/><path d="M380.7 800h.28v.97h-1.95v-1.1z" stroke="#000" stroke-width=".05"/><path d="M380 833.76l-4.63-14.27h9.27z" stroke="#000" stroke-width="2"/><path d="M440 801v17.5" stroke="#000" stroke-width="2" fill="none"/><path d="M440.98 801.03h-1.95V800h1.95z" stroke="#000" stroke-width=".05"/><path d="M440 833.76l-4.63-14.27h9.27z" stroke="#000" stroke-width="2"/><path d="M500 801v17.5" stroke="#000" stroke-width="2" fill="none"/><path d="M500.98 801.03h-1.95V800h1.03l.92-.07z" stroke="#000" stroke-width=".05"/><path d="M500 833.76l-4.63-14.27h9.27z" stroke="#000" stroke-width="2"/><path d="M341 1000a20 20 0 0 1 20-20h458a20 20 0 0 1 20 20v18a20 20 0 0 1-20 20H361a20 20 0 0 1-20-20z" stroke="#000" stroke-width="3" fill="url(#D)"/><use xlink:href="#E" transform="matrix(1,0,0,1,346.0018998246437,985) translate(165.59259259259258 30.520833333333336)"/><path d="M341 960h3.97m7.93 0h7.93m7.93 0h7.93m7.93 0h7.93m7.93 0h7.92m7.93 0h7.93m7.94 0h7.93m7.93 0H456m7.94 0h7.94m7.93 0h7.94m7.93 0h7.93m7.93 0h7.94m7.93 0h7.93m7.93 0h7.93m7.92 0h7.94m7.93 0h7.92m7.93 0h7.93m7.94 0h7.93m7.93 0h7.93m7.94 0h7.93m7.94 0h7.94m7.93 0h7.93m7.93 0h7.94m7.93 0h7.93m7.93 0h7.93m7.92 0h7.94m7.93 0h7.92m7.93 0h7.93m7.94 0h7.93m7.93 0H805m7.94 0h7.93m7.94 0h7.94m7.93 0h7.93m7.93 0h7.94m7.93 0h7.93m7.93 0h7.93m7.92 0h7.94m7.93 0h7.92m7.93 0h7.93m7.94 0h7.93m7.93 0h7.93m7.94 0h7.93m7.94 0h7.94m7.93 0h7.93m7.93 0h3.97M341.03 960H340M1038.97 960h1.03" stroke="#ba23f6" stroke-width="2" fill="none"/><path d="M380 921v39" stroke="#000" stroke-width="2" fill="none"/><path d="M380.98 921.03h-1.95v-1.1l.97.08.98-.07z" stroke="#000" stroke-width=".05"/><path d="M380 975.26L375.37 961h9.27z" stroke="#000" stroke-width="2"/><path d="M500 921v39" stroke="#000" stroke-width="2" fill="none"/><path d="M500 920l.98-.07v1.1h-1.95v-1.1z" stroke="#000" stroke-width=".05"/><path d="M500 975.26L495.37 961h9.27z" stroke="#000" stroke-width="2"/><path d="M440 921v39" stroke="#000" stroke-width="2" fill="none"/><path d="M440 920l.98-.07v1.1h-1.95v-1.1z" stroke="#000" stroke-width=".05"/><path d="M440 975.26L435.37 961h9.27z" stroke="#000" stroke-width="2"/><path d="M738 921v39" stroke="#000" stroke-width="2" fill="none"/><path d="M738 920l.98-.07v1.1H737v-1.1z" stroke="#000" stroke-width=".05"/><path d="M738 975.26L733.37 961h9.26z" stroke="#000" stroke-width="2"/><path d="M798 921v39" stroke="#000" stroke-width="2" fill="none"/><path d="M798 920l.98-.07v1.1H797v-1.1z" stroke="#000" stroke-width=".05"/><path d="M798 975.26L793.37 961h9.26z" stroke="#000" stroke-width="2"/><path d="M678 921v39" stroke="#000" stroke-width="2" fill="none"/><path d="M678 920l.98-.07v1.1H677v-1.1z" stroke="#000" stroke-width=".05"/><path d="M678 975.26L673.36 961h9.27z" stroke="#000" stroke-width="2"/><path d="M860 236.75a6 6 0 0 1 6-6h168a6 6 0 0 1 6 6v48a6 6 0 0 1-6 6H866a6 6 0 0 1-6-6z" stroke="#000" stroke-opacity="0" stroke-width="2" fill-opacity="0"/><use xlink:href="#F" transform="matrix(1,0,0,1,865,235.7499750000023) translate(49.2037037037037 31.138888888888893)"/><path d="M860 326a6 6 0 0 1 6-6h168a6 6 0 0 1 6 6v48a6 6 0 0 1-6 6H866a6 6 0 0 1-6-6z" stroke="#000" stroke-opacity="0" stroke-width="2" fill-opacity="0"/><use xlink:href="#G" transform="matrix(1,0,0,1,865,325.00000000000017) translate(-1.6975308641975317 31.22222222222222)"/><path d="M860 486a6 6 0 0 1 6-6h168a6 6 0 0 1 6 6v168a6 6 0 0 1-6 6H866a6 6 0 0 1-6-6z" stroke="#000" stroke-opacity="0" stroke-width="2" fill-opacity="0"/><use xlink:href="#H" transform="matrix(1,0,0,1,865,485) translate(31.962962962962962 72.70138888888889)"/><use xlink:href="#I" transform="matrix(1,0,0,1,865,485) translate(51.882716049382715 110.03472222222223)"/><path d="M860 784.5a6 6 0 0 1 6-6h168a6 6 0 0 1 6 6V934a6 6 0 0 1-6 6H866a6 6 0 0 1-6-6z" stroke="#000" stroke-opacity="0" stroke-width="2" fill-opacity="0"/><use xlink:href="#J" transform="matrix(1,0,0,1,865,783.5000499999953) translate(22.456790123456784 62.88888888888889)"/><use xlink:href="#I" transform="matrix(1,0,0,1,865,783.5000499999953) translate(51.882716049382715 100.22222222222223)"/><path d="M860 984a6 6 0 0 1 6-6h168a6 6 0 0 1 6 6v48a6 6 0 0 1-6 6H866a6 6 0 0 1-6-6z" stroke="#000" stroke-opacity="0" stroke-width="2" fill-opacity="0"/><use xlink:href="#K" transform="matrix(1,0,0,1,865,983.0000499999956) translate(-5.975308641975317 31.22222222222222)"/><path d="M60 506.5a6 6 0 0 1 6-6h188a6 6 0 0 1 6 6v128a6 6 0 0 1-6 6H66a6 6 0 0 1-6-6z" stroke="#000" stroke-opacity="0" stroke-width="3" fill="#fff" fill-opacity="0"/><use xlink:href="#L" transform="matrix(1,0,0,1,65,505.5) translate(8.709876543209873 33.01388888888889)"/><use xlink:href="#M" transform="matrix(1,0,0,1,65,505.5) translate(136.43827160493828 33.01388888888889)"/><use xlink:href="#N" transform="matrix(1,0,0,1,65,505.5) translate(17.26543209876543 70.34722222222223)"/><use xlink:href="#O" transform="matrix(1,0,0,1,65,505.5) translate(139.89506172839506 70.34722222222223)"/><use xlink:href="#P" transform="matrix(1,0,0,1,65,505.5) translate(19.037037037037038 107.68055555555557)"/><path d="M261 570.5h3.02m4.02 0h6.04m4.03 0h6.04m4.03 0h6.04m4.03 0h6.04m4.03 0h6.03m4.03 0h6.04m4.02 0h6.04m4.02 0h3.02" stroke="#3a414a" stroke-width="2" fill="none"/><path d="M261.03 571.48H260v-1.96h1.03zM342.5 571.48h-1.02v-1.96h1.02z" stroke="#3a414a" stroke-width=".05" fill="#3a414a"/><path d="M49 666.5a6 6 0 0 1 6-6h210a6 6 0 0 1 6 6V774a6 6 0 0 1-6 6H55a6 6 0 0 1-6-6z" stroke="#000" stroke-opacity="0" stroke-width="3" fill="#fff" fill-opacity="0"/><g><use xlink:href="#Q" transform="matrix(1,0,0,1,53.999183754353226,665.5) translate(11.524691358024697 28.326388888888893)"/><use xlink:href="#R" transform="matrix(1,0,0,1,53.999183754353226,665.5) translate(91.03086419753087 28.326388888888893)"/><use xlink:href="#S" transform="matrix(1,0,0,1,53.999183754353226,665.5) translate(179.0925925925926 28.326388888888893)"/><use xlink:href="#T" transform="matrix(1,0,0,1,53.999183754353226,665.5) translate(14.074074074074062 65.65972222222223)"/><use xlink:href="#U" transform="matrix(1,0,0,1,53.999183754353226,665.5) translate(5.518518518518505 102.99305555555557)"/><use xlink:href="#V" transform="matrix(1,0,0,1,53.999183754353226,665.5) translate(69.29629629629629 102.99305555555557)"/></g><path d="M271.83 720.45l2.6 1.72m3.47 2.3l5.2 3.45m3.45 2.3l5.2 3.45m3.46 2.3l5.2 3.45m3.48 2.3l5.2 3.45m3.46 2.3l5.2 3.45m3.45 2.3l5.2 3.45m3.45 2.3l5.2 3.45m3.46 2.3l5.2 3.45m3.47 2.3l5.2 3.45m3.46 2.3l2.6 1.73" stroke="#3a414a" stroke-width="2" fill="none"/><path d="M272.4 719.65l-1.08 1.63-.32-.2v-2.36zM359.35 777.4l-.1 1.1.1 1.24-1.48-1 1.08-1.62z" stroke="#3a414a" stroke-width=".05" fill="#3a414a"/><path d="M271.83 719.7l2.4-1.6m3.2-2.14l4.78-3.2m3.2-2.13l4.8-3.2m3.2-2.13l4.78-3.2m3.2-2.13l4.8-3.2m3.18-2.13l4.8-3.2m3.2-2.13l4.78-3.2m3.2-2.12l4.78-3.2m3.2-2.13l4.8-3.2m3.18-2.13l4.8-3.2m3.2-2.13l4.78-3.2m3.2-2.14l2.4-1.6" stroke="#3a414a" stroke-width="2" fill="none"/><path d="M272.4 720.5l-1.4.92v-2.34l.3-.2zM360.5 660.5l.1 1.1-.4.28-1.1-1.62 1.5-1z" stroke="#3a414a" stroke-width=".05" fill="#3a414a"/><defs><linearGradient gradientUnits="userSpaceOnUse" id="a" x1="358" y1="320" x2="358" y2="380"><stop offset="19.2%" stop-color="#c3f7c8"/><stop offset="35.51%" stop-color="#cfe4ff"/><stop offset="55.43%" stop-color="#cfe4ff"/><stop offset="73.91%" stop-color="#ced4db"/></linearGradient><path d="M240 0l2-218c-23 76-54 145-80 218h-23L58-218 59 0H30v-248h44l77 211c21-75 51-140 76-211h43V0h-30" id="W"/><path d="M100-194c62-1 85 37 85 99 1 63-27 99-86 99S16-35 15-95c0-66 28-99 85-99zM99-20c44 1 53-31 53-75 0-43-8-75-51-75s-53 32-53 75 10 74 51 75" id="X"/><path d="M115-194c53 0 69 39 70 98 0 66-23 100-70 100C84 3 66-7 56-30L54 0H23l1-261h32v101c10-23 28-34 59-34zm-8 174c40 0 45-34 45-75 0-40-5-75-45-74-42 0-51 32-51 76 0 43 10 73 51 73" id="Y"/><path d="M24-231v-30h32v30H24zM24 0v-190h32V0H24" id="Z"/><path d="M24 0v-261h32V0H24" id="aa"/><path d="M100-194c63 0 86 42 84 106H49c0 40 14 67 53 68 26 1 43-12 49-29l28 8c-11 28-37 45-77 45C44 4 14-33 15-96c1-61 26-98 85-98zm52 81c6-60-76-77-97-28-3 7-6 17-6 28h103" id="ab"/><g id="b"><use transform="matrix(0.06790123456790124,0,0,0.06790123456790124,0,0)" xlink:href="#W"/><use transform="matrix(0.06790123456790124,0,0,0.06790123456790124,20.302469135802472,0)" xlink:href="#X"/><use transform="matrix(0.06790123456790124,0,0,0.06790123456790124,33.88271604938272,0)" xlink:href="#Y"/><use transform="matrix(0.06790123456790124,0,0,0.06790123456790124,47.46296296296297,0)" xlink:href="#Z"/><use transform="matrix(0.06790123456790124,0,0,0.06790123456790124,52.827160493827165,0)" xlink:href="#aa"/><use transform="matrix(0.06790123456790124,0,0,0.06790123456790124,58.19135802469136,0)" xlink:href="#ab"/></g><path d="M160-131c35 5 61 23 61 61C221 17 115-2 30 0v-248c76 3 177-17 177 60 0 33-19 50-47 57zm-97-11c50-1 110 9 110-42 0-47-63-36-110-37v79zm0 115c55-2 124 14 124-45 0-56-70-42-124-44v89" id="ac"/><path d="M141-36C126-15 110 5 73 4 37 3 15-17 15-53c-1-64 63-63 125-63 3-35-9-54-41-54-24 1-41 7-42 31l-33-3c5-37 33-52 76-52 45 0 72 20 72 64v82c-1 20 7 32 28 27v20c-31 9-61-2-59-35zM48-53c0 20 12 33 32 33 41-3 63-29 60-74-43 2-92-5-92 41" id="ad"/><path d="M96-169c-40 0-48 33-48 73s9 75 48 75c24 0 41-14 43-38l32 2c-6 37-31 61-74 61-59 0-76-41-82-99-10-93 101-131 147-64 4 7 5 14 7 22l-32 3c-4-21-16-35-41-35" id="ae"/><path d="M143 0L79-87 56-68V0H24v-261h32v163l83-92h37l-77 82L181 0h-38" id="af"/><g id="c"><use transform="matrix(0.06790123456790124,0,0,0.06790123456790124,0,0)" xlink:href="#ac"/><use transform="matrix(0.06790123456790124,0,0,0.06790123456790124,16.296296296296298,0)" xlink:href="#ad"/><use transform="matrix(0.06790123456790124,0,0,0.06790123456790124,29.876543209876544,0)" xlink:href="#ae"/><use transform="matrix(0.06790123456790124,0,0,0.06790123456790124,42.098765432098766,0)" xlink:href="#af"/></g><linearGradient gradientUnits="userSpaceOnUse" id="d" x1="660" y1="320" x2="660" y2="380"><stop offset="19.2%" stop-color="#c3f7c8"/><stop offset="35.51%" stop-color="#cfe4ff"/><stop offset="55.43%" stop-color="#cfe4ff"/><stop offset="73.91%" stop-color="#ced4db"/></linearGradient><path d="M266 0h-40l-56-210L115 0H75L2-248h35L96-30l15-64 43-154h32l59 218 59-218h35" id="ag"/><g id="e"><use transform="matrix(0.06790123456790124,0,0,0.06790123456790124,0,0)" xlink:href="#ag"/><use transform="matrix(0.06790123456790124,0,0,0.06790123456790124,22.543209876543212,0)" xlink:href="#ab"/><use transform="matrix(0.06790123456790124,0,0,0.06790123456790124,36.12345679012346,0)" xlink:href="#Y"/></g><linearGradient gradientUnits="userSpaceOnUse" id="f" x1="718" y1="460" x2="718" y2="500"><stop offset="31.16%" stop-color="#fff"/><stop offset="52.54%" stop-color="#c3f7c8"/></linearGradient><path d="M205 0l-28-72H64L36 0H1l101-248h38L239 0h-34zm-38-99l-47-123c-12 45-31 82-46 123h93" id="ah"/><path d="M115-194c55 1 70 41 70 98S169 2 115 4C84 4 66-9 55-30l1 105H24l-1-265h31l2 30c10-21 28-34 59-34zm-8 174c40 0 45-34 45-75s-6-73-45-74c-42 0-51 32-51 76 0 43 10 73 51 73" id="ai"/><g id="g"><use transform="matrix(0.06790123456790124,0,0,0.06790123456790124,0,0)" xlink:href="#ah"/><use transform="matrix(0.06790123456790124,0,0,0.06790123456790124,16.296296296296298,0)" xlink:href="#ai"/><use transform="matrix(0.06790123456790124,0,0,0.06790123456790124,29.876543209876544,0)" xlink:href="#ai"/></g><path d="M212-179c-10-28-35-45-73-45-59 0-87 40-87 99 0 60 29 101 89 101 43 0 62-24 78-52l27 14C228-24 195 4 139 4 59 4 22-46 18-125c-6-104 99-153 187-111 19 9 31 26 39 46" id="aj"/><use transform="matrix(0.06790123456790124,0,0,0.06790123456790124,0,0)" xlink:href="#aj" id="h"/><linearGradient gradientUnits="userSpaceOnUse" id="i" x1="718" y1="540" x2="718" y2="600"><stop offset="19.2%" stop-color="#c3f7c8"/><stop offset="35.51%" stop-color="#cfe4ff"/><stop offset="55.43%" stop-color="#cfe4ff"/><stop offset="73.91%" stop-color="#ced4db"/></linearGradient><linearGradient gradientUnits="userSpaceOnUse" id="j" x1="778" y1="540" x2="778" y2="600"><stop offset="19.2%" stop-color="#c3f7c8"/><stop offset="35.51%" stop-color="#cfe4ff"/><stop offset="55.43%" stop-color="#cfe4ff"/><stop offset="73.91%" stop-color="#ced4db"/></linearGradient><linearGradient gradientUnits="userSpaceOnUse" id="k" x1="540" y1="460.5" x2="540" y2="500.5"><stop offset="31.16%" stop-color="#fff"/><stop offset="52.54%" stop-color="#c3f7c8"/></linearGradient><use transform="matrix(0.06790123456790124,0,0,0.06790123456790124,0,0)" xlink:href="#ac" id="l"/><linearGradient gradientUnits="userSpaceOnUse" id="m" x1="540" y1="540.5" x2="540" y2="600.5"><stop offset="19.2%" stop-color="#c3f7c8"/><stop offset="35.51%" stop-color="#cfe4ff"/><stop offset="55.43%" stop-color="#cfe4ff"/><stop offset="73.91%" stop-color="#ced4db"/></linearGradient><linearGradient gradientUnits="userSpaceOnUse" id="n" x1="600" y1="540.5" x2="600" y2="600.5"><stop offset="19.2%" stop-color="#c3f7c8"/><stop offset="35.51%" stop-color="#cfe4ff"/><stop offset="55.43%" stop-color="#cfe4ff"/><stop offset="73.91%" stop-color="#ced4db"/></linearGradient><linearGradient gradientUnits="userSpaceOnUse" id="o" x1="362" y1="460.5" x2="362" y2="500.5"><stop offset="31.16%" stop-color="#fff"/><stop offset="52.54%" stop-color="#c3f7c8"/></linearGradient><use transform="matrix(0.06790123456790124,0,0,0.06790123456790124,0,0)" xlink:href="#ah" id="p"/><linearGradient gradientUnits="userSpaceOnUse" id="q" x1="362" y1="540.5" x2="362" y2="600.5"><stop offset="19.2%" stop-color="#c3f7c8"/><stop offset="35.51%" stop-color="#cfe4ff"/><stop offset="55.43%" stop-color="#cfe4ff"/><stop offset="73.91%" stop-color="#ced4db"/></linearGradient><linearGradient gradientUnits="userSpaceOnUse" id="r" x1="422" y1="540.5" x2="422" y2="600.5"><stop offset="19.2%" stop-color="#c3f7c8"/><stop offset="35.51%" stop-color="#cfe4ff"/><stop offset="55.43%" stop-color="#cfe4ff"/><stop offset="73.91%" stop-color="#ced4db"/></linearGradient><path d="M143 4C61 4 22-44 18-125c-5-107 100-154 193-111 17 8 29 25 37 43l-32 9c-13-25-37-40-76-40-61 0-88 39-88 99 0 61 29 100 91 101 35 0 62-11 79-27v-45h-74v-28h105v86C228-13 192 4 143 4" id="ak"/><path d="M59-47c-2 24 18 29 38 22v24C64 9 27 4 27-40v-127H5v-23h24l9-43h21v43h35v23H59v120" id="al"/><path d="M206 0h-36l-40-164L89 0H53L-1-190h32L70-26l43-164h34l41 164 42-164h31" id="am"/><path d="M179-190L93 31C79 59 56 82 12 73V49c39 6 53-20 64-50L1-190h34L92-34l54-156h33" id="an"/><g id="s"><use transform="matrix(0.06790123456790124,0,0,0.06790123456790124,0,0)" xlink:href="#ak"/><use transform="matrix(0.06790123456790124,0,0,0.06790123456790124,19.01234567901235,0)" xlink:href="#ad"/><use transform="matrix(0.06790123456790124,0,0,0.06790123456790124,32.592592592592595,0)" xlink:href="#al"/><use transform="matrix(0.06790123456790124,0,0,0.06790123456790124,39.38271604938272,0)" xlink:href="#ab"/><use transform="matrix(0.06790123456790124,0,0,0.06790123456790124,52.96296296296297,0)" xlink:href="#am"/><use transform="matrix(0.06790123456790124,0,0,0.06790123456790124,70.5493827160494,0)" xlink:href="#ad"/><use transform="matrix(0.06790123456790124,0,0,0.06790123456790124,84.12962962962965,0)" xlink:href="#an"/></g><linearGradient gradientUnits="userSpaceOnUse" id="t" x1="658" y1="838.5" x2="658" y2="918.5"><stop offset="55.43%" stop-color="#cfe4ff"/><stop offset="73.91%" stop-color="#ced4db"/></linearGradient><linearGradient gradientUnits="userSpaceOnUse" id="u" x1="658.77" y1="758.5" x2="658.77" y2="798.5"><stop offset="31.16%" stop-color="#fff"/><stop offset="52.54%" stop-color="#c3f7c8"/></linearGradient><path d="M30 0v-248h33v221h125V0H30" id="ao"/><path d="M177-190C167-65 218 103 67 71c-23-6-38-20-44-43l32-5c15 47 100 32 89-28v-30C133-14 115 1 83 1 29 1 15-40 15-95c0-56 16-97 71-98 29-1 48 16 59 35 1-10 0-23 2-32h30zM94-22c36 0 50-32 50-73 0-42-14-75-50-75-39 0-46 34-46 75s6 73 46 73" id="ap"/><path d="M135-143c-3-34-86-38-87 0 15 53 115 12 119 90S17 21 10-45l28-5c4 36 97 45 98 0-10-56-113-15-118-90-4-57 82-63 122-42 12 7 21 19 24 35" id="aq"/><g id="v"><use transform="matrix(0.06790123456790124,0,0,0.06790123456790124,0,0)" xlink:href="#ao"/><use transform="matrix(0.06790123456790124,0,0,0.06790123456790124,13.580246913580249,0)" xlink:href="#X"/><use transform="matrix(0.06790123456790124,0,0,0.06790123456790124,27.160493827160497,0)" xlink:href="#ap"/><use transform="matrix(0.06790123456790124,0,0,0.06790123456790124,40.74074074074075,0)" xlink:href="#Z"/><use transform="matrix(0.06790123456790124,0,0,0.06790123456790124,46.104938271604944,0)" xlink:href="#aq"/><use transform="matrix(0.06790123456790124,0,0,0.06790123456790124,58.32716049382716,0)" xlink:href="#al"/><use transform="matrix(0.06790123456790124,0,0,0.06790123456790124,65.11728395061729,0)" xlink:href="#Z"/><use transform="matrix(0.06790123456790124,0,0,0.06790123456790124,70.4814814814815,0)" xlink:href="#ae"/><use transform="matrix(0.06790123456790124,0,0,0.06790123456790124,82.70370370370371,0)" xlink:href="#aq"/></g><linearGradient gradientUnits="userSpaceOnUse" id="w" x1="718" y1="838.5" x2="718" y2="918.5"><stop offset="55.43%" stop-color="#cfe4ff"/><stop offset="73.91%" stop-color="#ced4db"/></linearGradient><linearGradient gradientUnits="userSpaceOnUse" id="x" x1="778" y1="838.5" x2="778" y2="918.5"><stop offset="55.43%" stop-color="#cfe4ff"/><stop offset="73.91%" stop-color="#ced4db"/></linearGradient><linearGradient gradientUnits="userSpaceOnUse" id="y" x1="360" y1="838.5" x2="360" y2="918.5"><stop offset="55.43%" stop-color="#cfe4ff"/><stop offset="73.91%" stop-color="#ced4db"/></linearGradient><linearGradient gradientUnits="userSpaceOnUse" id="z" x1="360.77" y1="758.5" x2="360.77" y2="798.5"><stop offset="31.16%" stop-color="#fff"/><stop offset="52.54%" stop-color="#c3f7c8"/></linearGradient><path d="M63-220v92h138v28H63V0H30v-248h175v28H63" id="ar"/><path d="M117-194c89-4 53 116 60 194h-32v-121c0-31-8-49-39-48C34-167 62-67 57 0H25l-1-190h30c1 10-1 24 2 32 11-22 29-35 61-36" id="as"/><g id="A"><use transform="matrix(0.06790123456790124,0,0,0.06790123456790124,0,0)" xlink:href="#ar"/><use transform="matrix(0.06790123456790124,0,0,0.06790123456790124,14.870370370370372,0)" xlink:href="#Z"/><use transform="matrix(0.06790123456790124,0,0,0.06790123456790124,20.23456790123457,0)" xlink:href="#as"/><use transform="matrix(0.06790123456790124,0,0,0.06790123456790124,33.81481481481482,0)" xlink:href="#ad"/><use transform="matrix(0.06790123456790124,0,0,0.06790123456790124,47.39506172839506,0)" xlink:href="#as"/><use transform="matrix(0.06790123456790124,0,0,0.06790123456790124,60.97530864197531,0)" xlink:href="#ae"/><use transform="matrix(0.06790123456790124,0,0,0.06790123456790124,73.19753086419753,0)" xlink:href="#ab"/><use transform="matrix(0.06790123456790124,0,0,0.06790123456790124,86.77777777777779,0)" xlink:href="#aq"/></g><linearGradient gradientUnits="userSpaceOnUse" id="B" x1="420" y1="838.5" x2="420" y2="918.5"><stop offset="55.43%" stop-color="#cfe4ff"/><stop offset="73.91%" stop-color="#ced4db"/></linearGradient><linearGradient gradientUnits="userSpaceOnUse" id="C" x1="480" y1="838.5" x2="480" y2="918.5"><stop offset="55.43%" stop-color="#cfe4ff"/><stop offset="73.91%" stop-color="#ced4db"/></linearGradient><linearGradient gradientUnits="userSpaceOnUse" id="D" x1="341" y1="980" x2="341" y2="1038"><stop offset="39.13%" stop-color="#fff"/><stop offset="66.3%" stop-color="#ced4db"/></linearGradient><path d="M33 0v-248h34V0H33" id="at"/><path d="M101-234c-31-9-42 10-38 44h38v23H63V0H32v-167H5v-23h27c-7-52 17-82 69-68v24" id="au"/><path d="M114-163C36-179 61-72 57 0H25l-1-190h30c1 12-1 29 2 39 6-27 23-49 58-41v29" id="av"/><path d="M84 4C-5 8 30-112 23-190h32v120c0 31 7 50 39 49 72-2 45-101 50-169h31l1 190h-30c-1-10 1-25-2-33-11 22-28 36-60 37" id="aw"/><g id="E"><use transform="matrix(0.07407407407407408,0,0,0.07407407407407408,0,0)" xlink:href="#at"/><use transform="matrix(0.07407407407407408,0,0,0.07407407407407408,7.407407407407408,0)" xlink:href="#as"/><use transform="matrix(0.07407407407407408,0,0,0.07407407407407408,22.222222222222225,0)" xlink:href="#au"/><use transform="matrix(0.07407407407407408,0,0,0.07407407407407408,29.629629629629633,0)" xlink:href="#av"/><use transform="matrix(0.07407407407407408,0,0,0.07407407407407408,38.44444444444445,0)" xlink:href="#ad"/><use transform="matrix(0.07407407407407408,0,0,0.07407407407407408,53.25925925925927,0)" xlink:href="#aq"/><use transform="matrix(0.07407407407407408,0,0,0.07407407407407408,66.59259259259261,0)" xlink:href="#al"/><use transform="matrix(0.07407407407407408,0,0,0.07407407407407408,74.00000000000001,0)" xlink:href="#av"/><use transform="matrix(0.07407407407407408,0,0,0.07407407407407408,82.81481481481484,0)" xlink:href="#aw"/><use transform="matrix(0.07407407407407408,0,0,0.07407407407407408,97.62962962962965,0)" xlink:href="#ae"/><use transform="matrix(0.07407407407407408,0,0,0.07407407407407408,110.96296296296299,0)" xlink:href="#al"/><use transform="matrix(0.07407407407407408,0,0,0.07407407407407408,118.37037037037041,0)" xlink:href="#aw"/><use transform="matrix(0.07407407407407408,0,0,0.07407407407407408,133.18518518518522,0)" xlink:href="#av"/><use transform="matrix(0.07407407407407408,0,0,0.07407407407407408,142.00000000000003,0)" xlink:href="#ab"/></g><path fill="#ba23f6" d="M30 0v-248h187v28H63v79h144v27H63v87h162V0H30" id="ax"/><path fill="#ba23f6" d="M85-194c31 0 48 13 60 33l-1-100h32l1 261h-30c-2-10 0-23-3-31C134-8 116 4 85 4 32 4 16-35 15-94c0-66 23-100 70-100zm9 24c-40 0-46 34-46 75 0 40 6 74 45 74 42 0 51-32 51-76 0-42-9-74-50-73" id="ay"/><path fill="#ba23f6" d="M177-190C167-65 218 103 67 71c-23-6-38-20-44-43l32-5c15 47 100 32 89-28v-30C133-14 115 1 83 1 29 1 15-40 15-95c0-56 16-97 71-98 29-1 48 16 59 35 1-10 0-23 2-32h30zM94-22c36 0 50-32 50-73 0-42-14-75-50-75-39 0-46 34-46 75s6 73 46 73" id="az"/><path fill="#ba23f6" d="M100-194c63 0 86 42 84 106H49c0 40 14 67 53 68 26 1 43-12 49-29l28 8c-11 28-37 45-77 45C44 4 14-33 15-96c1-61 26-98 85-98zm52 81c6-60-76-77-97-28-3 7-6 17-6 28h103" id="aA"/><g id="F"><use transform="matrix(0.08641975308641976,0,0,0.08641975308641976,0,0)" xlink:href="#ax"/><use transform="matrix(0.08641975308641976,0,0,0.08641975308641976,20.740740740740744,0)" xlink:href="#ay"/><use transform="matrix(0.08641975308641976,0,0,0.08641975308641976,38.0246913580247,0)" xlink:href="#az"/><use transform="matrix(0.08641975308641976,0,0,0.08641975308641976,55.308641975308646,0)" xlink:href="#aA"/></g><path fill="#ba23f6" d="M30-248c87 1 191-15 191 75 0 78-77 80-158 76V0H30v-248zm33 125c57 0 124 11 124-50 0-59-68-47-124-48v98" id="aB"/><path fill="#ba23f6" d="M114-163C36-179 61-72 57 0H25l-1-190h30c1 12-1 29 2 39 6-27 23-49 58-41v29" id="aC"/><path fill="#ba23f6" d="M135-143c-3-34-86-38-87 0 15 53 115 12 119 90S17 21 10-45l28-5c4 36 97 45 98 0-10-56-113-15-118-90-4-57 82-63 122-42 12 7 21 19 24 35" id="aD"/><path fill="#ba23f6" d="M117-194c89-4 53 116 60 194h-32v-121c0-31-8-49-39-48C34-167 62-67 57 0H25l-1-190h30c1 10-1 24 2 32 11-22 29-35 61-36" id="aE"/><path fill="#ba23f6" d="M59-47c-2 24 18 29 38 22v24C64 9 27 4 27-40v-127H5v-23h24l9-43h21v43h35v23H59v120" id="aF"/><path fill="#ba23f6" d="M141-36C126-15 110 5 73 4 37 3 15-17 15-53c-1-64 63-63 125-63 3-35-9-54-41-54-24 1-41 7-42 31l-33-3c5-37 33-52 76-52 45 0 72 20 72 64v82c-1 20 7 32 28 27v20c-31 9-61-2-59-35zM48-53c0 20 12 33 32 33 41-3 63-29 60-74-43 2-92-5-92 41" id="aG"/><path fill="#ba23f6" d="M24-231v-30h32v30H24zM24 0v-190h32V0H24" id="aH"/><path fill="#ba23f6" d="M100-194c62-1 85 37 85 99 1 63-27 99-86 99S16-35 15-95c0-66 28-99 85-99zM99-20c44 1 53-31 53-75 0-43-8-75-51-75s-53 32-53 75 10 74 51 75" id="aI"/><g id="G"><use transform="matrix(0.08641975308641976,0,0,0.08641975308641976,0,0)" xlink:href="#aB"/><use transform="matrix(0.08641975308641976,0,0,0.08641975308641976,20.740740740740744,0)" xlink:href="#aC"/><use transform="matrix(0.08641975308641976,0,0,0.08641975308641976,31.024691358024693,0)" xlink:href="#aA"/><use transform="matrix(0.08641975308641976,0,0,0.08641975308641976,48.308641975308646,0)" xlink:href="#aD"/><use transform="matrix(0.08641975308641976,0,0,0.08641975308641976,63.8641975308642,0)" xlink:href="#aA"/><use transform="matrix(0.08641975308641976,0,0,0.08641975308641976,81.14814814814815,0)" xlink:href="#aE"/><use transform="matrix(0.08641975308641976,0,0,0.08641975308641976,98.43209876543212,0)" xlink:href="#aF"/><use transform="matrix(0.08641975308641976,0,0,0.08641975308641976,107.07407407407409,0)" xlink:href="#aG"/><use transform="matrix(0.08641975308641976,0,0,0.08641975308641976,124.35802469135801,0)" xlink:href="#aF"/><use transform="matrix(0.08641975308641976,0,0,0.08641975308641976,133,0)" xlink:href="#aH"/><use transform="matrix(0.08641975308641976,0,0,0.08641975308641976,139.82716049382717,0)" xlink:href="#aI"/><use transform="matrix(0.08641975308641976,0,0,0.08641975308641976,157.11111111111111,0)" xlink:href="#aE"/></g><path fill="#ba23f6" d="M84 4C-5 8 30-112 23-190h32v120c0 31 7 50 39 49 72-2 45-101 50-169h31l1 190h-30c-1-10 1-25-2-33-11 22-28 36-60 37" id="aJ"/><path fill="#ba23f6" d="M96-169c-40 0-48 33-48 73s9 75 48 75c24 0 41-14 43-38l32 2c-6 37-31 61-74 61-59 0-76-41-82-99-10-93 101-131 147-64 4 7 5 14 7 22l-32 3c-4-21-16-35-41-35" id="aK"/><g id="H"><use transform="matrix(0.08641975308641976,0,0,0.08641975308641976,0,0)" xlink:href="#aB"/><use transform="matrix(0.08641975308641976,0,0,0.08641975308641976,20.740740740740744,0)" xlink:href="#aC"/><use transform="matrix(0.08641975308641976,0,0,0.08641975308641976,31.024691358024693,0)" xlink:href="#aI"/><use transform="matrix(0.08641975308641976,0,0,0.08641975308641976,48.308641975308646,0)" xlink:href="#ay"/><use transform="matrix(0.08641975308641976,0,0,0.08641975308641976,65.5925925925926,0)" xlink:href="#aJ"/><use transform="matrix(0.08641975308641976,0,0,0.08641975308641976,82.87654320987654,0)" xlink:href="#aK"/><use transform="matrix(0.08641975308641976,0,0,0.08641975308641976,98.43209876543212,0)" xlink:href="#aF"/></g><path fill="#ba23f6" d="M24 0v-261h32V0H24" id="aL"/><path fill="#ba23f6" d="M179-190L93 31C79 59 56 82 12 73V49c39 6 53-20 64-50L1-190h34L92-34l54-156h33" id="aM"/><g id="I"><use transform="matrix(0.08641975308641976,0,0,0.08641975308641976,0,0)" xlink:href="#aL"/><use transform="matrix(0.08641975308641976,0,0,0.08641975308641976,6.8271604938271615,0)" xlink:href="#aG"/><use transform="matrix(0.08641975308641976,0,0,0.08641975308641976,24.111111111111114,0)" xlink:href="#aM"/><use transform="matrix(0.08641975308641976,0,0,0.08641975308641976,39.66666666666667,0)" xlink:href="#aA"/><use transform="matrix(0.08641975308641976,0,0,0.08641975308641976,56.95061728395062,0)" xlink:href="#aC"/></g><path fill="#ba23f6" d="M160-131c35 5 61 23 61 61C221 17 115-2 30 0v-248c76 3 177-17 177 60 0 33-19 50-47 57zm-97-11c50-1 110 9 110-42 0-47-63-36-110-37v79zm0 115c55-2 124 14 124-45 0-56-70-42-124-44v89" id="aN"/><g id="J"><use transform="matrix(0.08641975308641976,0,0,0.08641975308641976,0,0)" xlink:href="#aN"/><use transform="matrix(0.08641975308641976,0,0,0.08641975308641976,20.740740740740744,0)" xlink:href="#aJ"/><use transform="matrix(0.08641975308641976,0,0,0.08641975308641976,38.0246913580247,0)" xlink:href="#aD"/><use transform="matrix(0.08641975308641976,0,0,0.08641975308641976,53.580246913580254,0)" xlink:href="#aH"/><use transform="matrix(0.08641975308641976,0,0,0.08641975308641976,60.407407407407426,0)" xlink:href="#aE"/><use transform="matrix(0.08641975308641976,0,0,0.08641975308641976,77.69135802469137,0)" xlink:href="#aA"/><use transform="matrix(0.08641975308641976,0,0,0.08641975308641976,94.97530864197532,0)" xlink:href="#aD"/><use transform="matrix(0.08641975308641976,0,0,0.08641975308641976,110.53086419753087,0)" xlink:href="#aD"/></g><path fill="#ba23f6" d="M33 0v-248h34V0H33" id="aO"/><path fill="#ba23f6" d="M101-234c-31-9-42 10-38 44h38v23H63V0H32v-167H5v-23h27c-7-52 17-82 69-68v24" id="aP"/><g id="K"><use transform="matrix(0.08641975308641976,0,0,0.08641975308641976,0,0)" xlink:href="#aO"/><use transform="matrix(0.08641975308641976,0,0,0.08641975308641976,8.641975308641976,0)" xlink:href="#aE"/><use transform="matrix(0.08641975308641976,0,0,0.08641975308641976,25.925925925925927,0)" xlink:href="#aP"/><use transform="matrix(0.08641975308641976,0,0,0.08641975308641976,34.567901234567906,0)" xlink:href="#aC"/><use transform="matrix(0.08641975308641976,0,0,0.08641975308641976,44.851851851851855,0)" xlink:href="#aG"/><use transform="matrix(0.08641975308641976,0,0,0.08641975308641976,62.13580246913581,0)" xlink:href="#aD"/><use transform="matrix(0.08641975308641976,0,0,0.08641975308641976,77.69135802469137,0)" xlink:href="#aF"/><use transform="matrix(0.08641975308641976,0,0,0.08641975308641976,86.33333333333334,0)" xlink:href="#aC"/><use transform="matrix(0.08641975308641976,0,0,0.08641975308641976,96.61728395061729,0)" xlink:href="#aJ"/><use transform="matrix(0.08641975308641976,0,0,0.08641975308641976,113.90123456790124,0)" xlink:href="#aK"/><use transform="matrix(0.08641975308641976,0,0,0.08641975308641976,129.4567901234568,0)" xlink:href="#aF"/><use transform="matrix(0.08641975308641976,0,0,0.08641975308641976,138.0987654320988,0)" xlink:href="#aJ"/><use transform="matrix(0.08641975308641976,0,0,0.08641975308641976,155.38271604938274,0)" xlink:href="#aC"/><use transform="matrix(0.08641975308641976,0,0,0.08641975308641976,165.66666666666669,0)" xlink:href="#aA"/></g><path d="M185-189c-5-48-123-54-124 2 14 75 158 14 163 119 3 78-121 87-175 55-17-10-28-26-33-46l33-7c5 56 141 63 141-1 0-78-155-14-162-118-5-82 145-84 179-34 5 7 8 16 11 25" id="aQ"/><path d="M108 0H70L1-190h34L89-25l56-165h34" id="aR"/><g id="L"><use transform="matrix(0.08641975308641976,0,0,0.08641975308641976,0,0)" xlink:href="#aQ"/><use transform="matrix(0.08641975308641976,0,0,0.08641975308641976,20.740740740740744,0)" xlink:href="#ab"/><use transform="matrix(0.08641975308641976,0,0,0.08641975308641976,38.0246913580247,0)" xlink:href="#av"/><use transform="matrix(0.08641975308641976,0,0,0.08641975308641976,48.308641975308646,0)" xlink:href="#aR"/><use transform="matrix(0.08641975308641976,0,0,0.08641975308641976,63.8641975308642,0)" xlink:href="#Z"/><use transform="matrix(0.08641975308641976,0,0,0.08641975308641976,70.69135802469137,0)" xlink:href="#ae"/><use transform="matrix(0.08641975308641976,0,0,0.08641975308641976,86.24691358024693,0)" xlink:href="#ab"/><use transform="matrix(0.08641975308641976,0,0,0.08641975308641976,103.53086419753087,0)" xlink:href="#aq"/></g><g id="M"><use transform="matrix(0.08641975308641976,0,0,0.08641975308641976,0,0)" xlink:href="#ad"/><use transform="matrix(0.08641975308641976,0,0,0.08641975308641976,17.283950617283953,0)" xlink:href="#av"/><use transform="matrix(0.08641975308641976,0,0,0.08641975308641976,27.567901234567906,0)" xlink:href="#ab"/></g><path d="M85-194c31 0 48 13 60 33l-1-100h32l1 261h-30c-2-10 0-23-3-31C134-8 116 4 85 4 32 4 16-35 15-94c0-66 23-100 70-100zm9 24c-40 0-46 34-46 75 0 40 6 74 45 74 42 0 51-32 51-76 0-42-9-74-50-73" id="aS"/><g id="N"><use transform="matrix(0.08641975308641976,0,0,0.08641975308641976,0,0)" xlink:href="#ap"/><use transform="matrix(0.08641975308641976,0,0,0.08641975308641976,17.283950617283953,0)" xlink:href="#av"/><use transform="matrix(0.08641975308641976,0,0,0.08641975308641976,27.567901234567906,0)" xlink:href="#X"/><use transform="matrix(0.08641975308641976,0,0,0.08641975308641976,44.85185185185187,0)" xlink:href="#aw"/><use transform="matrix(0.08641975308641976,0,0,0.08641975308641976,62.13580246913581,0)" xlink:href="#ai"/><use transform="matrix(0.08641975308641976,0,0,0.08641975308641976,79.41975308641976,0)" xlink:href="#ab"/><use transform="matrix(0.08641975308641976,0,0,0.08641975308641976,96.70370370370371,0)" xlink:href="#aS"/></g><g id="O"><use transform="matrix(0.08641975308641976,0,0,0.08641975308641976,0,0)" xlink:href="#Y"/><use transform="matrix(0.08641975308641976,0,0,0.08641975308641976,17.283950617283953,0)" xlink:href="#an"/></g><path d="M210-169c-67 3-38 105-44 169h-31v-121c0-29-5-50-35-48C34-165 62-65 56 0H25l-1-190h30c1 10-1 24 2 32 10-44 99-50 107 0 11-21 27-35 58-36 85-2 47 119 55 194h-31v-121c0-29-5-49-35-48" id="aT"/><g id="P"><use transform="matrix(0.08641975308641976,0,0,0.08641975308641976,0,0)" xlink:href="#aq"/><use transform="matrix(0.08641975308641976,0,0,0.08641975308641976,15.555555555555557,0)" xlink:href="#aw"/><use transform="matrix(0.08641975308641976,0,0,0.08641975308641976,32.839506172839506,0)" xlink:href="#Y"/><use transform="matrix(0.08641975308641976,0,0,0.08641975308641976,50.123456790123456,0)" xlink:href="#aS"/><use transform="matrix(0.08641975308641976,0,0,0.08641975308641976,67.4074074074074,0)" xlink:href="#X"/><use transform="matrix(0.08641975308641976,0,0,0.08641975308641976,84.69135802469135,0)" xlink:href="#aT"/><use transform="matrix(0.08641975308641976,0,0,0.08641975308641976,110.53086419753086,0)" xlink:href="#ad"/><use transform="matrix(0.08641975308641976,0,0,0.08641975308641976,127.81481481481481,0)" xlink:href="#Z"/><use transform="matrix(0.08641975308641976,0,0,0.08641975308641976,134.64197530864197,0)" xlink:href="#as"/></g><path d="M30 0v-248h187v28H63v79h144v27H63v87h162V0H30" id="aU"/><path d="M106-169C34-169 62-67 57 0H25v-261h32l-1 103c12-21 28-36 61-36 89 0 53 116 60 194h-32v-121c2-32-8-49-39-48" id="aV"/><g id="Q"><use transform="matrix(0.08641975308641976,0,0,0.08641975308641976,0,0)" xlink:href="#aU"/><use transform="matrix(0.08641975308641976,0,0,0.08641975308641976,20.740740740740744,0)" xlink:href="#ad"/><use transform="matrix(0.08641975308641976,0,0,0.08641975308641976,38.0246913580247,0)" xlink:href="#ae"/><use transform="matrix(0.08641975308641976,0,0,0.08641975308641976,53.580246913580254,0)" xlink:href="#aV"/></g><g id="R"><use transform="matrix(0.08641975308641976,0,0,0.08641975308641976,0,0)" xlink:href="#ap"/><use transform="matrix(0.08641975308641976,0,0,0.08641975308641976,17.283950617283953,0)" xlink:href="#av"/><use transform="matrix(0.08641975308641976,0,0,0.08641975308641976,27.567901234567906,0)" xlink:href="#X"/><use transform="matrix(0.08641975308641976,0,0,0.08641975308641976,44.85185185185187,0)" xlink:href="#aw"/><use transform="matrix(0.08641975308641976,0,0,0.08641975308641976,62.13580246913581,0)" xlink:href="#ai"/></g><g id="S"><use transform="matrix(0.08641975308641976,0,0,0.08641975308641976,0,0)" xlink:href="#Z"/><use transform="matrix(0.08641975308641976,0,0,0.08641975308641976,6.8271604938271615,0)" xlink:href="#aq"/></g><g id="T"><use transform="matrix(0.08641975308641976,0,0,0.08641975308641976,0,0)" xlink:href="#ab"/><use transform="matrix(0.08641975308641976,0,0,0.08641975308641976,17.283950617283953,0)" xlink:href="#as"/><use transform="matrix(0.08641975308641976,0,0,0.08641975308641976,34.567901234567906,0)" xlink:href="#ae"/><use transform="matrix(0.08641975308641976,0,0,0.08641975308641976,50.12345679012346,0)" xlink:href="#ad"/><use transform="matrix(0.08641975308641976,0,0,0.08641975308641976,67.40740740740742,0)" xlink:href="#ai"/><use transform="matrix(0.08641975308641976,0,0,0.08641975308641976,84.69135802469137,0)" xlink:href="#aq"/><use transform="matrix(0.08641975308641976,0,0,0.08641975308641976,100.24691358024693,0)" xlink:href="#aw"/><use transform="matrix(0.08641975308641976,0,0,0.08641975308641976,117.53086419753087,0)" xlink:href="#aa"/><use transform="matrix(0.08641975308641976,0,0,0.08641975308641976,124.35802469135804,0)" xlink:href="#ad"/><use transform="matrix(0.08641975308641976,0,0,0.08641975308641976,141.641975308642,0)" xlink:href="#al"/><use transform="matrix(0.08641975308641976,0,0,0.08641975308641976,150.28395061728398,0)" xlink:href="#ab"/><use transform="matrix(0.08641975308641976,0,0,0.08641975308641976,167.56790123456793,0)" xlink:href="#aS"/></g><g id="U"><use transform="matrix(0.08641975308641976,0,0,0.08641975308641976,0,0)" xlink:href="#am"/><use transform="matrix(0.08641975308641976,0,0,0.08641975308641976,22.38271604938272,0)" xlink:href="#Z"/><use transform="matrix(0.08641975308641976,0,0,0.08641975308641976,29.20987654320988,0)" xlink:href="#al"/><use transform="matrix(0.08641975308641976,0,0,0.08641975308641976,37.851851851851855,0)" xlink:href="#aV"/></g><path d="M52-101C46-14 166-7 216-51l9-45h-74l6-28h105l-18 87C217-12 181 4 130 4 60 4 18-31 18-101c0-106 78-167 188-146 30 6 48 27 59 54l-34 9c-10-26-31-41-67-40-75 1-107 50-112 123" id="aW"/><path d="M165-48c-4 18 1 34 23 27l-3 20c-29 8-62 0-52-35h-2C116-14 99 4 63 4 30 4 8-16 8-49c0-68 71-67 138-67 10-26 0-56-31-54-26 1-42 9-47 31l-32-5c8-67 160-71 144 15-5 28-9 54-15 81zM42-50c3 52 80 24 89-6 7-12 7-24 11-38-47 1-103-4-100 44" id="aX"/><path d="M51-54c-9 22 5 41 31 30L79-1C43 14 10-4 19-52l22-115H19l5-23h22l19-43h21l-9 43h35l-4 23H73" id="aY"/><path d="M111-194c62-3 86 47 72 106H45c-7 38 6 69 45 68 27-1 43-14 53-32l24 11C152-15 129 4 87 4 38 3 12-23 12-71c0-70 32-119 99-123zm44 81c14-66-71-72-95-28-4 8-8 17-11 28h106" id="aZ"/><path d="M188 0h-37l-8-164L71 0H34L18-190h31l8 164 75-164h34l8 164 74-164h31" id="ba"/><path d="M198-190L69 30C53 58 25 83-20 72c4-11-1-27 19-22 33-1 43-29 59-52L20-190h32L79-34l84-156h35" id="bb"/><path d="M55-144c13 50 104 24 104 88C159 21 15 23 1-39l26-10c6 40 102 42 102-4-13-50-104-23-104-87 0-71 143-71 148-8l-29 4c-5-35-85-37-89 0" id="bc"/><g id="V"><use transform="matrix(0.08641975308641976,0,0,0.08641975308641976,0,0)" xlink:href="#aW"/><use transform="matrix(0.08641975308641976,0,0,0.08641975308641976,24.19753086419753,0)" xlink:href="#aX"/><use transform="matrix(0.08641975308641976,0,0,0.08641975308641976,41.48148148148148,0)" xlink:href="#aY"/><use transform="matrix(0.08641975308641976,0,0,0.08641975308641976,50.123456790123456,0)" xlink:href="#aZ"/><use transform="matrix(0.08641975308641976,0,0,0.08641975308641976,67.4074074074074,0)" xlink:href="#ba"/><use transform="matrix(0.08641975308641976,0,0,0.08641975308641976,89.79012345679013,0)" xlink:href="#aX"/><use transform="matrix(0.08641975308641976,0,0,0.08641975308641976,107.07407407407409,0)" xlink:href="#bb"/><use transform="matrix(0.08641975308641976,0,0,0.08641975308641976,122.62962962962965,0)" xlink:href="#bc"/></g></defs></g></svg>