<svg xmlns="http://www.w3.org/2000/svg" xmlns:xlink="http://www.w3.org/1999/xlink" xmlns:lucid="lucid" width="1213" height="483"><g transform="translate(-88.5 -538.5)" lucid:page-tab-id="0_0"><path d="M841.5 560a20 20 0 0 1 20-20h80a20 20 0 0 1 20 20v440a20 20 0 0 1-20 20h-80a20 20 0 0 1-20-20z" fill-opacity="0"/><path d="M840 560a1.5 1.5 0 0 1 1.5-1.5 1.5 1.5 0 0 1 1.5 1.5 1.5 1.5 0 0 1-1.5 1.5 1.5 1.5 0 0 1-1.5-1.5m2.73-9.96a1.5 1.5 0 0 1 1.5-1.5 1.5 1.5 0 0 1 1.5 1.5 1.5 1.5 0 0 1-1.5 1.5 1.5 1.5 0 0 1-1.5-1.5V550m7.3-7.26a1.5 1.5 0 0 1 1.5-1.5 1.5 1.5 0 0 1 1.5 1.5 1.5 1.5 0 0 1-1.5 1.5 1.5 1.5 0 0 1-1.5-1.5v-.03M860 540a1.5 1.5 0 0 1 1.5-1.5 1.5 1.5 0 0 1 1.5 1.5 1.5 1.5 0 0 1-1.5 1.5 1.5 1.5 0 0 1-1.5-1.5m11.43 0a1.5 1.5 0 0 1 1.5-1.5 1.5 1.5 0 0 1 1.5 1.5 1.5 1.5 0 0 1-1.5 1.5 1.5 1.5 0 0 1-1.5-1.5m11.43 0a1.5 1.5 0 0 1 1.5-1.5 1.5 1.5 0 0 1 1.5 1.5 1.5 1.5 0 0 1-1.5 1.5 1.5 1.5 0 0 1-1.5-1.5m11.43 0a1.5 1.5 0 0 1 1.5-1.5 1.5 1.5 0 0 1 1.5 1.5 1.5 1.5 0 0 1-1.5 1.5 1.5 1.5 0 0 1-1.5-1.5m11.4 0a1.5 1.5 0 0 1 1.5-1.5 1.5 1.5 0 0 1 1.5 1.5 1.5 1.5 0 0 1-1.5 1.5 1.5 1.5 0 0 1-1.5-1.5m11.44 0a1.5 1.5 0 0 1 1.5-1.5 1.5 1.5 0 0 1 1.5 1.5 1.5 1.5 0 0 1-1.5 1.5 1.5 1.5 0 0 1-1.5-1.5m11.43 0a1.5 1.5 0 0 1 1.5-1.5 1.5 1.5 0 0 1 1.5 1.5 1.5 1.5 0 0 1-1.5 1.5 1.5 1.5 0 0 1-1.5-1.5m11.43 0a1.5 1.5 0 0 1 1.5-1.5 1.5 1.5 0 0 1 1.5 1.5 1.5 1.5 0 0 1-1.5 1.5 1.5 1.5 0 0 1-1.5-1.5m9.97 2.74a1.5 1.5 0 0 1 1.5-1.5 1.5 1.5 0 0 1 1.5 1.5 1.5 1.5 0 0 1-1.5 1.5 1.5 1.5 0 0 1-1.5-1.5v-.03m7.3 7.34a1.5 1.5 0 0 1 1.5-1.5 1.5 1.5 0 0 1 1.5 1.5 1.5 1.5 0 0 1-1.5 1.5 1.5 1.5 0 0 1-1.5-1.5V550m2.73 10a1.5 1.5 0 0 1 1.5-1.5 1.5 1.5 0 0 1 1.5 1.5 1.5 1.5 0 0 1-1.5 1.5 1.5 1.5 0 0 1-1.5-1.5m0 11.9a1.5 1.5 0 0 1 1.5-1.5 1.5 1.5 0 0 1 1.5 1.5 1.5 1.5 0 0 1-1.5 1.5 1.5 1.5 0 0 1-1.5-1.5v-.02m0 11.92v-.02a1.5 1.5 0 0 1 1.5-1.5 1.5 1.5 0 0 1 1.5 1.5 1.5 1.5 0 0 1-1.5 1.5 1.5 1.5 0 0 1-1.5-1.5m0 11.9a1.5 1.5 0 0 1 1.5-1.5 1.5 1.5 0 0 1 1.5 1.5 1.5 1.5 0 0 1-1.5 1.5 1.5 1.5 0 0 1-1.5-1.5v-.02m0 11.92a1.5 1.5 0 0 1 1.5-1.5 1.5 1.5 0 0 1 1.5 1.5 1.5 1.5 0 0 1-1.5 1.5 1.5 1.5 0 0 1-1.5-1.5v-.03m0 11.92a1.5 1.5 0 0 1 1.5-1.5 1.5 1.5 0 0 1 1.5 1.5 1.5 1.5 0 0 1-1.5 1.5 1.5 1.5 0 0 1-1.5-1.5v-.03m0 11.93v-.02a1.5 1.5 0 0 1 1.5-1.5 1.5 1.5 0 0 1 1.5 1.5 1.5 1.5 0 0 1-1.5 1.5 1.5 1.5 0 0 1-1.5-1.5m0 11.9a1.5 1.5 0 0 1 1.5-1.5 1.5 1.5 0 0 1 1.5 1.5 1.5 1.5 0 0 1-1.5 1.5 1.5 1.5 0 0 1-1.5-1.5v-.02m0 11.92a1.5 1.5 0 0 1 1.5-1.5 1.5 1.5 0 0 1 1.5 1.5 1.5 1.5 0 0 1-1.5 1.5 1.5 1.5 0 0 1-1.5-1.5v-.03m0 11.92a1.5 1.5 0 0 1 1.5-1.5 1.5 1.5 0 0 1 1.5 1.5 1.5 1.5 0 0 1-1.5 1.5 1.5 1.5 0 0 1-1.5-1.5V667m0 11.93a1.5 1.5 0 0 1 1.5-1.5 1.5 1.5 0 0 1 1.5 1.5 1.5 1.5 0 0 1-1.5 1.5 1.5 1.5 0 0 1-1.5-1.5v-.03m0 11.93v-.02a1.5 1.5 0 0 1 1.5-1.5 1.5 1.5 0 0 1 1.5 1.5 1.5 1.5 0 0 1-1.5 1.5 1.5 1.5 0 0 1-1.5-1.5m0 11.92v-.02a1.5 1.5 0 0 1 1.5-1.5 1.5 1.5 0 0 1 1.5 1.5 1.5 1.5 0 0 1-1.5 1.5 1.5 1.5 0 0 1-1.5-1.5m0 11.9a1.5 1.5 0 0 1 1.5-1.5 1.5 1.5 0 0 1 1.5 1.5 1.5 1.5 0 0 1-1.5 1.5 1.5 1.5 0 0 1-1.5-1.5v-.02m0 11.92a1.5 1.5 0 0 1 1.5-1.5 1.5 1.5 0 0 1 1.5 1.5 1.5 1.5 0 0 1-1.5 1.5 1.5 1.5 0 0 1-1.5-1.5v-.03m0 11.92v-.02a1.5 1.5 0 0 1 1.5-1.5 1.5 1.5 0 0 1 1.5 1.5 1.5 1.5 0 0 1-1.5 1.5 1.5 1.5 0 0 1-1.5-1.5v-.02m0 11.92a1.5 1.5 0 0 1 1.5-1.5 1.5 1.5 0 0 1 1.5 1.5 1.5 1.5 0 0 1-1.5 1.5 1.5 1.5 0 0 1-1.5-1.5v-.02m0 11.92v-.02a1.5 1.5 0 0 1 1.5-1.5 1.5 1.5 0 0 1 1.5 1.5 1.5 1.5 0 0 1-1.5 1.5 1.5 1.5 0 0 1-1.5-1.5m0 11.9a1.5 1.5 0 0 1 1.5-1.5 1.5 1.5 0 0 1 1.5 1.5 1.5 1.5 0 0 1-1.5 1.5 1.5 1.5 0 0 1-1.5-1.5v-.02m0 11.92a1.5 1.5 0 0 1 1.5-1.5 1.5 1.5 0 0 1 1.5 1.5 1.5 1.5 0 0 1-1.5 1.5 1.5 1.5 0 0 1-1.5-1.5v-.03m0 11.92a1.5 1.5 0 0 1 1.5-1.5 1.5 1.5 0 0 1 1.5 1.5 1.5 1.5 0 0 1-1.5 1.5 1.5 1.5 0 0 1-1.5-1.5v-.03m0 11.92a1.5 1.5 0 0 1 1.5-1.5 1.5 1.5 0 0 1 1.5 1.5 1.5 1.5 0 0 1-1.5 1.5 1.5 1.5 0 0 1-1.5-1.5v-.02m0 11.92v-.02a1.5 1.5 0 0 1 1.5-1.5 1.5 1.5 0 0 1 1.5 1.5 1.5 1.5 0 0 1-1.5 1.5 1.5 1.5 0 0 1-1.5-1.5m0 11.9a1.5 1.5 0 0 1 1.5-1.5 1.5 1.5 0 0 1 1.5 1.5 1.5 1.5 0 0 1-1.5 1.5 1.5 1.5 0 0 1-1.5-1.5v-.02m0 11.92a1.5 1.5 0 0 1 1.5-1.5 1.5 1.5 0 0 1 1.5 1.5 1.5 1.5 0 0 1-1.5 1.5 1.5 1.5 0 0 1-1.5-1.5v-.03m0 11.9a1.5 1.5 0 0 1 1.5-1.5 1.5 1.5 0 0 1 1.5 1.5 1.5 1.5 0 0 1-1.5 1.5 1.5 1.5 0 0 1-1.5-1.5v-.02m0 11.92a1.5 1.5 0 0 1 1.5-1.5 1.5 1.5 0 0 1 1.5 1.5 1.5 1.5 0 0 1-1.5 1.5 1.5 1.5 0 0 1-1.5-1.5v-.03m0 11.93v-.02a1.5 1.5 0 0 1 1.5-1.5 1.5 1.5 0 0 1 1.5 1.5 1.5 1.5 0 0 1-1.5 1.5 1.5 1.5 0 0 1-1.5-1.5m0 11.9a1.5 1.5 0 0 1 1.5-1.5 1.5 1.5 0 0 1 1.5 1.5 1.5 1.5 0 0 1-1.5 1.5 1.5 1.5 0 0 1-1.5-1.5v-.02m0 11.92a1.5 1.5 0 0 1 1.5-1.5 1.5 1.5 0 0 1 1.5 1.5 1.5 1.5 0 0 1-1.5 1.5 1.5 1.5 0 0 1-1.5-1.5v-.03m0 11.92a1.5 1.5 0 0 1 1.5-1.5 1.5 1.5 0 0 1 1.5 1.5 1.5 1.5 0 0 1-1.5 1.5 1.5 1.5 0 0 1-1.5-1.5v-.03m0 11.92a1.5 1.5 0 0 1 1.5-1.5 1.5 1.5 0 0 1 1.5 1.5 1.5 1.5 0 0 1-1.5 1.5 1.5 1.5 0 0 1-1.5-1.5v-.03m0 11.93v-.02a1.5 1.5 0 0 1 1.5-1.5 1.5 1.5 0 0 1 1.5 1.5 1.5 1.5 0 0 1-1.5 1.5 1.5 1.5 0 0 1-1.5-1.5m0 11.9a1.5 1.5 0 0 1 1.5-1.5 1.5 1.5 0 0 1 1.5 1.5 1.5 1.5 0 0 1-1.5 1.5 1.5 1.5 0 0 1-1.5-1.5v-.02m0 11.92v-.02a1.5 1.5 0 0 1 1.5-1.5 1.5 1.5 0 0 1 1.5 1.5 1.5 1.5 0 0 1-1.5 1.5 1.5 1.5 0 0 1-1.5-1.5m0 11.9a1.5 1.5 0 0 1 1.5-1.5 1.5 1.5 0 0 1 1.5 1.5 1.5 1.5 0 0 1-1.5 1.5 1.5 1.5 0 0 1-1.5-1.5v-.02m0 11.92a1.5 1.5 0 0 1 1.5-1.5 1.5 1.5 0 0 1 1.5 1.5 1.5 1.5 0 0 1-1.5 1.5 1.5 1.5 0 0 1-1.5-1.5v-.03m0 11.9a1.5 1.5 0 0 1 1.5-1.5 1.5 1.5 0 0 1 1.5 1.5 1.5 1.5 0 0 1-1.5 1.5 1.5 1.5 0 0 1-1.5-1.5m-2.73 10v-.03a1.5 1.5 0 0 1 1.5-1.5 1.5 1.5 0 0 1 1.5 1.5 1.5 1.5 0 0 1-1.5 1.5 1.5 1.5 0 0 1-1.5-1.5m-7.3 7.32v-.03a1.5 1.5 0 0 1 1.5-1.5 1.5 1.5 0 0 1 1.5 1.5 1.5 1.5 0 0 1-1.5 1.5 1.5 1.5 0 0 1-1.5-1.5M940 1020v-.02a1.5 1.5 0 0 1 1.5-1.5 1.5 1.5 0 0 1 1.5 1.5 1.5 1.5 0 0 1-1.5 1.5 1.5 1.5 0 0 1-1.5-1.5m-11.43 0a1.5 1.5 0 0 1 1.5-1.5 1.5 1.5 0 0 1 1.5 1.5 1.5 1.5 0 0 1-1.5 1.5 1.5 1.5 0 0 1-1.5-1.5m-11.43 0a1.5 1.5 0 0 1 1.5-1.5 1.5 1.5 0 0 1 1.5 1.5 1.5 1.5 0 0 1-1.5 1.5 1.5 1.5 0 0 1-1.5-1.5m-11.43 0a1.5 1.5 0 0 1 1.5-1.5 1.5 1.5 0 0 1 1.5 1.5 1.5 1.5 0 0 1-1.5 1.5 1.5 1.5 0 0 1-1.5-1.5m-11.4 0a1.5 1.5 0 0 1 1.5-1.5 1.5 1.5 0 0 1 1.5 1.5 1.5 1.5 0 0 1-1.5 1.5 1.5 1.5 0 0 1-1.5-1.5m-11.44 0a1.5 1.5 0 0 1 1.5-1.5 1.5 1.5 0 0 1 1.5 1.5 1.5 1.5 0 0 1-1.5 1.5 1.5 1.5 0 0 1-1.5-1.5m-11.43 0a1.5 1.5 0 0 1 1.5-1.5 1.5 1.5 0 0 1 1.5 1.5 1.5 1.5 0 0 1-1.5 1.5 1.5 1.5 0 0 1-1.5-1.5m-11.43 0a1.5 1.5 0 0 1 1.5-1.5 1.5 1.5 0 0 1 1.5 1.5 1.5 1.5 0 0 1-1.5 1.5 1.5 1.5 0 0 1-1.5-1.5m-9.97-2.7v-.03a1.5 1.5 0 0 1 1.5-1.5 1.5 1.5 0 0 1 1.5 1.5 1.5 1.5 0 0 1-1.5 1.5 1.5 1.5 0 0 1-1.5-1.5m-7.3-7.28v-.03a1.5 1.5 0 0 1 1.5-1.5 1.5 1.5 0 0 1 1.5 1.5 1.5 1.5 0 0 1-1.5 1.5 1.5 1.5 0 0 1-1.5-1.5M840 1000a1.5 1.5 0 0 1 1.5-1.5 1.5 1.5 0 0 1 1.5 1.5 1.5 1.5 0 0 1-1.5 1.5 1.5 1.5 0 0 1-1.5-1.5m0-11.88a1.5 1.5 0 0 1 1.5-1.5 1.5 1.5 0 0 1 1.5 1.5 1.5 1.5 0 0 1-1.5 1.5 1.5 1.5 0 0 1-1.5-1.5v-.03m0-11.87a1.5 1.5 0 0 1 1.5-1.5 1.5 1.5 0 0 1 1.5 1.5 1.5 1.5 0 0 1-1.5 1.5 1.5 1.5 0 0 1-1.5-1.5v-.03m0-11.86v-.02a1.5 1.5 0 0 1 1.5-1.5 1.5 1.5 0 0 1 1.5 1.5 1.5 1.5 0 0 1-1.5 1.5 1.5 1.5 0 0 1-1.5-1.5m0-11.87v-.02a1.5 1.5 0 0 1 1.5-1.5 1.5 1.5 0 0 1 1.5 1.5 1.5 1.5 0 0 1-1.5 1.5 1.5 1.5 0 0 1-1.5-1.5m0-11.87v-.02a1.5 1.5 0 0 1 1.5-1.5 1.5 1.5 0 0 1 1.5 1.5 1.5 1.5 0 0 1-1.5 1.5 1.5 1.5 0 0 1-1.5-1.5m0-11.88a1.5 1.5 0 0 1 1.5-1.5 1.5 1.5 0 0 1 1.5 1.5 1.5 1.5 0 0 1-1.5 1.5 1.5 1.5 0 0 1-1.5-1.5v-.03m0-11.86a1.5 1.5 0 0 1 1.5-1.5 1.5 1.5 0 0 1 1.5 1.5 1.5 1.5 0 0 1-1.5 1.5 1.5 1.5 0 0 1-1.5-1.5v-.03m0-11.86a1.5 1.5 0 0 1 1.5-1.5 1.5 1.5 0 0 1 1.5 1.5 1.5 1.5 0 0 1-1.5 1.5 1.5 1.5 0 0 1-1.5-1.5v-.03m0-11.86v-.03a1.5 1.5 0 0 1 1.5-1.5 1.5 1.5 0 0 1 1.5 1.5 1.5 1.5 0 0 1-1.5 1.5 1.5 1.5 0 0 1-1.5-1.5m0-11.87v-.02a1.5 1.5 0 0 1 1.5-1.5 1.5 1.5 0 0 1 1.5 1.5 1.5 1.5 0 0 1-1.5 1.5 1.5 1.5 0 0 1-1.5-1.5m0-11.88a1.5 1.5 0 0 1 1.5-1.5 1.5 1.5 0 0 1 1.5 1.5 1.5 1.5 0 0 1-1.5 1.5 1.5 1.5 0 0 1-1.5-1.5v-.03m0-11.86a1.5 1.5 0 0 1 1.5-1.5 1.5 1.5 0 0 1 1.5 1.5 1.5 1.5 0 0 1-1.5 1.5 1.5 1.5 0 0 1-1.5-1.5v-.02m0-11.86a1.5 1.5 0 0 1 1.5-1.5 1.5 1.5 0 0 1 1.5 1.5 1.5 1.5 0 0 1-1.5 1.5 1.5 1.5 0 0 1-1.5-1.5v-.03m0-11.87v-.02a1.5 1.5 0 0 1 1.5-1.5 1.5 1.5 0 0 1 1.5 1.5 1.5 1.5 0 0 1-1.5 1.5 1.5 1.5 0 0 1-1.5-1.5m0-11.86v-.02a1.5 1.5 0 0 1 1.5-1.5 1.5 1.5 0 0 1 1.5 1.5 1.5 1.5 0 0 1-1.5 1.5 1.5 1.5 0 0 1-1.5-1.5m0-11.88a1.5 1.5 0 0 1 1.5-1.5 1.5 1.5 0 0 1 1.5 1.5 1.5 1.5 0 0 1-1.5 1.5 1.5 1.5 0 0 1-1.5-1.5v-.02m0-11.87a1.5 1.5 0 0 1 1.5-1.5 1.5 1.5 0 0 1 1.5 1.5 1.5 1.5 0 0 1-1.5 1.5 1.5 1.5 0 0 1-1.5-1.5v-.03m0-11.86a1.5 1.5 0 0 1 1.5-1.5 1.5 1.5 0 0 1 1.5 1.5 1.5 1.5 0 0 1-1.5 1.5 1.5 1.5 0 0 1-1.5-1.5v-.03m0-11.86v-.02a1.5 1.5 0 0 1 1.5-1.5 1.5 1.5 0 0 1 1.5 1.5 1.5 1.5 0 0 1-1.5 1.5 1.5 1.5 0 0 1-1.5-1.5m0-11.87v-.02a1.5 1.5 0 0 1 1.5-1.5 1.5 1.5 0 0 1 1.5 1.5 1.5 1.5 0 0 1-1.5 1.5 1.5 1.5 0 0 1-1.5-1.5m0-11.88a1.5 1.5 0 0 1 1.5-1.5 1.5 1.5 0 0 1 1.5 1.5 1.5 1.5 0 0 1-1.5 1.5 1.5 1.5 0 0 1-1.5-1.5v-.02m0-11.87v-.02a1.5 1.5 0 0 1 1.5-1.5 1.5 1.5 0 0 1 1.5 1.5 1.5 1.5 0 0 1-1.5 1.5 1.5 1.5 0 0 1-1.5-1.5v-.02m0-11.86a1.5 1.5 0 0 1 1.5-1.5 1.5 1.5 0 0 1 1.5 1.5 1.5 1.5 0 0 1-1.5 1.5 1.5 1.5 0 0 1-1.5-1.5v-.03m0-11.86a1.5 1.5 0 0 1 1.5-1.5 1.5 1.5 0 0 1 1.5 1.5 1.5 1.5 0 0 1-1.5 1.5 1.5 1.5 0 0 1-1.5-1.5v-.02m0-11.86v-.02a1.5 1.5 0 0 1 1.5-1.5 1.5 1.5 0 0 1 1.5 1.5 1.5 1.5 0 0 1-1.5 1.5 1.5 1.5 0 0 1-1.5-1.5m0-11.87v-.02a1.5 1.5 0 0 1 1.5-1.5 1.5 1.5 0 0 1 1.5 1.5 1.5 1.5 0 0 1-1.5 1.5 1.5 1.5 0 0 1-1.5-1.5m0-11.87a1.5 1.5 0 0 1 1.5-1.5 1.5 1.5 0 0 1 1.5 1.5 1.5 1.5 0 0 1-1.5 1.5 1.5 1.5 0 0 1-1.5-1.5v-.03m0-11.86a1.5 1.5 0 0 1 1.5-1.5 1.5 1.5 0 0 1 1.5 1.5 1.5 1.5 0 0 1-1.5 1.5 1.5 1.5 0 0 1-1.5-1.5V667m0-11.85a1.5 1.5 0 0 1 1.5-1.5 1.5 1.5 0 0 1 1.5 1.5 1.5 1.5 0 0 1-1.5 1.5 1.5 1.5 0 0 1-1.5-1.5v-.03m0-11.86v-.02a1.5 1.5 0 0 1 1.5-1.5 1.5 1.5 0 0 1 1.5 1.5 1.5 1.5 0 0 1-1.5 1.5 1.5 1.5 0 0 1-1.5-1.5m0-11.87v-.02a1.5 1.5 0 0 1 1.5-1.5 1.5 1.5 0 0 1 1.5 1.5 1.5 1.5 0 0 1-1.5 1.5 1.5 1.5 0 0 1-1.5-1.5m0-11.88a1.5 1.5 0 0 1 1.5-1.5 1.5 1.5 0 0 1 1.5 1.5 1.5 1.5 0 0 1-1.5 1.5 1.5 1.5 0 0 1-1.5-1.5v-.03m0-11.86a1.5 1.5 0 0 1 1.5-1.5 1.5 1.5 0 0 1 1.5 1.5 1.5 1.5 0 0 1-1.5 1.5 1.5 1.5 0 0 1-1.5-1.5v-.03m0-11.86v-.02a1.5 1.5 0 0 1 1.5-1.5 1.5 1.5 0 0 1 1.5 1.5 1.5 1.5 0 0 1-1.5 1.5 1.5 1.5 0 0 1-1.5-1.5v-.02m0-11.86v-.02a1.5 1.5 0 0 1 1.5-1.5 1.5 1.5 0 0 1 1.5 1.5 1.5 1.5 0 0 1-1.5 1.5 1.5 1.5 0 0 1-1.5-1.5m0-11.87a1.5 1.5 0 0 1 1.5-1.5 1.5 1.5 0 0 1 1.5 1.5 1.5 1.5 0 0 1-1.5 1.5 1.5 1.5 0 0 1-1.5-1.5v-.02m0-11.87a1.5 1.5 0 0 1 1.5-1.5 1.5 1.5 0 0 1 1.5 1.5 1.5 1.5 0 0 1-1.5 1.5 1.5 1.5 0 0 1-1.5-1.5"/><path d="M461.5 560a20 20 0 0 1 20-20h80a20 20 0 0 1 20 20v440a20 20 0 0 1-20 20h-80a20 20 0 0 1-20-20z" fill-opacity="0"/><path d="M460 560a1.5 1.5 0 0 1 1.5-1.5 1.5 1.5 0 0 1 1.5 1.5 1.5 1.5 0 0 1-1.5 1.5 1.5 1.5 0 0 1-1.5-1.5m2.73-9.96a1.5 1.5 0 0 1 1.5-1.5 1.5 1.5 0 0 1 1.5 1.5 1.5 1.5 0 0 1-1.5 1.5 1.5 1.5 0 0 1-1.5-1.5V550m7.3-7.26a1.5 1.5 0 0 1 1.5-1.5 1.5 1.5 0 0 1 1.5 1.5 1.5 1.5 0 0 1-1.5 1.5 1.5 1.5 0 0 1-1.5-1.5v-.03M480 540a1.5 1.5 0 0 1 1.5-1.5 1.5 1.5 0 0 1 1.5 1.5 1.5 1.5 0 0 1-1.5 1.5 1.5 1.5 0 0 1-1.5-1.5m11.43 0a1.5 1.5 0 0 1 1.5-1.5 1.5 1.5 0 0 1 1.5 1.5 1.5 1.5 0 0 1-1.5 1.5 1.5 1.5 0 0 1-1.5-1.5m11.43 0a1.5 1.5 0 0 1 1.5-1.5 1.5 1.5 0 0 1 1.5 1.5 1.5 1.5 0 0 1-1.5 1.5 1.5 1.5 0 0 1-1.5-1.5m11.43 0a1.5 1.5 0 0 1 1.5-1.5 1.5 1.5 0 0 1 1.5 1.5 1.5 1.5 0 0 1-1.5 1.5 1.5 1.5 0 0 1-1.5-1.5m11.4 0a1.5 1.5 0 0 1 1.5-1.5 1.5 1.5 0 0 1 1.5 1.5 1.5 1.5 0 0 1-1.5 1.5 1.5 1.5 0 0 1-1.5-1.5m11.44 0a1.5 1.5 0 0 1 1.5-1.5 1.5 1.5 0 0 1 1.5 1.5 1.5 1.5 0 0 1-1.5 1.5 1.5 1.5 0 0 1-1.5-1.5m11.43 0a1.5 1.5 0 0 1 1.5-1.5 1.5 1.5 0 0 1 1.5 1.5 1.5 1.5 0 0 1-1.5 1.5 1.5 1.5 0 0 1-1.5-1.5m11.43 0a1.5 1.5 0 0 1 1.5-1.5 1.5 1.5 0 0 1 1.5 1.5 1.5 1.5 0 0 1-1.5 1.5 1.5 1.5 0 0 1-1.5-1.5m9.97 2.74a1.5 1.5 0 0 1 1.5-1.5 1.5 1.5 0 0 1 1.5 1.5 1.5 1.5 0 0 1-1.5 1.5 1.5 1.5 0 0 1-1.5-1.5v-.03m7.3 7.34a1.5 1.5 0 0 1 1.5-1.5 1.5 1.5 0 0 1 1.5 1.5 1.5 1.5 0 0 1-1.5 1.5 1.5 1.5 0 0 1-1.5-1.5V550m2.73 10a1.5 1.5 0 0 1 1.5-1.5 1.5 1.5 0 0 1 1.5 1.5 1.5 1.5 0 0 1-1.5 1.5 1.5 1.5 0 0 1-1.5-1.5m0 11.9a1.5 1.5 0 0 1 1.5-1.5 1.5 1.5 0 0 1 1.5 1.5 1.5 1.5 0 0 1-1.5 1.5 1.5 1.5 0 0 1-1.5-1.5v-.02m0 11.92v-.02a1.5 1.5 0 0 1 1.5-1.5 1.5 1.5 0 0 1 1.5 1.5 1.5 1.5 0 0 1-1.5 1.5 1.5 1.5 0 0 1-1.5-1.5m0 11.9a1.5 1.5 0 0 1 1.5-1.5 1.5 1.5 0 0 1 1.5 1.5 1.5 1.5 0 0 1-1.5 1.5 1.5 1.5 0 0 1-1.5-1.5v-.02m0 11.92a1.5 1.5 0 0 1 1.5-1.5 1.5 1.5 0 0 1 1.5 1.5 1.5 1.5 0 0 1-1.5 1.5 1.5 1.5 0 0 1-1.5-1.5v-.03m0 11.92a1.5 1.5 0 0 1 1.5-1.5 1.5 1.5 0 0 1 1.5 1.5 1.5 1.5 0 0 1-1.5 1.5 1.5 1.5 0 0 1-1.5-1.5v-.03m0 11.93v-.02a1.5 1.5 0 0 1 1.5-1.5 1.5 1.5 0 0 1 1.5 1.5 1.5 1.5 0 0 1-1.5 1.5 1.5 1.5 0 0 1-1.5-1.5m0 11.9a1.5 1.5 0 0 1 1.5-1.5 1.5 1.5 0 0 1 1.5 1.5 1.5 1.5 0 0 1-1.5 1.5 1.5 1.5 0 0 1-1.5-1.5v-.02m0 11.92a1.5 1.5 0 0 1 1.5-1.5 1.5 1.5 0 0 1 1.5 1.5 1.5 1.5 0 0 1-1.5 1.5 1.5 1.5 0 0 1-1.5-1.5v-.03m0 11.92a1.5 1.5 0 0 1 1.5-1.5 1.5 1.5 0 0 1 1.5 1.5 1.5 1.5 0 0 1-1.5 1.5 1.5 1.5 0 0 1-1.5-1.5V667m0 11.93a1.5 1.5 0 0 1 1.5-1.5 1.5 1.5 0 0 1 1.5 1.5 1.5 1.5 0 0 1-1.5 1.5 1.5 1.5 0 0 1-1.5-1.5v-.03m0 11.93v-.02a1.5 1.5 0 0 1 1.5-1.5 1.5 1.5 0 0 1 1.5 1.5 1.5 1.5 0 0 1-1.5 1.5 1.5 1.5 0 0 1-1.5-1.5m0 11.92v-.02a1.5 1.5 0 0 1 1.5-1.5 1.5 1.5 0 0 1 1.5 1.5 1.5 1.5 0 0 1-1.5 1.5 1.5 1.5 0 0 1-1.5-1.5m0 11.9a1.5 1.5 0 0 1 1.5-1.5 1.5 1.5 0 0 1 1.5 1.5 1.5 1.5 0 0 1-1.5 1.5 1.5 1.5 0 0 1-1.5-1.5v-.02m0 11.92a1.5 1.5 0 0 1 1.5-1.5 1.5 1.5 0 0 1 1.5 1.5 1.5 1.5 0 0 1-1.5 1.5 1.5 1.5 0 0 1-1.5-1.5v-.03m0 11.92v-.02a1.5 1.5 0 0 1 1.5-1.5 1.5 1.5 0 0 1 1.5 1.5 1.5 1.5 0 0 1-1.5 1.5 1.5 1.5 0 0 1-1.5-1.5v-.02m0 11.92a1.5 1.5 0 0 1 1.5-1.5 1.5 1.5 0 0 1 1.5 1.5 1.5 1.5 0 0 1-1.5 1.5 1.5 1.5 0 0 1-1.5-1.5v-.02m0 11.92v-.02a1.5 1.5 0 0 1 1.5-1.5 1.5 1.5 0 0 1 1.5 1.5 1.5 1.5 0 0 1-1.5 1.5 1.5 1.5 0 0 1-1.5-1.5m0 11.9a1.5 1.5 0 0 1 1.5-1.5 1.5 1.5 0 0 1 1.5 1.5 1.5 1.5 0 0 1-1.5 1.5 1.5 1.5 0 0 1-1.5-1.5v-.02m0 11.92a1.5 1.5 0 0 1 1.5-1.5 1.5 1.5 0 0 1 1.5 1.5 1.5 1.5 0 0 1-1.5 1.5 1.5 1.5 0 0 1-1.5-1.5v-.03m0 11.92a1.5 1.5 0 0 1 1.5-1.5 1.5 1.5 0 0 1 1.5 1.5 1.5 1.5 0 0 1-1.5 1.5 1.5 1.5 0 0 1-1.5-1.5v-.03m0 11.92a1.5 1.5 0 0 1 1.5-1.5 1.5 1.5 0 0 1 1.5 1.5 1.5 1.5 0 0 1-1.5 1.5 1.5 1.5 0 0 1-1.5-1.5v-.02m0 11.92v-.02a1.5 1.5 0 0 1 1.5-1.5 1.5 1.5 0 0 1 1.5 1.5 1.5 1.5 0 0 1-1.5 1.5 1.5 1.5 0 0 1-1.5-1.5m0 11.9a1.5 1.5 0 0 1 1.5-1.5 1.5 1.5 0 0 1 1.5 1.5 1.5 1.5 0 0 1-1.5 1.5 1.5 1.5 0 0 1-1.5-1.5v-.02m0 11.92a1.5 1.5 0 0 1 1.5-1.5 1.5 1.5 0 0 1 1.5 1.5 1.5 1.5 0 0 1-1.5 1.5 1.5 1.5 0 0 1-1.5-1.5v-.03m0 11.9a1.5 1.5 0 0 1 1.5-1.5 1.5 1.5 0 0 1 1.5 1.5 1.5 1.5 0 0 1-1.5 1.5 1.5 1.5 0 0 1-1.5-1.5v-.02m0 11.92a1.5 1.5 0 0 1 1.5-1.5 1.5 1.5 0 0 1 1.5 1.5 1.5 1.5 0 0 1-1.5 1.5 1.5 1.5 0 0 1-1.5-1.5v-.03m0 11.93v-.02a1.5 1.5 0 0 1 1.5-1.5 1.5 1.5 0 0 1 1.5 1.5 1.5 1.5 0 0 1-1.5 1.5 1.5 1.5 0 0 1-1.5-1.5m0 11.9a1.5 1.5 0 0 1 1.5-1.5 1.5 1.5 0 0 1 1.5 1.5 1.5 1.5 0 0 1-1.5 1.5 1.5 1.5 0 0 1-1.5-1.5v-.02m0 11.92a1.5 1.5 0 0 1 1.5-1.5 1.5 1.5 0 0 1 1.5 1.5 1.5 1.5 0 0 1-1.5 1.5 1.5 1.5 0 0 1-1.5-1.5v-.03m0 11.92a1.5 1.5 0 0 1 1.5-1.5 1.5 1.5 0 0 1 1.5 1.5 1.5 1.5 0 0 1-1.5 1.5 1.5 1.5 0 0 1-1.5-1.5v-.03m0 11.92a1.5 1.5 0 0 1 1.5-1.5 1.5 1.5 0 0 1 1.5 1.5 1.5 1.5 0 0 1-1.5 1.5 1.5 1.5 0 0 1-1.5-1.5v-.03m0 11.93v-.02a1.5 1.5 0 0 1 1.5-1.5 1.5 1.5 0 0 1 1.5 1.5 1.5 1.5 0 0 1-1.5 1.5 1.5 1.5 0 0 1-1.5-1.5m0 11.9a1.5 1.5 0 0 1 1.5-1.5 1.5 1.5 0 0 1 1.5 1.5 1.5 1.5 0 0 1-1.5 1.5 1.5 1.5 0 0 1-1.5-1.5v-.02m0 11.92v-.02a1.5 1.5 0 0 1 1.5-1.5 1.5 1.5 0 0 1 1.5 1.5 1.5 1.5 0 0 1-1.5 1.5 1.5 1.5 0 0 1-1.5-1.5m0 11.9a1.5 1.5 0 0 1 1.5-1.5 1.5 1.5 0 0 1 1.5 1.5 1.5 1.5 0 0 1-1.5 1.5 1.5 1.5 0 0 1-1.5-1.5v-.02m0 11.92a1.5 1.5 0 0 1 1.5-1.5 1.5 1.5 0 0 1 1.5 1.5 1.5 1.5 0 0 1-1.5 1.5 1.5 1.5 0 0 1-1.5-1.5v-.03m0 11.9a1.5 1.5 0 0 1 1.5-1.5 1.5 1.5 0 0 1 1.5 1.5 1.5 1.5 0 0 1-1.5 1.5 1.5 1.5 0 0 1-1.5-1.5m-2.73 10v-.03a1.5 1.5 0 0 1 1.5-1.5 1.5 1.5 0 0 1 1.5 1.5 1.5 1.5 0 0 1-1.5 1.5 1.5 1.5 0 0 1-1.5-1.5m-7.3 7.32v-.03a1.5 1.5 0 0 1 1.5-1.5 1.5 1.5 0 0 1 1.5 1.5 1.5 1.5 0 0 1-1.5 1.5 1.5 1.5 0 0 1-1.5-1.5M560 1020v-.02a1.5 1.5 0 0 1 1.5-1.5 1.5 1.5 0 0 1 1.5 1.5 1.5 1.5 0 0 1-1.5 1.5 1.5 1.5 0 0 1-1.5-1.5m-11.43 0a1.5 1.5 0 0 1 1.5-1.5 1.5 1.5 0 0 1 1.5 1.5 1.5 1.5 0 0 1-1.5 1.5 1.5 1.5 0 0 1-1.5-1.5m-11.43 0a1.5 1.5 0 0 1 1.5-1.5 1.5 1.5 0 0 1 1.5 1.5 1.5 1.5 0 0 1-1.5 1.5 1.5 1.5 0 0 1-1.5-1.5m-11.43 0a1.5 1.5 0 0 1 1.5-1.5 1.5 1.5 0 0 1 1.5 1.5 1.5 1.5 0 0 1-1.5 1.5 1.5 1.5 0 0 1-1.5-1.5m-11.4 0a1.5 1.5 0 0 1 1.5-1.5 1.5 1.5 0 0 1 1.5 1.5 1.5 1.5 0 0 1-1.5 1.5 1.5 1.5 0 0 1-1.5-1.5m-11.44 0a1.5 1.5 0 0 1 1.5-1.5 1.5 1.5 0 0 1 1.5 1.5 1.5 1.5 0 0 1-1.5 1.5 1.5 1.5 0 0 1-1.5-1.5m-11.43 0a1.5 1.5 0 0 1 1.5-1.5 1.5 1.5 0 0 1 1.5 1.5 1.5 1.5 0 0 1-1.5 1.5 1.5 1.5 0 0 1-1.5-1.5m-11.43 0a1.5 1.5 0 0 1 1.5-1.5 1.5 1.5 0 0 1 1.5 1.5 1.5 1.5 0 0 1-1.5 1.5 1.5 1.5 0 0 1-1.5-1.5m-9.97-2.7v-.03a1.5 1.5 0 0 1 1.5-1.5 1.5 1.5 0 0 1 1.5 1.5 1.5 1.5 0 0 1-1.5 1.5 1.5 1.5 0 0 1-1.5-1.5m-7.3-7.28v-.03a1.5 1.5 0 0 1 1.5-1.5 1.5 1.5 0 0 1 1.5 1.5 1.5 1.5 0 0 1-1.5 1.5 1.5 1.5 0 0 1-1.5-1.5M460 1000a1.5 1.5 0 0 1 1.5-1.5 1.5 1.5 0 0 1 1.5 1.5 1.5 1.5 0 0 1-1.5 1.5 1.5 1.5 0 0 1-1.5-1.5m0-11.88a1.5 1.5 0 0 1 1.5-1.5 1.5 1.5 0 0 1 1.5 1.5 1.5 1.5 0 0 1-1.5 1.5 1.5 1.5 0 0 1-1.5-1.5v-.03m0-11.87a1.5 1.5 0 0 1 1.5-1.5 1.5 1.5 0 0 1 1.5 1.5 1.5 1.5 0 0 1-1.5 1.5 1.5 1.5 0 0 1-1.5-1.5v-.03m0-11.86v-.02a1.5 1.5 0 0 1 1.5-1.5 1.5 1.5 0 0 1 1.5 1.5 1.5 1.5 0 0 1-1.5 1.5 1.5 1.5 0 0 1-1.5-1.5m0-11.87v-.02a1.5 1.5 0 0 1 1.5-1.5 1.5 1.5 0 0 1 1.5 1.5 1.5 1.5 0 0 1-1.5 1.5 1.5 1.5 0 0 1-1.5-1.5m0-11.87v-.02a1.5 1.5 0 0 1 1.5-1.5 1.5 1.5 0 0 1 1.5 1.5 1.5 1.5 0 0 1-1.5 1.5 1.5 1.5 0 0 1-1.5-1.5m0-11.88a1.5 1.5 0 0 1 1.5-1.5 1.5 1.5 0 0 1 1.5 1.5 1.5 1.5 0 0 1-1.5 1.5 1.5 1.5 0 0 1-1.5-1.5v-.03m0-11.86a1.5 1.5 0 0 1 1.5-1.5 1.5 1.5 0 0 1 1.5 1.5 1.5 1.5 0 0 1-1.5 1.5 1.5 1.5 0 0 1-1.5-1.5v-.03m0-11.86a1.5 1.5 0 0 1 1.5-1.5 1.5 1.5 0 0 1 1.5 1.5 1.5 1.5 0 0 1-1.5 1.5 1.5 1.5 0 0 1-1.5-1.5v-.03m0-11.86v-.03a1.5 1.5 0 0 1 1.5-1.5 1.5 1.5 0 0 1 1.5 1.5 1.5 1.5 0 0 1-1.5 1.5 1.5 1.5 0 0 1-1.5-1.5m0-11.87v-.02a1.5 1.5 0 0 1 1.5-1.5 1.5 1.5 0 0 1 1.5 1.5 1.5 1.5 0 0 1-1.5 1.5 1.5 1.5 0 0 1-1.5-1.5m0-11.88a1.5 1.5 0 0 1 1.5-1.5 1.5 1.5 0 0 1 1.5 1.5 1.5 1.5 0 0 1-1.5 1.5 1.5 1.5 0 0 1-1.5-1.5v-.03m0-11.86a1.5 1.5 0 0 1 1.5-1.5 1.5 1.5 0 0 1 1.5 1.5 1.5 1.5 0 0 1-1.5 1.5 1.5 1.5 0 0 1-1.5-1.5v-.02m0-11.86a1.5 1.5 0 0 1 1.5-1.5 1.5 1.5 0 0 1 1.5 1.5 1.5 1.5 0 0 1-1.5 1.5 1.5 1.5 0 0 1-1.5-1.5v-.03m0-11.87v-.02a1.5 1.5 0 0 1 1.5-1.5 1.5 1.5 0 0 1 1.5 1.5 1.5 1.5 0 0 1-1.5 1.5 1.5 1.5 0 0 1-1.5-1.5m0-11.86v-.02a1.5 1.5 0 0 1 1.5-1.5 1.5 1.5 0 0 1 1.5 1.5 1.5 1.5 0 0 1-1.5 1.5 1.5 1.5 0 0 1-1.5-1.5m0-11.88a1.5 1.5 0 0 1 1.5-1.5 1.5 1.5 0 0 1 1.5 1.5 1.5 1.5 0 0 1-1.5 1.5 1.5 1.5 0 0 1-1.5-1.5v-.02m0-11.87a1.5 1.5 0 0 1 1.5-1.5 1.5 1.5 0 0 1 1.5 1.5 1.5 1.5 0 0 1-1.5 1.5 1.5 1.5 0 0 1-1.5-1.5v-.03m0-11.86a1.5 1.5 0 0 1 1.5-1.5 1.5 1.5 0 0 1 1.5 1.5 1.5 1.5 0 0 1-1.5 1.5 1.5 1.5 0 0 1-1.5-1.5v-.03m0-11.86v-.02a1.5 1.5 0 0 1 1.5-1.5 1.5 1.5 0 0 1 1.5 1.5 1.5 1.5 0 0 1-1.5 1.5 1.5 1.5 0 0 1-1.5-1.5m0-11.87v-.02a1.5 1.5 0 0 1 1.5-1.5 1.5 1.5 0 0 1 1.5 1.5 1.5 1.5 0 0 1-1.5 1.5 1.5 1.5 0 0 1-1.5-1.5m0-11.88a1.5 1.5 0 0 1 1.5-1.5 1.5 1.5 0 0 1 1.5 1.5 1.5 1.5 0 0 1-1.5 1.5 1.5 1.5 0 0 1-1.5-1.5v-.02m0-11.87v-.02a1.5 1.5 0 0 1 1.5-1.5 1.5 1.5 0 0 1 1.5 1.5 1.5 1.5 0 0 1-1.5 1.5 1.5 1.5 0 0 1-1.5-1.5v-.02m0-11.86a1.5 1.5 0 0 1 1.5-1.5 1.5 1.5 0 0 1 1.5 1.5 1.5 1.5 0 0 1-1.5 1.5 1.5 1.5 0 0 1-1.5-1.5v-.03m0-11.86a1.5 1.5 0 0 1 1.5-1.5 1.5 1.5 0 0 1 1.5 1.5 1.5 1.5 0 0 1-1.5 1.5 1.5 1.5 0 0 1-1.5-1.5v-.02m0-11.86v-.02a1.5 1.5 0 0 1 1.5-1.5 1.5 1.5 0 0 1 1.5 1.5 1.5 1.5 0 0 1-1.5 1.5 1.5 1.5 0 0 1-1.5-1.5m0-11.87v-.02a1.5 1.5 0 0 1 1.5-1.5 1.5 1.5 0 0 1 1.5 1.5 1.5 1.5 0 0 1-1.5 1.5 1.5 1.5 0 0 1-1.5-1.5m0-11.87a1.5 1.5 0 0 1 1.5-1.5 1.5 1.5 0 0 1 1.5 1.5 1.5 1.5 0 0 1-1.5 1.5 1.5 1.5 0 0 1-1.5-1.5v-.03m0-11.86a1.5 1.5 0 0 1 1.5-1.5 1.5 1.5 0 0 1 1.5 1.5 1.5 1.5 0 0 1-1.5 1.5 1.5 1.5 0 0 1-1.5-1.5V667m0-11.85a1.5 1.5 0 0 1 1.5-1.5 1.5 1.5 0 0 1 1.5 1.5 1.5 1.5 0 0 1-1.5 1.5 1.5 1.5 0 0 1-1.5-1.5v-.03m0-11.86v-.02a1.5 1.5 0 0 1 1.5-1.5 1.5 1.5 0 0 1 1.5 1.5 1.5 1.5 0 0 1-1.5 1.5 1.5 1.5 0 0 1-1.5-1.5m0-11.87v-.02a1.5 1.5 0 0 1 1.5-1.5 1.5 1.5 0 0 1 1.5 1.5 1.5 1.5 0 0 1-1.5 1.5 1.5 1.5 0 0 1-1.5-1.5m0-11.88a1.5 1.5 0 0 1 1.5-1.5 1.5 1.5 0 0 1 1.5 1.5 1.5 1.5 0 0 1-1.5 1.5 1.5 1.5 0 0 1-1.5-1.5v-.03m0-11.86a1.5 1.5 0 0 1 1.5-1.5 1.5 1.5 0 0 1 1.5 1.5 1.5 1.5 0 0 1-1.5 1.5 1.5 1.5 0 0 1-1.5-1.5v-.03m0-11.86v-.02a1.5 1.5 0 0 1 1.5-1.5 1.5 1.5 0 0 1 1.5 1.5 1.5 1.5 0 0 1-1.5 1.5 1.5 1.5 0 0 1-1.5-1.5v-.02m0-11.86v-.02a1.5 1.5 0 0 1 1.5-1.5 1.5 1.5 0 0 1 1.5 1.5 1.5 1.5 0 0 1-1.5 1.5 1.5 1.5 0 0 1-1.5-1.5m0-11.87a1.5 1.5 0 0 1 1.5-1.5 1.5 1.5 0 0 1 1.5 1.5 1.5 1.5 0 0 1-1.5 1.5 1.5 1.5 0 0 1-1.5-1.5v-.02m0-11.87a1.5 1.5 0 0 1 1.5-1.5 1.5 1.5 0 0 1 1.5 1.5 1.5 1.5 0 0 1-1.5 1.5 1.5 1.5 0 0 1-1.5-1.5"/><path d="M481.5 958.58h80v40h-80z" stroke="#000" stroke-width="3" fill="#979ea8"/><use xlink:href="#a" transform="matrix(1,0,0,1,486.4999633142447,963.5826771653544) translate(3.154320987654323 21.430555555555557)"/><use xlink:href="#b" transform="matrix(1,0,0,1,486.4999633142447,963.5826771653544) translate(50.54938271604939 21.430555555555557)"/><path d="M981.8 565.75a6 6 0 0 1 6-6h88a6 6 0 0 1 6 6v48a6 6 0 0 1-6 6h-88a6 6 0 0 1-6-6z" stroke="#000" stroke-opacity="0" stroke-width="2" fill-opacity="0"/><use xlink:href="#c" transform="matrix(1,0,0,1,986.7928476818158,564.750656167979) translate(-14.651234567901213 19.555555555555554)"/><use xlink:href="#d" transform="matrix(1,0,0,1,986.7928476818158,564.750656167979) translate(18.586419753086428 48.888888888888886)"/><path d="M981.5 822.33a6 6 0 0 1 6-6h88a6 6 0 0 1 6 6v115.34a6 6 0 0 1-6 6h-88a6 6 0 0 1-6-6z" stroke="#000" stroke-opacity="0" stroke-width="2" fill-opacity="0"/><use xlink:href="#e" transform="matrix(1,0,0,1,986.4999633142447,821.3333333333334) translate(15.157407407407415 19.888888888888896)"/><use xlink:href="#f" transform="matrix(1,0,0,1,986.4999633142447,821.3333333333334) translate(-3.1419753086419533 49.22222222222223)"/><use xlink:href="#g" transform="matrix(1,0,0,1,986.4999633142447,821.3333333333334) translate(9.11419753086421 78.55555555555556)"/><use xlink:href="#d" transform="matrix(1,0,0,1,986.4999633142447,821.3333333333334) translate(18.586419753086428 107.88888888888889)"/><path d="M541.5 820a20 20 0 0 1 20 20v98.58a20 20 0 0 1-20 20h-40a20 20 0 0 1-20-20V840a20 20 0 0 1 20-20z" stroke="#000" stroke-width="3" fill="#fff"/><use xlink:href="#h" transform="matrix(-1.8369701987210297e-16,-1,1,-1.8369701987210297e-16,486.4999633142446,953.5826771653542) translate(6.172839506172842 39.24305555555556)"/><use xlink:href="#b" transform="matrix(-1.8369701987210297e-16,-1,1,-1.8369701987210297e-16,486.4999633142446,953.5826771653542) translate(106.53086419753086 39.24305555555556)"/><path d="M541.5 721.42a20 20 0 0 1 20 20 20 20 0 0 1-20 20h-40a20 20 0 0 1-20-20 20 20 0 0 1 20-20z" stroke="#000" stroke-width="3" fill="#fff"/><use xlink:href="#i" transform="matrix(1,-2.4492935982947064e-16,2.4492935982947064e-16,1,486.4999633142448,726.4173228346456) translate(10.866111111111115 21.430555555555557)"/><path d="M481.5 581.42a20 20 0 0 1 20-20h40a20 20 0 0 1 20 20v20a20 20 0 0 1-20 20h-40a20 20 0 0 1-20-20z" stroke="#000" stroke-width="3" fill="url(#j)"/><use xlink:href="#k" transform="matrix(1,0,0,1,486.4999633142447,566.4173228346456) translate(1.728395061728392 28.930555555555557)"/><use xlink:href="#l" transform="matrix(1,0,0,1,486.4999633142447,566.4173228346456) translate(51.97530864197531 28.930555555555557)"/><path d="M981.8 695.88a6 6 0 0 1 6-6h87.4a6 6 0 0 1 6 6v48a6 6 0 0 1-6 6h-87.4a6 6 0 0 1-6-6z" stroke="#000" stroke-opacity="0" stroke-width="2" fill-opacity="0"/><use xlink:href="#m" transform="matrix(1,0,0,1,986.7928476818157,694.8753280839894) translate(20.861111111111118 19.555555555555554)"/><use xlink:href="#d" transform="matrix(1,0,0,1,986.7928476818157,694.8753280839894) translate(18.586419753086428 48.888888888888886)"/><path d="M523.5 637.08v28.68M519.5 637.08v28.68M511.5 642.24l10-17.32 10 17.32m-10-17.32v8.5M531.5 660.6l-10 17.32-10-17.32m10 17.32v-8.5M519.5 804.34v-27.26M523.5 804.34v-27.26M531.5 799.18l-10 17.32-10-17.32m10 17.32V808M511.5 782.24l10-17.32 10 17.32m-10-17.32v8.5" stroke="#000" stroke-width="2" fill="none"/><path d="M621.5 560a20 20 0 0 1 20-20h140a20 20 0 0 1 20 20v440a20 20 0 0 1-20 20h-140a20 20 0 0 1-20-20z" fill-opacity="0"/><path d="M620 560a1.5 1.5 0 0 1 1.5-1.5 1.5 1.5 0 0 1 1.5 1.5 1.5 1.5 0 0 1-1.5 1.5 1.5 1.5 0 0 1-1.5-1.5m2.73-9.96a1.5 1.5 0 0 1 1.5-1.5 1.5 1.5 0 0 1 1.5 1.5 1.5 1.5 0 0 1-1.5 1.5 1.5 1.5 0 0 1-1.5-1.5V550m7.3-7.26a1.5 1.5 0 0 1 1.5-1.5 1.5 1.5 0 0 1 1.5 1.5 1.5 1.5 0 0 1-1.5 1.5 1.5 1.5 0 0 1-1.5-1.5v-.03M640 540a1.5 1.5 0 0 1 1.5-1.5 1.5 1.5 0 0 1 1.5 1.5 1.5 1.5 0 0 1-1.5 1.5 1.5 1.5 0 0 1-1.5-1.5m11.67 0a1.5 1.5 0 0 1 1.5-1.5 1.5 1.5 0 0 1 1.5 1.5 1.5 1.5 0 0 1-1.5 1.5 1.5 1.5 0 0 1-1.5-1.5m11.66 0a1.5 1.5 0 0 1 1.5-1.5 1.5 1.5 0 0 1 1.5 1.5 1.5 1.5 0 0 1-1.5 1.5 1.5 1.5 0 0 1-1.5-1.5m11.67 0a1.5 1.5 0 0 1 1.5-1.5 1.5 1.5 0 0 1 1.5 1.5 1.5 1.5 0 0 1-1.5 1.5 1.5 1.5 0 0 1-1.5-1.5m11.67 0a1.5 1.5 0 0 1 1.5-1.5 1.5 1.5 0 0 1 1.5 1.5 1.5 1.5 0 0 1-1.5 1.5 1.5 1.5 0 0 1-1.5-1.5m11.66 0a1.5 1.5 0 0 1 1.5-1.5 1.5 1.5 0 0 1 1.5 1.5 1.5 1.5 0 0 1-1.5 1.5 1.5 1.5 0 0 1-1.5-1.5m11.67 0a1.5 1.5 0 0 1 1.5-1.5 1.5 1.5 0 0 1 1.5 1.5 1.5 1.5 0 0 1-1.5 1.5 1.5 1.5 0 0 1-1.5-1.5m11.67 0a1.5 1.5 0 0 1 1.5-1.5 1.5 1.5 0 0 1 1.5 1.5 1.5 1.5 0 0 1-1.5 1.5 1.5 1.5 0 0 1-1.5-1.5m11.66 0a1.5 1.5 0 0 1 1.5-1.5 1.5 1.5 0 0 1 1.5 1.5 1.5 1.5 0 0 1-1.5 1.5 1.5 1.5 0 0 1-1.5-1.5m11.67 0a1.5 1.5 0 0 1 1.5-1.5 1.5 1.5 0 0 1 1.5 1.5 1.5 1.5 0 0 1-1.5 1.5 1.5 1.5 0 0 1-1.5-1.5m11.67 0a1.5 1.5 0 0 1 1.5-1.5 1.5 1.5 0 0 1 1.5 1.5 1.5 1.5 0 0 1-1.5 1.5 1.5 1.5 0 0 1-1.5-1.5m11.66 0a1.5 1.5 0 0 1 1.5-1.5 1.5 1.5 0 0 1 1.5 1.5 1.5 1.5 0 0 1-1.5 1.5 1.5 1.5 0 0 1-1.5-1.5m11.67 0a1.5 1.5 0 0 1 1.5-1.5 1.5 1.5 0 0 1 1.5 1.5 1.5 1.5 0 0 1-1.5 1.5 1.5 1.5 0 0 1-1.5-1.5m9.97 2.74a1.5 1.5 0 0 1 1.5-1.5 1.5 1.5 0 0 1 1.5 1.5 1.5 1.5 0 0 1-1.5 1.5 1.5 1.5 0 0 1-1.5-1.5v-.03m7.3 7.34a1.5 1.5 0 0 1 1.5-1.5 1.5 1.5 0 0 1 1.5 1.5 1.5 1.5 0 0 1-1.5 1.5 1.5 1.5 0 0 1-1.5-1.5V550m2.73 10a1.5 1.5 0 0 1 1.5-1.5 1.5 1.5 0 0 1 1.5 1.5 1.5 1.5 0 0 1-1.5 1.5 1.5 1.5 0 0 1-1.5-1.5m0 11.9a1.5 1.5 0 0 1 1.5-1.5 1.5 1.5 0 0 1 1.5 1.5 1.5 1.5 0 0 1-1.5 1.5 1.5 1.5 0 0 1-1.5-1.5v-.02m0 11.92v-.02a1.5 1.5 0 0 1 1.5-1.5 1.5 1.5 0 0 1 1.5 1.5 1.5 1.5 0 0 1-1.5 1.5 1.5 1.5 0 0 1-1.5-1.5m0 11.9a1.5 1.5 0 0 1 1.5-1.5 1.5 1.5 0 0 1 1.5 1.5 1.5 1.5 0 0 1-1.5 1.5 1.5 1.5 0 0 1-1.5-1.5v-.02m0 11.92a1.5 1.5 0 0 1 1.5-1.5 1.5 1.5 0 0 1 1.5 1.5 1.5 1.5 0 0 1-1.5 1.5 1.5 1.5 0 0 1-1.5-1.5v-.03m0 11.92a1.5 1.5 0 0 1 1.5-1.5 1.5 1.5 0 0 1 1.5 1.5 1.5 1.5 0 0 1-1.5 1.5 1.5 1.5 0 0 1-1.5-1.5v-.03m0 11.93v-.02a1.5 1.5 0 0 1 1.5-1.5 1.5 1.5 0 0 1 1.5 1.5 1.5 1.5 0 0 1-1.5 1.5 1.5 1.5 0 0 1-1.5-1.5m0 11.9a1.5 1.5 0 0 1 1.5-1.5 1.5 1.5 0 0 1 1.5 1.5 1.5 1.5 0 0 1-1.5 1.5 1.5 1.5 0 0 1-1.5-1.5v-.02m0 11.92a1.5 1.5 0 0 1 1.5-1.5 1.5 1.5 0 0 1 1.5 1.5 1.5 1.5 0 0 1-1.5 1.5 1.5 1.5 0 0 1-1.5-1.5v-.03m0 11.92a1.5 1.5 0 0 1 1.5-1.5 1.5 1.5 0 0 1 1.5 1.5 1.5 1.5 0 0 1-1.5 1.5 1.5 1.5 0 0 1-1.5-1.5V667m0 11.93a1.5 1.5 0 0 1 1.5-1.5 1.5 1.5 0 0 1 1.5 1.5 1.5 1.5 0 0 1-1.5 1.5 1.5 1.5 0 0 1-1.5-1.5v-.03m0 11.93v-.02a1.5 1.5 0 0 1 1.5-1.5 1.5 1.5 0 0 1 1.5 1.5 1.5 1.5 0 0 1-1.5 1.5 1.5 1.5 0 0 1-1.5-1.5m0 11.92v-.02a1.5 1.5 0 0 1 1.5-1.5 1.5 1.5 0 0 1 1.5 1.5 1.5 1.5 0 0 1-1.5 1.5 1.5 1.5 0 0 1-1.5-1.5m0 11.9a1.5 1.5 0 0 1 1.5-1.5 1.5 1.5 0 0 1 1.5 1.5 1.5 1.5 0 0 1-1.5 1.5 1.5 1.5 0 0 1-1.5-1.5v-.02m0 11.92a1.5 1.5 0 0 1 1.5-1.5 1.5 1.5 0 0 1 1.5 1.5 1.5 1.5 0 0 1-1.5 1.5 1.5 1.5 0 0 1-1.5-1.5v-.03m0 11.92v-.02a1.5 1.5 0 0 1 1.5-1.5 1.5 1.5 0 0 1 1.5 1.5 1.5 1.5 0 0 1-1.5 1.5 1.5 1.5 0 0 1-1.5-1.5v-.02m0 11.92a1.5 1.5 0 0 1 1.5-1.5 1.5 1.5 0 0 1 1.5 1.5 1.5 1.5 0 0 1-1.5 1.5 1.5 1.5 0 0 1-1.5-1.5v-.02m0 11.92v-.02a1.5 1.5 0 0 1 1.5-1.5 1.5 1.5 0 0 1 1.5 1.5 1.5 1.5 0 0 1-1.5 1.5 1.5 1.5 0 0 1-1.5-1.5m0 11.9a1.5 1.5 0 0 1 1.5-1.5 1.5 1.5 0 0 1 1.5 1.5 1.5 1.5 0 0 1-1.5 1.5 1.5 1.5 0 0 1-1.5-1.5v-.02m0 11.92a1.5 1.5 0 0 1 1.5-1.5 1.5 1.5 0 0 1 1.5 1.5 1.5 1.5 0 0 1-1.5 1.5 1.5 1.5 0 0 1-1.5-1.5v-.03m0 11.92a1.5 1.5 0 0 1 1.5-1.5 1.5 1.5 0 0 1 1.5 1.5 1.5 1.5 0 0 1-1.5 1.5 1.5 1.5 0 0 1-1.5-1.5v-.03m0 11.92a1.5 1.5 0 0 1 1.5-1.5 1.5 1.5 0 0 1 1.5 1.5 1.5 1.5 0 0 1-1.5 1.5 1.5 1.5 0 0 1-1.5-1.5v-.02m0 11.92v-.02a1.5 1.5 0 0 1 1.5-1.5 1.5 1.5 0 0 1 1.5 1.5 1.5 1.5 0 0 1-1.5 1.5 1.5 1.5 0 0 1-1.5-1.5m0 11.9a1.5 1.5 0 0 1 1.5-1.5 1.5 1.5 0 0 1 1.5 1.5 1.5 1.5 0 0 1-1.5 1.5 1.5 1.5 0 0 1-1.5-1.5v-.02m0 11.92a1.5 1.5 0 0 1 1.5-1.5 1.5 1.5 0 0 1 1.5 1.5 1.5 1.5 0 0 1-1.5 1.5 1.5 1.5 0 0 1-1.5-1.5v-.03m0 11.9a1.5 1.5 0 0 1 1.5-1.5 1.5 1.5 0 0 1 1.5 1.5 1.5 1.5 0 0 1-1.5 1.5 1.5 1.5 0 0 1-1.5-1.5v-.02m0 11.92a1.5 1.5 0 0 1 1.5-1.5 1.5 1.5 0 0 1 1.5 1.5 1.5 1.5 0 0 1-1.5 1.5 1.5 1.5 0 0 1-1.5-1.5v-.03m0 11.93v-.02a1.5 1.5 0 0 1 1.5-1.5 1.5 1.5 0 0 1 1.5 1.5 1.5 1.5 0 0 1-1.5 1.5 1.5 1.5 0 0 1-1.5-1.5m0 11.9a1.5 1.5 0 0 1 1.5-1.5 1.5 1.5 0 0 1 1.5 1.5 1.5 1.5 0 0 1-1.5 1.5 1.5 1.5 0 0 1-1.5-1.5v-.02m0 11.92a1.5 1.5 0 0 1 1.5-1.5 1.5 1.5 0 0 1 1.5 1.5 1.5 1.5 0 0 1-1.5 1.5 1.5 1.5 0 0 1-1.5-1.5v-.03m0 11.92a1.5 1.5 0 0 1 1.5-1.5 1.5 1.5 0 0 1 1.5 1.5 1.5 1.5 0 0 1-1.5 1.5 1.5 1.5 0 0 1-1.5-1.5v-.03m0 11.92a1.5 1.5 0 0 1 1.5-1.5 1.5 1.5 0 0 1 1.5 1.5 1.5 1.5 0 0 1-1.5 1.5 1.5 1.5 0 0 1-1.5-1.5v-.03m0 11.93v-.02a1.5 1.5 0 0 1 1.5-1.5 1.5 1.5 0 0 1 1.5 1.5 1.5 1.5 0 0 1-1.5 1.5 1.5 1.5 0 0 1-1.5-1.5m0 11.9a1.5 1.5 0 0 1 1.5-1.5 1.5 1.5 0 0 1 1.5 1.5 1.5 1.5 0 0 1-1.5 1.5 1.5 1.5 0 0 1-1.5-1.5v-.02m0 11.92v-.02a1.5 1.5 0 0 1 1.5-1.5 1.5 1.5 0 0 1 1.5 1.5 1.5 1.5 0 0 1-1.5 1.5 1.5 1.5 0 0 1-1.5-1.5m0 11.9a1.5 1.5 0 0 1 1.5-1.5 1.5 1.5 0 0 1 1.5 1.5 1.5 1.5 0 0 1-1.5 1.5 1.5 1.5 0 0 1-1.5-1.5v-.02m0 11.92a1.5 1.5 0 0 1 1.5-1.5 1.5 1.5 0 0 1 1.5 1.5 1.5 1.5 0 0 1-1.5 1.5 1.5 1.5 0 0 1-1.5-1.5v-.03m0 11.9a1.5 1.5 0 0 1 1.5-1.5 1.5 1.5 0 0 1 1.5 1.5 1.5 1.5 0 0 1-1.5 1.5 1.5 1.5 0 0 1-1.5-1.5m-2.73 10v-.03a1.5 1.5 0 0 1 1.5-1.5 1.5 1.5 0 0 1 1.5 1.5 1.5 1.5 0 0 1-1.5 1.5 1.5 1.5 0 0 1-1.5-1.5m-7.3 7.32v-.03a1.5 1.5 0 0 1 1.5-1.5 1.5 1.5 0 0 1 1.5 1.5 1.5 1.5 0 0 1-1.5 1.5 1.5 1.5 0 0 1-1.5-1.5M780 1020v-.02a1.5 1.5 0 0 1 1.5-1.5 1.5 1.5 0 0 1 1.5 1.5 1.5 1.5 0 0 1-1.5 1.5 1.5 1.5 0 0 1-1.5-1.5m-11.67 0a1.5 1.5 0 0 1 1.5-1.5 1.5 1.5 0 0 1 1.5 1.5 1.5 1.5 0 0 1-1.5 1.5 1.5 1.5 0 0 1-1.5-1.5m-11.66 0a1.5 1.5 0 0 1 1.5-1.5 1.5 1.5 0 0 1 1.5 1.5 1.5 1.5 0 0 1-1.5 1.5 1.5 1.5 0 0 1-1.5-1.5m-11.67 0a1.5 1.5 0 0 1 1.5-1.5 1.5 1.5 0 0 1 1.5 1.5 1.5 1.5 0 0 1-1.5 1.5 1.5 1.5 0 0 1-1.5-1.5m-11.67 0a1.5 1.5 0 0 1 1.5-1.5 1.5 1.5 0 0 1 1.5 1.5 1.5 1.5 0 0 1-1.5 1.5 1.5 1.5 0 0 1-1.5-1.5m-11.66 0a1.5 1.5 0 0 1 1.5-1.5 1.5 1.5 0 0 1 1.5 1.5 1.5 1.5 0 0 1-1.5 1.5 1.5 1.5 0 0 1-1.5-1.5m-11.67 0a1.5 1.5 0 0 1 1.5-1.5 1.5 1.5 0 0 1 1.5 1.5 1.5 1.5 0 0 1-1.5 1.5 1.5 1.5 0 0 1-1.5-1.5m-11.67 0a1.5 1.5 0 0 1 1.5-1.5 1.5 1.5 0 0 1 1.5 1.5 1.5 1.5 0 0 1-1.5 1.5 1.5 1.5 0 0 1-1.5-1.5m-11.66 0a1.5 1.5 0 0 1 1.5-1.5 1.5 1.5 0 0 1 1.5 1.5 1.5 1.5 0 0 1-1.5 1.5 1.5 1.5 0 0 1-1.5-1.5m-11.67 0a1.5 1.5 0 0 1 1.5-1.5 1.5 1.5 0 0 1 1.5 1.5 1.5 1.5 0 0 1-1.5 1.5 1.5 1.5 0 0 1-1.5-1.5m-11.67 0a1.5 1.5 0 0 1 1.5-1.5 1.5 1.5 0 0 1 1.5 1.5 1.5 1.5 0 0 1-1.5 1.5 1.5 1.5 0 0 1-1.5-1.5m-11.66 0a1.5 1.5 0 0 1 1.5-1.5 1.5 1.5 0 0 1 1.5 1.5 1.5 1.5 0 0 1-1.5 1.5 1.5 1.5 0 0 1-1.5-1.5m-11.67 0a1.5 1.5 0 0 1 1.5-1.5 1.5 1.5 0 0 1 1.5 1.5 1.5 1.5 0 0 1-1.5 1.5 1.5 1.5 0 0 1-1.5-1.5m-9.97-2.7v-.03a1.5 1.5 0 0 1 1.5-1.5 1.5 1.5 0 0 1 1.5 1.5 1.5 1.5 0 0 1-1.5 1.5 1.5 1.5 0 0 1-1.5-1.5m-7.3-7.28v-.03a1.5 1.5 0 0 1 1.5-1.5 1.5 1.5 0 0 1 1.5 1.5 1.5 1.5 0 0 1-1.5 1.5 1.5 1.5 0 0 1-1.5-1.5M620 1000a1.5 1.5 0 0 1 1.5-1.5 1.5 1.5 0 0 1 1.5 1.5 1.5 1.5 0 0 1-1.5 1.5 1.5 1.5 0 0 1-1.5-1.5m0-11.88a1.5 1.5 0 0 1 1.5-1.5 1.5 1.5 0 0 1 1.5 1.5 1.5 1.5 0 0 1-1.5 1.5 1.5 1.5 0 0 1-1.5-1.5v-.03m0-11.87a1.5 1.5 0 0 1 1.5-1.5 1.5 1.5 0 0 1 1.5 1.5 1.5 1.5 0 0 1-1.5 1.5 1.5 1.5 0 0 1-1.5-1.5v-.03m0-11.86v-.02a1.5 1.5 0 0 1 1.5-1.5 1.5 1.5 0 0 1 1.5 1.5 1.5 1.5 0 0 1-1.5 1.5 1.5 1.5 0 0 1-1.5-1.5m0-11.87v-.02a1.5 1.5 0 0 1 1.5-1.5 1.5 1.5 0 0 1 1.5 1.5 1.5 1.5 0 0 1-1.5 1.5 1.5 1.5 0 0 1-1.5-1.5m0-11.87v-.02a1.5 1.5 0 0 1 1.5-1.5 1.5 1.5 0 0 1 1.5 1.5 1.5 1.5 0 0 1-1.5 1.5 1.5 1.5 0 0 1-1.5-1.5m0-11.88a1.5 1.5 0 0 1 1.5-1.5 1.5 1.5 0 0 1 1.5 1.5 1.5 1.5 0 0 1-1.5 1.5 1.5 1.5 0 0 1-1.5-1.5v-.03m0-11.86a1.5 1.5 0 0 1 1.5-1.5 1.5 1.5 0 0 1 1.5 1.5 1.5 1.5 0 0 1-1.5 1.5 1.5 1.5 0 0 1-1.5-1.5v-.03m0-11.86a1.5 1.5 0 0 1 1.5-1.5 1.5 1.5 0 0 1 1.5 1.5 1.5 1.5 0 0 1-1.5 1.5 1.5 1.5 0 0 1-1.5-1.5v-.03m0-11.86v-.03a1.5 1.5 0 0 1 1.5-1.5 1.5 1.5 0 0 1 1.5 1.5 1.5 1.5 0 0 1-1.5 1.5 1.5 1.5 0 0 1-1.5-1.5m0-11.87v-.02a1.5 1.5 0 0 1 1.5-1.5 1.5 1.5 0 0 1 1.5 1.5 1.5 1.5 0 0 1-1.5 1.5 1.5 1.5 0 0 1-1.5-1.5m0-11.88a1.5 1.5 0 0 1 1.5-1.5 1.5 1.5 0 0 1 1.5 1.5 1.5 1.5 0 0 1-1.5 1.5 1.5 1.5 0 0 1-1.5-1.5v-.03m0-11.86a1.5 1.5 0 0 1 1.5-1.5 1.5 1.5 0 0 1 1.5 1.5 1.5 1.5 0 0 1-1.5 1.5 1.5 1.5 0 0 1-1.5-1.5v-.02m0-11.86a1.5 1.5 0 0 1 1.5-1.5 1.5 1.5 0 0 1 1.5 1.5 1.5 1.5 0 0 1-1.5 1.5 1.5 1.5 0 0 1-1.5-1.5v-.03m0-11.87v-.02a1.5 1.5 0 0 1 1.5-1.5 1.5 1.5 0 0 1 1.5 1.5 1.5 1.5 0 0 1-1.5 1.5 1.5 1.5 0 0 1-1.5-1.5m0-11.86v-.02a1.5 1.5 0 0 1 1.5-1.5 1.5 1.5 0 0 1 1.5 1.5 1.5 1.5 0 0 1-1.5 1.5 1.5 1.5 0 0 1-1.5-1.5m0-11.88a1.5 1.5 0 0 1 1.5-1.5 1.5 1.5 0 0 1 1.5 1.5 1.5 1.5 0 0 1-1.5 1.5 1.5 1.5 0 0 1-1.5-1.5v-.02m0-11.87a1.5 1.5 0 0 1 1.5-1.5 1.5 1.5 0 0 1 1.5 1.5 1.5 1.5 0 0 1-1.5 1.5 1.5 1.5 0 0 1-1.5-1.5v-.03m0-11.86a1.5 1.5 0 0 1 1.5-1.5 1.5 1.5 0 0 1 1.5 1.5 1.5 1.5 0 0 1-1.5 1.5 1.5 1.5 0 0 1-1.5-1.5v-.03m0-11.86v-.02a1.5 1.5 0 0 1 1.5-1.5 1.5 1.5 0 0 1 1.5 1.5 1.5 1.5 0 0 1-1.5 1.5 1.5 1.5 0 0 1-1.5-1.5m0-11.87v-.02a1.5 1.5 0 0 1 1.5-1.5 1.5 1.5 0 0 1 1.5 1.5 1.5 1.5 0 0 1-1.5 1.5 1.5 1.5 0 0 1-1.5-1.5m0-11.88a1.5 1.5 0 0 1 1.5-1.5 1.5 1.5 0 0 1 1.5 1.5 1.5 1.5 0 0 1-1.5 1.5 1.5 1.5 0 0 1-1.5-1.5v-.02m0-11.87v-.02a1.5 1.5 0 0 1 1.5-1.5 1.5 1.5 0 0 1 1.5 1.5 1.5 1.5 0 0 1-1.5 1.5 1.5 1.5 0 0 1-1.5-1.5v-.02m0-11.86a1.5 1.5 0 0 1 1.5-1.5 1.5 1.5 0 0 1 1.5 1.5 1.5 1.5 0 0 1-1.5 1.5 1.5 1.5 0 0 1-1.5-1.5v-.03m0-11.86a1.5 1.5 0 0 1 1.5-1.5 1.5 1.5 0 0 1 1.5 1.5 1.5 1.5 0 0 1-1.5 1.5 1.5 1.5 0 0 1-1.5-1.5v-.02m0-11.86v-.02a1.5 1.5 0 0 1 1.5-1.5 1.5 1.5 0 0 1 1.5 1.5 1.5 1.5 0 0 1-1.5 1.5 1.5 1.5 0 0 1-1.5-1.5m0-11.87v-.02a1.5 1.5 0 0 1 1.5-1.5 1.5 1.5 0 0 1 1.5 1.5 1.5 1.5 0 0 1-1.5 1.5 1.5 1.5 0 0 1-1.5-1.5m0-11.87a1.5 1.5 0 0 1 1.5-1.5 1.5 1.5 0 0 1 1.5 1.5 1.5 1.5 0 0 1-1.5 1.5 1.5 1.5 0 0 1-1.5-1.5v-.03m0-11.86a1.5 1.5 0 0 1 1.5-1.5 1.5 1.5 0 0 1 1.5 1.5 1.5 1.5 0 0 1-1.5 1.5 1.5 1.5 0 0 1-1.5-1.5V667m0-11.85a1.5 1.5 0 0 1 1.5-1.5 1.5 1.5 0 0 1 1.5 1.5 1.5 1.5 0 0 1-1.5 1.5 1.5 1.5 0 0 1-1.5-1.5v-.03m0-11.86v-.02a1.5 1.5 0 0 1 1.5-1.5 1.5 1.5 0 0 1 1.5 1.5 1.5 1.5 0 0 1-1.5 1.5 1.5 1.5 0 0 1-1.5-1.5m0-11.87v-.02a1.5 1.5 0 0 1 1.5-1.5 1.5 1.5 0 0 1 1.5 1.5 1.5 1.5 0 0 1-1.5 1.5 1.5 1.5 0 0 1-1.5-1.5m0-11.88a1.5 1.5 0 0 1 1.5-1.5 1.5 1.5 0 0 1 1.5 1.5 1.5 1.5 0 0 1-1.5 1.5 1.5 1.5 0 0 1-1.5-1.5v-.03m0-11.86a1.5 1.5 0 0 1 1.5-1.5 1.5 1.5 0 0 1 1.5 1.5 1.5 1.5 0 0 1-1.5 1.5 1.5 1.5 0 0 1-1.5-1.5v-.03m0-11.86v-.02a1.5 1.5 0 0 1 1.5-1.5 1.5 1.5 0 0 1 1.5 1.5 1.5 1.5 0 0 1-1.5 1.5 1.5 1.5 0 0 1-1.5-1.5v-.02m0-11.86v-.02a1.5 1.5 0 0 1 1.5-1.5 1.5 1.5 0 0 1 1.5 1.5 1.5 1.5 0 0 1-1.5 1.5 1.5 1.5 0 0 1-1.5-1.5m0-11.87a1.5 1.5 0 0 1 1.5-1.5 1.5 1.5 0 0 1 1.5 1.5 1.5 1.5 0 0 1-1.5 1.5 1.5 1.5 0 0 1-1.5-1.5v-.02m0-11.87a1.5 1.5 0 0 1 1.5-1.5 1.5 1.5 0 0 1 1.5 1.5 1.5 1.5 0 0 1-1.5 1.5 1.5 1.5 0 0 1-1.5-1.5"/><path d="M641.5 958.58h140v40h-140z" stroke="#000" stroke-width="3" fill="#979ea8"/><use xlink:href="#a" transform="matrix(1,0,0,1,646.4999633142447,963.5826771653544) translate(33.65432098765432 21.430555555555557)"/><use xlink:href="#n" transform="matrix(1,0,0,1,646.4999633142447,963.5826771653544) translate(81.0493827160494 21.430555555555557)"/><path d="M681.5 820a20 20 0 0 1 20 20v98.58a20 20 0 0 1-20 20h-20a20 20 0 0 1-20-20V840a20 20 0 0 1 20-20z" stroke="#000" stroke-width="3" fill="#fff"/><use xlink:href="#o" transform="matrix(-1.8369701987210297e-16,-1,1,-1.8369701987210297e-16,646.4999633142446,953.5826771653542) translate(5.493827160493829 28.930555555555557)"/><use xlink:href="#p" transform="matrix(-1.8369701987210297e-16,-1,1,-1.8369701987210297e-16,646.4999633142446,953.5826771653542) translate(93.62962962962962 28.930555555555557)"/><path d="M761.5 721.42a20 20 0 0 1 20 20 20 20 0 0 1-20 20h-100a20 20 0 0 1-20-20 20 20 0 0 1 20-20z" stroke="#000" stroke-width="3" fill="#fff"/><use xlink:href="#i" transform="matrix(1,-2.4492935982947064e-16,2.4492935982947064e-16,1,646.4999633142448,726.4173228346456) translate(40.86611111111112 21.430555555555557)"/><path d="M641.5 581.42a20 20 0 0 1 20-20h20a20 20 0 0 1 20 20v18.33a20 20 0 0 1-20 20h-20a20 20 0 0 1-20-20z" stroke="#000" stroke-width="3" fill="url(#q)"/><use xlink:href="#r" transform="matrix(1,0,0,1,646.4999633142447,566.4173228346456) translate(3.276604938271605 19.555555555555557)"/><use xlink:href="#s" transform="matrix(1,0,0,1,646.4999633142447,566.4173228346456) translate(16.85685185185185 48.88888888888889)"/><path d="M673.5 635.4v30.36M669.5 635.4v30.36M661.5 640.57l10-17.32 10 17.32m-10-17.32v8.5M681.5 660.6l-10 17.32-10-17.32m10 17.32v-8.5M669.5 804.34v-27.26M673.5 804.34v-27.26M681.5 799.18l-10 17.32-10-17.32m10 17.32V808M661.5 782.24l10-17.32 10 17.32m-10-17.32v8.5" stroke="#000" stroke-width="2" fill="none"/><path d="M721.5 581.42a20 20 0 0 1 20-20h20a20 20 0 0 1 20 20v18.33a20 20 0 0 1-20 20h-20a20 20 0 0 1-20-20z" stroke="#000" stroke-width="3" fill="url(#t)"/><use xlink:href="#r" transform="matrix(1,0,0,1,726.4999633142447,566.4173228346456) translate(3.276604938271605 19.555555555555557)"/><use xlink:href="#u" transform="matrix(1,0,0,1,726.4999633142447,566.4173228346456) translate(16.211790123456787 48.88888888888889)"/><path d="M761.5 820a20 20 0 0 1 20 20v98.58a20 20 0 0 1-20 20h-20a20 20 0 0 1-20-20V840a20 20 0 0 1 20-20z" stroke="#000" stroke-width="3" fill="#fff"/><use xlink:href="#o" transform="matrix(-1.8369701987210297e-16,-1,1,-1.8369701987210297e-16,726.4999633142446,953.5826771653542) translate(5.493827160493829 28.930555555555557)"/><use xlink:href="#v" transform="matrix(-1.8369701987210297e-16,-1,1,-1.8369701987210297e-16,726.4999633142446,953.5826771653542) translate(93.62962962962962 28.930555555555557)"/><path d="M753.5 635.4v30.36M749.5 635.4v30.36M741.5 640.57l10-17.32 10 17.32m-10-17.32v8.5M761.5 660.6l-10 17.32-10-17.32m10 17.32v-8.5M753.5 777.08v27.26M749.5 777.08v27.26M741.5 782.24l10-17.32 10 17.32m-10-17.32v8.5M761.5 799.18l-10 17.32-10-17.32m10 17.32V808" stroke="#000" stroke-width="2" fill="none"/><path d="M861.5 958.58h80v40h-80z" stroke="#000" stroke-width="3" fill="#979ea8"/><use xlink:href="#a" transform="matrix(1,0,0,1,866.4999633142447,963.5826771653544) translate(3.867283950617285 21.430555555555557)"/><use xlink:href="#w" transform="matrix(1,0,0,1,866.4999633142447,963.5826771653544) translate(51.26234567901235 21.430555555555557)"/><path d="M921.5 820a20 20 0 0 1 20 20v98.58a20 20 0 0 1-20 20h-40a20 20 0 0 1-20-20V840a20 20 0 0 1 20-20z" stroke="#000" stroke-width="3" fill="#fff"/><use xlink:href="#h" transform="matrix(-1.8369701987210297e-16,-1,1,-1.8369701987210297e-16,866.4999633142446,953.5826771653543) translate(6.885802469135804 39.24305555555556)"/><use xlink:href="#w" transform="matrix(-1.8369701987210297e-16,-1,1,-1.8369701987210297e-16,866.4999633142446,953.5826771653543) translate(107.24382716049382 39.24305555555556)"/><path d="M921.5 721.42a20 20 0 0 1 20 20 20 20 0 0 1-20 20h-40a20 20 0 0 1-20-20 20 20 0 0 1 20-20z" stroke="#000" stroke-width="3" fill="#fff"/><use xlink:href="#i" transform="matrix(1,-2.4492935982947064e-16,2.4492935982947064e-16,1,866.4999633142448,726.4173228346456) translate(10.866111111111115 21.430555555555557)"/><path d="M861.5 581.42a20 20 0 0 1 20-20h40a20 20 0 0 1 20 20v20a20 20 0 0 1-20 20h-40a20 20 0 0 1-20-20z" stroke="#000" stroke-width="3" fill="url(#x)"/><use xlink:href="#k" transform="matrix(1,0,0,1,866.4999633142447,566.4173228346456) translate(1.0833333333333286 28.930555555555557)"/><use xlink:href="#y" transform="matrix(1,0,0,1,866.4999633142447,566.4173228346456) translate(51.33024691358025 28.930555555555557)"/><path d="M903.5 637.08v28.68M899.5 637.08v28.68M891.5 642.24l10-17.32 10 17.32m-10-17.32v8.5M911.5 660.6l-10 17.32-10-17.32m10 17.32v-8.5M899.5 804.34v-27.26M903.5 804.34v-27.26M911.5 799.18l-10 17.32-10-17.32m10 17.32V808M891.5 782.24l10-17.32 10 17.32m-10-17.32v8.5" stroke="#000" stroke-width="2" fill="none"/><path d="M921.5 681.42a20 20 0 0 1 20 20 20 20 0 0 1-20 20h-420a20 20 0 0 1-20-20 20 20 0 0 1 20-20z" stroke="#000" stroke-width="3" fill="#fff"/><use xlink:href="#z" transform="matrix(1,-2.4492935982947064e-16,2.4492935982947064e-16,1,486.4999633142448,686.4173228346456) translate(71.4124074074074 21.430555555555557)"/><use xlink:href="#A" transform="matrix(1,-2.4492935982947064e-16,2.4492935982947064e-16,1,486.4999633142448,686.4173228346456) translate(146.78277777777777 21.430555555555557)"/><use xlink:href="#B" transform="matrix(1,-2.4492935982947064e-16,2.4492935982947064e-16,1,486.4999633142448,686.4173228346456) translate(266.08524691358025 21.430555555555557)"/><use xlink:href="#C" transform="matrix(1,-2.4492935982947064e-16,2.4492935982947064e-16,1,486.4999633142448,686.4173228346456) translate(314.97413580246916 21.430555555555557)"/><path d="M461 721.4h3.97m7.94 0l7.95-.03m7.94-.02l7.92-.02m7.94-.02h7.94m7.94-.03l7.94-.02m7.94-.02l7.94-.02m7.93 0l7.93-.03m7.94-.02l7.94-.02m7.95-.02H592m7.92-.03l7.94-.02m7.94-.02l7.94-.02m7.94 0l7.94-.03m7.94-.02l7.93-.02m7.93-.02h7.94m7.94-.03l7.95-.02m7.94-.02l7.93-.02m7.93 0l7.94-.03m7.94 0l7.94-.03m7.94-.02l7.94-.02m7.94-.02l7.93-.02m7.94-.02l7.94-.02m7.95-.02l7.94-.02m7.93-.02l7.94-.02m7.93-.02l7.94-.02m7.94-.02l7.94-.02m7.94-.02l7.94-.02m7.94-.02l7.93-.02m7.94-.02l7.95-.02m7.94-.02l7.93-.02m7.94-.02l7.93-.02m7.94-.02l7.94-.02m7.94-.02l7.94-.02m7.94-.02l7.94-.02m7.94-.02l7.93-.02m7.95 0l7.94-.03m7.93-.03h7.94m7.94-.03h7.95m7.93-.03l7.94-.02m7.94-.02l7.94-.02m7.94 0l3.97-.02" stroke="#ba23f6" stroke-width="2" fill="none"/><path d="M461.03 722.4H460v-1.96h1.02zM1081.2 720.85h-1.02v-1.95h1.03z" stroke="#ba23f6" stroke-width=".05" fill="#ba23f6"/><path d="M100 546a6 6 0 0 1 6-6h248a6 6 0 0 1 6 6v148a6 6 0 0 1-6 6H106a6 6 0 0 1-6-6z" stroke="#000" stroke-opacity="0" stroke-width="3" fill="#fff" fill-opacity="0"/><use xlink:href="#D" transform="matrix(1,0,0,1,105,545) translate(11.96296296296299 29.576388888888886)"/><use xlink:href="#E" transform="matrix(1,0,0,1,105,545) translate(74.09876543209877 29.576388888888886)"/><use xlink:href="#F" transform="matrix(1,0,0,1,105,545) translate(9.283950617283978 66.90972222222221)"/><use xlink:href="#G" transform="matrix(1,0,0,1,105,545) translate(118.08641975308643 66.90972222222221)"/><use xlink:href="#H" transform="matrix(1,0,0,1,105,545) translate(21.51234567901237 104.24305555555554)"/><use xlink:href="#I" transform="matrix(1,0,0,1,105,545) translate(93.9320987654321 104.24305555555554)"/><use xlink:href="#J" transform="matrix(1,0,0,1,105,545) translate(154.42592592592592 104.24305555555554)"/><use xlink:href="#K" transform="matrix(1,0,0,1,105,545) translate(20.518518518518533 141.57638888888886)"/><use xlink:href="#L" transform="matrix(1,0,0,1,105,545) translate(63.7283950617284 141.57638888888886)"/><use xlink:href="#M" transform="matrix(1,0,0,1,105,545) translate(115.58024691358023 141.57638888888886)"/><path d="M360.97 619.77l2.95-.7m3.94-.94l5.9-1.4m3.94-.95l5.9-1.4m3.94-.94l5.9-1.4m3.93-.94l5.9-1.4m3.94-.95l5.9-1.4m3.95-.94l5.9-1.4m3.94-.93l5.9-1.4m3.92-.94l5.9-1.4m3.94-.95l5.9-1.4m3.94-.94l5.9-1.4m3.94-.94l5.9-1.4m3.94-.95l2.95-.7" stroke="#000" stroke-width="2" fill="none"/><path d="M361.22 620.7l-1.22.3v-2l.77-.2zM480 592.42l-.77.18-.45-1.9 1.22-.3z" stroke="#000" stroke-width=".05"/><path d="M90 825.3a6 6 0 0 1 6-6h268a6 6 0 0 1 6 6v148a6 6 0 0 1-6 6H96a6 6 0 0 1-6-6z" stroke="#000" stroke-opacity="0" stroke-width="3" fill="#fff" fill-opacity="0"/><g><use xlink:href="#D" transform="matrix(1,0,0,1,95,824.2913385826772) translate(46.981481481481495 29.576388888888886)"/><use xlink:href="#N" transform="matrix(1,0,0,1,95,824.2913385826772) translate(109.11728395061728 29.576388888888886)"/><use xlink:href="#O" transform="matrix(1,0,0,1,95,824.2913385826772) translate(9.864197530864232 66.90972222222221)"/><use xlink:href="#P" transform="matrix(1,0,0,1,95,824.2913385826772) translate(130.76543209876544 66.90972222222221)"/><use xlink:href="#Q" transform="matrix(1,0,0,1,95,824.2913385826772) translate(36.56790123456793 104.24305555555554)"/><use xlink:href="#R" transform="matrix(1,0,0,1,95,824.2913385826772) translate(181.58024691358025 104.24305555555554)"/><use xlink:href="#S" transform="matrix(1,0,0,1,95,824.2913385826772) translate(82.32716049382717 141.57638888888886)"/></g><path d="M371 899.2l2.94-.27m3.93-.35l5.9-.54m3.92-.36l5.88-.53m3.93-.36l5.9-.54m3.93-.36l5.9-.54m3.9-.36l5.9-.53m3.93-.36l5.9-.52m3.92-.36l5.9-.54m3.92-.35l5.9-.54m3.92-.37l5.9-.53m3.92-.36l5.9-.53m3.92-.35l2.94-.27" stroke="#000" stroke-width="2" fill="none"/><path d="M371.1 900.17l-1.1.1v-1.96l.93-.07zM480 890.27l-.93.1-.18-1.96 1.1-.1z" stroke="#000" stroke-width=".05"/><path d="M1140 575.88a6 6 0 0 1 6-6h148a6 6 0 0 1 6 6v108a6 6 0 0 1-6 6h-148a6 6 0 0 1-6-6z" stroke="#000" stroke-opacity="0" stroke-width="3" fill="#fff" fill-opacity="0"/><g><use xlink:href="#D" transform="matrix(1,0,0,1,1145,574.8753280839894) translate(13.728395061728413 28.326388888888886)"/><use xlink:href="#T" transform="matrix(1,0,0,1,1145,574.8753280839894) translate(75.8641975308642 28.326388888888886)"/><use xlink:href="#U" transform="matrix(1,0,0,1,1145,574.8753280839894) translate(1.6728395061728634 65.65972222222221)"/><use xlink:href="#V" transform="matrix(1,0,0,1,1145,574.8753280839894) translate(3.3580246913580396 102.99305555555554)"/></g><path d="M943.95 701.08l2.78-1.02m3.72-1.35l5.57-2m3.72-1.36l5.57-2.02m3.73-1.36l5.58-2.02m3.72-1.35l5.58-2.03m3.7-1.35l5.6-2.03m3.7-1.36l5.58-2.02m3.72-1.35l5.57-2.03m3.72-1.35l5.56-2.03m3.72-1.35l5.57-2.02m3.72-1.35l5.57-2.03m3.72-1.35l5.58-2.02m3.7-1.35l5.6-2.03m3.7-1.35l5.58-2.02m3.7-1.35l5.6-2.03m3.7-1.35l5.58-2.02m3.72-1.35l5.57-2.02m3.7-1.35l5.58-2.03m3.72-1.35l5.57-2.02m3.72-1.35l5.57-2.03m3.7-1.35l5.6-2.02m3.7-1.35l2.8-1" stroke="#000" stroke-width="2" fill="none"/><path d="M944.3 701.98l-1.38.5.1-1.06-.1-1 .72-.27zM1140 630.9l-.63.24-.67-1.83 1.3-.46z" stroke="#000" stroke-width=".05"/><path d="M1140 746a6 6 0 0 1 6-6h148a6 6 0 0 1 6 6v106.58a6 6 0 0 1-6 6h-148a6 6 0 0 1-6-6z" stroke="#000" stroke-opacity="0" stroke-width="3" fill="#fff" fill-opacity="0"/><g><use xlink:href="#D" transform="matrix(1,0,0,1,1145,745) translate(5.432098765432116 28.295138888888886)"/><use xlink:href="#W" transform="matrix(1,0,0,1,1145,745) translate(67.5679012345679 28.295138888888886)"/><use xlink:href="#X" transform="matrix(1,0,0,1,1145,745) translate(16.36419753086421 65.62847222222221)"/><use xlink:href="#Y" transform="matrix(1,0,0,1,1145,745) translate(69.85802469135803 65.62847222222221)"/><use xlink:href="#Z" transform="matrix(1,0,0,1,1145,745) translate(36.111111111111114 102.96180555555554)"/></g><path d="M943.96 741.7l2.93.86m3.9 1.15l5.84 1.72m3.9 1.15l5.86 1.72m3.9 1.14l5.85 1.7m3.9 1.16l5.86 1.72m3.9 1.15l5.86 1.72m3.9 1.13l5.85 1.72m3.92 1.15l5.85 1.72m3.9 1.14l5.85 1.72m3.9 1.15l5.86 1.72m3.9 1.14l5.85 1.7m3.9 1.16l5.85 1.72m3.9 1.15l5.86 1.72m3.9 1.14l5.85 1.7m3.9 1.16l5.84 1.72m3.9 1.14l5.86 1.72m3.9 1.15l5.85 1.7m3.9 1.15l5.86 1.72m3.9 1.15l5.86 1.72m3.9 1.14l5.85 1.72m3.9 1.15l2.94.86" stroke="#000" stroke-width="2" fill="none"/><path d="M944.26 740.77l-.55 1.87-.77-.23.08-.98-.08-1.04zM1140 798.27v2.04l-1.26-.36.55-1.87z" stroke="#000" stroke-width=".05"/><defs><path d="M197 0v-115H63V0H30v-248h33v105h134v-105h34V0h-34" id="aa"/><path d="M266 0h-40l-56-210L115 0H75L2-248h35L96-30l15-64 43-154h32l59 218 59-218h35" id="ab"/><g id="a"><use transform="matrix(0.06790123456790123,0,0,0.06790123456790123,0,0)" xlink:href="#aa"/><use transform="matrix(0.06790123456790123,0,0,0.06790123456790123,17.586419753086417,0)" xlink:href="#ab"/></g><path d="M195 0l-74-108L45 0H8l94-129-87-119h37l69 98 67-98h37l-84 118L233 0h-38" id="ac"/><use transform="matrix(0.06790123456790123,0,0,0.06790123456790123,0,0)" xlink:href="#ac" id="b"/><path fill="#ba23f6" d="M205 0l-28-72H64L36 0H1l101-248h38L239 0h-34zm-38-99l-47-123c-12 45-31 82-46 123h93" id="ad"/><path fill="#ba23f6" d="M115-194c55 1 70 41 70 98S169 2 115 4C84 4 66-9 55-30l1 105H24l-1-265h31l2 30c10-21 28-34 59-34zm-8 174c40 0 45-34 45-75s-6-73-45-74c-42 0-51 32-51 76 0 43 10 73 51 73" id="ae"/><path fill="#ba23f6" d="M24 0v-261h32V0H24" id="af"/><path fill="#ba23f6" d="M24-231v-30h32v30H24zM24 0v-190h32V0H24" id="ag"/><path fill="#ba23f6" d="M96-169c-40 0-48 33-48 73s9 75 48 75c24 0 41-14 43-38l32 2c-6 37-31 61-74 61-59 0-76-41-82-99-10-93 101-131 147-64 4 7 5 14 7 22l-32 3c-4-21-16-35-41-35" id="ah"/><path fill="#ba23f6" d="M141-36C126-15 110 5 73 4 37 3 15-17 15-53c-1-64 63-63 125-63 3-35-9-54-41-54-24 1-41 7-42 31l-33-3c5-37 33-52 76-52 45 0 72 20 72 64v82c-1 20 7 32 28 27v20c-31 9-61-2-59-35zM48-53c0 20 12 33 32 33 41-3 63-29 60-74-43 2-92-5-92 41" id="ai"/><path fill="#ba23f6" d="M59-47c-2 24 18 29 38 22v24C64 9 27 4 27-40v-127H5v-23h24l9-43h21v43h35v23H59v120" id="aj"/><path fill="#ba23f6" d="M100-194c62-1 85 37 85 99 1 63-27 99-86 99S16-35 15-95c0-66 28-99 85-99zM99-20c44 1 53-31 53-75 0-43-8-75-51-75s-53 32-53 75 10 74 51 75" id="ak"/><path fill="#ba23f6" d="M117-194c89-4 53 116 60 194h-32v-121c0-31-8-49-39-48C34-167 62-67 57 0H25l-1-190h30c1 10-1 24 2 32 11-22 29-35 61-36" id="al"/><g id="c"><use transform="matrix(0.06790123456790122,0,0,0.06790123456790122,0,0)" xlink:href="#ad"/><use transform="matrix(0.06790123456790122,0,0,0.06790123456790122,16.29629629629629,0)" xlink:href="#ae"/><use transform="matrix(0.06790123456790122,0,0,0.06790123456790122,29.876543209876534,0)" xlink:href="#ae"/><use transform="matrix(0.06790123456790122,0,0,0.06790123456790122,43.45679012345678,0)" xlink:href="#af"/><use transform="matrix(0.06790123456790122,0,0,0.06790123456790122,48.82098765432097,0)" xlink:href="#ag"/><use transform="matrix(0.06790123456790122,0,0,0.06790123456790122,54.18518518518517,0)" xlink:href="#ah"/><use transform="matrix(0.06790123456790122,0,0,0.06790123456790122,66.40740740740739,0)" xlink:href="#ai"/><use transform="matrix(0.06790123456790122,0,0,0.06790123456790122,79.98765432098763,0)" xlink:href="#aj"/><use transform="matrix(0.06790123456790122,0,0,0.06790123456790122,86.77777777777776,0)" xlink:href="#ag"/><use transform="matrix(0.06790123456790122,0,0,0.06790123456790122,92.14197530864195,0)" xlink:href="#ak"/><use transform="matrix(0.06790123456790122,0,0,0.06790123456790122,105.72222222222219,0)" xlink:href="#al"/></g><path fill="#ba23f6" d="M179-190L93 31C79 59 56 82 12 73V49c39 6 53-20 64-50L1-190h34L92-34l54-156h33" id="am"/><path fill="#ba23f6" d="M100-194c63 0 86 42 84 106H49c0 40 14 67 53 68 26 1 43-12 49-29l28 8c-11 28-37 45-77 45C44 4 14-33 15-96c1-61 26-98 85-98zm52 81c6-60-76-77-97-28-3 7-6 17-6 28h103" id="an"/><path fill="#ba23f6" d="M114-163C36-179 61-72 57 0H25l-1-190h30c1 12-1 29 2 39 6-27 23-49 58-41v29" id="ao"/><g id="d"><use transform="matrix(0.06790123456790122,0,0,0.06790123456790122,0,0)" xlink:href="#af"/><use transform="matrix(0.06790123456790122,0,0,0.06790123456790122,5.364197530864196,0)" xlink:href="#ai"/><use transform="matrix(0.06790123456790122,0,0,0.06790123456790122,18.94444444444444,0)" xlink:href="#am"/><use transform="matrix(0.06790123456790122,0,0,0.06790123456790122,31.166666666666657,0)" xlink:href="#an"/><use transform="matrix(0.06790123456790122,0,0,0.06790123456790122,44.7469135802469,0)" xlink:href="#ao"/></g><path fill="#ba23f6" d="M160-131c35 5 61 23 61 61C221 17 115-2 30 0v-248c76 3 177-17 177 60 0 33-19 50-47 57zm-97-11c50-1 110 9 110-42 0-47-63-36-110-37v79zm0 115c55-2 124 14 124-45 0-56-70-42-124-44v89" id="ap"/><path fill="#ba23f6" d="M135-143c-3-34-86-38-87 0 15 53 115 12 119 90S17 21 10-45l28-5c4 36 97 45 98 0-10-56-113-15-118-90-4-57 82-63 122-42 12 7 21 19 24 35" id="aq"/><g id="e"><use transform="matrix(0.06790123456790122,0,0,0.06790123456790122,0,0)" xlink:href="#ap"/><use transform="matrix(0.06790123456790122,0,0,0.06790123456790122,16.29629629629629,0)" xlink:href="#ai"/><use transform="matrix(0.06790123456790122,0,0,0.06790123456790122,29.876543209876534,0)" xlink:href="#aq"/><use transform="matrix(0.06790123456790122,0,0,0.06790123456790122,42.09876543209875,0)" xlink:href="#ag"/><use transform="matrix(0.06790123456790122,0,0,0.06790123456790122,47.46296296296295,0)" xlink:href="#ah"/></g><path fill="#ba23f6" d="M185-189c-5-48-123-54-124 2 14 75 158 14 163 119 3 78-121 87-175 55-17-10-28-26-33-46l33-7c5 56 141 63 141-1 0-78-155-14-162-118-5-82 145-84 179-34 5 7 8 16 11 25" id="ar"/><path fill="#ba23f6" d="M101-234c-31-9-42 10-38 44h38v23H63V0H32v-167H5v-23h27c-7-52 17-82 69-68v24" id="as"/><path fill="#ba23f6" d="M206 0h-36l-40-164L89 0H53L-1-190h32L70-26l43-164h34l41 164 42-164h31" id="at"/><g id="f"><use transform="matrix(0.06790123456790122,0,0,0.06790123456790122,0,0)" xlink:href="#ar"/><use transform="matrix(0.06790123456790122,0,0,0.06790123456790122,16.29629629629629,0)" xlink:href="#ak"/><use transform="matrix(0.06790123456790122,0,0,0.06790123456790122,29.876543209876534,0)" xlink:href="#as"/><use transform="matrix(0.06790123456790122,0,0,0.06790123456790122,36.66666666666666,0)" xlink:href="#aj"/><use transform="matrix(0.06790123456790122,0,0,0.06790123456790122,43.45679012345678,0)" xlink:href="#at"/><use transform="matrix(0.06790123456790122,0,0,0.06790123456790122,61.04320987654319,0)" xlink:href="#ai"/><use transform="matrix(0.06790123456790122,0,0,0.06790123456790122,74.62345679012343,0)" xlink:href="#ao"/><use transform="matrix(0.06790123456790122,0,0,0.06790123456790122,82.70370370370367,0)" xlink:href="#an"/></g><path fill="#ba23f6" d="M87 75C49 33 22-17 22-94c0-76 28-126 65-167h31c-38 41-64 92-64 168S80 34 118 75H87" id="au"/><path fill="#ba23f6" d="M266 0h-40l-56-210L115 0H75L2-248h35L96-30l15-64 43-154h32l59 218 59-218h35" id="av"/><path fill="#ba23f6" d="M33-261c38 41 65 92 65 168S71 34 33 75H2C39 34 66-17 66-93S39-220 2-261h31" id="aw"/><g id="g"><use transform="matrix(0.06790123456790122,0,0,0.06790123456790122,0,0)" xlink:href="#au"/><use transform="matrix(0.06790123456790122,0,0,0.06790123456790122,8.080246913580245,0)" xlink:href="#ap"/><use transform="matrix(0.06790123456790122,0,0,0.06790123456790122,24.376543209876537,0)" xlink:href="#ar"/><use transform="matrix(0.06790123456790122,0,0,0.06790123456790122,40.67283950617283,0)" xlink:href="#av"/><use transform="matrix(0.06790123456790122,0,0,0.06790123456790122,63.69135802469134,0)" xlink:href="#aw"/></g><path d="M185-189c-5-48-123-54-124 2 14 75 158 14 163 119 3 78-121 87-175 55-17-10-28-26-33-46l33-7c5 56 141 63 141-1 0-78-155-14-162-118-5-82 145-84 179-34 5 7 8 16 11 25" id="ax"/><path d="M100-194c63 0 86 42 84 106H49c0 40 14 67 53 68 26 1 43-12 49-29l28 8c-11 28-37 45-77 45C44 4 14-33 15-96c1-61 26-98 85-98zm52 81c6-60-76-77-97-28-3 7-6 17-6 28h103" id="ay"/><path d="M114-163C36-179 61-72 57 0H25l-1-190h30c1 12-1 29 2 39 6-27 23-49 58-41v29" id="az"/><path d="M108 0H70L1-190h34L89-25l56-165h34" id="aA"/><path d="M24-231v-30h32v30H24zM24 0v-190h32V0H24" id="aB"/><path d="M96-169c-40 0-48 33-48 73s9 75 48 75c24 0 41-14 43-38l32 2c-6 37-31 61-74 61-59 0-76-41-82-99-10-93 101-131 147-64 4 7 5 14 7 22l-32 3c-4-21-16-35-41-35" id="aC"/><path d="M135-143c-3-34-86-38-87 0 15 53 115 12 119 90S17 21 10-45l28-5c4 36 97 45 98 0-10-56-113-15-118-90-4-57 82-63 122-42 12 7 21 19 24 35" id="aD"/><g id="h"><use transform="matrix(0.06790123456790123,0,0,0.06790123456790123,0,0)" xlink:href="#ax"/><use transform="matrix(0.06790123456790123,0,0,0.06790123456790123,16.296296296296294,0)" xlink:href="#ay"/><use transform="matrix(0.06790123456790123,0,0,0.06790123456790123,29.87654320987654,0)" xlink:href="#az"/><use transform="matrix(0.06790123456790123,0,0,0.06790123456790123,37.95679012345679,0)" xlink:href="#aA"/><use transform="matrix(0.06790123456790123,0,0,0.06790123456790123,50.179012345679,0)" xlink:href="#aB"/><use transform="matrix(0.06790123456790123,0,0,0.06790123456790123,55.5432098765432,0)" xlink:href="#aC"/><use transform="matrix(0.06790123456790123,0,0,0.06790123456790123,67.76543209876542,0)" xlink:href="#ay"/><use transform="matrix(0.06790123456790123,0,0,0.06790123456790123,81.34567901234567,0)" xlink:href="#aD"/></g><path d="M233-177c-1 41-23 64-60 70L243 0h-38l-65-103H63V0H30v-248c88 3 205-21 203 71zM63-129c60-2 137 13 137-47 0-61-80-42-137-45v92" id="aE"/><path d="M127-220V0H93v-220H8v-28h204v28h-85" id="aF"/><path d="M30 0v-248h187v28H63v79h144v27H63v87h162V0H30" id="aG"/><g id="i"><use transform="matrix(0.06790123456790123,0,0,0.06790123456790123,0,0)" xlink:href="#aE"/><use transform="matrix(0.06790123456790123,0,0,0.06790123456790123,17.111111111111107,0)" xlink:href="#aF"/><use transform="matrix(0.06790123456790123,0,0,0.06790123456790123,31.981481481481477,0)" xlink:href="#aG"/></g><linearGradient gradientUnits="userSpaceOnUse" id="j" x1="481.5" y1="561.42" x2="481.5" y2="621.42"><stop offset="24.28%" stop-color="#c3f7c8"/><stop offset="44.2%" stop-color="#cfe4ff"/></linearGradient><path d="M205 0l-28-72H64L36 0H1l101-248h38L239 0h-34zm-38-99l-47-123c-12 45-31 82-46 123h93" id="aH"/><path d="M115-194c55 1 70 41 70 98S169 2 115 4C84 4 66-9 55-30l1 105H24l-1-265h31l2 30c10-21 28-34 59-34zm-8 174c40 0 45-34 45-75s-6-73-45-74c-42 0-51 32-51 76 0 43 10 73 51 73" id="aI"/><g id="k"><use transform="matrix(0.06790123456790124,0,0,0.06790123456790124,0,0)" xlink:href="#aH"/><use transform="matrix(0.06790123456790124,0,0,0.06790123456790124,16.296296296296298,0)" xlink:href="#aI"/><use transform="matrix(0.06790123456790124,0,0,0.06790123456790124,29.876543209876544,0)" xlink:href="#aI"/></g><use transform="matrix(0.06790123456790124,0,0,0.06790123456790124,0,0)" xlink:href="#aH" id="l"/><path fill="#ba23f6" d="M233-177c-1 41-23 64-60 70L243 0h-38l-65-103H63V0H30v-248c88 3 205-21 203 71zM63-129c60-2 137 13 137-47 0-61-80-42-137-45v92" id="aJ"/><path fill="#ba23f6" d="M127-220V0H93v-220H8v-28h204v28h-85" id="aK"/><path fill="#ba23f6" d="M30 0v-248h187v28H63v79h144v27H63v87h162V0H30" id="aL"/><g id="m"><use transform="matrix(0.06790123456790122,0,0,0.06790123456790122,0,0)" xlink:href="#aJ"/><use transform="matrix(0.06790123456790122,0,0,0.06790123456790122,17.111111111111107,0)" xlink:href="#aK"/><use transform="matrix(0.06790123456790122,0,0,0.06790123456790122,31.981481481481474,0)" xlink:href="#aL"/></g><path d="M137-103V0h-34v-103L8-248h37l75 118 75-118h37" id="aM"/><use transform="matrix(0.06790123456790123,0,0,0.06790123456790123,0,0)" xlink:href="#aM" id="n"/><g id="o"><use transform="matrix(0.06790123456790123,0,0,0.06790123456790123,0,0)" xlink:href="#ax"/><use transform="matrix(0.06790123456790123,0,0,0.06790123456790123,16.296296296296294,0)" xlink:href="#ay"/><use transform="matrix(0.06790123456790123,0,0,0.06790123456790123,29.87654320987654,0)" xlink:href="#az"/><use transform="matrix(0.06790123456790123,0,0,0.06790123456790123,37.95679012345679,0)" xlink:href="#aA"/><use transform="matrix(0.06790123456790123,0,0,0.06790123456790123,50.179012345679,0)" xlink:href="#aB"/><use transform="matrix(0.06790123456790123,0,0,0.06790123456790123,55.5432098765432,0)" xlink:href="#aC"/><use transform="matrix(0.06790123456790123,0,0,0.06790123456790123,67.76543209876542,0)" xlink:href="#ay"/></g><path d="M101-251c68 0 85 55 85 127S166 4 100 4C33 4 14-52 14-124c0-73 17-127 87-127zm-1 229c47 0 54-49 54-102s-4-102-53-102c-51 0-55 48-55 102 0 53 5 102 54 102" id="aN"/><g id="p"><use transform="matrix(0.06790123456790123,0,0,0.06790123456790123,0,0)" xlink:href="#aM"/><use transform="matrix(0.06790123456790123,0,0,0.06790123456790123,16.296296296296294,0)" xlink:href="#aN"/></g><linearGradient gradientUnits="userSpaceOnUse" id="q" x1="641.5" y1="561.42" x2="641.5" y2="619.75"><stop offset="24.28%" stop-color="#c3f7c8"/><stop offset="44.2%" stop-color="#cfe4ff"/></linearGradient><g id="r"><use transform="matrix(0.06790123456790124,0,0,0.06790123456790124,0,0)" xlink:href="#aH"/><use transform="matrix(0.06790123456790124,0,0,0.06790123456790124,16.296296296296298,0)" xlink:href="#aI"/><use transform="matrix(0.06790123456790124,0,0,0.06790123456790124,29.876543209876544,0)" xlink:href="#aI"/></g><path d="M160-131c35 5 61 23 61 61C221 17 115-2 30 0v-248c76 3 177-17 177 60 0 33-19 50-47 57zm-97-11c50-1 110 9 110-42 0-47-63-36-110-37v79zm0 115c55-2 124 14 124-45 0-56-70-42-124-44v89" id="aO"/><use transform="matrix(0.06790123456790124,0,0,0.06790123456790124,0,0)" xlink:href="#aO" id="s"/><linearGradient gradientUnits="userSpaceOnUse" id="t" x1="721.5" y1="561.42" x2="721.5" y2="619.75"><stop offset="24.28%" stop-color="#c3f7c8"/><stop offset="44.2%" stop-color="#cfe4ff"/></linearGradient><path d="M212-179c-10-28-35-45-73-45-59 0-87 40-87 99 0 60 29 101 89 101 43 0 62-24 78-52l27 14C228-24 195 4 139 4 59 4 22-46 18-125c-6-104 99-153 187-111 19 9 31 26 39 46" id="aP"/><use transform="matrix(0.06790123456790124,0,0,0.06790123456790124,0,0)" xlink:href="#aP" id="u"/><path d="M27 0v-27h64v-190l-56 39v-29l58-41h29v221h61V0H27" id="aQ"/><g id="v"><use transform="matrix(0.06790123456790123,0,0,0.06790123456790123,0,0)" xlink:href="#aM"/><use transform="matrix(0.06790123456790123,0,0,0.06790123456790123,16.296296296296294,0)" xlink:href="#aQ"/></g><path d="M209 0H11v-25l151-195H24v-28h176v25L50-27h159V0" id="aR"/><use transform="matrix(0.06790123456790123,0,0,0.06790123456790123,0,0)" xlink:href="#aR" id="w"/><linearGradient gradientUnits="userSpaceOnUse" id="x" x1="861.5" y1="561.42" x2="861.5" y2="621.42"><stop offset="24.28%" stop-color="#c3f7c8"/><stop offset="44.2%" stop-color="#cfe4ff"/></linearGradient><path d="M30-248c118-7 216 8 213 122C240-48 200 0 122 0H30v-248zM63-27c89 8 146-16 146-99s-60-101-146-95v194" id="aS"/><use transform="matrix(0.06790123456790124,0,0,0.06790123456790124,0,0)" xlink:href="#aS" id="y"/><path d="M137 0h-34L2-248h35l83 218 83-218h36" id="aT"/><path d="M59-47c-2 24 18 29 38 22v24C64 9 27 4 27-40v-127H5v-23h24l9-43h21v43h35v23H59v120" id="aU"/><path d="M84 4C-5 8 30-112 23-190h32v120c0 31 7 50 39 49 72-2 45-101 50-169h31l1 190h-30c-1-10 1-25-2-33-11 22-28 36-60 37" id="aV"/><path d="M141-36C126-15 110 5 73 4 37 3 15-17 15-53c-1-64 63-63 125-63 3-35-9-54-41-54-24 1-41 7-42 31l-33-3c5-37 33-52 76-52 45 0 72 20 72 64v82c-1 20 7 32 28 27v20c-31 9-61-2-59-35zM48-53c0 20 12 33 32 33 41-3 63-29 60-74-43 2-92-5-92 41" id="aW"/><path d="M24 0v-261h32V0H24" id="aX"/><g id="z"><use transform="matrix(0.06790123456790123,0,0,0.06790123456790123,0,0)" xlink:href="#aT"/><use transform="matrix(0.06790123456790123,0,0,0.06790123456790123,15.820987654320986,0)" xlink:href="#aB"/><use transform="matrix(0.06790123456790123,0,0,0.06790123456790123,21.185185185185183,0)" xlink:href="#az"/><use transform="matrix(0.06790123456790123,0,0,0.06790123456790123,29.26543209876543,0)" xlink:href="#aU"/><use transform="matrix(0.06790123456790123,0,0,0.06790123456790123,36.05555555555555,0)" xlink:href="#aV"/><use transform="matrix(0.06790123456790123,0,0,0.06790123456790123,49.635802469135804,0)" xlink:href="#aW"/><use transform="matrix(0.06790123456790123,0,0,0.06790123456790123,63.21604938271605,0)" xlink:href="#aX"/></g><path d="M63-220v92h138v28H63V0H30v-248h175v28H63" id="aY"/><path d="M117-194c89-4 53 116 60 194h-32v-121c0-31-8-49-39-48C34-167 62-67 57 0H25l-1-190h30c1 10-1 24 2 32 11-22 29-35 61-36" id="aZ"/><path d="M100-194c62-1 85 37 85 99 1 63-27 99-86 99S16-35 15-95c0-66 28-99 85-99zM99-20c44 1 53-31 53-75 0-43-8-75-51-75s-53 32-53 75 10 74 51 75" id="ba"/><g id="A"><use transform="matrix(0.06790123456790123,0,0,0.06790123456790123,0,0)" xlink:href="#aY"/><use transform="matrix(0.06790123456790123,0,0,0.06790123456790123,14.87037037037037,0)" xlink:href="#aV"/><use transform="matrix(0.06790123456790123,0,0,0.06790123456790123,28.450617283950617,0)" xlink:href="#aZ"/><use transform="matrix(0.06790123456790123,0,0,0.06790123456790123,42.03086419753086,0)" xlink:href="#aC"/><use transform="matrix(0.06790123456790123,0,0,0.06790123456790123,54.25308641975308,0)" xlink:href="#aU"/><use transform="matrix(0.06790123456790123,0,0,0.06790123456790123,61.0432098765432,0)" xlink:href="#aB"/><use transform="matrix(0.06790123456790123,0,0,0.06790123456790123,66.4074074074074,0)" xlink:href="#ba"/><use transform="matrix(0.06790123456790123,0,0,0.06790123456790123,79.98765432098764,0)" xlink:href="#aZ"/><use transform="matrix(0.06790123456790123,0,0,0.06790123456790123,93.5679012345679,0)" xlink:href="#aW"/><use transform="matrix(0.06790123456790123,0,0,0.06790123456790123,107.14814814814815,0)" xlink:href="#aX"/></g><g id="B"><use transform="matrix(0.06790123456790123,0,0,0.06790123456790123,0,0)" xlink:href="#aO"/><use transform="matrix(0.06790123456790123,0,0,0.06790123456790123,16.296296296296294,0)" xlink:href="#aV"/><use transform="matrix(0.06790123456790123,0,0,0.06790123456790123,29.87654320987654,0)" xlink:href="#aD"/></g><path d="M87 75C49 33 22-17 22-94c0-76 28-126 65-167h31c-38 41-64 92-64 168S80 34 118 75H87" id="bb"/><path d="M33-261c38 41 65 92 65 168S71 34 33 75H2C39 34 66-17 66-93S39-220 2-261h31" id="bc"/><g id="C"><use transform="matrix(0.06790123456790123,0,0,0.06790123456790123,0,0)" xlink:href="#bb"/><use transform="matrix(0.06790123456790123,0,0,0.06790123456790123,8.080246913580247,0)" xlink:href="#aT"/><use transform="matrix(0.06790123456790123,0,0,0.06790123456790123,24.37654320987654,0)" xlink:href="#aY"/><use transform="matrix(0.06790123456790123,0,0,0.06790123456790123,39.24691358024691,0)" xlink:href="#aO"/><use transform="matrix(0.06790123456790123,0,0,0.06790123456790123,55.5432098765432,0)" xlink:href="#bc"/></g><path d="M106-169C34-169 62-67 57 0H25v-261h32l-1 103c12-21 28-36 61-36 89 0 53 116 60 194h-32v-121c2-32-8-49-39-48" id="bd"/><g id="D"><use transform="matrix(0.08641975308641973,0,0,0.08641975308641973,0,0)" xlink:href="#aF"/><use transform="matrix(0.08641975308641973,0,0,0.08641975308641973,18.92592592592592,0)" xlink:href="#bd"/><use transform="matrix(0.08641975308641973,0,0,0.08641975308641973,36.209876543209866,0)" xlink:href="#ay"/></g><g id="E"><use transform="matrix(0.08641975308641973,0,0,0.08641975308641973,0,0)" xlink:href="#aW"/><use transform="matrix(0.08641975308641973,0,0,0.08641975308641973,17.283950617283946,0)" xlink:href="#aI"/><use transform="matrix(0.08641975308641973,0,0,0.08641975308641973,34.56790123456789,0)" xlink:href="#aI"/><use transform="matrix(0.08641975308641973,0,0,0.08641975308641973,51.85185185185183,0)" xlink:href="#aX"/><use transform="matrix(0.08641975308641973,0,0,0.08641975308641973,58.67901234567899,0)" xlink:href="#aB"/><use transform="matrix(0.08641975308641973,0,0,0.08641975308641973,65.50617283950615,0)" xlink:href="#aC"/><use transform="matrix(0.08641975308641973,0,0,0.08641975308641973,81.0617283950617,0)" xlink:href="#aW"/><use transform="matrix(0.08641975308641973,0,0,0.08641975308641973,98.34567901234566,0)" xlink:href="#aU"/><use transform="matrix(0.08641975308641973,0,0,0.08641975308641973,106.98765432098763,0)" xlink:href="#aB"/><use transform="matrix(0.08641975308641973,0,0,0.08641975308641973,113.8148148148148,0)" xlink:href="#ba"/><use transform="matrix(0.08641975308641973,0,0,0.08641975308641973,131.09876543209873,0)" xlink:href="#aZ"/><use transform="matrix(0.08641975308641973,0,0,0.08641975308641973,148.38271604938268,0)" xlink:href="#aD"/></g><g id="F"><use transform="matrix(0.08641975308641973,0,0,0.08641975308641973,0,0)" xlink:href="#aC"/><use transform="matrix(0.08641975308641973,0,0,0.08641975308641973,15.555555555555552,0)" xlink:href="#ba"/><use transform="matrix(0.08641975308641973,0,0,0.08641975308641973,32.8395061728395,0)" xlink:href="#aZ"/><use transform="matrix(0.08641975308641973,0,0,0.08641975308641973,50.12345679012345,0)" xlink:href="#aU"/><use transform="matrix(0.08641975308641973,0,0,0.08641975308641973,58.765432098765416,0)" xlink:href="#aW"/><use transform="matrix(0.08641975308641973,0,0,0.08641975308641973,76.04938271604937,0)" xlink:href="#aB"/><use transform="matrix(0.08641975308641973,0,0,0.08641975308641973,82.87654320987653,0)" xlink:href="#aZ"/></g><path d="M115-194c53 0 69 39 70 98 0 66-23 100-70 100C84 3 66-7 56-30L54 0H23l1-261h32v101c10-23 28-34 59-34zm-8 174c40 0 45-34 45-75 0-40-5-75-45-74-42 0-51 32-51 76 0 43 10 73 51 73" id="be"/><g id="G"><use transform="matrix(0.08641975308641973,0,0,0.08641975308641973,0,0)" xlink:href="#be"/><use transform="matrix(0.08641975308641973,0,0,0.08641975308641973,17.283950617283946,0)" xlink:href="#aV"/><use transform="matrix(0.08641975308641973,0,0,0.08641975308641973,34.56790123456789,0)" xlink:href="#aD"/><use transform="matrix(0.08641975308641973,0,0,0.08641975308641973,50.12345679012345,0)" xlink:href="#aB"/><use transform="matrix(0.08641975308641973,0,0,0.08641975308641973,56.95061728395059,0)" xlink:href="#aZ"/><use transform="matrix(0.08641975308641973,0,0,0.08641975308641973,74.23456790123454,0)" xlink:href="#ay"/><use transform="matrix(0.08641975308641973,0,0,0.08641975308641973,91.5185185185185,0)" xlink:href="#aD"/><use transform="matrix(0.08641975308641973,0,0,0.08641975308641973,107.07407407407405,0)" xlink:href="#aD"/></g><path d="M177-190C167-65 218 103 67 71c-23-6-38-20-44-43l32-5c15 47 100 32 89-28v-30C133-14 115 1 83 1 29 1 15-40 15-95c0-56 16-97 71-98 29-1 48 16 59 35 1-10 0-23 2-32h30zM94-22c36 0 50-32 50-73 0-42-14-75-50-75-39 0-46 34-46 75s6 73 46 73" id="bf"/><g id="H"><use transform="matrix(0.08641975308641973,0,0,0.08641975308641973,0,0)" xlink:href="#aX"/><use transform="matrix(0.08641975308641973,0,0,0.08641975308641973,6.827160493827159,0)" xlink:href="#ba"/><use transform="matrix(0.08641975308641973,0,0,0.08641975308641973,24.111111111111107,0)" xlink:href="#bf"/><use transform="matrix(0.08641975308641973,0,0,0.08641975308641973,41.39506172839505,0)" xlink:href="#aB"/><use transform="matrix(0.08641975308641973,0,0,0.08641975308641973,48.222222222222214,0)" xlink:href="#aC"/></g><g id="I"><use transform="matrix(0.08641975308641973,0,0,0.08641975308641973,0,0)" xlink:href="#aU"/><use transform="matrix(0.08641975308641973,0,0,0.08641975308641973,8.641975308641973,0)" xlink:href="#bd"/><use transform="matrix(0.08641975308641973,0,0,0.08641975308641973,25.925925925925917,0)" xlink:href="#aW"/><use transform="matrix(0.08641975308641973,0,0,0.08641975308641973,43.20987654320986,0)" xlink:href="#aU"/></g><g id="J"><use transform="matrix(0.08641975308641973,0,0,0.08641975308641973,0,0)" xlink:href="#az"/><use transform="matrix(0.08641975308641973,0,0,0.08641975308641973,10.28395061728395,0)" xlink:href="#ay"/><use transform="matrix(0.08641975308641973,0,0,0.08641975308641973,27.567901234567895,0)" xlink:href="#aX"/><use transform="matrix(0.08641975308641973,0,0,0.08641975308641973,34.395061728395056,0)" xlink:href="#aB"/><use transform="matrix(0.08641975308641973,0,0,0.08641975308641973,41.222222222222214,0)" xlink:href="#ay"/><use transform="matrix(0.08641975308641973,0,0,0.08641975308641973,58.50617283950616,0)" xlink:href="#aD"/></g><g id="K"><use transform="matrix(0.08641975308641973,0,0,0.08641975308641973,0,0)" xlink:href="#ba"/><use transform="matrix(0.08641975308641973,0,0,0.08641975308641973,17.283950617283946,0)" xlink:href="#aZ"/></g><g id="L"><use transform="matrix(0.08641975308641973,0,0,0.08641975308641973,0,0)" xlink:href="#aU"/><use transform="matrix(0.08641975308641973,0,0,0.08641975308641973,8.641975308641973,0)" xlink:href="#bd"/><use transform="matrix(0.08641975308641973,0,0,0.08641975308641973,25.925925925925917,0)" xlink:href="#ay"/></g><g id="M"><use transform="matrix(0.08641975308641973,0,0,0.08641975308641973,0,0)" xlink:href="#aD"/><use transform="matrix(0.08641975308641973,0,0,0.08641975308641973,15.555555555555552,0)" xlink:href="#ay"/><use transform="matrix(0.08641975308641973,0,0,0.08641975308641973,32.8395061728395,0)" xlink:href="#az"/><use transform="matrix(0.08641975308641973,0,0,0.08641975308641973,43.12345679012345,0)" xlink:href="#aA"/><use transform="matrix(0.08641975308641973,0,0,0.08641975308641973,58.679012345679,0)" xlink:href="#aB"/><use transform="matrix(0.08641975308641973,0,0,0.08641975308641973,65.50617283950616,0)" xlink:href="#aC"/><use transform="matrix(0.08641975308641973,0,0,0.08641975308641973,81.06172839506172,0)" xlink:href="#ay"/><use transform="matrix(0.08641975308641973,0,0,0.08641975308641973,98.34567901234568,0)" xlink:href="#aD"/></g><g id="N"><use transform="matrix(0.08641975308641973,0,0,0.08641975308641973,0,0)" xlink:href="#aD"/><use transform="matrix(0.08641975308641973,0,0,0.08641975308641973,15.555555555555552,0)" xlink:href="#ay"/><use transform="matrix(0.08641975308641973,0,0,0.08641975308641973,32.8395061728395,0)" xlink:href="#az"/><use transform="matrix(0.08641975308641973,0,0,0.08641975308641973,43.12345679012345,0)" xlink:href="#aA"/><use transform="matrix(0.08641975308641973,0,0,0.08641975308641973,58.679012345679,0)" xlink:href="#aB"/><use transform="matrix(0.08641975308641973,0,0,0.08641975308641973,65.50617283950616,0)" xlink:href="#aC"/><use transform="matrix(0.08641975308641973,0,0,0.08641975308641973,81.06172839506172,0)" xlink:href="#ay"/><use transform="matrix(0.08641975308641973,0,0,0.08641975308641973,98.34567901234568,0)" xlink:href="#aD"/></g><path d="M210-169c-67 3-38 105-44 169h-31v-121c0-29-5-50-35-48C34-165 62-65 56 0H25l-1-190h30c1 10-1 24 2 32 10-44 99-50 107 0 11-21 27-35 58-36 85-2 47 119 55 194h-31v-121c0-29-5-49-35-48" id="bg"/><g id="O"><use transform="matrix(0.08641975308641973,0,0,0.08641975308641973,0,0)" xlink:href="#bg"/><use transform="matrix(0.08641975308641973,0,0,0.08641975308641973,25.8395061728395,0)" xlink:href="#aW"/><use transform="matrix(0.08641975308641973,0,0,0.08641975308641973,43.12345679012344,0)" xlink:href="#aZ"/><use transform="matrix(0.08641975308641973,0,0,0.08641975308641973,60.4074074074074,0)" xlink:href="#aW"/><use transform="matrix(0.08641975308641973,0,0,0.08641975308641973,77.69135802469134,0)" xlink:href="#bf"/><use transform="matrix(0.08641975308641973,0,0,0.08641975308641973,94.97530864197529,0)" xlink:href="#ay"/></g><path d="M85-194c31 0 48 13 60 33l-1-100h32l1 261h-30c-2-10 0-23-3-31C134-8 116 4 85 4 32 4 16-35 15-94c0-66 23-100 70-100zm9 24c-40 0-46 34-46 75 0 40 6 74 45 74 42 0 51-32 51-76 0-42-9-74-50-73" id="bh"/><path d="M206 0h-36l-40-164L89 0H53L-1-190h32L70-26l43-164h34l41 164 42-164h31" id="bi"/><g id="P"><use transform="matrix(0.08641975308641973,0,0,0.08641975308641973,0,0)" xlink:href="#bd"/><use transform="matrix(0.08641975308641973,0,0,0.08641975308641973,17.283950617283946,0)" xlink:href="#aW"/><use transform="matrix(0.08641975308641973,0,0,0.08641975308641973,34.56790123456789,0)" xlink:href="#az"/><use transform="matrix(0.08641975308641973,0,0,0.08641975308641973,44.85185185185184,0)" xlink:href="#bh"/><use transform="matrix(0.08641975308641973,0,0,0.08641975308641973,62.13580246913578,0)" xlink:href="#bi"/><use transform="matrix(0.08641975308641973,0,0,0.08641975308641973,84.51851851851849,0)" xlink:href="#aW"/><use transform="matrix(0.08641975308641973,0,0,0.08641975308641973,101.80246913580245,0)" xlink:href="#az"/><use transform="matrix(0.08641975308641973,0,0,0.08641975308641973,112.08641975308639,0)" xlink:href="#ay"/></g><g id="Q"><use transform="matrix(0.08641975308641973,0,0,0.08641975308641973,0,0)" xlink:href="#az"/><use transform="matrix(0.08641975308641973,0,0,0.08641975308641973,10.28395061728395,0)" xlink:href="#ay"/><use transform="matrix(0.08641975308641973,0,0,0.08641975308641973,27.567901234567895,0)" xlink:href="#aD"/><use transform="matrix(0.08641975308641973,0,0,0.08641975308641973,43.12345679012345,0)" xlink:href="#ba"/><use transform="matrix(0.08641975308641973,0,0,0.08641975308641973,60.4074074074074,0)" xlink:href="#aV"/><use transform="matrix(0.08641975308641973,0,0,0.08641975308641973,77.69135802469134,0)" xlink:href="#az"/><use transform="matrix(0.08641975308641973,0,0,0.08641975308641973,87.97530864197529,0)" xlink:href="#aC"/><use transform="matrix(0.08641975308641973,0,0,0.08641975308641973,103.53086419753085,0)" xlink:href="#ay"/><use transform="matrix(0.08641975308641973,0,0,0.08641975308641973,120.8148148148148,0)" xlink:href="#aD"/></g><g id="R"><use transform="matrix(0.08641975308641973,0,0,0.08641975308641973,0,0)" xlink:href="#aW"/><use transform="matrix(0.08641975308641973,0,0,0.08641975308641973,17.283950617283946,0)" xlink:href="#aZ"/><use transform="matrix(0.08641975308641973,0,0,0.08641975308641973,34.56790123456789,0)" xlink:href="#bh"/></g><g id="S"><use transform="matrix(0.08641975308641973,0,0,0.08641975308641973,0,0)" xlink:href="#bh"/><use transform="matrix(0.08641975308641973,0,0,0.08641975308641973,17.283950617283946,0)" xlink:href="#ay"/><use transform="matrix(0.08641975308641973,0,0,0.08641975308641973,34.56790123456789,0)" xlink:href="#aA"/><use transform="matrix(0.08641975308641973,0,0,0.08641975308641973,50.12345679012345,0)" xlink:href="#aB"/><use transform="matrix(0.08641975308641973,0,0,0.08641975308641973,56.95061728395059,0)" xlink:href="#aC"/><use transform="matrix(0.08641975308641973,0,0,0.08641975308641973,72.50617283950615,0)" xlink:href="#ay"/><use transform="matrix(0.08641975308641973,0,0,0.08641975308641973,89.7901234567901,0)" xlink:href="#aD"/></g><g id="T"><use transform="matrix(0.08641975308641973,0,0,0.08641975308641973,0,0)" xlink:href="#aT"/><use transform="matrix(0.08641975308641973,0,0,0.08641975308641973,20.740740740740737,0)" xlink:href="#aY"/><use transform="matrix(0.08641975308641973,0,0,0.08641975308641973,39.66666666666666,0)" xlink:href="#aO"/></g><g id="U"><use transform="matrix(0.08641975308641973,0,0,0.08641975308641973,0,0)" xlink:href="#aB"/><use transform="matrix(0.08641975308641973,0,0,0.08641975308641973,6.827160493827159,0)" xlink:href="#aZ"/><use transform="matrix(0.08641975308641973,0,0,0.08641975308641973,24.111111111111107,0)" xlink:href="#aU"/><use transform="matrix(0.08641975308641973,0,0,0.08641975308641973,32.753086419753075,0)" xlink:href="#ay"/><use transform="matrix(0.08641975308641973,0,0,0.08641975308641973,50.037037037037024,0)" xlink:href="#bf"/><use transform="matrix(0.08641975308641973,0,0,0.08641975308641973,67.32098765432097,0)" xlink:href="#az"/><use transform="matrix(0.08641975308641973,0,0,0.08641975308641973,77.60493827160492,0)" xlink:href="#aW"/><use transform="matrix(0.08641975308641973,0,0,0.08641975308641973,94.88888888888887,0)" xlink:href="#aU"/><use transform="matrix(0.08641975308641973,0,0,0.08641975308641973,103.53086419753085,0)" xlink:href="#ay"/><use transform="matrix(0.08641975308641973,0,0,0.08641975308641973,120.8148148148148,0)" xlink:href="#az"/><use transform="matrix(0.08641975308641973,0,0,0.08641975308641973,131.09876543209873,0)" xlink:href="#aD"/></g><path d="M179-190L93 31C79 59 56 82 12 73V49c39 6 53-20 64-50L1-190h34L92-34l54-156h33" id="bj"/><g id="V"><use transform="matrix(0.08641975308641973,0,0,0.08641975308641973,0,0)" xlink:href="#ay"/><use transform="matrix(0.08641975308641973,0,0,0.08641975308641973,17.283950617283946,0)" xlink:href="#aA"/><use transform="matrix(0.08641975308641973,0,0,0.08641975308641973,32.8395061728395,0)" xlink:href="#ay"/><use transform="matrix(0.08641975308641973,0,0,0.08641975308641973,50.12345679012345,0)" xlink:href="#az"/><use transform="matrix(0.08641975308641973,0,0,0.08641975308641973,60.4074074074074,0)" xlink:href="#bj"/><use transform="matrix(0.08641975308641973,0,0,0.08641975308641973,75.96296296296295,0)" xlink:href="#aU"/><use transform="matrix(0.08641975308641973,0,0,0.08641975308641973,84.60493827160492,0)" xlink:href="#bd"/><use transform="matrix(0.08641975308641973,0,0,0.08641975308641973,101.88888888888887,0)" xlink:href="#aB"/><use transform="matrix(0.08641975308641973,0,0,0.08641975308641973,108.71604938271605,0)" xlink:href="#aZ"/><use transform="matrix(0.08641975308641973,0,0,0.08641975308641973,125.99999999999999,0)" xlink:href="#bf"/></g><g id="W"><use transform="matrix(0.08641975308641973,0,0,0.08641975308641973,0,0)" xlink:href="#aE"/><use transform="matrix(0.08641975308641973,0,0,0.08641975308641973,21.777777777777775,0)" xlink:href="#aF"/><use transform="matrix(0.08641975308641973,0,0,0.08641975308641973,40.703703703703695,0)" xlink:href="#aG"/><use transform="matrix(0.08641975308641973,0,0,0.08641975308641973,61.44444444444443,0)" xlink:href="#aD"/></g><g id="X"><use transform="matrix(0.08641975308641973,0,0,0.08641975308641973,0,0)" xlink:href="#aW"/><use transform="matrix(0.08641975308641973,0,0,0.08641975308641973,17.283950617283946,0)" xlink:href="#az"/><use transform="matrix(0.08641975308641973,0,0,0.08641975308641973,27.567901234567895,0)" xlink:href="#ay"/></g><g id="Y"><use transform="matrix(0.08641975308641973,0,0,0.08641975308641973,0,0)" xlink:href="#aX"/><use transform="matrix(0.08641975308641973,0,0,0.08641975308641973,6.827160493827159,0)" xlink:href="#ba"/><use transform="matrix(0.08641975308641973,0,0,0.08641975308641973,24.111111111111107,0)" xlink:href="#aC"/><use transform="matrix(0.08641975308641973,0,0,0.08641975308641973,39.66666666666666,0)" xlink:href="#aW"/><use transform="matrix(0.08641975308641973,0,0,0.08641975308641973,56.950617283950606,0)" xlink:href="#aX"/></g><path d="M140-251c81 0 123 46 123 126C263-46 219 4 140 4 59 4 17-45 17-125s42-126 123-126zm0 227c63 0 89-41 89-101s-29-99-89-99c-61 0-89 39-89 99S79-25 140-24" id="bk"/><g id="Z"><use transform="matrix(0.08641975308641973,0,0,0.08641975308641973,0,0)" xlink:href="#bk"/><use transform="matrix(0.08641975308641973,0,0,0.08641975308641973,24.197530864197525,0)" xlink:href="#ax"/><use transform="matrix(0.08641975308641973,0,0,0.08641975308641973,44.938271604938265,0)" xlink:href="#ay"/><use transform="matrix(0.08641975308641973,0,0,0.08641975308641973,62.22222222222222,0)" xlink:href="#aD"/></g></defs></g></svg>