<svg xmlns="http://www.w3.org/2000/svg" xmlns:xlink="http://www.w3.org/1999/xlink" xmlns:lucid="lucid" width="562" height="522"><g transform="translate(1181 -199)" lucid:page-tab-id="0_0"><path d="M-960 280c0 11.05-8.95 20-20 20s-20-8.95-20-20 8.95-20 20-20 20 8.95 20 20zM-960 400c0 11.05-8.95 20-20 20s-20-8.95-20-20 8.95-20 20-20 20 8.95 20 20zM-1040 340c0 11.05-8.95 20-20 20s-20-8.95-20-20 8.95-20 20-20 20 8.95 20 20zM-1120 260c0 11.05-8.95 20-20 20s-20-8.95-20-20 8.95-20 20-20 20 8.95 20 20zM-1140 360c0 11.05-8.95 20-20 20s-20-8.95-20-20 8.95-20 20-20 20 8.95 20 20zM-1080 460c0 11.05-8.95 20-20 20s-20-8.95-20-20 8.95-20 20-20 20 8.95 20 20zM-840 240c0 11.05-8.95 20-20 20s-20-8.95-20-20 8.95-20 20-20 20 8.95 20 20zM-800 340c0 11.05-8.95 20-20 20s-20-8.95-20-20 8.95-20 20-20 20 8.95 20 20zM-860 460c0 11.05-8.95 20-20 20s-20-8.95-20-20 8.95-20 20-20 20 8.95 20 20zM-700 260c0 11.05-8.95 20-20 20s-20-8.95-20-20 8.95-20 20-20 20 8.95 20 20zM-680 360c0 11.05-8.95 20-20 20s-20-8.95-20-20 8.95-20 20-20 20 8.95 20 20zM-740 440c0 11.05-8.95 20-20 20s-20-8.95-20-20 8.95-20 20-20 20 8.95 20 20zM-1100 600c0 11.05-8.95 20-20 20s-20-8.95-20-20 8.95-20 20-20 20 8.95 20 20zM-1000 640c0 11.05-8.95 20-20 20s-20-8.95-20-20 8.95-20 20-20 20 8.95 20 20zM-1100 700c0 11.05-8.95 20-20 20s-20-8.95-20-20 8.95-20 20-20 20 8.95 20 20zM-800 600c0 11.05-8.95 20-20 20s-20-8.95-20-20 8.95-20 20-20 20 8.95 20 20zM-720 640c0 11.05-8.95 20-20 20s-20-8.95-20-20 8.95-20 20-20 20 8.95 20 20zM-820 680c0 11.05-8.95 20-20 20s-20-8.95-20-20 8.95-20 20-20 20 8.95 20 20z" stroke="#000" stroke-width="2" fill="#fff"/><path d="M-680 206a6 6 0 0 1 6-6h48a6 6 0 0 1 6 6v28a6 6 0 0 1-6 6h-48a6 6 0 0 1-6-6z" stroke="#000" stroke-opacity="0" stroke-width="2" fill="#fff" fill-opacity="0"/><use xlink:href="#a" transform="matrix(1,0,0,1,-675,205) translate(6.481481481481488 28.541666666666657)"/><path d="M-959.14 273l61.63-20.6" stroke="#3a414a" stroke-width="2" fill="none"/><path d="M-958.8 273.92l-1.08.35-.18-.9-.45-.94 1.08-.36z" stroke="#3a414a" stroke-width=".05" fill="#3a414a"/><path d="M-883.03 247.55l-12.06 8.92-2.93-8.8z" stroke="#3a414a" stroke-width="2" fill="#3a414a"/><path d="M-840.46 332.33l-102.7-38.5" stroke="#3a414a" stroke-width="2" fill="none"/><path d="M-839.17 331.77l-.7 1.8-.96-.34.7-1.83z" stroke="#3a414a" stroke-width=".05" fill="#3a414a"/><path d="M-957.45 288.46l15 .67-3.26 8.68z" stroke="#3a414a" stroke-width="2" fill="#3a414a"/><path d="M-1122.94 273.67l36.9 36.9" stroke="#3a414a" stroke-width="2" fill="none"/><path d="M-1122.23 273l-1.38 1.38-.63-.6 1.16-1.62z" stroke="#3a414a" stroke-width=".05" fill="#3a414a"/><path d="M-1075.24 321.37l-13.37-6.8 6.55-6.56z" stroke="#3a414a" stroke-width="2" fill="#3a414a"/><path d="M-1153.72 339.02l5.85-40.35" stroke="#3a414a" stroke-width="2" fill="none"/><path d="M-1152.75 339.13l-.18 1.25-1.86-.74.12-.8z" stroke="#3a414a" stroke-width=".05" fill="#3a414a"/><path d="M-1145.68 283.56l2.54 14.78-9.17-1.33z" stroke="#3a414a" stroke-width="2" fill="#3a414a"/><path d="M-1066.92 360.76l-20.63 61.88" stroke="#3a414a" stroke-width="2" fill="none"/><path d="M-1065.7 360.17l-.3.92-1.85-.63.34-1.02z" stroke="#3a414a" stroke-width=".05" fill="#3a414a"/><path d="M-1092.37 437.12l.1-15 8.8 2.93z" stroke="#3a414a" stroke-width="2" fill="#3a414a"/><path d="M-1001.2 394.24l-121.3-22.95" stroke="#3a414a" stroke-width="2" fill="none"/><path d="M-999.85 393.5l-.5 1.3-.08.57-.97-.18.36-1.93z" stroke="#3a414a" stroke-width=".05" fill="#3a414a"/><path d="M-1137.5 368.45l14.88-1.9-1.73 9.1z" stroke="#3a414a" stroke-width="2" fill="#3a414a"/><path d="M-1080.08 451l65.27-32.58" stroke="#3a414a" stroke-width="2" fill="none"/><path d="M-1079.62 451.87l-.94.46-.84-1.76.9-.45z" stroke="#3a414a" stroke-width=".05" fill="#3a414a"/><path d="M-1001.15 411.6l-10.7 10.52-4.13-8.3z" stroke="#3a414a" stroke-width="2" fill="#3a414a"/><path d="M-999.06 290.75l-31.64 23.02" stroke="#3a414a" stroke-width="2" fill="none"/><path d="M-997.82 291.06l-.7.5-1.13-1.58.97-.7z" stroke="#3a414a" stroke-width=".05" fill="#3a414a"/><path d="M-1043.04 322.75l8.8-12.14 5.46 7.5z" stroke="#3a414a" stroke-width="2" fill="#3a414a"/><path d="M-980 378v-58.5" stroke="#3a414a" stroke-width="2" fill="none"/><path d="M-979.02 379.1l-.94-.1-1 .03v-1.06h1.94z" stroke="#3a414a" stroke-width=".05" fill="#3a414a"/><path d="M-980 304.24l4.63 14.26h-9.26z" stroke="#3a414a" stroke-width="2" fill="#3a414a"/><path d="M-958.65 405.35l161.78 22.3" stroke="#3a414a" stroke-width="2" fill="none"/><path d="M-958.5 404.4l-.26 1.92-1.25-.17.36-.94.12-.95z" stroke="#3a414a" stroke-width=".05" fill="#3a414a"/><path d="M-781.74 429.73l-14.77 2.64 1.26-9.18z" stroke="#3a414a" stroke-width="2" fill="#3a414a"/><path d="M-899.5 449.9l-48.27-27.5" stroke="#3a414a" stroke-width="2" fill="none"/><path d="M-898.16 449.54l-.3.4-.53 1.38-1-.58.96-1.7z" stroke="#3a414a" stroke-width=".05" fill="#3a414a"/><path d="M-961.03 414.83l14.7 3.04-4.6 8.05z" stroke="#3a414a" stroke-width="2" fill="#3a414a"/><path d="M-870.3 440.33l31.66-65.6" stroke="#3a414a" stroke-width="2" fill="none"/><path d="M-869.42 440.74l-.43.88-.1-.07-1.7-.67.47-1z" stroke="#3a414a" stroke-width=".05" fill="#3a414a"/><path d="M-832 360.97l-2.03 14.86-8.35-4.02z" stroke="#3a414a" stroke-width="2" fill="#3a414a"/><path d="M-781.05 446.16l-59.93 8.44" stroke="#3a414a" stroke-width="2" fill="none"/><path d="M-779.94 446.63l.16.33-1.16.17-.27-1.93.95-.14z" stroke="#3a414a" stroke-width=".05" fill="#3a414a"/><path d="M-856.1 456.73l13.48-6.58 1.3 9.18z" stroke="#3a414a" stroke-width="2" fill="#3a414a"/><path d="M-872.87 480.8l38.43 82.5" stroke="#3a414a" stroke-width="2" fill="none"/><path d="M-871.98 480.42l-1.76.82-.53-1.12.9-.18.96-.46z" stroke="#3a414a" stroke-width=".05" fill="#3a414a"/><path d="M-828 577.13l-10.22-10.98 8.4-3.9z" stroke="#3a414a" stroke-width="2" fill="#3a414a"/><path d="M-865.32 476.2l102.72 131.47" stroke="#3a414a" stroke-width="2" fill="none"/><path d="M-864.54 475.62l-1.54 1.2-.6-.78 1.5-1.25z" stroke="#3a414a" stroke-width=".05" fill="#3a414a"/><path d="M-753.2 619.7l-12.44-8.4 7.3-5.7z" stroke="#3a414a" stroke-width="2" fill="#3a414a"/><path d="M-759.87 462l17.55 138.64" stroke="#3a414a" stroke-width="2" fill="none"/><path d="M-760.04 461l1.02-.03.12.93-1.94.24-.16-1.26z" stroke="#3a414a" stroke-width=".05" fill="#3a414a"/><path d="M-740.4 615.8l-6.4-13.58 9.2-1.17z" stroke="#3a414a" stroke-width="2" fill="#3a414a"/><path d="M-770.4 459.4l-36.4 103.5" stroke="#3a414a" stroke-width="2" fill="none"/><path d="M-770.06 458.45l.9.36-.32.94-1.84-.65.44-1.25z" stroke="#3a414a" stroke-width=".05" fill="#3a414a"/><path d="M-811.88 577.3l.36-14.98 8.75 3.07z" stroke="#3a414a" stroke-width="2" fill="#3a414a"/><path d="M-746.53 422.78L-723 391.9" stroke="#3a414a" stroke-width="2" fill="none"/><path d="M-745.74 423.35l-.6.8-1.6-1.14.65-.83z" stroke="#3a414a" stroke-width=".05" fill="#3a414a"/><path d="M-713.75 379.77l-4.96 14.16-7.4-5.62z" stroke="#3a414a" stroke-width="2" fill="#3a414a"/><path d="M-808.23 358.58l29.34 46.97" stroke="#3a414a" stroke-width="2" fill="none"/><path d="M-807.4 358.1l-1.65 1.02-.6-.96 1-.47.66-.57z" stroke="#3a414a" stroke-width=".05" fill="#3a414a"/><path d="M-770.8 418.5l-11.5-9.65 7.87-4.9z" stroke="#3a414a" stroke-width="2" fill="#3a414a"/><path d="M-755 418.6l24.6-120.7" stroke="#3a414a" stroke-width="2" fill="none"/><path d="M-754.04 418.78l-.22 1.07-.53-.2-1.37-.18.22-1.08z" stroke="#3a414a" stroke-width=".05" fill="#3a414a"/><path d="M-727.36 282.94l1.7 14.9-9.1-1.85z" stroke="#3a414a" stroke-width="2" fill="#3a414a"/><path d="M-838.88 245.9l80.1 7.22" stroke="#3a414a" stroke-width="2" fill="none"/><path d="M-838.77 244.93l-.17 1.94-1.3-.12.6-1.54.04-.35z" stroke="#3a414a" stroke-width=".05" fill="#3a414a"/><path d="M-743.58 254.5l-14.62 3.33.83-9.23z" stroke="#3a414a" stroke-width="2" fill="#3a414a"/><path d="M-705.5 338.82l-5.03-40.8" stroke="#3a414a" stroke-width="2" fill="none"/><path d="M-704.42 339.62l-1.92.38-.13-1.1 1.94-.23z" stroke="#3a414a" stroke-width=".05" fill="#3a414a"/><path d="M-712.4 282.88l6.35 13.6-9.2 1.12z" stroke="#3a414a" stroke-width="2" fill="#3a414a"/><path d="M-801.83 327.68l52.87-41" stroke="#3a414a" stroke-width="2" fill="none"/><path d="M-801.2 328.44l-.9.68-.2-.46-.94-1.1.84-.66z" stroke="#3a414a" stroke-width=".05" fill="#3a414a"/><path d="M-736.9 277.33l-8.43 12.4-5.68-7.32z" stroke="#3a414a" stroke-width="2" fill="#3a414a"/><path d="M-759.3 650.25l-43.46 16.6" stroke="#3a414a" stroke-width="2" fill="none"/><path d="M-757.96 650.77l-1.03.4-.7-1.82.9-.34z" stroke="#3a414a" stroke-width=".05" fill="#3a414a"/><path d="M-817.02 672.3l11.67-9.4 3.3 8.65z" stroke="#3a414a" stroke-width="2" fill="#3a414a"/><path d="M-825.34 621.34l-5.08 20.34" stroke="#3a414a" stroke-width="2" fill="none"/><path d="M-825.2 620.36l1.08.13-.28 1.1-1.9-.47.28-1.1z" stroke="#3a414a" stroke-width=".05" fill="#3a414a"/><path d="M-834.12 656.5l-1.04-14.97 9 2.24z" stroke="#3a414a" stroke-width="2" fill="#3a414a"/><path d="M-861.92 679.25l-121.06-26.5" stroke="#3a414a" stroke-width="2" fill="none"/><path d="M-860.82 678.5l-.18 1.46v.5l-1.15-.26.42-1.9z" stroke="#3a414a" stroke-width=".05" fill="#3a414a"/><path d="M-997.9 649.5l14.93-1.5-1.98 9.07z" stroke="#3a414a" stroke-width="2" fill="#3a414a"/><path d="M-1108.23 480.2l-9.58 80.43" stroke="#3a414a" stroke-width="2" fill="none"/><path d="M-1107.18 479.58l-.1.77-1.92-.23.15-1.28z" stroke="#3a414a" stroke-width=".05" fill="#3a414a"/><path d="M-1119.62 575.8l-2.9-14.73 9.2 1.1z" stroke="#3a414a" stroke-width="2" fill="#3a414a"/><path d="M-1120 622v38.5" stroke="#3a414a" stroke-width="2" fill="none"/><path d="M-1120.05 621l1.02-.03v1.06h-1.94v-1.14z" stroke="#3a414a" stroke-width=".05" fill="#3a414a"/><path d="M-1120 675.76l-4.63-14.26h9.27z" stroke="#3a414a" stroke-width="2" fill="#3a414a"/><path d="M-1038.97 650.97l-47.44 28.23" stroke="#3a414a" stroke-width="2" fill="none"/><path d="M-1037.7 651.34l-.8.48-1-1.68.97-.56z" stroke="#3a414a" stroke-width=".05" fill="#3a414a"/><path d="M-1099.53 687l9.9-11.27 4.73 7.97z" stroke="#3a414a" stroke-width="2" fill="#3a414a"/><path d="M-1082.72 612.74l27.03 10.5" stroke="#3a414a" stroke-width="2" fill="none"/><path d="M-1096.95 607.2l14.98.85-3.36 8.64zM-1041.46 628.77l-14.98-.85 3.36-8.64z" stroke="#3a414a" stroke-width="2" fill="#3a414a"/><path d="M-1111.3 441.18l-28.4-47.36" stroke="#3a414a" stroke-width="2" fill="none"/><path d="M-1109.9 441.62l-1.44.7-.27.22-.54-.88 1.67-1z" stroke="#3a414a" stroke-width=".05" fill="#3a414a"/><path d="M-1147.56 380.73l11.3 9.85-7.93 4.77z" stroke="#3a414a" stroke-width="2" fill="#3a414a"/><path d="M-1118 260.17l98.75 16.7" stroke="#3a414a" stroke-width="2" fill="none"/><path d="M-1117.83 259.2l-.32 1.93-.96-.16.1-.93-.04-1.04z" stroke="#3a414a" stroke-width=".05" fill="#3a414a"/><path d="M-1004.2 279.42l-14.83 2.2 1.54-9.15z" stroke="#3a414a" stroke-width="2" fill="#3a414a"/><path d="M-1038 340h178.5" stroke="#3a414a" stroke-width="2" fill="none"/><path d="M-1037.97 340.98h-1.14l.1-.94-.03-1.02h1.06z" stroke="#3a414a" stroke-width=".05" fill="#3a414a"/><path d="M-844.24 340l-14.26 4.63v-9.26z" stroke="#3a414a" stroke-width="2" fill="#3a414a"/><path d="M-1078 460h158.5" stroke="#3a414a" stroke-width="2" fill="none"/><path d="M-1077.97 460.98h-1.14l.1-.94-.03-1.02h1.06z" stroke="#3a414a" stroke-width=".05" fill="#3a414a"/><path d="M-904.24 460l-14.26 4.63v-9.26z" stroke="#3a414a" stroke-width="2" fill="#3a414a"/><path d="M-680 246a6 6 0 0 1 6-6h48a6 6 0 0 1 6 6v28a6 6 0 0 1-6 6h-48a6 6 0 0 1-6-6z" stroke="#000" stroke-opacity="0" stroke-width="2" fill="#fff" fill-opacity="0"/><use xlink:href="#b" transform="matrix(1,0,0,1,-675,245) translate(-2.222222222222218 19)"/><defs><path d="M27 0v-27h64v-190l-56 39v-29l58-41h29v221h61V0H27" id="c"/><path d="M134-131c28 9 52 24 51 62-1 50-34 73-85 73S17-19 16-69c0-36 21-54 49-61-75-25-45-126 34-121 46 3 78 18 79 63 0 33-17 51-44 57zm-34-11c31 1 46-15 46-44 0-28-17-43-47-42-29 0-46 13-45 42 1 28 16 44 46 44zm1 122c35 0 51-18 51-52 0-30-18-46-53-46-33 0-51 17-51 47 0 34 19 51 53 51" id="d"/><g id="a"><use transform="matrix(0.09259259259259256,0,0,0.09259259259259256,0,0)" xlink:href="#c"/><use transform="matrix(0.09259259259259256,0,0,0.09259259259259256,18.518518518518512,0)" xlink:href="#d"/></g><path d="M117-194c89-4 53 116 60 194h-32v-121c0-31-8-49-39-48C34-167 62-67 57 0H25l-1-190h30c1 10-1 24 2 32 11-22 29-35 61-36" id="e"/><path d="M100-194c62-1 85 37 85 99 1 63-27 99-86 99S16-35 15-95c0-66 28-99 85-99zM99-20c44 1 53-31 53-75 0-43-8-75-51-75s-53 32-53 75 10 74 51 75" id="f"/><path d="M85-194c31 0 48 13 60 33l-1-100h32l1 261h-30c-2-10 0-23-3-31C134-8 116 4 85 4 32 4 16-35 15-94c0-66 23-100 70-100zm9 24c-40 0-46 34-46 75 0 40 6 74 45 74 42 0 51-32 51-76 0-42-9-74-50-73" id="g"/><path d="M100-194c63 0 86 42 84 106H49c0 40 14 67 53 68 26 1 43-12 49-29l28 8c-11 28-37 45-77 45C44 4 14-33 15-96c1-61 26-98 85-98zm52 81c6-60-76-77-97-28-3 7-6 17-6 28h103" id="h"/><path d="M135-143c-3-34-86-38-87 0 15 53 115 12 119 90S17 21 10-45l28-5c4 36 97 45 98 0-10-56-113-15-118-90-4-57 82-63 122-42 12 7 21 19 24 35" id="i"/><g id="b"><use transform="matrix(0.055555555555555546,0,0,0.055555555555555546,0,0)" xlink:href="#e"/><use transform="matrix(0.055555555555555546,0,0,0.055555555555555546,11.111111111111109,0)" xlink:href="#f"/><use transform="matrix(0.055555555555555546,0,0,0.055555555555555546,22.222222222222218,0)" xlink:href="#g"/><use transform="matrix(0.055555555555555546,0,0,0.055555555555555546,33.33333333333333,0)" xlink:href="#h"/><use transform="matrix(0.055555555555555546,0,0,0.055555555555555546,44.444444444444436,0)" xlink:href="#i"/></g></defs></g></svg>