<svg xmlns="http://www.w3.org/2000/svg" xmlns:lucid="lucid" width="542" height="662"><g transform="translate(1161 -199)" lucid:page-tab-id="0_0"><path d="M-1160 206a6 6 0 0 1 6-6h528a6 6 0 0 1 6 6v648a6 6 0 0 1-6 6h-528a6 6 0 0 1-6-6z" fill-opacity="0"/><path d="M-1134.44 200h19.55m9.8 0h19.54m9.78 0h19.56m9.78 0h19.55m9.8 0h19.54m9.78 0h19.56m9.78 0h19.55m9.8 0h19.54m9.78 0h19.56m9.78 0h19.55m9.8 0h19.54m9.78 0h19.56m9.78 0h19.55m9.8 0h19.54m9.78 0h19.56m9.78 0h19.55m9.8 0h19.54m9.78 0h9.78a6 6 0 0 1 6 6v9.82m0 9.82v19.63m0 9.82v19.63m0 9.8v19.65m0 9.82v19.64m0 9.8v19.65m0 9.8v19.65m0 9.8V422m0 9.82v19.63m0 9.82v19.64m0 9.83v19.63m0 9.82v19.64m0 9.82v19.63m0 9.82v19.63m0 9.8v19.65m0 9.82v19.64m0 9.82v19.63m0 9.8v19.64m0 9.82V746m0 9.82v19.63m0 9.82v19.64m0 9.83v19.63m0 9.82V854a6 6 0 0 1-6 6h-9.78m-9.78 0h-19.55m-9.8 0h-19.54m-9.78 0h-19.56m-9.78 0h-19.55m-9.8 0h-19.54m-9.78 0h-19.56m-9.78 0h-19.55m-9.8 0h-19.54m-9.78 0h-19.56m-9.78 0h-19.55m-9.8 0h-19.54m-9.78 0h-19.56m-9.78 0h-19.55m-9.8 0h-19.54m-9.78 0h-19.56m-9.78 0h-19.55m-9.8 0h-19.54m-9.78 0h-9.78a6 6 0 0 1-6-6v-9.82m0-9.82v-19.63m0-9.82v-19.63m0-9.8V755.8m0-9.82v-19.64m0-9.82V696.9m0-9.8v-19.64m0-9.82V638m0-9.82v-19.63m0-9.82V579.1m0-9.83v-19.63m0-9.82v-19.64m0-9.82v-19.63m0-9.82v-19.63m0-9.8V431.8m0-9.82v-19.64m0-9.8V372.9m0-9.8v-19.65m0-9.8V314m0-9.82v-19.63m0-9.82V255.1m0-9.83v-19.63m0-9.82V206a6 6 0 0 1 6-6h9.78" stroke="#cc4e00" stroke-width="2" fill="none"/><path d="M-1080 566a6 6 0 0 1 6-6h428a6 6 0 0 1 6 6v268a6 6 0 0 1-6 6h-428a6 6 0 0 1-6-6z" fill-opacity="0"/><path d="M-1053.62 560h20.38m10.2 0h20.37m10.2 0h20.38m10.2 0h20.38m10.2 0h20.37m10.2 0h20.37m10.2 0h20.37m10.18 0h20.38m10.2 0h20.37m10.2 0h20.38m10.2 0h20.38m10.2 0h20.37m10.2 0h20.37m10.2 0H-646a6 6 0 0 1 6 6v9.93m0 9.92v19.85m0 9.93v19.85m0 9.93v19.86m0 9.92v19.86m0 9.92v19.86m0 9.92v19.85m0 9.92v19.85m0 9.93v19.85m0 9.92V834a6 6 0 0 1-6 6h-10.2m-10.18 0h-20.38m-10.2 0h-20.37m-10.2 0h-20.38m-10.2 0h-20.38m-10.2 0h-20.37m-10.2 0h-20.37m-10.2 0h-20.37m-10.18 0h-20.38m-10.2 0h-20.37m-10.2 0h-20.38m-10.2 0h-20.38m-10.2 0h-20.37m-10.2 0h-20.37m-10.2 0H-1074a6 6 0 0 1-6-6v-9.93m0-9.92V794.3m0-9.93v-19.85m0-9.93v-19.86m0-9.92v-19.86m0-9.92v-19.86m0-9.92V645.4m0-9.92v-19.85m0-9.93v-19.85m0-9.92V566a6 6 0 0 1 6-6h10.2" stroke="#008a0e" stroke-width="2" fill="none"/><path d="M-1060 627a6 6 0 0 1 6-6h188a6 6 0 0 1 6 6v187a6 6 0 0 1-6 6h-188a6 6 0 0 1-6-6z" fill-opacity="0"/><path d="M-1033.1 621h20.88m10.44 0h20.9m10.44 0h20.88m10.45 0h20.88m10.44 0h20.9m10.44 0H-866a6 6 0 0 1 6 6v10.4m0 10.38v20.78m0 10.4v20.76m0 10.4v20.77m0 10.38v20.78m0 10.4v20.76m0 10.4V814a6 6 0 0 1-6 6h-10.44m-10.45 0h-20.88m-10.44 0h-20.9m-10.44 0h-20.88m-10.45 0h-20.88m-10.44 0h-20.9m-10.44 0H-1054a6 6 0 0 1-6-6v-10.4m0-10.38v-20.77m0-10.4V741.3m0-10.4v-20.77m0-10.38v-20.77m0-10.4V647.8m0-10.4V627a6 6 0 0 1 6-6h10.44" stroke="#635dff" stroke-width="2" fill="none"/><path d="M-920 280c0 11.05-8.95 20-20 20s-20-8.95-20-20 8.95-20 20-20 20 8.95 20 20zM-920 400c0 11.05-8.95 20-20 20s-20-8.95-20-20 8.95-20 20-20 20 8.95 20 20zM-1000 340c0 11.05-8.95 20-20 20s-20-8.95-20-20 8.95-20 20-20 20 8.95 20 20zM-1080 260c0 11.05-8.95 20-20 20s-20-8.95-20-20 8.95-20 20-20 20 8.95 20 20zM-1100 360c0 11.05-8.95 20-20 20s-20-8.95-20-20 8.95-20 20-20 20 8.95 20 20zM-1040 460c0 11.05-8.95 20-20 20s-20-8.95-20-20 8.95-20 20-20 20 8.95 20 20zM-800 240c0 11.05-8.95 20-20 20s-20-8.95-20-20 8.95-20 20-20 20 8.95 20 20zM-760 340c0 11.05-8.95 20-20 20s-20-8.95-20-20 8.95-20 20-20 20 8.95 20 20zM-820 460c0 11.05-8.95 20-20 20s-20-8.95-20-20 8.95-20 20-20 20 8.95 20 20zM-660 260c0 11.05-8.95 20-20 20s-20-8.95-20-20 8.95-20 20-20 20 8.95 20 20zM-640 360c0 11.05-8.95 20-20 20s-20-8.95-20-20 8.95-20 20-20 20 8.95 20 20zM-700 440c0 11.05-8.95 20-20 20s-20-8.95-20-20 8.95-20 20-20 20 8.95 20 20z" stroke="#cc4e00" stroke-width="2" fill="#ffd9d9"/><path d="M-1000 680c0 11.05-8.95 20-20 20s-20-8.95-20-20 8.95-20 20-20 20 8.95 20 20zM-900 720c0 11.05-8.95 20-20 20s-20-8.95-20-20 8.95-20 20-20 20 8.95 20 20zM-1000 780c0 11.05-8.95 20-20 20s-20-8.95-20-20 8.95-20 20-20 20 8.95 20 20z" stroke="#635dff" stroke-width="2" fill="#dedeff"/><path d="M-740 640c0 11.05-8.95 20-20 20s-20-8.95-20-20 8.95-20 20-20 20 8.95 20 20zM-660 680c0 11.05-8.95 20-20 20s-20-8.95-20-20 8.95-20 20-20 20 8.95 20 20zM-760 720c0 11.05-8.95 20-20 20s-20-8.95-20-20 8.95-20 20-20 20 8.95 20 20z" stroke="#008a0e" stroke-width="2" fill="#c3f7c8"/><path d="M-919.14 273l61.63-20.6" stroke="#cc4e00" stroke-width="2" fill="none"/><path d="M-918.8 273.92l-1.08.35-.18-.9-.45-.94 1.08-.36z" stroke="#cc4e00" stroke-width=".05" fill="#cc4e00"/><path d="M-843.03 247.55l-12.06 8.92-2.93-8.8z" stroke="#cc4e00" stroke-width="2" fill="#cc4e00"/><path d="M-800.46 332.33l-102.7-38.5" stroke="#cc4e00" stroke-width="2" fill="none"/><path d="M-799.17 331.77l-.7 1.8-.96-.34.7-1.83z" stroke="#cc4e00" stroke-width=".05" fill="#cc4e00"/><path d="M-917.45 288.46l15 .67-3.26 8.68z" stroke="#cc4e00" stroke-width="2" fill="#cc4e00"/><path d="M-1082.94 273.67l36.9 36.9" stroke="#cc4e00" stroke-width="2" fill="none"/><path d="M-1082.23 273l-1.38 1.38-.63-.6 1.16-1.62z" stroke="#cc4e00" stroke-width=".05" fill="#cc4e00"/><path d="M-1035.24 321.37l-13.37-6.8 6.55-6.56z" stroke="#cc4e00" stroke-width="2" fill="#cc4e00"/><path d="M-1113.72 339.02l5.85-40.35" stroke="#cc4e00" stroke-width="2" fill="none"/><path d="M-1112.75 339.13l-.18 1.25-1.86-.74.12-.8z" stroke="#cc4e00" stroke-width=".05" fill="#cc4e00"/><path d="M-1105.68 283.56l2.54 14.78-9.17-1.33z" stroke="#cc4e00" stroke-width="2" fill="#cc4e00"/><path d="M-1026.92 360.76l-20.63 61.88" stroke="#cc4e00" stroke-width="2" fill="none"/><path d="M-1025.7 360.17l-.3.92-1.85-.63.34-1.02z" stroke="#cc4e00" stroke-width=".05" fill="#cc4e00"/><path d="M-1052.37 437.12l.1-15 8.8 2.93z" stroke="#cc4e00" stroke-width="2" fill="#cc4e00"/><path d="M-961.2 394.24l-121.3-22.95" stroke="#cc4e00" stroke-width="2" fill="none"/><path d="M-959.85 393.5l-.5 1.3-.08.57-.97-.18.36-1.93z" stroke="#cc4e00" stroke-width=".05" fill="#cc4e00"/><path d="M-1097.5 368.45l14.88-1.9-1.73 9.1z" stroke="#cc4e00" stroke-width="2" fill="#cc4e00"/><path d="M-1040.08 451l65.27-32.58" stroke="#cc4e00" stroke-width="2" fill="none"/><path d="M-1039.62 451.87l-.94.46-.84-1.76.9-.45z" stroke="#cc4e00" stroke-width=".05" fill="#cc4e00"/><path d="M-961.15 411.6l-10.7 10.52-4.13-8.3z" stroke="#cc4e00" stroke-width="2" fill="#cc4e00"/><path d="M-959.06 290.75l-31.64 23.02" stroke="#cc4e00" stroke-width="2" fill="none"/><path d="M-957.82 291.06l-.7.5-1.13-1.58.97-.7z" stroke="#cc4e00" stroke-width=".05" fill="#cc4e00"/><path d="M-1003.04 322.75l8.8-12.14 5.46 7.5z" stroke="#cc4e00" stroke-width="2" fill="#cc4e00"/><path d="M-940 378v-58.5" stroke="#cc4e00" stroke-width="2" fill="none"/><path d="M-939.02 379.1l-.94-.1-1 .03v-1.06h1.94z" stroke="#cc4e00" stroke-width=".05" fill="#cc4e00"/><path d="M-940 304.24l4.63 14.26h-9.26z" stroke="#cc4e00" stroke-width="2" fill="#cc4e00"/><path d="M-918.65 405.35l161.78 22.3" stroke="#cc4e00" stroke-width="2" fill="none"/><path d="M-918.5 404.4l-.26 1.92-1.25-.17.36-.94.12-.95z" stroke="#cc4e00" stroke-width=".05" fill="#cc4e00"/><path d="M-741.74 429.73l-14.77 2.64 1.26-9.18z" stroke="#cc4e00" stroke-width="2" fill="#cc4e00"/><path d="M-859.5 449.9l-48.27-27.5" stroke="#cc4e00" stroke-width="2" fill="none"/><path d="M-858.16 449.54l-.3.4-.53 1.38-1-.58.96-1.7z" stroke="#cc4e00" stroke-width=".05" fill="#cc4e00"/><path d="M-921.03 414.83l14.7 3.04-4.6 8.05z" stroke="#cc4e00" stroke-width="2" fill="#cc4e00"/><path d="M-830.3 440.33l31.66-65.6" stroke="#cc4e00" stroke-width="2" fill="none"/><path d="M-829.42 440.74l-.43.88-.1-.07-1.7-.67.47-1z" stroke="#cc4e00" stroke-width=".05" fill="#cc4e00"/><path d="M-792 360.97l-2.03 14.86-8.35-4.02z" stroke="#cc4e00" stroke-width="2" fill="#cc4e00"/><path d="M-741.05 446.16l-59.93 8.44" stroke="#cc4e00" stroke-width="2" fill="none"/><path d="M-739.94 446.63l.16.33-1.16.17-.27-1.93.95-.14z" stroke="#cc4e00" stroke-width=".05" fill="#cc4e00"/><path d="M-816.1 456.73l13.48-6.58 1.3 9.18z" stroke="#cc4e00" stroke-width="2" fill="#cc4e00"/><path d="M-825.1 475.95l94 59.96" stroke="#cc4e00" stroke-width="2" fill="none"/><path d="M-824.55 475.14l-1.05 1.65-1.13-.73 1.58-1.3z" stroke="#cc4e00" stroke-width=".05" fill="#cc4e00"/><path d="M-718.23 544.12l-14.52-3.77 5-7.8z" stroke="#cc4e00" stroke-width="2" fill="#cc4e00"/><path d="M-719.75 461.97l15.15 59.1" stroke="#cc4e00" stroke-width="2" fill="none"/><path d="M-720.04 461l1.04-.04.2.8-1.9.48-.34-1.36z" stroke="#cc4e00" stroke-width=".05" fill="#cc4e00"/><path d="M-700.8 535.87l-8.04-12.67 8.98-2.3z" stroke="#cc4e00" stroke-width="2" fill="#cc4e00"/><path d="M-706.53 422.78L-683 391.9" stroke="#cc4e00" stroke-width="2" fill="none"/><path d="M-705.74 423.35l-.6.8-1.6-1.14.65-.83z" stroke="#cc4e00" stroke-width=".05" fill="#cc4e00"/><path d="M-673.75 379.77l-4.96 14.16-7.4-5.62z" stroke="#cc4e00" stroke-width="2" fill="#cc4e00"/><path d="M-768.23 358.58l29.34 46.97" stroke="#cc4e00" stroke-width="2" fill="none"/><path d="M-767.4 358.1l-1.65 1.02-.6-.96 1-.47.66-.57z" stroke="#cc4e00" stroke-width=".05" fill="#cc4e00"/><path d="M-730.8 418.5l-11.5-9.65 7.87-4.9z" stroke="#cc4e00" stroke-width="2" fill="#cc4e00"/><path d="M-715 418.6l24.6-120.7" stroke="#cc4e00" stroke-width="2" fill="none"/><path d="M-714.04 418.78l-.22 1.07-.53-.2-1.37-.18.22-1.08z" stroke="#cc4e00" stroke-width=".05" fill="#cc4e00"/><path d="M-687.36 282.94l1.7 14.9-9.1-1.85z" stroke="#cc4e00" stroke-width="2" fill="#cc4e00"/><path d="M-798.88 245.9l80.1 7.22" stroke="#cc4e00" stroke-width="2" fill="none"/><path d="M-798.77 244.93l-.17 1.94-1.3-.12.6-1.54.04-.35z" stroke="#cc4e00" stroke-width=".05" fill="#cc4e00"/><path d="M-703.58 254.5l-14.62 3.33.83-9.23z" stroke="#cc4e00" stroke-width="2" fill="#cc4e00"/><path d="M-665.5 338.82l-5.03-40.8" stroke="#cc4e00" stroke-width="2" fill="none"/><path d="M-664.42 339.62l-1.92.38-.13-1.1 1.94-.23z" stroke="#cc4e00" stroke-width=".05" fill="#cc4e00"/><path d="M-672.4 282.88l6.35 13.6-9.2 1.12z" stroke="#cc4e00" stroke-width="2" fill="#cc4e00"/><path d="M-761.83 327.68l52.87-41" stroke="#cc4e00" stroke-width="2" fill="none"/><path d="M-761.2 328.44l-.9.68-.2-.46-.94-1.1.84-.66z" stroke="#cc4e00" stroke-width=".05" fill="#cc4e00"/><path d="M-696.9 277.33l-8.43 12.4-5.68-7.32z" stroke="#cc4e00" stroke-width="2" fill="#cc4e00"/><path d="M-699.3 690.25l-43.46 16.6" stroke="#008a0e" stroke-width="2" fill="none"/><path d="M-697.96 690.77l-1.03.4-.7-1.82.9-.34z" stroke="#008a0e" stroke-width=".05" fill="#008a0e"/><path d="M-757.02 712.3l11.67-9.4 3.3 8.65z" stroke="#008a0e" stroke-width="2" fill="#008a0e"/><path d="M-765.34 661.34l-5.08 20.34" stroke="#008a0e" stroke-width="2" fill="none"/><path d="M-765.2 660.36l1.08.13-.28 1.1-1.9-.47.28-1.1z" stroke="#008a0e" stroke-width=".05" fill="#008a0e"/><path d="M-774.12 696.5l-1.04-14.97 9 2.24z" stroke="#008a0e" stroke-width="2" fill="#008a0e"/><path d="M-802 720h-18.5" stroke="#008a0e" stroke-width="2" fill="none"/><path d="M-801 719.96l.03 1h-1.06v-1.94h1.14z" stroke="#008a0e" stroke-width=".05" fill="#008a0e"/><path d="M-835.76 720l14.26-4.63v9.26z" stroke="#008a0e" stroke-width="2" fill="#008a0e"/><path d="M-1051.87 480.33l17.24 43.1" stroke="#cc4e00" stroke-width="2" fill="none"/><path d="M-1050.95 480l-1.82.7-.35-.88 1.76-.84z" stroke="#cc4e00" stroke-width=".05" fill="#cc4e00"/><path d="M-1028.96 537.6l-9.6-11.53 8.6-3.44z" stroke="#cc4e00" stroke-width="2" fill="#cc4e00"/><path d="M-1020 702v38.5" stroke="#635dff" stroke-width="2" fill="none"/><path d="M-1020.04 701l1-.03v1.06h-1.94v-1.14z" stroke="#635dff" stroke-width=".05" fill="#635dff"/><path d="M-1020 755.76l-4.63-14.26h9.27z" stroke="#635dff" stroke-width="2" fill="#635dff"/><path d="M-938.97 730.97l-47.44 28.23" stroke="#635dff" stroke-width="2" fill="none"/><path d="M-937.7 731.34l-.8.48-1-1.68.97-.56z" stroke="#635dff" stroke-width=".05" fill="#635dff"/><path d="M-999.53 767l9.9-11.27 4.73 7.97z" stroke="#635dff" stroke-width="2" fill="#635dff"/><path d="M-982.72 692.74l27.03 10.5" stroke="#635dff" stroke-width="2" fill="none"/><path d="M-996.95 687.2l14.98.85-3.36 8.64zM-941.46 708.77l-14.98-.85 3.36-8.64z" stroke="#635dff" stroke-width="2" fill="#635dff"/><path d="M-1071.3 441.18l-28.4-47.36" stroke="#cc4e00" stroke-width="2" fill="none"/><path d="M-1069.9 441.62l-1.44.7-.27.22-.54-.88 1.67-1z" stroke="#cc4e00" stroke-width=".05" fill="#cc4e00"/><path d="M-1107.56 380.73l11.3 9.85-7.93 4.77z" stroke="#cc4e00" stroke-width="2" fill="#cc4e00"/><path d="M-1078 260.17l98.75 16.7" stroke="#cc4e00" stroke-width="2" fill="none"/><path d="M-1077.83 259.2l-.32 1.93-.96-.16.1-.93-.04-1.04z" stroke="#cc4e00" stroke-width=".05" fill="#cc4e00"/><path d="M-964.2 279.42l-14.83 2.2 1.54-9.15z" stroke="#cc4e00" stroke-width="2" fill="#cc4e00"/><path d="M-998 340h178.5" stroke="#cc4e00" stroke-width="2" fill="none"/><path d="M-997.97 340.98h-1.14l.1-.94-.03-1.02h1.06z" stroke="#cc4e00" stroke-width=".05" fill="#cc4e00"/><path d="M-804.24 340l-14.26 4.63v-9.26z" stroke="#cc4e00" stroke-width="2" fill="#cc4e00"/><path d="M-1038 460h158.5" stroke="#cc4e00" stroke-width="2" fill="none"/><path d="M-1037.97 460.98h-1.14l.1-.94-.03-1.02h1.06z" stroke="#cc4e00" stroke-width=".05" fill="#cc4e00"/><path d="M-864.24 460l-14.26 4.63v-9.26z" stroke="#cc4e00" stroke-width="2" fill="#cc4e00"/><path d="M-680 560c0 11.05-8.95 20-20 20s-20-8.95-20-20 8.95-20 20-20 20 8.95 20 20z" stroke="#008a0e" stroke-width="2" fill="url(#a)"/><path d="M-1000 620c0 11.05-8.95 20-20 20s-20-8.95-20-20 8.95-20 20-20 20 8.95 20 20z" stroke="#635dff" stroke-width="2" fill="url(#b)"/><path d="M-840 720c0 11.05-8.95 20-20 20s-20-8.95-20-20 8.95-20 20-20 20 8.95 20 20z" stroke="#635dff" stroke-width="2" fill="url(#c)"/><path d="M-715.8 575.08l-20.33 33.7" stroke="#008a0e" stroke-width="2" fill="none"/><path d="M-714.62 575l-.35.6-1.67-1 .7-1.17z" stroke="#008a0e" stroke-width=".05" fill="#008a0e"/><path d="M-744 621.86l3.4-14.62 7.93 4.8z" stroke="#008a0e" stroke-width="2" fill="#008a0e"/><path d="M-693.2 580.93l10.12 59.83" stroke="#008a0e" stroke-width="2" fill="none"/><path d="M-692.24 580.8l-1.92.3-.17-.97.96-.2.9-.43z" stroke="#008a0e" stroke-width=".05" fill="#008a0e"/><path d="M-680.54 655.8l-6.95-13.28 9.15-1.55z" stroke="#008a0e" stroke-width="2" fill="#008a0e"/><path d="M-882 720h1" stroke="#635dff" stroke-width="2" fill="none"/><path d="M-881 719.96l.03 1h-1.06v-1.94h1.14z" stroke="#635dff" stroke-width=".05" fill="#635dff"/><path d="M-895.76 720l14.26-4.63v9.26z" stroke="#635dff" stroke-width="2" fill="#635dff"/><path d="M-1020 642v-1" stroke="#635dff" stroke-width="2" fill="none"/><path d="M-1020.04 641l1-.03v1.06h-1.94v-1.14z" stroke="#635dff" stroke-width=".05" fill="#635dff"/><path d="M-1020 655.76l-4.63-14.26h9.27z" stroke="#635dff" stroke-width="2" fill="#635dff"/><path d="M-1000 560c0 11.05-8.95 20-20 20s-20-8.95-20-20 8.95-20 20-20 20 8.95 20 20z" stroke="#008a0e" stroke-width="2" fill="url(#d)"/><path d="M-1020 582v-1" stroke="#008a0e" stroke-width="2" fill="none"/><path d="M-1020.04 581l1-.03v1.06h-1.94v-1.14z" stroke="#008a0e" stroke-width=".05" fill="#008a0e"/><path d="M-1020 595.76l-4.63-14.26h9.27z" stroke="#008a0e" stroke-width="2" fill="#008a0e"/><defs><linearGradient gradientUnits="userSpaceOnUse" id="a" x1="-720" y1="540" x2="-720" y2="580"><stop offset="0%" stop-color="#ffd9d9"/><stop offset="100%" stop-color="#c3f7c8"/></linearGradient><linearGradient gradientUnits="userSpaceOnUse" id="b" x1="-1040" y1="600" x2="-1040" y2="640"><stop offset="0%" stop-color="#c3f7c8"/><stop offset="100%" stop-color="#dedeff"/></linearGradient><linearGradient gradientUnits="userSpaceOnUse" id="c" x1="-840" y1="740" x2="-880" y2="740"><stop offset="0%" stop-color="#c3f7c8"/><stop offset="100%" stop-color="#dedeff"/></linearGradient><linearGradient gradientUnits="userSpaceOnUse" id="d" x1="-1040" y1="540" x2="-1040" y2="580"><stop offset="0%" stop-color="#ffd9d9"/><stop offset="100%" stop-color="#c3f7c8"/></linearGradient></defs></g></svg>